<?xml version="1.0" encoding="utf-8" standalone="no"?>
<!DOCTYPE svg PUBLIC "-//W3C//DTD SVG 1.1//EN"
  "http://www.w3.org/Graphics/SVG/1.1/DTD/svg11.dtd">
<!-- Created with matplotlib (http://matplotlib.org/) -->
<svg height="285.213437pt" version="1.1" viewBox="0 0 746.754688 285.213437" width="746.754688pt" xmlns="http://www.w3.org/2000/svg" xmlns:xlink="http://www.w3.org/1999/xlink">
 <defs>
  <style type="text/css">
*{stroke-linecap:butt;stroke-linejoin:round;}
  </style>
 </defs>
 <g id="figure_1">
  <g id="patch_1">
   <path d="M 0 285.213437 
L 746.754688 285.213437 
L 746.754688 0 
L 0 0 
z
" style="fill:#ffffff;"/>
  </g>
  <g id="axes_1">
   <g id="patch_2">
    <path d="M 63.954687 230.64 
L 355.085122 230.64 
L 355.085122 13.2 
L 63.954687 13.2 
z
" style="fill:#ffffff;"/>
   </g>
   <g id="PolyCollection_1">
    <defs>
     <path d="M 63.954687 -55.690502 
L 63.954687 -53.456373 
L 68.113694 -76.699387 
L 72.2727 -101.625463 
L 76.431706 -128.30396 
L 80.590712 -156.476078 
L 84.749719 -183.573097 
L 88.908725 -205.340473 
L 93.067731 -217.934772 
L 97.226737 -219.266501 
L 101.385743 -207.949368 
L 105.54475 -191.332548 
L 109.703756 -177.872822 
L 113.862762 -167.552324 
L 118.021768 -167.154877 
L 122.180774 -174.939783 
L 126.339781 -187.544649 
L 130.498787 -196.828479 
L 134.657793 -205.735138 
L 138.816799 -207.324469 
L 142.975806 -204.904472 
L 147.134812 -195.904991 
L 151.293818 -187.681988 
L 155.452824 -183.257734 
L 159.61183 -179.0885 
L 163.770837 -182.793865 
L 167.929843 -190.161085 
L 172.088849 -196.078189 
L 176.247855 -202.063363 
L 180.406861 -203.558896 
L 184.565868 -200.654426 
L 188.724874 -199.07627 
L 192.88388 -191.704459 
L 197.042886 -184.481352 
L 201.201892 -183.035675 
L 205.360899 -187.113035 
L 209.519905 -191.808077 
L 213.678911 -196.425381 
L 217.837917 -200.656854 
L 221.996924 -198.996 
L 226.15593 -198.507493 
L 230.314936 -196.721502 
L 234.473942 -193.086212 
L 238.632948 -188.833799 
L 242.791955 -188.817384 
L 246.950961 -188.536383 
L 251.109967 -190.662341 
L 255.268973 -192.857891 
L 259.427979 -195.728489 
L 263.586986 -197.885589 
L 267.745992 -199.65824 
L 271.904998 -196.02156 
L 276.064004 -193.923403 
L 280.22301 -191.554379 
L 284.382017 -188.853007 
L 288.541023 -190.185467 
L 292.700029 -192.420704 
L 296.859035 -193.66131 
L 301.018042 -195.42267 
L 305.177048 -196.614456 
L 309.336054 -197.062959 
L 313.49506 -195.44581 
L 317.654066 -192.82398 
L 321.813073 -191.665307 
L 325.972079 -192.321545 
L 330.131085 -191.139866 
L 334.290091 -192.601845 
L 338.449097 -194.351277 
L 342.608104 -194.338357 
L 346.76711 -196.676741 
L 350.926116 -197.262784 
L 355.085122 -196.279563 
L 359.244128 -196.532131 
L 363.403135 -194.331708 
L 367.562141 -193.975642 
L 371.721147 -194.576057 
L 375.880153 -194.282695 
L 380.03916 -194.048022 
L 384.198166 -197.207821 
L 388.357172 -198.385878 
L 392.516178 -199.81858 
L 396.675184 -198.842901 
L 400.834191 -197.015701 
L 404.993197 -194.431679 
L 409.152203 -193.783458 
L 413.311209 -193.749156 
L 417.470215 -192.236511 
L 421.629222 -192.03868 
L 425.788228 -193.524411 
L 429.947234 -194.91187 
L 434.10624 -194.515718 
L 438.265247 -194.743402 
L 442.424253 -195.04528 
L 446.583259 -194.14348 
L 450.742265 -192.650547 
L 454.901271 -191.977348 
L 459.060278 -194.523726 
L 463.219284 -193.058485 
L 467.37829 -192.051557 
L 471.537296 -193.818246 
L 475.696302 -193.892659 
L 479.855309 -193.853366 
L 479.855309 -201.05545 
L 479.855309 -201.05545 
L 475.696302 -201.075261 
L 471.537296 -200.925246 
L 467.37829 -199.08669 
L 463.219284 -200.098084 
L 459.060278 -201.607896 
L 454.901271 -199.063122 
L 450.742265 -199.791896 
L 446.583259 -201.297175 
L 442.424253 -202.246385 
L 438.265247 -201.962701 
L 434.10624 -201.661607 
L 429.947234 -201.959182 
L 425.788228 -200.469139 
L 421.629222 -198.956679 
L 417.470215 -199.259549 
L 413.311209 -200.818793 
L 409.152203 -200.941894 
L 404.993197 -201.591407 
L 400.834191 -204.229779 
L 396.675184 -205.988189 
L 392.516178 -206.945872 
L 388.357172 -205.509343 
L 384.198166 -204.286096 
L 380.03916 -201.086929 
L 375.880153 -201.44042 
L 371.721147 -201.760121 
L 367.562141 -201.236236 
L 363.403135 -201.653824 
L 359.244128 -203.905968 
L 355.085122 -203.421074 
L 350.926116 -204.3679 
L 346.76711 -203.744805 
L 342.608104 -201.275407 
L 338.449097 -201.294413 
L 334.290091 -199.585758 
L 330.131085 -198.256782 
L 325.972079 -199.578152 
L 321.813073 -199.00719 
L 317.654066 -200.200621 
L 313.49506 -202.683648 
L 309.336054 -204.261334 
L 305.177048 -203.587647 
L 301.018042 -202.318264 
L 296.859035 -200.464766 
L 292.700029 -199.318498 
L 288.541023 -197.26082 
L 284.382017 -196.136236 
L 280.22301 -198.986618 
L 276.064004 -201.364578 
L 271.904998 -203.433324 
L 267.745992 -206.89436 
L 263.586986 -204.810869 
L 259.427979 -202.375909 
L 255.268973 -199.428536 
L 251.109967 -197.340093 
L 246.950961 -195.356846 
L 242.791955 -195.987 
L 238.632948 -196.267051 
L 234.473942 -200.671455 
L 230.314936 -204.274698 
L 226.15593 -205.825685 
L 221.996924 -205.958797 
L 217.837917 -207.340244 
L 213.678911 -202.935054 
L 209.519905 -198.411627 
L 205.360899 -193.909 
L 201.201892 -190.123822 
L 197.042886 -191.994745 
L 192.88388 -199.496678 
L 188.724874 -206.85766 
L 184.565868 -208.129844 
L 180.406861 -210.567619 
L 176.247855 -208.522436 
L 172.088849 -202.233375 
L 167.929843 -196.202066 
L 163.770837 -189.10426 
L 159.61183 -186.049957 
L 155.452824 -190.801216 
L 151.293818 -195.447323 
L 147.134812 -203.733676 
L 142.975806 -212.463371 
L 138.816799 -214.282048 
L 134.657793 -211.988845 
L 130.498787 -202.418366 
L 126.339781 -192.991682 
L 122.180774 -180.651102 
L 118.021768 -173.558949 
L 113.862762 -174.849017 
L 109.703756 -186.005135 
L 105.54475 -199.68725 
L 101.385743 -215.911761 
L 97.226737 -226.196326 
L 93.067731 -223.587709 
L 88.908725 -209.742696 
L 84.749719 -187.091776 
L 80.590712 -159.516865 
L 76.431706 -131.08675 
L 72.2727 -104.203458 
L 68.113694 -79.095495 
L 63.954687 -55.690502 
z
" id="mdd36fb6732"/>
    </defs>
    <g clip-path="url(#pb3ba92f3ea)">
     <use style="fill:#4db8ff;" x="0" xlink:href="#mdd36fb6732" y="285.213437"/>
    </g>
   </g>
   <g id="matplotlib.axis_1">
    <g id="xtick_1">
     <g id="line2d_1">
      <path clip-path="url(#pb3ba92f3ea)" d="M 63.954687 230.64 
L 63.954687 13.2 
" style="fill:none;stroke:#b0b0b0;stroke-linecap:square;stroke-width:0.8;"/>
     </g>
     <g id="line2d_2">
      <defs>
       <path d="M 0 0 
L 0 6 
" id="m8a8272c710"/>
      </defs>
      <g>
       <use x="63.954687" xlink:href="#m8a8272c710" y="230.64"/>
      </g>
     </g>
     <g id="text_1">
      <!-- 0 -->
      <defs>
       <path d="M 31.78125 66.40625 
Q 24.171875 66.40625 20.328125 58.90625 
Q 16.5 51.421875 16.5 36.375 
Q 16.5 21.390625 20.328125 13.890625 
Q 24.171875 6.390625 31.78125 6.390625 
Q 39.453125 6.390625 43.28125 13.890625 
Q 47.125 21.390625 47.125 36.375 
Q 47.125 51.421875 43.28125 58.90625 
Q 39.453125 66.40625 31.78125 66.40625 
z
M 31.78125 74.21875 
Q 44.046875 74.21875 50.515625 64.515625 
Q 56.984375 54.828125 56.984375 36.375 
Q 56.984375 17.96875 50.515625 8.265625 
Q 44.046875 -1.421875 31.78125 -1.421875 
Q 19.53125 -1.421875 13.0625 8.265625 
Q 6.59375 17.96875 6.59375 36.375 
Q 6.59375 54.828125 13.0625 64.515625 
Q 19.53125 74.21875 31.78125 74.21875 
z
" id="DejaVuSans-30"/>
      </defs>
      <g transform="translate(59.182812 251.537656)scale(0.15 -0.15)">
       <use xlink:href="#DejaVuSans-30"/>
      </g>
     </g>
    </g>
    <g id="xtick_2">
     <g id="line2d_3">
      <path clip-path="url(#pb3ba92f3ea)" d="M 105.54475 230.64 
L 105.54475 13.2 
" style="fill:none;stroke:#b0b0b0;stroke-linecap:square;stroke-width:0.8;"/>
     </g>
     <g id="line2d_4">
      <g>
       <use x="105.54475" xlink:href="#m8a8272c710" y="230.64"/>
      </g>
     </g>
     <g id="text_2">
      <!-- 1 -->
      <defs>
       <path d="M 12.40625 8.296875 
L 28.515625 8.296875 
L 28.515625 63.921875 
L 10.984375 60.40625 
L 10.984375 69.390625 
L 28.421875 72.90625 
L 38.28125 72.90625 
L 38.28125 8.296875 
L 54.390625 8.296875 
L 54.390625 0 
L 12.40625 0 
z
" id="DejaVuSans-31"/>
      </defs>
      <g transform="translate(100.772875 251.537656)scale(0.15 -0.15)">
       <use xlink:href="#DejaVuSans-31"/>
      </g>
     </g>
    </g>
    <g id="xtick_3">
     <g id="line2d_5">
      <path clip-path="url(#pb3ba92f3ea)" d="M 147.134812 230.64 
L 147.134812 13.2 
" style="fill:none;stroke:#b0b0b0;stroke-linecap:square;stroke-width:0.8;"/>
     </g>
     <g id="line2d_6">
      <g>
       <use x="147.134812" xlink:href="#m8a8272c710" y="230.64"/>
      </g>
     </g>
     <g id="text_3">
      <!-- 2 -->
      <defs>
       <path d="M 19.1875 8.296875 
L 53.609375 8.296875 
L 53.609375 0 
L 7.328125 0 
L 7.328125 8.296875 
Q 12.9375 14.109375 22.625 23.890625 
Q 32.328125 33.6875 34.8125 36.53125 
Q 39.546875 41.84375 41.421875 45.53125 
Q 43.3125 49.21875 43.3125 52.78125 
Q 43.3125 58.59375 39.234375 62.25 
Q 35.15625 65.921875 28.609375 65.921875 
Q 23.96875 65.921875 18.8125 64.3125 
Q 13.671875 62.703125 7.8125 59.421875 
L 7.8125 69.390625 
Q 13.765625 71.78125 18.9375 73 
Q 24.125 74.21875 28.421875 74.21875 
Q 39.75 74.21875 46.484375 68.546875 
Q 53.21875 62.890625 53.21875 53.421875 
Q 53.21875 48.921875 51.53125 44.890625 
Q 49.859375 40.875 45.40625 35.40625 
Q 44.1875 33.984375 37.640625 27.21875 
Q 31.109375 20.453125 19.1875 8.296875 
z
" id="DejaVuSans-32"/>
      </defs>
      <g transform="translate(142.362937 251.537656)scale(0.15 -0.15)">
       <use xlink:href="#DejaVuSans-32"/>
      </g>
     </g>
    </g>
    <g id="xtick_4">
     <g id="line2d_7">
      <path clip-path="url(#pb3ba92f3ea)" d="M 188.724874 230.64 
L 188.724874 13.2 
" style="fill:none;stroke:#b0b0b0;stroke-linecap:square;stroke-width:0.8;"/>
     </g>
     <g id="line2d_8">
      <g>
       <use x="188.724874" xlink:href="#m8a8272c710" y="230.64"/>
      </g>
     </g>
     <g id="text_4">
      <!-- 3 -->
      <defs>
       <path d="M 40.578125 39.3125 
Q 47.65625 37.796875 51.625 33 
Q 55.609375 28.21875 55.609375 21.1875 
Q 55.609375 10.40625 48.1875 4.484375 
Q 40.765625 -1.421875 27.09375 -1.421875 
Q 22.515625 -1.421875 17.65625 -0.515625 
Q 12.796875 0.390625 7.625 2.203125 
L 7.625 11.71875 
Q 11.71875 9.328125 16.59375 8.109375 
Q 21.484375 6.890625 26.8125 6.890625 
Q 36.078125 6.890625 40.9375 10.546875 
Q 45.796875 14.203125 45.796875 21.1875 
Q 45.796875 27.640625 41.28125 31.265625 
Q 36.765625 34.90625 28.71875 34.90625 
L 20.21875 34.90625 
L 20.21875 43.015625 
L 29.109375 43.015625 
Q 36.375 43.015625 40.234375 45.921875 
Q 44.09375 48.828125 44.09375 54.296875 
Q 44.09375 59.90625 40.109375 62.90625 
Q 36.140625 65.921875 28.71875 65.921875 
Q 24.65625 65.921875 20.015625 65.03125 
Q 15.375 64.15625 9.8125 62.3125 
L 9.8125 71.09375 
Q 15.4375 72.65625 20.34375 73.4375 
Q 25.25 74.21875 29.59375 74.21875 
Q 40.828125 74.21875 47.359375 69.109375 
Q 53.90625 64.015625 53.90625 55.328125 
Q 53.90625 49.265625 50.4375 45.09375 
Q 46.96875 40.921875 40.578125 39.3125 
z
" id="DejaVuSans-33"/>
      </defs>
      <g transform="translate(183.952999 251.537656)scale(0.15 -0.15)">
       <use xlink:href="#DejaVuSans-33"/>
      </g>
     </g>
    </g>
    <g id="xtick_5">
     <g id="line2d_9">
      <path clip-path="url(#pb3ba92f3ea)" d="M 230.314936 230.64 
L 230.314936 13.2 
" style="fill:none;stroke:#b0b0b0;stroke-linecap:square;stroke-width:0.8;"/>
     </g>
     <g id="line2d_10">
      <g>
       <use x="230.314936" xlink:href="#m8a8272c710" y="230.64"/>
      </g>
     </g>
     <g id="text_5">
      <!-- 4 -->
      <defs>
       <path d="M 37.796875 64.3125 
L 12.890625 25.390625 
L 37.796875 25.390625 
z
M 35.203125 72.90625 
L 47.609375 72.90625 
L 47.609375 25.390625 
L 58.015625 25.390625 
L 58.015625 17.1875 
L 47.609375 17.1875 
L 47.609375 0 
L 37.796875 0 
L 37.796875 17.1875 
L 4.890625 17.1875 
L 4.890625 26.703125 
z
" id="DejaVuSans-34"/>
      </defs>
      <g transform="translate(225.543061 251.537656)scale(0.15 -0.15)">
       <use xlink:href="#DejaVuSans-34"/>
      </g>
     </g>
    </g>
    <g id="xtick_6">
     <g id="line2d_11">
      <path clip-path="url(#pb3ba92f3ea)" d="M 271.904998 230.64 
L 271.904998 13.2 
" style="fill:none;stroke:#b0b0b0;stroke-linecap:square;stroke-width:0.8;"/>
     </g>
     <g id="line2d_12">
      <g>
       <use x="271.904998" xlink:href="#m8a8272c710" y="230.64"/>
      </g>
     </g>
     <g id="text_6">
      <!-- 5 -->
      <defs>
       <path d="M 10.796875 72.90625 
L 49.515625 72.90625 
L 49.515625 64.59375 
L 19.828125 64.59375 
L 19.828125 46.734375 
Q 21.96875 47.46875 24.109375 47.828125 
Q 26.265625 48.1875 28.421875 48.1875 
Q 40.625 48.1875 47.75 41.5 
Q 54.890625 34.8125 54.890625 23.390625 
Q 54.890625 11.625 47.5625 5.09375 
Q 40.234375 -1.421875 26.90625 -1.421875 
Q 22.3125 -1.421875 17.546875 -0.640625 
Q 12.796875 0.140625 7.71875 1.703125 
L 7.71875 11.625 
Q 12.109375 9.234375 16.796875 8.0625 
Q 21.484375 6.890625 26.703125 6.890625 
Q 35.15625 6.890625 40.078125 11.328125 
Q 45.015625 15.765625 45.015625 23.390625 
Q 45.015625 31 40.078125 35.4375 
Q 35.15625 39.890625 26.703125 39.890625 
Q 22.75 39.890625 18.8125 39.015625 
Q 14.890625 38.140625 10.796875 36.28125 
z
" id="DejaVuSans-35"/>
      </defs>
      <g transform="translate(267.133123 251.537656)scale(0.15 -0.15)">
       <use xlink:href="#DejaVuSans-35"/>
      </g>
     </g>
    </g>
    <g id="xtick_7">
     <g id="line2d_13">
      <path clip-path="url(#pb3ba92f3ea)" d="M 313.49506 230.64 
L 313.49506 13.2 
" style="fill:none;stroke:#b0b0b0;stroke-linecap:square;stroke-width:0.8;"/>
     </g>
     <g id="line2d_14">
      <g>
       <use x="313.49506" xlink:href="#m8a8272c710" y="230.64"/>
      </g>
     </g>
     <g id="text_7">
      <!-- 6 -->
      <defs>
       <path d="M 33.015625 40.375 
Q 26.375 40.375 22.484375 35.828125 
Q 18.609375 31.296875 18.609375 23.390625 
Q 18.609375 15.53125 22.484375 10.953125 
Q 26.375 6.390625 33.015625 6.390625 
Q 39.65625 6.390625 43.53125 10.953125 
Q 47.40625 15.53125 47.40625 23.390625 
Q 47.40625 31.296875 43.53125 35.828125 
Q 39.65625 40.375 33.015625 40.375 
z
M 52.59375 71.296875 
L 52.59375 62.3125 
Q 48.875 64.0625 45.09375 64.984375 
Q 41.3125 65.921875 37.59375 65.921875 
Q 27.828125 65.921875 22.671875 59.328125 
Q 17.53125 52.734375 16.796875 39.40625 
Q 19.671875 43.65625 24.015625 45.921875 
Q 28.375 48.1875 33.59375 48.1875 
Q 44.578125 48.1875 50.953125 41.515625 
Q 57.328125 34.859375 57.328125 23.390625 
Q 57.328125 12.15625 50.6875 5.359375 
Q 44.046875 -1.421875 33.015625 -1.421875 
Q 20.359375 -1.421875 13.671875 8.265625 
Q 6.984375 17.96875 6.984375 36.375 
Q 6.984375 53.65625 15.1875 63.9375 
Q 23.390625 74.21875 37.203125 74.21875 
Q 40.921875 74.21875 44.703125 73.484375 
Q 48.484375 72.75 52.59375 71.296875 
z
" id="DejaVuSans-36"/>
      </defs>
      <g transform="translate(308.723185 251.537656)scale(0.15 -0.15)">
       <use xlink:href="#DejaVuSans-36"/>
      </g>
     </g>
    </g>
    <g id="xtick_8">
     <g id="line2d_15">
      <path clip-path="url(#pb3ba92f3ea)" d="M 355.085122 230.64 
L 355.085122 13.2 
" style="fill:none;stroke:#b0b0b0;stroke-linecap:square;stroke-width:0.8;"/>
     </g>
     <g id="line2d_16">
      <g>
       <use x="355.085122" xlink:href="#m8a8272c710" y="230.64"/>
      </g>
     </g>
     <g id="text_8">
      <!-- 7 -->
      <defs>
       <path d="M 8.203125 72.90625 
L 55.078125 72.90625 
L 55.078125 68.703125 
L 28.609375 0 
L 18.3125 0 
L 43.21875 64.59375 
L 8.203125 64.59375 
z
" id="DejaVuSans-37"/>
      </defs>
      <g transform="translate(350.313247 251.537656)scale(0.15 -0.15)">
       <use xlink:href="#DejaVuSans-37"/>
      </g>
     </g>
    </g>
    <g id="text_9">
     <!-- $t/\tau$ -->
     <defs>
      <path d="M 42.28125 54.6875 
L 40.921875 47.703125 
L 23 47.703125 
L 17.1875 18.015625 
Q 16.890625 16.359375 16.75 15.234375 
Q 16.609375 14.109375 16.609375 13.484375 
Q 16.609375 10.359375 18.484375 8.9375 
Q 20.359375 7.515625 24.515625 7.515625 
L 33.59375 7.515625 
L 32.078125 0 
L 23.484375 0 
Q 15.484375 0 11.546875 3.125 
Q 7.625 6.25 7.625 12.59375 
Q 7.625 13.71875 7.765625 15.0625 
Q 7.90625 16.40625 8.203125 18.015625 
L 14.015625 47.703125 
L 6.390625 47.703125 
L 7.8125 54.6875 
L 15.28125 54.6875 
L 18.3125 70.21875 
L 27.296875 70.21875 
L 24.3125 54.6875 
z
" id="DejaVuSans-Oblique-74"/>
      <path d="M 25.390625 72.90625 
L 33.6875 72.90625 
L 8.296875 -9.28125 
L 0 -9.28125 
z
" id="DejaVuSans-2f"/>
      <path d="M 32.859375 9.96875 
Q 34.1875 7.625 39.453125 7.625 
L 43.75 7.625 
L 42.28125 0 
L 36.921875 0 
Q 28.125 0 25 4.6875 
Q 21.921875 9.46875 23.96875 19.828125 
L 29 45.703125 
L 8.453125 45.703125 
L 10.203125 54.6875 
L 60.640625 54.6875 
L 58.890625 45.703125 
L 38.1875 45.703125 
L 33.015625 19.28125 
Q 31.640625 12.203125 32.859375 9.96875 
z
" id="DejaVuSans-Oblique-3c4"/>
     </defs>
     <g transform="translate(196.119905 273.854062)scale(0.2 -0.2)">
      <use transform="translate(0 0.09375)" xlink:href="#DejaVuSans-Oblique-74"/>
      <use transform="translate(39.208984 0.09375)" xlink:href="#DejaVuSans-2f"/>
      <use transform="translate(72.900391 0.09375)" xlink:href="#DejaVuSans-Oblique-3c4"/>
     </g>
    </g>
   </g>
   <g id="matplotlib.axis_2">
    <g id="ytick_1">
     <g id="line2d_17">
      <path clip-path="url(#pb3ba92f3ea)" d="M 63.954687 231.0787 
L 355.085122 231.0787 
" style="fill:none;stroke:#b0b0b0;stroke-linecap:square;stroke-width:0.8;"/>
     </g>
     <g id="line2d_18">
      <defs>
       <path d="M 0 0 
L -6 0 
" id="m9a4a3201dd"/>
      </defs>
      <g>
       <use x="63.954687" xlink:href="#m9a4a3201dd" y="231.0787"/>
      </g>
     </g>
     <g id="text_10">
      <!-- 3.0 -->
      <defs>
       <path d="M 10.6875 12.40625 
L 21 12.40625 
L 21 0 
L 10.6875 0 
z
" id="DejaVuSans-2e"/>
      </defs>
      <g transform="translate(30.6 236.777529)scale(0.15 -0.15)">
       <use xlink:href="#DejaVuSans-33"/>
       <use x="63.623047" xlink:href="#DejaVuSans-2e"/>
       <use x="95.410156" xlink:href="#DejaVuSans-30"/>
      </g>
     </g>
    </g>
    <g id="ytick_2">
     <g id="line2d_19">
      <path clip-path="url(#pb3ba92f3ea)" d="M 63.954687 177.041439 
L 355.085122 177.041439 
" style="fill:none;stroke:#b0b0b0;stroke-linecap:square;stroke-width:0.8;"/>
     </g>
     <g id="line2d_20">
      <g>
       <use x="63.954687" xlink:href="#m9a4a3201dd" y="177.041439"/>
      </g>
     </g>
     <g id="text_11">
      <!-- 3.5 -->
      <g transform="translate(30.6 182.740267)scale(0.15 -0.15)">
       <use xlink:href="#DejaVuSans-33"/>
       <use x="63.623047" xlink:href="#DejaVuSans-2e"/>
       <use x="95.410156" xlink:href="#DejaVuSans-35"/>
      </g>
     </g>
    </g>
    <g id="ytick_3">
     <g id="line2d_21">
      <path clip-path="url(#pb3ba92f3ea)" d="M 63.954687 123.004178 
L 355.085122 123.004178 
" style="fill:none;stroke:#b0b0b0;stroke-linecap:square;stroke-width:0.8;"/>
     </g>
     <g id="line2d_22">
      <g>
       <use x="63.954687" xlink:href="#m9a4a3201dd" y="123.004178"/>
      </g>
     </g>
     <g id="text_12">
      <!-- 4.0 -->
      <g transform="translate(30.6 128.703006)scale(0.15 -0.15)">
       <use xlink:href="#DejaVuSans-34"/>
       <use x="63.623047" xlink:href="#DejaVuSans-2e"/>
       <use x="95.410156" xlink:href="#DejaVuSans-30"/>
      </g>
     </g>
    </g>
    <g id="ytick_4">
     <g id="line2d_23">
      <path clip-path="url(#pb3ba92f3ea)" d="M 63.954687 68.966917 
L 355.085122 68.966917 
" style="fill:none;stroke:#b0b0b0;stroke-linecap:square;stroke-width:0.8;"/>
     </g>
     <g id="line2d_24">
      <g>
       <use x="63.954687" xlink:href="#m9a4a3201dd" y="68.966917"/>
      </g>
     </g>
     <g id="text_13">
      <!-- 4.5 -->
      <g transform="translate(30.6 74.665745)scale(0.15 -0.15)">
       <use xlink:href="#DejaVuSans-34"/>
       <use x="63.623047" xlink:href="#DejaVuSans-2e"/>
       <use x="95.410156" xlink:href="#DejaVuSans-35"/>
      </g>
     </g>
    </g>
    <g id="ytick_5">
     <g id="line2d_25">
      <path clip-path="url(#pb3ba92f3ea)" d="M 63.954687 14.929656 
L 355.085122 14.929656 
" style="fill:none;stroke:#b0b0b0;stroke-linecap:square;stroke-width:0.8;"/>
     </g>
     <g id="line2d_26">
      <g>
       <use x="63.954687" xlink:href="#m9a4a3201dd" y="14.929656"/>
      </g>
     </g>
     <g id="text_14">
      <!-- 5.0 -->
      <g transform="translate(30.6 20.628484)scale(0.15 -0.15)">
       <use xlink:href="#DejaVuSans-35"/>
       <use x="63.623047" xlink:href="#DejaVuSans-2e"/>
       <use x="95.410156" xlink:href="#DejaVuSans-30"/>
      </g>
     </g>
    </g>
    <g id="text_15">
     <!-- $s$ $(\mu m)$ -->
     <defs>
      <path d="M 50 53.078125 
L 48.296875 44.578125 
Q 44.734375 46.53125 40.765625 47.5 
Q 36.8125 48.484375 32.625 48.484375 
Q 25.53125 48.484375 21.453125 46.0625 
Q 17.390625 43.65625 17.390625 39.5 
Q 17.390625 34.671875 26.859375 32.078125 
Q 27.59375 31.890625 27.9375 31.78125 
L 30.8125 30.90625 
Q 39.796875 28.421875 42.796875 25.6875 
Q 45.796875 22.953125 45.796875 18.21875 
Q 45.796875 9.515625 38.890625 4.046875 
Q 31.984375 -1.421875 20.796875 -1.421875 
Q 16.453125 -1.421875 11.671875 -0.578125 
Q 6.890625 0.25 1.125 2 
L 2.875 11.28125 
Q 7.8125 8.734375 12.59375 7.421875 
Q 17.390625 6.109375 21.78125 6.109375 
Q 28.375 6.109375 32.5 8.9375 
Q 36.625 11.765625 36.625 16.109375 
Q 36.625 20.796875 25.78125 23.6875 
L 24.859375 23.921875 
L 21.78125 24.703125 
Q 14.9375 26.515625 11.765625 29.46875 
Q 8.59375 32.421875 8.59375 37.015625 
Q 8.59375 45.75 15.15625 50.875 
Q 21.734375 56 33.015625 56 
Q 37.453125 56 41.671875 55.265625 
Q 45.90625 54.546875 50 53.078125 
z
" id="DejaVuSans-Oblique-73"/>
      <path id="DejaVuSans-20"/>
      <path d="M 31 75.875 
Q 24.46875 64.65625 21.28125 53.65625 
Q 18.109375 42.671875 18.109375 31.390625 
Q 18.109375 20.125 21.3125 9.0625 
Q 24.515625 -2 31 -13.1875 
L 23.1875 -13.1875 
Q 15.875 -1.703125 12.234375 9.375 
Q 8.59375 20.453125 8.59375 31.390625 
Q 8.59375 42.28125 12.203125 53.3125 
Q 15.828125 64.359375 23.1875 75.875 
z
" id="DejaVuSans-28"/>
      <path d="M -1.3125 -20.796875 
L 13.375 54.6875 
L 22.40625 54.6875 
L 15.765625 20.65625 
Q 15.578125 19.625 15.421875 18.359375 
Q 15.28125 17.09375 15.28125 15.828125 
Q 15.28125 11.28125 18.140625 8.828125 
Q 21 6.390625 26.3125 6.390625 
Q 33.546875 6.390625 37.984375 10.484375 
Q 42.4375 14.59375 44 22.796875 
L 50.203125 54.6875 
L 59.1875 54.6875 
L 51.03125 12.640625 
Q 50.828125 11.71875 50.75 11.03125 
Q 50.6875 10.359375 50.6875 9.8125 
Q 50.6875 8.296875 51.296875 7.59375 
Q 51.90625 6.890625 53.21875 6.890625 
Q 53.71875 6.890625 54.5625 7.125 
Q 55.421875 7.375 56.984375 8.015625 
L 55.609375 0.78125 
Q 53.46875 -0.296875 51.515625 -0.859375 
Q 49.5625 -1.421875 47.703125 -1.421875 
Q 44.484375 -1.421875 42.65625 0.625 
Q 40.828125 2.6875 40.828125 6.296875 
Q 38.09375 2.390625 34.296875 0.484375 
Q 30.515625 -1.421875 25.390625 -1.421875 
Q 20.84375 -1.421875 17.453125 0.671875 
Q 14.0625 2.78125 12.984375 6.203125 
L 7.71875 -20.796875 
z
" id="DejaVuSans-Oblique-3bc"/>
      <path d="M 89.796875 33.015625 
L 83.40625 0 
L 74.421875 0 
L 80.71875 32.71875 
Q 81.109375 34.8125 81.296875 36.328125 
Q 81.5 37.84375 81.5 38.921875 
Q 81.5 43.3125 79.046875 45.75 
Q 76.609375 48.1875 72.21875 48.1875 
Q 65.671875 48.1875 60.546875 43.28125 
Q 55.421875 38.375 53.90625 30.515625 
L 47.90625 0 
L 38.921875 0 
L 45.3125 32.71875 
Q 45.703125 34.515625 45.890625 36.046875 
Q 46.09375 37.59375 46.09375 38.8125 
Q 46.09375 43.265625 43.65625 45.71875 
Q 41.21875 48.1875 36.921875 48.1875 
Q 30.28125 48.1875 25.140625 43.28125 
Q 20.015625 38.375 18.5 30.515625 
L 12.5 0 
L 3.515625 0 
L 14.203125 54.6875 
L 23.1875 54.6875 
L 21.484375 46.1875 
Q 25.140625 50.984375 30.046875 53.484375 
Q 34.96875 56 40.578125 56 
Q 46.53125 56 50.359375 52.875 
Q 54.203125 49.75 54.984375 44.1875 
Q 59.078125 49.953125 64.46875 52.96875 
Q 69.875 56 75.875 56 
Q 82.90625 56 86.734375 51.953125 
Q 90.578125 47.90625 90.578125 40.484375 
Q 90.578125 38.875 90.375 36.9375 
Q 90.1875 35.015625 89.796875 33.015625 
z
" id="DejaVuSans-Oblique-6d"/>
      <path d="M 8.015625 75.875 
L 15.828125 75.875 
Q 23.140625 64.359375 26.78125 53.3125 
Q 30.421875 42.28125 30.421875 31.390625 
Q 30.421875 20.453125 26.78125 9.375 
Q 23.140625 -1.703125 15.828125 -13.1875 
L 8.015625 -13.1875 
Q 14.5 -2 17.703125 9.0625 
Q 20.90625 20.125 20.90625 31.390625 
Q 20.90625 42.671875 17.703125 53.65625 
Q 14.5 64.65625 8.015625 75.875 
z
" id="DejaVuSans-29"/>
     </defs>
     <g transform="translate(22.4 154.22)rotate(-90)scale(0.2 -0.2)">
      <use transform="translate(0 0.125)" xlink:href="#DejaVuSans-Oblique-73"/>
      <use transform="translate(52.099609 0.125)" xlink:href="#DejaVuSans-20"/>
      <use transform="translate(83.886719 0.125)" xlink:href="#DejaVuSans-28"/>
      <use transform="translate(122.900391 0.125)" xlink:href="#DejaVuSans-Oblique-3bc"/>
      <use transform="translate(186.523438 0.125)" xlink:href="#DejaVuSans-Oblique-6d"/>
      <use transform="translate(283.935547 0.125)" xlink:href="#DejaVuSans-29"/>
     </g>
    </g>
   </g>
   <g id="line2d_27">
    <path clip-path="url(#pb3ba92f3ea)" d="M 63.954687 230.64 
L 68.113694 207.315996 
L 72.2727 182.298977 
L 76.431706 155.518083 
L 80.590712 127.216966 
L 84.749719 99.881001 
L 88.908725 77.671853 
L 93.067731 64.452197 
L 97.226737 62.482024 
L 101.385743 73.282873 
L 105.54475 89.703539 
L 109.703756 103.274459 
L 113.862762 114.012767 
L 118.021768 114.856524 
L 122.180774 107.417995 
L 126.339781 94.945272 
L 130.498787 85.590015 
L 134.657793 76.351446 
L 138.816799 74.410179 
L 142.975806 76.529516 
L 147.134812 85.394104 
L 151.293818 93.648782 
L 155.452824 98.183963 
L 159.61183 102.644209 
L 163.770837 99.264375 
L 167.929843 92.031862 
L 172.088849 86.057656 
L 176.247855 79.920538 
L 180.406861 78.15018 
L 184.565868 80.821302 
L 188.724874 82.246472 
L 192.88388 89.612869 
L 197.042886 96.975389 
L 201.201892 98.633689 
L 205.360899 94.70242 
L 209.519905 90.103585 
L 213.678911 85.53322 
L 217.837917 81.214888 
L 221.996924 82.736039 
L 226.15593 83.046849 
L 230.314936 84.715338 
L 234.473942 88.334604 
L 238.632948 92.663013 
L 242.791955 92.811245 
L 246.950961 93.266823 
L 251.109967 91.21222 
L 255.268973 89.070224 
L 259.427979 86.161239 
L 263.586986 83.865208 
L 267.745992 81.937137 
L 271.904998 85.485995 
L 276.064004 87.569447 
L 280.22301 89.942939 
L 284.382017 92.718816 
L 288.541023 91.490294 
L 292.700029 89.343837 
L 296.859035 88.1504 
L 301.018042 86.34297 
L 305.177048 85.112386 
L 309.336054 84.551291 
L 313.49506 86.148708 
L 317.654066 88.701137 
L 321.813073 89.877189 
L 325.972079 89.263589 
L 330.131085 90.515114 
L 334.290091 89.119636 
L 338.449097 87.390593 
L 342.608104 87.406555 
L 346.76711 85.002665 
L 350.926116 84.398096 
L 355.085122 85.363119 
L 359.244128 84.994388 
L 363.403135 87.220671 
L 367.562141 87.607498 
L 371.721147 87.045349 
L 375.880153 87.35188 
L 380.03916 87.645962 
L 384.198166 84.466479 
L 388.357172 83.265827 
L 392.516178 81.831211 
L 396.675184 82.797892 
L 400.834191 84.590697 
L 404.993197 87.201895 
L 409.152203 87.850761 
L 413.311209 87.929463 
L 417.470215 89.465407 
L 421.629222 89.715758 
L 425.788228 88.216663 
L 429.947234 86.777912 
L 434.10624 87.124775 
L 438.265247 86.860386 
L 442.424253 86.567605 
L 446.583259 87.49311 
L 450.742265 88.992216 
L 454.901271 89.693203 
L 459.060278 87.147626 
L 463.219284 88.635153 
L 467.37829 89.644314 
L 471.537296 87.841691 
L 475.696302 87.729478 
L 479.855309 87.75903 
" style="fill:none;stroke:#1f77b4;stroke-linecap:square;stroke-width:1.5;"/>
   </g>
   <g id="patch_3">
    <path d="M 63.954687 230.64 
L 63.954687 13.2 
" style="fill:none;stroke:#000000;stroke-linecap:square;stroke-linejoin:miter;stroke-width:2;"/>
   </g>
   <g id="patch_4">
    <path d="M 355.085122 230.64 
L 355.085122 13.2 
" style="fill:none;"/>
   </g>
   <g id="patch_5">
    <path d="M 63.954687 230.64 
L 355.085122 230.64 
" style="fill:none;stroke:#000000;stroke-linecap:square;stroke-linejoin:miter;stroke-width:2;"/>
   </g>
   <g id="patch_6">
    <path d="M 63.954687 13.2 
L 355.085122 13.2 
" style="fill:none;"/>
   </g>
  </g>
  <g id="axes_2">
   <g id="patch_7">
    <path d="M 442.424253 230.64 
L 733.554688 230.64 
L 733.554688 13.2 
L 442.424253 13.2 
z
" style="fill:#ffffff;"/>
   </g>
   <g id="PolyCollection_2">
    <defs>
     <path d="M 442.424253 -84.826306 
L 442.424253 -82.160981 
L 446.583259 -82.194927 
L 450.742265 -82.401673 
L 454.901271 -82.798451 
L 459.060278 -83.961491 
L 463.219284 -89.31971 
L 467.37829 -103.942623 
L 471.537296 -131.468012 
L 475.696302 -168.899882 
L 479.855309 -211.938662 
L 484.014315 -239.983329 
L 488.173321 -240.941258 
L 492.332327 -212.243065 
L 496.491333 -176.749825 
L 500.65034 -148.723525 
L 504.809346 -135.712746 
L 508.968352 -136.64855 
L 513.127358 -153.254299 
L 517.286365 -175.55345 
L 521.445371 -198.434981 
L 525.604377 -214.616611 
L 529.763383 -217.69068 
L 533.922389 -211.625845 
L 538.081396 -191.136782 
L 542.240402 -165.310537 
L 546.399408 -152.995727 
L 550.558414 -154.158898 
L 554.71742 -161.368756 
L 558.876427 -179.241568 
L 563.035433 -197.836753 
L 567.194439 -210.626418 
L 571.353445 -216.002514 
L 575.512451 -209.57278 
L 579.671458 -193.655821 
L 583.830464 -180.354689 
L 587.98947 -171.065378 
L 592.148476 -165.624432 
L 596.307483 -169.478601 
L 600.466489 -180.0067 
L 604.625495 -193.208906 
L 608.784501 -203.217514 
L 612.943507 -206.783162 
L 617.102514 -203.520191 
L 621.26152 -193.313838 
L 625.420526 -180.476105 
L 629.579532 -174.243375 
L 633.738538 -169.409029 
L 637.897545 -170.645899 
L 642.056551 -179.259593 
L 646.215557 -189.511934 
L 650.374563 -198.214639 
L 654.533569 -200.629037 
L 658.692576 -201.758859 
L 662.851582 -197.651844 
L 667.010588 -188.956278 
L 671.169594 -181.182517 
L 675.328601 -177.145579 
L 679.487607 -179.500765 
L 683.646613 -181.643368 
L 687.805619 -189.594391 
L 691.964625 -191.990236 
L 696.123632 -198.818967 
L 700.282638 -198.191148 
L 704.441644 -194.535243 
L 708.60065 -189.961539 
L 712.759656 -184.214522 
L 716.918663 -181.779036 
L 721.077669 -181.566486 
L 725.236675 -185.036314 
L 729.395681 -186.06118 
L 733.554687 -187.942492 
L 737.713694 -196.465891 
L 741.8727 -195.821782 
L 746.031706 -193.70543 
L 750.190712 -190.487171 
L 754.349719 -189.675813 
L 758.508725 -185.425813 
L 762.667731 -185.115093 
L 766.826737 -186.107515 
L 770.985743 -185.457351 
L 775.14475 -186.648332 
L 779.303756 -190.201839 
L 783.462762 -189.664886 
L 787.621768 -189.988679 
L 791.780774 -186.720579 
L 795.939781 -185.852613 
L 800.098787 -182.121404 
L 804.257793 -182.283891 
L 808.416799 -185.254337 
L 812.575806 -189.103435 
L 816.734812 -191.705249 
L 820.893818 -190.851501 
L 825.052824 -189.605766 
L 829.21183 -190.003474 
L 833.370837 -188.319207 
L 837.529843 -186.820823 
L 841.688849 -186.002335 
L 845.847855 -186.401964 
L 850.006861 -188.060031 
L 854.165868 -190.82692 
L 858.324874 -191.578201 
L 858.324874 -207.4042 
L 858.324874 -207.4042 
L 854.165868 -206.553137 
L 850.006861 -203.4197 
L 845.847855 -201.542697 
L 841.688849 -201.090379 
L 837.529843 -202.016812 
L 833.370837 -203.713147 
L 829.21183 -205.620447 
L 825.052824 -205.170025 
L 820.893818 -206.58098 
L 816.734812 -207.548134 
L 812.575806 -204.601155 
L 808.416799 -200.24385 
L 804.257793 -196.883207 
L 800.098787 -196.699427 
L 795.939781 -200.920926 
L 791.780774 -201.903341 
L 787.621768 -205.603691 
L 783.462762 -205.236979 
L 779.303756 -205.845117 
L 775.14475 -201.821561 
L 770.985743 -200.473595 
L 766.826737 -201.209424 
L 762.667731 -200.086275 
L 758.508725 -200.437904 
L 754.349719 -205.249354 
L 750.190712 -206.168299 
L 746.031706 -209.814556 
L 741.8727 -212.213448 
L 737.713694 -212.943716 
L 733.554687 -203.286623 
L 729.395681 -201.156981 
L 725.236675 -199.997127 
L 721.077669 -196.071827 
L 716.918663 -196.31221 
L 712.759656 -199.067245 
L 708.60065 -205.572952 
L 704.441644 -210.755049 
L 700.282638 -214.900144 
L 696.123632 -215.612226 
L 691.964625 -207.871008 
L 687.805619 -205.157142 
L 683.646613 -196.158775 
L 679.487607 -193.73609 
L 675.328601 -191.074103 
L 671.169594 -195.637604 
L 667.010588 -204.434516 
L 662.851582 -214.288517 
L 658.692576 -218.947682 
L 654.533569 -217.66565 
L 650.374563 -214.926787 
L 646.215557 -205.06376 
L 642.056551 -193.46345 
L 637.897545 -183.733628 
L 633.738538 -182.33775 
L 629.579532 -187.795395 
L 625.420526 -194.838812 
L 621.26152 -209.370778 
L 617.102514 -220.946779 
L 612.943507 -224.651743 
L 608.784501 -220.603201 
L 604.625495 -209.251868 
L 600.466489 -194.308079 
L 596.307483 -182.416258 
L 592.148476 -178.068622 
L 587.98947 -184.207107 
L 583.830464 -194.701529 
L 579.671458 -209.758333 
L 575.512451 -227.820791 
L 571.353445 -235.130457 
L 567.194439 -229.01811 
L 563.035433 -214.498217 
L 558.876427 -193.443074 
L 554.71742 -173.271755 
L 550.558414 -165.154052 
L 546.399408 -163.845502 
L 542.240402 -177.714676 
L 538.081396 -206.90414 
L 533.922389 -230.154012 
L 529.763383 -237.050889 
L 525.604377 -233.554257 
L 521.445371 -215.176694 
L 517.286365 -189.275213 
L 513.127358 -164.136365 
L 508.968352 -145.488329 
L 504.809346 -144.439397 
L 500.65034 -159.041972 
L 496.491333 -190.626906 
L 492.332327 -230.855606 
L 488.173321 -263.551071 
L 484.014315 -262.45743 
L 479.855309 -230.509582 
L 475.696302 -181.763242 
L 471.537296 -139.684263 
L 467.37829 -108.966378 
L 463.219284 -92.741239 
L 459.060278 -86.815101 
L 454.901271 -85.530286 
L 450.742265 -85.092091 
L 446.583259 -84.86379 
L 442.424253 -84.826306 
z
" id="m4aba9b038f"/>
    </defs>
    <g clip-path="url(#pd29f8a369e)">
     <use style="fill:#4db8ff;" x="0" xlink:href="#m4aba9b038f" y="285.213437"/>
    </g>
   </g>
   <g id="matplotlib.axis_3">
    <g id="xtick_9">
     <g id="line2d_28">
      <path clip-path="url(#pd29f8a369e)" d="M 442.424253 230.64 
L 442.424253 13.2 
" style="fill:none;stroke:#b0b0b0;stroke-linecap:square;stroke-width:0.8;"/>
     </g>
     <g id="line2d_29">
      <g>
       <use x="442.424253" xlink:href="#m8a8272c710" y="230.64"/>
      </g>
     </g>
     <g id="text_16">
      <!-- 0 -->
      <g transform="translate(437.652378 251.537656)scale(0.15 -0.15)">
       <use xlink:href="#DejaVuSans-30"/>
      </g>
     </g>
    </g>
    <g id="xtick_10">
     <g id="line2d_30">
      <path clip-path="url(#pd29f8a369e)" d="M 484.014315 230.64 
L 484.014315 13.2 
" style="fill:none;stroke:#b0b0b0;stroke-linecap:square;stroke-width:0.8;"/>
     </g>
     <g id="line2d_31">
      <g>
       <use x="484.014315" xlink:href="#m8a8272c710" y="230.64"/>
      </g>
     </g>
     <g id="text_17">
      <!-- 1 -->
      <g transform="translate(479.24244 251.537656)scale(0.15 -0.15)">
       <use xlink:href="#DejaVuSans-31"/>
      </g>
     </g>
    </g>
    <g id="xtick_11">
     <g id="line2d_32">
      <path clip-path="url(#pd29f8a369e)" d="M 525.604377 230.64 
L 525.604377 13.2 
" style="fill:none;stroke:#b0b0b0;stroke-linecap:square;stroke-width:0.8;"/>
     </g>
     <g id="line2d_33">
      <g>
       <use x="525.604377" xlink:href="#m8a8272c710" y="230.64"/>
      </g>
     </g>
     <g id="text_18">
      <!-- 2 -->
      <g transform="translate(520.832502 251.537656)scale(0.15 -0.15)">
       <use xlink:href="#DejaVuSans-32"/>
      </g>
     </g>
    </g>
    <g id="xtick_12">
     <g id="line2d_34">
      <path clip-path="url(#pd29f8a369e)" d="M 567.194439 230.64 
L 567.194439 13.2 
" style="fill:none;stroke:#b0b0b0;stroke-linecap:square;stroke-width:0.8;"/>
     </g>
     <g id="line2d_35">
      <g>
       <use x="567.194439" xlink:href="#m8a8272c710" y="230.64"/>
      </g>
     </g>
     <g id="text_19">
      <!-- 3 -->
      <g transform="translate(562.422564 251.537656)scale(0.15 -0.15)">
       <use xlink:href="#DejaVuSans-33"/>
      </g>
     </g>
    </g>
    <g id="xtick_13">
     <g id="line2d_36">
      <path clip-path="url(#pd29f8a369e)" d="M 608.784501 230.64 
L 608.784501 13.2 
" style="fill:none;stroke:#b0b0b0;stroke-linecap:square;stroke-width:0.8;"/>
     </g>
     <g id="line2d_37">
      <g>
       <use x="608.784501" xlink:href="#m8a8272c710" y="230.64"/>
      </g>
     </g>
     <g id="text_20">
      <!-- 4 -->
      <g transform="translate(604.012626 251.537656)scale(0.15 -0.15)">
       <use xlink:href="#DejaVuSans-34"/>
      </g>
     </g>
    </g>
    <g id="xtick_14">
     <g id="line2d_38">
      <path clip-path="url(#pd29f8a369e)" d="M 650.374563 230.64 
L 650.374563 13.2 
" style="fill:none;stroke:#b0b0b0;stroke-linecap:square;stroke-width:0.8;"/>
     </g>
     <g id="line2d_39">
      <g>
       <use x="650.374563" xlink:href="#m8a8272c710" y="230.64"/>
      </g>
     </g>
     <g id="text_21">
      <!-- 5 -->
      <g transform="translate(645.602688 251.537656)scale(0.15 -0.15)">
       <use xlink:href="#DejaVuSans-35"/>
      </g>
     </g>
    </g>
    <g id="xtick_15">
     <g id="line2d_40">
      <path clip-path="url(#pd29f8a369e)" d="M 691.964625 230.64 
L 691.964625 13.2 
" style="fill:none;stroke:#b0b0b0;stroke-linecap:square;stroke-width:0.8;"/>
     </g>
     <g id="line2d_41">
      <g>
       <use x="691.964625" xlink:href="#m8a8272c710" y="230.64"/>
      </g>
     </g>
     <g id="text_22">
      <!-- 6 -->
      <g transform="translate(687.19275 251.537656)scale(0.15 -0.15)">
       <use xlink:href="#DejaVuSans-36"/>
      </g>
     </g>
    </g>
    <g id="xtick_16">
     <g id="line2d_42">
      <path clip-path="url(#pd29f8a369e)" d="M 733.554688 230.64 
L 733.554688 13.2 
" style="fill:none;stroke:#b0b0b0;stroke-linecap:square;stroke-width:0.8;"/>
     </g>
     <g id="line2d_43">
      <g>
       <use x="733.554688" xlink:href="#m8a8272c710" y="230.64"/>
      </g>
     </g>
     <g id="text_23">
      <!-- 7 -->
      <g transform="translate(728.782813 251.537656)scale(0.15 -0.15)">
       <use xlink:href="#DejaVuSans-37"/>
      </g>
     </g>
    </g>
    <g id="text_24">
     <!-- $t/\tau$ -->
     <g transform="translate(574.58947 273.854062)scale(0.2 -0.2)">
      <use transform="translate(0 0.09375)" xlink:href="#DejaVuSans-Oblique-74"/>
      <use transform="translate(39.208984 0.09375)" xlink:href="#DejaVuSans-2f"/>
      <use transform="translate(72.900391 0.09375)" xlink:href="#DejaVuSans-Oblique-3c4"/>
     </g>
    </g>
   </g>
   <g id="matplotlib.axis_4">
    <g id="ytick_6">
     <g id="line2d_44">
      <path clip-path="url(#pd29f8a369e)" d="M 442.424253 230.64 
L 733.554688 230.64 
" style="fill:none;stroke:#b0b0b0;stroke-linecap:square;stroke-width:0.8;"/>
     </g>
     <g id="line2d_45">
      <g>
       <use x="442.424253" xlink:href="#m9a4a3201dd" y="230.64"/>
      </g>
     </g>
     <g id="text_25">
      <!-- 0.00 -->
      <g transform="translate(399.525815 236.338828)scale(0.15 -0.15)">
       <use xlink:href="#DejaVuSans-30"/>
       <use x="63.623047" xlink:href="#DejaVuSans-2e"/>
       <use x="95.410156" xlink:href="#DejaVuSans-30"/>
       <use x="159.033203" xlink:href="#DejaVuSans-30"/>
      </g>
     </g>
    </g>
    <g id="ytick_7">
     <g id="line2d_46">
      <path clip-path="url(#pd29f8a369e)" d="M 442.424253 193.102529 
L 733.554688 193.102529 
" style="fill:none;stroke:#b0b0b0;stroke-linecap:square;stroke-width:0.8;"/>
     </g>
     <g id="line2d_47">
      <g>
       <use x="442.424253" xlink:href="#m9a4a3201dd" y="193.102529"/>
      </g>
     </g>
     <g id="text_26">
      <!-- 0.02 -->
      <g transform="translate(399.525815 198.801357)scale(0.15 -0.15)">
       <use xlink:href="#DejaVuSans-30"/>
       <use x="63.623047" xlink:href="#DejaVuSans-2e"/>
       <use x="95.410156" xlink:href="#DejaVuSans-30"/>
       <use x="159.033203" xlink:href="#DejaVuSans-32"/>
      </g>
     </g>
    </g>
    <g id="ytick_8">
     <g id="line2d_48">
      <path clip-path="url(#pd29f8a369e)" d="M 442.424253 155.565058 
L 733.554688 155.565058 
" style="fill:none;stroke:#b0b0b0;stroke-linecap:square;stroke-width:0.8;"/>
     </g>
     <g id="line2d_49">
      <g>
       <use x="442.424253" xlink:href="#m9a4a3201dd" y="155.565058"/>
      </g>
     </g>
     <g id="text_27">
      <!-- 0.04 -->
      <g transform="translate(399.525815 161.263886)scale(0.15 -0.15)">
       <use xlink:href="#DejaVuSans-30"/>
       <use x="63.623047" xlink:href="#DejaVuSans-2e"/>
       <use x="95.410156" xlink:href="#DejaVuSans-30"/>
       <use x="159.033203" xlink:href="#DejaVuSans-34"/>
      </g>
     </g>
    </g>
    <g id="ytick_9">
     <g id="line2d_50">
      <path clip-path="url(#pd29f8a369e)" d="M 442.424253 118.027587 
L 733.554688 118.027587 
" style="fill:none;stroke:#b0b0b0;stroke-linecap:square;stroke-width:0.8;"/>
     </g>
     <g id="line2d_51">
      <g>
       <use x="442.424253" xlink:href="#m9a4a3201dd" y="118.027587"/>
      </g>
     </g>
     <g id="text_28">
      <!-- 0.06 -->
      <g transform="translate(399.525815 123.726415)scale(0.15 -0.15)">
       <use xlink:href="#DejaVuSans-30"/>
       <use x="63.623047" xlink:href="#DejaVuSans-2e"/>
       <use x="95.410156" xlink:href="#DejaVuSans-30"/>
       <use x="159.033203" xlink:href="#DejaVuSans-36"/>
      </g>
     </g>
    </g>
    <g id="ytick_10">
     <g id="line2d_52">
      <path clip-path="url(#pd29f8a369e)" d="M 442.424253 80.490116 
L 733.554688 80.490116 
" style="fill:none;stroke:#b0b0b0;stroke-linecap:square;stroke-width:0.8;"/>
     </g>
     <g id="line2d_53">
      <g>
       <use x="442.424253" xlink:href="#m9a4a3201dd" y="80.490116"/>
      </g>
     </g>
     <g id="text_29">
      <!-- 0.08 -->
      <defs>
       <path d="M 31.78125 34.625 
Q 24.75 34.625 20.71875 30.859375 
Q 16.703125 27.09375 16.703125 20.515625 
Q 16.703125 13.921875 20.71875 10.15625 
Q 24.75 6.390625 31.78125 6.390625 
Q 38.8125 6.390625 42.859375 10.171875 
Q 46.921875 13.96875 46.921875 20.515625 
Q 46.921875 27.09375 42.890625 30.859375 
Q 38.875 34.625 31.78125 34.625 
z
M 21.921875 38.8125 
Q 15.578125 40.375 12.03125 44.71875 
Q 8.5 49.078125 8.5 55.328125 
Q 8.5 64.0625 14.71875 69.140625 
Q 20.953125 74.21875 31.78125 74.21875 
Q 42.671875 74.21875 48.875 69.140625 
Q 55.078125 64.0625 55.078125 55.328125 
Q 55.078125 49.078125 51.53125 44.71875 
Q 48 40.375 41.703125 38.8125 
Q 48.828125 37.15625 52.796875 32.3125 
Q 56.78125 27.484375 56.78125 20.515625 
Q 56.78125 9.90625 50.3125 4.234375 
Q 43.84375 -1.421875 31.78125 -1.421875 
Q 19.734375 -1.421875 13.25 4.234375 
Q 6.78125 9.90625 6.78125 20.515625 
Q 6.78125 27.484375 10.78125 32.3125 
Q 14.796875 37.15625 21.921875 38.8125 
z
M 18.3125 54.390625 
Q 18.3125 48.734375 21.84375 45.5625 
Q 25.390625 42.390625 31.78125 42.390625 
Q 38.140625 42.390625 41.71875 45.5625 
Q 45.3125 48.734375 45.3125 54.390625 
Q 45.3125 60.0625 41.71875 63.234375 
Q 38.140625 66.40625 31.78125 66.40625 
Q 25.390625 66.40625 21.84375 63.234375 
Q 18.3125 60.0625 18.3125 54.390625 
z
" id="DejaVuSans-38"/>
      </defs>
      <g transform="translate(399.525815 86.188944)scale(0.15 -0.15)">
       <use xlink:href="#DejaVuSans-30"/>
       <use x="63.623047" xlink:href="#DejaVuSans-2e"/>
       <use x="95.410156" xlink:href="#DejaVuSans-30"/>
       <use x="159.033203" xlink:href="#DejaVuSans-38"/>
      </g>
     </g>
    </g>
    <g id="ytick_11">
     <g id="line2d_54">
      <path clip-path="url(#pd29f8a369e)" d="M 442.424253 42.952645 
L 733.554688 42.952645 
" style="fill:none;stroke:#b0b0b0;stroke-linecap:square;stroke-width:0.8;"/>
     </g>
     <g id="line2d_55">
      <g>
       <use x="442.424253" xlink:href="#m9a4a3201dd" y="42.952645"/>
      </g>
     </g>
     <g id="text_30">
      <!-- 0.10 -->
      <g transform="translate(399.525815 48.651473)scale(0.15 -0.15)">
       <use xlink:href="#DejaVuSans-30"/>
       <use x="63.623047" xlink:href="#DejaVuSans-2e"/>
       <use x="95.410156" xlink:href="#DejaVuSans-31"/>
       <use x="159.033203" xlink:href="#DejaVuSans-30"/>
      </g>
     </g>
    </g>
    <g id="text_31">
     <!-- $C_V^2(s)$ -->
     <defs>
      <path d="M 69.484375 67.28125 
L 67.484375 56.890625 
Q 62.796875 61.625 57.546875 63.921875 
Q 52.296875 66.21875 46.1875 66.21875 
Q 37.84375 66.21875 31.515625 62.203125 
Q 25.203125 58.203125 20.609375 50 
Q 17.671875 44.734375 16.125 38.84375 
Q 14.59375 32.953125 14.59375 27 
Q 14.59375 17.046875 19.75 11.8125 
Q 24.90625 6.59375 34.71875 6.59375 
Q 41.5 6.59375 47.75 8.765625 
Q 54 10.9375 59.90625 15.28125 
L 57.625 3.609375 
Q 51.8125 1.125 45.875 -0.140625 
Q 39.9375 -1.421875 33.984375 -1.421875 
Q 19.96875 -1.421875 12.078125 6.1875 
Q 4.203125 13.8125 4.203125 27.390625 
Q 4.203125 36.078125 7.203125 44.46875 
Q 10.203125 52.875 15.828125 59.8125 
Q 21.78125 67.1875 29.421875 70.703125 
Q 37.0625 74.21875 47.21875 74.21875 
Q 53.46875 74.21875 59.0625 72.484375 
Q 64.65625 70.75 69.484375 67.28125 
z
" id="DejaVuSans-Oblique-43"/>
      <path d="M 20.609375 0 
L 7.8125 72.90625 
L 17.484375 72.90625 
L 28.078125 10.203125 
L 63.484375 72.90625 
L 74.21875 72.90625 
L 32.078125 0 
z
" id="DejaVuSans-Oblique-56"/>
     </defs>
     <g transform="translate(389.925815 147.42)rotate(-90)scale(0.2 -0.2)">
      <use transform="translate(0 0.765625)" xlink:href="#DejaVuSans-Oblique-43"/>
      <use transform="translate(77.02474 39.046875)scale(0.7)" xlink:href="#DejaVuSans-32"/>
      <use transform="translate(69.824219 -26.578125)scale(0.7)" xlink:href="#DejaVuSans-Oblique-56"/>
      <use transform="translate(124.295247 0.765625)" xlink:href="#DejaVuSans-28"/>
      <use transform="translate(163.308919 0.765625)" xlink:href="#DejaVuSans-Oblique-73"/>
      <use transform="translate(215.408529 0.765625)" xlink:href="#DejaVuSans-29"/>
     </g>
    </g>
   </g>
   <g id="line2d_56">
    <path clip-path="url(#pd29f8a369e)" d="M 442.424253 201.719794 
L 446.583259 201.684079 
L 450.742265 201.466556 
L 454.901271 201.049069 
L 459.060278 199.825142 
L 463.219284 194.182963 
L 467.37829 178.758937 
L 471.537296 149.6373 
L 475.696302 109.881876 
L 479.855309 63.989316 
L 484.014315 33.993058 
L 488.173321 32.967273 
L 492.332327 63.664102 
L 496.491333 101.525072 
L 500.65034 131.330689 
L 504.809346 145.137366 
L 508.968352 144.144998 
L 513.127358 126.518105 
L 517.286365 102.799106 
L 521.445371 78.4076 
L 525.604377 61.128004 
L 529.763383 57.842653 
L 533.922389 64.323509 
L 538.081396 86.192977 
L 542.240402 113.700831 
L 546.399408 126.792823 
L 550.558414 125.556962 
L 554.71742 117.893182 
L 558.876427 98.871117 
L 563.035433 79.045952 
L 567.194439 65.391174 
L 571.353445 59.646952 
L 575.512451 66.516652 
L 579.671458 83.506361 
L 583.830464 97.685329 
L 587.98947 107.577195 
L 592.148476 113.366911 
L 596.307483 109.266008 
L 600.466489 98.056048 
L 604.625495 83.983051 
L 608.784501 73.30308 
L 612.943507 69.495985 
L 617.102514 72.979952 
L 621.26152 83.871129 
L 625.420526 97.555979 
L 629.579532 104.194052 
L 633.738538 109.340048 
L 637.897545 108.023674 
L 642.056551 98.851916 
L 646.215557 87.92559 
L 650.374563 78.642724 
L 654.533569 76.066094 
L 658.692576 74.860167 
L 662.851582 79.243257 
L 667.010588 88.51804 
L 671.169594 96.803377 
L 675.328601 101.103597 
L 679.487607 98.59501 
L 683.646613 96.312366 
L 687.805619 87.837671 
L 691.964625 85.282815 
L 696.123632 77.997841 
L 700.282638 78.667791 
L 704.441644 82.568292 
L 708.60065 87.446192 
L 712.759656 93.572554 
L 716.918663 96.167814 
L 721.077669 96.394281 
L 725.236675 92.696717 
L 729.395681 91.604357 
L 733.554687 89.59888 
L 737.713694 80.508634 
L 741.8727 81.195823 
L 746.031706 83.453445 
L 747.754688 84.875351 
" style="fill:none;stroke:#1f77b4;stroke-linecap:square;stroke-width:1.5;"/>
   </g>
   <g id="patch_8">
    <path d="M 442.424253 230.64 
L 442.424253 13.2 
" style="fill:none;stroke:#000000;stroke-linecap:square;stroke-linejoin:miter;stroke-width:2;"/>
   </g>
   <g id="patch_9">
    <path d="M 733.554688 230.64 
L 733.554688 13.2 
" style="fill:none;"/>
   </g>
   <g id="patch_10">
    <path d="M 442.424253 230.64 
L 733.554688 230.64 
" style="fill:none;stroke:#000000;stroke-linecap:square;stroke-linejoin:miter;stroke-width:2;"/>
   </g>
   <g id="patch_11">
    <path d="M 442.424253 13.2 
L 733.554688 13.2 
" style="fill:none;"/>
   </g>
  </g>
 </g>
 <defs>
  <clipPath id="pb3ba92f3ea">
   <rect height="217.44" width="291.130435" x="63.954687" y="13.2"/>
  </clipPath>
  <clipPath id="pd29f8a369e">
   <rect height="217.44" width="291.130435" x="442.424253" y="13.2"/>
  </clipPath>
 </defs>
</svg>
