<?xml version="1.0" encoding="utf-8" standalone="no"?>
<!DOCTYPE svg PUBLIC "-//W3C//DTD SVG 1.1//EN"
  "http://www.w3.org/Graphics/SVG/1.1/DTD/svg11.dtd">
<!-- Created with matplotlib (https://matplotlib.org/) -->
<svg height="286.018928pt" version="1.1" viewBox="0 0 745.526563 286.018928" width="745.526563pt" xmlns="http://www.w3.org/2000/svg" xmlns:xlink="http://www.w3.org/1999/xlink">
 <defs>
  <style type="text/css">
*{stroke-linecap:butt;stroke-linejoin:round;}
  </style>
 </defs>
 <g id="figure_1">
  <g id="patch_1">
   <path d="M 0 286.018928 
L 745.526563 286.018928 
L 745.526563 0 
L 0 0 
z
" style="fill:#ffffff;"/>
  </g>
  <g id="axes_1">
   <g id="patch_2">
    <path d="M 63.954687 231.445491 
L 355.085122 231.445491 
L 355.085122 9.685491 
L 63.954687 9.685491 
z
" style="fill:#ffffff;"/>
   </g>
   <g id="PolyCollection_1">
    <defs>
     <path d="M 63.954687 -55.687822 
L 63.954687 -53.459053 
L 68.113694 -77.128921 
L 72.2727 -102.508661 
L 76.431706 -129.722673 
L 80.590712 -158.343173 
L 84.749719 -185.558028 
L 88.908725 -209.183588 
L 93.067731 -222.53042 
L 97.226737 -222.566083 
L 101.385743 -211.78629 
L 105.54475 -193.721931 
L 109.703756 -177.28271 
L 113.862762 -169.592203 
L 118.021768 -170.388529 
L 122.180774 -179.022626 
L 126.339781 -189.714143 
L 130.498787 -201.729298 
L 134.657793 -208.159247 
L 138.816799 -210.413792 
L 142.975806 -207.507813 
L 147.134812 -199.186693 
L 151.293818 -191.560321 
L 155.452824 -185.583106 
L 159.61183 -183.451558 
L 163.770837 -185.91539 
L 167.929843 -190.041829 
L 172.088849 -196.931662 
L 176.247855 -202.877054 
L 180.406861 -207.03023 
L 184.565868 -203.396893 
L 188.724874 -199.158599 
L 192.88388 -195.200237 
L 197.042886 -193.4088 
L 201.201892 -191.658929 
L 205.360899 -192.220375 
L 209.519905 -194.803152 
L 213.678911 -197.468616 
L 217.837917 -200.3902 
L 221.996924 -200.732014 
L 226.15593 -199.589959 
L 230.314936 -196.223898 
L 234.473942 -193.651193 
L 238.632948 -190.740081 
L 242.791955 -188.097026 
L 246.950961 -189.22981 
L 251.109967 -190.909767 
L 255.268973 -197.345152 
L 259.427979 -198.701166 
L 263.586986 -200.980847 
L 267.745992 -199.930854 
L 271.904998 -196.941804 
L 276.064004 -194.914694 
L 280.22301 -191.972109 
L 284.382017 -191.608889 
L 288.541023 -189.157696 
L 292.700029 -191.12823 
L 296.859035 -191.700451 
L 301.018042 -195.598566 
L 305.177048 -196.794886 
L 309.336054 -196.025028 
L 313.49506 -198.260157 
L 317.654066 -194.400922 
L 321.813073 -194.412518 
L 325.972079 -192.130887 
L 330.131085 -192.183886 
L 334.290091 -192.456281 
L 338.449097 -194.937424 
L 342.608104 -198.086308 
L 346.76711 -199.451705 
L 350.926116 -201.41708 
L 355.085122 -198.52858 
L 359.244128 -196.155255 
L 363.403135 -193.47376 
L 367.562141 -191.603143 
L 371.721147 -191.429715 
L 375.880153 -192.47113 
L 380.03916 -195.688265 
L 384.198166 -196.243177 
L 388.357172 -198.667396 
L 392.516178 -197.41103 
L 396.675184 -197.586441 
L 400.834191 -196.137914 
L 404.993197 -195.042246 
L 409.152203 -190.824194 
L 413.311209 -190.447261 
L 417.470215 -193.574733 
L 421.629222 -191.543268 
L 425.788228 -193.877019 
L 429.947234 -194.153213 
L 434.10624 -195.396412 
L 438.265247 -195.353958 
L 442.424253 -196.858152 
L 446.583259 -196.196416 
L 450.742265 -195.183852 
L 454.901271 -193.993362 
L 459.060278 -194.733344 
L 463.219284 -196.503361 
L 467.37829 -195.02278 
L 471.537296 -195.596109 
L 475.696302 -196.735897 
L 479.855309 -197.714638 
L 479.855309 -204.888523 
L 479.855309 -204.888523 
L 475.696302 -203.846687 
L 471.537296 -202.658199 
L 467.37829 -202.157283 
L 463.219284 -203.600459 
L 459.060278 -201.889939 
L 454.901271 -201.190255 
L 450.742265 -202.357259 
L 446.583259 -203.456713 
L 442.424253 -204.197961 
L 438.265247 -202.632608 
L 434.10624 -202.573746 
L 429.947234 -201.296379 
L 425.788228 -200.918092 
L 421.629222 -198.554251 
L 417.470215 -200.723302 
L 413.311209 -197.623662 
L 409.152203 -198.127521 
L 404.993197 -202.445356 
L 400.834191 -203.516641 
L 396.675184 -204.917036 
L 392.516178 -204.598101 
L 388.357172 -205.843945 
L 384.198166 -203.280456 
L 380.03916 -202.729491 
L 375.880153 -199.648101 
L 371.721147 -198.687384 
L 367.562141 -198.912288 
L 363.403135 -200.879776 
L 359.244128 -203.61281 
L 355.085122 -205.832739 
L 350.926116 -208.544897 
L 346.76711 -206.466187 
L 342.608104 -205.047208 
L 338.449097 -201.95471 
L 334.290091 -199.655406 
L 330.131085 -199.524721 
L 325.972079 -199.537795 
L 321.813073 -201.941788 
L 317.654066 -201.967609 
L 313.49506 -205.694335 
L 309.336054 -203.223834 
L 305.177048 -203.829456 
L 301.018042 -202.428598 
L 296.859035 -198.329742 
L 292.700029 -198.00949 
L 288.541023 -196.328379 
L 284.382017 -198.921816 
L 280.22301 -199.433195 
L 276.064004 -202.466568 
L 271.904998 -204.39815 
L 267.745992 -207.214384 
L 263.586986 -208.041035 
L 259.427979 -205.555709 
L 255.268973 -204.172719 
L 251.109967 -197.752164 
L 246.950961 -196.257848 
L 242.791955 -195.379718 
L 238.632948 -198.295549 
L 234.473942 -201.339105 
L 230.314936 -203.976104 
L 226.15593 -207.081574 
L 221.996924 -207.925969 
L 217.837917 -207.202834 
L 213.678911 -204.142429 
L 209.519905 -201.579236 
L 205.360899 -199.31585 
L 201.201892 -199.09738 
L 197.042886 -201.187616 
L 192.88388 -203.050249 
L 188.724874 -206.989903 
L 184.565868 -210.926184 
L 180.406861 -214.093265 
L 176.247855 -209.443261 
L 172.088849 -203.18323 
L 167.929843 -196.200834 
L 163.770837 -192.43244 
L 159.61183 -190.486626 
L 155.452824 -193.207598 
L 151.293818 -199.567647 
L 147.134812 -207.19659 
L 142.975806 -215.193924 
L 138.816799 -217.419515 
L 134.657793 -214.344589 
L 130.498787 -207.423022 
L 126.339781 -195.193013 
L 122.180774 -184.94825 
L 118.021768 -176.956125 
L 113.862762 -177.048624 
L 109.703756 -185.492818 
L 105.54475 -202.259801 
L 101.385743 -219.847625 
L 97.226737 -229.54045 
L 93.067731 -228.141505 
L 88.908725 -213.571793 
L 84.749719 -189.111182 
L 80.590712 -161.394473 
L 76.431706 -132.504675 
L 72.2727 -105.084519 
L 68.113694 -79.521212 
L 63.954687 -55.687822 
z
" id="m8e643f70c7"/>
    </defs>
    <g clip-path="url(#p0d31a94b5f)">
     <use style="fill:#4db8ff;" x="0" xlink:href="#m8e643f70c7" y="286.018928"/>
    </g>
   </g>
   <g id="matplotlib.axis_1">
    <g id="xtick_1">
     <g id="line2d_1">
      <path clip-path="url(#p0d31a94b5f)" d="M 63.954687 231.445491 
L 63.954687 9.685491 
" style="fill:none;stroke:#b0b0b0;stroke-linecap:square;stroke-width:0.8;"/>
     </g>
     <g id="line2d_2">
      <defs>
       <path d="M 0 0 
L 0 6 
" id="mfa4abcb8a9"/>
      </defs>
      <g>
       <use x="63.954687" xlink:href="#mfa4abcb8a9" y="231.445491"/>
      </g>
     </g>
     <g id="text_1">
      <!-- 0 -->
      <defs>
       <path d="M 31.78125 66.40625 
Q 24.171875 66.40625 20.328125 58.90625 
Q 16.5 51.421875 16.5 36.375 
Q 16.5 21.390625 20.328125 13.890625 
Q 24.171875 6.390625 31.78125 6.390625 
Q 39.453125 6.390625 43.28125 13.890625 
Q 47.125 21.390625 47.125 36.375 
Q 47.125 51.421875 43.28125 58.90625 
Q 39.453125 66.40625 31.78125 66.40625 
z
M 31.78125 74.21875 
Q 44.046875 74.21875 50.515625 64.515625 
Q 56.984375 54.828125 56.984375 36.375 
Q 56.984375 17.96875 50.515625 8.265625 
Q 44.046875 -1.421875 31.78125 -1.421875 
Q 19.53125 -1.421875 13.0625 8.265625 
Q 6.59375 17.96875 6.59375 36.375 
Q 6.59375 54.828125 13.0625 64.515625 
Q 19.53125 74.21875 31.78125 74.21875 
z
" id="DejaVuSans-48"/>
      </defs>
      <g transform="translate(59.182812 252.343147)scale(0.15 -0.15)">
       <use xlink:href="#DejaVuSans-48"/>
      </g>
     </g>
    </g>
    <g id="xtick_2">
     <g id="line2d_3">
      <path clip-path="url(#p0d31a94b5f)" d="M 105.54475 231.445491 
L 105.54475 9.685491 
" style="fill:none;stroke:#b0b0b0;stroke-linecap:square;stroke-width:0.8;"/>
     </g>
     <g id="line2d_4">
      <g>
       <use x="105.54475" xlink:href="#mfa4abcb8a9" y="231.445491"/>
      </g>
     </g>
     <g id="text_2">
      <!-- 1 -->
      <defs>
       <path d="M 12.40625 8.296875 
L 28.515625 8.296875 
L 28.515625 63.921875 
L 10.984375 60.40625 
L 10.984375 69.390625 
L 28.421875 72.90625 
L 38.28125 72.90625 
L 38.28125 8.296875 
L 54.390625 8.296875 
L 54.390625 0 
L 12.40625 0 
z
" id="DejaVuSans-49"/>
      </defs>
      <g transform="translate(100.772875 252.343147)scale(0.15 -0.15)">
       <use xlink:href="#DejaVuSans-49"/>
      </g>
     </g>
    </g>
    <g id="xtick_3">
     <g id="line2d_5">
      <path clip-path="url(#p0d31a94b5f)" d="M 147.134812 231.445491 
L 147.134812 9.685491 
" style="fill:none;stroke:#b0b0b0;stroke-linecap:square;stroke-width:0.8;"/>
     </g>
     <g id="line2d_6">
      <g>
       <use x="147.134812" xlink:href="#mfa4abcb8a9" y="231.445491"/>
      </g>
     </g>
     <g id="text_3">
      <!-- 2 -->
      <defs>
       <path d="M 19.1875 8.296875 
L 53.609375 8.296875 
L 53.609375 0 
L 7.328125 0 
L 7.328125 8.296875 
Q 12.9375 14.109375 22.625 23.890625 
Q 32.328125 33.6875 34.8125 36.53125 
Q 39.546875 41.84375 41.421875 45.53125 
Q 43.3125 49.21875 43.3125 52.78125 
Q 43.3125 58.59375 39.234375 62.25 
Q 35.15625 65.921875 28.609375 65.921875 
Q 23.96875 65.921875 18.8125 64.3125 
Q 13.671875 62.703125 7.8125 59.421875 
L 7.8125 69.390625 
Q 13.765625 71.78125 18.9375 73 
Q 24.125 74.21875 28.421875 74.21875 
Q 39.75 74.21875 46.484375 68.546875 
Q 53.21875 62.890625 53.21875 53.421875 
Q 53.21875 48.921875 51.53125 44.890625 
Q 49.859375 40.875 45.40625 35.40625 
Q 44.1875 33.984375 37.640625 27.21875 
Q 31.109375 20.453125 19.1875 8.296875 
z
" id="DejaVuSans-50"/>
      </defs>
      <g transform="translate(142.362937 252.343147)scale(0.15 -0.15)">
       <use xlink:href="#DejaVuSans-50"/>
      </g>
     </g>
    </g>
    <g id="xtick_4">
     <g id="line2d_7">
      <path clip-path="url(#p0d31a94b5f)" d="M 188.724874 231.445491 
L 188.724874 9.685491 
" style="fill:none;stroke:#b0b0b0;stroke-linecap:square;stroke-width:0.8;"/>
     </g>
     <g id="line2d_8">
      <g>
       <use x="188.724874" xlink:href="#mfa4abcb8a9" y="231.445491"/>
      </g>
     </g>
     <g id="text_4">
      <!-- 3 -->
      <defs>
       <path d="M 40.578125 39.3125 
Q 47.65625 37.796875 51.625 33 
Q 55.609375 28.21875 55.609375 21.1875 
Q 55.609375 10.40625 48.1875 4.484375 
Q 40.765625 -1.421875 27.09375 -1.421875 
Q 22.515625 -1.421875 17.65625 -0.515625 
Q 12.796875 0.390625 7.625 2.203125 
L 7.625 11.71875 
Q 11.71875 9.328125 16.59375 8.109375 
Q 21.484375 6.890625 26.8125 6.890625 
Q 36.078125 6.890625 40.9375 10.546875 
Q 45.796875 14.203125 45.796875 21.1875 
Q 45.796875 27.640625 41.28125 31.265625 
Q 36.765625 34.90625 28.71875 34.90625 
L 20.21875 34.90625 
L 20.21875 43.015625 
L 29.109375 43.015625 
Q 36.375 43.015625 40.234375 45.921875 
Q 44.09375 48.828125 44.09375 54.296875 
Q 44.09375 59.90625 40.109375 62.90625 
Q 36.140625 65.921875 28.71875 65.921875 
Q 24.65625 65.921875 20.015625 65.03125 
Q 15.375 64.15625 9.8125 62.3125 
L 9.8125 71.09375 
Q 15.4375 72.65625 20.34375 73.4375 
Q 25.25 74.21875 29.59375 74.21875 
Q 40.828125 74.21875 47.359375 69.109375 
Q 53.90625 64.015625 53.90625 55.328125 
Q 53.90625 49.265625 50.4375 45.09375 
Q 46.96875 40.921875 40.578125 39.3125 
z
" id="DejaVuSans-51"/>
      </defs>
      <g transform="translate(183.952999 252.343147)scale(0.15 -0.15)">
       <use xlink:href="#DejaVuSans-51"/>
      </g>
     </g>
    </g>
    <g id="xtick_5">
     <g id="line2d_9">
      <path clip-path="url(#p0d31a94b5f)" d="M 230.314936 231.445491 
L 230.314936 9.685491 
" style="fill:none;stroke:#b0b0b0;stroke-linecap:square;stroke-width:0.8;"/>
     </g>
     <g id="line2d_10">
      <g>
       <use x="230.314936" xlink:href="#mfa4abcb8a9" y="231.445491"/>
      </g>
     </g>
     <g id="text_5">
      <!-- 4 -->
      <defs>
       <path d="M 37.796875 64.3125 
L 12.890625 25.390625 
L 37.796875 25.390625 
z
M 35.203125 72.90625 
L 47.609375 72.90625 
L 47.609375 25.390625 
L 58.015625 25.390625 
L 58.015625 17.1875 
L 47.609375 17.1875 
L 47.609375 0 
L 37.796875 0 
L 37.796875 17.1875 
L 4.890625 17.1875 
L 4.890625 26.703125 
z
" id="DejaVuSans-52"/>
      </defs>
      <g transform="translate(225.543061 252.343147)scale(0.15 -0.15)">
       <use xlink:href="#DejaVuSans-52"/>
      </g>
     </g>
    </g>
    <g id="xtick_6">
     <g id="line2d_11">
      <path clip-path="url(#p0d31a94b5f)" d="M 271.904998 231.445491 
L 271.904998 9.685491 
" style="fill:none;stroke:#b0b0b0;stroke-linecap:square;stroke-width:0.8;"/>
     </g>
     <g id="line2d_12">
      <g>
       <use x="271.904998" xlink:href="#mfa4abcb8a9" y="231.445491"/>
      </g>
     </g>
     <g id="text_6">
      <!-- 5 -->
      <defs>
       <path d="M 10.796875 72.90625 
L 49.515625 72.90625 
L 49.515625 64.59375 
L 19.828125 64.59375 
L 19.828125 46.734375 
Q 21.96875 47.46875 24.109375 47.828125 
Q 26.265625 48.1875 28.421875 48.1875 
Q 40.625 48.1875 47.75 41.5 
Q 54.890625 34.8125 54.890625 23.390625 
Q 54.890625 11.625 47.5625 5.09375 
Q 40.234375 -1.421875 26.90625 -1.421875 
Q 22.3125 -1.421875 17.546875 -0.640625 
Q 12.796875 0.140625 7.71875 1.703125 
L 7.71875 11.625 
Q 12.109375 9.234375 16.796875 8.0625 
Q 21.484375 6.890625 26.703125 6.890625 
Q 35.15625 6.890625 40.078125 11.328125 
Q 45.015625 15.765625 45.015625 23.390625 
Q 45.015625 31 40.078125 35.4375 
Q 35.15625 39.890625 26.703125 39.890625 
Q 22.75 39.890625 18.8125 39.015625 
Q 14.890625 38.140625 10.796875 36.28125 
z
" id="DejaVuSans-53"/>
      </defs>
      <g transform="translate(267.133123 252.343147)scale(0.15 -0.15)">
       <use xlink:href="#DejaVuSans-53"/>
      </g>
     </g>
    </g>
    <g id="xtick_7">
     <g id="line2d_13">
      <path clip-path="url(#p0d31a94b5f)" d="M 313.49506 231.445491 
L 313.49506 9.685491 
" style="fill:none;stroke:#b0b0b0;stroke-linecap:square;stroke-width:0.8;"/>
     </g>
     <g id="line2d_14">
      <g>
       <use x="313.49506" xlink:href="#mfa4abcb8a9" y="231.445491"/>
      </g>
     </g>
     <g id="text_7">
      <!-- 6 -->
      <defs>
       <path d="M 33.015625 40.375 
Q 26.375 40.375 22.484375 35.828125 
Q 18.609375 31.296875 18.609375 23.390625 
Q 18.609375 15.53125 22.484375 10.953125 
Q 26.375 6.390625 33.015625 6.390625 
Q 39.65625 6.390625 43.53125 10.953125 
Q 47.40625 15.53125 47.40625 23.390625 
Q 47.40625 31.296875 43.53125 35.828125 
Q 39.65625 40.375 33.015625 40.375 
z
M 52.59375 71.296875 
L 52.59375 62.3125 
Q 48.875 64.0625 45.09375 64.984375 
Q 41.3125 65.921875 37.59375 65.921875 
Q 27.828125 65.921875 22.671875 59.328125 
Q 17.53125 52.734375 16.796875 39.40625 
Q 19.671875 43.65625 24.015625 45.921875 
Q 28.375 48.1875 33.59375 48.1875 
Q 44.578125 48.1875 50.953125 41.515625 
Q 57.328125 34.859375 57.328125 23.390625 
Q 57.328125 12.15625 50.6875 5.359375 
Q 44.046875 -1.421875 33.015625 -1.421875 
Q 20.359375 -1.421875 13.671875 8.265625 
Q 6.984375 17.96875 6.984375 36.375 
Q 6.984375 53.65625 15.1875 63.9375 
Q 23.390625 74.21875 37.203125 74.21875 
Q 40.921875 74.21875 44.703125 73.484375 
Q 48.484375 72.75 52.59375 71.296875 
z
" id="DejaVuSans-54"/>
      </defs>
      <g transform="translate(308.723185 252.343147)scale(0.15 -0.15)">
       <use xlink:href="#DejaVuSans-54"/>
      </g>
     </g>
    </g>
    <g id="xtick_8">
     <g id="line2d_15">
      <path clip-path="url(#p0d31a94b5f)" d="M 355.085122 231.445491 
L 355.085122 9.685491 
" style="fill:none;stroke:#b0b0b0;stroke-linecap:square;stroke-width:0.8;"/>
     </g>
     <g id="line2d_16">
      <g>
       <use x="355.085122" xlink:href="#mfa4abcb8a9" y="231.445491"/>
      </g>
     </g>
     <g id="text_8">
      <!-- 7 -->
      <defs>
       <path d="M 8.203125 72.90625 
L 55.078125 72.90625 
L 55.078125 68.703125 
L 28.609375 0 
L 18.3125 0 
L 43.21875 64.59375 
L 8.203125 64.59375 
z
" id="DejaVuSans-55"/>
      </defs>
      <g transform="translate(350.313247 252.343147)scale(0.15 -0.15)">
       <use xlink:href="#DejaVuSans-55"/>
      </g>
     </g>
    </g>
    <g id="text_9">
     <!-- $t/\tau$ -->
     <defs>
      <path d="M 42.28125 54.6875 
L 40.921875 47.703125 
L 23 47.703125 
L 17.1875 18.015625 
Q 16.890625 16.359375 16.75 15.234375 
Q 16.609375 14.109375 16.609375 13.484375 
Q 16.609375 10.359375 18.484375 8.9375 
Q 20.359375 7.515625 24.515625 7.515625 
L 33.59375 7.515625 
L 32.078125 0 
L 23.484375 0 
Q 15.484375 0 11.546875 3.125 
Q 7.625 6.25 7.625 12.59375 
Q 7.625 13.71875 7.765625 15.0625 
Q 7.90625 16.40625 8.203125 18.015625 
L 14.015625 47.703125 
L 6.390625 47.703125 
L 7.8125 54.6875 
L 15.28125 54.6875 
L 18.3125 70.21875 
L 27.296875 70.21875 
L 24.3125 54.6875 
z
" id="DejaVuSans-Oblique-116"/>
      <path d="M 25.390625 72.90625 
L 33.6875 72.90625 
L 8.296875 -9.28125 
L 0 -9.28125 
z
" id="DejaVuSans-47"/>
      <path d="M 32.859375 9.96875 
Q 34.1875 7.625 39.453125 7.625 
L 43.75 7.625 
L 42.28125 0 
L 36.921875 0 
Q 28.125 0 25 4.6875 
Q 21.921875 9.46875 23.96875 19.828125 
L 29 45.703125 
L 8.453125 45.703125 
L 10.203125 54.6875 
L 60.640625 54.6875 
L 58.890625 45.703125 
L 38.1875 45.703125 
L 33.015625 19.28125 
Q 31.640625 12.203125 32.859375 9.96875 
z
" id="DejaVuSans-Oblique-964"/>
     </defs>
     <g transform="translate(196.119905 274.659553)scale(0.2 -0.2)">
      <use transform="translate(0 0.09375)" xlink:href="#DejaVuSans-Oblique-116"/>
      <use transform="translate(39.208984 0.09375)" xlink:href="#DejaVuSans-47"/>
      <use transform="translate(72.900391 0.09375)" xlink:href="#DejaVuSans-Oblique-964"/>
     </g>
    </g>
   </g>
   <g id="matplotlib.axis_2">
    <g id="ytick_1">
     <g id="line2d_17">
      <path clip-path="url(#p0d31a94b5f)" d="M 63.954687 177.859391 
L 355.085122 177.859391 
" style="fill:none;stroke:#b0b0b0;stroke-linecap:square;stroke-width:0.8;"/>
     </g>
     <g id="line2d_18">
      <defs>
       <path d="M 0 0 
L -6 0 
" id="mab2d812e5e"/>
      </defs>
      <g>
       <use x="63.954687" xlink:href="#mab2d812e5e" y="177.859391"/>
      </g>
     </g>
     <g id="text_10">
      <!-- 3.5 -->
      <defs>
       <path d="M 10.6875 12.40625 
L 21 12.40625 
L 21 0 
L 10.6875 0 
z
" id="DejaVuSans-46"/>
      </defs>
      <g transform="translate(30.6 183.55822)scale(0.15 -0.15)">
       <use xlink:href="#DejaVuSans-51"/>
       <use x="63.623047" xlink:href="#DejaVuSans-46"/>
       <use x="95.410156" xlink:href="#DejaVuSans-53"/>
      </g>
     </g>
    </g>
    <g id="ytick_2">
     <g id="line2d_19">
      <path clip-path="url(#p0d31a94b5f)" d="M 63.954687 122.872537 
L 355.085122 122.872537 
" style="fill:none;stroke:#b0b0b0;stroke-linecap:square;stroke-width:0.8;"/>
     </g>
     <g id="line2d_20">
      <g>
       <use x="63.954687" xlink:href="#mab2d812e5e" y="122.872537"/>
      </g>
     </g>
     <g id="text_11">
      <!-- 4.0 -->
      <g transform="translate(30.6 128.571365)scale(0.15 -0.15)">
       <use xlink:href="#DejaVuSans-52"/>
       <use x="63.623047" xlink:href="#DejaVuSans-46"/>
       <use x="95.410156" xlink:href="#DejaVuSans-48"/>
      </g>
     </g>
    </g>
    <g id="ytick_3">
     <g id="line2d_21">
      <path clip-path="url(#p0d31a94b5f)" d="M 63.954687 67.885683 
L 355.085122 67.885683 
" style="fill:none;stroke:#b0b0b0;stroke-linecap:square;stroke-width:0.8;"/>
     </g>
     <g id="line2d_22">
      <g>
       <use x="63.954687" xlink:href="#mab2d812e5e" y="67.885683"/>
      </g>
     </g>
     <g id="text_12">
      <!-- 4.5 -->
      <g transform="translate(30.6 73.584511)scale(0.15 -0.15)">
       <use xlink:href="#DejaVuSans-52"/>
       <use x="63.623047" xlink:href="#DejaVuSans-46"/>
       <use x="95.410156" xlink:href="#DejaVuSans-53"/>
      </g>
     </g>
    </g>
    <g id="ytick_4">
     <g id="line2d_23">
      <path clip-path="url(#p0d31a94b5f)" d="M 63.954687 12.898828 
L 355.085122 12.898828 
" style="fill:none;stroke:#b0b0b0;stroke-linecap:square;stroke-width:0.8;"/>
     </g>
     <g id="line2d_24">
      <g>
       <use x="63.954687" xlink:href="#mab2d812e5e" y="12.898828"/>
      </g>
     </g>
     <g id="text_13">
      <!-- 5.0 -->
      <g transform="translate(30.6 18.597656)scale(0.15 -0.15)">
       <use xlink:href="#DejaVuSans-53"/>
       <use x="63.623047" xlink:href="#DejaVuSans-46"/>
       <use x="95.410156" xlink:href="#DejaVuSans-48"/>
      </g>
     </g>
    </g>
    <g id="text_14">
     <!-- $s$ $(\mu m)$ -->
     <defs>
      <path d="M 50 53.078125 
L 48.296875 44.578125 
Q 44.734375 46.53125 40.765625 47.5 
Q 36.8125 48.484375 32.625 48.484375 
Q 25.53125 48.484375 21.453125 46.0625 
Q 17.390625 43.65625 17.390625 39.5 
Q 17.390625 34.671875 26.859375 32.078125 
Q 27.59375 31.890625 27.9375 31.78125 
L 30.8125 30.90625 
Q 39.796875 28.421875 42.796875 25.6875 
Q 45.796875 22.953125 45.796875 18.21875 
Q 45.796875 9.515625 38.890625 4.046875 
Q 31.984375 -1.421875 20.796875 -1.421875 
Q 16.453125 -1.421875 11.671875 -0.578125 
Q 6.890625 0.25 1.125 2 
L 2.875 11.28125 
Q 7.8125 8.734375 12.59375 7.421875 
Q 17.390625 6.109375 21.78125 6.109375 
Q 28.375 6.109375 32.5 8.9375 
Q 36.625 11.765625 36.625 16.109375 
Q 36.625 20.796875 25.78125 23.6875 
L 24.859375 23.921875 
L 21.78125 24.703125 
Q 14.9375 26.515625 11.765625 29.46875 
Q 8.59375 32.421875 8.59375 37.015625 
Q 8.59375 45.75 15.15625 50.875 
Q 21.734375 56 33.015625 56 
Q 37.453125 56 41.671875 55.265625 
Q 45.90625 54.546875 50 53.078125 
z
" id="DejaVuSans-Oblique-115"/>
      <path id="DejaVuSans-32"/>
      <path d="M 31 75.875 
Q 24.46875 64.65625 21.28125 53.65625 
Q 18.109375 42.671875 18.109375 31.390625 
Q 18.109375 20.125 21.3125 9.0625 
Q 24.515625 -2 31 -13.1875 
L 23.1875 -13.1875 
Q 15.875 -1.703125 12.234375 9.375 
Q 8.59375 20.453125 8.59375 31.390625 
Q 8.59375 42.28125 12.203125 53.3125 
Q 15.828125 64.359375 23.1875 75.875 
z
" id="DejaVuSans-40"/>
      <path d="M -1.3125 -20.796875 
L 13.375 54.6875 
L 22.40625 54.6875 
L 15.765625 20.65625 
Q 15.578125 19.625 15.421875 18.359375 
Q 15.28125 17.09375 15.28125 15.828125 
Q 15.28125 11.28125 18.140625 8.828125 
Q 21 6.390625 26.3125 6.390625 
Q 33.546875 6.390625 37.984375 10.484375 
Q 42.4375 14.59375 44 22.796875 
L 50.203125 54.6875 
L 59.1875 54.6875 
L 51.03125 12.640625 
Q 50.828125 11.71875 50.75 11.03125 
Q 50.6875 10.359375 50.6875 9.8125 
Q 50.6875 8.296875 51.296875 7.59375 
Q 51.90625 6.890625 53.21875 6.890625 
Q 53.71875 6.890625 54.5625 7.125 
Q 55.421875 7.375 56.984375 8.015625 
L 55.609375 0.78125 
Q 53.46875 -0.296875 51.515625 -0.859375 
Q 49.5625 -1.421875 47.703125 -1.421875 
Q 44.484375 -1.421875 42.65625 0.625 
Q 40.828125 2.6875 40.828125 6.296875 
Q 38.09375 2.390625 34.296875 0.484375 
Q 30.515625 -1.421875 25.390625 -1.421875 
Q 20.84375 -1.421875 17.453125 0.671875 
Q 14.0625 2.78125 12.984375 6.203125 
L 7.71875 -20.796875 
z
" id="DejaVuSans-Oblique-956"/>
      <path d="M 89.796875 33.015625 
L 83.40625 0 
L 74.421875 0 
L 80.71875 32.71875 
Q 81.109375 34.8125 81.296875 36.328125 
Q 81.5 37.84375 81.5 38.921875 
Q 81.5 43.3125 79.046875 45.75 
Q 76.609375 48.1875 72.21875 48.1875 
Q 65.671875 48.1875 60.546875 43.28125 
Q 55.421875 38.375 53.90625 30.515625 
L 47.90625 0 
L 38.921875 0 
L 45.3125 32.71875 
Q 45.703125 34.515625 45.890625 36.046875 
Q 46.09375 37.59375 46.09375 38.8125 
Q 46.09375 43.265625 43.65625 45.71875 
Q 41.21875 48.1875 36.921875 48.1875 
Q 30.28125 48.1875 25.140625 43.28125 
Q 20.015625 38.375 18.5 30.515625 
L 12.5 0 
L 3.515625 0 
L 14.203125 54.6875 
L 23.1875 54.6875 
L 21.484375 46.1875 
Q 25.140625 50.984375 30.046875 53.484375 
Q 34.96875 56 40.578125 56 
Q 46.53125 56 50.359375 52.875 
Q 54.203125 49.75 54.984375 44.1875 
Q 59.078125 49.953125 64.46875 52.96875 
Q 69.875 56 75.875 56 
Q 82.90625 56 86.734375 51.953125 
Q 90.578125 47.90625 90.578125 40.484375 
Q 90.578125 38.875 90.375 36.9375 
Q 90.1875 35.015625 89.796875 33.015625 
z
" id="DejaVuSans-Oblique-109"/>
      <path d="M 8.015625 75.875 
L 15.828125 75.875 
Q 23.140625 64.359375 26.78125 53.3125 
Q 30.421875 42.28125 30.421875 31.390625 
Q 30.421875 20.453125 26.78125 9.375 
Q 23.140625 -1.703125 15.828125 -13.1875 
L 8.015625 -13.1875 
Q 14.5 -2 17.703125 9.0625 
Q 20.90625 20.125 20.90625 31.390625 
Q 20.90625 42.671875 17.703125 53.65625 
Q 14.5 64.65625 8.015625 75.875 
z
" id="DejaVuSans-41"/>
     </defs>
     <g transform="translate(22.4 152.865491)rotate(-90)scale(0.2 -0.2)">
      <use transform="translate(0 0.125)" xlink:href="#DejaVuSans-Oblique-115"/>
      <use transform="translate(52.099609 0.125)" xlink:href="#DejaVuSans-32"/>
      <use transform="translate(83.886719 0.125)" xlink:href="#DejaVuSans-40"/>
      <use transform="translate(122.900391 0.125)" xlink:href="#DejaVuSans-Oblique-956"/>
      <use transform="translate(186.523438 0.125)" xlink:href="#DejaVuSans-Oblique-109"/>
      <use transform="translate(283.935547 0.125)" xlink:href="#DejaVuSans-41"/>
     </g>
    </g>
   </g>
   <g id="line2d_25">
    <path clip-path="url(#p0d31a94b5f)" d="M 63.954687 231.445491 
L 68.113694 207.693862 
L 72.2727 182.222339 
L 76.431706 154.905254 
L 80.590712 126.150105 
L 84.749719 98.684323 
L 88.908725 74.641238 
L 93.067731 60.682965 
L 97.226737 59.965662 
L 101.385743 70.201971 
L 105.54475 88.028062 
L 109.703756 104.631165 
L 113.862762 112.698515 
L 118.021768 112.346601 
L 122.180774 104.033491 
L 126.339781 93.565351 
L 130.498787 81.442768 
L 134.657793 74.76701 
L 138.816799 72.102275 
L 142.975806 74.66806 
L 147.134812 82.827287 
L 151.293818 90.454945 
L 155.452824 96.623577 
L 159.61183 99.049836 
L 163.770837 96.845013 
L 167.929843 92.897597 
L 172.088849 85.961483 
L 176.247855 79.858771 
L 180.406861 75.457181 
L 184.565868 78.85739 
L 188.724874 82.944677 
L 192.88388 86.893686 
L 197.042886 88.720721 
L 201.201892 90.640774 
L 205.360899 90.250816 
L 209.519905 87.827734 
L 213.678911 85.213406 
L 217.837917 82.222412 
L 221.996924 81.689937 
L 226.15593 82.683162 
L 230.314936 85.918927 
L 234.473942 88.52378 
L 238.632948 91.501113 
L 242.791955 94.280556 
L 246.950961 93.275099 
L 251.109967 91.687963 
L 255.268973 85.259993 
L 259.427979 83.890491 
L 263.586986 81.507987 
L 267.745992 82.446309 
L 271.904998 85.348951 
L 276.064004 87.328297 
L 280.22301 90.316277 
L 284.382017 90.753576 
L 288.541023 93.275891 
L 292.700029 91.450068 
L 296.859035 91.003832 
L 301.018042 87.005346 
L 305.177048 85.706757 
L 309.336054 86.394498 
L 313.49506 84.041683 
L 317.654066 87.834663 
L 321.813073 87.841776 
L 325.972079 90.184587 
L 330.131085 90.164625 
L 334.290091 89.963085 
L 338.449097 87.572861 
L 342.608104 84.45217 
L 346.76711 83.059982 
L 350.926116 81.03794 
L 355.085122 83.838269 
L 359.244128 86.134896 
L 363.403135 88.84216 
L 367.562141 90.761213 
L 371.721147 90.960379 
L 375.880153 89.959313 
L 380.03916 86.810051 
L 384.198166 86.257112 
L 388.357172 83.763258 
L 392.516178 85.014363 
L 396.675184 84.76719 
L 400.834191 86.191651 
L 404.993197 87.275127 
L 409.152203 91.543071 
L 413.311209 91.983467 
L 417.470215 88.869911 
L 421.629222 90.970169 
L 425.788228 88.621373 
L 429.947234 88.294133 
L 434.10624 87.033849 
L 438.265247 87.025645 
L 442.424253 85.490872 
L 446.583259 86.192364 
L 450.742265 87.248373 
L 454.901271 88.42712 
L 459.060278 87.707287 
L 463.219284 85.967019 
L 467.37829 87.428897 
L 471.537296 86.891774 
L 475.696302 85.727637 
L 479.855309 84.717348 
" style="fill:none;stroke:#1f77b4;stroke-linecap:square;stroke-width:1.5;"/>
   </g>
   <g id="patch_3">
    <path d="M 63.954687 231.445491 
L 63.954687 9.685491 
" style="fill:none;stroke:#000000;stroke-linecap:square;stroke-linejoin:miter;stroke-width:2;"/>
   </g>
   <g id="patch_4">
    <path d="M 355.085122 231.445491 
L 355.085122 9.685491 
" style="fill:none;"/>
   </g>
   <g id="patch_5">
    <path d="M 63.954687 231.445491 
L 355.085122 231.445491 
" style="fill:none;stroke:#000000;stroke-linecap:square;stroke-linejoin:miter;stroke-width:2;"/>
   </g>
   <g id="patch_6">
    <path d="M 63.954687 9.685491 
L 355.085122 9.685491 
" style="fill:none;"/>
   </g>
  </g>
  <g id="axes_2">
   <g id="patch_7">
    <path d="M 442.424253 231.445491 
L 733.554688 231.445491 
L 733.554688 9.685491 
L 442.424253 9.685491 
z
" style="fill:#ffffff;"/>
   </g>
   <g id="PolyCollection_2">
    <defs>
     <path d="M 442.424253 -84.074169 
L 442.424253 -81.48344 
L 446.583259 -81.567644 
L 450.742265 -81.819042 
L 454.901271 -82.238332 
L 459.060278 -83.609175 
L 463.219284 -89.398927 
L 467.37829 -102.520532 
L 471.537296 -128.498948 
L 475.696302 -168.136138 
L 479.855309 -212.247403 
L 484.014315 -244.645221 
L 488.173321 -243.3147 
L 492.332327 -216.114968 
L 496.491333 -179.965485 
L 500.65034 -153.156732 
L 504.809346 -135.238771 
L 508.968352 -137.343199 
L 513.127358 -149.514715 
L 517.286365 -174.846555 
L 521.445371 -200.641504 
L 525.604377 -218.483266 
L 529.763383 -223.664181 
L 533.922389 -212.066067 
L 538.081396 -190.233701 
L 542.240402 -170.036027 
L 546.399408 -156.066345 
L 550.558414 -156.119406 
L 554.71742 -163.728629 
L 558.876427 -178.483213 
L 563.035433 -197.207614 
L 567.194439 -211.393306 
L 571.353445 -214.739801 
L 575.512451 -213.076883 
L 579.671458 -200.792067 
L 583.830464 -187.503421 
L 587.98947 -174.666685 
L 592.148476 -169.832495 
L 596.307483 -173.161629 
L 600.466489 -186.407668 
L 604.625495 -198.036417 
L 608.784501 -210.174944 
L 612.943507 -209.297914 
L 617.102514 -205.935576 
L 621.26152 -196.95059 
L 625.420526 -186.680785 
L 629.579532 -179.009983 
L 633.738538 -175.186783 
L 637.897545 -175.445476 
L 642.056551 -181.492572 
L 646.215557 -190.106994 
L 650.374563 -198.278273 
L 654.533569 -203.172211 
L 658.692576 -201.475534 
L 662.851582 -196.005607 
L 667.010588 -192.054099 
L 671.169594 -180.290521 
L 675.328601 -171.099221 
L 679.487607 -176.153717 
L 683.646613 -182.79063 
L 687.805619 -189.183401 
L 691.964625 -196.659314 
L 696.123632 -204.066384 
L 700.282638 -202.608307 
L 704.441644 -199.287372 
L 708.60065 -196.726183 
L 712.759656 -191.218598 
L 716.918663 -183.162462 
L 721.077669 -179.486852 
L 725.236675 -180.672932 
L 729.395681 -183.666149 
L 733.554687 -191.656651 
L 737.713694 -198.795021 
L 741.8727 -198.441137 
L 746.031706 -195.865087 
L 750.190712 -194.014711 
L 754.349719 -190.383474 
L 758.508725 -183.623073 
L 762.667731 -183.182919 
L 766.826737 -186.904738 
L 770.985743 -187.980417 
L 775.14475 -193.175475 
L 779.303756 -195.820302 
L 783.462762 -197.390997 
L 787.621768 -196.106739 
L 791.780774 -191.522726 
L 795.939781 -188.70536 
L 800.098787 -184.773999 
L 804.257793 -184.597568 
L 808.416799 -188.182013 
L 812.575806 -188.74502 
L 816.734812 -192.523864 
L 820.893818 -193.939523 
L 825.052824 -191.358975 
L 829.21183 -188.719347 
L 833.370837 -190.258632 
L 837.529843 -188.352342 
L 841.688849 -185.203426 
L 845.847855 -187.379792 
L 850.006861 -184.427216 
L 854.165868 -185.573416 
L 858.324874 -187.331435 
L 858.324874 -202.548824 
L 858.324874 -202.548824 
L 854.165868 -200.559863 
L 850.006861 -199.263419 
L 845.847855 -202.603542 
L 841.688849 -200.141346 
L 837.529843 -203.704116 
L 833.370837 -205.861878 
L 829.21183 -204.119482 
L 825.052824 -207.107693 
L 820.893818 -210.030313 
L 816.734812 -208.42684 
L 812.575806 -204.148538 
L 808.416799 -203.511352 
L 804.257793 -199.456084 
L 800.098787 -199.655631 
L 795.939781 -204.103651 
L 791.780774 -207.293113 
L 787.621768 -212.485787 
L 783.462762 -213.94128 
L 779.303756 -212.161201 
L 775.14475 -209.164853 
L 770.985743 -203.28321 
L 766.826737 -202.066018 
L 762.667731 -197.85631 
L 758.508725 -198.354022 
L 754.349719 -206.003213 
L 750.190712 -210.115487 
L 746.031706 -212.21195 
L 741.8727 -215.13167 
L 737.713694 -215.532863 
L 733.554687 -207.444764 
L 729.395681 -198.402733 
L 725.236675 -195.01883 
L 721.077669 -193.678432 
L 716.918663 -197.833179 
L 712.759656 -206.948744 
L 708.60065 -213.187785 
L 704.441644 -216.091073 
L 700.282638 -219.857405 
L 696.123632 -221.511679 
L 691.964625 -213.112002 
L 687.805619 -204.64472 
L 683.646613 -197.412755 
L 679.487607 -189.913134 
L 675.328601 -184.207589 
L 671.169594 -194.586634 
L 667.010588 -207.894837 
L 662.851582 -212.371185 
L 658.692576 -218.572477 
L 654.533569 -220.49714 
L 650.374563 -214.947042 
L 646.215557 -205.690211 
L 642.056551 -195.945277 
L 637.897545 -189.113353 
L 633.738538 -188.82125 
L 629.579532 -193.139596 
L 625.420526 -201.812631 
L 621.26152 -213.442118 
L 617.102514 -223.632961 
L 612.943507 -227.450364 
L 608.784501 -228.44643 
L 604.625495 -214.672875 
L 600.466489 -201.503631 
L 596.307483 -186.535017 
L 592.148476 -182.778524 
L 587.98947 -188.234023 
L 583.830464 -202.743434 
L 579.671458 -217.79732 
L 575.512451 -231.743225 
L 571.353445 -233.633089 
L 567.194439 -229.830386 
L 563.035433 -213.733428 
L 558.876427 -192.544429 
L 554.71742 -175.897102 
L 550.558414 -167.32969 
L 546.399408 -167.269991 
L 542.240402 -183.008117 
L 538.081396 -205.833654 
L 533.922389 -230.594699 
L 529.763383 -243.783764 
L 525.604377 -237.889238 
L 521.445371 -217.626571 
L 517.286365 -188.437102 
L 513.127358 -159.903628 
L 508.968352 -146.244672 
L 504.809346 -143.886646 
L 500.65034 -163.997366 
L 496.491333 -194.219304 
L 492.332327 -235.196302 
L 488.173321 -266.182702 
L 484.014315 -267.701654 
L 479.855309 -230.800726 
L 475.696302 -180.865288 
L 471.537296 -136.342016 
L 467.37829 -107.375554 
L 463.219284 -92.822895 
L 459.060278 -86.421251 
L 454.901271 -84.907455 
L 450.742265 -84.444594 
L 446.583259 -84.167106 
L 442.424253 -84.074169 
z
" id="mf078700a0d"/>
    </defs>
    <g clip-path="url(#pa019d35b24)">
     <use style="fill:#4db8ff;" x="0" xlink:href="#mf078700a0d" y="286.018928"/>
    </g>
   </g>
   <g id="matplotlib.axis_3">
    <g id="xtick_9">
     <g id="line2d_26">
      <path clip-path="url(#pa019d35b24)" d="M 442.424253 231.445491 
L 442.424253 9.685491 
" style="fill:none;stroke:#b0b0b0;stroke-linecap:square;stroke-width:0.8;"/>
     </g>
     <g id="line2d_27">
      <g>
       <use x="442.424253" xlink:href="#mfa4abcb8a9" y="231.445491"/>
      </g>
     </g>
     <g id="text_15">
      <!-- 0 -->
      <g transform="translate(437.652378 252.343147)scale(0.15 -0.15)">
       <use xlink:href="#DejaVuSans-48"/>
      </g>
     </g>
    </g>
    <g id="xtick_10">
     <g id="line2d_28">
      <path clip-path="url(#pa019d35b24)" d="M 484.014315 231.445491 
L 484.014315 9.685491 
" style="fill:none;stroke:#b0b0b0;stroke-linecap:square;stroke-width:0.8;"/>
     </g>
     <g id="line2d_29">
      <g>
       <use x="484.014315" xlink:href="#mfa4abcb8a9" y="231.445491"/>
      </g>
     </g>
     <g id="text_16">
      <!-- 1 -->
      <g transform="translate(479.24244 252.343147)scale(0.15 -0.15)">
       <use xlink:href="#DejaVuSans-49"/>
      </g>
     </g>
    </g>
    <g id="xtick_11">
     <g id="line2d_30">
      <path clip-path="url(#pa019d35b24)" d="M 525.604377 231.445491 
L 525.604377 9.685491 
" style="fill:none;stroke:#b0b0b0;stroke-linecap:square;stroke-width:0.8;"/>
     </g>
     <g id="line2d_31">
      <g>
       <use x="525.604377" xlink:href="#mfa4abcb8a9" y="231.445491"/>
      </g>
     </g>
     <g id="text_17">
      <!-- 2 -->
      <g transform="translate(520.832502 252.343147)scale(0.15 -0.15)">
       <use xlink:href="#DejaVuSans-50"/>
      </g>
     </g>
    </g>
    <g id="xtick_12">
     <g id="line2d_32">
      <path clip-path="url(#pa019d35b24)" d="M 567.194439 231.445491 
L 567.194439 9.685491 
" style="fill:none;stroke:#b0b0b0;stroke-linecap:square;stroke-width:0.8;"/>
     </g>
     <g id="line2d_33">
      <g>
       <use x="567.194439" xlink:href="#mfa4abcb8a9" y="231.445491"/>
      </g>
     </g>
     <g id="text_18">
      <!-- 3 -->
      <g transform="translate(562.422564 252.343147)scale(0.15 -0.15)">
       <use xlink:href="#DejaVuSans-51"/>
      </g>
     </g>
    </g>
    <g id="xtick_13">
     <g id="line2d_34">
      <path clip-path="url(#pa019d35b24)" d="M 608.784501 231.445491 
L 608.784501 9.685491 
" style="fill:none;stroke:#b0b0b0;stroke-linecap:square;stroke-width:0.8;"/>
     </g>
     <g id="line2d_35">
      <g>
       <use x="608.784501" xlink:href="#mfa4abcb8a9" y="231.445491"/>
      </g>
     </g>
     <g id="text_19">
      <!-- 4 -->
      <g transform="translate(604.012626 252.343147)scale(0.15 -0.15)">
       <use xlink:href="#DejaVuSans-52"/>
      </g>
     </g>
    </g>
    <g id="xtick_14">
     <g id="line2d_36">
      <path clip-path="url(#pa019d35b24)" d="M 650.374563 231.445491 
L 650.374563 9.685491 
" style="fill:none;stroke:#b0b0b0;stroke-linecap:square;stroke-width:0.8;"/>
     </g>
     <g id="line2d_37">
      <g>
       <use x="650.374563" xlink:href="#mfa4abcb8a9" y="231.445491"/>
      </g>
     </g>
     <g id="text_20">
      <!-- 5 -->
      <g transform="translate(645.602688 252.343147)scale(0.15 -0.15)">
       <use xlink:href="#DejaVuSans-53"/>
      </g>
     </g>
    </g>
    <g id="xtick_15">
     <g id="line2d_38">
      <path clip-path="url(#pa019d35b24)" d="M 691.964625 231.445491 
L 691.964625 9.685491 
" style="fill:none;stroke:#b0b0b0;stroke-linecap:square;stroke-width:0.8;"/>
     </g>
     <g id="line2d_39">
      <g>
       <use x="691.964625" xlink:href="#mfa4abcb8a9" y="231.445491"/>
      </g>
     </g>
     <g id="text_21">
      <!-- 6 -->
      <g transform="translate(687.19275 252.343147)scale(0.15 -0.15)">
       <use xlink:href="#DejaVuSans-54"/>
      </g>
     </g>
    </g>
    <g id="xtick_16">
     <g id="line2d_40">
      <path clip-path="url(#pa019d35b24)" d="M 733.554688 231.445491 
L 733.554688 9.685491 
" style="fill:none;stroke:#b0b0b0;stroke-linecap:square;stroke-width:0.8;"/>
     </g>
     <g id="line2d_41">
      <g>
       <use x="733.554688" xlink:href="#mfa4abcb8a9" y="231.445491"/>
      </g>
     </g>
     <g id="text_22">
      <!-- 7 -->
      <g transform="translate(728.782813 252.343147)scale(0.15 -0.15)">
       <use xlink:href="#DejaVuSans-55"/>
      </g>
     </g>
    </g>
    <g id="text_23">
     <!-- $t/\tau$ -->
     <g transform="translate(574.58947 274.659553)scale(0.2 -0.2)">
      <use transform="translate(0 0.09375)" xlink:href="#DejaVuSans-Oblique-116"/>
      <use transform="translate(39.208984 0.09375)" xlink:href="#DejaVuSans-47"/>
      <use transform="translate(72.900391 0.09375)" xlink:href="#DejaVuSans-Oblique-964"/>
     </g>
    </g>
   </g>
   <g id="matplotlib.axis_4">
    <g id="ytick_5">
     <g id="line2d_42">
      <path clip-path="url(#pa019d35b24)" d="M 442.424253 231.445491 
L 733.554688 231.445491 
" style="fill:none;stroke:#b0b0b0;stroke-linecap:square;stroke-width:0.8;"/>
     </g>
     <g id="line2d_43">
      <g>
       <use x="442.424253" xlink:href="#mab2d812e5e" y="231.445491"/>
      </g>
     </g>
     <g id="text_24">
      <!-- 0.00 -->
      <g transform="translate(399.525815 237.144319)scale(0.15 -0.15)">
       <use xlink:href="#DejaVuSans-48"/>
       <use x="63.623047" xlink:href="#DejaVuSans-46"/>
       <use x="95.410156" xlink:href="#DejaVuSans-48"/>
       <use x="159.033203" xlink:href="#DejaVuSans-48"/>
      </g>
     </g>
    </g>
    <g id="ytick_6">
     <g id="line2d_44">
      <path clip-path="url(#pa019d35b24)" d="M 442.424253 193.134969 
L 733.554688 193.134969 
" style="fill:none;stroke:#b0b0b0;stroke-linecap:square;stroke-width:0.8;"/>
     </g>
     <g id="line2d_45">
      <g>
       <use x="442.424253" xlink:href="#mab2d812e5e" y="193.134969"/>
      </g>
     </g>
     <g id="text_25">
      <!-- 0.02 -->
      <g transform="translate(399.525815 198.833797)scale(0.15 -0.15)">
       <use xlink:href="#DejaVuSans-48"/>
       <use x="63.623047" xlink:href="#DejaVuSans-46"/>
       <use x="95.410156" xlink:href="#DejaVuSans-48"/>
       <use x="159.033203" xlink:href="#DejaVuSans-50"/>
      </g>
     </g>
    </g>
    <g id="ytick_7">
     <g id="line2d_46">
      <path clip-path="url(#pa019d35b24)" d="M 442.424253 154.824448 
L 733.554688 154.824448 
" style="fill:none;stroke:#b0b0b0;stroke-linecap:square;stroke-width:0.8;"/>
     </g>
     <g id="line2d_47">
      <g>
       <use x="442.424253" xlink:href="#mab2d812e5e" y="154.824448"/>
      </g>
     </g>
     <g id="text_26">
      <!-- 0.04 -->
      <g transform="translate(399.525815 160.523276)scale(0.15 -0.15)">
       <use xlink:href="#DejaVuSans-48"/>
       <use x="63.623047" xlink:href="#DejaVuSans-46"/>
       <use x="95.410156" xlink:href="#DejaVuSans-48"/>
       <use x="159.033203" xlink:href="#DejaVuSans-52"/>
      </g>
     </g>
    </g>
    <g id="ytick_8">
     <g id="line2d_48">
      <path clip-path="url(#pa019d35b24)" d="M 442.424253 116.513926 
L 733.554688 116.513926 
" style="fill:none;stroke:#b0b0b0;stroke-linecap:square;stroke-width:0.8;"/>
     </g>
     <g id="line2d_49">
      <g>
       <use x="442.424253" xlink:href="#mab2d812e5e" y="116.513926"/>
      </g>
     </g>
     <g id="text_27">
      <!-- 0.06 -->
      <g transform="translate(399.525815 122.212754)scale(0.15 -0.15)">
       <use xlink:href="#DejaVuSans-48"/>
       <use x="63.623047" xlink:href="#DejaVuSans-46"/>
       <use x="95.410156" xlink:href="#DejaVuSans-48"/>
       <use x="159.033203" xlink:href="#DejaVuSans-54"/>
      </g>
     </g>
    </g>
    <g id="ytick_9">
     <g id="line2d_50">
      <path clip-path="url(#pa019d35b24)" d="M 442.424253 78.203405 
L 733.554688 78.203405 
" style="fill:none;stroke:#b0b0b0;stroke-linecap:square;stroke-width:0.8;"/>
     </g>
     <g id="line2d_51">
      <g>
       <use x="442.424253" xlink:href="#mab2d812e5e" y="78.203405"/>
      </g>
     </g>
     <g id="text_28">
      <!-- 0.08 -->
      <defs>
       <path d="M 31.78125 34.625 
Q 24.75 34.625 20.71875 30.859375 
Q 16.703125 27.09375 16.703125 20.515625 
Q 16.703125 13.921875 20.71875 10.15625 
Q 24.75 6.390625 31.78125 6.390625 
Q 38.8125 6.390625 42.859375 10.171875 
Q 46.921875 13.96875 46.921875 20.515625 
Q 46.921875 27.09375 42.890625 30.859375 
Q 38.875 34.625 31.78125 34.625 
z
M 21.921875 38.8125 
Q 15.578125 40.375 12.03125 44.71875 
Q 8.5 49.078125 8.5 55.328125 
Q 8.5 64.0625 14.71875 69.140625 
Q 20.953125 74.21875 31.78125 74.21875 
Q 42.671875 74.21875 48.875 69.140625 
Q 55.078125 64.0625 55.078125 55.328125 
Q 55.078125 49.078125 51.53125 44.71875 
Q 48 40.375 41.703125 38.8125 
Q 48.828125 37.15625 52.796875 32.3125 
Q 56.78125 27.484375 56.78125 20.515625 
Q 56.78125 9.90625 50.3125 4.234375 
Q 43.84375 -1.421875 31.78125 -1.421875 
Q 19.734375 -1.421875 13.25 4.234375 
Q 6.78125 9.90625 6.78125 20.515625 
Q 6.78125 27.484375 10.78125 32.3125 
Q 14.796875 37.15625 21.921875 38.8125 
z
M 18.3125 54.390625 
Q 18.3125 48.734375 21.84375 45.5625 
Q 25.390625 42.390625 31.78125 42.390625 
Q 38.140625 42.390625 41.71875 45.5625 
Q 45.3125 48.734375 45.3125 54.390625 
Q 45.3125 60.0625 41.71875 63.234375 
Q 38.140625 66.40625 31.78125 66.40625 
Q 25.390625 66.40625 21.84375 63.234375 
Q 18.3125 60.0625 18.3125 54.390625 
z
" id="DejaVuSans-56"/>
      </defs>
      <g transform="translate(399.525815 83.902233)scale(0.15 -0.15)">
       <use xlink:href="#DejaVuSans-48"/>
       <use x="63.623047" xlink:href="#DejaVuSans-46"/>
       <use x="95.410156" xlink:href="#DejaVuSans-48"/>
       <use x="159.033203" xlink:href="#DejaVuSans-56"/>
      </g>
     </g>
    </g>
    <g id="ytick_10">
     <g id="line2d_52">
      <path clip-path="url(#pa019d35b24)" d="M 442.424253 39.892883 
L 733.554688 39.892883 
" style="fill:none;stroke:#b0b0b0;stroke-linecap:square;stroke-width:0.8;"/>
     </g>
     <g id="line2d_53">
      <g>
       <use x="442.424253" xlink:href="#mab2d812e5e" y="39.892883"/>
      </g>
     </g>
     <g id="text_29">
      <!-- 0.10 -->
      <g transform="translate(399.525815 45.591711)scale(0.15 -0.15)">
       <use xlink:href="#DejaVuSans-48"/>
       <use x="63.623047" xlink:href="#DejaVuSans-46"/>
       <use x="95.410156" xlink:href="#DejaVuSans-49"/>
       <use x="159.033203" xlink:href="#DejaVuSans-48"/>
      </g>
     </g>
    </g>
    <g id="text_30">
     <!-- $C_V^2(s)$ -->
     <defs>
      <path d="M 69.484375 67.28125 
L 67.484375 56.890625 
Q 62.796875 61.625 57.546875 63.921875 
Q 52.296875 66.21875 46.1875 66.21875 
Q 37.84375 66.21875 31.515625 62.203125 
Q 25.203125 58.203125 20.609375 50 
Q 17.671875 44.734375 16.125 38.84375 
Q 14.59375 32.953125 14.59375 27 
Q 14.59375 17.046875 19.75 11.8125 
Q 24.90625 6.59375 34.71875 6.59375 
Q 41.5 6.59375 47.75 8.765625 
Q 54 10.9375 59.90625 15.28125 
L 57.625 3.609375 
Q 51.8125 1.125 45.875 -0.140625 
Q 39.9375 -1.421875 33.984375 -1.421875 
Q 19.96875 -1.421875 12.078125 6.1875 
Q 4.203125 13.8125 4.203125 27.390625 
Q 4.203125 36.078125 7.203125 44.46875 
Q 10.203125 52.875 15.828125 59.8125 
Q 21.78125 67.1875 29.421875 70.703125 
Q 37.0625 74.21875 47.21875 74.21875 
Q 53.46875 74.21875 59.0625 72.484375 
Q 64.65625 70.75 69.484375 67.28125 
z
" id="DejaVuSans-Oblique-67"/>
      <path d="M 20.609375 0 
L 7.8125 72.90625 
L 17.484375 72.90625 
L 28.078125 10.203125 
L 63.484375 72.90625 
L 74.21875 72.90625 
L 32.078125 0 
z
" id="DejaVuSans-Oblique-86"/>
     </defs>
     <g transform="translate(389.925815 146.065491)rotate(-90)scale(0.2 -0.2)">
      <use transform="translate(0 0.765625)" xlink:href="#DejaVuSans-Oblique-67"/>
      <use transform="translate(77.02474 39.046875)scale(0.7)" xlink:href="#DejaVuSans-50"/>
      <use transform="translate(69.824219 -26.578125)scale(0.7)" xlink:href="#DejaVuSans-Oblique-86"/>
      <use transform="translate(124.295247 0.765625)" xlink:href="#DejaVuSans-40"/>
      <use transform="translate(163.308919 0.765625)" xlink:href="#DejaVuSans-Oblique-115"/>
      <use transform="translate(215.408529 0.765625)" xlink:href="#DejaVuSans-41"/>
     </g>
    </g>
   </g>
   <g id="line2d_54">
    <path clip-path="url(#pa019d35b24)" d="M 442.424253 203.240124 
L 446.583259 203.151554 
L 450.742265 202.88711 
L 454.901271 202.446035 
L 459.060278 201.003715 
L 463.219284 194.908017 
L 467.37829 181.070886 
L 471.537296 153.598447 
L 475.696302 111.518215 
L 479.855309 64.494864 
L 484.014315 29.845491 
L 488.173321 31.270227 
L 492.332327 60.363293 
L 496.491333 98.926534 
L 500.65034 127.44188 
L 504.809346 146.45622 
L 508.968352 144.224993 
L 513.127358 131.309757 
L 517.286365 104.3771 
L 521.445371 76.884891 
L 525.604377 57.832677 
L 529.763383 52.294956 
L 533.922389 64.688545 
L 538.081396 87.985251 
L 542.240402 109.496856 
L 546.399408 124.35076 
L 550.558414 124.29438 
L 554.71742 116.206063 
L 558.876427 100.505107 
L 563.035433 80.548408 
L 567.194439 65.407082 
L 571.353445 61.832483 
L 575.512451 63.608875 
L 579.671458 76.724235 
L 583.830464 90.895501 
L 587.98947 104.568575 
L 592.148476 109.713419 
L 596.307483 106.170606 
L 600.466489 92.063279 
L 604.625495 79.664283 
L 608.784501 66.708242 
L 612.943507 67.644789 
L 617.102514 71.23466 
L 621.26152 80.822574 
L 625.420526 91.772221 
L 629.579532 99.944139 
L 633.738538 104.014912 
L 637.897545 103.739514 
L 642.056551 97.300004 
L 646.215557 88.120326 
L 650.374563 79.406271 
L 654.533569 74.184253 
L 658.692576 75.994923 
L 662.851582 81.830532 
L 667.010588 86.044461 
L 671.169594 98.580351 
L 675.328601 108.365524 
L 679.487607 102.985503 
L 683.646613 95.917236 
L 687.805619 89.104868 
L 691.964625 81.13327 
L 696.123632 73.229897 
L 700.282638 74.786072 
L 704.441644 78.329706 
L 708.60065 81.061944 
L 712.759656 86.935257 
L 716.918663 95.521108 
L 721.077669 99.436286 
L 725.236675 98.173048 
L 729.395681 94.984487 
L 733.554687 86.468221 
L 737.713694 78.854987 
L 741.8727 79.232525 
L 746.031706 81.98041 
L 746.526563 82.215216 
" style="fill:none;stroke:#1f77b4;stroke-linecap:square;stroke-width:1.5;"/>
   </g>
   <g id="patch_8">
    <path d="M 442.424253 231.445491 
L 442.424253 9.685491 
" style="fill:none;stroke:#000000;stroke-linecap:square;stroke-linejoin:miter;stroke-width:2;"/>
   </g>
   <g id="patch_9">
    <path d="M 733.554688 231.445491 
L 733.554688 9.685491 
" style="fill:none;"/>
   </g>
   <g id="patch_10">
    <path d="M 442.424253 231.445491 
L 733.554688 231.445491 
" style="fill:none;stroke:#000000;stroke-linecap:square;stroke-linejoin:miter;stroke-width:2;"/>
   </g>
   <g id="patch_11">
    <path d="M 442.424253 9.685491 
L 733.554688 9.685491 
" style="fill:none;"/>
   </g>
  </g>
 </g>
 <defs>
  <clipPath id="p0d31a94b5f">
   <rect height="221.76" width="291.130435" x="63.954687" y="9.685491"/>
  </clipPath>
  <clipPath id="pa019d35b24">
   <rect height="221.76" width="291.130435" x="442.424253" y="9.685491"/>
  </clipPath>
 </defs>
</svg>
