<?xml version="1.0" encoding="utf-8" standalone="no"?>
<!DOCTYPE svg PUBLIC "-//W3C//DTD SVG 1.1//EN"
  "http://www.w3.org/Graphics/SVG/1.1/DTD/svg11.dtd">
<!-- Created with matplotlib (http://matplotlib.org/) -->
<svg height="339.573438pt" version="1.1" viewBox="0 0 928.43125 339.573438" width="928.43125pt" xmlns="http://www.w3.org/2000/svg" xmlns:xlink="http://www.w3.org/1999/xlink">
 <defs>
  <style type="text/css">
*{stroke-linecap:butt;stroke-linejoin:round;}
  </style>
 </defs>
 <g id="figure_1">
  <g id="patch_1">
   <path d="M 0 339.573438 
L 928.43125 339.573438 
L 928.43125 0 
L 0 0 
z
" style="fill:#ffffff;"/>
  </g>
  <g id="axes_1">
   <g id="patch_2">
    <path d="M 78.23125 285 
L 442.144293 285 
L 442.144293 13.2 
L 78.23125 13.2 
z
" style="fill:#ffffff;"/>
   </g>
   <g id="PolyCollection_1">
    <defs>
     <path d="M 78.23125 -66.927983 
L 78.23125 -66.927983 
L 83.430008 -69.743961 
L 88.628766 -77.000684 
L 93.827523 -86.838699 
L 99.026281 -98.353022 
L 104.225039 -110.520946 
L 109.423797 -122.512127 
L 114.622554 -134.131434 
L 119.821312 -145.091947 
L 125.02007 -155.751558 
L 130.218828 -165.88929 
L 135.417585 -175.493441 
L 140.616343 -184.409369 
L 145.815101 -192.863783 
L 151.013859 -200.715343 
L 156.212616 -208.105017 
L 161.411374 -215.16746 
L 166.610132 -221.681998 
L 171.80889 -227.558498 
L 177.007648 -232.677198 
L 182.206405 -237.536211 
L 187.405163 -241.728521 
L 192.603921 -245.506023 
L 197.802679 -249.264389 
L 203.001436 -253.178647 
L 208.200194 -257.079911 
L 213.398952 -261.035684 
L 218.59771 -264.430677 
L 223.796467 -267.924188 
L 228.995225 -270.68652 
L 234.193983 -272.958392 
L 239.392741 -275.337655 
L 244.591498 -277.115337 
L 249.790256 -278.87967 
L 254.989014 -280.256724 
L 260.187772 -281.592275 
L 265.38653 -283.499266 
L 270.585287 -285.104433 
L 275.784045 -287.103094 
L 280.982803 -288.851869 
L 286.181561 -289.799826 
L 291.380318 -290.81583 
L 296.579076 -291.745493 
L 301.777834 -292.828588 
L 306.976592 -293.890367 
L 312.175349 -294.56244 
L 317.374107 -295.202645 
L 322.572865 -295.522534 
L 327.771623 -296.346042 
L 332.97038 -297.107599 
L 338.169138 -297.810345 
L 343.367896 -298.696463 
L 348.566654 -299.246638 
L 353.765411 -299.189722 
L 358.964169 -299.946992 
L 364.162927 -300.569694 
L 369.361685 -301.193592 
L 374.560443 -301.70678 
L 379.7592 -302.159054 
L 384.957958 -302.498658 
L 390.156716 -303.028348 
L 395.355474 -303.688876 
L 400.554231 -304.154133 
L 405.752989 -304.859884 
L 410.951747 -305.193336 
L 416.150505 -306.011949 
L 421.349262 -306.586978 
L 426.54802 -307.009454 
L 431.746778 -307.385304 
L 436.945536 -308.053933 
L 436.945536 -314.018892 
L 436.945536 -314.018892 
L 431.746778 -313.660918 
L 426.54802 -313.089358 
L 421.349262 -312.632108 
L 416.150505 -312.031459 
L 410.951747 -311.22914 
L 405.752989 -310.588828 
L 400.554231 -310.180554 
L 395.355474 -309.382586 
L 390.156716 -308.846092 
L 384.957958 -308.578703 
L 379.7592 -308.054338 
L 374.560443 -307.475467 
L 369.361685 -306.783841 
L 364.162927 -306.107614 
L 358.964169 -305.434059 
L 353.765411 -305.419234 
L 348.566654 -305.094007 
L 343.367896 -304.65872 
L 338.169138 -303.843976 
L 332.97038 -303.163045 
L 327.771623 -302.210821 
L 322.572865 -301.64355 
L 317.374107 -301.266848 
L 312.175349 -300.7488 
L 306.976592 -300.000324 
L 301.777834 -299.004415 
L 296.579076 -297.884353 
L 291.380318 -296.822976 
L 286.181561 -295.809421 
L 280.982803 -294.544742 
L 275.784045 -293.106276 
L 270.585287 -291.551664 
L 265.38653 -289.630343 
L 260.187772 -287.984 
L 254.989014 -286.53383 
L 249.790256 -285.112247 
L 244.591498 -283.473174 
L 239.392741 -281.417878 
L 234.193983 -279.373197 
L 228.995225 -276.72412 
L 223.796467 -273.749942 
L 218.59771 -270.79502 
L 213.398952 -266.926643 
L 208.200194 -263.202944 
L 203.001436 -259.185717 
L 197.802679 -255.194337 
L 192.603921 -251.647787 
L 187.405163 -248.03133 
L 182.206405 -243.686337 
L 177.007648 -238.80682 
L 171.80889 -233.679464 
L 166.610132 -227.595824 
L 161.411374 -220.861605 
L 156.212616 -213.638555 
L 151.013859 -206.230295 
L 145.815101 -198.033482 
L 140.616343 -189.225084 
L 135.417585 -180.217398 
L 130.218828 -170.482762 
L 125.02007 -160.143368 
L 119.821312 -149.11927 
L 114.622554 -137.802812 
L 109.423797 -125.927808 
L 104.225039 -113.379984 
L 99.026281 -100.646275 
L 93.827523 -88.543493 
L 88.628766 -78.039472 
L 83.430008 -70.163041 
L 78.23125 -66.927983 
z
" id="m470c3ac3b7"/>
    </defs>
    <g clip-path="url(#p2b9db5137c)">
     <use style="fill:#4db8ff;" x="0" xlink:href="#m470c3ac3b7" y="339.573438"/>
    </g>
   </g>
   <g id="PolyCollection_2">
    <defs>
     <path d="M 78.23125 -66.927983 
L 78.23125 -66.927983 
L 83.430008 -69.684703 
L 88.628766 -76.856352 
L 93.827523 -86.40454 
L 99.026281 -97.638868 
L 104.225039 -110.100723 
L 109.423797 -122.507433 
L 114.622554 -134.289089 
L 119.821312 -145.706563 
L 125.02007 -155.298553 
L 130.218828 -164.239676 
L 135.417585 -174.575488 
L 140.616343 -184.113216 
L 145.815101 -192.053203 
L 151.013859 -201.500702 
L 156.212616 -210.828364 
L 161.411374 -215.88843 
L 166.610132 -221.038993 
L 171.80889 -226.680657 
L 177.007648 -233.16909 
L 182.206405 -238.811884 
L 187.405163 -244.470027 
L 192.603921 -248.63291 
L 197.802679 -254.113503 
L 203.001436 -257.875886 
L 208.200194 -262.174662 
L 213.398952 -265.788674 
L 218.59771 -269.332487 
L 223.796467 -271.677345 
L 228.995225 -274.590346 
L 234.193983 -275.401857 
L 239.392741 -277.690843 
L 244.591498 -279.885661 
L 249.790256 -282.7894 
L 254.989014 -285.211703 
L 260.187772 -287.628394 
L 265.38653 -289.601148 
L 270.585287 -290.981873 
L 275.784045 -292.574081 
L 280.982803 -294.523416 
L 286.181561 -295.882058 
L 291.380318 -296.792043 
L 296.579076 -297.433295 
L 301.777834 -298.105137 
L 306.976592 -298.581166 
L 312.175349 -299.627448 
L 317.374107 -301.20972 
L 322.572865 -302.54971 
L 327.771623 -303.532507 
L 332.97038 -304.27494 
L 338.169138 -304.772759 
L 343.367896 -305.372011 
L 348.566654 -305.26693 
L 353.765411 -305.254653 
L 358.964169 -305.572298 
L 364.162927 -305.806465 
L 369.361685 -306.61906 
L 374.560443 -306.661212 
L 379.7592 -306.878795 
L 384.957958 -307.576848 
L 390.156716 -307.931024 
L 395.355474 -308.148337 
L 400.554231 -308.030921 
L 405.752989 -308.338773 
L 410.951747 -308.580193 
L 416.150505 -308.894176 
L 421.349262 -309.175536 
L 426.54802 -309.311095 
L 431.746778 -309.33 
L 436.945536 -309.472981 
L 436.945536 -311.460285 
L 436.945536 -311.460285 
L 431.746778 -311.358808 
L 426.54802 -311.42584 
L 421.349262 -311.417417 
L 416.150505 -311.203001 
L 410.951747 -310.90671 
L 405.752989 -310.881593 
L 400.554231 -310.708563 
L 395.355474 -310.682267 
L 390.156716 -310.614734 
L 384.957958 -310.425118 
L 379.7592 -309.955194 
L 374.560443 -309.611828 
L 369.361685 -309.719255 
L 364.162927 -309.228519 
L 358.964169 -308.965811 
L 353.765411 -308.861145 
L 348.566654 -309.021802 
L 343.367896 -309.197617 
L 338.169138 -308.735121 
L 332.97038 -308.214603 
L 327.771623 -307.779862 
L 322.572865 -306.794981 
L 317.374107 -305.337743 
L 312.175349 -304.239238 
L 306.976592 -303.229855 
L 301.777834 -302.683916 
L 296.579076 -302.099678 
L 291.380318 -301.941684 
L 286.181561 -301.071514 
L 280.982803 -299.716608 
L 275.784045 -298.208963 
L 270.585287 -296.893193 
L 265.38653 -295.734253 
L 260.187772 -293.987558 
L 254.989014 -291.838384 
L 249.790256 -289.372981 
L 244.591498 -286.721473 
L 239.392741 -284.699991 
L 234.193983 -282.973872 
L 228.995225 -282.379771 
L 223.796467 -279.704617 
L 218.59771 -277.574023 
L 213.398952 -273.859569 
L 208.200194 -270.496505 
L 203.001436 -266.556147 
L 197.802679 -262.997352 
L 192.603921 -258.011921 
L 187.405163 -253.624633 
L 182.206405 -248.425873 
L 177.007648 -243.679476 
L 171.80889 -237.19386 
L 166.610132 -231.458452 
L 161.411374 -227.218804 
L 156.212616 -221.319465 
L 151.013859 -212.219532 
L 145.815101 -202.735013 
L 140.616343 -194.755107 
L 135.417585 -185.924005 
L 130.218828 -175.061643 
L 125.02007 -166.019192 
L 119.821312 -155.33771 
L 114.622554 -144.535794 
L 109.423797 -131.70095 
L 104.225039 -118.137876 
L 99.026281 -104.282943 
L 93.827523 -91.692276 
L 88.628766 -80.20419 
L 83.430008 -71.077739 
L 78.23125 -66.927983 
z
" id="m4cc3594753"/>
    </defs>
    <g clip-path="url(#p2b9db5137c)">
     <use style="fill:#ffa035;" x="0" xlink:href="#m4cc3594753" y="339.573438"/>
    </g>
   </g>
   <g id="PolyCollection_3">
    <defs>
     <path d="M 78.23125 -66.927983 
L 78.23125 -66.927983 
L 83.430008 -69.971414 
L 88.628766 -77.843422 
L 93.827523 -87.609255 
L 99.026281 -98.259768 
L 104.225039 -109.456154 
L 109.423797 -121.030356 
L 114.622554 -133.102657 
L 119.821312 -144.711877 
L 125.02007 -154.765436 
L 130.218828 -164.678449 
L 135.417585 -174.427111 
L 140.616343 -183.71801 
L 145.815101 -192.288201 
L 151.013859 -201.576646 
L 156.212616 -210.405987 
L 161.411374 -217.382987 
L 166.610132 -223.560315 
L 171.80889 -229.928272 
L 177.007648 -235.080697 
L 182.206405 -240.966318 
L 187.405163 -246.058542 
L 192.603921 -250.111804 
L 197.802679 -254.708397 
L 203.001436 -258.743075 
L 208.200194 -262.436478 
L 213.398952 -266.31768 
L 218.59771 -269.4601 
L 223.796467 -271.700373 
L 228.995225 -274.676692 
L 234.193983 -276.160619 
L 239.392741 -277.783009 
L 244.591498 -279.605063 
L 249.790256 -282.847497 
L 254.989014 -284.654008 
L 260.187772 -286.99563 
L 265.38653 -288.784942 
L 270.585287 -290.218126 
L 275.784045 -291.797396 
L 280.982803 -293.346969 
L 286.181561 -294.955206 
L 291.380318 -295.780606 
L 296.579076 -296.560786 
L 301.777834 -297.198612 
L 306.976592 -297.552283 
L 312.175349 -298.701105 
L 317.374107 -299.993429 
L 322.572865 -301.749871 
L 327.771623 -302.450272 
L 332.97038 -303.441772 
L 338.169138 -304.016864 
L 343.367896 -304.469602 
L 348.566654 -304.368458 
L 353.765411 -304.393111 
L 358.964169 -304.525763 
L 364.162927 -304.898343 
L 369.361685 -305.575613 
L 374.560443 -305.939066 
L 379.7592 -306.011993 
L 384.957958 -306.510643 
L 390.156716 -307.030535 
L 395.355474 -307.373916 
L 400.554231 -307.437578 
L 405.752989 -307.802525 
L 410.951747 -307.903139 
L 416.150505 -308.295249 
L 421.349262 -308.633244 
L 426.54802 -308.643175 
L 431.746778 -308.623714 
L 436.945536 -308.898381 
L 436.945536 -311.991853 
L 436.945536 -311.991853 
L 431.746778 -312.015448 
L 426.54802 -311.886672 
L 421.349262 -311.944306 
L 416.150505 -311.944025 
L 410.951747 -311.395533 
L 405.752989 -311.458489 
L 400.554231 -311.302008 
L 395.355474 -311.321195 
L 390.156716 -311.245433 
L 384.957958 -311.1131 
L 379.7592 -310.692158 
L 374.560443 -310.376864 
L 369.361685 -310.327625 
L 364.162927 -309.908326 
L 358.964169 -309.432199 
L 353.765411 -309.50061 
L 348.566654 -309.665442 
L 343.367896 -309.799848 
L 338.169138 -309.53815 
L 332.97038 -309.294454 
L 327.771623 -308.864789 
L 322.572865 -307.950219 
L 317.374107 -306.628086 
L 312.175349 -305.233791 
L 306.976592 -304.275904 
L 301.777834 -303.922377 
L 296.579076 -303.48108 
L 291.380318 -303.01072 
L 286.181561 -301.944121 
L 280.982803 -300.937577 
L 275.784045 -299.358902 
L 270.585287 -297.965213 
L 265.38653 -297.768604 
L 260.187772 -295.899387 
L 254.989014 -294.065228 
L 249.790256 -291.783736 
L 244.591498 -288.963992 
L 239.392741 -287.614151 
L 234.193983 -285.622691 
L 228.995225 -284.918874 
L 223.796467 -281.850939 
L 218.59771 -279.641523 
L 213.398952 -276.617693 
L 208.200194 -273.241963 
L 203.001436 -269.357403 
L 197.802679 -264.963602 
L 192.603921 -260.475572 
L 187.405163 -256.528946 
L 182.206405 -251.721715 
L 177.007648 -246.871636 
L 171.80889 -241.475014 
L 166.610132 -234.667567 
L 161.411374 -228.424652 
L 156.212616 -222.299636 
L 151.013859 -212.482612 
L 145.815101 -204.149569 
L 140.616343 -195.155727 
L 135.417585 -186.265968 
L 130.218828 -176.100394 
L 125.02007 -166.190666 
L 119.821312 -155.37973 
L 114.622554 -143.092677 
L 109.423797 -130.46059 
L 104.225039 -117.552604 
L 99.026281 -105.041958 
L 93.827523 -92.613498 
L 88.628766 -81.195648 
L 83.430008 -71.274464 
L 78.23125 -66.927983 
z
" id="mce9894e612"/>
    </defs>
    <g clip-path="url(#p2b9db5137c)">
     <use style="fill:#47d200;" x="0" xlink:href="#mce9894e612" y="339.573438"/>
    </g>
   </g>
   <g id="matplotlib.axis_1">
    <g id="xtick_1">
     <g id="line2d_1">
      <path clip-path="url(#p2b9db5137c)" d="M 78.23125 285 
L 78.23125 13.2 
" style="fill:none;stroke:#b0b0b0;stroke-linecap:square;stroke-width:0.8;"/>
     </g>
     <g id="line2d_2">
      <defs>
       <path d="M 0 0 
L 0 6 
" id="mcaebb3250a"/>
      </defs>
      <g>
       <use x="78.23125" xlink:href="#mcaebb3250a" y="285"/>
      </g>
     </g>
     <g id="text_1">
      <!-- 0 -->
      <defs>
       <path d="M 31.78125 66.40625 
Q 24.171875 66.40625 20.328125 58.90625 
Q 16.5 51.421875 16.5 36.375 
Q 16.5 21.390625 20.328125 13.890625 
Q 24.171875 6.390625 31.78125 6.390625 
Q 39.453125 6.390625 43.28125 13.890625 
Q 47.125 21.390625 47.125 36.375 
Q 47.125 51.421875 43.28125 58.90625 
Q 39.453125 66.40625 31.78125 66.40625 
z
M 31.78125 74.21875 
Q 44.046875 74.21875 50.515625 64.515625 
Q 56.984375 54.828125 56.984375 36.375 
Q 56.984375 17.96875 50.515625 8.265625 
Q 44.046875 -1.421875 31.78125 -1.421875 
Q 19.53125 -1.421875 13.0625 8.265625 
Q 6.59375 17.96875 6.59375 36.375 
Q 6.59375 54.828125 13.0625 64.515625 
Q 19.53125 74.21875 31.78125 74.21875 
z
" id="DejaVuSans-30"/>
      </defs>
      <g transform="translate(73.459375 305.897656)scale(0.15 -0.15)">
       <use xlink:href="#DejaVuSans-30"/>
      </g>
     </g>
    </g>
    <g id="xtick_2">
     <g id="line2d_3">
      <path clip-path="url(#p2b9db5137c)" d="M 130.218828 285 
L 130.218828 13.2 
" style="fill:none;stroke:#b0b0b0;stroke-linecap:square;stroke-width:0.8;"/>
     </g>
     <g id="line2d_4">
      <g>
       <use x="130.218828" xlink:href="#mcaebb3250a" y="285"/>
      </g>
     </g>
     <g id="text_2">
      <!-- 1 -->
      <defs>
       <path d="M 12.40625 8.296875 
L 28.515625 8.296875 
L 28.515625 63.921875 
L 10.984375 60.40625 
L 10.984375 69.390625 
L 28.421875 72.90625 
L 38.28125 72.90625 
L 38.28125 8.296875 
L 54.390625 8.296875 
L 54.390625 0 
L 12.40625 0 
z
" id="DejaVuSans-31"/>
      </defs>
      <g transform="translate(125.446953 305.897656)scale(0.15 -0.15)">
       <use xlink:href="#DejaVuSans-31"/>
      </g>
     </g>
    </g>
    <g id="xtick_3">
     <g id="line2d_5">
      <path clip-path="url(#p2b9db5137c)" d="M 182.206405 285 
L 182.206405 13.2 
" style="fill:none;stroke:#b0b0b0;stroke-linecap:square;stroke-width:0.8;"/>
     </g>
     <g id="line2d_6">
      <g>
       <use x="182.206405" xlink:href="#mcaebb3250a" y="285"/>
      </g>
     </g>
     <g id="text_3">
      <!-- 2 -->
      <defs>
       <path d="M 19.1875 8.296875 
L 53.609375 8.296875 
L 53.609375 0 
L 7.328125 0 
L 7.328125 8.296875 
Q 12.9375 14.109375 22.625 23.890625 
Q 32.328125 33.6875 34.8125 36.53125 
Q 39.546875 41.84375 41.421875 45.53125 
Q 43.3125 49.21875 43.3125 52.78125 
Q 43.3125 58.59375 39.234375 62.25 
Q 35.15625 65.921875 28.609375 65.921875 
Q 23.96875 65.921875 18.8125 64.3125 
Q 13.671875 62.703125 7.8125 59.421875 
L 7.8125 69.390625 
Q 13.765625 71.78125 18.9375 73 
Q 24.125 74.21875 28.421875 74.21875 
Q 39.75 74.21875 46.484375 68.546875 
Q 53.21875 62.890625 53.21875 53.421875 
Q 53.21875 48.921875 51.53125 44.890625 
Q 49.859375 40.875 45.40625 35.40625 
Q 44.1875 33.984375 37.640625 27.21875 
Q 31.109375 20.453125 19.1875 8.296875 
z
" id="DejaVuSans-32"/>
      </defs>
      <g transform="translate(177.43453 305.897656)scale(0.15 -0.15)">
       <use xlink:href="#DejaVuSans-32"/>
      </g>
     </g>
    </g>
    <g id="xtick_4">
     <g id="line2d_7">
      <path clip-path="url(#p2b9db5137c)" d="M 234.193983 285 
L 234.193983 13.2 
" style="fill:none;stroke:#b0b0b0;stroke-linecap:square;stroke-width:0.8;"/>
     </g>
     <g id="line2d_8">
      <g>
       <use x="234.193983" xlink:href="#mcaebb3250a" y="285"/>
      </g>
     </g>
     <g id="text_4">
      <!-- 3 -->
      <defs>
       <path d="M 40.578125 39.3125 
Q 47.65625 37.796875 51.625 33 
Q 55.609375 28.21875 55.609375 21.1875 
Q 55.609375 10.40625 48.1875 4.484375 
Q 40.765625 -1.421875 27.09375 -1.421875 
Q 22.515625 -1.421875 17.65625 -0.515625 
Q 12.796875 0.390625 7.625 2.203125 
L 7.625 11.71875 
Q 11.71875 9.328125 16.59375 8.109375 
Q 21.484375 6.890625 26.8125 6.890625 
Q 36.078125 6.890625 40.9375 10.546875 
Q 45.796875 14.203125 45.796875 21.1875 
Q 45.796875 27.640625 41.28125 31.265625 
Q 36.765625 34.90625 28.71875 34.90625 
L 20.21875 34.90625 
L 20.21875 43.015625 
L 29.109375 43.015625 
Q 36.375 43.015625 40.234375 45.921875 
Q 44.09375 48.828125 44.09375 54.296875 
Q 44.09375 59.90625 40.109375 62.90625 
Q 36.140625 65.921875 28.71875 65.921875 
Q 24.65625 65.921875 20.015625 65.03125 
Q 15.375 64.15625 9.8125 62.3125 
L 9.8125 71.09375 
Q 15.4375 72.65625 20.34375 73.4375 
Q 25.25 74.21875 29.59375 74.21875 
Q 40.828125 74.21875 47.359375 69.109375 
Q 53.90625 64.015625 53.90625 55.328125 
Q 53.90625 49.265625 50.4375 45.09375 
Q 46.96875 40.921875 40.578125 39.3125 
z
" id="DejaVuSans-33"/>
      </defs>
      <g transform="translate(229.422108 305.897656)scale(0.15 -0.15)">
       <use xlink:href="#DejaVuSans-33"/>
      </g>
     </g>
    </g>
    <g id="xtick_5">
     <g id="line2d_9">
      <path clip-path="url(#p2b9db5137c)" d="M 286.181561 285 
L 286.181561 13.2 
" style="fill:none;stroke:#b0b0b0;stroke-linecap:square;stroke-width:0.8;"/>
     </g>
     <g id="line2d_10">
      <g>
       <use x="286.181561" xlink:href="#mcaebb3250a" y="285"/>
      </g>
     </g>
     <g id="text_5">
      <!-- 4 -->
      <defs>
       <path d="M 37.796875 64.3125 
L 12.890625 25.390625 
L 37.796875 25.390625 
z
M 35.203125 72.90625 
L 47.609375 72.90625 
L 47.609375 25.390625 
L 58.015625 25.390625 
L 58.015625 17.1875 
L 47.609375 17.1875 
L 47.609375 0 
L 37.796875 0 
L 37.796875 17.1875 
L 4.890625 17.1875 
L 4.890625 26.703125 
z
" id="DejaVuSans-34"/>
      </defs>
      <g transform="translate(281.409686 305.897656)scale(0.15 -0.15)">
       <use xlink:href="#DejaVuSans-34"/>
      </g>
     </g>
    </g>
    <g id="xtick_6">
     <g id="line2d_11">
      <path clip-path="url(#p2b9db5137c)" d="M 338.169138 285 
L 338.169138 13.2 
" style="fill:none;stroke:#b0b0b0;stroke-linecap:square;stroke-width:0.8;"/>
     </g>
     <g id="line2d_12">
      <g>
       <use x="338.169138" xlink:href="#mcaebb3250a" y="285"/>
      </g>
     </g>
     <g id="text_6">
      <!-- 5 -->
      <defs>
       <path d="M 10.796875 72.90625 
L 49.515625 72.90625 
L 49.515625 64.59375 
L 19.828125 64.59375 
L 19.828125 46.734375 
Q 21.96875 47.46875 24.109375 47.828125 
Q 26.265625 48.1875 28.421875 48.1875 
Q 40.625 48.1875 47.75 41.5 
Q 54.890625 34.8125 54.890625 23.390625 
Q 54.890625 11.625 47.5625 5.09375 
Q 40.234375 -1.421875 26.90625 -1.421875 
Q 22.3125 -1.421875 17.546875 -0.640625 
Q 12.796875 0.140625 7.71875 1.703125 
L 7.71875 11.625 
Q 12.109375 9.234375 16.796875 8.0625 
Q 21.484375 6.890625 26.703125 6.890625 
Q 35.15625 6.890625 40.078125 11.328125 
Q 45.015625 15.765625 45.015625 23.390625 
Q 45.015625 31 40.078125 35.4375 
Q 35.15625 39.890625 26.703125 39.890625 
Q 22.75 39.890625 18.8125 39.015625 
Q 14.890625 38.140625 10.796875 36.28125 
z
" id="DejaVuSans-35"/>
      </defs>
      <g transform="translate(333.397263 305.897656)scale(0.15 -0.15)">
       <use xlink:href="#DejaVuSans-35"/>
      </g>
     </g>
    </g>
    <g id="xtick_7">
     <g id="line2d_13">
      <path clip-path="url(#p2b9db5137c)" d="M 390.156716 285 
L 390.156716 13.2 
" style="fill:none;stroke:#b0b0b0;stroke-linecap:square;stroke-width:0.8;"/>
     </g>
     <g id="line2d_14">
      <g>
       <use x="390.156716" xlink:href="#mcaebb3250a" y="285"/>
      </g>
     </g>
     <g id="text_7">
      <!-- 6 -->
      <defs>
       <path d="M 33.015625 40.375 
Q 26.375 40.375 22.484375 35.828125 
Q 18.609375 31.296875 18.609375 23.390625 
Q 18.609375 15.53125 22.484375 10.953125 
Q 26.375 6.390625 33.015625 6.390625 
Q 39.65625 6.390625 43.53125 10.953125 
Q 47.40625 15.53125 47.40625 23.390625 
Q 47.40625 31.296875 43.53125 35.828125 
Q 39.65625 40.375 33.015625 40.375 
z
M 52.59375 71.296875 
L 52.59375 62.3125 
Q 48.875 64.0625 45.09375 64.984375 
Q 41.3125 65.921875 37.59375 65.921875 
Q 27.828125 65.921875 22.671875 59.328125 
Q 17.53125 52.734375 16.796875 39.40625 
Q 19.671875 43.65625 24.015625 45.921875 
Q 28.375 48.1875 33.59375 48.1875 
Q 44.578125 48.1875 50.953125 41.515625 
Q 57.328125 34.859375 57.328125 23.390625 
Q 57.328125 12.15625 50.6875 5.359375 
Q 44.046875 -1.421875 33.015625 -1.421875 
Q 20.359375 -1.421875 13.671875 8.265625 
Q 6.984375 17.96875 6.984375 36.375 
Q 6.984375 53.65625 15.1875 63.9375 
Q 23.390625 74.21875 37.203125 74.21875 
Q 40.921875 74.21875 44.703125 73.484375 
Q 48.484375 72.75 52.59375 71.296875 
z
" id="DejaVuSans-36"/>
      </defs>
      <g transform="translate(385.384841 305.897656)scale(0.15 -0.15)">
       <use xlink:href="#DejaVuSans-36"/>
      </g>
     </g>
    </g>
    <g id="xtick_8">
     <g id="line2d_15">
      <path clip-path="url(#p2b9db5137c)" d="M 442.144293 285 
L 442.144293 13.2 
" style="fill:none;stroke:#b0b0b0;stroke-linecap:square;stroke-width:0.8;"/>
     </g>
     <g id="line2d_16">
      <g>
       <use x="442.144293" xlink:href="#mcaebb3250a" y="285"/>
      </g>
     </g>
     <g id="text_8">
      <!-- 7 -->
      <defs>
       <path d="M 8.203125 72.90625 
L 55.078125 72.90625 
L 55.078125 68.703125 
L 28.609375 0 
L 18.3125 0 
L 43.21875 64.59375 
L 8.203125 64.59375 
z
" id="DejaVuSans-37"/>
      </defs>
      <g transform="translate(437.372418 305.897656)scale(0.15 -0.15)">
       <use xlink:href="#DejaVuSans-37"/>
      </g>
     </g>
    </g>
    <g id="text_9">
     <!-- $t/\tau$ -->
     <defs>
      <path d="M 42.28125 54.6875 
L 40.921875 47.703125 
L 23 47.703125 
L 17.1875 18.015625 
Q 16.890625 16.359375 16.75 15.234375 
Q 16.609375 14.109375 16.609375 13.484375 
Q 16.609375 10.359375 18.484375 8.9375 
Q 20.359375 7.515625 24.515625 7.515625 
L 33.59375 7.515625 
L 32.078125 0 
L 23.484375 0 
Q 15.484375 0 11.546875 3.125 
Q 7.625 6.25 7.625 12.59375 
Q 7.625 13.71875 7.765625 15.0625 
Q 7.90625 16.40625 8.203125 18.015625 
L 14.015625 47.703125 
L 6.390625 47.703125 
L 7.8125 54.6875 
L 15.28125 54.6875 
L 18.3125 70.21875 
L 27.296875 70.21875 
L 24.3125 54.6875 
z
" id="DejaVuSans-Oblique-74"/>
      <path d="M 25.390625 72.90625 
L 33.6875 72.90625 
L 8.296875 -9.28125 
L 0 -9.28125 
z
" id="DejaVuSans-2f"/>
      <path d="M 32.859375 9.96875 
Q 34.1875 7.625 39.453125 7.625 
L 43.75 7.625 
L 42.28125 0 
L 36.921875 0 
Q 28.125 0 25 4.6875 
Q 21.921875 9.46875 23.96875 19.828125 
L 29 45.703125 
L 8.453125 45.703125 
L 10.203125 54.6875 
L 60.640625 54.6875 
L 58.890625 45.703125 
L 38.1875 45.703125 
L 33.015625 19.28125 
Q 31.640625 12.203125 32.859375 9.96875 
z
" id="DejaVuSans-Oblique-3c4"/>
     </defs>
     <g transform="translate(246.787772 328.214063)scale(0.2 -0.2)">
      <use transform="translate(0 0.09375)" xlink:href="#DejaVuSans-Oblique-74"/>
      <use transform="translate(39.208984 0.09375)" xlink:href="#DejaVuSans-2f"/>
      <use transform="translate(72.900391 0.09375)" xlink:href="#DejaVuSans-Oblique-3c4"/>
     </g>
    </g>
   </g>
   <g id="matplotlib.axis_2">
    <g id="ytick_1">
     <g id="line2d_17">
      <path clip-path="url(#p2b9db5137c)" d="M 78.23125 272.645455 
L 442.144293 272.645455 
" style="fill:none;stroke:#b0b0b0;stroke-linecap:square;stroke-width:0.8;"/>
     </g>
     <g id="line2d_18">
      <defs>
       <path d="M 0 0 
L -6 0 
" id="m93b80103d9"/>
      </defs>
      <g>
       <use x="78.23125" xlink:href="#m93b80103d9" y="272.645455"/>
      </g>
     </g>
     <g id="text_10">
      <!-- 500 -->
      <g transform="translate(40.1 278.344283)scale(0.15 -0.15)">
       <use xlink:href="#DejaVuSans-35"/>
       <use x="63.623047" xlink:href="#DejaVuSans-30"/>
       <use x="127.246094" xlink:href="#DejaVuSans-30"/>
      </g>
     </g>
    </g>
    <g id="ytick_2">
     <g id="line2d_19">
      <path clip-path="url(#p2b9db5137c)" d="M 78.23125 223.630569 
L 442.144293 223.630569 
" style="fill:none;stroke:#b0b0b0;stroke-linecap:square;stroke-width:0.8;"/>
     </g>
     <g id="line2d_20">
      <g>
       <use x="78.23125" xlink:href="#m93b80103d9" y="223.630569"/>
      </g>
     </g>
     <g id="text_11">
      <!-- 600 -->
      <g transform="translate(40.1 229.329397)scale(0.15 -0.15)">
       <use xlink:href="#DejaVuSans-36"/>
       <use x="63.623047" xlink:href="#DejaVuSans-30"/>
       <use x="127.246094" xlink:href="#DejaVuSans-30"/>
      </g>
     </g>
    </g>
    <g id="ytick_3">
     <g id="line2d_21">
      <path clip-path="url(#p2b9db5137c)" d="M 78.23125 174.615683 
L 442.144293 174.615683 
" style="fill:none;stroke:#b0b0b0;stroke-linecap:square;stroke-width:0.8;"/>
     </g>
     <g id="line2d_22">
      <g>
       <use x="78.23125" xlink:href="#m93b80103d9" y="174.615683"/>
      </g>
     </g>
     <g id="text_12">
      <!-- 700 -->
      <g transform="translate(40.1 180.314511)scale(0.15 -0.15)">
       <use xlink:href="#DejaVuSans-37"/>
       <use x="63.623047" xlink:href="#DejaVuSans-30"/>
       <use x="127.246094" xlink:href="#DejaVuSans-30"/>
      </g>
     </g>
    </g>
    <g id="ytick_4">
     <g id="line2d_23">
      <path clip-path="url(#p2b9db5137c)" d="M 78.23125 125.600797 
L 442.144293 125.600797 
" style="fill:none;stroke:#b0b0b0;stroke-linecap:square;stroke-width:0.8;"/>
     </g>
     <g id="line2d_24">
      <g>
       <use x="78.23125" xlink:href="#m93b80103d9" y="125.600797"/>
      </g>
     </g>
     <g id="text_13">
      <!-- 800 -->
      <defs>
       <path d="M 31.78125 34.625 
Q 24.75 34.625 20.71875 30.859375 
Q 16.703125 27.09375 16.703125 20.515625 
Q 16.703125 13.921875 20.71875 10.15625 
Q 24.75 6.390625 31.78125 6.390625 
Q 38.8125 6.390625 42.859375 10.171875 
Q 46.921875 13.96875 46.921875 20.515625 
Q 46.921875 27.09375 42.890625 30.859375 
Q 38.875 34.625 31.78125 34.625 
z
M 21.921875 38.8125 
Q 15.578125 40.375 12.03125 44.71875 
Q 8.5 49.078125 8.5 55.328125 
Q 8.5 64.0625 14.71875 69.140625 
Q 20.953125 74.21875 31.78125 74.21875 
Q 42.671875 74.21875 48.875 69.140625 
Q 55.078125 64.0625 55.078125 55.328125 
Q 55.078125 49.078125 51.53125 44.71875 
Q 48 40.375 41.703125 38.8125 
Q 48.828125 37.15625 52.796875 32.3125 
Q 56.78125 27.484375 56.78125 20.515625 
Q 56.78125 9.90625 50.3125 4.234375 
Q 43.84375 -1.421875 31.78125 -1.421875 
Q 19.734375 -1.421875 13.25 4.234375 
Q 6.78125 9.90625 6.78125 20.515625 
Q 6.78125 27.484375 10.78125 32.3125 
Q 14.796875 37.15625 21.921875 38.8125 
z
M 18.3125 54.390625 
Q 18.3125 48.734375 21.84375 45.5625 
Q 25.390625 42.390625 31.78125 42.390625 
Q 38.140625 42.390625 41.71875 45.5625 
Q 45.3125 48.734375 45.3125 54.390625 
Q 45.3125 60.0625 41.71875 63.234375 
Q 38.140625 66.40625 31.78125 66.40625 
Q 25.390625 66.40625 21.84375 63.234375 
Q 18.3125 60.0625 18.3125 54.390625 
z
" id="DejaVuSans-38"/>
      </defs>
      <g transform="translate(40.1 131.299625)scale(0.15 -0.15)">
       <use xlink:href="#DejaVuSans-38"/>
       <use x="63.623047" xlink:href="#DejaVuSans-30"/>
       <use x="127.246094" xlink:href="#DejaVuSans-30"/>
      </g>
     </g>
    </g>
    <g id="ytick_5">
     <g id="line2d_25">
      <path clip-path="url(#p2b9db5137c)" d="M 78.23125 76.585911 
L 442.144293 76.585911 
" style="fill:none;stroke:#b0b0b0;stroke-linecap:square;stroke-width:0.8;"/>
     </g>
     <g id="line2d_26">
      <g>
       <use x="78.23125" xlink:href="#m93b80103d9" y="76.585911"/>
      </g>
     </g>
     <g id="text_14">
      <!-- 900 -->
      <defs>
       <path d="M 10.984375 1.515625 
L 10.984375 10.5 
Q 14.703125 8.734375 18.5 7.8125 
Q 22.3125 6.890625 25.984375 6.890625 
Q 35.75 6.890625 40.890625 13.453125 
Q 46.046875 20.015625 46.78125 33.40625 
Q 43.953125 29.203125 39.59375 26.953125 
Q 35.25 24.703125 29.984375 24.703125 
Q 19.046875 24.703125 12.671875 31.3125 
Q 6.296875 37.9375 6.296875 49.421875 
Q 6.296875 60.640625 12.9375 67.421875 
Q 19.578125 74.21875 30.609375 74.21875 
Q 43.265625 74.21875 49.921875 64.515625 
Q 56.59375 54.828125 56.59375 36.375 
Q 56.59375 19.140625 48.40625 8.859375 
Q 40.234375 -1.421875 26.421875 -1.421875 
Q 22.703125 -1.421875 18.890625 -0.6875 
Q 15.09375 0.046875 10.984375 1.515625 
z
M 30.609375 32.421875 
Q 37.25 32.421875 41.125 36.953125 
Q 45.015625 41.5 45.015625 49.421875 
Q 45.015625 57.28125 41.125 61.84375 
Q 37.25 66.40625 30.609375 66.40625 
Q 23.96875 66.40625 20.09375 61.84375 
Q 16.21875 57.28125 16.21875 49.421875 
Q 16.21875 41.5 20.09375 36.953125 
Q 23.96875 32.421875 30.609375 32.421875 
z
" id="DejaVuSans-39"/>
      </defs>
      <g transform="translate(40.1 82.284739)scale(0.15 -0.15)">
       <use xlink:href="#DejaVuSans-39"/>
       <use x="63.623047" xlink:href="#DejaVuSans-30"/>
       <use x="127.246094" xlink:href="#DejaVuSans-30"/>
      </g>
     </g>
    </g>
    <g id="ytick_6">
     <g id="line2d_27">
      <path clip-path="url(#p2b9db5137c)" d="M 78.23125 27.571025 
L 442.144293 27.571025 
" style="fill:none;stroke:#b0b0b0;stroke-linecap:square;stroke-width:0.8;"/>
     </g>
     <g id="line2d_28">
      <g>
       <use x="78.23125" xlink:href="#m93b80103d9" y="27.571025"/>
      </g>
     </g>
     <g id="text_15">
      <!-- 1000 -->
      <g transform="translate(30.55625 33.269853)scale(0.15 -0.15)">
       <use xlink:href="#DejaVuSans-31"/>
       <use x="63.623047" xlink:href="#DejaVuSans-30"/>
       <use x="127.246094" xlink:href="#DejaVuSans-30"/>
       <use x="190.869141" xlink:href="#DejaVuSans-30"/>
      </g>
     </g>
    </g>
    <g id="text_16">
     <!-- $p$ -->
     <defs>
      <path d="M 49.609375 33.6875 
Q 49.609375 40.875 46.484375 44.671875 
Q 43.359375 48.484375 37.5 48.484375 
Q 33.5 48.484375 29.859375 46.4375 
Q 26.21875 44.390625 23.390625 40.484375 
Q 20.609375 36.625 18.9375 31.15625 
Q 17.28125 25.6875 17.28125 20.3125 
Q 17.28125 13.484375 20.40625 9.796875 
Q 23.53125 6.109375 29.296875 6.109375 
Q 33.546875 6.109375 37.1875 8.109375 
Q 40.828125 10.109375 43.40625 13.921875 
Q 46.1875 17.921875 47.890625 23.34375 
Q 49.609375 28.765625 49.609375 33.6875 
z
M 21.78125 46.390625 
Q 25.390625 51.125 30.296875 53.5625 
Q 35.203125 56 41.21875 56 
Q 49.609375 56 54.25 50.5 
Q 58.890625 45.015625 58.890625 35.109375 
Q 58.890625 27 56 19.65625 
Q 53.125 12.3125 47.703125 6.5 
Q 44.09375 2.640625 39.546875 0.609375 
Q 35.015625 -1.421875 29.984375 -1.421875 
Q 24.171875 -1.421875 20.21875 1 
Q 16.265625 3.421875 14.3125 8.203125 
L 8.6875 -20.796875 
L -0.296875 -20.796875 
L 14.40625 54.6875 
L 23.390625 54.6875 
z
" id="DejaVuSans-Oblique-70"/>
     </defs>
     <g transform="translate(22.35625 155.5)rotate(-90)scale(0.2 -0.2)">
      <use xlink:href="#DejaVuSans-Oblique-70"/>
     </g>
    </g>
   </g>
   <g id="line2d_29">
    <path clip-path="url(#p2b9db5137c)" d="M 78.23125 272.645455 
L 83.430008 269.619936 
L 88.628766 262.053359 
L 93.827523 251.882341 
L 99.026281 240.073789 
L 104.225039 227.622972 
L 109.423797 215.35347 
L 114.622554 203.606315 
L 119.821312 192.467829 
L 125.02007 181.625974 
L 130.218828 171.387412 
L 135.417585 161.718018 
L 140.616343 152.756211 
L 145.815101 144.124805 
L 151.013859 136.100619 
L 156.212616 128.701652 
L 161.411374 121.558905 
L 166.610132 114.934527 
L 171.80889 108.954456 
L 177.007648 103.831429 
L 182.206405 98.962163 
L 187.405163 94.693512 
L 192.603921 90.996533 
L 197.802679 87.344075 
L 203.001436 83.391255 
L 208.200194 79.43201 
L 213.398952 75.592274 
L 218.59771 71.960589 
L 223.796467 68.736372 
L 228.995225 65.868118 
L 234.193983 63.407643 
L 239.392741 61.195671 
L 244.591498 59.279182 
L 249.790256 57.577479 
L 254.989014 56.178161 
L 260.187772 54.7853 
L 265.38653 53.008633 
L 270.585287 51.245389 
L 275.784045 49.468753 
L 280.982803 47.875132 
L 286.181561 46.768814 
L 291.380318 45.754034 
L 296.579076 44.758515 
L 301.777834 43.656936 
L 306.976592 42.628092 
L 312.175349 41.917818 
L 317.374107 41.338691 
L 322.572865 40.990396 
L 327.771623 40.295006 
L 332.97038 39.438115 
L 338.169138 38.746277 
L 343.367896 37.895846 
L 348.566654 37.403115 
L 353.765411 37.268959 
L 358.964169 36.882912 
L 364.162927 36.234784 
L 369.361685 35.584721 
L 374.560443 34.982314 
L 379.7592 34.466742 
L 384.957958 34.034757 
L 390.156716 33.636218 
L 395.355474 33.037706 
L 400.554231 32.406094 
L 405.752989 31.849081 
L 410.951747 31.3622 
L 416.150505 30.551733 
L 421.349262 29.963895 
L 426.54802 29.524031 
L 431.746778 29.050326 
L 436.945536 28.537025 
" style="fill:none;stroke:#1f77b4;stroke-linecap:square;stroke-width:3;"/>
   </g>
   <g id="line2d_30">
    <path clip-path="url(#p2b9db5137c)" d="M 78.23125 272.645455 
L 83.430008 269.192216 
L 88.628766 261.043167 
L 93.827523 250.525029 
L 99.026281 238.612532 
L 104.225039 225.454138 
L 109.423797 212.469246 
L 114.622554 200.160996 
L 119.821312 189.051301 
L 125.02007 178.914565 
L 130.218828 169.922778 
L 135.417585 159.323691 
L 140.616343 150.139276 
L 145.815101 142.179329 
L 151.013859 132.713321 
L 156.212616 123.499523 
L 161.411374 118.01982 
L 166.610132 113.324715 
L 171.80889 107.636179 
L 177.007648 101.149154 
L 182.206405 95.954559 
L 187.405163 90.526107 
L 192.603921 86.251022 
L 197.802679 81.01801 
L 203.001436 77.357421 
L 208.200194 73.237854 
L 213.398952 69.749316 
L 218.59771 66.120182 
L 223.796467 63.882456 
L 228.995225 61.088379 
L 234.193983 60.385573 
L 239.392741 58.37802 
L 244.591498 56.269871 
L 249.790256 53.492247 
L 254.989014 51.048394 
L 260.187772 48.765462 
L 265.38653 46.905737 
L 270.585287 45.635904 
L 275.784045 44.181916 
L 280.982803 42.453426 
L 286.181561 41.096651 
L 291.380318 40.206574 
L 296.579076 39.806951 
L 301.777834 39.178911 
L 306.976592 38.667927 
L 312.175349 37.640095 
L 317.374107 36.299706 
L 322.572865 34.901092 
L 327.771623 33.917253 
L 332.97038 33.328666 
L 338.169138 32.819498 
L 343.367896 32.288623 
L 348.566654 32.429071 
L 353.765411 32.515539 
L 358.964169 32.304383 
L 364.162927 32.055946 
L 369.361685 31.40428 
L 374.560443 31.436918 
L 379.7592 31.156443 
L 384.957958 30.572455 
L 390.156716 30.300558 
L 395.355474 30.158136 
L 400.554231 30.203695 
L 405.752989 29.963255 
L 410.951747 29.829986 
L 416.150505 29.524849 
L 421.349262 29.276961 
L 426.54802 29.20497 
L 431.746778 29.229033 
L 436.945536 29.106804 
" style="fill:none;stroke:#ff7f0e;stroke-linecap:square;stroke-width:3;"/>
   </g>
   <g id="line2d_31">
    <path clip-path="url(#p2b9db5137c)" d="M 78.23125 272.645455 
L 83.430008 268.950499 
L 88.628766 260.053903 
L 93.827523 249.462061 
L 99.026281 237.922575 
L 104.225039 226.069058 
L 109.423797 213.827965 
L 114.622554 201.47577 
L 119.821312 189.527634 
L 125.02007 179.095387 
L 130.218828 169.184016 
L 135.417585 159.226898 
L 140.616343 150.136569 
L 145.815101 141.354553 
L 151.013859 132.543809 
L 156.212616 123.220626 
L 161.411374 116.669618 
L 166.610132 110.459497 
L 171.80889 103.871794 
L 177.007648 98.597271 
L 182.206405 93.229421 
L 187.405163 88.279693 
L 192.603921 84.279749 
L 197.802679 79.737438 
L 203.001436 75.523198 
L 208.200194 71.734217 
L 213.398952 68.105751 
L 218.59771 65.022626 
L 223.796467 62.797782 
L 228.995225 59.775655 
L 234.193983 58.681782 
L 239.392741 56.874857 
L 244.591498 55.28891 
L 249.790256 52.257821 
L 254.989014 50.213819 
L 260.187772 48.125929 
L 265.38653 46.296664 
L 270.585287 45.481768 
L 275.784045 43.995289 
L 280.982803 42.431164 
L 286.181561 41.123774 
L 291.380318 40.177775 
L 296.579076 39.552505 
L 301.777834 39.012943 
L 306.976592 38.659344 
L 312.175349 37.605989 
L 317.374107 36.26268 
L 322.572865 34.723393 
L 327.771623 33.915907 
L 332.97038 33.205324 
L 338.169138 32.79593 
L 343.367896 32.438712 
L 348.566654 32.556487 
L 353.765411 32.626577 
L 358.964169 32.594457 
L 364.162927 32.170103 
L 369.361685 31.621819 
L 374.560443 31.415473 
L 379.7592 31.221362 
L 384.957958 30.761566 
L 390.156716 30.435454 
L 395.355474 30.225882 
L 400.554231 30.203645 
L 405.752989 29.94293 
L 410.951747 29.924102 
L 416.150505 29.453801 
L 421.349262 29.284662 
L 426.54802 29.308514 
L 431.746778 29.253857 
L 436.945536 29.12832 
" style="fill:none;stroke:#2ca02c;stroke-linecap:square;stroke-width:3;"/>
   </g>
   <g id="patch_3">
    <path d="M 78.23125 285 
L 78.23125 13.2 
" style="fill:none;stroke:#000000;stroke-linecap:square;stroke-linejoin:miter;stroke-width:2;"/>
   </g>
   <g id="patch_4">
    <path d="M 442.144293 285 
L 442.144293 13.2 
" style="fill:none;"/>
   </g>
   <g id="patch_5">
    <path d="M 78.23125 285 
L 442.144293 285 
" style="fill:none;stroke:#000000;stroke-linecap:square;stroke-linejoin:miter;stroke-width:2;"/>
   </g>
   <g id="patch_6">
    <path d="M 78.23125 13.2 
L 442.144293 13.2 
" style="fill:none;"/>
   </g>
   <g id="legend_1">
    <g id="patch_7">
     <path d="M 221.60445 277.5 
L 431.644293 277.5 
Q 434.644293 277.5 434.644293 274.5 
L 434.644293 209.948438 
Q 434.644293 206.948438 431.644293 206.948438 
L 221.60445 206.948438 
Q 218.60445 206.948438 218.60445 209.948438 
L 218.60445 274.5 
Q 218.60445 277.5 221.60445 277.5 
z
" style="fill:#ffffff;opacity:0.8;stroke:#cccccc;stroke-linejoin:miter;"/>
    </g>
    <g id="line2d_32">
     <path d="M 224.60445 219.096094 
L 254.60445 219.096094 
" style="fill:none;stroke:#1f77b4;stroke-linecap:square;stroke-width:3;"/>
    </g>
    <g id="line2d_33"/>
    <g id="text_17">
     <!-- Single Lineage -->
     <defs>
      <path d="M 53.515625 70.515625 
L 53.515625 60.890625 
Q 47.90625 63.578125 42.921875 64.890625 
Q 37.9375 66.21875 33.296875 66.21875 
Q 25.25 66.21875 20.875 63.09375 
Q 16.5 59.96875 16.5 54.203125 
Q 16.5 49.359375 19.40625 46.890625 
Q 22.3125 44.4375 30.421875 42.921875 
L 36.375 41.703125 
Q 47.40625 39.59375 52.65625 34.296875 
Q 57.90625 29 57.90625 20.125 
Q 57.90625 9.515625 50.796875 4.046875 
Q 43.703125 -1.421875 29.984375 -1.421875 
Q 24.8125 -1.421875 18.96875 -0.25 
Q 13.140625 0.921875 6.890625 3.21875 
L 6.890625 13.375 
Q 12.890625 10.015625 18.65625 8.296875 
Q 24.421875 6.59375 29.984375 6.59375 
Q 38.421875 6.59375 43.015625 9.90625 
Q 47.609375 13.234375 47.609375 19.390625 
Q 47.609375 24.75 44.3125 27.78125 
Q 41.015625 30.8125 33.5 32.328125 
L 27.484375 33.5 
Q 16.453125 35.6875 11.515625 40.375 
Q 6.59375 45.0625 6.59375 53.421875 
Q 6.59375 63.09375 13.40625 68.65625 
Q 20.21875 74.21875 32.171875 74.21875 
Q 37.3125 74.21875 42.625 73.28125 
Q 47.953125 72.359375 53.515625 70.515625 
z
" id="DejaVuSans-53"/>
      <path d="M 9.421875 54.6875 
L 18.40625 54.6875 
L 18.40625 0 
L 9.421875 0 
z
M 9.421875 75.984375 
L 18.40625 75.984375 
L 18.40625 64.59375 
L 9.421875 64.59375 
z
" id="DejaVuSans-69"/>
      <path d="M 54.890625 33.015625 
L 54.890625 0 
L 45.90625 0 
L 45.90625 32.71875 
Q 45.90625 40.484375 42.875 44.328125 
Q 39.84375 48.1875 33.796875 48.1875 
Q 26.515625 48.1875 22.3125 43.546875 
Q 18.109375 38.921875 18.109375 30.90625 
L 18.109375 0 
L 9.078125 0 
L 9.078125 54.6875 
L 18.109375 54.6875 
L 18.109375 46.1875 
Q 21.34375 51.125 25.703125 53.5625 
Q 30.078125 56 35.796875 56 
Q 45.21875 56 50.046875 50.171875 
Q 54.890625 44.34375 54.890625 33.015625 
z
" id="DejaVuSans-6e"/>
      <path d="M 45.40625 27.984375 
Q 45.40625 37.75 41.375 43.109375 
Q 37.359375 48.484375 30.078125 48.484375 
Q 22.859375 48.484375 18.828125 43.109375 
Q 14.796875 37.75 14.796875 27.984375 
Q 14.796875 18.265625 18.828125 12.890625 
Q 22.859375 7.515625 30.078125 7.515625 
Q 37.359375 7.515625 41.375 12.890625 
Q 45.40625 18.265625 45.40625 27.984375 
z
M 54.390625 6.78125 
Q 54.390625 -7.171875 48.1875 -13.984375 
Q 42 -20.796875 29.203125 -20.796875 
Q 24.46875 -20.796875 20.265625 -20.09375 
Q 16.0625 -19.390625 12.109375 -17.921875 
L 12.109375 -9.1875 
Q 16.0625 -11.328125 19.921875 -12.34375 
Q 23.78125 -13.375 27.78125 -13.375 
Q 36.625 -13.375 41.015625 -8.765625 
Q 45.40625 -4.15625 45.40625 5.171875 
L 45.40625 9.625 
Q 42.625 4.78125 38.28125 2.390625 
Q 33.9375 0 27.875 0 
Q 17.828125 0 11.671875 7.65625 
Q 5.515625 15.328125 5.515625 27.984375 
Q 5.515625 40.671875 11.671875 48.328125 
Q 17.828125 56 27.875 56 
Q 33.9375 56 38.28125 53.609375 
Q 42.625 51.21875 45.40625 46.390625 
L 45.40625 54.6875 
L 54.390625 54.6875 
z
" id="DejaVuSans-67"/>
      <path d="M 9.421875 75.984375 
L 18.40625 75.984375 
L 18.40625 0 
L 9.421875 0 
z
" id="DejaVuSans-6c"/>
      <path d="M 56.203125 29.59375 
L 56.203125 25.203125 
L 14.890625 25.203125 
Q 15.484375 15.921875 20.484375 11.0625 
Q 25.484375 6.203125 34.421875 6.203125 
Q 39.59375 6.203125 44.453125 7.46875 
Q 49.3125 8.734375 54.109375 11.28125 
L 54.109375 2.78125 
Q 49.265625 0.734375 44.1875 -0.34375 
Q 39.109375 -1.421875 33.890625 -1.421875 
Q 20.796875 -1.421875 13.15625 6.1875 
Q 5.515625 13.8125 5.515625 26.8125 
Q 5.515625 40.234375 12.765625 48.109375 
Q 20.015625 56 32.328125 56 
Q 43.359375 56 49.78125 48.890625 
Q 56.203125 41.796875 56.203125 29.59375 
z
M 47.21875 32.234375 
Q 47.125 39.59375 43.09375 43.984375 
Q 39.0625 48.390625 32.421875 48.390625 
Q 24.90625 48.390625 20.390625 44.140625 
Q 15.875 39.890625 15.1875 32.171875 
z
" id="DejaVuSans-65"/>
      <path id="DejaVuSans-20"/>
      <path d="M 9.8125 72.90625 
L 19.671875 72.90625 
L 19.671875 8.296875 
L 55.171875 8.296875 
L 55.171875 0 
L 9.8125 0 
z
" id="DejaVuSans-4c"/>
      <path d="M 34.28125 27.484375 
Q 23.390625 27.484375 19.1875 25 
Q 14.984375 22.515625 14.984375 16.5 
Q 14.984375 11.71875 18.140625 8.90625 
Q 21.296875 6.109375 26.703125 6.109375 
Q 34.1875 6.109375 38.703125 11.40625 
Q 43.21875 16.703125 43.21875 25.484375 
L 43.21875 27.484375 
z
M 52.203125 31.203125 
L 52.203125 0 
L 43.21875 0 
L 43.21875 8.296875 
Q 40.140625 3.328125 35.546875 0.953125 
Q 30.953125 -1.421875 24.3125 -1.421875 
Q 15.921875 -1.421875 10.953125 3.296875 
Q 6 8.015625 6 15.921875 
Q 6 25.140625 12.171875 29.828125 
Q 18.359375 34.515625 30.609375 34.515625 
L 43.21875 34.515625 
L 43.21875 35.40625 
Q 43.21875 41.609375 39.140625 45 
Q 35.0625 48.390625 27.6875 48.390625 
Q 23 48.390625 18.546875 47.265625 
Q 14.109375 46.140625 10.015625 43.890625 
L 10.015625 52.203125 
Q 14.9375 54.109375 19.578125 55.046875 
Q 24.21875 56 28.609375 56 
Q 40.484375 56 46.34375 49.84375 
Q 52.203125 43.703125 52.203125 31.203125 
z
" id="DejaVuSans-61"/>
     </defs>
     <g transform="translate(266.60445 224.346094)scale(0.15 -0.15)">
      <use xlink:href="#DejaVuSans-53"/>
      <use x="63.476562" xlink:href="#DejaVuSans-69"/>
      <use x="91.259766" xlink:href="#DejaVuSans-6e"/>
      <use x="154.638672" xlink:href="#DejaVuSans-67"/>
      <use x="218.115234" xlink:href="#DejaVuSans-6c"/>
      <use x="245.898438" xlink:href="#DejaVuSans-65"/>
      <use x="307.421875" xlink:href="#DejaVuSans-20"/>
      <use x="339.208984" xlink:href="#DejaVuSans-4c"/>
      <use x="394.921875" xlink:href="#DejaVuSans-69"/>
      <use x="422.705078" xlink:href="#DejaVuSans-6e"/>
      <use x="486.083984" xlink:href="#DejaVuSans-65"/>
      <use x="547.607422" xlink:href="#DejaVuSans-61"/>
      <use x="608.886719" xlink:href="#DejaVuSans-67"/>
      <use x="672.363281" xlink:href="#DejaVuSans-65"/>
     </g>
    </g>
    <g id="line2d_34">
     <path d="M 224.60445 241.113281 
L 254.60445 241.113281 
" style="fill:none;stroke:#ff7f0e;stroke-linecap:square;stroke-width:3;"/>
    </g>
    <g id="line2d_35"/>
    <g id="text_18">
     <!-- Population Snapshots -->
     <defs>
      <path d="M 19.671875 64.796875 
L 19.671875 37.40625 
L 32.078125 37.40625 
Q 38.96875 37.40625 42.71875 40.96875 
Q 46.484375 44.53125 46.484375 51.125 
Q 46.484375 57.671875 42.71875 61.234375 
Q 38.96875 64.796875 32.078125 64.796875 
z
M 9.8125 72.90625 
L 32.078125 72.90625 
Q 44.34375 72.90625 50.609375 67.359375 
Q 56.890625 61.8125 56.890625 51.125 
Q 56.890625 40.328125 50.609375 34.8125 
Q 44.34375 29.296875 32.078125 29.296875 
L 19.671875 29.296875 
L 19.671875 0 
L 9.8125 0 
z
" id="DejaVuSans-50"/>
      <path d="M 30.609375 48.390625 
Q 23.390625 48.390625 19.1875 42.75 
Q 14.984375 37.109375 14.984375 27.296875 
Q 14.984375 17.484375 19.15625 11.84375 
Q 23.34375 6.203125 30.609375 6.203125 
Q 37.796875 6.203125 41.984375 11.859375 
Q 46.1875 17.53125 46.1875 27.296875 
Q 46.1875 37.015625 41.984375 42.703125 
Q 37.796875 48.390625 30.609375 48.390625 
z
M 30.609375 56 
Q 42.328125 56 49.015625 48.375 
Q 55.71875 40.765625 55.71875 27.296875 
Q 55.71875 13.875 49.015625 6.21875 
Q 42.328125 -1.421875 30.609375 -1.421875 
Q 18.84375 -1.421875 12.171875 6.21875 
Q 5.515625 13.875 5.515625 27.296875 
Q 5.515625 40.765625 12.171875 48.375 
Q 18.84375 56 30.609375 56 
z
" id="DejaVuSans-6f"/>
      <path d="M 18.109375 8.203125 
L 18.109375 -20.796875 
L 9.078125 -20.796875 
L 9.078125 54.6875 
L 18.109375 54.6875 
L 18.109375 46.390625 
Q 20.953125 51.265625 25.265625 53.625 
Q 29.59375 56 35.59375 56 
Q 45.5625 56 51.78125 48.09375 
Q 58.015625 40.1875 58.015625 27.296875 
Q 58.015625 14.40625 51.78125 6.484375 
Q 45.5625 -1.421875 35.59375 -1.421875 
Q 29.59375 -1.421875 25.265625 0.953125 
Q 20.953125 3.328125 18.109375 8.203125 
z
M 48.6875 27.296875 
Q 48.6875 37.203125 44.609375 42.84375 
Q 40.53125 48.484375 33.40625 48.484375 
Q 26.265625 48.484375 22.1875 42.84375 
Q 18.109375 37.203125 18.109375 27.296875 
Q 18.109375 17.390625 22.1875 11.75 
Q 26.265625 6.109375 33.40625 6.109375 
Q 40.53125 6.109375 44.609375 11.75 
Q 48.6875 17.390625 48.6875 27.296875 
z
" id="DejaVuSans-70"/>
      <path d="M 8.5 21.578125 
L 8.5 54.6875 
L 17.484375 54.6875 
L 17.484375 21.921875 
Q 17.484375 14.15625 20.5 10.265625 
Q 23.53125 6.390625 29.59375 6.390625 
Q 36.859375 6.390625 41.078125 11.03125 
Q 45.3125 15.671875 45.3125 23.6875 
L 45.3125 54.6875 
L 54.296875 54.6875 
L 54.296875 0 
L 45.3125 0 
L 45.3125 8.40625 
Q 42.046875 3.421875 37.71875 1 
Q 33.40625 -1.421875 27.6875 -1.421875 
Q 18.265625 -1.421875 13.375 4.4375 
Q 8.5 10.296875 8.5 21.578125 
z
M 31.109375 56 
z
" id="DejaVuSans-75"/>
      <path d="M 18.3125 70.21875 
L 18.3125 54.6875 
L 36.8125 54.6875 
L 36.8125 47.703125 
L 18.3125 47.703125 
L 18.3125 18.015625 
Q 18.3125 11.328125 20.140625 9.421875 
Q 21.96875 7.515625 27.59375 7.515625 
L 36.8125 7.515625 
L 36.8125 0 
L 27.59375 0 
Q 17.1875 0 13.234375 3.875 
Q 9.28125 7.765625 9.28125 18.015625 
L 9.28125 47.703125 
L 2.6875 47.703125 
L 2.6875 54.6875 
L 9.28125 54.6875 
L 9.28125 70.21875 
z
" id="DejaVuSans-74"/>
      <path d="M 44.28125 53.078125 
L 44.28125 44.578125 
Q 40.484375 46.53125 36.375 47.5 
Q 32.28125 48.484375 27.875 48.484375 
Q 21.1875 48.484375 17.84375 46.4375 
Q 14.5 44.390625 14.5 40.28125 
Q 14.5 37.15625 16.890625 35.375 
Q 19.28125 33.59375 26.515625 31.984375 
L 29.59375 31.296875 
Q 39.15625 29.25 43.1875 25.515625 
Q 47.21875 21.78125 47.21875 15.09375 
Q 47.21875 7.46875 41.1875 3.015625 
Q 35.15625 -1.421875 24.609375 -1.421875 
Q 20.21875 -1.421875 15.453125 -0.5625 
Q 10.6875 0.296875 5.421875 2 
L 5.421875 11.28125 
Q 10.40625 8.6875 15.234375 7.390625 
Q 20.0625 6.109375 24.8125 6.109375 
Q 31.15625 6.109375 34.5625 8.28125 
Q 37.984375 10.453125 37.984375 14.40625 
Q 37.984375 18.0625 35.515625 20.015625 
Q 33.0625 21.96875 24.703125 23.78125 
L 21.578125 24.515625 
Q 13.234375 26.265625 9.515625 29.90625 
Q 5.8125 33.546875 5.8125 39.890625 
Q 5.8125 47.609375 11.28125 51.796875 
Q 16.75 56 26.8125 56 
Q 31.78125 56 36.171875 55.265625 
Q 40.578125 54.546875 44.28125 53.078125 
z
" id="DejaVuSans-73"/>
      <path d="M 54.890625 33.015625 
L 54.890625 0 
L 45.90625 0 
L 45.90625 32.71875 
Q 45.90625 40.484375 42.875 44.328125 
Q 39.84375 48.1875 33.796875 48.1875 
Q 26.515625 48.1875 22.3125 43.546875 
Q 18.109375 38.921875 18.109375 30.90625 
L 18.109375 0 
L 9.078125 0 
L 9.078125 75.984375 
L 18.109375 75.984375 
L 18.109375 46.1875 
Q 21.34375 51.125 25.703125 53.5625 
Q 30.078125 56 35.796875 56 
Q 45.21875 56 50.046875 50.171875 
Q 54.890625 44.34375 54.890625 33.015625 
z
" id="DejaVuSans-68"/>
     </defs>
     <g transform="translate(266.60445 246.363281)scale(0.15 -0.15)">
      <use xlink:href="#DejaVuSans-50"/>
      <use x="60.255859" xlink:href="#DejaVuSans-6f"/>
      <use x="121.4375" xlink:href="#DejaVuSans-70"/>
      <use x="184.914062" xlink:href="#DejaVuSans-75"/>
      <use x="248.292969" xlink:href="#DejaVuSans-6c"/>
      <use x="276.076172" xlink:href="#DejaVuSans-61"/>
      <use x="337.355469" xlink:href="#DejaVuSans-74"/>
      <use x="376.564453" xlink:href="#DejaVuSans-69"/>
      <use x="404.347656" xlink:href="#DejaVuSans-6f"/>
      <use x="465.529297" xlink:href="#DejaVuSans-6e"/>
      <use x="528.908203" xlink:href="#DejaVuSans-20"/>
      <use x="560.695312" xlink:href="#DejaVuSans-53"/>
      <use x="624.171875" xlink:href="#DejaVuSans-6e"/>
      <use x="687.550781" xlink:href="#DejaVuSans-61"/>
      <use x="748.830078" xlink:href="#DejaVuSans-70"/>
      <use x="812.306641" xlink:href="#DejaVuSans-73"/>
      <use x="864.40625" xlink:href="#DejaVuSans-68"/>
      <use x="927.785156" xlink:href="#DejaVuSans-6f"/>
      <use x="988.966797" xlink:href="#DejaVuSans-74"/>
      <use x="1028.175781" xlink:href="#DejaVuSans-73"/>
     </g>
    </g>
    <g id="line2d_36">
     <path d="M 224.60445 263.130469 
L 254.60445 263.130469 
" style="fill:none;stroke:#2ca02c;stroke-linecap:square;stroke-width:3;"/>
    </g>
    <g id="line2d_37"/>
    <g id="text_19">
     <!-- Lineage Tracking -->
     <defs>
      <path d="M -0.296875 72.90625 
L 61.375 72.90625 
L 61.375 64.59375 
L 35.5 64.59375 
L 35.5 0 
L 25.59375 0 
L 25.59375 64.59375 
L -0.296875 64.59375 
z
" id="DejaVuSans-54"/>
      <path d="M 41.109375 46.296875 
Q 39.59375 47.171875 37.8125 47.578125 
Q 36.03125 48 33.890625 48 
Q 26.265625 48 22.1875 43.046875 
Q 18.109375 38.09375 18.109375 28.8125 
L 18.109375 0 
L 9.078125 0 
L 9.078125 54.6875 
L 18.109375 54.6875 
L 18.109375 46.1875 
Q 20.953125 51.171875 25.484375 53.578125 
Q 30.03125 56 36.53125 56 
Q 37.453125 56 38.578125 55.875 
Q 39.703125 55.765625 41.0625 55.515625 
z
" id="DejaVuSans-72"/>
      <path d="M 48.78125 52.59375 
L 48.78125 44.1875 
Q 44.96875 46.296875 41.140625 47.34375 
Q 37.3125 48.390625 33.40625 48.390625 
Q 24.65625 48.390625 19.8125 42.84375 
Q 14.984375 37.3125 14.984375 27.296875 
Q 14.984375 17.28125 19.8125 11.734375 
Q 24.65625 6.203125 33.40625 6.203125 
Q 37.3125 6.203125 41.140625 7.25 
Q 44.96875 8.296875 48.78125 10.40625 
L 48.78125 2.09375 
Q 45.015625 0.34375 40.984375 -0.53125 
Q 36.96875 -1.421875 32.421875 -1.421875 
Q 20.0625 -1.421875 12.78125 6.34375 
Q 5.515625 14.109375 5.515625 27.296875 
Q 5.515625 40.671875 12.859375 48.328125 
Q 20.21875 56 33.015625 56 
Q 37.15625 56 41.109375 55.140625 
Q 45.0625 54.296875 48.78125 52.59375 
z
" id="DejaVuSans-63"/>
      <path d="M 9.078125 75.984375 
L 18.109375 75.984375 
L 18.109375 31.109375 
L 44.921875 54.6875 
L 56.390625 54.6875 
L 27.390625 29.109375 
L 57.625 0 
L 45.90625 0 
L 18.109375 26.703125 
L 18.109375 0 
L 9.078125 0 
z
" id="DejaVuSans-6b"/>
     </defs>
     <g transform="translate(266.60445 268.380469)scale(0.15 -0.15)">
      <use xlink:href="#DejaVuSans-4c"/>
      <use x="55.712891" xlink:href="#DejaVuSans-69"/>
      <use x="83.496094" xlink:href="#DejaVuSans-6e"/>
      <use x="146.875" xlink:href="#DejaVuSans-65"/>
      <use x="208.398438" xlink:href="#DejaVuSans-61"/>
      <use x="269.677734" xlink:href="#DejaVuSans-67"/>
      <use x="333.154297" xlink:href="#DejaVuSans-65"/>
      <use x="394.677734" xlink:href="#DejaVuSans-20"/>
      <use x="426.464844" xlink:href="#DejaVuSans-54"/>
      <use x="487.330078" xlink:href="#DejaVuSans-72"/>
      <use x="528.443359" xlink:href="#DejaVuSans-61"/>
      <use x="589.722656" xlink:href="#DejaVuSans-63"/>
      <use x="644.703125" xlink:href="#DejaVuSans-6b"/>
      <use x="702.613281" xlink:href="#DejaVuSans-69"/>
      <use x="730.396484" xlink:href="#DejaVuSans-6e"/>
      <use x="793.775391" xlink:href="#DejaVuSans-67"/>
     </g>
    </g>
   </g>
  </g>
  <g id="axes_2">
   <g id="patch_8">
    <path d="M 551.318207 285 
L 915.23125 285 
L 915.23125 13.2 
L 551.318207 13.2 
z
" style="fill:#ffffff;"/>
   </g>
   <g id="PolyCollection_4">
    <defs>
     <path d="M 551.318207 -66.927983 
L 551.318207 -66.927983 
L 556.516964 -69.311325 
L 561.715722 -81.273552 
L 566.91448 -102.507854 
L 572.113238 -126.23866 
L 577.311995 -156.020771 
L 582.510753 -173.979266 
L 587.709511 -191.056377 
L 592.908269 -204.369849 
L 598.107026 -214.548267 
L 603.305784 -218.83534 
L 608.504542 -224.737596 
L 613.7033 -220.612176 
L 618.902057 -222.898831 
L 624.100815 -222.881683 
L 629.299573 -230.91399 
L 634.498331 -238.993604 
L 639.697089 -246.356769 
L 644.895846 -247.849897 
L 650.094604 -250.346028 
L 655.293362 -242.620348 
L 660.49212 -248.961244 
L 665.690877 -246.299163 
L 670.889635 -245.608658 
L 676.088393 -240.276927 
L 681.287151 -245.939026 
L 686.485908 -246.983798 
L 691.684666 -245.470474 
L 696.883424 -250.073746 
L 702.082182 -253.259248 
L 707.280939 -252.623718 
L 712.479697 -251.092237 
L 717.678455 -249.369398 
L 722.877213 -250.300239 
L 728.07597 -251.252898 
L 733.274728 -251.594332 
L 738.473486 -248.235928 
L 743.672244 -244.461686 
L 748.871002 -241.350308 
L 754.069759 -241.428898 
L 759.268517 -240.958603 
L 764.467275 -240.715452 
L 769.666033 -242.846278 
L 774.86479 -245.673256 
L 780.063548 -245.848732 
L 785.262306 -243.67667 
L 790.461064 -248.027648 
L 795.659821 -253.147593 
L 800.858579 -254.920625 
L 806.057337 -253.525635 
L 811.256095 -253.646612 
L 816.454852 -254.138287 
L 821.65361 -251.809673 
L 826.852368 -251.574635 
L 832.051126 -249.960038 
L 837.249884 -249.736219 
L 842.448641 -249.36267 
L 847.647399 -248.761919 
L 852.846157 -248.647243 
L 858.044915 -248.162712 
L 863.243672 -247.450446 
L 868.44243 -247.966286 
L 873.641188 -246.679902 
L 878.839946 -245.595223 
L 884.038703 -245.304616 
L 889.237461 -244.267798 
L 894.436219 -244.80328 
L 899.634977 -245.78537 
L 904.833734 -245.308592 
L 910.032492 -245.866418 
L 910.032492 -256.021759 
L 910.032492 -256.021759 
L 904.833734 -256.550382 
L 899.634977 -257.453505 
L 894.436219 -256.85824 
L 889.237461 -257.528046 
L 884.038703 -257.908714 
L 878.839946 -258.183859 
L 873.641188 -259.410244 
L 868.44243 -260.512482 
L 863.243672 -260.815414 
L 858.044915 -261.587934 
L 852.846157 -263.13034 
L 847.647399 -264.131019 
L 842.448641 -265.364 
L 837.249884 -266.187429 
L 832.051126 -266.419826 
L 826.852368 -268.904746 
L 821.65361 -269.593704 
L 816.454852 -273.304106 
L 811.256095 -273.213431 
L 806.057337 -274.150942 
L 800.858579 -276.217903 
L 795.659821 -275.801465 
L 790.461064 -271.861619 
L 785.262306 -266.432969 
L 780.063548 -268.789614 
L 774.86479 -268.848168 
L 769.666033 -265.948382 
L 764.467275 -266.04763 
L 759.268517 -265.916303 
L 754.069759 -267.266348 
L 748.871002 -269.933847 
L 743.672244 -272.827684 
L 738.473486 -278.761737 
L 733.274728 -282.488577 
L 728.07597 -288.236131 
L 722.877213 -287.229315 
L 717.678455 -287.799481 
L 712.479697 -290.53557 
L 707.280939 -291.706727 
L 702.082182 -292.793835 
L 696.883424 -290.302628 
L 691.684666 -285.291488 
L 686.485908 -291.23526 
L 681.287151 -289.260693 
L 676.088393 -288.525879 
L 670.889635 -293.805816 
L 665.690877 -300.612646 
L 660.49212 -305.413115 
L 655.293362 -302.054817 
L 650.094604 -314.018892 
L 644.895846 -307.040873 
L 639.697089 -306.99289 
L 634.498331 -302.806836 
L 629.299573 -291.047516 
L 624.100815 -279.127663 
L 618.902057 -283.540247 
L 613.7033 -279.544954 
L 608.504542 -286.087531 
L 603.305784 -279.76534 
L 598.107026 -277.007608 
L 592.908269 -263.111971 
L 587.709511 -246.661428 
L 582.510753 -220.869399 
L 577.311995 -194.431836 
L 572.113238 -156.351424 
L 566.91448 -121.083227 
L 561.715722 -90.714466 
L 556.516964 -70.67418 
L 551.318207 -66.927983 
z
" id="m59d082a641"/>
    </defs>
    <g clip-path="url(#p0fc3d63521)">
     <use style="fill:#ffa035;" x="0" xlink:href="#m59d082a641" y="339.573438"/>
    </g>
   </g>
   <g id="PolyCollection_5">
    <defs>
     <path d="M 551.318207 -66.927983 
L 551.318207 -66.927983 
L 556.516964 -69.460629 
L 561.715722 -82.037825 
L 566.91448 -103.924207 
L 572.113238 -127.227494 
L 577.311995 -151.320742 
L 582.510753 -171.9966 
L 587.709511 -190.133383 
L 592.908269 -204.548103 
L 598.107026 -215.172777 
L 603.305784 -221.747607 
L 608.504542 -228.243684 
L 613.7033 -234.267535 
L 618.902057 -240.505869 
L 624.100815 -243.464319 
L 629.299573 -247.014948 
L 634.498331 -247.150931 
L 639.697089 -243.999515 
L 644.895846 -248.07867 
L 650.094604 -248.122024 
L 655.293362 -247.566347 
L 660.49212 -245.156675 
L 665.690877 -243.900253 
L 670.889635 -243.840489 
L 676.088393 -239.039164 
L 681.287151 -232.832792 
L 686.485908 -232.75465 
L 691.684666 -229.88705 
L 696.883424 -228.663555 
L 702.082182 -227.05751 
L 707.280939 -225.358759 
L 712.479697 -223.331098 
L 717.678455 -225.13924 
L 722.877213 -221.665743 
L 728.07597 -223.356454 
L 733.274728 -220.292191 
L 738.473486 -216.004207 
L 743.672244 -213.395723 
L 748.871002 -209.211289 
L 754.069759 -205.041516 
L 759.268517 -205.796508 
L 764.467275 -206.43861 
L 769.666033 -208.375426 
L 774.86479 -208.538528 
L 780.063548 -207.312833 
L 785.262306 -206.049934 
L 790.461064 -207.586585 
L 795.659821 -205.688729 
L 800.858579 -203.571081 
L 806.057337 -199.578104 
L 811.256095 -197.118679 
L 816.454852 -195.486666 
L 821.65361 -194.415606 
L 826.852368 -193.081183 
L 832.051126 -192.071195 
L 837.249884 -191.695251 
L 842.448641 -190.974581 
L 847.647399 -190.750953 
L 852.846157 -192.192426 
L 858.044915 -193.464174 
L 863.243672 -194.998057 
L 868.44243 -194.602776 
L 873.641188 -193.084782 
L 878.839946 -191.804282 
L 884.038703 -192.174782 
L 889.237461 -192.393583 
L 894.436219 -194.086893 
L 899.634977 -195.827704 
L 904.833734 -197.219567 
L 910.032492 -198.911525 
L 910.032492 -222.722458 
L 910.032492 -222.722458 
L 904.833734 -222.221992 
L 899.634977 -219.957582 
L 894.436219 -217.729709 
L 889.237461 -215.944605 
L 884.038703 -216.179353 
L 878.839946 -214.376271 
L 873.641188 -215.766319 
L 868.44243 -216.339872 
L 863.243672 -215.795234 
L 858.044915 -214.242439 
L 852.846157 -212.532488 
L 847.647399 -211.691543 
L 842.448641 -211.967824 
L 837.249884 -212.996751 
L 832.051126 -212.133734 
L 826.852368 -213.79672 
L 821.65361 -215.579503 
L 816.454852 -218.246264 
L 811.256095 -219.417073 
L 806.057337 -224.803298 
L 800.858579 -230.959345 
L 795.659821 -233.179759 
L 790.461064 -234.23041 
L 785.262306 -233.321382 
L 780.063548 -232.961512 
L 774.86479 -233.902836 
L 769.666033 -233.740066 
L 764.467275 -233.947925 
L 759.268517 -233.0835 
L 754.069759 -234.761377 
L 748.871002 -238.214261 
L 743.672244 -243.754799 
L 738.473486 -245.669422 
L 733.274728 -249.70498 
L 728.07597 -253.567444 
L 722.877213 -253.859102 
L 717.678455 -256.165929 
L 712.479697 -256.382888 
L 707.280939 -256.102978 
L 702.082182 -257.061182 
L 696.883424 -258.14758 
L 691.684666 -260.539132 
L 686.485908 -260.567728 
L 681.287151 -264.072917 
L 676.088393 -268.813828 
L 670.889635 -275.68436 
L 665.690877 -278.34059 
L 660.49212 -284.276534 
L 655.293362 -287.385037 
L 650.094604 -288.641923 
L 644.895846 -288.239809 
L 639.697089 -286.895798 
L 634.498331 -287.699179 
L 629.299573 -286.148334 
L 624.100815 -281.69167 
L 618.902057 -273.045022 
L 613.7033 -268.874714 
L 608.504542 -260.802548 
L 603.305784 -253.518419 
L 598.107026 -243.503059 
L 592.908269 -228.386512 
L 587.709511 -211.182902 
L 582.510753 -189.132242 
L 577.311995 -164.358036 
L 572.113238 -136.877404 
L 566.91448 -109.766231 
L 561.715722 -84.567142 
L 556.516964 -69.993394 
L 551.318207 -66.927983 
z
" id="m7b5ae3f974"/>
    </defs>
    <g clip-path="url(#p0fc3d63521)">
     <use style="fill:#4db8ff;" x="0" xlink:href="#m7b5ae3f974" y="339.573438"/>
    </g>
   </g>
   <g id="PolyCollection_6">
    <defs>
     <path d="M 551.318207 -66.927983 
L 551.318207 -66.927983 
L 556.516964 -66.992515 
L 561.715722 -67.828554 
L 566.91448 -69.12434 
L 572.113238 -72.828395 
L 577.311995 -77.13271 
L 582.510753 -83.613126 
L 587.709511 -91.329339 
L 592.908269 -97.76538 
L 598.107026 -101.042285 
L 603.305784 -105.587961 
L 608.504542 -109.228165 
L 613.7033 -113.570637 
L 618.902057 -119.322051 
L 624.100815 -126.373509 
L 629.299573 -131.917379 
L 634.498331 -138.844285 
L 639.697089 -147.160201 
L 644.895846 -151.144261 
L 650.094604 -156.036336 
L 655.293362 -160.107554 
L 660.49212 -161.926316 
L 665.690877 -163.602335 
L 670.889635 -163.984193 
L 676.088393 -166.157799 
L 681.287151 -168.853834 
L 686.485908 -171.571046 
L 691.684666 -171.111619 
L 696.883424 -179.19799 
L 702.082182 -184.081697 
L 707.280939 -185.874933 
L 712.479697 -187.134165 
L 717.678455 -190.319624 
L 722.877213 -194.644682 
L 728.07597 -199.524521 
L 733.274728 -200.956276 
L 738.473486 -200.922735 
L 743.672244 -203.467651 
L 748.871002 -205.452349 
L 754.069759 -207.608059 
L 759.268517 -207.483472 
L 764.467275 -210.098489 
L 769.666033 -212.974091 
L 774.86479 -217.593459 
L 780.063548 -220.063145 
L 785.262306 -221.334673 
L 790.461064 -226.229715 
L 795.659821 -230.731962 
L 800.858579 -233.697926 
L 806.057337 -232.715357 
L 811.256095 -233.591746 
L 816.454852 -236.136529 
L 821.65361 -235.812178 
L 826.852368 -235.413879 
L 832.051126 -234.0808 
L 837.249884 -233.818967 
L 842.448641 -234.132583 
L 847.647399 -234.387889 
L 852.846157 -234.871134 
L 858.044915 -235.023155 
L 863.243672 -236.644972 
L 868.44243 -237.037747 
L 873.641188 -236.617339 
L 878.839946 -235.516811 
L 884.038703 -235.560762 
L 889.237461 -234.991018 
L 894.436219 -236.343134 
L 899.634977 -237.062167 
L 904.833734 -237.460004 
L 910.032492 -238.076415 
L 910.032492 -252.897405 
L 910.032492 -252.897405 
L 904.833734 -252.772815 
L 899.634977 -253.025323 
L 894.436219 -251.702951 
L 889.237461 -251.658853 
L 884.038703 -252.778046 
L 878.839946 -252.537627 
L 873.641188 -252.266078 
L 868.44243 -253.126413 
L 863.243672 -252.780372 
L 858.044915 -251.759728 
L 852.846157 -253.107187 
L 847.647399 -253.812279 
L 842.448641 -254.744182 
L 837.249884 -254.487614 
L 832.051126 -254.502564 
L 826.852368 -256.901768 
L 821.65361 -257.460738 
L 816.454852 -259.201626 
L 811.256095 -259.178003 
L 806.057337 -258.8671 
L 800.858579 -259.261218 
L 795.659821 -258.858927 
L 790.461064 -251.628035 
L 785.262306 -247.112425 
L 780.063548 -247.481445 
L 774.86479 -247.273086 
L 769.666033 -245.311156 
L 764.467275 -241.469811 
L 759.268517 -239.433377 
L 754.069759 -238.220651 
L 748.871002 -237.641668 
L 743.672244 -237.31346 
L 738.473486 -234.312081 
L 733.274728 -234.757038 
L 728.07597 -233.967815 
L 722.877213 -231.008069 
L 717.678455 -228.59081 
L 712.479697 -228.715298 
L 707.280939 -231.186153 
L 702.082182 -226.68138 
L 696.883424 -224.322931 
L 691.684666 -220.065464 
L 686.485908 -222.471107 
L 681.287151 -222.076622 
L 676.088393 -216.453889 
L 670.889635 -215.864045 
L 665.690877 -217.197968 
L 660.49212 -214.115183 
L 655.293362 -212.220227 
L 650.094604 -208.13837 
L 644.895846 -198.117437 
L 639.697089 -190.252807 
L 634.498331 -181.068854 
L 629.299573 -174.175333 
L 624.100815 -165.898438 
L 618.902057 -159.829031 
L 613.7033 -153.892684 
L 608.504542 -146.177867 
L 603.305784 -136.747508 
L 598.107026 -132.42869 
L 592.908269 -124.483672 
L 587.709511 -113.620021 
L 582.510753 -100.655404 
L 577.311995 -90.591483 
L 572.113238 -82.447629 
L 566.91448 -75.70999 
L 561.715722 -70.924539 
L 556.516964 -67.433942 
L 551.318207 -66.927983 
z
" id="ma62838e54b"/>
    </defs>
    <g clip-path="url(#p0fc3d63521)">
     <use style="fill:#47d200;" x="0" xlink:href="#ma62838e54b" y="339.573438"/>
    </g>
   </g>
   <g id="matplotlib.axis_3">
    <g id="xtick_9">
     <g id="line2d_38">
      <path clip-path="url(#p0fc3d63521)" d="M 551.318207 285 
L 551.318207 13.2 
" style="fill:none;stroke:#b0b0b0;stroke-linecap:square;stroke-width:0.8;"/>
     </g>
     <g id="line2d_39">
      <g>
       <use x="551.318207" xlink:href="#mcaebb3250a" y="285"/>
      </g>
     </g>
     <g id="text_20">
      <!-- 0 -->
      <g transform="translate(546.546332 305.897656)scale(0.15 -0.15)">
       <use xlink:href="#DejaVuSans-30"/>
      </g>
     </g>
    </g>
    <g id="xtick_10">
     <g id="line2d_40">
      <path clip-path="url(#p0fc3d63521)" d="M 603.305784 285 
L 603.305784 13.2 
" style="fill:none;stroke:#b0b0b0;stroke-linecap:square;stroke-width:0.8;"/>
     </g>
     <g id="line2d_41">
      <g>
       <use x="603.305784" xlink:href="#mcaebb3250a" y="285"/>
      </g>
     </g>
     <g id="text_21">
      <!-- 1 -->
      <g transform="translate(598.533909 305.897656)scale(0.15 -0.15)">
       <use xlink:href="#DejaVuSans-31"/>
      </g>
     </g>
    </g>
    <g id="xtick_11">
     <g id="line2d_42">
      <path clip-path="url(#p0fc3d63521)" d="M 655.293362 285 
L 655.293362 13.2 
" style="fill:none;stroke:#b0b0b0;stroke-linecap:square;stroke-width:0.8;"/>
     </g>
     <g id="line2d_43">
      <g>
       <use x="655.293362" xlink:href="#mcaebb3250a" y="285"/>
      </g>
     </g>
     <g id="text_22">
      <!-- 2 -->
      <g transform="translate(650.521487 305.897656)scale(0.15 -0.15)">
       <use xlink:href="#DejaVuSans-32"/>
      </g>
     </g>
    </g>
    <g id="xtick_12">
     <g id="line2d_44">
      <path clip-path="url(#p0fc3d63521)" d="M 707.280939 285 
L 707.280939 13.2 
" style="fill:none;stroke:#b0b0b0;stroke-linecap:square;stroke-width:0.8;"/>
     </g>
     <g id="line2d_45">
      <g>
       <use x="707.280939" xlink:href="#mcaebb3250a" y="285"/>
      </g>
     </g>
     <g id="text_23">
      <!-- 3 -->
      <g transform="translate(702.509064 305.897656)scale(0.15 -0.15)">
       <use xlink:href="#DejaVuSans-33"/>
      </g>
     </g>
    </g>
    <g id="xtick_13">
     <g id="line2d_46">
      <path clip-path="url(#p0fc3d63521)" d="M 759.268517 285 
L 759.268517 13.2 
" style="fill:none;stroke:#b0b0b0;stroke-linecap:square;stroke-width:0.8;"/>
     </g>
     <g id="line2d_47">
      <g>
       <use x="759.268517" xlink:href="#mcaebb3250a" y="285"/>
      </g>
     </g>
     <g id="text_24">
      <!-- 4 -->
      <g transform="translate(754.496642 305.897656)scale(0.15 -0.15)">
       <use xlink:href="#DejaVuSans-34"/>
      </g>
     </g>
    </g>
    <g id="xtick_14">
     <g id="line2d_48">
      <path clip-path="url(#p0fc3d63521)" d="M 811.256095 285 
L 811.256095 13.2 
" style="fill:none;stroke:#b0b0b0;stroke-linecap:square;stroke-width:0.8;"/>
     </g>
     <g id="line2d_49">
      <g>
       <use x="811.256095" xlink:href="#mcaebb3250a" y="285"/>
      </g>
     </g>
     <g id="text_25">
      <!-- 5 -->
      <g transform="translate(806.48422 305.897656)scale(0.15 -0.15)">
       <use xlink:href="#DejaVuSans-35"/>
      </g>
     </g>
    </g>
    <g id="xtick_15">
     <g id="line2d_50">
      <path clip-path="url(#p0fc3d63521)" d="M 863.243672 285 
L 863.243672 13.2 
" style="fill:none;stroke:#b0b0b0;stroke-linecap:square;stroke-width:0.8;"/>
     </g>
     <g id="line2d_51">
      <g>
       <use x="863.243672" xlink:href="#mcaebb3250a" y="285"/>
      </g>
     </g>
     <g id="text_26">
      <!-- 6 -->
      <g transform="translate(858.471797 305.897656)scale(0.15 -0.15)">
       <use xlink:href="#DejaVuSans-36"/>
      </g>
     </g>
    </g>
    <g id="xtick_16">
     <g id="line2d_52">
      <path clip-path="url(#p0fc3d63521)" d="M 915.23125 285 
L 915.23125 13.2 
" style="fill:none;stroke:#b0b0b0;stroke-linecap:square;stroke-width:0.8;"/>
     </g>
     <g id="line2d_53">
      <g>
       <use x="915.23125" xlink:href="#mcaebb3250a" y="285"/>
      </g>
     </g>
     <g id="text_27">
      <!-- 7 -->
      <g transform="translate(910.459375 305.897656)scale(0.15 -0.15)">
       <use xlink:href="#DejaVuSans-37"/>
      </g>
     </g>
    </g>
    <g id="text_28">
     <!-- $t/\tau$ -->
     <g transform="translate(719.874728 328.214063)scale(0.2 -0.2)">
      <use transform="translate(0 0.09375)" xlink:href="#DejaVuSans-Oblique-74"/>
      <use transform="translate(39.208984 0.09375)" xlink:href="#DejaVuSans-2f"/>
      <use transform="translate(72.900391 0.09375)" xlink:href="#DejaVuSans-Oblique-3c4"/>
     </g>
    </g>
   </g>
   <g id="matplotlib.axis_4">
    <g id="ytick_7">
     <g id="line2d_54">
      <path clip-path="url(#p0fc3d63521)" d="M 551.318207 272.645455 
L 915.23125 272.645455 
" style="fill:none;stroke:#b0b0b0;stroke-linecap:square;stroke-width:0.8;"/>
     </g>
     <g id="line2d_55">
      <g>
       <use x="551.318207" xlink:href="#m93b80103d9" y="272.645455"/>
      </g>
     </g>
     <g id="text_29">
      <!-- 0.000 -->
      <defs>
       <path d="M 10.6875 12.40625 
L 21 12.40625 
L 21 0 
L 10.6875 0 
z
" id="DejaVuSans-2e"/>
      </defs>
      <g transform="translate(498.876019 278.344283)scale(0.15 -0.15)">
       <use xlink:href="#DejaVuSans-30"/>
       <use x="63.623047" xlink:href="#DejaVuSans-2e"/>
       <use x="95.410156" xlink:href="#DejaVuSans-30"/>
       <use x="159.033203" xlink:href="#DejaVuSans-30"/>
       <use x="222.65625" xlink:href="#DejaVuSans-30"/>
      </g>
     </g>
    </g>
    <g id="ytick_8">
     <g id="line2d_56">
      <path clip-path="url(#p0fc3d63521)" d="M 551.318207 222.492149 
L 915.23125 222.492149 
" style="fill:none;stroke:#b0b0b0;stroke-linecap:square;stroke-width:0.8;"/>
     </g>
     <g id="line2d_57">
      <g>
       <use x="551.318207" xlink:href="#m93b80103d9" y="222.492149"/>
      </g>
     </g>
     <g id="text_30">
      <!-- 0.005 -->
      <g transform="translate(498.876019 228.190977)scale(0.15 -0.15)">
       <use xlink:href="#DejaVuSans-30"/>
       <use x="63.623047" xlink:href="#DejaVuSans-2e"/>
       <use x="95.410156" xlink:href="#DejaVuSans-30"/>
       <use x="159.033203" xlink:href="#DejaVuSans-30"/>
       <use x="222.65625" xlink:href="#DejaVuSans-35"/>
      </g>
     </g>
    </g>
    <g id="ytick_9">
     <g id="line2d_58">
      <path clip-path="url(#p0fc3d63521)" d="M 551.318207 172.338843 
L 915.23125 172.338843 
" style="fill:none;stroke:#b0b0b0;stroke-linecap:square;stroke-width:0.8;"/>
     </g>
     <g id="line2d_59">
      <g>
       <use x="551.318207" xlink:href="#m93b80103d9" y="172.338843"/>
      </g>
     </g>
     <g id="text_31">
      <!-- 0.010 -->
      <g transform="translate(498.876019 178.037672)scale(0.15 -0.15)">
       <use xlink:href="#DejaVuSans-30"/>
       <use x="63.623047" xlink:href="#DejaVuSans-2e"/>
       <use x="95.410156" xlink:href="#DejaVuSans-30"/>
       <use x="159.033203" xlink:href="#DejaVuSans-31"/>
       <use x="222.65625" xlink:href="#DejaVuSans-30"/>
      </g>
     </g>
    </g>
    <g id="ytick_10">
     <g id="line2d_60">
      <path clip-path="url(#p0fc3d63521)" d="M 551.318207 122.185538 
L 915.23125 122.185538 
" style="fill:none;stroke:#b0b0b0;stroke-linecap:square;stroke-width:0.8;"/>
     </g>
     <g id="line2d_61">
      <g>
       <use x="551.318207" xlink:href="#m93b80103d9" y="122.185538"/>
      </g>
     </g>
     <g id="text_32">
      <!-- 0.015 -->
      <g transform="translate(498.876019 127.884366)scale(0.15 -0.15)">
       <use xlink:href="#DejaVuSans-30"/>
       <use x="63.623047" xlink:href="#DejaVuSans-2e"/>
       <use x="95.410156" xlink:href="#DejaVuSans-30"/>
       <use x="159.033203" xlink:href="#DejaVuSans-31"/>
       <use x="222.65625" xlink:href="#DejaVuSans-35"/>
      </g>
     </g>
    </g>
    <g id="ytick_11">
     <g id="line2d_62">
      <path clip-path="url(#p0fc3d63521)" d="M 551.318207 72.032232 
L 915.23125 72.032232 
" style="fill:none;stroke:#b0b0b0;stroke-linecap:square;stroke-width:0.8;"/>
     </g>
     <g id="line2d_63">
      <g>
       <use x="551.318207" xlink:href="#m93b80103d9" y="72.032232"/>
      </g>
     </g>
     <g id="text_33">
      <!-- 0.020 -->
      <g transform="translate(498.876019 77.73106)scale(0.15 -0.15)">
       <use xlink:href="#DejaVuSans-30"/>
       <use x="63.623047" xlink:href="#DejaVuSans-2e"/>
       <use x="95.410156" xlink:href="#DejaVuSans-30"/>
       <use x="159.033203" xlink:href="#DejaVuSans-32"/>
       <use x="222.65625" xlink:href="#DejaVuSans-30"/>
      </g>
     </g>
    </g>
    <g id="ytick_12">
     <g id="line2d_64">
      <path clip-path="url(#p0fc3d63521)" d="M 551.318207 21.878927 
L 915.23125 21.878927 
" style="fill:none;stroke:#b0b0b0;stroke-linecap:square;stroke-width:0.8;"/>
     </g>
     <g id="line2d_65">
      <g>
       <use x="551.318207" xlink:href="#m93b80103d9" y="21.878927"/>
      </g>
     </g>
     <g id="text_34">
      <!-- 0.025 -->
      <g transform="translate(498.876019 27.577755)scale(0.15 -0.15)">
       <use xlink:href="#DejaVuSans-30"/>
       <use x="63.623047" xlink:href="#DejaVuSans-2e"/>
       <use x="95.410156" xlink:href="#DejaVuSans-30"/>
       <use x="159.033203" xlink:href="#DejaVuSans-32"/>
       <use x="222.65625" xlink:href="#DejaVuSans-35"/>
      </g>
     </g>
    </g>
    <g id="text_35">
     <!-- $C_V^2(p)$ -->
     <defs>
      <path d="M 69.484375 67.28125 
L 67.484375 56.890625 
Q 62.796875 61.625 57.546875 63.921875 
Q 52.296875 66.21875 46.1875 66.21875 
Q 37.84375 66.21875 31.515625 62.203125 
Q 25.203125 58.203125 20.609375 50 
Q 17.671875 44.734375 16.125 38.84375 
Q 14.59375 32.953125 14.59375 27 
Q 14.59375 17.046875 19.75 11.8125 
Q 24.90625 6.59375 34.71875 6.59375 
Q 41.5 6.59375 47.75 8.765625 
Q 54 10.9375 59.90625 15.28125 
L 57.625 3.609375 
Q 51.8125 1.125 45.875 -0.140625 
Q 39.9375 -1.421875 33.984375 -1.421875 
Q 19.96875 -1.421875 12.078125 6.1875 
Q 4.203125 13.8125 4.203125 27.390625 
Q 4.203125 36.078125 7.203125 44.46875 
Q 10.203125 52.875 15.828125 59.8125 
Q 21.78125 67.1875 29.421875 70.703125 
Q 37.0625 74.21875 47.21875 74.21875 
Q 53.46875 74.21875 59.0625 72.484375 
Q 64.65625 70.75 69.484375 67.28125 
z
" id="DejaVuSans-Oblique-43"/>
      <path d="M 20.609375 0 
L 7.8125 72.90625 
L 17.484375 72.90625 
L 28.078125 10.203125 
L 63.484375 72.90625 
L 74.21875 72.90625 
L 32.078125 0 
z
" id="DejaVuSans-Oblique-56"/>
      <path d="M 31 75.875 
Q 24.46875 64.65625 21.28125 53.65625 
Q 18.109375 42.671875 18.109375 31.390625 
Q 18.109375 20.125 21.3125 9.0625 
Q 24.515625 -2 31 -13.1875 
L 23.1875 -13.1875 
Q 15.875 -1.703125 12.234375 9.375 
Q 8.59375 20.453125 8.59375 31.390625 
Q 8.59375 42.28125 12.203125 53.3125 
Q 15.828125 64.359375 23.1875 75.875 
z
" id="DejaVuSans-28"/>
      <path d="M 8.015625 75.875 
L 15.828125 75.875 
Q 23.140625 64.359375 26.78125 53.3125 
Q 30.421875 42.28125 30.421875 31.390625 
Q 30.421875 20.453125 26.78125 9.375 
Q 23.140625 -1.703125 15.828125 -13.1875 
L 8.015625 -13.1875 
Q 14.5 -2 17.703125 9.0625 
Q 20.90625 20.125 20.90625 31.390625 
Q 20.90625 42.671875 17.703125 53.65625 
Q 14.5 64.65625 8.015625 75.875 
z
" id="DejaVuSans-29"/>
     </defs>
     <g transform="translate(489.276019 175.7)rotate(-90)scale(0.2 -0.2)">
      <use transform="translate(0 0.765625)" xlink:href="#DejaVuSans-Oblique-43"/>
      <use transform="translate(77.02474 39.046875)scale(0.7)" xlink:href="#DejaVuSans-32"/>
      <use transform="translate(69.824219 -26.578125)scale(0.7)" xlink:href="#DejaVuSans-Oblique-56"/>
      <use transform="translate(124.295247 0.765625)" xlink:href="#DejaVuSans-28"/>
      <use transform="translate(163.308919 0.765625)" xlink:href="#DejaVuSans-Oblique-70"/>
      <use transform="translate(226.785482 0.765625)" xlink:href="#DejaVuSans-29"/>
     </g>
    </g>
   </g>
   <g id="line2d_66">
    <path clip-path="url(#p0fc3d63521)" d="M 551.318207 272.645455 
L 556.516964 269.846426 
L 561.715722 256.270954 
L 566.91448 232.728218 
L 572.113238 207.520988 
L 577.311995 181.734049 
L 582.510753 159.009017 
L 587.709511 138.915295 
L 592.908269 123.10613 
L 598.107026 110.235519 
L 603.305784 101.940424 
L 608.504542 95.050321 
L 613.7033 88.002313 
L 618.902057 82.797992 
L 624.100815 76.995443 
L 629.299573 72.991796 
L 634.498331 72.148383 
L 639.697089 74.125781 
L 644.895846 71.414198 
L 650.094604 71.191464 
L 655.293362 72.097746 
L 660.49212 74.856833 
L 665.690877 78.453016 
L 670.889635 79.811013 
L 676.088393 85.646941 
L 681.287151 91.120583 
L 686.485908 92.912248 
L 691.684666 94.360347 
L 696.883424 96.16787 
L 702.082182 97.514092 
L 707.280939 98.842569 
L 712.479697 99.716445 
L 717.678455 98.920853 
L 722.877213 101.811015 
L 728.07597 101.111489 
L 733.274728 104.574852 
L 738.473486 108.736623 
L 743.672244 110.998177 
L 748.871002 115.860663 
L 754.069759 119.671991 
L 759.268517 120.133434 
L 764.467275 119.38017 
L 769.666033 118.515691 
L 774.86479 118.352756 
L 780.063548 119.436265 
L 785.262306 119.88778 
L 790.461064 118.66494 
L 795.659821 120.139193 
L 800.858579 122.308225 
L 806.057337 127.382737 
L 811.256095 131.305562 
L 816.454852 132.706972 
L 821.65361 134.575883 
L 826.852368 136.134486 
L 832.051126 137.470973 
L 837.249884 137.227437 
L 842.448641 138.102235 
L 847.647399 138.35219 
L 852.846157 137.210981 
L 858.044915 135.720131 
L 863.243672 134.176792 
L 868.44243 134.102114 
L 873.641188 135.147887 
L 878.839946 136.483161 
L 884.038703 135.39637 
L 889.237461 135.404343 
L 894.436219 133.665136 
L 899.634977 131.680794 
L 904.833734 129.852658 
L 910.032492 128.756446 
" style="fill:none;stroke:#1f77b4;stroke-linecap:square;stroke-width:3;"/>
   </g>
   <g id="line2d_67">
    <path clip-path="url(#p0fc3d63521)" d="M 551.318207 272.645455 
L 556.516964 269.580685 
L 561.715722 253.579428 
L 566.91448 227.777897 
L 572.113238 198.278395 
L 577.311995 164.347134 
L 582.510753 142.149105 
L 587.709511 120.714535 
L 592.908269 105.832527 
L 598.107026 93.7955 
L 603.305784 90.273098 
L 608.504542 84.160874 
L 613.7033 89.494873 
L 618.902057 86.353899 
L 624.100815 88.568764 
L 629.299573 78.592685 
L 634.498331 68.673217 
L 639.697089 62.898608 
L 644.895846 62.128053 
L 650.094604 57.390977 
L 655.293362 67.235855 
L 660.49212 62.386258 
L 665.690877 66.117533 
L 670.889635 69.8662 
L 676.088393 75.172035 
L 681.287151 71.973578 
L 686.485908 70.463909 
L 691.684666 74.192457 
L 696.883424 69.385251 
L 702.082182 66.546896 
L 707.280939 67.408215 
L 712.479697 68.759534 
L 717.678455 70.988998 
L 722.877213 70.808661 
L 728.07597 69.828923 
L 733.274728 72.531983 
L 738.473486 76.074605 
L 743.672244 80.928753 
L 748.871002 83.93136 
L 754.069759 85.225814 
L 759.268517 86.135984 
L 764.467275 86.191896 
L 769.666033 85.176107 
L 774.86479 82.312725 
L 780.063548 82.254265 
L 785.262306 84.518618 
L 790.461064 79.628804 
L 795.659821 75.098909 
L 800.858579 74.004174 
L 806.057337 75.735149 
L 811.256095 76.143416 
L 816.454852 75.852241 
L 821.65361 78.871749 
L 826.852368 79.333747 
L 832.051126 81.383505 
L 837.249884 81.611614 
L 842.448641 82.210102 
L 847.647399 83.126968 
L 852.846157 83.684646 
L 858.044915 84.698114 
L 863.243672 85.440507 
L 868.44243 85.334053 
L 873.641188 86.528364 
L 878.839946 87.683897 
L 884.038703 87.966773 
L 889.237461 88.675516 
L 894.436219 88.742678 
L 899.634977 87.954 
L 904.833734 88.643951 
L 910.032492 88.629349 
" style="fill:none;stroke:#ff7f0e;stroke-linecap:square;stroke-width:3;"/>
   </g>
   <g id="line2d_68">
    <path clip-path="url(#p0fc3d63521)" d="M 551.318207 272.645455 
L 556.516964 272.360209 
L 561.715722 270.196891 
L 566.91448 267.156272 
L 572.113238 261.935425 
L 577.311995 255.711341 
L 582.510753 247.439172 
L 587.709511 237.098757 
L 592.908269 228.448912 
L 598.107026 222.83795 
L 603.305784 218.405703 
L 608.504542 211.870422 
L 613.7033 205.841777 
L 618.902057 199.997896 
L 624.100815 193.437464 
L 629.299573 186.527082 
L 634.498331 179.616868 
L 639.697089 170.866933 
L 644.895846 164.942589 
L 650.094604 157.486085 
L 655.293362 153.409547 
L 660.49212 151.552688 
L 665.690877 149.173286 
L 670.889635 149.649319 
L 676.088393 148.267593 
L 681.287151 144.108209 
L 686.485908 142.552361 
L 691.684666 143.984896 
L 696.883424 137.812977 
L 702.082182 134.191899 
L 707.280939 131.042895 
L 712.479697 131.648706 
L 717.678455 130.118221 
L 722.877213 126.747062 
L 728.07597 122.82727 
L 733.274728 121.716781 
L 738.473486 121.956029 
L 743.672244 119.182882 
L 748.871002 118.026429 
L 754.069759 116.659083 
L 759.268517 116.115013 
L 764.467275 113.789287 
L 769.666033 110.430814 
L 774.86479 107.140165 
L 780.063548 105.801143 
L 785.262306 105.349888 
L 790.461064 100.644563 
L 795.659821 94.777993 
L 800.858579 93.093866 
L 806.057337 93.782209 
L 811.256095 93.188563 
L 816.454852 91.90436 
L 821.65361 92.936979 
L 826.852368 93.415614 
L 832.051126 95.281756 
L 837.249884 95.420147 
L 842.448641 95.135055 
L 847.647399 95.473353 
L 852.846157 95.584277 
L 858.044915 96.181996 
L 863.243672 94.860765 
L 868.44243 94.491358 
L 873.641188 95.131729 
L 878.839946 95.546218 
L 884.038703 95.404033 
L 889.237461 96.248502 
L 894.436219 95.550395 
L 899.634977 94.529692 
L 904.833734 94.457028 
L 910.032492 94.086528 
" style="fill:none;stroke:#319000;stroke-linecap:square;stroke-width:3;"/>
   </g>
   <g id="patch_9">
    <path d="M 551.318207 285 
L 551.318207 13.2 
" style="fill:none;stroke:#000000;stroke-linecap:square;stroke-linejoin:miter;stroke-width:2;"/>
   </g>
   <g id="patch_10">
    <path d="M 915.23125 285 
L 915.23125 13.2 
" style="fill:none;"/>
   </g>
   <g id="patch_11">
    <path d="M 551.318207 285 
L 915.23125 285 
" style="fill:none;stroke:#000000;stroke-linecap:square;stroke-linejoin:miter;stroke-width:2;"/>
   </g>
   <g id="patch_12">
    <path d="M 551.318207 13.2 
L 915.23125 13.2 
" style="fill:none;"/>
   </g>
  </g>
 </g>
 <defs>
  <clipPath id="p2b9db5137c">
   <rect height="271.8" width="363.913043" x="78.23125" y="13.2"/>
  </clipPath>
  <clipPath id="p0fc3d63521">
   <rect height="271.8" width="363.913043" x="551.318207" y="13.2"/>
  </clipPath>
 </defs>
</svg>
