<?xml version="1.0" encoding="utf-8" standalone="no"?>
<!DOCTYPE svg PUBLIC "-//W3C//DTD SVG 1.1//EN"
  "http://www.w3.org/Graphics/SVG/1.1/DTD/svg11.dtd">
<!-- Created with matplotlib (http://matplotlib.org/) -->
<svg height="339.573438pt" version="1.1" viewBox="0 0 928.43125 339.573438" width="928.43125pt" xmlns="http://www.w3.org/2000/svg" xmlns:xlink="http://www.w3.org/1999/xlink">
 <defs>
  <style type="text/css">
*{stroke-linecap:butt;stroke-linejoin:round;}
  </style>
 </defs>
 <g id="figure_1">
  <g id="patch_1">
   <path d="M 0 339.573438 
L 928.43125 339.573438 
L 928.43125 0 
L 0 0 
z
" style="fill:#ffffff;"/>
  </g>
  <g id="axes_1">
   <g id="patch_2">
    <path d="M 78.23125 285 
L 442.144293 285 
L 442.144293 13.2 
L 78.23125 13.2 
z
" style="fill:#ffffff;"/>
   </g>
   <g id="PolyCollection_1">
    <defs>
     <path d="M 78.23125 -66.927983 
L 78.23125 -66.927983 
L 83.430008 -69.860562 
L 88.628766 -77.051007 
L 93.827523 -86.842186 
L 99.026281 -98.044738 
L 104.225039 -109.591573 
L 109.423797 -121.500343 
L 114.622554 -133.073696 
L 119.821312 -144.225238 
L 125.02007 -154.912175 
L 130.218828 -165.072113 
L 135.417585 -174.773472 
L 140.616343 -183.940118 
L 145.815101 -192.436677 
L 151.013859 -200.260821 
L 156.212616 -207.619229 
L 161.411374 -214.459103 
L 166.610132 -220.577024 
L 171.80889 -226.578047 
L 177.007648 -232.176012 
L 182.206405 -237.339422 
L 187.405163 -242.385464 
L 192.603921 -246.682525 
L 197.802679 -250.721862 
L 203.001436 -254.330222 
L 208.200194 -258.03924 
L 213.398952 -261.400569 
L 218.59771 -264.4764 
L 223.796467 -267.430427 
L 228.995225 -270.250988 
L 234.193983 -273.020389 
L 239.392741 -275.663106 
L 244.591498 -278.032517 
L 249.790256 -280.64929 
L 254.989014 -282.72615 
L 260.187772 -284.850869 
L 265.38653 -287.044607 
L 270.585287 -288.801186 
L 275.784045 -290.370724 
L 280.982803 -291.982703 
L 286.181561 -293.387058 
L 291.380318 -294.746422 
L 296.579076 -295.896295 
L 301.777834 -297.067403 
L 306.976592 -298.192572 
L 312.175349 -299.287548 
L 317.374107 -300.273505 
L 322.572865 -300.619523 
L 327.771623 -300.763616 
L 332.97038 -301.089882 
L 338.169138 -301.674876 
L 343.367896 -302.231101 
L 348.566654 -302.707375 
L 353.765411 -303.371326 
L 358.964169 -304.030038 
L 364.162927 -304.457745 
L 369.361685 -304.62336 
L 374.560443 -305.030938 
L 379.7592 -305.408757 
L 384.957958 -305.68052 
L 390.156716 -305.974419 
L 395.355474 -306.155425 
L 400.554231 -306.531889 
L 405.752989 -307.184763 
L 410.951747 -307.690142 
L 416.150505 -308.088573 
L 421.349262 -308.380133 
L 426.54802 -308.806108 
L 431.746778 -309.185574 
L 436.945536 -309.548203 
L 436.945536 -313.63948 
L 436.945536 -313.63948 
L 431.746778 -313.237702 
L 426.54802 -312.904161 
L 421.349262 -312.671289 
L 416.150505 -312.132195 
L 410.951747 -311.716372 
L 405.752989 -311.48038 
L 400.554231 -311.072008 
L 395.355474 -310.503644 
L 390.156716 -310.271306 
L 384.957958 -309.978356 
L 379.7592 -309.620215 
L 374.560443 -309.223578 
L 369.361685 -309.029556 
L 364.162927 -308.768574 
L 358.964169 -308.299362 
L 353.765411 -307.771155 
L 348.566654 -307.029736 
L 343.367896 -306.460677 
L 338.169138 -305.898986 
L 332.97038 -305.444309 
L 327.771623 -305.160839 
L 322.572865 -305.061389 
L 317.374107 -304.618102 
L 312.175349 -303.970256 
L 306.976592 -302.722756 
L 301.777834 -301.375111 
L 296.579076 -300.277778 
L 291.380318 -299.083293 
L 286.181561 -297.847273 
L 280.982803 -296.23688 
L 275.784045 -294.639925 
L 270.585287 -293.17057 
L 265.38653 -291.257154 
L 260.187772 -289.31031 
L 254.989014 -287.109277 
L 249.790256 -284.967339 
L 244.591498 -282.578988 
L 239.392741 -280.103837 
L 234.193983 -277.434874 
L 228.995225 -274.523051 
L 223.796467 -271.75697 
L 218.59771 -268.822934 
L 213.398952 -265.740111 
L 208.200194 -262.423156 
L 203.001436 -258.85713 
L 197.802679 -254.777925 
L 192.603921 -250.973911 
L 187.405163 -246.467702 
L 182.206405 -241.510822 
L 177.007648 -236.103886 
L 171.80889 -230.637691 
L 166.610132 -224.655502 
L 161.411374 -218.223032 
L 156.212616 -211.411656 
L 151.013859 -204.090745 
L 145.815101 -195.928497 
L 140.616343 -187.373991 
L 135.417585 -178.155148 
L 130.218828 -168.332321 
L 125.02007 -157.939807 
L 119.821312 -147.147182 
L 114.622554 -135.721938 
L 109.423797 -123.628758 
L 104.225039 -111.573461 
L 99.026281 -99.633998 
L 93.827523 -88.036383 
L 88.628766 -77.805318 
L 83.430008 -70.172087 
L 78.23125 -66.927983 
z
" id="m6ea0928b39"/>
    </defs>
    <g clip-path="url(#pe8ced7fee8)">
     <use style="fill:#4db8ff;" x="0" xlink:href="#m6ea0928b39" y="339.573438"/>
    </g>
   </g>
   <g id="PolyCollection_2">
    <defs>
     <path d="M 78.23125 -66.927983 
L 78.23125 -66.927983 
L 83.430008 -69.909609 
L 88.628766 -76.368475 
L 93.827523 -84.736008 
L 99.026281 -96.577087 
L 104.225039 -108.53131 
L 109.423797 -121.061841 
L 114.622554 -133.399948 
L 119.821312 -145.387628 
L 125.02007 -158.407339 
L 130.218828 -167.781751 
L 135.417585 -178.604134 
L 140.616343 -187.81543 
L 145.815101 -196.509006 
L 151.013859 -203.749703 
L 156.212616 -211.933335 
L 161.411374 -216.942661 
L 166.610132 -223.077045 
L 171.80889 -230.120777 
L 177.007648 -235.121146 
L 182.206405 -241.387751 
L 187.405163 -246.407985 
L 192.603921 -251.943338 
L 197.802679 -257.350872 
L 203.001436 -260.056082 
L 208.200194 -264.070711 
L 213.398952 -267.190484 
L 218.59771 -270.412878 
L 223.796467 -273.870444 
L 228.995225 -276.40558 
L 234.193983 -278.977315 
L 239.392741 -281.693558 
L 244.591498 -284.388963 
L 249.790256 -285.696593 
L 254.989014 -287.612167 
L 260.187772 -289.445918 
L 265.38653 -290.577215 
L 270.585287 -291.577051 
L 275.784045 -292.470753 
L 280.982803 -293.98098 
L 286.181561 -294.67792 
L 291.380318 -296.406083 
L 296.579076 -297.715108 
L 301.777834 -298.894589 
L 306.976592 -299.957997 
L 312.175349 -300.658968 
L 317.374107 -302.372309 
L 322.572865 -303.484971 
L 327.771623 -303.887469 
L 332.97038 -304.166457 
L 338.169138 -304.501227 
L 343.367896 -304.186424 
L 348.566654 -304.671852 
L 353.765411 -306.155937 
L 358.964169 -306.91339 
L 364.162927 -307.324888 
L 369.361685 -307.508759 
L 374.560443 -308.066754 
L 379.7592 -308.281874 
L 384.957958 -308.842467 
L 390.156716 -309.124358 
L 395.355474 -309.418041 
L 400.554231 -309.30719 
L 405.752989 -309.532892 
L 410.951747 -310.013603 
L 416.150505 -310.175026 
L 421.349262 -310.560444 
L 426.54802 -311.012962 
L 431.746778 -311.403116 
L 436.945536 -311.712812 
L 436.945536 -313.833435 
L 436.945536 -313.833435 
L 431.746778 -313.496171 
L 426.54802 -313.277256 
L 421.349262 -312.836712 
L 416.150505 -312.508879 
L 410.951747 -312.423855 
L 405.752989 -312.129789 
L 400.554231 -311.925067 
L 395.355474 -312.128004 
L 390.156716 -311.904972 
L 384.957958 -311.625779 
L 379.7592 -311.215599 
L 374.560443 -311.085388 
L 369.361685 -310.735772 
L 364.162927 -310.441378 
L 358.964169 -310.150471 
L 353.765411 -309.564185 
L 348.566654 -308.209753 
L 343.367896 -307.913506 
L 338.169138 -308.280789 
L 332.97038 -308.068248 
L 327.771623 -307.945928 
L 322.572865 -307.740326 
L 317.374107 -306.796358 
L 312.175349 -305.162219 
L 306.976592 -304.65689 
L 301.777834 -303.597096 
L 296.579076 -302.711372 
L 291.380318 -301.533838 
L 286.181561 -300.077596 
L 280.982803 -299.506455 
L 275.784045 -297.950047 
L 270.585287 -297.425898 
L 265.38653 -296.722711 
L 260.187772 -295.591755 
L 254.989014 -294.232907 
L 249.790256 -292.03223 
L 244.591498 -291.029777 
L 239.392741 -288.876554 
L 234.193983 -286.048815 
L 228.995225 -284.096246 
L 223.796467 -281.085359 
L 218.59771 -277.860172 
L 213.398952 -275.143032 
L 208.200194 -272.110847 
L 203.001436 -268.941895 
L 197.802679 -265.842165 
L 192.603921 -260.541243 
L 187.405163 -256.415911 
L 182.206405 -252.18762 
L 177.007648 -246.312853 
L 171.80889 -241.398889 
L 166.610132 -234.791335 
L 161.411374 -229.694527 
L 156.212616 -224.198548 
L 151.013859 -216.72782 
L 145.815101 -210.085537 
L 140.616343 -200.601457 
L 135.417585 -191.699381 
L 130.218828 -180.142291 
L 125.02007 -170.52952 
L 119.821312 -156.243695 
L 114.622554 -143.745599 
L 109.423797 -130.488328 
L 104.225039 -117.304574 
L 99.026281 -103.509045 
L 93.827523 -90.07853 
L 88.628766 -79.883193 
L 83.430008 -71.381296 
L 78.23125 -66.927983 
z
" id="me1bb51a864"/>
    </defs>
    <g clip-path="url(#pe8ced7fee8)">
     <use style="fill:#ffa035;" x="0" xlink:href="#me1bb51a864" y="339.573438"/>
    </g>
   </g>
   <g id="PolyCollection_3">
    <defs>
     <path d="M 78.23125 -66.927983 
L 78.23125 -66.927983 
L 83.430008 -69.778653 
L 88.628766 -76.521987 
L 93.827523 -85.161222 
L 99.026281 -96.215396 
L 104.225039 -108.182833 
L 109.423797 -119.127388 
L 114.622554 -131.085676 
L 119.821312 -142.488826 
L 125.02007 -154.024207 
L 130.218828 -164.761724 
L 135.417585 -175.678851 
L 140.616343 -186.225319 
L 145.815101 -194.973317 
L 151.013859 -202.842925 
L 156.212616 -209.696287 
L 161.411374 -215.987714 
L 166.610132 -222.448907 
L 171.80889 -228.886081 
L 177.007648 -234.41469 
L 182.206405 -239.076554 
L 187.405163 -243.977806 
L 192.603921 -249.606818 
L 197.802679 -254.43591 
L 203.001436 -258.090351 
L 208.200194 -261.837462 
L 213.398952 -264.990036 
L 218.59771 -268.190311 
L 223.796467 -271.109981 
L 228.995225 -274.18631 
L 234.193983 -276.690557 
L 239.392741 -278.916508 
L 244.591498 -281.375684 
L 249.790256 -282.684472 
L 254.989014 -284.746637 
L 260.187772 -286.770727 
L 265.38653 -288.323269 
L 270.585287 -289.81701 
L 275.784045 -290.992687 
L 280.982803 -292.338191 
L 286.181561 -292.833677 
L 291.380318 -294.44999 
L 296.579076 -296.247519 
L 301.777834 -297.281508 
L 306.976592 -298.411828 
L 312.175349 -299.366563 
L 317.374107 -301.176171 
L 322.572865 -302.257319 
L 327.771623 -302.672506 
L 332.97038 -303.091566 
L 338.169138 -303.261217 
L 343.367896 -303.414052 
L 348.566654 -303.992014 
L 353.765411 -305.625162 
L 358.964169 -306.297027 
L 364.162927 -306.877432 
L 369.361685 -307.322395 
L 374.560443 -307.822571 
L 379.7592 -307.891898 
L 384.957958 -308.593948 
L 390.156716 -308.781707 
L 395.355474 -308.902048 
L 400.554231 -308.925044 
L 405.752989 -308.950851 
L 410.951747 -309.299012 
L 416.150505 -309.466775 
L 421.349262 -309.879457 
L 426.54802 -310.403868 
L 431.746778 -310.671969 
L 436.945536 -311.107242 
L 436.945536 -314.018892 
L 436.945536 -314.018892 
L 431.746778 -313.858335 
L 426.54802 -313.630951 
L 421.349262 -313.34573 
L 416.150505 -313.088924 
L 410.951747 -313.153299 
L 405.752989 -312.846451 
L 400.554231 -312.700095 
L 395.355474 -312.921017 
L 390.156716 -312.631682 
L 384.957958 -312.601757 
L 379.7592 -312.168709 
L 374.560443 -312.013595 
L 369.361685 -311.665874 
L 364.162927 -311.449605 
L 358.964169 -311.223449 
L 353.765411 -310.239953 
L 348.566654 -309.16786 
L 343.367896 -308.998786 
L 338.169138 -309.167905 
L 332.97038 -308.839328 
L 327.771623 -308.725834 
L 322.572865 -308.30539 
L 317.374107 -307.642242 
L 312.175349 -306.096541 
L 306.976592 -305.350809 
L 301.777834 -304.225738 
L 296.579076 -303.534326 
L 291.380318 -301.962715 
L 286.181561 -300.821482 
L 280.982803 -300.455091 
L 275.784045 -299.116484 
L 270.585287 -298.380539 
L 265.38653 -297.007879 
L 260.187772 -296.116801 
L 254.989014 -294.513528 
L 249.790256 -292.129667 
L 244.591498 -291.207641 
L 239.392741 -288.627172 
L 234.193983 -286.171999 
L 228.995225 -283.652465 
L 223.796467 -280.840806 
L 218.59771 -278.301332 
L 213.398952 -275.453023 
L 208.200194 -272.260846 
L 203.001436 -268.649947 
L 197.802679 -265.434234 
L 192.603921 -261.186838 
L 187.405163 -255.89964 
L 182.206405 -251.944747 
L 177.007648 -246.922366 
L 171.80889 -242.219768 
L 166.610132 -235.668036 
L 161.411374 -229.412666 
L 156.212616 -223.362486 
L 151.013859 -215.774035 
L 145.815101 -208.084251 
L 140.616343 -198.548353 
L 135.417585 -188.138324 
L 130.218828 -177.402205 
L 125.02007 -165.793911 
L 119.821312 -152.996134 
L 114.622554 -140.972384 
L 109.423797 -128.786863 
L 104.225039 -116.33609 
L 99.026281 -103.102617 
L 93.827523 -90.380865 
L 88.628766 -79.544926 
L 83.430008 -71.071433 
L 78.23125 -66.927983 
z
" id="mcd0b63b848"/>
    </defs>
    <g clip-path="url(#pe8ced7fee8)">
     <use style="fill:#47d200;" x="0" xlink:href="#mcd0b63b848" y="339.573438"/>
    </g>
   </g>
   <g id="matplotlib.axis_1">
    <g id="xtick_1">
     <g id="line2d_1">
      <path clip-path="url(#pe8ced7fee8)" d="M 78.23125 285 
L 78.23125 13.2 
" style="fill:none;stroke:#b0b0b0;stroke-linecap:square;stroke-width:0.8;"/>
     </g>
     <g id="line2d_2">
      <defs>
       <path d="M 0 0 
L 0 6 
" id="m6144561c14"/>
      </defs>
      <g>
       <use x="78.23125" xlink:href="#m6144561c14" y="285"/>
      </g>
     </g>
     <g id="text_1">
      <!-- 0 -->
      <defs>
       <path d="M 31.78125 66.40625 
Q 24.171875 66.40625 20.328125 58.90625 
Q 16.5 51.421875 16.5 36.375 
Q 16.5 21.390625 20.328125 13.890625 
Q 24.171875 6.390625 31.78125 6.390625 
Q 39.453125 6.390625 43.28125 13.890625 
Q 47.125 21.390625 47.125 36.375 
Q 47.125 51.421875 43.28125 58.90625 
Q 39.453125 66.40625 31.78125 66.40625 
z
M 31.78125 74.21875 
Q 44.046875 74.21875 50.515625 64.515625 
Q 56.984375 54.828125 56.984375 36.375 
Q 56.984375 17.96875 50.515625 8.265625 
Q 44.046875 -1.421875 31.78125 -1.421875 
Q 19.53125 -1.421875 13.0625 8.265625 
Q 6.59375 17.96875 6.59375 36.375 
Q 6.59375 54.828125 13.0625 64.515625 
Q 19.53125 74.21875 31.78125 74.21875 
z
" id="DejaVuSans-30"/>
      </defs>
      <g transform="translate(73.459375 305.897656)scale(0.15 -0.15)">
       <use xlink:href="#DejaVuSans-30"/>
      </g>
     </g>
    </g>
    <g id="xtick_2">
     <g id="line2d_3">
      <path clip-path="url(#pe8ced7fee8)" d="M 130.218828 285 
L 130.218828 13.2 
" style="fill:none;stroke:#b0b0b0;stroke-linecap:square;stroke-width:0.8;"/>
     </g>
     <g id="line2d_4">
      <g>
       <use x="130.218828" xlink:href="#m6144561c14" y="285"/>
      </g>
     </g>
     <g id="text_2">
      <!-- 1 -->
      <defs>
       <path d="M 12.40625 8.296875 
L 28.515625 8.296875 
L 28.515625 63.921875 
L 10.984375 60.40625 
L 10.984375 69.390625 
L 28.421875 72.90625 
L 38.28125 72.90625 
L 38.28125 8.296875 
L 54.390625 8.296875 
L 54.390625 0 
L 12.40625 0 
z
" id="DejaVuSans-31"/>
      </defs>
      <g transform="translate(125.446953 305.897656)scale(0.15 -0.15)">
       <use xlink:href="#DejaVuSans-31"/>
      </g>
     </g>
    </g>
    <g id="xtick_3">
     <g id="line2d_5">
      <path clip-path="url(#pe8ced7fee8)" d="M 182.206405 285 
L 182.206405 13.2 
" style="fill:none;stroke:#b0b0b0;stroke-linecap:square;stroke-width:0.8;"/>
     </g>
     <g id="line2d_6">
      <g>
       <use x="182.206405" xlink:href="#m6144561c14" y="285"/>
      </g>
     </g>
     <g id="text_3">
      <!-- 2 -->
      <defs>
       <path d="M 19.1875 8.296875 
L 53.609375 8.296875 
L 53.609375 0 
L 7.328125 0 
L 7.328125 8.296875 
Q 12.9375 14.109375 22.625 23.890625 
Q 32.328125 33.6875 34.8125 36.53125 
Q 39.546875 41.84375 41.421875 45.53125 
Q 43.3125 49.21875 43.3125 52.78125 
Q 43.3125 58.59375 39.234375 62.25 
Q 35.15625 65.921875 28.609375 65.921875 
Q 23.96875 65.921875 18.8125 64.3125 
Q 13.671875 62.703125 7.8125 59.421875 
L 7.8125 69.390625 
Q 13.765625 71.78125 18.9375 73 
Q 24.125 74.21875 28.421875 74.21875 
Q 39.75 74.21875 46.484375 68.546875 
Q 53.21875 62.890625 53.21875 53.421875 
Q 53.21875 48.921875 51.53125 44.890625 
Q 49.859375 40.875 45.40625 35.40625 
Q 44.1875 33.984375 37.640625 27.21875 
Q 31.109375 20.453125 19.1875 8.296875 
z
" id="DejaVuSans-32"/>
      </defs>
      <g transform="translate(177.43453 305.897656)scale(0.15 -0.15)">
       <use xlink:href="#DejaVuSans-32"/>
      </g>
     </g>
    </g>
    <g id="xtick_4">
     <g id="line2d_7">
      <path clip-path="url(#pe8ced7fee8)" d="M 234.193983 285 
L 234.193983 13.2 
" style="fill:none;stroke:#b0b0b0;stroke-linecap:square;stroke-width:0.8;"/>
     </g>
     <g id="line2d_8">
      <g>
       <use x="234.193983" xlink:href="#m6144561c14" y="285"/>
      </g>
     </g>
     <g id="text_4">
      <!-- 3 -->
      <defs>
       <path d="M 40.578125 39.3125 
Q 47.65625 37.796875 51.625 33 
Q 55.609375 28.21875 55.609375 21.1875 
Q 55.609375 10.40625 48.1875 4.484375 
Q 40.765625 -1.421875 27.09375 -1.421875 
Q 22.515625 -1.421875 17.65625 -0.515625 
Q 12.796875 0.390625 7.625 2.203125 
L 7.625 11.71875 
Q 11.71875 9.328125 16.59375 8.109375 
Q 21.484375 6.890625 26.8125 6.890625 
Q 36.078125 6.890625 40.9375 10.546875 
Q 45.796875 14.203125 45.796875 21.1875 
Q 45.796875 27.640625 41.28125 31.265625 
Q 36.765625 34.90625 28.71875 34.90625 
L 20.21875 34.90625 
L 20.21875 43.015625 
L 29.109375 43.015625 
Q 36.375 43.015625 40.234375 45.921875 
Q 44.09375 48.828125 44.09375 54.296875 
Q 44.09375 59.90625 40.109375 62.90625 
Q 36.140625 65.921875 28.71875 65.921875 
Q 24.65625 65.921875 20.015625 65.03125 
Q 15.375 64.15625 9.8125 62.3125 
L 9.8125 71.09375 
Q 15.4375 72.65625 20.34375 73.4375 
Q 25.25 74.21875 29.59375 74.21875 
Q 40.828125 74.21875 47.359375 69.109375 
Q 53.90625 64.015625 53.90625 55.328125 
Q 53.90625 49.265625 50.4375 45.09375 
Q 46.96875 40.921875 40.578125 39.3125 
z
" id="DejaVuSans-33"/>
      </defs>
      <g transform="translate(229.422108 305.897656)scale(0.15 -0.15)">
       <use xlink:href="#DejaVuSans-33"/>
      </g>
     </g>
    </g>
    <g id="xtick_5">
     <g id="line2d_9">
      <path clip-path="url(#pe8ced7fee8)" d="M 286.181561 285 
L 286.181561 13.2 
" style="fill:none;stroke:#b0b0b0;stroke-linecap:square;stroke-width:0.8;"/>
     </g>
     <g id="line2d_10">
      <g>
       <use x="286.181561" xlink:href="#m6144561c14" y="285"/>
      </g>
     </g>
     <g id="text_5">
      <!-- 4 -->
      <defs>
       <path d="M 37.796875 64.3125 
L 12.890625 25.390625 
L 37.796875 25.390625 
z
M 35.203125 72.90625 
L 47.609375 72.90625 
L 47.609375 25.390625 
L 58.015625 25.390625 
L 58.015625 17.1875 
L 47.609375 17.1875 
L 47.609375 0 
L 37.796875 0 
L 37.796875 17.1875 
L 4.890625 17.1875 
L 4.890625 26.703125 
z
" id="DejaVuSans-34"/>
      </defs>
      <g transform="translate(281.409686 305.897656)scale(0.15 -0.15)">
       <use xlink:href="#DejaVuSans-34"/>
      </g>
     </g>
    </g>
    <g id="xtick_6">
     <g id="line2d_11">
      <path clip-path="url(#pe8ced7fee8)" d="M 338.169138 285 
L 338.169138 13.2 
" style="fill:none;stroke:#b0b0b0;stroke-linecap:square;stroke-width:0.8;"/>
     </g>
     <g id="line2d_12">
      <g>
       <use x="338.169138" xlink:href="#m6144561c14" y="285"/>
      </g>
     </g>
     <g id="text_6">
      <!-- 5 -->
      <defs>
       <path d="M 10.796875 72.90625 
L 49.515625 72.90625 
L 49.515625 64.59375 
L 19.828125 64.59375 
L 19.828125 46.734375 
Q 21.96875 47.46875 24.109375 47.828125 
Q 26.265625 48.1875 28.421875 48.1875 
Q 40.625 48.1875 47.75 41.5 
Q 54.890625 34.8125 54.890625 23.390625 
Q 54.890625 11.625 47.5625 5.09375 
Q 40.234375 -1.421875 26.90625 -1.421875 
Q 22.3125 -1.421875 17.546875 -0.640625 
Q 12.796875 0.140625 7.71875 1.703125 
L 7.71875 11.625 
Q 12.109375 9.234375 16.796875 8.0625 
Q 21.484375 6.890625 26.703125 6.890625 
Q 35.15625 6.890625 40.078125 11.328125 
Q 45.015625 15.765625 45.015625 23.390625 
Q 45.015625 31 40.078125 35.4375 
Q 35.15625 39.890625 26.703125 39.890625 
Q 22.75 39.890625 18.8125 39.015625 
Q 14.890625 38.140625 10.796875 36.28125 
z
" id="DejaVuSans-35"/>
      </defs>
      <g transform="translate(333.397263 305.897656)scale(0.15 -0.15)">
       <use xlink:href="#DejaVuSans-35"/>
      </g>
     </g>
    </g>
    <g id="xtick_7">
     <g id="line2d_13">
      <path clip-path="url(#pe8ced7fee8)" d="M 390.156716 285 
L 390.156716 13.2 
" style="fill:none;stroke:#b0b0b0;stroke-linecap:square;stroke-width:0.8;"/>
     </g>
     <g id="line2d_14">
      <g>
       <use x="390.156716" xlink:href="#m6144561c14" y="285"/>
      </g>
     </g>
     <g id="text_7">
      <!-- 6 -->
      <defs>
       <path d="M 33.015625 40.375 
Q 26.375 40.375 22.484375 35.828125 
Q 18.609375 31.296875 18.609375 23.390625 
Q 18.609375 15.53125 22.484375 10.953125 
Q 26.375 6.390625 33.015625 6.390625 
Q 39.65625 6.390625 43.53125 10.953125 
Q 47.40625 15.53125 47.40625 23.390625 
Q 47.40625 31.296875 43.53125 35.828125 
Q 39.65625 40.375 33.015625 40.375 
z
M 52.59375 71.296875 
L 52.59375 62.3125 
Q 48.875 64.0625 45.09375 64.984375 
Q 41.3125 65.921875 37.59375 65.921875 
Q 27.828125 65.921875 22.671875 59.328125 
Q 17.53125 52.734375 16.796875 39.40625 
Q 19.671875 43.65625 24.015625 45.921875 
Q 28.375 48.1875 33.59375 48.1875 
Q 44.578125 48.1875 50.953125 41.515625 
Q 57.328125 34.859375 57.328125 23.390625 
Q 57.328125 12.15625 50.6875 5.359375 
Q 44.046875 -1.421875 33.015625 -1.421875 
Q 20.359375 -1.421875 13.671875 8.265625 
Q 6.984375 17.96875 6.984375 36.375 
Q 6.984375 53.65625 15.1875 63.9375 
Q 23.390625 74.21875 37.203125 74.21875 
Q 40.921875 74.21875 44.703125 73.484375 
Q 48.484375 72.75 52.59375 71.296875 
z
" id="DejaVuSans-36"/>
      </defs>
      <g transform="translate(385.384841 305.897656)scale(0.15 -0.15)">
       <use xlink:href="#DejaVuSans-36"/>
      </g>
     </g>
    </g>
    <g id="xtick_8">
     <g id="line2d_15">
      <path clip-path="url(#pe8ced7fee8)" d="M 442.144293 285 
L 442.144293 13.2 
" style="fill:none;stroke:#b0b0b0;stroke-linecap:square;stroke-width:0.8;"/>
     </g>
     <g id="line2d_16">
      <g>
       <use x="442.144293" xlink:href="#m6144561c14" y="285"/>
      </g>
     </g>
     <g id="text_8">
      <!-- 7 -->
      <defs>
       <path d="M 8.203125 72.90625 
L 55.078125 72.90625 
L 55.078125 68.703125 
L 28.609375 0 
L 18.3125 0 
L 43.21875 64.59375 
L 8.203125 64.59375 
z
" id="DejaVuSans-37"/>
      </defs>
      <g transform="translate(437.372418 305.897656)scale(0.15 -0.15)">
       <use xlink:href="#DejaVuSans-37"/>
      </g>
     </g>
    </g>
    <g id="text_9">
     <!-- $t/\tau$ -->
     <defs>
      <path d="M 42.28125 54.6875 
L 40.921875 47.703125 
L 23 47.703125 
L 17.1875 18.015625 
Q 16.890625 16.359375 16.75 15.234375 
Q 16.609375 14.109375 16.609375 13.484375 
Q 16.609375 10.359375 18.484375 8.9375 
Q 20.359375 7.515625 24.515625 7.515625 
L 33.59375 7.515625 
L 32.078125 0 
L 23.484375 0 
Q 15.484375 0 11.546875 3.125 
Q 7.625 6.25 7.625 12.59375 
Q 7.625 13.71875 7.765625 15.0625 
Q 7.90625 16.40625 8.203125 18.015625 
L 14.015625 47.703125 
L 6.390625 47.703125 
L 7.8125 54.6875 
L 15.28125 54.6875 
L 18.3125 70.21875 
L 27.296875 70.21875 
L 24.3125 54.6875 
z
" id="DejaVuSans-Oblique-74"/>
      <path d="M 25.390625 72.90625 
L 33.6875 72.90625 
L 8.296875 -9.28125 
L 0 -9.28125 
z
" id="DejaVuSans-2f"/>
      <path d="M 32.859375 9.96875 
Q 34.1875 7.625 39.453125 7.625 
L 43.75 7.625 
L 42.28125 0 
L 36.921875 0 
Q 28.125 0 25 4.6875 
Q 21.921875 9.46875 23.96875 19.828125 
L 29 45.703125 
L 8.453125 45.703125 
L 10.203125 54.6875 
L 60.640625 54.6875 
L 58.890625 45.703125 
L 38.1875 45.703125 
L 33.015625 19.28125 
Q 31.640625 12.203125 32.859375 9.96875 
z
" id="DejaVuSans-Oblique-3c4"/>
     </defs>
     <g transform="translate(246.787772 328.214063)scale(0.2 -0.2)">
      <use transform="translate(0 0.09375)" xlink:href="#DejaVuSans-Oblique-74"/>
      <use transform="translate(39.208984 0.09375)" xlink:href="#DejaVuSans-2f"/>
      <use transform="translate(72.900391 0.09375)" xlink:href="#DejaVuSans-Oblique-3c4"/>
     </g>
    </g>
   </g>
   <g id="matplotlib.axis_2">
    <g id="ytick_1">
     <g id="line2d_17">
      <path clip-path="url(#pe8ced7fee8)" d="M 78.23125 272.645455 
L 442.144293 272.645455 
" style="fill:none;stroke:#b0b0b0;stroke-linecap:square;stroke-width:0.8;"/>
     </g>
     <g id="line2d_18">
      <defs>
       <path d="M 0 0 
L -6 0 
" id="m2916a2877b"/>
      </defs>
      <g>
       <use x="78.23125" xlink:href="#m2916a2877b" y="272.645455"/>
      </g>
     </g>
     <g id="text_10">
      <!-- 500 -->
      <g transform="translate(40.1 278.344283)scale(0.15 -0.15)">
       <use xlink:href="#DejaVuSans-35"/>
       <use x="63.623047" xlink:href="#DejaVuSans-30"/>
       <use x="127.246094" xlink:href="#DejaVuSans-30"/>
      </g>
     </g>
    </g>
    <g id="ytick_2">
     <g id="line2d_19">
      <path clip-path="url(#pe8ced7fee8)" d="M 78.23125 223.213026 
L 442.144293 223.213026 
" style="fill:none;stroke:#b0b0b0;stroke-linecap:square;stroke-width:0.8;"/>
     </g>
     <g id="line2d_20">
      <g>
       <use x="78.23125" xlink:href="#m2916a2877b" y="223.213026"/>
      </g>
     </g>
     <g id="text_11">
      <!-- 600 -->
      <g transform="translate(40.1 228.911854)scale(0.15 -0.15)">
       <use xlink:href="#DejaVuSans-36"/>
       <use x="63.623047" xlink:href="#DejaVuSans-30"/>
       <use x="127.246094" xlink:href="#DejaVuSans-30"/>
      </g>
     </g>
    </g>
    <g id="ytick_3">
     <g id="line2d_21">
      <path clip-path="url(#pe8ced7fee8)" d="M 78.23125 173.780597 
L 442.144293 173.780597 
" style="fill:none;stroke:#b0b0b0;stroke-linecap:square;stroke-width:0.8;"/>
     </g>
     <g id="line2d_22">
      <g>
       <use x="78.23125" xlink:href="#m2916a2877b" y="173.780597"/>
      </g>
     </g>
     <g id="text_12">
      <!-- 700 -->
      <g transform="translate(40.1 179.479425)scale(0.15 -0.15)">
       <use xlink:href="#DejaVuSans-37"/>
       <use x="63.623047" xlink:href="#DejaVuSans-30"/>
       <use x="127.246094" xlink:href="#DejaVuSans-30"/>
      </g>
     </g>
    </g>
    <g id="ytick_4">
     <g id="line2d_23">
      <path clip-path="url(#pe8ced7fee8)" d="M 78.23125 124.348168 
L 442.144293 124.348168 
" style="fill:none;stroke:#b0b0b0;stroke-linecap:square;stroke-width:0.8;"/>
     </g>
     <g id="line2d_24">
      <g>
       <use x="78.23125" xlink:href="#m2916a2877b" y="124.348168"/>
      </g>
     </g>
     <g id="text_13">
      <!-- 800 -->
      <defs>
       <path d="M 31.78125 34.625 
Q 24.75 34.625 20.71875 30.859375 
Q 16.703125 27.09375 16.703125 20.515625 
Q 16.703125 13.921875 20.71875 10.15625 
Q 24.75 6.390625 31.78125 6.390625 
Q 38.8125 6.390625 42.859375 10.171875 
Q 46.921875 13.96875 46.921875 20.515625 
Q 46.921875 27.09375 42.890625 30.859375 
Q 38.875 34.625 31.78125 34.625 
z
M 21.921875 38.8125 
Q 15.578125 40.375 12.03125 44.71875 
Q 8.5 49.078125 8.5 55.328125 
Q 8.5 64.0625 14.71875 69.140625 
Q 20.953125 74.21875 31.78125 74.21875 
Q 42.671875 74.21875 48.875 69.140625 
Q 55.078125 64.0625 55.078125 55.328125 
Q 55.078125 49.078125 51.53125 44.71875 
Q 48 40.375 41.703125 38.8125 
Q 48.828125 37.15625 52.796875 32.3125 
Q 56.78125 27.484375 56.78125 20.515625 
Q 56.78125 9.90625 50.3125 4.234375 
Q 43.84375 -1.421875 31.78125 -1.421875 
Q 19.734375 -1.421875 13.25 4.234375 
Q 6.78125 9.90625 6.78125 20.515625 
Q 6.78125 27.484375 10.78125 32.3125 
Q 14.796875 37.15625 21.921875 38.8125 
z
M 18.3125 54.390625 
Q 18.3125 48.734375 21.84375 45.5625 
Q 25.390625 42.390625 31.78125 42.390625 
Q 38.140625 42.390625 41.71875 45.5625 
Q 45.3125 48.734375 45.3125 54.390625 
Q 45.3125 60.0625 41.71875 63.234375 
Q 38.140625 66.40625 31.78125 66.40625 
Q 25.390625 66.40625 21.84375 63.234375 
Q 18.3125 60.0625 18.3125 54.390625 
z
" id="DejaVuSans-38"/>
      </defs>
      <g transform="translate(40.1 130.046996)scale(0.15 -0.15)">
       <use xlink:href="#DejaVuSans-38"/>
       <use x="63.623047" xlink:href="#DejaVuSans-30"/>
       <use x="127.246094" xlink:href="#DejaVuSans-30"/>
      </g>
     </g>
    </g>
    <g id="ytick_5">
     <g id="line2d_25">
      <path clip-path="url(#pe8ced7fee8)" d="M 78.23125 74.915739 
L 442.144293 74.915739 
" style="fill:none;stroke:#b0b0b0;stroke-linecap:square;stroke-width:0.8;"/>
     </g>
     <g id="line2d_26">
      <g>
       <use x="78.23125" xlink:href="#m2916a2877b" y="74.915739"/>
      </g>
     </g>
     <g id="text_14">
      <!-- 900 -->
      <defs>
       <path d="M 10.984375 1.515625 
L 10.984375 10.5 
Q 14.703125 8.734375 18.5 7.8125 
Q 22.3125 6.890625 25.984375 6.890625 
Q 35.75 6.890625 40.890625 13.453125 
Q 46.046875 20.015625 46.78125 33.40625 
Q 43.953125 29.203125 39.59375 26.953125 
Q 35.25 24.703125 29.984375 24.703125 
Q 19.046875 24.703125 12.671875 31.3125 
Q 6.296875 37.9375 6.296875 49.421875 
Q 6.296875 60.640625 12.9375 67.421875 
Q 19.578125 74.21875 30.609375 74.21875 
Q 43.265625 74.21875 49.921875 64.515625 
Q 56.59375 54.828125 56.59375 36.375 
Q 56.59375 19.140625 48.40625 8.859375 
Q 40.234375 -1.421875 26.421875 -1.421875 
Q 22.703125 -1.421875 18.890625 -0.6875 
Q 15.09375 0.046875 10.984375 1.515625 
z
M 30.609375 32.421875 
Q 37.25 32.421875 41.125 36.953125 
Q 45.015625 41.5 45.015625 49.421875 
Q 45.015625 57.28125 41.125 61.84375 
Q 37.25 66.40625 30.609375 66.40625 
Q 23.96875 66.40625 20.09375 61.84375 
Q 16.21875 57.28125 16.21875 49.421875 
Q 16.21875 41.5 20.09375 36.953125 
Q 23.96875 32.421875 30.609375 32.421875 
z
" id="DejaVuSans-39"/>
      </defs>
      <g transform="translate(40.1 80.614567)scale(0.15 -0.15)">
       <use xlink:href="#DejaVuSans-39"/>
       <use x="63.623047" xlink:href="#DejaVuSans-30"/>
       <use x="127.246094" xlink:href="#DejaVuSans-30"/>
      </g>
     </g>
    </g>
    <g id="ytick_6">
     <g id="line2d_27">
      <path clip-path="url(#pe8ced7fee8)" d="M 78.23125 25.48331 
L 442.144293 25.48331 
" style="fill:none;stroke:#b0b0b0;stroke-linecap:square;stroke-width:0.8;"/>
     </g>
     <g id="line2d_28">
      <g>
       <use x="78.23125" xlink:href="#m2916a2877b" y="25.48331"/>
      </g>
     </g>
     <g id="text_15">
      <!-- 1000 -->
      <g transform="translate(30.55625 31.182138)scale(0.15 -0.15)">
       <use xlink:href="#DejaVuSans-31"/>
       <use x="63.623047" xlink:href="#DejaVuSans-30"/>
       <use x="127.246094" xlink:href="#DejaVuSans-30"/>
       <use x="190.869141" xlink:href="#DejaVuSans-30"/>
      </g>
     </g>
    </g>
    <g id="text_16">
     <!-- $p$ -->
     <defs>
      <path d="M 49.609375 33.6875 
Q 49.609375 40.875 46.484375 44.671875 
Q 43.359375 48.484375 37.5 48.484375 
Q 33.5 48.484375 29.859375 46.4375 
Q 26.21875 44.390625 23.390625 40.484375 
Q 20.609375 36.625 18.9375 31.15625 
Q 17.28125 25.6875 17.28125 20.3125 
Q 17.28125 13.484375 20.40625 9.796875 
Q 23.53125 6.109375 29.296875 6.109375 
Q 33.546875 6.109375 37.1875 8.109375 
Q 40.828125 10.109375 43.40625 13.921875 
Q 46.1875 17.921875 47.890625 23.34375 
Q 49.609375 28.765625 49.609375 33.6875 
z
M 21.78125 46.390625 
Q 25.390625 51.125 30.296875 53.5625 
Q 35.203125 56 41.21875 56 
Q 49.609375 56 54.25 50.5 
Q 58.890625 45.015625 58.890625 35.109375 
Q 58.890625 27 56 19.65625 
Q 53.125 12.3125 47.703125 6.5 
Q 44.09375 2.640625 39.546875 0.609375 
Q 35.015625 -1.421875 29.984375 -1.421875 
Q 24.171875 -1.421875 20.21875 1 
Q 16.265625 3.421875 14.3125 8.203125 
L 8.6875 -20.796875 
L -0.296875 -20.796875 
L 14.40625 54.6875 
L 23.390625 54.6875 
z
" id="DejaVuSans-Oblique-70"/>
     </defs>
     <g transform="translate(22.35625 155.5)rotate(-90)scale(0.2 -0.2)">
      <use xlink:href="#DejaVuSans-Oblique-70"/>
     </g>
    </g>
   </g>
   <g id="line2d_29">
    <path clip-path="url(#pe8ced7fee8)" d="M 78.23125 272.645455 
L 83.430008 269.557113 
L 88.628766 262.145275 
L 93.827523 252.134153 
L 99.026281 240.734069 
L 104.225039 228.99092 
L 109.423797 217.008887 
L 114.622554 205.17562 
L 119.821312 193.887228 
L 125.02007 183.147446 
L 130.218828 172.871221 
L 135.417585 163.109128 
L 140.616343 153.916383 
L 145.815101 145.390851 
L 151.013859 137.397655 
L 156.212616 130.057995 
L 161.411374 123.23237 
L 166.610132 116.957174 
L 171.80889 110.965568 
L 177.007648 105.433489 
L 182.206405 100.148315 
L 187.405163 95.146854 
L 192.603921 90.74522 
L 197.802679 86.823544 
L 203.001436 82.979761 
L 208.200194 79.342239 
L 213.398952 76.003098 
L 218.59771 72.923771 
L 223.796467 69.979739 
L 228.995225 67.186418 
L 234.193983 64.345806 
L 239.392741 61.689966 
L 244.591498 59.267685 
L 249.790256 56.765123 
L 254.989014 54.655724 
L 260.187772 52.492848 
L 265.38653 50.422557 
L 270.585287 48.587559 
L 275.784045 47.068113 
L 280.982803 45.463646 
L 286.181561 43.956272 
L 291.380318 42.65858 
L 296.579076 41.486401 
L 301.777834 40.352181 
L 306.976592 39.115774 
L 312.175349 37.944536 
L 317.374107 37.127634 
L 322.572865 36.732982 
L 327.771623 36.61121 
L 332.97038 36.306342 
L 338.169138 35.786507 
L 343.367896 35.227548 
L 348.566654 34.704882 
L 353.765411 34.002197 
L 358.964169 33.408737 
L 364.162927 32.960278 
L 369.361685 32.746979 
L 374.560443 32.44618 
L 379.7592 32.058952 
L 384.957958 31.744 
L 390.156716 31.450575 
L 395.355474 31.243903 
L 400.554231 30.771489 
L 405.752989 30.240866 
L 410.951747 29.87018 
L 416.150505 29.463054 
L 421.349262 29.047727 
L 426.54802 28.718303 
L 431.746778 28.361799 
L 436.945536 27.979596 
" style="fill:none;stroke:#1f77b4;stroke-linecap:square;stroke-width:3;"/>
   </g>
   <g id="line2d_30">
    <path clip-path="url(#pe8ced7fee8)" d="M 78.23125 272.645455 
L 83.430008 268.927985 
L 88.628766 261.447604 
L 93.827523 252.166168 
L 99.026281 239.530372 
L 104.225039 226.655495 
L 109.423797 213.798353 
L 114.622554 201.000664 
L 119.821312 188.757776 
L 125.02007 175.105008 
L 130.218828 165.611417 
L 135.417585 154.42168 
L 140.616343 145.364994 
L 145.815101 136.276166 
L 151.013859 129.334676 
L 156.212616 121.507496 
L 161.411374 116.254844 
L 166.610132 110.639247 
L 171.80889 103.813605 
L 177.007648 98.856438 
L 182.206405 92.785752 
L 187.405163 88.161489 
L 192.603921 83.331147 
L 197.802679 77.976919 
L 203.001436 75.074449 
L 208.200194 71.482659 
L 213.398952 68.40668 
L 218.59771 65.436912 
L 223.796467 62.095536 
L 228.995225 59.322525 
L 234.193983 57.060373 
L 239.392741 54.288381 
L 244.591498 51.864068 
L 249.790256 50.709026 
L 254.989014 48.650901 
L 260.187772 47.054601 
L 265.38653 45.923474 
L 270.585287 45.071963 
L 275.784045 44.363037 
L 280.982803 42.82972 
L 286.181561 42.195679 
L 291.380318 40.603477 
L 296.579076 39.360197 
L 301.777834 38.327595 
L 306.976592 37.265994 
L 312.175349 36.662844 
L 317.374107 34.989104 
L 322.572865 33.960789 
L 327.771623 33.656739 
L 332.97038 33.456085 
L 338.169138 33.182429 
L 343.367896 33.523473 
L 348.566654 33.132635 
L 353.765411 31.713377 
L 358.964169 31.041507 
L 364.162927 30.690305 
L 369.361685 30.451172 
L 374.560443 29.997366 
L 379.7592 29.824701 
L 384.957958 29.339315 
L 390.156716 29.058772 
L 395.355474 28.800415 
L 400.554231 28.957309 
L 405.752989 28.742097 
L 410.951747 28.354709 
L 416.150505 28.231485 
L 421.349262 27.87486 
L 426.54802 27.428329 
L 431.746778 27.123794 
L 436.945536 26.800314 
" style="fill:none;stroke:#ff7f0e;stroke-linecap:square;stroke-width:3;"/>
   </g>
   <g id="line2d_31">
    <path clip-path="url(#pe8ced7fee8)" d="M 78.23125 272.645455 
L 83.430008 269.148394 
L 88.628766 261.539981 
L 93.827523 251.802394 
L 99.026281 239.914431 
L 104.225039 227.313976 
L 109.423797 215.616312 
L 114.622554 203.544407 
L 119.821312 191.830958 
L 125.02007 179.664378 
L 130.218828 168.491473 
L 135.417585 157.66485 
L 140.616343 147.186601 
L 145.815101 138.044653 
L 151.013859 130.264957 
L 156.212616 123.044051 
L 161.411374 116.873247 
L 166.610132 110.514966 
L 171.80889 104.020513 
L 177.007648 98.90491 
L 182.206405 94.062787 
L 187.405163 89.634714 
L 192.603921 84.176609 
L 197.802679 79.638365 
L 203.001436 76.203289 
L 208.200194 72.524283 
L 213.398952 69.351908 
L 218.59771 66.327616 
L 223.796467 63.598044 
L 228.995225 60.65405 
L 234.193983 58.142159 
L 239.392741 55.801598 
L 244.591498 53.281775 
L 249.790256 52.166368 
L 254.989014 49.943355 
L 260.187772 48.129674 
L 265.38653 46.907863 
L 270.585287 45.474663 
L 275.784045 44.518852 
L 280.982803 43.176796 
L 286.181561 42.745858 
L 291.380318 41.367085 
L 296.579076 39.682515 
L 301.777834 38.819814 
L 306.976592 37.692119 
L 312.175349 36.841885 
L 317.374107 35.164231 
L 322.572865 34.292083 
L 327.771623 33.874267 
L 332.97038 33.607991 
L 338.169138 33.358877 
L 343.367896 33.367019 
L 348.566654 32.993501 
L 353.765411 31.64088 
L 358.964169 30.8132 
L 364.162927 30.409919 
L 369.361685 30.079303 
L 374.560443 29.655354 
L 379.7592 29.543134 
L 384.957958 28.975585 
L 390.156716 28.866743 
L 395.355474 28.661905 
L 400.554231 28.760868 
L 405.752989 28.674786 
L 410.951747 28.347282 
L 416.150505 28.295588 
L 421.349262 27.960844 
L 426.54802 27.556028 
L 431.746778 27.308286 
L 436.945536 27.010371 
" style="fill:none;stroke:#2ca02c;stroke-linecap:square;stroke-width:3;"/>
   </g>
   <g id="patch_3">
    <path d="M 78.23125 285 
L 78.23125 13.2 
" style="fill:none;stroke:#000000;stroke-linecap:square;stroke-linejoin:miter;stroke-width:2;"/>
   </g>
   <g id="patch_4">
    <path d="M 442.144293 285 
L 442.144293 13.2 
" style="fill:none;"/>
   </g>
   <g id="patch_5">
    <path d="M 78.23125 285 
L 442.144293 285 
" style="fill:none;stroke:#000000;stroke-linecap:square;stroke-linejoin:miter;stroke-width:2;"/>
   </g>
   <g id="patch_6">
    <path d="M 78.23125 13.2 
L 442.144293 13.2 
" style="fill:none;"/>
   </g>
   <g id="legend_1">
    <g id="patch_7">
     <path d="M 221.60445 277.5 
L 431.644293 277.5 
Q 434.644293 277.5 434.644293 274.5 
L 434.644293 209.948438 
Q 434.644293 206.948438 431.644293 206.948438 
L 221.60445 206.948438 
Q 218.60445 206.948438 218.60445 209.948438 
L 218.60445 274.5 
Q 218.60445 277.5 221.60445 277.5 
z
" style="fill:#ffffff;opacity:0.8;stroke:#cccccc;stroke-linejoin:miter;"/>
    </g>
    <g id="line2d_32">
     <path d="M 224.60445 219.096094 
L 254.60445 219.096094 
" style="fill:none;stroke:#1f77b4;stroke-linecap:square;stroke-width:3;"/>
    </g>
    <g id="line2d_33"/>
    <g id="text_17">
     <!-- Single Lineage -->
     <defs>
      <path d="M 53.515625 70.515625 
L 53.515625 60.890625 
Q 47.90625 63.578125 42.921875 64.890625 
Q 37.9375 66.21875 33.296875 66.21875 
Q 25.25 66.21875 20.875 63.09375 
Q 16.5 59.96875 16.5 54.203125 
Q 16.5 49.359375 19.40625 46.890625 
Q 22.3125 44.4375 30.421875 42.921875 
L 36.375 41.703125 
Q 47.40625 39.59375 52.65625 34.296875 
Q 57.90625 29 57.90625 20.125 
Q 57.90625 9.515625 50.796875 4.046875 
Q 43.703125 -1.421875 29.984375 -1.421875 
Q 24.8125 -1.421875 18.96875 -0.25 
Q 13.140625 0.921875 6.890625 3.21875 
L 6.890625 13.375 
Q 12.890625 10.015625 18.65625 8.296875 
Q 24.421875 6.59375 29.984375 6.59375 
Q 38.421875 6.59375 43.015625 9.90625 
Q 47.609375 13.234375 47.609375 19.390625 
Q 47.609375 24.75 44.3125 27.78125 
Q 41.015625 30.8125 33.5 32.328125 
L 27.484375 33.5 
Q 16.453125 35.6875 11.515625 40.375 
Q 6.59375 45.0625 6.59375 53.421875 
Q 6.59375 63.09375 13.40625 68.65625 
Q 20.21875 74.21875 32.171875 74.21875 
Q 37.3125 74.21875 42.625 73.28125 
Q 47.953125 72.359375 53.515625 70.515625 
z
" id="DejaVuSans-53"/>
      <path d="M 9.421875 54.6875 
L 18.40625 54.6875 
L 18.40625 0 
L 9.421875 0 
z
M 9.421875 75.984375 
L 18.40625 75.984375 
L 18.40625 64.59375 
L 9.421875 64.59375 
z
" id="DejaVuSans-69"/>
      <path d="M 54.890625 33.015625 
L 54.890625 0 
L 45.90625 0 
L 45.90625 32.71875 
Q 45.90625 40.484375 42.875 44.328125 
Q 39.84375 48.1875 33.796875 48.1875 
Q 26.515625 48.1875 22.3125 43.546875 
Q 18.109375 38.921875 18.109375 30.90625 
L 18.109375 0 
L 9.078125 0 
L 9.078125 54.6875 
L 18.109375 54.6875 
L 18.109375 46.1875 
Q 21.34375 51.125 25.703125 53.5625 
Q 30.078125 56 35.796875 56 
Q 45.21875 56 50.046875 50.171875 
Q 54.890625 44.34375 54.890625 33.015625 
z
" id="DejaVuSans-6e"/>
      <path d="M 45.40625 27.984375 
Q 45.40625 37.75 41.375 43.109375 
Q 37.359375 48.484375 30.078125 48.484375 
Q 22.859375 48.484375 18.828125 43.109375 
Q 14.796875 37.75 14.796875 27.984375 
Q 14.796875 18.265625 18.828125 12.890625 
Q 22.859375 7.515625 30.078125 7.515625 
Q 37.359375 7.515625 41.375 12.890625 
Q 45.40625 18.265625 45.40625 27.984375 
z
M 54.390625 6.78125 
Q 54.390625 -7.171875 48.1875 -13.984375 
Q 42 -20.796875 29.203125 -20.796875 
Q 24.46875 -20.796875 20.265625 -20.09375 
Q 16.0625 -19.390625 12.109375 -17.921875 
L 12.109375 -9.1875 
Q 16.0625 -11.328125 19.921875 -12.34375 
Q 23.78125 -13.375 27.78125 -13.375 
Q 36.625 -13.375 41.015625 -8.765625 
Q 45.40625 -4.15625 45.40625 5.171875 
L 45.40625 9.625 
Q 42.625 4.78125 38.28125 2.390625 
Q 33.9375 0 27.875 0 
Q 17.828125 0 11.671875 7.65625 
Q 5.515625 15.328125 5.515625 27.984375 
Q 5.515625 40.671875 11.671875 48.328125 
Q 17.828125 56 27.875 56 
Q 33.9375 56 38.28125 53.609375 
Q 42.625 51.21875 45.40625 46.390625 
L 45.40625 54.6875 
L 54.390625 54.6875 
z
" id="DejaVuSans-67"/>
      <path d="M 9.421875 75.984375 
L 18.40625 75.984375 
L 18.40625 0 
L 9.421875 0 
z
" id="DejaVuSans-6c"/>
      <path d="M 56.203125 29.59375 
L 56.203125 25.203125 
L 14.890625 25.203125 
Q 15.484375 15.921875 20.484375 11.0625 
Q 25.484375 6.203125 34.421875 6.203125 
Q 39.59375 6.203125 44.453125 7.46875 
Q 49.3125 8.734375 54.109375 11.28125 
L 54.109375 2.78125 
Q 49.265625 0.734375 44.1875 -0.34375 
Q 39.109375 -1.421875 33.890625 -1.421875 
Q 20.796875 -1.421875 13.15625 6.1875 
Q 5.515625 13.8125 5.515625 26.8125 
Q 5.515625 40.234375 12.765625 48.109375 
Q 20.015625 56 32.328125 56 
Q 43.359375 56 49.78125 48.890625 
Q 56.203125 41.796875 56.203125 29.59375 
z
M 47.21875 32.234375 
Q 47.125 39.59375 43.09375 43.984375 
Q 39.0625 48.390625 32.421875 48.390625 
Q 24.90625 48.390625 20.390625 44.140625 
Q 15.875 39.890625 15.1875 32.171875 
z
" id="DejaVuSans-65"/>
      <path id="DejaVuSans-20"/>
      <path d="M 9.8125 72.90625 
L 19.671875 72.90625 
L 19.671875 8.296875 
L 55.171875 8.296875 
L 55.171875 0 
L 9.8125 0 
z
" id="DejaVuSans-4c"/>
      <path d="M 34.28125 27.484375 
Q 23.390625 27.484375 19.1875 25 
Q 14.984375 22.515625 14.984375 16.5 
Q 14.984375 11.71875 18.140625 8.90625 
Q 21.296875 6.109375 26.703125 6.109375 
Q 34.1875 6.109375 38.703125 11.40625 
Q 43.21875 16.703125 43.21875 25.484375 
L 43.21875 27.484375 
z
M 52.203125 31.203125 
L 52.203125 0 
L 43.21875 0 
L 43.21875 8.296875 
Q 40.140625 3.328125 35.546875 0.953125 
Q 30.953125 -1.421875 24.3125 -1.421875 
Q 15.921875 -1.421875 10.953125 3.296875 
Q 6 8.015625 6 15.921875 
Q 6 25.140625 12.171875 29.828125 
Q 18.359375 34.515625 30.609375 34.515625 
L 43.21875 34.515625 
L 43.21875 35.40625 
Q 43.21875 41.609375 39.140625 45 
Q 35.0625 48.390625 27.6875 48.390625 
Q 23 48.390625 18.546875 47.265625 
Q 14.109375 46.140625 10.015625 43.890625 
L 10.015625 52.203125 
Q 14.9375 54.109375 19.578125 55.046875 
Q 24.21875 56 28.609375 56 
Q 40.484375 56 46.34375 49.84375 
Q 52.203125 43.703125 52.203125 31.203125 
z
" id="DejaVuSans-61"/>
     </defs>
     <g transform="translate(266.60445 224.346094)scale(0.15 -0.15)">
      <use xlink:href="#DejaVuSans-53"/>
      <use x="63.476562" xlink:href="#DejaVuSans-69"/>
      <use x="91.259766" xlink:href="#DejaVuSans-6e"/>
      <use x="154.638672" xlink:href="#DejaVuSans-67"/>
      <use x="218.115234" xlink:href="#DejaVuSans-6c"/>
      <use x="245.898438" xlink:href="#DejaVuSans-65"/>
      <use x="307.421875" xlink:href="#DejaVuSans-20"/>
      <use x="339.208984" xlink:href="#DejaVuSans-4c"/>
      <use x="394.921875" xlink:href="#DejaVuSans-69"/>
      <use x="422.705078" xlink:href="#DejaVuSans-6e"/>
      <use x="486.083984" xlink:href="#DejaVuSans-65"/>
      <use x="547.607422" xlink:href="#DejaVuSans-61"/>
      <use x="608.886719" xlink:href="#DejaVuSans-67"/>
      <use x="672.363281" xlink:href="#DejaVuSans-65"/>
     </g>
    </g>
    <g id="line2d_34">
     <path d="M 224.60445 241.113281 
L 254.60445 241.113281 
" style="fill:none;stroke:#ff7f0e;stroke-linecap:square;stroke-width:3;"/>
    </g>
    <g id="line2d_35"/>
    <g id="text_18">
     <!-- Population Snapshots -->
     <defs>
      <path d="M 19.671875 64.796875 
L 19.671875 37.40625 
L 32.078125 37.40625 
Q 38.96875 37.40625 42.71875 40.96875 
Q 46.484375 44.53125 46.484375 51.125 
Q 46.484375 57.671875 42.71875 61.234375 
Q 38.96875 64.796875 32.078125 64.796875 
z
M 9.8125 72.90625 
L 32.078125 72.90625 
Q 44.34375 72.90625 50.609375 67.359375 
Q 56.890625 61.8125 56.890625 51.125 
Q 56.890625 40.328125 50.609375 34.8125 
Q 44.34375 29.296875 32.078125 29.296875 
L 19.671875 29.296875 
L 19.671875 0 
L 9.8125 0 
z
" id="DejaVuSans-50"/>
      <path d="M 30.609375 48.390625 
Q 23.390625 48.390625 19.1875 42.75 
Q 14.984375 37.109375 14.984375 27.296875 
Q 14.984375 17.484375 19.15625 11.84375 
Q 23.34375 6.203125 30.609375 6.203125 
Q 37.796875 6.203125 41.984375 11.859375 
Q 46.1875 17.53125 46.1875 27.296875 
Q 46.1875 37.015625 41.984375 42.703125 
Q 37.796875 48.390625 30.609375 48.390625 
z
M 30.609375 56 
Q 42.328125 56 49.015625 48.375 
Q 55.71875 40.765625 55.71875 27.296875 
Q 55.71875 13.875 49.015625 6.21875 
Q 42.328125 -1.421875 30.609375 -1.421875 
Q 18.84375 -1.421875 12.171875 6.21875 
Q 5.515625 13.875 5.515625 27.296875 
Q 5.515625 40.765625 12.171875 48.375 
Q 18.84375 56 30.609375 56 
z
" id="DejaVuSans-6f"/>
      <path d="M 18.109375 8.203125 
L 18.109375 -20.796875 
L 9.078125 -20.796875 
L 9.078125 54.6875 
L 18.109375 54.6875 
L 18.109375 46.390625 
Q 20.953125 51.265625 25.265625 53.625 
Q 29.59375 56 35.59375 56 
Q 45.5625 56 51.78125 48.09375 
Q 58.015625 40.1875 58.015625 27.296875 
Q 58.015625 14.40625 51.78125 6.484375 
Q 45.5625 -1.421875 35.59375 -1.421875 
Q 29.59375 -1.421875 25.265625 0.953125 
Q 20.953125 3.328125 18.109375 8.203125 
z
M 48.6875 27.296875 
Q 48.6875 37.203125 44.609375 42.84375 
Q 40.53125 48.484375 33.40625 48.484375 
Q 26.265625 48.484375 22.1875 42.84375 
Q 18.109375 37.203125 18.109375 27.296875 
Q 18.109375 17.390625 22.1875 11.75 
Q 26.265625 6.109375 33.40625 6.109375 
Q 40.53125 6.109375 44.609375 11.75 
Q 48.6875 17.390625 48.6875 27.296875 
z
" id="DejaVuSans-70"/>
      <path d="M 8.5 21.578125 
L 8.5 54.6875 
L 17.484375 54.6875 
L 17.484375 21.921875 
Q 17.484375 14.15625 20.5 10.265625 
Q 23.53125 6.390625 29.59375 6.390625 
Q 36.859375 6.390625 41.078125 11.03125 
Q 45.3125 15.671875 45.3125 23.6875 
L 45.3125 54.6875 
L 54.296875 54.6875 
L 54.296875 0 
L 45.3125 0 
L 45.3125 8.40625 
Q 42.046875 3.421875 37.71875 1 
Q 33.40625 -1.421875 27.6875 -1.421875 
Q 18.265625 -1.421875 13.375 4.4375 
Q 8.5 10.296875 8.5 21.578125 
z
M 31.109375 56 
z
" id="DejaVuSans-75"/>
      <path d="M 18.3125 70.21875 
L 18.3125 54.6875 
L 36.8125 54.6875 
L 36.8125 47.703125 
L 18.3125 47.703125 
L 18.3125 18.015625 
Q 18.3125 11.328125 20.140625 9.421875 
Q 21.96875 7.515625 27.59375 7.515625 
L 36.8125 7.515625 
L 36.8125 0 
L 27.59375 0 
Q 17.1875 0 13.234375 3.875 
Q 9.28125 7.765625 9.28125 18.015625 
L 9.28125 47.703125 
L 2.6875 47.703125 
L 2.6875 54.6875 
L 9.28125 54.6875 
L 9.28125 70.21875 
z
" id="DejaVuSans-74"/>
      <path d="M 44.28125 53.078125 
L 44.28125 44.578125 
Q 40.484375 46.53125 36.375 47.5 
Q 32.28125 48.484375 27.875 48.484375 
Q 21.1875 48.484375 17.84375 46.4375 
Q 14.5 44.390625 14.5 40.28125 
Q 14.5 37.15625 16.890625 35.375 
Q 19.28125 33.59375 26.515625 31.984375 
L 29.59375 31.296875 
Q 39.15625 29.25 43.1875 25.515625 
Q 47.21875 21.78125 47.21875 15.09375 
Q 47.21875 7.46875 41.1875 3.015625 
Q 35.15625 -1.421875 24.609375 -1.421875 
Q 20.21875 -1.421875 15.453125 -0.5625 
Q 10.6875 0.296875 5.421875 2 
L 5.421875 11.28125 
Q 10.40625 8.6875 15.234375 7.390625 
Q 20.0625 6.109375 24.8125 6.109375 
Q 31.15625 6.109375 34.5625 8.28125 
Q 37.984375 10.453125 37.984375 14.40625 
Q 37.984375 18.0625 35.515625 20.015625 
Q 33.0625 21.96875 24.703125 23.78125 
L 21.578125 24.515625 
Q 13.234375 26.265625 9.515625 29.90625 
Q 5.8125 33.546875 5.8125 39.890625 
Q 5.8125 47.609375 11.28125 51.796875 
Q 16.75 56 26.8125 56 
Q 31.78125 56 36.171875 55.265625 
Q 40.578125 54.546875 44.28125 53.078125 
z
" id="DejaVuSans-73"/>
      <path d="M 54.890625 33.015625 
L 54.890625 0 
L 45.90625 0 
L 45.90625 32.71875 
Q 45.90625 40.484375 42.875 44.328125 
Q 39.84375 48.1875 33.796875 48.1875 
Q 26.515625 48.1875 22.3125 43.546875 
Q 18.109375 38.921875 18.109375 30.90625 
L 18.109375 0 
L 9.078125 0 
L 9.078125 75.984375 
L 18.109375 75.984375 
L 18.109375 46.1875 
Q 21.34375 51.125 25.703125 53.5625 
Q 30.078125 56 35.796875 56 
Q 45.21875 56 50.046875 50.171875 
Q 54.890625 44.34375 54.890625 33.015625 
z
" id="DejaVuSans-68"/>
     </defs>
     <g transform="translate(266.60445 246.363281)scale(0.15 -0.15)">
      <use xlink:href="#DejaVuSans-50"/>
      <use x="60.255859" xlink:href="#DejaVuSans-6f"/>
      <use x="121.4375" xlink:href="#DejaVuSans-70"/>
      <use x="184.914062" xlink:href="#DejaVuSans-75"/>
      <use x="248.292969" xlink:href="#DejaVuSans-6c"/>
      <use x="276.076172" xlink:href="#DejaVuSans-61"/>
      <use x="337.355469" xlink:href="#DejaVuSans-74"/>
      <use x="376.564453" xlink:href="#DejaVuSans-69"/>
      <use x="404.347656" xlink:href="#DejaVuSans-6f"/>
      <use x="465.529297" xlink:href="#DejaVuSans-6e"/>
      <use x="528.908203" xlink:href="#DejaVuSans-20"/>
      <use x="560.695312" xlink:href="#DejaVuSans-53"/>
      <use x="624.171875" xlink:href="#DejaVuSans-6e"/>
      <use x="687.550781" xlink:href="#DejaVuSans-61"/>
      <use x="748.830078" xlink:href="#DejaVuSans-70"/>
      <use x="812.306641" xlink:href="#DejaVuSans-73"/>
      <use x="864.40625" xlink:href="#DejaVuSans-68"/>
      <use x="927.785156" xlink:href="#DejaVuSans-6f"/>
      <use x="988.966797" xlink:href="#DejaVuSans-74"/>
      <use x="1028.175781" xlink:href="#DejaVuSans-73"/>
     </g>
    </g>
    <g id="line2d_36">
     <path d="M 224.60445 263.130469 
L 254.60445 263.130469 
" style="fill:none;stroke:#2ca02c;stroke-linecap:square;stroke-width:3;"/>
    </g>
    <g id="line2d_37"/>
    <g id="text_19">
     <!-- Lineage Tracking -->
     <defs>
      <path d="M -0.296875 72.90625 
L 61.375 72.90625 
L 61.375 64.59375 
L 35.5 64.59375 
L 35.5 0 
L 25.59375 0 
L 25.59375 64.59375 
L -0.296875 64.59375 
z
" id="DejaVuSans-54"/>
      <path d="M 41.109375 46.296875 
Q 39.59375 47.171875 37.8125 47.578125 
Q 36.03125 48 33.890625 48 
Q 26.265625 48 22.1875 43.046875 
Q 18.109375 38.09375 18.109375 28.8125 
L 18.109375 0 
L 9.078125 0 
L 9.078125 54.6875 
L 18.109375 54.6875 
L 18.109375 46.1875 
Q 20.953125 51.171875 25.484375 53.578125 
Q 30.03125 56 36.53125 56 
Q 37.453125 56 38.578125 55.875 
Q 39.703125 55.765625 41.0625 55.515625 
z
" id="DejaVuSans-72"/>
      <path d="M 48.78125 52.59375 
L 48.78125 44.1875 
Q 44.96875 46.296875 41.140625 47.34375 
Q 37.3125 48.390625 33.40625 48.390625 
Q 24.65625 48.390625 19.8125 42.84375 
Q 14.984375 37.3125 14.984375 27.296875 
Q 14.984375 17.28125 19.8125 11.734375 
Q 24.65625 6.203125 33.40625 6.203125 
Q 37.3125 6.203125 41.140625 7.25 
Q 44.96875 8.296875 48.78125 10.40625 
L 48.78125 2.09375 
Q 45.015625 0.34375 40.984375 -0.53125 
Q 36.96875 -1.421875 32.421875 -1.421875 
Q 20.0625 -1.421875 12.78125 6.34375 
Q 5.515625 14.109375 5.515625 27.296875 
Q 5.515625 40.671875 12.859375 48.328125 
Q 20.21875 56 33.015625 56 
Q 37.15625 56 41.109375 55.140625 
Q 45.0625 54.296875 48.78125 52.59375 
z
" id="DejaVuSans-63"/>
      <path d="M 9.078125 75.984375 
L 18.109375 75.984375 
L 18.109375 31.109375 
L 44.921875 54.6875 
L 56.390625 54.6875 
L 27.390625 29.109375 
L 57.625 0 
L 45.90625 0 
L 18.109375 26.703125 
L 18.109375 0 
L 9.078125 0 
z
" id="DejaVuSans-6b"/>
     </defs>
     <g transform="translate(266.60445 268.380469)scale(0.15 -0.15)">
      <use xlink:href="#DejaVuSans-4c"/>
      <use x="55.712891" xlink:href="#DejaVuSans-69"/>
      <use x="83.496094" xlink:href="#DejaVuSans-6e"/>
      <use x="146.875" xlink:href="#DejaVuSans-65"/>
      <use x="208.398438" xlink:href="#DejaVuSans-61"/>
      <use x="269.677734" xlink:href="#DejaVuSans-67"/>
      <use x="333.154297" xlink:href="#DejaVuSans-65"/>
      <use x="394.677734" xlink:href="#DejaVuSans-20"/>
      <use x="426.464844" xlink:href="#DejaVuSans-54"/>
      <use x="487.330078" xlink:href="#DejaVuSans-72"/>
      <use x="528.443359" xlink:href="#DejaVuSans-61"/>
      <use x="589.722656" xlink:href="#DejaVuSans-63"/>
      <use x="644.703125" xlink:href="#DejaVuSans-6b"/>
      <use x="702.613281" xlink:href="#DejaVuSans-69"/>
      <use x="730.396484" xlink:href="#DejaVuSans-6e"/>
      <use x="793.775391" xlink:href="#DejaVuSans-67"/>
     </g>
    </g>
   </g>
  </g>
  <g id="axes_2">
   <g id="patch_8">
    <path d="M 551.318207 285 
L 915.23125 285 
L 915.23125 13.2 
L 551.318207 13.2 
z
" style="fill:#ffffff;"/>
   </g>
   <g id="PolyCollection_4">
    <defs>
     <path d="M 551.318207 -66.927983 
L 551.318207 -66.927983 
L 556.516964 -68.85871 
L 561.715722 -77.341219 
L 566.91448 -93.273087 
L 572.113238 -112.608204 
L 577.311995 -130.837704 
L 582.510753 -146.312605 
L 587.709511 -156.510001 
L 592.908269 -168.141299 
L 598.107026 -192.306366 
L 603.305784 -202.638933 
L 608.504542 -206.828545 
L 613.7033 -205.208696 
L 618.902057 -218.010133 
L 624.100815 -212.199977 
L 629.299573 -214.40665 
L 634.498331 -215.448039 
L 639.697089 -213.064322 
L 644.895846 -207.617759 
L 650.094604 -202.575376 
L 655.293362 -196.983951 
L 660.49212 -190.679259 
L 665.690877 -181.956679 
L 670.889635 -178.440584 
L 676.088393 -177.180727 
L 681.287151 -174.813436 
L 686.485908 -171.669836 
L 691.684666 -171.664381 
L 696.883424 -175.290709 
L 702.082182 -177.498143 
L 707.280939 -176.740267 
L 712.479697 -179.81475 
L 717.678455 -182.077471 
L 722.877213 -182.88922 
L 728.07597 -183.835665 
L 733.274728 -184.433226 
L 738.473486 -186.910903 
L 743.672244 -187.813792 
L 748.871002 -188.292823 
L 754.069759 -184.096797 
L 759.268517 -182.511219 
L 764.467275 -183.386042 
L 769.666033 -183.499642 
L 774.86479 -184.332985 
L 780.063548 -185.458387 
L 785.262306 -186.251987 
L 790.461064 -188.62142 
L 795.659821 -189.399274 
L 800.858579 -189.186138 
L 806.057337 -187.772833 
L 811.256095 -187.887323 
L 816.454852 -188.058434 
L 821.65361 -187.574247 
L 826.852368 -188.144744 
L 832.051126 -188.566367 
L 837.249884 -190.317453 
L 842.448641 -191.801472 
L 847.647399 -191.554765 
L 852.846157 -192.59 
L 858.044915 -193.07654 
L 863.243672 -193.492588 
L 868.44243 -195.214979 
L 873.641188 -197.156245 
L 878.839946 -196.583977 
L 884.038703 -196.443141 
L 889.237461 -195.221404 
L 894.436219 -194.106953 
L 899.634977 -194.260782 
L 904.833734 -194.690112 
L 910.032492 -194.794437 
L 910.032492 -201.998629 
L 910.032492 -201.998629 
L 904.833734 -202.112576 
L 899.634977 -201.723597 
L 894.436219 -201.88835 
L 889.237461 -203.183989 
L 884.038703 -204.689956 
L 878.839946 -205.259023 
L 873.641188 -206.118596 
L 868.44243 -204.587001 
L 863.243672 -202.31203 
L 858.044915 -202.856599 
L 852.846157 -203.356188 
L 847.647399 -202.426543 
L 842.448641 -202.564334 
L 837.249884 -201.346216 
L 832.051126 -199.662821 
L 826.852368 -200.292635 
L 821.65361 -199.68033 
L 816.454852 -199.93622 
L 811.256095 -199.881174 
L 806.057337 -200.508041 
L 800.858579 -202.791197 
L 795.659821 -202.680257 
L 790.461064 -203.071732 
L 785.262306 -201.194863 
L 780.063548 -199.660986 
L 774.86479 -199.453687 
L 769.666033 -198.487444 
L 764.467275 -200.214113 
L 759.268517 -200.725607 
L 754.069759 -200.834025 
L 748.871002 -206.899658 
L 743.672244 -207.281236 
L 738.473486 -208.335649 
L 733.274728 -208.036082 
L 728.07597 -207.965861 
L 722.877213 -204.525389 
L 717.678455 -202.009119 
L 712.479697 -200.407091 
L 707.280939 -197.241969 
L 702.082182 -197.48767 
L 696.883424 -195.773117 
L 691.684666 -194.038371 
L 686.485908 -194.338311 
L 681.287151 -201.011264 
L 676.088393 -206.804905 
L 670.889635 -208.885413 
L 665.690877 -216.017082 
L 660.49212 -228.223872 
L 655.293362 -240.775154 
L 650.094604 -255.9037 
L 644.895846 -271.102458 
L 639.697089 -287.979671 
L 634.498331 -296.41523 
L 629.299573 -308.467698 
L 624.100815 -311.747758 
L 618.902057 -314.018892 
L 613.7033 -301.321013 
L 608.504542 -291.833024 
L 603.305784 -276.398078 
L 598.107026 -259.141731 
L 592.908269 -225.63222 
L 587.709511 -209.409241 
L 582.510753 -194.177457 
L 577.311995 -171.373621 
L 572.113238 -140.387083 
L 566.91448 -108.336779 
L 561.715722 -83.607851 
L 556.516964 -70.162027 
L 551.318207 -66.927983 
z
" id="m5cc656103d"/>
    </defs>
    <g clip-path="url(#p18a4b607ab)">
     <use style="fill:#ffa035;" x="0" xlink:href="#m5cc656103d" y="339.573438"/>
    </g>
   </g>
   <g id="PolyCollection_5">
    <defs>
     <path d="M 551.318207 -66.927983 
L 551.318207 -66.927983 
L 556.516964 -68.795275 
L 561.715722 -77.316472 
L 566.91448 -91.174542 
L 572.113238 -107.414016 
L 577.311995 -122.90836 
L 582.510753 -135.465074 
L 587.709511 -145.547222 
L 592.908269 -155.096467 
L 598.107026 -164.179782 
L 603.305784 -171.061671 
L 608.504542 -176.177752 
L 613.7033 -180.015412 
L 618.902057 -181.881794 
L 624.100815 -183.592123 
L 629.299573 -183.870426 
L 634.498331 -184.157553 
L 639.697089 -183.522841 
L 644.895846 -184.0945 
L 650.094604 -184.934008 
L 655.293362 -185.187084 
L 660.49212 -185.523273 
L 665.690877 -185.87355 
L 670.889635 -185.498271 
L 676.088393 -184.375722 
L 681.287151 -184.128078 
L 686.485908 -183.532732 
L 691.684666 -181.800958 
L 696.883424 -179.728732 
L 702.082182 -178.282569 
L 707.280939 -178.559421 
L 712.479697 -177.383458 
L 717.678455 -177.365559 
L 722.877213 -176.989923 
L 728.07597 -176.597619 
L 733.274728 -175.939267 
L 738.473486 -174.337302 
L 743.672244 -172.111006 
L 748.871002 -170.704625 
L 754.069759 -169.789599 
L 759.268517 -169.672263 
L 764.467275 -168.844931 
L 769.666033 -167.612382 
L 774.86479 -167.963525 
L 780.063548 -168.059423 
L 785.262306 -168.50699 
L 790.461064 -167.977775 
L 795.659821 -167.065191 
L 800.858579 -166.26748 
L 806.057337 -165.682426 
L 811.256095 -165.74279 
L 816.454852 -164.90823 
L 821.65361 -164.014103 
L 826.852368 -163.617818 
L 832.051126 -162.631733 
L 837.249884 -161.680358 
L 842.448641 -160.820436 
L 847.647399 -159.988923 
L 852.846157 -159.670883 
L 858.044915 -159.923463 
L 863.243672 -160.292411 
L 868.44243 -159.921765 
L 873.641188 -158.961416 
L 878.839946 -157.669825 
L 884.038703 -156.594225 
L 889.237461 -155.462612 
L 894.436219 -154.588284 
L 899.634977 -154.239064 
L 904.833734 -153.933006 
L 910.032492 -154.495669 
L 910.032492 -169.815017 
L 910.032492 -169.815017 
L 904.833734 -167.556948 
L 899.634977 -166.533954 
L 894.436219 -166.256803 
L 889.237461 -166.433864 
L 884.038703 -167.639825 
L 878.839946 -169.151666 
L 873.641188 -170.905855 
L 868.44243 -171.997237 
L 863.243672 -172.264241 
L 858.044915 -171.888006 
L 852.846157 -171.193546 
L 847.647399 -171.459713 
L 842.448641 -173.020177 
L 837.249884 -173.828074 
L 832.051126 -175.704289 
L 826.852368 -176.427256 
L 821.65361 -177.240414 
L 816.454852 -177.576758 
L 811.256095 -178.57646 
L 806.057337 -179.348066 
L 800.858579 -179.798647 
L 795.659821 -180.897961 
L 790.461064 -181.746471 
L 785.262306 -182.550888 
L 780.063548 -182.624809 
L 774.86479 -182.801663 
L 769.666033 -182.577763 
L 764.467275 -184.020451 
L 759.268517 -185.567994 
L 754.069759 -185.175453 
L 748.871002 -186.77427 
L 743.672244 -188.501367 
L 738.473486 -190.461494 
L 733.274728 -191.691611 
L 728.07597 -193.568156 
L 722.877213 -193.20337 
L 717.678455 -192.234053 
L 712.479697 -192.575517 
L 707.280939 -193.364352 
L 702.082182 -193.432171 
L 696.883424 -194.338766 
L 691.684666 -197.161564 
L 686.485908 -198.922701 
L 681.287151 -199.944137 
L 676.088393 -200.074253 
L 670.889635 -199.69349 
L 665.690877 -200.78787 
L 660.49212 -200.240777 
L 655.293362 -199.523918 
L 650.094604 -199.62686 
L 644.895846 -198.656548 
L 639.697089 -199.102578 
L 634.498331 -199.481126 
L 629.299573 -199.561441 
L 624.100815 -199.086017 
L 618.902057 -197.466907 
L 613.7033 -194.688655 
L 608.504542 -189.95441 
L 603.305784 -184.468267 
L 598.107026 -175.635762 
L 592.908269 -165.241221 
L 587.709511 -156.277351 
L 582.510753 -143.873783 
L 577.311995 -129.880326 
L 572.113238 -112.260074 
L 566.91448 -94.068909 
L 561.715722 -78.560245 
L 556.516964 -69.028637 
L 551.318207 -66.927983 
z
" id="ma4049ea239"/>
    </defs>
    <g clip-path="url(#p18a4b607ab)">
     <use style="fill:#4db8ff;" x="0" xlink:href="#ma4049ea239" y="339.573438"/>
    </g>
   </g>
   <g id="PolyCollection_6">
    <defs>
     <path d="M 551.318207 -66.927983 
L 551.318207 -66.927983 
L 556.516964 -66.966773 
L 561.715722 -67.616675 
L 566.91448 -68.806769 
L 572.113238 -71.496506 
L 577.311995 -74.953634 
L 582.510753 -78.453524 
L 587.709511 -80.830573 
L 592.908269 -86.500375 
L 598.107026 -88.985806 
L 603.305784 -90.979185 
L 608.504542 -96.527358 
L 613.7033 -100.225691 
L 618.902057 -106.228632 
L 624.100815 -110.145412 
L 629.299573 -114.484797 
L 634.498331 -116.839134 
L 639.697089 -119.537945 
L 644.895846 -122.712065 
L 650.094604 -124.712119 
L 655.293362 -125.219117 
L 660.49212 -124.239532 
L 665.690877 -123.427124 
L 670.889635 -124.162994 
L 676.088393 -126.344985 
L 681.287151 -128.260547 
L 686.485908 -130.765123 
L 691.684666 -133.127155 
L 696.883424 -138.121264 
L 702.082182 -141.651491 
L 707.280939 -144.14248 
L 712.479697 -145.936787 
L 717.678455 -149.112552 
L 722.877213 -152.234378 
L 728.07597 -154.917153 
L 733.274728 -156.10096 
L 738.473486 -158.585715 
L 743.672244 -159.500774 
L 748.871002 -161.871963 
L 754.069759 -160.023974 
L 759.268517 -161.765089 
L 764.467275 -163.616546 
L 769.666033 -165.015027 
L 774.86479 -166.559738 
L 780.063548 -168.845201 
L 785.262306 -170.607224 
L 790.461064 -174.766669 
L 795.659821 -175.115132 
L 800.858579 -175.901935 
L 806.057337 -175.110267 
L 811.256095 -175.12281 
L 816.454852 -175.34477 
L 821.65361 -177.14895 
L 826.852368 -177.859008 
L 832.051126 -178.496922 
L 837.249884 -181.512232 
L 842.448641 -183.069509 
L 847.647399 -183.965181 
L 852.846157 -184.975702 
L 858.044915 -185.929076 
L 863.243672 -185.93679 
L 868.44243 -187.74681 
L 873.641188 -188.654358 
L 878.839946 -189.01637 
L 884.038703 -188.774746 
L 889.237461 -188.175328 
L 894.436219 -187.632655 
L 899.634977 -188.534063 
L 904.833734 -189.255202 
L 910.032492 -189.475392 
L 910.032492 -199.266285 
L 910.032492 -199.266285 
L 904.833734 -199.344088 
L 899.634977 -198.831493 
L 894.436219 -198.150599 
L 889.237461 -199.452602 
L 884.038703 -200.469544 
L 878.839946 -200.782317 
L 873.641188 -201.213851 
L 868.44243 -199.597889 
L 863.243672 -197.706985 
L 858.044915 -197.633793 
L 852.846157 -198.011226 
L 847.647399 -197.596149 
L 842.448641 -197.338998 
L 837.249884 -195.817912 
L 832.051126 -193.711784 
L 826.852368 -192.338165 
L 821.65361 -191.62346 
L 816.454852 -190.925216 
L 811.256095 -189.73298 
L 806.057337 -190.20671 
L 800.858579 -192.144097 
L 795.659821 -191.096177 
L 790.461064 -189.784338 
L 785.262306 -186.006171 
L 780.063548 -184.406758 
L 774.86479 -184.156782 
L 769.666033 -180.932031 
L 764.467275 -179.80377 
L 759.268517 -178.403531 
L 754.069759 -176.701927 
L 748.871002 -179.111162 
L 743.672244 -177.003408 
L 738.473486 -176.210896 
L 733.274728 -173.839508 
L 728.07597 -172.86924 
L 722.877213 -170.774461 
L 717.678455 -167.983418 
L 712.479697 -164.257096 
L 707.280939 -161.691984 
L 702.082182 -160.292691 
L 696.883424 -157.513391 
L 691.684666 -153.292113 
L 686.485908 -151.706439 
L 681.287151 -150.337017 
L 676.088393 -148.476837 
L 670.889635 -148.661239 
L 665.690877 -149.885193 
L 660.49212 -152.818314 
L 655.293362 -156.406696 
L 650.094604 -158.096098 
L 644.895846 -160.741511 
L 639.697089 -159.451954 
L 634.498331 -155.557496 
L 629.299573 -152.643299 
L 624.100815 -147.516927 
L 618.902057 -139.811258 
L 613.7033 -135.129329 
L 608.504542 -128.071562 
L 603.305784 -121.448544 
L 598.107026 -114.792427 
L 592.908269 -110.947089 
L 587.709511 -102.097351 
L 582.510753 -96.392369 
L 577.311995 -88.888211 
L 572.113238 -80.518457 
L 566.91448 -74.75701 
L 561.715722 -70.04975 
L 556.516964 -67.827626 
L 551.318207 -66.927983 
z
" id="meda77d157a"/>
    </defs>
    <g clip-path="url(#p18a4b607ab)">
     <use style="fill:#47d200;" x="0" xlink:href="#meda77d157a" y="339.573438"/>
    </g>
   </g>
   <g id="matplotlib.axis_3">
    <g id="xtick_9">
     <g id="line2d_38">
      <path clip-path="url(#p18a4b607ab)" d="M 551.318207 285 
L 551.318207 13.2 
" style="fill:none;stroke:#b0b0b0;stroke-linecap:square;stroke-width:0.8;"/>
     </g>
     <g id="line2d_39">
      <g>
       <use x="551.318207" xlink:href="#m6144561c14" y="285"/>
      </g>
     </g>
     <g id="text_20">
      <!-- 0 -->
      <g transform="translate(546.546332 305.897656)scale(0.15 -0.15)">
       <use xlink:href="#DejaVuSans-30"/>
      </g>
     </g>
    </g>
    <g id="xtick_10">
     <g id="line2d_40">
      <path clip-path="url(#p18a4b607ab)" d="M 603.305784 285 
L 603.305784 13.2 
" style="fill:none;stroke:#b0b0b0;stroke-linecap:square;stroke-width:0.8;"/>
     </g>
     <g id="line2d_41">
      <g>
       <use x="603.305784" xlink:href="#m6144561c14" y="285"/>
      </g>
     </g>
     <g id="text_21">
      <!-- 1 -->
      <g transform="translate(598.533909 305.897656)scale(0.15 -0.15)">
       <use xlink:href="#DejaVuSans-31"/>
      </g>
     </g>
    </g>
    <g id="xtick_11">
     <g id="line2d_42">
      <path clip-path="url(#p18a4b607ab)" d="M 655.293362 285 
L 655.293362 13.2 
" style="fill:none;stroke:#b0b0b0;stroke-linecap:square;stroke-width:0.8;"/>
     </g>
     <g id="line2d_43">
      <g>
       <use x="655.293362" xlink:href="#m6144561c14" y="285"/>
      </g>
     </g>
     <g id="text_22">
      <!-- 2 -->
      <g transform="translate(650.521487 305.897656)scale(0.15 -0.15)">
       <use xlink:href="#DejaVuSans-32"/>
      </g>
     </g>
    </g>
    <g id="xtick_12">
     <g id="line2d_44">
      <path clip-path="url(#p18a4b607ab)" d="M 707.280939 285 
L 707.280939 13.2 
" style="fill:none;stroke:#b0b0b0;stroke-linecap:square;stroke-width:0.8;"/>
     </g>
     <g id="line2d_45">
      <g>
       <use x="707.280939" xlink:href="#m6144561c14" y="285"/>
      </g>
     </g>
     <g id="text_23">
      <!-- 3 -->
      <g transform="translate(702.509064 305.897656)scale(0.15 -0.15)">
       <use xlink:href="#DejaVuSans-33"/>
      </g>
     </g>
    </g>
    <g id="xtick_13">
     <g id="line2d_46">
      <path clip-path="url(#p18a4b607ab)" d="M 759.268517 285 
L 759.268517 13.2 
" style="fill:none;stroke:#b0b0b0;stroke-linecap:square;stroke-width:0.8;"/>
     </g>
     <g id="line2d_47">
      <g>
       <use x="759.268517" xlink:href="#m6144561c14" y="285"/>
      </g>
     </g>
     <g id="text_24">
      <!-- 4 -->
      <g transform="translate(754.496642 305.897656)scale(0.15 -0.15)">
       <use xlink:href="#DejaVuSans-34"/>
      </g>
     </g>
    </g>
    <g id="xtick_14">
     <g id="line2d_48">
      <path clip-path="url(#p18a4b607ab)" d="M 811.256095 285 
L 811.256095 13.2 
" style="fill:none;stroke:#b0b0b0;stroke-linecap:square;stroke-width:0.8;"/>
     </g>
     <g id="line2d_49">
      <g>
       <use x="811.256095" xlink:href="#m6144561c14" y="285"/>
      </g>
     </g>
     <g id="text_25">
      <!-- 5 -->
      <g transform="translate(806.48422 305.897656)scale(0.15 -0.15)">
       <use xlink:href="#DejaVuSans-35"/>
      </g>
     </g>
    </g>
    <g id="xtick_15">
     <g id="line2d_50">
      <path clip-path="url(#p18a4b607ab)" d="M 863.243672 285 
L 863.243672 13.2 
" style="fill:none;stroke:#b0b0b0;stroke-linecap:square;stroke-width:0.8;"/>
     </g>
     <g id="line2d_51">
      <g>
       <use x="863.243672" xlink:href="#m6144561c14" y="285"/>
      </g>
     </g>
     <g id="text_26">
      <!-- 6 -->
      <g transform="translate(858.471797 305.897656)scale(0.15 -0.15)">
       <use xlink:href="#DejaVuSans-36"/>
      </g>
     </g>
    </g>
    <g id="xtick_16">
     <g id="line2d_52">
      <path clip-path="url(#p18a4b607ab)" d="M 915.23125 285 
L 915.23125 13.2 
" style="fill:none;stroke:#b0b0b0;stroke-linecap:square;stroke-width:0.8;"/>
     </g>
     <g id="line2d_53">
      <g>
       <use x="915.23125" xlink:href="#m6144561c14" y="285"/>
      </g>
     </g>
     <g id="text_27">
      <!-- 7 -->
      <g transform="translate(910.459375 305.897656)scale(0.15 -0.15)">
       <use xlink:href="#DejaVuSans-37"/>
      </g>
     </g>
    </g>
    <g id="text_28">
     <!-- $t/\tau$ -->
     <g transform="translate(719.874728 328.214063)scale(0.2 -0.2)">
      <use transform="translate(0 0.09375)" xlink:href="#DejaVuSans-Oblique-74"/>
      <use transform="translate(39.208984 0.09375)" xlink:href="#DejaVuSans-2f"/>
      <use transform="translate(72.900391 0.09375)" xlink:href="#DejaVuSans-Oblique-3c4"/>
     </g>
    </g>
   </g>
   <g id="matplotlib.axis_4">
    <g id="ytick_7">
     <g id="line2d_54">
      <path clip-path="url(#p18a4b607ab)" d="M 551.318207 272.645455 
L 915.23125 272.645455 
" style="fill:none;stroke:#b0b0b0;stroke-linecap:square;stroke-width:0.8;"/>
     </g>
     <g id="line2d_55">
      <g>
       <use x="551.318207" xlink:href="#m2916a2877b" y="272.645455"/>
      </g>
     </g>
     <g id="text_29">
      <!-- 0.000 -->
      <defs>
       <path d="M 10.6875 12.40625 
L 21 12.40625 
L 21 0 
L 10.6875 0 
z
" id="DejaVuSans-2e"/>
      </defs>
      <g transform="translate(498.876019 278.344283)scale(0.15 -0.15)">
       <use xlink:href="#DejaVuSans-30"/>
       <use x="63.623047" xlink:href="#DejaVuSans-2e"/>
       <use x="95.410156" xlink:href="#DejaVuSans-30"/>
       <use x="159.033203" xlink:href="#DejaVuSans-30"/>
       <use x="222.65625" xlink:href="#DejaVuSans-30"/>
      </g>
     </g>
    </g>
    <g id="ytick_8">
     <g id="line2d_56">
      <path clip-path="url(#p18a4b607ab)" d="M 551.318207 237.703442 
L 915.23125 237.703442 
" style="fill:none;stroke:#b0b0b0;stroke-linecap:square;stroke-width:0.8;"/>
     </g>
     <g id="line2d_57">
      <g>
       <use x="551.318207" xlink:href="#m2916a2877b" y="237.703442"/>
      </g>
     </g>
     <g id="text_30">
      <!-- 0.005 -->
      <g transform="translate(498.876019 243.40227)scale(0.15 -0.15)">
       <use xlink:href="#DejaVuSans-30"/>
       <use x="63.623047" xlink:href="#DejaVuSans-2e"/>
       <use x="95.410156" xlink:href="#DejaVuSans-30"/>
       <use x="159.033203" xlink:href="#DejaVuSans-30"/>
       <use x="222.65625" xlink:href="#DejaVuSans-35"/>
      </g>
     </g>
    </g>
    <g id="ytick_9">
     <g id="line2d_58">
      <path clip-path="url(#p18a4b607ab)" d="M 551.318207 202.761429 
L 915.23125 202.761429 
" style="fill:none;stroke:#b0b0b0;stroke-linecap:square;stroke-width:0.8;"/>
     </g>
     <g id="line2d_59">
      <g>
       <use x="551.318207" xlink:href="#m2916a2877b" y="202.761429"/>
      </g>
     </g>
     <g id="text_31">
      <!-- 0.010 -->
      <g transform="translate(498.876019 208.460257)scale(0.15 -0.15)">
       <use xlink:href="#DejaVuSans-30"/>
       <use x="63.623047" xlink:href="#DejaVuSans-2e"/>
       <use x="95.410156" xlink:href="#DejaVuSans-30"/>
       <use x="159.033203" xlink:href="#DejaVuSans-31"/>
       <use x="222.65625" xlink:href="#DejaVuSans-30"/>
      </g>
     </g>
    </g>
    <g id="ytick_10">
     <g id="line2d_60">
      <path clip-path="url(#p18a4b607ab)" d="M 551.318207 167.819416 
L 915.23125 167.819416 
" style="fill:none;stroke:#b0b0b0;stroke-linecap:square;stroke-width:0.8;"/>
     </g>
     <g id="line2d_61">
      <g>
       <use x="551.318207" xlink:href="#m2916a2877b" y="167.819416"/>
      </g>
     </g>
     <g id="text_32">
      <!-- 0.015 -->
      <g transform="translate(498.876019 173.518244)scale(0.15 -0.15)">
       <use xlink:href="#DejaVuSans-30"/>
       <use x="63.623047" xlink:href="#DejaVuSans-2e"/>
       <use x="95.410156" xlink:href="#DejaVuSans-30"/>
       <use x="159.033203" xlink:href="#DejaVuSans-31"/>
       <use x="222.65625" xlink:href="#DejaVuSans-35"/>
      </g>
     </g>
    </g>
    <g id="ytick_11">
     <g id="line2d_62">
      <path clip-path="url(#p18a4b607ab)" d="M 551.318207 132.877403 
L 915.23125 132.877403 
" style="fill:none;stroke:#b0b0b0;stroke-linecap:square;stroke-width:0.8;"/>
     </g>
     <g id="line2d_63">
      <g>
       <use x="551.318207" xlink:href="#m2916a2877b" y="132.877403"/>
      </g>
     </g>
     <g id="text_33">
      <!-- 0.020 -->
      <g transform="translate(498.876019 138.576231)scale(0.15 -0.15)">
       <use xlink:href="#DejaVuSans-30"/>
       <use x="63.623047" xlink:href="#DejaVuSans-2e"/>
       <use x="95.410156" xlink:href="#DejaVuSans-30"/>
       <use x="159.033203" xlink:href="#DejaVuSans-32"/>
       <use x="222.65625" xlink:href="#DejaVuSans-30"/>
      </g>
     </g>
    </g>
    <g id="ytick_12">
     <g id="line2d_64">
      <path clip-path="url(#p18a4b607ab)" d="M 551.318207 97.93539 
L 915.23125 97.93539 
" style="fill:none;stroke:#b0b0b0;stroke-linecap:square;stroke-width:0.8;"/>
     </g>
     <g id="line2d_65">
      <g>
       <use x="551.318207" xlink:href="#m2916a2877b" y="97.93539"/>
      </g>
     </g>
     <g id="text_34">
      <!-- 0.025 -->
      <g transform="translate(498.876019 103.634218)scale(0.15 -0.15)">
       <use xlink:href="#DejaVuSans-30"/>
       <use x="63.623047" xlink:href="#DejaVuSans-2e"/>
       <use x="95.410156" xlink:href="#DejaVuSans-30"/>
       <use x="159.033203" xlink:href="#DejaVuSans-32"/>
       <use x="222.65625" xlink:href="#DejaVuSans-35"/>
      </g>
     </g>
    </g>
    <g id="ytick_13">
     <g id="line2d_66">
      <path clip-path="url(#p18a4b607ab)" d="M 551.318207 62.993377 
L 915.23125 62.993377 
" style="fill:none;stroke:#b0b0b0;stroke-linecap:square;stroke-width:0.8;"/>
     </g>
     <g id="line2d_67">
      <g>
       <use x="551.318207" xlink:href="#m2916a2877b" y="62.993377"/>
      </g>
     </g>
     <g id="text_35">
      <!-- 0.030 -->
      <g transform="translate(498.876019 68.692205)scale(0.15 -0.15)">
       <use xlink:href="#DejaVuSans-30"/>
       <use x="63.623047" xlink:href="#DejaVuSans-2e"/>
       <use x="95.410156" xlink:href="#DejaVuSans-30"/>
       <use x="159.033203" xlink:href="#DejaVuSans-33"/>
       <use x="222.65625" xlink:href="#DejaVuSans-30"/>
      </g>
     </g>
    </g>
    <g id="ytick_14">
     <g id="line2d_68">
      <path clip-path="url(#p18a4b607ab)" d="M 551.318207 28.051364 
L 915.23125 28.051364 
" style="fill:none;stroke:#b0b0b0;stroke-linecap:square;stroke-width:0.8;"/>
     </g>
     <g id="line2d_69">
      <g>
       <use x="551.318207" xlink:href="#m2916a2877b" y="28.051364"/>
      </g>
     </g>
     <g id="text_36">
      <!-- 0.035 -->
      <g transform="translate(498.876019 33.750192)scale(0.15 -0.15)">
       <use xlink:href="#DejaVuSans-30"/>
       <use x="63.623047" xlink:href="#DejaVuSans-2e"/>
       <use x="95.410156" xlink:href="#DejaVuSans-30"/>
       <use x="159.033203" xlink:href="#DejaVuSans-33"/>
       <use x="222.65625" xlink:href="#DejaVuSans-35"/>
      </g>
     </g>
    </g>
    <g id="text_37">
     <!-- $C_V^2(p)$ -->
     <defs>
      <path d="M 69.484375 67.28125 
L 67.484375 56.890625 
Q 62.796875 61.625 57.546875 63.921875 
Q 52.296875 66.21875 46.1875 66.21875 
Q 37.84375 66.21875 31.515625 62.203125 
Q 25.203125 58.203125 20.609375 50 
Q 17.671875 44.734375 16.125 38.84375 
Q 14.59375 32.953125 14.59375 27 
Q 14.59375 17.046875 19.75 11.8125 
Q 24.90625 6.59375 34.71875 6.59375 
Q 41.5 6.59375 47.75 8.765625 
Q 54 10.9375 59.90625 15.28125 
L 57.625 3.609375 
Q 51.8125 1.125 45.875 -0.140625 
Q 39.9375 -1.421875 33.984375 -1.421875 
Q 19.96875 -1.421875 12.078125 6.1875 
Q 4.203125 13.8125 4.203125 27.390625 
Q 4.203125 36.078125 7.203125 44.46875 
Q 10.203125 52.875 15.828125 59.8125 
Q 21.78125 67.1875 29.421875 70.703125 
Q 37.0625 74.21875 47.21875 74.21875 
Q 53.46875 74.21875 59.0625 72.484375 
Q 64.65625 70.75 69.484375 67.28125 
z
" id="DejaVuSans-Oblique-43"/>
      <path d="M 20.609375 0 
L 7.8125 72.90625 
L 17.484375 72.90625 
L 28.078125 10.203125 
L 63.484375 72.90625 
L 74.21875 72.90625 
L 32.078125 0 
z
" id="DejaVuSans-Oblique-56"/>
      <path d="M 31 75.875 
Q 24.46875 64.65625 21.28125 53.65625 
Q 18.109375 42.671875 18.109375 31.390625 
Q 18.109375 20.125 21.3125 9.0625 
Q 24.515625 -2 31 -13.1875 
L 23.1875 -13.1875 
Q 15.875 -1.703125 12.234375 9.375 
Q 8.59375 20.453125 8.59375 31.390625 
Q 8.59375 42.28125 12.203125 53.3125 
Q 15.828125 64.359375 23.1875 75.875 
z
" id="DejaVuSans-28"/>
      <path d="M 8.015625 75.875 
L 15.828125 75.875 
Q 23.140625 64.359375 26.78125 53.3125 
Q 30.421875 42.28125 30.421875 31.390625 
Q 30.421875 20.453125 26.78125 9.375 
Q 23.140625 -1.703125 15.828125 -13.1875 
L 8.015625 -13.1875 
Q 14.5 -2 17.703125 9.0625 
Q 20.90625 20.125 20.90625 31.390625 
Q 20.90625 42.671875 17.703125 53.65625 
Q 14.5 64.65625 8.015625 75.875 
z
" id="DejaVuSans-29"/>
     </defs>
     <g transform="translate(489.276019 175.7)rotate(-90)scale(0.2 -0.2)">
      <use transform="translate(0 0.765625)" xlink:href="#DejaVuSans-Oblique-43"/>
      <use transform="translate(77.02474 39.046875)scale(0.7)" xlink:href="#DejaVuSans-32"/>
      <use transform="translate(69.824219 -26.578125)scale(0.7)" xlink:href="#DejaVuSans-Oblique-56"/>
      <use transform="translate(124.295247 0.765625)" xlink:href="#DejaVuSans-28"/>
      <use transform="translate(163.308919 0.765625)" xlink:href="#DejaVuSans-Oblique-70"/>
      <use transform="translate(226.785482 0.765625)" xlink:href="#DejaVuSans-29"/>
     </g>
    </g>
   </g>
   <g id="line2d_70">
    <path clip-path="url(#p18a4b607ab)" d="M 551.318207 272.645455 
L 556.516964 270.661482 
L 561.715722 261.635079 
L 566.91448 246.951712 
L 572.113238 229.736393 
L 577.311995 213.179094 
L 582.510753 199.904009 
L 587.709511 188.661151 
L 592.908269 179.404594 
L 598.107026 169.665666 
L 603.305784 161.808469 
L 608.504542 156.507357 
L 613.7033 152.221404 
L 618.902057 149.899087 
L 624.100815 148.234368 
L 629.299573 147.857504 
L 634.498331 147.754098 
L 639.697089 148.260728 
L 644.895846 148.197913 
L 650.094604 147.293003 
L 655.293362 147.217937 
L 660.49212 146.691412 
L 665.690877 146.242727 
L 670.889635 146.977557 
L 676.088393 147.34845 
L 681.287151 147.53733 
L 686.485908 148.345721 
L 691.684666 150.092177 
L 696.883424 152.539689 
L 702.082182 153.716068 
L 707.280939 153.611551 
L 712.479697 154.59395 
L 717.678455 154.773631 
L 722.877213 154.476791 
L 728.07597 154.49055 
L 733.274728 155.757998 
L 738.473486 157.17404 
L 743.672244 159.267251 
L 748.871002 160.83399 
L 754.069759 162.090911 
L 759.268517 161.953309 
L 764.467275 163.140747 
L 769.666033 164.478365 
L 774.86479 164.190843 
L 780.063548 164.231321 
L 785.262306 164.044499 
L 790.461064 164.711315 
L 795.659821 165.591862 
L 800.858579 166.540374 
L 806.057337 167.058191 
L 811.256095 167.413813 
L 816.454852 168.330944 
L 821.65361 168.946179 
L 826.852368 169.550901 
L 832.051126 170.405427 
L 837.249884 171.819222 
L 842.448641 172.653131 
L 847.647399 173.84912 
L 852.846157 174.141223 
L 858.044915 173.667703 
L 863.243672 173.295112 
L 868.44243 173.613937 
L 873.641188 174.639802 
L 878.839946 176.162692 
L 884.038703 177.456412 
L 889.237461 178.625199 
L 894.436219 179.150894 
L 899.634977 179.186929 
L 904.833734 178.82846 
L 910.032492 177.418095 
" style="fill:none;stroke:#1f77b4;stroke-linecap:square;stroke-width:3;"/>
   </g>
   <g id="line2d_71">
    <path clip-path="url(#p18a4b607ab)" d="M 551.318207 272.645455 
L 556.516964 270.063069 
L 561.715722 259.098903 
L 566.91448 238.768505 
L 572.113238 213.075794 
L 577.311995 188.467775 
L 582.510753 169.328407 
L 587.709511 156.613817 
L 592.908269 142.686678 
L 598.107026 113.849389 
L 603.305784 100.054932 
L 608.504542 90.242653 
L 613.7033 86.308583 
L 618.902057 73.558925 
L 624.100815 77.59957 
L 629.299573 78.136264 
L 634.498331 83.641803 
L 639.697089 89.051441 
L 644.895846 100.213329 
L 650.094604 110.333899 
L 655.293362 120.693885 
L 660.49212 130.121872 
L 665.690877 140.586557 
L 670.889635 145.910439 
L 676.088393 147.580621 
L 681.287151 151.661087 
L 686.485908 156.569364 
L 691.684666 156.722061 
L 696.883424 154.041524 
L 702.082182 152.080531 
L 707.280939 152.58232 
L 712.479697 149.462517 
L 717.678455 147.530143 
L 722.877213 145.866133 
L 728.07597 143.672675 
L 733.274728 143.338784 
L 738.473486 141.950161 
L 743.672244 142.025923 
L 748.871002 141.977197 
L 754.069759 147.108026 
L 759.268517 147.955025 
L 764.467275 147.77336 
L 769.666033 148.579895 
L 774.86479 147.680102 
L 780.063548 147.013751 
L 785.262306 145.850012 
L 790.461064 143.726862 
L 795.659821 143.533672 
L 800.858579 143.58477 
L 806.057337 145.433001 
L 811.256095 145.689189 
L 816.454852 145.576111 
L 821.65361 145.946149 
L 826.852368 145.354748 
L 832.051126 145.458844 
L 837.249884 143.741603 
L 842.448641 142.390534 
L 847.647399 142.582783 
L 852.846157 141.600343 
L 858.044915 141.606868 
L 863.243672 141.671129 
L 868.44243 139.672447 
L 873.641188 137.936017 
L 878.839946 138.651938 
L 884.038703 139.006889 
L 889.237461 140.370741 
L 894.436219 141.575786 
L 899.634977 141.581248 
L 904.833734 141.172094 
L 910.032492 141.176904 
" style="fill:none;stroke:#ff7f0e;stroke-linecap:square;stroke-width:3;"/>
   </g>
   <g id="line2d_72">
    <path clip-path="url(#p18a4b607ab)" d="M 551.318207 272.645455 
L 556.516964 272.176238 
L 561.715722 270.740225 
L 566.91448 267.791548 
L 572.113238 263.565956 
L 577.311995 257.652515 
L 582.510753 252.150491 
L 587.709511 248.109476 
L 592.908269 240.849705 
L 598.107026 237.684321 
L 603.305784 233.359573 
L 608.504542 227.273978 
L 613.7033 221.895928 
L 618.902057 216.553493 
L 624.100815 210.742268 
L 629.299573 206.009389 
L 634.498331 203.375123 
L 639.697089 200.078488 
L 644.895846 197.84665 
L 650.094604 198.169329 
L 655.293362 198.760531 
L 660.49212 201.044514 
L 665.690877 202.917279 
L 670.889635 203.161321 
L 676.088393 202.162526 
L 681.287151 200.274656 
L 686.485908 198.337657 
L 691.684666 196.363803 
L 696.883424 191.75611 
L 702.082182 188.601346 
L 707.280939 186.656205 
L 712.479697 184.476496 
L 717.678455 181.025452 
L 722.877213 178.069018 
L 728.07597 175.680241 
L 733.274728 174.603203 
L 738.473486 172.175132 
L 743.672244 171.321346 
L 748.871002 169.081875 
L 754.069759 171.210487 
L 759.268517 169.489127 
L 764.467275 167.863279 
L 769.666033 166.599908 
L 774.86479 164.215178 
L 780.063548 162.947458 
L 785.262306 161.26674 
L 790.461064 157.297934 
L 795.659821 156.467783 
L 800.858579 155.550421 
L 806.057337 156.914949 
L 811.256095 157.145542 
L 816.454852 156.438444 
L 821.65361 155.187232 
L 826.852368 154.474851 
L 832.051126 153.469084 
L 837.249884 150.908366 
L 842.448641 149.369184 
L 847.647399 148.792772 
L 852.846157 148.079973 
L 858.044915 147.792003 
L 863.243672 147.75155 
L 868.44243 145.901088 
L 873.641188 144.639333 
L 878.839946 144.674094 
L 884.038703 144.951293 
L 889.237461 145.759472 
L 894.436219 146.681811 
L 899.634977 145.89066 
L 904.833734 145.273792 
L 910.032492 145.202599 
" style="fill:none;stroke:#319000;stroke-linecap:square;stroke-width:3;"/>
   </g>
   <g id="patch_9">
    <path d="M 551.318207 285 
L 551.318207 13.2 
" style="fill:none;stroke:#000000;stroke-linecap:square;stroke-linejoin:miter;stroke-width:2;"/>
   </g>
   <g id="patch_10">
    <path d="M 915.23125 285 
L 915.23125 13.2 
" style="fill:none;"/>
   </g>
   <g id="patch_11">
    <path d="M 551.318207 285 
L 915.23125 285 
" style="fill:none;stroke:#000000;stroke-linecap:square;stroke-linejoin:miter;stroke-width:2;"/>
   </g>
   <g id="patch_12">
    <path d="M 551.318207 13.2 
L 915.23125 13.2 
" style="fill:none;"/>
   </g>
  </g>
 </g>
 <defs>
  <clipPath id="pe8ced7fee8">
   <rect height="271.8" width="363.913043" x="78.23125" y="13.2"/>
  </clipPath>
  <clipPath id="p18a4b607ab">
   <rect height="271.8" width="363.913043" x="551.318207" y="13.2"/>
  </clipPath>
 </defs>
</svg>
