<?xml version="1.0" encoding="utf-8" standalone="no"?>
<!DOCTYPE svg PUBLIC "-//W3C//DTD SVG 1.1//EN"
  "http://www.w3.org/Graphics/SVG/1.1/DTD/svg11.dtd">
<!-- Created with matplotlib (http://matplotlib.org/) -->
<svg height="339.573438pt" version="1.1" viewBox="0 0 928.43125 339.573438" width="928.43125pt" xmlns="http://www.w3.org/2000/svg" xmlns:xlink="http://www.w3.org/1999/xlink">
 <defs>
  <style type="text/css">
*{stroke-linecap:butt;stroke-linejoin:round;}
  </style>
 </defs>
 <g id="figure_1">
  <g id="patch_1">
   <path d="M 0 339.573438 
L 928.43125 339.573438 
L 928.43125 0 
L 0 0 
z
" style="fill:#ffffff;"/>
  </g>
  <g id="axes_1">
   <g id="patch_2">
    <path d="M 78.23125 285 
L 442.144293 285 
L 442.144293 13.2 
L 78.23125 13.2 
z
" style="fill:#ffffff;"/>
   </g>
   <g id="PolyCollection_1">
    <defs>
     <path d="M 78.23125 -66.927983 
L 78.23125 -66.927983 
L 83.430008 -69.824777 
L 88.628766 -77.168657 
L 93.827523 -87.180002 
L 99.026281 -98.629211 
L 104.225039 -110.451166 
L 109.423797 -122.372899 
L 114.622554 -134.21046 
L 119.821312 -145.444505 
L 125.02007 -156.241921 
L 130.218828 -166.383743 
L 135.417585 -176.024253 
L 140.616343 -184.986947 
L 145.815101 -193.441485 
L 151.013859 -201.282579 
L 156.212616 -208.787348 
L 161.411374 -215.816653 
L 166.610132 -222.283166 
L 171.80889 -228.30899 
L 177.007648 -233.894659 
L 182.206405 -239.266205 
L 187.405163 -244.396174 
L 192.603921 -249.244844 
L 197.802679 -253.545259 
L 203.001436 -257.506581 
L 208.200194 -261.341409 
L 213.398952 -264.825995 
L 218.59771 -268.148266 
L 223.796467 -271.175374 
L 228.995225 -274.128334 
L 234.193983 -276.928956 
L 239.392741 -279.493963 
L 244.591498 -281.86129 
L 249.790256 -284.082157 
L 254.989014 -286.127528 
L 260.187772 -288.055962 
L 265.38653 -289.731748 
L 270.585287 -291.319225 
L 275.784045 -292.744813 
L 280.982803 -294.000223 
L 286.181561 -295.262792 
L 291.380318 -296.404944 
L 296.579076 -297.38878 
L 301.777834 -298.235962 
L 306.976592 -299.350106 
L 312.175349 -300.370023 
L 317.374107 -301.142924 
L 322.572865 -301.685372 
L 327.771623 -302.009192 
L 332.97038 -302.532222 
L 338.169138 -303.098695 
L 343.367896 -303.692531 
L 348.566654 -304.24555 
L 353.765411 -304.757881 
L 358.964169 -305.329526 
L 364.162927 -305.966378 
L 369.361685 -306.410352 
L 374.560443 -306.856015 
L 379.7592 -307.273403 
L 384.957958 -307.70154 
L 390.156716 -308.041102 
L 395.355474 -308.39066 
L 400.554231 -308.782159 
L 405.752989 -309.396466 
L 410.951747 -309.851019 
L 416.150505 -310.136984 
L 421.349262 -310.542026 
L 426.54802 -310.779618 
L 431.746778 -311.120881 
L 436.945536 -311.498012 
L 436.945536 -314.018892 
L 436.945536 -314.018892 
L 431.746778 -313.602283 
L 426.54802 -313.344311 
L 421.349262 -312.890955 
L 416.150505 -312.625617 
L 410.951747 -312.225221 
L 405.752989 -311.775543 
L 400.554231 -311.357212 
L 395.355474 -310.920375 
L 390.156716 -310.484611 
L 384.957958 -310.01954 
L 379.7592 -309.741509 
L 374.560443 -309.287853 
L 369.361685 -308.868931 
L 364.162927 -308.449668 
L 358.964169 -307.935779 
L 353.765411 -307.220578 
L 348.566654 -306.618562 
L 343.367896 -306.185391 
L 338.169138 -305.675097 
L 332.97038 -305.065193 
L 327.771623 -304.564603 
L 322.572865 -304.017324 
L 317.374107 -303.591645 
L 312.175349 -302.827172 
L 306.976592 -301.84907 
L 301.777834 -300.836361 
L 296.579076 -299.88199 
L 291.380318 -299.027984 
L 286.181561 -297.799959 
L 280.982803 -296.535251 
L 275.784045 -295.209243 
L 270.585287 -293.817042 
L 265.38653 -292.220815 
L 260.187772 -290.411374 
L 254.989014 -288.615075 
L 249.790256 -286.725614 
L 244.591498 -284.385624 
L 239.392741 -281.916048 
L 234.193983 -279.354822 
L 228.995225 -276.667126 
L 223.796467 -273.717502 
L 218.59771 -270.622379 
L 213.398952 -267.275311 
L 208.200194 -263.746006 
L 203.001436 -259.97556 
L 197.802679 -255.890828 
L 192.603921 -251.60688 
L 187.405163 -246.84199 
L 182.206405 -241.680258 
L 177.007648 -236.312138 
L 171.80889 -230.681295 
L 166.610132 -224.602262 
L 161.411374 -217.995267 
L 156.212616 -211.077889 
L 151.013859 -203.579567 
L 145.815101 -195.537445 
L 140.616343 -187.001055 
L 135.417585 -177.952744 
L 130.218828 -168.329204 
L 125.02007 -158.005783 
L 119.821312 -147.061255 
L 114.622554 -135.618106 
L 109.423797 -123.724911 
L 104.225039 -111.557605 
L 99.026281 -99.524606 
L 93.827523 -87.864861 
L 88.628766 -77.624885 
L 83.430008 -70.003029 
L 78.23125 -66.927983 
z
" id="m03bf5b00e1"/>
    </defs>
    <g clip-path="url(#p2302ecb084)">
     <use style="fill:#4db8ff;" x="0" xlink:href="#m03bf5b00e1" y="339.573438"/>
    </g>
   </g>
   <g id="PolyCollection_2">
    <defs>
     <path d="M 78.23125 -66.927983 
L 78.23125 -66.927983 
L 83.430008 -69.92706 
L 88.628766 -76.978662 
L 93.827523 -86.954002 
L 99.026281 -98.063877 
L 104.225039 -109.966098 
L 109.423797 -121.971277 
L 114.622554 -134.408754 
L 119.821312 -146.687477 
L 125.02007 -157.86882 
L 130.218828 -167.680587 
L 135.417585 -177.339192 
L 140.616343 -185.859827 
L 145.815101 -194.380938 
L 151.013859 -202.411204 
L 156.212616 -209.600866 
L 161.411374 -216.39751 
L 166.610132 -223.342115 
L 171.80889 -229.864321 
L 177.007648 -235.554829 
L 182.206405 -240.873153 
L 187.405163 -245.879479 
L 192.603921 -249.777366 
L 197.802679 -254.48252 
L 203.001436 -258.223999 
L 208.200194 -261.851729 
L 213.398952 -265.334067 
L 218.59771 -268.860456 
L 223.796467 -272.420381 
L 228.995225 -275.236182 
L 234.193983 -277.523132 
L 239.392741 -280.14477 
L 244.591498 -282.392096 
L 249.790256 -284.548741 
L 254.989014 -286.531499 
L 260.187772 -288.506819 
L 265.38653 -290.424364 
L 270.585287 -291.564574 
L 275.784045 -292.68954 
L 280.982803 -294.413462 
L 286.181561 -295.393193 
L 291.380318 -296.730473 
L 296.579076 -298.173886 
L 301.777834 -299.037237 
L 306.976592 -300.437257 
L 312.175349 -301.699173 
L 317.374107 -303.085238 
L 322.572865 -304.06656 
L 327.771623 -304.671064 
L 332.97038 -305.522352 
L 338.169138 -305.929822 
L 343.367896 -306.282094 
L 348.566654 -306.819154 
L 353.765411 -307.624933 
L 358.964169 -308.114455 
L 364.162927 -308.459083 
L 369.361685 -308.642174 
L 374.560443 -309.022993 
L 379.7592 -309.269967 
L 384.957958 -309.440683 
L 390.156716 -309.52631 
L 395.355474 -309.969776 
L 400.554231 -310.119705 
L 405.752989 -310.369898 
L 410.951747 -310.701212 
L 416.150505 -311.004537 
L 421.349262 -311.272905 
L 426.54802 -311.636231 
L 431.746778 -311.729586 
L 436.945536 -311.905684 
L 436.945536 -312.80813 
L 436.945536 -312.80813 
L 431.746778 -312.69612 
L 426.54802 -312.590809 
L 421.349262 -312.311181 
L 416.150505 -312.021572 
L 410.951747 -311.745977 
L 405.752989 -311.441296 
L 400.554231 -311.262005 
L 395.355474 -311.140306 
L 390.156716 -310.771619 
L 384.957958 -310.671886 
L 379.7592 -310.538149 
L 374.560443 -310.348876 
L 369.361685 -310.044995 
L 364.162927 -309.948032 
L 358.964169 -309.613483 
L 353.765411 -309.171558 
L 348.566654 -308.455823 
L 343.367896 -308.041354 
L 338.169138 -307.740361 
L 332.97038 -307.246266 
L 327.771623 -306.571962 
L 322.572865 -305.928271 
L 317.374107 -304.984453 
L 312.175349 -303.743419 
L 306.976592 -302.564025 
L 301.777834 -301.299429 
L 296.579076 -300.320279 
L 291.380318 -299.071021 
L 286.181561 -297.774506 
L 280.982803 -296.861273 
L 275.784045 -295.270145 
L 270.585287 -294.235397 
L 265.38653 -293.050208 
L 260.187772 -291.369741 
L 254.989014 -289.36091 
L 249.790256 -287.529078 
L 244.591498 -285.597306 
L 239.392741 -283.225013 
L 234.193983 -280.83856 
L 228.995225 -278.634505 
L 223.796467 -275.86934 
L 218.59771 -272.652459 
L 213.398952 -269.11728 
L 208.200194 -265.536934 
L 203.001436 -262.028229 
L 197.802679 -258.481481 
L 192.603921 -254.141845 
L 187.405163 -250.20752 
L 182.206405 -245.240065 
L 177.007648 -240.233909 
L 171.80889 -234.87739 
L 166.610132 -228.35052 
L 161.411374 -221.667878 
L 156.212616 -214.84948 
L 151.013859 -207.521681 
L 145.815101 -199.573371 
L 140.616343 -190.991458 
L 135.417585 -182.581012 
L 130.218828 -172.934798 
L 125.02007 -162.885886 
L 119.821312 -151.172853 
L 114.622554 -138.881499 
L 109.423797 -126.024209 
L 104.225039 -113.755801 
L 99.026281 -101.255363 
L 93.827523 -89.302277 
L 88.628766 -78.497015 
L 83.430008 -70.514486 
L 78.23125 -66.927983 
z
" id="m35a5eeaf19"/>
    </defs>
    <g clip-path="url(#p2302ecb084)">
     <use style="fill:#ffa035;" x="0" xlink:href="#m35a5eeaf19" y="339.573438"/>
    </g>
   </g>
   <g id="PolyCollection_3">
    <defs>
     <path d="M 78.23125 -66.927983 
L 78.23125 -66.927983 
L 83.430008 -69.849669 
L 88.628766 -76.954434 
L 93.827523 -87.058049 
L 99.026281 -98.038295 
L 104.225039 -110.046696 
L 109.423797 -121.917359 
L 114.622554 -133.820975 
L 119.821312 -145.555785 
L 125.02007 -156.538593 
L 130.218828 -167.270771 
L 135.417585 -176.858852 
L 140.616343 -185.781549 
L 145.815101 -194.065367 
L 151.013859 -201.935261 
L 156.212616 -209.183413 
L 161.411374 -215.921324 
L 166.610132 -222.512078 
L 171.80889 -228.875396 
L 177.007648 -234.378762 
L 182.206405 -239.525 
L 187.405163 -244.312545 
L 192.603921 -248.475775 
L 197.802679 -253.152971 
L 203.001436 -256.938069 
L 208.200194 -260.880345 
L 213.398952 -264.562217 
L 218.59771 -268.04255 
L 223.796467 -271.19982 
L 228.995225 -274.343886 
L 234.193983 -276.389448 
L 239.392741 -278.604914 
L 244.591498 -281.008277 
L 249.790256 -283.141189 
L 254.989014 -285.28993 
L 260.187772 -287.327358 
L 265.38653 -289.108313 
L 270.585287 -290.528341 
L 275.784045 -291.975412 
L 280.982803 -293.394056 
L 286.181561 -294.560093 
L 291.380318 -296.064323 
L 296.579076 -297.601017 
L 301.777834 -298.449052 
L 306.976592 -299.869879 
L 312.175349 -301.198336 
L 317.374107 -302.623901 
L 322.572865 -303.55795 
L 327.771623 -304.392716 
L 332.97038 -305.021966 
L 338.169138 -305.609238 
L 343.367896 -305.999404 
L 348.566654 -306.569249 
L 353.765411 -307.317372 
L 358.964169 -307.902304 
L 364.162927 -308.130135 
L 369.361685 -308.48098 
L 374.560443 -308.738077 
L 379.7592 -308.985764 
L 384.957958 -309.22036 
L 390.156716 -309.280647 
L 395.355474 -309.717112 
L 400.554231 -309.914377 
L 405.752989 -310.09281 
L 410.951747 -310.416855 
L 416.150505 -310.801172 
L 421.349262 -310.997894 
L 426.54802 -311.341028 
L 431.746778 -311.475922 
L 436.945536 -311.618933 
L 436.945536 -312.944897 
L 436.945536 -312.944897 
L 431.746778 -312.744484 
L 426.54802 -312.716643 
L 421.349262 -312.418057 
L 416.150505 -312.175463 
L 410.951747 -311.953215 
L 405.752989 -311.646727 
L 400.554231 -311.473526 
L 395.355474 -311.410341 
L 390.156716 -311.095677 
L 384.957958 -310.99235 
L 379.7592 -310.845698 
L 374.560443 -310.764923 
L 369.361685 -310.375866 
L 364.162927 -310.299789 
L 358.964169 -309.973718 
L 353.765411 -309.579458 
L 348.566654 -308.927389 
L 343.367896 -308.417633 
L 338.169138 -308.167016 
L 332.97038 -307.649905 
L 327.771623 -307.085253 
L 322.572865 -306.31081 
L 317.374107 -305.440178 
L 312.175349 -304.137845 
L 306.976592 -302.907987 
L 301.777834 -301.592231 
L 296.579076 -300.75681 
L 291.380318 -299.250714 
L 286.181561 -297.990416 
L 280.982803 -296.817853 
L 275.784045 -295.548574 
L 270.585287 -294.098817 
L 265.38653 -293.010384 
L 260.187772 -291.161198 
L 254.989014 -289.340737 
L 249.790256 -287.27169 
L 244.591498 -285.30522 
L 239.392741 -283.059838 
L 234.193983 -280.850158 
L 228.995225 -278.672777 
L 223.796467 -276.170939 
L 218.59771 -272.797576 
L 213.398952 -269.702582 
L 208.200194 -266.045561 
L 203.001436 -262.113981 
L 197.802679 -258.435521 
L 192.603921 -254.179348 
L 187.405163 -249.851638 
L 182.206405 -245.115242 
L 177.007648 -240.016025 
L 171.80889 -234.722267 
L 166.610132 -228.402082 
L 161.411374 -221.486007 
L 156.212616 -215.035413 
L 151.013859 -207.916976 
L 145.815101 -199.750902 
L 140.616343 -191.142952 
L 135.417585 -182.366906 
L 130.218828 -172.458868 
L 125.02007 -161.650597 
L 119.821312 -150.228503 
L 114.622554 -138.290981 
L 109.423797 -126.171432 
L 104.225039 -113.695683 
L 99.026281 -101.148363 
L 93.827523 -89.246073 
L 88.628766 -78.434398 
L 83.430008 -70.438877 
L 78.23125 -66.927983 
z
" id="mb7cb1c6636"/>
    </defs>
    <g clip-path="url(#p2302ecb084)">
     <use style="fill:#47d200;" x="0" xlink:href="#mb7cb1c6636" y="339.573438"/>
    </g>
   </g>
   <g id="matplotlib.axis_1">
    <g id="xtick_1">
     <g id="line2d_1">
      <path clip-path="url(#p2302ecb084)" d="M 78.23125 285 
L 78.23125 13.2 
" style="fill:none;stroke:#b0b0b0;stroke-linecap:square;stroke-width:0.8;"/>
     </g>
     <g id="line2d_2">
      <defs>
       <path d="M 0 0 
L 0 6 
" id="m6127ecb726"/>
      </defs>
      <g>
       <use x="78.23125" xlink:href="#m6127ecb726" y="285"/>
      </g>
     </g>
     <g id="text_1">
      <!-- 0 -->
      <defs>
       <path d="M 31.78125 66.40625 
Q 24.171875 66.40625 20.328125 58.90625 
Q 16.5 51.421875 16.5 36.375 
Q 16.5 21.390625 20.328125 13.890625 
Q 24.171875 6.390625 31.78125 6.390625 
Q 39.453125 6.390625 43.28125 13.890625 
Q 47.125 21.390625 47.125 36.375 
Q 47.125 51.421875 43.28125 58.90625 
Q 39.453125 66.40625 31.78125 66.40625 
z
M 31.78125 74.21875 
Q 44.046875 74.21875 50.515625 64.515625 
Q 56.984375 54.828125 56.984375 36.375 
Q 56.984375 17.96875 50.515625 8.265625 
Q 44.046875 -1.421875 31.78125 -1.421875 
Q 19.53125 -1.421875 13.0625 8.265625 
Q 6.59375 17.96875 6.59375 36.375 
Q 6.59375 54.828125 13.0625 64.515625 
Q 19.53125 74.21875 31.78125 74.21875 
z
" id="DejaVuSans-30"/>
      </defs>
      <g transform="translate(73.459375 305.897656)scale(0.15 -0.15)">
       <use xlink:href="#DejaVuSans-30"/>
      </g>
     </g>
    </g>
    <g id="xtick_2">
     <g id="line2d_3">
      <path clip-path="url(#p2302ecb084)" d="M 130.218828 285 
L 130.218828 13.2 
" style="fill:none;stroke:#b0b0b0;stroke-linecap:square;stroke-width:0.8;"/>
     </g>
     <g id="line2d_4">
      <g>
       <use x="130.218828" xlink:href="#m6127ecb726" y="285"/>
      </g>
     </g>
     <g id="text_2">
      <!-- 1 -->
      <defs>
       <path d="M 12.40625 8.296875 
L 28.515625 8.296875 
L 28.515625 63.921875 
L 10.984375 60.40625 
L 10.984375 69.390625 
L 28.421875 72.90625 
L 38.28125 72.90625 
L 38.28125 8.296875 
L 54.390625 8.296875 
L 54.390625 0 
L 12.40625 0 
z
" id="DejaVuSans-31"/>
      </defs>
      <g transform="translate(125.446953 305.897656)scale(0.15 -0.15)">
       <use xlink:href="#DejaVuSans-31"/>
      </g>
     </g>
    </g>
    <g id="xtick_3">
     <g id="line2d_5">
      <path clip-path="url(#p2302ecb084)" d="M 182.206405 285 
L 182.206405 13.2 
" style="fill:none;stroke:#b0b0b0;stroke-linecap:square;stroke-width:0.8;"/>
     </g>
     <g id="line2d_6">
      <g>
       <use x="182.206405" xlink:href="#m6127ecb726" y="285"/>
      </g>
     </g>
     <g id="text_3">
      <!-- 2 -->
      <defs>
       <path d="M 19.1875 8.296875 
L 53.609375 8.296875 
L 53.609375 0 
L 7.328125 0 
L 7.328125 8.296875 
Q 12.9375 14.109375 22.625 23.890625 
Q 32.328125 33.6875 34.8125 36.53125 
Q 39.546875 41.84375 41.421875 45.53125 
Q 43.3125 49.21875 43.3125 52.78125 
Q 43.3125 58.59375 39.234375 62.25 
Q 35.15625 65.921875 28.609375 65.921875 
Q 23.96875 65.921875 18.8125 64.3125 
Q 13.671875 62.703125 7.8125 59.421875 
L 7.8125 69.390625 
Q 13.765625 71.78125 18.9375 73 
Q 24.125 74.21875 28.421875 74.21875 
Q 39.75 74.21875 46.484375 68.546875 
Q 53.21875 62.890625 53.21875 53.421875 
Q 53.21875 48.921875 51.53125 44.890625 
Q 49.859375 40.875 45.40625 35.40625 
Q 44.1875 33.984375 37.640625 27.21875 
Q 31.109375 20.453125 19.1875 8.296875 
z
" id="DejaVuSans-32"/>
      </defs>
      <g transform="translate(177.43453 305.897656)scale(0.15 -0.15)">
       <use xlink:href="#DejaVuSans-32"/>
      </g>
     </g>
    </g>
    <g id="xtick_4">
     <g id="line2d_7">
      <path clip-path="url(#p2302ecb084)" d="M 234.193983 285 
L 234.193983 13.2 
" style="fill:none;stroke:#b0b0b0;stroke-linecap:square;stroke-width:0.8;"/>
     </g>
     <g id="line2d_8">
      <g>
       <use x="234.193983" xlink:href="#m6127ecb726" y="285"/>
      </g>
     </g>
     <g id="text_4">
      <!-- 3 -->
      <defs>
       <path d="M 40.578125 39.3125 
Q 47.65625 37.796875 51.625 33 
Q 55.609375 28.21875 55.609375 21.1875 
Q 55.609375 10.40625 48.1875 4.484375 
Q 40.765625 -1.421875 27.09375 -1.421875 
Q 22.515625 -1.421875 17.65625 -0.515625 
Q 12.796875 0.390625 7.625 2.203125 
L 7.625 11.71875 
Q 11.71875 9.328125 16.59375 8.109375 
Q 21.484375 6.890625 26.8125 6.890625 
Q 36.078125 6.890625 40.9375 10.546875 
Q 45.796875 14.203125 45.796875 21.1875 
Q 45.796875 27.640625 41.28125 31.265625 
Q 36.765625 34.90625 28.71875 34.90625 
L 20.21875 34.90625 
L 20.21875 43.015625 
L 29.109375 43.015625 
Q 36.375 43.015625 40.234375 45.921875 
Q 44.09375 48.828125 44.09375 54.296875 
Q 44.09375 59.90625 40.109375 62.90625 
Q 36.140625 65.921875 28.71875 65.921875 
Q 24.65625 65.921875 20.015625 65.03125 
Q 15.375 64.15625 9.8125 62.3125 
L 9.8125 71.09375 
Q 15.4375 72.65625 20.34375 73.4375 
Q 25.25 74.21875 29.59375 74.21875 
Q 40.828125 74.21875 47.359375 69.109375 
Q 53.90625 64.015625 53.90625 55.328125 
Q 53.90625 49.265625 50.4375 45.09375 
Q 46.96875 40.921875 40.578125 39.3125 
z
" id="DejaVuSans-33"/>
      </defs>
      <g transform="translate(229.422108 305.897656)scale(0.15 -0.15)">
       <use xlink:href="#DejaVuSans-33"/>
      </g>
     </g>
    </g>
    <g id="xtick_5">
     <g id="line2d_9">
      <path clip-path="url(#p2302ecb084)" d="M 286.181561 285 
L 286.181561 13.2 
" style="fill:none;stroke:#b0b0b0;stroke-linecap:square;stroke-width:0.8;"/>
     </g>
     <g id="line2d_10">
      <g>
       <use x="286.181561" xlink:href="#m6127ecb726" y="285"/>
      </g>
     </g>
     <g id="text_5">
      <!-- 4 -->
      <defs>
       <path d="M 37.796875 64.3125 
L 12.890625 25.390625 
L 37.796875 25.390625 
z
M 35.203125 72.90625 
L 47.609375 72.90625 
L 47.609375 25.390625 
L 58.015625 25.390625 
L 58.015625 17.1875 
L 47.609375 17.1875 
L 47.609375 0 
L 37.796875 0 
L 37.796875 17.1875 
L 4.890625 17.1875 
L 4.890625 26.703125 
z
" id="DejaVuSans-34"/>
      </defs>
      <g transform="translate(281.409686 305.897656)scale(0.15 -0.15)">
       <use xlink:href="#DejaVuSans-34"/>
      </g>
     </g>
    </g>
    <g id="xtick_6">
     <g id="line2d_11">
      <path clip-path="url(#p2302ecb084)" d="M 338.169138 285 
L 338.169138 13.2 
" style="fill:none;stroke:#b0b0b0;stroke-linecap:square;stroke-width:0.8;"/>
     </g>
     <g id="line2d_12">
      <g>
       <use x="338.169138" xlink:href="#m6127ecb726" y="285"/>
      </g>
     </g>
     <g id="text_6">
      <!-- 5 -->
      <defs>
       <path d="M 10.796875 72.90625 
L 49.515625 72.90625 
L 49.515625 64.59375 
L 19.828125 64.59375 
L 19.828125 46.734375 
Q 21.96875 47.46875 24.109375 47.828125 
Q 26.265625 48.1875 28.421875 48.1875 
Q 40.625 48.1875 47.75 41.5 
Q 54.890625 34.8125 54.890625 23.390625 
Q 54.890625 11.625 47.5625 5.09375 
Q 40.234375 -1.421875 26.90625 -1.421875 
Q 22.3125 -1.421875 17.546875 -0.640625 
Q 12.796875 0.140625 7.71875 1.703125 
L 7.71875 11.625 
Q 12.109375 9.234375 16.796875 8.0625 
Q 21.484375 6.890625 26.703125 6.890625 
Q 35.15625 6.890625 40.078125 11.328125 
Q 45.015625 15.765625 45.015625 23.390625 
Q 45.015625 31 40.078125 35.4375 
Q 35.15625 39.890625 26.703125 39.890625 
Q 22.75 39.890625 18.8125 39.015625 
Q 14.890625 38.140625 10.796875 36.28125 
z
" id="DejaVuSans-35"/>
      </defs>
      <g transform="translate(333.397263 305.897656)scale(0.15 -0.15)">
       <use xlink:href="#DejaVuSans-35"/>
      </g>
     </g>
    </g>
    <g id="xtick_7">
     <g id="line2d_13">
      <path clip-path="url(#p2302ecb084)" d="M 390.156716 285 
L 390.156716 13.2 
" style="fill:none;stroke:#b0b0b0;stroke-linecap:square;stroke-width:0.8;"/>
     </g>
     <g id="line2d_14">
      <g>
       <use x="390.156716" xlink:href="#m6127ecb726" y="285"/>
      </g>
     </g>
     <g id="text_7">
      <!-- 6 -->
      <defs>
       <path d="M 33.015625 40.375 
Q 26.375 40.375 22.484375 35.828125 
Q 18.609375 31.296875 18.609375 23.390625 
Q 18.609375 15.53125 22.484375 10.953125 
Q 26.375 6.390625 33.015625 6.390625 
Q 39.65625 6.390625 43.53125 10.953125 
Q 47.40625 15.53125 47.40625 23.390625 
Q 47.40625 31.296875 43.53125 35.828125 
Q 39.65625 40.375 33.015625 40.375 
z
M 52.59375 71.296875 
L 52.59375 62.3125 
Q 48.875 64.0625 45.09375 64.984375 
Q 41.3125 65.921875 37.59375 65.921875 
Q 27.828125 65.921875 22.671875 59.328125 
Q 17.53125 52.734375 16.796875 39.40625 
Q 19.671875 43.65625 24.015625 45.921875 
Q 28.375 48.1875 33.59375 48.1875 
Q 44.578125 48.1875 50.953125 41.515625 
Q 57.328125 34.859375 57.328125 23.390625 
Q 57.328125 12.15625 50.6875 5.359375 
Q 44.046875 -1.421875 33.015625 -1.421875 
Q 20.359375 -1.421875 13.671875 8.265625 
Q 6.984375 17.96875 6.984375 36.375 
Q 6.984375 53.65625 15.1875 63.9375 
Q 23.390625 74.21875 37.203125 74.21875 
Q 40.921875 74.21875 44.703125 73.484375 
Q 48.484375 72.75 52.59375 71.296875 
z
" id="DejaVuSans-36"/>
      </defs>
      <g transform="translate(385.384841 305.897656)scale(0.15 -0.15)">
       <use xlink:href="#DejaVuSans-36"/>
      </g>
     </g>
    </g>
    <g id="xtick_8">
     <g id="line2d_15">
      <path clip-path="url(#p2302ecb084)" d="M 442.144293 285 
L 442.144293 13.2 
" style="fill:none;stroke:#b0b0b0;stroke-linecap:square;stroke-width:0.8;"/>
     </g>
     <g id="line2d_16">
      <g>
       <use x="442.144293" xlink:href="#m6127ecb726" y="285"/>
      </g>
     </g>
     <g id="text_8">
      <!-- 7 -->
      <defs>
       <path d="M 8.203125 72.90625 
L 55.078125 72.90625 
L 55.078125 68.703125 
L 28.609375 0 
L 18.3125 0 
L 43.21875 64.59375 
L 8.203125 64.59375 
z
" id="DejaVuSans-37"/>
      </defs>
      <g transform="translate(437.372418 305.897656)scale(0.15 -0.15)">
       <use xlink:href="#DejaVuSans-37"/>
      </g>
     </g>
    </g>
    <g id="text_9">
     <!-- $t/\tau$ -->
     <defs>
      <path d="M 42.28125 54.6875 
L 40.921875 47.703125 
L 23 47.703125 
L 17.1875 18.015625 
Q 16.890625 16.359375 16.75 15.234375 
Q 16.609375 14.109375 16.609375 13.484375 
Q 16.609375 10.359375 18.484375 8.9375 
Q 20.359375 7.515625 24.515625 7.515625 
L 33.59375 7.515625 
L 32.078125 0 
L 23.484375 0 
Q 15.484375 0 11.546875 3.125 
Q 7.625 6.25 7.625 12.59375 
Q 7.625 13.71875 7.765625 15.0625 
Q 7.90625 16.40625 8.203125 18.015625 
L 14.015625 47.703125 
L 6.390625 47.703125 
L 7.8125 54.6875 
L 15.28125 54.6875 
L 18.3125 70.21875 
L 27.296875 70.21875 
L 24.3125 54.6875 
z
" id="DejaVuSans-Oblique-74"/>
      <path d="M 25.390625 72.90625 
L 33.6875 72.90625 
L 8.296875 -9.28125 
L 0 -9.28125 
z
" id="DejaVuSans-2f"/>
      <path d="M 32.859375 9.96875 
Q 34.1875 7.625 39.453125 7.625 
L 43.75 7.625 
L 42.28125 0 
L 36.921875 0 
Q 28.125 0 25 4.6875 
Q 21.921875 9.46875 23.96875 19.828125 
L 29 45.703125 
L 8.453125 45.703125 
L 10.203125 54.6875 
L 60.640625 54.6875 
L 58.890625 45.703125 
L 38.1875 45.703125 
L 33.015625 19.28125 
Q 31.640625 12.203125 32.859375 9.96875 
z
" id="DejaVuSans-Oblique-3c4"/>
     </defs>
     <g transform="translate(246.787772 328.214063)scale(0.2 -0.2)">
      <use transform="translate(0 0.09375)" xlink:href="#DejaVuSans-Oblique-74"/>
      <use transform="translate(39.208984 0.09375)" xlink:href="#DejaVuSans-2f"/>
      <use transform="translate(72.900391 0.09375)" xlink:href="#DejaVuSans-Oblique-3c4"/>
     </g>
    </g>
   </g>
   <g id="matplotlib.axis_2">
    <g id="ytick_1">
     <g id="line2d_17">
      <path clip-path="url(#p2302ecb084)" d="M 78.23125 272.645455 
L 442.144293 272.645455 
" style="fill:none;stroke:#b0b0b0;stroke-linecap:square;stroke-width:0.8;"/>
     </g>
     <g id="line2d_18">
      <defs>
       <path d="M 0 0 
L -6 0 
" id="me1f3bc8744"/>
      </defs>
      <g>
       <use x="78.23125" xlink:href="#me1f3bc8744" y="272.645455"/>
      </g>
     </g>
     <g id="text_10">
      <!-- 500 -->
      <g transform="translate(40.1 278.344283)scale(0.15 -0.15)">
       <use xlink:href="#DejaVuSans-35"/>
       <use x="63.623047" xlink:href="#DejaVuSans-30"/>
       <use x="127.246094" xlink:href="#DejaVuSans-30"/>
      </g>
     </g>
    </g>
    <g id="ytick_2">
     <g id="line2d_19">
      <path clip-path="url(#p2302ecb084)" d="M 78.23125 223.043723 
L 442.144293 223.043723 
" style="fill:none;stroke:#b0b0b0;stroke-linecap:square;stroke-width:0.8;"/>
     </g>
     <g id="line2d_20">
      <g>
       <use x="78.23125" xlink:href="#me1f3bc8744" y="223.043723"/>
      </g>
     </g>
     <g id="text_11">
      <!-- 600 -->
      <g transform="translate(40.1 228.742551)scale(0.15 -0.15)">
       <use xlink:href="#DejaVuSans-36"/>
       <use x="63.623047" xlink:href="#DejaVuSans-30"/>
       <use x="127.246094" xlink:href="#DejaVuSans-30"/>
      </g>
     </g>
    </g>
    <g id="ytick_3">
     <g id="line2d_21">
      <path clip-path="url(#p2302ecb084)" d="M 78.23125 173.441991 
L 442.144293 173.441991 
" style="fill:none;stroke:#b0b0b0;stroke-linecap:square;stroke-width:0.8;"/>
     </g>
     <g id="line2d_22">
      <g>
       <use x="78.23125" xlink:href="#me1f3bc8744" y="173.441991"/>
      </g>
     </g>
     <g id="text_12">
      <!-- 700 -->
      <g transform="translate(40.1 179.140819)scale(0.15 -0.15)">
       <use xlink:href="#DejaVuSans-37"/>
       <use x="63.623047" xlink:href="#DejaVuSans-30"/>
       <use x="127.246094" xlink:href="#DejaVuSans-30"/>
      </g>
     </g>
    </g>
    <g id="ytick_4">
     <g id="line2d_23">
      <path clip-path="url(#p2302ecb084)" d="M 78.23125 123.840259 
L 442.144293 123.840259 
" style="fill:none;stroke:#b0b0b0;stroke-linecap:square;stroke-width:0.8;"/>
     </g>
     <g id="line2d_24">
      <g>
       <use x="78.23125" xlink:href="#me1f3bc8744" y="123.840259"/>
      </g>
     </g>
     <g id="text_13">
      <!-- 800 -->
      <defs>
       <path d="M 31.78125 34.625 
Q 24.75 34.625 20.71875 30.859375 
Q 16.703125 27.09375 16.703125 20.515625 
Q 16.703125 13.921875 20.71875 10.15625 
Q 24.75 6.390625 31.78125 6.390625 
Q 38.8125 6.390625 42.859375 10.171875 
Q 46.921875 13.96875 46.921875 20.515625 
Q 46.921875 27.09375 42.890625 30.859375 
Q 38.875 34.625 31.78125 34.625 
z
M 21.921875 38.8125 
Q 15.578125 40.375 12.03125 44.71875 
Q 8.5 49.078125 8.5 55.328125 
Q 8.5 64.0625 14.71875 69.140625 
Q 20.953125 74.21875 31.78125 74.21875 
Q 42.671875 74.21875 48.875 69.140625 
Q 55.078125 64.0625 55.078125 55.328125 
Q 55.078125 49.078125 51.53125 44.71875 
Q 48 40.375 41.703125 38.8125 
Q 48.828125 37.15625 52.796875 32.3125 
Q 56.78125 27.484375 56.78125 20.515625 
Q 56.78125 9.90625 50.3125 4.234375 
Q 43.84375 -1.421875 31.78125 -1.421875 
Q 19.734375 -1.421875 13.25 4.234375 
Q 6.78125 9.90625 6.78125 20.515625 
Q 6.78125 27.484375 10.78125 32.3125 
Q 14.796875 37.15625 21.921875 38.8125 
z
M 18.3125 54.390625 
Q 18.3125 48.734375 21.84375 45.5625 
Q 25.390625 42.390625 31.78125 42.390625 
Q 38.140625 42.390625 41.71875 45.5625 
Q 45.3125 48.734375 45.3125 54.390625 
Q 45.3125 60.0625 41.71875 63.234375 
Q 38.140625 66.40625 31.78125 66.40625 
Q 25.390625 66.40625 21.84375 63.234375 
Q 18.3125 60.0625 18.3125 54.390625 
z
" id="DejaVuSans-38"/>
      </defs>
      <g transform="translate(40.1 129.539087)scale(0.15 -0.15)">
       <use xlink:href="#DejaVuSans-38"/>
       <use x="63.623047" xlink:href="#DejaVuSans-30"/>
       <use x="127.246094" xlink:href="#DejaVuSans-30"/>
      </g>
     </g>
    </g>
    <g id="ytick_5">
     <g id="line2d_25">
      <path clip-path="url(#p2302ecb084)" d="M 78.23125 74.238527 
L 442.144293 74.238527 
" style="fill:none;stroke:#b0b0b0;stroke-linecap:square;stroke-width:0.8;"/>
     </g>
     <g id="line2d_26">
      <g>
       <use x="78.23125" xlink:href="#me1f3bc8744" y="74.238527"/>
      </g>
     </g>
     <g id="text_14">
      <!-- 900 -->
      <defs>
       <path d="M 10.984375 1.515625 
L 10.984375 10.5 
Q 14.703125 8.734375 18.5 7.8125 
Q 22.3125 6.890625 25.984375 6.890625 
Q 35.75 6.890625 40.890625 13.453125 
Q 46.046875 20.015625 46.78125 33.40625 
Q 43.953125 29.203125 39.59375 26.953125 
Q 35.25 24.703125 29.984375 24.703125 
Q 19.046875 24.703125 12.671875 31.3125 
Q 6.296875 37.9375 6.296875 49.421875 
Q 6.296875 60.640625 12.9375 67.421875 
Q 19.578125 74.21875 30.609375 74.21875 
Q 43.265625 74.21875 49.921875 64.515625 
Q 56.59375 54.828125 56.59375 36.375 
Q 56.59375 19.140625 48.40625 8.859375 
Q 40.234375 -1.421875 26.421875 -1.421875 
Q 22.703125 -1.421875 18.890625 -0.6875 
Q 15.09375 0.046875 10.984375 1.515625 
z
M 30.609375 32.421875 
Q 37.25 32.421875 41.125 36.953125 
Q 45.015625 41.5 45.015625 49.421875 
Q 45.015625 57.28125 41.125 61.84375 
Q 37.25 66.40625 30.609375 66.40625 
Q 23.96875 66.40625 20.09375 61.84375 
Q 16.21875 57.28125 16.21875 49.421875 
Q 16.21875 41.5 20.09375 36.953125 
Q 23.96875 32.421875 30.609375 32.421875 
z
" id="DejaVuSans-39"/>
      </defs>
      <g transform="translate(40.1 79.937355)scale(0.15 -0.15)">
       <use xlink:href="#DejaVuSans-39"/>
       <use x="63.623047" xlink:href="#DejaVuSans-30"/>
       <use x="127.246094" xlink:href="#DejaVuSans-30"/>
      </g>
     </g>
    </g>
    <g id="ytick_6">
     <g id="line2d_27">
      <path clip-path="url(#p2302ecb084)" d="M 78.23125 24.636795 
L 442.144293 24.636795 
" style="fill:none;stroke:#b0b0b0;stroke-linecap:square;stroke-width:0.8;"/>
     </g>
     <g id="line2d_28">
      <g>
       <use x="78.23125" xlink:href="#me1f3bc8744" y="24.636795"/>
      </g>
     </g>
     <g id="text_15">
      <!-- 1000 -->
      <g transform="translate(30.55625 30.335623)scale(0.15 -0.15)">
       <use xlink:href="#DejaVuSans-31"/>
       <use x="63.623047" xlink:href="#DejaVuSans-30"/>
       <use x="127.246094" xlink:href="#DejaVuSans-30"/>
       <use x="190.869141" xlink:href="#DejaVuSans-30"/>
      </g>
     </g>
    </g>
    <g id="text_16">
     <!-- $p$ -->
     <defs>
      <path d="M 49.609375 33.6875 
Q 49.609375 40.875 46.484375 44.671875 
Q 43.359375 48.484375 37.5 48.484375 
Q 33.5 48.484375 29.859375 46.4375 
Q 26.21875 44.390625 23.390625 40.484375 
Q 20.609375 36.625 18.9375 31.15625 
Q 17.28125 25.6875 17.28125 20.3125 
Q 17.28125 13.484375 20.40625 9.796875 
Q 23.53125 6.109375 29.296875 6.109375 
Q 33.546875 6.109375 37.1875 8.109375 
Q 40.828125 10.109375 43.40625 13.921875 
Q 46.1875 17.921875 47.890625 23.34375 
Q 49.609375 28.765625 49.609375 33.6875 
z
M 21.78125 46.390625 
Q 25.390625 51.125 30.296875 53.5625 
Q 35.203125 56 41.21875 56 
Q 49.609375 56 54.25 50.5 
Q 58.890625 45.015625 58.890625 35.109375 
Q 58.890625 27 56 19.65625 
Q 53.125 12.3125 47.703125 6.5 
Q 44.09375 2.640625 39.546875 0.609375 
Q 35.015625 -1.421875 29.984375 -1.421875 
Q 24.171875 -1.421875 20.21875 1 
Q 16.265625 3.421875 14.3125 8.203125 
L 8.6875 -20.796875 
L -0.296875 -20.796875 
L 14.40625 54.6875 
L 23.390625 54.6875 
z
" id="DejaVuSans-Oblique-70"/>
     </defs>
     <g transform="translate(22.35625 155.5)rotate(-90)scale(0.2 -0.2)">
      <use xlink:href="#DejaVuSans-Oblique-70"/>
     </g>
    </g>
   </g>
   <g id="line2d_29">
    <path clip-path="url(#p2302ecb084)" d="M 78.23125 272.645455 
L 83.430008 269.659534 
L 88.628766 262.176667 
L 93.827523 252.051006 
L 99.026281 240.496529 
L 104.225039 228.569052 
L 109.423797 216.524533 
L 114.622554 204.659154 
L 119.821312 193.320557 
L 125.02007 182.449586 
L 130.218828 172.216964 
L 135.417585 162.584939 
L 140.616343 153.579436 
L 145.815101 145.083973 
L 151.013859 137.142365 
L 156.212616 129.640819 
L 161.411374 122.667477 
L 166.610132 116.130723 
L 171.80889 110.078295 
L 177.007648 104.470039 
L 182.206405 99.100206 
L 187.405163 93.954356 
L 192.603921 89.147575 
L 197.802679 84.855394 
L 203.001436 80.832367 
L 208.200194 77.02973 
L 213.398952 73.522785 
L 218.59771 70.188115 
L 223.796467 67.126999 
L 228.995225 64.175708 
L 234.193983 61.431548 
L 239.392741 58.868432 
L 244.591498 56.44998 
L 249.790256 54.169552 
L 254.989014 52.202136 
L 260.187772 50.33977 
L 265.38653 48.597156 
L 270.585287 47.005304 
L 275.784045 45.59641 
L 280.982803 44.3057 
L 286.181561 43.042062 
L 291.380318 41.856973 
L 296.579076 40.938053 
L 301.777834 40.037276 
L 306.976592 38.973849 
L 312.175349 37.97484 
L 317.374107 37.206153 
L 322.572865 36.72209 
L 327.771623 36.28654 
L 332.97038 35.77473 
L 338.169138 35.186542 
L 343.367896 34.634477 
L 348.566654 34.141381 
L 353.765411 33.584208 
L 358.964169 32.940785 
L 364.162927 32.365414 
L 369.361685 31.933796 
L 374.560443 31.501503 
L 379.7592 31.065982 
L 384.957958 30.712897 
L 390.156716 30.310581 
L 395.355474 29.91792 
L 400.554231 29.503752 
L 405.752989 28.987433 
L 410.951747 28.535318 
L 416.150505 28.192137 
L 421.349262 27.856947 
L 426.54802 27.511473 
L 431.746778 27.211856 
L 436.945536 26.814985 
" style="fill:none;stroke:#1f77b4;stroke-linecap:square;stroke-width:3;"/>
   </g>
   <g id="line2d_30">
    <path clip-path="url(#p2302ecb084)" d="M 78.23125 272.645455 
L 83.430008 269.352665 
L 88.628766 261.835599 
L 93.827523 251.445298 
L 99.026281 239.913818 
L 104.225039 227.712488 
L 109.423797 215.575695 
L 114.622554 202.928311 
L 119.821312 190.643273 
L 125.02007 179.196084 
L 130.218828 169.265745 
L 135.417585 159.613336 
L 140.616343 151.147795 
L 145.815101 142.596283 
L 151.013859 134.606995 
L 156.212616 127.348265 
L 161.411374 120.540743 
L 166.610132 113.72712 
L 171.80889 107.202582 
L 177.007648 101.679069 
L 182.206405 96.516829 
L 187.405163 91.529938 
L 192.603921 87.613832 
L 197.802679 83.091437 
L 203.001436 79.447324 
L 208.200194 75.879106 
L 213.398952 72.347764 
L 218.59771 68.81698 
L 223.796467 65.428577 
L 228.995225 62.638094 
L 234.193983 60.392591 
L 239.392741 57.888546 
L 244.591498 55.578736 
L 249.790256 53.534528 
L 254.989014 51.627233 
L 260.187772 49.635157 
L 265.38653 47.836151 
L 270.585287 46.673452 
L 275.784045 45.593595 
L 280.982803 43.93607 
L 286.181561 42.989588 
L 291.380318 41.67269 
L 296.579076 40.326355 
L 301.777834 39.405105 
L 306.976592 38.072796 
L 312.175349 36.852141 
L 317.374107 35.538592 
L 322.572865 34.576022 
L 327.771623 33.951924 
L 332.97038 33.189128 
L 338.169138 32.738346 
L 343.367896 32.411714 
L 348.566654 31.935949 
L 353.765411 31.175192 
L 358.964169 30.709468 
L 364.162927 30.36988 
L 369.361685 30.229853 
L 374.560443 29.887503 
L 379.7592 29.66938 
L 384.957958 29.517153 
L 390.156716 29.424473 
L 395.355474 29.018397 
L 400.554231 28.882583 
L 405.752989 28.66784 
L 410.951747 28.349843 
L 416.150505 28.060383 
L 421.349262 27.781395 
L 426.54802 27.459918 
L 431.746778 27.360584 
L 436.945536 27.216531 
" style="fill:none;stroke:#ff7f0e;stroke-linecap:square;stroke-width:3;"/>
   </g>
   <g id="line2d_31">
    <path clip-path="url(#p2302ecb084)" d="M 78.23125 272.645455 
L 83.430008 269.429165 
L 88.628766 261.879022 
L 93.827523 251.421376 
L 99.026281 239.980109 
L 104.225039 227.702248 
L 109.423797 215.529042 
L 114.622554 203.517459 
L 119.821312 191.681293 
L 125.02007 180.478843 
L 130.218828 169.708618 
L 135.417585 159.960558 
L 140.616343 151.111187 
L 145.815101 142.665303 
L 151.013859 134.647319 
L 156.212616 127.464024 
L 161.411374 120.869772 
L 166.610132 114.116358 
L 171.80889 107.774606 
L 177.007648 102.376044 
L 182.206405 97.253316 
L 187.405163 92.491346 
L 192.603921 88.245876 
L 197.802679 83.779192 
L 203.001436 80.047413 
L 208.200194 76.110484 
L 213.398952 72.441038 
L 218.59771 69.153375 
L 223.796467 65.888058 
L 228.995225 63.065106 
L 234.193983 60.953634 
L 239.392741 58.741061 
L 244.591498 56.416689 
L 249.790256 54.366998 
L 254.989014 52.258104 
L 260.187772 50.32916 
L 265.38653 48.514089 
L 270.585287 47.259858 
L 275.784045 45.811445 
L 280.982803 44.467483 
L 286.181561 43.298183 
L 291.380318 41.915919 
L 296.579076 40.394524 
L 301.777834 39.552796 
L 306.976592 38.184504 
L 312.175349 36.905347 
L 317.374107 35.541398 
L 322.572865 34.639058 
L 327.771623 33.834453 
L 332.97038 33.237502 
L 338.169138 32.68531 
L 343.367896 32.364919 
L 348.566654 31.825119 
L 353.765411 31.125023 
L 358.964169 30.635426 
L 364.162927 30.358475 
L 369.361685 30.145014 
L 374.560443 29.821937 
L 379.7592 29.657706 
L 384.957958 29.467083 
L 390.156716 29.385275 
L 395.355474 29.009711 
L 400.554231 28.879486 
L 405.752989 28.703669 
L 410.951747 28.388403 
L 416.150505 28.08512 
L 421.349262 27.865462 
L 426.54802 27.544602 
L 431.746778 27.463234 
L 436.945536 27.291522 
" style="fill:none;stroke:#2ca02c;stroke-linecap:square;stroke-width:3;"/>
   </g>
   <g id="patch_3">
    <path d="M 78.23125 285 
L 78.23125 13.2 
" style="fill:none;stroke:#000000;stroke-linecap:square;stroke-linejoin:miter;stroke-width:2;"/>
   </g>
   <g id="patch_4">
    <path d="M 442.144293 285 
L 442.144293 13.2 
" style="fill:none;"/>
   </g>
   <g id="patch_5">
    <path d="M 78.23125 285 
L 442.144293 285 
" style="fill:none;stroke:#000000;stroke-linecap:square;stroke-linejoin:miter;stroke-width:2;"/>
   </g>
   <g id="patch_6">
    <path d="M 78.23125 13.2 
L 442.144293 13.2 
" style="fill:none;"/>
   </g>
   <g id="legend_1">
    <g id="patch_7">
     <path d="M 221.60445 277.5 
L 431.644293 277.5 
Q 434.644293 277.5 434.644293 274.5 
L 434.644293 209.948438 
Q 434.644293 206.948438 431.644293 206.948438 
L 221.60445 206.948438 
Q 218.60445 206.948438 218.60445 209.948438 
L 218.60445 274.5 
Q 218.60445 277.5 221.60445 277.5 
z
" style="fill:#ffffff;opacity:0.8;stroke:#cccccc;stroke-linejoin:miter;"/>
    </g>
    <g id="line2d_32">
     <path d="M 224.60445 219.096094 
L 254.60445 219.096094 
" style="fill:none;stroke:#1f77b4;stroke-linecap:square;stroke-width:3;"/>
    </g>
    <g id="line2d_33"/>
    <g id="text_17">
     <!-- Single Lineage -->
     <defs>
      <path d="M 53.515625 70.515625 
L 53.515625 60.890625 
Q 47.90625 63.578125 42.921875 64.890625 
Q 37.9375 66.21875 33.296875 66.21875 
Q 25.25 66.21875 20.875 63.09375 
Q 16.5 59.96875 16.5 54.203125 
Q 16.5 49.359375 19.40625 46.890625 
Q 22.3125 44.4375 30.421875 42.921875 
L 36.375 41.703125 
Q 47.40625 39.59375 52.65625 34.296875 
Q 57.90625 29 57.90625 20.125 
Q 57.90625 9.515625 50.796875 4.046875 
Q 43.703125 -1.421875 29.984375 -1.421875 
Q 24.8125 -1.421875 18.96875 -0.25 
Q 13.140625 0.921875 6.890625 3.21875 
L 6.890625 13.375 
Q 12.890625 10.015625 18.65625 8.296875 
Q 24.421875 6.59375 29.984375 6.59375 
Q 38.421875 6.59375 43.015625 9.90625 
Q 47.609375 13.234375 47.609375 19.390625 
Q 47.609375 24.75 44.3125 27.78125 
Q 41.015625 30.8125 33.5 32.328125 
L 27.484375 33.5 
Q 16.453125 35.6875 11.515625 40.375 
Q 6.59375 45.0625 6.59375 53.421875 
Q 6.59375 63.09375 13.40625 68.65625 
Q 20.21875 74.21875 32.171875 74.21875 
Q 37.3125 74.21875 42.625 73.28125 
Q 47.953125 72.359375 53.515625 70.515625 
z
" id="DejaVuSans-53"/>
      <path d="M 9.421875 54.6875 
L 18.40625 54.6875 
L 18.40625 0 
L 9.421875 0 
z
M 9.421875 75.984375 
L 18.40625 75.984375 
L 18.40625 64.59375 
L 9.421875 64.59375 
z
" id="DejaVuSans-69"/>
      <path d="M 54.890625 33.015625 
L 54.890625 0 
L 45.90625 0 
L 45.90625 32.71875 
Q 45.90625 40.484375 42.875 44.328125 
Q 39.84375 48.1875 33.796875 48.1875 
Q 26.515625 48.1875 22.3125 43.546875 
Q 18.109375 38.921875 18.109375 30.90625 
L 18.109375 0 
L 9.078125 0 
L 9.078125 54.6875 
L 18.109375 54.6875 
L 18.109375 46.1875 
Q 21.34375 51.125 25.703125 53.5625 
Q 30.078125 56 35.796875 56 
Q 45.21875 56 50.046875 50.171875 
Q 54.890625 44.34375 54.890625 33.015625 
z
" id="DejaVuSans-6e"/>
      <path d="M 45.40625 27.984375 
Q 45.40625 37.75 41.375 43.109375 
Q 37.359375 48.484375 30.078125 48.484375 
Q 22.859375 48.484375 18.828125 43.109375 
Q 14.796875 37.75 14.796875 27.984375 
Q 14.796875 18.265625 18.828125 12.890625 
Q 22.859375 7.515625 30.078125 7.515625 
Q 37.359375 7.515625 41.375 12.890625 
Q 45.40625 18.265625 45.40625 27.984375 
z
M 54.390625 6.78125 
Q 54.390625 -7.171875 48.1875 -13.984375 
Q 42 -20.796875 29.203125 -20.796875 
Q 24.46875 -20.796875 20.265625 -20.09375 
Q 16.0625 -19.390625 12.109375 -17.921875 
L 12.109375 -9.1875 
Q 16.0625 -11.328125 19.921875 -12.34375 
Q 23.78125 -13.375 27.78125 -13.375 
Q 36.625 -13.375 41.015625 -8.765625 
Q 45.40625 -4.15625 45.40625 5.171875 
L 45.40625 9.625 
Q 42.625 4.78125 38.28125 2.390625 
Q 33.9375 0 27.875 0 
Q 17.828125 0 11.671875 7.65625 
Q 5.515625 15.328125 5.515625 27.984375 
Q 5.515625 40.671875 11.671875 48.328125 
Q 17.828125 56 27.875 56 
Q 33.9375 56 38.28125 53.609375 
Q 42.625 51.21875 45.40625 46.390625 
L 45.40625 54.6875 
L 54.390625 54.6875 
z
" id="DejaVuSans-67"/>
      <path d="M 9.421875 75.984375 
L 18.40625 75.984375 
L 18.40625 0 
L 9.421875 0 
z
" id="DejaVuSans-6c"/>
      <path d="M 56.203125 29.59375 
L 56.203125 25.203125 
L 14.890625 25.203125 
Q 15.484375 15.921875 20.484375 11.0625 
Q 25.484375 6.203125 34.421875 6.203125 
Q 39.59375 6.203125 44.453125 7.46875 
Q 49.3125 8.734375 54.109375 11.28125 
L 54.109375 2.78125 
Q 49.265625 0.734375 44.1875 -0.34375 
Q 39.109375 -1.421875 33.890625 -1.421875 
Q 20.796875 -1.421875 13.15625 6.1875 
Q 5.515625 13.8125 5.515625 26.8125 
Q 5.515625 40.234375 12.765625 48.109375 
Q 20.015625 56 32.328125 56 
Q 43.359375 56 49.78125 48.890625 
Q 56.203125 41.796875 56.203125 29.59375 
z
M 47.21875 32.234375 
Q 47.125 39.59375 43.09375 43.984375 
Q 39.0625 48.390625 32.421875 48.390625 
Q 24.90625 48.390625 20.390625 44.140625 
Q 15.875 39.890625 15.1875 32.171875 
z
" id="DejaVuSans-65"/>
      <path id="DejaVuSans-20"/>
      <path d="M 9.8125 72.90625 
L 19.671875 72.90625 
L 19.671875 8.296875 
L 55.171875 8.296875 
L 55.171875 0 
L 9.8125 0 
z
" id="DejaVuSans-4c"/>
      <path d="M 34.28125 27.484375 
Q 23.390625 27.484375 19.1875 25 
Q 14.984375 22.515625 14.984375 16.5 
Q 14.984375 11.71875 18.140625 8.90625 
Q 21.296875 6.109375 26.703125 6.109375 
Q 34.1875 6.109375 38.703125 11.40625 
Q 43.21875 16.703125 43.21875 25.484375 
L 43.21875 27.484375 
z
M 52.203125 31.203125 
L 52.203125 0 
L 43.21875 0 
L 43.21875 8.296875 
Q 40.140625 3.328125 35.546875 0.953125 
Q 30.953125 -1.421875 24.3125 -1.421875 
Q 15.921875 -1.421875 10.953125 3.296875 
Q 6 8.015625 6 15.921875 
Q 6 25.140625 12.171875 29.828125 
Q 18.359375 34.515625 30.609375 34.515625 
L 43.21875 34.515625 
L 43.21875 35.40625 
Q 43.21875 41.609375 39.140625 45 
Q 35.0625 48.390625 27.6875 48.390625 
Q 23 48.390625 18.546875 47.265625 
Q 14.109375 46.140625 10.015625 43.890625 
L 10.015625 52.203125 
Q 14.9375 54.109375 19.578125 55.046875 
Q 24.21875 56 28.609375 56 
Q 40.484375 56 46.34375 49.84375 
Q 52.203125 43.703125 52.203125 31.203125 
z
" id="DejaVuSans-61"/>
     </defs>
     <g transform="translate(266.60445 224.346094)scale(0.15 -0.15)">
      <use xlink:href="#DejaVuSans-53"/>
      <use x="63.476562" xlink:href="#DejaVuSans-69"/>
      <use x="91.259766" xlink:href="#DejaVuSans-6e"/>
      <use x="154.638672" xlink:href="#DejaVuSans-67"/>
      <use x="218.115234" xlink:href="#DejaVuSans-6c"/>
      <use x="245.898438" xlink:href="#DejaVuSans-65"/>
      <use x="307.421875" xlink:href="#DejaVuSans-20"/>
      <use x="339.208984" xlink:href="#DejaVuSans-4c"/>
      <use x="394.921875" xlink:href="#DejaVuSans-69"/>
      <use x="422.705078" xlink:href="#DejaVuSans-6e"/>
      <use x="486.083984" xlink:href="#DejaVuSans-65"/>
      <use x="547.607422" xlink:href="#DejaVuSans-61"/>
      <use x="608.886719" xlink:href="#DejaVuSans-67"/>
      <use x="672.363281" xlink:href="#DejaVuSans-65"/>
     </g>
    </g>
    <g id="line2d_34">
     <path d="M 224.60445 241.113281 
L 254.60445 241.113281 
" style="fill:none;stroke:#ff7f0e;stroke-linecap:square;stroke-width:3;"/>
    </g>
    <g id="line2d_35"/>
    <g id="text_18">
     <!-- Population Snapshots -->
     <defs>
      <path d="M 19.671875 64.796875 
L 19.671875 37.40625 
L 32.078125 37.40625 
Q 38.96875 37.40625 42.71875 40.96875 
Q 46.484375 44.53125 46.484375 51.125 
Q 46.484375 57.671875 42.71875 61.234375 
Q 38.96875 64.796875 32.078125 64.796875 
z
M 9.8125 72.90625 
L 32.078125 72.90625 
Q 44.34375 72.90625 50.609375 67.359375 
Q 56.890625 61.8125 56.890625 51.125 
Q 56.890625 40.328125 50.609375 34.8125 
Q 44.34375 29.296875 32.078125 29.296875 
L 19.671875 29.296875 
L 19.671875 0 
L 9.8125 0 
z
" id="DejaVuSans-50"/>
      <path d="M 30.609375 48.390625 
Q 23.390625 48.390625 19.1875 42.75 
Q 14.984375 37.109375 14.984375 27.296875 
Q 14.984375 17.484375 19.15625 11.84375 
Q 23.34375 6.203125 30.609375 6.203125 
Q 37.796875 6.203125 41.984375 11.859375 
Q 46.1875 17.53125 46.1875 27.296875 
Q 46.1875 37.015625 41.984375 42.703125 
Q 37.796875 48.390625 30.609375 48.390625 
z
M 30.609375 56 
Q 42.328125 56 49.015625 48.375 
Q 55.71875 40.765625 55.71875 27.296875 
Q 55.71875 13.875 49.015625 6.21875 
Q 42.328125 -1.421875 30.609375 -1.421875 
Q 18.84375 -1.421875 12.171875 6.21875 
Q 5.515625 13.875 5.515625 27.296875 
Q 5.515625 40.765625 12.171875 48.375 
Q 18.84375 56 30.609375 56 
z
" id="DejaVuSans-6f"/>
      <path d="M 18.109375 8.203125 
L 18.109375 -20.796875 
L 9.078125 -20.796875 
L 9.078125 54.6875 
L 18.109375 54.6875 
L 18.109375 46.390625 
Q 20.953125 51.265625 25.265625 53.625 
Q 29.59375 56 35.59375 56 
Q 45.5625 56 51.78125 48.09375 
Q 58.015625 40.1875 58.015625 27.296875 
Q 58.015625 14.40625 51.78125 6.484375 
Q 45.5625 -1.421875 35.59375 -1.421875 
Q 29.59375 -1.421875 25.265625 0.953125 
Q 20.953125 3.328125 18.109375 8.203125 
z
M 48.6875 27.296875 
Q 48.6875 37.203125 44.609375 42.84375 
Q 40.53125 48.484375 33.40625 48.484375 
Q 26.265625 48.484375 22.1875 42.84375 
Q 18.109375 37.203125 18.109375 27.296875 
Q 18.109375 17.390625 22.1875 11.75 
Q 26.265625 6.109375 33.40625 6.109375 
Q 40.53125 6.109375 44.609375 11.75 
Q 48.6875 17.390625 48.6875 27.296875 
z
" id="DejaVuSans-70"/>
      <path d="M 8.5 21.578125 
L 8.5 54.6875 
L 17.484375 54.6875 
L 17.484375 21.921875 
Q 17.484375 14.15625 20.5 10.265625 
Q 23.53125 6.390625 29.59375 6.390625 
Q 36.859375 6.390625 41.078125 11.03125 
Q 45.3125 15.671875 45.3125 23.6875 
L 45.3125 54.6875 
L 54.296875 54.6875 
L 54.296875 0 
L 45.3125 0 
L 45.3125 8.40625 
Q 42.046875 3.421875 37.71875 1 
Q 33.40625 -1.421875 27.6875 -1.421875 
Q 18.265625 -1.421875 13.375 4.4375 
Q 8.5 10.296875 8.5 21.578125 
z
M 31.109375 56 
z
" id="DejaVuSans-75"/>
      <path d="M 18.3125 70.21875 
L 18.3125 54.6875 
L 36.8125 54.6875 
L 36.8125 47.703125 
L 18.3125 47.703125 
L 18.3125 18.015625 
Q 18.3125 11.328125 20.140625 9.421875 
Q 21.96875 7.515625 27.59375 7.515625 
L 36.8125 7.515625 
L 36.8125 0 
L 27.59375 0 
Q 17.1875 0 13.234375 3.875 
Q 9.28125 7.765625 9.28125 18.015625 
L 9.28125 47.703125 
L 2.6875 47.703125 
L 2.6875 54.6875 
L 9.28125 54.6875 
L 9.28125 70.21875 
z
" id="DejaVuSans-74"/>
      <path d="M 44.28125 53.078125 
L 44.28125 44.578125 
Q 40.484375 46.53125 36.375 47.5 
Q 32.28125 48.484375 27.875 48.484375 
Q 21.1875 48.484375 17.84375 46.4375 
Q 14.5 44.390625 14.5 40.28125 
Q 14.5 37.15625 16.890625 35.375 
Q 19.28125 33.59375 26.515625 31.984375 
L 29.59375 31.296875 
Q 39.15625 29.25 43.1875 25.515625 
Q 47.21875 21.78125 47.21875 15.09375 
Q 47.21875 7.46875 41.1875 3.015625 
Q 35.15625 -1.421875 24.609375 -1.421875 
Q 20.21875 -1.421875 15.453125 -0.5625 
Q 10.6875 0.296875 5.421875 2 
L 5.421875 11.28125 
Q 10.40625 8.6875 15.234375 7.390625 
Q 20.0625 6.109375 24.8125 6.109375 
Q 31.15625 6.109375 34.5625 8.28125 
Q 37.984375 10.453125 37.984375 14.40625 
Q 37.984375 18.0625 35.515625 20.015625 
Q 33.0625 21.96875 24.703125 23.78125 
L 21.578125 24.515625 
Q 13.234375 26.265625 9.515625 29.90625 
Q 5.8125 33.546875 5.8125 39.890625 
Q 5.8125 47.609375 11.28125 51.796875 
Q 16.75 56 26.8125 56 
Q 31.78125 56 36.171875 55.265625 
Q 40.578125 54.546875 44.28125 53.078125 
z
" id="DejaVuSans-73"/>
      <path d="M 54.890625 33.015625 
L 54.890625 0 
L 45.90625 0 
L 45.90625 32.71875 
Q 45.90625 40.484375 42.875 44.328125 
Q 39.84375 48.1875 33.796875 48.1875 
Q 26.515625 48.1875 22.3125 43.546875 
Q 18.109375 38.921875 18.109375 30.90625 
L 18.109375 0 
L 9.078125 0 
L 9.078125 75.984375 
L 18.109375 75.984375 
L 18.109375 46.1875 
Q 21.34375 51.125 25.703125 53.5625 
Q 30.078125 56 35.796875 56 
Q 45.21875 56 50.046875 50.171875 
Q 54.890625 44.34375 54.890625 33.015625 
z
" id="DejaVuSans-68"/>
     </defs>
     <g transform="translate(266.60445 246.363281)scale(0.15 -0.15)">
      <use xlink:href="#DejaVuSans-50"/>
      <use x="60.255859" xlink:href="#DejaVuSans-6f"/>
      <use x="121.4375" xlink:href="#DejaVuSans-70"/>
      <use x="184.914062" xlink:href="#DejaVuSans-75"/>
      <use x="248.292969" xlink:href="#DejaVuSans-6c"/>
      <use x="276.076172" xlink:href="#DejaVuSans-61"/>
      <use x="337.355469" xlink:href="#DejaVuSans-74"/>
      <use x="376.564453" xlink:href="#DejaVuSans-69"/>
      <use x="404.347656" xlink:href="#DejaVuSans-6f"/>
      <use x="465.529297" xlink:href="#DejaVuSans-6e"/>
      <use x="528.908203" xlink:href="#DejaVuSans-20"/>
      <use x="560.695312" xlink:href="#DejaVuSans-53"/>
      <use x="624.171875" xlink:href="#DejaVuSans-6e"/>
      <use x="687.550781" xlink:href="#DejaVuSans-61"/>
      <use x="748.830078" xlink:href="#DejaVuSans-70"/>
      <use x="812.306641" xlink:href="#DejaVuSans-73"/>
      <use x="864.40625" xlink:href="#DejaVuSans-68"/>
      <use x="927.785156" xlink:href="#DejaVuSans-6f"/>
      <use x="988.966797" xlink:href="#DejaVuSans-74"/>
      <use x="1028.175781" xlink:href="#DejaVuSans-73"/>
     </g>
    </g>
    <g id="line2d_36">
     <path d="M 224.60445 263.130469 
L 254.60445 263.130469 
" style="fill:none;stroke:#2ca02c;stroke-linecap:square;stroke-width:3;"/>
    </g>
    <g id="line2d_37"/>
    <g id="text_19">
     <!-- Lineage Tracking -->
     <defs>
      <path d="M -0.296875 72.90625 
L 61.375 72.90625 
L 61.375 64.59375 
L 35.5 64.59375 
L 35.5 0 
L 25.59375 0 
L 25.59375 64.59375 
L -0.296875 64.59375 
z
" id="DejaVuSans-54"/>
      <path d="M 41.109375 46.296875 
Q 39.59375 47.171875 37.8125 47.578125 
Q 36.03125 48 33.890625 48 
Q 26.265625 48 22.1875 43.046875 
Q 18.109375 38.09375 18.109375 28.8125 
L 18.109375 0 
L 9.078125 0 
L 9.078125 54.6875 
L 18.109375 54.6875 
L 18.109375 46.1875 
Q 20.953125 51.171875 25.484375 53.578125 
Q 30.03125 56 36.53125 56 
Q 37.453125 56 38.578125 55.875 
Q 39.703125 55.765625 41.0625 55.515625 
z
" id="DejaVuSans-72"/>
      <path d="M 48.78125 52.59375 
L 48.78125 44.1875 
Q 44.96875 46.296875 41.140625 47.34375 
Q 37.3125 48.390625 33.40625 48.390625 
Q 24.65625 48.390625 19.8125 42.84375 
Q 14.984375 37.3125 14.984375 27.296875 
Q 14.984375 17.28125 19.8125 11.734375 
Q 24.65625 6.203125 33.40625 6.203125 
Q 37.3125 6.203125 41.140625 7.25 
Q 44.96875 8.296875 48.78125 10.40625 
L 48.78125 2.09375 
Q 45.015625 0.34375 40.984375 -0.53125 
Q 36.96875 -1.421875 32.421875 -1.421875 
Q 20.0625 -1.421875 12.78125 6.34375 
Q 5.515625 14.109375 5.515625 27.296875 
Q 5.515625 40.671875 12.859375 48.328125 
Q 20.21875 56 33.015625 56 
Q 37.15625 56 41.109375 55.140625 
Q 45.0625 54.296875 48.78125 52.59375 
z
" id="DejaVuSans-63"/>
      <path d="M 9.078125 75.984375 
L 18.109375 75.984375 
L 18.109375 31.109375 
L 44.921875 54.6875 
L 56.390625 54.6875 
L 27.390625 29.109375 
L 57.625 0 
L 45.90625 0 
L 18.109375 26.703125 
L 18.109375 0 
L 9.078125 0 
z
" id="DejaVuSans-6b"/>
     </defs>
     <g transform="translate(266.60445 268.380469)scale(0.15 -0.15)">
      <use xlink:href="#DejaVuSans-4c"/>
      <use x="55.712891" xlink:href="#DejaVuSans-69"/>
      <use x="83.496094" xlink:href="#DejaVuSans-6e"/>
      <use x="146.875" xlink:href="#DejaVuSans-65"/>
      <use x="208.398438" xlink:href="#DejaVuSans-61"/>
      <use x="269.677734" xlink:href="#DejaVuSans-67"/>
      <use x="333.154297" xlink:href="#DejaVuSans-65"/>
      <use x="394.677734" xlink:href="#DejaVuSans-20"/>
      <use x="426.464844" xlink:href="#DejaVuSans-54"/>
      <use x="487.330078" xlink:href="#DejaVuSans-72"/>
      <use x="528.443359" xlink:href="#DejaVuSans-61"/>
      <use x="589.722656" xlink:href="#DejaVuSans-63"/>
      <use x="644.703125" xlink:href="#DejaVuSans-6b"/>
      <use x="702.613281" xlink:href="#DejaVuSans-69"/>
      <use x="730.396484" xlink:href="#DejaVuSans-6e"/>
      <use x="793.775391" xlink:href="#DejaVuSans-67"/>
     </g>
    </g>
   </g>
  </g>
  <g id="axes_2">
   <g id="patch_8">
    <path d="M 551.318207 285 
L 915.23125 285 
L 915.23125 13.2 
L 551.318207 13.2 
z
" style="fill:#ffffff;"/>
   </g>
   <g id="PolyCollection_4">
    <defs>
     <path d="M 551.318207 -66.927983 
L 551.318207 -66.927983 
L 556.516964 -69.643639 
L 561.715722 -82.557799 
L 566.91448 -105.840867 
L 572.113238 -134.024536 
L 577.311995 -161.959117 
L 582.510753 -185.252576 
L 587.709511 -204.639743 
L 592.908269 -217.574877 
L 598.107026 -238.613694 
L 603.305784 -249.686692 
L 608.504542 -257.063545 
L 613.7033 -263.364471 
L 618.902057 -272.016017 
L 624.100815 -270.532846 
L 629.299573 -274.547688 
L 634.498331 -270.746012 
L 639.697089 -275.132793 
L 644.895846 -280.359743 
L 650.094604 -273.60601 
L 655.293362 -266.920712 
L 660.49212 -261.813311 
L 665.690877 -260.084953 
L 670.889635 -259.760543 
L 676.088393 -257.073743 
L 681.287151 -256.872187 
L 686.485908 -252.567169 
L 691.684666 -252.84674 
L 696.883424 -253.66462 
L 702.082182 -252.236863 
L 707.280939 -249.746101 
L 712.479697 -247.418106 
L 717.678455 -248.315097 
L 722.877213 -250.756914 
L 728.07597 -251.600569 
L 733.274728 -252.377208 
L 738.473486 -253.104384 
L 743.672244 -253.586483 
L 748.871002 -254.779137 
L 754.069759 -253.052497 
L 759.268517 -253.339173 
L 764.467275 -251.847412 
L 769.666033 -251.963219 
L 774.86479 -252.257374 
L 780.063548 -252.574044 
L 785.262306 -254.253031 
L 790.461064 -254.737296 
L 795.659821 -255.752215 
L 800.858579 -256.320411 
L 806.057337 -256.048791 
L 811.256095 -255.917011 
L 816.454852 -255.613087 
L 821.65361 -255.958192 
L 826.852368 -255.599039 
L 832.051126 -255.659365 
L 837.249884 -254.236509 
L 842.448641 -253.307789 
L 847.647399 -252.141503 
L 852.846157 -251.34247 
L 858.044915 -251.556786 
L 863.243672 -251.655993 
L 868.44243 -251.310122 
L 873.641188 -252.083845 
L 878.839946 -251.654638 
L 884.038703 -251.974088 
L 889.237461 -251.476681 
L 894.436219 -251.650906 
L 899.634977 -251.855671 
L 904.833734 -252.30023 
L 910.032492 -253.141329 
L 910.032492 -257.873887 
L 910.032492 -257.873887 
L 904.833734 -257.068619 
L 899.634977 -256.650618 
L 894.436219 -256.539347 
L 889.237461 -256.365046 
L 884.038703 -257.165831 
L 878.839946 -257.367737 
L 873.641188 -257.685846 
L 868.44243 -257.139927 
L 863.243672 -257.583888 
L 858.044915 -257.703389 
L 852.846157 -257.884926 
L 847.647399 -258.692746 
L 842.448641 -260.191117 
L 837.249884 -261.636133 
L 832.051126 -263.219463 
L 826.852368 -263.675977 
L 821.65361 -263.936233 
L 816.454852 -264.238688 
L 811.256095 -264.950261 
L 806.057337 -265.498893 
L 800.858579 -265.945879 
L 795.659821 -265.844017 
L 790.461064 -264.76156 
L 785.262306 -264.834493 
L 780.063548 -263.838168 
L 774.86479 -263.595978 
L 769.666033 -263.704133 
L 764.467275 -263.52258 
L 759.268517 -265.577811 
L 754.069759 -265.506509 
L 748.871002 -267.848016 
L 743.672244 -267.40188 
L 738.473486 -267.462951 
L 733.274728 -266.725059 
L 728.07597 -267.135747 
L 722.877213 -264.979432 
L 717.678455 -263.918631 
L 712.479697 -263.50363 
L 707.280939 -266.297973 
L 702.082182 -269.322594 
L 696.883424 -270.283527 
L 691.684666 -270.189691 
L 686.485908 -272.291663 
L 681.287151 -276.401824 
L 676.088393 -277.978426 
L 670.889635 -283.153834 
L 665.690877 -284.474547 
L 660.49212 -288.699236 
L 655.293362 -295.247555 
L 650.094604 -304.636689 
L 644.895846 -314.018892 
L 639.697089 -310.667568 
L 634.498331 -308.716877 
L 629.299573 -312.121201 
L 624.100815 -312.329446 
L 618.902057 -313.762395 
L 613.7033 -304.114032 
L 608.504542 -297.513278 
L 603.305784 -287.312426 
L 598.107026 -272.550784 
L 592.908269 -246.280383 
L 587.709511 -232.739233 
L 582.510753 -210.928184 
L 577.311995 -181.090556 
L 572.113238 -148.870515 
L 566.91448 -114.365333 
L 561.715722 -86.424037 
L 556.516964 -70.36171 
L 551.318207 -66.927983 
z
" id="m1feec67fae"/>
    </defs>
    <g clip-path="url(#p42ea561a1d)">
     <use style="fill:#ffa035;" x="0" xlink:href="#m1feec67fae" y="339.573438"/>
    </g>
   </g>
   <g id="PolyCollection_5">
    <defs>
     <path d="M 551.318207 -66.927983 
L 551.318207 -66.927983 
L 556.516964 -69.658883 
L 561.715722 -82.405292 
L 566.91448 -103.54899 
L 572.113238 -128.468092 
L 577.311995 -152.366419 
L 582.510753 -172.950032 
L 587.709511 -190.440605 
L 592.908269 -204.271456 
L 598.107026 -216.286885 
L 603.305784 -225.389067 
L 608.504542 -231.626199 
L 613.7033 -236.784581 
L 618.902057 -240.030908 
L 624.100815 -242.624861 
L 629.299573 -242.666569 
L 634.498331 -242.18785 
L 639.697089 -241.723438 
L 644.895846 -240.816744 
L 650.094604 -240.676258 
L 655.293362 -241.019387 
L 660.49212 -240.74939 
L 665.690877 -239.25428 
L 670.889635 -237.048231 
L 676.088393 -235.770578 
L 681.287151 -235.147619 
L 686.485908 -234.607006 
L 691.684666 -233.677332 
L 696.883424 -232.15234 
L 702.082182 -231.370942 
L 707.280939 -229.980165 
L 712.479697 -228.679229 
L 717.678455 -227.19575 
L 722.877213 -225.884059 
L 728.07597 -225.310838 
L 733.274728 -223.245843 
L 738.473486 -221.044188 
L 743.672244 -219.245696 
L 748.871002 -216.71354 
L 754.069759 -215.056359 
L 759.268517 -213.982359 
L 764.467275 -213.634516 
L 769.666033 -213.896322 
L 774.86479 -214.448613 
L 780.063548 -214.216532 
L 785.262306 -212.929096 
L 790.461064 -211.34454 
L 795.659821 -210.761968 
L 800.858579 -210.407746 
L 806.057337 -210.750314 
L 811.256095 -210.540499 
L 816.454852 -210.540724 
L 821.65361 -209.977315 
L 826.852368 -209.882114 
L 832.051126 -209.91006 
L 837.249884 -209.108238 
L 842.448641 -208.49633 
L 847.647399 -207.168557 
L 852.846157 -205.830386 
L 858.044915 -205.438405 
L 863.243672 -205.109901 
L 868.44243 -204.443734 
L 873.641188 -203.507498 
L 878.839946 -202.947733 
L 884.038703 -203.06917 
L 889.237461 -203.213513 
L 894.436219 -203.675656 
L 899.634977 -203.567632 
L 904.833734 -203.028696 
L 910.032492 -203.11103 
L 910.032492 -214.449082 
L 910.032492 -214.449082 
L 904.833734 -213.597464 
L 899.634977 -213.549795 
L 894.436219 -213.752999 
L 889.237461 -213.008182 
L 884.038703 -213.276336 
L 878.839946 -213.327739 
L 873.641188 -214.032477 
L 868.44243 -214.385619 
L 863.243672 -215.446797 
L 858.044915 -215.630357 
L 852.846157 -216.039964 
L 847.647399 -217.243776 
L 842.448641 -218.532549 
L 837.249884 -219.46813 
L 832.051126 -221.006783 
L 826.852368 -220.688884 
L 821.65361 -220.190321 
L 816.454852 -220.646707 
L 811.256095 -221.077202 
L 806.057337 -220.951581 
L 800.858579 -221.086039 
L 795.659821 -221.072725 
L 790.461064 -222.285695 
L 785.262306 -224.200666 
L 780.063548 -225.069741 
L 774.86479 -225.467914 
L 769.666033 -224.615567 
L 764.467275 -224.908343 
L 759.268517 -225.552734 
L 754.069759 -226.243565 
L 748.871002 -228.280488 
L 743.672244 -231.065741 
L 738.473486 -233.3156 
L 733.274728 -235.297027 
L 728.07597 -237.023769 
L 722.877213 -238.524248 
L 717.678455 -238.498471 
L 712.479697 -240.865968 
L 707.280939 -241.797878 
L 702.082182 -242.806519 
L 696.883424 -244.45224 
L 691.684666 -245.94317 
L 686.485908 -247.242091 
L 681.287151 -248.43276 
L 676.088393 -249.478406 
L 670.889635 -250.85832 
L 665.690877 -252.476564 
L 660.49212 -253.891328 
L 655.293362 -254.173289 
L 650.094604 -254.147021 
L 644.895846 -255.071408 
L 639.697089 -255.143471 
L 634.498331 -256.643908 
L 629.299573 -256.417436 
L 624.100815 -255.780061 
L 618.902057 -252.932613 
L 613.7033 -249.54975 
L 608.504542 -244.086896 
L 603.305784 -237.029279 
L 598.107026 -226.743405 
L 592.908269 -214.00395 
L 587.709511 -199.117986 
L 582.510753 -180.37324 
L 577.311995 -158.190745 
L 572.113238 -132.682878 
L 566.91448 -106.10145 
L 561.715722 -83.469623 
L 556.516964 -69.853651 
L 551.318207 -66.927983 
z
" id="m2c71aa4a24"/>
    </defs>
    <g clip-path="url(#p42ea561a1d)">
     <use style="fill:#4db8ff;" x="0" xlink:href="#m2c71aa4a24" y="339.573438"/>
    </g>
   </g>
   <g id="PolyCollection_6">
    <defs>
     <path d="M 551.318207 -66.927983 
L 551.318207 -66.927983 
L 556.516964 -67.023161 
L 561.715722 -67.865322 
L 566.91448 -70.016011 
L 572.113238 -73.710653 
L 577.311995 -79.042256 
L 582.510753 -85.294639 
L 587.709511 -91.662079 
L 592.908269 -99.146099 
L 598.107026 -106.972431 
L 603.305784 -112.996991 
L 608.504542 -120.707431 
L 613.7033 -125.251286 
L 618.902057 -132.328922 
L 624.100815 -137.21302 
L 629.299573 -141.819714 
L 634.498331 -146.827224 
L 639.697089 -152.034818 
L 644.895846 -157.621617 
L 650.094604 -159.795272 
L 655.293362 -160.043737 
L 660.49212 -162.005413 
L 665.690877 -166.305309 
L 670.889635 -169.689607 
L 676.088393 -172.044346 
L 681.287151 -175.329082 
L 686.485908 -178.100458 
L 691.684666 -182.669943 
L 696.883424 -186.188452 
L 702.082182 -190.625809 
L 707.280939 -193.634796 
L 712.479697 -195.070943 
L 717.678455 -197.714116 
L 722.877213 -201.583272 
L 728.07597 -204.789683 
L 733.274728 -208.121826 
L 738.473486 -210.442705 
L 743.672244 -213.194399 
L 748.871002 -216.775546 
L 754.069759 -217.024288 
L 759.268517 -219.015042 
L 764.467275 -219.528524 
L 769.666033 -221.38324 
L 774.86479 -223.638856 
L 780.063548 -225.437055 
L 785.262306 -227.947747 
L 790.461064 -230.456487 
L 795.659821 -233.019093 
L 800.858579 -234.767249 
L 806.057337 -235.573659 
L 811.256095 -236.633095 
L 816.454852 -236.919726 
L 821.65361 -238.910768 
L 826.852368 -239.994708 
L 832.051126 -240.812369 
L 837.249884 -240.509087 
L 842.448641 -241.094817 
L 847.647399 -240.165429 
L 852.846157 -240.302203 
L 858.044915 -241.244646 
L 863.243672 -241.740414 
L 868.44243 -241.996614 
L 873.641188 -243.141076 
L 878.839946 -243.613156 
L 884.038703 -244.336783 
L 889.237461 -244.603335 
L 894.436219 -245.1691 
L 899.634977 -245.456153 
L 904.833734 -246.395465 
L 910.032492 -247.247831 
L 910.032492 -253.484193 
L 910.032492 -253.484193 
L 904.833734 -252.536371 
L 899.634977 -252.091985 
L 894.436219 -251.600307 
L 889.237461 -251.210414 
L 884.038703 -251.727372 
L 878.839946 -251.094374 
L 873.641188 -250.89766 
L 868.44243 -249.685286 
L 863.243672 -249.917125 
L 858.044915 -249.298516 
L 852.846157 -248.691204 
L 847.647399 -248.846398 
L 842.448641 -249.680949 
L 837.249884 -250.261483 
L 832.051126 -250.643897 
L 826.852368 -249.996865 
L 821.65361 -249.018484 
L 816.454852 -247.474759 
L 811.256095 -247.54925 
L 806.057337 -246.701975 
L 800.858579 -245.703805 
L 795.659821 -244.391044 
L 790.461064 -242.609024 
L 785.262306 -240.905451 
L 780.063548 -237.945547 
L 774.86479 -236.139523 
L 769.666033 -234.39519 
L 764.467275 -233.204136 
L 759.268517 -232.814908 
L 754.069759 -231.234501 
L 748.871002 -230.749226 
L 743.672244 -227.73726 
L 738.473486 -225.342491 
L 733.274728 -222.646092 
L 728.07597 -219.971059 
L 722.877213 -216.524585 
L 717.678455 -212.8722 
L 712.479697 -209.69674 
L 707.280939 -208.920971 
L 702.082182 -206.350571 
L 696.883424 -202.185447 
L 691.684666 -197.540134 
L 686.485908 -193.840832 
L 681.287151 -190.898067 
L 676.088393 -187.791538 
L 670.889635 -185.790205 
L 665.690877 -183.187773 
L 660.49212 -181.05606 
L 655.293362 -180.042103 
L 650.094604 -179.292701 
L 644.895846 -177.229692 
L 639.697089 -172.113623 
L 634.498331 -166.160274 
L 629.299573 -163.070142 
L 624.100815 -156.605848 
L 618.902057 -150.658494 
L 613.7033 -144.291072 
L 608.504542 -136.78217 
L 603.305784 -130.466257 
L 598.107026 -122.132076 
L 592.908269 -112.551293 
L 587.709511 -103.075748 
L 582.510753 -95.671841 
L 577.311995 -86.940066 
L 572.113238 -78.756524 
L 566.91448 -73.028519 
L 561.715722 -69.29847 
L 556.516964 -67.387825 
L 551.318207 -66.927983 
z
" id="mfe38aad6cf"/>
    </defs>
    <g clip-path="url(#p42ea561a1d)">
     <use style="fill:#47d200;" x="0" xlink:href="#mfe38aad6cf" y="339.573438"/>
    </g>
   </g>
   <g id="matplotlib.axis_3">
    <g id="xtick_9">
     <g id="line2d_38">
      <path clip-path="url(#p42ea561a1d)" d="M 551.318207 285 
L 551.318207 13.2 
" style="fill:none;stroke:#b0b0b0;stroke-linecap:square;stroke-width:0.8;"/>
     </g>
     <g id="line2d_39">
      <g>
       <use x="551.318207" xlink:href="#m6127ecb726" y="285"/>
      </g>
     </g>
     <g id="text_20">
      <!-- 0 -->
      <g transform="translate(546.546332 305.897656)scale(0.15 -0.15)">
       <use xlink:href="#DejaVuSans-30"/>
      </g>
     </g>
    </g>
    <g id="xtick_10">
     <g id="line2d_40">
      <path clip-path="url(#p42ea561a1d)" d="M 603.305784 285 
L 603.305784 13.2 
" style="fill:none;stroke:#b0b0b0;stroke-linecap:square;stroke-width:0.8;"/>
     </g>
     <g id="line2d_41">
      <g>
       <use x="603.305784" xlink:href="#m6127ecb726" y="285"/>
      </g>
     </g>
     <g id="text_21">
      <!-- 1 -->
      <g transform="translate(598.533909 305.897656)scale(0.15 -0.15)">
       <use xlink:href="#DejaVuSans-31"/>
      </g>
     </g>
    </g>
    <g id="xtick_11">
     <g id="line2d_42">
      <path clip-path="url(#p42ea561a1d)" d="M 655.293362 285 
L 655.293362 13.2 
" style="fill:none;stroke:#b0b0b0;stroke-linecap:square;stroke-width:0.8;"/>
     </g>
     <g id="line2d_43">
      <g>
       <use x="655.293362" xlink:href="#m6127ecb726" y="285"/>
      </g>
     </g>
     <g id="text_22">
      <!-- 2 -->
      <g transform="translate(650.521487 305.897656)scale(0.15 -0.15)">
       <use xlink:href="#DejaVuSans-32"/>
      </g>
     </g>
    </g>
    <g id="xtick_12">
     <g id="line2d_44">
      <path clip-path="url(#p42ea561a1d)" d="M 707.280939 285 
L 707.280939 13.2 
" style="fill:none;stroke:#b0b0b0;stroke-linecap:square;stroke-width:0.8;"/>
     </g>
     <g id="line2d_45">
      <g>
       <use x="707.280939" xlink:href="#m6127ecb726" y="285"/>
      </g>
     </g>
     <g id="text_23">
      <!-- 3 -->
      <g transform="translate(702.509064 305.897656)scale(0.15 -0.15)">
       <use xlink:href="#DejaVuSans-33"/>
      </g>
     </g>
    </g>
    <g id="xtick_13">
     <g id="line2d_46">
      <path clip-path="url(#p42ea561a1d)" d="M 759.268517 285 
L 759.268517 13.2 
" style="fill:none;stroke:#b0b0b0;stroke-linecap:square;stroke-width:0.8;"/>
     </g>
     <g id="line2d_47">
      <g>
       <use x="759.268517" xlink:href="#m6127ecb726" y="285"/>
      </g>
     </g>
     <g id="text_24">
      <!-- 4 -->
      <g transform="translate(754.496642 305.897656)scale(0.15 -0.15)">
       <use xlink:href="#DejaVuSans-34"/>
      </g>
     </g>
    </g>
    <g id="xtick_14">
     <g id="line2d_48">
      <path clip-path="url(#p42ea561a1d)" d="M 811.256095 285 
L 811.256095 13.2 
" style="fill:none;stroke:#b0b0b0;stroke-linecap:square;stroke-width:0.8;"/>
     </g>
     <g id="line2d_49">
      <g>
       <use x="811.256095" xlink:href="#m6127ecb726" y="285"/>
      </g>
     </g>
     <g id="text_25">
      <!-- 5 -->
      <g transform="translate(806.48422 305.897656)scale(0.15 -0.15)">
       <use xlink:href="#DejaVuSans-35"/>
      </g>
     </g>
    </g>
    <g id="xtick_15">
     <g id="line2d_50">
      <path clip-path="url(#p42ea561a1d)" d="M 863.243672 285 
L 863.243672 13.2 
" style="fill:none;stroke:#b0b0b0;stroke-linecap:square;stroke-width:0.8;"/>
     </g>
     <g id="line2d_51">
      <g>
       <use x="863.243672" xlink:href="#m6127ecb726" y="285"/>
      </g>
     </g>
     <g id="text_26">
      <!-- 6 -->
      <g transform="translate(858.471797 305.897656)scale(0.15 -0.15)">
       <use xlink:href="#DejaVuSans-36"/>
      </g>
     </g>
    </g>
    <g id="xtick_16">
     <g id="line2d_52">
      <path clip-path="url(#p42ea561a1d)" d="M 915.23125 285 
L 915.23125 13.2 
" style="fill:none;stroke:#b0b0b0;stroke-linecap:square;stroke-width:0.8;"/>
     </g>
     <g id="line2d_53">
      <g>
       <use x="915.23125" xlink:href="#m6127ecb726" y="285"/>
      </g>
     </g>
     <g id="text_27">
      <!-- 7 -->
      <g transform="translate(910.459375 305.897656)scale(0.15 -0.15)">
       <use xlink:href="#DejaVuSans-37"/>
      </g>
     </g>
    </g>
    <g id="text_28">
     <!-- $t/\tau$ -->
     <g transform="translate(719.874728 328.214063)scale(0.2 -0.2)">
      <use transform="translate(0 0.09375)" xlink:href="#DejaVuSans-Oblique-74"/>
      <use transform="translate(39.208984 0.09375)" xlink:href="#DejaVuSans-2f"/>
      <use transform="translate(72.900391 0.09375)" xlink:href="#DejaVuSans-Oblique-3c4"/>
     </g>
    </g>
   </g>
   <g id="matplotlib.axis_4">
    <g id="ytick_7">
     <g id="line2d_54">
      <path clip-path="url(#p42ea561a1d)" d="M 551.318207 272.645455 
L 915.23125 272.645455 
" style="fill:none;stroke:#b0b0b0;stroke-linecap:square;stroke-width:0.8;"/>
     </g>
     <g id="line2d_55">
      <g>
       <use x="551.318207" xlink:href="#me1f3bc8744" y="272.645455"/>
      </g>
     </g>
     <g id="text_29">
      <!-- 0.000 -->
      <defs>
       <path d="M 10.6875 12.40625 
L 21 12.40625 
L 21 0 
L 10.6875 0 
z
" id="DejaVuSans-2e"/>
      </defs>
      <g transform="translate(498.876019 278.344283)scale(0.15 -0.15)">
       <use xlink:href="#DejaVuSans-30"/>
       <use x="63.623047" xlink:href="#DejaVuSans-2e"/>
       <use x="95.410156" xlink:href="#DejaVuSans-30"/>
       <use x="159.033203" xlink:href="#DejaVuSans-30"/>
       <use x="222.65625" xlink:href="#DejaVuSans-30"/>
      </g>
     </g>
    </g>
    <g id="ytick_8">
     <g id="line2d_56">
      <path clip-path="url(#p42ea561a1d)" d="M 551.318207 222.010901 
L 915.23125 222.010901 
" style="fill:none;stroke:#b0b0b0;stroke-linecap:square;stroke-width:0.8;"/>
     </g>
     <g id="line2d_57">
      <g>
       <use x="551.318207" xlink:href="#me1f3bc8744" y="222.010901"/>
      </g>
     </g>
     <g id="text_30">
      <!-- 0.005 -->
      <g transform="translate(498.876019 227.709729)scale(0.15 -0.15)">
       <use xlink:href="#DejaVuSans-30"/>
       <use x="63.623047" xlink:href="#DejaVuSans-2e"/>
       <use x="95.410156" xlink:href="#DejaVuSans-30"/>
       <use x="159.033203" xlink:href="#DejaVuSans-30"/>
       <use x="222.65625" xlink:href="#DejaVuSans-35"/>
      </g>
     </g>
    </g>
    <g id="ytick_9">
     <g id="line2d_58">
      <path clip-path="url(#p42ea561a1d)" d="M 551.318207 171.376346 
L 915.23125 171.376346 
" style="fill:none;stroke:#b0b0b0;stroke-linecap:square;stroke-width:0.8;"/>
     </g>
     <g id="line2d_59">
      <g>
       <use x="551.318207" xlink:href="#me1f3bc8744" y="171.376346"/>
      </g>
     </g>
     <g id="text_31">
      <!-- 0.010 -->
      <g transform="translate(498.876019 177.075175)scale(0.15 -0.15)">
       <use xlink:href="#DejaVuSans-30"/>
       <use x="63.623047" xlink:href="#DejaVuSans-2e"/>
       <use x="95.410156" xlink:href="#DejaVuSans-30"/>
       <use x="159.033203" xlink:href="#DejaVuSans-31"/>
       <use x="222.65625" xlink:href="#DejaVuSans-30"/>
      </g>
     </g>
    </g>
    <g id="ytick_10">
     <g id="line2d_60">
      <path clip-path="url(#p42ea561a1d)" d="M 551.318207 120.741792 
L 915.23125 120.741792 
" style="fill:none;stroke:#b0b0b0;stroke-linecap:square;stroke-width:0.8;"/>
     </g>
     <g id="line2d_61">
      <g>
       <use x="551.318207" xlink:href="#me1f3bc8744" y="120.741792"/>
      </g>
     </g>
     <g id="text_32">
      <!-- 0.015 -->
      <g transform="translate(498.876019 126.440621)scale(0.15 -0.15)">
       <use xlink:href="#DejaVuSans-30"/>
       <use x="63.623047" xlink:href="#DejaVuSans-2e"/>
       <use x="95.410156" xlink:href="#DejaVuSans-30"/>
       <use x="159.033203" xlink:href="#DejaVuSans-31"/>
       <use x="222.65625" xlink:href="#DejaVuSans-35"/>
      </g>
     </g>
    </g>
    <g id="ytick_11">
     <g id="line2d_62">
      <path clip-path="url(#p42ea561a1d)" d="M 551.318207 70.107238 
L 915.23125 70.107238 
" style="fill:none;stroke:#b0b0b0;stroke-linecap:square;stroke-width:0.8;"/>
     </g>
     <g id="line2d_63">
      <g>
       <use x="551.318207" xlink:href="#me1f3bc8744" y="70.107238"/>
      </g>
     </g>
     <g id="text_33">
      <!-- 0.020 -->
      <g transform="translate(498.876019 75.806066)scale(0.15 -0.15)">
       <use xlink:href="#DejaVuSans-30"/>
       <use x="63.623047" xlink:href="#DejaVuSans-2e"/>
       <use x="95.410156" xlink:href="#DejaVuSans-30"/>
       <use x="159.033203" xlink:href="#DejaVuSans-32"/>
       <use x="222.65625" xlink:href="#DejaVuSans-30"/>
      </g>
     </g>
    </g>
    <g id="ytick_12">
     <g id="line2d_64">
      <path clip-path="url(#p42ea561a1d)" d="M 551.318207 19.472684 
L 915.23125 19.472684 
" style="fill:none;stroke:#b0b0b0;stroke-linecap:square;stroke-width:0.8;"/>
     </g>
     <g id="line2d_65">
      <g>
       <use x="551.318207" xlink:href="#me1f3bc8744" y="19.472684"/>
      </g>
     </g>
     <g id="text_34">
      <!-- 0.025 -->
      <g transform="translate(498.876019 25.171512)scale(0.15 -0.15)">
       <use xlink:href="#DejaVuSans-30"/>
       <use x="63.623047" xlink:href="#DejaVuSans-2e"/>
       <use x="95.410156" xlink:href="#DejaVuSans-30"/>
       <use x="159.033203" xlink:href="#DejaVuSans-32"/>
       <use x="222.65625" xlink:href="#DejaVuSans-35"/>
      </g>
     </g>
    </g>
    <g id="text_35">
     <!-- $C_V^2(p)$ -->
     <defs>
      <path d="M 69.484375 67.28125 
L 67.484375 56.890625 
Q 62.796875 61.625 57.546875 63.921875 
Q 52.296875 66.21875 46.1875 66.21875 
Q 37.84375 66.21875 31.515625 62.203125 
Q 25.203125 58.203125 20.609375 50 
Q 17.671875 44.734375 16.125 38.84375 
Q 14.59375 32.953125 14.59375 27 
Q 14.59375 17.046875 19.75 11.8125 
Q 24.90625 6.59375 34.71875 6.59375 
Q 41.5 6.59375 47.75 8.765625 
Q 54 10.9375 59.90625 15.28125 
L 57.625 3.609375 
Q 51.8125 1.125 45.875 -0.140625 
Q 39.9375 -1.421875 33.984375 -1.421875 
Q 19.96875 -1.421875 12.078125 6.1875 
Q 4.203125 13.8125 4.203125 27.390625 
Q 4.203125 36.078125 7.203125 44.46875 
Q 10.203125 52.875 15.828125 59.8125 
Q 21.78125 67.1875 29.421875 70.703125 
Q 37.0625 74.21875 47.21875 74.21875 
Q 53.46875 74.21875 59.0625 72.484375 
Q 64.65625 70.75 69.484375 67.28125 
z
" id="DejaVuSans-Oblique-43"/>
      <path d="M 20.609375 0 
L 7.8125 72.90625 
L 17.484375 72.90625 
L 28.078125 10.203125 
L 63.484375 72.90625 
L 74.21875 72.90625 
L 32.078125 0 
z
" id="DejaVuSans-Oblique-56"/>
      <path d="M 31 75.875 
Q 24.46875 64.65625 21.28125 53.65625 
Q 18.109375 42.671875 18.109375 31.390625 
Q 18.109375 20.125 21.3125 9.0625 
Q 24.515625 -2 31 -13.1875 
L 23.1875 -13.1875 
Q 15.875 -1.703125 12.234375 9.375 
Q 8.59375 20.453125 8.59375 31.390625 
Q 8.59375 42.28125 12.203125 53.3125 
Q 15.828125 64.359375 23.1875 75.875 
z
" id="DejaVuSans-28"/>
      <path d="M 8.015625 75.875 
L 15.828125 75.875 
Q 23.140625 64.359375 26.78125 53.3125 
Q 30.421875 42.28125 30.421875 31.390625 
Q 30.421875 20.453125 26.78125 9.375 
Q 23.140625 -1.703125 15.828125 -13.1875 
L 8.015625 -13.1875 
Q 14.5 -2 17.703125 9.0625 
Q 20.90625 20.125 20.90625 31.390625 
Q 20.90625 42.671875 17.703125 53.65625 
Q 14.5 64.65625 8.015625 75.875 
z
" id="DejaVuSans-29"/>
     </defs>
     <g transform="translate(489.276019 175.7)rotate(-90)scale(0.2 -0.2)">
      <use transform="translate(0 0.765625)" xlink:href="#DejaVuSans-Oblique-43"/>
      <use transform="translate(77.02474 39.046875)scale(0.7)" xlink:href="#DejaVuSans-32"/>
      <use transform="translate(69.824219 -26.578125)scale(0.7)" xlink:href="#DejaVuSans-Oblique-56"/>
      <use transform="translate(124.295247 0.765625)" xlink:href="#DejaVuSans-28"/>
      <use transform="translate(163.308919 0.765625)" xlink:href="#DejaVuSans-Oblique-70"/>
      <use transform="translate(226.785482 0.765625)" xlink:href="#DejaVuSans-29"/>
     </g>
    </g>
   </g>
   <g id="line2d_66">
    <path clip-path="url(#p42ea561a1d)" d="M 551.318207 272.645455 
L 556.516964 269.81717 
L 561.715722 256.63598 
L 566.91448 234.748218 
L 572.113238 208.997952 
L 577.311995 184.294856 
L 582.510753 162.911802 
L 587.709511 144.794142 
L 592.908269 130.435734 
L 598.107026 118.058293 
L 603.305784 108.364265 
L 608.504542 101.71689 
L 613.7033 96.406272 
L 618.902057 93.091677 
L 624.100815 90.370976 
L 629.299573 90.031435 
L 634.498331 90.157558 
L 639.697089 91.139983 
L 644.895846 91.629362 
L 650.094604 92.161798 
L 655.293362 91.9771 
L 660.49212 92.253079 
L 665.690877 93.708016 
L 670.889635 95.620162 
L 676.088393 96.948945 
L 681.287151 97.783248 
L 686.485908 98.648889 
L 691.684666 99.763186 
L 696.883424 101.271148 
L 702.082182 102.484707 
L 707.280939 103.684416 
L 712.479697 104.800839 
L 717.678455 106.726327 
L 722.877213 107.369284 
L 728.07597 108.406134 
L 733.274728 110.302002 
L 738.473486 112.393543 
L 743.672244 114.417719 
L 748.871002 117.076424 
L 754.069759 118.923475 
L 759.268517 119.805891 
L 764.467275 120.302008 
L 769.666033 120.317493 
L 774.86479 119.615174 
L 780.063548 119.930301 
L 785.262306 121.008557 
L 790.461064 122.75832 
L 795.659821 123.656091 
L 800.858579 123.826545 
L 806.057337 123.72249 
L 811.256095 123.764587 
L 816.454852 123.979722 
L 821.65361 124.489619 
L 826.852368 124.287938 
L 832.051126 124.115016 
L 837.249884 125.285253 
L 842.448641 126.058998 
L 847.647399 127.367271 
L 852.846157 128.638262 
L 858.044915 129.039056 
L 863.243672 129.295088 
L 868.44243 130.158761 
L 873.641188 130.80345 
L 878.839946 131.435702 
L 884.038703 131.400684 
L 889.237461 131.46259 
L 894.436219 130.85911 
L 899.634977 131.014724 
L 904.833734 131.260358 
L 910.032492 130.793381 
" style="fill:none;stroke:#1f77b4;stroke-linecap:square;stroke-width:3;"/>
   </g>
   <g id="line2d_67">
    <path clip-path="url(#p42ea561a1d)" d="M 551.318207 272.645455 
L 556.516964 269.570763 
L 561.715722 255.082519 
L 566.91448 229.470338 
L 572.113238 198.125912 
L 577.311995 168.048601 
L 582.510753 141.483058 
L 587.709511 120.88395 
L 592.908269 107.645807 
L 598.107026 83.991198 
L 603.305784 71.073878 
L 608.504542 62.285026 
L 613.7033 55.834186 
L 618.902057 46.684232 
L 624.100815 48.142292 
L 629.299573 46.238993 
L 634.498331 49.841993 
L 639.697089 46.673257 
L 644.895846 42.38412 
L 650.094604 50.452088 
L 655.293362 58.489304 
L 660.49212 64.317164 
L 665.690877 67.293688 
L 670.889635 68.116249 
L 676.088393 72.047353 
L 681.287151 72.936432 
L 686.485908 77.144022 
L 691.684666 78.055222 
L 696.883424 77.599364 
L 702.082182 78.793709 
L 707.280939 81.551401 
L 712.479697 84.112569 
L 717.678455 83.456573 
L 722.877213 81.705265 
L 728.07597 80.20528 
L 733.274728 80.022304 
L 738.473486 79.28977 
L 743.672244 79.079256 
L 748.871002 78.259861 
L 754.069759 80.293934 
L 759.268517 80.114946 
L 764.467275 81.888441 
L 769.666033 81.739762 
L 774.86479 81.646762 
L 780.063548 81.367331 
L 785.262306 80.029675 
L 790.461064 79.82401 
L 795.659821 78.775321 
L 800.858579 78.440293 
L 806.057337 78.799596 
L 811.256095 79.139802 
L 816.454852 79.64755 
L 821.65361 79.626225 
L 826.852368 79.93593 
L 832.051126 80.134023 
L 837.249884 81.637116 
L 842.448641 82.823984 
L 847.647399 84.156313 
L 852.846157 84.959739 
L 858.044915 84.94335 
L 863.243672 84.953497 
L 868.44243 85.348413 
L 873.641188 84.688592 
L 878.839946 85.06225 
L 884.038703 85.003478 
L 889.237461 85.652574 
L 894.436219 85.478311 
L 899.634977 85.320293 
L 904.833734 84.889013 
L 910.032492 84.065829 
" style="fill:none;stroke:#ff7f0e;stroke-linecap:square;stroke-width:3;"/>
   </g>
   <g id="line2d_68">
    <path clip-path="url(#p42ea561a1d)" d="M 551.318207 272.645455 
L 556.516964 272.367944 
L 561.715722 270.991541 
L 566.91448 268.051173 
L 572.113238 263.339849 
L 577.311995 256.582276 
L 582.510753 249.090198 
L 587.709511 242.204524 
L 592.908269 233.724741 
L 598.107026 225.021184 
L 603.305784 217.841814 
L 608.504542 210.828637 
L 613.7033 204.802259 
L 618.902057 198.079729 
L 624.100815 192.664003 
L 629.299573 187.12851 
L 634.498331 183.079689 
L 639.697089 177.499217 
L 644.895846 172.147783 
L 650.094604 170.029451 
L 655.293362 169.530517 
L 660.49212 168.042701 
L 665.690877 164.826897 
L 670.889635 161.833532 
L 676.088393 159.655495 
L 681.287151 156.459863 
L 686.485908 153.602792 
L 691.684666 149.468399 
L 696.883424 145.386488 
L 702.082182 141.085248 
L 707.280939 138.295554 
L 712.479697 137.189596 
L 717.678455 134.28028 
L 722.877213 130.519509 
L 728.07597 127.193067 
L 733.274728 124.189479 
L 738.473486 121.68084 
L 743.672244 119.107608 
L 748.871002 115.811052 
L 754.069759 115.444043 
L 759.268517 113.658463 
L 764.467275 113.207108 
L 769.666033 111.684222 
L 774.86479 109.684248 
L 780.063548 107.882137 
L 785.262306 105.146839 
L 790.461064 103.040682 
L 795.659821 100.868369 
L 800.858579 99.337911 
L 806.057337 98.43562 
L 811.256095 97.482265 
L 816.454852 97.376195 
L 821.65361 95.608812 
L 826.852368 94.577651 
L 832.051126 93.845305 
L 837.249884 94.188152 
L 842.448641 94.185555 
L 847.647399 95.067524 
L 852.846157 95.076734 
L 858.044915 94.301857 
L 863.243672 93.744668 
L 868.44243 93.732487 
L 873.641188 92.554069 
L 878.839946 92.219672 
L 884.038703 91.54136 
L 889.237461 91.666563 
L 894.436219 91.188734 
L 899.634977 90.799368 
L 904.833734 90.10752 
L 910.032492 89.207426 
" style="fill:none;stroke:#319000;stroke-linecap:square;stroke-width:3;"/>
   </g>
   <g id="patch_9">
    <path d="M 551.318207 285 
L 551.318207 13.2 
" style="fill:none;stroke:#000000;stroke-linecap:square;stroke-linejoin:miter;stroke-width:2;"/>
   </g>
   <g id="patch_10">
    <path d="M 915.23125 285 
L 915.23125 13.2 
" style="fill:none;"/>
   </g>
   <g id="patch_11">
    <path d="M 551.318207 285 
L 915.23125 285 
" style="fill:none;stroke:#000000;stroke-linecap:square;stroke-linejoin:miter;stroke-width:2;"/>
   </g>
   <g id="patch_12">
    <path d="M 551.318207 13.2 
L 915.23125 13.2 
" style="fill:none;"/>
   </g>
  </g>
 </g>
 <defs>
  <clipPath id="p2302ecb084">
   <rect height="271.8" width="363.913043" x="78.23125" y="13.2"/>
  </clipPath>
  <clipPath id="p42ea561a1d">
   <rect height="271.8" width="363.913043" x="551.318207" y="13.2"/>
  </clipPath>
 </defs>
</svg>
