<?xml version="1.0" encoding="utf-8" standalone="no"?>
<!DOCTYPE svg PUBLIC "-//W3C//DTD SVG 1.1//EN"
  "http://www.w3.org/Graphics/SVG/1.1/DTD/svg11.dtd">
<!-- Created with matplotlib (http://matplotlib.org/) -->
<svg height="339.573438pt" version="1.1" viewBox="0 0 909.34375 339.573438" width="909.34375pt" xmlns="http://www.w3.org/2000/svg" xmlns:xlink="http://www.w3.org/1999/xlink">
 <defs>
  <style type="text/css">
*{stroke-linecap:butt;stroke-linejoin:round;}
  </style>
 </defs>
 <g id="figure_1">
  <g id="patch_1">
   <path d="M 0 339.573438 
L 909.34375 339.573438 
L 909.34375 0 
L 0 0 
z
" style="fill:#ffffff;"/>
  </g>
  <g id="axes_1">
   <g id="patch_2">
    <path d="M 59.14375 285 
L 423.056793 285 
L 423.056793 13.2 
L 59.14375 13.2 
z
" style="fill:#ffffff;"/>
   </g>
   <g id="PolyCollection_1">
    <defs>
     <path d="M 59.14375 -66.927983 
L 59.14375 -66.927983 
L 64.342508 -132.653678 
L 69.541266 -179.447332 
L 74.740023 -210.185408 
L 79.938781 -228.319747 
L 85.137539 -239.477547 
L 90.336297 -249.666389 
L 95.535054 -259.142558 
L 100.733812 -257.918223 
L 105.93257 -259.636526 
L 111.131328 -263.791439 
L 116.330085 -267.165822 
L 121.528843 -265.817188 
L 126.727601 -267.773108 
L 131.926359 -264.295269 
L 137.125116 -266.346303 
L 142.323874 -263.605447 
L 147.522632 -264.672462 
L 152.72139 -265.22881 
L 157.920148 -264.999023 
L 163.118905 -265.201468 
L 168.317663 -266.862454 
L 173.516421 -261.606167 
L 178.715179 -261.276658 
L 183.913936 -263.114196 
L 189.112694 -262.690403 
L 194.311452 -261.770741 
L 199.51021 -265.871216 
L 204.708967 -264.550948 
L 209.907725 -265.598163 
L 215.106483 -269.058507 
L 220.305241 -264.627598 
L 225.503998 -270.361701 
L 230.702756 -269.078648 
L 235.901514 -266.81403 
L 241.100272 -269.254814 
L 246.29903 -269.781263 
L 251.497787 -266.693902 
L 256.696545 -268.011502 
L 261.895303 -266.97284 
L 267.094061 -269.986909 
L 272.292818 -267.432576 
L 277.491576 -267.001272 
L 282.690334 -267.192187 
L 287.889092 -270.712737 
L 293.087849 -267.447289 
L 298.286607 -264.633518 
L 303.485365 -259.403267 
L 308.684123 -260.659502 
L 313.88288 -263.98357 
L 319.081638 -265.083166 
L 324.280396 -264.914599 
L 329.479154 -266.70215 
L 334.677911 -267.854445 
L 339.876669 -266.289581 
L 345.075427 -264.202604 
L 350.274185 -264.593334 
L 355.472943 -263.63005 
L 360.6717 -267.95661 
L 365.870458 -264.437021 
L 371.069216 -266.667102 
L 376.267974 -266.035621 
L 381.466731 -269.342157 
L 386.665489 -271.50144 
L 391.864247 -266.457698 
L 397.063005 -267.988904 
L 402.261762 -268.56195 
L 407.46052 -266.689689 
L 412.659278 -268.015284 
L 417.858036 -269.025932 
L 417.858036 -279.03754 
L 417.858036 -279.03754 
L 412.659278 -277.678038 
L 407.46052 -276.137138 
L 402.261762 -277.97983 
L 397.063005 -277.445827 
L 391.864247 -275.587658 
L 386.665489 -280.476134 
L 381.466731 -278.637058 
L 376.267974 -274.745147 
L 371.069216 -276.682403 
L 365.870458 -273.50011 
L 360.6717 -277.387578 
L 355.472943 -272.915663 
L 350.274185 -273.762847 
L 345.075427 -273.536376 
L 339.876669 -275.576341 
L 334.677911 -277.415764 
L 329.479154 -275.87794 
L 324.280396 -274.709238 
L 319.081638 -274.320367 
L 313.88288 -273.094352 
L 308.684123 -269.436975 
L 303.485365 -268.506734 
L 298.286607 -274.17069 
L 293.087849 -276.706014 
L 287.889092 -279.991841 
L 282.690334 -276.867134 
L 277.491576 -276.981787 
L 272.292818 -277.14024 
L 267.094061 -279.102505 
L 261.895303 -276.496827 
L 256.696545 -277.471996 
L 251.497787 -276.568141 
L 246.29903 -279.392507 
L 241.100272 -278.674305 
L 235.901514 -276.175991 
L 230.702756 -278.674867 
L 225.503998 -279.914418 
L 220.305241 -274.54095 
L 215.106483 -278.513987 
L 209.907725 -275.366099 
L 204.708967 -273.619109 
L 199.51021 -275.204688 
L 194.311452 -271.859654 
L 189.112694 -273.097089 
L 183.913936 -273.169636 
L 178.715179 -270.511014 
L 173.516421 -270.791977 
L 168.317663 -276.272085 
L 163.118905 -275.314593 
L 157.920148 -274.665132 
L 152.72139 -274.786691 
L 147.522632 -274.717984 
L 142.323874 -273.338682 
L 137.125116 -275.845364 
L 131.926359 -273.847367 
L 126.727601 -277.254661 
L 121.528843 -275.366121 
L 116.330085 -276.955333 
L 111.131328 -273.573121 
L 105.93257 -269.539731 
L 100.733812 -267.331862 
L 95.535054 -268.501378 
L 90.336297 -258.743274 
L 85.137539 -248.405883 
L 79.938781 -236.957027 
L 74.740023 -218.462969 
L 69.541266 -187.445371 
L 64.342508 -139.258603 
L 59.14375 -66.927983 
z
" id="m4f30d63392"/>
    </defs>
    <g clip-path="url(#pa55633c03c)">
     <use style="fill:#4db8ff;" x="0" xlink:href="#m4f30d63392" y="339.573438"/>
    </g>
   </g>
   <g id="PolyCollection_2">
    <defs>
     <path d="M 59.14375 -66.927983 
L 59.14375 -66.927983 
L 64.342508 -136.493087 
L 69.541266 -155.169712 
L 74.740023 -190.598274 
L 79.938781 -227.304517 
L 85.137539 -225.190219 
L 90.336297 -249.251024 
L 95.535054 -254.612502 
L 100.733812 -252.005075 
L 105.93257 -268.855022 
L 111.131328 -263.879458 
L 116.330085 -274.894187 
L 121.528843 -277.592978 
L 126.727601 -262.082166 
L 131.926359 -253.624289 
L 137.125116 -258.730777 
L 142.323874 -258.549881 
L 147.522632 -253.912176 
L 152.72139 -259.912762 
L 157.920148 -255.000812 
L 163.118905 -261.028757 
L 168.317663 -266.944615 
L 173.516421 -265.852983 
L 178.715179 -266.797341 
L 183.913936 -261.814967 
L 189.112694 -259.117177 
L 194.311452 -265.127863 
L 199.51021 -259.280935 
L 204.708967 -266.586161 
L 209.907725 -269.087346 
L 215.106483 -264.458578 
L 220.305241 -271.39743 
L 225.503998 -264.246093 
L 230.702756 -263.113695 
L 235.901514 -264.275105 
L 241.100272 -266.989886 
L 246.29903 -262.983394 
L 251.497787 -264.369305 
L 256.696545 -264.328155 
L 261.895303 -260.921292 
L 267.094061 -263.380632 
L 272.292818 -268.169047 
L 277.491576 -269.147761 
L 282.690334 -268.228835 
L 287.889092 -266.433869 
L 293.087849 -268.595308 
L 298.286607 -273.259421 
L 303.485365 -267.819056 
L 308.684123 -263.753388 
L 313.88288 -262.978456 
L 319.081638 -260.855702 
L 324.280396 -262.230919 
L 329.479154 -268.460097 
L 334.677911 -267.810823 
L 339.876669 -268.616284 
L 345.075427 -270.961484 
L 350.274185 -269.98551 
L 355.472943 -271.635743 
L 360.6717 -269.860536 
L 365.870458 -268.168441 
L 371.069216 -267.464297 
L 376.267974 -270.754577 
L 381.466731 -269.528985 
L 386.665489 -268.26285 
L 391.864247 -267.958693 
L 397.063005 -268.643755 
L 402.261762 -269.485747 
L 407.46052 -269.465982 
L 412.659278 -269.76735 
L 417.858036 -271.329064 
L 417.858036 -276.309777 
L 417.858036 -276.309777 
L 412.659278 -274.925842 
L 407.46052 -274.728409 
L 402.261762 -274.935117 
L 397.063005 -274.088071 
L 391.864247 -273.650034 
L 386.665489 -274.250588 
L 381.466731 -275.767322 
L 376.267974 -277.062605 
L 371.069216 -274.025129 
L 365.870458 -274.915015 
L 360.6717 -276.973235 
L 355.472943 -279.204657 
L 350.274185 -277.452327 
L 345.075427 -279.04858 
L 339.876669 -276.570938 
L 334.677911 -276.037324 
L 329.479154 -277.093888 
L 324.280396 -271.207795 
L 319.081638 -270.163264 
L 313.88288 -272.24347 
L 308.684123 -273.644993 
L 303.485365 -277.256579 
L 298.286607 -284.132567 
L 293.087849 -279.9248 
L 287.889092 -277.502875 
L 282.690334 -280.0703 
L 277.491576 -281.445237 
L 272.292818 -280.66399 
L 267.094061 -276.424518 
L 261.895303 -273.424135 
L 256.696545 -277.732517 
L 251.497787 -278.516473 
L 246.29903 -277.303315 
L 241.100272 -282.192062 
L 235.901514 -280.019802 
L 230.702756 -279.610772 
L 225.503998 -282.001934 
L 220.305241 -290.34135 
L 215.106483 -283.704146 
L 209.907725 -288.851572 
L 204.708967 -287.29814 
L 199.51021 -279.607561 
L 194.311452 -285.778862 
L 189.112694 -281.076442 
L 183.913936 -284.502414 
L 178.715179 -289.159088 
L 173.516421 -289.515356 
L 168.317663 -289.750807 
L 163.118905 -285.962468 
L 157.920148 -282.102097 
L 152.72139 -286.786613 
L 147.522632 -281.7794 
L 142.323874 -286.594286 
L 137.125116 -287.474119 
L 131.926359 -286.128613 
L 126.727601 -298.847645 
L 121.528843 -312.481625 
L 116.330085 -314.018892 
L 111.131328 -302.624617 
L 105.93257 -309.921537 
L 100.733812 -291.216605 
L 95.535054 -299.678483 
L 90.336297 -290.340976 
L 85.137539 -267.690957 
L 79.938781 -270.867834 
L 74.740023 -229.245414 
L 69.541266 -195.244509 
L 64.342508 -166.388716 
L 59.14375 -66.927983 
z
" id="m0b12072944"/>
    </defs>
    <g clip-path="url(#pa55633c03c)">
     <use style="fill:#ffa035;" x="0" xlink:href="#m0b12072944" y="339.573438"/>
    </g>
   </g>
   <g id="PolyCollection_3">
    <defs>
     <path d="M 59.14375 -66.927983 
L 59.14375 -66.927983 
L 64.342508 -133.996202 
L 69.541266 -160.812302 
L 74.740023 -197.930288 
L 79.938781 -228.415639 
L 85.137539 -225.270419 
L 90.336297 -244.765725 
L 95.535054 -245.241107 
L 100.733812 -248.437045 
L 105.93257 -264.63723 
L 111.131328 -266.639325 
L 116.330085 -277.082852 
L 121.528843 -276.424452 
L 126.727601 -264.26161 
L 131.926359 -256.555065 
L 137.125116 -258.523248 
L 142.323874 -260.530055 
L 147.522632 -261.813414 
L 152.72139 -260.453234 
L 157.920148 -254.471263 
L 163.118905 -261.396514 
L 168.317663 -266.756959 
L 173.516421 -264.644935 
L 178.715179 -266.775227 
L 183.913936 -261.696335 
L 189.112694 -263.468403 
L 194.311452 -268.140552 
L 199.51021 -260.016332 
L 204.708967 -269.116039 
L 209.907725 -268.524215 
L 215.106483 -263.490071 
L 220.305241 -269.077805 
L 225.503998 -263.517493 
L 230.702756 -261.116849 
L 235.901514 -263.651147 
L 241.100272 -268.412316 
L 246.29903 -262.851419 
L 251.497787 -264.19982 
L 256.696545 -263.594563 
L 261.895303 -259.639482 
L 267.094061 -263.7418 
L 272.292818 -268.230366 
L 277.491576 -268.693451 
L 282.690334 -268.406206 
L 287.889092 -265.956766 
L 293.087849 -269.318594 
L 298.286607 -273.783952 
L 303.485365 -268.848034 
L 308.684123 -264.710318 
L 313.88288 -263.348894 
L 319.081638 -260.653456 
L 324.280396 -263.127343 
L 329.479154 -269.260174 
L 334.677911 -268.837455 
L 339.876669 -269.215538 
L 345.075427 -271.881834 
L 350.274185 -270.509155 
L 355.472943 -271.887146 
L 360.6717 -269.865741 
L 365.870458 -268.227265 
L 371.069216 -267.183412 
L 376.267974 -270.143502 
L 381.466731 -269.202381 
L 386.665489 -267.773067 
L 391.864247 -267.518755 
L 397.063005 -268.080942 
L 402.261762 -268.976926 
L 407.46052 -269.295004 
L 412.659278 -269.503082 
L 417.858036 -270.729287 
L 417.858036 -276.021211 
L 417.858036 -276.021211 
L 412.659278 -274.492693 
L 407.46052 -274.197091 
L 402.261762 -274.058771 
L 397.063005 -273.615972 
L 391.864247 -273.657432 
L 386.665489 -273.892772 
L 381.466731 -275.313529 
L 376.267974 -276.807222 
L 371.069216 -274.023765 
L 365.870458 -274.964781 
L 360.6717 -276.782854 
L 355.472943 -279.183789 
L 350.274185 -277.50744 
L 345.075427 -279.23296 
L 339.876669 -277.5964 
L 334.677911 -276.658084 
L 329.479154 -277.141644 
L 324.280396 -271.380218 
L 319.081638 -270.564397 
L 313.88288 -272.385588 
L 308.684123 -273.685789 
L 303.485365 -277.667274 
L 298.286607 -284.364582 
L 293.087849 -279.088992 
L 287.889092 -277.811483 
L 282.690334 -280.002314 
L 277.491576 -281.167845 
L 272.292818 -280.175538 
L 267.094061 -275.313642 
L 261.895303 -272.57105 
L 256.696545 -277.78017 
L 251.497787 -278.643389 
L 246.29903 -276.634468 
L 241.100272 -280.817939 
L 235.901514 -277.998718 
L 230.702756 -277.524947 
L 225.503998 -280.365422 
L 220.305241 -287.133948 
L 215.106483 -281.333856 
L 209.907725 -287.406848 
L 204.708967 -287.730683 
L 199.51021 -279.280137 
L 194.311452 -287.193007 
L 189.112694 -283.770133 
L 183.913936 -283.33153 
L 178.715179 -285.932629 
L 173.516421 -283.935873 
L 168.317663 -286.358279 
L 163.118905 -282.107472 
L 157.920148 -277.261578 
L 152.72139 -286.059135 
L 147.522632 -287.252438 
L 142.323874 -284.437057 
L 137.125116 -283.547859 
L 131.926359 -283.147961 
L 126.727601 -293.21119 
L 121.528843 -308.944622 
L 116.330085 -307.114903 
L 111.131328 -298.558174 
L 105.93257 -298.988807 
L 100.733812 -287.735945 
L 95.535054 -282.933311 
L 90.336297 -279.059327 
L 85.137539 -259.219749 
L 79.938781 -265.742292 
L 74.740023 -234.296602 
L 69.541266 -198.22732 
L 64.342508 -160.466808 
L 59.14375 -66.927983 
z
" id="m7771aa2679"/>
    </defs>
    <g clip-path="url(#pa55633c03c)">
     <use style="fill:#00c917;" x="0" xlink:href="#m7771aa2679" y="339.573438"/>
    </g>
   </g>
   <g id="matplotlib.axis_1">
    <g id="xtick_1">
     <g id="line2d_1">
      <path clip-path="url(#pa55633c03c)" d="M 59.14375 285 
L 59.14375 13.2 
" style="fill:none;stroke:#b0b0b0;stroke-linecap:square;stroke-width:0.8;"/>
     </g>
     <g id="line2d_2">
      <defs>
       <path d="M 0 0 
L 0 6 
" id="m50dac31736"/>
      </defs>
      <g>
       <use x="59.14375" xlink:href="#m50dac31736" y="285"/>
      </g>
     </g>
     <g id="text_1">
      <!-- 0 -->
      <defs>
       <path d="M 31.78125 66.40625 
Q 24.171875 66.40625 20.328125 58.90625 
Q 16.5 51.421875 16.5 36.375 
Q 16.5 21.390625 20.328125 13.890625 
Q 24.171875 6.390625 31.78125 6.390625 
Q 39.453125 6.390625 43.28125 13.890625 
Q 47.125 21.390625 47.125 36.375 
Q 47.125 51.421875 43.28125 58.90625 
Q 39.453125 66.40625 31.78125 66.40625 
z
M 31.78125 74.21875 
Q 44.046875 74.21875 50.515625 64.515625 
Q 56.984375 54.828125 56.984375 36.375 
Q 56.984375 17.96875 50.515625 8.265625 
Q 44.046875 -1.421875 31.78125 -1.421875 
Q 19.53125 -1.421875 13.0625 8.265625 
Q 6.59375 17.96875 6.59375 36.375 
Q 6.59375 54.828125 13.0625 64.515625 
Q 19.53125 74.21875 31.78125 74.21875 
z
" id="DejaVuSans-30"/>
      </defs>
      <g transform="translate(54.371875 305.897656)scale(0.15 -0.15)">
       <use xlink:href="#DejaVuSans-30"/>
      </g>
     </g>
    </g>
    <g id="xtick_2">
     <g id="line2d_3">
      <path clip-path="url(#pa55633c03c)" d="M 111.131328 285 
L 111.131328 13.2 
" style="fill:none;stroke:#b0b0b0;stroke-linecap:square;stroke-width:0.8;"/>
     </g>
     <g id="line2d_4">
      <g>
       <use x="111.131328" xlink:href="#m50dac31736" y="285"/>
      </g>
     </g>
     <g id="text_2">
      <!-- 1 -->
      <defs>
       <path d="M 12.40625 8.296875 
L 28.515625 8.296875 
L 28.515625 63.921875 
L 10.984375 60.40625 
L 10.984375 69.390625 
L 28.421875 72.90625 
L 38.28125 72.90625 
L 38.28125 8.296875 
L 54.390625 8.296875 
L 54.390625 0 
L 12.40625 0 
z
" id="DejaVuSans-31"/>
      </defs>
      <g transform="translate(106.359453 305.897656)scale(0.15 -0.15)">
       <use xlink:href="#DejaVuSans-31"/>
      </g>
     </g>
    </g>
    <g id="xtick_3">
     <g id="line2d_5">
      <path clip-path="url(#pa55633c03c)" d="M 163.118905 285 
L 163.118905 13.2 
" style="fill:none;stroke:#b0b0b0;stroke-linecap:square;stroke-width:0.8;"/>
     </g>
     <g id="line2d_6">
      <g>
       <use x="163.118905" xlink:href="#m50dac31736" y="285"/>
      </g>
     </g>
     <g id="text_3">
      <!-- 2 -->
      <defs>
       <path d="M 19.1875 8.296875 
L 53.609375 8.296875 
L 53.609375 0 
L 7.328125 0 
L 7.328125 8.296875 
Q 12.9375 14.109375 22.625 23.890625 
Q 32.328125 33.6875 34.8125 36.53125 
Q 39.546875 41.84375 41.421875 45.53125 
Q 43.3125 49.21875 43.3125 52.78125 
Q 43.3125 58.59375 39.234375 62.25 
Q 35.15625 65.921875 28.609375 65.921875 
Q 23.96875 65.921875 18.8125 64.3125 
Q 13.671875 62.703125 7.8125 59.421875 
L 7.8125 69.390625 
Q 13.765625 71.78125 18.9375 73 
Q 24.125 74.21875 28.421875 74.21875 
Q 39.75 74.21875 46.484375 68.546875 
Q 53.21875 62.890625 53.21875 53.421875 
Q 53.21875 48.921875 51.53125 44.890625 
Q 49.859375 40.875 45.40625 35.40625 
Q 44.1875 33.984375 37.640625 27.21875 
Q 31.109375 20.453125 19.1875 8.296875 
z
" id="DejaVuSans-32"/>
      </defs>
      <g transform="translate(158.34703 305.897656)scale(0.15 -0.15)">
       <use xlink:href="#DejaVuSans-32"/>
      </g>
     </g>
    </g>
    <g id="xtick_4">
     <g id="line2d_7">
      <path clip-path="url(#pa55633c03c)" d="M 215.106483 285 
L 215.106483 13.2 
" style="fill:none;stroke:#b0b0b0;stroke-linecap:square;stroke-width:0.8;"/>
     </g>
     <g id="line2d_8">
      <g>
       <use x="215.106483" xlink:href="#m50dac31736" y="285"/>
      </g>
     </g>
     <g id="text_4">
      <!-- 3 -->
      <defs>
       <path d="M 40.578125 39.3125 
Q 47.65625 37.796875 51.625 33 
Q 55.609375 28.21875 55.609375 21.1875 
Q 55.609375 10.40625 48.1875 4.484375 
Q 40.765625 -1.421875 27.09375 -1.421875 
Q 22.515625 -1.421875 17.65625 -0.515625 
Q 12.796875 0.390625 7.625 2.203125 
L 7.625 11.71875 
Q 11.71875 9.328125 16.59375 8.109375 
Q 21.484375 6.890625 26.8125 6.890625 
Q 36.078125 6.890625 40.9375 10.546875 
Q 45.796875 14.203125 45.796875 21.1875 
Q 45.796875 27.640625 41.28125 31.265625 
Q 36.765625 34.90625 28.71875 34.90625 
L 20.21875 34.90625 
L 20.21875 43.015625 
L 29.109375 43.015625 
Q 36.375 43.015625 40.234375 45.921875 
Q 44.09375 48.828125 44.09375 54.296875 
Q 44.09375 59.90625 40.109375 62.90625 
Q 36.140625 65.921875 28.71875 65.921875 
Q 24.65625 65.921875 20.015625 65.03125 
Q 15.375 64.15625 9.8125 62.3125 
L 9.8125 71.09375 
Q 15.4375 72.65625 20.34375 73.4375 
Q 25.25 74.21875 29.59375 74.21875 
Q 40.828125 74.21875 47.359375 69.109375 
Q 53.90625 64.015625 53.90625 55.328125 
Q 53.90625 49.265625 50.4375 45.09375 
Q 46.96875 40.921875 40.578125 39.3125 
z
" id="DejaVuSans-33"/>
      </defs>
      <g transform="translate(210.334608 305.897656)scale(0.15 -0.15)">
       <use xlink:href="#DejaVuSans-33"/>
      </g>
     </g>
    </g>
    <g id="xtick_5">
     <g id="line2d_9">
      <path clip-path="url(#pa55633c03c)" d="M 267.094061 285 
L 267.094061 13.2 
" style="fill:none;stroke:#b0b0b0;stroke-linecap:square;stroke-width:0.8;"/>
     </g>
     <g id="line2d_10">
      <g>
       <use x="267.094061" xlink:href="#m50dac31736" y="285"/>
      </g>
     </g>
     <g id="text_5">
      <!-- 4 -->
      <defs>
       <path d="M 37.796875 64.3125 
L 12.890625 25.390625 
L 37.796875 25.390625 
z
M 35.203125 72.90625 
L 47.609375 72.90625 
L 47.609375 25.390625 
L 58.015625 25.390625 
L 58.015625 17.1875 
L 47.609375 17.1875 
L 47.609375 0 
L 37.796875 0 
L 37.796875 17.1875 
L 4.890625 17.1875 
L 4.890625 26.703125 
z
" id="DejaVuSans-34"/>
      </defs>
      <g transform="translate(262.322186 305.897656)scale(0.15 -0.15)">
       <use xlink:href="#DejaVuSans-34"/>
      </g>
     </g>
    </g>
    <g id="xtick_6">
     <g id="line2d_11">
      <path clip-path="url(#pa55633c03c)" d="M 319.081638 285 
L 319.081638 13.2 
" style="fill:none;stroke:#b0b0b0;stroke-linecap:square;stroke-width:0.8;"/>
     </g>
     <g id="line2d_12">
      <g>
       <use x="319.081638" xlink:href="#m50dac31736" y="285"/>
      </g>
     </g>
     <g id="text_6">
      <!-- 5 -->
      <defs>
       <path d="M 10.796875 72.90625 
L 49.515625 72.90625 
L 49.515625 64.59375 
L 19.828125 64.59375 
L 19.828125 46.734375 
Q 21.96875 47.46875 24.109375 47.828125 
Q 26.265625 48.1875 28.421875 48.1875 
Q 40.625 48.1875 47.75 41.5 
Q 54.890625 34.8125 54.890625 23.390625 
Q 54.890625 11.625 47.5625 5.09375 
Q 40.234375 -1.421875 26.90625 -1.421875 
Q 22.3125 -1.421875 17.546875 -0.640625 
Q 12.796875 0.140625 7.71875 1.703125 
L 7.71875 11.625 
Q 12.109375 9.234375 16.796875 8.0625 
Q 21.484375 6.890625 26.703125 6.890625 
Q 35.15625 6.890625 40.078125 11.328125 
Q 45.015625 15.765625 45.015625 23.390625 
Q 45.015625 31 40.078125 35.4375 
Q 35.15625 39.890625 26.703125 39.890625 
Q 22.75 39.890625 18.8125 39.015625 
Q 14.890625 38.140625 10.796875 36.28125 
z
" id="DejaVuSans-35"/>
      </defs>
      <g transform="translate(314.309763 305.897656)scale(0.15 -0.15)">
       <use xlink:href="#DejaVuSans-35"/>
      </g>
     </g>
    </g>
    <g id="xtick_7">
     <g id="line2d_13">
      <path clip-path="url(#pa55633c03c)" d="M 371.069216 285 
L 371.069216 13.2 
" style="fill:none;stroke:#b0b0b0;stroke-linecap:square;stroke-width:0.8;"/>
     </g>
     <g id="line2d_14">
      <g>
       <use x="371.069216" xlink:href="#m50dac31736" y="285"/>
      </g>
     </g>
     <g id="text_7">
      <!-- 6 -->
      <defs>
       <path d="M 33.015625 40.375 
Q 26.375 40.375 22.484375 35.828125 
Q 18.609375 31.296875 18.609375 23.390625 
Q 18.609375 15.53125 22.484375 10.953125 
Q 26.375 6.390625 33.015625 6.390625 
Q 39.65625 6.390625 43.53125 10.953125 
Q 47.40625 15.53125 47.40625 23.390625 
Q 47.40625 31.296875 43.53125 35.828125 
Q 39.65625 40.375 33.015625 40.375 
z
M 52.59375 71.296875 
L 52.59375 62.3125 
Q 48.875 64.0625 45.09375 64.984375 
Q 41.3125 65.921875 37.59375 65.921875 
Q 27.828125 65.921875 22.671875 59.328125 
Q 17.53125 52.734375 16.796875 39.40625 
Q 19.671875 43.65625 24.015625 45.921875 
Q 28.375 48.1875 33.59375 48.1875 
Q 44.578125 48.1875 50.953125 41.515625 
Q 57.328125 34.859375 57.328125 23.390625 
Q 57.328125 12.15625 50.6875 5.359375 
Q 44.046875 -1.421875 33.015625 -1.421875 
Q 20.359375 -1.421875 13.671875 8.265625 
Q 6.984375 17.96875 6.984375 36.375 
Q 6.984375 53.65625 15.1875 63.9375 
Q 23.390625 74.21875 37.203125 74.21875 
Q 40.921875 74.21875 44.703125 73.484375 
Q 48.484375 72.75 52.59375 71.296875 
z
" id="DejaVuSans-36"/>
      </defs>
      <g transform="translate(366.297341 305.897656)scale(0.15 -0.15)">
       <use xlink:href="#DejaVuSans-36"/>
      </g>
     </g>
    </g>
    <g id="xtick_8">
     <g id="line2d_15">
      <path clip-path="url(#pa55633c03c)" d="M 423.056793 285 
L 423.056793 13.2 
" style="fill:none;stroke:#b0b0b0;stroke-linecap:square;stroke-width:0.8;"/>
     </g>
     <g id="line2d_16">
      <g>
       <use x="423.056793" xlink:href="#m50dac31736" y="285"/>
      </g>
     </g>
     <g id="text_8">
      <!-- 7 -->
      <defs>
       <path d="M 8.203125 72.90625 
L 55.078125 72.90625 
L 55.078125 68.703125 
L 28.609375 0 
L 18.3125 0 
L 43.21875 64.59375 
L 8.203125 64.59375 
z
" id="DejaVuSans-37"/>
      </defs>
      <g transform="translate(418.284918 305.897656)scale(0.15 -0.15)">
       <use xlink:href="#DejaVuSans-37"/>
      </g>
     </g>
    </g>
    <g id="text_9">
     <!-- $t/\tau$ -->
     <defs>
      <path d="M 42.28125 54.6875 
L 40.921875 47.703125 
L 23 47.703125 
L 17.1875 18.015625 
Q 16.890625 16.359375 16.75 15.234375 
Q 16.609375 14.109375 16.609375 13.484375 
Q 16.609375 10.359375 18.484375 8.9375 
Q 20.359375 7.515625 24.515625 7.515625 
L 33.59375 7.515625 
L 32.078125 0 
L 23.484375 0 
Q 15.484375 0 11.546875 3.125 
Q 7.625 6.25 7.625 12.59375 
Q 7.625 13.71875 7.765625 15.0625 
Q 7.90625 16.40625 8.203125 18.015625 
L 14.015625 47.703125 
L 6.390625 47.703125 
L 7.8125 54.6875 
L 15.28125 54.6875 
L 18.3125 70.21875 
L 27.296875 70.21875 
L 24.3125 54.6875 
z
" id="DejaVuSans-Oblique-74"/>
      <path d="M 25.390625 72.90625 
L 33.6875 72.90625 
L 8.296875 -9.28125 
L 0 -9.28125 
z
" id="DejaVuSans-2f"/>
      <path d="M 32.859375 9.96875 
Q 34.1875 7.625 39.453125 7.625 
L 43.75 7.625 
L 42.28125 0 
L 36.921875 0 
Q 28.125 0 25 4.6875 
Q 21.921875 9.46875 23.96875 19.828125 
L 29 45.703125 
L 8.453125 45.703125 
L 10.203125 54.6875 
L 60.640625 54.6875 
L 58.890625 45.703125 
L 38.1875 45.703125 
L 33.015625 19.28125 
Q 31.640625 12.203125 32.859375 9.96875 
z
" id="DejaVuSans-Oblique-3c4"/>
     </defs>
     <g transform="translate(227.700272 328.214063)scale(0.2 -0.2)">
      <use transform="translate(0 0.09375)" xlink:href="#DejaVuSans-Oblique-74"/>
      <use transform="translate(39.208984 0.09375)" xlink:href="#DejaVuSans-2f"/>
      <use transform="translate(72.900391 0.09375)" xlink:href="#DejaVuSans-Oblique-3c4"/>
     </g>
    </g>
   </g>
   <g id="matplotlib.axis_2">
    <g id="ytick_1">
     <g id="line2d_17">
      <path clip-path="url(#pa55633c03c)" d="M 59.14375 272.645455 
L 423.056793 272.645455 
" style="fill:none;stroke:#b0b0b0;stroke-linecap:square;stroke-width:0.8;"/>
     </g>
     <g id="line2d_18">
      <defs>
       <path d="M 0 0 
L -6 0 
" id="mbb428dc9b7"/>
      </defs>
      <g>
       <use x="59.14375" xlink:href="#mbb428dc9b7" y="272.645455"/>
      </g>
     </g>
     <g id="text_10">
      <!-- 5 -->
      <g transform="translate(40.1 278.344283)scale(0.15 -0.15)">
       <use xlink:href="#DejaVuSans-35"/>
      </g>
     </g>
    </g>
    <g id="ytick_2">
     <g id="line2d_19">
      <path clip-path="url(#pa55633c03c)" d="M 59.14375 231.726473 
L 423.056793 231.726473 
" style="fill:none;stroke:#b0b0b0;stroke-linecap:square;stroke-width:0.8;"/>
     </g>
     <g id="line2d_20">
      <g>
       <use x="59.14375" xlink:href="#mbb428dc9b7" y="231.726473"/>
      </g>
     </g>
     <g id="text_11">
      <!-- 6 -->
      <g transform="translate(40.1 237.425301)scale(0.15 -0.15)">
       <use xlink:href="#DejaVuSans-36"/>
      </g>
     </g>
    </g>
    <g id="ytick_3">
     <g id="line2d_21">
      <path clip-path="url(#pa55633c03c)" d="M 59.14375 190.807492 
L 423.056793 190.807492 
" style="fill:none;stroke:#b0b0b0;stroke-linecap:square;stroke-width:0.8;"/>
     </g>
     <g id="line2d_22">
      <g>
       <use x="59.14375" xlink:href="#mbb428dc9b7" y="190.807492"/>
      </g>
     </g>
     <g id="text_12">
      <!-- 7 -->
      <g transform="translate(40.1 196.50632)scale(0.15 -0.15)">
       <use xlink:href="#DejaVuSans-37"/>
      </g>
     </g>
    </g>
    <g id="ytick_4">
     <g id="line2d_23">
      <path clip-path="url(#pa55633c03c)" d="M 59.14375 149.88851 
L 423.056793 149.88851 
" style="fill:none;stroke:#b0b0b0;stroke-linecap:square;stroke-width:0.8;"/>
     </g>
     <g id="line2d_24">
      <g>
       <use x="59.14375" xlink:href="#mbb428dc9b7" y="149.88851"/>
      </g>
     </g>
     <g id="text_13">
      <!-- 8 -->
      <defs>
       <path d="M 31.78125 34.625 
Q 24.75 34.625 20.71875 30.859375 
Q 16.703125 27.09375 16.703125 20.515625 
Q 16.703125 13.921875 20.71875 10.15625 
Q 24.75 6.390625 31.78125 6.390625 
Q 38.8125 6.390625 42.859375 10.171875 
Q 46.921875 13.96875 46.921875 20.515625 
Q 46.921875 27.09375 42.890625 30.859375 
Q 38.875 34.625 31.78125 34.625 
z
M 21.921875 38.8125 
Q 15.578125 40.375 12.03125 44.71875 
Q 8.5 49.078125 8.5 55.328125 
Q 8.5 64.0625 14.71875 69.140625 
Q 20.953125 74.21875 31.78125 74.21875 
Q 42.671875 74.21875 48.875 69.140625 
Q 55.078125 64.0625 55.078125 55.328125 
Q 55.078125 49.078125 51.53125 44.71875 
Q 48 40.375 41.703125 38.8125 
Q 48.828125 37.15625 52.796875 32.3125 
Q 56.78125 27.484375 56.78125 20.515625 
Q 56.78125 9.90625 50.3125 4.234375 
Q 43.84375 -1.421875 31.78125 -1.421875 
Q 19.734375 -1.421875 13.25 4.234375 
Q 6.78125 9.90625 6.78125 20.515625 
Q 6.78125 27.484375 10.78125 32.3125 
Q 14.796875 37.15625 21.921875 38.8125 
z
M 18.3125 54.390625 
Q 18.3125 48.734375 21.84375 45.5625 
Q 25.390625 42.390625 31.78125 42.390625 
Q 38.140625 42.390625 41.71875 45.5625 
Q 45.3125 48.734375 45.3125 54.390625 
Q 45.3125 60.0625 41.71875 63.234375 
Q 38.140625 66.40625 31.78125 66.40625 
Q 25.390625 66.40625 21.84375 63.234375 
Q 18.3125 60.0625 18.3125 54.390625 
z
" id="DejaVuSans-38"/>
      </defs>
      <g transform="translate(40.1 155.587339)scale(0.15 -0.15)">
       <use xlink:href="#DejaVuSans-38"/>
      </g>
     </g>
    </g>
    <g id="ytick_5">
     <g id="line2d_25">
      <path clip-path="url(#pa55633c03c)" d="M 59.14375 108.969529 
L 423.056793 108.969529 
" style="fill:none;stroke:#b0b0b0;stroke-linecap:square;stroke-width:0.8;"/>
     </g>
     <g id="line2d_26">
      <g>
       <use x="59.14375" xlink:href="#mbb428dc9b7" y="108.969529"/>
      </g>
     </g>
     <g id="text_14">
      <!-- 9 -->
      <defs>
       <path d="M 10.984375 1.515625 
L 10.984375 10.5 
Q 14.703125 8.734375 18.5 7.8125 
Q 22.3125 6.890625 25.984375 6.890625 
Q 35.75 6.890625 40.890625 13.453125 
Q 46.046875 20.015625 46.78125 33.40625 
Q 43.953125 29.203125 39.59375 26.953125 
Q 35.25 24.703125 29.984375 24.703125 
Q 19.046875 24.703125 12.671875 31.3125 
Q 6.296875 37.9375 6.296875 49.421875 
Q 6.296875 60.640625 12.9375 67.421875 
Q 19.578125 74.21875 30.609375 74.21875 
Q 43.265625 74.21875 49.921875 64.515625 
Q 56.59375 54.828125 56.59375 36.375 
Q 56.59375 19.140625 48.40625 8.859375 
Q 40.234375 -1.421875 26.421875 -1.421875 
Q 22.703125 -1.421875 18.890625 -0.6875 
Q 15.09375 0.046875 10.984375 1.515625 
z
M 30.609375 32.421875 
Q 37.25 32.421875 41.125 36.953125 
Q 45.015625 41.5 45.015625 49.421875 
Q 45.015625 57.28125 41.125 61.84375 
Q 37.25 66.40625 30.609375 66.40625 
Q 23.96875 66.40625 20.09375 61.84375 
Q 16.21875 57.28125 16.21875 49.421875 
Q 16.21875 41.5 20.09375 36.953125 
Q 23.96875 32.421875 30.609375 32.421875 
z
" id="DejaVuSans-39"/>
      </defs>
      <g transform="translate(40.1 114.668357)scale(0.15 -0.15)">
       <use xlink:href="#DejaVuSans-39"/>
      </g>
     </g>
    </g>
    <g id="ytick_6">
     <g id="line2d_27">
      <path clip-path="url(#pa55633c03c)" d="M 59.14375 68.050548 
L 423.056793 68.050548 
" style="fill:none;stroke:#b0b0b0;stroke-linecap:square;stroke-width:0.8;"/>
     </g>
     <g id="line2d_28">
      <g>
       <use x="59.14375" xlink:href="#mbb428dc9b7" y="68.050548"/>
      </g>
     </g>
     <g id="text_15">
      <!-- 10 -->
      <g transform="translate(30.55625 73.749376)scale(0.15 -0.15)">
       <use xlink:href="#DejaVuSans-31"/>
       <use x="63.623047" xlink:href="#DejaVuSans-30"/>
      </g>
     </g>
    </g>
    <g id="ytick_7">
     <g id="line2d_29">
      <path clip-path="url(#pa55633c03c)" d="M 59.14375 27.131566 
L 423.056793 27.131566 
" style="fill:none;stroke:#b0b0b0;stroke-linecap:square;stroke-width:0.8;"/>
     </g>
     <g id="line2d_30">
      <g>
       <use x="59.14375" xlink:href="#mbb428dc9b7" y="27.131566"/>
      </g>
     </g>
     <g id="text_16">
      <!-- 11 -->
      <g transform="translate(30.55625 32.830394)scale(0.15 -0.15)">
       <use xlink:href="#DejaVuSans-31"/>
       <use x="63.623047" xlink:href="#DejaVuSans-31"/>
      </g>
     </g>
    </g>
    <g id="text_17">
     <!-- $\langle r\rangle$ -->
     <defs>
      <path d="M 8.9375 31.34375 
L 22.703125 75.875 
L 31 75.875 
L 17.234375 31.34375 
L 31 -13.1875 
L 22.703125 -13.1875 
z
" id="DejaVuSans-27e8"/>
      <path d="M 44.578125 46.390625 
Q 43.21875 47.125 41.453125 47.515625 
Q 39.703125 47.90625 37.703125 47.90625 
Q 30.515625 47.90625 25.140625 42.453125 
Q 19.78125 37.015625 18.015625 27.875 
L 12.5 0 
L 3.515625 0 
L 14.203125 54.6875 
L 23.1875 54.6875 
L 21.484375 46.1875 
Q 25.046875 50.921875 30 53.453125 
Q 34.96875 56 40.578125 56 
Q 42.046875 56 43.453125 55.828125 
Q 44.875 55.671875 46.296875 55.28125 
z
" id="DejaVuSans-Oblique-72"/>
      <path d="M 30.078125 31.34375 
L 16.3125 -13.1875 
L 8.015625 -13.1875 
L 21.78125 31.34375 
L 8.015625 75.875 
L 16.3125 75.875 
z
" id="DejaVuSans-27e9"/>
     </defs>
     <g transform="translate(22.396875 161.1)rotate(-90)scale(0.2 -0.2)">
      <use transform="translate(0 0.125)" xlink:href="#DejaVuSans-27e8"/>
      <use transform="translate(39.013672 0.125)" xlink:href="#DejaVuSans-Oblique-72"/>
      <use transform="translate(80.126953 0.125)" xlink:href="#DejaVuSans-27e9"/>
     </g>
    </g>
   </g>
   <g id="line2d_31">
    <path clip-path="url(#pa55633c03c)" d="M 59.14375 272.645455 
L 64.342508 203.617297 
L 69.541266 156.127086 
L 74.740023 125.249249 
L 79.938781 106.93505 
L 85.137539 95.631723 
L 90.336297 85.368606 
L 95.535054 75.751469 
L 100.733812 76.948395 
L 105.93257 74.985309 
L 111.131328 70.891157 
L 116.330085 67.51286 
L 121.528843 68.981783 
L 126.727601 67.059553 
L 131.926359 70.50212 
L 137.125116 68.477604 
L 142.323874 71.101373 
L 147.522632 69.878214 
L 152.72139 69.565687 
L 157.920148 69.74136 
L 163.118905 69.315407 
L 168.317663 68.006168 
L 173.516421 73.374366 
L 178.715179 73.679602 
L 183.913936 71.431521 
L 189.112694 71.679691 
L 194.311452 72.75824 
L 199.51021 69.035485 
L 204.708967 70.488409 
L 209.907725 69.091306 
L 215.106483 65.78719 
L 220.305241 69.989164 
L 225.503998 64.435378 
L 230.702756 65.69668 
L 235.901514 68.078427 
L 241.100272 65.608878 
L 246.29903 64.986552 
L 251.497787 67.942416 
L 256.696545 66.831688 
L 261.895303 67.838604 
L 267.094061 65.02873 
L 272.292818 67.287029 
L 277.491576 67.581908 
L 282.690334 67.543777 
L 287.889092 64.221148 
L 293.087849 67.496786 
L 298.286607 70.171333 
L 303.485365 75.618437 
L 308.684123 74.525199 
L 313.88288 71.034476 
L 319.081638 69.871671 
L 324.280396 69.761519 
L 329.479154 68.283392 
L 334.677911 66.938333 
L 339.876669 68.640476 
L 345.075427 70.703947 
L 350.274185 70.395347 
L 355.472943 71.300581 
L 360.6717 66.901344 
L 365.870458 70.604872 
L 371.069216 67.898685 
L 376.267974 69.183054 
L 381.466731 65.58383 
L 386.665489 63.584651 
L 391.864247 68.550759 
L 397.063005 66.856072 
L 402.261762 66.302547 
L 407.46052 68.160024 
L 412.659278 66.726776 
L 417.858036 65.541702 
" style="fill:none;stroke:#1f77b4;stroke-linecap:square;stroke-width:3;"/>
   </g>
   <g id="line2d_32">
    <path clip-path="url(#pa55633c03c)" d="M 59.14375 272.645455 
L 64.342508 188.132536 
L 69.541266 164.366327 
L 74.740023 129.651593 
L 79.938781 90.487262 
L 85.137539 93.132849 
L 90.336297 69.777437 
L 95.535054 62.427945 
L 100.733812 67.962597 
L 105.93257 50.185158 
L 111.131328 56.3214 
L 116.330085 45.116898 
L 121.528843 44.536136 
L 126.727601 59.108532 
L 131.926359 69.696986 
L 137.125116 66.47099 
L 142.323874 67.001354 
L 147.522632 71.72765 
L 152.72139 66.22375 
L 157.920148 71.021983 
L 163.118905 66.077825 
L 168.317663 61.225727 
L 173.516421 61.889268 
L 178.715179 61.595223 
L 183.913936 66.414747 
L 189.112694 69.476628 
L 194.311452 64.120075 
L 199.51021 70.12919 
L 204.708967 62.631287 
L 209.907725 60.603978 
L 215.106483 65.492075 
L 220.305241 58.704047 
L 225.503998 66.449424 
L 230.702756 68.211204 
L 235.901514 67.425984 
L 241.100272 64.982463 
L 246.29903 69.430083 
L 251.497787 68.130549 
L 256.696545 68.543101 
L 261.895303 72.400724 
L 267.094061 69.670862 
L 272.292818 65.156919 
L 277.491576 64.276938 
L 282.690334 65.42387 
L 287.889092 67.605066 
L 293.087849 65.313384 
L 298.286607 60.877444 
L 303.485365 67.03562 
L 308.684123 70.874247 
L 313.88288 71.962474 
L 319.081638 74.063955 
L 324.280396 72.85408 
L 329.479154 66.796445 
L 334.677911 67.649364 
L 339.876669 66.979826 
L 345.075427 64.568405 
L 350.274185 65.854519 
L 355.472943 64.153238 
L 360.6717 66.156552 
L 365.870458 68.03171 
L 371.069216 68.828724 
L 376.267974 65.664846 
L 381.466731 66.925284 
L 386.665489 68.316718 
L 391.864247 68.769074 
L 397.063005 68.207524 
L 402.261762 67.363006 
L 407.46052 67.476242 
L 412.659278 67.226841 
L 417.858036 65.754017 
" style="fill:none;stroke:#ff7f0e;stroke-linecap:square;stroke-width:3;"/>
   </g>
   <g id="line2d_33">
    <path clip-path="url(#pa55633c03c)" d="M 59.14375 272.645455 
L 64.342508 192.341932 
L 69.541266 160.053626 
L 74.740023 123.459992 
L 79.938781 92.494472 
L 85.137539 97.328353 
L 90.336297 77.660911 
L 95.535054 75.486228 
L 100.733812 71.486943 
L 105.93257 57.760419 
L 111.131328 56.974688 
L 116.330085 47.47456 
L 121.528843 46.8889 
L 126.727601 60.837037 
L 131.926359 69.721924 
L 137.125116 68.537884 
L 142.323874 67.089881 
L 147.522632 65.040512 
L 152.72139 66.317253 
L 157.920148 73.707017 
L 163.118905 67.821445 
L 168.317663 63.015819 
L 173.516421 65.283034 
L 178.715179 63.21951 
L 183.913936 67.059505 
L 189.112694 65.954169 
L 194.311452 61.906658 
L 199.51021 69.925203 
L 204.708967 61.150076 
L 209.907725 61.607906 
L 215.106483 67.161474 
L 220.305241 61.467561 
L 225.503998 67.63198 
L 230.702756 70.25254 
L 235.901514 68.748505 
L 241.100272 64.95831 
L 246.29903 69.830494 
L 251.497787 68.151833 
L 256.696545 68.886071 
L 261.895303 73.468172 
L 267.094061 70.045716 
L 272.292818 65.370486 
L 277.491576 64.64279 
L 282.690334 65.369178 
L 287.889092 67.689313 
L 293.087849 65.369645 
L 298.286607 60.499171 
L 303.485365 66.315783 
L 308.684123 70.375384 
L 313.88288 71.706196 
L 319.081638 73.964511 
L 324.280396 72.319657 
L 329.479154 66.372528 
L 334.677911 66.825668 
L 339.876669 66.167469 
L 345.075427 64.016041 
L 350.274185 65.56514 
L 355.472943 64.03797 
L 360.6717 66.24914 
L 365.870458 67.977414 
L 371.069216 68.969849 
L 376.267974 66.098076 
L 381.466731 67.315482 
L 386.665489 68.740518 
L 391.864247 68.985344 
L 397.063005 68.72498 
L 402.261762 68.055589 
L 407.46052 67.82739 
L 412.659278 67.57555 
L 417.858036 66.198189 
" style="fill:none;stroke:#319000;stroke-linecap:square;stroke-width:3;"/>
   </g>
   <g id="patch_3">
    <path d="M 59.14375 285 
L 59.14375 13.2 
" style="fill:none;stroke:#000000;stroke-linecap:square;stroke-linejoin:miter;stroke-width:2;"/>
   </g>
   <g id="patch_4">
    <path d="M 423.056793 285 
L 423.056793 13.2 
" style="fill:none;"/>
   </g>
   <g id="patch_5">
    <path d="M 59.14375 285 
L 423.056793 285 
" style="fill:none;stroke:#000000;stroke-linecap:square;stroke-linejoin:miter;stroke-width:2;"/>
   </g>
   <g id="patch_6">
    <path d="M 59.14375 13.2 
L 423.056793 13.2 
" style="fill:none;"/>
   </g>
   <g id="legend_1">
    <g id="patch_7">
     <path d="M 69.64375 277.5 
L 279.683594 277.5 
Q 282.683594 277.5 282.683594 274.5 
L 282.683594 209.948438 
Q 282.683594 206.948438 279.683594 206.948438 
L 69.64375 206.948438 
Q 66.64375 206.948438 66.64375 209.948438 
L 66.64375 274.5 
Q 66.64375 277.5 69.64375 277.5 
z
" style="fill:#ffffff;opacity:0.8;stroke:#cccccc;stroke-linejoin:miter;"/>
    </g>
    <g id="line2d_34">
     <path d="M 72.64375 219.096094 
L 102.64375 219.096094 
" style="fill:none;stroke:#1f77b4;stroke-linecap:square;stroke-width:3;"/>
    </g>
    <g id="line2d_35"/>
    <g id="text_18">
     <!-- Single Lineage -->
     <defs>
      <path d="M 53.515625 70.515625 
L 53.515625 60.890625 
Q 47.90625 63.578125 42.921875 64.890625 
Q 37.9375 66.21875 33.296875 66.21875 
Q 25.25 66.21875 20.875 63.09375 
Q 16.5 59.96875 16.5 54.203125 
Q 16.5 49.359375 19.40625 46.890625 
Q 22.3125 44.4375 30.421875 42.921875 
L 36.375 41.703125 
Q 47.40625 39.59375 52.65625 34.296875 
Q 57.90625 29 57.90625 20.125 
Q 57.90625 9.515625 50.796875 4.046875 
Q 43.703125 -1.421875 29.984375 -1.421875 
Q 24.8125 -1.421875 18.96875 -0.25 
Q 13.140625 0.921875 6.890625 3.21875 
L 6.890625 13.375 
Q 12.890625 10.015625 18.65625 8.296875 
Q 24.421875 6.59375 29.984375 6.59375 
Q 38.421875 6.59375 43.015625 9.90625 
Q 47.609375 13.234375 47.609375 19.390625 
Q 47.609375 24.75 44.3125 27.78125 
Q 41.015625 30.8125 33.5 32.328125 
L 27.484375 33.5 
Q 16.453125 35.6875 11.515625 40.375 
Q 6.59375 45.0625 6.59375 53.421875 
Q 6.59375 63.09375 13.40625 68.65625 
Q 20.21875 74.21875 32.171875 74.21875 
Q 37.3125 74.21875 42.625 73.28125 
Q 47.953125 72.359375 53.515625 70.515625 
z
" id="DejaVuSans-53"/>
      <path d="M 9.421875 54.6875 
L 18.40625 54.6875 
L 18.40625 0 
L 9.421875 0 
z
M 9.421875 75.984375 
L 18.40625 75.984375 
L 18.40625 64.59375 
L 9.421875 64.59375 
z
" id="DejaVuSans-69"/>
      <path d="M 54.890625 33.015625 
L 54.890625 0 
L 45.90625 0 
L 45.90625 32.71875 
Q 45.90625 40.484375 42.875 44.328125 
Q 39.84375 48.1875 33.796875 48.1875 
Q 26.515625 48.1875 22.3125 43.546875 
Q 18.109375 38.921875 18.109375 30.90625 
L 18.109375 0 
L 9.078125 0 
L 9.078125 54.6875 
L 18.109375 54.6875 
L 18.109375 46.1875 
Q 21.34375 51.125 25.703125 53.5625 
Q 30.078125 56 35.796875 56 
Q 45.21875 56 50.046875 50.171875 
Q 54.890625 44.34375 54.890625 33.015625 
z
" id="DejaVuSans-6e"/>
      <path d="M 45.40625 27.984375 
Q 45.40625 37.75 41.375 43.109375 
Q 37.359375 48.484375 30.078125 48.484375 
Q 22.859375 48.484375 18.828125 43.109375 
Q 14.796875 37.75 14.796875 27.984375 
Q 14.796875 18.265625 18.828125 12.890625 
Q 22.859375 7.515625 30.078125 7.515625 
Q 37.359375 7.515625 41.375 12.890625 
Q 45.40625 18.265625 45.40625 27.984375 
z
M 54.390625 6.78125 
Q 54.390625 -7.171875 48.1875 -13.984375 
Q 42 -20.796875 29.203125 -20.796875 
Q 24.46875 -20.796875 20.265625 -20.09375 
Q 16.0625 -19.390625 12.109375 -17.921875 
L 12.109375 -9.1875 
Q 16.0625 -11.328125 19.921875 -12.34375 
Q 23.78125 -13.375 27.78125 -13.375 
Q 36.625 -13.375 41.015625 -8.765625 
Q 45.40625 -4.15625 45.40625 5.171875 
L 45.40625 9.625 
Q 42.625 4.78125 38.28125 2.390625 
Q 33.9375 0 27.875 0 
Q 17.828125 0 11.671875 7.65625 
Q 5.515625 15.328125 5.515625 27.984375 
Q 5.515625 40.671875 11.671875 48.328125 
Q 17.828125 56 27.875 56 
Q 33.9375 56 38.28125 53.609375 
Q 42.625 51.21875 45.40625 46.390625 
L 45.40625 54.6875 
L 54.390625 54.6875 
z
" id="DejaVuSans-67"/>
      <path d="M 9.421875 75.984375 
L 18.40625 75.984375 
L 18.40625 0 
L 9.421875 0 
z
" id="DejaVuSans-6c"/>
      <path d="M 56.203125 29.59375 
L 56.203125 25.203125 
L 14.890625 25.203125 
Q 15.484375 15.921875 20.484375 11.0625 
Q 25.484375 6.203125 34.421875 6.203125 
Q 39.59375 6.203125 44.453125 7.46875 
Q 49.3125 8.734375 54.109375 11.28125 
L 54.109375 2.78125 
Q 49.265625 0.734375 44.1875 -0.34375 
Q 39.109375 -1.421875 33.890625 -1.421875 
Q 20.796875 -1.421875 13.15625 6.1875 
Q 5.515625 13.8125 5.515625 26.8125 
Q 5.515625 40.234375 12.765625 48.109375 
Q 20.015625 56 32.328125 56 
Q 43.359375 56 49.78125 48.890625 
Q 56.203125 41.796875 56.203125 29.59375 
z
M 47.21875 32.234375 
Q 47.125 39.59375 43.09375 43.984375 
Q 39.0625 48.390625 32.421875 48.390625 
Q 24.90625 48.390625 20.390625 44.140625 
Q 15.875 39.890625 15.1875 32.171875 
z
" id="DejaVuSans-65"/>
      <path id="DejaVuSans-20"/>
      <path d="M 9.8125 72.90625 
L 19.671875 72.90625 
L 19.671875 8.296875 
L 55.171875 8.296875 
L 55.171875 0 
L 9.8125 0 
z
" id="DejaVuSans-4c"/>
      <path d="M 34.28125 27.484375 
Q 23.390625 27.484375 19.1875 25 
Q 14.984375 22.515625 14.984375 16.5 
Q 14.984375 11.71875 18.140625 8.90625 
Q 21.296875 6.109375 26.703125 6.109375 
Q 34.1875 6.109375 38.703125 11.40625 
Q 43.21875 16.703125 43.21875 25.484375 
L 43.21875 27.484375 
z
M 52.203125 31.203125 
L 52.203125 0 
L 43.21875 0 
L 43.21875 8.296875 
Q 40.140625 3.328125 35.546875 0.953125 
Q 30.953125 -1.421875 24.3125 -1.421875 
Q 15.921875 -1.421875 10.953125 3.296875 
Q 6 8.015625 6 15.921875 
Q 6 25.140625 12.171875 29.828125 
Q 18.359375 34.515625 30.609375 34.515625 
L 43.21875 34.515625 
L 43.21875 35.40625 
Q 43.21875 41.609375 39.140625 45 
Q 35.0625 48.390625 27.6875 48.390625 
Q 23 48.390625 18.546875 47.265625 
Q 14.109375 46.140625 10.015625 43.890625 
L 10.015625 52.203125 
Q 14.9375 54.109375 19.578125 55.046875 
Q 24.21875 56 28.609375 56 
Q 40.484375 56 46.34375 49.84375 
Q 52.203125 43.703125 52.203125 31.203125 
z
" id="DejaVuSans-61"/>
     </defs>
     <g transform="translate(114.64375 224.346094)scale(0.15 -0.15)">
      <use xlink:href="#DejaVuSans-53"/>
      <use x="63.476562" xlink:href="#DejaVuSans-69"/>
      <use x="91.259766" xlink:href="#DejaVuSans-6e"/>
      <use x="154.638672" xlink:href="#DejaVuSans-67"/>
      <use x="218.115234" xlink:href="#DejaVuSans-6c"/>
      <use x="245.898438" xlink:href="#DejaVuSans-65"/>
      <use x="307.421875" xlink:href="#DejaVuSans-20"/>
      <use x="339.208984" xlink:href="#DejaVuSans-4c"/>
      <use x="394.921875" xlink:href="#DejaVuSans-69"/>
      <use x="422.705078" xlink:href="#DejaVuSans-6e"/>
      <use x="486.083984" xlink:href="#DejaVuSans-65"/>
      <use x="547.607422" xlink:href="#DejaVuSans-61"/>
      <use x="608.886719" xlink:href="#DejaVuSans-67"/>
      <use x="672.363281" xlink:href="#DejaVuSans-65"/>
     </g>
    </g>
    <g id="line2d_36">
     <path d="M 72.64375 241.113281 
L 102.64375 241.113281 
" style="fill:none;stroke:#ff7f0e;stroke-linecap:square;stroke-width:3;"/>
    </g>
    <g id="line2d_37"/>
    <g id="text_19">
     <!-- Population Snapshots -->
     <defs>
      <path d="M 19.671875 64.796875 
L 19.671875 37.40625 
L 32.078125 37.40625 
Q 38.96875 37.40625 42.71875 40.96875 
Q 46.484375 44.53125 46.484375 51.125 
Q 46.484375 57.671875 42.71875 61.234375 
Q 38.96875 64.796875 32.078125 64.796875 
z
M 9.8125 72.90625 
L 32.078125 72.90625 
Q 44.34375 72.90625 50.609375 67.359375 
Q 56.890625 61.8125 56.890625 51.125 
Q 56.890625 40.328125 50.609375 34.8125 
Q 44.34375 29.296875 32.078125 29.296875 
L 19.671875 29.296875 
L 19.671875 0 
L 9.8125 0 
z
" id="DejaVuSans-50"/>
      <path d="M 30.609375 48.390625 
Q 23.390625 48.390625 19.1875 42.75 
Q 14.984375 37.109375 14.984375 27.296875 
Q 14.984375 17.484375 19.15625 11.84375 
Q 23.34375 6.203125 30.609375 6.203125 
Q 37.796875 6.203125 41.984375 11.859375 
Q 46.1875 17.53125 46.1875 27.296875 
Q 46.1875 37.015625 41.984375 42.703125 
Q 37.796875 48.390625 30.609375 48.390625 
z
M 30.609375 56 
Q 42.328125 56 49.015625 48.375 
Q 55.71875 40.765625 55.71875 27.296875 
Q 55.71875 13.875 49.015625 6.21875 
Q 42.328125 -1.421875 30.609375 -1.421875 
Q 18.84375 -1.421875 12.171875 6.21875 
Q 5.515625 13.875 5.515625 27.296875 
Q 5.515625 40.765625 12.171875 48.375 
Q 18.84375 56 30.609375 56 
z
" id="DejaVuSans-6f"/>
      <path d="M 18.109375 8.203125 
L 18.109375 -20.796875 
L 9.078125 -20.796875 
L 9.078125 54.6875 
L 18.109375 54.6875 
L 18.109375 46.390625 
Q 20.953125 51.265625 25.265625 53.625 
Q 29.59375 56 35.59375 56 
Q 45.5625 56 51.78125 48.09375 
Q 58.015625 40.1875 58.015625 27.296875 
Q 58.015625 14.40625 51.78125 6.484375 
Q 45.5625 -1.421875 35.59375 -1.421875 
Q 29.59375 -1.421875 25.265625 0.953125 
Q 20.953125 3.328125 18.109375 8.203125 
z
M 48.6875 27.296875 
Q 48.6875 37.203125 44.609375 42.84375 
Q 40.53125 48.484375 33.40625 48.484375 
Q 26.265625 48.484375 22.1875 42.84375 
Q 18.109375 37.203125 18.109375 27.296875 
Q 18.109375 17.390625 22.1875 11.75 
Q 26.265625 6.109375 33.40625 6.109375 
Q 40.53125 6.109375 44.609375 11.75 
Q 48.6875 17.390625 48.6875 27.296875 
z
" id="DejaVuSans-70"/>
      <path d="M 8.5 21.578125 
L 8.5 54.6875 
L 17.484375 54.6875 
L 17.484375 21.921875 
Q 17.484375 14.15625 20.5 10.265625 
Q 23.53125 6.390625 29.59375 6.390625 
Q 36.859375 6.390625 41.078125 11.03125 
Q 45.3125 15.671875 45.3125 23.6875 
L 45.3125 54.6875 
L 54.296875 54.6875 
L 54.296875 0 
L 45.3125 0 
L 45.3125 8.40625 
Q 42.046875 3.421875 37.71875 1 
Q 33.40625 -1.421875 27.6875 -1.421875 
Q 18.265625 -1.421875 13.375 4.4375 
Q 8.5 10.296875 8.5 21.578125 
z
M 31.109375 56 
z
" id="DejaVuSans-75"/>
      <path d="M 18.3125 70.21875 
L 18.3125 54.6875 
L 36.8125 54.6875 
L 36.8125 47.703125 
L 18.3125 47.703125 
L 18.3125 18.015625 
Q 18.3125 11.328125 20.140625 9.421875 
Q 21.96875 7.515625 27.59375 7.515625 
L 36.8125 7.515625 
L 36.8125 0 
L 27.59375 0 
Q 17.1875 0 13.234375 3.875 
Q 9.28125 7.765625 9.28125 18.015625 
L 9.28125 47.703125 
L 2.6875 47.703125 
L 2.6875 54.6875 
L 9.28125 54.6875 
L 9.28125 70.21875 
z
" id="DejaVuSans-74"/>
      <path d="M 44.28125 53.078125 
L 44.28125 44.578125 
Q 40.484375 46.53125 36.375 47.5 
Q 32.28125 48.484375 27.875 48.484375 
Q 21.1875 48.484375 17.84375 46.4375 
Q 14.5 44.390625 14.5 40.28125 
Q 14.5 37.15625 16.890625 35.375 
Q 19.28125 33.59375 26.515625 31.984375 
L 29.59375 31.296875 
Q 39.15625 29.25 43.1875 25.515625 
Q 47.21875 21.78125 47.21875 15.09375 
Q 47.21875 7.46875 41.1875 3.015625 
Q 35.15625 -1.421875 24.609375 -1.421875 
Q 20.21875 -1.421875 15.453125 -0.5625 
Q 10.6875 0.296875 5.421875 2 
L 5.421875 11.28125 
Q 10.40625 8.6875 15.234375 7.390625 
Q 20.0625 6.109375 24.8125 6.109375 
Q 31.15625 6.109375 34.5625 8.28125 
Q 37.984375 10.453125 37.984375 14.40625 
Q 37.984375 18.0625 35.515625 20.015625 
Q 33.0625 21.96875 24.703125 23.78125 
L 21.578125 24.515625 
Q 13.234375 26.265625 9.515625 29.90625 
Q 5.8125 33.546875 5.8125 39.890625 
Q 5.8125 47.609375 11.28125 51.796875 
Q 16.75 56 26.8125 56 
Q 31.78125 56 36.171875 55.265625 
Q 40.578125 54.546875 44.28125 53.078125 
z
" id="DejaVuSans-73"/>
      <path d="M 54.890625 33.015625 
L 54.890625 0 
L 45.90625 0 
L 45.90625 32.71875 
Q 45.90625 40.484375 42.875 44.328125 
Q 39.84375 48.1875 33.796875 48.1875 
Q 26.515625 48.1875 22.3125 43.546875 
Q 18.109375 38.921875 18.109375 30.90625 
L 18.109375 0 
L 9.078125 0 
L 9.078125 75.984375 
L 18.109375 75.984375 
L 18.109375 46.1875 
Q 21.34375 51.125 25.703125 53.5625 
Q 30.078125 56 35.796875 56 
Q 45.21875 56 50.046875 50.171875 
Q 54.890625 44.34375 54.890625 33.015625 
z
" id="DejaVuSans-68"/>
     </defs>
     <g transform="translate(114.64375 246.363281)scale(0.15 -0.15)">
      <use xlink:href="#DejaVuSans-50"/>
      <use x="60.255859" xlink:href="#DejaVuSans-6f"/>
      <use x="121.4375" xlink:href="#DejaVuSans-70"/>
      <use x="184.914062" xlink:href="#DejaVuSans-75"/>
      <use x="248.292969" xlink:href="#DejaVuSans-6c"/>
      <use x="276.076172" xlink:href="#DejaVuSans-61"/>
      <use x="337.355469" xlink:href="#DejaVuSans-74"/>
      <use x="376.564453" xlink:href="#DejaVuSans-69"/>
      <use x="404.347656" xlink:href="#DejaVuSans-6f"/>
      <use x="465.529297" xlink:href="#DejaVuSans-6e"/>
      <use x="528.908203" xlink:href="#DejaVuSans-20"/>
      <use x="560.695312" xlink:href="#DejaVuSans-53"/>
      <use x="624.171875" xlink:href="#DejaVuSans-6e"/>
      <use x="687.550781" xlink:href="#DejaVuSans-61"/>
      <use x="748.830078" xlink:href="#DejaVuSans-70"/>
      <use x="812.306641" xlink:href="#DejaVuSans-73"/>
      <use x="864.40625" xlink:href="#DejaVuSans-68"/>
      <use x="927.785156" xlink:href="#DejaVuSans-6f"/>
      <use x="988.966797" xlink:href="#DejaVuSans-74"/>
      <use x="1028.175781" xlink:href="#DejaVuSans-73"/>
     </g>
    </g>
    <g id="line2d_38">
     <path d="M 72.64375 263.130469 
L 102.64375 263.130469 
" style="fill:none;stroke:#319000;stroke-linecap:square;stroke-width:3;"/>
    </g>
    <g id="line2d_39"/>
    <g id="text_20">
     <!-- Lineage Tracking -->
     <defs>
      <path d="M -0.296875 72.90625 
L 61.375 72.90625 
L 61.375 64.59375 
L 35.5 64.59375 
L 35.5 0 
L 25.59375 0 
L 25.59375 64.59375 
L -0.296875 64.59375 
z
" id="DejaVuSans-54"/>
      <path d="M 41.109375 46.296875 
Q 39.59375 47.171875 37.8125 47.578125 
Q 36.03125 48 33.890625 48 
Q 26.265625 48 22.1875 43.046875 
Q 18.109375 38.09375 18.109375 28.8125 
L 18.109375 0 
L 9.078125 0 
L 9.078125 54.6875 
L 18.109375 54.6875 
L 18.109375 46.1875 
Q 20.953125 51.171875 25.484375 53.578125 
Q 30.03125 56 36.53125 56 
Q 37.453125 56 38.578125 55.875 
Q 39.703125 55.765625 41.0625 55.515625 
z
" id="DejaVuSans-72"/>
      <path d="M 48.78125 52.59375 
L 48.78125 44.1875 
Q 44.96875 46.296875 41.140625 47.34375 
Q 37.3125 48.390625 33.40625 48.390625 
Q 24.65625 48.390625 19.8125 42.84375 
Q 14.984375 37.3125 14.984375 27.296875 
Q 14.984375 17.28125 19.8125 11.734375 
Q 24.65625 6.203125 33.40625 6.203125 
Q 37.3125 6.203125 41.140625 7.25 
Q 44.96875 8.296875 48.78125 10.40625 
L 48.78125 2.09375 
Q 45.015625 0.34375 40.984375 -0.53125 
Q 36.96875 -1.421875 32.421875 -1.421875 
Q 20.0625 -1.421875 12.78125 6.34375 
Q 5.515625 14.109375 5.515625 27.296875 
Q 5.515625 40.671875 12.859375 48.328125 
Q 20.21875 56 33.015625 56 
Q 37.15625 56 41.109375 55.140625 
Q 45.0625 54.296875 48.78125 52.59375 
z
" id="DejaVuSans-63"/>
      <path d="M 9.078125 75.984375 
L 18.109375 75.984375 
L 18.109375 31.109375 
L 44.921875 54.6875 
L 56.390625 54.6875 
L 27.390625 29.109375 
L 57.625 0 
L 45.90625 0 
L 18.109375 26.703125 
L 18.109375 0 
L 9.078125 0 
z
" id="DejaVuSans-6b"/>
     </defs>
     <g transform="translate(114.64375 268.380469)scale(0.15 -0.15)">
      <use xlink:href="#DejaVuSans-4c"/>
      <use x="55.712891" xlink:href="#DejaVuSans-69"/>
      <use x="83.496094" xlink:href="#DejaVuSans-6e"/>
      <use x="146.875" xlink:href="#DejaVuSans-65"/>
      <use x="208.398438" xlink:href="#DejaVuSans-61"/>
      <use x="269.677734" xlink:href="#DejaVuSans-67"/>
      <use x="333.154297" xlink:href="#DejaVuSans-65"/>
      <use x="394.677734" xlink:href="#DejaVuSans-20"/>
      <use x="426.464844" xlink:href="#DejaVuSans-54"/>
      <use x="487.330078" xlink:href="#DejaVuSans-72"/>
      <use x="528.443359" xlink:href="#DejaVuSans-61"/>
      <use x="589.722656" xlink:href="#DejaVuSans-63"/>
      <use x="644.703125" xlink:href="#DejaVuSans-6b"/>
      <use x="702.613281" xlink:href="#DejaVuSans-69"/>
      <use x="730.396484" xlink:href="#DejaVuSans-6e"/>
      <use x="793.775391" xlink:href="#DejaVuSans-67"/>
     </g>
    </g>
   </g>
  </g>
  <g id="axes_2">
   <g id="patch_8">
    <path d="M 532.230707 285 
L 896.14375 285 
L 896.14375 13.2 
L 532.230707 13.2 
z
" style="fill:#ffffff;"/>
   </g>
   <g id="PolyCollection_4">
    <defs>
     <path d="M 532.230707 -66.927983 
L 532.230707 -66.927983 
L 537.429464 -154.516223 
L 542.628222 -203.314243 
L 547.82698 -200.866284 
L 553.025738 -195.491229 
L 558.224495 -198.737512 
L 563.423253 -175.001176 
L 568.622011 -216.429444 
L 573.820769 -214.571326 
L 579.019526 -199.605332 
L 584.218284 -200.101873 
L 589.417042 -192.650429 
L 594.6158 -204.132314 
L 599.814557 -206.828997 
L 605.013315 -204.320809 
L 610.212073 -199.263759 
L 615.410831 -184.948736 
L 620.609589 -189.861721 
L 625.808346 -193.089681 
L 631.007104 -199.043153 
L 636.205862 -181.523072 
L 641.40462 -177.570271 
L 646.603377 -191.066438 
L 651.802135 -192.76835 
L 657.000893 -206.153478 
L 662.199651 -212.660575 
L 667.398408 -205.857915 
L 672.597166 -216.837218 
L 677.795924 -224.472153 
L 682.994682 -208.954847 
L 688.193439 -209.340908 
L 693.392197 -219.29459 
L 698.590955 -217.450902 
L 703.789713 -218.845125 
L 708.98847 -208.065415 
L 714.187228 -198.334517 
L 719.385986 -211.749264 
L 724.584744 -205.766238 
L 729.783502 -204.605874 
L 734.982259 -200.914166 
L 740.181017 -201.350662 
L 745.379775 -209.029771 
L 750.578533 -209.4119 
L 755.77729 -213.890377 
L 760.976048 -218.012347 
L 766.174806 -219.665273 
L 771.373564 -213.150472 
L 776.572321 -211.903852 
L 781.771079 -205.722409 
L 786.969837 -215.228532 
L 792.168595 -221.198825 
L 797.367352 -216.710918 
L 802.56611 -214.645041 
L 807.764868 -223.556647 
L 812.963626 -218.507124 
L 818.162384 -223.977254 
L 823.361141 -221.152946 
L 828.559899 -224.044628 
L 833.758657 -217.952883 
L 838.957415 -218.401865 
L 844.156172 -225.718934 
L 849.35493 -225.843572 
L 854.553688 -223.820529 
L 859.752446 -221.328089 
L 864.951203 -224.448925 
L 870.149961 -219.850598 
L 875.348719 -224.870721 
L 880.547477 -225.967809 
L 885.746234 -227.866367 
L 890.944992 -223.065811 
L 890.944992 -232.570599 
L 890.944992 -232.570599 
L 885.746234 -240.078857 
L 880.547477 -238.939352 
L 875.348719 -235.033754 
L 870.149961 -230.786332 
L 864.951203 -234.964429 
L 859.752446 -232.226087 
L 854.553688 -235.797171 
L 849.35493 -238.892817 
L 844.156172 -239.815675 
L 838.957415 -230.33895 
L 833.758657 -231.169643 
L 828.559899 -238.983976 
L 823.361141 -238.817314 
L 818.162384 -241.573178 
L 812.963626 -235.462067 
L 807.764868 -241.091887 
L 802.56611 -237.739238 
L 797.367352 -244.086645 
L 792.168595 -244.021288 
L 786.969837 -233.284061 
L 781.771079 -228.260862 
L 776.572321 -229.764522 
L 771.373564 -232.295685 
L 766.174806 -241.96344 
L 760.976048 -239.120933 
L 755.77729 -236.828871 
L 750.578533 -237.261075 
L 745.379775 -234.997963 
L 740.181017 -225.636133 
L 734.982259 -221.750259 
L 729.783502 -229.829933 
L 724.584744 -230.288645 
L 719.385986 -237.702704 
L 714.187228 -225.289889 
L 708.98847 -235.6208 
L 703.789713 -258.427705 
L 698.590955 -252.463981 
L 693.392197 -253.607214 
L 688.193439 -240.195148 
L 682.994682 -242.635109 
L 677.795924 -266.111805 
L 672.597166 -261.426833 
L 667.398408 -245.009991 
L 662.199651 -253.54943 
L 657.000893 -244.930387 
L 651.802135 -225.661518 
L 646.603377 -228.572969 
L 641.40462 -215.442454 
L 636.205862 -224.322243 
L 631.007104 -239.720195 
L 625.808346 -243.8228 
L 620.609589 -241.679737 
L 615.410831 -226.36775 
L 610.212073 -244.489305 
L 605.013315 -261.09702 
L 599.814557 -285.937619 
L 594.6158 -272.123157 
L 589.417042 -264.915325 
L 584.218284 -264.590634 
L 579.019526 -291.710818 
L 573.820769 -293.443675 
L 568.622011 -314.018892 
L 563.423253 -288.539375 
L 558.224495 -280.949775 
L 553.025738 -272.963696 
L 547.82698 -279.510873 
L 542.628222 -304.994682 
L 537.429464 -206.481343 
L 532.230707 -66.927983 
z
" id="mfc98247c62"/>
    </defs>
    <g clip-path="url(#p8a79943344)">
     <use style="fill:#ffa035;" x="0" xlink:href="#mfc98247c62" y="339.573438"/>
    </g>
   </g>
   <g id="PolyCollection_5">
    <defs>
     <path d="M 532.230707 -66.927983 
L 532.230707 -66.927983 
L 537.429464 -167.573224 
L 542.628222 -179.255535 
L 547.82698 -175.260019 
L 553.025738 -171.218108 
L 558.224495 -170.803019 
L 563.423253 -166.572444 
L 568.622011 -164.265449 
L 573.820769 -171.524774 
L 579.019526 -173.049059 
L 584.218284 -171.884102 
L 589.417042 -165.241497 
L 594.6158 -167.896843 
L 599.814557 -166.04811 
L 605.013315 -164.411507 
L 610.212073 -168.456883 
L 615.410831 -163.834101 
L 620.609589 -168.673514 
L 625.808346 -169.619258 
L 631.007104 -173.882375 
L 636.205862 -172.30869 
L 641.40462 -169.451969 
L 646.603377 -168.309834 
L 651.802135 -166.826862 
L 657.000893 -173.374052 
L 662.199651 -171.506844 
L 667.398408 -167.821389 
L 672.597166 -166.100503 
L 677.795924 -167.274486 
L 682.994682 -164.925887 
L 688.193439 -168.358193 
L 693.392197 -166.22631 
L 698.590955 -166.416126 
L 703.789713 -166.556928 
L 708.98847 -162.943647 
L 714.187228 -160.451016 
L 719.385986 -162.080317 
L 724.584744 -161.558807 
L 729.783502 -166.502504 
L 734.982259 -166.435457 
L 740.181017 -160.985819 
L 745.379775 -156.848534 
L 750.578533 -167.863904 
L 755.77729 -167.666527 
L 760.976048 -167.623872 
L 766.174806 -164.545921 
L 771.373564 -162.10809 
L 776.572321 -162.092088 
L 781.771079 -161.231374 
L 786.969837 -166.070744 
L 792.168595 -165.696393 
L 797.367352 -164.109912 
L 802.56611 -169.893011 
L 807.764868 -166.555682 
L 812.963626 -161.554406 
L 818.162384 -170.925807 
L 823.361141 -164.818917 
L 828.559899 -165.016978 
L 833.758657 -165.266972 
L 838.957415 -167.230641 
L 844.156172 -167.428015 
L 849.35493 -163.20022 
L 854.553688 -161.218502 
L 859.752446 -159.574609 
L 864.951203 -162.464255 
L 870.149961 -162.782503 
L 875.348719 -160.38446 
L 880.547477 -168.702612 
L 885.746234 -169.472257 
L 890.944992 -174.882986 
L 890.944992 -192.599733 
L 890.944992 -192.599733 
L 885.746234 -188.082958 
L 880.547477 -193.048816 
L 875.348719 -181.860358 
L 870.149961 -177.691566 
L 864.951203 -176.272453 
L 859.752446 -172.975502 
L 854.553688 -174.419006 
L 849.35493 -177.896304 
L 844.156172 -183.514293 
L 838.957415 -180.683731 
L 833.758657 -179.441688 
L 828.559899 -179.747736 
L 823.361141 -179.015511 
L 818.162384 -185.636878 
L 812.963626 -176.030337 
L 807.764868 -180.212022 
L 802.56611 -186.263195 
L 797.367352 -177.60105 
L 792.168595 -179.230302 
L 786.969837 -179.763332 
L 781.771079 -173.426764 
L 776.572321 -176.397957 
L 771.373564 -174.479476 
L 766.174806 -177.675869 
L 760.976048 -183.302634 
L 755.77729 -183.56909 
L 750.578533 -181.641449 
L 745.379775 -169.155504 
L 740.181017 -175.548847 
L 734.982259 -179.260426 
L 729.783502 -180.210226 
L 724.584744 -173.922838 
L 719.385986 -174.83902 
L 714.187228 -174.238589 
L 708.98847 -175.792327 
L 703.789713 -180.698473 
L 698.590955 -182.244322 
L 693.392197 -180.150726 
L 688.193439 -182.532698 
L 682.994682 -178.279708 
L 677.795924 -181.19159 
L 672.597166 -180.699601 
L 667.398408 -181.444203 
L 662.199651 -186.023497 
L 657.000893 -188.867914 
L 651.802135 -179.993987 
L 646.603377 -183.128652 
L 641.40462 -184.294571 
L 636.205862 -200.859002 
L 631.007104 -188.238343 
L 625.808346 -184.744327 
L 620.609589 -182.416103 
L 615.410831 -177.415732 
L 610.212073 -181.378131 
L 605.013315 -178.90329 
L 599.814557 -179.268201 
L 594.6158 -182.018833 
L 589.417042 -181.723657 
L 584.218284 -189.847771 
L 579.019526 -187.58342 
L 573.820769 -187.576551 
L 568.622011 -175.80234 
L 563.423253 -178.848406 
L 558.224495 -183.764919 
L 553.025738 -183.67703 
L 547.82698 -191.372843 
L 542.628222 -193.215265 
L 537.429464 -178.62772 
L 532.230707 -66.927983 
z
" id="mbdd5e77b43"/>
    </defs>
    <g clip-path="url(#p8a79943344)">
     <use style="fill:#4db8ff;" x="0" xlink:href="#mbdd5e77b43" y="339.573438"/>
    </g>
   </g>
   <g id="PolyCollection_6">
    <defs>
     <path d="M 532.230707 -66.927983 
L 532.230707 -66.927983 
L 537.429464 -73.79325 
L 542.628222 -76.658323 
L 547.82698 -84.51159 
L 553.025738 -89.996546 
L 558.224495 -96.089692 
L 563.423253 -93.273081 
L 568.622011 -105.087506 
L 573.820769 -100.726204 
L 579.019526 -108.345448 
L 584.218284 -118.21306 
L 589.417042 -118.899764 
L 594.6158 -123.293884 
L 599.814557 -131.447552 
L 605.013315 -135.908903 
L 610.212073 -138.402803 
L 615.410831 -134.018736 
L 620.609589 -142.699552 
L 625.808346 -136.615789 
L 631.007104 -153.390503 
L 636.205862 -143.815141 
L 641.40462 -142.114247 
L 646.603377 -152.339894 
L 651.802135 -153.802127 
L 657.000893 -163.165228 
L 662.199651 -167.063567 
L 667.398408 -168.248467 
L 672.597166 -175.874103 
L 677.795924 -185.63506 
L 682.994682 -172.612996 
L 688.193439 -181.942824 
L 693.392197 -185.332261 
L 698.590955 -187.828292 
L 703.789713 -190.055542 
L 708.98847 -184.918047 
L 714.187228 -180.760172 
L 719.385986 -193.243559 
L 724.584744 -187.886592 
L 729.783502 -188.849183 
L 734.982259 -185.210101 
L 740.181017 -186.945075 
L 745.379775 -194.017271 
L 750.578533 -193.22866 
L 755.77729 -199.348918 
L 760.976048 -203.27299 
L 766.174806 -208.917207 
L 771.373564 -201.576557 
L 776.572321 -201.254683 
L 781.771079 -195.898394 
L 786.969837 -204.875162 
L 792.168595 -210.604685 
L 797.367352 -210.193026 
L 802.56611 -206.349717 
L 807.764868 -215.115397 
L 812.963626 -210.840948 
L 818.162384 -217.172993 
L 823.361141 -213.177531 
L 828.559899 -216.748401 
L 833.758657 -211.960358 
L 838.957415 -211.158645 
L 844.156172 -218.870265 
L 849.35493 -218.099068 
L 854.553688 -216.435908 
L 859.752446 -216.316529 
L 864.951203 -219.951959 
L 870.149961 -216.552079 
L 875.348719 -221.018069 
L 880.547477 -222.69882 
L 885.746234 -223.002333 
L 890.944992 -219.130002 
L 890.944992 -229.70149 
L 890.944992 -229.70149 
L 885.746234 -235.094062 
L 880.547477 -233.698287 
L 875.348719 -231.81062 
L 870.149961 -226.569681 
L 864.951203 -231.52353 
L 859.752446 -228.463794 
L 854.553688 -231.590521 
L 849.35493 -233.886999 
L 844.156172 -234.070615 
L 838.957415 -226.233837 
L 833.758657 -225.388913 
L 828.559899 -232.326129 
L 823.361141 -230.801603 
L 818.162384 -234.719586 
L 812.963626 -228.020816 
L 807.764868 -233.967692 
L 802.56611 -227.938388 
L 797.367352 -234.526007 
L 792.168595 -234.373392 
L 786.969837 -224.424483 
L 781.771079 -220.433554 
L 776.572321 -218.402019 
L 771.373564 -220.222472 
L 766.174806 -229.533518 
L 760.976048 -221.392737 
L 755.77729 -222.266755 
L 750.578533 -219.697661 
L 745.379775 -214.772573 
L 740.181017 -206.833263 
L 734.982259 -204.256574 
L 729.783502 -211.754585 
L 724.584744 -210.799861 
L 719.385986 -214.443277 
L 714.187228 -200.229694 
L 708.98847 -208.406928 
L 703.789713 -223.253223 
L 698.590955 -219.656549 
L 693.392197 -215.272599 
L 688.193439 -211.644817 
L 682.994682 -203.086648 
L 677.795924 -222.848397 
L 672.597166 -206.720217 
L 667.398408 -200.896131 
L 662.199651 -202.111588 
L 657.000893 -194.798186 
L 651.802135 -182.618578 
L 646.603377 -180.969652 
L 641.40462 -175.840267 
L 636.205862 -179.606794 
L 631.007104 -192.70298 
L 625.808346 -175.768937 
L 620.609589 -176.257043 
L 615.410831 -173.15421 
L 610.212073 -173.130206 
L 605.013315 -179.807094 
L 599.814557 -177.36621 
L 594.6158 -165.384554 
L 589.417042 -161.340828 
L 584.218284 -154.828268 
L 579.019526 -147.326677 
L 573.820769 -134.726727 
L 568.622011 -141.942372 
L 563.423253 -121.229113 
L 558.224495 -135.133488 
L 553.025738 -123.003257 
L 547.82698 -121.034372 
L 542.628222 -116.924168 
L 537.429464 -101.686355 
L 532.230707 -66.927983 
z
" id="m45c2d7c58e"/>
    </defs>
    <g clip-path="url(#p8a79943344)">
     <use style="fill:#00c917;" x="0" xlink:href="#m45c2d7c58e" y="339.573438"/>
    </g>
   </g>
   <g id="matplotlib.axis_3">
    <g id="xtick_9">
     <g id="line2d_40">
      <path clip-path="url(#p8a79943344)" d="M 532.230707 285 
L 532.230707 13.2 
" style="fill:none;stroke:#b0b0b0;stroke-linecap:square;stroke-width:0.8;"/>
     </g>
     <g id="line2d_41">
      <g>
       <use x="532.230707" xlink:href="#m50dac31736" y="285"/>
      </g>
     </g>
     <g id="text_21">
      <!-- 0 -->
      <g transform="translate(527.458832 305.897656)scale(0.15 -0.15)">
       <use xlink:href="#DejaVuSans-30"/>
      </g>
     </g>
    </g>
    <g id="xtick_10">
     <g id="line2d_42">
      <path clip-path="url(#p8a79943344)" d="M 584.218284 285 
L 584.218284 13.2 
" style="fill:none;stroke:#b0b0b0;stroke-linecap:square;stroke-width:0.8;"/>
     </g>
     <g id="line2d_43">
      <g>
       <use x="584.218284" xlink:href="#m50dac31736" y="285"/>
      </g>
     </g>
     <g id="text_22">
      <!-- 1 -->
      <g transform="translate(579.446409 305.897656)scale(0.15 -0.15)">
       <use xlink:href="#DejaVuSans-31"/>
      </g>
     </g>
    </g>
    <g id="xtick_11">
     <g id="line2d_44">
      <path clip-path="url(#p8a79943344)" d="M 636.205862 285 
L 636.205862 13.2 
" style="fill:none;stroke:#b0b0b0;stroke-linecap:square;stroke-width:0.8;"/>
     </g>
     <g id="line2d_45">
      <g>
       <use x="636.205862" xlink:href="#m50dac31736" y="285"/>
      </g>
     </g>
     <g id="text_23">
      <!-- 2 -->
      <g transform="translate(631.433987 305.897656)scale(0.15 -0.15)">
       <use xlink:href="#DejaVuSans-32"/>
      </g>
     </g>
    </g>
    <g id="xtick_12">
     <g id="line2d_46">
      <path clip-path="url(#p8a79943344)" d="M 688.193439 285 
L 688.193439 13.2 
" style="fill:none;stroke:#b0b0b0;stroke-linecap:square;stroke-width:0.8;"/>
     </g>
     <g id="line2d_47">
      <g>
       <use x="688.193439" xlink:href="#m50dac31736" y="285"/>
      </g>
     </g>
     <g id="text_24">
      <!-- 3 -->
      <g transform="translate(683.421564 305.897656)scale(0.15 -0.15)">
       <use xlink:href="#DejaVuSans-33"/>
      </g>
     </g>
    </g>
    <g id="xtick_13">
     <g id="line2d_48">
      <path clip-path="url(#p8a79943344)" d="M 740.181017 285 
L 740.181017 13.2 
" style="fill:none;stroke:#b0b0b0;stroke-linecap:square;stroke-width:0.8;"/>
     </g>
     <g id="line2d_49">
      <g>
       <use x="740.181017" xlink:href="#m50dac31736" y="285"/>
      </g>
     </g>
     <g id="text_25">
      <!-- 4 -->
      <g transform="translate(735.409142 305.897656)scale(0.15 -0.15)">
       <use xlink:href="#DejaVuSans-34"/>
      </g>
     </g>
    </g>
    <g id="xtick_14">
     <g id="line2d_50">
      <path clip-path="url(#p8a79943344)" d="M 792.168595 285 
L 792.168595 13.2 
" style="fill:none;stroke:#b0b0b0;stroke-linecap:square;stroke-width:0.8;"/>
     </g>
     <g id="line2d_51">
      <g>
       <use x="792.168595" xlink:href="#m50dac31736" y="285"/>
      </g>
     </g>
     <g id="text_26">
      <!-- 5 -->
      <g transform="translate(787.39672 305.897656)scale(0.15 -0.15)">
       <use xlink:href="#DejaVuSans-35"/>
      </g>
     </g>
    </g>
    <g id="xtick_15">
     <g id="line2d_52">
      <path clip-path="url(#p8a79943344)" d="M 844.156172 285 
L 844.156172 13.2 
" style="fill:none;stroke:#b0b0b0;stroke-linecap:square;stroke-width:0.8;"/>
     </g>
     <g id="line2d_53">
      <g>
       <use x="844.156172" xlink:href="#m50dac31736" y="285"/>
      </g>
     </g>
     <g id="text_27">
      <!-- 6 -->
      <g transform="translate(839.384297 305.897656)scale(0.15 -0.15)">
       <use xlink:href="#DejaVuSans-36"/>
      </g>
     </g>
    </g>
    <g id="xtick_16">
     <g id="line2d_54">
      <path clip-path="url(#p8a79943344)" d="M 896.14375 285 
L 896.14375 13.2 
" style="fill:none;stroke:#b0b0b0;stroke-linecap:square;stroke-width:0.8;"/>
     </g>
     <g id="line2d_55">
      <g>
       <use x="896.14375" xlink:href="#m50dac31736" y="285"/>
      </g>
     </g>
     <g id="text_28">
      <!-- 7 -->
      <g transform="translate(891.371875 305.897656)scale(0.15 -0.15)">
       <use xlink:href="#DejaVuSans-37"/>
      </g>
     </g>
    </g>
    <g id="text_29">
     <!-- $t/\tau$ -->
     <g transform="translate(700.787228 328.214063)scale(0.2 -0.2)">
      <use transform="translate(0 0.09375)" xlink:href="#DejaVuSans-Oblique-74"/>
      <use transform="translate(39.208984 0.09375)" xlink:href="#DejaVuSans-2f"/>
      <use transform="translate(72.900391 0.09375)" xlink:href="#DejaVuSans-Oblique-3c4"/>
     </g>
    </g>
   </g>
   <g id="matplotlib.axis_4">
    <g id="ytick_8">
     <g id="line2d_56">
      <path clip-path="url(#p8a79943344)" d="M 532.230707 272.645455 
L 896.14375 272.645455 
" style="fill:none;stroke:#b0b0b0;stroke-linecap:square;stroke-width:0.8;"/>
     </g>
     <g id="line2d_57">
      <g>
       <use x="532.230707" xlink:href="#mbb428dc9b7" y="272.645455"/>
      </g>
     </g>
     <g id="text_30">
      <!-- 0.00 -->
      <defs>
       <path d="M 10.6875 12.40625 
L 21 12.40625 
L 21 0 
L 10.6875 0 
z
" id="DejaVuSans-2e"/>
      </defs>
      <g transform="translate(489.332269 278.344283)scale(0.15 -0.15)">
       <use xlink:href="#DejaVuSans-30"/>
       <use x="63.623047" xlink:href="#DejaVuSans-2e"/>
       <use x="95.410156" xlink:href="#DejaVuSans-30"/>
       <use x="159.033203" xlink:href="#DejaVuSans-30"/>
      </g>
     </g>
    </g>
    <g id="ytick_9">
     <g id="line2d_58">
      <path clip-path="url(#p8a79943344)" d="M 532.230707 219.492067 
L 896.14375 219.492067 
" style="fill:none;stroke:#b0b0b0;stroke-linecap:square;stroke-width:0.8;"/>
     </g>
     <g id="line2d_59">
      <g>
       <use x="532.230707" xlink:href="#mbb428dc9b7" y="219.492067"/>
      </g>
     </g>
     <g id="text_31">
      <!-- 0.05 -->
      <g transform="translate(489.332269 225.190895)scale(0.15 -0.15)">
       <use xlink:href="#DejaVuSans-30"/>
       <use x="63.623047" xlink:href="#DejaVuSans-2e"/>
       <use x="95.410156" xlink:href="#DejaVuSans-30"/>
       <use x="159.033203" xlink:href="#DejaVuSans-35"/>
      </g>
     </g>
    </g>
    <g id="ytick_10">
     <g id="line2d_60">
      <path clip-path="url(#p8a79943344)" d="M 532.230707 166.33868 
L 896.14375 166.33868 
" style="fill:none;stroke:#b0b0b0;stroke-linecap:square;stroke-width:0.8;"/>
     </g>
     <g id="line2d_61">
      <g>
       <use x="532.230707" xlink:href="#mbb428dc9b7" y="166.33868"/>
      </g>
     </g>
     <g id="text_32">
      <!-- 0.10 -->
      <g transform="translate(489.332269 172.037508)scale(0.15 -0.15)">
       <use xlink:href="#DejaVuSans-30"/>
       <use x="63.623047" xlink:href="#DejaVuSans-2e"/>
       <use x="95.410156" xlink:href="#DejaVuSans-31"/>
       <use x="159.033203" xlink:href="#DejaVuSans-30"/>
      </g>
     </g>
    </g>
    <g id="ytick_11">
     <g id="line2d_62">
      <path clip-path="url(#p8a79943344)" d="M 532.230707 113.185293 
L 896.14375 113.185293 
" style="fill:none;stroke:#b0b0b0;stroke-linecap:square;stroke-width:0.8;"/>
     </g>
     <g id="line2d_63">
      <g>
       <use x="532.230707" xlink:href="#mbb428dc9b7" y="113.185293"/>
      </g>
     </g>
     <g id="text_33">
      <!-- 0.15 -->
      <g transform="translate(489.332269 118.884121)scale(0.15 -0.15)">
       <use xlink:href="#DejaVuSans-30"/>
       <use x="63.623047" xlink:href="#DejaVuSans-2e"/>
       <use x="95.410156" xlink:href="#DejaVuSans-31"/>
       <use x="159.033203" xlink:href="#DejaVuSans-35"/>
      </g>
     </g>
    </g>
    <g id="ytick_12">
     <g id="line2d_64">
      <path clip-path="url(#p8a79943344)" d="M 532.230707 60.031906 
L 896.14375 60.031906 
" style="fill:none;stroke:#b0b0b0;stroke-linecap:square;stroke-width:0.8;"/>
     </g>
     <g id="line2d_65">
      <g>
       <use x="532.230707" xlink:href="#mbb428dc9b7" y="60.031906"/>
      </g>
     </g>
     <g id="text_34">
      <!-- 0.20 -->
      <g transform="translate(489.332269 65.730734)scale(0.15 -0.15)">
       <use xlink:href="#DejaVuSans-30"/>
       <use x="63.623047" xlink:href="#DejaVuSans-2e"/>
       <use x="95.410156" xlink:href="#DejaVuSans-32"/>
       <use x="159.033203" xlink:href="#DejaVuSans-30"/>
      </g>
     </g>
    </g>
    <g id="text_35">
     <!-- $C_V^2(r)$ -->
     <defs>
      <path d="M 69.484375 67.28125 
L 67.484375 56.890625 
Q 62.796875 61.625 57.546875 63.921875 
Q 52.296875 66.21875 46.1875 66.21875 
Q 37.84375 66.21875 31.515625 62.203125 
Q 25.203125 58.203125 20.609375 50 
Q 17.671875 44.734375 16.125 38.84375 
Q 14.59375 32.953125 14.59375 27 
Q 14.59375 17.046875 19.75 11.8125 
Q 24.90625 6.59375 34.71875 6.59375 
Q 41.5 6.59375 47.75 8.765625 
Q 54 10.9375 59.90625 15.28125 
L 57.625 3.609375 
Q 51.8125 1.125 45.875 -0.140625 
Q 39.9375 -1.421875 33.984375 -1.421875 
Q 19.96875 -1.421875 12.078125 6.1875 
Q 4.203125 13.8125 4.203125 27.390625 
Q 4.203125 36.078125 7.203125 44.46875 
Q 10.203125 52.875 15.828125 59.8125 
Q 21.78125 67.1875 29.421875 70.703125 
Q 37.0625 74.21875 47.21875 74.21875 
Q 53.46875 74.21875 59.0625 72.484375 
Q 64.65625 70.75 69.484375 67.28125 
z
" id="DejaVuSans-Oblique-43"/>
      <path d="M 20.609375 0 
L 7.8125 72.90625 
L 17.484375 72.90625 
L 28.078125 10.203125 
L 63.484375 72.90625 
L 74.21875 72.90625 
L 32.078125 0 
z
" id="DejaVuSans-Oblique-56"/>
      <path d="M 31 75.875 
Q 24.46875 64.65625 21.28125 53.65625 
Q 18.109375 42.671875 18.109375 31.390625 
Q 18.109375 20.125 21.3125 9.0625 
Q 24.515625 -2 31 -13.1875 
L 23.1875 -13.1875 
Q 15.875 -1.703125 12.234375 9.375 
Q 8.59375 20.453125 8.59375 31.390625 
Q 8.59375 42.28125 12.203125 53.3125 
Q 15.828125 64.359375 23.1875 75.875 
z
" id="DejaVuSans-28"/>
      <path d="M 8.015625 75.875 
L 15.828125 75.875 
Q 23.140625 64.359375 26.78125 53.3125 
Q 30.421875 42.28125 30.421875 31.390625 
Q 30.421875 20.453125 26.78125 9.375 
Q 23.140625 -1.703125 15.828125 -13.1875 
L 8.015625 -13.1875 
Q 14.5 -2 17.703125 9.0625 
Q 20.90625 20.125 20.90625 31.390625 
Q 20.90625 42.671875 17.703125 53.65625 
Q 14.5 64.65625 8.015625 75.875 
z
" id="DejaVuSans-29"/>
     </defs>
     <g transform="translate(479.732269 173.5)rotate(-90)scale(0.2 -0.2)">
      <use transform="translate(0 0.765625)" xlink:href="#DejaVuSans-Oblique-43"/>
      <use transform="translate(77.02474 39.046875)scale(0.7)" xlink:href="#DejaVuSans-32"/>
      <use transform="translate(69.824219 -26.578125)scale(0.7)" xlink:href="#DejaVuSans-Oblique-56"/>
      <use transform="translate(124.295247 0.765625)" xlink:href="#DejaVuSans-28"/>
      <use transform="translate(163.308919 0.765625)" xlink:href="#DejaVuSans-Oblique-72"/>
      <use transform="translate(204.422201 0.765625)" xlink:href="#DejaVuSans-29"/>
     </g>
    </g>
   </g>
   <g id="line2d_66">
    <path clip-path="url(#p8a79943344)" d="M 532.230707 272.645455 
L 537.429464 166.472965 
L 542.628222 153.338037 
L 547.82698 156.257006 
L 553.025738 162.125868 
L 558.224495 162.289468 
L 563.423253 166.863012 
L 568.622011 169.539543 
L 573.820769 160.022775 
L 579.019526 159.257198 
L 584.218284 158.707501 
L 589.417042 166.09086 
L 594.6158 164.615599 
L 599.814557 166.915282 
L 605.013315 167.916039 
L 610.212073 164.655931 
L 615.410831 168.948521 
L 620.609589 164.028629 
L 625.808346 162.391645 
L 631.007104 158.513079 
L 636.205862 152.989592 
L 641.40462 162.700168 
L 646.603377 163.854194 
L 651.802135 166.163013 
L 657.000893 158.452454 
L 662.199651 160.808267 
L 667.398408 164.940642 
L 672.597166 166.173386 
L 677.795924 165.340399 
L 682.994682 167.97064 
L 688.193439 164.127992 
L 693.392197 166.384919 
L 698.590955 165.243214 
L 703.789713 165.945737 
L 708.98847 170.20545 
L 714.187228 172.228635 
L 719.385986 171.113769 
L 724.584744 171.832615 
L 729.783502 166.217072 
L 734.982259 166.725496 
L 740.181017 171.306104 
L 745.379775 176.571418 
L 750.578533 164.820761 
L 755.77729 163.955629 
L 760.976048 164.110185 
L 766.174806 168.462543 
L 771.373564 171.279655 
L 776.572321 170.328415 
L 781.771079 172.244368 
L 786.969837 166.6564 
L 792.168595 167.11009 
L 797.367352 168.717956 
L 802.56611 161.495335 
L 807.764868 166.189585 
L 812.963626 170.781066 
L 818.162384 161.292095 
L 823.361141 167.656223 
L 828.559899 167.19108 
L 833.758657 167.219107 
L 838.957415 165.616251 
L 844.156172 164.102284 
L 849.35493 169.025175 
L 854.553688 171.754683 
L 859.752446 173.298382 
L 864.951203 170.205083 
L 870.149961 169.336403 
L 875.348719 168.451028 
L 880.547477 158.697724 
L 885.746234 160.79583 
L 890.944992 155.832078 
" style="fill:none;stroke:#1f77b4;stroke-linecap:square;stroke-width:3;"/>
   </g>
   <g id="line2d_67">
    <path clip-path="url(#p8a79943344)" d="M 532.230707 272.645455 
L 537.429464 159.074654 
L 542.628222 85.418975 
L 547.82698 99.384859 
L 553.025738 105.345975 
L 558.224495 99.729794 
L 563.423253 107.803162 
L 568.622011 74.349269 
L 573.820769 85.565937 
L 579.019526 93.915363 
L 584.218284 107.227184 
L 589.417042 110.79056 
L 594.6158 101.445702 
L 599.814557 93.190129 
L 605.013315 106.864523 
L 610.212073 117.696905 
L 615.410831 133.915195 
L 620.609589 123.802708 
L 625.808346 121.117197 
L 631.007104 120.191763 
L 636.205862 136.65078 
L 641.40462 143.067075 
L 646.603377 129.753734 
L 651.802135 130.358504 
L 657.000893 114.031505 
L 662.199651 106.468435 
L 667.398408 114.139484 
L 672.597166 100.441412 
L 677.795924 94.281459 
L 682.994682 113.77846 
L 688.193439 114.805409 
L 693.392197 103.122536 
L 698.590955 104.615996 
L 703.789713 100.937023 
L 708.98847 117.73033 
L 714.187228 127.761234 
L 719.385986 114.847454 
L 724.584744 121.545996 
L 729.783502 122.355534 
L 734.982259 128.241225 
L 740.181017 126.08004 
L 745.379775 117.55957 
L 750.578533 116.23695 
L 755.77729 114.213814 
L 760.976048 111.006797 
L 766.174806 108.759081 
L 771.373564 116.850359 
L 776.572321 118.739251 
L 781.771079 122.581802 
L 786.969837 115.317141 
L 792.168595 106.963381 
L 797.367352 109.174656 
L 802.56611 113.381298 
L 807.764868 107.24917 
L 812.963626 112.588842 
L 818.162384 106.798221 
L 823.361141 109.588307 
L 828.559899 108.059135 
L 833.758657 115.012175 
L 838.957415 115.20303 
L 844.156172 106.806133 
L 849.35493 107.205243 
L 854.553688 109.764588 
L 859.752446 112.796349 
L 864.951203 109.86676 
L 870.149961 114.254973 
L 875.348719 109.6212 
L 880.547477 107.119857 
L 885.746234 105.600825 
L 890.944992 111.755233 
" style="fill:none;stroke:#ff6800;stroke-linecap:square;stroke-width:3;"/>
   </g>
   <g id="line2d_68">
    <path clip-path="url(#p8a79943344)" d="M 532.230707 272.645455 
L 537.429464 251.833635 
L 542.628222 242.782192 
L 547.82698 236.800456 
L 553.025738 233.073536 
L 558.224495 223.961848 
L 563.423253 232.322341 
L 568.622011 216.058498 
L 573.820769 221.846972 
L 579.019526 211.737375 
L 584.218284 203.052773 
L 589.417042 199.453142 
L 594.6158 195.234218 
L 599.814557 185.166557 
L 605.013315 181.715439 
L 610.212073 183.806933 
L 615.410831 185.986965 
L 620.609589 180.09514 
L 625.808346 183.381075 
L 631.007104 166.526696 
L 636.205862 177.86247 
L 641.40462 180.596181 
L 646.603377 172.918664 
L 651.802135 171.363085 
L 657.000893 160.591731 
L 662.199651 154.98586 
L 667.398408 155.001139 
L 672.597166 148.276277 
L 677.795924 135.331709 
L 682.994682 151.723616 
L 688.193439 142.779617 
L 693.392197 139.271008 
L 698.590955 135.831017 
L 703.789713 132.919055 
L 708.98847 142.91095 
L 714.187228 149.078504 
L 719.385986 135.73002 
L 724.584744 140.230211 
L 729.783502 139.271553 
L 734.982259 144.8401 
L 740.181017 142.684268 
L 745.379775 135.178516 
L 750.578533 133.110277 
L 755.77729 128.765601 
L 760.976048 127.240574 
L 766.174806 120.348075 
L 771.373564 128.673923 
L 776.572321 129.745086 
L 781.771079 131.407463 
L 786.969837 124.923615 
L 792.168595 117.084399 
L 797.367352 117.213921 
L 802.56611 122.429385 
L 807.764868 115.031893 
L 812.963626 120.142556 
L 818.162384 113.627148 
L 823.361141 117.583871 
L 828.559899 115.036172 
L 833.758657 120.898802 
L 838.957415 120.877197 
L 844.156172 113.102997 
L 849.35493 113.580404 
L 854.553688 115.560223 
L 859.752446 117.183276 
L 864.951203 113.835693 
L 870.149961 118.012558 
L 875.348719 113.159093 
L 880.547477 111.374884 
L 885.746234 110.52524 
L 890.944992 115.157692 
" style="fill:none;stroke:#319000;stroke-linecap:square;stroke-width:3;"/>
   </g>
   <g id="patch_9">
    <path d="M 532.230707 285 
L 532.230707 13.2 
" style="fill:none;stroke:#000000;stroke-linecap:square;stroke-linejoin:miter;stroke-width:2;"/>
   </g>
   <g id="patch_10">
    <path d="M 896.14375 285 
L 896.14375 13.2 
" style="fill:none;"/>
   </g>
   <g id="patch_11">
    <path d="M 532.230707 285 
L 896.14375 285 
" style="fill:none;stroke:#000000;stroke-linecap:square;stroke-linejoin:miter;stroke-width:2;"/>
   </g>
   <g id="patch_12">
    <path d="M 532.230707 13.2 
L 896.14375 13.2 
" style="fill:none;"/>
   </g>
  </g>
 </g>
 <defs>
  <clipPath id="pa55633c03c">
   <rect height="271.8" width="363.913043" x="59.14375" y="13.2"/>
  </clipPath>
  <clipPath id="p8a79943344">
   <rect height="271.8" width="363.913043" x="532.230707" y="13.2"/>
  </clipPath>
 </defs>
</svg>
