<?xml version="1.0" encoding="utf-8" standalone="no"?>
<!DOCTYPE svg PUBLIC "-//W3C//DTD SVG 1.1//EN"
  "http://www.w3.org/Graphics/SVG/1.1/DTD/svg11.dtd">
<!-- Created with matplotlib (http://matplotlib.org/) -->
<svg height="339.573438pt" version="1.1" viewBox="0 0 909.34375 339.573438" width="909.34375pt" xmlns="http://www.w3.org/2000/svg" xmlns:xlink="http://www.w3.org/1999/xlink">
 <defs>
  <style type="text/css">
*{stroke-linecap:butt;stroke-linejoin:round;}
  </style>
 </defs>
 <g id="figure_1">
  <g id="patch_1">
   <path d="M 0 339.573438 
L 909.34375 339.573438 
L 909.34375 0 
L 0 0 
z
" style="fill:#ffffff;"/>
  </g>
  <g id="axes_1">
   <g id="patch_2">
    <path d="M 59.14375 285 
L 423.056793 285 
L 423.056793 13.2 
L 59.14375 13.2 
z
" style="fill:#ffffff;"/>
   </g>
   <g id="PolyCollection_1">
    <defs>
     <path d="M 59.14375 -66.927983 
L 59.14375 -66.927983 
L 64.342508 -142.768938 
L 69.541266 -197.375219 
L 74.740023 -232.517964 
L 79.938781 -254.75729 
L 85.137539 -267.260153 
L 90.336297 -278.993516 
L 95.535054 -286.009493 
L 100.733812 -288.858279 
L 105.93257 -291.412846 
L 111.131328 -293.143971 
L 116.330085 -294.087556 
L 121.528843 -293.010603 
L 126.727601 -296.220576 
L 131.926359 -295.807542 
L 137.125116 -297.588098 
L 142.323874 -295.772637 
L 147.522632 -297.114802 
L 152.72139 -295.106919 
L 157.920148 -296.917832 
L 163.118905 -298.473405 
L 168.317663 -299.813543 
L 173.516421 -298.063406 
L 178.715179 -295.212642 
L 183.913936 -297.437778 
L 189.112694 -296.602916 
L 194.311452 -296.509556 
L 199.51021 -298.384119 
L 204.708967 -297.33619 
L 209.907725 -298.724237 
L 215.106483 -297.898222 
L 220.305241 -297.440483 
L 225.503998 -299.45475 
L 230.702756 -298.270415 
L 235.901514 -296.703842 
L 241.100272 -297.301939 
L 246.29903 -296.786587 
L 251.497787 -296.501873 
L 256.696545 -294.278595 
L 261.895303 -294.652361 
L 267.094061 -297.66887 
L 272.292818 -295.809586 
L 277.491576 -293.109913 
L 282.690334 -295.606536 
L 287.889092 -298.759025 
L 293.087849 -296.558757 
L 298.286607 -293.303596 
L 303.485365 -291.408826 
L 308.684123 -292.870772 
L 313.88288 -294.266442 
L 319.081638 -296.00943 
L 324.280396 -295.235753 
L 329.479154 -295.346305 
L 334.677911 -296.942999 
L 339.876669 -297.290135 
L 345.075427 -296.633667 
L 350.274185 -296.509127 
L 355.472943 -295.949592 
L 360.6717 -297.521064 
L 365.870458 -295.583094 
L 371.069216 -298.258163 
L 376.267974 -297.359663 
L 381.466731 -297.962803 
L 386.665489 -300.465615 
L 391.864247 -298.126824 
L 397.063005 -298.155522 
L 402.261762 -298.965182 
L 407.46052 -297.478954 
L 412.659278 -299.131989 
L 417.858036 -300.500025 
L 417.858036 -306.929865 
L 417.858036 -306.929865 
L 412.659278 -305.426566 
L 407.46052 -303.755466 
L 402.261762 -305.428121 
L 397.063005 -304.263719 
L 391.864247 -304.364912 
L 386.665489 -307.037474 
L 381.466731 -304.197165 
L 376.267974 -303.552059 
L 371.069216 -304.479275 
L 365.870458 -301.645088 
L 360.6717 -303.593381 
L 355.472943 -302.075568 
L 350.274185 -302.825405 
L 345.075427 -302.722907 
L 339.876669 -303.284247 
L 334.677911 -303.167985 
L 329.479154 -301.639876 
L 324.280396 -301.425343 
L 319.081638 -302.15675 
L 313.88288 -300.433453 
L 308.684123 -298.835391 
L 303.485365 -297.461 
L 298.286607 -299.488242 
L 293.087849 -302.741498 
L 287.889092 -305.174458 
L 282.690334 -302.154329 
L 277.491576 -299.541518 
L 272.292818 -301.825124 
L 267.094061 -303.825954 
L 261.895303 -300.715033 
L 256.696545 -300.299183 
L 251.497787 -302.633354 
L 246.29903 -302.883224 
L 241.100272 -303.636166 
L 235.901514 -302.779353 
L 230.702756 -304.245195 
L 225.503998 -305.440615 
L 220.305241 -303.727839 
L 215.106483 -303.984282 
L 209.907725 -305.288144 
L 204.708967 -303.836345 
L 199.51021 -304.632642 
L 194.311452 -302.817981 
L 189.112694 -303.03676 
L 183.913936 -303.674173 
L 178.715179 -301.295853 
L 173.516421 -304.120319 
L 168.317663 -305.802158 
L 163.118905 -304.946155 
L 157.920148 -303.13342 
L 152.72139 -301.291175 
L 147.522632 -303.404412 
L 142.323874 -301.789599 
L 137.125116 -303.586377 
L 131.926359 -302.029286 
L 126.727601 -302.34293 
L 121.528843 -299.615516 
L 116.330085 -300.169542 
L 111.131328 -299.421142 
L 105.93257 -297.679667 
L 100.733812 -295.08249 
L 95.535054 -292.196713 
L 90.336297 -285.52892 
L 85.137539 -272.993108 
L 79.938781 -260.650194 
L 74.740023 -237.979628 
L 69.541266 -202.599605 
L 64.342508 -146.91751 
L 59.14375 -66.927983 
z
" id="m7aeaadb0e5"/>
    </defs>
    <g clip-path="url(#pf168e130cb)">
     <use style="fill:#4db8ff;" x="0" xlink:href="#m7aeaadb0e5" y="339.573438"/>
    </g>
   </g>
   <g id="PolyCollection_2">
    <defs>
     <path d="M 59.14375 -66.927983 
L 59.14375 -66.927983 
L 64.342508 -139.959655 
L 69.541266 -192.55667 
L 74.740023 -224.298739 
L 79.938781 -250.091287 
L 85.137539 -265.596986 
L 90.336297 -274.414733 
L 95.535054 -289.434197 
L 100.733812 -291.739618 
L 105.93257 -294.670486 
L 111.131328 -291.268159 
L 116.330085 -292.226024 
L 121.528843 -288.694331 
L 126.727601 -292.197687 
L 131.926359 -294.715356 
L 137.125116 -295.03482 
L 142.323874 -296.281975 
L 147.522632 -292.488112 
L 152.72139 -294.17624 
L 157.920148 -293.117413 
L 163.118905 -292.209873 
L 168.317663 -293.693779 
L 173.516421 -293.191162 
L 178.715179 -295.914461 
L 183.913936 -293.101877 
L 189.112694 -295.559765 
L 194.311452 -297.325979 
L 199.51021 -294.377039 
L 204.708967 -294.35055 
L 209.907725 -293.202156 
L 215.106483 -292.325561 
L 220.305241 -297.191355 
L 225.503998 -298.061511 
L 230.702756 -297.785784 
L 235.901514 -297.684685 
L 241.100272 -297.349438 
L 246.29903 -293.650918 
L 251.497787 -294.848491 
L 256.696545 -294.654215 
L 261.895303 -295.682145 
L 267.094061 -296.710849 
L 272.292818 -298.241485 
L 277.491576 -298.89882 
L 282.690334 -299.325064 
L 287.889092 -299.371533 
L 293.087849 -299.953429 
L 298.286607 -300.964671 
L 303.485365 -298.486711 
L 308.684123 -296.71986 
L 313.88288 -297.782826 
L 319.081638 -297.514162 
L 324.280396 -297.661216 
L 329.479154 -298.663484 
L 334.677911 -297.95487 
L 339.876669 -297.126449 
L 345.075427 -297.58014 
L 350.274185 -297.6249 
L 355.472943 -297.838526 
L 360.6717 -295.990225 
L 365.870458 -296.03193 
L 371.069216 -295.69814 
L 376.267974 -297.517581 
L 381.466731 -296.354054 
L 386.665489 -298.464687 
L 391.864247 -299.173606 
L 397.063005 -299.130825 
L 402.261762 -299.01524 
L 407.46052 -298.730306 
L 412.659278 -298.959653 
L 417.858036 -299.182564 
L 417.858036 -301.5986 
L 417.858036 -301.5986 
L 412.659278 -301.495314 
L 407.46052 -301.360842 
L 402.261762 -301.700093 
L 397.063005 -301.954287 
L 391.864247 -302.048608 
L 386.665489 -301.335493 
L 381.466731 -299.621009 
L 376.267974 -300.7308 
L 371.069216 -298.988564 
L 365.870458 -299.394268 
L 360.6717 -299.416407 
L 355.472943 -301.477139 
L 350.274185 -301.418865 
L 345.075427 -301.538978 
L 339.876669 -301.024667 
L 334.677911 -301.962924 
L 329.479154 -302.944757 
L 324.280396 -302.19771 
L 319.081638 -302.266011 
L 313.88288 -302.530101 
L 308.684123 -301.78004 
L 303.485365 -303.747382 
L 298.286607 -306.430474 
L 293.087849 -305.498034 
L 287.889092 -305.029731 
L 282.690334 -305.145129 
L 277.491576 -305.1846 
L 272.292818 -304.361024 
L 267.094061 -303.356326 
L 261.895303 -302.523007 
L 256.696545 -301.470798 
L 251.497787 -302.245219 
L 246.29903 -301.841761 
L 241.100272 -305.285088 
L 235.901514 -305.543731 
L 230.702756 -306.017016 
L 225.503998 -306.836339 
L 220.305241 -305.991728 
L 215.106483 -301.524689 
L 209.907725 -302.120825 
L 204.708967 -305.210093 
L 199.51021 -304.224674 
L 194.311452 -307.577308 
L 189.112694 -306.828586 
L 183.913936 -303.613513 
L 178.715179 -307.486792 
L 173.516421 -305.355078 
L 168.317663 -306.314166 
L 163.118905 -304.776483 
L 157.920148 -305.896721 
L 152.72139 -308.048127 
L 147.522632 -307.240951 
L 142.323874 -311.538577 
L 137.125116 -310.278704 
L 131.926359 -310.53213 
L 126.727601 -308.675334 
L 121.528843 -305.722971 
L 116.330085 -309.367324 
L 111.131328 -309.103394 
L 105.93257 -314.018892 
L 100.733812 -311.479146 
L 95.535054 -308.434869 
L 90.336297 -293.859305 
L 85.137539 -286.607298 
L 79.938781 -269.917162 
L 74.740023 -244.615635 
L 69.541266 -211.039612 
L 64.342508 -155.387988 
L 59.14375 -66.927983 
z
" id="mbcf6a224cb"/>
    </defs>
    <g clip-path="url(#pf168e130cb)">
     <use style="fill:#ffa035;" x="0" xlink:href="#mbcf6a224cb" y="339.573438"/>
    </g>
   </g>
   <g id="PolyCollection_3">
    <defs>
     <path d="M 59.14375 -66.927983 
L 59.14375 -66.927983 
L 64.342508 -139.395435 
L 69.541266 -194.738667 
L 74.740023 -227.192983 
L 79.938781 -252.472347 
L 85.137539 -267.9304 
L 90.336297 -275.113786 
L 95.535054 -286.718599 
L 100.733812 -292.957066 
L 105.93257 -295.93233 
L 111.131328 -293.375988 
L 116.330085 -294.384753 
L 121.528843 -290.780562 
L 126.727601 -291.21048 
L 131.926359 -293.916121 
L 137.125116 -295.282595 
L 142.323874 -295.823458 
L 147.522632 -293.547898 
L 152.72139 -294.735396 
L 157.920148 -291.372155 
L 163.118905 -292.706386 
L 168.317663 -294.044769 
L 173.516421 -294.564801 
L 178.715179 -297.217769 
L 183.913936 -293.806915 
L 189.112694 -297.448416 
L 194.311452 -298.661204 
L 199.51021 -294.383972 
L 204.708967 -296.053847 
L 209.907725 -292.741969 
L 215.106483 -291.850451 
L 220.305241 -296.790984 
L 225.503998 -297.508171 
L 230.702756 -296.819137 
L 235.901514 -296.599218 
L 241.100272 -296.830778 
L 246.29903 -293.402111 
L 251.497787 -294.588884 
L 256.696545 -294.466385 
L 261.895303 -295.608906 
L 267.094061 -297.018959 
L 272.292818 -298.373405 
L 277.491576 -299.180832 
L 282.690334 -299.804779 
L 287.889092 -298.901388 
L 293.087849 -300.078561 
L 298.286607 -301.290118 
L 303.485365 -298.77214 
L 308.684123 -297.043633 
L 313.88288 -297.638793 
L 319.081638 -297.644341 
L 324.280396 -297.512761 
L 329.479154 -298.916932 
L 334.677911 -298.487892 
L 339.876669 -297.180249 
L 345.075427 -297.678754 
L 350.274185 -297.655084 
L 355.472943 -298.090006 
L 360.6717 -295.924903 
L 365.870458 -295.970548 
L 371.069216 -295.639692 
L 376.267974 -297.563546 
L 381.466731 -296.480018 
L 386.665489 -298.338935 
L 391.864247 -298.92045 
L 397.063005 -298.910714 
L 402.261762 -298.860049 
L 407.46052 -298.532504 
L 412.659278 -298.767639 
L 417.858036 -298.838247 
L 417.858036 -301.570153 
L 417.858036 -301.570153 
L 412.659278 -301.425192 
L 407.46052 -301.136372 
L 402.261762 -301.507267 
L 397.063005 -301.722866 
L 391.864247 -301.850445 
L 386.665489 -301.334869 
L 381.466731 -299.437027 
L 376.267974 -300.601424 
L 371.069216 -298.593931 
L 365.870458 -299.383019 
L 360.6717 -299.447777 
L 355.472943 -301.573629 
L 350.274185 -301.254216 
L 345.075427 -301.582876 
L 339.876669 -301.324734 
L 334.677911 -302.459136 
L 329.479154 -303.201664 
L 324.280396 -302.198173 
L 319.081638 -302.221607 
L 313.88288 -302.776398 
L 308.684123 -302.073909 
L 303.485365 -303.9767 
L 298.286607 -306.276142 
L 293.087849 -305.376867 
L 287.889092 -305.062716 
L 282.690334 -305.350142 
L 277.491576 -305.532489 
L 272.292818 -304.698826 
L 267.094061 -303.096535 
L 261.895303 -302.029578 
L 256.696545 -301.458415 
L 251.497787 -301.463711 
L 246.29903 -299.99302 
L 241.100272 -303.369244 
L 235.901514 -304.488234 
L 230.702756 -304.145137 
L 225.503998 -305.889563 
L 220.305241 -304.97905 
L 215.106483 -299.64172 
L 209.907725 -301.17064 
L 204.708967 -305.093726 
L 199.51021 -304.579509 
L 194.311452 -308.252259 
L 189.112694 -307.10462 
L 183.913936 -305.46994 
L 178.715179 -308.338807 
L 173.516421 -305.464917 
L 168.317663 -305.503986 
L 163.118905 -304.585184 
L 157.920148 -304.122753 
L 152.72139 -307.25565 
L 147.522632 -306.816844 
L 142.323874 -308.487124 
L 137.125116 -308.852162 
L 131.926359 -307.359875 
L 126.727601 -304.83402 
L 121.528843 -305.291145 
L 116.330085 -309.825882 
L 111.131328 -308.345285 
L 105.93257 -311.54892 
L 100.733812 -309.766386 
L 95.535054 -303.541963 
L 90.336297 -291.847539 
L 85.137539 -286.535713 
L 79.938781 -270.757785 
L 74.740023 -244.119028 
L 69.541266 -211.711661 
L 64.342508 -153.612481 
L 59.14375 -66.927983 
z
" id="m9a06129327"/>
    </defs>
    <g clip-path="url(#pf168e130cb)">
     <use style="fill:#00c917;" x="0" xlink:href="#m9a06129327" y="339.573438"/>
    </g>
   </g>
   <g id="matplotlib.axis_1">
    <g id="xtick_1">
     <g id="line2d_1">
      <path clip-path="url(#pf168e130cb)" d="M 59.14375 285 
L 59.14375 13.2 
" style="fill:none;stroke:#b0b0b0;stroke-linecap:square;stroke-width:0.8;"/>
     </g>
     <g id="line2d_2">
      <defs>
       <path d="M 0 0 
L 0 6 
" id="m75ad7447cb"/>
      </defs>
      <g>
       <use x="59.14375" xlink:href="#m75ad7447cb" y="285"/>
      </g>
     </g>
     <g id="text_1">
      <!-- 0 -->
      <defs>
       <path d="M 31.78125 66.40625 
Q 24.171875 66.40625 20.328125 58.90625 
Q 16.5 51.421875 16.5 36.375 
Q 16.5 21.390625 20.328125 13.890625 
Q 24.171875 6.390625 31.78125 6.390625 
Q 39.453125 6.390625 43.28125 13.890625 
Q 47.125 21.390625 47.125 36.375 
Q 47.125 51.421875 43.28125 58.90625 
Q 39.453125 66.40625 31.78125 66.40625 
z
M 31.78125 74.21875 
Q 44.046875 74.21875 50.515625 64.515625 
Q 56.984375 54.828125 56.984375 36.375 
Q 56.984375 17.96875 50.515625 8.265625 
Q 44.046875 -1.421875 31.78125 -1.421875 
Q 19.53125 -1.421875 13.0625 8.265625 
Q 6.59375 17.96875 6.59375 36.375 
Q 6.59375 54.828125 13.0625 64.515625 
Q 19.53125 74.21875 31.78125 74.21875 
z
" id="DejaVuSans-30"/>
      </defs>
      <g transform="translate(54.371875 305.897656)scale(0.15 -0.15)">
       <use xlink:href="#DejaVuSans-30"/>
      </g>
     </g>
    </g>
    <g id="xtick_2">
     <g id="line2d_3">
      <path clip-path="url(#pf168e130cb)" d="M 111.131328 285 
L 111.131328 13.2 
" style="fill:none;stroke:#b0b0b0;stroke-linecap:square;stroke-width:0.8;"/>
     </g>
     <g id="line2d_4">
      <g>
       <use x="111.131328" xlink:href="#m75ad7447cb" y="285"/>
      </g>
     </g>
     <g id="text_2">
      <!-- 1 -->
      <defs>
       <path d="M 12.40625 8.296875 
L 28.515625 8.296875 
L 28.515625 63.921875 
L 10.984375 60.40625 
L 10.984375 69.390625 
L 28.421875 72.90625 
L 38.28125 72.90625 
L 38.28125 8.296875 
L 54.390625 8.296875 
L 54.390625 0 
L 12.40625 0 
z
" id="DejaVuSans-31"/>
      </defs>
      <g transform="translate(106.359453 305.897656)scale(0.15 -0.15)">
       <use xlink:href="#DejaVuSans-31"/>
      </g>
     </g>
    </g>
    <g id="xtick_3">
     <g id="line2d_5">
      <path clip-path="url(#pf168e130cb)" d="M 163.118905 285 
L 163.118905 13.2 
" style="fill:none;stroke:#b0b0b0;stroke-linecap:square;stroke-width:0.8;"/>
     </g>
     <g id="line2d_6">
      <g>
       <use x="163.118905" xlink:href="#m75ad7447cb" y="285"/>
      </g>
     </g>
     <g id="text_3">
      <!-- 2 -->
      <defs>
       <path d="M 19.1875 8.296875 
L 53.609375 8.296875 
L 53.609375 0 
L 7.328125 0 
L 7.328125 8.296875 
Q 12.9375 14.109375 22.625 23.890625 
Q 32.328125 33.6875 34.8125 36.53125 
Q 39.546875 41.84375 41.421875 45.53125 
Q 43.3125 49.21875 43.3125 52.78125 
Q 43.3125 58.59375 39.234375 62.25 
Q 35.15625 65.921875 28.609375 65.921875 
Q 23.96875 65.921875 18.8125 64.3125 
Q 13.671875 62.703125 7.8125 59.421875 
L 7.8125 69.390625 
Q 13.765625 71.78125 18.9375 73 
Q 24.125 74.21875 28.421875 74.21875 
Q 39.75 74.21875 46.484375 68.546875 
Q 53.21875 62.890625 53.21875 53.421875 
Q 53.21875 48.921875 51.53125 44.890625 
Q 49.859375 40.875 45.40625 35.40625 
Q 44.1875 33.984375 37.640625 27.21875 
Q 31.109375 20.453125 19.1875 8.296875 
z
" id="DejaVuSans-32"/>
      </defs>
      <g transform="translate(158.34703 305.897656)scale(0.15 -0.15)">
       <use xlink:href="#DejaVuSans-32"/>
      </g>
     </g>
    </g>
    <g id="xtick_4">
     <g id="line2d_7">
      <path clip-path="url(#pf168e130cb)" d="M 215.106483 285 
L 215.106483 13.2 
" style="fill:none;stroke:#b0b0b0;stroke-linecap:square;stroke-width:0.8;"/>
     </g>
     <g id="line2d_8">
      <g>
       <use x="215.106483" xlink:href="#m75ad7447cb" y="285"/>
      </g>
     </g>
     <g id="text_4">
      <!-- 3 -->
      <defs>
       <path d="M 40.578125 39.3125 
Q 47.65625 37.796875 51.625 33 
Q 55.609375 28.21875 55.609375 21.1875 
Q 55.609375 10.40625 48.1875 4.484375 
Q 40.765625 -1.421875 27.09375 -1.421875 
Q 22.515625 -1.421875 17.65625 -0.515625 
Q 12.796875 0.390625 7.625 2.203125 
L 7.625 11.71875 
Q 11.71875 9.328125 16.59375 8.109375 
Q 21.484375 6.890625 26.8125 6.890625 
Q 36.078125 6.890625 40.9375 10.546875 
Q 45.796875 14.203125 45.796875 21.1875 
Q 45.796875 27.640625 41.28125 31.265625 
Q 36.765625 34.90625 28.71875 34.90625 
L 20.21875 34.90625 
L 20.21875 43.015625 
L 29.109375 43.015625 
Q 36.375 43.015625 40.234375 45.921875 
Q 44.09375 48.828125 44.09375 54.296875 
Q 44.09375 59.90625 40.109375 62.90625 
Q 36.140625 65.921875 28.71875 65.921875 
Q 24.65625 65.921875 20.015625 65.03125 
Q 15.375 64.15625 9.8125 62.3125 
L 9.8125 71.09375 
Q 15.4375 72.65625 20.34375 73.4375 
Q 25.25 74.21875 29.59375 74.21875 
Q 40.828125 74.21875 47.359375 69.109375 
Q 53.90625 64.015625 53.90625 55.328125 
Q 53.90625 49.265625 50.4375 45.09375 
Q 46.96875 40.921875 40.578125 39.3125 
z
" id="DejaVuSans-33"/>
      </defs>
      <g transform="translate(210.334608 305.897656)scale(0.15 -0.15)">
       <use xlink:href="#DejaVuSans-33"/>
      </g>
     </g>
    </g>
    <g id="xtick_5">
     <g id="line2d_9">
      <path clip-path="url(#pf168e130cb)" d="M 267.094061 285 
L 267.094061 13.2 
" style="fill:none;stroke:#b0b0b0;stroke-linecap:square;stroke-width:0.8;"/>
     </g>
     <g id="line2d_10">
      <g>
       <use x="267.094061" xlink:href="#m75ad7447cb" y="285"/>
      </g>
     </g>
     <g id="text_5">
      <!-- 4 -->
      <defs>
       <path d="M 37.796875 64.3125 
L 12.890625 25.390625 
L 37.796875 25.390625 
z
M 35.203125 72.90625 
L 47.609375 72.90625 
L 47.609375 25.390625 
L 58.015625 25.390625 
L 58.015625 17.1875 
L 47.609375 17.1875 
L 47.609375 0 
L 37.796875 0 
L 37.796875 17.1875 
L 4.890625 17.1875 
L 4.890625 26.703125 
z
" id="DejaVuSans-34"/>
      </defs>
      <g transform="translate(262.322186 305.897656)scale(0.15 -0.15)">
       <use xlink:href="#DejaVuSans-34"/>
      </g>
     </g>
    </g>
    <g id="xtick_6">
     <g id="line2d_11">
      <path clip-path="url(#pf168e130cb)" d="M 319.081638 285 
L 319.081638 13.2 
" style="fill:none;stroke:#b0b0b0;stroke-linecap:square;stroke-width:0.8;"/>
     </g>
     <g id="line2d_12">
      <g>
       <use x="319.081638" xlink:href="#m75ad7447cb" y="285"/>
      </g>
     </g>
     <g id="text_6">
      <!-- 5 -->
      <defs>
       <path d="M 10.796875 72.90625 
L 49.515625 72.90625 
L 49.515625 64.59375 
L 19.828125 64.59375 
L 19.828125 46.734375 
Q 21.96875 47.46875 24.109375 47.828125 
Q 26.265625 48.1875 28.421875 48.1875 
Q 40.625 48.1875 47.75 41.5 
Q 54.890625 34.8125 54.890625 23.390625 
Q 54.890625 11.625 47.5625 5.09375 
Q 40.234375 -1.421875 26.90625 -1.421875 
Q 22.3125 -1.421875 17.546875 -0.640625 
Q 12.796875 0.140625 7.71875 1.703125 
L 7.71875 11.625 
Q 12.109375 9.234375 16.796875 8.0625 
Q 21.484375 6.890625 26.703125 6.890625 
Q 35.15625 6.890625 40.078125 11.328125 
Q 45.015625 15.765625 45.015625 23.390625 
Q 45.015625 31 40.078125 35.4375 
Q 35.15625 39.890625 26.703125 39.890625 
Q 22.75 39.890625 18.8125 39.015625 
Q 14.890625 38.140625 10.796875 36.28125 
z
" id="DejaVuSans-35"/>
      </defs>
      <g transform="translate(314.309763 305.897656)scale(0.15 -0.15)">
       <use xlink:href="#DejaVuSans-35"/>
      </g>
     </g>
    </g>
    <g id="xtick_7">
     <g id="line2d_13">
      <path clip-path="url(#pf168e130cb)" d="M 371.069216 285 
L 371.069216 13.2 
" style="fill:none;stroke:#b0b0b0;stroke-linecap:square;stroke-width:0.8;"/>
     </g>
     <g id="line2d_14">
      <g>
       <use x="371.069216" xlink:href="#m75ad7447cb" y="285"/>
      </g>
     </g>
     <g id="text_7">
      <!-- 6 -->
      <defs>
       <path d="M 33.015625 40.375 
Q 26.375 40.375 22.484375 35.828125 
Q 18.609375 31.296875 18.609375 23.390625 
Q 18.609375 15.53125 22.484375 10.953125 
Q 26.375 6.390625 33.015625 6.390625 
Q 39.65625 6.390625 43.53125 10.953125 
Q 47.40625 15.53125 47.40625 23.390625 
Q 47.40625 31.296875 43.53125 35.828125 
Q 39.65625 40.375 33.015625 40.375 
z
M 52.59375 71.296875 
L 52.59375 62.3125 
Q 48.875 64.0625 45.09375 64.984375 
Q 41.3125 65.921875 37.59375 65.921875 
Q 27.828125 65.921875 22.671875 59.328125 
Q 17.53125 52.734375 16.796875 39.40625 
Q 19.671875 43.65625 24.015625 45.921875 
Q 28.375 48.1875 33.59375 48.1875 
Q 44.578125 48.1875 50.953125 41.515625 
Q 57.328125 34.859375 57.328125 23.390625 
Q 57.328125 12.15625 50.6875 5.359375 
Q 44.046875 -1.421875 33.015625 -1.421875 
Q 20.359375 -1.421875 13.671875 8.265625 
Q 6.984375 17.96875 6.984375 36.375 
Q 6.984375 53.65625 15.1875 63.9375 
Q 23.390625 74.21875 37.203125 74.21875 
Q 40.921875 74.21875 44.703125 73.484375 
Q 48.484375 72.75 52.59375 71.296875 
z
" id="DejaVuSans-36"/>
      </defs>
      <g transform="translate(366.297341 305.897656)scale(0.15 -0.15)">
       <use xlink:href="#DejaVuSans-36"/>
      </g>
     </g>
    </g>
    <g id="xtick_8">
     <g id="line2d_15">
      <path clip-path="url(#pf168e130cb)" d="M 423.056793 285 
L 423.056793 13.2 
" style="fill:none;stroke:#b0b0b0;stroke-linecap:square;stroke-width:0.8;"/>
     </g>
     <g id="line2d_16">
      <g>
       <use x="423.056793" xlink:href="#m75ad7447cb" y="285"/>
      </g>
     </g>
     <g id="text_8">
      <!-- 7 -->
      <defs>
       <path d="M 8.203125 72.90625 
L 55.078125 72.90625 
L 55.078125 68.703125 
L 28.609375 0 
L 18.3125 0 
L 43.21875 64.59375 
L 8.203125 64.59375 
z
" id="DejaVuSans-37"/>
      </defs>
      <g transform="translate(418.284918 305.897656)scale(0.15 -0.15)">
       <use xlink:href="#DejaVuSans-37"/>
      </g>
     </g>
    </g>
    <g id="text_9">
     <!-- $t/\tau$ -->
     <defs>
      <path d="M 42.28125 54.6875 
L 40.921875 47.703125 
L 23 47.703125 
L 17.1875 18.015625 
Q 16.890625 16.359375 16.75 15.234375 
Q 16.609375 14.109375 16.609375 13.484375 
Q 16.609375 10.359375 18.484375 8.9375 
Q 20.359375 7.515625 24.515625 7.515625 
L 33.59375 7.515625 
L 32.078125 0 
L 23.484375 0 
Q 15.484375 0 11.546875 3.125 
Q 7.625 6.25 7.625 12.59375 
Q 7.625 13.71875 7.765625 15.0625 
Q 7.90625 16.40625 8.203125 18.015625 
L 14.015625 47.703125 
L 6.390625 47.703125 
L 7.8125 54.6875 
L 15.28125 54.6875 
L 18.3125 70.21875 
L 27.296875 70.21875 
L 24.3125 54.6875 
z
" id="DejaVuSans-Oblique-74"/>
      <path d="M 25.390625 72.90625 
L 33.6875 72.90625 
L 8.296875 -9.28125 
L 0 -9.28125 
z
" id="DejaVuSans-2f"/>
      <path d="M 32.859375 9.96875 
Q 34.1875 7.625 39.453125 7.625 
L 43.75 7.625 
L 42.28125 0 
L 36.921875 0 
Q 28.125 0 25 4.6875 
Q 21.921875 9.46875 23.96875 19.828125 
L 29 45.703125 
L 8.453125 45.703125 
L 10.203125 54.6875 
L 60.640625 54.6875 
L 58.890625 45.703125 
L 38.1875 45.703125 
L 33.015625 19.28125 
Q 31.640625 12.203125 32.859375 9.96875 
z
" id="DejaVuSans-Oblique-3c4"/>
     </defs>
     <g transform="translate(227.700272 328.214063)scale(0.2 -0.2)">
      <use transform="translate(0 0.09375)" xlink:href="#DejaVuSans-Oblique-74"/>
      <use transform="translate(39.208984 0.09375)" xlink:href="#DejaVuSans-2f"/>
      <use transform="translate(72.900391 0.09375)" xlink:href="#DejaVuSans-Oblique-3c4"/>
     </g>
    </g>
   </g>
   <g id="matplotlib.axis_2">
    <g id="ytick_1">
     <g id="line2d_17">
      <path clip-path="url(#pf168e130cb)" d="M 59.14375 272.645455 
L 423.056793 272.645455 
" style="fill:none;stroke:#b0b0b0;stroke-linecap:square;stroke-width:0.8;"/>
     </g>
     <g id="line2d_18">
      <defs>
       <path d="M 0 0 
L -6 0 
" id="mbf4cc065a2"/>
      </defs>
      <g>
       <use x="59.14375" xlink:href="#mbf4cc065a2" y="272.645455"/>
      </g>
     </g>
     <g id="text_10">
      <!-- 5 -->
      <g transform="translate(40.1 278.344283)scale(0.15 -0.15)">
       <use xlink:href="#DejaVuSans-35"/>
      </g>
     </g>
    </g>
    <g id="ytick_2">
     <g id="line2d_19">
      <path clip-path="url(#pf168e130cb)" d="M 59.14375 226.009709 
L 423.056793 226.009709 
" style="fill:none;stroke:#b0b0b0;stroke-linecap:square;stroke-width:0.8;"/>
     </g>
     <g id="line2d_20">
      <g>
       <use x="59.14375" xlink:href="#mbf4cc065a2" y="226.009709"/>
      </g>
     </g>
     <g id="text_11">
      <!-- 6 -->
      <g transform="translate(40.1 231.708538)scale(0.15 -0.15)">
       <use xlink:href="#DejaVuSans-36"/>
      </g>
     </g>
    </g>
    <g id="ytick_3">
     <g id="line2d_21">
      <path clip-path="url(#pf168e130cb)" d="M 59.14375 179.373964 
L 423.056793 179.373964 
" style="fill:none;stroke:#b0b0b0;stroke-linecap:square;stroke-width:0.8;"/>
     </g>
     <g id="line2d_22">
      <g>
       <use x="59.14375" xlink:href="#mbf4cc065a2" y="179.373964"/>
      </g>
     </g>
     <g id="text_12">
      <!-- 7 -->
      <g transform="translate(40.1 185.072792)scale(0.15 -0.15)">
       <use xlink:href="#DejaVuSans-37"/>
      </g>
     </g>
    </g>
    <g id="ytick_4">
     <g id="line2d_23">
      <path clip-path="url(#pf168e130cb)" d="M 59.14375 132.738219 
L 423.056793 132.738219 
" style="fill:none;stroke:#b0b0b0;stroke-linecap:square;stroke-width:0.8;"/>
     </g>
     <g id="line2d_24">
      <g>
       <use x="59.14375" xlink:href="#mbf4cc065a2" y="132.738219"/>
      </g>
     </g>
     <g id="text_13">
      <!-- 8 -->
      <defs>
       <path d="M 31.78125 34.625 
Q 24.75 34.625 20.71875 30.859375 
Q 16.703125 27.09375 16.703125 20.515625 
Q 16.703125 13.921875 20.71875 10.15625 
Q 24.75 6.390625 31.78125 6.390625 
Q 38.8125 6.390625 42.859375 10.171875 
Q 46.921875 13.96875 46.921875 20.515625 
Q 46.921875 27.09375 42.890625 30.859375 
Q 38.875 34.625 31.78125 34.625 
z
M 21.921875 38.8125 
Q 15.578125 40.375 12.03125 44.71875 
Q 8.5 49.078125 8.5 55.328125 
Q 8.5 64.0625 14.71875 69.140625 
Q 20.953125 74.21875 31.78125 74.21875 
Q 42.671875 74.21875 48.875 69.140625 
Q 55.078125 64.0625 55.078125 55.328125 
Q 55.078125 49.078125 51.53125 44.71875 
Q 48 40.375 41.703125 38.8125 
Q 48.828125 37.15625 52.796875 32.3125 
Q 56.78125 27.484375 56.78125 20.515625 
Q 56.78125 9.90625 50.3125 4.234375 
Q 43.84375 -1.421875 31.78125 -1.421875 
Q 19.734375 -1.421875 13.25 4.234375 
Q 6.78125 9.90625 6.78125 20.515625 
Q 6.78125 27.484375 10.78125 32.3125 
Q 14.796875 37.15625 21.921875 38.8125 
z
M 18.3125 54.390625 
Q 18.3125 48.734375 21.84375 45.5625 
Q 25.390625 42.390625 31.78125 42.390625 
Q 38.140625 42.390625 41.71875 45.5625 
Q 45.3125 48.734375 45.3125 54.390625 
Q 45.3125 60.0625 41.71875 63.234375 
Q 38.140625 66.40625 31.78125 66.40625 
Q 25.390625 66.40625 21.84375 63.234375 
Q 18.3125 60.0625 18.3125 54.390625 
z
" id="DejaVuSans-38"/>
      </defs>
      <g transform="translate(40.1 138.437047)scale(0.15 -0.15)">
       <use xlink:href="#DejaVuSans-38"/>
      </g>
     </g>
    </g>
    <g id="ytick_5">
     <g id="line2d_25">
      <path clip-path="url(#pf168e130cb)" d="M 59.14375 86.102474 
L 423.056793 86.102474 
" style="fill:none;stroke:#b0b0b0;stroke-linecap:square;stroke-width:0.8;"/>
     </g>
     <g id="line2d_26">
      <g>
       <use x="59.14375" xlink:href="#mbf4cc065a2" y="86.102474"/>
      </g>
     </g>
     <g id="text_14">
      <!-- 9 -->
      <defs>
       <path d="M 10.984375 1.515625 
L 10.984375 10.5 
Q 14.703125 8.734375 18.5 7.8125 
Q 22.3125 6.890625 25.984375 6.890625 
Q 35.75 6.890625 40.890625 13.453125 
Q 46.046875 20.015625 46.78125 33.40625 
Q 43.953125 29.203125 39.59375 26.953125 
Q 35.25 24.703125 29.984375 24.703125 
Q 19.046875 24.703125 12.671875 31.3125 
Q 6.296875 37.9375 6.296875 49.421875 
Q 6.296875 60.640625 12.9375 67.421875 
Q 19.578125 74.21875 30.609375 74.21875 
Q 43.265625 74.21875 49.921875 64.515625 
Q 56.59375 54.828125 56.59375 36.375 
Q 56.59375 19.140625 48.40625 8.859375 
Q 40.234375 -1.421875 26.421875 -1.421875 
Q 22.703125 -1.421875 18.890625 -0.6875 
Q 15.09375 0.046875 10.984375 1.515625 
z
M 30.609375 32.421875 
Q 37.25 32.421875 41.125 36.953125 
Q 45.015625 41.5 45.015625 49.421875 
Q 45.015625 57.28125 41.125 61.84375 
Q 37.25 66.40625 30.609375 66.40625 
Q 23.96875 66.40625 20.09375 61.84375 
Q 16.21875 57.28125 16.21875 49.421875 
Q 16.21875 41.5 20.09375 36.953125 
Q 23.96875 32.421875 30.609375 32.421875 
z
" id="DejaVuSans-39"/>
      </defs>
      <g transform="translate(40.1 91.801302)scale(0.15 -0.15)">
       <use xlink:href="#DejaVuSans-39"/>
      </g>
     </g>
    </g>
    <g id="ytick_6">
     <g id="line2d_27">
      <path clip-path="url(#pf168e130cb)" d="M 59.14375 39.466729 
L 423.056793 39.466729 
" style="fill:none;stroke:#b0b0b0;stroke-linecap:square;stroke-width:0.8;"/>
     </g>
     <g id="line2d_28">
      <g>
       <use x="59.14375" xlink:href="#mbf4cc065a2" y="39.466729"/>
      </g>
     </g>
     <g id="text_15">
      <!-- 10 -->
      <g transform="translate(30.55625 45.165557)scale(0.15 -0.15)">
       <use xlink:href="#DejaVuSans-31"/>
       <use x="63.623047" xlink:href="#DejaVuSans-30"/>
      </g>
     </g>
    </g>
    <g id="text_16">
     <!-- $\langle r\rangle$ -->
     <defs>
      <path d="M 8.9375 31.34375 
L 22.703125 75.875 
L 31 75.875 
L 17.234375 31.34375 
L 31 -13.1875 
L 22.703125 -13.1875 
z
" id="DejaVuSans-27e8"/>
      <path d="M 44.578125 46.390625 
Q 43.21875 47.125 41.453125 47.515625 
Q 39.703125 47.90625 37.703125 47.90625 
Q 30.515625 47.90625 25.140625 42.453125 
Q 19.78125 37.015625 18.015625 27.875 
L 12.5 0 
L 3.515625 0 
L 14.203125 54.6875 
L 23.1875 54.6875 
L 21.484375 46.1875 
Q 25.046875 50.921875 30 53.453125 
Q 34.96875 56 40.578125 56 
Q 42.046875 56 43.453125 55.828125 
Q 44.875 55.671875 46.296875 55.28125 
z
" id="DejaVuSans-Oblique-72"/>
      <path d="M 30.078125 31.34375 
L 16.3125 -13.1875 
L 8.015625 -13.1875 
L 21.78125 31.34375 
L 8.015625 75.875 
L 16.3125 75.875 
z
" id="DejaVuSans-27e9"/>
     </defs>
     <g transform="translate(22.396875 161.1)rotate(-90)scale(0.2 -0.2)">
      <use transform="translate(0 0.125)" xlink:href="#DejaVuSans-27e8"/>
      <use transform="translate(39.013672 0.125)" xlink:href="#DejaVuSans-Oblique-72"/>
      <use transform="translate(80.126953 0.125)" xlink:href="#DejaVuSans-27e9"/>
     </g>
    </g>
   </g>
   <g id="line2d_29">
    <path clip-path="url(#pf168e130cb)" d="M 59.14375 272.645455 
L 64.342508 194.730213 
L 69.541266 139.586026 
L 74.740023 104.324642 
L 79.938781 81.869696 
L 85.137539 69.446807 
L 90.336297 57.31222 
L 95.535054 50.470334 
L 100.733812 47.603053 
L 105.93257 45.027181 
L 111.131328 43.290881 
L 116.330085 42.444889 
L 121.528843 43.260378 
L 126.727601 40.291684 
L 131.926359 40.655024 
L 137.125116 38.9862 
L 142.323874 40.79232 
L 147.522632 39.313831 
L 152.72139 41.374391 
L 157.920148 39.547811 
L 163.118905 37.863657 
L 168.317663 36.765587 
L 173.516421 38.481575 
L 178.715179 41.31919 
L 183.913936 39.017462 
L 189.112694 39.7536 
L 194.311452 39.909669 
L 199.51021 38.065057 
L 204.708967 38.98717 
L 209.907725 37.567247 
L 215.106483 38.632186 
L 220.305241 38.989277 
L 225.503998 37.125755 
L 230.702756 38.315632 
L 235.901514 39.83184 
L 241.100272 39.104385 
L 246.29903 39.738532 
L 251.497787 40.005824 
L 256.696545 42.284549 
L 261.895303 41.88974 
L 267.094061 38.826026 
L 272.292818 40.756083 
L 277.491576 43.247722 
L 282.690334 40.693005 
L 287.889092 37.606696 
L 293.087849 39.92331 
L 298.286607 43.177519 
L 303.485365 45.138525 
L 308.684123 43.720356 
L 313.88288 42.22349 
L 319.081638 40.490347 
L 324.280396 41.24289 
L 329.479154 41.080347 
L 334.677911 39.517946 
L 339.876669 39.286246 
L 345.075427 39.89515 
L 350.274185 39.906172 
L 355.472943 40.560857 
L 360.6717 39.016215 
L 365.870458 40.959347 
L 371.069216 38.204719 
L 376.267974 39.117577 
L 381.466731 38.493454 
L 386.665489 35.821893 
L 391.864247 38.327569 
L 397.063005 38.363817 
L 402.261762 37.376786 
L 407.46052 38.956227 
L 412.659278 37.29416 
L 417.858036 35.858493 
" style="fill:none;stroke:#1f77b4;stroke-linecap:square;stroke-width:3;"/>
   </g>
   <g id="line2d_30">
    <path clip-path="url(#pf168e130cb)" d="M 59.14375 272.645455 
L 64.342508 191.899616 
L 69.541266 137.775296 
L 74.740023 105.11625 
L 79.938781 79.569213 
L 85.137539 63.471296 
L 90.336297 55.436419 
L 95.535054 40.638904 
L 100.733812 37.964055 
L 105.93257 35.228749 
L 111.131328 39.387661 
L 116.330085 38.776763 
L 121.528843 42.364787 
L 126.727601 39.136927 
L 131.926359 36.949695 
L 137.125116 36.916675 
L 142.323874 35.663162 
L 147.522632 39.708906 
L 152.72139 38.461254 
L 157.920148 40.066371 
L 163.118905 41.08026 
L 168.317663 39.569465 
L 173.516421 40.300317 
L 178.715179 37.872811 
L 183.913936 41.215742 
L 189.112694 38.379262 
L 194.311452 37.121794 
L 199.51021 40.272581 
L 204.708967 39.793116 
L 209.907725 41.911947 
L 215.106483 42.648312 
L 220.305241 37.981896 
L 225.503998 37.124513 
L 230.702756 37.672038 
L 235.901514 37.95923 
L 241.100272 38.256175 
L 246.29903 41.827098 
L 251.497787 41.026583 
L 256.696545 41.510931 
L 261.895303 40.470862 
L 267.094061 39.53985 
L 272.292818 38.272183 
L 277.491576 37.531727 
L 282.690334 37.338341 
L 287.889092 37.372805 
L 293.087849 36.847706 
L 298.286607 35.875865 
L 303.485365 38.456391 
L 308.684123 40.323488 
L 313.88288 39.416974 
L 319.081638 39.683351 
L 324.280396 39.643975 
L 329.479154 38.769317 
L 334.677911 39.61454 
L 339.876669 40.497879 
L 345.075427 40.013878 
L 350.274185 40.051555 
L 355.472943 39.915605 
L 360.6717 41.870122 
L 365.870458 41.860339 
L 371.069216 42.230086 
L 376.267974 40.449247 
L 381.466731 41.585906 
L 386.665489 39.673347 
L 391.864247 38.96233 
L 397.063005 39.030882 
L 402.261762 39.215771 
L 407.46052 39.527863 
L 412.659278 39.345954 
L 417.858036 39.182855 
" style="fill:none;stroke:#ff7f0e;stroke-linecap:square;stroke-width:3;"/>
   </g>
   <g id="line2d_31">
    <path clip-path="url(#pf168e130cb)" d="M 59.14375 272.645455 
L 64.342508 193.069479 
L 69.541266 136.348273 
L 74.740023 103.917432 
L 79.938781 77.958372 
L 85.137539 62.340381 
L 90.336297 56.092775 
L 95.535054 44.443156 
L 100.733812 38.211712 
L 105.93257 35.832813 
L 111.131328 38.712801 
L 116.330085 37.46812 
L 121.528843 41.537584 
L 126.727601 41.551188 
L 131.926359 38.93544 
L 137.125116 37.506059 
L 142.323874 37.418147 
L 147.522632 39.391066 
L 152.72139 38.577914 
L 157.920148 41.825983 
L 163.118905 40.927653 
L 168.317663 39.79906 
L 173.516421 39.558579 
L 178.715179 36.795149 
L 183.913936 39.93501 
L 189.112694 37.296919 
L 194.311452 36.116706 
L 199.51021 40.091697 
L 204.708967 38.999651 
L 209.907725 42.617133 
L 215.106483 43.827352 
L 220.305241 38.688421 
L 225.503998 37.87457 
L 230.702756 39.091301 
L 235.901514 39.029711 
L 241.100272 39.473426 
L 246.29903 42.875872 
L 251.497787 41.54714 
L 256.696545 41.611037 
L 261.895303 40.754195 
L 267.094061 39.51569 
L 272.292818 38.037322 
L 277.491576 37.216777 
L 282.690334 36.995977 
L 287.889092 37.591386 
L 293.087849 36.845723 
L 298.286607 35.790307 
L 303.485365 38.199017 
L 308.684123 40.014666 
L 313.88288 39.365842 
L 319.081638 39.640464 
L 324.280396 39.717971 
L 329.479154 38.514139 
L 334.677911 39.099923 
L 339.876669 40.320946 
L 345.075427 39.942623 
L 350.274185 40.118788 
L 355.472943 39.74162 
L 360.6717 41.887098 
L 365.870458 41.896654 
L 371.069216 42.456626 
L 376.267974 40.490953 
L 381.466731 41.614915 
L 386.665489 39.736536 
L 391.864247 39.18799 
L 397.063005 39.256648 
L 402.261762 39.389779 
L 407.46052 39.738999 
L 412.659278 39.477022 
L 417.858036 39.369238 
" style="fill:none;stroke:#319000;stroke-linecap:square;stroke-width:3;"/>
   </g>
   <g id="patch_3">
    <path d="M 59.14375 285 
L 59.14375 13.2 
" style="fill:none;stroke:#000000;stroke-linecap:square;stroke-linejoin:miter;stroke-width:2;"/>
   </g>
   <g id="patch_4">
    <path d="M 423.056793 285 
L 423.056793 13.2 
" style="fill:none;"/>
   </g>
   <g id="patch_5">
    <path d="M 59.14375 285 
L 423.056793 285 
" style="fill:none;stroke:#000000;stroke-linecap:square;stroke-linejoin:miter;stroke-width:2;"/>
   </g>
   <g id="patch_6">
    <path d="M 59.14375 13.2 
L 423.056793 13.2 
" style="fill:none;"/>
   </g>
   <g id="legend_1">
    <g id="patch_7">
     <path d="M 69.64375 277.5 
L 279.683594 277.5 
Q 282.683594 277.5 282.683594 274.5 
L 282.683594 209.948438 
Q 282.683594 206.948438 279.683594 206.948438 
L 69.64375 206.948438 
Q 66.64375 206.948438 66.64375 209.948438 
L 66.64375 274.5 
Q 66.64375 277.5 69.64375 277.5 
z
" style="fill:#ffffff;opacity:0.8;stroke:#cccccc;stroke-linejoin:miter;"/>
    </g>
    <g id="line2d_32">
     <path d="M 72.64375 219.096094 
L 102.64375 219.096094 
" style="fill:none;stroke:#1f77b4;stroke-linecap:square;stroke-width:3;"/>
    </g>
    <g id="line2d_33"/>
    <g id="text_17">
     <!-- Single Lineage -->
     <defs>
      <path d="M 53.515625 70.515625 
L 53.515625 60.890625 
Q 47.90625 63.578125 42.921875 64.890625 
Q 37.9375 66.21875 33.296875 66.21875 
Q 25.25 66.21875 20.875 63.09375 
Q 16.5 59.96875 16.5 54.203125 
Q 16.5 49.359375 19.40625 46.890625 
Q 22.3125 44.4375 30.421875 42.921875 
L 36.375 41.703125 
Q 47.40625 39.59375 52.65625 34.296875 
Q 57.90625 29 57.90625 20.125 
Q 57.90625 9.515625 50.796875 4.046875 
Q 43.703125 -1.421875 29.984375 -1.421875 
Q 24.8125 -1.421875 18.96875 -0.25 
Q 13.140625 0.921875 6.890625 3.21875 
L 6.890625 13.375 
Q 12.890625 10.015625 18.65625 8.296875 
Q 24.421875 6.59375 29.984375 6.59375 
Q 38.421875 6.59375 43.015625 9.90625 
Q 47.609375 13.234375 47.609375 19.390625 
Q 47.609375 24.75 44.3125 27.78125 
Q 41.015625 30.8125 33.5 32.328125 
L 27.484375 33.5 
Q 16.453125 35.6875 11.515625 40.375 
Q 6.59375 45.0625 6.59375 53.421875 
Q 6.59375 63.09375 13.40625 68.65625 
Q 20.21875 74.21875 32.171875 74.21875 
Q 37.3125 74.21875 42.625 73.28125 
Q 47.953125 72.359375 53.515625 70.515625 
z
" id="DejaVuSans-53"/>
      <path d="M 9.421875 54.6875 
L 18.40625 54.6875 
L 18.40625 0 
L 9.421875 0 
z
M 9.421875 75.984375 
L 18.40625 75.984375 
L 18.40625 64.59375 
L 9.421875 64.59375 
z
" id="DejaVuSans-69"/>
      <path d="M 54.890625 33.015625 
L 54.890625 0 
L 45.90625 0 
L 45.90625 32.71875 
Q 45.90625 40.484375 42.875 44.328125 
Q 39.84375 48.1875 33.796875 48.1875 
Q 26.515625 48.1875 22.3125 43.546875 
Q 18.109375 38.921875 18.109375 30.90625 
L 18.109375 0 
L 9.078125 0 
L 9.078125 54.6875 
L 18.109375 54.6875 
L 18.109375 46.1875 
Q 21.34375 51.125 25.703125 53.5625 
Q 30.078125 56 35.796875 56 
Q 45.21875 56 50.046875 50.171875 
Q 54.890625 44.34375 54.890625 33.015625 
z
" id="DejaVuSans-6e"/>
      <path d="M 45.40625 27.984375 
Q 45.40625 37.75 41.375 43.109375 
Q 37.359375 48.484375 30.078125 48.484375 
Q 22.859375 48.484375 18.828125 43.109375 
Q 14.796875 37.75 14.796875 27.984375 
Q 14.796875 18.265625 18.828125 12.890625 
Q 22.859375 7.515625 30.078125 7.515625 
Q 37.359375 7.515625 41.375 12.890625 
Q 45.40625 18.265625 45.40625 27.984375 
z
M 54.390625 6.78125 
Q 54.390625 -7.171875 48.1875 -13.984375 
Q 42 -20.796875 29.203125 -20.796875 
Q 24.46875 -20.796875 20.265625 -20.09375 
Q 16.0625 -19.390625 12.109375 -17.921875 
L 12.109375 -9.1875 
Q 16.0625 -11.328125 19.921875 -12.34375 
Q 23.78125 -13.375 27.78125 -13.375 
Q 36.625 -13.375 41.015625 -8.765625 
Q 45.40625 -4.15625 45.40625 5.171875 
L 45.40625 9.625 
Q 42.625 4.78125 38.28125 2.390625 
Q 33.9375 0 27.875 0 
Q 17.828125 0 11.671875 7.65625 
Q 5.515625 15.328125 5.515625 27.984375 
Q 5.515625 40.671875 11.671875 48.328125 
Q 17.828125 56 27.875 56 
Q 33.9375 56 38.28125 53.609375 
Q 42.625 51.21875 45.40625 46.390625 
L 45.40625 54.6875 
L 54.390625 54.6875 
z
" id="DejaVuSans-67"/>
      <path d="M 9.421875 75.984375 
L 18.40625 75.984375 
L 18.40625 0 
L 9.421875 0 
z
" id="DejaVuSans-6c"/>
      <path d="M 56.203125 29.59375 
L 56.203125 25.203125 
L 14.890625 25.203125 
Q 15.484375 15.921875 20.484375 11.0625 
Q 25.484375 6.203125 34.421875 6.203125 
Q 39.59375 6.203125 44.453125 7.46875 
Q 49.3125 8.734375 54.109375 11.28125 
L 54.109375 2.78125 
Q 49.265625 0.734375 44.1875 -0.34375 
Q 39.109375 -1.421875 33.890625 -1.421875 
Q 20.796875 -1.421875 13.15625 6.1875 
Q 5.515625 13.8125 5.515625 26.8125 
Q 5.515625 40.234375 12.765625 48.109375 
Q 20.015625 56 32.328125 56 
Q 43.359375 56 49.78125 48.890625 
Q 56.203125 41.796875 56.203125 29.59375 
z
M 47.21875 32.234375 
Q 47.125 39.59375 43.09375 43.984375 
Q 39.0625 48.390625 32.421875 48.390625 
Q 24.90625 48.390625 20.390625 44.140625 
Q 15.875 39.890625 15.1875 32.171875 
z
" id="DejaVuSans-65"/>
      <path id="DejaVuSans-20"/>
      <path d="M 9.8125 72.90625 
L 19.671875 72.90625 
L 19.671875 8.296875 
L 55.171875 8.296875 
L 55.171875 0 
L 9.8125 0 
z
" id="DejaVuSans-4c"/>
      <path d="M 34.28125 27.484375 
Q 23.390625 27.484375 19.1875 25 
Q 14.984375 22.515625 14.984375 16.5 
Q 14.984375 11.71875 18.140625 8.90625 
Q 21.296875 6.109375 26.703125 6.109375 
Q 34.1875 6.109375 38.703125 11.40625 
Q 43.21875 16.703125 43.21875 25.484375 
L 43.21875 27.484375 
z
M 52.203125 31.203125 
L 52.203125 0 
L 43.21875 0 
L 43.21875 8.296875 
Q 40.140625 3.328125 35.546875 0.953125 
Q 30.953125 -1.421875 24.3125 -1.421875 
Q 15.921875 -1.421875 10.953125 3.296875 
Q 6 8.015625 6 15.921875 
Q 6 25.140625 12.171875 29.828125 
Q 18.359375 34.515625 30.609375 34.515625 
L 43.21875 34.515625 
L 43.21875 35.40625 
Q 43.21875 41.609375 39.140625 45 
Q 35.0625 48.390625 27.6875 48.390625 
Q 23 48.390625 18.546875 47.265625 
Q 14.109375 46.140625 10.015625 43.890625 
L 10.015625 52.203125 
Q 14.9375 54.109375 19.578125 55.046875 
Q 24.21875 56 28.609375 56 
Q 40.484375 56 46.34375 49.84375 
Q 52.203125 43.703125 52.203125 31.203125 
z
" id="DejaVuSans-61"/>
     </defs>
     <g transform="translate(114.64375 224.346094)scale(0.15 -0.15)">
      <use xlink:href="#DejaVuSans-53"/>
      <use x="63.476562" xlink:href="#DejaVuSans-69"/>
      <use x="91.259766" xlink:href="#DejaVuSans-6e"/>
      <use x="154.638672" xlink:href="#DejaVuSans-67"/>
      <use x="218.115234" xlink:href="#DejaVuSans-6c"/>
      <use x="245.898438" xlink:href="#DejaVuSans-65"/>
      <use x="307.421875" xlink:href="#DejaVuSans-20"/>
      <use x="339.208984" xlink:href="#DejaVuSans-4c"/>
      <use x="394.921875" xlink:href="#DejaVuSans-69"/>
      <use x="422.705078" xlink:href="#DejaVuSans-6e"/>
      <use x="486.083984" xlink:href="#DejaVuSans-65"/>
      <use x="547.607422" xlink:href="#DejaVuSans-61"/>
      <use x="608.886719" xlink:href="#DejaVuSans-67"/>
      <use x="672.363281" xlink:href="#DejaVuSans-65"/>
     </g>
    </g>
    <g id="line2d_34">
     <path d="M 72.64375 241.113281 
L 102.64375 241.113281 
" style="fill:none;stroke:#ff7f0e;stroke-linecap:square;stroke-width:3;"/>
    </g>
    <g id="line2d_35"/>
    <g id="text_18">
     <!-- Population Snapshots -->
     <defs>
      <path d="M 19.671875 64.796875 
L 19.671875 37.40625 
L 32.078125 37.40625 
Q 38.96875 37.40625 42.71875 40.96875 
Q 46.484375 44.53125 46.484375 51.125 
Q 46.484375 57.671875 42.71875 61.234375 
Q 38.96875 64.796875 32.078125 64.796875 
z
M 9.8125 72.90625 
L 32.078125 72.90625 
Q 44.34375 72.90625 50.609375 67.359375 
Q 56.890625 61.8125 56.890625 51.125 
Q 56.890625 40.328125 50.609375 34.8125 
Q 44.34375 29.296875 32.078125 29.296875 
L 19.671875 29.296875 
L 19.671875 0 
L 9.8125 0 
z
" id="DejaVuSans-50"/>
      <path d="M 30.609375 48.390625 
Q 23.390625 48.390625 19.1875 42.75 
Q 14.984375 37.109375 14.984375 27.296875 
Q 14.984375 17.484375 19.15625 11.84375 
Q 23.34375 6.203125 30.609375 6.203125 
Q 37.796875 6.203125 41.984375 11.859375 
Q 46.1875 17.53125 46.1875 27.296875 
Q 46.1875 37.015625 41.984375 42.703125 
Q 37.796875 48.390625 30.609375 48.390625 
z
M 30.609375 56 
Q 42.328125 56 49.015625 48.375 
Q 55.71875 40.765625 55.71875 27.296875 
Q 55.71875 13.875 49.015625 6.21875 
Q 42.328125 -1.421875 30.609375 -1.421875 
Q 18.84375 -1.421875 12.171875 6.21875 
Q 5.515625 13.875 5.515625 27.296875 
Q 5.515625 40.765625 12.171875 48.375 
Q 18.84375 56 30.609375 56 
z
" id="DejaVuSans-6f"/>
      <path d="M 18.109375 8.203125 
L 18.109375 -20.796875 
L 9.078125 -20.796875 
L 9.078125 54.6875 
L 18.109375 54.6875 
L 18.109375 46.390625 
Q 20.953125 51.265625 25.265625 53.625 
Q 29.59375 56 35.59375 56 
Q 45.5625 56 51.78125 48.09375 
Q 58.015625 40.1875 58.015625 27.296875 
Q 58.015625 14.40625 51.78125 6.484375 
Q 45.5625 -1.421875 35.59375 -1.421875 
Q 29.59375 -1.421875 25.265625 0.953125 
Q 20.953125 3.328125 18.109375 8.203125 
z
M 48.6875 27.296875 
Q 48.6875 37.203125 44.609375 42.84375 
Q 40.53125 48.484375 33.40625 48.484375 
Q 26.265625 48.484375 22.1875 42.84375 
Q 18.109375 37.203125 18.109375 27.296875 
Q 18.109375 17.390625 22.1875 11.75 
Q 26.265625 6.109375 33.40625 6.109375 
Q 40.53125 6.109375 44.609375 11.75 
Q 48.6875 17.390625 48.6875 27.296875 
z
" id="DejaVuSans-70"/>
      <path d="M 8.5 21.578125 
L 8.5 54.6875 
L 17.484375 54.6875 
L 17.484375 21.921875 
Q 17.484375 14.15625 20.5 10.265625 
Q 23.53125 6.390625 29.59375 6.390625 
Q 36.859375 6.390625 41.078125 11.03125 
Q 45.3125 15.671875 45.3125 23.6875 
L 45.3125 54.6875 
L 54.296875 54.6875 
L 54.296875 0 
L 45.3125 0 
L 45.3125 8.40625 
Q 42.046875 3.421875 37.71875 1 
Q 33.40625 -1.421875 27.6875 -1.421875 
Q 18.265625 -1.421875 13.375 4.4375 
Q 8.5 10.296875 8.5 21.578125 
z
M 31.109375 56 
z
" id="DejaVuSans-75"/>
      <path d="M 18.3125 70.21875 
L 18.3125 54.6875 
L 36.8125 54.6875 
L 36.8125 47.703125 
L 18.3125 47.703125 
L 18.3125 18.015625 
Q 18.3125 11.328125 20.140625 9.421875 
Q 21.96875 7.515625 27.59375 7.515625 
L 36.8125 7.515625 
L 36.8125 0 
L 27.59375 0 
Q 17.1875 0 13.234375 3.875 
Q 9.28125 7.765625 9.28125 18.015625 
L 9.28125 47.703125 
L 2.6875 47.703125 
L 2.6875 54.6875 
L 9.28125 54.6875 
L 9.28125 70.21875 
z
" id="DejaVuSans-74"/>
      <path d="M 44.28125 53.078125 
L 44.28125 44.578125 
Q 40.484375 46.53125 36.375 47.5 
Q 32.28125 48.484375 27.875 48.484375 
Q 21.1875 48.484375 17.84375 46.4375 
Q 14.5 44.390625 14.5 40.28125 
Q 14.5 37.15625 16.890625 35.375 
Q 19.28125 33.59375 26.515625 31.984375 
L 29.59375 31.296875 
Q 39.15625 29.25 43.1875 25.515625 
Q 47.21875 21.78125 47.21875 15.09375 
Q 47.21875 7.46875 41.1875 3.015625 
Q 35.15625 -1.421875 24.609375 -1.421875 
Q 20.21875 -1.421875 15.453125 -0.5625 
Q 10.6875 0.296875 5.421875 2 
L 5.421875 11.28125 
Q 10.40625 8.6875 15.234375 7.390625 
Q 20.0625 6.109375 24.8125 6.109375 
Q 31.15625 6.109375 34.5625 8.28125 
Q 37.984375 10.453125 37.984375 14.40625 
Q 37.984375 18.0625 35.515625 20.015625 
Q 33.0625 21.96875 24.703125 23.78125 
L 21.578125 24.515625 
Q 13.234375 26.265625 9.515625 29.90625 
Q 5.8125 33.546875 5.8125 39.890625 
Q 5.8125 47.609375 11.28125 51.796875 
Q 16.75 56 26.8125 56 
Q 31.78125 56 36.171875 55.265625 
Q 40.578125 54.546875 44.28125 53.078125 
z
" id="DejaVuSans-73"/>
      <path d="M 54.890625 33.015625 
L 54.890625 0 
L 45.90625 0 
L 45.90625 32.71875 
Q 45.90625 40.484375 42.875 44.328125 
Q 39.84375 48.1875 33.796875 48.1875 
Q 26.515625 48.1875 22.3125 43.546875 
Q 18.109375 38.921875 18.109375 30.90625 
L 18.109375 0 
L 9.078125 0 
L 9.078125 75.984375 
L 18.109375 75.984375 
L 18.109375 46.1875 
Q 21.34375 51.125 25.703125 53.5625 
Q 30.078125 56 35.796875 56 
Q 45.21875 56 50.046875 50.171875 
Q 54.890625 44.34375 54.890625 33.015625 
z
" id="DejaVuSans-68"/>
     </defs>
     <g transform="translate(114.64375 246.363281)scale(0.15 -0.15)">
      <use xlink:href="#DejaVuSans-50"/>
      <use x="60.255859" xlink:href="#DejaVuSans-6f"/>
      <use x="121.4375" xlink:href="#DejaVuSans-70"/>
      <use x="184.914062" xlink:href="#DejaVuSans-75"/>
      <use x="248.292969" xlink:href="#DejaVuSans-6c"/>
      <use x="276.076172" xlink:href="#DejaVuSans-61"/>
      <use x="337.355469" xlink:href="#DejaVuSans-74"/>
      <use x="376.564453" xlink:href="#DejaVuSans-69"/>
      <use x="404.347656" xlink:href="#DejaVuSans-6f"/>
      <use x="465.529297" xlink:href="#DejaVuSans-6e"/>
      <use x="528.908203" xlink:href="#DejaVuSans-20"/>
      <use x="560.695312" xlink:href="#DejaVuSans-53"/>
      <use x="624.171875" xlink:href="#DejaVuSans-6e"/>
      <use x="687.550781" xlink:href="#DejaVuSans-61"/>
      <use x="748.830078" xlink:href="#DejaVuSans-70"/>
      <use x="812.306641" xlink:href="#DejaVuSans-73"/>
      <use x="864.40625" xlink:href="#DejaVuSans-68"/>
      <use x="927.785156" xlink:href="#DejaVuSans-6f"/>
      <use x="988.966797" xlink:href="#DejaVuSans-74"/>
      <use x="1028.175781" xlink:href="#DejaVuSans-73"/>
     </g>
    </g>
    <g id="line2d_36">
     <path d="M 72.64375 263.130469 
L 102.64375 263.130469 
" style="fill:none;stroke:#319000;stroke-linecap:square;stroke-width:3;"/>
    </g>
    <g id="line2d_37"/>
    <g id="text_19">
     <!-- Lineage Tracking -->
     <defs>
      <path d="M -0.296875 72.90625 
L 61.375 72.90625 
L 61.375 64.59375 
L 35.5 64.59375 
L 35.5 0 
L 25.59375 0 
L 25.59375 64.59375 
L -0.296875 64.59375 
z
" id="DejaVuSans-54"/>
      <path d="M 41.109375 46.296875 
Q 39.59375 47.171875 37.8125 47.578125 
Q 36.03125 48 33.890625 48 
Q 26.265625 48 22.1875 43.046875 
Q 18.109375 38.09375 18.109375 28.8125 
L 18.109375 0 
L 9.078125 0 
L 9.078125 54.6875 
L 18.109375 54.6875 
L 18.109375 46.1875 
Q 20.953125 51.171875 25.484375 53.578125 
Q 30.03125 56 36.53125 56 
Q 37.453125 56 38.578125 55.875 
Q 39.703125 55.765625 41.0625 55.515625 
z
" id="DejaVuSans-72"/>
      <path d="M 48.78125 52.59375 
L 48.78125 44.1875 
Q 44.96875 46.296875 41.140625 47.34375 
Q 37.3125 48.390625 33.40625 48.390625 
Q 24.65625 48.390625 19.8125 42.84375 
Q 14.984375 37.3125 14.984375 27.296875 
Q 14.984375 17.28125 19.8125 11.734375 
Q 24.65625 6.203125 33.40625 6.203125 
Q 37.3125 6.203125 41.140625 7.25 
Q 44.96875 8.296875 48.78125 10.40625 
L 48.78125 2.09375 
Q 45.015625 0.34375 40.984375 -0.53125 
Q 36.96875 -1.421875 32.421875 -1.421875 
Q 20.0625 -1.421875 12.78125 6.34375 
Q 5.515625 14.109375 5.515625 27.296875 
Q 5.515625 40.671875 12.859375 48.328125 
Q 20.21875 56 33.015625 56 
Q 37.15625 56 41.109375 55.140625 
Q 45.0625 54.296875 48.78125 52.59375 
z
" id="DejaVuSans-63"/>
      <path d="M 9.078125 75.984375 
L 18.109375 75.984375 
L 18.109375 31.109375 
L 44.921875 54.6875 
L 56.390625 54.6875 
L 27.390625 29.109375 
L 57.625 0 
L 45.90625 0 
L 18.109375 26.703125 
L 18.109375 0 
L 9.078125 0 
z
" id="DejaVuSans-6b"/>
     </defs>
     <g transform="translate(114.64375 268.380469)scale(0.15 -0.15)">
      <use xlink:href="#DejaVuSans-4c"/>
      <use x="55.712891" xlink:href="#DejaVuSans-69"/>
      <use x="83.496094" xlink:href="#DejaVuSans-6e"/>
      <use x="146.875" xlink:href="#DejaVuSans-65"/>
      <use x="208.398438" xlink:href="#DejaVuSans-61"/>
      <use x="269.677734" xlink:href="#DejaVuSans-67"/>
      <use x="333.154297" xlink:href="#DejaVuSans-65"/>
      <use x="394.677734" xlink:href="#DejaVuSans-20"/>
      <use x="426.464844" xlink:href="#DejaVuSans-54"/>
      <use x="487.330078" xlink:href="#DejaVuSans-72"/>
      <use x="528.443359" xlink:href="#DejaVuSans-61"/>
      <use x="589.722656" xlink:href="#DejaVuSans-63"/>
      <use x="644.703125" xlink:href="#DejaVuSans-6b"/>
      <use x="702.613281" xlink:href="#DejaVuSans-69"/>
      <use x="730.396484" xlink:href="#DejaVuSans-6e"/>
      <use x="793.775391" xlink:href="#DejaVuSans-67"/>
     </g>
    </g>
   </g>
  </g>
  <g id="axes_2">
   <g id="patch_8">
    <path d="M 532.230707 285 
L 896.14375 285 
L 896.14375 13.2 
L 532.230707 13.2 
z
" style="fill:#ffffff;"/>
   </g>
   <g id="PolyCollection_4">
    <defs>
     <path d="M 532.230707 -66.927983 
L 532.230707 -66.927983 
L 537.429464 -215.169631 
L 542.628222 -256.533076 
L 547.82698 -257.398888 
L 553.025738 -256.919478 
L 558.224495 -267.875615 
L 563.423253 -240.754928 
L 568.622011 -260.056699 
L 573.820769 -265.893241 
L 579.019526 -263.044025 
L 584.218284 -256.506331 
L 589.417042 -255.299549 
L 594.6158 -261.066642 
L 599.814557 -265.284186 
L 605.013315 -260.49457 
L 610.212073 -258.876637 
L 615.410831 -264.217533 
L 620.609589 -277.3201 
L 625.808346 -273.689458 
L 631.007104 -261.117452 
L 636.205862 -266.430952 
L 641.40462 -264.00781 
L 646.603377 -273.96419 
L 651.802135 -271.909597 
L 657.000893 -271.394177 
L 662.199651 -272.377421 
L 667.398408 -270.233416 
L 672.597166 -275.946907 
L 677.795924 -277.813066 
L 682.994682 -274.94903 
L 688.193439 -273.218809 
L 693.392197 -280.320393 
L 698.590955 -290.299979 
L 703.789713 -284.311724 
L 708.98847 -277.428057 
L 714.187228 -279.253784 
L 719.385986 -288.669497 
L 724.584744 -287.526898 
L 729.783502 -280.587544 
L 734.982259 -281.067633 
L 740.181017 -283.978687 
L 745.379775 -283.091897 
L 750.578533 -286.602226 
L 755.77729 -283.819137 
L 760.976048 -291.782692 
L 766.174806 -289.634606 
L 771.373564 -290.868421 
L 776.572321 -293.027719 
L 781.771079 -288.237103 
L 786.969837 -289.543947 
L 792.168595 -286.341093 
L 797.367352 -289.997824 
L 802.56611 -289.099296 
L 807.764868 -288.374247 
L 812.963626 -287.687377 
L 818.162384 -288.288417 
L 823.361141 -288.323275 
L 828.559899 -289.24595 
L 833.758657 -288.568945 
L 838.957415 -287.922821 
L 844.156172 -288.303859 
L 849.35493 -287.696275 
L 854.553688 -289.974567 
L 859.752446 -290.019905 
L 864.951203 -291.352584 
L 870.149961 -291.780223 
L 875.348719 -292.730662 
L 880.547477 -294.087308 
L 885.746234 -293.053017 
L 890.944992 -290.394854 
L 890.944992 -296.71668 
L 890.944992 -296.71668 
L 885.746234 -300.310656 
L 880.547477 -301.131129 
L 875.348719 -299.261351 
L 870.149961 -298.97661 
L 864.951203 -298.534981 
L 859.752446 -297.735193 
L 854.553688 -298.154261 
L 849.35493 -295.45208 
L 844.156172 -296.039752 
L 838.957415 -295.614144 
L 833.758657 -297.380189 
L 828.559899 -298.470163 
L 823.361141 -297.653728 
L 818.162384 -298.083068 
L 812.963626 -297.814532 
L 807.764868 -299.229508 
L 802.56611 -301.645992 
L 797.367352 -302.654309 
L 792.168595 -298.450644 
L 786.969837 -300.975043 
L 781.771079 -301.558395 
L 776.572321 -306.317635 
L 771.373564 -304.16609 
L 766.174806 -303.051283 
L 760.976048 -307.318301 
L 755.77729 -297.06482 
L 750.578533 -302.822767 
L 745.379775 -298.583174 
L 740.181017 -299.701284 
L 734.982259 -295.817828 
L 729.783502 -296.564946 
L 724.584744 -304.568285 
L 719.385986 -305.96241 
L 714.187228 -297.776452 
L 708.98847 -295.014966 
L 703.789713 -306.841036 
L 698.590955 -312.365389 
L 693.392197 -299.811011 
L 688.193439 -293.343674 
L 682.994682 -297.616459 
L 677.795924 -303.203648 
L 672.597166 -300.730125 
L 667.398408 -293.436554 
L 662.199651 -294.88041 
L 657.000893 -293.487259 
L 651.802135 -299.00291 
L 646.603377 -301.912722 
L 641.40462 -289.808388 
L 636.205862 -297.044964 
L 631.007104 -287.469003 
L 625.808346 -307.731598 
L 620.609589 -309.099284 
L 615.410831 -298.417777 
L 610.212073 -292.955245 
L 605.013315 -295.960102 
L 599.814557 -304.861298 
L 594.6158 -296.212708 
L 589.417042 -291.291186 
L 584.218284 -292.685824 
L 579.019526 -308.387462 
L 573.820769 -312.42656 
L 568.622011 -314.018892 
L 563.423253 -289.603183 
L 558.224495 -311.17538 
L 553.025738 -299.236003 
L 547.82698 -312.020788 
L 542.628222 -302.64491 
L 537.429464 -257.371327 
L 532.230707 -66.927983 
z
" id="mc8447aca7f"/>
    </defs>
    <g clip-path="url(#p0269299e73)">
     <use style="fill:#ffa035;" x="0" xlink:href="#mc8447aca7f" y="339.573438"/>
    </g>
   </g>
   <g id="PolyCollection_5">
    <defs>
     <path d="M 532.230707 -66.927983 
L 532.230707 -66.927983 
L 537.429464 -215.066637 
L 542.628222 -227.540334 
L 547.82698 -228.187966 
L 553.025738 -222.477804 
L 558.224495 -217.553269 
L 563.423253 -217.302692 
L 568.622011 -214.748195 
L 573.820769 -216.227605 
L 579.019526 -216.909333 
L 584.218284 -214.227582 
L 589.417042 -212.88633 
L 594.6158 -213.899704 
L 599.814557 -211.372887 
L 605.013315 -209.485723 
L 610.212073 -207.882848 
L 615.410831 -206.716892 
L 620.609589 -210.634844 
L 625.808346 -212.651917 
L 631.007104 -216.965341 
L 636.205862 -214.659 
L 641.40462 -207.587612 
L 646.603377 -205.612502 
L 651.802135 -209.721727 
L 657.000893 -215.855817 
L 662.199651 -216.954794 
L 667.398408 -214.333433 
L 672.597166 -213.128646 
L 677.795924 -214.834297 
L 682.994682 -215.78366 
L 688.193439 -213.770884 
L 693.392197 -210.890082 
L 698.590955 -208.873146 
L 703.789713 -215.166804 
L 708.98847 -207.917151 
L 714.187228 -209.17649 
L 719.385986 -212.031544 
L 724.584744 -209.402984 
L 729.783502 -211.579167 
L 734.982259 -212.35852 
L 740.181017 -206.58725 
L 745.379775 -209.046398 
L 750.578533 -216.595706 
L 755.77729 -217.304715 
L 760.976048 -215.43251 
L 766.174806 -207.745351 
L 771.373564 -208.64061 
L 776.572321 -211.037231 
L 781.771079 -206.337156 
L 786.969837 -207.289012 
L 792.168595 -211.152871 
L 797.367352 -211.718512 
L 802.56611 -216.119654 
L 807.764868 -211.850909 
L 812.963626 -206.090416 
L 818.162384 -211.929023 
L 823.361141 -211.09072 
L 828.559899 -208.572744 
L 833.758657 -212.235325 
L 838.957415 -209.654432 
L 844.156172 -211.121795 
L 849.35493 -211.902594 
L 854.553688 -211.464122 
L 859.752446 -208.137738 
L 864.951203 -209.376948 
L 870.149961 -211.479521 
L 875.348719 -213.526413 
L 880.547477 -214.387026 
L 885.746234 -211.584107 
L 890.944992 -212.489789 
L 890.944992 -226.061218 
L 890.944992 -226.061218 
L 885.746234 -224.208082 
L 880.547477 -228.230923 
L 875.348719 -227.069164 
L 870.149961 -223.727834 
L 864.951203 -222.052693 
L 859.752446 -219.706942 
L 854.553688 -222.476904 
L 849.35493 -224.219151 
L 844.156172 -223.09684 
L 838.957415 -221.546428 
L 833.758657 -224.611422 
L 828.559899 -220.040823 
L 823.361141 -221.717839 
L 818.162384 -223.886438 
L 812.963626 -217.936938 
L 807.764868 -224.573643 
L 802.56611 -228.956523 
L 797.367352 -223.156842 
L 792.168595 -222.580322 
L 786.969837 -218.865205 
L 781.771079 -217.114142 
L 776.572321 -223.491767 
L 771.373564 -219.876334 
L 766.174806 -219.147218 
L 760.976048 -227.424225 
L 755.77729 -230.447812 
L 750.578533 -229.187753 
L 745.379775 -220.788891 
L 740.181017 -219.400682 
L 734.982259 -224.329758 
L 729.783502 -223.206801 
L 724.584744 -220.101224 
L 719.385986 -224.407438 
L 714.187228 -220.422955 
L 708.98847 -218.695788 
L 703.789713 -226.937023 
L 698.590955 -221.543887 
L 693.392197 -222.881739 
L 688.193439 -225.857293 
L 682.994682 -227.748865 
L 677.795924 -226.711144 
L 672.597166 -224.462522 
L 667.398408 -227.026842 
L 662.199651 -228.384874 
L 657.000893 -227.56593 
L 651.802135 -221.056356 
L 646.603377 -217.085676 
L 641.40462 -218.958995 
L 636.205862 -230.446971 
L 631.007104 -229.566708 
L 625.808346 -223.557522 
L 620.609589 -221.474721 
L 615.410831 -217.217089 
L 610.212073 -218.906226 
L 605.013315 -221.116051 
L 599.814557 -223.35273 
L 594.6158 -226.540152 
L 589.417042 -224.816301 
L 584.218284 -226.341859 
L 579.019526 -228.723735 
L 573.820769 -228.320441 
L 568.622011 -225.627529 
L 563.423253 -228.894328 
L 558.224495 -228.15874 
L 553.025738 -233.413342 
L 547.82698 -240.167 
L 542.628222 -239.306377 
L 537.429464 -226.198619 
L 532.230707 -66.927983 
z
" id="m2007752653"/>
    </defs>
    <g clip-path="url(#p0269299e73)">
     <use style="fill:#4db8ff;" x="0" xlink:href="#m2007752653" y="339.573438"/>
    </g>
   </g>
   <g id="PolyCollection_6">
    <defs>
     <path d="M 532.230707 -66.927983 
L 532.230707 -66.927983 
L 537.429464 -75.79127 
L 542.628222 -85.478405 
L 547.82698 -96.102328 
L 553.025738 -103.824959 
L 558.224495 -114.35551 
L 563.423253 -115.167376 
L 568.622011 -124.730925 
L 573.820769 -136.016429 
L 579.019526 -136.67776 
L 584.218284 -141.319964 
L 589.417042 -150.371941 
L 594.6158 -155.730778 
L 599.814557 -165.460356 
L 605.013315 -169.169611 
L 610.212073 -168.391365 
L 615.410831 -180.373419 
L 620.609589 -192.314474 
L 625.808346 -189.738757 
L 631.007104 -188.343148 
L 636.205862 -196.765887 
L 641.40462 -200.218777 
L 646.603377 -207.478591 
L 651.802135 -211.598706 
L 657.000893 -213.595977 
L 662.199651 -215.99341 
L 667.398408 -220.179425 
L 672.597166 -225.858123 
L 677.795924 -227.083724 
L 682.994682 -227.928777 
L 688.193439 -232.712085 
L 693.392197 -235.598613 
L 698.590955 -246.786835 
L 703.789713 -245.766553 
L 708.98847 -241.829839 
L 714.187228 -244.85963 
L 719.385986 -254.082997 
L 724.584744 -258.731869 
L 729.783502 -255.433686 
L 734.982259 -256.075818 
L 740.181017 -260.198344 
L 745.379775 -259.242152 
L 750.578533 -262.631588 
L 755.77729 -262.664189 
L 760.976048 -268.767895 
L 766.174806 -270.491025 
L 771.373564 -272.547876 
L 776.572321 -274.68827 
L 781.771079 -271.800299 
L 786.969837 -273.831743 
L 792.168595 -270.886615 
L 797.367352 -276.417301 
L 802.56611 -275.277782 
L 807.764868 -276.433386 
L 812.963626 -276.92065 
L 818.162384 -279.108572 
L 823.361141 -278.309275 
L 828.559899 -280.457913 
L 833.758657 -280.937184 
L 838.957415 -280.787539 
L 844.156172 -281.219071 
L 849.35493 -281.006027 
L 854.553688 -283.697016 
L 859.752446 -284.804339 
L 864.951203 -286.506101 
L 870.149961 -286.54365 
L 875.348719 -287.196727 
L 880.547477 -289.141427 
L 885.746234 -288.47261 
L 890.944992 -285.653705 
L 890.944992 -292.492868 
L 890.944992 -292.492868 
L 885.746234 -295.339266 
L 880.547477 -295.97704 
L 875.348719 -294.539727 
L 870.149961 -294.303436 
L 864.951203 -293.791043 
L 859.752446 -293.103795 
L 854.553688 -291.877539 
L 849.35493 -289.22444 
L 844.156172 -289.92569 
L 838.957415 -288.856341 
L 833.758657 -290.004141 
L 828.559899 -289.850974 
L 823.361141 -287.439063 
L 818.162384 -289.134371 
L 812.963626 -287.695042 
L 807.764868 -287.999375 
L 802.56611 -287.791249 
L 797.367352 -289.343233 
L 792.168595 -283.066876 
L 786.969837 -286.312744 
L 781.771079 -285.514748 
L 776.572321 -288.888415 
L 771.373564 -286.346733 
L 766.174806 -284.862313 
L 760.976048 -284.890649 
L 755.77729 -277.504496 
L 750.578533 -278.637253 
L 745.379775 -274.236169 
L 740.181017 -275.532218 
L 734.982259 -271.162676 
L 729.783502 -270.900155 
L 724.584744 -275.582112 
L 719.385986 -271.698471 
L 714.187228 -262.578524 
L 708.98847 -258.092492 
L 703.789713 -263.842055 
L 698.590955 -266.222096 
L 693.392197 -253.719915 
L 688.193439 -250.753899 
L 682.994682 -248.242727 
L 677.795924 -247.354917 
L 672.597166 -245.880981 
L 667.398408 -238.685709 
L 662.199651 -236.765764 
L 657.000893 -232.794518 
L 651.802135 -233.60932 
L 646.603377 -230.420112 
L 641.40462 -219.395672 
L 636.205862 -218.740529 
L 631.007104 -209.129312 
L 625.808346 -215.098508 
L 620.609589 -217.084543 
L 615.410831 -205.497714 
L 610.212073 -189.389943 
L 605.013315 -192.459889 
L 599.814557 -189.193273 
L 594.6158 -178.326082 
L 589.417042 -172.381154 
L 584.218284 -160.515283 
L 579.019526 -160.521337 
L 573.820769 -161.198917 
L 568.622011 -144.727402 
L 563.423253 -133.404233 
L 558.224495 -137.650108 
L 553.025738 -124.16354 
L 547.82698 -116.032231 
L 542.628222 -103.50386 
L 537.429464 -95.002881 
L 532.230707 -66.927983 
z
" id="m3d55026f6a"/>
    </defs>
    <g clip-path="url(#p0269299e73)">
     <use style="fill:#00c917;" x="0" xlink:href="#m3d55026f6a" y="339.573438"/>
    </g>
   </g>
   <g id="matplotlib.axis_3">
    <g id="xtick_9">
     <g id="line2d_38">
      <path clip-path="url(#p0269299e73)" d="M 532.230707 285 
L 532.230707 13.2 
" style="fill:none;stroke:#b0b0b0;stroke-linecap:square;stroke-width:0.8;"/>
     </g>
     <g id="line2d_39">
      <g>
       <use x="532.230707" xlink:href="#m75ad7447cb" y="285"/>
      </g>
     </g>
     <g id="text_20">
      <!-- 0 -->
      <g transform="translate(527.458832 305.897656)scale(0.15 -0.15)">
       <use xlink:href="#DejaVuSans-30"/>
      </g>
     </g>
    </g>
    <g id="xtick_10">
     <g id="line2d_40">
      <path clip-path="url(#p0269299e73)" d="M 584.218284 285 
L 584.218284 13.2 
" style="fill:none;stroke:#b0b0b0;stroke-linecap:square;stroke-width:0.8;"/>
     </g>
     <g id="line2d_41">
      <g>
       <use x="584.218284" xlink:href="#m75ad7447cb" y="285"/>
      </g>
     </g>
     <g id="text_21">
      <!-- 1 -->
      <g transform="translate(579.446409 305.897656)scale(0.15 -0.15)">
       <use xlink:href="#DejaVuSans-31"/>
      </g>
     </g>
    </g>
    <g id="xtick_11">
     <g id="line2d_42">
      <path clip-path="url(#p0269299e73)" d="M 636.205862 285 
L 636.205862 13.2 
" style="fill:none;stroke:#b0b0b0;stroke-linecap:square;stroke-width:0.8;"/>
     </g>
     <g id="line2d_43">
      <g>
       <use x="636.205862" xlink:href="#m75ad7447cb" y="285"/>
      </g>
     </g>
     <g id="text_22">
      <!-- 2 -->
      <g transform="translate(631.433987 305.897656)scale(0.15 -0.15)">
       <use xlink:href="#DejaVuSans-32"/>
      </g>
     </g>
    </g>
    <g id="xtick_12">
     <g id="line2d_44">
      <path clip-path="url(#p0269299e73)" d="M 688.193439 285 
L 688.193439 13.2 
" style="fill:none;stroke:#b0b0b0;stroke-linecap:square;stroke-width:0.8;"/>
     </g>
     <g id="line2d_45">
      <g>
       <use x="688.193439" xlink:href="#m75ad7447cb" y="285"/>
      </g>
     </g>
     <g id="text_23">
      <!-- 3 -->
      <g transform="translate(683.421564 305.897656)scale(0.15 -0.15)">
       <use xlink:href="#DejaVuSans-33"/>
      </g>
     </g>
    </g>
    <g id="xtick_13">
     <g id="line2d_46">
      <path clip-path="url(#p0269299e73)" d="M 740.181017 285 
L 740.181017 13.2 
" style="fill:none;stroke:#b0b0b0;stroke-linecap:square;stroke-width:0.8;"/>
     </g>
     <g id="line2d_47">
      <g>
       <use x="740.181017" xlink:href="#m75ad7447cb" y="285"/>
      </g>
     </g>
     <g id="text_24">
      <!-- 4 -->
      <g transform="translate(735.409142 305.897656)scale(0.15 -0.15)">
       <use xlink:href="#DejaVuSans-34"/>
      </g>
     </g>
    </g>
    <g id="xtick_14">
     <g id="line2d_48">
      <path clip-path="url(#p0269299e73)" d="M 792.168595 285 
L 792.168595 13.2 
" style="fill:none;stroke:#b0b0b0;stroke-linecap:square;stroke-width:0.8;"/>
     </g>
     <g id="line2d_49">
      <g>
       <use x="792.168595" xlink:href="#m75ad7447cb" y="285"/>
      </g>
     </g>
     <g id="text_25">
      <!-- 5 -->
      <g transform="translate(787.39672 305.897656)scale(0.15 -0.15)">
       <use xlink:href="#DejaVuSans-35"/>
      </g>
     </g>
    </g>
    <g id="xtick_15">
     <g id="line2d_50">
      <path clip-path="url(#p0269299e73)" d="M 844.156172 285 
L 844.156172 13.2 
" style="fill:none;stroke:#b0b0b0;stroke-linecap:square;stroke-width:0.8;"/>
     </g>
     <g id="line2d_51">
      <g>
       <use x="844.156172" xlink:href="#m75ad7447cb" y="285"/>
      </g>
     </g>
     <g id="text_26">
      <!-- 6 -->
      <g transform="translate(839.384297 305.897656)scale(0.15 -0.15)">
       <use xlink:href="#DejaVuSans-36"/>
      </g>
     </g>
    </g>
    <g id="xtick_16">
     <g id="line2d_52">
      <path clip-path="url(#p0269299e73)" d="M 896.14375 285 
L 896.14375 13.2 
" style="fill:none;stroke:#b0b0b0;stroke-linecap:square;stroke-width:0.8;"/>
     </g>
     <g id="line2d_53">
      <g>
       <use x="896.14375" xlink:href="#m75ad7447cb" y="285"/>
      </g>
     </g>
     <g id="text_27">
      <!-- 7 -->
      <g transform="translate(891.371875 305.897656)scale(0.15 -0.15)">
       <use xlink:href="#DejaVuSans-37"/>
      </g>
     </g>
    </g>
    <g id="text_28">
     <!-- $t/\tau$ -->
     <g transform="translate(700.787228 328.214063)scale(0.2 -0.2)">
      <use transform="translate(0 0.09375)" xlink:href="#DejaVuSans-Oblique-74"/>
      <use transform="translate(39.208984 0.09375)" xlink:href="#DejaVuSans-2f"/>
      <use transform="translate(72.900391 0.09375)" xlink:href="#DejaVuSans-Oblique-3c4"/>
     </g>
    </g>
   </g>
   <g id="matplotlib.axis_4">
    <g id="ytick_7">
     <g id="line2d_54">
      <path clip-path="url(#p0269299e73)" d="M 532.230707 272.645455 
L 896.14375 272.645455 
" style="fill:none;stroke:#b0b0b0;stroke-linecap:square;stroke-width:0.8;"/>
     </g>
     <g id="line2d_55">
      <g>
       <use x="532.230707" xlink:href="#mbf4cc065a2" y="272.645455"/>
      </g>
     </g>
     <g id="text_29">
      <!-- 0.000 -->
      <defs>
       <path d="M 10.6875 12.40625 
L 21 12.40625 
L 21 0 
L 10.6875 0 
z
" id="DejaVuSans-2e"/>
      </defs>
      <g transform="translate(479.788519 278.344283)scale(0.15 -0.15)">
       <use xlink:href="#DejaVuSans-30"/>
       <use x="63.623047" xlink:href="#DejaVuSans-2e"/>
       <use x="95.410156" xlink:href="#DejaVuSans-30"/>
       <use x="159.033203" xlink:href="#DejaVuSans-30"/>
       <use x="222.65625" xlink:href="#DejaVuSans-30"/>
      </g>
     </g>
    </g>
    <g id="ytick_8">
     <g id="line2d_56">
      <path clip-path="url(#p0269299e73)" d="M 532.230707 234.921599 
L 896.14375 234.921599 
" style="fill:none;stroke:#b0b0b0;stroke-linecap:square;stroke-width:0.8;"/>
     </g>
     <g id="line2d_57">
      <g>
       <use x="532.230707" xlink:href="#mbf4cc065a2" y="234.921599"/>
      </g>
     </g>
     <g id="text_30">
      <!-- 0.025 -->
      <g transform="translate(479.788519 240.620427)scale(0.15 -0.15)">
       <use xlink:href="#DejaVuSans-30"/>
       <use x="63.623047" xlink:href="#DejaVuSans-2e"/>
       <use x="95.410156" xlink:href="#DejaVuSans-30"/>
       <use x="159.033203" xlink:href="#DejaVuSans-32"/>
       <use x="222.65625" xlink:href="#DejaVuSans-35"/>
      </g>
     </g>
    </g>
    <g id="ytick_9">
     <g id="line2d_58">
      <path clip-path="url(#p0269299e73)" d="M 532.230707 197.197743 
L 896.14375 197.197743 
" style="fill:none;stroke:#b0b0b0;stroke-linecap:square;stroke-width:0.8;"/>
     </g>
     <g id="line2d_59">
      <g>
       <use x="532.230707" xlink:href="#mbf4cc065a2" y="197.197743"/>
      </g>
     </g>
     <g id="text_31">
      <!-- 0.050 -->
      <g transform="translate(479.788519 202.896571)scale(0.15 -0.15)">
       <use xlink:href="#DejaVuSans-30"/>
       <use x="63.623047" xlink:href="#DejaVuSans-2e"/>
       <use x="95.410156" xlink:href="#DejaVuSans-30"/>
       <use x="159.033203" xlink:href="#DejaVuSans-35"/>
       <use x="222.65625" xlink:href="#DejaVuSans-30"/>
      </g>
     </g>
    </g>
    <g id="ytick_10">
     <g id="line2d_60">
      <path clip-path="url(#p0269299e73)" d="M 532.230707 159.473888 
L 896.14375 159.473888 
" style="fill:none;stroke:#b0b0b0;stroke-linecap:square;stroke-width:0.8;"/>
     </g>
     <g id="line2d_61">
      <g>
       <use x="532.230707" xlink:href="#mbf4cc065a2" y="159.473888"/>
      </g>
     </g>
     <g id="text_32">
      <!-- 0.075 -->
      <g transform="translate(479.788519 165.172716)scale(0.15 -0.15)">
       <use xlink:href="#DejaVuSans-30"/>
       <use x="63.623047" xlink:href="#DejaVuSans-2e"/>
       <use x="95.410156" xlink:href="#DejaVuSans-30"/>
       <use x="159.033203" xlink:href="#DejaVuSans-37"/>
       <use x="222.65625" xlink:href="#DejaVuSans-35"/>
      </g>
     </g>
    </g>
    <g id="ytick_11">
     <g id="line2d_62">
      <path clip-path="url(#p0269299e73)" d="M 532.230707 121.750032 
L 896.14375 121.750032 
" style="fill:none;stroke:#b0b0b0;stroke-linecap:square;stroke-width:0.8;"/>
     </g>
     <g id="line2d_63">
      <g>
       <use x="532.230707" xlink:href="#mbf4cc065a2" y="121.750032"/>
      </g>
     </g>
     <g id="text_33">
      <!-- 0.100 -->
      <g transform="translate(479.788519 127.44886)scale(0.15 -0.15)">
       <use xlink:href="#DejaVuSans-30"/>
       <use x="63.623047" xlink:href="#DejaVuSans-2e"/>
       <use x="95.410156" xlink:href="#DejaVuSans-31"/>
       <use x="159.033203" xlink:href="#DejaVuSans-30"/>
       <use x="222.65625" xlink:href="#DejaVuSans-30"/>
      </g>
     </g>
    </g>
    <g id="ytick_12">
     <g id="line2d_64">
      <path clip-path="url(#p0269299e73)" d="M 532.230707 84.026176 
L 896.14375 84.026176 
" style="fill:none;stroke:#b0b0b0;stroke-linecap:square;stroke-width:0.8;"/>
     </g>
     <g id="line2d_65">
      <g>
       <use x="532.230707" xlink:href="#mbf4cc065a2" y="84.026176"/>
      </g>
     </g>
     <g id="text_34">
      <!-- 0.125 -->
      <g transform="translate(479.788519 89.725004)scale(0.15 -0.15)">
       <use xlink:href="#DejaVuSans-30"/>
       <use x="63.623047" xlink:href="#DejaVuSans-2e"/>
       <use x="95.410156" xlink:href="#DejaVuSans-31"/>
       <use x="159.033203" xlink:href="#DejaVuSans-32"/>
       <use x="222.65625" xlink:href="#DejaVuSans-35"/>
      </g>
     </g>
    </g>
    <g id="ytick_13">
     <g id="line2d_66">
      <path clip-path="url(#p0269299e73)" d="M 532.230707 46.302321 
L 896.14375 46.302321 
" style="fill:none;stroke:#b0b0b0;stroke-linecap:square;stroke-width:0.8;"/>
     </g>
     <g id="line2d_67">
      <g>
       <use x="532.230707" xlink:href="#mbf4cc065a2" y="46.302321"/>
      </g>
     </g>
     <g id="text_35">
      <!-- 0.150 -->
      <g transform="translate(479.788519 52.001149)scale(0.15 -0.15)">
       <use xlink:href="#DejaVuSans-30"/>
       <use x="63.623047" xlink:href="#DejaVuSans-2e"/>
       <use x="95.410156" xlink:href="#DejaVuSans-31"/>
       <use x="159.033203" xlink:href="#DejaVuSans-35"/>
       <use x="222.65625" xlink:href="#DejaVuSans-30"/>
      </g>
     </g>
    </g>
    <g id="text_36">
     <!-- $C_V^2(r)$ -->
     <defs>
      <path d="M 69.484375 67.28125 
L 67.484375 56.890625 
Q 62.796875 61.625 57.546875 63.921875 
Q 52.296875 66.21875 46.1875 66.21875 
Q 37.84375 66.21875 31.515625 62.203125 
Q 25.203125 58.203125 20.609375 50 
Q 17.671875 44.734375 16.125 38.84375 
Q 14.59375 32.953125 14.59375 27 
Q 14.59375 17.046875 19.75 11.8125 
Q 24.90625 6.59375 34.71875 6.59375 
Q 41.5 6.59375 47.75 8.765625 
Q 54 10.9375 59.90625 15.28125 
L 57.625 3.609375 
Q 51.8125 1.125 45.875 -0.140625 
Q 39.9375 -1.421875 33.984375 -1.421875 
Q 19.96875 -1.421875 12.078125 6.1875 
Q 4.203125 13.8125 4.203125 27.390625 
Q 4.203125 36.078125 7.203125 44.46875 
Q 10.203125 52.875 15.828125 59.8125 
Q 21.78125 67.1875 29.421875 70.703125 
Q 37.0625 74.21875 47.21875 74.21875 
Q 53.46875 74.21875 59.0625 72.484375 
Q 64.65625 70.75 69.484375 67.28125 
z
" id="DejaVuSans-Oblique-43"/>
      <path d="M 20.609375 0 
L 7.8125 72.90625 
L 17.484375 72.90625 
L 28.078125 10.203125 
L 63.484375 72.90625 
L 74.21875 72.90625 
L 32.078125 0 
z
" id="DejaVuSans-Oblique-56"/>
      <path d="M 31 75.875 
Q 24.46875 64.65625 21.28125 53.65625 
Q 18.109375 42.671875 18.109375 31.390625 
Q 18.109375 20.125 21.3125 9.0625 
Q 24.515625 -2 31 -13.1875 
L 23.1875 -13.1875 
Q 15.875 -1.703125 12.234375 9.375 
Q 8.59375 20.453125 8.59375 31.390625 
Q 8.59375 42.28125 12.203125 53.3125 
Q 15.828125 64.359375 23.1875 75.875 
z
" id="DejaVuSans-28"/>
      <path d="M 8.015625 75.875 
L 15.828125 75.875 
Q 23.140625 64.359375 26.78125 53.3125 
Q 30.421875 42.28125 30.421875 31.390625 
Q 30.421875 20.453125 26.78125 9.375 
Q 23.140625 -1.703125 15.828125 -13.1875 
L 8.015625 -13.1875 
Q 14.5 -2 17.703125 9.0625 
Q 20.90625 20.125 20.90625 31.390625 
Q 20.90625 42.671875 17.703125 53.65625 
Q 14.5 64.65625 8.015625 75.875 
z
" id="DejaVuSans-29"/>
     </defs>
     <g transform="translate(470.188519 173.5)rotate(-90)scale(0.2 -0.2)">
      <use transform="translate(0 0.765625)" xlink:href="#DejaVuSans-Oblique-43"/>
      <use transform="translate(77.02474 39.046875)scale(0.7)" xlink:href="#DejaVuSans-32"/>
      <use transform="translate(69.824219 -26.578125)scale(0.7)" xlink:href="#DejaVuSans-Oblique-56"/>
      <use transform="translate(124.295247 0.765625)" xlink:href="#DejaVuSans-28"/>
      <use transform="translate(163.308919 0.765625)" xlink:href="#DejaVuSans-Oblique-72"/>
      <use transform="translate(204.422201 0.765625)" xlink:href="#DejaVuSans-29"/>
     </g>
    </g>
   </g>
   <g id="line2d_68">
    <path clip-path="url(#p0269299e73)" d="M 532.230707 272.645455 
L 537.429464 118.940809 
L 542.628222 106.150082 
L 547.82698 105.395955 
L 553.025738 111.627864 
L 558.224495 116.717433 
L 563.423253 116.474927 
L 568.622011 119.385575 
L 573.820769 117.299415 
L 579.019526 116.756903 
L 584.218284 119.288717 
L 589.417042 120.722122 
L 594.6158 119.35351 
L 599.814557 122.210629 
L 605.013315 124.272551 
L 610.212073 126.178901 
L 615.410831 127.606447 
L 620.609589 123.518655 
L 625.808346 121.468718 
L 631.007104 116.307413 
L 636.205862 117.020452 
L 641.40462 126.300134 
L 646.603377 128.224348 
L 651.802135 124.184396 
L 657.000893 117.862564 
L 662.199651 116.903604 
L 667.398408 118.8933 
L 672.597166 120.777854 
L 677.795924 118.800717 
L 682.994682 117.807175 
L 688.193439 119.759349 
L 693.392197 122.687527 
L 698.590955 124.364921 
L 703.789713 118.521524 
L 708.98847 126.266968 
L 714.187228 124.773715 
L 719.385986 121.353946 
L 724.584744 124.821334 
L 729.783502 122.180453 
L 734.982259 121.229298 
L 740.181017 126.579471 
L 745.379775 124.655793 
L 750.578533 116.681708 
L 755.77729 115.697174 
L 760.976048 118.14507 
L 766.174806 126.127153 
L 771.373564 125.314965 
L 776.572321 122.308938 
L 781.771079 127.847788 
L 786.969837 126.496329 
L 792.168595 122.706841 
L 797.367352 122.135761 
L 802.56611 117.035349 
L 807.764868 121.361162 
L 812.963626 127.55976 
L 818.162384 121.665707 
L 823.361141 123.169158 
L 828.559899 125.266654 
L 833.758657 121.150064 
L 838.957415 123.973008 
L 844.156172 122.46412 
L 849.35493 121.512565 
L 854.553688 122.602925 
L 859.752446 125.651097 
L 864.951203 123.858617 
L 870.149961 121.96976 
L 875.348719 119.275649 
L 880.547477 118.264463 
L 885.746234 121.677343 
L 890.944992 120.297934 
" style="fill:none;stroke:#1f77b4;stroke-linecap:square;stroke-width:3;"/>
   </g>
   <g id="line2d_69">
    <path clip-path="url(#p0269299e73)" d="M 532.230707 272.645455 
L 537.429464 103.302959 
L 542.628222 59.984444 
L 547.82698 54.8636 
L 553.025738 61.495697 
L 558.224495 50.04794 
L 563.423253 74.394382 
L 568.622011 52.535642 
L 573.820769 50.413537 
L 579.019526 53.857694 
L 584.218284 64.97736 
L 589.417042 66.27807 
L 594.6158 60.933762 
L 599.814557 54.500696 
L 605.013315 61.346102 
L 610.212073 63.657496 
L 615.410831 58.255782 
L 620.609589 46.363745 
L 625.808346 48.86291 
L 631.007104 65.28021 
L 636.205862 57.83548 
L 641.40462 62.665338 
L 646.603377 51.634981 
L 651.802135 54.117184 
L 657.000893 57.132719 
L 662.199651 55.944522 
L 667.398408 57.738452 
L 672.597166 51.234921 
L 677.795924 49.06508 
L 682.994682 53.290693 
L 688.193439 56.292196 
L 693.392197 49.507735 
L 698.590955 38.240753 
L 703.789713 43.997057 
L 708.98847 53.351926 
L 714.187228 51.058319 
L 719.385986 42.257484 
L 724.584744 43.525846 
L 729.783502 50.997193 
L 734.982259 51.130707 
L 740.181017 47.733452 
L 745.379775 48.735902 
L 750.578533 44.860941 
L 755.77729 49.131459 
L 760.976048 40.022941 
L 766.174806 43.230493 
L 771.373564 42.056182 
L 776.572321 39.900761 
L 781.771079 44.675688 
L 786.969837 44.313943 
L 792.168595 47.177569 
L 797.367352 43.247371 
L 802.56611 44.200794 
L 807.764868 45.77156 
L 812.963626 46.822483 
L 818.162384 46.387695 
L 823.361141 46.584936 
L 828.559899 45.715381 
L 833.758657 46.59887 
L 838.957415 47.804955 
L 844.156172 47.401632 
L 849.35493 47.99926 
L 854.553688 45.509024 
L 859.752446 45.695888 
L 864.951203 44.629655 
L 870.149961 44.195021 
L 875.348719 43.577431 
L 880.547477 41.964219 
L 885.746234 42.891601 
L 890.944992 46.01767 
" style="fill:none;stroke:#ff6800;stroke-linecap:square;stroke-width:3;"/>
   </g>
   <g id="line2d_70">
    <path clip-path="url(#p0269299e73)" d="M 532.230707 272.645455 
L 537.429464 254.176362 
L 542.628222 245.082305 
L 547.82698 233.506158 
L 553.025738 225.579188 
L 558.224495 213.570629 
L 563.423253 215.287633 
L 568.622011 204.844274 
L 573.820769 190.965764 
L 579.019526 190.973889 
L 584.218284 188.655814 
L 589.417042 178.19689 
L 594.6158 172.545008 
L 599.814557 162.246623 
L 605.013315 158.758688 
L 610.212073 160.682783 
L 615.410831 146.637871 
L 620.609589 134.873929 
L 625.808346 137.154805 
L 631.007104 140.837208 
L 636.205862 131.82023 
L 641.40462 129.766213 
L 646.603377 120.624086 
L 651.802135 116.969425 
L 657.000893 116.37819 
L 662.199651 113.19385 
L 667.398408 110.140871 
L 672.597166 103.703886 
L 677.795924 102.354117 
L 682.994682 101.487685 
L 688.193439 97.840445 
L 693.392197 94.914174 
L 698.590955 83.068972 
L 703.789713 84.769134 
L 708.98847 89.612272 
L 714.187228 85.854361 
L 719.385986 76.682704 
L 724.584744 72.416447 
L 729.783502 76.406517 
L 734.982259 75.954191 
L 740.181017 71.708156 
L 745.379775 72.834277 
L 750.578533 68.939017 
L 755.77729 69.489095 
L 760.976048 62.744165 
L 766.174806 61.896769 
L 771.373564 60.126133 
L 776.572321 57.785095 
L 781.771079 60.915914 
L 786.969837 59.501194 
L 792.168595 62.596692 
L 797.367352 56.69317 
L 802.56611 58.038922 
L 807.764868 57.357057 
L 812.963626 57.265591 
L 818.162384 55.451966 
L 823.361141 56.699268 
L 828.559899 54.418994 
L 833.758657 54.102775 
L 838.957415 54.751498 
L 844.156172 54.001057 
L 849.35493 54.458204 
L 854.553688 51.78616 
L 859.752446 50.61937 
L 864.951203 49.424866 
L 870.149961 49.149894 
L 875.348719 48.705211 
L 880.547477 47.014204 
L 885.746234 47.6675 
L 890.944992 50.500151 
" style="fill:none;stroke:#319000;stroke-linecap:square;stroke-width:3;"/>
   </g>
   <g id="patch_9">
    <path d="M 532.230707 285 
L 532.230707 13.2 
" style="fill:none;stroke:#000000;stroke-linecap:square;stroke-linejoin:miter;stroke-width:2;"/>
   </g>
   <g id="patch_10">
    <path d="M 896.14375 285 
L 896.14375 13.2 
" style="fill:none;"/>
   </g>
   <g id="patch_11">
    <path d="M 532.230707 285 
L 896.14375 285 
" style="fill:none;stroke:#000000;stroke-linecap:square;stroke-linejoin:miter;stroke-width:2;"/>
   </g>
   <g id="patch_12">
    <path d="M 532.230707 13.2 
L 896.14375 13.2 
" style="fill:none;"/>
   </g>
  </g>
 </g>
 <defs>
  <clipPath id="pf168e130cb">
   <rect height="271.8" width="363.913043" x="59.14375" y="13.2"/>
  </clipPath>
  <clipPath id="p0269299e73">
   <rect height="271.8" width="363.913043" x="532.230707" y="13.2"/>
  </clipPath>
 </defs>
</svg>
