<?xml version="1.0" encoding="utf-8" standalone="no"?>
<!DOCTYPE svg PUBLIC "-//W3C//DTD SVG 1.1//EN"
  "http://www.w3.org/Graphics/SVG/1.1/DTD/svg11.dtd">
<!-- Created with matplotlib (http://matplotlib.org/) -->
<svg height="339.573438pt" version="1.1" viewBox="0 0 909.34375 339.573438" width="909.34375pt" xmlns="http://www.w3.org/2000/svg" xmlns:xlink="http://www.w3.org/1999/xlink">
 <defs>
  <style type="text/css">
*{stroke-linecap:butt;stroke-linejoin:round;}
  </style>
 </defs>
 <g id="figure_1">
  <g id="patch_1">
   <path d="M 0 339.573438 
L 909.34375 339.573438 
L 909.34375 0 
L 0 0 
z
" style="fill:#ffffff;"/>
  </g>
  <g id="axes_1">
   <g id="patch_2">
    <path d="M 59.14375 285 
L 423.056793 285 
L 423.056793 13.2 
L 59.14375 13.2 
z
" style="fill:#ffffff;"/>
   </g>
   <g id="PolyCollection_1">
    <defs>
     <path d="M 59.14375 -66.927983 
L 59.14375 -66.927983 
L 64.342508 -136.029364 
L 69.541266 -187.542608 
L 74.740023 -219.054427 
L 79.938781 -245.638649 
L 85.137539 -255.431079 
L 90.336297 -264.297372 
L 95.535054 -263.668151 
L 100.733812 -266.996235 
L 105.93257 -274.314405 
L 111.131328 -273.998839 
L 116.330085 -273.674691 
L 121.528843 -274.620626 
L 126.727601 -276.336866 
L 131.926359 -276.293284 
L 137.125116 -276.759481 
L 142.323874 -282.0244 
L 147.522632 -276.229525 
L 152.72139 -271.939843 
L 157.920148 -271.56405 
L 163.118905 -269.183384 
L 168.317663 -266.065997 
L 173.516421 -264.143188 
L 178.715179 -268.745833 
L 183.913936 -275.655109 
L 189.112694 -277.998502 
L 194.311452 -281.083782 
L 199.51021 -277.062261 
L 204.708967 -279.139387 
L 209.907725 -272.670568 
L 215.106483 -272.496721 
L 220.305241 -270.397382 
L 225.503998 -269.705029 
L 230.702756 -266.604404 
L 235.901514 -267.723156 
L 241.100272 -269.868078 
L 246.29903 -276.827131 
L 251.497787 -274.733035 
L 256.696545 -276.1245 
L 261.895303 -274.448872 
L 267.094061 -268.901486 
L 272.292818 -268.196544 
L 277.491576 -272.821677 
L 282.690334 -277.261463 
L 287.889092 -270.79557 
L 293.087849 -272.679574 
L 298.286607 -265.259913 
L 303.485365 -269.282279 
L 308.684123 -276.967066 
L 313.88288 -273.374534 
L 319.081638 -274.8956 
L 324.280396 -274.659857 
L 329.479154 -270.800315 
L 334.677911 -267.748285 
L 339.876669 -271.328294 
L 345.075427 -274.908906 
L 350.274185 -276.980302 
L 355.472943 -273.608196 
L 360.6717 -274.900838 
L 365.870458 -274.715373 
L 371.069216 -273.398848 
L 376.267974 -277.102577 
L 381.466731 -277.376689 
L 386.665489 -277.356839 
L 391.864247 -279.309212 
L 397.063005 -283.006536 
L 402.261762 -276.934845 
L 407.46052 -279.373663 
L 412.659278 -278.080173 
L 417.858036 -278.091102 
L 417.858036 -292.329024 
L 417.858036 -292.329024 
L 412.659278 -292.45678 
L 407.46052 -293.281022 
L 402.261762 -292.394707 
L 397.063005 -298.228171 
L 391.864247 -292.71145 
L 386.665489 -291.014598 
L 381.466731 -291.671633 
L 376.267974 -291.008238 
L 371.069216 -287.429663 
L 365.870458 -289.440897 
L 360.6717 -289.550911 
L 355.472943 -288.002721 
L 350.274185 -290.686634 
L 345.075427 -288.271247 
L 339.876669 -286.153164 
L 334.677911 -280.711396 
L 329.479154 -283.665997 
L 324.280396 -288.763376 
L 319.081638 -289.428818 
L 313.88288 -286.259115 
L 308.684123 -290.373305 
L 303.485365 -283.020977 
L 298.286607 -279.576105 
L 293.087849 -286.481716 
L 287.889092 -284.962964 
L 282.690334 -290.561227 
L 277.491576 -287.432627 
L 272.292818 -282.379609 
L 267.094061 -284.458006 
L 261.895303 -288.920106 
L 256.696545 -290.415189 
L 251.497787 -288.6668 
L 246.29903 -289.990811 
L 241.100272 -284.296175 
L 235.901514 -281.322474 
L 230.702756 -280.818749 
L 225.503998 -283.314282 
L 220.305241 -284.931389 
L 215.106483 -286.701795 
L 209.907725 -286.170043 
L 204.708967 -293.639485 
L 199.51021 -290.839577 
L 194.311452 -295.285361 
L 189.112694 -291.611833 
L 183.913936 -289.766429 
L 178.715179 -282.431464 
L 173.516421 -277.738905 
L 168.317663 -279.787557 
L 163.118905 -283.409369 
L 157.920148 -285.782431 
L 152.72139 -285.860061 
L 147.522632 -290.371886 
L 142.323874 -295.950763 
L 137.125116 -291.417715 
L 131.926359 -290.778039 
L 126.727601 -290.579955 
L 121.528843 -288.331636 
L 116.330085 -288.307754 
L 111.131328 -288.759934 
L 105.93257 -288.571863 
L 100.733812 -281.61428 
L 95.535054 -277.637561 
L 90.336297 -278.458624 
L 85.137539 -269.539563 
L 79.938781 -259.293638 
L 74.740023 -232.328932 
L 69.541266 -199.23062 
L 64.342508 -145.518592 
L 59.14375 -66.927983 
z
" id="m2a5af21ac1"/>
    </defs>
    <g clip-path="url(#p938744085f)">
     <use style="fill:#4db8ff;" x="0" xlink:href="#m2a5af21ac1" y="339.573438"/>
    </g>
   </g>
   <g id="PolyCollection_2">
    <defs>
     <path d="M 59.14375 -66.927983 
L 59.14375 -66.927983 
L 64.342508 -131.527802 
L 69.541266 -179.722305 
L 74.740023 -214.628243 
L 79.938781 -226.997188 
L 85.137539 -249.362962 
L 90.336297 -253.126414 
L 95.535054 -262.66488 
L 100.733812 -259.09019 
L 105.93257 -258.563314 
L 111.131328 -264.59694 
L 116.330085 -268.876859 
L 121.528843 -269.65508 
L 126.727601 -265.145868 
L 131.926359 -278.908993 
L 137.125116 -282.332323 
L 142.323874 -259.79912 
L 147.522632 -272.359074 
L 152.72139 -277.990615 
L 157.920148 -284.075045 
L 163.118905 -281.526922 
L 168.317663 -279.763979 
L 173.516421 -286.465722 
L 178.715179 -275.378409 
L 183.913936 -273.116062 
L 189.112694 -273.309155 
L 194.311452 -271.670115 
L 199.51021 -274.13104 
L 204.708967 -278.97733 
L 209.907725 -271.996123 
L 215.106483 -262.021866 
L 220.305241 -267.998326 
L 225.503998 -271.139061 
L 230.702756 -274.097123 
L 235.901514 -275.841956 
L 241.100272 -275.078981 
L 246.29903 -274.017409 
L 251.497787 -271.511584 
L 256.696545 -278.06645 
L 261.895303 -276.045682 
L 267.094061 -274.021138 
L 272.292818 -272.855506 
L 277.491576 -269.177102 
L 282.690334 -269.894255 
L 287.889092 -275.053405 
L 293.087849 -278.909511 
L 298.286607 -281.133263 
L 303.485365 -281.040066 
L 308.684123 -278.307394 
L 313.88288 -276.915807 
L 319.081638 -277.204387 
L 324.280396 -273.84741 
L 329.479154 -274.565385 
L 334.677911 -273.167337 
L 339.876669 -277.473182 
L 345.075427 -275.412033 
L 350.274185 -277.123675 
L 355.472943 -278.045943 
L 360.6717 -278.174676 
L 365.870458 -279.219503 
L 371.069216 -281.542449 
L 376.267974 -278.573444 
L 381.466731 -277.192636 
L 386.665489 -279.304133 
L 391.864247 -278.370282 
L 397.063005 -278.989352 
L 402.261762 -279.245375 
L 407.46052 -277.518973 
L 412.659278 -277.763504 
L 417.858036 -279.594742 
L 417.858036 -284.549896 
L 417.858036 -284.549896 
L 412.659278 -283.026409 
L 407.46052 -282.854888 
L 402.261762 -284.82558 
L 397.063005 -284.314002 
L 391.864247 -284.362221 
L 386.665489 -285.474845 
L 381.466731 -283.516498 
L 376.267974 -285.348022 
L 371.069216 -288.177487 
L 365.870458 -286.372756 
L 360.6717 -285.433997 
L 355.472943 -285.545185 
L 350.274185 -284.831306 
L 345.075427 -283.546222 
L 339.876669 -286.055808 
L 334.677911 -281.490432 
L 329.479154 -283.248845 
L 324.280396 -282.854228 
L 319.081638 -286.505017 
L 313.88288 -286.34274 
L 308.684123 -288.045252 
L 303.485365 -291.68044 
L 298.286607 -292.549086 
L 293.087849 -290.097431 
L 287.889092 -287.318073 
L 282.690334 -282.159544 
L 277.491576 -281.184544 
L 272.292818 -286.529986 
L 267.094061 -287.319684 
L 261.895303 -289.379765 
L 256.696545 -293.27103 
L 251.497787 -286.685006 
L 246.29903 -288.387727 
L 241.100272 -290.868371 
L 235.901514 -292.281697 
L 230.702756 -291.962718 
L 225.503998 -288.458329 
L 220.305241 -287.30152 
L 215.106483 -280.455821 
L 209.907725 -291.798776 
L 204.708967 -301.202988 
L 199.51021 -295.949613 
L 194.311452 -293.290651 
L 189.112694 -295.379842 
L 183.913936 -296.874937 
L 178.715179 -297.727173 
L 173.516421 -310.011215 
L 168.317663 -305.407032 
L 163.118905 -307.434326 
L 157.920148 -310.797005 
L 152.72139 -306.095184 
L 147.522632 -302.816006 
L 142.323874 -290.194173 
L 137.125116 -313.244881 
L 131.926359 -310.27922 
L 126.727601 -300.481834 
L 121.528843 -300.368399 
L 116.330085 -301.75923 
L 111.131328 -302.6421 
L 105.93257 -294.324978 
L 100.733812 -304.40075 
L 95.535054 -307.750521 
L 90.336297 -295.302339 
L 85.137539 -293.311598 
L 79.938781 -265.698327 
L 74.740023 -255.168298 
L 69.541266 -218.366459 
L 64.342508 -163.256997 
L 59.14375 -66.927983 
z
" id="mdb5db15794"/>
    </defs>
    <g clip-path="url(#p938744085f)">
     <use style="fill:#ffa035;" x="0" xlink:href="#mdb5db15794" y="339.573438"/>
    </g>
   </g>
   <g id="PolyCollection_3">
    <defs>
     <path d="M 59.14375 -66.927983 
L 59.14375 -66.927983 
L 64.342508 -138.812897 
L 69.541266 -188.158749 
L 74.740023 -216.772328 
L 79.938781 -222.558777 
L 85.137539 -240.482676 
L 90.336297 -252.540902 
L 95.535054 -266.032032 
L 100.733812 -261.61132 
L 105.93257 -260.097173 
L 111.131328 -266.371648 
L 116.330085 -270.008338 
L 121.528843 -273.974056 
L 126.727601 -272.913531 
L 131.926359 -280.54212 
L 137.125116 -283.697132 
L 142.323874 -266.9636 
L 147.522632 -278.229022 
L 152.72139 -286.136974 
L 157.920148 -288.351804 
L 163.118905 -285.668677 
L 168.317663 -279.463714 
L 173.516421 -283.746844 
L 178.715179 -276.461403 
L 183.913936 -274.772181 
L 189.112694 -273.365392 
L 194.311452 -274.067976 
L 199.51021 -278.293425 
L 204.708967 -280.117683 
L 209.907725 -273.899182 
L 215.106483 -264.475559 
L 220.305241 -269.059176 
L 225.503998 -270.517161 
L 230.702756 -275.446069 
L 235.901514 -276.673473 
L 241.100272 -275.240659 
L 246.29903 -276.338428 
L 251.497787 -274.438322 
L 256.696545 -279.735512 
L 261.895303 -276.843312 
L 267.094061 -276.218325 
L 272.292818 -274.948036 
L 277.491576 -270.266394 
L 282.690334 -270.717578 
L 287.889092 -276.065354 
L 293.087849 -278.972029 
L 298.286607 -282.087451 
L 303.485365 -281.356525 
L 308.684123 -278.239354 
L 313.88288 -276.728117 
L 319.081638 -276.938469 
L 324.280396 -273.506814 
L 329.479154 -273.665469 
L 334.677911 -271.876359 
L 339.876669 -276.850061 
L 345.075427 -275.291473 
L 350.274185 -277.602891 
L 355.472943 -278.814291 
L 360.6717 -278.958039 
L 365.870458 -279.856098 
L 371.069216 -281.819661 
L 376.267974 -279.444088 
L 381.466731 -277.639822 
L 386.665489 -279.44239 
L 391.864247 -278.304107 
L 397.063005 -279.149064 
L 402.261762 -279.73744 
L 407.46052 -277.588537 
L 412.659278 -277.829756 
L 417.858036 -279.87548 
L 417.858036 -284.605317 
L 417.858036 -284.605317 
L 412.659278 -282.998432 
L 407.46052 -282.662667 
L 402.261762 -284.37618 
L 397.063005 -284.352506 
L 391.864247 -284.120326 
L 386.665489 -285.620446 
L 381.466731 -283.650922 
L 376.267974 -285.006442 
L 371.069216 -287.994281 
L 365.870458 -286.993528 
L 360.6717 -285.878435 
L 355.472943 -285.569722 
L 350.274185 -284.425726 
L 345.075427 -282.922835 
L 339.876669 -284.779005 
L 334.677911 -281.085072 
L 329.479154 -282.656338 
L 324.280396 -281.790968 
L 319.081638 -285.1238 
L 313.88288 -285.940982 
L 308.684123 -288.333608 
L 303.485365 -292.291456 
L 298.286607 -293.382075 
L 293.087849 -290.909618 
L 287.889092 -287.230172 
L 282.690334 -282.404676 
L 277.491576 -283.309715 
L 272.292818 -286.993982 
L 267.094061 -288.789306 
L 261.895303 -289.772265 
L 256.696545 -293.107679 
L 251.497787 -287.303333 
L 246.29903 -289.198857 
L 241.100272 -290.308579 
L 235.901514 -290.933573 
L 230.702756 -291.346871 
L 225.503998 -288.833817 
L 220.305241 -286.786327 
L 215.106483 -282.127165 
L 209.907725 -292.249705 
L 204.708967 -301.090214 
L 199.51021 -300.06595 
L 194.311452 -295.959531 
L 189.112694 -297.009603 
L 183.913936 -296.632774 
L 178.715179 -298.74044 
L 173.516421 -307.673427 
L 168.317663 -304.562783 
L 163.118905 -307.507964 
L 157.920148 -312.154271 
L 152.72139 -308.131938 
L 147.522632 -302.045627 
L 142.323874 -289.504342 
L 137.125116 -314.018892 
L 131.926359 -312.202014 
L 126.727601 -303.009748 
L 121.528843 -298.989391 
L 116.330085 -299.785076 
L 111.131328 -304.794459 
L 105.93257 -294.245731 
L 100.733812 -302.881499 
L 95.535054 -303.808365 
L 90.336297 -287.545474 
L 85.137539 -279.119371 
L 79.938781 -259.076104 
L 74.740023 -255.109283 
L 69.541266 -226.247481 
L 64.342508 -166.428113 
L 59.14375 -66.927983 
z
" id="m99a4550dae"/>
    </defs>
    <g clip-path="url(#p938744085f)">
     <use style="fill:#00c917;" x="0" xlink:href="#m99a4550dae" y="339.573438"/>
    </g>
   </g>
   <g id="matplotlib.axis_1">
    <g id="xtick_1">
     <g id="line2d_1">
      <path clip-path="url(#p938744085f)" d="M 59.14375 285 
L 59.14375 13.2 
" style="fill:none;stroke:#b0b0b0;stroke-linecap:square;stroke-width:0.8;"/>
     </g>
     <g id="line2d_2">
      <defs>
       <path d="M 0 0 
L 0 6 
" id="m26f39d7fd8"/>
      </defs>
      <g>
       <use x="59.14375" xlink:href="#m26f39d7fd8" y="285"/>
      </g>
     </g>
     <g id="text_1">
      <!-- 0 -->
      <defs>
       <path d="M 31.78125 66.40625 
Q 24.171875 66.40625 20.328125 58.90625 
Q 16.5 51.421875 16.5 36.375 
Q 16.5 21.390625 20.328125 13.890625 
Q 24.171875 6.390625 31.78125 6.390625 
Q 39.453125 6.390625 43.28125 13.890625 
Q 47.125 21.390625 47.125 36.375 
Q 47.125 51.421875 43.28125 58.90625 
Q 39.453125 66.40625 31.78125 66.40625 
z
M 31.78125 74.21875 
Q 44.046875 74.21875 50.515625 64.515625 
Q 56.984375 54.828125 56.984375 36.375 
Q 56.984375 17.96875 50.515625 8.265625 
Q 44.046875 -1.421875 31.78125 -1.421875 
Q 19.53125 -1.421875 13.0625 8.265625 
Q 6.59375 17.96875 6.59375 36.375 
Q 6.59375 54.828125 13.0625 64.515625 
Q 19.53125 74.21875 31.78125 74.21875 
z
" id="DejaVuSans-30"/>
      </defs>
      <g transform="translate(54.371875 305.897656)scale(0.15 -0.15)">
       <use xlink:href="#DejaVuSans-30"/>
      </g>
     </g>
    </g>
    <g id="xtick_2">
     <g id="line2d_3">
      <path clip-path="url(#p938744085f)" d="M 111.131328 285 
L 111.131328 13.2 
" style="fill:none;stroke:#b0b0b0;stroke-linecap:square;stroke-width:0.8;"/>
     </g>
     <g id="line2d_4">
      <g>
       <use x="111.131328" xlink:href="#m26f39d7fd8" y="285"/>
      </g>
     </g>
     <g id="text_2">
      <!-- 1 -->
      <defs>
       <path d="M 12.40625 8.296875 
L 28.515625 8.296875 
L 28.515625 63.921875 
L 10.984375 60.40625 
L 10.984375 69.390625 
L 28.421875 72.90625 
L 38.28125 72.90625 
L 38.28125 8.296875 
L 54.390625 8.296875 
L 54.390625 0 
L 12.40625 0 
z
" id="DejaVuSans-31"/>
      </defs>
      <g transform="translate(106.359453 305.897656)scale(0.15 -0.15)">
       <use xlink:href="#DejaVuSans-31"/>
      </g>
     </g>
    </g>
    <g id="xtick_3">
     <g id="line2d_5">
      <path clip-path="url(#p938744085f)" d="M 163.118905 285 
L 163.118905 13.2 
" style="fill:none;stroke:#b0b0b0;stroke-linecap:square;stroke-width:0.8;"/>
     </g>
     <g id="line2d_6">
      <g>
       <use x="163.118905" xlink:href="#m26f39d7fd8" y="285"/>
      </g>
     </g>
     <g id="text_3">
      <!-- 2 -->
      <defs>
       <path d="M 19.1875 8.296875 
L 53.609375 8.296875 
L 53.609375 0 
L 7.328125 0 
L 7.328125 8.296875 
Q 12.9375 14.109375 22.625 23.890625 
Q 32.328125 33.6875 34.8125 36.53125 
Q 39.546875 41.84375 41.421875 45.53125 
Q 43.3125 49.21875 43.3125 52.78125 
Q 43.3125 58.59375 39.234375 62.25 
Q 35.15625 65.921875 28.609375 65.921875 
Q 23.96875 65.921875 18.8125 64.3125 
Q 13.671875 62.703125 7.8125 59.421875 
L 7.8125 69.390625 
Q 13.765625 71.78125 18.9375 73 
Q 24.125 74.21875 28.421875 74.21875 
Q 39.75 74.21875 46.484375 68.546875 
Q 53.21875 62.890625 53.21875 53.421875 
Q 53.21875 48.921875 51.53125 44.890625 
Q 49.859375 40.875 45.40625 35.40625 
Q 44.1875 33.984375 37.640625 27.21875 
Q 31.109375 20.453125 19.1875 8.296875 
z
" id="DejaVuSans-32"/>
      </defs>
      <g transform="translate(158.34703 305.897656)scale(0.15 -0.15)">
       <use xlink:href="#DejaVuSans-32"/>
      </g>
     </g>
    </g>
    <g id="xtick_4">
     <g id="line2d_7">
      <path clip-path="url(#p938744085f)" d="M 215.106483 285 
L 215.106483 13.2 
" style="fill:none;stroke:#b0b0b0;stroke-linecap:square;stroke-width:0.8;"/>
     </g>
     <g id="line2d_8">
      <g>
       <use x="215.106483" xlink:href="#m26f39d7fd8" y="285"/>
      </g>
     </g>
     <g id="text_4">
      <!-- 3 -->
      <defs>
       <path d="M 40.578125 39.3125 
Q 47.65625 37.796875 51.625 33 
Q 55.609375 28.21875 55.609375 21.1875 
Q 55.609375 10.40625 48.1875 4.484375 
Q 40.765625 -1.421875 27.09375 -1.421875 
Q 22.515625 -1.421875 17.65625 -0.515625 
Q 12.796875 0.390625 7.625 2.203125 
L 7.625 11.71875 
Q 11.71875 9.328125 16.59375 8.109375 
Q 21.484375 6.890625 26.8125 6.890625 
Q 36.078125 6.890625 40.9375 10.546875 
Q 45.796875 14.203125 45.796875 21.1875 
Q 45.796875 27.640625 41.28125 31.265625 
Q 36.765625 34.90625 28.71875 34.90625 
L 20.21875 34.90625 
L 20.21875 43.015625 
L 29.109375 43.015625 
Q 36.375 43.015625 40.234375 45.921875 
Q 44.09375 48.828125 44.09375 54.296875 
Q 44.09375 59.90625 40.109375 62.90625 
Q 36.140625 65.921875 28.71875 65.921875 
Q 24.65625 65.921875 20.015625 65.03125 
Q 15.375 64.15625 9.8125 62.3125 
L 9.8125 71.09375 
Q 15.4375 72.65625 20.34375 73.4375 
Q 25.25 74.21875 29.59375 74.21875 
Q 40.828125 74.21875 47.359375 69.109375 
Q 53.90625 64.015625 53.90625 55.328125 
Q 53.90625 49.265625 50.4375 45.09375 
Q 46.96875 40.921875 40.578125 39.3125 
z
" id="DejaVuSans-33"/>
      </defs>
      <g transform="translate(210.334608 305.897656)scale(0.15 -0.15)">
       <use xlink:href="#DejaVuSans-33"/>
      </g>
     </g>
    </g>
    <g id="xtick_5">
     <g id="line2d_9">
      <path clip-path="url(#p938744085f)" d="M 267.094061 285 
L 267.094061 13.2 
" style="fill:none;stroke:#b0b0b0;stroke-linecap:square;stroke-width:0.8;"/>
     </g>
     <g id="line2d_10">
      <g>
       <use x="267.094061" xlink:href="#m26f39d7fd8" y="285"/>
      </g>
     </g>
     <g id="text_5">
      <!-- 4 -->
      <defs>
       <path d="M 37.796875 64.3125 
L 12.890625 25.390625 
L 37.796875 25.390625 
z
M 35.203125 72.90625 
L 47.609375 72.90625 
L 47.609375 25.390625 
L 58.015625 25.390625 
L 58.015625 17.1875 
L 47.609375 17.1875 
L 47.609375 0 
L 37.796875 0 
L 37.796875 17.1875 
L 4.890625 17.1875 
L 4.890625 26.703125 
z
" id="DejaVuSans-34"/>
      </defs>
      <g transform="translate(262.322186 305.897656)scale(0.15 -0.15)">
       <use xlink:href="#DejaVuSans-34"/>
      </g>
     </g>
    </g>
    <g id="xtick_6">
     <g id="line2d_11">
      <path clip-path="url(#p938744085f)" d="M 319.081638 285 
L 319.081638 13.2 
" style="fill:none;stroke:#b0b0b0;stroke-linecap:square;stroke-width:0.8;"/>
     </g>
     <g id="line2d_12">
      <g>
       <use x="319.081638" xlink:href="#m26f39d7fd8" y="285"/>
      </g>
     </g>
     <g id="text_6">
      <!-- 5 -->
      <defs>
       <path d="M 10.796875 72.90625 
L 49.515625 72.90625 
L 49.515625 64.59375 
L 19.828125 64.59375 
L 19.828125 46.734375 
Q 21.96875 47.46875 24.109375 47.828125 
Q 26.265625 48.1875 28.421875 48.1875 
Q 40.625 48.1875 47.75 41.5 
Q 54.890625 34.8125 54.890625 23.390625 
Q 54.890625 11.625 47.5625 5.09375 
Q 40.234375 -1.421875 26.90625 -1.421875 
Q 22.3125 -1.421875 17.546875 -0.640625 
Q 12.796875 0.140625 7.71875 1.703125 
L 7.71875 11.625 
Q 12.109375 9.234375 16.796875 8.0625 
Q 21.484375 6.890625 26.703125 6.890625 
Q 35.15625 6.890625 40.078125 11.328125 
Q 45.015625 15.765625 45.015625 23.390625 
Q 45.015625 31 40.078125 35.4375 
Q 35.15625 39.890625 26.703125 39.890625 
Q 22.75 39.890625 18.8125 39.015625 
Q 14.890625 38.140625 10.796875 36.28125 
z
" id="DejaVuSans-35"/>
      </defs>
      <g transform="translate(314.309763 305.897656)scale(0.15 -0.15)">
       <use xlink:href="#DejaVuSans-35"/>
      </g>
     </g>
    </g>
    <g id="xtick_7">
     <g id="line2d_13">
      <path clip-path="url(#p938744085f)" d="M 371.069216 285 
L 371.069216 13.2 
" style="fill:none;stroke:#b0b0b0;stroke-linecap:square;stroke-width:0.8;"/>
     </g>
     <g id="line2d_14">
      <g>
       <use x="371.069216" xlink:href="#m26f39d7fd8" y="285"/>
      </g>
     </g>
     <g id="text_7">
      <!-- 6 -->
      <defs>
       <path d="M 33.015625 40.375 
Q 26.375 40.375 22.484375 35.828125 
Q 18.609375 31.296875 18.609375 23.390625 
Q 18.609375 15.53125 22.484375 10.953125 
Q 26.375 6.390625 33.015625 6.390625 
Q 39.65625 6.390625 43.53125 10.953125 
Q 47.40625 15.53125 47.40625 23.390625 
Q 47.40625 31.296875 43.53125 35.828125 
Q 39.65625 40.375 33.015625 40.375 
z
M 52.59375 71.296875 
L 52.59375 62.3125 
Q 48.875 64.0625 45.09375 64.984375 
Q 41.3125 65.921875 37.59375 65.921875 
Q 27.828125 65.921875 22.671875 59.328125 
Q 17.53125 52.734375 16.796875 39.40625 
Q 19.671875 43.65625 24.015625 45.921875 
Q 28.375 48.1875 33.59375 48.1875 
Q 44.578125 48.1875 50.953125 41.515625 
Q 57.328125 34.859375 57.328125 23.390625 
Q 57.328125 12.15625 50.6875 5.359375 
Q 44.046875 -1.421875 33.015625 -1.421875 
Q 20.359375 -1.421875 13.671875 8.265625 
Q 6.984375 17.96875 6.984375 36.375 
Q 6.984375 53.65625 15.1875 63.9375 
Q 23.390625 74.21875 37.203125 74.21875 
Q 40.921875 74.21875 44.703125 73.484375 
Q 48.484375 72.75 52.59375 71.296875 
z
" id="DejaVuSans-36"/>
      </defs>
      <g transform="translate(366.297341 305.897656)scale(0.15 -0.15)">
       <use xlink:href="#DejaVuSans-36"/>
      </g>
     </g>
    </g>
    <g id="xtick_8">
     <g id="line2d_15">
      <path clip-path="url(#p938744085f)" d="M 423.056793 285 
L 423.056793 13.2 
" style="fill:none;stroke:#b0b0b0;stroke-linecap:square;stroke-width:0.8;"/>
     </g>
     <g id="line2d_16">
      <g>
       <use x="423.056793" xlink:href="#m26f39d7fd8" y="285"/>
      </g>
     </g>
     <g id="text_8">
      <!-- 7 -->
      <defs>
       <path d="M 8.203125 72.90625 
L 55.078125 72.90625 
L 55.078125 68.703125 
L 28.609375 0 
L 18.3125 0 
L 43.21875 64.59375 
L 8.203125 64.59375 
z
" id="DejaVuSans-37"/>
      </defs>
      <g transform="translate(418.284918 305.897656)scale(0.15 -0.15)">
       <use xlink:href="#DejaVuSans-37"/>
      </g>
     </g>
    </g>
    <g id="text_9">
     <!-- $t/\tau$ -->
     <defs>
      <path d="M 42.28125 54.6875 
L 40.921875 47.703125 
L 23 47.703125 
L 17.1875 18.015625 
Q 16.890625 16.359375 16.75 15.234375 
Q 16.609375 14.109375 16.609375 13.484375 
Q 16.609375 10.359375 18.484375 8.9375 
Q 20.359375 7.515625 24.515625 7.515625 
L 33.59375 7.515625 
L 32.078125 0 
L 23.484375 0 
Q 15.484375 0 11.546875 3.125 
Q 7.625 6.25 7.625 12.59375 
Q 7.625 13.71875 7.765625 15.0625 
Q 7.90625 16.40625 8.203125 18.015625 
L 14.015625 47.703125 
L 6.390625 47.703125 
L 7.8125 54.6875 
L 15.28125 54.6875 
L 18.3125 70.21875 
L 27.296875 70.21875 
L 24.3125 54.6875 
z
" id="DejaVuSans-Oblique-74"/>
      <path d="M 25.390625 72.90625 
L 33.6875 72.90625 
L 8.296875 -9.28125 
L 0 -9.28125 
z
" id="DejaVuSans-2f"/>
      <path d="M 32.859375 9.96875 
Q 34.1875 7.625 39.453125 7.625 
L 43.75 7.625 
L 42.28125 0 
L 36.921875 0 
Q 28.125 0 25 4.6875 
Q 21.921875 9.46875 23.96875 19.828125 
L 29 45.703125 
L 8.453125 45.703125 
L 10.203125 54.6875 
L 60.640625 54.6875 
L 58.890625 45.703125 
L 38.1875 45.703125 
L 33.015625 19.28125 
Q 31.640625 12.203125 32.859375 9.96875 
z
" id="DejaVuSans-Oblique-3c4"/>
     </defs>
     <g transform="translate(227.700272 328.214063)scale(0.2 -0.2)">
      <use transform="translate(0 0.09375)" xlink:href="#DejaVuSans-Oblique-74"/>
      <use transform="translate(39.208984 0.09375)" xlink:href="#DejaVuSans-2f"/>
      <use transform="translate(72.900391 0.09375)" xlink:href="#DejaVuSans-Oblique-3c4"/>
     </g>
    </g>
   </g>
   <g id="matplotlib.axis_2">
    <g id="ytick_1">
     <g id="line2d_17">
      <path clip-path="url(#p938744085f)" d="M 59.14375 272.645455 
L 423.056793 272.645455 
" style="fill:none;stroke:#b0b0b0;stroke-linecap:square;stroke-width:0.8;"/>
     </g>
     <g id="line2d_18">
      <defs>
       <path d="M 0 0 
L -6 0 
" id="m74ca7e81db"/>
      </defs>
      <g>
       <use x="59.14375" xlink:href="#m74ca7e81db" y="272.645455"/>
      </g>
     </g>
     <g id="text_10">
      <!-- 5 -->
      <g transform="translate(40.1 278.344283)scale(0.15 -0.15)">
       <use xlink:href="#DejaVuSans-35"/>
      </g>
     </g>
    </g>
    <g id="ytick_2">
     <g id="line2d_19">
      <path clip-path="url(#p938744085f)" d="M 59.14375 229.750881 
L 423.056793 229.750881 
" style="fill:none;stroke:#b0b0b0;stroke-linecap:square;stroke-width:0.8;"/>
     </g>
     <g id="line2d_20">
      <g>
       <use x="59.14375" xlink:href="#m74ca7e81db" y="229.750881"/>
      </g>
     </g>
     <g id="text_11">
      <!-- 6 -->
      <g transform="translate(40.1 235.449709)scale(0.15 -0.15)">
       <use xlink:href="#DejaVuSans-36"/>
      </g>
     </g>
    </g>
    <g id="ytick_3">
     <g id="line2d_21">
      <path clip-path="url(#p938744085f)" d="M 59.14375 186.856308 
L 423.056793 186.856308 
" style="fill:none;stroke:#b0b0b0;stroke-linecap:square;stroke-width:0.8;"/>
     </g>
     <g id="line2d_22">
      <g>
       <use x="59.14375" xlink:href="#m74ca7e81db" y="186.856308"/>
      </g>
     </g>
     <g id="text_12">
      <!-- 7 -->
      <g transform="translate(40.1 192.555136)scale(0.15 -0.15)">
       <use xlink:href="#DejaVuSans-37"/>
      </g>
     </g>
    </g>
    <g id="ytick_4">
     <g id="line2d_23">
      <path clip-path="url(#p938744085f)" d="M 59.14375 143.961734 
L 423.056793 143.961734 
" style="fill:none;stroke:#b0b0b0;stroke-linecap:square;stroke-width:0.8;"/>
     </g>
     <g id="line2d_24">
      <g>
       <use x="59.14375" xlink:href="#m74ca7e81db" y="143.961734"/>
      </g>
     </g>
     <g id="text_13">
      <!-- 8 -->
      <defs>
       <path d="M 31.78125 34.625 
Q 24.75 34.625 20.71875 30.859375 
Q 16.703125 27.09375 16.703125 20.515625 
Q 16.703125 13.921875 20.71875 10.15625 
Q 24.75 6.390625 31.78125 6.390625 
Q 38.8125 6.390625 42.859375 10.171875 
Q 46.921875 13.96875 46.921875 20.515625 
Q 46.921875 27.09375 42.890625 30.859375 
Q 38.875 34.625 31.78125 34.625 
z
M 21.921875 38.8125 
Q 15.578125 40.375 12.03125 44.71875 
Q 8.5 49.078125 8.5 55.328125 
Q 8.5 64.0625 14.71875 69.140625 
Q 20.953125 74.21875 31.78125 74.21875 
Q 42.671875 74.21875 48.875 69.140625 
Q 55.078125 64.0625 55.078125 55.328125 
Q 55.078125 49.078125 51.53125 44.71875 
Q 48 40.375 41.703125 38.8125 
Q 48.828125 37.15625 52.796875 32.3125 
Q 56.78125 27.484375 56.78125 20.515625 
Q 56.78125 9.90625 50.3125 4.234375 
Q 43.84375 -1.421875 31.78125 -1.421875 
Q 19.734375 -1.421875 13.25 4.234375 
Q 6.78125 9.90625 6.78125 20.515625 
Q 6.78125 27.484375 10.78125 32.3125 
Q 14.796875 37.15625 21.921875 38.8125 
z
M 18.3125 54.390625 
Q 18.3125 48.734375 21.84375 45.5625 
Q 25.390625 42.390625 31.78125 42.390625 
Q 38.140625 42.390625 41.71875 45.5625 
Q 45.3125 48.734375 45.3125 54.390625 
Q 45.3125 60.0625 41.71875 63.234375 
Q 38.140625 66.40625 31.78125 66.40625 
Q 25.390625 66.40625 21.84375 63.234375 
Q 18.3125 60.0625 18.3125 54.390625 
z
" id="DejaVuSans-38"/>
      </defs>
      <g transform="translate(40.1 149.660562)scale(0.15 -0.15)">
       <use xlink:href="#DejaVuSans-38"/>
      </g>
     </g>
    </g>
    <g id="ytick_5">
     <g id="line2d_25">
      <path clip-path="url(#p938744085f)" d="M 59.14375 101.067161 
L 423.056793 101.067161 
" style="fill:none;stroke:#b0b0b0;stroke-linecap:square;stroke-width:0.8;"/>
     </g>
     <g id="line2d_26">
      <g>
       <use x="59.14375" xlink:href="#m74ca7e81db" y="101.067161"/>
      </g>
     </g>
     <g id="text_14">
      <!-- 9 -->
      <defs>
       <path d="M 10.984375 1.515625 
L 10.984375 10.5 
Q 14.703125 8.734375 18.5 7.8125 
Q 22.3125 6.890625 25.984375 6.890625 
Q 35.75 6.890625 40.890625 13.453125 
Q 46.046875 20.015625 46.78125 33.40625 
Q 43.953125 29.203125 39.59375 26.953125 
Q 35.25 24.703125 29.984375 24.703125 
Q 19.046875 24.703125 12.671875 31.3125 
Q 6.296875 37.9375 6.296875 49.421875 
Q 6.296875 60.640625 12.9375 67.421875 
Q 19.578125 74.21875 30.609375 74.21875 
Q 43.265625 74.21875 49.921875 64.515625 
Q 56.59375 54.828125 56.59375 36.375 
Q 56.59375 19.140625 48.40625 8.859375 
Q 40.234375 -1.421875 26.421875 -1.421875 
Q 22.703125 -1.421875 18.890625 -0.6875 
Q 15.09375 0.046875 10.984375 1.515625 
z
M 30.609375 32.421875 
Q 37.25 32.421875 41.125 36.953125 
Q 45.015625 41.5 45.015625 49.421875 
Q 45.015625 57.28125 41.125 61.84375 
Q 37.25 66.40625 30.609375 66.40625 
Q 23.96875 66.40625 20.09375 61.84375 
Q 16.21875 57.28125 16.21875 49.421875 
Q 16.21875 41.5 20.09375 36.953125 
Q 23.96875 32.421875 30.609375 32.421875 
z
" id="DejaVuSans-39"/>
      </defs>
      <g transform="translate(40.1 106.765989)scale(0.15 -0.15)">
       <use xlink:href="#DejaVuSans-39"/>
      </g>
     </g>
    </g>
    <g id="ytick_6">
     <g id="line2d_27">
      <path clip-path="url(#p938744085f)" d="M 59.14375 58.172587 
L 423.056793 58.172587 
" style="fill:none;stroke:#b0b0b0;stroke-linecap:square;stroke-width:0.8;"/>
     </g>
     <g id="line2d_28">
      <g>
       <use x="59.14375" xlink:href="#m74ca7e81db" y="58.172587"/>
      </g>
     </g>
     <g id="text_15">
      <!-- 10 -->
      <g transform="translate(30.55625 63.871416)scale(0.15 -0.15)">
       <use xlink:href="#DejaVuSans-31"/>
       <use x="63.623047" xlink:href="#DejaVuSans-30"/>
      </g>
     </g>
    </g>
    <g id="ytick_7">
     <g id="line2d_29">
      <path clip-path="url(#p938744085f)" d="M 59.14375 15.278014 
L 423.056793 15.278014 
" style="fill:none;stroke:#b0b0b0;stroke-linecap:square;stroke-width:0.8;"/>
     </g>
     <g id="line2d_30">
      <g>
       <use x="59.14375" xlink:href="#m74ca7e81db" y="15.278014"/>
      </g>
     </g>
     <g id="text_16">
      <!-- 11 -->
      <g transform="translate(30.55625 20.976842)scale(0.15 -0.15)">
       <use xlink:href="#DejaVuSans-31"/>
       <use x="63.623047" xlink:href="#DejaVuSans-31"/>
      </g>
     </g>
    </g>
    <g id="text_17">
     <!-- $\langle r\rangle$ -->
     <defs>
      <path d="M 8.9375 31.34375 
L 22.703125 75.875 
L 31 75.875 
L 17.234375 31.34375 
L 31 -13.1875 
L 22.703125 -13.1875 
z
" id="DejaVuSans-27e8"/>
      <path d="M 44.578125 46.390625 
Q 43.21875 47.125 41.453125 47.515625 
Q 39.703125 47.90625 37.703125 47.90625 
Q 30.515625 47.90625 25.140625 42.453125 
Q 19.78125 37.015625 18.015625 27.875 
L 12.5 0 
L 3.515625 0 
L 14.203125 54.6875 
L 23.1875 54.6875 
L 21.484375 46.1875 
Q 25.046875 50.921875 30 53.453125 
Q 34.96875 56 40.578125 56 
Q 42.046875 56 43.453125 55.828125 
Q 44.875 55.671875 46.296875 55.28125 
z
" id="DejaVuSans-Oblique-72"/>
      <path d="M 30.078125 31.34375 
L 16.3125 -13.1875 
L 8.015625 -13.1875 
L 21.78125 31.34375 
L 8.015625 75.875 
L 16.3125 75.875 
z
" id="DejaVuSans-27e9"/>
     </defs>
     <g transform="translate(22.396875 161.1)rotate(-90)scale(0.2 -0.2)">
      <use transform="translate(0 0.125)" xlink:href="#DejaVuSans-27e8"/>
      <use transform="translate(39.013672 0.125)" xlink:href="#DejaVuSans-Oblique-72"/>
      <use transform="translate(80.126953 0.125)" xlink:href="#DejaVuSans-27e9"/>
     </g>
    </g>
   </g>
   <g id="line2d_31">
    <path clip-path="url(#p938744085f)" d="M 59.14375 272.645455 
L 64.342508 198.799459 
L 69.541266 146.186824 
L 74.740023 113.881758 
L 79.938781 87.107294 
L 85.137539 77.088116 
L 90.336297 68.195439 
L 95.535054 68.920582 
L 100.733812 65.26818 
L 105.93257 58.130303 
L 111.131328 58.194051 
L 116.330085 58.582215 
L 121.528843 58.097307 
L 126.727601 56.115027 
L 131.926359 56.037776 
L 137.125116 55.484839 
L 142.323874 50.585856 
L 147.522632 56.272732 
L 152.72139 60.673485 
L 157.920148 60.900197 
L 163.118905 63.277061 
L 168.317663 66.64666 
L 173.516421 68.632391 
L 178.715179 63.984789 
L 183.913936 56.862668 
L 189.112694 54.76827 
L 194.311452 51.388866 
L 199.51021 55.622518 
L 204.708967 53.184002 
L 209.907725 60.153132 
L 215.106483 59.97418 
L 220.305241 61.909052 
L 225.503998 63.063782 
L 230.702756 65.861861 
L 235.901514 65.050622 
L 241.100272 62.491311 
L 246.29903 56.164467 
L 251.497787 57.87352 
L 256.696545 56.303593 
L 261.895303 57.888949 
L 267.094061 62.893691 
L 272.292818 64.285361 
L 277.491576 59.446285 
L 282.690334 55.662093 
L 287.889092 61.694171 
L 293.087849 59.992793 
L 298.286607 67.155428 
L 303.485365 63.42181 
L 308.684123 55.903252 
L 313.88288 59.756613 
L 319.081638 57.411228 
L 324.280396 57.861821 
L 329.479154 62.340281 
L 334.677911 65.343597 
L 339.876669 60.832709 
L 345.075427 57.983361 
L 350.274185 55.73997 
L 355.472943 58.767979 
L 360.6717 57.347563 
L 365.870458 57.495302 
L 371.069216 59.159182 
L 376.267974 55.51803 
L 381.466731 55.049276 
L 386.665489 55.387719 
L 391.864247 53.563106 
L 397.063005 48.956084 
L 402.261762 54.908661 
L 407.46052 53.246095 
L 412.659278 54.304961 
L 417.858036 54.363375 
" style="fill:none;stroke:#1f77b4;stroke-linecap:square;stroke-width:3;"/>
   </g>
   <g id="line2d_32">
    <path clip-path="url(#p938744085f)" d="M 59.14375 272.645455 
L 64.342508 192.181038 
L 69.541266 140.529056 
L 74.740023 104.675167 
L 79.938781 93.22568 
L 85.137539 68.236157 
L 90.336297 65.359061 
L 95.535054 54.365737 
L 100.733812 57.827968 
L 105.93257 63.129292 
L 111.131328 55.953917 
L 116.330085 54.255393 
L 121.528843 54.561698 
L 126.727601 56.759586 
L 131.926359 44.979331 
L 137.125116 41.784835 
L 142.323874 64.576791 
L 147.522632 51.985898 
L 152.72139 47.530538 
L 157.920148 42.137413 
L 163.118905 45.092813 
L 168.317663 46.987932 
L 173.516421 41.334969 
L 178.715179 53.020647 
L 183.913936 54.577938 
L 189.112694 55.228939 
L 194.311452 57.093055 
L 199.51021 54.533111 
L 204.708967 49.483278 
L 209.907725 57.675988 
L 215.106483 68.334594 
L 220.305241 61.923514 
L 225.503998 59.774742 
L 230.702756 56.543517 
L 235.901514 55.511611 
L 241.100272 56.599762 
L 246.29903 58.370869 
L 251.497787 60.475143 
L 256.696545 53.904698 
L 261.895303 56.860714 
L 267.094061 58.903026 
L 272.292818 59.880692 
L 277.491576 64.392615 
L 282.690334 63.546538 
L 287.889092 58.387698 
L 293.087849 55.069966 
L 298.286607 52.732263 
L 303.485365 53.213185 
L 308.684123 56.397114 
L 313.88288 57.944164 
L 319.081638 57.718736 
L 324.280396 61.222618 
L 329.479154 60.666323 
L 334.677911 62.244553 
L 339.876669 57.808942 
L 345.075427 60.09431 
L 350.274185 58.595947 
L 355.472943 57.777874 
L 360.6717 57.769101 
L 365.870458 56.777308 
L 371.069216 54.71347 
L 376.267974 57.612704 
L 381.466731 59.21887 
L 386.665489 57.183949 
L 391.864247 58.207186 
L 397.063005 57.92176 
L 402.261762 57.53796 
L 407.46052 59.386507 
L 412.659278 59.178481 
L 417.858036 57.501118 
" style="fill:none;stroke:#ff7f0e;stroke-linecap:square;stroke-width:3;"/>
   </g>
   <g id="line2d_33">
    <path clip-path="url(#p938744085f)" d="M 59.14375 272.645455 
L 64.342508 186.952932 
L 69.541266 132.370323 
L 74.740023 103.632632 
L 79.938781 98.755997 
L 85.137539 79.772414 
L 90.336297 69.530249 
L 95.535054 54.653239 
L 100.733812 57.327028 
L 105.93257 62.401986 
L 111.131328 53.990384 
L 116.330085 54.676731 
L 121.528843 53.091714 
L 126.727601 51.611798 
L 131.926359 43.201371 
L 137.125116 40.715425 
L 142.323874 61.339466 
L 147.522632 49.436113 
L 152.72139 42.438982 
L 157.920148 39.3204 
L 163.118905 42.985117 
L 168.317663 47.560189 
L 173.516421 43.863302 
L 178.715179 51.972516 
L 183.913936 53.87096 
L 189.112694 54.38594 
L 194.311452 54.559684 
L 199.51021 50.39375 
L 204.708967 48.969489 
L 209.907725 56.498994 
L 215.106483 66.272075 
L 220.305241 61.650686 
L 225.503998 59.897949 
L 230.702756 56.176967 
L 235.901514 55.769915 
L 241.100272 56.798818 
L 246.29903 56.804795 
L 251.497787 58.70261 
L 256.696545 53.151842 
L 261.895303 56.265649 
L 267.094061 57.069622 
L 272.292818 58.602429 
L 277.491576 62.785383 
L 282.690334 63.012311 
L 287.889092 57.925674 
L 293.087849 54.632614 
L 298.286607 51.838674 
L 303.485365 52.749447 
L 308.684123 56.286957 
L 313.88288 58.238888 
L 319.081638 58.542303 
L 324.280396 61.924547 
L 329.479154 61.412534 
L 334.677911 63.092722 
L 339.876669 58.758904 
L 345.075427 60.466283 
L 350.274185 58.559129 
L 355.472943 57.381431 
L 360.6717 57.155201 
L 365.870458 56.148625 
L 371.069216 54.666466 
L 376.267974 57.348172 
L 381.466731 58.928065 
L 386.665489 57.042019 
L 391.864247 58.361221 
L 397.063005 57.822652 
L 402.261762 57.516627 
L 407.46052 59.447836 
L 412.659278 59.159344 
L 417.858036 57.333039 
" style="fill:none;stroke:#319000;stroke-linecap:square;stroke-width:3;"/>
   </g>
   <g id="patch_3">
    <path d="M 59.14375 285 
L 59.14375 13.2 
" style="fill:none;stroke:#000000;stroke-linecap:square;stroke-linejoin:miter;stroke-width:2;"/>
   </g>
   <g id="patch_4">
    <path d="M 423.056793 285 
L 423.056793 13.2 
" style="fill:none;"/>
   </g>
   <g id="patch_5">
    <path d="M 59.14375 285 
L 423.056793 285 
" style="fill:none;stroke:#000000;stroke-linecap:square;stroke-linejoin:miter;stroke-width:2;"/>
   </g>
   <g id="patch_6">
    <path d="M 59.14375 13.2 
L 423.056793 13.2 
" style="fill:none;"/>
   </g>
   <g id="legend_1">
    <g id="patch_7">
     <path d="M 69.64375 277.5 
L 279.683594 277.5 
Q 282.683594 277.5 282.683594 274.5 
L 282.683594 209.948438 
Q 282.683594 206.948438 279.683594 206.948438 
L 69.64375 206.948438 
Q 66.64375 206.948438 66.64375 209.948438 
L 66.64375 274.5 
Q 66.64375 277.5 69.64375 277.5 
z
" style="fill:#ffffff;opacity:0.8;stroke:#cccccc;stroke-linejoin:miter;"/>
    </g>
    <g id="line2d_34">
     <path d="M 72.64375 219.096094 
L 102.64375 219.096094 
" style="fill:none;stroke:#1f77b4;stroke-linecap:square;stroke-width:3;"/>
    </g>
    <g id="line2d_35"/>
    <g id="text_18">
     <!-- Single Lineage -->
     <defs>
      <path d="M 53.515625 70.515625 
L 53.515625 60.890625 
Q 47.90625 63.578125 42.921875 64.890625 
Q 37.9375 66.21875 33.296875 66.21875 
Q 25.25 66.21875 20.875 63.09375 
Q 16.5 59.96875 16.5 54.203125 
Q 16.5 49.359375 19.40625 46.890625 
Q 22.3125 44.4375 30.421875 42.921875 
L 36.375 41.703125 
Q 47.40625 39.59375 52.65625 34.296875 
Q 57.90625 29 57.90625 20.125 
Q 57.90625 9.515625 50.796875 4.046875 
Q 43.703125 -1.421875 29.984375 -1.421875 
Q 24.8125 -1.421875 18.96875 -0.25 
Q 13.140625 0.921875 6.890625 3.21875 
L 6.890625 13.375 
Q 12.890625 10.015625 18.65625 8.296875 
Q 24.421875 6.59375 29.984375 6.59375 
Q 38.421875 6.59375 43.015625 9.90625 
Q 47.609375 13.234375 47.609375 19.390625 
Q 47.609375 24.75 44.3125 27.78125 
Q 41.015625 30.8125 33.5 32.328125 
L 27.484375 33.5 
Q 16.453125 35.6875 11.515625 40.375 
Q 6.59375 45.0625 6.59375 53.421875 
Q 6.59375 63.09375 13.40625 68.65625 
Q 20.21875 74.21875 32.171875 74.21875 
Q 37.3125 74.21875 42.625 73.28125 
Q 47.953125 72.359375 53.515625 70.515625 
z
" id="DejaVuSans-53"/>
      <path d="M 9.421875 54.6875 
L 18.40625 54.6875 
L 18.40625 0 
L 9.421875 0 
z
M 9.421875 75.984375 
L 18.40625 75.984375 
L 18.40625 64.59375 
L 9.421875 64.59375 
z
" id="DejaVuSans-69"/>
      <path d="M 54.890625 33.015625 
L 54.890625 0 
L 45.90625 0 
L 45.90625 32.71875 
Q 45.90625 40.484375 42.875 44.328125 
Q 39.84375 48.1875 33.796875 48.1875 
Q 26.515625 48.1875 22.3125 43.546875 
Q 18.109375 38.921875 18.109375 30.90625 
L 18.109375 0 
L 9.078125 0 
L 9.078125 54.6875 
L 18.109375 54.6875 
L 18.109375 46.1875 
Q 21.34375 51.125 25.703125 53.5625 
Q 30.078125 56 35.796875 56 
Q 45.21875 56 50.046875 50.171875 
Q 54.890625 44.34375 54.890625 33.015625 
z
" id="DejaVuSans-6e"/>
      <path d="M 45.40625 27.984375 
Q 45.40625 37.75 41.375 43.109375 
Q 37.359375 48.484375 30.078125 48.484375 
Q 22.859375 48.484375 18.828125 43.109375 
Q 14.796875 37.75 14.796875 27.984375 
Q 14.796875 18.265625 18.828125 12.890625 
Q 22.859375 7.515625 30.078125 7.515625 
Q 37.359375 7.515625 41.375 12.890625 
Q 45.40625 18.265625 45.40625 27.984375 
z
M 54.390625 6.78125 
Q 54.390625 -7.171875 48.1875 -13.984375 
Q 42 -20.796875 29.203125 -20.796875 
Q 24.46875 -20.796875 20.265625 -20.09375 
Q 16.0625 -19.390625 12.109375 -17.921875 
L 12.109375 -9.1875 
Q 16.0625 -11.328125 19.921875 -12.34375 
Q 23.78125 -13.375 27.78125 -13.375 
Q 36.625 -13.375 41.015625 -8.765625 
Q 45.40625 -4.15625 45.40625 5.171875 
L 45.40625 9.625 
Q 42.625 4.78125 38.28125 2.390625 
Q 33.9375 0 27.875 0 
Q 17.828125 0 11.671875 7.65625 
Q 5.515625 15.328125 5.515625 27.984375 
Q 5.515625 40.671875 11.671875 48.328125 
Q 17.828125 56 27.875 56 
Q 33.9375 56 38.28125 53.609375 
Q 42.625 51.21875 45.40625 46.390625 
L 45.40625 54.6875 
L 54.390625 54.6875 
z
" id="DejaVuSans-67"/>
      <path d="M 9.421875 75.984375 
L 18.40625 75.984375 
L 18.40625 0 
L 9.421875 0 
z
" id="DejaVuSans-6c"/>
      <path d="M 56.203125 29.59375 
L 56.203125 25.203125 
L 14.890625 25.203125 
Q 15.484375 15.921875 20.484375 11.0625 
Q 25.484375 6.203125 34.421875 6.203125 
Q 39.59375 6.203125 44.453125 7.46875 
Q 49.3125 8.734375 54.109375 11.28125 
L 54.109375 2.78125 
Q 49.265625 0.734375 44.1875 -0.34375 
Q 39.109375 -1.421875 33.890625 -1.421875 
Q 20.796875 -1.421875 13.15625 6.1875 
Q 5.515625 13.8125 5.515625 26.8125 
Q 5.515625 40.234375 12.765625 48.109375 
Q 20.015625 56 32.328125 56 
Q 43.359375 56 49.78125 48.890625 
Q 56.203125 41.796875 56.203125 29.59375 
z
M 47.21875 32.234375 
Q 47.125 39.59375 43.09375 43.984375 
Q 39.0625 48.390625 32.421875 48.390625 
Q 24.90625 48.390625 20.390625 44.140625 
Q 15.875 39.890625 15.1875 32.171875 
z
" id="DejaVuSans-65"/>
      <path id="DejaVuSans-20"/>
      <path d="M 9.8125 72.90625 
L 19.671875 72.90625 
L 19.671875 8.296875 
L 55.171875 8.296875 
L 55.171875 0 
L 9.8125 0 
z
" id="DejaVuSans-4c"/>
      <path d="M 34.28125 27.484375 
Q 23.390625 27.484375 19.1875 25 
Q 14.984375 22.515625 14.984375 16.5 
Q 14.984375 11.71875 18.140625 8.90625 
Q 21.296875 6.109375 26.703125 6.109375 
Q 34.1875 6.109375 38.703125 11.40625 
Q 43.21875 16.703125 43.21875 25.484375 
L 43.21875 27.484375 
z
M 52.203125 31.203125 
L 52.203125 0 
L 43.21875 0 
L 43.21875 8.296875 
Q 40.140625 3.328125 35.546875 0.953125 
Q 30.953125 -1.421875 24.3125 -1.421875 
Q 15.921875 -1.421875 10.953125 3.296875 
Q 6 8.015625 6 15.921875 
Q 6 25.140625 12.171875 29.828125 
Q 18.359375 34.515625 30.609375 34.515625 
L 43.21875 34.515625 
L 43.21875 35.40625 
Q 43.21875 41.609375 39.140625 45 
Q 35.0625 48.390625 27.6875 48.390625 
Q 23 48.390625 18.546875 47.265625 
Q 14.109375 46.140625 10.015625 43.890625 
L 10.015625 52.203125 
Q 14.9375 54.109375 19.578125 55.046875 
Q 24.21875 56 28.609375 56 
Q 40.484375 56 46.34375 49.84375 
Q 52.203125 43.703125 52.203125 31.203125 
z
" id="DejaVuSans-61"/>
     </defs>
     <g transform="translate(114.64375 224.346094)scale(0.15 -0.15)">
      <use xlink:href="#DejaVuSans-53"/>
      <use x="63.476562" xlink:href="#DejaVuSans-69"/>
      <use x="91.259766" xlink:href="#DejaVuSans-6e"/>
      <use x="154.638672" xlink:href="#DejaVuSans-67"/>
      <use x="218.115234" xlink:href="#DejaVuSans-6c"/>
      <use x="245.898438" xlink:href="#DejaVuSans-65"/>
      <use x="307.421875" xlink:href="#DejaVuSans-20"/>
      <use x="339.208984" xlink:href="#DejaVuSans-4c"/>
      <use x="394.921875" xlink:href="#DejaVuSans-69"/>
      <use x="422.705078" xlink:href="#DejaVuSans-6e"/>
      <use x="486.083984" xlink:href="#DejaVuSans-65"/>
      <use x="547.607422" xlink:href="#DejaVuSans-61"/>
      <use x="608.886719" xlink:href="#DejaVuSans-67"/>
      <use x="672.363281" xlink:href="#DejaVuSans-65"/>
     </g>
    </g>
    <g id="line2d_36">
     <path d="M 72.64375 241.113281 
L 102.64375 241.113281 
" style="fill:none;stroke:#ff7f0e;stroke-linecap:square;stroke-width:3;"/>
    </g>
    <g id="line2d_37"/>
    <g id="text_19">
     <!-- Population Snapshots -->
     <defs>
      <path d="M 19.671875 64.796875 
L 19.671875 37.40625 
L 32.078125 37.40625 
Q 38.96875 37.40625 42.71875 40.96875 
Q 46.484375 44.53125 46.484375 51.125 
Q 46.484375 57.671875 42.71875 61.234375 
Q 38.96875 64.796875 32.078125 64.796875 
z
M 9.8125 72.90625 
L 32.078125 72.90625 
Q 44.34375 72.90625 50.609375 67.359375 
Q 56.890625 61.8125 56.890625 51.125 
Q 56.890625 40.328125 50.609375 34.8125 
Q 44.34375 29.296875 32.078125 29.296875 
L 19.671875 29.296875 
L 19.671875 0 
L 9.8125 0 
z
" id="DejaVuSans-50"/>
      <path d="M 30.609375 48.390625 
Q 23.390625 48.390625 19.1875 42.75 
Q 14.984375 37.109375 14.984375 27.296875 
Q 14.984375 17.484375 19.15625 11.84375 
Q 23.34375 6.203125 30.609375 6.203125 
Q 37.796875 6.203125 41.984375 11.859375 
Q 46.1875 17.53125 46.1875 27.296875 
Q 46.1875 37.015625 41.984375 42.703125 
Q 37.796875 48.390625 30.609375 48.390625 
z
M 30.609375 56 
Q 42.328125 56 49.015625 48.375 
Q 55.71875 40.765625 55.71875 27.296875 
Q 55.71875 13.875 49.015625 6.21875 
Q 42.328125 -1.421875 30.609375 -1.421875 
Q 18.84375 -1.421875 12.171875 6.21875 
Q 5.515625 13.875 5.515625 27.296875 
Q 5.515625 40.765625 12.171875 48.375 
Q 18.84375 56 30.609375 56 
z
" id="DejaVuSans-6f"/>
      <path d="M 18.109375 8.203125 
L 18.109375 -20.796875 
L 9.078125 -20.796875 
L 9.078125 54.6875 
L 18.109375 54.6875 
L 18.109375 46.390625 
Q 20.953125 51.265625 25.265625 53.625 
Q 29.59375 56 35.59375 56 
Q 45.5625 56 51.78125 48.09375 
Q 58.015625 40.1875 58.015625 27.296875 
Q 58.015625 14.40625 51.78125 6.484375 
Q 45.5625 -1.421875 35.59375 -1.421875 
Q 29.59375 -1.421875 25.265625 0.953125 
Q 20.953125 3.328125 18.109375 8.203125 
z
M 48.6875 27.296875 
Q 48.6875 37.203125 44.609375 42.84375 
Q 40.53125 48.484375 33.40625 48.484375 
Q 26.265625 48.484375 22.1875 42.84375 
Q 18.109375 37.203125 18.109375 27.296875 
Q 18.109375 17.390625 22.1875 11.75 
Q 26.265625 6.109375 33.40625 6.109375 
Q 40.53125 6.109375 44.609375 11.75 
Q 48.6875 17.390625 48.6875 27.296875 
z
" id="DejaVuSans-70"/>
      <path d="M 8.5 21.578125 
L 8.5 54.6875 
L 17.484375 54.6875 
L 17.484375 21.921875 
Q 17.484375 14.15625 20.5 10.265625 
Q 23.53125 6.390625 29.59375 6.390625 
Q 36.859375 6.390625 41.078125 11.03125 
Q 45.3125 15.671875 45.3125 23.6875 
L 45.3125 54.6875 
L 54.296875 54.6875 
L 54.296875 0 
L 45.3125 0 
L 45.3125 8.40625 
Q 42.046875 3.421875 37.71875 1 
Q 33.40625 -1.421875 27.6875 -1.421875 
Q 18.265625 -1.421875 13.375 4.4375 
Q 8.5 10.296875 8.5 21.578125 
z
M 31.109375 56 
z
" id="DejaVuSans-75"/>
      <path d="M 18.3125 70.21875 
L 18.3125 54.6875 
L 36.8125 54.6875 
L 36.8125 47.703125 
L 18.3125 47.703125 
L 18.3125 18.015625 
Q 18.3125 11.328125 20.140625 9.421875 
Q 21.96875 7.515625 27.59375 7.515625 
L 36.8125 7.515625 
L 36.8125 0 
L 27.59375 0 
Q 17.1875 0 13.234375 3.875 
Q 9.28125 7.765625 9.28125 18.015625 
L 9.28125 47.703125 
L 2.6875 47.703125 
L 2.6875 54.6875 
L 9.28125 54.6875 
L 9.28125 70.21875 
z
" id="DejaVuSans-74"/>
      <path d="M 44.28125 53.078125 
L 44.28125 44.578125 
Q 40.484375 46.53125 36.375 47.5 
Q 32.28125 48.484375 27.875 48.484375 
Q 21.1875 48.484375 17.84375 46.4375 
Q 14.5 44.390625 14.5 40.28125 
Q 14.5 37.15625 16.890625 35.375 
Q 19.28125 33.59375 26.515625 31.984375 
L 29.59375 31.296875 
Q 39.15625 29.25 43.1875 25.515625 
Q 47.21875 21.78125 47.21875 15.09375 
Q 47.21875 7.46875 41.1875 3.015625 
Q 35.15625 -1.421875 24.609375 -1.421875 
Q 20.21875 -1.421875 15.453125 -0.5625 
Q 10.6875 0.296875 5.421875 2 
L 5.421875 11.28125 
Q 10.40625 8.6875 15.234375 7.390625 
Q 20.0625 6.109375 24.8125 6.109375 
Q 31.15625 6.109375 34.5625 8.28125 
Q 37.984375 10.453125 37.984375 14.40625 
Q 37.984375 18.0625 35.515625 20.015625 
Q 33.0625 21.96875 24.703125 23.78125 
L 21.578125 24.515625 
Q 13.234375 26.265625 9.515625 29.90625 
Q 5.8125 33.546875 5.8125 39.890625 
Q 5.8125 47.609375 11.28125 51.796875 
Q 16.75 56 26.8125 56 
Q 31.78125 56 36.171875 55.265625 
Q 40.578125 54.546875 44.28125 53.078125 
z
" id="DejaVuSans-73"/>
      <path d="M 54.890625 33.015625 
L 54.890625 0 
L 45.90625 0 
L 45.90625 32.71875 
Q 45.90625 40.484375 42.875 44.328125 
Q 39.84375 48.1875 33.796875 48.1875 
Q 26.515625 48.1875 22.3125 43.546875 
Q 18.109375 38.921875 18.109375 30.90625 
L 18.109375 0 
L 9.078125 0 
L 9.078125 75.984375 
L 18.109375 75.984375 
L 18.109375 46.1875 
Q 21.34375 51.125 25.703125 53.5625 
Q 30.078125 56 35.796875 56 
Q 45.21875 56 50.046875 50.171875 
Q 54.890625 44.34375 54.890625 33.015625 
z
" id="DejaVuSans-68"/>
     </defs>
     <g transform="translate(114.64375 246.363281)scale(0.15 -0.15)">
      <use xlink:href="#DejaVuSans-50"/>
      <use x="60.255859" xlink:href="#DejaVuSans-6f"/>
      <use x="121.4375" xlink:href="#DejaVuSans-70"/>
      <use x="184.914062" xlink:href="#DejaVuSans-75"/>
      <use x="248.292969" xlink:href="#DejaVuSans-6c"/>
      <use x="276.076172" xlink:href="#DejaVuSans-61"/>
      <use x="337.355469" xlink:href="#DejaVuSans-74"/>
      <use x="376.564453" xlink:href="#DejaVuSans-69"/>
      <use x="404.347656" xlink:href="#DejaVuSans-6f"/>
      <use x="465.529297" xlink:href="#DejaVuSans-6e"/>
      <use x="528.908203" xlink:href="#DejaVuSans-20"/>
      <use x="560.695312" xlink:href="#DejaVuSans-53"/>
      <use x="624.171875" xlink:href="#DejaVuSans-6e"/>
      <use x="687.550781" xlink:href="#DejaVuSans-61"/>
      <use x="748.830078" xlink:href="#DejaVuSans-70"/>
      <use x="812.306641" xlink:href="#DejaVuSans-73"/>
      <use x="864.40625" xlink:href="#DejaVuSans-68"/>
      <use x="927.785156" xlink:href="#DejaVuSans-6f"/>
      <use x="988.966797" xlink:href="#DejaVuSans-74"/>
      <use x="1028.175781" xlink:href="#DejaVuSans-73"/>
     </g>
    </g>
    <g id="line2d_38">
     <path d="M 72.64375 263.130469 
L 102.64375 263.130469 
" style="fill:none;stroke:#319000;stroke-linecap:square;stroke-width:3;"/>
    </g>
    <g id="line2d_39"/>
    <g id="text_20">
     <!-- Lineage Tracking -->
     <defs>
      <path d="M -0.296875 72.90625 
L 61.375 72.90625 
L 61.375 64.59375 
L 35.5 64.59375 
L 35.5 0 
L 25.59375 0 
L 25.59375 64.59375 
L -0.296875 64.59375 
z
" id="DejaVuSans-54"/>
      <path d="M 41.109375 46.296875 
Q 39.59375 47.171875 37.8125 47.578125 
Q 36.03125 48 33.890625 48 
Q 26.265625 48 22.1875 43.046875 
Q 18.109375 38.09375 18.109375 28.8125 
L 18.109375 0 
L 9.078125 0 
L 9.078125 54.6875 
L 18.109375 54.6875 
L 18.109375 46.1875 
Q 20.953125 51.171875 25.484375 53.578125 
Q 30.03125 56 36.53125 56 
Q 37.453125 56 38.578125 55.875 
Q 39.703125 55.765625 41.0625 55.515625 
z
" id="DejaVuSans-72"/>
      <path d="M 48.78125 52.59375 
L 48.78125 44.1875 
Q 44.96875 46.296875 41.140625 47.34375 
Q 37.3125 48.390625 33.40625 48.390625 
Q 24.65625 48.390625 19.8125 42.84375 
Q 14.984375 37.3125 14.984375 27.296875 
Q 14.984375 17.28125 19.8125 11.734375 
Q 24.65625 6.203125 33.40625 6.203125 
Q 37.3125 6.203125 41.140625 7.25 
Q 44.96875 8.296875 48.78125 10.40625 
L 48.78125 2.09375 
Q 45.015625 0.34375 40.984375 -0.53125 
Q 36.96875 -1.421875 32.421875 -1.421875 
Q 20.0625 -1.421875 12.78125 6.34375 
Q 5.515625 14.109375 5.515625 27.296875 
Q 5.515625 40.671875 12.859375 48.328125 
Q 20.21875 56 33.015625 56 
Q 37.15625 56 41.109375 55.140625 
Q 45.0625 54.296875 48.78125 52.59375 
z
" id="DejaVuSans-63"/>
      <path d="M 9.078125 75.984375 
L 18.109375 75.984375 
L 18.109375 31.109375 
L 44.921875 54.6875 
L 56.390625 54.6875 
L 27.390625 29.109375 
L 57.625 0 
L 45.90625 0 
L 18.109375 26.703125 
L 18.109375 0 
L 9.078125 0 
z
" id="DejaVuSans-6b"/>
     </defs>
     <g transform="translate(114.64375 268.380469)scale(0.15 -0.15)">
      <use xlink:href="#DejaVuSans-4c"/>
      <use x="55.712891" xlink:href="#DejaVuSans-69"/>
      <use x="83.496094" xlink:href="#DejaVuSans-6e"/>
      <use x="146.875" xlink:href="#DejaVuSans-65"/>
      <use x="208.398438" xlink:href="#DejaVuSans-61"/>
      <use x="269.677734" xlink:href="#DejaVuSans-67"/>
      <use x="333.154297" xlink:href="#DejaVuSans-65"/>
      <use x="394.677734" xlink:href="#DejaVuSans-20"/>
      <use x="426.464844" xlink:href="#DejaVuSans-54"/>
      <use x="487.330078" xlink:href="#DejaVuSans-72"/>
      <use x="528.443359" xlink:href="#DejaVuSans-61"/>
      <use x="589.722656" xlink:href="#DejaVuSans-63"/>
      <use x="644.703125" xlink:href="#DejaVuSans-6b"/>
      <use x="702.613281" xlink:href="#DejaVuSans-69"/>
      <use x="730.396484" xlink:href="#DejaVuSans-6e"/>
      <use x="793.775391" xlink:href="#DejaVuSans-67"/>
     </g>
    </g>
   </g>
  </g>
  <g id="axes_2">
   <g id="patch_8">
    <path d="M 532.230707 285 
L 896.14375 285 
L 896.14375 13.2 
L 532.230707 13.2 
z
" style="fill:#ffffff;"/>
   </g>
   <g id="PolyCollection_4">
    <defs>
     <path d="M 532.230707 -66.927983 
L 532.230707 -66.927983 
L 537.429464 -157.528122 
L 542.628222 -183.799774 
L 547.82698 -172.135394 
L 553.025738 -173.831032 
L 558.224495 -192.194369 
L 563.423253 -187.129138 
L 568.622011 -195.876086 
L 573.820769 -228.76294 
L 579.019526 -167.791501 
L 584.218284 -188.793931 
L 589.417042 -176.496547 
L 594.6158 -179.923326 
L 599.814557 -201.905814 
L 605.013315 -186.302729 
L 610.212073 -192.714349 
L 615.410831 -190.777499 
L 620.609589 -197.733726 
L 625.808346 -185.44102 
L 631.007104 -193.577552 
L 636.205862 -185.285185 
L 641.40462 -195.793579 
L 646.603377 -188.680147 
L 651.802135 -192.705981 
L 657.000893 -210.447301 
L 662.199651 -205.569372 
L 667.398408 -201.678049 
L 672.597166 -214.502813 
L 677.795924 -219.724641 
L 682.994682 -220.373386 
L 688.193439 -213.127703 
L 693.392197 -226.003847 
L 698.590955 -215.58644 
L 703.789713 -220.8125 
L 708.98847 -217.005935 
L 714.187228 -210.011053 
L 719.385986 -200.680203 
L 724.584744 -216.236233 
L 729.783502 -218.857689 
L 734.982259 -215.680725 
L 740.181017 -213.187449 
L 745.379775 -220.791905 
L 750.578533 -219.787703 
L 755.77729 -225.395464 
L 760.976048 -226.278514 
L 766.174806 -228.270459 
L 771.373564 -220.418631 
L 776.572321 -218.658428 
L 781.771079 -209.798338 
L 786.969837 -220.989929 
L 792.168595 -216.190228 
L 797.367352 -220.416095 
L 802.56611 -217.330421 
L 807.764868 -219.513682 
L 812.963626 -223.243797 
L 818.162384 -224.209511 
L 823.361141 -226.313506 
L 828.559899 -225.035259 
L 833.758657 -225.343621 
L 838.957415 -228.881904 
L 844.156172 -227.537429 
L 849.35493 -226.519086 
L 854.553688 -223.053726 
L 859.752446 -223.274798 
L 864.951203 -220.664455 
L 870.149961 -224.221365 
L 875.348719 -224.395001 
L 880.547477 -224.144231 
L 885.746234 -223.545879 
L 890.944992 -226.173472 
L 890.944992 -235.968434 
L 890.944992 -235.968434 
L 885.746234 -232.952176 
L 880.547477 -234.115003 
L 875.348719 -236.468418 
L 870.149961 -236.283199 
L 864.951203 -232.207917 
L 859.752446 -237.173446 
L 854.553688 -234.966806 
L 849.35493 -244.081795 
L 844.156172 -241.610408 
L 838.957415 -244.66491 
L 833.758657 -238.591418 
L 828.559899 -239.018619 
L 823.361141 -240.640061 
L 818.162384 -239.074395 
L 812.963626 -239.812941 
L 807.764868 -236.331022 
L 802.56611 -231.876344 
L 797.367352 -238.202516 
L 792.168595 -232.806213 
L 786.969837 -238.556636 
L 781.771079 -226.138599 
L 776.572321 -237.193819 
L 771.373564 -240.479418 
L 766.174806 -249.617559 
L 760.976048 -250.564667 
L 755.77729 -250.650512 
L 750.578533 -241.671839 
L 745.379775 -242.481846 
L 740.181017 -235.059267 
L 734.982259 -240.552556 
L 729.783502 -249.026684 
L 724.584744 -242.076048 
L 719.385986 -222.678247 
L 714.187228 -238.359934 
L 708.98847 -249.599843 
L 703.789713 -249.537305 
L 698.590955 -245.245147 
L 693.392197 -261.632298 
L 688.193439 -247.01262 
L 682.994682 -253.391057 
L 677.795924 -257.350903 
L 672.597166 -254.199501 
L 667.398408 -252.652758 
L 662.199651 -241.933869 
L 657.000893 -246.447749 
L 651.802135 -227.51981 
L 646.603377 -224.485737 
L 641.40462 -238.147411 
L 636.205862 -220.248724 
L 631.007104 -234.885925 
L 625.808346 -255.822522 
L 620.609589 -264.39758 
L 615.410831 -240.045366 
L 610.212073 -235.09816 
L 605.013315 -229.772426 
L 599.814557 -255.372719 
L 594.6158 -224.253838 
L 589.417042 -227.599918 
L 584.218284 -247.317674 
L 579.019526 -225.163937 
L 573.820769 -314.018892 
L 568.622011 -270.440883 
L 563.423253 -250.555986 
L 558.224495 -249.253815 
L 553.025738 -217.707998 
L 547.82698 -228.831357 
L 542.628222 -254.626043 
L 537.429464 -223.991002 
L 532.230707 -66.927983 
z
" id="m43d8017602"/>
    </defs>
    <g clip-path="url(#p3e26b55088)">
     <use style="fill:#ffa035;" x="0" xlink:href="#m43d8017602" y="339.573438"/>
    </g>
   </g>
   <g id="PolyCollection_5">
    <defs>
     <path d="M 532.230707 -66.927983 
L 532.230707 -66.927983 
L 537.429464 -167.746691 
L 542.628222 -181.175817 
L 547.82698 -180.854214 
L 553.025738 -179.830022 
L 558.224495 -176.744551 
L 563.423253 -172.844038 
L 568.622011 -173.969011 
L 573.820769 -169.216623 
L 579.019526 -165.921613 
L 584.218284 -167.659781 
L 589.417042 -171.871808 
L 594.6158 -169.370779 
L 599.814557 -175.954684 
L 605.013315 -173.575612 
L 610.212073 -169.398498 
L 615.410831 -165.261164 
L 620.609589 -169.61707 
L 625.808346 -165.105071 
L 631.007104 -165.545215 
L 636.205862 -163.981034 
L 641.40462 -171.380575 
L 646.603377 -163.095429 
L 651.802135 -165.40141 
L 657.000893 -165.733203 
L 662.199651 -164.730077 
L 667.398408 -162.607871 
L 672.597166 -167.203821 
L 677.795924 -166.305331 
L 682.994682 -166.714992 
L 688.193439 -167.871245 
L 693.392197 -167.577923 
L 698.590955 -171.083667 
L 703.789713 -174.081705 
L 708.98847 -166.134341 
L 714.187228 -168.45517 
L 719.385986 -159.308435 
L 724.584744 -164.43001 
L 729.783502 -170.688641 
L 734.982259 -171.521112 
L 740.181017 -174.545872 
L 745.379775 -173.213299 
L 750.578533 -171.46969 
L 755.77729 -162.12744 
L 760.976048 -167.356371 
L 766.174806 -165.468433 
L 771.373564 -166.919151 
L 776.572321 -163.384793 
L 781.771079 -160.256375 
L 786.969837 -157.453362 
L 792.168595 -163.758237 
L 797.367352 -161.885925 
L 802.56611 -158.44245 
L 807.764868 -158.073838 
L 812.963626 -160.211058 
L 818.162384 -162.285564 
L 823.361141 -158.767242 
L 828.559899 -166.571874 
L 833.758657 -165.315436 
L 838.957415 -167.09342 
L 844.156172 -170.155619 
L 849.35493 -161.630311 
L 854.553688 -161.319246 
L 859.752446 -165.51088 
L 864.951203 -161.848358 
L 870.149961 -170.244419 
L 875.348719 -176.393168 
L 880.547477 -172.09334 
L 885.746234 -174.056896 
L 890.944992 -161.915646 
L 890.944992 -182.189722 
L 890.944992 -182.189722 
L 885.746234 -198.912046 
L 880.547477 -192.512771 
L 875.348719 -199.948094 
L 870.149961 -192.867656 
L 864.951203 -181.254748 
L 859.752446 -183.564966 
L 854.553688 -180.981032 
L 849.35493 -186.290553 
L 844.156172 -196.515639 
L 838.957415 -208.258426 
L 833.758657 -195.193712 
L 828.559899 -189.634869 
L 823.361141 -176.617161 
L 818.162384 -180.310921 
L 812.963626 -178.404621 
L 807.764868 -175.074694 
L 802.56611 -176.981787 
L 797.367352 -181.296456 
L 792.168595 -183.089489 
L 786.969837 -175.118841 
L 781.771079 -179.71392 
L 776.572321 -181.153416 
L 771.373564 -185.671225 
L 766.174806 -184.017433 
L 760.976048 -187.175057 
L 755.77729 -181.097448 
L 750.578533 -195.601854 
L 745.379775 -194.055185 
L 740.181017 -197.000558 
L 734.982259 -193.079834 
L 729.783502 -199.492799 
L 724.584744 -184.901105 
L 719.385986 -178.453193 
L 714.187228 -186.465925 
L 708.98847 -186.733326 
L 703.789713 -199.369174 
L 698.590955 -192.394239 
L 693.392197 -191.236847 
L 688.193439 -188.879926 
L 682.994682 -186.942558 
L 677.795924 -186.315322 
L 672.597166 -190.798234 
L 667.398408 -181.895074 
L 662.199651 -184.185216 
L 657.000893 -185.758252 
L 651.802135 -186.450055 
L 646.603377 -184.357416 
L 641.40462 -191.73118 
L 636.205862 -183.717253 
L 631.007104 -186.005696 
L 625.808346 -184.93215 
L 620.609589 -191.020462 
L 615.410831 -185.43305 
L 610.212073 -190.595051 
L 605.013315 -193.024303 
L 599.814557 -199.507292 
L 594.6158 -189.544017 
L 589.417042 -193.073053 
L 584.218284 -190.808189 
L 579.019526 -189.771555 
L 573.820769 -198.538546 
L 568.622011 -194.507419 
L 563.423253 -193.635592 
L 558.224495 -197.5312 
L 553.025738 -199.027313 
L 547.82698 -203.947283 
L 542.628222 -202.344125 
L 537.429464 -185.568823 
L 532.230707 -66.927983 
z
" id="md0167694c2"/>
    </defs>
    <g clip-path="url(#p3e26b55088)">
     <use style="fill:#4db8ff;" x="0" xlink:href="#md0167694c2" y="339.573438"/>
    </g>
   </g>
   <g id="PolyCollection_6">
    <defs>
     <path d="M 532.230707 -66.927983 
L 532.230707 -66.927983 
L 537.429464 -73.501348 
L 542.628222 -78.716808 
L 547.82698 -81.31107 
L 553.025738 -81.805929 
L 558.224495 -88.686421 
L 563.423253 -103.491398 
L 568.622011 -109.70775 
L 573.820769 -100.729451 
L 579.019526 -100.616948 
L 584.218284 -111.771879 
L 589.417042 -114.327858 
L 594.6158 -125.039605 
L 599.814557 -133.332999 
L 605.013315 -119.044897 
L 610.212073 -135.760143 
L 615.410831 -140.437125 
L 620.609589 -146.931138 
L 625.808346 -140.113487 
L 631.007104 -148.946016 
L 636.205862 -147.301675 
L 641.40462 -147.504271 
L 646.603377 -149.584616 
L 651.802135 -149.313305 
L 657.000893 -169.557817 
L 662.199651 -165.896428 
L 667.398408 -162.527544 
L 672.597166 -173.286454 
L 677.795924 -179.256656 
L 682.994682 -187.06915 
L 688.193439 -183.843772 
L 693.392197 -192.789299 
L 698.590955 -185.658853 
L 703.789713 -191.510986 
L 708.98847 -194.842851 
L 714.187228 -188.70396 
L 719.385986 -185.752175 
L 724.584744 -199.228108 
L 729.783502 -201.716973 
L 734.982259 -199.502013 
L 740.181017 -194.976839 
L 745.379775 -206.946929 
L 750.578533 -205.923499 
L 755.77729 -209.434368 
L 760.976048 -211.731808 
L 766.174806 -214.347478 
L 771.373564 -208.228127 
L 776.572321 -206.213276 
L 781.771079 -200.204978 
L 786.969837 -211.558483 
L 792.168595 -209.400219 
L 797.367352 -211.907356 
L 802.56611 -209.1223 
L 807.764868 -209.699181 
L 812.963626 -214.039733 
L 818.162384 -216.629842 
L 823.361141 -219.648274 
L 828.559899 -218.967779 
L 833.758657 -219.614014 
L 838.957415 -223.289921 
L 844.156172 -221.17651 
L 849.35493 -219.803959 
L 854.553688 -218.548185 
L 859.752446 -217.003415 
L 864.951203 -215.814046 
L 870.149961 -221.394169 
L 875.348719 -220.69132 
L 880.547477 -222.229293 
L 885.746234 -221.658027 
L 890.944992 -223.399226 
L 890.944992 -233.701479 
L 890.944992 -233.701479 
L 885.746234 -231.060079 
L 880.547477 -231.185266 
L 875.348719 -233.21719 
L 870.149961 -233.660191 
L 864.951203 -229.00482 
L 859.752446 -233.139158 
L 854.553688 -231.937388 
L 849.35493 -239.298052 
L 844.156172 -238.554649 
L 838.957415 -239.74739 
L 833.758657 -233.626075 
L 828.559899 -235.853483 
L 823.361141 -236.000842 
L 818.162384 -233.71965 
L 812.963626 -232.327192 
L 807.764868 -227.449522 
L 802.56611 -224.137561 
L 797.367352 -230.248102 
L 792.168595 -225.725072 
L 786.969837 -230.407756 
L 781.771079 -217.058635 
L 776.572321 -227.247237 
L 771.373564 -229.243499 
L 766.174806 -238.385047 
L 760.976048 -234.459284 
L 755.77729 -237.712112 
L 750.578533 -227.183158 
L 745.379775 -229.945493 
L 740.181017 -218.364414 
L 734.982259 -227.377871 
L 729.783502 -231.861529 
L 724.584744 -224.412242 
L 719.385986 -211.484058 
L 714.187228 -217.558949 
L 708.98847 -224.06935 
L 703.789713 -222.007462 
L 698.590955 -218.097776 
L 693.392197 -225.965002 
L 688.193439 -212.563547 
L 682.994682 -218.620278 
L 677.795924 -214.285199 
L 672.597166 -209.816368 
L 667.398408 -196.752223 
L 662.199651 -194.837735 
L 657.000893 -201.286394 
L 651.802135 -178.902104 
L 646.603377 -180.727757 
L 641.40462 -179.468112 
L 636.205862 -177.460261 
L 631.007104 -179.364722 
L 625.808346 -181.413901 
L 620.609589 -186.394228 
L 615.410831 -179.099604 
L 610.212073 -171.717661 
L 605.013315 -146.603068 
L 599.814557 -170.683516 
L 594.6158 -155.500091 
L 589.417042 -151.35175 
L 584.218284 -150.004284 
L 579.019526 -148.120501 
L 573.820769 -208.950477 
L 568.622011 -149.764611 
L 563.423253 -141.724426 
L 558.224495 -122.730279 
L 553.025738 -104.139677 
L 547.82698 -108.63688 
L 542.628222 -103.99359 
L 537.429464 -124.87141 
L 532.230707 -66.927983 
z
" id="mf54842778d"/>
    </defs>
    <g clip-path="url(#p3e26b55088)">
     <use style="fill:#00c917;" x="0" xlink:href="#mf54842778d" y="339.573438"/>
    </g>
   </g>
   <g id="matplotlib.axis_3">
    <g id="xtick_9">
     <g id="line2d_40">
      <path clip-path="url(#p3e26b55088)" d="M 532.230707 285 
L 532.230707 13.2 
" style="fill:none;stroke:#b0b0b0;stroke-linecap:square;stroke-width:0.8;"/>
     </g>
     <g id="line2d_41">
      <g>
       <use x="532.230707" xlink:href="#m26f39d7fd8" y="285"/>
      </g>
     </g>
     <g id="text_21">
      <!-- 0 -->
      <g transform="translate(527.458832 305.897656)scale(0.15 -0.15)">
       <use xlink:href="#DejaVuSans-30"/>
      </g>
     </g>
    </g>
    <g id="xtick_10">
     <g id="line2d_42">
      <path clip-path="url(#p3e26b55088)" d="M 584.218284 285 
L 584.218284 13.2 
" style="fill:none;stroke:#b0b0b0;stroke-linecap:square;stroke-width:0.8;"/>
     </g>
     <g id="line2d_43">
      <g>
       <use x="584.218284" xlink:href="#m26f39d7fd8" y="285"/>
      </g>
     </g>
     <g id="text_22">
      <!-- 1 -->
      <g transform="translate(579.446409 305.897656)scale(0.15 -0.15)">
       <use xlink:href="#DejaVuSans-31"/>
      </g>
     </g>
    </g>
    <g id="xtick_11">
     <g id="line2d_44">
      <path clip-path="url(#p3e26b55088)" d="M 636.205862 285 
L 636.205862 13.2 
" style="fill:none;stroke:#b0b0b0;stroke-linecap:square;stroke-width:0.8;"/>
     </g>
     <g id="line2d_45">
      <g>
       <use x="636.205862" xlink:href="#m26f39d7fd8" y="285"/>
      </g>
     </g>
     <g id="text_23">
      <!-- 2 -->
      <g transform="translate(631.433987 305.897656)scale(0.15 -0.15)">
       <use xlink:href="#DejaVuSans-32"/>
      </g>
     </g>
    </g>
    <g id="xtick_12">
     <g id="line2d_46">
      <path clip-path="url(#p3e26b55088)" d="M 688.193439 285 
L 688.193439 13.2 
" style="fill:none;stroke:#b0b0b0;stroke-linecap:square;stroke-width:0.8;"/>
     </g>
     <g id="line2d_47">
      <g>
       <use x="688.193439" xlink:href="#m26f39d7fd8" y="285"/>
      </g>
     </g>
     <g id="text_24">
      <!-- 3 -->
      <g transform="translate(683.421564 305.897656)scale(0.15 -0.15)">
       <use xlink:href="#DejaVuSans-33"/>
      </g>
     </g>
    </g>
    <g id="xtick_13">
     <g id="line2d_48">
      <path clip-path="url(#p3e26b55088)" d="M 740.181017 285 
L 740.181017 13.2 
" style="fill:none;stroke:#b0b0b0;stroke-linecap:square;stroke-width:0.8;"/>
     </g>
     <g id="line2d_49">
      <g>
       <use x="740.181017" xlink:href="#m26f39d7fd8" y="285"/>
      </g>
     </g>
     <g id="text_25">
      <!-- 4 -->
      <g transform="translate(735.409142 305.897656)scale(0.15 -0.15)">
       <use xlink:href="#DejaVuSans-34"/>
      </g>
     </g>
    </g>
    <g id="xtick_14">
     <g id="line2d_50">
      <path clip-path="url(#p3e26b55088)" d="M 792.168595 285 
L 792.168595 13.2 
" style="fill:none;stroke:#b0b0b0;stroke-linecap:square;stroke-width:0.8;"/>
     </g>
     <g id="line2d_51">
      <g>
       <use x="792.168595" xlink:href="#m26f39d7fd8" y="285"/>
      </g>
     </g>
     <g id="text_26">
      <!-- 5 -->
      <g transform="translate(787.39672 305.897656)scale(0.15 -0.15)">
       <use xlink:href="#DejaVuSans-35"/>
      </g>
     </g>
    </g>
    <g id="xtick_15">
     <g id="line2d_52">
      <path clip-path="url(#p3e26b55088)" d="M 844.156172 285 
L 844.156172 13.2 
" style="fill:none;stroke:#b0b0b0;stroke-linecap:square;stroke-width:0.8;"/>
     </g>
     <g id="line2d_53">
      <g>
       <use x="844.156172" xlink:href="#m26f39d7fd8" y="285"/>
      </g>
     </g>
     <g id="text_27">
      <!-- 6 -->
      <g transform="translate(839.384297 305.897656)scale(0.15 -0.15)">
       <use xlink:href="#DejaVuSans-36"/>
      </g>
     </g>
    </g>
    <g id="xtick_16">
     <g id="line2d_54">
      <path clip-path="url(#p3e26b55088)" d="M 896.14375 285 
L 896.14375 13.2 
" style="fill:none;stroke:#b0b0b0;stroke-linecap:square;stroke-width:0.8;"/>
     </g>
     <g id="line2d_55">
      <g>
       <use x="896.14375" xlink:href="#m26f39d7fd8" y="285"/>
      </g>
     </g>
     <g id="text_28">
      <!-- 7 -->
      <g transform="translate(891.371875 305.897656)scale(0.15 -0.15)">
       <use xlink:href="#DejaVuSans-37"/>
      </g>
     </g>
    </g>
    <g id="text_29">
     <!-- $t/\tau$ -->
     <g transform="translate(700.787228 328.214063)scale(0.2 -0.2)">
      <use transform="translate(0 0.09375)" xlink:href="#DejaVuSans-Oblique-74"/>
      <use transform="translate(39.208984 0.09375)" xlink:href="#DejaVuSans-2f"/>
      <use transform="translate(72.900391 0.09375)" xlink:href="#DejaVuSans-Oblique-3c4"/>
     </g>
    </g>
   </g>
   <g id="matplotlib.axis_4">
    <g id="ytick_8">
     <g id="line2d_56">
      <path clip-path="url(#p3e26b55088)" d="M 532.230707 272.645455 
L 896.14375 272.645455 
" style="fill:none;stroke:#b0b0b0;stroke-linecap:square;stroke-width:0.8;"/>
     </g>
     <g id="line2d_57">
      <g>
       <use x="532.230707" xlink:href="#m74ca7e81db" y="272.645455"/>
      </g>
     </g>
     <g id="text_30">
      <!-- 0.00 -->
      <defs>
       <path d="M 10.6875 12.40625 
L 21 12.40625 
L 21 0 
L 10.6875 0 
z
" id="DejaVuSans-2e"/>
      </defs>
      <g transform="translate(489.332269 278.344283)scale(0.15 -0.15)">
       <use xlink:href="#DejaVuSans-30"/>
       <use x="63.623047" xlink:href="#DejaVuSans-2e"/>
       <use x="95.410156" xlink:href="#DejaVuSans-30"/>
       <use x="159.033203" xlink:href="#DejaVuSans-30"/>
      </g>
     </g>
    </g>
    <g id="ytick_9">
     <g id="line2d_58">
      <path clip-path="url(#p3e26b55088)" d="M 532.230707 218.12067 
L 896.14375 218.12067 
" style="fill:none;stroke:#b0b0b0;stroke-linecap:square;stroke-width:0.8;"/>
     </g>
     <g id="line2d_59">
      <g>
       <use x="532.230707" xlink:href="#m74ca7e81db" y="218.12067"/>
      </g>
     </g>
     <g id="text_31">
      <!-- 0.05 -->
      <g transform="translate(489.332269 223.819498)scale(0.15 -0.15)">
       <use xlink:href="#DejaVuSans-30"/>
       <use x="63.623047" xlink:href="#DejaVuSans-2e"/>
       <use x="95.410156" xlink:href="#DejaVuSans-30"/>
       <use x="159.033203" xlink:href="#DejaVuSans-35"/>
      </g>
     </g>
    </g>
    <g id="ytick_10">
     <g id="line2d_60">
      <path clip-path="url(#p3e26b55088)" d="M 532.230707 163.595885 
L 896.14375 163.595885 
" style="fill:none;stroke:#b0b0b0;stroke-linecap:square;stroke-width:0.8;"/>
     </g>
     <g id="line2d_61">
      <g>
       <use x="532.230707" xlink:href="#m74ca7e81db" y="163.595885"/>
      </g>
     </g>
     <g id="text_32">
      <!-- 0.10 -->
      <g transform="translate(489.332269 169.294714)scale(0.15 -0.15)">
       <use xlink:href="#DejaVuSans-30"/>
       <use x="63.623047" xlink:href="#DejaVuSans-2e"/>
       <use x="95.410156" xlink:href="#DejaVuSans-31"/>
       <use x="159.033203" xlink:href="#DejaVuSans-30"/>
      </g>
     </g>
    </g>
    <g id="ytick_11">
     <g id="line2d_62">
      <path clip-path="url(#p3e26b55088)" d="M 532.230707 109.071101 
L 896.14375 109.071101 
" style="fill:none;stroke:#b0b0b0;stroke-linecap:square;stroke-width:0.8;"/>
     </g>
     <g id="line2d_63">
      <g>
       <use x="532.230707" xlink:href="#m74ca7e81db" y="109.071101"/>
      </g>
     </g>
     <g id="text_33">
      <!-- 0.15 -->
      <g transform="translate(489.332269 114.769929)scale(0.15 -0.15)">
       <use xlink:href="#DejaVuSans-30"/>
       <use x="63.623047" xlink:href="#DejaVuSans-2e"/>
       <use x="95.410156" xlink:href="#DejaVuSans-31"/>
       <use x="159.033203" xlink:href="#DejaVuSans-35"/>
      </g>
     </g>
    </g>
    <g id="ytick_12">
     <g id="line2d_64">
      <path clip-path="url(#p3e26b55088)" d="M 532.230707 54.546316 
L 896.14375 54.546316 
" style="fill:none;stroke:#b0b0b0;stroke-linecap:square;stroke-width:0.8;"/>
     </g>
     <g id="line2d_65">
      <g>
       <use x="532.230707" xlink:href="#m74ca7e81db" y="54.546316"/>
      </g>
     </g>
     <g id="text_34">
      <!-- 0.20 -->
      <g transform="translate(489.332269 60.245144)scale(0.15 -0.15)">
       <use xlink:href="#DejaVuSans-30"/>
       <use x="63.623047" xlink:href="#DejaVuSans-2e"/>
       <use x="95.410156" xlink:href="#DejaVuSans-32"/>
       <use x="159.033203" xlink:href="#DejaVuSans-30"/>
      </g>
     </g>
    </g>
    <g id="text_35">
     <!-- $C_V^2(r)$ -->
     <defs>
      <path d="M 69.484375 67.28125 
L 67.484375 56.890625 
Q 62.796875 61.625 57.546875 63.921875 
Q 52.296875 66.21875 46.1875 66.21875 
Q 37.84375 66.21875 31.515625 62.203125 
Q 25.203125 58.203125 20.609375 50 
Q 17.671875 44.734375 16.125 38.84375 
Q 14.59375 32.953125 14.59375 27 
Q 14.59375 17.046875 19.75 11.8125 
Q 24.90625 6.59375 34.71875 6.59375 
Q 41.5 6.59375 47.75 8.765625 
Q 54 10.9375 59.90625 15.28125 
L 57.625 3.609375 
Q 51.8125 1.125 45.875 -0.140625 
Q 39.9375 -1.421875 33.984375 -1.421875 
Q 19.96875 -1.421875 12.078125 6.1875 
Q 4.203125 13.8125 4.203125 27.390625 
Q 4.203125 36.078125 7.203125 44.46875 
Q 10.203125 52.875 15.828125 59.8125 
Q 21.78125 67.1875 29.421875 70.703125 
Q 37.0625 74.21875 47.21875 74.21875 
Q 53.46875 74.21875 59.0625 72.484375 
Q 64.65625 70.75 69.484375 67.28125 
z
" id="DejaVuSans-Oblique-43"/>
      <path d="M 20.609375 0 
L 7.8125 72.90625 
L 17.484375 72.90625 
L 28.078125 10.203125 
L 63.484375 72.90625 
L 74.21875 72.90625 
L 32.078125 0 
z
" id="DejaVuSans-Oblique-56"/>
      <path d="M 31 75.875 
Q 24.46875 64.65625 21.28125 53.65625 
Q 18.109375 42.671875 18.109375 31.390625 
Q 18.109375 20.125 21.3125 9.0625 
Q 24.515625 -2 31 -13.1875 
L 23.1875 -13.1875 
Q 15.875 -1.703125 12.234375 9.375 
Q 8.59375 20.453125 8.59375 31.390625 
Q 8.59375 42.28125 12.203125 53.3125 
Q 15.828125 64.359375 23.1875 75.875 
z
" id="DejaVuSans-28"/>
      <path d="M 8.015625 75.875 
L 15.828125 75.875 
Q 23.140625 64.359375 26.78125 53.3125 
Q 30.421875 42.28125 30.421875 31.390625 
Q 30.421875 20.453125 26.78125 9.375 
Q 23.140625 -1.703125 15.828125 -13.1875 
L 8.015625 -13.1875 
Q 14.5 -2 17.703125 9.0625 
Q 20.90625 20.125 20.90625 31.390625 
Q 20.90625 42.671875 17.703125 53.65625 
Q 14.5 64.65625 8.015625 75.875 
z
" id="DejaVuSans-29"/>
     </defs>
     <g transform="translate(479.732269 173.5)rotate(-90)scale(0.2 -0.2)">
      <use transform="translate(0 0.765625)" xlink:href="#DejaVuSans-Oblique-43"/>
      <use transform="translate(77.02474 39.046875)scale(0.7)" xlink:href="#DejaVuSans-32"/>
      <use transform="translate(69.824219 -26.578125)scale(0.7)" xlink:href="#DejaVuSans-Oblique-56"/>
      <use transform="translate(124.295247 0.765625)" xlink:href="#DejaVuSans-28"/>
      <use transform="translate(163.308919 0.765625)" xlink:href="#DejaVuSans-Oblique-72"/>
      <use transform="translate(204.422201 0.765625)" xlink:href="#DejaVuSans-29"/>
     </g>
    </g>
   </g>
   <g id="line2d_66">
    <path clip-path="url(#p3e26b55088)" d="M 532.230707 272.645455 
L 537.429464 162.91568 
L 542.628222 147.813467 
L 547.82698 147.172689 
L 553.025738 150.14477 
L 558.224495 152.435562 
L 563.423253 156.333623 
L 568.622011 155.335222 
L 573.820769 155.695853 
L 579.019526 161.726854 
L 584.218284 160.339453 
L 589.417042 157.101007 
L 594.6158 160.116039 
L 599.814557 151.84245 
L 605.013315 156.27348 
L 610.212073 159.576663 
L 615.410831 164.226331 
L 620.609589 159.254671 
L 625.808346 164.554827 
L 631.007104 163.797982 
L 636.205862 165.724294 
L 641.40462 158.01756 
L 646.603377 165.847015 
L 651.802135 163.647705 
L 657.000893 163.82771 
L 662.199651 165.115791 
L 667.398408 167.321965 
L 672.597166 160.57241 
L 677.795924 163.263111 
L 682.994682 162.744662 
L 688.193439 161.197852 
L 693.392197 160.166053 
L 698.590955 157.834484 
L 703.789713 152.847998 
L 708.98847 163.139604 
L 714.187228 162.11289 
L 719.385986 170.692624 
L 724.584744 164.90788 
L 729.783502 154.482717 
L 734.982259 157.272965 
L 740.181017 153.800223 
L 745.379775 155.939195 
L 750.578533 156.037665 
L 755.77729 167.960994 
L 760.976048 162.307724 
L 766.174806 164.830505 
L 771.373564 163.278249 
L 776.572321 167.304333 
L 781.771079 169.58829 
L 786.969837 173.287336 
L 792.168595 166.149575 
L 797.367352 167.982247 
L 802.56611 171.861319 
L 807.764868 172.999172 
L 812.963626 170.265598 
L 818.162384 168.275195 
L 823.361141 171.881236 
L 828.559899 161.470066 
L 833.758657 159.318864 
L 838.957415 151.897514 
L 844.156172 156.237809 
L 849.35493 165.613006 
L 854.553688 168.423298 
L 859.752446 165.035515 
L 864.951203 168.021884 
L 870.149961 158.0174 
L 875.348719 151.402807 
L 880.547477 157.270382 
L 885.746234 153.088966 
L 890.944992 167.520753 
" style="fill:none;stroke:#1f77b4;stroke-linecap:square;stroke-width:3;"/>
   </g>
   <g id="line2d_67">
    <path clip-path="url(#p3e26b55088)" d="M 532.230707 272.645455 
L 537.429464 148.813875 
L 542.628222 120.360529 
L 547.82698 139.090062 
L 553.025738 143.803922 
L 558.224495 118.849346 
L 563.423253 120.730876 
L 568.622011 106.414953 
L 573.820769 68.182521 
L 579.019526 143.095718 
L 584.218284 121.517635 
L 589.417042 137.525205 
L 594.6158 137.484855 
L 599.814557 110.934171 
L 605.013315 131.53586 
L 610.212073 125.667183 
L 615.410831 124.162005 
L 620.609589 108.507785 
L 625.808346 118.941666 
L 631.007104 125.341699 
L 636.205862 136.806483 
L 641.40462 122.602943 
L 646.603377 132.990495 
L 651.802135 129.460542 
L 657.000893 111.125913 
L 662.199651 115.821817 
L 667.398408 112.408034 
L 672.597166 105.222281 
L 677.795924 101.035666 
L 682.994682 102.691216 
L 688.193439 109.503276 
L 693.392197 95.755365 
L 698.590955 109.157644 
L 703.789713 104.398535 
L 708.98847 106.270548 
L 714.187228 115.387944 
L 719.385986 127.894212 
L 724.584744 110.417297 
L 729.783502 105.631251 
L 734.982259 111.456797 
L 740.181017 115.450079 
L 745.379775 107.936562 
L 750.578533 108.843666 
L 755.77729 101.550449 
L 760.976048 101.151847 
L 766.174806 100.629429 
L 771.373564 109.124413 
L 776.572321 111.647314 
L 781.771079 121.604969 
L 786.969837 109.800155 
L 792.168595 115.075217 
L 797.367352 110.264132 
L 802.56611 114.970055 
L 807.764868 111.651085 
L 812.963626 108.045069 
L 818.162384 107.931485 
L 823.361141 106.096654 
L 828.559899 107.546498 
L 833.758657 107.605918 
L 838.957415 102.800031 
L 844.156172 104.999519 
L 849.35493 104.272997 
L 854.553688 110.563172 
L 859.752446 109.349316 
L 864.951203 113.137252 
L 870.149961 109.321156 
L 875.348719 109.141728 
L 880.547477 110.443821 
L 885.746234 111.32441 
L 890.944992 108.502485 
" style="fill:none;stroke:#ff6800;stroke-linecap:square;stroke-width:3;"/>
   </g>
   <g id="line2d_68">
    <path clip-path="url(#p3e26b55088)" d="M 532.230707 272.645455 
L 537.429464 240.387059 
L 542.628222 248.218239 
L 547.82698 244.599462 
L 553.025738 246.600635 
L 558.224495 233.865088 
L 563.423253 216.965526 
L 568.622011 209.837257 
L 573.820769 184.733473 
L 579.019526 215.204713 
L 584.218284 208.685356 
L 589.417042 206.733634 
L 594.6158 199.30359 
L 599.814557 187.56518 
L 605.013315 206.749455 
L 610.212073 185.834535 
L 615.410831 179.805073 
L 620.609589 172.910754 
L 625.808346 178.809743 
L 631.007104 175.418069 
L 636.205862 177.192469 
L 641.40462 176.087246 
L 646.603377 174.417251 
L 651.802135 175.465733 
L 657.000893 154.151332 
L 662.199651 159.206356 
L 667.398408 159.933554 
L 672.597166 148.022026 
L 677.795924 142.80251 
L 682.994682 136.728724 
L 688.193439 141.369778 
L 693.392197 130.196287 
L 698.590955 137.695123 
L 703.789713 132.814213 
L 708.98847 130.117337 
L 714.187228 136.441983 
L 719.385986 140.955321 
L 724.584744 127.753262 
L 729.783502 122.784187 
L 734.982259 126.133496 
L 740.181017 132.902811 
L 745.379775 121.127226 
L 750.578533 123.020109 
L 755.77729 116.000197 
L 760.976048 116.477892 
L 766.174806 113.207175 
L 771.373564 120.837624 
L 776.572321 122.843181 
L 781.771079 130.941631 
L 786.969837 118.590318 
L 792.168595 122.010792 
L 797.367352 118.495708 
L 802.56611 122.943507 
L 807.764868 120.999086 
L 812.963626 116.389975 
L 818.162384 114.398691 
L 823.361141 111.74888 
L 828.559899 112.162806 
L 833.758657 112.953393 
L 838.957415 108.054782 
L 844.156172 109.707858 
L 849.35493 110.022432 
L 854.553688 114.330651 
L 859.752446 114.502151 
L 864.951203 117.164005 
L 870.149961 112.046257 
L 875.348719 112.619183 
L 880.547477 112.866158 
L 885.746234 113.214384 
L 890.944992 111.023085 
" style="fill:none;stroke:#319000;stroke-linecap:square;stroke-width:3;"/>
   </g>
   <g id="patch_9">
    <path d="M 532.230707 285 
L 532.230707 13.2 
" style="fill:none;stroke:#000000;stroke-linecap:square;stroke-linejoin:miter;stroke-width:2;"/>
   </g>
   <g id="patch_10">
    <path d="M 896.14375 285 
L 896.14375 13.2 
" style="fill:none;"/>
   </g>
   <g id="patch_11">
    <path d="M 532.230707 285 
L 896.14375 285 
" style="fill:none;stroke:#000000;stroke-linecap:square;stroke-linejoin:miter;stroke-width:2;"/>
   </g>
   <g id="patch_12">
    <path d="M 532.230707 13.2 
L 896.14375 13.2 
" style="fill:none;"/>
   </g>
  </g>
 </g>
 <defs>
  <clipPath id="p938744085f">
   <rect height="271.8" width="363.913043" x="59.14375" y="13.2"/>
  </clipPath>
  <clipPath id="p3e26b55088">
   <rect height="271.8" width="363.913043" x="532.230707" y="13.2"/>
  </clipPath>
 </defs>
</svg>
