<?xml version="1.0" encoding="utf-8" standalone="no"?>
<!DOCTYPE svg PUBLIC "-//W3C//DTD SVG 1.1//EN"
  "http://www.w3.org/Graphics/SVG/1.1/DTD/svg11.dtd">
<!-- Created with matplotlib (http://matplotlib.org/) -->
<svg height="339.573438pt" version="1.1" viewBox="0 0 914.154688 339.573438" width="914.154688pt" xmlns="http://www.w3.org/2000/svg" xmlns:xlink="http://www.w3.org/1999/xlink">
 <defs>
  <style type="text/css">
*{stroke-linecap:butt;stroke-linejoin:round;}
  </style>
 </defs>
 <g id="figure_1">
  <g id="patch_1">
   <path d="M 0 339.573438 
L 914.154688 339.573438 
L 914.154688 0 
L 0 0 
z
" style="fill:#ffffff;"/>
  </g>
  <g id="axes_1">
   <g id="patch_2">
    <path d="M 63.954688 285 
L 427.867731 285 
L 427.867731 13.2 
L 63.954688 13.2 
z
" style="fill:#ffffff;"/>
   </g>
   <g id="PolyCollection_1">
    <defs>
     <path d="M 63.954688 -108.933437 
L 63.954688 -108.933437 
L 69.153445 -116.157978 
L 74.352203 -124.70916 
L 79.550961 -134.233224 
L 84.749719 -142.277927 
L 89.948476 -151.521032 
L 95.147234 -158.71447 
L 100.345992 -165.145924 
L 105.54475 -170.519067 
L 110.743507 -177.552364 
L 115.942265 -183.538164 
L 121.141023 -190.67009 
L 126.339781 -192.725289 
L 131.538538 -194.615325 
L 136.737296 -198.553469 
L 141.936054 -201.730164 
L 147.134812 -204.230662 
L 152.333569 -208.070114 
L 157.532327 -210.449411 
L 162.731085 -210.614019 
L 167.929843 -209.692879 
L 173.128601 -210.571932 
L 178.327358 -208.97242 
L 183.526116 -210.528937 
L 188.724874 -211.875282 
L 193.923632 -211.583283 
L 199.122389 -209.314956 
L 204.321147 -211.678193 
L 209.519905 -208.696693 
L 214.718663 -210.60956 
L 219.91742 -210.726851 
L 225.116178 -211.921566 
L 230.314936 -209.785166 
L 235.513694 -213.016186 
L 240.712451 -215.254977 
L 245.911209 -216.57755 
L 251.109967 -216.789024 
L 256.308725 -218.294626 
L 261.507483 -219.109058 
L 266.70624 -217.605603 
L 271.904998 -220.665526 
L 277.103756 -222.365274 
L 282.302514 -222.133173 
L 287.501271 -222.694586 
L 292.700029 -222.462314 
L 297.898787 -220.405831 
L 303.097545 -220.94446 
L 308.296302 -222.56039 
L 313.49506 -222.062241 
L 318.693818 -221.733584 
L 323.892576 -221.8249 
L 329.091333 -224.497345 
L 334.290091 -225.066326 
L 339.488849 -225.827027 
L 344.687607 -226.798195 
L 349.886365 -225.290733 
L 355.085122 -226.468014 
L 360.28388 -225.841436 
L 365.482638 -225.599167 
L 370.681396 -223.95495 
L 375.880153 -224.23032 
L 381.078911 -222.734481 
L 386.277669 -223.098515 
L 391.476427 -225.886161 
L 396.675184 -224.235756 
L 401.873942 -224.604504 
L 407.0727 -224.419798 
L 412.271458 -226.131534 
L 417.470215 -225.522507 
L 422.668973 -223.722708 
L 427.867731 -222.577131 
L 427.867731 -237.707903 
L 427.867731 -237.707903 
L 422.668973 -238.624789 
L 417.470215 -240.317399 
L 412.271458 -240.820117 
L 407.0727 -239.718547 
L 401.873942 -238.92759 
L 396.675184 -238.403625 
L 391.476427 -240.641737 
L 386.277669 -237.117028 
L 381.078911 -237.061985 
L 375.880153 -237.878083 
L 370.681396 -238.837481 
L 365.482638 -239.85625 
L 360.28388 -240.127573 
L 355.085122 -240.253194 
L 349.886365 -239.054861 
L 344.687607 -240.898444 
L 339.488849 -240.091122 
L 334.290091 -240.346713 
L 329.091333 -238.496521 
L 323.892576 -236.179908 
L 318.693818 -236.318665 
L 313.49506 -235.58335 
L 308.296302 -236.541587 
L 303.097545 -235.30168 
L 297.898787 -234.417004 
L 292.700029 -237.062793 
L 287.501271 -237.699735 
L 282.302514 -236.465202 
L 277.103756 -237.284497 
L 271.904998 -234.517137 
L 266.70624 -232.147359 
L 261.507483 -232.977202 
L 256.308725 -232.353551 
L 251.109967 -231.17757 
L 245.911209 -231.308241 
L 240.712451 -229.01825 
L 235.513694 -227.512076 
L 230.314936 -223.22998 
L 225.116178 -226.196269 
L 219.91742 -225.5224 
L 214.718663 -223.810414 
L 209.519905 -221.882595 
L 204.321147 -225.765634 
L 199.122389 -223.195403 
L 193.923632 -226.143002 
L 188.724874 -224.725136 
L 183.526116 -223.608944 
L 178.327358 -222.32812 
L 173.128601 -223.878338 
L 167.929843 -222.416518 
L 162.731085 -224.067414 
L 157.532327 -223.292713 
L 152.333569 -220.77774 
L 147.134812 -216.721132 
L 141.936054 -213.657657 
L 136.737296 -210.959503 
L 131.538538 -205.597999 
L 126.339781 -203.012814 
L 121.141023 -200.836437 
L 115.942265 -192.919795 
L 110.743507 -186.15569 
L 105.54475 -178.773503 
L 100.345992 -172.65671 
L 95.147234 -165.051969 
L 89.948476 -157.288382 
L 84.749719 -147.616466 
L 79.550961 -138.556859 
L 74.352203 -128.065485 
L 69.153445 -118.466594 
L 63.954688 -108.933437 
z
" id="m27800617d1"/>
    </defs>
    <g clip-path="url(#p77d530ca59)">
     <use style="fill:#4db8ff;" x="0" xlink:href="#m27800617d1" y="339.573438"/>
    </g>
   </g>
   <g id="PolyCollection_2">
    <defs>
     <path d="M 63.954688 -108.933437 
L 63.954688 -108.933437 
L 69.153445 -103.844993 
L 74.352203 -106.249652 
L 79.550961 -111.113346 
L 84.749719 -114.26025 
L 89.948476 -106.164844 
L 95.147234 -101.816827 
L 100.345992 -99.760161 
L 105.54475 -95.767011 
L 110.743507 -98.261529 
L 115.942265 -97.294914 
L 121.141023 -89.54532 
L 126.339781 -90.510123 
L 131.538538 -91.984577 
L 136.737296 -95.936533 
L 141.936054 -97.068872 
L 147.134812 -96.82388 
L 152.333569 -97.333468 
L 157.532327 -96.740037 
L 162.731085 -93.036542 
L 167.929843 -94.670339 
L 173.128601 -94.755629 
L 178.327358 -95.732629 
L 183.526116 -97.131879 
L 188.724874 -95.959536 
L 193.923632 -98.781142 
L 199.122389 -97.251369 
L 204.321147 -97.896086 
L 209.519905 -101.916144 
L 214.718663 -101.273462 
L 219.91742 -101.357776 
L 225.116178 -100.407249 
L 230.314936 -101.946517 
L 235.513694 -100.114296 
L 240.712451 -99.438851 
L 245.911209 -99.347778 
L 251.109967 -98.351034 
L 256.308725 -99.492826 
L 261.507483 -101.29512 
L 266.70624 -103.350041 
L 271.904998 -104.089341 
L 277.103756 -106.776621 
L 282.302514 -104.943968 
L 287.501271 -105.992942 
L 292.700029 -103.736588 
L 297.898787 -104.230249 
L 303.097545 -105.825709 
L 308.296302 -105.132662 
L 313.49506 -106.369272 
L 318.693818 -107.004416 
L 323.892576 -106.761228 
L 329.091333 -107.307587 
L 334.290091 -106.109589 
L 339.488849 -106.257163 
L 344.687607 -105.544429 
L 349.886365 -105.214777 
L 355.085122 -104.971445 
L 360.28388 -104.318847 
L 365.482638 -105.323184 
L 370.681396 -105.311973 
L 375.880153 -105.659388 
L 381.078911 -104.956913 
L 386.277669 -105.587491 
L 391.476427 -106.118837 
L 396.675184 -105.917659 
L 401.873942 -105.856975 
L 407.0727 -105.498273 
L 412.271458 -105.381922 
L 417.470215 -105.2327 
L 422.668973 -106.063214 
L 427.867731 -105.730592 
L 427.867731 -109.447268 
L 427.867731 -109.447268 
L 422.668973 -109.798856 
L 417.470215 -109.19582 
L 412.271458 -109.352127 
L 407.0727 -109.686866 
L 401.873942 -110.107413 
L 396.675184 -110.382291 
L 391.476427 -110.853161 
L 386.277669 -110.666364 
L 381.078911 -109.938427 
L 375.880153 -110.652906 
L 370.681396 -110.673318 
L 365.482638 -110.864894 
L 360.28388 -109.827424 
L 355.085122 -110.833486 
L 349.886365 -111.236911 
L 344.687607 -111.901792 
L 339.488849 -112.846238 
L 334.290091 -113.085277 
L 329.091333 -114.368081 
L 323.892576 -114.671275 
L 318.693818 -115.078609 
L 313.49506 -114.672338 
L 308.296302 -113.706706 
L 303.097545 -114.380372 
L 297.898787 -113.433859 
L 292.700029 -113.242494 
L 287.501271 -115.97553 
L 282.302514 -114.724165 
L 277.103756 -116.656532 
L 271.904998 -114.664777 
L 266.70624 -113.956587 
L 261.507483 -112.169651 
L 256.308725 -110.280794 
L 251.109967 -109.54542 
L 245.911209 -111.082475 
L 240.712451 -111.547638 
L 235.513694 -112.509141 
L 230.314936 -114.935927 
L 225.116178 -114.584014 
L 219.91742 -115.51438 
L 214.718663 -116.310164 
L 209.519905 -116.995926 
L 204.321147 -113.975697 
L 199.122389 -113.687081 
L 193.923632 -116.887927 
L 188.724874 -115.011357 
L 183.526116 -116.175684 
L 178.327358 -114.542651 
L 173.128601 -114.367081 
L 167.929843 -114.798016 
L 162.731085 -113.149086 
L 157.532327 -117.422809 
L 152.333569 -119.088814 
L 147.134812 -118.471 
L 141.936054 -120.001985 
L 136.737296 -120.690645 
L 131.538538 -114.735914 
L 126.339781 -113.252462 
L 121.141023 -113.585663 
L 115.942265 -121.656436 
L 110.743507 -121.277966 
L 105.54475 -119.259564 
L 100.345992 -122.899895 
L 95.147234 -124.99888 
L 89.948476 -126.781763 
L 84.749719 -133.644863 
L 79.550961 -127.703406 
L 74.352203 -120.772541 
L 69.153445 -115.075326 
L 63.954688 -108.933437 
z
" id="m2157580161"/>
    </defs>
    <g clip-path="url(#p77d530ca59)">
     <use style="fill:#ffa035;" x="0" xlink:href="#m2157580161" y="339.573438"/>
    </g>
   </g>
   <g id="PolyCollection_3">
    <defs>
     <path d="M 63.954688 -108.933437 
L 63.954688 -108.933437 
L 69.153445 -114.471302 
L 74.352203 -123.464584 
L 79.550961 -134.457276 
L 84.749719 -143.924985 
L 89.948476 -145.049562 
L 95.147234 -150.083153 
L 100.345992 -151.408061 
L 105.54475 -154.134355 
L 110.743507 -159.111223 
L 115.942265 -165.658492 
L 121.141023 -159.250021 
L 126.339781 -156.490228 
L 131.538538 -160.439112 
L 136.737296 -172.562696 
L 141.936054 -171.576697 
L 147.134812 -165.312203 
L 152.333569 -163.152195 
L 157.532327 -158.246189 
L 162.731085 -155.178888 
L 167.929843 -155.594228 
L 173.128601 -156.066311 
L 178.327358 -153.425324 
L 183.526116 -149.411364 
L 188.724874 -147.314263 
L 193.923632 -146.332494 
L 199.122389 -138.11475 
L 204.321147 -136.661105 
L 209.519905 -137.771816 
L 214.718663 -133.892503 
L 219.91742 -132.718491 
L 225.116178 -128.210458 
L 230.314936 -125.732187 
L 235.513694 -122.074215 
L 240.712451 -119.704728 
L 245.911209 -117.196598 
L 251.109967 -115.794521 
L 256.308725 -115.332764 
L 261.507483 -117.287442 
L 266.70624 -117.931498 
L 271.904998 -118.229586 
L 277.103756 -119.753003 
L 282.302514 -116.57686 
L 287.501271 -117.199602 
L 292.700029 -113.87121 
L 297.898787 -113.22259 
L 303.097545 -114.797707 
L 308.296302 -113.268487 
L 313.49506 -113.670754 
L 318.693818 -113.465622 
L 323.892576 -112.672446 
L 329.091333 -112.909216 
L 334.290091 -111.056022 
L 339.488849 -111.271532 
L 344.687607 -110.372657 
L 349.886365 -109.550426 
L 355.085122 -108.732668 
L 360.28388 -107.614315 
L 365.482638 -108.415474 
L 370.681396 -108.185461 
L 375.880153 -107.953448 
L 381.078911 -107.369323 
L 386.277669 -107.925219 
L 391.476427 -108.131923 
L 396.675184 -107.732136 
L 401.873942 -107.564134 
L 407.0727 -107.007027 
L 412.271458 -106.776826 
L 417.470215 -106.502308 
L 422.668973 -107.404047 
L 427.867731 -106.714661 
L 427.867731 -112.136946 
L 427.867731 -112.136946 
L 422.668973 -112.577367 
L 417.470215 -111.961357 
L 412.271458 -112.45483 
L 407.0727 -113.130531 
L 401.873942 -113.721807 
L 396.675184 -114.278653 
L 391.476427 -115.0812 
L 386.277669 -115.018857 
L 381.078911 -115.137281 
L 375.880153 -115.990379 
L 370.681396 -115.741822 
L 365.482638 -116.438346 
L 360.28388 -116.16278 
L 355.085122 -117.994284 
L 349.886365 -119.176902 
L 344.687607 -120.659503 
L 339.488849 -121.983056 
L 334.290091 -122.24231 
L 329.091333 -124.25505 
L 323.892576 -123.769723 
L 318.693818 -124.734586 
L 313.49506 -125.796921 
L 308.296302 -125.891126 
L 303.097545 -128.099305 
L 297.898787 -128.042293 
L 292.700029 -128.426777 
L 287.501271 -132.741467 
L 282.302514 -132.161767 
L 277.103756 -136.137904 
L 271.904998 -135.759668 
L 266.70624 -136.503352 
L 261.507483 -136.379871 
L 256.308725 -134.472139 
L 251.109967 -136.769869 
L 245.911209 -138.97097 
L 240.712451 -143.366991 
L 235.513694 -145.66669 
L 230.314936 -150.149171 
L 225.116178 -153.154632 
L 219.91742 -159.291746 
L 214.718663 -161.897935 
L 209.519905 -166.563165 
L 204.321147 -178.144149 
L 199.122389 -181.701576 
L 193.923632 -189.918878 
L 188.724874 -196.244633 
L 183.526116 -194.339123 
L 178.327358 -201.465059 
L 173.128601 -203.423402 
L 167.929843 -204.800166 
L 162.731085 -203.172279 
L 157.532327 -204.342859 
L 152.333569 -212.411284 
L 147.134812 -215.370696 
L 141.936054 -218.402355 
L 136.737296 -219.023519 
L 131.538538 -202.070053 
L 126.339781 -200.014655 
L 121.141023 -198.918892 
L 115.942265 -201.088269 
L 110.743507 -194.029604 
L 105.54475 -186.578304 
L 100.345992 -181.519277 
L 95.147234 -175.831388 
L 89.948476 -167.952397 
L 84.749719 -162.753703 
L 79.550961 -149.236549 
L 74.352203 -135.445881 
L 69.153445 -123.210543 
L 63.954688 -108.933437 
z
" id="m0af1c8f6d9"/>
    </defs>
    <g clip-path="url(#p77d530ca59)">
     <use style="fill:#47d200;" x="0" xlink:href="#m0af1c8f6d9" y="339.573438"/>
    </g>
   </g>
   <g id="matplotlib.axis_1">
    <g id="xtick_1">
     <g id="line2d_1">
      <path clip-path="url(#p77d530ca59)" d="M 63.954688 285 
L 63.954688 13.2 
" style="fill:none;stroke:#b0b0b0;stroke-linecap:square;stroke-width:0.8;"/>
     </g>
     <g id="line2d_2">
      <defs>
       <path d="M 0 0 
L 0 6 
" id="m40bab371c4"/>
      </defs>
      <g>
       <use x="63.954688" xlink:href="#m40bab371c4" y="285"/>
      </g>
     </g>
     <g id="text_1">
      <!-- 0 -->
      <defs>
       <path d="M 31.78125 66.40625 
Q 24.171875 66.40625 20.328125 58.90625 
Q 16.5 51.421875 16.5 36.375 
Q 16.5 21.390625 20.328125 13.890625 
Q 24.171875 6.390625 31.78125 6.390625 
Q 39.453125 6.390625 43.28125 13.890625 
Q 47.125 21.390625 47.125 36.375 
Q 47.125 51.421875 43.28125 58.90625 
Q 39.453125 66.40625 31.78125 66.40625 
z
M 31.78125 74.21875 
Q 44.046875 74.21875 50.515625 64.515625 
Q 56.984375 54.828125 56.984375 36.375 
Q 56.984375 17.96875 50.515625 8.265625 
Q 44.046875 -1.421875 31.78125 -1.421875 
Q 19.53125 -1.421875 13.0625 8.265625 
Q 6.59375 17.96875 6.59375 36.375 
Q 6.59375 54.828125 13.0625 64.515625 
Q 19.53125 74.21875 31.78125 74.21875 
z
" id="DejaVuSans-30"/>
      </defs>
      <g transform="translate(59.182813 305.897656)scale(0.15 -0.15)">
       <use xlink:href="#DejaVuSans-30"/>
      </g>
     </g>
    </g>
    <g id="xtick_2">
     <g id="line2d_3">
      <path clip-path="url(#p77d530ca59)" d="M 115.942265 285 
L 115.942265 13.2 
" style="fill:none;stroke:#b0b0b0;stroke-linecap:square;stroke-width:0.8;"/>
     </g>
     <g id="line2d_4">
      <g>
       <use x="115.942265" xlink:href="#m40bab371c4" y="285"/>
      </g>
     </g>
     <g id="text_2">
      <!-- 1 -->
      <defs>
       <path d="M 12.40625 8.296875 
L 28.515625 8.296875 
L 28.515625 63.921875 
L 10.984375 60.40625 
L 10.984375 69.390625 
L 28.421875 72.90625 
L 38.28125 72.90625 
L 38.28125 8.296875 
L 54.390625 8.296875 
L 54.390625 0 
L 12.40625 0 
z
" id="DejaVuSans-31"/>
      </defs>
      <g transform="translate(111.17039 305.897656)scale(0.15 -0.15)">
       <use xlink:href="#DejaVuSans-31"/>
      </g>
     </g>
    </g>
    <g id="xtick_3">
     <g id="line2d_5">
      <path clip-path="url(#p77d530ca59)" d="M 167.929843 285 
L 167.929843 13.2 
" style="fill:none;stroke:#b0b0b0;stroke-linecap:square;stroke-width:0.8;"/>
     </g>
     <g id="line2d_6">
      <g>
       <use x="167.929843" xlink:href="#m40bab371c4" y="285"/>
      </g>
     </g>
     <g id="text_3">
      <!-- 2 -->
      <defs>
       <path d="M 19.1875 8.296875 
L 53.609375 8.296875 
L 53.609375 0 
L 7.328125 0 
L 7.328125 8.296875 
Q 12.9375 14.109375 22.625 23.890625 
Q 32.328125 33.6875 34.8125 36.53125 
Q 39.546875 41.84375 41.421875 45.53125 
Q 43.3125 49.21875 43.3125 52.78125 
Q 43.3125 58.59375 39.234375 62.25 
Q 35.15625 65.921875 28.609375 65.921875 
Q 23.96875 65.921875 18.8125 64.3125 
Q 13.671875 62.703125 7.8125 59.421875 
L 7.8125 69.390625 
Q 13.765625 71.78125 18.9375 73 
Q 24.125 74.21875 28.421875 74.21875 
Q 39.75 74.21875 46.484375 68.546875 
Q 53.21875 62.890625 53.21875 53.421875 
Q 53.21875 48.921875 51.53125 44.890625 
Q 49.859375 40.875 45.40625 35.40625 
Q 44.1875 33.984375 37.640625 27.21875 
Q 31.109375 20.453125 19.1875 8.296875 
z
" id="DejaVuSans-32"/>
      </defs>
      <g transform="translate(163.157968 305.897656)scale(0.15 -0.15)">
       <use xlink:href="#DejaVuSans-32"/>
      </g>
     </g>
    </g>
    <g id="xtick_4">
     <g id="line2d_7">
      <path clip-path="url(#p77d530ca59)" d="M 219.91742 285 
L 219.91742 13.2 
" style="fill:none;stroke:#b0b0b0;stroke-linecap:square;stroke-width:0.8;"/>
     </g>
     <g id="line2d_8">
      <g>
       <use x="219.91742" xlink:href="#m40bab371c4" y="285"/>
      </g>
     </g>
     <g id="text_4">
      <!-- 3 -->
      <defs>
       <path d="M 40.578125 39.3125 
Q 47.65625 37.796875 51.625 33 
Q 55.609375 28.21875 55.609375 21.1875 
Q 55.609375 10.40625 48.1875 4.484375 
Q 40.765625 -1.421875 27.09375 -1.421875 
Q 22.515625 -1.421875 17.65625 -0.515625 
Q 12.796875 0.390625 7.625 2.203125 
L 7.625 11.71875 
Q 11.71875 9.328125 16.59375 8.109375 
Q 21.484375 6.890625 26.8125 6.890625 
Q 36.078125 6.890625 40.9375 10.546875 
Q 45.796875 14.203125 45.796875 21.1875 
Q 45.796875 27.640625 41.28125 31.265625 
Q 36.765625 34.90625 28.71875 34.90625 
L 20.21875 34.90625 
L 20.21875 43.015625 
L 29.109375 43.015625 
Q 36.375 43.015625 40.234375 45.921875 
Q 44.09375 48.828125 44.09375 54.296875 
Q 44.09375 59.90625 40.109375 62.90625 
Q 36.140625 65.921875 28.71875 65.921875 
Q 24.65625 65.921875 20.015625 65.03125 
Q 15.375 64.15625 9.8125 62.3125 
L 9.8125 71.09375 
Q 15.4375 72.65625 20.34375 73.4375 
Q 25.25 74.21875 29.59375 74.21875 
Q 40.828125 74.21875 47.359375 69.109375 
Q 53.90625 64.015625 53.90625 55.328125 
Q 53.90625 49.265625 50.4375 45.09375 
Q 46.96875 40.921875 40.578125 39.3125 
z
" id="DejaVuSans-33"/>
      </defs>
      <g transform="translate(215.145545 305.897656)scale(0.15 -0.15)">
       <use xlink:href="#DejaVuSans-33"/>
      </g>
     </g>
    </g>
    <g id="xtick_5">
     <g id="line2d_9">
      <path clip-path="url(#p77d530ca59)" d="M 271.904998 285 
L 271.904998 13.2 
" style="fill:none;stroke:#b0b0b0;stroke-linecap:square;stroke-width:0.8;"/>
     </g>
     <g id="line2d_10">
      <g>
       <use x="271.904998" xlink:href="#m40bab371c4" y="285"/>
      </g>
     </g>
     <g id="text_5">
      <!-- 4 -->
      <defs>
       <path d="M 37.796875 64.3125 
L 12.890625 25.390625 
L 37.796875 25.390625 
z
M 35.203125 72.90625 
L 47.609375 72.90625 
L 47.609375 25.390625 
L 58.015625 25.390625 
L 58.015625 17.1875 
L 47.609375 17.1875 
L 47.609375 0 
L 37.796875 0 
L 37.796875 17.1875 
L 4.890625 17.1875 
L 4.890625 26.703125 
z
" id="DejaVuSans-34"/>
      </defs>
      <g transform="translate(267.133123 305.897656)scale(0.15 -0.15)">
       <use xlink:href="#DejaVuSans-34"/>
      </g>
     </g>
    </g>
    <g id="xtick_6">
     <g id="line2d_11">
      <path clip-path="url(#p77d530ca59)" d="M 323.892576 285 
L 323.892576 13.2 
" style="fill:none;stroke:#b0b0b0;stroke-linecap:square;stroke-width:0.8;"/>
     </g>
     <g id="line2d_12">
      <g>
       <use x="323.892576" xlink:href="#m40bab371c4" y="285"/>
      </g>
     </g>
     <g id="text_6">
      <!-- 5 -->
      <defs>
       <path d="M 10.796875 72.90625 
L 49.515625 72.90625 
L 49.515625 64.59375 
L 19.828125 64.59375 
L 19.828125 46.734375 
Q 21.96875 47.46875 24.109375 47.828125 
Q 26.265625 48.1875 28.421875 48.1875 
Q 40.625 48.1875 47.75 41.5 
Q 54.890625 34.8125 54.890625 23.390625 
Q 54.890625 11.625 47.5625 5.09375 
Q 40.234375 -1.421875 26.90625 -1.421875 
Q 22.3125 -1.421875 17.546875 -0.640625 
Q 12.796875 0.140625 7.71875 1.703125 
L 7.71875 11.625 
Q 12.109375 9.234375 16.796875 8.0625 
Q 21.484375 6.890625 26.703125 6.890625 
Q 35.15625 6.890625 40.078125 11.328125 
Q 45.015625 15.765625 45.015625 23.390625 
Q 45.015625 31 40.078125 35.4375 
Q 35.15625 39.890625 26.703125 39.890625 
Q 22.75 39.890625 18.8125 39.015625 
Q 14.890625 38.140625 10.796875 36.28125 
z
" id="DejaVuSans-35"/>
      </defs>
      <g transform="translate(319.120701 305.897656)scale(0.15 -0.15)">
       <use xlink:href="#DejaVuSans-35"/>
      </g>
     </g>
    </g>
    <g id="xtick_7">
     <g id="line2d_13">
      <path clip-path="url(#p77d530ca59)" d="M 375.880153 285 
L 375.880153 13.2 
" style="fill:none;stroke:#b0b0b0;stroke-linecap:square;stroke-width:0.8;"/>
     </g>
     <g id="line2d_14">
      <g>
       <use x="375.880153" xlink:href="#m40bab371c4" y="285"/>
      </g>
     </g>
     <g id="text_7">
      <!-- 6 -->
      <defs>
       <path d="M 33.015625 40.375 
Q 26.375 40.375 22.484375 35.828125 
Q 18.609375 31.296875 18.609375 23.390625 
Q 18.609375 15.53125 22.484375 10.953125 
Q 26.375 6.390625 33.015625 6.390625 
Q 39.65625 6.390625 43.53125 10.953125 
Q 47.40625 15.53125 47.40625 23.390625 
Q 47.40625 31.296875 43.53125 35.828125 
Q 39.65625 40.375 33.015625 40.375 
z
M 52.59375 71.296875 
L 52.59375 62.3125 
Q 48.875 64.0625 45.09375 64.984375 
Q 41.3125 65.921875 37.59375 65.921875 
Q 27.828125 65.921875 22.671875 59.328125 
Q 17.53125 52.734375 16.796875 39.40625 
Q 19.671875 43.65625 24.015625 45.921875 
Q 28.375 48.1875 33.59375 48.1875 
Q 44.578125 48.1875 50.953125 41.515625 
Q 57.328125 34.859375 57.328125 23.390625 
Q 57.328125 12.15625 50.6875 5.359375 
Q 44.046875 -1.421875 33.015625 -1.421875 
Q 20.359375 -1.421875 13.671875 8.265625 
Q 6.984375 17.96875 6.984375 36.375 
Q 6.984375 53.65625 15.1875 63.9375 
Q 23.390625 74.21875 37.203125 74.21875 
Q 40.921875 74.21875 44.703125 73.484375 
Q 48.484375 72.75 52.59375 71.296875 
z
" id="DejaVuSans-36"/>
      </defs>
      <g transform="translate(371.108278 305.897656)scale(0.15 -0.15)">
       <use xlink:href="#DejaVuSans-36"/>
      </g>
     </g>
    </g>
    <g id="xtick_8">
     <g id="line2d_15">
      <path clip-path="url(#p77d530ca59)" d="M 427.867731 285 
L 427.867731 13.2 
" style="fill:none;stroke:#b0b0b0;stroke-linecap:square;stroke-width:0.8;"/>
     </g>
     <g id="line2d_16">
      <g>
       <use x="427.867731" xlink:href="#m40bab371c4" y="285"/>
      </g>
     </g>
     <g id="text_8">
      <!-- 7 -->
      <defs>
       <path d="M 8.203125 72.90625 
L 55.078125 72.90625 
L 55.078125 68.703125 
L 28.609375 0 
L 18.3125 0 
L 43.21875 64.59375 
L 8.203125 64.59375 
z
" id="DejaVuSans-37"/>
      </defs>
      <g transform="translate(423.095856 305.897656)scale(0.15 -0.15)">
       <use xlink:href="#DejaVuSans-37"/>
      </g>
     </g>
    </g>
    <g id="text_9">
     <!-- $t/\tau$ -->
     <defs>
      <path d="M 42.28125 54.6875 
L 40.921875 47.703125 
L 23 47.703125 
L 17.1875 18.015625 
Q 16.890625 16.359375 16.75 15.234375 
Q 16.609375 14.109375 16.609375 13.484375 
Q 16.609375 10.359375 18.484375 8.9375 
Q 20.359375 7.515625 24.515625 7.515625 
L 33.59375 7.515625 
L 32.078125 0 
L 23.484375 0 
Q 15.484375 0 11.546875 3.125 
Q 7.625 6.25 7.625 12.59375 
Q 7.625 13.71875 7.765625 15.0625 
Q 7.90625 16.40625 8.203125 18.015625 
L 14.015625 47.703125 
L 6.390625 47.703125 
L 7.8125 54.6875 
L 15.28125 54.6875 
L 18.3125 70.21875 
L 27.296875 70.21875 
L 24.3125 54.6875 
z
" id="DejaVuSans-Oblique-74"/>
      <path d="M 25.390625 72.90625 
L 33.6875 72.90625 
L 8.296875 -9.28125 
L 0 -9.28125 
z
" id="DejaVuSans-2f"/>
      <path d="M 32.859375 9.96875 
Q 34.1875 7.625 39.453125 7.625 
L 43.75 7.625 
L 42.28125 0 
L 36.921875 0 
Q 28.125 0 25 4.6875 
Q 21.921875 9.46875 23.96875 19.828125 
L 29 45.703125 
L 8.453125 45.703125 
L 10.203125 54.6875 
L 60.640625 54.6875 
L 58.890625 45.703125 
L 38.1875 45.703125 
L 33.015625 19.28125 
Q 31.640625 12.203125 32.859375 9.96875 
z
" id="DejaVuSans-Oblique-3c4"/>
     </defs>
     <g transform="translate(232.511209 328.214063)scale(0.2 -0.2)">
      <use transform="translate(0 0.09375)" xlink:href="#DejaVuSans-Oblique-74"/>
      <use transform="translate(39.208984 0.09375)" xlink:href="#DejaVuSans-2f"/>
      <use transform="translate(72.900391 0.09375)" xlink:href="#DejaVuSans-Oblique-3c4"/>
     </g>
    </g>
   </g>
   <g id="matplotlib.axis_2">
    <g id="ytick_1">
     <g id="line2d_17">
      <path clip-path="url(#p77d530ca59)" d="M 63.954688 285 
L 427.867731 285 
" style="fill:none;stroke:#b0b0b0;stroke-linecap:square;stroke-width:0.8;"/>
     </g>
     <g id="line2d_18">
      <defs>
       <path d="M 0 0 
L -6 0 
" id="m7cb7ae29ba"/>
      </defs>
      <g>
       <use x="63.954688" xlink:href="#m7cb7ae29ba" y="285"/>
      </g>
     </g>
     <g id="text_10">
      <!-- 0.8 -->
      <defs>
       <path d="M 10.6875 12.40625 
L 21 12.40625 
L 21 0 
L 10.6875 0 
z
" id="DejaVuSans-2e"/>
       <path d="M 31.78125 34.625 
Q 24.75 34.625 20.71875 30.859375 
Q 16.703125 27.09375 16.703125 20.515625 
Q 16.703125 13.921875 20.71875 10.15625 
Q 24.75 6.390625 31.78125 6.390625 
Q 38.8125 6.390625 42.859375 10.171875 
Q 46.921875 13.96875 46.921875 20.515625 
Q 46.921875 27.09375 42.890625 30.859375 
Q 38.875 34.625 31.78125 34.625 
z
M 21.921875 38.8125 
Q 15.578125 40.375 12.03125 44.71875 
Q 8.5 49.078125 8.5 55.328125 
Q 8.5 64.0625 14.71875 69.140625 
Q 20.953125 74.21875 31.78125 74.21875 
Q 42.671875 74.21875 48.875 69.140625 
Q 55.078125 64.0625 55.078125 55.328125 
Q 55.078125 49.078125 51.53125 44.71875 
Q 48 40.375 41.703125 38.8125 
Q 48.828125 37.15625 52.796875 32.3125 
Q 56.78125 27.484375 56.78125 20.515625 
Q 56.78125 9.90625 50.3125 4.234375 
Q 43.84375 -1.421875 31.78125 -1.421875 
Q 19.734375 -1.421875 13.25 4.234375 
Q 6.78125 9.90625 6.78125 20.515625 
Q 6.78125 27.484375 10.78125 32.3125 
Q 14.796875 37.15625 21.921875 38.8125 
z
M 18.3125 54.390625 
Q 18.3125 48.734375 21.84375 45.5625 
Q 25.390625 42.390625 31.78125 42.390625 
Q 38.140625 42.390625 41.71875 45.5625 
Q 45.3125 48.734375 45.3125 54.390625 
Q 45.3125 60.0625 41.71875 63.234375 
Q 38.140625 66.40625 31.78125 66.40625 
Q 25.390625 66.40625 21.84375 63.234375 
Q 18.3125 60.0625 18.3125 54.390625 
z
" id="DejaVuSans-38"/>
      </defs>
      <g transform="translate(30.6 290.698828)scale(0.15 -0.15)">
       <use xlink:href="#DejaVuSans-30"/>
       <use x="63.623047" xlink:href="#DejaVuSans-2e"/>
       <use x="95.410156" xlink:href="#DejaVuSans-38"/>
      </g>
     </g>
    </g>
    <g id="ytick_2">
     <g id="line2d_19">
      <path clip-path="url(#p77d530ca59)" d="M 63.954688 230.64 
L 427.867731 230.64 
" style="fill:none;stroke:#b0b0b0;stroke-linecap:square;stroke-width:0.8;"/>
     </g>
     <g id="line2d_20">
      <g>
       <use x="63.954688" xlink:href="#m7cb7ae29ba" y="230.64"/>
      </g>
     </g>
     <g id="text_11">
      <!-- 1.0 -->
      <g transform="translate(30.6 236.338828)scale(0.15 -0.15)">
       <use xlink:href="#DejaVuSans-31"/>
       <use x="63.623047" xlink:href="#DejaVuSans-2e"/>
       <use x="95.410156" xlink:href="#DejaVuSans-30"/>
      </g>
     </g>
    </g>
    <g id="ytick_3">
     <g id="line2d_21">
      <path clip-path="url(#p77d530ca59)" d="M 63.954688 176.28 
L 427.867731 176.28 
" style="fill:none;stroke:#b0b0b0;stroke-linecap:square;stroke-width:0.8;"/>
     </g>
     <g id="line2d_22">
      <g>
       <use x="63.954688" xlink:href="#m7cb7ae29ba" y="176.28"/>
      </g>
     </g>
     <g id="text_12">
      <!-- 1.2 -->
      <g transform="translate(30.6 181.978828)scale(0.15 -0.15)">
       <use xlink:href="#DejaVuSans-31"/>
       <use x="63.623047" xlink:href="#DejaVuSans-2e"/>
       <use x="95.410156" xlink:href="#DejaVuSans-32"/>
      </g>
     </g>
    </g>
    <g id="ytick_4">
     <g id="line2d_23">
      <path clip-path="url(#p77d530ca59)" d="M 63.954688 121.92 
L 427.867731 121.92 
" style="fill:none;stroke:#b0b0b0;stroke-linecap:square;stroke-width:0.8;"/>
     </g>
     <g id="line2d_24">
      <g>
       <use x="63.954688" xlink:href="#m7cb7ae29ba" y="121.92"/>
      </g>
     </g>
     <g id="text_13">
      <!-- 1.4 -->
      <g transform="translate(30.6 127.618828)scale(0.15 -0.15)">
       <use xlink:href="#DejaVuSans-31"/>
       <use x="63.623047" xlink:href="#DejaVuSans-2e"/>
       <use x="95.410156" xlink:href="#DejaVuSans-34"/>
      </g>
     </g>
    </g>
    <g id="ytick_5">
     <g id="line2d_25">
      <path clip-path="url(#p77d530ca59)" d="M 63.954688 67.56 
L 427.867731 67.56 
" style="fill:none;stroke:#b0b0b0;stroke-linecap:square;stroke-width:0.8;"/>
     </g>
     <g id="line2d_26">
      <g>
       <use x="63.954688" xlink:href="#m7cb7ae29ba" y="67.56"/>
      </g>
     </g>
     <g id="text_14">
      <!-- 1.6 -->
      <g transform="translate(30.6 73.258828)scale(0.15 -0.15)">
       <use xlink:href="#DejaVuSans-31"/>
       <use x="63.623047" xlink:href="#DejaVuSans-2e"/>
       <use x="95.410156" xlink:href="#DejaVuSans-36"/>
      </g>
     </g>
    </g>
    <g id="ytick_6">
     <g id="line2d_27">
      <path clip-path="url(#p77d530ca59)" d="M 63.954688 13.2 
L 427.867731 13.2 
" style="fill:none;stroke:#b0b0b0;stroke-linecap:square;stroke-width:0.8;"/>
     </g>
     <g id="line2d_28">
      <g>
       <use x="63.954688" xlink:href="#m7cb7ae29ba" y="13.2"/>
      </g>
     </g>
     <g id="text_15">
      <!-- 1.8 -->
      <g transform="translate(30.6 18.898828)scale(0.15 -0.15)">
       <use xlink:href="#DejaVuSans-31"/>
       <use x="63.623047" xlink:href="#DejaVuSans-2e"/>
       <use x="95.410156" xlink:href="#DejaVuSans-38"/>
      </g>
     </g>
    </g>
    <g id="text_16">
     <!-- $s$ $(\mu m)$ -->
     <defs>
      <path d="M 50 53.078125 
L 48.296875 44.578125 
Q 44.734375 46.53125 40.765625 47.5 
Q 36.8125 48.484375 32.625 48.484375 
Q 25.53125 48.484375 21.453125 46.0625 
Q 17.390625 43.65625 17.390625 39.5 
Q 17.390625 34.671875 26.859375 32.078125 
Q 27.59375 31.890625 27.9375 31.78125 
L 30.8125 30.90625 
Q 39.796875 28.421875 42.796875 25.6875 
Q 45.796875 22.953125 45.796875 18.21875 
Q 45.796875 9.515625 38.890625 4.046875 
Q 31.984375 -1.421875 20.796875 -1.421875 
Q 16.453125 -1.421875 11.671875 -0.578125 
Q 6.890625 0.25 1.125 2 
L 2.875 11.28125 
Q 7.8125 8.734375 12.59375 7.421875 
Q 17.390625 6.109375 21.78125 6.109375 
Q 28.375 6.109375 32.5 8.9375 
Q 36.625 11.765625 36.625 16.109375 
Q 36.625 20.796875 25.78125 23.6875 
L 24.859375 23.921875 
L 21.78125 24.703125 
Q 14.9375 26.515625 11.765625 29.46875 
Q 8.59375 32.421875 8.59375 37.015625 
Q 8.59375 45.75 15.15625 50.875 
Q 21.734375 56 33.015625 56 
Q 37.453125 56 41.671875 55.265625 
Q 45.90625 54.546875 50 53.078125 
z
" id="DejaVuSans-Oblique-73"/>
      <path id="DejaVuSans-20"/>
      <path d="M 31 75.875 
Q 24.46875 64.65625 21.28125 53.65625 
Q 18.109375 42.671875 18.109375 31.390625 
Q 18.109375 20.125 21.3125 9.0625 
Q 24.515625 -2 31 -13.1875 
L 23.1875 -13.1875 
Q 15.875 -1.703125 12.234375 9.375 
Q 8.59375 20.453125 8.59375 31.390625 
Q 8.59375 42.28125 12.203125 53.3125 
Q 15.828125 64.359375 23.1875 75.875 
z
" id="DejaVuSans-28"/>
      <path d="M -1.3125 -20.796875 
L 13.375 54.6875 
L 22.40625 54.6875 
L 15.765625 20.65625 
Q 15.578125 19.625 15.421875 18.359375 
Q 15.28125 17.09375 15.28125 15.828125 
Q 15.28125 11.28125 18.140625 8.828125 
Q 21 6.390625 26.3125 6.390625 
Q 33.546875 6.390625 37.984375 10.484375 
Q 42.4375 14.59375 44 22.796875 
L 50.203125 54.6875 
L 59.1875 54.6875 
L 51.03125 12.640625 
Q 50.828125 11.71875 50.75 11.03125 
Q 50.6875 10.359375 50.6875 9.8125 
Q 50.6875 8.296875 51.296875 7.59375 
Q 51.90625 6.890625 53.21875 6.890625 
Q 53.71875 6.890625 54.5625 7.125 
Q 55.421875 7.375 56.984375 8.015625 
L 55.609375 0.78125 
Q 53.46875 -0.296875 51.515625 -0.859375 
Q 49.5625 -1.421875 47.703125 -1.421875 
Q 44.484375 -1.421875 42.65625 0.625 
Q 40.828125 2.6875 40.828125 6.296875 
Q 38.09375 2.390625 34.296875 0.484375 
Q 30.515625 -1.421875 25.390625 -1.421875 
Q 20.84375 -1.421875 17.453125 0.671875 
Q 14.0625 2.78125 12.984375 6.203125 
L 7.71875 -20.796875 
z
" id="DejaVuSans-Oblique-3bc"/>
      <path d="M 89.796875 33.015625 
L 83.40625 0 
L 74.421875 0 
L 80.71875 32.71875 
Q 81.109375 34.8125 81.296875 36.328125 
Q 81.5 37.84375 81.5 38.921875 
Q 81.5 43.3125 79.046875 45.75 
Q 76.609375 48.1875 72.21875 48.1875 
Q 65.671875 48.1875 60.546875 43.28125 
Q 55.421875 38.375 53.90625 30.515625 
L 47.90625 0 
L 38.921875 0 
L 45.3125 32.71875 
Q 45.703125 34.515625 45.890625 36.046875 
Q 46.09375 37.59375 46.09375 38.8125 
Q 46.09375 43.265625 43.65625 45.71875 
Q 41.21875 48.1875 36.921875 48.1875 
Q 30.28125 48.1875 25.140625 43.28125 
Q 20.015625 38.375 18.5 30.515625 
L 12.5 0 
L 3.515625 0 
L 14.203125 54.6875 
L 23.1875 54.6875 
L 21.484375 46.1875 
Q 25.140625 50.984375 30.046875 53.484375 
Q 34.96875 56 40.578125 56 
Q 46.53125 56 50.359375 52.875 
Q 54.203125 49.75 54.984375 44.1875 
Q 59.078125 49.953125 64.46875 52.96875 
Q 69.875 56 75.875 56 
Q 82.90625 56 86.734375 51.953125 
Q 90.578125 47.90625 90.578125 40.484375 
Q 90.578125 38.875 90.375 36.9375 
Q 90.1875 35.015625 89.796875 33.015625 
z
" id="DejaVuSans-Oblique-6d"/>
      <path d="M 8.015625 75.875 
L 15.828125 75.875 
Q 23.140625 64.359375 26.78125 53.3125 
Q 30.421875 42.28125 30.421875 31.390625 
Q 30.421875 20.453125 26.78125 9.375 
Q 23.140625 -1.703125 15.828125 -13.1875 
L 8.015625 -13.1875 
Q 14.5 -2 17.703125 9.0625 
Q 20.90625 20.125 20.90625 31.390625 
Q 20.90625 42.671875 17.703125 53.65625 
Q 14.5 64.65625 8.015625 75.875 
z
" id="DejaVuSans-29"/>
     </defs>
     <g transform="translate(22.4 181.4)rotate(-90)scale(0.2 -0.2)">
      <use transform="translate(0 0.125)" xlink:href="#DejaVuSans-Oblique-73"/>
      <use transform="translate(52.099609 0.125)" xlink:href="#DejaVuSans-20"/>
      <use transform="translate(83.886719 0.125)" xlink:href="#DejaVuSans-28"/>
      <use transform="translate(122.900391 0.125)" xlink:href="#DejaVuSans-Oblique-3bc"/>
      <use transform="translate(186.523438 0.125)" xlink:href="#DejaVuSans-Oblique-6d"/>
      <use transform="translate(283.935547 0.125)" xlink:href="#DejaVuSans-29"/>
     </g>
    </g>
   </g>
   <g id="line2d_29">
    <path clip-path="url(#p77d530ca59)" d="M 63.954688 230.64 
L 69.153445 222.261151 
L 74.352203 213.186115 
L 79.550961 203.178396 
L 84.749719 194.626241 
L 89.948476 185.168731 
L 95.147234 177.690218 
L 100.345992 170.67212 
L 105.54475 164.927152 
L 110.743507 157.719411 
L 115.942265 151.344458 
L 121.141023 143.820174 
L 126.339781 141.704386 
L 131.538538 139.466776 
L 136.737296 134.816951 
L 141.936054 131.879527 
L 147.134812 129.09754 
L 152.333569 125.14951 
L 157.532327 122.702375 
L 162.731085 122.232721 
L 167.929843 123.518739 
L 173.128601 122.348303 
L 178.327358 123.923167 
L 183.526116 122.504497 
L 188.724874 121.273229 
L 193.923632 120.710295 
L 199.122389 123.318258 
L 204.321147 120.851524 
L 209.519905 124.283793 
L 214.718663 122.363451 
L 219.91742 121.448812 
L 225.116178 120.51452 
L 230.314936 123.065865 
L 235.513694 119.309306 
L 240.712451 117.436824 
L 245.911209 115.630542 
L 251.109967 115.590141 
L 256.308725 114.249349 
L 261.507483 113.530307 
L 266.70624 114.696956 
L 271.904998 111.982106 
L 277.103756 109.748552 
L 282.302514 110.27425 
L 287.501271 109.376277 
L 292.700029 109.810884 
L 297.898787 112.16202 
L 303.097545 111.450367 
L 308.296302 110.022449 
L 313.49506 110.750642 
L 318.693818 110.547313 
L 323.892576 110.571033 
L 329.091333 108.076505 
L 334.290091 106.866918 
L 339.488849 106.614363 
L 344.687607 105.725118 
L 349.886365 107.400641 
L 355.085122 106.212833 
L 360.28388 106.588933 
L 365.482638 106.845729 
L 370.681396 108.177222 
L 375.880153 108.519236 
L 381.078911 109.675205 
L 386.277669 109.465666 
L 391.476427 106.309489 
L 396.675184 108.253747 
L 401.873942 107.80739 
L 407.0727 107.504265 
L 412.271458 106.097612 
L 417.470215 106.653484 
L 422.668973 108.399689 
L 427.867731 109.430921 
" style="fill:none;stroke:#1f77b4;stroke-linecap:square;stroke-width:3;"/>
   </g>
   <g id="line2d_30">
    <path clip-path="url(#p77d530ca59)" d="M 63.954688 230.64 
L 69.153445 230.113278 
L 74.352203 226.062341 
L 79.550961 220.165061 
L 84.749719 215.620881 
L 89.948476 223.100134 
L 95.147234 226.165584 
L 100.345992 228.24341 
L 105.54475 232.06015 
L 110.743507 229.80369 
L 115.942265 230.097762 
L 121.141023 238.007946 
L 126.339781 237.692145 
L 131.538538 236.213192 
L 136.737296 231.259848 
L 141.936054 231.038009 
L 147.134812 231.925997 
L 152.333569 231.362297 
L 157.532327 232.492015 
L 162.731085 236.480624 
L 167.929843 234.83926 
L 173.128601 235.012082 
L 178.327358 234.435797 
L 183.526116 232.919656 
L 188.724874 234.087991 
L 193.923632 231.738903 
L 199.122389 234.104212 
L 204.321147 233.637546 
L 209.519905 230.117402 
L 214.718663 230.781624 
L 219.91742 231.137359 
L 225.116178 232.077806 
L 230.314936 231.132215 
L 235.513694 233.261719 
L 240.712451 234.080193 
L 245.911209 234.358311 
L 251.109967 235.625211 
L 256.308725 234.686627 
L 261.507483 232.841052 
L 266.70624 230.920123 
L 271.904998 230.196378 
L 277.103756 227.856861 
L 282.302514 229.739371 
L 287.501271 228.589202 
L 292.700029 231.083896 
L 297.898787 230.741384 
L 303.097545 229.470397 
L 308.296302 230.153754 
L 313.49506 229.052633 
L 318.693818 228.531925 
L 323.892576 228.857186 
L 329.091333 228.735604 
L 334.290091 229.976005 
L 339.488849 230.021737 
L 344.687607 230.850327 
L 349.886365 231.347594 
L 355.085122 231.670972 
L 360.28388 232.500302 
L 365.482638 231.479399 
L 370.681396 231.580792 
L 375.880153 231.417291 
L 381.078911 232.125767 
L 386.277669 231.44651 
L 391.476427 231.087439 
L 396.675184 231.423463 
L 401.873942 231.591244 
L 407.0727 231.980868 
L 412.271458 232.206413 
L 417.470215 232.359177 
L 422.668973 231.642403 
L 427.867731 231.984508 
" style="fill:none;stroke:#ff7f0e;stroke-linecap:square;stroke-width:3;"/>
   </g>
   <g id="line2d_31">
    <path clip-path="url(#p77d530ca59)" d="M 63.954688 230.64 
L 69.153445 220.732515 
L 74.352203 210.118205 
L 79.550961 197.726525 
L 84.749719 186.234094 
L 89.948476 183.072458 
L 95.147234 176.616167 
L 100.345992 173.109768 
L 105.54475 169.217108 
L 110.743507 163.003024 
L 115.942265 156.200057 
L 121.141023 160.488981 
L 126.339781 161.320996 
L 131.538538 158.318855 
L 136.737296 143.78033 
L 141.936054 144.583912 
L 147.134812 149.231988 
L 152.333569 151.791698 
L 157.532327 158.278914 
L 162.731085 160.397854 
L 167.929843 159.37624 
L 173.128601 159.828581 
L 178.327358 162.128246 
L 183.526116 167.698194 
L 188.724874 167.793989 
L 193.923632 171.447752 
L 199.122389 179.665275 
L 204.321147 182.17081 
L 209.519905 187.405947 
L 214.718663 191.678219 
L 219.91742 193.568319 
L 225.116178 198.890892 
L 230.314936 201.632758 
L 235.513694 205.702985 
L 240.712451 208.037578 
L 245.911209 211.489653 
L 251.109967 213.291243 
L 256.308725 214.670986 
L 261.507483 212.739781 
L 266.70624 212.356012 
L 271.904998 212.57881 
L 277.103756 211.627984 
L 282.302514 215.204124 
L 287.501271 214.602903 
L 292.700029 218.424444 
L 297.898787 218.940996 
L 303.097545 218.124932 
L 308.296302 219.993631 
L 313.49506 219.8396 
L 318.693818 220.473334 
L 323.892576 221.352353 
L 329.091333 220.991304 
L 334.290091 222.924272 
L 339.488849 222.946143 
L 344.687607 224.057357 
L 349.886365 225.209773 
L 355.085122 226.209962 
L 360.28388 227.68489 
L 365.482638 227.146527 
L 370.681396 227.609796 
L 375.880153 227.601524 
L 381.078911 228.320135 
L 386.277669 228.101399 
L 391.476427 227.966876 
L 396.675184 228.568043 
L 401.873942 228.930467 
L 407.0727 229.504659 
L 412.271458 229.95761 
L 417.470215 230.341605 
L 422.668973 229.58273 
L 427.867731 230.147634 
" style="fill:none;stroke:#2ca02c;stroke-linecap:square;stroke-width:3;"/>
   </g>
   <g id="patch_3">
    <path d="M 63.954688 285 
L 63.954688 13.2 
" style="fill:none;stroke:#000000;stroke-linecap:square;stroke-linejoin:miter;stroke-width:2;"/>
   </g>
   <g id="patch_4">
    <path d="M 427.867731 285 
L 427.867731 13.2 
" style="fill:none;"/>
   </g>
   <g id="patch_5">
    <path d="M 63.954688 285 
L 427.867731 285 
" style="fill:none;stroke:#000000;stroke-linecap:square;stroke-linejoin:miter;stroke-width:2;"/>
   </g>
   <g id="patch_6">
    <path d="M 63.954688 13.2 
L 427.867731 13.2 
" style="fill:none;"/>
   </g>
   <g id="legend_1">
    <g id="patch_7">
     <path d="M 162.04195 91.251562 
L 417.367731 91.251562 
Q 420.367731 91.251562 420.367731 88.251562 
L 420.367731 23.7 
Q 420.367731 20.7 417.367731 20.7 
L 162.04195 20.7 
Q 159.04195 20.7 159.04195 23.7 
L 159.04195 88.251562 
Q 159.04195 91.251562 162.04195 91.251562 
z
" style="fill:#ffffff;opacity:0.8;stroke:#cccccc;stroke-linejoin:miter;"/>
    </g>
    <g id="line2d_32">
     <path d="M 165.04195 32.847656 
L 195.04195 32.847656 
" style="fill:none;stroke:#1f77b4;stroke-linecap:square;stroke-width:3;"/>
    </g>
    <g id="line2d_33"/>
    <g id="text_17">
     <!-- Single Lineage -->
     <defs>
      <path d="M 53.515625 70.515625 
L 53.515625 60.890625 
Q 47.90625 63.578125 42.921875 64.890625 
Q 37.9375 66.21875 33.296875 66.21875 
Q 25.25 66.21875 20.875 63.09375 
Q 16.5 59.96875 16.5 54.203125 
Q 16.5 49.359375 19.40625 46.890625 
Q 22.3125 44.4375 30.421875 42.921875 
L 36.375 41.703125 
Q 47.40625 39.59375 52.65625 34.296875 
Q 57.90625 29 57.90625 20.125 
Q 57.90625 9.515625 50.796875 4.046875 
Q 43.703125 -1.421875 29.984375 -1.421875 
Q 24.8125 -1.421875 18.96875 -0.25 
Q 13.140625 0.921875 6.890625 3.21875 
L 6.890625 13.375 
Q 12.890625 10.015625 18.65625 8.296875 
Q 24.421875 6.59375 29.984375 6.59375 
Q 38.421875 6.59375 43.015625 9.90625 
Q 47.609375 13.234375 47.609375 19.390625 
Q 47.609375 24.75 44.3125 27.78125 
Q 41.015625 30.8125 33.5 32.328125 
L 27.484375 33.5 
Q 16.453125 35.6875 11.515625 40.375 
Q 6.59375 45.0625 6.59375 53.421875 
Q 6.59375 63.09375 13.40625 68.65625 
Q 20.21875 74.21875 32.171875 74.21875 
Q 37.3125 74.21875 42.625 73.28125 
Q 47.953125 72.359375 53.515625 70.515625 
z
" id="DejaVuSans-53"/>
      <path d="M 9.421875 54.6875 
L 18.40625 54.6875 
L 18.40625 0 
L 9.421875 0 
z
M 9.421875 75.984375 
L 18.40625 75.984375 
L 18.40625 64.59375 
L 9.421875 64.59375 
z
" id="DejaVuSans-69"/>
      <path d="M 54.890625 33.015625 
L 54.890625 0 
L 45.90625 0 
L 45.90625 32.71875 
Q 45.90625 40.484375 42.875 44.328125 
Q 39.84375 48.1875 33.796875 48.1875 
Q 26.515625 48.1875 22.3125 43.546875 
Q 18.109375 38.921875 18.109375 30.90625 
L 18.109375 0 
L 9.078125 0 
L 9.078125 54.6875 
L 18.109375 54.6875 
L 18.109375 46.1875 
Q 21.34375 51.125 25.703125 53.5625 
Q 30.078125 56 35.796875 56 
Q 45.21875 56 50.046875 50.171875 
Q 54.890625 44.34375 54.890625 33.015625 
z
" id="DejaVuSans-6e"/>
      <path d="M 45.40625 27.984375 
Q 45.40625 37.75 41.375 43.109375 
Q 37.359375 48.484375 30.078125 48.484375 
Q 22.859375 48.484375 18.828125 43.109375 
Q 14.796875 37.75 14.796875 27.984375 
Q 14.796875 18.265625 18.828125 12.890625 
Q 22.859375 7.515625 30.078125 7.515625 
Q 37.359375 7.515625 41.375 12.890625 
Q 45.40625 18.265625 45.40625 27.984375 
z
M 54.390625 6.78125 
Q 54.390625 -7.171875 48.1875 -13.984375 
Q 42 -20.796875 29.203125 -20.796875 
Q 24.46875 -20.796875 20.265625 -20.09375 
Q 16.0625 -19.390625 12.109375 -17.921875 
L 12.109375 -9.1875 
Q 16.0625 -11.328125 19.921875 -12.34375 
Q 23.78125 -13.375 27.78125 -13.375 
Q 36.625 -13.375 41.015625 -8.765625 
Q 45.40625 -4.15625 45.40625 5.171875 
L 45.40625 9.625 
Q 42.625 4.78125 38.28125 2.390625 
Q 33.9375 0 27.875 0 
Q 17.828125 0 11.671875 7.65625 
Q 5.515625 15.328125 5.515625 27.984375 
Q 5.515625 40.671875 11.671875 48.328125 
Q 17.828125 56 27.875 56 
Q 33.9375 56 38.28125 53.609375 
Q 42.625 51.21875 45.40625 46.390625 
L 45.40625 54.6875 
L 54.390625 54.6875 
z
" id="DejaVuSans-67"/>
      <path d="M 9.421875 75.984375 
L 18.40625 75.984375 
L 18.40625 0 
L 9.421875 0 
z
" id="DejaVuSans-6c"/>
      <path d="M 56.203125 29.59375 
L 56.203125 25.203125 
L 14.890625 25.203125 
Q 15.484375 15.921875 20.484375 11.0625 
Q 25.484375 6.203125 34.421875 6.203125 
Q 39.59375 6.203125 44.453125 7.46875 
Q 49.3125 8.734375 54.109375 11.28125 
L 54.109375 2.78125 
Q 49.265625 0.734375 44.1875 -0.34375 
Q 39.109375 -1.421875 33.890625 -1.421875 
Q 20.796875 -1.421875 13.15625 6.1875 
Q 5.515625 13.8125 5.515625 26.8125 
Q 5.515625 40.234375 12.765625 48.109375 
Q 20.015625 56 32.328125 56 
Q 43.359375 56 49.78125 48.890625 
Q 56.203125 41.796875 56.203125 29.59375 
z
M 47.21875 32.234375 
Q 47.125 39.59375 43.09375 43.984375 
Q 39.0625 48.390625 32.421875 48.390625 
Q 24.90625 48.390625 20.390625 44.140625 
Q 15.875 39.890625 15.1875 32.171875 
z
" id="DejaVuSans-65"/>
      <path d="M 9.8125 72.90625 
L 19.671875 72.90625 
L 19.671875 8.296875 
L 55.171875 8.296875 
L 55.171875 0 
L 9.8125 0 
z
" id="DejaVuSans-4c"/>
      <path d="M 34.28125 27.484375 
Q 23.390625 27.484375 19.1875 25 
Q 14.984375 22.515625 14.984375 16.5 
Q 14.984375 11.71875 18.140625 8.90625 
Q 21.296875 6.109375 26.703125 6.109375 
Q 34.1875 6.109375 38.703125 11.40625 
Q 43.21875 16.703125 43.21875 25.484375 
L 43.21875 27.484375 
z
M 52.203125 31.203125 
L 52.203125 0 
L 43.21875 0 
L 43.21875 8.296875 
Q 40.140625 3.328125 35.546875 0.953125 
Q 30.953125 -1.421875 24.3125 -1.421875 
Q 15.921875 -1.421875 10.953125 3.296875 
Q 6 8.015625 6 15.921875 
Q 6 25.140625 12.171875 29.828125 
Q 18.359375 34.515625 30.609375 34.515625 
L 43.21875 34.515625 
L 43.21875 35.40625 
Q 43.21875 41.609375 39.140625 45 
Q 35.0625 48.390625 27.6875 48.390625 
Q 23 48.390625 18.546875 47.265625 
Q 14.109375 46.140625 10.015625 43.890625 
L 10.015625 52.203125 
Q 14.9375 54.109375 19.578125 55.046875 
Q 24.21875 56 28.609375 56 
Q 40.484375 56 46.34375 49.84375 
Q 52.203125 43.703125 52.203125 31.203125 
z
" id="DejaVuSans-61"/>
     </defs>
     <g transform="translate(207.04195 38.097656)scale(0.15 -0.15)">
      <use xlink:href="#DejaVuSans-53"/>
      <use x="63.476562" xlink:href="#DejaVuSans-69"/>
      <use x="91.259766" xlink:href="#DejaVuSans-6e"/>
      <use x="154.638672" xlink:href="#DejaVuSans-67"/>
      <use x="218.115234" xlink:href="#DejaVuSans-6c"/>
      <use x="245.898438" xlink:href="#DejaVuSans-65"/>
      <use x="307.421875" xlink:href="#DejaVuSans-20"/>
      <use x="339.208984" xlink:href="#DejaVuSans-4c"/>
      <use x="394.921875" xlink:href="#DejaVuSans-69"/>
      <use x="422.705078" xlink:href="#DejaVuSans-6e"/>
      <use x="486.083984" xlink:href="#DejaVuSans-65"/>
      <use x="547.607422" xlink:href="#DejaVuSans-61"/>
      <use x="608.886719" xlink:href="#DejaVuSans-67"/>
      <use x="672.363281" xlink:href="#DejaVuSans-65"/>
     </g>
    </g>
    <g id="line2d_34">
     <path d="M 165.04195 54.864844 
L 195.04195 54.864844 
" style="fill:none;stroke:#ff7f0e;stroke-linecap:square;stroke-width:3;"/>
    </g>
    <g id="line2d_35"/>
    <g id="text_18">
     <!-- Population Snapshots (PBE) -->
     <defs>
      <path d="M 19.671875 64.796875 
L 19.671875 37.40625 
L 32.078125 37.40625 
Q 38.96875 37.40625 42.71875 40.96875 
Q 46.484375 44.53125 46.484375 51.125 
Q 46.484375 57.671875 42.71875 61.234375 
Q 38.96875 64.796875 32.078125 64.796875 
z
M 9.8125 72.90625 
L 32.078125 72.90625 
Q 44.34375 72.90625 50.609375 67.359375 
Q 56.890625 61.8125 56.890625 51.125 
Q 56.890625 40.328125 50.609375 34.8125 
Q 44.34375 29.296875 32.078125 29.296875 
L 19.671875 29.296875 
L 19.671875 0 
L 9.8125 0 
z
" id="DejaVuSans-50"/>
      <path d="M 30.609375 48.390625 
Q 23.390625 48.390625 19.1875 42.75 
Q 14.984375 37.109375 14.984375 27.296875 
Q 14.984375 17.484375 19.15625 11.84375 
Q 23.34375 6.203125 30.609375 6.203125 
Q 37.796875 6.203125 41.984375 11.859375 
Q 46.1875 17.53125 46.1875 27.296875 
Q 46.1875 37.015625 41.984375 42.703125 
Q 37.796875 48.390625 30.609375 48.390625 
z
M 30.609375 56 
Q 42.328125 56 49.015625 48.375 
Q 55.71875 40.765625 55.71875 27.296875 
Q 55.71875 13.875 49.015625 6.21875 
Q 42.328125 -1.421875 30.609375 -1.421875 
Q 18.84375 -1.421875 12.171875 6.21875 
Q 5.515625 13.875 5.515625 27.296875 
Q 5.515625 40.765625 12.171875 48.375 
Q 18.84375 56 30.609375 56 
z
" id="DejaVuSans-6f"/>
      <path d="M 18.109375 8.203125 
L 18.109375 -20.796875 
L 9.078125 -20.796875 
L 9.078125 54.6875 
L 18.109375 54.6875 
L 18.109375 46.390625 
Q 20.953125 51.265625 25.265625 53.625 
Q 29.59375 56 35.59375 56 
Q 45.5625 56 51.78125 48.09375 
Q 58.015625 40.1875 58.015625 27.296875 
Q 58.015625 14.40625 51.78125 6.484375 
Q 45.5625 -1.421875 35.59375 -1.421875 
Q 29.59375 -1.421875 25.265625 0.953125 
Q 20.953125 3.328125 18.109375 8.203125 
z
M 48.6875 27.296875 
Q 48.6875 37.203125 44.609375 42.84375 
Q 40.53125 48.484375 33.40625 48.484375 
Q 26.265625 48.484375 22.1875 42.84375 
Q 18.109375 37.203125 18.109375 27.296875 
Q 18.109375 17.390625 22.1875 11.75 
Q 26.265625 6.109375 33.40625 6.109375 
Q 40.53125 6.109375 44.609375 11.75 
Q 48.6875 17.390625 48.6875 27.296875 
z
" id="DejaVuSans-70"/>
      <path d="M 8.5 21.578125 
L 8.5 54.6875 
L 17.484375 54.6875 
L 17.484375 21.921875 
Q 17.484375 14.15625 20.5 10.265625 
Q 23.53125 6.390625 29.59375 6.390625 
Q 36.859375 6.390625 41.078125 11.03125 
Q 45.3125 15.671875 45.3125 23.6875 
L 45.3125 54.6875 
L 54.296875 54.6875 
L 54.296875 0 
L 45.3125 0 
L 45.3125 8.40625 
Q 42.046875 3.421875 37.71875 1 
Q 33.40625 -1.421875 27.6875 -1.421875 
Q 18.265625 -1.421875 13.375 4.4375 
Q 8.5 10.296875 8.5 21.578125 
z
M 31.109375 56 
z
" id="DejaVuSans-75"/>
      <path d="M 18.3125 70.21875 
L 18.3125 54.6875 
L 36.8125 54.6875 
L 36.8125 47.703125 
L 18.3125 47.703125 
L 18.3125 18.015625 
Q 18.3125 11.328125 20.140625 9.421875 
Q 21.96875 7.515625 27.59375 7.515625 
L 36.8125 7.515625 
L 36.8125 0 
L 27.59375 0 
Q 17.1875 0 13.234375 3.875 
Q 9.28125 7.765625 9.28125 18.015625 
L 9.28125 47.703125 
L 2.6875 47.703125 
L 2.6875 54.6875 
L 9.28125 54.6875 
L 9.28125 70.21875 
z
" id="DejaVuSans-74"/>
      <path d="M 44.28125 53.078125 
L 44.28125 44.578125 
Q 40.484375 46.53125 36.375 47.5 
Q 32.28125 48.484375 27.875 48.484375 
Q 21.1875 48.484375 17.84375 46.4375 
Q 14.5 44.390625 14.5 40.28125 
Q 14.5 37.15625 16.890625 35.375 
Q 19.28125 33.59375 26.515625 31.984375 
L 29.59375 31.296875 
Q 39.15625 29.25 43.1875 25.515625 
Q 47.21875 21.78125 47.21875 15.09375 
Q 47.21875 7.46875 41.1875 3.015625 
Q 35.15625 -1.421875 24.609375 -1.421875 
Q 20.21875 -1.421875 15.453125 -0.5625 
Q 10.6875 0.296875 5.421875 2 
L 5.421875 11.28125 
Q 10.40625 8.6875 15.234375 7.390625 
Q 20.0625 6.109375 24.8125 6.109375 
Q 31.15625 6.109375 34.5625 8.28125 
Q 37.984375 10.453125 37.984375 14.40625 
Q 37.984375 18.0625 35.515625 20.015625 
Q 33.0625 21.96875 24.703125 23.78125 
L 21.578125 24.515625 
Q 13.234375 26.265625 9.515625 29.90625 
Q 5.8125 33.546875 5.8125 39.890625 
Q 5.8125 47.609375 11.28125 51.796875 
Q 16.75 56 26.8125 56 
Q 31.78125 56 36.171875 55.265625 
Q 40.578125 54.546875 44.28125 53.078125 
z
" id="DejaVuSans-73"/>
      <path d="M 54.890625 33.015625 
L 54.890625 0 
L 45.90625 0 
L 45.90625 32.71875 
Q 45.90625 40.484375 42.875 44.328125 
Q 39.84375 48.1875 33.796875 48.1875 
Q 26.515625 48.1875 22.3125 43.546875 
Q 18.109375 38.921875 18.109375 30.90625 
L 18.109375 0 
L 9.078125 0 
L 9.078125 75.984375 
L 18.109375 75.984375 
L 18.109375 46.1875 
Q 21.34375 51.125 25.703125 53.5625 
Q 30.078125 56 35.796875 56 
Q 45.21875 56 50.046875 50.171875 
Q 54.890625 44.34375 54.890625 33.015625 
z
" id="DejaVuSans-68"/>
      <path d="M 19.671875 34.8125 
L 19.671875 8.109375 
L 35.5 8.109375 
Q 43.453125 8.109375 47.28125 11.40625 
Q 51.125 14.703125 51.125 21.484375 
Q 51.125 28.328125 47.28125 31.5625 
Q 43.453125 34.8125 35.5 34.8125 
z
M 19.671875 64.796875 
L 19.671875 42.828125 
L 34.28125 42.828125 
Q 41.5 42.828125 45.03125 45.53125 
Q 48.578125 48.25 48.578125 53.8125 
Q 48.578125 59.328125 45.03125 62.0625 
Q 41.5 64.796875 34.28125 64.796875 
z
M 9.8125 72.90625 
L 35.015625 72.90625 
Q 46.296875 72.90625 52.390625 68.21875 
Q 58.5 63.53125 58.5 54.890625 
Q 58.5 48.1875 55.375 44.234375 
Q 52.25 40.28125 46.1875 39.3125 
Q 53.46875 37.75 57.5 32.78125 
Q 61.53125 27.828125 61.53125 20.40625 
Q 61.53125 10.640625 54.890625 5.3125 
Q 48.25 0 35.984375 0 
L 9.8125 0 
z
" id="DejaVuSans-42"/>
      <path d="M 9.8125 72.90625 
L 55.90625 72.90625 
L 55.90625 64.59375 
L 19.671875 64.59375 
L 19.671875 43.015625 
L 54.390625 43.015625 
L 54.390625 34.71875 
L 19.671875 34.71875 
L 19.671875 8.296875 
L 56.78125 8.296875 
L 56.78125 0 
L 9.8125 0 
z
" id="DejaVuSans-45"/>
     </defs>
     <g transform="translate(207.04195 60.114844)scale(0.15 -0.15)">
      <use xlink:href="#DejaVuSans-50"/>
      <use x="60.255859" xlink:href="#DejaVuSans-6f"/>
      <use x="121.4375" xlink:href="#DejaVuSans-70"/>
      <use x="184.914062" xlink:href="#DejaVuSans-75"/>
      <use x="248.292969" xlink:href="#DejaVuSans-6c"/>
      <use x="276.076172" xlink:href="#DejaVuSans-61"/>
      <use x="337.355469" xlink:href="#DejaVuSans-74"/>
      <use x="376.564453" xlink:href="#DejaVuSans-69"/>
      <use x="404.347656" xlink:href="#DejaVuSans-6f"/>
      <use x="465.529297" xlink:href="#DejaVuSans-6e"/>
      <use x="528.908203" xlink:href="#DejaVuSans-20"/>
      <use x="560.695312" xlink:href="#DejaVuSans-53"/>
      <use x="624.171875" xlink:href="#DejaVuSans-6e"/>
      <use x="687.550781" xlink:href="#DejaVuSans-61"/>
      <use x="748.830078" xlink:href="#DejaVuSans-70"/>
      <use x="812.306641" xlink:href="#DejaVuSans-73"/>
      <use x="864.40625" xlink:href="#DejaVuSans-68"/>
      <use x="927.785156" xlink:href="#DejaVuSans-6f"/>
      <use x="988.966797" xlink:href="#DejaVuSans-74"/>
      <use x="1028.175781" xlink:href="#DejaVuSans-73"/>
      <use x="1080.275391" xlink:href="#DejaVuSans-20"/>
      <use x="1112.0625" xlink:href="#DejaVuSans-28"/>
      <use x="1151.076172" xlink:href="#DejaVuSans-50"/>
      <use x="1211.378906" xlink:href="#DejaVuSans-42"/>
      <use x="1279.982422" xlink:href="#DejaVuSans-45"/>
      <use x="1343.166016" xlink:href="#DejaVuSans-29"/>
     </g>
    </g>
    <g id="line2d_36">
     <path d="M 165.04195 76.882031 
L 195.04195 76.882031 
" style="fill:none;stroke:#2ca02c;stroke-linecap:square;stroke-width:3;"/>
    </g>
    <g id="line2d_37"/>
    <g id="text_19">
     <!-- Lineage Tracking -->
     <defs>
      <path d="M -0.296875 72.90625 
L 61.375 72.90625 
L 61.375 64.59375 
L 35.5 64.59375 
L 35.5 0 
L 25.59375 0 
L 25.59375 64.59375 
L -0.296875 64.59375 
z
" id="DejaVuSans-54"/>
      <path d="M 41.109375 46.296875 
Q 39.59375 47.171875 37.8125 47.578125 
Q 36.03125 48 33.890625 48 
Q 26.265625 48 22.1875 43.046875 
Q 18.109375 38.09375 18.109375 28.8125 
L 18.109375 0 
L 9.078125 0 
L 9.078125 54.6875 
L 18.109375 54.6875 
L 18.109375 46.1875 
Q 20.953125 51.171875 25.484375 53.578125 
Q 30.03125 56 36.53125 56 
Q 37.453125 56 38.578125 55.875 
Q 39.703125 55.765625 41.0625 55.515625 
z
" id="DejaVuSans-72"/>
      <path d="M 48.78125 52.59375 
L 48.78125 44.1875 
Q 44.96875 46.296875 41.140625 47.34375 
Q 37.3125 48.390625 33.40625 48.390625 
Q 24.65625 48.390625 19.8125 42.84375 
Q 14.984375 37.3125 14.984375 27.296875 
Q 14.984375 17.28125 19.8125 11.734375 
Q 24.65625 6.203125 33.40625 6.203125 
Q 37.3125 6.203125 41.140625 7.25 
Q 44.96875 8.296875 48.78125 10.40625 
L 48.78125 2.09375 
Q 45.015625 0.34375 40.984375 -0.53125 
Q 36.96875 -1.421875 32.421875 -1.421875 
Q 20.0625 -1.421875 12.78125 6.34375 
Q 5.515625 14.109375 5.515625 27.296875 
Q 5.515625 40.671875 12.859375 48.328125 
Q 20.21875 56 33.015625 56 
Q 37.15625 56 41.109375 55.140625 
Q 45.0625 54.296875 48.78125 52.59375 
z
" id="DejaVuSans-63"/>
      <path d="M 9.078125 75.984375 
L 18.109375 75.984375 
L 18.109375 31.109375 
L 44.921875 54.6875 
L 56.390625 54.6875 
L 27.390625 29.109375 
L 57.625 0 
L 45.90625 0 
L 18.109375 26.703125 
L 18.109375 0 
L 9.078125 0 
z
" id="DejaVuSans-6b"/>
     </defs>
     <g transform="translate(207.04195 82.132031)scale(0.15 -0.15)">
      <use xlink:href="#DejaVuSans-4c"/>
      <use x="55.712891" xlink:href="#DejaVuSans-69"/>
      <use x="83.496094" xlink:href="#DejaVuSans-6e"/>
      <use x="146.875" xlink:href="#DejaVuSans-65"/>
      <use x="208.398438" xlink:href="#DejaVuSans-61"/>
      <use x="269.677734" xlink:href="#DejaVuSans-67"/>
      <use x="333.154297" xlink:href="#DejaVuSans-65"/>
      <use x="394.677734" xlink:href="#DejaVuSans-20"/>
      <use x="426.464844" xlink:href="#DejaVuSans-54"/>
      <use x="487.330078" xlink:href="#DejaVuSans-72"/>
      <use x="528.443359" xlink:href="#DejaVuSans-61"/>
      <use x="589.722656" xlink:href="#DejaVuSans-63"/>
      <use x="644.703125" xlink:href="#DejaVuSans-6b"/>
      <use x="702.613281" xlink:href="#DejaVuSans-69"/>
      <use x="730.396484" xlink:href="#DejaVuSans-6e"/>
      <use x="793.775391" xlink:href="#DejaVuSans-67"/>
     </g>
    </g>
   </g>
  </g>
  <g id="axes_2">
   <g id="patch_8">
    <path d="M 537.041644 285 
L 900.954688 285 
L 900.954688 13.2 
L 537.041644 13.2 
z
" style="fill:#ffffff;"/>
   </g>
   <g id="PolyCollection_4">
    <defs>
     <path d="M 537.041644 -67.088155 
L 537.041644 -67.088155 
L 542.240402 -75.486218 
L 547.43916 -84.087451 
L 552.637917 -92.305276 
L 557.836675 -101.701859 
L 563.035433 -110.708939 
L 568.234191 -121.20381 
L 573.432948 -132.049252 
L 578.631706 -142.822348 
L 583.830464 -152.784951 
L 589.029222 -162.715448 
L 594.227979 -171.495173 
L 599.426737 -180.962692 
L 604.625495 -189.446653 
L 609.824253 -197.238717 
L 615.02301 -205.507637 
L 620.221768 -213.733812 
L 625.420526 -220.50191 
L 630.619284 -223.779908 
L 635.818042 -229.741211 
L 641.016799 -228.433284 
L 646.215557 -229.112665 
L 651.414315 -225.191024 
L 656.613073 -226.331184 
L 661.81183 -229.657531 
L 667.010588 -232.225106 
L 672.209346 -233.982376 
L 677.408104 -238.471344 
L 682.606861 -238.765575 
L 687.805619 -235.066614 
L 693.004377 -240.909582 
L 698.203135 -242.90666 
L 703.401892 -240.454049 
L 708.60065 -245.163637 
L 713.799408 -245.519832 
L 718.998166 -244.526281 
L 724.196924 -242.320237 
L 729.395681 -243.484404 
L 734.594439 -237.160437 
L 739.793197 -236.910188 
L 744.991955 -237.001496 
L 750.190712 -235.268748 
L 755.38947 -229.362819 
L 760.588228 -236.21522 
L 765.786986 -235.843615 
L 770.985743 -233.874395 
L 776.184501 -241.167626 
L 781.383259 -241.015286 
L 786.582017 -241.500707 
L 791.780774 -236.730278 
L 796.979532 -235.225721 
L 802.17829 -239.436417 
L 807.377048 -238.452356 
L 812.575806 -237.245558 
L 817.774563 -233.24172 
L 822.973321 -231.437416 
L 828.172079 -231.019924 
L 833.370837 -232.283002 
L 838.569594 -234.760173 
L 843.768352 -235.321555 
L 848.96711 -234.247903 
L 854.165868 -233.868817 
L 859.364625 -239.32424 
L 864.563383 -244.478712 
L 869.762141 -236.328412 
L 874.960899 -243.119101 
L 880.159656 -238.14298 
L 885.358414 -238.176184 
L 890.557172 -240.437185 
L 895.75593 -240.303515 
L 900.954687 -238.353672 
L 900.954687 -260.060627 
L 900.954687 -260.060627 
L 895.75593 -262.624793 
L 890.557172 -262.241113 
L 885.358414 -257.769676 
L 880.159656 -259.132306 
L 874.960899 -263.479962 
L 869.762141 -256.945644 
L 864.563383 -269.631236 
L 859.364625 -261.655282 
L 854.165868 -256.73649 
L 848.96711 -254.836313 
L 843.768352 -257.603219 
L 838.569594 -253.712157 
L 833.370837 -251.073415 
L 828.172079 -250.627489 
L 822.973321 -249.522304 
L 817.774563 -251.915733 
L 812.575806 -256.856285 
L 807.377048 -260.88917 
L 802.17829 -259.368891 
L 796.979532 -255.636516 
L 791.780774 -256.013918 
L 786.582017 -260.900627 
L 781.383259 -262.441102 
L 776.184501 -261.947647 
L 770.985743 -253.029499 
L 765.786986 -254.98911 
L 760.588228 -254.970951 
L 755.38947 -246.626517 
L 750.190712 -253.931451 
L 744.991955 -258.889726 
L 739.793197 -258.033554 
L 734.594439 -260.917494 
L 729.395681 -266.470553 
L 724.196924 -264.898844 
L 718.998166 -267.290339 
L 713.799408 -267.325344 
L 708.60065 -265.994927 
L 703.401892 -258.575301 
L 698.203135 -260.224376 
L 693.004377 -258.546285 
L 687.805619 -255.102064 
L 682.606861 -262.192916 
L 677.408104 -258.613795 
L 672.209346 -254.421824 
L 667.010588 -251.651122 
L 661.81183 -248.363493 
L 656.613073 -244.901959 
L 651.414315 -242.514009 
L 646.215557 -245.434953 
L 641.016799 -244.604071 
L 635.818042 -244.657498 
L 630.619284 -236.950725 
L 625.420526 -232.078153 
L 620.221768 -224.411467 
L 615.02301 -215.0422 
L 609.824253 -205.053737 
L 604.625495 -196.677835 
L 599.426737 -187.762126 
L 594.227979 -178.151853 
L 589.029222 -169.021845 
L 583.830464 -158.605222 
L 578.631706 -148.388814 
L 573.432948 -137.254019 
L 568.234191 -125.912827 
L 563.035433 -114.894417 
L 557.836675 -105.50304 
L 552.637917 -95.534929 
L 547.43916 -86.862349 
L 542.240402 -77.399094 
L 537.041644 -67.088155 
z
" id="m638c659209"/>
    </defs>
    <g clip-path="url(#p648260df45)">
     <use style="fill:#4db8ff;" x="0" xlink:href="#m638c659209" y="339.573438"/>
    </g>
   </g>
   <g id="PolyCollection_5">
    <defs>
     <path d="M 537.041644 -67.088155 
L 537.041644 -67.088155 
L 542.240402 -78.496473 
L 547.43916 -89.804725 
L 552.637917 -98.950194 
L 557.836675 -109.696676 
L 563.035433 -129.841798 
L 568.234191 -146.887244 
L 573.432948 -158.861408 
L 578.631706 -175.372529 
L 583.830464 -183.10728 
L 589.029222 -194.948196 
L 594.227979 -210.138756 
L 599.426737 -211.961079 
L 604.625495 -213.723358 
L 609.824253 -229.509641 
L 615.02301 -229.743816 
L 620.221768 -229.55329 
L 625.420526 -232.649635 
L 630.619284 -233.284092 
L 635.818042 -242.83198 
L 641.016799 -246.056667 
L 646.215557 -250.141199 
L 651.414315 -260.639015 
L 656.613073 -259.998351 
L 661.81183 -264.4581 
L 667.010588 -263.650043 
L 672.209346 -259.361166 
L 677.408104 -254.857237 
L 682.606861 -251.603795 
L 687.805619 -257.013268 
L 693.004377 -257.492291 
L 698.203135 -252.311133 
L 703.401892 -245.845305 
L 708.60065 -246.852275 
L 713.799408 -249.636088 
L 718.998166 -252.494305 
L 724.196924 -253.086528 
L 729.395681 -256.623744 
L 734.594439 -260.963355 
L 739.793197 -259.020346 
L 744.991955 -263.136452 
L 750.190712 -264.33208 
L 755.38947 -270.457521 
L 760.588228 -271.580921 
L 765.786986 -266.738939 
L 770.985743 -269.553036 
L 776.184501 -266.108522 
L 781.383259 -269.830823 
L 786.582017 -272.72865 
L 791.780774 -274.822852 
L 796.979532 -269.981361 
L 802.17829 -268.599665 
L 807.377048 -267.236042 
L 812.575806 -268.749479 
L 817.774563 -269.584073 
L 822.973321 -270.068234 
L 828.172079 -270.797751 
L 833.370837 -272.46434 
L 838.569594 -271.753979 
L 843.768352 -269.943028 
L 848.96711 -270.73904 
L 854.165868 -273.691704 
L 859.364625 -273.688809 
L 864.563383 -274.017786 
L 869.762141 -275.314643 
L 874.960899 -272.460977 
L 880.159656 -270.680833 
L 885.358414 -271.312674 
L 890.557172 -268.604278 
L 895.75593 -270.22512 
L 900.954687 -271.669589 
L 900.954687 -281.291274 
L 900.954687 -281.291274 
L 895.75593 -280.124866 
L 890.557172 -277.67391 
L 885.358414 -281.695758 
L 880.159656 -280.969486 
L 874.960899 -282.623768 
L 869.762141 -287.044553 
L 864.563383 -285.348823 
L 859.364625 -285.809641 
L 854.165868 -286.923237 
L 848.96711 -285.708685 
L 843.768352 -284.248908 
L 838.569594 -286.96616 
L 833.370837 -289.643973 
L 828.172079 -287.729603 
L 822.973321 -286.324 
L 817.774563 -285.339458 
L 812.575806 -284.880554 
L 807.377048 -283.191011 
L 802.17829 -284.672315 
L 796.979532 -290.654552 
L 791.780774 -296.157973 
L 786.582017 -294.343686 
L 781.383259 -290.171912 
L 776.184501 -287.229761 
L 770.985743 -292.407434 
L 765.786986 -288.7192 
L 760.588228 -295.628382 
L 755.38947 -294.05964 
L 750.190712 -287.398924 
L 744.991955 -285.538358 
L 739.793197 -281.833239 
L 734.594439 -282.228733 
L 729.395681 -277.336428 
L 724.196924 -278.213847 
L 718.998166 -283.329505 
L 713.799408 -277.916672 
L 708.60065 -276.051333 
L 703.401892 -275.487527 
L 698.203135 -283.802399 
L 693.004377 -291.661058 
L 687.805619 -290.750745 
L 682.606861 -281.881011 
L 677.408104 -297.478774 
L 672.209346 -306.534225 
L 667.010588 -305.866032 
L 661.81183 -314.018892 
L 656.613073 -301.760349 
L 651.414315 -307.762606 
L 646.215557 -296.890312 
L 641.016799 -291.371756 
L 635.818042 -287.288196 
L 630.619284 -274.643567 
L 625.420526 -274.315945 
L 620.221768 -267.426772 
L 615.02301 -266.894057 
L 609.824253 -265.102143 
L 604.625495 -246.487679 
L 599.426737 -242.207887 
L 594.227979 -238.477186 
L 589.029222 -219.743827 
L 583.830464 -204.04675 
L 578.631706 -195.245831 
L 573.432948 -176.995164 
L 568.234191 -165.932912 
L 563.035433 -145.875728 
L 557.836675 -123.849654 
L 552.637917 -112.117972 
L 547.43916 -101.03719 
L 542.240402 -89.1412 
L 537.041644 -67.088155 
z
" id="ma88db040ac"/>
    </defs>
    <g clip-path="url(#p648260df45)">
     <use style="fill:#ffa035;" x="0" xlink:href="#ma88db040ac" y="339.573438"/>
    </g>
   </g>
   <g id="PolyCollection_6">
    <defs>
     <path d="M 537.041644 -67.088155 
L 537.041644 -67.088155 
L 542.240402 -66.927983 
L 547.43916 -66.947929 
L 552.637917 -66.939769 
L 557.836675 -67.398828 
L 563.035433 -68.773286 
L 568.234191 -70.633095 
L 573.432948 -72.226127 
L 578.631706 -74.470047 
L 583.830464 -76.345797 
L 589.029222 -79.014853 
L 594.227979 -85.440982 
L 599.426737 -90.070918 
L 604.625495 -94.092729 
L 609.824253 -95.523076 
L 615.02301 -98.443667 
L 620.221768 -105.633145 
L 625.420526 -112.30499 
L 630.619284 -120.495204 
L 635.818042 -124.448751 
L 641.016799 -131.499845 
L 646.215557 -136.222106 
L 651.414315 -149.39001 
L 656.613073 -155.213105 
L 661.81183 -159.087072 
L 667.010588 -162.682416 
L 672.209346 -167.453107 
L 677.408104 -166.905636 
L 682.606861 -170.705992 
L 687.805619 -180.981923 
L 693.004377 -185.987483 
L 698.203135 -186.638967 
L 703.401892 -188.28078 
L 708.60065 -193.154693 
L 713.799408 -198.881473 
L 718.998166 -205.232735 
L 724.196924 -207.847536 
L 729.395681 -215.025589 
L 734.594439 -218.22047 
L 739.793197 -217.947688 
L 744.991955 -225.178952 
L 750.190712 -228.626592 
L 755.38947 -237.767764 
L 760.588228 -239.361056 
L 765.786986 -236.858493 
L 770.985743 -241.28464 
L 776.184501 -239.625951 
L 781.383259 -245.638436 
L 786.582017 -252.030721 
L 791.780774 -255.325361 
L 796.979532 -252.802991 
L 802.17829 -250.682746 
L 807.377048 -250.471638 
L 812.575806 -252.327963 
L 817.774563 -253.97955 
L 822.973321 -256.007767 
L 828.172079 -257.536866 
L 833.370837 -260.44316 
L 838.569594 -259.987996 
L 843.768352 -259.445428 
L 848.96711 -260.829813 
L 854.165868 -263.81581 
L 859.364625 -264.575609 
L 864.563383 -265.734809 
L 869.762141 -268.292047 
L 874.960899 -264.730355 
L 880.159656 -264.13783 
L 885.358414 -265.676957 
L 890.557172 -263.214912 
L 895.75593 -265.855852 
L 900.954687 -266.789076 
L 900.954687 -276.756052 
L 900.954687 -276.756052 
L 895.75593 -275.841375 
L 890.557172 -273.281722 
L 885.358414 -277.430328 
L 880.159656 -276.134983 
L 874.960899 -277.72234 
L 869.762141 -281.180699 
L 864.563383 -279.124296 
L 859.364625 -278.379115 
L 854.165868 -278.706333 
L 848.96711 -275.452429 
L 843.768352 -274.849742 
L 838.569594 -275.189278 
L 833.370837 -276.015195 
L 828.172079 -272.749761 
L 822.973321 -271.76395 
L 817.774563 -270.05416 
L 812.575806 -270.22148 
L 807.377048 -267.125904 
L 802.17829 -267.841844 
L 796.979532 -272.053582 
L 791.780774 -276.331279 
L 786.582017 -271.585559 
L 781.383259 -264.559435 
L 776.184501 -260.647116 
L 770.985743 -264.072366 
L 765.786986 -257.888349 
L 760.588228 -260.77002 
L 755.38947 -259.277322 
L 750.190712 -250.828079 
L 744.991955 -246.313078 
L 739.793197 -240.87004 
L 734.594439 -240.183228 
L 729.395681 -235.822472 
L 724.196924 -228.584552 
L 718.998166 -227.46614 
L 713.799408 -220.364307 
L 708.60065 -219.66405 
L 703.401892 -212.486188 
L 698.203135 -211.995863 
L 693.004377 -210.994829 
L 687.805619 -205.539671 
L 682.606861 -194.87777 
L 677.408104 -188.590958 
L 672.209346 -190.044592 
L 667.010588 -184.847735 
L 661.81183 -180.445864 
L 656.613073 -177.169709 
L 651.414315 -170.481533 
L 646.215557 -154.576728 
L 641.016799 -151.034036 
L 635.818042 -142.330223 
L 630.619284 -138.878158 
L 625.420526 -130.138297 
L 620.221768 -121.166812 
L 615.02301 -113.387077 
L 609.824253 -109.204754 
L 604.625495 -106.749721 
L 599.426737 -101.351903 
L 594.227979 -96.171377 
L 589.029222 -86.951681 
L 583.830464 -83.149332 
L 578.631706 -80.589828 
L 573.432948 -78.047474 
L 568.234191 -76.375112 
L 563.035433 -72.717145 
L 557.836675 -69.212097 
L 552.637917 -68.450826 
L 547.43916 -67.854563 
L 542.240402 -67.834617 
L 537.041644 -67.088155 
z
" id="m37dec3d44f"/>
    </defs>
    <g clip-path="url(#p648260df45)">
     <use style="fill:#47d200;" x="0" xlink:href="#m37dec3d44f" y="339.573438"/>
    </g>
   </g>
   <g id="matplotlib.axis_3">
    <g id="xtick_9">
     <g id="line2d_38">
      <path clip-path="url(#p648260df45)" d="M 537.041644 285 
L 537.041644 13.2 
" style="fill:none;stroke:#b0b0b0;stroke-linecap:square;stroke-width:0.8;"/>
     </g>
     <g id="line2d_39">
      <g>
       <use x="537.041644" xlink:href="#m40bab371c4" y="285"/>
      </g>
     </g>
     <g id="text_20">
      <!-- 0 -->
      <g transform="translate(532.269769 305.897656)scale(0.15 -0.15)">
       <use xlink:href="#DejaVuSans-30"/>
      </g>
     </g>
    </g>
    <g id="xtick_10">
     <g id="line2d_40">
      <path clip-path="url(#p648260df45)" d="M 589.029222 285 
L 589.029222 13.2 
" style="fill:none;stroke:#b0b0b0;stroke-linecap:square;stroke-width:0.8;"/>
     </g>
     <g id="line2d_41">
      <g>
       <use x="589.029222" xlink:href="#m40bab371c4" y="285"/>
      </g>
     </g>
     <g id="text_21">
      <!-- 1 -->
      <g transform="translate(584.257347 305.897656)scale(0.15 -0.15)">
       <use xlink:href="#DejaVuSans-31"/>
      </g>
     </g>
    </g>
    <g id="xtick_11">
     <g id="line2d_42">
      <path clip-path="url(#p648260df45)" d="M 641.016799 285 
L 641.016799 13.2 
" style="fill:none;stroke:#b0b0b0;stroke-linecap:square;stroke-width:0.8;"/>
     </g>
     <g id="line2d_43">
      <g>
       <use x="641.016799" xlink:href="#m40bab371c4" y="285"/>
      </g>
     </g>
     <g id="text_22">
      <!-- 2 -->
      <g transform="translate(636.244924 305.897656)scale(0.15 -0.15)">
       <use xlink:href="#DejaVuSans-32"/>
      </g>
     </g>
    </g>
    <g id="xtick_12">
     <g id="line2d_44">
      <path clip-path="url(#p648260df45)" d="M 693.004377 285 
L 693.004377 13.2 
" style="fill:none;stroke:#b0b0b0;stroke-linecap:square;stroke-width:0.8;"/>
     </g>
     <g id="line2d_45">
      <g>
       <use x="693.004377" xlink:href="#m40bab371c4" y="285"/>
      </g>
     </g>
     <g id="text_23">
      <!-- 3 -->
      <g transform="translate(688.232502 305.897656)scale(0.15 -0.15)">
       <use xlink:href="#DejaVuSans-33"/>
      </g>
     </g>
    </g>
    <g id="xtick_13">
     <g id="line2d_46">
      <path clip-path="url(#p648260df45)" d="M 744.991955 285 
L 744.991955 13.2 
" style="fill:none;stroke:#b0b0b0;stroke-linecap:square;stroke-width:0.8;"/>
     </g>
     <g id="line2d_47">
      <g>
       <use x="744.991955" xlink:href="#m40bab371c4" y="285"/>
      </g>
     </g>
     <g id="text_24">
      <!-- 4 -->
      <g transform="translate(740.22008 305.897656)scale(0.15 -0.15)">
       <use xlink:href="#DejaVuSans-34"/>
      </g>
     </g>
    </g>
    <g id="xtick_14">
     <g id="line2d_48">
      <path clip-path="url(#p648260df45)" d="M 796.979532 285 
L 796.979532 13.2 
" style="fill:none;stroke:#b0b0b0;stroke-linecap:square;stroke-width:0.8;"/>
     </g>
     <g id="line2d_49">
      <g>
       <use x="796.979532" xlink:href="#m40bab371c4" y="285"/>
      </g>
     </g>
     <g id="text_25">
      <!-- 5 -->
      <g transform="translate(792.207657 305.897656)scale(0.15 -0.15)">
       <use xlink:href="#DejaVuSans-35"/>
      </g>
     </g>
    </g>
    <g id="xtick_15">
     <g id="line2d_50">
      <path clip-path="url(#p648260df45)" d="M 848.96711 285 
L 848.96711 13.2 
" style="fill:none;stroke:#b0b0b0;stroke-linecap:square;stroke-width:0.8;"/>
     </g>
     <g id="line2d_51">
      <g>
       <use x="848.96711" xlink:href="#m40bab371c4" y="285"/>
      </g>
     </g>
     <g id="text_26">
      <!-- 6 -->
      <g transform="translate(844.195235 305.897656)scale(0.15 -0.15)">
       <use xlink:href="#DejaVuSans-36"/>
      </g>
     </g>
    </g>
    <g id="xtick_16">
     <g id="line2d_52">
      <path clip-path="url(#p648260df45)" d="M 900.954688 285 
L 900.954688 13.2 
" style="fill:none;stroke:#b0b0b0;stroke-linecap:square;stroke-width:0.8;"/>
     </g>
     <g id="line2d_53">
      <g>
       <use x="900.954688" xlink:href="#m40bab371c4" y="285"/>
      </g>
     </g>
     <g id="text_27">
      <!-- 7 -->
      <g transform="translate(896.182813 305.897656)scale(0.15 -0.15)">
       <use xlink:href="#DejaVuSans-37"/>
      </g>
     </g>
    </g>
    <g id="text_28">
     <!-- $t/\tau$ -->
     <g transform="translate(705.598166 328.214063)scale(0.2 -0.2)">
      <use transform="translate(0 0.09375)" xlink:href="#DejaVuSans-Oblique-74"/>
      <use transform="translate(39.208984 0.09375)" xlink:href="#DejaVuSans-2f"/>
      <use transform="translate(72.900391 0.09375)" xlink:href="#DejaVuSans-Oblique-3c4"/>
     </g>
    </g>
   </g>
   <g id="matplotlib.axis_4">
    <g id="ytick_7">
     <g id="line2d_54">
      <path clip-path="url(#p648260df45)" d="M 537.041644 272.485283 
L 900.954688 272.485283 
" style="fill:none;stroke:#b0b0b0;stroke-linecap:square;stroke-width:0.8;"/>
     </g>
     <g id="line2d_55">
      <g>
       <use x="537.041644" xlink:href="#m7cb7ae29ba" y="272.485283"/>
      </g>
     </g>
     <g id="text_29">
      <!-- 0.0 -->
      <g transform="translate(503.686957 278.184111)scale(0.15 -0.15)">
       <use xlink:href="#DejaVuSans-30"/>
       <use x="63.623047" xlink:href="#DejaVuSans-2e"/>
       <use x="95.410156" xlink:href="#DejaVuSans-30"/>
      </g>
     </g>
    </g>
    <g id="ytick_8">
     <g id="line2d_56">
      <path clip-path="url(#p648260df45)" d="M 537.041644 224.131455 
L 900.954688 224.131455 
" style="fill:none;stroke:#b0b0b0;stroke-linecap:square;stroke-width:0.8;"/>
     </g>
     <g id="line2d_57">
      <g>
       <use x="537.041644" xlink:href="#m7cb7ae29ba" y="224.131455"/>
      </g>
     </g>
     <g id="text_30">
      <!-- 0.1 -->
      <g transform="translate(503.686957 229.830283)scale(0.15 -0.15)">
       <use xlink:href="#DejaVuSans-30"/>
       <use x="63.623047" xlink:href="#DejaVuSans-2e"/>
       <use x="95.410156" xlink:href="#DejaVuSans-31"/>
      </g>
     </g>
    </g>
    <g id="ytick_9">
     <g id="line2d_58">
      <path clip-path="url(#p648260df45)" d="M 537.041644 175.777627 
L 900.954688 175.777627 
" style="fill:none;stroke:#b0b0b0;stroke-linecap:square;stroke-width:0.8;"/>
     </g>
     <g id="line2d_59">
      <g>
       <use x="537.041644" xlink:href="#m7cb7ae29ba" y="175.777627"/>
      </g>
     </g>
     <g id="text_31">
      <!-- 0.2 -->
      <g transform="translate(503.686957 181.476456)scale(0.15 -0.15)">
       <use xlink:href="#DejaVuSans-30"/>
       <use x="63.623047" xlink:href="#DejaVuSans-2e"/>
       <use x="95.410156" xlink:href="#DejaVuSans-32"/>
      </g>
     </g>
    </g>
    <g id="ytick_10">
     <g id="line2d_60">
      <path clip-path="url(#p648260df45)" d="M 537.041644 127.4238 
L 900.954688 127.4238 
" style="fill:none;stroke:#b0b0b0;stroke-linecap:square;stroke-width:0.8;"/>
     </g>
     <g id="line2d_61">
      <g>
       <use x="537.041644" xlink:href="#m7cb7ae29ba" y="127.4238"/>
      </g>
     </g>
     <g id="text_32">
      <!-- 0.3 -->
      <g transform="translate(503.686957 133.122628)scale(0.15 -0.15)">
       <use xlink:href="#DejaVuSans-30"/>
       <use x="63.623047" xlink:href="#DejaVuSans-2e"/>
       <use x="95.410156" xlink:href="#DejaVuSans-33"/>
      </g>
     </g>
    </g>
    <g id="ytick_11">
     <g id="line2d_62">
      <path clip-path="url(#p648260df45)" d="M 537.041644 79.069972 
L 900.954688 79.069972 
" style="fill:none;stroke:#b0b0b0;stroke-linecap:square;stroke-width:0.8;"/>
     </g>
     <g id="line2d_63">
      <g>
       <use x="537.041644" xlink:href="#m7cb7ae29ba" y="79.069972"/>
      </g>
     </g>
     <g id="text_33">
      <!-- 0.4 -->
      <g transform="translate(503.686957 84.768801)scale(0.15 -0.15)">
       <use xlink:href="#DejaVuSans-30"/>
       <use x="63.623047" xlink:href="#DejaVuSans-2e"/>
       <use x="95.410156" xlink:href="#DejaVuSans-34"/>
      </g>
     </g>
    </g>
    <g id="ytick_12">
     <g id="line2d_64">
      <path clip-path="url(#p648260df45)" d="M 537.041644 30.716145 
L 900.954688 30.716145 
" style="fill:none;stroke:#b0b0b0;stroke-linecap:square;stroke-width:0.8;"/>
     </g>
     <g id="line2d_65">
      <g>
       <use x="537.041644" xlink:href="#m7cb7ae29ba" y="30.716145"/>
      </g>
     </g>
     <g id="text_34">
      <!-- 0.5 -->
      <g transform="translate(503.686957 36.414973)scale(0.15 -0.15)">
       <use xlink:href="#DejaVuSans-30"/>
       <use x="63.623047" xlink:href="#DejaVuSans-2e"/>
       <use x="95.410156" xlink:href="#DejaVuSans-35"/>
      </g>
     </g>
    </g>
    <g id="text_35">
     <!-- $C_V^2(s)$ -->
     <defs>
      <path d="M 69.484375 67.28125 
L 67.484375 56.890625 
Q 62.796875 61.625 57.546875 63.921875 
Q 52.296875 66.21875 46.1875 66.21875 
Q 37.84375 66.21875 31.515625 62.203125 
Q 25.203125 58.203125 20.609375 50 
Q 17.671875 44.734375 16.125 38.84375 
Q 14.59375 32.953125 14.59375 27 
Q 14.59375 17.046875 19.75 11.8125 
Q 24.90625 6.59375 34.71875 6.59375 
Q 41.5 6.59375 47.75 8.765625 
Q 54 10.9375 59.90625 15.28125 
L 57.625 3.609375 
Q 51.8125 1.125 45.875 -0.140625 
Q 39.9375 -1.421875 33.984375 -1.421875 
Q 19.96875 -1.421875 12.078125 6.1875 
Q 4.203125 13.8125 4.203125 27.390625 
Q 4.203125 36.078125 7.203125 44.46875 
Q 10.203125 52.875 15.828125 59.8125 
Q 21.78125 67.1875 29.421875 70.703125 
Q 37.0625 74.21875 47.21875 74.21875 
Q 53.46875 74.21875 59.0625 72.484375 
Q 64.65625 70.75 69.484375 67.28125 
z
" id="DejaVuSans-Oblique-43"/>
      <path d="M 20.609375 0 
L 7.8125 72.90625 
L 17.484375 72.90625 
L 28.078125 10.203125 
L 63.484375 72.90625 
L 74.21875 72.90625 
L 32.078125 0 
z
" id="DejaVuSans-Oblique-56"/>
     </defs>
     <g transform="translate(494.086957 174.6)rotate(-90)scale(0.2 -0.2)">
      <use transform="translate(0 0.765625)" xlink:href="#DejaVuSans-Oblique-43"/>
      <use transform="translate(77.02474 39.046875)scale(0.7)" xlink:href="#DejaVuSans-32"/>
      <use transform="translate(69.824219 -26.578125)scale(0.7)" xlink:href="#DejaVuSans-Oblique-56"/>
      <use transform="translate(124.295247 0.765625)" xlink:href="#DejaVuSans-28"/>
      <use transform="translate(163.308919 0.765625)" xlink:href="#DejaVuSans-Oblique-73"/>
      <use transform="translate(215.408529 0.765625)" xlink:href="#DejaVuSans-29"/>
     </g>
    </g>
   </g>
   <g id="line2d_66">
    <path clip-path="url(#p648260df45)" d="M 537.041644 272.485283 
L 542.240402 263.130781 
L 547.43916 254.098537 
L 552.637917 245.653335 
L 557.836675 235.970988 
L 563.035433 226.771759 
L 568.234191 216.015119 
L 573.432948 204.921802 
L 578.631706 193.967857 
L 583.830464 183.878351 
L 589.029222 173.704791 
L 594.227979 164.749925 
L 599.426737 155.211028 
L 604.625495 146.511193 
L 609.824253 138.427211 
L 615.02301 129.298519 
L 620.221768 120.500798 
L 625.420526 113.283406 
L 630.619284 109.208121 
L 635.818042 102.374083 
L 641.016799 103.05476 
L 646.215557 102.299628 
L 651.414315 105.720921 
L 656.613073 103.956866 
L 661.81183 100.562926 
L 667.010588 97.635324 
L 672.209346 95.371338 
L 677.408104 91.030868 
L 682.606861 89.094192 
L 687.805619 94.489099 
L 693.004377 89.845504 
L 698.203135 88.00792 
L 703.401892 90.058763 
L 708.60065 83.994155 
L 713.799408 83.150849 
L 718.998166 83.665127 
L 724.196924 85.963897 
L 729.395681 84.595959 
L 734.594439 90.534472 
L 739.793197 92.101567 
L 744.991955 91.627826 
L 750.190712 94.973338 
L 755.38947 101.57877 
L 760.588228 93.980352 
L 765.786986 94.157075 
L 770.985743 96.12149 
L 776.184501 88.015801 
L 781.383259 87.845243 
L 786.582017 88.372771 
L 791.780774 93.201339 
L 796.979532 94.142319 
L 802.17829 90.170784 
L 807.377048 89.902674 
L 812.575806 92.522516 
L 817.774563 96.994711 
L 822.973321 99.093577 
L 828.172079 98.749731 
L 833.370837 97.895229 
L 838.569594 95.337272 
L 843.768352 93.11105 
L 848.96711 95.03133 
L 854.165868 94.270784 
L 859.364625 89.083676 
L 864.563383 82.518463 
L 869.762141 92.93641 
L 874.960899 86.273906 
L 880.159656 90.935795 
L 885.358414 91.600508 
L 890.557172 88.234289 
L 895.75593 88.109283 
L 900.954687 90.366288 
" style="fill:none;stroke:#1f77b4;stroke-linecap:square;stroke-width:3;"/>
   </g>
   <g id="line2d_67">
    <path clip-path="url(#p648260df45)" d="M 537.041644 272.485283 
L 542.240402 255.754601 
L 547.43916 244.15248 
L 552.637917 234.039355 
L 557.836675 222.800272 
L 563.035433 201.714674 
L 568.234191 183.16336 
L 573.432948 171.645152 
L 578.631706 154.264257 
L 583.830464 145.996423 
L 589.029222 132.227426 
L 594.227979 115.265466 
L 599.426737 112.488955 
L 604.625495 109.467919 
L 609.824253 92.267546 
L 615.02301 91.254501 
L 620.221768 91.083406 
L 625.420526 86.090647 
L 630.619284 85.609608 
L 635.818042 74.513349 
L 641.016799 70.859226 
L 646.215557 66.057682 
L 651.414315 55.372627 
L 656.613073 58.694088 
L 661.81183 50.334941 
L 667.010588 54.8154 
L 672.209346 56.625742 
L 677.408104 63.405432 
L 682.606861 72.831034 
L 687.805619 65.691431 
L 693.004377 64.996763 
L 698.203135 71.516672 
L 703.401892 78.907022 
L 708.60065 78.121634 
L 713.799408 75.797057 
L 718.998166 71.661532 
L 724.196924 73.92325 
L 729.395681 72.593352 
L 734.594439 67.977394 
L 739.793197 69.146645 
L 744.991955 65.236033 
L 750.190712 63.707935 
L 755.38947 57.314857 
L 760.588228 55.968786 
L 765.786986 61.844368 
L 770.985743 58.593202 
L 776.184501 62.904296 
L 781.383259 59.57207 
L 786.582017 56.03727 
L 791.780774 54.083025 
L 796.979532 59.255481 
L 802.17829 62.937448 
L 807.377048 64.359911 
L 812.575806 62.758421 
L 817.774563 62.111672 
L 822.973321 61.37732 
L 828.172079 60.30976 
L 833.370837 58.519281 
L 838.569594 60.213368 
L 843.768352 62.477469 
L 848.96711 61.349575 
L 854.165868 59.265967 
L 859.364625 59.824212 
L 864.563383 59.890133 
L 869.762141 58.39384 
L 874.960899 62.031065 
L 880.159656 63.748278 
L 885.358414 63.069221 
L 890.557172 66.434343 
L 895.75593 64.398445 
L 900.954687 63.093006 
" style="fill:none;stroke:#ff7f0e;stroke-linecap:square;stroke-width:3;"/>
   </g>
   <g id="line2d_68">
    <path clip-path="url(#p648260df45)" d="M 537.041644 272.485283 
L 542.240402 272.192137 
L 547.43916 272.172191 
L 552.637917 271.87814 
L 557.836675 271.267975 
L 563.035433 268.828222 
L 568.234191 266.069334 
L 573.432948 264.436637 
L 578.631706 262.0435 
L 583.830464 259.825873 
L 589.029222 256.590171 
L 594.227979 248.767258 
L 599.426737 243.862027 
L 604.625495 239.152213 
L 609.824253 237.209523 
L 615.02301 233.658066 
L 620.221768 226.173459 
L 625.420526 218.351794 
L 630.619284 209.886757 
L 635.818042 206.183951 
L 641.016799 198.306497 
L 646.215557 194.17402 
L 651.414315 179.637666 
L 656.613073 173.382031 
L 661.81183 169.80697 
L 667.010588 165.808362 
L 672.209346 160.824588 
L 677.408104 161.825141 
L 682.606861 156.781556 
L 687.805619 146.31264 
L 693.004377 141.082282 
L 698.203135 140.256022 
L 703.401892 139.189954 
L 708.60065 133.164066 
L 713.799408 129.950547 
L 718.998166 123.224 
L 724.196924 121.357393 
L 729.395681 114.149407 
L 734.594439 110.371589 
L 739.793197 110.164573 
L 744.991955 103.827422 
L 750.190712 99.846102 
L 755.38947 91.050894 
L 760.588228 89.507899 
L 765.786986 92.200017 
L 770.985743 86.894934 
L 776.184501 89.436904 
L 781.383259 84.474502 
L 786.582017 77.765298 
L 791.780774 73.745118 
L 796.979532 77.145151 
L 802.17829 80.311143 
L 807.377048 80.774667 
L 812.575806 78.298716 
L 817.774563 77.556582 
L 822.973321 75.687579 
L 828.172079 74.430124 
L 833.370837 71.34426 
L 838.569594 71.984801 
L 843.768352 72.425853 
L 848.96711 71.432316 
L 854.165868 68.312366 
L 859.364625 68.096076 
L 864.563383 67.143885 
L 869.762141 64.837065 
L 874.960899 68.34709 
L 880.159656 69.437031 
L 885.358414 68.019795 
L 890.557172 71.32512 
L 895.75593 68.724824 
L 900.954687 67.800874 
" style="fill:none;stroke:#2ca02c;stroke-linecap:square;stroke-width:3;"/>
   </g>
   <g id="patch_9">
    <path d="M 537.041644 285 
L 537.041644 13.2 
" style="fill:none;stroke:#000000;stroke-linecap:square;stroke-linejoin:miter;stroke-width:2;"/>
   </g>
   <g id="patch_10">
    <path d="M 900.954688 285 
L 900.954688 13.2 
" style="fill:none;"/>
   </g>
   <g id="patch_11">
    <path d="M 537.041644 285 
L 900.954688 285 
" style="fill:none;stroke:#000000;stroke-linecap:square;stroke-linejoin:miter;stroke-width:2;"/>
   </g>
   <g id="patch_12">
    <path d="M 537.041644 13.2 
L 900.954688 13.2 
" style="fill:none;"/>
   </g>
  </g>
 </g>
 <defs>
  <clipPath id="p77d530ca59">
   <rect height="271.8" width="363.913043" x="63.954688" y="13.2"/>
  </clipPath>
  <clipPath id="p648260df45">
   <rect height="271.8" width="363.913043" x="537.041644" y="13.2"/>
  </clipPath>
 </defs>
</svg>
