<?xml version="1.0" encoding="utf-8" standalone="no"?>
<!DOCTYPE svg PUBLIC "-//W3C//DTD SVG 1.1//EN"
  "http://www.w3.org/Graphics/SVG/1.1/DTD/svg11.dtd">
<!-- Created with matplotlib (http://matplotlib.org/) -->
<svg height="285.213437pt" version="1.1" viewBox="0 0 732.44375 285.213437" width="732.44375pt" xmlns="http://www.w3.org/2000/svg" xmlns:xlink="http://www.w3.org/1999/xlink">
 <defs>
  <style type="text/css">
*{stroke-linecap:butt;stroke-linejoin:round;}
  </style>
 </defs>
 <g id="figure_1">
  <g id="patch_1">
   <path d="M 0 285.213437 
L 732.44375 285.213437 
L 732.44375 0 
L 0 0 
z
" style="fill:#ffffff;"/>
  </g>
  <g id="axes_1">
   <g id="patch_2">
    <path d="M 49.64375 230.64 
L 340.774185 230.64 
L 340.774185 13.2 
L 49.64375 13.2 
z
" style="fill:#ffffff;"/>
   </g>
   <g id="PolyCollection_1">
    <path clip-path="url(#p9af150fd25)" d="M 57.961762 179.609101 
L 57.961762 179.609101 
L 57.961762 179.609101 
L 57.961762 179.609101 
z
" style="fill:#4db8ff;"/>
    <path clip-path="url(#p9af150fd25)" d="M 66.279775 163.736873 
L 66.279775 163.889141 
L 70.438781 155.676093 
L 74.597787 148.314245 
L 78.756793 143.498588 
L 82.9158 142.851375 
L 87.074806 146.217091 
L 91.233812 153.020566 
L 95.392818 158.901024 
L 99.551825 162.893803 
L 103.710831 163.555621 
L 107.869837 160.778625 
L 112.028843 155.515877 
L 116.187849 150.163608 
L 120.346856 146.135817 
L 124.505862 144.350926 
L 128.664868 146.272629 
L 132.823874 150.938199 
L 136.98288 156.473186 
L 141.141887 159.526672 
L 145.300893 161.150861 
L 149.459899 159.582195 
L 153.618905 154.789355 
L 157.777911 150.478581 
L 161.936918 146.786004 
L 166.095924 145.40037 
L 170.25493 147.075177 
L 174.413936 151.515824 
L 178.572943 156.316913 
L 182.731949 160.0021 
L 186.890955 160.733246 
L 191.049961 158.947323 
L 195.208967 155.154368 
L 199.367974 150.789961 
L 203.52698 147.160773 
L 207.685986 145.861901 
L 211.844992 148.023196 
L 216.003998 151.236148 
L 220.163005 155.8624 
L 224.322011 160.16858 
L 228.481017 161.502264 
L 232.640023 159.419374 
L 236.79903 155.765853 
L 240.958036 151.28794 
L 245.117042 148.057892 
L 249.276048 146.579386 
L 253.435054 148.072724 
L 257.594061 152.277685 
L 261.753067 157.046886 
L 265.912073 161.268243 
L 270.071079 162.170791 
L 274.230085 160.198451 
L 278.389092 155.826804 
L 282.548098 150.829958 
L 286.707104 146.99324 
L 290.86611 146.155409 
L 295.025116 148.265155 
L 299.184123 152.705317 
L 303.343129 156.346105 
L 307.502135 160.355965 
L 311.661141 161.186361 
L 315.820148 159.278525 
L 319.979154 155.139231 
L 324.13816 150.412639 
L 328.297166 146.730375 
L 332.456172 145.205619 
L 336.615179 146.815529 
L 340.774185 151.441017 
L 344.933191 156.099555 
L 349.092197 159.8951 
L 353.251203 161.230618 
L 357.41021 158.970997 
L 361.569216 154.946263 
L 365.728222 150.452946 
L 369.887228 146.626999 
L 374.046234 145.390084 
L 378.205241 146.692957 
L 382.364247 150.352986 
L 386.523253 155.703388 
L 390.682259 159.485859 
L 394.841266 161.105063 
L 399.000272 159.218518 
L 403.159278 155.384243 
L 407.318284 150.485729 
L 411.47729 147.005387 
L 415.636297 145.409655 
L 419.795303 147.390265 
L 423.954309 150.696934 
L 428.113315 155.900152 
L 432.272321 160.41992 
L 436.431328 161.220323 
L 440.590334 159.220156 
L 444.74934 154.937292 
L 448.908346 150.690695 
L 453.067352 146.942254 
L 457.226359 145.580613 
L 461.385365 147.232729 
L 465.544371 150.557802 
L 465.544371 147.977541 
L 465.544371 147.977541 
L 461.385365 144.889705 
L 457.226359 143.593196 
L 453.067352 145.333598 
L 448.908346 149.389321 
L 444.74934 153.60758 
L 440.590334 157.659438 
L 436.431328 159.248107 
L 432.272321 158.079774 
L 428.113315 153.312146 
L 423.954309 148.117859 
L 419.795303 145.045169 
L 415.636297 143.439658 
L 411.47729 145.452112 
L 407.318284 149.198806 
L 403.159278 154.109459 
L 399.000272 157.63649 
L 394.841266 159.133922 
L 390.682259 157.108503 
L 386.523253 153.109422 
L 382.364247 147.772165 
L 378.205241 144.351366 
L 374.046234 143.426778 
L 369.887228 145.073595 
L 365.728222 149.203334 
L 361.569216 153.59861 
L 357.41021 157.367589 
L 353.251203 159.260758 
L 349.092197 157.534183 
L 344.933191 153.512234 
L 340.774185 148.864527 
L 336.615179 144.472238 
L 332.456172 143.254298 
L 328.297166 145.151881 
L 324.13816 149.158897 
L 319.979154 153.959125 
L 315.820148 157.748612 
L 311.661141 159.213235 
L 307.502135 158.015282 
L 303.343129 153.765045 
L 299.184123 150.134749 
L 295.025116 145.909168 
L 290.86611 144.186571 
L 286.707104 145.494525 
L 282.548098 149.617273 
L 278.389092 154.66844 
L 274.230085 158.771413 
L 270.071079 160.270872 
L 265.912073 158.96552 
L 261.753067 154.48245 
L 257.594061 149.704896 
L 253.435054 145.719044 
L 249.276048 144.573834 
L 245.117042 146.458397 
L 240.958036 150.006756 
L 236.79903 154.492183 
L 232.640023 157.853691 
L 228.481017 159.53978 
L 224.322011 157.817316 
L 220.163005 153.270002 
L 216.003998 148.658879 
L 211.844992 145.664238 
L 207.685986 143.895991 
L 203.52698 145.599489 
L 199.367974 149.516038 
L 195.208967 153.891276 
L 191.049961 157.366664 
L 186.890955 158.725623 
L 182.731949 157.641263 
L 178.572943 153.734314 
L 174.413936 148.938074 
L 170.25493 144.734257 
L 166.095924 143.448939 
L 161.936918 145.277897 
L 157.777911 149.234195 
L 153.618905 153.51831 
L 149.459899 158.08432 
L 145.300893 159.179903 
L 141.141887 157.153324 
L 136.98288 153.89763 
L 132.823874 148.359892 
L 128.664868 143.937027 
L 124.505862 142.421623 
L 120.346856 144.656479 
L 116.187849 149.040676 
L 112.028843 154.504952 
L 107.869837 159.469986 
L 103.710831 161.800001 
L 99.551825 160.679652 
L 95.392818 156.383507 
L 91.233812 150.451782 
L 87.074806 143.888232 
L 82.9158 141.000723 
L 78.756793 142.237551 
L 74.597787 147.584922 
L 70.438781 155.319921 
L 66.279775 163.736873 
z
" style="fill:#4db8ff;"/>
   </g>
   <g id="matplotlib.axis_1">
    <g id="xtick_1">
     <g id="line2d_1">
      <path clip-path="url(#p9af150fd25)" d="M 49.64375 230.64 
L 49.64375 13.2 
" style="fill:none;stroke:#b0b0b0;stroke-linecap:square;stroke-width:0.8;"/>
     </g>
     <g id="line2d_2">
      <defs>
       <path d="M 0 0 
L 0 6 
" id="m8f24a098ac"/>
      </defs>
      <g>
       <use x="49.64375" xlink:href="#m8f24a098ac" y="230.64"/>
      </g>
     </g>
     <g id="text_1">
      <!-- 0 -->
      <defs>
       <path d="M 31.78125 66.40625 
Q 24.171875 66.40625 20.328125 58.90625 
Q 16.5 51.421875 16.5 36.375 
Q 16.5 21.390625 20.328125 13.890625 
Q 24.171875 6.390625 31.78125 6.390625 
Q 39.453125 6.390625 43.28125 13.890625 
Q 47.125 21.390625 47.125 36.375 
Q 47.125 51.421875 43.28125 58.90625 
Q 39.453125 66.40625 31.78125 66.40625 
z
M 31.78125 74.21875 
Q 44.046875 74.21875 50.515625 64.515625 
Q 56.984375 54.828125 56.984375 36.375 
Q 56.984375 17.96875 50.515625 8.265625 
Q 44.046875 -1.421875 31.78125 -1.421875 
Q 19.53125 -1.421875 13.0625 8.265625 
Q 6.59375 17.96875 6.59375 36.375 
Q 6.59375 54.828125 13.0625 64.515625 
Q 19.53125 74.21875 31.78125 74.21875 
z
" id="DejaVuSans-30"/>
      </defs>
      <g transform="translate(44.871875 251.537656)scale(0.15 -0.15)">
       <use xlink:href="#DejaVuSans-30"/>
      </g>
     </g>
    </g>
    <g id="xtick_2">
     <g id="line2d_3">
      <path clip-path="url(#p9af150fd25)" d="M 91.233812 230.64 
L 91.233812 13.2 
" style="fill:none;stroke:#b0b0b0;stroke-linecap:square;stroke-width:0.8;"/>
     </g>
     <g id="line2d_4">
      <g>
       <use x="91.233812" xlink:href="#m8f24a098ac" y="230.64"/>
      </g>
     </g>
     <g id="text_2">
      <!-- 1 -->
      <defs>
       <path d="M 12.40625 8.296875 
L 28.515625 8.296875 
L 28.515625 63.921875 
L 10.984375 60.40625 
L 10.984375 69.390625 
L 28.421875 72.90625 
L 38.28125 72.90625 
L 38.28125 8.296875 
L 54.390625 8.296875 
L 54.390625 0 
L 12.40625 0 
z
" id="DejaVuSans-31"/>
      </defs>
      <g transform="translate(86.461937 251.537656)scale(0.15 -0.15)">
       <use xlink:href="#DejaVuSans-31"/>
      </g>
     </g>
    </g>
    <g id="xtick_3">
     <g id="line2d_5">
      <path clip-path="url(#p9af150fd25)" d="M 132.823874 230.64 
L 132.823874 13.2 
" style="fill:none;stroke:#b0b0b0;stroke-linecap:square;stroke-width:0.8;"/>
     </g>
     <g id="line2d_6">
      <g>
       <use x="132.823874" xlink:href="#m8f24a098ac" y="230.64"/>
      </g>
     </g>
     <g id="text_3">
      <!-- 2 -->
      <defs>
       <path d="M 19.1875 8.296875 
L 53.609375 8.296875 
L 53.609375 0 
L 7.328125 0 
L 7.328125 8.296875 
Q 12.9375 14.109375 22.625 23.890625 
Q 32.328125 33.6875 34.8125 36.53125 
Q 39.546875 41.84375 41.421875 45.53125 
Q 43.3125 49.21875 43.3125 52.78125 
Q 43.3125 58.59375 39.234375 62.25 
Q 35.15625 65.921875 28.609375 65.921875 
Q 23.96875 65.921875 18.8125 64.3125 
Q 13.671875 62.703125 7.8125 59.421875 
L 7.8125 69.390625 
Q 13.765625 71.78125 18.9375 73 
Q 24.125 74.21875 28.421875 74.21875 
Q 39.75 74.21875 46.484375 68.546875 
Q 53.21875 62.890625 53.21875 53.421875 
Q 53.21875 48.921875 51.53125 44.890625 
Q 49.859375 40.875 45.40625 35.40625 
Q 44.1875 33.984375 37.640625 27.21875 
Q 31.109375 20.453125 19.1875 8.296875 
z
" id="DejaVuSans-32"/>
      </defs>
      <g transform="translate(128.051999 251.537656)scale(0.15 -0.15)">
       <use xlink:href="#DejaVuSans-32"/>
      </g>
     </g>
    </g>
    <g id="xtick_4">
     <g id="line2d_7">
      <path clip-path="url(#p9af150fd25)" d="M 174.413936 230.64 
L 174.413936 13.2 
" style="fill:none;stroke:#b0b0b0;stroke-linecap:square;stroke-width:0.8;"/>
     </g>
     <g id="line2d_8">
      <g>
       <use x="174.413936" xlink:href="#m8f24a098ac" y="230.64"/>
      </g>
     </g>
     <g id="text_4">
      <!-- 3 -->
      <defs>
       <path d="M 40.578125 39.3125 
Q 47.65625 37.796875 51.625 33 
Q 55.609375 28.21875 55.609375 21.1875 
Q 55.609375 10.40625 48.1875 4.484375 
Q 40.765625 -1.421875 27.09375 -1.421875 
Q 22.515625 -1.421875 17.65625 -0.515625 
Q 12.796875 0.390625 7.625 2.203125 
L 7.625 11.71875 
Q 11.71875 9.328125 16.59375 8.109375 
Q 21.484375 6.890625 26.8125 6.890625 
Q 36.078125 6.890625 40.9375 10.546875 
Q 45.796875 14.203125 45.796875 21.1875 
Q 45.796875 27.640625 41.28125 31.265625 
Q 36.765625 34.90625 28.71875 34.90625 
L 20.21875 34.90625 
L 20.21875 43.015625 
L 29.109375 43.015625 
Q 36.375 43.015625 40.234375 45.921875 
Q 44.09375 48.828125 44.09375 54.296875 
Q 44.09375 59.90625 40.109375 62.90625 
Q 36.140625 65.921875 28.71875 65.921875 
Q 24.65625 65.921875 20.015625 65.03125 
Q 15.375 64.15625 9.8125 62.3125 
L 9.8125 71.09375 
Q 15.4375 72.65625 20.34375 73.4375 
Q 25.25 74.21875 29.59375 74.21875 
Q 40.828125 74.21875 47.359375 69.109375 
Q 53.90625 64.015625 53.90625 55.328125 
Q 53.90625 49.265625 50.4375 45.09375 
Q 46.96875 40.921875 40.578125 39.3125 
z
" id="DejaVuSans-33"/>
      </defs>
      <g transform="translate(169.642061 251.537656)scale(0.15 -0.15)">
       <use xlink:href="#DejaVuSans-33"/>
      </g>
     </g>
    </g>
    <g id="xtick_5">
     <g id="line2d_9">
      <path clip-path="url(#p9af150fd25)" d="M 216.003998 230.64 
L 216.003998 13.2 
" style="fill:none;stroke:#b0b0b0;stroke-linecap:square;stroke-width:0.8;"/>
     </g>
     <g id="line2d_10">
      <g>
       <use x="216.003998" xlink:href="#m8f24a098ac" y="230.64"/>
      </g>
     </g>
     <g id="text_5">
      <!-- 4 -->
      <defs>
       <path d="M 37.796875 64.3125 
L 12.890625 25.390625 
L 37.796875 25.390625 
z
M 35.203125 72.90625 
L 47.609375 72.90625 
L 47.609375 25.390625 
L 58.015625 25.390625 
L 58.015625 17.1875 
L 47.609375 17.1875 
L 47.609375 0 
L 37.796875 0 
L 37.796875 17.1875 
L 4.890625 17.1875 
L 4.890625 26.703125 
z
" id="DejaVuSans-34"/>
      </defs>
      <g transform="translate(211.232123 251.537656)scale(0.15 -0.15)">
       <use xlink:href="#DejaVuSans-34"/>
      </g>
     </g>
    </g>
    <g id="xtick_6">
     <g id="line2d_11">
      <path clip-path="url(#p9af150fd25)" d="M 257.594061 230.64 
L 257.594061 13.2 
" style="fill:none;stroke:#b0b0b0;stroke-linecap:square;stroke-width:0.8;"/>
     </g>
     <g id="line2d_12">
      <g>
       <use x="257.594061" xlink:href="#m8f24a098ac" y="230.64"/>
      </g>
     </g>
     <g id="text_6">
      <!-- 5 -->
      <defs>
       <path d="M 10.796875 72.90625 
L 49.515625 72.90625 
L 49.515625 64.59375 
L 19.828125 64.59375 
L 19.828125 46.734375 
Q 21.96875 47.46875 24.109375 47.828125 
Q 26.265625 48.1875 28.421875 48.1875 
Q 40.625 48.1875 47.75 41.5 
Q 54.890625 34.8125 54.890625 23.390625 
Q 54.890625 11.625 47.5625 5.09375 
Q 40.234375 -1.421875 26.90625 -1.421875 
Q 22.3125 -1.421875 17.546875 -0.640625 
Q 12.796875 0.140625 7.71875 1.703125 
L 7.71875 11.625 
Q 12.109375 9.234375 16.796875 8.0625 
Q 21.484375 6.890625 26.703125 6.890625 
Q 35.15625 6.890625 40.078125 11.328125 
Q 45.015625 15.765625 45.015625 23.390625 
Q 45.015625 31 40.078125 35.4375 
Q 35.15625 39.890625 26.703125 39.890625 
Q 22.75 39.890625 18.8125 39.015625 
Q 14.890625 38.140625 10.796875 36.28125 
z
" id="DejaVuSans-35"/>
      </defs>
      <g transform="translate(252.822186 251.537656)scale(0.15 -0.15)">
       <use xlink:href="#DejaVuSans-35"/>
      </g>
     </g>
    </g>
    <g id="xtick_7">
     <g id="line2d_13">
      <path clip-path="url(#p9af150fd25)" d="M 299.184123 230.64 
L 299.184123 13.2 
" style="fill:none;stroke:#b0b0b0;stroke-linecap:square;stroke-width:0.8;"/>
     </g>
     <g id="line2d_14">
      <g>
       <use x="299.184123" xlink:href="#m8f24a098ac" y="230.64"/>
      </g>
     </g>
     <g id="text_7">
      <!-- 6 -->
      <defs>
       <path d="M 33.015625 40.375 
Q 26.375 40.375 22.484375 35.828125 
Q 18.609375 31.296875 18.609375 23.390625 
Q 18.609375 15.53125 22.484375 10.953125 
Q 26.375 6.390625 33.015625 6.390625 
Q 39.65625 6.390625 43.53125 10.953125 
Q 47.40625 15.53125 47.40625 23.390625 
Q 47.40625 31.296875 43.53125 35.828125 
Q 39.65625 40.375 33.015625 40.375 
z
M 52.59375 71.296875 
L 52.59375 62.3125 
Q 48.875 64.0625 45.09375 64.984375 
Q 41.3125 65.921875 37.59375 65.921875 
Q 27.828125 65.921875 22.671875 59.328125 
Q 17.53125 52.734375 16.796875 39.40625 
Q 19.671875 43.65625 24.015625 45.921875 
Q 28.375 48.1875 33.59375 48.1875 
Q 44.578125 48.1875 50.953125 41.515625 
Q 57.328125 34.859375 57.328125 23.390625 
Q 57.328125 12.15625 50.6875 5.359375 
Q 44.046875 -1.421875 33.015625 -1.421875 
Q 20.359375 -1.421875 13.671875 8.265625 
Q 6.984375 17.96875 6.984375 36.375 
Q 6.984375 53.65625 15.1875 63.9375 
Q 23.390625 74.21875 37.203125 74.21875 
Q 40.921875 74.21875 44.703125 73.484375 
Q 48.484375 72.75 52.59375 71.296875 
z
" id="DejaVuSans-36"/>
      </defs>
      <g transform="translate(294.412248 251.537656)scale(0.15 -0.15)">
       <use xlink:href="#DejaVuSans-36"/>
      </g>
     </g>
    </g>
    <g id="xtick_8">
     <g id="line2d_15">
      <path clip-path="url(#p9af150fd25)" d="M 340.774185 230.64 
L 340.774185 13.2 
" style="fill:none;stroke:#b0b0b0;stroke-linecap:square;stroke-width:0.8;"/>
     </g>
     <g id="line2d_16">
      <g>
       <use x="340.774185" xlink:href="#m8f24a098ac" y="230.64"/>
      </g>
     </g>
     <g id="text_8">
      <!-- 7 -->
      <defs>
       <path d="M 8.203125 72.90625 
L 55.078125 72.90625 
L 55.078125 68.703125 
L 28.609375 0 
L 18.3125 0 
L 43.21875 64.59375 
L 8.203125 64.59375 
z
" id="DejaVuSans-37"/>
      </defs>
      <g transform="translate(336.00231 251.537656)scale(0.15 -0.15)">
       <use xlink:href="#DejaVuSans-37"/>
      </g>
     </g>
    </g>
    <g id="text_9">
     <!-- $t/\tau$ -->
     <defs>
      <path d="M 42.28125 54.6875 
L 40.921875 47.703125 
L 23 47.703125 
L 17.1875 18.015625 
Q 16.890625 16.359375 16.75 15.234375 
Q 16.609375 14.109375 16.609375 13.484375 
Q 16.609375 10.359375 18.484375 8.9375 
Q 20.359375 7.515625 24.515625 7.515625 
L 33.59375 7.515625 
L 32.078125 0 
L 23.484375 0 
Q 15.484375 0 11.546875 3.125 
Q 7.625 6.25 7.625 12.59375 
Q 7.625 13.71875 7.765625 15.0625 
Q 7.90625 16.40625 8.203125 18.015625 
L 14.015625 47.703125 
L 6.390625 47.703125 
L 7.8125 54.6875 
L 15.28125 54.6875 
L 18.3125 70.21875 
L 27.296875 70.21875 
L 24.3125 54.6875 
z
" id="DejaVuSans-Oblique-74"/>
      <path d="M 25.390625 72.90625 
L 33.6875 72.90625 
L 8.296875 -9.28125 
L 0 -9.28125 
z
" id="DejaVuSans-2f"/>
      <path d="M 32.859375 9.96875 
Q 34.1875 7.625 39.453125 7.625 
L 43.75 7.625 
L 42.28125 0 
L 36.921875 0 
Q 28.125 0 25 4.6875 
Q 21.921875 9.46875 23.96875 19.828125 
L 29 45.703125 
L 8.453125 45.703125 
L 10.203125 54.6875 
L 60.640625 54.6875 
L 58.890625 45.703125 
L 38.1875 45.703125 
L 33.015625 19.28125 
Q 31.640625 12.203125 32.859375 9.96875 
z
" id="DejaVuSans-Oblique-3c4"/>
     </defs>
     <g transform="translate(181.808967 273.854062)scale(0.2 -0.2)">
      <use transform="translate(0 0.09375)" xlink:href="#DejaVuSans-Oblique-74"/>
      <use transform="translate(39.208984 0.09375)" xlink:href="#DejaVuSans-2f"/>
      <use transform="translate(72.900391 0.09375)" xlink:href="#DejaVuSans-Oblique-3c4"/>
     </g>
    </g>
   </g>
   <g id="matplotlib.axis_2">
    <g id="ytick_1">
     <g id="line2d_17">
      <path clip-path="url(#p9af150fd25)" d="M 49.64375 224.524132 
L 340.774185 224.524132 
" style="fill:none;stroke:#b0b0b0;stroke-linecap:square;stroke-width:0.8;"/>
     </g>
     <g id="line2d_18">
      <defs>
       <path d="M 0 0 
L -6 0 
" id="meba8708d68"/>
      </defs>
      <g>
       <use x="49.64375" xlink:href="#meba8708d68" y="224.524132"/>
      </g>
     </g>
     <g id="text_10">
      <!-- 2 -->
      <g transform="translate(30.6 230.22296)scale(0.15 -0.15)">
       <use xlink:href="#DejaVuSans-32"/>
      </g>
     </g>
    </g>
    <g id="ytick_2">
     <g id="line2d_19">
      <path clip-path="url(#p9af150fd25)" d="M 49.64375 162.400992 
L 340.774185 162.400992 
" style="fill:none;stroke:#b0b0b0;stroke-linecap:square;stroke-width:0.8;"/>
     </g>
     <g id="line2d_20">
      <g>
       <use x="49.64375" xlink:href="#meba8708d68" y="162.400992"/>
      </g>
     </g>
     <g id="text_11">
      <!-- 4 -->
      <g transform="translate(30.6 168.09982)scale(0.15 -0.15)">
       <use xlink:href="#DejaVuSans-34"/>
      </g>
     </g>
    </g>
    <g id="ytick_3">
     <g id="line2d_21">
      <path clip-path="url(#p9af150fd25)" d="M 49.64375 100.277851 
L 340.774185 100.277851 
" style="fill:none;stroke:#b0b0b0;stroke-linecap:square;stroke-width:0.8;"/>
     </g>
     <g id="line2d_22">
      <g>
       <use x="49.64375" xlink:href="#meba8708d68" y="100.277851"/>
      </g>
     </g>
     <g id="text_12">
      <!-- 6 -->
      <g transform="translate(30.6 105.976679)scale(0.15 -0.15)">
       <use xlink:href="#DejaVuSans-36"/>
      </g>
     </g>
    </g>
    <g id="ytick_4">
     <g id="line2d_23">
      <path clip-path="url(#p9af150fd25)" d="M 49.64375 38.15471 
L 340.774185 38.15471 
" style="fill:none;stroke:#b0b0b0;stroke-linecap:square;stroke-width:0.8;"/>
     </g>
     <g id="line2d_24">
      <g>
       <use x="49.64375" xlink:href="#meba8708d68" y="38.15471"/>
      </g>
     </g>
     <g id="text_13">
      <!-- 8 -->
      <defs>
       <path d="M 31.78125 34.625 
Q 24.75 34.625 20.71875 30.859375 
Q 16.703125 27.09375 16.703125 20.515625 
Q 16.703125 13.921875 20.71875 10.15625 
Q 24.75 6.390625 31.78125 6.390625 
Q 38.8125 6.390625 42.859375 10.171875 
Q 46.921875 13.96875 46.921875 20.515625 
Q 46.921875 27.09375 42.890625 30.859375 
Q 38.875 34.625 31.78125 34.625 
z
M 21.921875 38.8125 
Q 15.578125 40.375 12.03125 44.71875 
Q 8.5 49.078125 8.5 55.328125 
Q 8.5 64.0625 14.71875 69.140625 
Q 20.953125 74.21875 31.78125 74.21875 
Q 42.671875 74.21875 48.875 69.140625 
Q 55.078125 64.0625 55.078125 55.328125 
Q 55.078125 49.078125 51.53125 44.71875 
Q 48 40.375 41.703125 38.8125 
Q 48.828125 37.15625 52.796875 32.3125 
Q 56.78125 27.484375 56.78125 20.515625 
Q 56.78125 9.90625 50.3125 4.234375 
Q 43.84375 -1.421875 31.78125 -1.421875 
Q 19.734375 -1.421875 13.25 4.234375 
Q 6.78125 9.90625 6.78125 20.515625 
Q 6.78125 27.484375 10.78125 32.3125 
Q 14.796875 37.15625 21.921875 38.8125 
z
M 18.3125 54.390625 
Q 18.3125 48.734375 21.84375 45.5625 
Q 25.390625 42.390625 31.78125 42.390625 
Q 38.140625 42.390625 41.71875 45.5625 
Q 45.3125 48.734375 45.3125 54.390625 
Q 45.3125 60.0625 41.71875 63.234375 
Q 38.140625 66.40625 31.78125 66.40625 
Q 25.390625 66.40625 21.84375 63.234375 
Q 18.3125 60.0625 18.3125 54.390625 
z
" id="DejaVuSans-38"/>
      </defs>
      <g transform="translate(30.6 43.853538)scale(0.15 -0.15)">
       <use xlink:href="#DejaVuSans-38"/>
      </g>
     </g>
    </g>
    <g id="text_14">
     <!-- $s$ $(\mu m)$ -->
     <defs>
      <path d="M 50 53.078125 
L 48.296875 44.578125 
Q 44.734375 46.53125 40.765625 47.5 
Q 36.8125 48.484375 32.625 48.484375 
Q 25.53125 48.484375 21.453125 46.0625 
Q 17.390625 43.65625 17.390625 39.5 
Q 17.390625 34.671875 26.859375 32.078125 
Q 27.59375 31.890625 27.9375 31.78125 
L 30.8125 30.90625 
Q 39.796875 28.421875 42.796875 25.6875 
Q 45.796875 22.953125 45.796875 18.21875 
Q 45.796875 9.515625 38.890625 4.046875 
Q 31.984375 -1.421875 20.796875 -1.421875 
Q 16.453125 -1.421875 11.671875 -0.578125 
Q 6.890625 0.25 1.125 2 
L 2.875 11.28125 
Q 7.8125 8.734375 12.59375 7.421875 
Q 17.390625 6.109375 21.78125 6.109375 
Q 28.375 6.109375 32.5 8.9375 
Q 36.625 11.765625 36.625 16.109375 
Q 36.625 20.796875 25.78125 23.6875 
L 24.859375 23.921875 
L 21.78125 24.703125 
Q 14.9375 26.515625 11.765625 29.46875 
Q 8.59375 32.421875 8.59375 37.015625 
Q 8.59375 45.75 15.15625 50.875 
Q 21.734375 56 33.015625 56 
Q 37.453125 56 41.671875 55.265625 
Q 45.90625 54.546875 50 53.078125 
z
" id="DejaVuSans-Oblique-73"/>
      <path id="DejaVuSans-20"/>
      <path d="M 31 75.875 
Q 24.46875 64.65625 21.28125 53.65625 
Q 18.109375 42.671875 18.109375 31.390625 
Q 18.109375 20.125 21.3125 9.0625 
Q 24.515625 -2 31 -13.1875 
L 23.1875 -13.1875 
Q 15.875 -1.703125 12.234375 9.375 
Q 8.59375 20.453125 8.59375 31.390625 
Q 8.59375 42.28125 12.203125 53.3125 
Q 15.828125 64.359375 23.1875 75.875 
z
" id="DejaVuSans-28"/>
      <path d="M -1.3125 -20.796875 
L 13.375 54.6875 
L 22.40625 54.6875 
L 15.765625 20.65625 
Q 15.578125 19.625 15.421875 18.359375 
Q 15.28125 17.09375 15.28125 15.828125 
Q 15.28125 11.28125 18.140625 8.828125 
Q 21 6.390625 26.3125 6.390625 
Q 33.546875 6.390625 37.984375 10.484375 
Q 42.4375 14.59375 44 22.796875 
L 50.203125 54.6875 
L 59.1875 54.6875 
L 51.03125 12.640625 
Q 50.828125 11.71875 50.75 11.03125 
Q 50.6875 10.359375 50.6875 9.8125 
Q 50.6875 8.296875 51.296875 7.59375 
Q 51.90625 6.890625 53.21875 6.890625 
Q 53.71875 6.890625 54.5625 7.125 
Q 55.421875 7.375 56.984375 8.015625 
L 55.609375 0.78125 
Q 53.46875 -0.296875 51.515625 -0.859375 
Q 49.5625 -1.421875 47.703125 -1.421875 
Q 44.484375 -1.421875 42.65625 0.625 
Q 40.828125 2.6875 40.828125 6.296875 
Q 38.09375 2.390625 34.296875 0.484375 
Q 30.515625 -1.421875 25.390625 -1.421875 
Q 20.84375 -1.421875 17.453125 0.671875 
Q 14.0625 2.78125 12.984375 6.203125 
L 7.71875 -20.796875 
z
" id="DejaVuSans-Oblique-3bc"/>
      <path d="M 89.796875 33.015625 
L 83.40625 0 
L 74.421875 0 
L 80.71875 32.71875 
Q 81.109375 34.8125 81.296875 36.328125 
Q 81.5 37.84375 81.5 38.921875 
Q 81.5 43.3125 79.046875 45.75 
Q 76.609375 48.1875 72.21875 48.1875 
Q 65.671875 48.1875 60.546875 43.28125 
Q 55.421875 38.375 53.90625 30.515625 
L 47.90625 0 
L 38.921875 0 
L 45.3125 32.71875 
Q 45.703125 34.515625 45.890625 36.046875 
Q 46.09375 37.59375 46.09375 38.8125 
Q 46.09375 43.265625 43.65625 45.71875 
Q 41.21875 48.1875 36.921875 48.1875 
Q 30.28125 48.1875 25.140625 43.28125 
Q 20.015625 38.375 18.5 30.515625 
L 12.5 0 
L 3.515625 0 
L 14.203125 54.6875 
L 23.1875 54.6875 
L 21.484375 46.1875 
Q 25.140625 50.984375 30.046875 53.484375 
Q 34.96875 56 40.578125 56 
Q 46.53125 56 50.359375 52.875 
Q 54.203125 49.75 54.984375 44.1875 
Q 59.078125 49.953125 64.46875 52.96875 
Q 69.875 56 75.875 56 
Q 82.90625 56 86.734375 51.953125 
Q 90.578125 47.90625 90.578125 40.484375 
Q 90.578125 38.875 90.375 36.9375 
Q 90.1875 35.015625 89.796875 33.015625 
z
" id="DejaVuSans-Oblique-6d"/>
      <path d="M 8.015625 75.875 
L 15.828125 75.875 
Q 23.140625 64.359375 26.78125 53.3125 
Q 30.421875 42.28125 30.421875 31.390625 
Q 30.421875 20.453125 26.78125 9.375 
Q 23.140625 -1.703125 15.828125 -13.1875 
L 8.015625 -13.1875 
Q 14.5 -2 17.703125 9.0625 
Q 20.90625 20.125 20.90625 31.390625 
Q 20.90625 42.671875 17.703125 53.65625 
Q 14.5 64.65625 8.015625 75.875 
z
" id="DejaVuSans-29"/>
     </defs>
     <g transform="translate(22.4 154.22)rotate(-90)scale(0.2 -0.2)">
      <use transform="translate(0 0.125)" xlink:href="#DejaVuSans-Oblique-73"/>
      <use transform="translate(52.099609 0.125)" xlink:href="#DejaVuSans-20"/>
      <use transform="translate(83.886719 0.125)" xlink:href="#DejaVuSans-28"/>
      <use transform="translate(122.900391 0.125)" xlink:href="#DejaVuSans-Oblique-3bc"/>
      <use transform="translate(186.523438 0.125)" xlink:href="#DejaVuSans-Oblique-6d"/>
      <use transform="translate(283.935547 0.125)" xlink:href="#DejaVuSans-29"/>
     </g>
    </g>
   </g>
   <g id="line2d_25">
    <path clip-path="url(#p9af150fd25)" d="M 49.64375 193.462562 
L 53.802756 186.775006 
L 57.961762 179.609101 
L 62.120769 171.924469 
L 66.279775 163.690047 
L 70.438781 154.865455 
L 74.597787 145.407206 
L 78.756793 135.26871 
L 82.9158 124.403373 
L 87.074806 112.761496 
L 91.233812 100.280957 
L 95.392818 86.902739 
L 99.551825 72.567824 
L 103.710831 171.924469 
L 107.869837 163.690047 
L 112.028843 154.865455 
L 116.187849 145.407206 
L 120.346856 135.26871 
L 124.505862 124.403373 
L 128.664868 112.761496 
L 132.823874 100.277851 
L 136.98288 186.775006 
L 141.141887 179.609101 
L 145.300893 171.924469 
L 149.459899 163.690047 
L 153.618905 154.865455 
L 157.777911 145.407206 
L 161.936918 135.26871 
L 166.095924 124.403373 
L 170.25493 112.761496 
L 174.413936 193.462562 
L 178.572943 186.775006 
L 182.731949 179.609101 
L 186.890955 171.924469 
L 191.049961 163.690047 
L 195.208967 154.865455 
L 199.367974 145.407206 
L 203.52698 135.26871 
L 207.685986 205.526876 
L 211.844992 199.705937 
L 216.003998 193.462562 
L 220.163005 186.775006 
L 224.322011 179.609101 
L 228.481017 171.924469 
L 232.640023 163.690047 
L 236.79903 154.865455 
L 240.958036 145.407206 
L 245.117042 135.26871 
L 249.276048 124.403373 
L 253.435054 112.761496 
L 257.594061 193.462562 
L 261.753067 186.775006 
L 265.912073 179.609101 
L 270.071079 171.924469 
L 274.230085 163.690047 
L 278.389092 154.865455 
L 282.548098 145.407206 
L 286.707104 135.26871 
L 290.86611 124.403373 
L 295.025116 112.761496 
L 299.184123 193.462562 
L 303.343129 186.775006 
L 307.502135 179.609101 
L 311.661141 171.924469 
L 315.820148 163.690047 
L 319.979154 154.865455 
L 324.13816 145.407206 
L 328.297166 135.26871 
L 332.456172 124.403373 
L 336.615179 112.761496 
L 340.774185 100.277851 
L 344.933191 86.902739 
L 349.092197 72.567824 
L 353.251203 171.924469 
L 357.41021 163.690047 
L 361.569216 154.865455 
L 365.728222 145.407206 
L 369.887228 135.26871 
L 374.046234 124.403373 
L 378.205241 112.761496 
L 382.364247 100.277851 
L 386.523253 86.902739 
L 390.682259 72.567824 
L 394.841266 171.924469 
L 399.000272 163.690047 
L 403.159278 154.865455 
L 407.318284 145.407206 
L 411.47729 135.26871 
L 415.636297 124.403373 
L 419.795303 112.761496 
L 423.954309 100.277851 
L 428.113315 86.902739 
L 432.272321 72.567824 
L 436.431328 57.201665 
L 440.590334 163.690047 
L 444.74934 154.865455 
L 448.908346 145.407206 
L 453.067352 135.26871 
L 457.226359 124.403373 
L 461.385365 112.761496 
L 465.544371 100.277851 
" style="fill:none;stroke:#b9b9b9;stroke-linecap:square;stroke-width:1.5;"/>
   </g>
   <g id="line2d_26">
    <path clip-path="url(#p9af150fd25)" d="M 49.64375 193.462562 
L 53.802756 186.775006 
L 57.961762 179.609101 
L 62.120769 171.924469 
L 66.279775 163.690047 
L 70.438781 154.865455 
L 74.597787 145.407206 
L 78.756793 135.26871 
L 82.9158 124.403373 
L 87.074806 112.761496 
L 91.233812 193.462562 
L 95.392818 186.775006 
L 99.551825 179.609101 
L 103.710831 171.924469 
L 107.869837 163.690047 
L 112.028843 154.865455 
L 116.187849 145.407206 
L 120.346856 135.26871 
L 124.505862 205.526876 
L 128.664868 199.705937 
L 132.823874 193.465668 
L 136.98288 186.775006 
L 141.141887 179.609101 
L 145.300893 171.924469 
L 149.459899 163.690047 
L 153.618905 154.865455 
L 157.777911 145.407206 
L 161.936918 135.26871 
L 166.095924 124.403373 
L 170.25493 112.761496 
L 174.413936 193.465668 
L 178.572943 186.775006 
L 182.731949 179.609101 
L 186.890955 171.924469 
L 191.049961 163.690047 
L 195.208967 154.865455 
L 199.367974 145.407206 
L 203.52698 135.26871 
L 207.685986 124.403373 
L 211.844992 112.761496 
L 216.003998 193.465668 
L 220.163005 186.775006 
L 224.322011 179.609101 
L 228.481017 171.924469 
L 232.640023 163.690047 
L 236.79903 154.865455 
L 240.958036 145.407206 
L 245.117042 135.26871 
L 249.276048 124.403373 
L 253.435054 112.761496 
L 257.594061 100.280957 
L 261.753067 186.775006 
L 265.912073 179.609101 
L 270.071079 171.924469 
L 274.230085 163.690047 
L 278.389092 154.865455 
L 282.548098 145.407206 
L 286.707104 135.26871 
L 290.86611 124.403373 
L 295.025116 112.761496 
L 299.184123 100.277851 
L 303.343129 86.902739 
L 307.502135 72.567824 
L 311.661141 171.924469 
L 315.820148 163.690047 
L 319.979154 154.865455 
L 324.13816 145.407206 
L 328.297166 135.26871 
L 332.456172 124.403373 
L 336.615179 112.761496 
L 340.774185 100.277851 
L 344.933191 86.902739 
L 349.092197 72.567824 
L 353.251203 57.201665 
L 357.41021 40.732821 
L 361.569216 154.865455 
L 365.728222 145.407206 
L 369.887228 135.26871 
L 374.046234 124.403373 
L 378.205241 112.761496 
L 382.364247 193.462562 
L 386.523253 186.775006 
L 390.682259 179.609101 
L 394.841266 171.924469 
L 399.000272 163.690047 
L 403.159278 154.865455 
L 407.318284 145.407206 
L 411.47729 135.26871 
L 415.636297 124.403373 
L 419.795303 199.705937 
L 423.954309 193.462562 
L 428.113315 186.775006 
L 432.272321 179.609101 
L 436.431328 171.924469 
L 440.590334 163.690047 
L 444.74934 154.865455 
L 448.908346 145.407206 
L 453.067352 135.26871 
L 457.226359 205.526876 
L 461.385365 199.705937 
L 465.544371 193.462562 
" style="fill:none;stroke:#b9b9b9;stroke-linecap:square;stroke-width:1.5;"/>
   </g>
   <g id="line2d_27">
    <path clip-path="url(#p9af150fd25)" d="M 49.64375 193.462562 
L 53.802756 186.775006 
L 57.961762 179.609101 
L 62.120769 171.924469 
L 66.279775 163.690047 
L 70.438781 154.865455 
L 74.597787 145.407206 
L 78.756793 135.26871 
L 82.9158 124.403373 
L 87.074806 112.761496 
L 91.233812 100.277851 
L 95.392818 86.902739 
L 99.551825 179.609101 
L 103.710831 171.924469 
L 107.869837 163.690047 
L 112.028843 154.865455 
L 116.187849 145.407206 
L 120.346856 135.26871 
L 124.505862 124.403373 
L 128.664868 112.761496 
L 132.823874 100.280957 
L 136.98288 86.902739 
L 141.141887 72.567824 
L 145.300893 171.924469 
L 149.459899 163.690047 
L 153.618905 154.865455 
L 157.777911 145.407206 
L 161.936918 135.26871 
L 166.095924 124.403373 
L 170.25493 199.705937 
L 174.413936 193.465668 
L 178.572943 186.775006 
L 182.731949 179.609101 
L 186.890955 171.924469 
L 191.049961 163.690047 
L 195.208967 154.865455 
L 199.367974 145.407206 
L 203.52698 135.26871 
L 207.685986 124.403373 
L 211.844992 112.761496 
L 216.003998 100.280957 
L 220.163005 86.902739 
L 224.322011 179.609101 
L 228.481017 171.924469 
L 232.640023 163.690047 
L 236.79903 154.865455 
L 240.958036 145.407206 
L 245.117042 135.26871 
L 249.276048 124.403373 
L 253.435054 112.761496 
L 257.594061 100.280957 
L 261.753067 86.902739 
L 265.912073 72.567824 
L 270.071079 57.201665 
L 274.230085 40.732821 
L 278.389092 154.865455 
L 282.548098 145.407206 
L 286.707104 135.26871 
L 290.86611 124.403373 
L 295.025116 112.761496 
L 299.184123 100.280957 
L 303.343129 86.902739 
L 307.502135 179.609101 
L 311.661141 171.924469 
L 315.820148 163.690047 
L 319.979154 154.865455 
L 324.13816 145.407206 
L 328.297166 135.26871 
L 332.456172 124.403373 
L 336.615179 112.761496 
L 340.774185 100.280957 
L 344.933191 86.902739 
L 349.092197 72.567824 
L 353.251203 57.201665 
L 357.41021 163.690047 
L 361.569216 154.865455 
L 365.728222 145.407206 
L 369.887228 135.26871 
L 374.046234 205.526876 
L 378.205241 199.705937 
L 382.364247 193.465668 
L 386.523253 186.775006 
L 390.682259 179.609101 
L 394.841266 171.924469 
L 399.000272 163.690047 
L 403.159278 154.865455 
L 407.318284 145.407206 
L 411.47729 135.26871 
L 415.636297 124.403373 
L 419.795303 112.761496 
L 423.954309 193.465668 
L 428.113315 186.775006 
L 432.272321 179.609101 
L 436.431328 171.924469 
L 440.590334 163.690047 
L 444.74934 154.865455 
L 448.908346 145.407206 
L 453.067352 135.26871 
L 457.226359 124.403373 
L 461.385365 112.761496 
L 465.544371 100.280957 
" style="fill:none;stroke:#b9b9b9;stroke-linecap:square;stroke-width:1.5;"/>
   </g>
   <g id="line2d_28">
    <path clip-path="url(#p9af150fd25)" d="M 49.64375 193.462562 
L 53.802756 186.775006 
L 57.961762 179.609101 
L 62.120769 171.924469 
L 66.279775 163.690047 
L 70.438781 154.865455 
L 74.597787 145.407206 
L 78.756793 135.26871 
L 82.9158 124.403373 
L 87.074806 112.761496 
L 91.233812 100.280957 
L 95.392818 86.902739 
L 99.551825 179.609101 
L 103.710831 171.924469 
L 107.869837 163.690047 
L 112.028843 154.865455 
L 116.187849 145.407206 
L 120.346856 135.26871 
L 124.505862 124.403373 
L 128.664868 112.761496 
L 132.823874 100.280957 
L 136.98288 186.775006 
L 141.141887 179.609101 
L 145.300893 171.924469 
L 149.459899 163.690047 
L 153.618905 154.865455 
L 157.777911 145.407206 
L 161.936918 135.26871 
L 166.095924 124.403373 
L 170.25493 112.761496 
L 174.413936 100.280957 
L 178.572943 186.775006 
L 182.731949 179.609101 
L 186.890955 171.924469 
L 191.049961 163.690047 
L 195.208967 154.865455 
L 199.367974 145.407206 
L 203.52698 135.26871 
L 207.685986 124.403373 
L 211.844992 112.761496 
L 216.003998 100.280957 
L 220.163005 86.902739 
L 224.322011 179.609101 
L 228.481017 171.924469 
L 232.640023 163.690047 
L 236.79903 154.865455 
L 240.958036 145.407206 
L 245.117042 135.26871 
L 249.276048 124.403373 
L 253.435054 112.761496 
L 257.594061 193.465668 
L 261.753067 186.775006 
L 265.912073 179.609101 
L 270.071079 171.924469 
L 274.230085 163.690047 
L 278.389092 154.865455 
L 282.548098 145.407206 
L 286.707104 135.26871 
L 290.86611 124.403373 
L 295.025116 112.761496 
L 299.184123 100.280957 
L 303.343129 186.775006 
L 307.502135 179.609101 
L 311.661141 171.924469 
L 315.820148 163.690047 
L 319.979154 154.865455 
L 324.13816 145.407206 
L 328.297166 135.26871 
L 332.456172 124.403373 
L 336.615179 199.705937 
L 340.774185 193.465668 
L 344.933191 186.775006 
L 349.092197 179.609101 
L 353.251203 171.924469 
L 357.41021 163.690047 
L 361.569216 154.865455 
L 365.728222 145.407206 
L 369.887228 135.26871 
L 374.046234 124.403373 
L 378.205241 199.705937 
L 382.364247 193.465668 
L 386.523253 186.775006 
L 390.682259 179.609101 
L 394.841266 171.924469 
L 399.000272 163.690047 
L 403.159278 154.865455 
L 407.318284 145.407206 
L 411.47729 135.26871 
L 415.636297 124.403373 
L 419.795303 199.705937 
L 423.954309 193.465668 
L 428.113315 186.775006 
L 432.272321 179.609101 
L 436.431328 171.924469 
L 440.590334 163.690047 
L 444.74934 154.865455 
L 448.908346 145.407206 
L 453.067352 135.26871 
L 457.226359 205.526876 
L 461.385365 199.705937 
L 465.544371 193.465668 
" style="fill:none;stroke:#b9b9b9;stroke-linecap:square;stroke-width:1.5;"/>
   </g>
   <g id="line2d_29">
    <path clip-path="url(#p9af150fd25)" d="M 49.64375 193.462562 
L 53.802756 186.775006 
L 57.961762 179.609101 
L 62.120769 171.924469 
L 66.279775 163.690047 
L 70.438781 154.865455 
L 74.597787 145.407206 
L 78.756793 135.26871 
L 82.9158 124.403373 
L 87.074806 112.761496 
L 91.233812 100.277851 
L 95.392818 86.902739 
L 99.551825 179.609101 
L 103.710831 171.924469 
L 107.869837 163.690047 
L 112.028843 154.865455 
L 116.187849 145.407206 
L 120.346856 135.26871 
L 124.505862 124.403373 
L 128.664868 112.761496 
L 132.823874 193.465668 
L 136.98288 186.775006 
L 141.141887 179.609101 
L 145.300893 171.924469 
L 149.459899 163.690047 
L 153.618905 154.865455 
L 157.777911 145.407206 
L 161.936918 135.26871 
L 166.095924 124.403373 
L 170.25493 112.761496 
L 174.413936 193.465668 
L 178.572943 186.775006 
L 182.731949 179.609101 
L 186.890955 171.924469 
L 191.049961 163.690047 
L 195.208967 154.865455 
L 199.367974 145.407206 
L 203.52698 135.26871 
L 207.685986 124.403373 
L 211.844992 112.761496 
L 216.003998 193.465668 
L 220.163005 186.775006 
L 224.322011 179.609101 
L 228.481017 171.924469 
L 232.640023 163.690047 
L 236.79903 154.865455 
L 240.958036 145.407206 
L 245.117042 135.26871 
L 249.276048 205.526876 
L 253.435054 199.705937 
L 257.594061 193.465668 
L 261.753067 186.775006 
L 265.912073 179.609101 
L 270.071079 171.924469 
L 274.230085 163.690047 
L 278.389092 154.865455 
L 282.548098 145.407206 
L 286.707104 135.26871 
L 290.86611 124.403373 
L 295.025116 112.761496 
L 299.184123 100.280957 
L 303.343129 86.902739 
L 307.502135 179.609101 
L 311.661141 171.924469 
L 315.820148 163.690047 
L 319.979154 154.865455 
L 324.13816 145.407206 
L 328.297166 135.26871 
L 332.456172 124.403373 
L 336.615179 112.761496 
L 340.774185 100.280957 
L 344.933191 186.775006 
L 349.092197 179.609101 
L 353.251203 171.924469 
L 357.41021 163.690047 
L 361.569216 154.865455 
L 365.728222 145.407206 
L 369.887228 135.26871 
L 374.046234 205.526876 
L 378.205241 199.705937 
L 382.364247 193.465668 
L 386.523253 186.775006 
L 390.682259 179.609101 
L 394.841266 171.924469 
L 399.000272 163.690047 
L 403.159278 154.865455 
L 407.318284 145.407206 
L 411.47729 135.26871 
L 415.636297 124.403373 
L 419.795303 112.761496 
L 423.954309 100.280957 
L 428.113315 186.775006 
L 432.272321 179.609101 
L 436.431328 171.924469 
L 440.590334 163.690047 
L 444.74934 154.865455 
L 448.908346 145.407206 
L 453.067352 210.959544 
L 457.226359 205.526876 
L 461.385365 199.705937 
L 465.544371 193.465668 
" style="fill:none;stroke:#b9b9b9;stroke-linecap:square;stroke-width:1.5;"/>
   </g>
   <g id="line2d_30">
    <path clip-path="url(#p9af150fd25)" d="M 49.64375 193.462562 
L 53.802756 186.775006 
L 57.961762 179.609101 
L 62.120769 171.924469 
L 66.279775 163.690047 
L 70.438781 154.865455 
L 74.597787 145.407206 
L 78.756793 135.26871 
L 82.9158 205.526876 
L 87.074806 199.705937 
L 91.233812 193.465668 
L 95.392818 186.775006 
L 99.551825 179.609101 
L 103.710831 171.924469 
L 107.869837 163.690047 
L 112.028843 154.865455 
L 116.187849 145.407206 
L 120.346856 135.26871 
L 124.505862 124.403373 
L 128.664868 112.761496 
L 132.823874 100.280957 
L 136.98288 86.902739 
L 141.141887 72.567824 
L 145.300893 57.201665 
L 149.459899 40.732821 
L 153.618905 23.083636 
L 157.777911 145.407206 
L 161.936918 135.26871 
L 166.095924 124.403373 
L 170.25493 112.761496 
L 174.413936 100.280957 
L 178.572943 86.902739 
L 182.731949 72.567824 
L 186.890955 171.924469 
L 191.049961 163.690047 
L 195.208967 154.865455 
L 199.367974 145.407206 
L 203.52698 135.26871 
L 207.685986 124.403373 
L 211.844992 112.761496 
L 216.003998 100.280957 
L 220.163005 86.902739 
L 224.322011 72.567824 
L 228.481017 171.924469 
L 232.640023 163.690047 
L 236.79903 154.865455 
L 240.958036 145.407206 
L 245.117042 135.26871 
L 249.276048 124.403373 
L 253.435054 112.761496 
L 257.594061 100.280957 
L 261.753067 86.902739 
L 265.912073 179.609101 
L 270.071079 171.924469 
L 274.230085 163.690047 
L 278.389092 154.865455 
L 282.548098 145.407206 
L 286.707104 135.26871 
L 290.86611 124.403373 
L 295.025116 112.761496 
L 299.184123 100.280957 
L 303.343129 86.902739 
L 307.502135 72.567824 
L 311.661141 171.924469 
L 315.820148 163.690047 
L 319.979154 154.865455 
L 324.13816 145.407206 
L 328.297166 135.26871 
L 332.456172 124.403373 
L 336.615179 112.761496 
L 340.774185 100.280957 
L 344.933191 86.902739 
L 349.092197 72.567824 
L 353.251203 57.201665 
L 357.41021 163.690047 
L 361.569216 154.865455 
L 365.728222 145.407206 
L 369.887228 135.26871 
L 374.046234 124.403373 
L 378.205241 112.761496 
L 382.364247 100.280957 
L 386.523253 86.902739 
L 390.682259 179.609101 
L 394.841266 171.924469 
L 399.000272 163.690047 
L 403.159278 154.865455 
L 407.318284 145.407206 
L 411.47729 135.26871 
L 415.636297 124.403373 
L 419.795303 199.705937 
L 423.954309 193.465668 
L 428.113315 186.775006 
L 432.272321 179.609101 
L 436.431328 171.924469 
L 440.590334 163.690047 
L 444.74934 154.865455 
L 448.908346 145.407206 
L 453.067352 135.26871 
L 457.226359 205.526876 
L 461.385365 199.705937 
L 465.544371 193.465668 
" style="fill:none;stroke:#b9b9b9;stroke-linecap:square;stroke-width:1.5;"/>
   </g>
   <g id="line2d_31">
    <path clip-path="url(#p9af150fd25)" d="M 49.64375 193.462562 
L 53.802756 186.775006 
L 57.961762 179.609101 
L 62.120769 171.924469 
L 66.279775 163.690047 
L 70.438781 154.865455 
L 74.597787 145.407206 
L 78.756793 135.26871 
L 82.9158 124.403373 
L 87.074806 199.705937 
L 91.233812 193.462562 
L 95.392818 186.775006 
L 99.551825 179.609101 
L 103.710831 171.924469 
L 107.869837 163.690047 
L 112.028843 220.756364 
L 116.187849 216.028793 
L 120.346856 210.959544 
L 124.505862 205.526876 
L 128.664868 199.705937 
L 132.823874 193.462562 
L 136.98288 186.775006 
L 141.141887 179.609101 
L 145.300893 171.924469 
L 149.459899 163.690047 
L 153.618905 154.865455 
L 157.777911 145.407206 
L 161.936918 135.26871 
L 166.095924 205.526876 
L 170.25493 199.705937 
L 174.413936 193.462562 
L 178.572943 186.775006 
L 182.731949 179.609101 
L 186.890955 171.924469 
L 191.049961 163.690047 
L 195.208967 154.865455 
L 199.367974 145.407206 
L 203.52698 135.26871 
L 207.685986 124.403373 
L 211.844992 112.761496 
L 216.003998 193.465668 
L 220.163005 186.775006 
L 224.322011 179.609101 
L 228.481017 171.924469 
L 232.640023 163.690047 
L 236.79903 154.865455 
L 240.958036 145.407206 
L 245.117042 135.26871 
L 249.276048 124.403373 
L 253.435054 112.761496 
L 257.594061 193.462562 
L 261.753067 186.775006 
L 265.912073 179.609101 
L 270.071079 171.924469 
L 274.230085 163.690047 
L 278.389092 154.865455 
L 282.548098 145.407206 
L 286.707104 135.26871 
L 290.86611 124.403373 
L 295.025116 112.761496 
L 299.184123 100.277851 
L 303.343129 86.902739 
L 307.502135 179.609101 
L 311.661141 171.924469 
L 315.820148 163.690047 
L 319.979154 154.865455 
L 324.13816 145.407206 
L 328.297166 135.26871 
L 332.456172 124.403373 
L 336.615179 112.761496 
L 340.774185 100.280957 
L 344.933191 86.902739 
L 349.092197 179.609101 
L 353.251203 171.924469 
L 357.41021 163.690047 
L 361.569216 154.865455 
L 365.728222 145.407206 
L 369.887228 135.26871 
L 374.046234 124.403373 
L 378.205241 112.761496 
L 382.364247 100.280957 
L 386.523253 86.902739 
L 390.682259 179.609101 
L 394.841266 171.924469 
L 399.000272 163.690047 
L 403.159278 154.865455 
L 407.318284 145.407206 
L 411.47729 210.959544 
L 415.636297 205.526876 
L 419.795303 199.705937 
L 423.954309 193.465668 
L 428.113315 186.775006 
L 432.272321 179.609101 
L 436.431328 171.924469 
L 440.590334 163.690047 
L 444.74934 154.865455 
L 448.908346 145.407206 
L 453.067352 135.26871 
L 457.226359 124.403373 
L 461.385365 112.761496 
L 465.544371 100.280957 
" style="fill:none;stroke:#b9b9b9;stroke-linecap:square;stroke-width:1.5;"/>
   </g>
   <g id="line2d_32">
    <path clip-path="url(#p9af150fd25)" d="M 49.64375 193.462562 
L 53.802756 186.775006 
L 57.961762 179.609101 
L 62.120769 171.924469 
L 66.279775 163.690047 
L 70.438781 154.865455 
L 74.597787 145.407206 
L 78.756793 135.26871 
L 82.9158 124.403373 
L 87.074806 112.761496 
L 91.233812 193.462562 
L 95.392818 186.775006 
L 99.551825 179.609101 
L 103.710831 171.924469 
L 107.869837 163.690047 
L 112.028843 154.865455 
L 116.187849 145.407206 
L 120.346856 135.26871 
L 124.505862 124.403373 
L 128.664868 112.761496 
L 132.823874 100.277851 
L 136.98288 186.775006 
L 141.141887 179.609101 
L 145.300893 171.924469 
L 149.459899 163.690047 
L 153.618905 154.865455 
L 157.777911 145.407206 
L 161.936918 135.26871 
L 166.095924 124.403373 
L 170.25493 112.761496 
L 174.413936 100.277851 
L 178.572943 86.902739 
L 182.731949 72.567824 
L 186.890955 171.924469 
L 191.049961 163.690047 
L 195.208967 154.865455 
L 199.367974 145.407206 
L 203.52698 135.26871 
L 207.685986 124.403373 
L 211.844992 199.705937 
L 216.003998 193.462562 
L 220.163005 186.775006 
L 224.322011 179.609101 
L 228.481017 171.924469 
L 232.640023 163.690047 
L 236.79903 154.865455 
L 240.958036 145.407206 
L 245.117042 135.26871 
L 249.276048 124.403373 
L 253.435054 112.761496 
L 257.594061 100.277851 
L 261.753067 86.902739 
L 265.912073 72.567824 
L 270.071079 171.924469 
L 274.230085 163.690047 
L 278.389092 154.865455 
L 282.548098 145.407206 
L 286.707104 135.26871 
L 290.86611 124.403373 
L 295.025116 112.761496 
L 299.184123 100.277851 
L 303.343129 86.902739 
L 307.502135 179.609101 
L 311.661141 171.924469 
L 315.820148 163.690047 
L 319.979154 154.865455 
L 324.13816 145.407206 
L 328.297166 135.26871 
L 332.456172 124.403373 
L 336.615179 112.761496 
L 340.774185 100.277851 
L 344.933191 186.775006 
L 349.092197 179.609101 
L 353.251203 171.924469 
L 357.41021 163.690047 
L 361.569216 154.865455 
L 365.728222 145.407206 
L 369.887228 135.26871 
L 374.046234 124.403373 
L 378.205241 112.761496 
L 382.364247 100.277851 
L 386.523253 186.775006 
L 390.682259 179.609101 
L 394.841266 171.924469 
L 399.000272 163.690047 
L 403.159278 154.865455 
L 407.318284 145.407206 
L 411.47729 135.26871 
L 415.636297 124.403373 
L 419.795303 112.761496 
L 423.954309 100.277851 
L 428.113315 86.902739 
L 432.272321 72.567824 
L 436.431328 57.201665 
L 440.590334 163.690047 
L 444.74934 154.865455 
L 448.908346 145.407206 
L 453.067352 135.26871 
L 457.226359 124.403373 
L 461.385365 112.761496 
L 465.544371 100.277851 
" style="fill:none;stroke:#b9b9b9;stroke-linecap:square;stroke-width:1.5;"/>
   </g>
   <g id="line2d_33">
    <path clip-path="url(#p9af150fd25)" d="M 49.64375 193.462562 
L 53.802756 186.775006 
L 57.961762 179.609101 
L 62.120769 171.924469 
L 66.279775 163.690047 
L 70.438781 154.865455 
L 74.597787 145.407206 
L 78.756793 135.26871 
L 82.9158 124.403373 
L 87.074806 199.705937 
L 91.233812 193.462562 
L 95.392818 186.775006 
L 99.551825 179.609101 
L 103.710831 171.924469 
L 107.869837 163.690047 
L 112.028843 154.865455 
L 116.187849 145.407206 
L 120.346856 135.26871 
L 124.505862 124.403373 
L 128.664868 112.761496 
L 132.823874 100.280957 
L 136.98288 186.775006 
L 141.141887 179.609101 
L 145.300893 171.924469 
L 149.459899 163.690047 
L 153.618905 154.865455 
L 157.777911 145.407206 
L 161.936918 135.26871 
L 166.095924 124.403373 
L 170.25493 112.761496 
L 174.413936 100.280957 
L 178.572943 186.775006 
L 182.731949 179.609101 
L 186.890955 171.924469 
L 191.049961 163.690047 
L 195.208967 154.865455 
L 199.367974 145.407206 
L 203.52698 135.26871 
L 207.685986 124.403373 
L 211.844992 112.761496 
L 216.003998 193.465668 
L 220.163005 186.775006 
L 224.322011 179.609101 
L 228.481017 171.924469 
L 232.640023 163.690047 
L 236.79903 154.865455 
L 240.958036 145.407206 
L 245.117042 135.26871 
L 249.276048 124.403373 
L 253.435054 199.705937 
L 257.594061 193.462562 
L 261.753067 186.775006 
L 265.912073 179.609101 
L 270.071079 171.924469 
L 274.230085 163.690047 
L 278.389092 154.865455 
L 282.548098 145.407206 
L 286.707104 135.26871 
L 290.86611 124.403373 
L 295.025116 199.705937 
L 299.184123 193.465668 
L 303.343129 186.775006 
L 307.502135 179.609101 
L 311.661141 171.924469 
L 315.820148 163.690047 
L 319.979154 154.865455 
L 324.13816 145.407206 
L 328.297166 135.26871 
L 332.456172 124.403373 
L 336.615179 112.761496 
L 340.774185 100.280957 
L 344.933191 186.775006 
L 349.092197 179.609101 
L 353.251203 171.924469 
L 357.41021 163.690047 
L 361.569216 154.865455 
L 365.728222 145.407206 
L 369.887228 135.26871 
L 374.046234 124.403373 
L 378.205241 112.761496 
L 382.364247 100.280957 
L 386.523253 186.775006 
L 390.682259 179.609101 
L 394.841266 171.924469 
L 399.000272 163.690047 
L 403.159278 154.865455 
L 407.318284 145.407206 
L 411.47729 135.26871 
L 415.636297 124.403373 
L 419.795303 199.705937 
L 423.954309 193.462562 
L 428.113315 186.775006 
L 432.272321 179.609101 
L 436.431328 171.924469 
L 440.590334 163.690047 
L 444.74934 154.865455 
L 448.908346 145.407206 
L 453.067352 135.26871 
L 457.226359 124.403373 
L 461.385365 112.761496 
L 465.544371 100.277851 
" style="fill:none;stroke:#b9b9b9;stroke-linecap:square;stroke-width:1.5;"/>
   </g>
   <g id="line2d_34">
    <path clip-path="url(#p9af150fd25)" d="M 49.64375 193.462562 
L 53.802756 186.775006 
L 57.961762 179.609101 
L 62.120769 171.924469 
L 66.279775 163.690047 
L 70.438781 154.865455 
L 74.597787 145.407206 
L 78.756793 135.26871 
L 82.9158 124.403373 
L 87.074806 112.761496 
L 91.233812 193.465668 
L 95.392818 186.775006 
L 99.551825 179.609101 
L 103.710831 171.924469 
L 107.869837 163.690047 
L 112.028843 154.865455 
L 116.187849 145.407206 
L 120.346856 135.26871 
L 124.505862 124.403373 
L 128.664868 112.761496 
L 132.823874 193.462562 
L 136.98288 186.775006 
L 141.141887 179.609101 
L 145.300893 171.924469 
L 149.459899 163.690047 
L 153.618905 154.865455 
L 157.777911 145.407206 
L 161.936918 135.26871 
L 166.095924 124.403373 
L 170.25493 112.761496 
L 174.413936 100.280957 
L 178.572943 186.775006 
L 182.731949 179.609101 
L 186.890955 171.924469 
L 191.049961 163.690047 
L 195.208967 154.865455 
L 199.367974 145.407206 
L 203.52698 135.26871 
L 207.685986 124.403373 
L 211.844992 112.761496 
L 216.003998 193.465668 
L 220.163005 186.775006 
L 224.322011 179.609101 
L 228.481017 171.924469 
L 232.640023 163.690047 
L 236.79903 154.865455 
L 240.958036 145.407206 
L 245.117042 135.26871 
L 249.276048 124.403373 
L 253.435054 112.761496 
L 257.594061 100.280957 
L 261.753067 186.775006 
L 265.912073 179.609101 
L 270.071079 171.924469 
L 274.230085 163.690047 
L 278.389092 154.865455 
L 282.548098 145.407206 
L 286.707104 135.26871 
L 290.86611 124.403373 
L 295.025116 112.761496 
L 299.184123 100.277851 
L 303.343129 86.902739 
L 307.502135 72.567824 
L 311.661141 171.924469 
L 315.820148 163.690047 
L 319.979154 154.865455 
L 324.13816 145.407206 
L 328.297166 135.26871 
L 332.456172 124.403373 
L 336.615179 112.761496 
L 340.774185 100.277851 
L 344.933191 186.775006 
L 349.092197 179.609101 
L 353.251203 171.924469 
L 357.41021 163.690047 
L 361.569216 154.865455 
L 365.728222 145.407206 
L 369.887228 135.26871 
L 374.046234 124.403373 
L 378.205241 112.761496 
L 382.364247 100.280957 
L 386.523253 186.775006 
L 390.682259 179.609101 
L 394.841266 171.924469 
L 399.000272 163.690047 
L 403.159278 154.865455 
L 407.318284 145.407206 
L 411.47729 135.26871 
L 415.636297 124.403373 
L 419.795303 112.761496 
L 423.954309 193.465668 
L 428.113315 186.775006 
L 432.272321 179.609101 
L 436.431328 171.924469 
L 440.590334 163.690047 
L 444.74934 154.865455 
L 448.908346 145.407206 
L 453.067352 135.26871 
L 457.226359 124.403373 
L 461.385365 199.705937 
L 465.544371 193.465668 
" style="fill:none;stroke:#b9b9b9;stroke-linecap:square;stroke-width:1.5;"/>
   </g>
   <g id="line2d_35">
    <path clip-path="url(#p9af150fd25)" d="M 49.64375 193.462562 
L 53.802756 186.775006 
L 57.961762 179.609101 
L 62.120769 171.924469 
L 66.279775 163.813007 
L 70.438781 155.498007 
L 74.597787 147.949583 
L 78.756793 142.86807 
L 82.9158 141.926049 
L 87.074806 145.052662 
L 91.233812 151.736174 
L 95.392818 157.642266 
L 99.551825 161.786728 
L 103.710831 162.677811 
L 107.869837 160.124305 
L 112.028843 155.010415 
L 116.187849 149.602142 
L 120.346856 145.396148 
L 124.505862 143.386275 
L 128.664868 145.104828 
L 132.823874 149.649046 
L 136.98288 155.185408 
L 141.141887 158.339998 
L 145.300893 160.165382 
L 149.459899 158.833258 
L 153.618905 154.153833 
L 157.777911 149.856388 
L 161.936918 146.03195 
L 166.095924 144.424654 
L 170.25493 145.904717 
L 174.413936 150.226949 
L 178.572943 155.025614 
L 182.731949 158.821682 
L 186.890955 159.729435 
L 191.049961 158.156994 
L 195.208967 154.522822 
L 199.367974 150.152999 
L 203.52698 146.380131 
L 207.685986 144.878946 
L 211.844992 146.843717 
L 216.003998 149.947513 
L 220.163005 154.566201 
L 224.322011 158.992948 
L 228.481017 160.521022 
L 232.640023 158.636532 
L 236.79903 155.129018 
L 240.958036 150.647348 
L 245.117042 147.258144 
L 249.276048 145.57661 
L 253.435054 146.895884 
L 257.594061 150.99129 
L 261.753067 155.764668 
L 265.912073 160.116881 
L 270.071079 161.220831 
L 274.230085 159.484932 
L 278.389092 155.247622 
L 282.548098 150.223615 
L 286.707104 146.243883 
L 290.86611 145.17099 
L 295.025116 147.087161 
L 299.184123 151.420033 
L 303.343129 155.055575 
L 307.502135 159.185623 
L 311.661141 160.199798 
L 315.820148 158.513568 
L 319.979154 154.549178 
L 324.13816 149.785768 
L 328.297166 145.941128 
L 332.456172 144.229959 
L 336.615179 145.643884 
L 340.774185 150.152772 
L 344.933191 154.805895 
L 349.092197 158.714642 
L 353.251203 160.245688 
L 357.41021 158.169293 
L 361.569216 154.272436 
L 365.728222 149.82814 
L 369.887228 145.850297 
L 374.046234 144.408431 
L 378.205241 145.522162 
L 382.364247 149.062575 
L 386.523253 154.406405 
L 390.682259 158.297181 
L 394.841266 160.119492 
L 399.000272 158.427504 
L 403.159278 154.746851 
L 407.318284 149.842267 
L 411.47729 146.22875 
L 415.636297 144.424656 
L 419.795303 146.217717 
L 423.954309 149.407397 
L 428.113315 154.606149 
L 432.272321 159.249847 
L 436.431328 160.234215 
L 440.590334 158.439797 
L 444.74934 154.272436 
L 448.908346 150.040008 
L 453.067352 146.137926 
L 457.226359 144.586904 
L 461.385365 146.061217 
L 465.544371 149.267671 
" style="fill:none;stroke:#1f77b4;stroke-linecap:square;stroke-width:1.5;"/>
   </g>
   <g id="line2d_36">
    <path clip-path="url(#p9af150fd25)" d="M 49.64375 193.462562 
L 53.386856 187.464245 
L 57.129961 181.079893 
L 60.873067 174.287789 
L 65.032073 166.275411 
L 72.518284 151.634342 
L 74.597787 148.103436 
L 76.26139 145.692826 
L 77.509092 144.199781 
L 78.756793 143.025362 
L 80.004495 142.206637 
L 80.836297 141.872569 
L 81.668098 141.714483 
L 82.499899 141.735069 
L 83.3317 141.93415 
L 84.163502 142.308547 
L 85.411203 143.184372 
L 86.658905 144.40618 
L 87.906607 145.926062 
L 89.57021 148.31093 
L 92.481514 152.988177 
L 94.976918 156.878343 
L 96.64052 159.11048 
L 97.888222 160.49679 
L 99.135924 161.588656 
L 100.383626 162.357077 
L 101.631328 162.786269 
L 102.463129 162.881959 
L 103.710831 162.74504 
L 104.958533 162.286649 
L 106.206234 161.532383 
L 107.453936 160.515752 
L 109.117539 158.821601 
L 111.197042 156.311779 
L 117.435551 148.37631 
L 119.099154 146.705125 
L 120.346856 145.696862 
L 121.594557 144.93523 
L 122.842259 144.445513 
L 124.089961 144.244768 
L 125.337663 144.340818 
L 126.585365 144.731502 
L 127.833067 145.404255 
L 129.080769 146.336124 
L 130.744371 147.923604 
L 132.823874 150.314953 
L 138.646483 157.344067 
L 140.310085 158.874798 
L 141.557787 159.758069 
L 142.805489 160.381124 
L 144.053191 160.725117 
L 145.300893 160.781843 
L 146.548595 160.553603 
L 147.796297 160.052643 
L 149.043998 159.300261 
L 150.707601 157.957426 
L 152.371203 156.307098 
L 154.866607 153.480407 
L 158.609713 149.201855 
L 160.273315 147.572037 
L 161.936918 146.251174 
L 163.18462 145.512493 
L 164.432321 145.019798 
L 165.680023 144.791803 
L 166.927725 144.838555 
L 168.175427 145.160727 
L 169.423129 145.7492 
L 170.670831 146.585009 
L 172.334433 148.033749 
L 174.413936 150.250048 
L 180.652446 157.337884 
L 182.316048 158.747999 
L 183.56375 159.548004 
L 184.811452 160.096079 
L 186.059154 160.374825 
L 187.306856 160.377075 
L 188.554557 160.10582 
L 189.802259 159.573708 
L 191.049961 158.802204 
L 192.713564 157.452563 
L 194.793067 155.374242 
L 201.863377 147.758165 
L 203.52698 146.456166 
L 204.774682 145.723885 
L 206.022384 145.231242 
L 207.270085 144.99735 
L 208.517787 145.032801 
L 209.765489 145.338952 
L 211.013191 145.907512 
L 212.260893 146.720471 
L 213.924495 148.135987 
L 216.003998 150.310014 
L 222.658408 157.691867 
L 224.322011 159.004271 
L 225.569713 159.723584 
L 226.817415 160.187775 
L 228.065116 160.382336 
L 229.312818 160.302928 
L 230.56052 159.955196 
L 231.808222 159.354192 
L 233.055924 158.523479 
L 234.719526 157.112916 
L 236.79903 154.99155 
L 243.037539 148.251949 
L 244.701141 146.873642 
L 245.948843 146.06971 
L 247.196545 145.495612 
L 248.444247 145.173177 
L 249.691949 145.116038 
L 250.939651 145.328842 
L 252.187352 145.806728 
L 253.435054 146.535135 
L 254.682756 147.489993 
L 256.346359 149.057267 
L 258.425862 151.345961 
L 263.000769 156.553127 
L 264.664371 158.115722 
L 265.912073 159.064245 
L 267.159775 159.783174 
L 268.407477 160.248024 
L 269.655179 160.444181 
L 270.90288 160.367169 
L 272.150582 160.022479 
L 273.398284 159.425003 
L 274.645986 158.598146 
L 276.309589 157.192975 
L 278.389092 155.078315 
L 284.627601 148.354362 
L 286.291203 146.978398 
L 287.538905 146.175617 
L 288.786607 145.602137 
L 290.034309 145.279791 
L 291.282011 145.222225 
L 292.529713 145.434119 
L 293.777415 145.910657 
L 295.025116 146.637338 
L 296.272818 147.590164 
L 297.936421 149.154403 
L 300.015924 151.439087 
L 304.590831 156.638553 
L 306.254433 158.199276 
L 307.502135 159.146829 
L 308.749837 159.865178 
L 309.997539 160.329838 
L 311.245241 160.52618 
L 312.492943 160.449698 
L 313.740644 160.105846 
L 314.988346 159.509472 
L 316.236048 158.683929 
L 317.899651 157.280752 
L 319.979154 155.168799 
L 326.217663 148.452276 
L 327.881266 147.077663 
L 329.128967 146.275631 
L 330.376669 145.702652 
L 331.624371 145.380545 
L 332.872073 145.322952 
L 334.119775 145.534554 
L 335.367477 146.010548 
L 336.615179 146.736454 
L 337.86288 147.688302 
L 339.526483 149.25099 
L 341.605986 151.53348 
L 346.180893 156.728213 
L 347.844495 158.287592 
L 349.092197 159.234355 
L 350.339899 159.952129 
L 351.587601 160.416442 
L 352.835303 160.61267 
L 354.083005 160.536306 
L 355.330707 160.192793 
L 356.578408 159.59696 
L 357.82611 158.772137 
L 359.489713 157.370148 
L 361.569216 155.259939 
L 367.807725 148.548784 
L 369.471328 147.175249 
L 370.71903 146.373845 
L 371.966731 145.801314 
L 373.214433 145.47946 
L 374.462135 145.421914 
L 375.709837 145.633356 
L 376.957539 146.108988 
L 378.205241 146.834339 
L 379.452943 147.785462 
L 381.116545 149.346957 
L 383.196048 151.627712 
L 387.770955 156.818506 
L 389.434557 158.376705 
L 390.682259 159.322751 
L 391.929961 160.039978 
L 393.177663 160.503935 
L 394.425365 160.700004 
L 395.673067 160.623682 
L 396.920769 160.280408 
L 398.16847 159.684997 
L 399.416172 158.860763 
L 401.079775 157.459781 
L 403.159278 155.351089 
L 409.397787 148.644775 
L 411.06139 147.272238 
L 412.309092 146.471419 
L 413.556793 145.89931 
L 414.804495 145.577698 
L 416.052197 145.520207 
L 417.299899 145.731511 
L 418.547601 146.206815 
L 419.795303 146.931659 
L 421.043005 147.882112 
L 422.706607 149.442503 
L 424.78611 151.721637 
L 429.361017 156.908721 
L 431.02462 158.465798 
L 432.272321 159.41116 
L 433.520023 160.127863 
L 434.767725 160.591475 
L 436.015427 160.787388 
L 437.263129 160.711103 
L 438.510831 160.368054 
L 439.758533 159.773047 
L 441.006234 158.94938 
L 442.669837 157.549368 
L 444.74934 155.442143 
L 450.987849 148.74053 
L 452.651452 147.368962 
L 453.899154 146.568712 
L 455.146856 145.997012 
L 456.394557 145.675635 
L 457.642259 145.618193 
L 458.889961 145.829359 
L 460.137663 146.304338 
L 461.385365 147.028684 
L 462.633067 147.978478 
L 464.296669 149.537784 
L 465.12847 150.415541 
L 465.12847 150.415541 
" style="fill:none;stroke:#008000;stroke-dasharray:7.4,3.2;stroke-dashoffset:0;stroke-width:2;"/>
   </g>
   <g id="patch_3">
    <path d="M 49.64375 230.64 
L 49.64375 13.2 
" style="fill:none;stroke:#000000;stroke-linecap:square;stroke-linejoin:miter;stroke-width:2;"/>
   </g>
   <g id="patch_4">
    <path d="M 340.774185 230.64 
L 340.774185 13.2 
" style="fill:none;"/>
   </g>
   <g id="patch_5">
    <path d="M 49.64375 230.64 
L 340.774185 230.64 
" style="fill:none;stroke:#000000;stroke-linecap:square;stroke-linejoin:miter;stroke-width:2;"/>
   </g>
   <g id="patch_6">
    <path d="M 49.64375 13.2 
L 340.774185 13.2 
" style="fill:none;"/>
   </g>
   <g id="legend_1">
    <g id="patch_7">
     <path d="M 219.124185 69.234375 
L 330.274185 69.234375 
Q 333.274185 69.234375 333.274185 66.234375 
L 333.274185 23.7 
Q 333.274185 20.7 330.274185 20.7 
L 219.124185 20.7 
Q 216.124185 20.7 216.124185 23.7 
L 216.124185 66.234375 
Q 216.124185 69.234375 219.124185 69.234375 
z
" style="fill:#ffffff;opacity:0.8;stroke:#cccccc;stroke-linejoin:miter;"/>
    </g>
    <g id="line2d_37">
     <path d="M 222.124185 32.847656 
L 252.124185 32.847656 
" style="fill:none;stroke:#008000;stroke-dasharray:7.4,3.2;stroke-dashoffset:0;stroke-width:2;"/>
    </g>
    <g id="line2d_38"/>
    <g id="text_15">
     <!-- Numeric -->
     <defs>
      <path d="M 9.8125 72.90625 
L 23.09375 72.90625 
L 55.421875 11.921875 
L 55.421875 72.90625 
L 64.984375 72.90625 
L 64.984375 0 
L 51.703125 0 
L 19.390625 60.984375 
L 19.390625 0 
L 9.8125 0 
z
" id="DejaVuSans-4e"/>
      <path d="M 8.5 21.578125 
L 8.5 54.6875 
L 17.484375 54.6875 
L 17.484375 21.921875 
Q 17.484375 14.15625 20.5 10.265625 
Q 23.53125 6.390625 29.59375 6.390625 
Q 36.859375 6.390625 41.078125 11.03125 
Q 45.3125 15.671875 45.3125 23.6875 
L 45.3125 54.6875 
L 54.296875 54.6875 
L 54.296875 0 
L 45.3125 0 
L 45.3125 8.40625 
Q 42.046875 3.421875 37.71875 1 
Q 33.40625 -1.421875 27.6875 -1.421875 
Q 18.265625 -1.421875 13.375 4.4375 
Q 8.5 10.296875 8.5 21.578125 
z
M 31.109375 56 
z
" id="DejaVuSans-75"/>
      <path d="M 52 44.1875 
Q 55.375 50.25 60.0625 53.125 
Q 64.75 56 71.09375 56 
Q 79.640625 56 84.28125 50.015625 
Q 88.921875 44.046875 88.921875 33.015625 
L 88.921875 0 
L 79.890625 0 
L 79.890625 32.71875 
Q 79.890625 40.578125 77.09375 44.375 
Q 74.3125 48.1875 68.609375 48.1875 
Q 61.625 48.1875 57.5625 43.546875 
Q 53.515625 38.921875 53.515625 30.90625 
L 53.515625 0 
L 44.484375 0 
L 44.484375 32.71875 
Q 44.484375 40.625 41.703125 44.40625 
Q 38.921875 48.1875 33.109375 48.1875 
Q 26.21875 48.1875 22.15625 43.53125 
Q 18.109375 38.875 18.109375 30.90625 
L 18.109375 0 
L 9.078125 0 
L 9.078125 54.6875 
L 18.109375 54.6875 
L 18.109375 46.1875 
Q 21.1875 51.21875 25.484375 53.609375 
Q 29.78125 56 35.6875 56 
Q 41.65625 56 45.828125 52.96875 
Q 50 49.953125 52 44.1875 
z
" id="DejaVuSans-6d"/>
      <path d="M 56.203125 29.59375 
L 56.203125 25.203125 
L 14.890625 25.203125 
Q 15.484375 15.921875 20.484375 11.0625 
Q 25.484375 6.203125 34.421875 6.203125 
Q 39.59375 6.203125 44.453125 7.46875 
Q 49.3125 8.734375 54.109375 11.28125 
L 54.109375 2.78125 
Q 49.265625 0.734375 44.1875 -0.34375 
Q 39.109375 -1.421875 33.890625 -1.421875 
Q 20.796875 -1.421875 13.15625 6.1875 
Q 5.515625 13.8125 5.515625 26.8125 
Q 5.515625 40.234375 12.765625 48.109375 
Q 20.015625 56 32.328125 56 
Q 43.359375 56 49.78125 48.890625 
Q 56.203125 41.796875 56.203125 29.59375 
z
M 47.21875 32.234375 
Q 47.125 39.59375 43.09375 43.984375 
Q 39.0625 48.390625 32.421875 48.390625 
Q 24.90625 48.390625 20.390625 44.140625 
Q 15.875 39.890625 15.1875 32.171875 
z
" id="DejaVuSans-65"/>
      <path d="M 41.109375 46.296875 
Q 39.59375 47.171875 37.8125 47.578125 
Q 36.03125 48 33.890625 48 
Q 26.265625 48 22.1875 43.046875 
Q 18.109375 38.09375 18.109375 28.8125 
L 18.109375 0 
L 9.078125 0 
L 9.078125 54.6875 
L 18.109375 54.6875 
L 18.109375 46.1875 
Q 20.953125 51.171875 25.484375 53.578125 
Q 30.03125 56 36.53125 56 
Q 37.453125 56 38.578125 55.875 
Q 39.703125 55.765625 41.0625 55.515625 
z
" id="DejaVuSans-72"/>
      <path d="M 9.421875 54.6875 
L 18.40625 54.6875 
L 18.40625 0 
L 9.421875 0 
z
M 9.421875 75.984375 
L 18.40625 75.984375 
L 18.40625 64.59375 
L 9.421875 64.59375 
z
" id="DejaVuSans-69"/>
      <path d="M 48.78125 52.59375 
L 48.78125 44.1875 
Q 44.96875 46.296875 41.140625 47.34375 
Q 37.3125 48.390625 33.40625 48.390625 
Q 24.65625 48.390625 19.8125 42.84375 
Q 14.984375 37.3125 14.984375 27.296875 
Q 14.984375 17.28125 19.8125 11.734375 
Q 24.65625 6.203125 33.40625 6.203125 
Q 37.3125 6.203125 41.140625 7.25 
Q 44.96875 8.296875 48.78125 10.40625 
L 48.78125 2.09375 
Q 45.015625 0.34375 40.984375 -0.53125 
Q 36.96875 -1.421875 32.421875 -1.421875 
Q 20.0625 -1.421875 12.78125 6.34375 
Q 5.515625 14.109375 5.515625 27.296875 
Q 5.515625 40.671875 12.859375 48.328125 
Q 20.21875 56 33.015625 56 
Q 37.15625 56 41.109375 55.140625 
Q 45.0625 54.296875 48.78125 52.59375 
z
" id="DejaVuSans-63"/>
     </defs>
     <g transform="translate(264.124185 38.097656)scale(0.15 -0.15)">
      <use xlink:href="#DejaVuSans-4e"/>
      <use x="74.804688" xlink:href="#DejaVuSans-75"/>
      <use x="138.183594" xlink:href="#DejaVuSans-6d"/>
      <use x="235.595703" xlink:href="#DejaVuSans-65"/>
      <use x="297.119141" xlink:href="#DejaVuSans-72"/>
      <use x="338.232422" xlink:href="#DejaVuSans-69"/>
      <use x="366.015625" xlink:href="#DejaVuSans-63"/>
     </g>
    </g>
    <g id="patch_8">
     <path d="M 222.124185 60.114844 
L 252.124185 60.114844 
L 252.124185 49.614844 
L 222.124185 49.614844 
z
" style="fill:#4db8ff;"/>
    </g>
    <g id="text_16">
     <!-- SSA -->
     <defs>
      <path d="M 53.515625 70.515625 
L 53.515625 60.890625 
Q 47.90625 63.578125 42.921875 64.890625 
Q 37.9375 66.21875 33.296875 66.21875 
Q 25.25 66.21875 20.875 63.09375 
Q 16.5 59.96875 16.5 54.203125 
Q 16.5 49.359375 19.40625 46.890625 
Q 22.3125 44.4375 30.421875 42.921875 
L 36.375 41.703125 
Q 47.40625 39.59375 52.65625 34.296875 
Q 57.90625 29 57.90625 20.125 
Q 57.90625 9.515625 50.796875 4.046875 
Q 43.703125 -1.421875 29.984375 -1.421875 
Q 24.8125 -1.421875 18.96875 -0.25 
Q 13.140625 0.921875 6.890625 3.21875 
L 6.890625 13.375 
Q 12.890625 10.015625 18.65625 8.296875 
Q 24.421875 6.59375 29.984375 6.59375 
Q 38.421875 6.59375 43.015625 9.90625 
Q 47.609375 13.234375 47.609375 19.390625 
Q 47.609375 24.75 44.3125 27.78125 
Q 41.015625 30.8125 33.5 32.328125 
L 27.484375 33.5 
Q 16.453125 35.6875 11.515625 40.375 
Q 6.59375 45.0625 6.59375 53.421875 
Q 6.59375 63.09375 13.40625 68.65625 
Q 20.21875 74.21875 32.171875 74.21875 
Q 37.3125 74.21875 42.625 73.28125 
Q 47.953125 72.359375 53.515625 70.515625 
z
" id="DejaVuSans-53"/>
      <path d="M 34.1875 63.1875 
L 20.796875 26.90625 
L 47.609375 26.90625 
z
M 28.609375 72.90625 
L 39.796875 72.90625 
L 67.578125 0 
L 57.328125 0 
L 50.6875 18.703125 
L 17.828125 18.703125 
L 11.1875 0 
L 0.78125 0 
z
" id="DejaVuSans-41"/>
     </defs>
     <g transform="translate(264.124185 60.114844)scale(0.15 -0.15)">
      <use xlink:href="#DejaVuSans-53"/>
      <use x="63.476562" xlink:href="#DejaVuSans-53"/>
      <use x="126.96875" xlink:href="#DejaVuSans-41"/>
     </g>
    </g>
   </g>
  </g>
  <g id="axes_2">
   <g id="patch_9">
    <path d="M 428.113315 230.64 
L 719.24375 230.64 
L 719.24375 13.2 
L 428.113315 13.2 
z
" style="fill:#ffffff;"/>
   </g>
   <g id="PolyCollection_2">
    <path clip-path="url(#pc72b8ce012)" d="M 436.431328 220.799243 
L 436.431328 220.799243 
L 436.431328 220.799243 
L 436.431328 220.799243 
z
" style="fill:#4db8ff;"/>
    <path clip-path="url(#pc72b8ce012)" d="M 444.74934 220.027797 
L 444.74934 220.087764 
L 448.908346 217.389647 
L 453.067352 208.050608 
L 457.226359 185.462543 
L 461.385365 145.99766 
L 465.544371 97.534542 
L 469.703377 56.054457 
L 473.862384 47.831625 
L 478.02139 77.706208 
L 482.180396 129.192401 
L 486.339402 171.737244 
L 490.498408 193.675907 
L 494.657415 189.938592 
L 498.816421 170.502996 
L 502.975427 137.898296 
L 507.134433 96.735321 
L 511.293439 59.811464 
L 515.452446 46.482145 
L 519.611452 65.23049 
L 523.770458 110.049805 
L 527.929464 157.905265 
L 532.08847 178.559654 
L 536.247477 182.796993 
L 540.406483 168.067884 
L 544.565489 134.765883 
L 548.724495 94.766607 
L 552.883502 58.527769 
L 557.042508 45.958207 
L 561.201514 65.699259 
L 565.36052 106.707479 
L 569.519526 151.538975 
L 573.678533 178.851769 
L 577.837539 180.808137 
L 581.996545 164.026994 
L 586.155551 132.937525 
L 590.314557 91.124828 
L 594.473564 59.243523 
L 598.63257 45.853534 
L 602.791576 66.533276 
L 606.950582 110.377304 
L 611.109589 152.329983 
L 615.268595 177.757809 
L 619.427601 180.060153 
L 623.586607 160.482968 
L 627.745613 128.485694 
L 631.90462 91.603788 
L 636.063626 57.33721 
L 640.222632 46.45132 
L 644.381638 70.161549 
L 648.540644 116.10199 
L 652.699651 163.096472 
L 656.858657 185.101299 
L 661.017663 184.506079 
L 665.176669 168.562545 
L 669.335675 132.315957 
L 673.494682 91.000753 
L 677.653688 56.590607 
L 681.812694 46.085734 
L 685.9717 67.447025 
L 690.130707 109.748109 
L 694.289713 155.528203 
L 698.448719 184.143957 
L 702.607725 182.265771 
L 706.766731 163.135379 
L 710.925738 135.008822 
L 715.084744 94.976042 
L 719.24375 58.85909 
L 723.402756 45.903255 
L 727.561762 65.94587 
L 731.720769 110.032708 
L 735.879775 149.53077 
L 740.038781 173.258757 
L 744.197787 182.494474 
L 748.356793 165.01501 
L 752.5158 133.742996 
L 756.674806 95.371764 
L 760.833812 60.859078 
L 764.992818 46.062589 
L 769.151825 64.81277 
L 773.310831 110.109075 
L 777.469837 151.128573 
L 781.628843 177.931097 
L 785.787849 180.176193 
L 789.946856 164.724979 
L 794.105862 133.133101 
L 798.264868 93.761051 
L 802.423874 60.277621 
L 806.58288 46.335179 
L 810.741887 67.36364 
L 814.900893 109.789756 
L 819.059899 152.9681 
L 823.218905 174.509483 
L 827.377911 179.143579 
L 831.536918 160.757337 
L 835.695924 131.38495 
L 839.85493 94.26306 
L 844.013936 60.45478 
L 844.013936 40.716373 
L 844.013936 40.716373 
L 839.85493 79.288511 
L 835.695924 121.338852 
L 831.536918 154.350853 
L 827.377911 174.87625 
L 823.218905 169.714332 
L 819.059899 145.621346 
L 814.900893 96.91757 
L 810.741887 48.618511 
L 806.58288 24.536723 
L 802.423874 40.513615 
L 798.264868 78.717595 
L 794.105862 123.310489 
L 789.946856 158.789979 
L 785.787849 176.025368 
L 781.628843 173.526448 
L 777.469837 143.557022 
L 773.310831 97.279525 
L 769.151825 45.702053 
L 764.992818 24.223972 
L 760.833812 41.179067 
L 756.674806 80.549195 
L 752.5158 123.998161 
L 748.356793 159.114271 
L 744.197787 178.603685 
L 740.038781 168.319786 
L 735.879775 141.763134 
L 731.720769 97.192963 
L 727.561762 46.997714 
L 723.402756 24.041157 
L 719.24375 38.889881 
L 715.084744 80.099259 
L 710.925738 125.425087 
L 706.766731 157.012105 
L 702.607725 178.349423 
L 698.448719 180.436879 
L 694.289713 148.492583 
L 690.130707 96.870359 
L 685.9717 48.713825 
L 681.812694 24.250528 
L 677.653688 36.292393 
L 673.494682 75.577391 
L 669.335675 122.388982 
L 665.176669 163.078572 
L 661.017663 180.839184 
L 656.858657 181.500336 
L 652.699651 156.968579 
L 648.540644 104.068027 
L 644.381638 51.815857 
L 640.222632 24.66997 
L 636.063626 37.147394 
L 631.90462 76.263571 
L 627.745613 118.067149 
L 623.586607 154.043691 
L 619.427601 175.896256 
L 615.268595 173.333488 
L 611.109589 144.905365 
L 606.950582 97.583551 
L 602.791576 47.669289 
L 598.63257 23.984107 
L 594.473564 39.329967 
L 590.314557 75.71858 
L 586.155551 123.089951 
L 581.996545 158.009427 
L 577.837539 176.728406 
L 573.678533 174.551443 
L 569.519526 144.017665 
L 565.36052 93.422468 
L 561.201514 46.715746 
L 557.042508 24.104208 
L 552.883502 38.510573 
L 548.724495 79.861118 
L 544.565489 125.151264 
L 540.406483 162.526056 
L 536.247477 178.93998 
L 532.08847 174.226263 
L 527.929464 151.156711 
L 523.770458 97.212343 
L 519.611452 46.179732 
L 515.452446 24.705336 
L 511.293439 39.98007 
L 507.134433 82.099282 
L 502.975427 128.68066 
L 498.816421 165.245157 
L 494.657415 186.867894 
L 490.498408 191.007803 
L 486.339402 166.622555 
L 482.180396 118.864847 
L 478.02139 60.429375 
L 473.862384 26.25338 
L 469.703377 35.678332 
L 465.544371 83.007634 
L 461.385365 137.793747 
L 457.226359 181.901522 
L 453.067352 206.86432 
L 448.908346 217.091316 
L 444.74934 220.027797 
z
" style="fill:#4db8ff;"/>
   </g>
   <g id="matplotlib.axis_3">
    <g id="xtick_9">
     <g id="line2d_39">
      <path clip-path="url(#pc72b8ce012)" d="M 428.113315 230.64 
L 428.113315 13.2 
" style="fill:none;stroke:#b0b0b0;stroke-linecap:square;stroke-width:0.8;"/>
     </g>
     <g id="line2d_40">
      <g>
       <use x="428.113315" xlink:href="#m8f24a098ac" y="230.64"/>
      </g>
     </g>
     <g id="text_17">
      <!-- 0 -->
      <g transform="translate(423.34144 251.537656)scale(0.15 -0.15)">
       <use xlink:href="#DejaVuSans-30"/>
      </g>
     </g>
    </g>
    <g id="xtick_10">
     <g id="line2d_41">
      <path clip-path="url(#pc72b8ce012)" d="M 469.703377 230.64 
L 469.703377 13.2 
" style="fill:none;stroke:#b0b0b0;stroke-linecap:square;stroke-width:0.8;"/>
     </g>
     <g id="line2d_42">
      <g>
       <use x="469.703377" xlink:href="#m8f24a098ac" y="230.64"/>
      </g>
     </g>
     <g id="text_18">
      <!-- 1 -->
      <g transform="translate(464.931502 251.537656)scale(0.15 -0.15)">
       <use xlink:href="#DejaVuSans-31"/>
      </g>
     </g>
    </g>
    <g id="xtick_11">
     <g id="line2d_43">
      <path clip-path="url(#pc72b8ce012)" d="M 511.293439 230.64 
L 511.293439 13.2 
" style="fill:none;stroke:#b0b0b0;stroke-linecap:square;stroke-width:0.8;"/>
     </g>
     <g id="line2d_44">
      <g>
       <use x="511.293439" xlink:href="#m8f24a098ac" y="230.64"/>
      </g>
     </g>
     <g id="text_19">
      <!-- 2 -->
      <g transform="translate(506.521564 251.537656)scale(0.15 -0.15)">
       <use xlink:href="#DejaVuSans-32"/>
      </g>
     </g>
    </g>
    <g id="xtick_12">
     <g id="line2d_45">
      <path clip-path="url(#pc72b8ce012)" d="M 552.883502 230.64 
L 552.883502 13.2 
" style="fill:none;stroke:#b0b0b0;stroke-linecap:square;stroke-width:0.8;"/>
     </g>
     <g id="line2d_46">
      <g>
       <use x="552.883502" xlink:href="#m8f24a098ac" y="230.64"/>
      </g>
     </g>
     <g id="text_20">
      <!-- 3 -->
      <g transform="translate(548.111627 251.537656)scale(0.15 -0.15)">
       <use xlink:href="#DejaVuSans-33"/>
      </g>
     </g>
    </g>
    <g id="xtick_13">
     <g id="line2d_47">
      <path clip-path="url(#pc72b8ce012)" d="M 594.473564 230.64 
L 594.473564 13.2 
" style="fill:none;stroke:#b0b0b0;stroke-linecap:square;stroke-width:0.8;"/>
     </g>
     <g id="line2d_48">
      <g>
       <use x="594.473564" xlink:href="#m8f24a098ac" y="230.64"/>
      </g>
     </g>
     <g id="text_21">
      <!-- 4 -->
      <g transform="translate(589.701689 251.537656)scale(0.15 -0.15)">
       <use xlink:href="#DejaVuSans-34"/>
      </g>
     </g>
    </g>
    <g id="xtick_14">
     <g id="line2d_49">
      <path clip-path="url(#pc72b8ce012)" d="M 636.063626 230.64 
L 636.063626 13.2 
" style="fill:none;stroke:#b0b0b0;stroke-linecap:square;stroke-width:0.8;"/>
     </g>
     <g id="line2d_50">
      <g>
       <use x="636.063626" xlink:href="#m8f24a098ac" y="230.64"/>
      </g>
     </g>
     <g id="text_22">
      <!-- 5 -->
      <g transform="translate(631.291751 251.537656)scale(0.15 -0.15)">
       <use xlink:href="#DejaVuSans-35"/>
      </g>
     </g>
    </g>
    <g id="xtick_15">
     <g id="line2d_51">
      <path clip-path="url(#pc72b8ce012)" d="M 677.653688 230.64 
L 677.653688 13.2 
" style="fill:none;stroke:#b0b0b0;stroke-linecap:square;stroke-width:0.8;"/>
     </g>
     <g id="line2d_52">
      <g>
       <use x="677.653688" xlink:href="#m8f24a098ac" y="230.64"/>
      </g>
     </g>
     <g id="text_23">
      <!-- 6 -->
      <g transform="translate(672.881813 251.537656)scale(0.15 -0.15)">
       <use xlink:href="#DejaVuSans-36"/>
      </g>
     </g>
    </g>
    <g id="xtick_16">
     <g id="line2d_53">
      <path clip-path="url(#pc72b8ce012)" d="M 719.24375 230.64 
L 719.24375 13.2 
" style="fill:none;stroke:#b0b0b0;stroke-linecap:square;stroke-width:0.8;"/>
     </g>
     <g id="line2d_54">
      <g>
       <use x="719.24375" xlink:href="#m8f24a098ac" y="230.64"/>
      </g>
     </g>
     <g id="text_24">
      <!-- 7 -->
      <g transform="translate(714.471875 251.537656)scale(0.15 -0.15)">
       <use xlink:href="#DejaVuSans-37"/>
      </g>
     </g>
    </g>
    <g id="text_25">
     <!-- $t/\tau$ -->
     <g transform="translate(560.278533 273.854062)scale(0.2 -0.2)">
      <use transform="translate(0 0.09375)" xlink:href="#DejaVuSans-Oblique-74"/>
      <use transform="translate(39.208984 0.09375)" xlink:href="#DejaVuSans-2f"/>
      <use transform="translate(72.900391 0.09375)" xlink:href="#DejaVuSans-Oblique-3c4"/>
     </g>
    </g>
   </g>
   <g id="matplotlib.axis_4">
    <g id="ytick_5">
     <g id="line2d_55">
      <path clip-path="url(#pc72b8ce012)" d="M 428.113315 220.799243 
L 719.24375 220.799243 
" style="fill:none;stroke:#b0b0b0;stroke-linecap:square;stroke-width:0.8;"/>
     </g>
     <g id="line2d_56">
      <g>
       <use x="428.113315" xlink:href="#meba8708d68" y="220.799243"/>
      </g>
     </g>
     <g id="text_26">
      <!-- 0.00 -->
      <defs>
       <path d="M 10.6875 12.40625 
L 21 12.40625 
L 21 0 
L 10.6875 0 
z
" id="DejaVuSans-2e"/>
      </defs>
      <g transform="translate(385.214878 226.498071)scale(0.15 -0.15)">
       <use xlink:href="#DejaVuSans-30"/>
       <use x="63.623047" xlink:href="#DejaVuSans-2e"/>
       <use x="95.410156" xlink:href="#DejaVuSans-30"/>
       <use x="159.033203" xlink:href="#DejaVuSans-30"/>
      </g>
     </g>
    </g>
    <g id="ytick_6">
     <g id="line2d_57">
      <path clip-path="url(#pc72b8ce012)" d="M 428.113315 191.142208 
L 719.24375 191.142208 
" style="fill:none;stroke:#b0b0b0;stroke-linecap:square;stroke-width:0.8;"/>
     </g>
     <g id="line2d_58">
      <g>
       <use x="428.113315" xlink:href="#meba8708d68" y="191.142208"/>
      </g>
     </g>
     <g id="text_27">
      <!-- 0.02 -->
      <g transform="translate(385.214878 196.841037)scale(0.15 -0.15)">
       <use xlink:href="#DejaVuSans-30"/>
       <use x="63.623047" xlink:href="#DejaVuSans-2e"/>
       <use x="95.410156" xlink:href="#DejaVuSans-30"/>
       <use x="159.033203" xlink:href="#DejaVuSans-32"/>
      </g>
     </g>
    </g>
    <g id="ytick_7">
     <g id="line2d_59">
      <path clip-path="url(#pc72b8ce012)" d="M 428.113315 161.485174 
L 719.24375 161.485174 
" style="fill:none;stroke:#b0b0b0;stroke-linecap:square;stroke-width:0.8;"/>
     </g>
     <g id="line2d_60">
      <g>
       <use x="428.113315" xlink:href="#meba8708d68" y="161.485174"/>
      </g>
     </g>
     <g id="text_28">
      <!-- 0.04 -->
      <g transform="translate(385.214878 167.184002)scale(0.15 -0.15)">
       <use xlink:href="#DejaVuSans-30"/>
       <use x="63.623047" xlink:href="#DejaVuSans-2e"/>
       <use x="95.410156" xlink:href="#DejaVuSans-30"/>
       <use x="159.033203" xlink:href="#DejaVuSans-34"/>
      </g>
     </g>
    </g>
    <g id="ytick_8">
     <g id="line2d_61">
      <path clip-path="url(#pc72b8ce012)" d="M 428.113315 131.828139 
L 719.24375 131.828139 
" style="fill:none;stroke:#b0b0b0;stroke-linecap:square;stroke-width:0.8;"/>
     </g>
     <g id="line2d_62">
      <g>
       <use x="428.113315" xlink:href="#meba8708d68" y="131.828139"/>
      </g>
     </g>
     <g id="text_29">
      <!-- 0.06 -->
      <g transform="translate(385.214878 137.526967)scale(0.15 -0.15)">
       <use xlink:href="#DejaVuSans-30"/>
       <use x="63.623047" xlink:href="#DejaVuSans-2e"/>
       <use x="95.410156" xlink:href="#DejaVuSans-30"/>
       <use x="159.033203" xlink:href="#DejaVuSans-36"/>
      </g>
     </g>
    </g>
    <g id="ytick_9">
     <g id="line2d_63">
      <path clip-path="url(#pc72b8ce012)" d="M 428.113315 102.171104 
L 719.24375 102.171104 
" style="fill:none;stroke:#b0b0b0;stroke-linecap:square;stroke-width:0.8;"/>
     </g>
     <g id="line2d_64">
      <g>
       <use x="428.113315" xlink:href="#meba8708d68" y="102.171104"/>
      </g>
     </g>
     <g id="text_30">
      <!-- 0.08 -->
      <g transform="translate(385.214878 107.869932)scale(0.15 -0.15)">
       <use xlink:href="#DejaVuSans-30"/>
       <use x="63.623047" xlink:href="#DejaVuSans-2e"/>
       <use x="95.410156" xlink:href="#DejaVuSans-30"/>
       <use x="159.033203" xlink:href="#DejaVuSans-38"/>
      </g>
     </g>
    </g>
    <g id="ytick_10">
     <g id="line2d_65">
      <path clip-path="url(#pc72b8ce012)" d="M 428.113315 72.514069 
L 719.24375 72.514069 
" style="fill:none;stroke:#b0b0b0;stroke-linecap:square;stroke-width:0.8;"/>
     </g>
     <g id="line2d_66">
      <g>
       <use x="428.113315" xlink:href="#meba8708d68" y="72.514069"/>
      </g>
     </g>
     <g id="text_31">
      <!-- 0.10 -->
      <g transform="translate(385.214878 78.212898)scale(0.15 -0.15)">
       <use xlink:href="#DejaVuSans-30"/>
       <use x="63.623047" xlink:href="#DejaVuSans-2e"/>
       <use x="95.410156" xlink:href="#DejaVuSans-31"/>
       <use x="159.033203" xlink:href="#DejaVuSans-30"/>
      </g>
     </g>
    </g>
    <g id="ytick_11">
     <g id="line2d_67">
      <path clip-path="url(#pc72b8ce012)" d="M 428.113315 42.857035 
L 719.24375 42.857035 
" style="fill:none;stroke:#b0b0b0;stroke-linecap:square;stroke-width:0.8;"/>
     </g>
     <g id="line2d_68">
      <g>
       <use x="428.113315" xlink:href="#meba8708d68" y="42.857035"/>
      </g>
     </g>
     <g id="text_32">
      <!-- 0.12 -->
      <g transform="translate(385.214878 48.555863)scale(0.15 -0.15)">
       <use xlink:href="#DejaVuSans-30"/>
       <use x="63.623047" xlink:href="#DejaVuSans-2e"/>
       <use x="95.410156" xlink:href="#DejaVuSans-31"/>
       <use x="159.033203" xlink:href="#DejaVuSans-32"/>
      </g>
     </g>
    </g>
    <g id="ytick_12">
     <g id="line2d_69">
      <path clip-path="url(#pc72b8ce012)" d="M 428.113315 13.2 
L 719.24375 13.2 
" style="fill:none;stroke:#b0b0b0;stroke-linecap:square;stroke-width:0.8;"/>
     </g>
     <g id="line2d_70">
      <g>
       <use x="428.113315" xlink:href="#meba8708d68" y="13.2"/>
      </g>
     </g>
     <g id="text_33">
      <!-- 0.14 -->
      <g transform="translate(385.214878 18.898828)scale(0.15 -0.15)">
       <use xlink:href="#DejaVuSans-30"/>
       <use x="63.623047" xlink:href="#DejaVuSans-2e"/>
       <use x="95.410156" xlink:href="#DejaVuSans-31"/>
       <use x="159.033203" xlink:href="#DejaVuSans-34"/>
      </g>
     </g>
    </g>
    <g id="text_34">
     <!-- $C_V^2(s)$ -->
     <defs>
      <path d="M 69.484375 67.28125 
L 67.484375 56.890625 
Q 62.796875 61.625 57.546875 63.921875 
Q 52.296875 66.21875 46.1875 66.21875 
Q 37.84375 66.21875 31.515625 62.203125 
Q 25.203125 58.203125 20.609375 50 
Q 17.671875 44.734375 16.125 38.84375 
Q 14.59375 32.953125 14.59375 27 
Q 14.59375 17.046875 19.75 11.8125 
Q 24.90625 6.59375 34.71875 6.59375 
Q 41.5 6.59375 47.75 8.765625 
Q 54 10.9375 59.90625 15.28125 
L 57.625 3.609375 
Q 51.8125 1.125 45.875 -0.140625 
Q 39.9375 -1.421875 33.984375 -1.421875 
Q 19.96875 -1.421875 12.078125 6.1875 
Q 4.203125 13.8125 4.203125 27.390625 
Q 4.203125 36.078125 7.203125 44.46875 
Q 10.203125 52.875 15.828125 59.8125 
Q 21.78125 67.1875 29.421875 70.703125 
Q 37.0625 74.21875 47.21875 74.21875 
Q 53.46875 74.21875 59.0625 72.484375 
Q 64.65625 70.75 69.484375 67.28125 
z
" id="DejaVuSans-Oblique-43"/>
      <path d="M 20.609375 0 
L 7.8125 72.90625 
L 17.484375 72.90625 
L 28.078125 10.203125 
L 63.484375 72.90625 
L 74.21875 72.90625 
L 32.078125 0 
z
" id="DejaVuSans-Oblique-56"/>
     </defs>
     <g transform="translate(375.614878 147.42)rotate(-90)scale(0.2 -0.2)">
      <use transform="translate(0 0.765625)" xlink:href="#DejaVuSans-Oblique-43"/>
      <use transform="translate(77.02474 39.046875)scale(0.7)" xlink:href="#DejaVuSans-32"/>
      <use transform="translate(69.824219 -26.578125)scale(0.7)" xlink:href="#DejaVuSans-Oblique-56"/>
      <use transform="translate(124.295247 0.765625)" xlink:href="#DejaVuSans-28"/>
      <use transform="translate(163.308919 0.765625)" xlink:href="#DejaVuSans-Oblique-73"/>
      <use transform="translate(215.408529 0.765625)" xlink:href="#DejaVuSans-29"/>
     </g>
    </g>
   </g>
   <g id="line2d_71">
    <path clip-path="url(#pc72b8ce012)" d="M 428.113315 220.799243 
L 432.272321 220.799243 
L 436.431328 220.799243 
L 440.590334 220.799243 
L 444.74934 220.057781 
L 448.908346 217.240482 
L 453.067352 207.457464 
L 457.226359 183.682032 
L 461.385365 141.895704 
L 465.544371 90.271088 
L 469.703377 45.866394 
L 473.862384 37.042503 
L 478.02139 69.067791 
L 482.180396 124.028624 
L 486.339402 169.179899 
L 490.498408 192.341855 
L 494.657415 188.403243 
L 498.816421 167.874077 
L 502.975427 133.289478 
L 507.134433 89.417302 
L 511.293439 49.895767 
L 515.452446 35.59374 
L 519.611452 55.705111 
L 523.770458 103.631074 
L 527.929464 154.530988 
L 532.08847 176.392958 
L 536.247477 180.868486 
L 540.406483 165.29697 
L 544.565489 129.958574 
L 548.724495 87.313862 
L 552.883502 48.519171 
L 557.042508 35.031207 
L 561.201514 56.207503 
L 565.36052 100.064973 
L 569.519526 147.77832 
L 573.678533 176.701606 
L 577.837539 178.768272 
L 581.996545 161.01821 
L 586.155551 128.013738 
L 590.314557 83.421704 
L 594.473564 49.286745 
L 598.63257 34.91882 
L 602.791576 57.101282 
L 606.950582 103.980427 
L 611.109589 148.617674 
L 615.268595 175.545648 
L 619.427601 177.978205 
L 623.586607 157.263329 
L 627.745613 123.276421 
L 631.90462 83.933679 
L 636.063626 47.242302 
L 640.222632 35.560645 
L 644.381638 60.988703 
L 648.540644 110.085008 
L 652.699651 160.032525 
L 656.858657 183.300817 
L 661.017663 182.672632 
L 665.176669 165.820558 
L 669.335675 127.352469 
L 673.494682 83.289072 
L 677.653688 46.4415 
L 681.812694 35.168131 
L 685.9717 58.080425 
L 690.130707 103.309234 
L 694.289713 152.010393 
L 698.448719 182.290418 
L 702.607725 180.307597 
L 706.766731 160.073742 
L 710.925738 130.216955 
L 715.084744 87.537651 
L 719.24375 48.874485 
L 723.402756 34.972206 
L 727.561762 56.471792 
L 731.720769 103.612835 
L 733.44375 121.026611 
" style="fill:none;stroke:#1f77b4;stroke-linecap:square;stroke-width:1.5;"/>
   </g>
   <g id="line2d_72">
    <path clip-path="url(#pc72b8ce012)" d="M 428.113315 220.799243 
L 441.422135 220.700073 
L 443.501638 220.456842 
L 444.74934 220.145226 
L 445.997042 219.62293 
L 447.244744 218.791911 
L 448.076545 218.006719 
L 448.908346 216.987862 
L 449.740148 215.688748 
L 450.571949 214.059253 
L 451.40375 212.046703 
L 452.235551 209.597114 
L 453.067352 206.656677 
L 454.315054 201.213115 
L 455.562756 194.392321 
L 456.810458 186.072884 
L 458.05816 176.186171 
L 459.305862 164.734042 
L 460.969464 147.1988 
L 463.048967 122.407805 
L 467.207974 71.098356 
L 468.455675 58.021482 
L 469.703377 47.328226 
L 470.535179 41.873418 
L 471.36698 37.969735 
L 471.78288 36.645751 
L 472.198781 35.759641 
L 472.614682 35.322065 
L 473.030582 35.34035 
L 473.446483 35.818298 
L 473.862384 36.756035 
L 474.278284 38.149917 
L 475.110085 42.272499 
L 475.941887 48.081381 
L 476.773688 55.415085 
L 478.02139 68.801724 
L 479.684992 89.723254 
L 483.428098 138.747393 
L 485.0917 157.130144 
L 486.339402 168.526206 
L 487.587104 177.655143 
L 488.418905 182.456682 
L 489.250707 186.243375 
L 490.082508 189.041565 
L 490.914309 190.885746 
L 491.33021 191.462041 
L 491.74611 191.814377 
L 492.162011 191.947657 
L 492.577911 191.866682 
L 492.993812 191.576108 
L 493.409713 191.080411 
L 494.241514 189.490532 
L 495.073315 187.128732 
L 495.905116 184.023614 
L 496.736918 180.201452 
L 497.98462 173.178838 
L 499.232321 164.688 
L 500.480023 154.833121 
L 502.143626 139.810134 
L 504.223129 118.666063 
L 509.629837 62.051012 
L 510.877539 51.593314 
L 512.125241 43.280316 
L 512.957042 39.190633 
L 513.788843 36.420924 
L 514.204744 35.565746 
L 514.620644 35.078339 
L 515.036545 34.966941 
L 515.452446 35.237371 
L 515.868346 35.892881 
L 516.284247 36.934028 
L 517.116048 40.161457 
L 517.947849 44.867536 
L 518.779651 50.954816 
L 520.027352 62.358198 
L 521.275054 75.920215 
L 523.770458 106.447119 
L 526.265862 136.290359 
L 527.929464 153.252596 
L 529.177166 163.726911 
L 530.424868 172.033652 
L 531.256669 176.323499 
L 532.08847 179.612944 
L 532.920272 181.916404 
L 533.752073 183.258155 
L 534.167974 183.577791 
L 534.583874 183.668815 
L 534.999775 183.535584 
L 535.415675 183.182544 
L 535.831576 182.614182 
L 536.663377 180.849443 
L 537.495179 178.277027 
L 538.32698 174.932111 
L 539.158781 170.849677 
L 540.406483 163.421353 
L 541.654185 154.542514 
L 543.317787 140.708101 
L 545.39729 120.855903 
L 551.6358 58.320411 
L 552.883502 48.702148 
L 553.715303 43.469972 
L 554.547104 39.354653 
L 555.378905 36.486786 
L 555.794806 35.555395 
L 556.210707 34.974141 
L 556.626607 34.75188 
L 557.042508 34.895276 
L 557.458408 35.408646 
L 557.874309 36.293826 
L 558.29021 37.550068 
L 559.122011 41.159384 
L 559.953812 46.176822 
L 560.785613 52.499955 
L 562.033315 64.111796 
L 563.696918 82.564391 
L 568.687725 141.409996 
L 569.935427 153.417954 
L 571.183129 163.454325 
L 572.430831 171.325286 
L 573.262632 175.328591 
L 574.094433 178.335354 
L 574.926234 180.359949 
L 575.342135 181.011142 
L 575.758036 181.426338 
L 576.173936 181.609493 
L 576.589837 181.564787 
L 577.005738 181.296561 
L 577.421638 180.809263 
L 578.253439 179.19554 
L 579.085241 176.760019 
L 579.917042 173.539212 
L 580.748843 169.569813 
L 581.996545 162.294442 
L 583.244247 153.554265 
L 584.907849 139.891817 
L 586.987352 120.244958 
L 593.225862 58.208696 
L 594.473564 48.632245 
L 595.305365 43.409912 
L 596.137166 39.288671 
L 596.968967 36.398588 
L 597.384868 35.449995 
L 597.800769 34.84758 
L 598.216669 34.600336 
L 598.63257 34.715114 
L 599.04847 35.196467 
L 599.464371 36.046516 
L 599.880272 37.264843 
L 600.712073 40.791503 
L 601.543874 45.720067 
L 602.375675 51.951904 
L 603.623377 63.430923 
L 605.28698 81.733532 
L 610.693688 144.684303 
L 611.94139 156.119201 
L 613.189092 165.51794 
L 614.020893 170.56925 
L 614.852694 174.624168 
L 615.684495 177.681986 
L 616.516297 179.755748 
L 616.932197 180.430499 
L 617.348098 180.868449 
L 617.763998 181.073485 
L 618.179899 181.04974 
L 618.5958 180.801527 
L 619.0117 180.33328 
L 619.843502 178.754793 
L 620.675303 176.350835 
L 621.507104 173.158223 
L 622.338905 169.214054 
L 623.586607 161.971965 
L 624.834309 153.260976 
L 626.497911 139.633424 
L 628.161514 124.129509 
L 631.072818 94.384915 
L 633.568222 69.269356 
L 635.231825 54.688034 
L 636.479526 45.774976 
L 637.311328 41.085055 
L 638.143129 37.560387 
L 638.97493 35.320764 
L 639.390831 34.71356 
L 639.806731 34.460784 
L 640.222632 34.569332 
L 640.638533 35.043812 
L 641.054433 35.886412 
L 641.470334 37.096787 
L 642.302135 40.606383 
L 643.133936 45.516978 
L 643.965738 51.730778 
L 645.213439 63.184503 
L 646.877042 81.460802 
L 652.28375 144.417374 
L 653.531452 155.870154 
L 654.779154 165.289323 
L 655.610955 170.354714 
L 656.442756 174.423503 
L 657.274557 177.494576 
L 658.106359 179.580665 
L 658.522259 180.26116 
L 658.93816 180.704545 
L 659.354061 180.914694 
L 659.769961 180.895732 
L 660.185862 180.651964 
L 660.601762 180.187826 
L 661.433564 178.616556 
L 662.265365 176.218533 
L 663.097166 173.030666 
L 663.928967 169.090167 
L 665.176669 161.851855 
L 666.424371 153.142971 
L 668.087974 139.516353 
L 669.751576 124.011979 
L 672.66288 94.264788 
L 675.158284 69.145819 
L 676.821887 54.561529 
L 678.069589 45.645809 
L 678.90139 40.953909 
L 679.733191 37.427125 
L 680.564992 35.185293 
L 680.980893 34.576971 
L 681.396793 34.323081 
L 681.812694 34.430532 
L 682.228595 34.903946 
L 682.644495 35.745524 
L 683.060396 36.954938 
L 683.892197 40.462861 
L 684.723998 45.372229 
L 685.5558 51.585387 
L 686.803502 63.039512 
L 688.467104 81.319349 
L 693.873812 144.308958 
L 695.121514 155.771461 
L 696.369216 165.199881 
L 697.201017 170.270919 
L 698.032818 174.34479 
L 698.86462 177.420288 
L 699.696421 179.510079 
L 700.112321 180.19214 
L 700.528222 180.636897 
L 700.944123 180.848223 
L 701.360023 180.830242 
L 701.775924 180.587261 
L 702.191825 180.123717 
L 703.023626 178.553071 
L 703.855427 176.154947 
L 704.687228 172.966295 
L 705.51903 169.024375 
L 706.766731 161.782853 
L 708.014433 153.069626 
L 709.678036 139.435786 
L 711.341638 123.922973 
L 714.252943 94.15952 
L 716.748346 69.026902 
L 718.411949 54.434685 
L 719.659651 45.514073 
L 720.491452 40.819557 
L 721.323253 37.290759 
L 722.155054 35.047582 
L 722.570955 34.438856 
L 722.986856 34.18475 
L 723.402756 34.292178 
L 723.818657 34.765766 
L 724.234557 35.607719 
L 724.650458 36.817711 
L 725.482259 40.327403 
L 726.314061 45.239351 
L 727.145862 51.455873 
L 728.393564 62.916401 
L 730.057166 81.206886 
L 733.44375 122.163773 
L 733.44375 122.163773 
" style="fill:none;stroke:#008000;stroke-dasharray:7.4,3.2;stroke-dashoffset:0;stroke-width:2;"/>
   </g>
   <g id="patch_10">
    <path d="M 428.113315 230.64 
L 428.113315 13.2 
" style="fill:none;stroke:#000000;stroke-linecap:square;stroke-linejoin:miter;stroke-width:2;"/>
   </g>
   <g id="patch_11">
    <path d="M 719.24375 230.64 
L 719.24375 13.2 
" style="fill:none;"/>
   </g>
   <g id="patch_12">
    <path d="M 428.113315 230.64 
L 719.24375 230.64 
" style="fill:none;stroke:#000000;stroke-linecap:square;stroke-linejoin:miter;stroke-width:2;"/>
   </g>
   <g id="patch_13">
    <path d="M 428.113315 13.2 
L 719.24375 13.2 
" style="fill:none;"/>
   </g>
  </g>
 </g>
 <defs>
  <clipPath id="p9af150fd25">
   <rect height="217.44" width="291.130435" x="49.64375" y="13.2"/>
  </clipPath>
  <clipPath id="pc72b8ce012">
   <rect height="217.44" width="291.130435" x="428.113315" y="13.2"/>
  </clipPath>
 </defs>
</svg>
