<?xml version="1.0" encoding="utf-8" standalone="no"?>
<!DOCTYPE svg PUBLIC "-//W3C//DTD SVG 1.1//EN"
  "http://www.w3.org/Graphics/SVG/1.1/DTD/svg11.dtd">
<!-- Created with matplotlib (http://matplotlib.org/) -->
<svg height="285.213437pt" version="1.1" viewBox="0 0 746.754688 285.213437" width="746.754688pt" xmlns="http://www.w3.org/2000/svg" xmlns:xlink="http://www.w3.org/1999/xlink">
 <defs>
  <style type="text/css">
*{stroke-linecap:butt;stroke-linejoin:round;}
  </style>
 </defs>
 <g id="figure_1">
  <g id="patch_1">
   <path d="M 0 285.213437 
L 746.754688 285.213437 
L 746.754688 0 
L 0 0 
z
" style="fill:#ffffff;"/>
  </g>
  <g id="axes_1">
   <g id="patch_2">
    <path d="M 63.954687 230.64 
L 355.085122 230.64 
L 355.085122 13.2 
L 63.954687 13.2 
z
" style="fill:#ffffff;"/>
   </g>
   <g id="PolyCollection_1">
    <path clip-path="url(#pfc8a77044d)" d="M 72.2727 174.119374 
L 72.2727 174.119374 
L 72.2727 174.119374 
L 72.2727 174.119374 
z
" style="fill:#4db8ff;"/>
    <path clip-path="url(#pfc8a77044d)" d="M 84.749719 91.052627 
L 84.749719 91.65432 
L 88.908725 63.188962 
L 93.067731 39.021646 
L 97.226737 28.907605 
L 101.385743 41.139459 
L 105.54475 73.338314 
L 109.703756 115.775666 
L 113.862762 139.761536 
L 118.021768 138.203766 
L 122.180774 119.111786 
L 126.339781 92.045053 
L 130.498787 63.978791 
L 134.657793 41.815533 
L 138.816799 30.25583 
L 142.975806 40.073013 
L 147.134812 72.461466 
L 151.293818 109.746152 
L 155.452824 134.890145 
L 159.61183 135.908407 
L 163.770837 118.652995 
L 167.929843 91.458641 
L 172.088849 63.136021 
L 176.247855 40.742864 
L 180.406861 29.525669 
L 184.565868 37.227807 
L 188.724874 70.957202 
L 192.88388 110.342873 
L 197.042886 135.308299 
L 201.201892 136.52421 
L 205.360899 118.787465 
L 209.519905 91.85435 
L 213.678911 63.558497 
L 217.837917 40.205671 
L 221.996924 29.244758 
L 226.15593 40.784007 
L 230.314936 72.650495 
L 234.473942 108.154486 
L 238.632948 134.262712 
L 242.791955 135.516317 
L 246.950961 118.373417 
L 251.109967 91.615703 
L 255.268973 63.453096 
L 259.427979 38.806022 
L 263.586986 28.289319 
L 267.745992 38.176429 
L 271.904998 71.773085 
L 276.064004 112.728896 
L 280.22301 135.656679 
L 284.382017 136.164608 
L 288.541023 118.570778 
L 292.700029 92.092657 
L 296.859035 64.240499 
L 301.018042 39.990625 
L 305.177048 30.143517 
L 309.336054 37.820722 
L 313.49506 71.146306 
L 317.654066 110.806929 
L 321.813073 136.074633 
L 325.972079 136.667934 
L 330.131085 119.338437 
L 334.290091 92.120332 
L 338.449097 64.865921 
L 342.608104 42.083362 
L 346.76711 30.536582 
L 350.926116 38.947022 
L 355.085122 68.010252 
L 359.244128 108.154486 
L 363.403135 134.262712 
L 367.562141 134.031241 
L 371.721147 117.404596 
L 375.880153 91.54847 
L 380.03916 63.400342 
L 384.198166 41.01124 
L 388.357172 29.019996 
L 392.516178 41.198698 
L 396.675184 72.338106 
L 400.834191 107.22574 
L 404.993197 132.937358 
L 409.152203 136.667934 
L 413.311209 118.791706 
L 417.470215 92.056798 
L 421.629222 63.851643 
L 425.788228 38.698168 
L 429.947234 28.289319 
L 434.10624 40.428525 
L 438.265247 71.08426 
L 442.424253 111.536057 
L 446.583259 134.611315 
L 450.742265 135.476091 
L 454.901271 118.532978 
L 459.060278 92.043072 
L 463.219284 63.505814 
L 467.37829 39.775478 
L 471.537296 29.300944 
L 475.696302 40.60627 
L 479.855309 70.582704 
L 479.855309 61.888451 
L 479.855309 61.888451 
L 475.696302 33.170656 
L 471.537296 24.038319 
L 467.37829 36.627826 
L 463.219284 61.87257 
L 459.060278 91.107512 
L 454.901271 116.480988 
L 450.742265 131.361962 
L 446.583259 128.152609 
L 442.424253 103.259402 
L 438.265247 62.39046 
L 434.10624 32.997168 
L 429.947234 23.083636 
L 425.788228 35.666661 
L 421.629222 62.097331 
L 417.470215 90.827604 
L 413.311209 116.884543 
L 409.152203 132.719095 
L 404.993197 126.367214 
L 400.834191 98.828127 
L 396.675184 63.645835 
L 392.516178 33.749005 
L 388.357172 23.77307 
L 384.198166 37.736311 
L 380.03916 61.787846 
L 375.880153 90.448658 
L 371.721147 115.043002 
L 367.562141 129.717142 
L 363.403135 127.780515 
L 359.244128 99.782186 
L 355.085122 59.315061 
L 350.926116 31.55173 
L 346.76711 25.205946 
L 342.608104 38.702664 
L 338.449097 62.985001 
L 334.290091 90.941525 
L 330.131085 117.579607 
L 325.972079 132.719095 
L 321.813073 129.716224 
L 317.654066 102.509183 
L 313.49506 62.452568 
L 309.336054 30.453554 
L 305.177048 24.834336 
L 301.018042 36.820374 
L 296.859035 62.469252 
L 292.700029 90.791745 
L 288.541023 116.443197 
L 284.382017 132.141037 
L 280.22301 129.269341 
L 276.064004 104.487311 
L 271.904998 63.080057 
L 267.745992 30.800313 
L 263.586986 23.083636 
L 259.427979 35.762654 
L 255.268973 61.830191 
L 251.109967 90.647608 
L 246.950961 116.309402 
L 242.791955 131.398977 
L 238.632948 127.780515 
L 234.473942 99.782186 
L 230.314936 63.958691 
L 226.15593 33.344152 
L 221.996924 23.985266 
L 217.837917 37.013023 
L 213.678911 61.914984 
L 209.519905 90.675142 
L 205.360899 116.806004 
L 201.201892 132.553853 
L 197.042886 128.897022 
L 192.88388 102.031838 
L 188.724874 62.263282 
L 184.565868 29.875693 
L 180.406861 24.250551 
L 176.247855 37.495068 
L 172.088849 61.576679 
L 167.929843 90.538488 
L 163.770837 116.69211 
L 159.61183 131.856546 
L 155.452824 128.450339 
L 151.293818 101.418184 
L 147.134812 63.769383 
L 142.975806 32.650215 
L 138.816799 24.940501 
L 134.657793 38.460875 
L 130.498787 62.255472 
L 126.339781 91.194259 
L 122.180774 117.309538 
L 118.021768 134.504657 
L 113.862762 133.668724 
L 109.703756 107.626898 
L 105.54475 64.647679 
L 101.385743 33.691167 
L 97.226737 23.666983 
L 93.067731 35.954725 
L 88.908725 61.618836 
L 84.749719 91.052627 
z
" style="fill:#4db8ff;"/>
   </g>
   <g id="matplotlib.axis_1">
    <g id="xtick_1">
     <g id="line2d_1">
      <path clip-path="url(#pfc8a77044d)" d="M 63.954687 230.64 
L 63.954687 13.2 
" style="fill:none;stroke:#b0b0b0;stroke-linecap:square;stroke-width:0.8;"/>
     </g>
     <g id="line2d_2">
      <defs>
       <path d="M 0 0 
L 0 6 
" id="m0493e04441"/>
      </defs>
      <g>
       <use x="63.954687" xlink:href="#m0493e04441" y="230.64"/>
      </g>
     </g>
     <g id="text_1">
      <!-- 0 -->
      <defs>
       <path d="M 31.78125 66.40625 
Q 24.171875 66.40625 20.328125 58.90625 
Q 16.5 51.421875 16.5 36.375 
Q 16.5 21.390625 20.328125 13.890625 
Q 24.171875 6.390625 31.78125 6.390625 
Q 39.453125 6.390625 43.28125 13.890625 
Q 47.125 21.390625 47.125 36.375 
Q 47.125 51.421875 43.28125 58.90625 
Q 39.453125 66.40625 31.78125 66.40625 
z
M 31.78125 74.21875 
Q 44.046875 74.21875 50.515625 64.515625 
Q 56.984375 54.828125 56.984375 36.375 
Q 56.984375 17.96875 50.515625 8.265625 
Q 44.046875 -1.421875 31.78125 -1.421875 
Q 19.53125 -1.421875 13.0625 8.265625 
Q 6.59375 17.96875 6.59375 36.375 
Q 6.59375 54.828125 13.0625 64.515625 
Q 19.53125 74.21875 31.78125 74.21875 
z
" id="DejaVuSans-30"/>
      </defs>
      <g transform="translate(59.182812 251.537656)scale(0.15 -0.15)">
       <use xlink:href="#DejaVuSans-30"/>
      </g>
     </g>
    </g>
    <g id="xtick_2">
     <g id="line2d_3">
      <path clip-path="url(#pfc8a77044d)" d="M 105.54475 230.64 
L 105.54475 13.2 
" style="fill:none;stroke:#b0b0b0;stroke-linecap:square;stroke-width:0.8;"/>
     </g>
     <g id="line2d_4">
      <g>
       <use x="105.54475" xlink:href="#m0493e04441" y="230.64"/>
      </g>
     </g>
     <g id="text_2">
      <!-- 1 -->
      <defs>
       <path d="M 12.40625 8.296875 
L 28.515625 8.296875 
L 28.515625 63.921875 
L 10.984375 60.40625 
L 10.984375 69.390625 
L 28.421875 72.90625 
L 38.28125 72.90625 
L 38.28125 8.296875 
L 54.390625 8.296875 
L 54.390625 0 
L 12.40625 0 
z
" id="DejaVuSans-31"/>
      </defs>
      <g transform="translate(100.772875 251.537656)scale(0.15 -0.15)">
       <use xlink:href="#DejaVuSans-31"/>
      </g>
     </g>
    </g>
    <g id="xtick_3">
     <g id="line2d_5">
      <path clip-path="url(#pfc8a77044d)" d="M 147.134812 230.64 
L 147.134812 13.2 
" style="fill:none;stroke:#b0b0b0;stroke-linecap:square;stroke-width:0.8;"/>
     </g>
     <g id="line2d_6">
      <g>
       <use x="147.134812" xlink:href="#m0493e04441" y="230.64"/>
      </g>
     </g>
     <g id="text_3">
      <!-- 2 -->
      <defs>
       <path d="M 19.1875 8.296875 
L 53.609375 8.296875 
L 53.609375 0 
L 7.328125 0 
L 7.328125 8.296875 
Q 12.9375 14.109375 22.625 23.890625 
Q 32.328125 33.6875 34.8125 36.53125 
Q 39.546875 41.84375 41.421875 45.53125 
Q 43.3125 49.21875 43.3125 52.78125 
Q 43.3125 58.59375 39.234375 62.25 
Q 35.15625 65.921875 28.609375 65.921875 
Q 23.96875 65.921875 18.8125 64.3125 
Q 13.671875 62.703125 7.8125 59.421875 
L 7.8125 69.390625 
Q 13.765625 71.78125 18.9375 73 
Q 24.125 74.21875 28.421875 74.21875 
Q 39.75 74.21875 46.484375 68.546875 
Q 53.21875 62.890625 53.21875 53.421875 
Q 53.21875 48.921875 51.53125 44.890625 
Q 49.859375 40.875 45.40625 35.40625 
Q 44.1875 33.984375 37.640625 27.21875 
Q 31.109375 20.453125 19.1875 8.296875 
z
" id="DejaVuSans-32"/>
      </defs>
      <g transform="translate(142.362937 251.537656)scale(0.15 -0.15)">
       <use xlink:href="#DejaVuSans-32"/>
      </g>
     </g>
    </g>
    <g id="xtick_4">
     <g id="line2d_7">
      <path clip-path="url(#pfc8a77044d)" d="M 188.724874 230.64 
L 188.724874 13.2 
" style="fill:none;stroke:#b0b0b0;stroke-linecap:square;stroke-width:0.8;"/>
     </g>
     <g id="line2d_8">
      <g>
       <use x="188.724874" xlink:href="#m0493e04441" y="230.64"/>
      </g>
     </g>
     <g id="text_4">
      <!-- 3 -->
      <defs>
       <path d="M 40.578125 39.3125 
Q 47.65625 37.796875 51.625 33 
Q 55.609375 28.21875 55.609375 21.1875 
Q 55.609375 10.40625 48.1875 4.484375 
Q 40.765625 -1.421875 27.09375 -1.421875 
Q 22.515625 -1.421875 17.65625 -0.515625 
Q 12.796875 0.390625 7.625 2.203125 
L 7.625 11.71875 
Q 11.71875 9.328125 16.59375 8.109375 
Q 21.484375 6.890625 26.8125 6.890625 
Q 36.078125 6.890625 40.9375 10.546875 
Q 45.796875 14.203125 45.796875 21.1875 
Q 45.796875 27.640625 41.28125 31.265625 
Q 36.765625 34.90625 28.71875 34.90625 
L 20.21875 34.90625 
L 20.21875 43.015625 
L 29.109375 43.015625 
Q 36.375 43.015625 40.234375 45.921875 
Q 44.09375 48.828125 44.09375 54.296875 
Q 44.09375 59.90625 40.109375 62.90625 
Q 36.140625 65.921875 28.71875 65.921875 
Q 24.65625 65.921875 20.015625 65.03125 
Q 15.375 64.15625 9.8125 62.3125 
L 9.8125 71.09375 
Q 15.4375 72.65625 20.34375 73.4375 
Q 25.25 74.21875 29.59375 74.21875 
Q 40.828125 74.21875 47.359375 69.109375 
Q 53.90625 64.015625 53.90625 55.328125 
Q 53.90625 49.265625 50.4375 45.09375 
Q 46.96875 40.921875 40.578125 39.3125 
z
" id="DejaVuSans-33"/>
      </defs>
      <g transform="translate(183.952999 251.537656)scale(0.15 -0.15)">
       <use xlink:href="#DejaVuSans-33"/>
      </g>
     </g>
    </g>
    <g id="xtick_5">
     <g id="line2d_9">
      <path clip-path="url(#pfc8a77044d)" d="M 230.314936 230.64 
L 230.314936 13.2 
" style="fill:none;stroke:#b0b0b0;stroke-linecap:square;stroke-width:0.8;"/>
     </g>
     <g id="line2d_10">
      <g>
       <use x="230.314936" xlink:href="#m0493e04441" y="230.64"/>
      </g>
     </g>
     <g id="text_5">
      <!-- 4 -->
      <defs>
       <path d="M 37.796875 64.3125 
L 12.890625 25.390625 
L 37.796875 25.390625 
z
M 35.203125 72.90625 
L 47.609375 72.90625 
L 47.609375 25.390625 
L 58.015625 25.390625 
L 58.015625 17.1875 
L 47.609375 17.1875 
L 47.609375 0 
L 37.796875 0 
L 37.796875 17.1875 
L 4.890625 17.1875 
L 4.890625 26.703125 
z
" id="DejaVuSans-34"/>
      </defs>
      <g transform="translate(225.543061 251.537656)scale(0.15 -0.15)">
       <use xlink:href="#DejaVuSans-34"/>
      </g>
     </g>
    </g>
    <g id="xtick_6">
     <g id="line2d_11">
      <path clip-path="url(#pfc8a77044d)" d="M 271.904998 230.64 
L 271.904998 13.2 
" style="fill:none;stroke:#b0b0b0;stroke-linecap:square;stroke-width:0.8;"/>
     </g>
     <g id="line2d_12">
      <g>
       <use x="271.904998" xlink:href="#m0493e04441" y="230.64"/>
      </g>
     </g>
     <g id="text_6">
      <!-- 5 -->
      <defs>
       <path d="M 10.796875 72.90625 
L 49.515625 72.90625 
L 49.515625 64.59375 
L 19.828125 64.59375 
L 19.828125 46.734375 
Q 21.96875 47.46875 24.109375 47.828125 
Q 26.265625 48.1875 28.421875 48.1875 
Q 40.625 48.1875 47.75 41.5 
Q 54.890625 34.8125 54.890625 23.390625 
Q 54.890625 11.625 47.5625 5.09375 
Q 40.234375 -1.421875 26.90625 -1.421875 
Q 22.3125 -1.421875 17.546875 -0.640625 
Q 12.796875 0.140625 7.71875 1.703125 
L 7.71875 11.625 
Q 12.109375 9.234375 16.796875 8.0625 
Q 21.484375 6.890625 26.703125 6.890625 
Q 35.15625 6.890625 40.078125 11.328125 
Q 45.015625 15.765625 45.015625 23.390625 
Q 45.015625 31 40.078125 35.4375 
Q 35.15625 39.890625 26.703125 39.890625 
Q 22.75 39.890625 18.8125 39.015625 
Q 14.890625 38.140625 10.796875 36.28125 
z
" id="DejaVuSans-35"/>
      </defs>
      <g transform="translate(267.133123 251.537656)scale(0.15 -0.15)">
       <use xlink:href="#DejaVuSans-35"/>
      </g>
     </g>
    </g>
    <g id="xtick_7">
     <g id="line2d_13">
      <path clip-path="url(#pfc8a77044d)" d="M 313.49506 230.64 
L 313.49506 13.2 
" style="fill:none;stroke:#b0b0b0;stroke-linecap:square;stroke-width:0.8;"/>
     </g>
     <g id="line2d_14">
      <g>
       <use x="313.49506" xlink:href="#m0493e04441" y="230.64"/>
      </g>
     </g>
     <g id="text_7">
      <!-- 6 -->
      <defs>
       <path d="M 33.015625 40.375 
Q 26.375 40.375 22.484375 35.828125 
Q 18.609375 31.296875 18.609375 23.390625 
Q 18.609375 15.53125 22.484375 10.953125 
Q 26.375 6.390625 33.015625 6.390625 
Q 39.65625 6.390625 43.53125 10.953125 
Q 47.40625 15.53125 47.40625 23.390625 
Q 47.40625 31.296875 43.53125 35.828125 
Q 39.65625 40.375 33.015625 40.375 
z
M 52.59375 71.296875 
L 52.59375 62.3125 
Q 48.875 64.0625 45.09375 64.984375 
Q 41.3125 65.921875 37.59375 65.921875 
Q 27.828125 65.921875 22.671875 59.328125 
Q 17.53125 52.734375 16.796875 39.40625 
Q 19.671875 43.65625 24.015625 45.921875 
Q 28.375 48.1875 33.59375 48.1875 
Q 44.578125 48.1875 50.953125 41.515625 
Q 57.328125 34.859375 57.328125 23.390625 
Q 57.328125 12.15625 50.6875 5.359375 
Q 44.046875 -1.421875 33.015625 -1.421875 
Q 20.359375 -1.421875 13.671875 8.265625 
Q 6.984375 17.96875 6.984375 36.375 
Q 6.984375 53.65625 15.1875 63.9375 
Q 23.390625 74.21875 37.203125 74.21875 
Q 40.921875 74.21875 44.703125 73.484375 
Q 48.484375 72.75 52.59375 71.296875 
z
" id="DejaVuSans-36"/>
      </defs>
      <g transform="translate(308.723185 251.537656)scale(0.15 -0.15)">
       <use xlink:href="#DejaVuSans-36"/>
      </g>
     </g>
    </g>
    <g id="xtick_8">
     <g id="line2d_15">
      <path clip-path="url(#pfc8a77044d)" d="M 355.085122 230.64 
L 355.085122 13.2 
" style="fill:none;stroke:#b0b0b0;stroke-linecap:square;stroke-width:0.8;"/>
     </g>
     <g id="line2d_16">
      <g>
       <use x="355.085122" xlink:href="#m0493e04441" y="230.64"/>
      </g>
     </g>
     <g id="text_8">
      <!-- 7 -->
      <defs>
       <path d="M 8.203125 72.90625 
L 55.078125 72.90625 
L 55.078125 68.703125 
L 28.609375 0 
L 18.3125 0 
L 43.21875 64.59375 
L 8.203125 64.59375 
z
" id="DejaVuSans-37"/>
      </defs>
      <g transform="translate(350.313247 251.537656)scale(0.15 -0.15)">
       <use xlink:href="#DejaVuSans-37"/>
      </g>
     </g>
    </g>
    <g id="text_9">
     <!-- $t/\tau$ -->
     <defs>
      <path d="M 42.28125 54.6875 
L 40.921875 47.703125 
L 23 47.703125 
L 17.1875 18.015625 
Q 16.890625 16.359375 16.75 15.234375 
Q 16.609375 14.109375 16.609375 13.484375 
Q 16.609375 10.359375 18.484375 8.9375 
Q 20.359375 7.515625 24.515625 7.515625 
L 33.59375 7.515625 
L 32.078125 0 
L 23.484375 0 
Q 15.484375 0 11.546875 3.125 
Q 7.625 6.25 7.625 12.59375 
Q 7.625 13.71875 7.765625 15.0625 
Q 7.90625 16.40625 8.203125 18.015625 
L 14.015625 47.703125 
L 6.390625 47.703125 
L 7.8125 54.6875 
L 15.28125 54.6875 
L 18.3125 70.21875 
L 27.296875 70.21875 
L 24.3125 54.6875 
z
" id="DejaVuSans-Oblique-74"/>
      <path d="M 25.390625 72.90625 
L 33.6875 72.90625 
L 8.296875 -9.28125 
L 0 -9.28125 
z
" id="DejaVuSans-2f"/>
      <path d="M 32.859375 9.96875 
Q 34.1875 7.625 39.453125 7.625 
L 43.75 7.625 
L 42.28125 0 
L 36.921875 0 
Q 28.125 0 25 4.6875 
Q 21.921875 9.46875 23.96875 19.828125 
L 29 45.703125 
L 8.453125 45.703125 
L 10.203125 54.6875 
L 60.640625 54.6875 
L 58.890625 45.703125 
L 38.1875 45.703125 
L 33.015625 19.28125 
Q 31.640625 12.203125 32.859375 9.96875 
z
" id="DejaVuSans-Oblique-3c4"/>
     </defs>
     <g transform="translate(196.119905 273.854062)scale(0.2 -0.2)">
      <use transform="translate(0 0.09375)" xlink:href="#DejaVuSans-Oblique-74"/>
      <use transform="translate(39.208984 0.09375)" xlink:href="#DejaVuSans-2f"/>
      <use transform="translate(72.900391 0.09375)" xlink:href="#DejaVuSans-Oblique-3c4"/>
     </g>
    </g>
   </g>
   <g id="matplotlib.axis_2">
    <g id="ytick_1">
     <g id="line2d_17">
      <path clip-path="url(#pfc8a77044d)" d="M 63.954687 220.756364 
L 355.085122 220.756364 
" style="fill:none;stroke:#b0b0b0;stroke-linecap:square;stroke-width:0.8;"/>
     </g>
     <g id="line2d_18">
      <defs>
       <path d="M 0 0 
L -6 0 
" id="m1e4d7688de"/>
      </defs>
      <g>
       <use x="63.954687" xlink:href="#m1e4d7688de" y="220.756364"/>
      </g>
     </g>
     <g id="text_10">
      <!-- 3.0 -->
      <defs>
       <path d="M 10.6875 12.40625 
L 21 12.40625 
L 21 0 
L 10.6875 0 
z
" id="DejaVuSans-2e"/>
      </defs>
      <g transform="translate(30.6 226.455192)scale(0.15 -0.15)">
       <use xlink:href="#DejaVuSans-33"/>
       <use x="63.623047" xlink:href="#DejaVuSans-2e"/>
       <use x="95.410156" xlink:href="#DejaVuSans-30"/>
      </g>
     </g>
    </g>
    <g id="ytick_2">
     <g id="line2d_19">
      <path clip-path="url(#pfc8a77044d)" d="M 63.954687 168.472743 
L 355.085122 168.472743 
" style="fill:none;stroke:#b0b0b0;stroke-linecap:square;stroke-width:0.8;"/>
     </g>
     <g id="line2d_20">
      <g>
       <use x="63.954687" xlink:href="#m1e4d7688de" y="168.472743"/>
      </g>
     </g>
     <g id="text_11">
      <!-- 3.5 -->
      <g transform="translate(30.6 174.171571)scale(0.15 -0.15)">
       <use xlink:href="#DejaVuSans-33"/>
       <use x="63.623047" xlink:href="#DejaVuSans-2e"/>
       <use x="95.410156" xlink:href="#DejaVuSans-35"/>
      </g>
     </g>
    </g>
    <g id="ytick_3">
     <g id="line2d_21">
      <path clip-path="url(#pfc8a77044d)" d="M 63.954687 116.189122 
L 355.085122 116.189122 
" style="fill:none;stroke:#b0b0b0;stroke-linecap:square;stroke-width:0.8;"/>
     </g>
     <g id="line2d_22">
      <g>
       <use x="63.954687" xlink:href="#m1e4d7688de" y="116.189122"/>
      </g>
     </g>
     <g id="text_12">
      <!-- 4.0 -->
      <g transform="translate(30.6 121.88795)scale(0.15 -0.15)">
       <use xlink:href="#DejaVuSans-34"/>
       <use x="63.623047" xlink:href="#DejaVuSans-2e"/>
       <use x="95.410156" xlink:href="#DejaVuSans-30"/>
      </g>
     </g>
    </g>
    <g id="ytick_4">
     <g id="line2d_23">
      <path clip-path="url(#pfc8a77044d)" d="M 63.954687 63.905501 
L 355.085122 63.905501 
" style="fill:none;stroke:#b0b0b0;stroke-linecap:square;stroke-width:0.8;"/>
     </g>
     <g id="line2d_24">
      <g>
       <use x="63.954687" xlink:href="#m1e4d7688de" y="63.905501"/>
      </g>
     </g>
     <g id="text_13">
      <!-- 4.5 -->
      <g transform="translate(30.6 69.604329)scale(0.15 -0.15)">
       <use xlink:href="#DejaVuSans-34"/>
       <use x="63.623047" xlink:href="#DejaVuSans-2e"/>
       <use x="95.410156" xlink:href="#DejaVuSans-35"/>
      </g>
     </g>
    </g>
    <g id="text_14">
     <!-- $s$ $(\mu m)$ -->
     <defs>
      <path d="M 50 53.078125 
L 48.296875 44.578125 
Q 44.734375 46.53125 40.765625 47.5 
Q 36.8125 48.484375 32.625 48.484375 
Q 25.53125 48.484375 21.453125 46.0625 
Q 17.390625 43.65625 17.390625 39.5 
Q 17.390625 34.671875 26.859375 32.078125 
Q 27.59375 31.890625 27.9375 31.78125 
L 30.8125 30.90625 
Q 39.796875 28.421875 42.796875 25.6875 
Q 45.796875 22.953125 45.796875 18.21875 
Q 45.796875 9.515625 38.890625 4.046875 
Q 31.984375 -1.421875 20.796875 -1.421875 
Q 16.453125 -1.421875 11.671875 -0.578125 
Q 6.890625 0.25 1.125 2 
L 2.875 11.28125 
Q 7.8125 8.734375 12.59375 7.421875 
Q 17.390625 6.109375 21.78125 6.109375 
Q 28.375 6.109375 32.5 8.9375 
Q 36.625 11.765625 36.625 16.109375 
Q 36.625 20.796875 25.78125 23.6875 
L 24.859375 23.921875 
L 21.78125 24.703125 
Q 14.9375 26.515625 11.765625 29.46875 
Q 8.59375 32.421875 8.59375 37.015625 
Q 8.59375 45.75 15.15625 50.875 
Q 21.734375 56 33.015625 56 
Q 37.453125 56 41.671875 55.265625 
Q 45.90625 54.546875 50 53.078125 
z
" id="DejaVuSans-Oblique-73"/>
      <path id="DejaVuSans-20"/>
      <path d="M 31 75.875 
Q 24.46875 64.65625 21.28125 53.65625 
Q 18.109375 42.671875 18.109375 31.390625 
Q 18.109375 20.125 21.3125 9.0625 
Q 24.515625 -2 31 -13.1875 
L 23.1875 -13.1875 
Q 15.875 -1.703125 12.234375 9.375 
Q 8.59375 20.453125 8.59375 31.390625 
Q 8.59375 42.28125 12.203125 53.3125 
Q 15.828125 64.359375 23.1875 75.875 
z
" id="DejaVuSans-28"/>
      <path d="M -1.3125 -20.796875 
L 13.375 54.6875 
L 22.40625 54.6875 
L 15.765625 20.65625 
Q 15.578125 19.625 15.421875 18.359375 
Q 15.28125 17.09375 15.28125 15.828125 
Q 15.28125 11.28125 18.140625 8.828125 
Q 21 6.390625 26.3125 6.390625 
Q 33.546875 6.390625 37.984375 10.484375 
Q 42.4375 14.59375 44 22.796875 
L 50.203125 54.6875 
L 59.1875 54.6875 
L 51.03125 12.640625 
Q 50.828125 11.71875 50.75 11.03125 
Q 50.6875 10.359375 50.6875 9.8125 
Q 50.6875 8.296875 51.296875 7.59375 
Q 51.90625 6.890625 53.21875 6.890625 
Q 53.71875 6.890625 54.5625 7.125 
Q 55.421875 7.375 56.984375 8.015625 
L 55.609375 0.78125 
Q 53.46875 -0.296875 51.515625 -0.859375 
Q 49.5625 -1.421875 47.703125 -1.421875 
Q 44.484375 -1.421875 42.65625 0.625 
Q 40.828125 2.6875 40.828125 6.296875 
Q 38.09375 2.390625 34.296875 0.484375 
Q 30.515625 -1.421875 25.390625 -1.421875 
Q 20.84375 -1.421875 17.453125 0.671875 
Q 14.0625 2.78125 12.984375 6.203125 
L 7.71875 -20.796875 
z
" id="DejaVuSans-Oblique-3bc"/>
      <path d="M 89.796875 33.015625 
L 83.40625 0 
L 74.421875 0 
L 80.71875 32.71875 
Q 81.109375 34.8125 81.296875 36.328125 
Q 81.5 37.84375 81.5 38.921875 
Q 81.5 43.3125 79.046875 45.75 
Q 76.609375 48.1875 72.21875 48.1875 
Q 65.671875 48.1875 60.546875 43.28125 
Q 55.421875 38.375 53.90625 30.515625 
L 47.90625 0 
L 38.921875 0 
L 45.3125 32.71875 
Q 45.703125 34.515625 45.890625 36.046875 
Q 46.09375 37.59375 46.09375 38.8125 
Q 46.09375 43.265625 43.65625 45.71875 
Q 41.21875 48.1875 36.921875 48.1875 
Q 30.28125 48.1875 25.140625 43.28125 
Q 20.015625 38.375 18.5 30.515625 
L 12.5 0 
L 3.515625 0 
L 14.203125 54.6875 
L 23.1875 54.6875 
L 21.484375 46.1875 
Q 25.140625 50.984375 30.046875 53.484375 
Q 34.96875 56 40.578125 56 
Q 46.53125 56 50.359375 52.875 
Q 54.203125 49.75 54.984375 44.1875 
Q 59.078125 49.953125 64.46875 52.96875 
Q 69.875 56 75.875 56 
Q 82.90625 56 86.734375 51.953125 
Q 90.578125 47.90625 90.578125 40.484375 
Q 90.578125 38.875 90.375 36.9375 
Q 90.1875 35.015625 89.796875 33.015625 
z
" id="DejaVuSans-Oblique-6d"/>
      <path d="M 8.015625 75.875 
L 15.828125 75.875 
Q 23.140625 64.359375 26.78125 53.3125 
Q 30.421875 42.28125 30.421875 31.390625 
Q 30.421875 20.453125 26.78125 9.375 
Q 23.140625 -1.703125 15.828125 -13.1875 
L 8.015625 -13.1875 
Q 14.5 -2 17.703125 9.0625 
Q 20.90625 20.125 20.90625 31.390625 
Q 20.90625 42.671875 17.703125 53.65625 
Q 14.5 64.65625 8.015625 75.875 
z
" id="DejaVuSans-29"/>
     </defs>
     <g transform="translate(22.4 154.22)rotate(-90)scale(0.2 -0.2)">
      <use transform="translate(0 0.125)" xlink:href="#DejaVuSans-Oblique-73"/>
      <use transform="translate(52.099609 0.125)" xlink:href="#DejaVuSans-20"/>
      <use transform="translate(83.886719 0.125)" xlink:href="#DejaVuSans-28"/>
      <use transform="translate(122.900391 0.125)" xlink:href="#DejaVuSans-Oblique-3bc"/>
      <use transform="translate(186.523438 0.125)" xlink:href="#DejaVuSans-Oblique-6d"/>
      <use transform="translate(283.935547 0.125)" xlink:href="#DejaVuSans-29"/>
     </g>
    </g>
   </g>
   <g id="line2d_25">
    <path clip-path="url(#pfc8a77044d)" d="M 63.954687 220.756364 
L 68.113694 198.243037 
L 72.2727 174.119374 
L 76.431706 148.249438 
L 80.590712 120.528663 
L 84.749719 91.353474 
L 88.908725 62.403899 
L 93.067731 37.488186 
L 97.226737 26.287294 
L 101.385743 37.415313 
L 105.54475 68.992997 
L 109.703756 111.701282 
L 113.862762 136.71513 
L 118.021768 136.354212 
L 122.180774 118.210662 
L 126.339781 91.619656 
L 130.498787 63.117131 
L 134.657793 40.138204 
L 138.816799 27.598166 
L 142.975806 36.361614 
L 147.134812 68.115424 
L 151.293818 105.582168 
L 155.452824 131.670242 
L 159.61183 133.882477 
L 163.770837 117.672553 
L 167.929843 90.998564 
L 172.088849 62.35635 
L 176.247855 39.118966 
L 180.406861 26.88811 
L 184.565868 33.55175 
L 188.724874 66.610242 
L 192.88388 106.187355 
L 197.042886 132.102661 
L 201.201892 134.539031 
L 205.360899 117.796735 
L 209.519905 91.264746 
L 213.678911 62.736741 
L 217.837917 38.609347 
L 221.996924 26.615012 
L 226.15593 37.06408 
L 230.314936 68.304593 
L 234.473942 103.968336 
L 238.632948 131.021613 
L 242.791955 133.457647 
L 246.950961 117.341409 
L 251.109967 91.131655 
L 255.268973 62.641643 
L 259.427979 37.284338 
L 263.586986 25.686478 
L 267.745992 34.488371 
L 271.904998 67.426571 
L 276.064004 108.608104 
L 280.22301 132.46301 
L 284.382017 134.152823 
L 288.541023 117.506987 
L 292.700029 91.442201 
L 296.859035 63.354875 
L 301.018042 38.4055 
L 305.177048 27.488926 
L 309.336054 34.137138 
L 313.49506 66.799437 
L 317.654066 106.658056 
L 321.813073 132.895429 
L 325.972079 134.693515 
L 330.131085 118.459022 
L 334.290091 91.530928 
L 338.449097 63.925461 
L 342.608104 40.393013 
L 346.76711 27.871264 
L 350.926116 35.249376 
L 355.085122 63.662656 
L 359.244128 103.968336 
L 363.403135 131.021613 
L 367.562141 131.874192 
L 371.721147 116.223799 
L 375.880153 90.998564 
L 380.03916 62.594094 
L 384.198166 39.373776 
L 388.357172 26.396533 
L 392.516178 37.473851 
L 396.675184 67.99197 
L 400.834191 103.026934 
L 404.993197 129.652286 
L 409.152203 134.693515 
L 413.311209 117.838124 
L 417.470215 91.442201 
L 421.629222 62.974487 
L 425.788228 37.182414 
L 429.947234 25.686478 
L 434.10624 36.712847 
L 438.265247 66.73736 
L 442.424253 107.39773 
L 446.583259 131.381962 
L 450.742265 133.419026 
L 454.901271 117.506983 
L 459.060278 91.575292 
L 463.219284 62.689192 
L 467.37829 38.201652 
L 471.537296 26.669632 
L 475.696302 36.888463 
L 479.855309 66.235577 
" style="fill:none;stroke:#1f77b4;stroke-linecap:square;stroke-width:1.5;"/>
   </g>
   <g id="line2d_26">
    <path clip-path="url(#pfc8a77044d)" d="M 63.954687 220.756364 
L 68.113694 198.240905 
L 72.2727 174.109464 
L 76.431706 148.248175 
L 80.590712 120.571953 
L 84.749719 91.280362 
L 88.908725 61.832294 
L 93.067731 36.911584 
L 97.226737 25.536734 
L 101.385743 36.929017 
L 105.54475 70.492321 
L 109.703756 110.321252 
L 113.862762 135.383976 
L 118.021768 136.315333 
L 122.180774 118.565309 
L 126.339781 91.9647 
L 130.498787 63.567705 
L 134.657793 39.412364 
L 138.816799 27.864267 
L 142.975806 37.509239 
L 147.134812 68.683358 
L 151.293818 107.340408 
L 155.452824 133.199513 
L 159.61183 135.584762 
L 163.770837 118.777982 
L 167.929843 92.533377 
L 172.088849 64.242863 
L 176.247855 40.094463 
L 180.406861 28.43322 
L 184.565868 37.844463 
L 188.724874 68.793481 
L 192.88388 107.467896 
L 197.042886 133.448596 
L 201.201892 136.004362 
L 205.360899 119.316866 
L 209.519905 93.137653 
L 213.678911 64.885981 
L 217.837917 40.755395 
L 221.996924 29.080317 
L 226.15593 38.443569 
L 230.314936 69.332191 
L 234.473942 107.968342 
L 238.632948 133.949692 
L 242.791955 136.534317 
L 246.950961 119.885984 
L 251.109967 93.7472 
L 255.268973 65.533466 
L 259.427979 41.431708 
L 263.586986 29.7652 
L 267.745992 39.107666 
L 271.904998 69.950624 
L 276.064004 108.538 
L 280.22301 134.492323 
L 284.382017 137.080766 
L 288.541023 120.45901 
L 292.700029 94.357285 
L 296.859035 66.182267 
L 301.018042 42.112709 
L 305.177048 30.460459 
L 309.336054 39.78809 
L 313.49506 70.587697 
L 317.654066 109.122859 
L 321.813073 135.04345 
L 325.972079 137.630111 
L 330.131085 121.032226 
L 334.290091 94.96686 
L 338.449097 66.830779 
L 342.608104 42.794265 
L 346.76711 31.157683 
L 350.926116 40.471923 
L 355.085122 71.228713 
L 359.244128 109.710804 
L 363.403135 135.596041 
L 367.562141 138.179564 
L 371.721147 121.604883 
L 375.880153 95.575675 
L 380.03916 67.478547 
L 384.198166 43.475257 
L 388.357172 31.854677 
L 392.516178 41.155897 
L 396.675184 71.870042 
L 400.834191 110.298901 
L 404.993197 136.148416 
L 409.152203 138.728471 
L 413.311209 122.176803 
L 417.470215 96.183666 
L 421.629222 68.125456 
L 425.788228 44.1554 
L 429.947234 32.550889 
L 434.10624 41.839196 
L 438.265247 72.510781 
L 442.424253 110.886423 
L 446.583259 136.700162 
L 450.742265 139.276671 
L 454.901271 122.747946 
L 459.060278 96.790821 
L 463.219284 68.77148 
L 467.37829 44.834625 
L 471.537296 33.246183 
L 475.696302 42.521615 
L 479.855309 73.150708 
" style="fill:none;stroke:#008000;stroke-dasharray:5.55,2.4;stroke-dashoffset:0;stroke-width:1.5;"/>
   </g>
   <g id="patch_3">
    <path d="M 63.954687 230.64 
L 63.954687 13.2 
" style="fill:none;stroke:#000000;stroke-linecap:square;stroke-linejoin:miter;stroke-width:2;"/>
   </g>
   <g id="patch_4">
    <path d="M 355.085122 230.64 
L 355.085122 13.2 
" style="fill:none;"/>
   </g>
   <g id="patch_5">
    <path d="M 63.954687 230.64 
L 355.085122 230.64 
" style="fill:none;stroke:#000000;stroke-linecap:square;stroke-linejoin:miter;stroke-width:2;"/>
   </g>
   <g id="patch_6">
    <path d="M 63.954687 13.2 
L 355.085122 13.2 
" style="fill:none;"/>
   </g>
  </g>
  <g id="axes_2">
   <g id="patch_7">
    <path d="M 442.424253 230.64 
L 733.554688 230.64 
L 733.554688 13.2 
L 442.424253 13.2 
z
" style="fill:#ffffff;"/>
   </g>
   <g id="PolyCollection_2">
    <path clip-path="url(#pb262e70e9e)" d="M 450.742265 220.756364 
L 450.742265 220.756364 
L 450.742265 220.756364 
L 450.742265 220.756364 
z
" style="fill:#4db8ff;"/>
    <path clip-path="url(#pb262e70e9e)" d="M 463.219284 219.810774 
L 463.219284 219.884485 
L 467.37829 215.535861 
L 471.537296 202.838758 
L 475.696302 170.937623 
L 479.855309 116.083948 
L 484.014315 58.896383 
L 488.173321 48.357358 
L 492.332327 111.415156 
L 496.491333 180.269485 
L 500.65034 211.919512 
L 504.809346 219.01206 
L 508.968352 214.450585 
L 513.127358 199.102518 
L 517.286365 169.251117 
L 521.445371 117.229556 
L 525.604377 59.445772 
L 529.763383 45.819663 
L 533.922389 101.731276 
L 538.081396 172.818678 
L 542.240402 210.326457 
L 546.399408 218.722104 
L 550.558414 215.608236 
L 554.71742 200.538679 
L 558.876427 170.164292 
L 563.035433 120.304258 
L 567.194439 60.404768 
L 571.353445 46.035375 
L 575.512451 102.523069 
L 579.671458 174.567489 
L 583.830464 210.100636 
L 587.98947 217.413466 
L 592.148476 215.029319 
L 596.307483 201.257163 
L 600.466489 170.515733 
L 604.625495 116.465359 
L 608.784501 59.326379 
L 612.943507 45.280978 
L 617.102514 100.556689 
L 621.26152 171.369542 
L 625.420526 209.221791 
L 629.579532 218.503505 
L 633.738538 215.174031 
L 637.897545 203.126456 
L 642.056551 171.711535 
L 646.215557 119.276223 
L 650.374563 59.881944 
L 654.533569 46.974557 
L 658.692576 103.18827 
L 662.851582 173.41872 
L 667.010588 208.492633 
L 671.169594 216.685741 
L 675.328601 214.088967 
L 679.487607 201.544631 
L 683.646613 169.391552 
L 687.805619 119.661373 
L 691.964625 60.28291 
L 696.123632 46.208381 
L 700.282638 103.992995 
L 704.441644 175.029077 
L 708.60065 212.329208 
L 712.759656 217.41172 
L 716.918663 213.22136 
L 721.077669 198.743648 
L 725.236675 168.900119 
L 729.395681 118.443236 
L 733.554687 62.340945 
L 737.713694 45.280978 
L 741.8727 100.556689 
L 746.031706 166.98765 
L 750.190712 205.747613 
L 754.349719 217.851406 
L 758.508725 215.246391 
L 762.667731 200.179537 
L 766.826737 170.796974 
L 770.985743 116.020425 
L 775.14475 59.523382 
L 779.303756 44.990948 
L 783.462762 98.128074 
L 787.621768 175.029077 
L 791.780774 210.88096 
L 795.939781 217.12157 
L 800.098787 214.226133 
L 804.257793 203.270321 
L 808.416799 171.711535 
L 812.575806 116.84723 
L 816.734812 60.322793 
L 820.893818 46.489573 
L 825.052824 101.207303 
L 829.21183 171.455584 
L 833.370837 209.346418 
L 837.529843 218.648012 
L 841.688849 215.101674 
L 845.847855 201.832142 
L 850.006861 170.445435 
L 854.165868 116.656237 
L 858.324874 60.646577 
L 858.324874 41.014028 
L 858.324874 41.014028 
L 854.165868 104.738349 
L 850.006861 165.198238 
L 845.847855 200.026199 
L 841.688849 214.597701 
L 837.529843 218.466307 
L 833.370837 208.293116 
L 829.21183 166.325215 
L 825.052824 87.231868 
L 820.893818 24.802095 
L 816.734812 40.643691 
L 812.575806 104.954418 
L 808.416799 166.610711 
L 804.257793 201.611086 
L 800.098787 213.640439 
L 795.939781 216.803069 
L 791.780774 209.976745 
L 787.621768 170.3091 
L 783.462762 83.735833 
L 779.303756 23.083636 
L 775.14475 39.729254 
L 770.985743 104.018991 
L 766.826737 165.590474 
L 762.667731 198.203591 
L 758.508725 214.755854 
L 754.349719 217.598721 
L 750.190712 204.338248 
L 746.031706 161.337876 
L 741.8727 86.493369 
L 737.713694 23.416245 
L 733.554687 42.951659 
L 729.395681 106.759625 
L 725.236675 163.473513 
L 721.077669 196.618801 
L 716.918663 212.540996 
L 712.759656 217.119468 
L 708.60065 211.564042 
L 704.441644 170.3091 
L 700.282638 90.392746 
L 696.123632 24.479689 
L 691.964625 40.598073 
L 687.805619 108.137006 
L 683.646613 164.022089 
L 679.487607 199.70922 
L 675.328601 213.490403 
L 671.169594 216.327613 
L 667.010588 207.355647 
L 662.851582 168.514369 
L 658.692576 89.479823 
L 654.533569 25.358128 
L 650.374563 40.139426 
L 646.215557 107.701545 
L 642.056551 166.610711 
L 637.897545 201.452599 
L 633.738538 214.676779 
L 629.579532 218.308996 
L 625.420526 208.156305 
L 621.26152 166.229236 
L 617.102514 86.493369 
L 612.943507 23.416245 
L 608.784501 39.503886 
L 604.625495 104.5224 
L 600.466489 165.276677 
L 596.307483 199.392242 
L 592.148476 214.518622 
L 587.98947 217.121371 
L 583.830464 209.120827 
L 579.671458 169.79476 
L 575.512451 88.72507 
L 571.353445 24.281316 
L 567.194439 40.737455 
L 563.035433 108.863784 
L 558.876427 164.884515 
L 554.71742 198.599804 
L 550.558414 215.151197 
L 546.399408 218.546949 
L 542.240402 209.368572 
L 538.081396 167.845389 
L 533.922389 87.826549 
L 529.763383 24.03397 
L 525.604377 39.64047 
L 521.445371 105.386917 
L 517.286365 163.865334 
L 513.127358 197.014987 
L 508.968352 213.885911 
L 504.809346 218.862455 
L 500.65034 211.115181 
L 496.491333 176.142875 
L 492.332327 98.805641 
L 488.173321 26.943255 
L 484.014315 39.011948 
L 479.855309 104.090866 
L 475.696302 165.747394 
L 471.537296 201.135623 
L 467.37829 215.072133 
L 463.219284 219.810774 
z
" style="fill:#4db8ff;"/>
   </g>
   <g id="matplotlib.axis_3">
    <g id="xtick_9">
     <g id="line2d_27">
      <path clip-path="url(#pb262e70e9e)" d="M 442.424253 230.64 
L 442.424253 13.2 
" style="fill:none;stroke:#b0b0b0;stroke-linecap:square;stroke-width:0.8;"/>
     </g>
     <g id="line2d_28">
      <g>
       <use x="442.424253" xlink:href="#m0493e04441" y="230.64"/>
      </g>
     </g>
     <g id="text_15">
      <!-- 0 -->
      <g transform="translate(437.652378 251.537656)scale(0.15 -0.15)">
       <use xlink:href="#DejaVuSans-30"/>
      </g>
     </g>
    </g>
    <g id="xtick_10">
     <g id="line2d_29">
      <path clip-path="url(#pb262e70e9e)" d="M 484.014315 230.64 
L 484.014315 13.2 
" style="fill:none;stroke:#b0b0b0;stroke-linecap:square;stroke-width:0.8;"/>
     </g>
     <g id="line2d_30">
      <g>
       <use x="484.014315" xlink:href="#m0493e04441" y="230.64"/>
      </g>
     </g>
     <g id="text_16">
      <!-- 1 -->
      <g transform="translate(479.24244 251.537656)scale(0.15 -0.15)">
       <use xlink:href="#DejaVuSans-31"/>
      </g>
     </g>
    </g>
    <g id="xtick_11">
     <g id="line2d_31">
      <path clip-path="url(#pb262e70e9e)" d="M 525.604377 230.64 
L 525.604377 13.2 
" style="fill:none;stroke:#b0b0b0;stroke-linecap:square;stroke-width:0.8;"/>
     </g>
     <g id="line2d_32">
      <g>
       <use x="525.604377" xlink:href="#m0493e04441" y="230.64"/>
      </g>
     </g>
     <g id="text_17">
      <!-- 2 -->
      <g transform="translate(520.832502 251.537656)scale(0.15 -0.15)">
       <use xlink:href="#DejaVuSans-32"/>
      </g>
     </g>
    </g>
    <g id="xtick_12">
     <g id="line2d_33">
      <path clip-path="url(#pb262e70e9e)" d="M 567.194439 230.64 
L 567.194439 13.2 
" style="fill:none;stroke:#b0b0b0;stroke-linecap:square;stroke-width:0.8;"/>
     </g>
     <g id="line2d_34">
      <g>
       <use x="567.194439" xlink:href="#m0493e04441" y="230.64"/>
      </g>
     </g>
     <g id="text_18">
      <!-- 3 -->
      <g transform="translate(562.422564 251.537656)scale(0.15 -0.15)">
       <use xlink:href="#DejaVuSans-33"/>
      </g>
     </g>
    </g>
    <g id="xtick_13">
     <g id="line2d_35">
      <path clip-path="url(#pb262e70e9e)" d="M 608.784501 230.64 
L 608.784501 13.2 
" style="fill:none;stroke:#b0b0b0;stroke-linecap:square;stroke-width:0.8;"/>
     </g>
     <g id="line2d_36">
      <g>
       <use x="608.784501" xlink:href="#m0493e04441" y="230.64"/>
      </g>
     </g>
     <g id="text_19">
      <!-- 4 -->
      <g transform="translate(604.012626 251.537656)scale(0.15 -0.15)">
       <use xlink:href="#DejaVuSans-34"/>
      </g>
     </g>
    </g>
    <g id="xtick_14">
     <g id="line2d_37">
      <path clip-path="url(#pb262e70e9e)" d="M 650.374563 230.64 
L 650.374563 13.2 
" style="fill:none;stroke:#b0b0b0;stroke-linecap:square;stroke-width:0.8;"/>
     </g>
     <g id="line2d_38">
      <g>
       <use x="650.374563" xlink:href="#m0493e04441" y="230.64"/>
      </g>
     </g>
     <g id="text_20">
      <!-- 5 -->
      <g transform="translate(645.602688 251.537656)scale(0.15 -0.15)">
       <use xlink:href="#DejaVuSans-35"/>
      </g>
     </g>
    </g>
    <g id="xtick_15">
     <g id="line2d_39">
      <path clip-path="url(#pb262e70e9e)" d="M 691.964625 230.64 
L 691.964625 13.2 
" style="fill:none;stroke:#b0b0b0;stroke-linecap:square;stroke-width:0.8;"/>
     </g>
     <g id="line2d_40">
      <g>
       <use x="691.964625" xlink:href="#m0493e04441" y="230.64"/>
      </g>
     </g>
     <g id="text_21">
      <!-- 6 -->
      <g transform="translate(687.19275 251.537656)scale(0.15 -0.15)">
       <use xlink:href="#DejaVuSans-36"/>
      </g>
     </g>
    </g>
    <g id="xtick_16">
     <g id="line2d_41">
      <path clip-path="url(#pb262e70e9e)" d="M 733.554688 230.64 
L 733.554688 13.2 
" style="fill:none;stroke:#b0b0b0;stroke-linecap:square;stroke-width:0.8;"/>
     </g>
     <g id="line2d_42">
      <g>
       <use x="733.554688" xlink:href="#m0493e04441" y="230.64"/>
      </g>
     </g>
     <g id="text_22">
      <!-- 7 -->
      <g transform="translate(728.782813 251.537656)scale(0.15 -0.15)">
       <use xlink:href="#DejaVuSans-37"/>
      </g>
     </g>
    </g>
    <g id="text_23">
     <!-- $t/\tau$ -->
     <g transform="translate(574.58947 273.854062)scale(0.2 -0.2)">
      <use transform="translate(0 0.09375)" xlink:href="#DejaVuSans-Oblique-74"/>
      <use transform="translate(39.208984 0.09375)" xlink:href="#DejaVuSans-2f"/>
      <use transform="translate(72.900391 0.09375)" xlink:href="#DejaVuSans-Oblique-3c4"/>
     </g>
    </g>
   </g>
   <g id="matplotlib.axis_4">
    <g id="ytick_5">
     <g id="line2d_43">
      <path clip-path="url(#pb262e70e9e)" d="M 442.424253 220.756364 
L 733.554688 220.756364 
" style="fill:none;stroke:#b0b0b0;stroke-linecap:square;stroke-width:0.8;"/>
     </g>
     <g id="line2d_44">
      <g>
       <use x="442.424253" xlink:href="#m1e4d7688de" y="220.756364"/>
      </g>
     </g>
     <g id="text_24">
      <!-- 0.000 -->
      <g transform="translate(389.982065 226.455192)scale(0.15 -0.15)">
       <use xlink:href="#DejaVuSans-30"/>
       <use x="63.623047" xlink:href="#DejaVuSans-2e"/>
       <use x="95.410156" xlink:href="#DejaVuSans-30"/>
       <use x="159.033203" xlink:href="#DejaVuSans-30"/>
       <use x="222.65625" xlink:href="#DejaVuSans-30"/>
      </g>
     </g>
    </g>
    <g id="ytick_6">
     <g id="line2d_45">
      <path clip-path="url(#pb262e70e9e)" d="M 442.424253 182.892394 
L 733.554688 182.892394 
" style="fill:none;stroke:#b0b0b0;stroke-linecap:square;stroke-width:0.8;"/>
     </g>
     <g id="line2d_46">
      <g>
       <use x="442.424253" xlink:href="#m1e4d7688de" y="182.892394"/>
      </g>
     </g>
     <g id="text_25">
      <!-- 0.025 -->
      <g transform="translate(389.982065 188.591222)scale(0.15 -0.15)">
       <use xlink:href="#DejaVuSans-30"/>
       <use x="63.623047" xlink:href="#DejaVuSans-2e"/>
       <use x="95.410156" xlink:href="#DejaVuSans-30"/>
       <use x="159.033203" xlink:href="#DejaVuSans-32"/>
       <use x="222.65625" xlink:href="#DejaVuSans-35"/>
      </g>
     </g>
    </g>
    <g id="ytick_7">
     <g id="line2d_47">
      <path clip-path="url(#pb262e70e9e)" d="M 442.424253 145.028424 
L 733.554688 145.028424 
" style="fill:none;stroke:#b0b0b0;stroke-linecap:square;stroke-width:0.8;"/>
     </g>
     <g id="line2d_48">
      <g>
       <use x="442.424253" xlink:href="#m1e4d7688de" y="145.028424"/>
      </g>
     </g>
     <g id="text_26">
      <!-- 0.050 -->
      <g transform="translate(389.982065 150.727252)scale(0.15 -0.15)">
       <use xlink:href="#DejaVuSans-30"/>
       <use x="63.623047" xlink:href="#DejaVuSans-2e"/>
       <use x="95.410156" xlink:href="#DejaVuSans-30"/>
       <use x="159.033203" xlink:href="#DejaVuSans-35"/>
       <use x="222.65625" xlink:href="#DejaVuSans-30"/>
      </g>
     </g>
    </g>
    <g id="ytick_8">
     <g id="line2d_49">
      <path clip-path="url(#pb262e70e9e)" d="M 442.424253 107.164454 
L 733.554688 107.164454 
" style="fill:none;stroke:#b0b0b0;stroke-linecap:square;stroke-width:0.8;"/>
     </g>
     <g id="line2d_50">
      <g>
       <use x="442.424253" xlink:href="#m1e4d7688de" y="107.164454"/>
      </g>
     </g>
     <g id="text_27">
      <!-- 0.075 -->
      <g transform="translate(389.982065 112.863283)scale(0.15 -0.15)">
       <use xlink:href="#DejaVuSans-30"/>
       <use x="63.623047" xlink:href="#DejaVuSans-2e"/>
       <use x="95.410156" xlink:href="#DejaVuSans-30"/>
       <use x="159.033203" xlink:href="#DejaVuSans-37"/>
       <use x="222.65625" xlink:href="#DejaVuSans-35"/>
      </g>
     </g>
    </g>
    <g id="ytick_9">
     <g id="line2d_51">
      <path clip-path="url(#pb262e70e9e)" d="M 442.424253 69.300485 
L 733.554688 69.300485 
" style="fill:none;stroke:#b0b0b0;stroke-linecap:square;stroke-width:0.8;"/>
     </g>
     <g id="line2d_52">
      <g>
       <use x="442.424253" xlink:href="#m1e4d7688de" y="69.300485"/>
      </g>
     </g>
     <g id="text_28">
      <!-- 0.100 -->
      <g transform="translate(389.982065 74.999313)scale(0.15 -0.15)">
       <use xlink:href="#DejaVuSans-30"/>
       <use x="63.623047" xlink:href="#DejaVuSans-2e"/>
       <use x="95.410156" xlink:href="#DejaVuSans-31"/>
       <use x="159.033203" xlink:href="#DejaVuSans-30"/>
       <use x="222.65625" xlink:href="#DejaVuSans-30"/>
      </g>
     </g>
    </g>
    <g id="ytick_10">
     <g id="line2d_53">
      <path clip-path="url(#pb262e70e9e)" d="M 442.424253 31.436515 
L 733.554688 31.436515 
" style="fill:none;stroke:#b0b0b0;stroke-linecap:square;stroke-width:0.8;"/>
     </g>
     <g id="line2d_54">
      <g>
       <use x="442.424253" xlink:href="#m1e4d7688de" y="31.436515"/>
      </g>
     </g>
     <g id="text_29">
      <!-- 0.125 -->
      <g transform="translate(389.982065 37.135343)scale(0.15 -0.15)">
       <use xlink:href="#DejaVuSans-30"/>
       <use x="63.623047" xlink:href="#DejaVuSans-2e"/>
       <use x="95.410156" xlink:href="#DejaVuSans-31"/>
       <use x="159.033203" xlink:href="#DejaVuSans-32"/>
       <use x="222.65625" xlink:href="#DejaVuSans-35"/>
      </g>
     </g>
    </g>
    <g id="text_30">
     <!-- $C_V^2(s)$ -->
     <defs>
      <path d="M 69.484375 67.28125 
L 67.484375 56.890625 
Q 62.796875 61.625 57.546875 63.921875 
Q 52.296875 66.21875 46.1875 66.21875 
Q 37.84375 66.21875 31.515625 62.203125 
Q 25.203125 58.203125 20.609375 50 
Q 17.671875 44.734375 16.125 38.84375 
Q 14.59375 32.953125 14.59375 27 
Q 14.59375 17.046875 19.75 11.8125 
Q 24.90625 6.59375 34.71875 6.59375 
Q 41.5 6.59375 47.75 8.765625 
Q 54 10.9375 59.90625 15.28125 
L 57.625 3.609375 
Q 51.8125 1.125 45.875 -0.140625 
Q 39.9375 -1.421875 33.984375 -1.421875 
Q 19.96875 -1.421875 12.078125 6.1875 
Q 4.203125 13.8125 4.203125 27.390625 
Q 4.203125 36.078125 7.203125 44.46875 
Q 10.203125 52.875 15.828125 59.8125 
Q 21.78125 67.1875 29.421875 70.703125 
Q 37.0625 74.21875 47.21875 74.21875 
Q 53.46875 74.21875 59.0625 72.484375 
Q 64.65625 70.75 69.484375 67.28125 
z
" id="DejaVuSans-Oblique-43"/>
      <path d="M 20.609375 0 
L 7.8125 72.90625 
L 17.484375 72.90625 
L 28.078125 10.203125 
L 63.484375 72.90625 
L 74.21875 72.90625 
L 32.078125 0 
z
" id="DejaVuSans-Oblique-56"/>
     </defs>
     <g transform="translate(380.382065 147.42)rotate(-90)scale(0.2 -0.2)">
      <use transform="translate(0 0.765625)" xlink:href="#DejaVuSans-Oblique-43"/>
      <use transform="translate(77.02474 39.046875)scale(0.7)" xlink:href="#DejaVuSans-32"/>
      <use transform="translate(69.824219 -26.578125)scale(0.7)" xlink:href="#DejaVuSans-Oblique-56"/>
      <use transform="translate(124.295247 0.765625)" xlink:href="#DejaVuSans-28"/>
      <use transform="translate(163.308919 0.765625)" xlink:href="#DejaVuSans-Oblique-73"/>
      <use transform="translate(215.408529 0.765625)" xlink:href="#DejaVuSans-29"/>
     </g>
    </g>
   </g>
   <g id="line2d_55">
    <path clip-path="url(#pb262e70e9e)" d="M 450.742265 220.756364 
M 463.219284 219.84763 
L 467.37829 215.303997 
L 471.537296 201.987191 
L 475.696302 168.342508 
L 479.855309 110.087407 
L 484.014315 48.954166 
L 488.173321 37.650307 
L 492.332327 105.110399 
L 496.491333 178.20618 
L 500.65034 211.517347 
L 504.809346 218.937257 
L 508.968352 214.168248 
L 513.127358 198.058752 
L 517.286365 166.558225 
L 521.445371 111.308237 
L 525.604377 49.543121 
L 529.763383 34.926816 
L 533.922389 94.778912 
L 538.081396 170.332033 
L 542.240402 209.847514 
L 546.399408 218.634527 
L 550.558414 215.379717 
L 554.71742 199.569241 
L 558.876427 167.524404 
L 563.035433 114.584021 
L 567.194439 50.571111 
L 571.353445 35.158345 
L 575.512451 95.624069 
L 579.671458 172.181124 
L 583.830464 209.610731 
L 587.98947 217.267419 
L 592.148476 214.773971 
L 596.307483 200.324703 
L 600.466489 167.896205 
L 604.625495 110.49388 
L 608.784501 49.415132 
L 612.943507 34.348612 
L 617.102514 93.525029 
L 621.26152 168.799389 
L 625.420526 208.689048 
L 629.579532 218.406251 
L 633.738538 214.925405 
L 637.897545 202.289528 
L 642.056551 169.161123 
L 646.215557 113.488884 
L 650.374563 50.010685 
L 654.533569 36.166343 
L 658.692576 96.334046 
L 662.851582 170.966544 
L 667.010588 207.92414 
L 671.169594 216.506677 
L 675.328601 213.789685 
L 679.487607 200.626926 
L 683.646613 166.70682 
L 687.805619 113.89919 
L 691.964625 50.440492 
L 696.123632 35.344035 
L 700.282638 97.19287 
L 704.441644 172.669089 
L 708.60065 211.946625 
L 712.759656 217.265594 
L 716.918663 212.881178 
L 721.077669 197.681225 
L 725.236675 166.186816 
L 729.395681 112.601431 
L 733.554687 52.646302 
L 737.713694 34.348612 
L 741.8727 93.525029 
L 746.031706 164.162763 
L 747.754688 181.098484 
" style="fill:none;stroke:#1f77b4;stroke-linecap:square;stroke-width:1.5;"/>
   </g>
   <g id="line2d_56">
    <path clip-path="url(#pb262e70e9e)" d="M 442.424253 220.756364 
L 446.583259 220.756364 
L 450.742265 220.756299 
L 454.901271 220.752029 
L 459.060278 220.67272 
L 463.219284 219.966185 
L 467.37829 216.212658 
L 471.537296 202.868487 
L 475.696302 169.446339 
L 479.855309 110.78623 
L 484.014315 48.041462 
L 488.173321 36.609014 
L 492.332327 101.186412 
L 496.491333 176.212472 
L 500.65034 210.754944 
L 504.809346 217.92426 
L 508.968352 214.326253 
L 513.127358 200.1395 
L 517.286365 167.153751 
L 521.445371 110.752134 
L 525.604377 49.435758 
L 529.763383 34.800389 
L 533.922389 95.464499 
L 538.081396 172.033495 
L 542.240402 209.408893 
L 546.399408 217.65583 
L 550.558414 214.239989 
L 554.71742 200.104864 
L 558.876427 167.250699 
L 563.035433 111.000511 
L 567.194439 49.553658 
L 571.353445 34.349541 
L 575.512451 94.672918 
L 579.671458 171.530831 
L 583.830464 209.250007 
L 587.98947 217.618658 
L 592.148476 214.226495 
L 596.307483 200.096835 
L 600.466489 167.2351 
L 604.625495 110.936262 
L 608.784501 49.372682 
L 612.943507 34.037802 
L 617.102514 94.371633 
L 621.26152 171.372969 
L 625.420526 209.193876 
L 629.579532 217.592282 
L 633.738538 214.201458 
L 637.897545 200.059021 
L 642.056551 167.160892 
L 646.215557 110.789342 
L 650.374563 49.130185 
L 654.533569 33.746648 
L 658.692576 94.147143 
L 662.851582 171.2635 
L 667.010588 209.147586 
L 671.169594 217.561544 
L 675.328601 214.167427 
L 679.487607 200.007018 
L 683.646613 167.06528 
L 687.805619 110.616244 
L 691.964625 48.868068 
L 696.123632 33.455428 
L 700.282638 93.934763 
L 704.441644 171.159633 
L 708.60065 209.098666 
L 712.759656 217.525178 
L 716.918663 214.126663 
L 721.077669 199.946924 
L 725.236675 166.95973 
L 729.395681 110.432014 
L 733.554687 48.596455 
L 737.713694 33.159518 
L 741.8727 93.720703 
L 746.031706 171.0526 
L 747.754688 186.791843 
" style="fill:none;stroke:#008000;stroke-dasharray:5.55,2.4;stroke-dashoffset:0;stroke-width:1.5;"/>
   </g>
   <g id="patch_8">
    <path d="M 442.424253 230.64 
L 442.424253 13.2 
" style="fill:none;stroke:#000000;stroke-linecap:square;stroke-linejoin:miter;stroke-width:2;"/>
   </g>
   <g id="patch_9">
    <path d="M 733.554688 230.64 
L 733.554688 13.2 
" style="fill:none;"/>
   </g>
   <g id="patch_10">
    <path d="M 442.424253 230.64 
L 733.554688 230.64 
" style="fill:none;stroke:#000000;stroke-linecap:square;stroke-linejoin:miter;stroke-width:2;"/>
   </g>
   <g id="patch_11">
    <path d="M 442.424253 13.2 
L 733.554688 13.2 
" style="fill:none;"/>
   </g>
  </g>
 </g>
 <defs>
  <clipPath id="pfc8a77044d">
   <rect height="217.44" width="291.130435" x="63.954687" y="13.2"/>
  </clipPath>
  <clipPath id="pb262e70e9e">
   <rect height="217.44" width="291.130435" x="442.424253" y="13.2"/>
  </clipPath>
 </defs>
</svg>
