<?xml version="1.0" encoding="utf-8" standalone="no"?>
<!DOCTYPE svg PUBLIC "-//W3C//DTD SVG 1.1//EN"
  "http://www.w3.org/Graphics/SVG/1.1/DTD/svg11.dtd">
<!-- Created with matplotlib (http://matplotlib.org/) -->
<svg height="339.573438pt" version="1.1" viewBox="0 0 914.154688 339.573438" width="914.154688pt" xmlns="http://www.w3.org/2000/svg" xmlns:xlink="http://www.w3.org/1999/xlink">
 <defs>
  <style type="text/css">
*{stroke-linecap:butt;stroke-linejoin:round;}
  </style>
 </defs>
 <g id="figure_1">
  <g id="patch_1">
   <path d="M 0 339.573438 
L 914.154688 339.573438 
L 914.154688 0 
L 0 0 
z
" style="fill:#ffffff;"/>
  </g>
  <g id="axes_1">
   <g id="patch_2">
    <path d="M 63.954688 285 
L 427.867731 285 
L 427.867731 13.2 
L 63.954688 13.2 
z
" style="fill:#ffffff;"/>
   </g>
   <g id="PolyCollection_1">
    <defs>
     <path d="M 63.954688 -66.927983 
L 63.954688 -66.927983 
L 70.019905 -96.617065 
L 76.085122 -128.437034 
L 82.15034 -162.540836 
L 88.215557 -198.749204 
L 94.280774 -234.618201 
L 100.345992 -267.92302 
L 106.411209 -291.084313 
L 112.476427 -294.601071 
L 118.541644 -280.420298 
L 124.606861 -257.647041 
L 130.672079 -228.539439 
L 136.737296 -206.797154 
L 142.802514 -200.069296 
L 148.867731 -210.997686 
L 154.932948 -232.830327 
L 160.998166 -257.965074 
L 167.063383 -275.792151 
L 173.128601 -279.674617 
L 179.193818 -276.305792 
L 185.259035 -257.093371 
L 191.324253 -230.859986 
L 197.38947 -213.086833 
L 203.454688 -210.10801 
L 209.519905 -218.295495 
L 215.585122 -237.800103 
L 221.65034 -257.91664 
L 227.715557 -274.208471 
L 233.780774 -276.92631 
L 239.845992 -270.653473 
L 245.911209 -252.135778 
L 251.976427 -233.193501 
L 258.041644 -215.292045 
L 264.106861 -213.341828 
L 270.172079 -217.897597 
L 276.237296 -233.588181 
L 282.302514 -253.424985 
L 288.367731 -269.051054 
L 294.432948 -277.736182 
L 300.498166 -268.094439 
L 306.563383 -249.887797 
L 312.628601 -229.950809 
L 318.693818 -212.510465 
L 324.759035 -207.762346 
L 330.824253 -215.367338 
L 336.88947 -234.353347 
L 342.954687 -252.734527 
L 349.019905 -268.8797 
L 355.085122 -272.739391 
L 361.15034 -260.526559 
L 367.215557 -251.888208 
L 373.280774 -229.7983 
L 379.345992 -212.06239 
L 385.411209 -208.98394 
L 391.476427 -215.365018 
L 397.541644 -234.774978 
L 403.606861 -258.951307 
L 409.672079 -272.010437 
L 415.737296 -276.829622 
L 421.802514 -266.231463 
L 427.867731 -247.250366 
L 427.867731 -262.555411 
L 427.867731 -262.555411 
L 421.802514 -279.546702 
L 415.737296 -288.001822 
L 409.672079 -280.746127 
L 403.606861 -265.542392 
L 397.541644 -241.356107 
L 391.476427 -224.248145 
L 385.411209 -220.830664 
L 379.345992 -225.960788 
L 373.280774 -244.871824 
L 367.215557 -266.376294 
L 361.15034 -274.613696 
L 355.085122 -284.262691 
L 349.019905 -278.119373 
L 342.954687 -259.631263 
L 336.88947 -241.519465 
L 330.824253 -224.100366 
L 324.759035 -218.966126 
L 318.693818 -225.589214 
L 312.628601 -245.246002 
L 306.563383 -265.813317 
L 300.498166 -281.99825 
L 294.432948 -289.268484 
L 288.367731 -277.963138 
L 282.302514 -260.478464 
L 276.237296 -241.046794 
L 270.172079 -226.903532 
L 264.106861 -225.570499 
L 258.041644 -229.784392 
L 251.976427 -248.488694 
L 245.911209 -267.244339 
L 239.845992 -284.161687 
L 233.780774 -288.989765 
L 227.715557 -282.944161 
L 221.65034 -265.134701 
L 215.585122 -244.973534 
L 209.519905 -227.30143 
L 203.454688 -222.08205 
L 197.38947 -227.697969 
L 191.324253 -246.60406 
L 185.259035 -272.088179 
L 179.193818 -289.727168 
L 173.128601 -291.107891 
L 167.063383 -284.700035 
L 160.998166 -264.783438 
L 154.932948 -239.411456 
L 148.867731 -218.366178 
L 142.802514 -210.891129 
L 136.737296 -220.469852 
L 130.672079 -244.056302 
L 124.606861 -272.331611 
L 118.541644 -294.121486 
L 112.476427 -305.044062 
L 106.411209 -297.804075 
L 100.345992 -271.998364 
L 94.280774 -236.665663 
L 88.215557 -199.158565 
L 82.15034 -162.540836 
L 76.085122 -128.437034 
L 70.019905 -96.617065 
L 63.954688 -66.927983 
z
" id="mc190213779"/>
    </defs>
    <g clip-path="url(#p21fe6b36fe)">
     <use style="fill:#4db8ff;" x="0" xlink:href="#mc190213779" y="339.573438"/>
    </g>
   </g>
   <g id="PolyCollection_2">
    <defs>
     <path d="M 63.954688 -66.927983 
L 63.954688 -66.927983 
L 70.019905 -96.617065 
L 76.085122 -128.437034 
L 82.15034 -162.540836 
L 88.215557 -199.092385 
L 94.280774 -228.141547 
L 100.345992 -257.335805 
L 106.411209 -250.741307 
L 112.476427 -227.897485 
L 118.541644 -207.195235 
L 124.606861 -198.902053 
L 130.672079 -179.503822 
L 136.737296 -173.166039 
L 142.802514 -184.438453 
L 148.867731 -199.717363 
L 154.932948 -217.224957 
L 160.998166 -227.90377 
L 167.063383 -243.047713 
L 173.128601 -239.937868 
L 179.193818 -213.805149 
L 185.259035 -201.147179 
L 191.324253 -175.866905 
L 197.38947 -170.597516 
L 203.454688 -184.336203 
L 209.519905 -197.965654 
L 215.585122 -213.626105 
L 221.65034 -231.377348 
L 227.715557 -235.31018 
L 233.780774 -234.604099 
L 239.845992 -210.856607 
L 245.911209 -182.462873 
L 251.976427 -166.675034 
L 258.041644 -168.090007 
L 264.106861 -178.635128 
L 270.172079 -199.542587 
L 276.237296 -221.438375 
L 282.302514 -234.473649 
L 288.367731 -233.003794 
L 294.432948 -218.860727 
L 300.498166 -205.432892 
L 306.563383 -183.695501 
L 312.628601 -168.948855 
L 318.693818 -170.753663 
L 324.759035 -184.131404 
L 330.824253 -200.140633 
L 336.88947 -219.515969 
L 342.954687 -231.005272 
L 349.019905 -230.083474 
L 355.085122 -219.788495 
L 361.15034 -200.077887 
L 367.215557 -182.698237 
L 373.280774 -175.73226 
L 379.345992 -173.573901 
L 385.411209 -182.56267 
L 391.476427 -201.081175 
L 397.541644 -220.959622 
L 403.606861 -234.75964 
L 409.672079 -236.589532 
L 415.737296 -223.883642 
L 421.802514 -210.224058 
L 427.867731 -191.664422 
L 427.867731 -197.948286 
L 427.867731 -197.948286 
L 421.802514 -216.662376 
L 415.737296 -230.564674 
L 409.672079 -242.316029 
L 403.606861 -239.370294 
L 397.541644 -224.83166 
L 391.476427 -205.078343 
L 385.411209 -187.464219 
L 379.345992 -180.038843 
L 373.280774 -183.629055 
L 367.215557 -191.457023 
L 361.15034 -209.207677 
L 355.085122 -228.844606 
L 349.019905 -238.440054 
L 342.954687 -237.541946 
L 336.88947 -224.859108 
L 330.824253 -205.814387 
L 324.759035 -191.227688 
L 318.693818 -179.725081 
L 312.628601 -179.202289 
L 306.563383 -196.28448 
L 300.498166 -218.807447 
L 294.432948 -232.094294 
L 288.367731 -244.715797 
L 282.302514 -244.550702 
L 276.237296 -229.304978 
L 270.172079 -207.624903 
L 264.106861 -188.086474 
L 258.041644 -180.62847 
L 251.976427 -181.648302 
L 245.911209 -199.250611 
L 239.845992 -230.721627 
L 233.780774 -251.94513 
L 227.715557 -251.169113 
L 221.65034 -244.53069 
L 215.585122 -223.517227 
L 209.519905 -210.35488 
L 203.454688 -198.160971 
L 197.38947 -188.712127 
L 191.324253 -199.235675 
L 185.259035 -228.571673 
L 179.193818 -240.348107 
L 173.128601 -266.195387 
L 167.063383 -266.3489 
L 160.998166 -247.633782 
L 154.932948 -235.86432 
L 148.867731 -217.772288 
L 142.802514 -207.52503 
L 136.737296 -201.195076 
L 130.672079 -212.178038 
L 124.606861 -238.431732 
L 118.541644 -247.368361 
L 112.476427 -264.945131 
L 106.411209 -278.231241 
L 100.345992 -272.627901 
L 94.280774 -236.829506 
L 88.215557 -199.092385 
L 82.15034 -162.540836 
L 76.085122 -128.437034 
L 70.019905 -96.617065 
L 63.954688 -66.927983 
z
" id="m050f5c8c4d"/>
    </defs>
    <g clip-path="url(#p21fe6b36fe)">
     <use style="fill:#ffa035;" x="0" xlink:href="#m050f5c8c4d" y="339.573438"/>
    </g>
   </g>
   <g id="PolyCollection_3">
    <defs>
     <path d="M 63.954688 -66.927983 
L 63.954688 -66.927983 
L 70.019905 -96.617065 
L 76.085122 -128.437034 
L 82.15034 -162.540836 
L 88.215557 -199.092385 
L 94.280774 -231.589711 
L 100.345992 -267.053091 
L 106.411209 -279.932868 
L 112.476427 -279.601876 
L 118.541644 -269.634761 
L 124.606861 -264.652615 
L 130.672079 -233.914702 
L 136.737296 -211.292078 
L 142.802514 -208.818387 
L 148.867731 -212.597649 
L 154.932948 -229.642185 
L 160.998166 -245.082286 
L 167.063383 -266.296792 
L 173.128601 -272.158545 
L 179.193818 -251.892687 
L 185.259035 -238.725732 
L 191.324253 -202.346457 
L 197.38947 -186.997836 
L 203.454688 -193.036845 
L 209.519905 -203.723073 
L 215.585122 -217.968627 
L 221.65034 -239.48872 
L 227.715557 -248.536637 
L 233.780774 -251.502275 
L 239.845992 -230.724269 
L 245.911209 -198.19492 
L 251.976427 -176.174133 
L 258.041644 -174.228303 
L 264.106861 -181.53273 
L 270.172079 -201.413092 
L 276.237296 -223.540417 
L 282.302514 -238.145406 
L 288.367731 -239.420011 
L 294.432948 -227.707224 
L 300.498166 -215.22853 
L 306.563383 -191.349649 
L 312.628601 -173.931869 
L 318.693818 -173.48875 
L 324.759035 -185.425816 
L 330.824253 -201.186601 
L 336.88947 -220.339287 
L 342.954687 -232.487827 
L 349.019905 -233.155304 
L 355.085122 -223.508515 
L 361.15034 -203.207181 
L 367.215557 -185.847213 
L 373.280774 -177.837249 
L 379.345992 -174.688464 
L 385.411209 -183.160523 
L 391.476427 -201.532918 
L 397.541644 -221.457858 
L 403.606861 -235.026754 
L 409.672079 -237.444767 
L 415.737296 -225.606798 
L 421.802514 -211.397123 
L 427.867731 -192.932953 
L 427.867731 -202.012269 
L 427.867731 -202.012269 
L 421.802514 -221.187618 
L 415.737296 -234.775466 
L 409.672079 -245.361001 
L 403.606861 -241.774476 
L 397.541644 -226.311974 
L 391.476427 -206.325918 
L 385.411209 -188.896268 
L 379.345992 -182.644222 
L 373.280774 -187.762409 
L 367.215557 -197.085215 
L 361.15034 -215.959919 
L 355.085122 -236.574353 
L 349.019905 -244.933882 
L 342.954687 -241.998771 
L 336.88947 -227.76484 
L 330.824253 -207.905499 
L 324.759035 -194.652052 
L 318.693818 -185.285532 
L 312.628601 -188.881124 
L 306.563383 -207.776806 
L 300.498166 -234.902217 
L 294.432948 -246.529609 
L 288.367731 -257.011395 
L 282.302514 -250.947929 
L 276.237296 -233.413271 
L 270.172079 -212.738305 
L 264.106861 -194.801853 
L 258.041644 -189.95644 
L 251.976427 -195.964994 
L 245.911209 -223.862879 
L 239.845992 -258.132159 
L 233.780774 -275.85382 
L 227.715557 -269.369499 
L 221.65034 -257.044047 
L 215.585122 -231.033387 
L 209.519905 -221.916882 
L 203.454688 -215.962155 
L 197.38947 -216.639833 
L 191.324253 -238.264301 
L 185.259035 -278.711885 
L 179.193818 -288.590001 
L 173.128601 -301.566966 
L 167.063383 -295.975739 
L 160.998166 -271.232408 
L 154.932948 -258.916021 
L 148.867731 -245.346505 
L 142.802514 -249.559405 
L 136.737296 -257.263703 
L 130.672079 -282.681986 
L 124.606861 -312.222349 
L 118.541644 -314.018892 
L 112.476427 -312.101183 
L 106.411209 -303.452034 
L 100.345992 -278.02517 
L 94.280774 -238.902077 
L 88.215557 -199.092385 
L 82.15034 -162.540836 
L 76.085122 -128.437034 
L 70.019905 -96.617065 
L 63.954688 -66.927983 
z
" id="m25148e9c3a"/>
    </defs>
    <g clip-path="url(#p21fe6b36fe)">
     <use style="fill:#47d200;" x="0" xlink:href="#m25148e9c3a" y="339.573438"/>
    </g>
   </g>
   <g id="matplotlib.axis_1">
    <g id="xtick_1">
     <g id="line2d_1">
      <path clip-path="url(#p21fe6b36fe)" d="M 63.954688 285 
L 63.954688 13.2 
" style="fill:none;stroke:#b0b0b0;stroke-linecap:square;stroke-width:0.8;"/>
     </g>
     <g id="line2d_2">
      <defs>
       <path d="M 0 0 
L 0 6 
" id="me049356ca2"/>
      </defs>
      <g>
       <use x="63.954688" xlink:href="#me049356ca2" y="285"/>
      </g>
     </g>
     <g id="text_1">
      <!-- 0 -->
      <defs>
       <path d="M 31.78125 66.40625 
Q 24.171875 66.40625 20.328125 58.90625 
Q 16.5 51.421875 16.5 36.375 
Q 16.5 21.390625 20.328125 13.890625 
Q 24.171875 6.390625 31.78125 6.390625 
Q 39.453125 6.390625 43.28125 13.890625 
Q 47.125 21.390625 47.125 36.375 
Q 47.125 51.421875 43.28125 58.90625 
Q 39.453125 66.40625 31.78125 66.40625 
z
M 31.78125 74.21875 
Q 44.046875 74.21875 50.515625 64.515625 
Q 56.984375 54.828125 56.984375 36.375 
Q 56.984375 17.96875 50.515625 8.265625 
Q 44.046875 -1.421875 31.78125 -1.421875 
Q 19.53125 -1.421875 13.0625 8.265625 
Q 6.59375 17.96875 6.59375 36.375 
Q 6.59375 54.828125 13.0625 64.515625 
Q 19.53125 74.21875 31.78125 74.21875 
z
" id="DejaVuSans-30"/>
      </defs>
      <g transform="translate(59.182813 305.897656)scale(0.15 -0.15)">
       <use xlink:href="#DejaVuSans-30"/>
      </g>
     </g>
    </g>
    <g id="xtick_2">
     <g id="line2d_3">
      <path clip-path="url(#p21fe6b36fe)" d="M 124.606861 285 
L 124.606861 13.2 
" style="fill:none;stroke:#b0b0b0;stroke-linecap:square;stroke-width:0.8;"/>
     </g>
     <g id="line2d_4">
      <g>
       <use x="124.606861" xlink:href="#me049356ca2" y="285"/>
      </g>
     </g>
     <g id="text_2">
      <!-- 1 -->
      <defs>
       <path d="M 12.40625 8.296875 
L 28.515625 8.296875 
L 28.515625 63.921875 
L 10.984375 60.40625 
L 10.984375 69.390625 
L 28.421875 72.90625 
L 38.28125 72.90625 
L 38.28125 8.296875 
L 54.390625 8.296875 
L 54.390625 0 
L 12.40625 0 
z
" id="DejaVuSans-31"/>
      </defs>
      <g transform="translate(119.834986 305.897656)scale(0.15 -0.15)">
       <use xlink:href="#DejaVuSans-31"/>
      </g>
     </g>
    </g>
    <g id="xtick_3">
     <g id="line2d_5">
      <path clip-path="url(#p21fe6b36fe)" d="M 185.259035 285 
L 185.259035 13.2 
" style="fill:none;stroke:#b0b0b0;stroke-linecap:square;stroke-width:0.8;"/>
     </g>
     <g id="line2d_6">
      <g>
       <use x="185.259035" xlink:href="#me049356ca2" y="285"/>
      </g>
     </g>
     <g id="text_3">
      <!-- 2 -->
      <defs>
       <path d="M 19.1875 8.296875 
L 53.609375 8.296875 
L 53.609375 0 
L 7.328125 0 
L 7.328125 8.296875 
Q 12.9375 14.109375 22.625 23.890625 
Q 32.328125 33.6875 34.8125 36.53125 
Q 39.546875 41.84375 41.421875 45.53125 
Q 43.3125 49.21875 43.3125 52.78125 
Q 43.3125 58.59375 39.234375 62.25 
Q 35.15625 65.921875 28.609375 65.921875 
Q 23.96875 65.921875 18.8125 64.3125 
Q 13.671875 62.703125 7.8125 59.421875 
L 7.8125 69.390625 
Q 13.765625 71.78125 18.9375 73 
Q 24.125 74.21875 28.421875 74.21875 
Q 39.75 74.21875 46.484375 68.546875 
Q 53.21875 62.890625 53.21875 53.421875 
Q 53.21875 48.921875 51.53125 44.890625 
Q 49.859375 40.875 45.40625 35.40625 
Q 44.1875 33.984375 37.640625 27.21875 
Q 31.109375 20.453125 19.1875 8.296875 
z
" id="DejaVuSans-32"/>
      </defs>
      <g transform="translate(180.48716 305.897656)scale(0.15 -0.15)">
       <use xlink:href="#DejaVuSans-32"/>
      </g>
     </g>
    </g>
    <g id="xtick_4">
     <g id="line2d_7">
      <path clip-path="url(#p21fe6b36fe)" d="M 245.911209 285 
L 245.911209 13.2 
" style="fill:none;stroke:#b0b0b0;stroke-linecap:square;stroke-width:0.8;"/>
     </g>
     <g id="line2d_8">
      <g>
       <use x="245.911209" xlink:href="#me049356ca2" y="285"/>
      </g>
     </g>
     <g id="text_4">
      <!-- 3 -->
      <defs>
       <path d="M 40.578125 39.3125 
Q 47.65625 37.796875 51.625 33 
Q 55.609375 28.21875 55.609375 21.1875 
Q 55.609375 10.40625 48.1875 4.484375 
Q 40.765625 -1.421875 27.09375 -1.421875 
Q 22.515625 -1.421875 17.65625 -0.515625 
Q 12.796875 0.390625 7.625 2.203125 
L 7.625 11.71875 
Q 11.71875 9.328125 16.59375 8.109375 
Q 21.484375 6.890625 26.8125 6.890625 
Q 36.078125 6.890625 40.9375 10.546875 
Q 45.796875 14.203125 45.796875 21.1875 
Q 45.796875 27.640625 41.28125 31.265625 
Q 36.765625 34.90625 28.71875 34.90625 
L 20.21875 34.90625 
L 20.21875 43.015625 
L 29.109375 43.015625 
Q 36.375 43.015625 40.234375 45.921875 
Q 44.09375 48.828125 44.09375 54.296875 
Q 44.09375 59.90625 40.109375 62.90625 
Q 36.140625 65.921875 28.71875 65.921875 
Q 24.65625 65.921875 20.015625 65.03125 
Q 15.375 64.15625 9.8125 62.3125 
L 9.8125 71.09375 
Q 15.4375 72.65625 20.34375 73.4375 
Q 25.25 74.21875 29.59375 74.21875 
Q 40.828125 74.21875 47.359375 69.109375 
Q 53.90625 64.015625 53.90625 55.328125 
Q 53.90625 49.265625 50.4375 45.09375 
Q 46.96875 40.921875 40.578125 39.3125 
z
" id="DejaVuSans-33"/>
      </defs>
      <g transform="translate(241.139334 305.897656)scale(0.15 -0.15)">
       <use xlink:href="#DejaVuSans-33"/>
      </g>
     </g>
    </g>
    <g id="xtick_5">
     <g id="line2d_9">
      <path clip-path="url(#p21fe6b36fe)" d="M 306.563383 285 
L 306.563383 13.2 
" style="fill:none;stroke:#b0b0b0;stroke-linecap:square;stroke-width:0.8;"/>
     </g>
     <g id="line2d_10">
      <g>
       <use x="306.563383" xlink:href="#me049356ca2" y="285"/>
      </g>
     </g>
     <g id="text_5">
      <!-- 4 -->
      <defs>
       <path d="M 37.796875 64.3125 
L 12.890625 25.390625 
L 37.796875 25.390625 
z
M 35.203125 72.90625 
L 47.609375 72.90625 
L 47.609375 25.390625 
L 58.015625 25.390625 
L 58.015625 17.1875 
L 47.609375 17.1875 
L 47.609375 0 
L 37.796875 0 
L 37.796875 17.1875 
L 4.890625 17.1875 
L 4.890625 26.703125 
z
" id="DejaVuSans-34"/>
      </defs>
      <g transform="translate(301.791508 305.897656)scale(0.15 -0.15)">
       <use xlink:href="#DejaVuSans-34"/>
      </g>
     </g>
    </g>
    <g id="xtick_6">
     <g id="line2d_11">
      <path clip-path="url(#p21fe6b36fe)" d="M 367.215557 285 
L 367.215557 13.2 
" style="fill:none;stroke:#b0b0b0;stroke-linecap:square;stroke-width:0.8;"/>
     </g>
     <g id="line2d_12">
      <g>
       <use x="367.215557" xlink:href="#me049356ca2" y="285"/>
      </g>
     </g>
     <g id="text_6">
      <!-- 5 -->
      <defs>
       <path d="M 10.796875 72.90625 
L 49.515625 72.90625 
L 49.515625 64.59375 
L 19.828125 64.59375 
L 19.828125 46.734375 
Q 21.96875 47.46875 24.109375 47.828125 
Q 26.265625 48.1875 28.421875 48.1875 
Q 40.625 48.1875 47.75 41.5 
Q 54.890625 34.8125 54.890625 23.390625 
Q 54.890625 11.625 47.5625 5.09375 
Q 40.234375 -1.421875 26.90625 -1.421875 
Q 22.3125 -1.421875 17.546875 -0.640625 
Q 12.796875 0.140625 7.71875 1.703125 
L 7.71875 11.625 
Q 12.109375 9.234375 16.796875 8.0625 
Q 21.484375 6.890625 26.703125 6.890625 
Q 35.15625 6.890625 40.078125 11.328125 
Q 45.015625 15.765625 45.015625 23.390625 
Q 45.015625 31 40.078125 35.4375 
Q 35.15625 39.890625 26.703125 39.890625 
Q 22.75 39.890625 18.8125 39.015625 
Q 14.890625 38.140625 10.796875 36.28125 
z
" id="DejaVuSans-35"/>
      </defs>
      <g transform="translate(362.443682 305.897656)scale(0.15 -0.15)">
       <use xlink:href="#DejaVuSans-35"/>
      </g>
     </g>
    </g>
    <g id="xtick_7">
     <g id="line2d_13">
      <path clip-path="url(#p21fe6b36fe)" d="M 427.867731 285 
L 427.867731 13.2 
" style="fill:none;stroke:#b0b0b0;stroke-linecap:square;stroke-width:0.8;"/>
     </g>
     <g id="line2d_14">
      <g>
       <use x="427.867731" xlink:href="#me049356ca2" y="285"/>
      </g>
     </g>
     <g id="text_7">
      <!-- 6 -->
      <defs>
       <path d="M 33.015625 40.375 
Q 26.375 40.375 22.484375 35.828125 
Q 18.609375 31.296875 18.609375 23.390625 
Q 18.609375 15.53125 22.484375 10.953125 
Q 26.375 6.390625 33.015625 6.390625 
Q 39.65625 6.390625 43.53125 10.953125 
Q 47.40625 15.53125 47.40625 23.390625 
Q 47.40625 31.296875 43.53125 35.828125 
Q 39.65625 40.375 33.015625 40.375 
z
M 52.59375 71.296875 
L 52.59375 62.3125 
Q 48.875 64.0625 45.09375 64.984375 
Q 41.3125 65.921875 37.59375 65.921875 
Q 27.828125 65.921875 22.671875 59.328125 
Q 17.53125 52.734375 16.796875 39.40625 
Q 19.671875 43.65625 24.015625 45.921875 
Q 28.375 48.1875 33.59375 48.1875 
Q 44.578125 48.1875 50.953125 41.515625 
Q 57.328125 34.859375 57.328125 23.390625 
Q 57.328125 12.15625 50.6875 5.359375 
Q 44.046875 -1.421875 33.015625 -1.421875 
Q 20.359375 -1.421875 13.671875 8.265625 
Q 6.984375 17.96875 6.984375 36.375 
Q 6.984375 53.65625 15.1875 63.9375 
Q 23.390625 74.21875 37.203125 74.21875 
Q 40.921875 74.21875 44.703125 73.484375 
Q 48.484375 72.75 52.59375 71.296875 
z
" id="DejaVuSans-36"/>
      </defs>
      <g transform="translate(423.095856 305.897656)scale(0.15 -0.15)">
       <use xlink:href="#DejaVuSans-36"/>
      </g>
     </g>
    </g>
    <g id="text_8">
     <!-- $t/\tau$ -->
     <defs>
      <path d="M 42.28125 54.6875 
L 40.921875 47.703125 
L 23 47.703125 
L 17.1875 18.015625 
Q 16.890625 16.359375 16.75 15.234375 
Q 16.609375 14.109375 16.609375 13.484375 
Q 16.609375 10.359375 18.484375 8.9375 
Q 20.359375 7.515625 24.515625 7.515625 
L 33.59375 7.515625 
L 32.078125 0 
L 23.484375 0 
Q 15.484375 0 11.546875 3.125 
Q 7.625 6.25 7.625 12.59375 
Q 7.625 13.71875 7.765625 15.0625 
Q 7.90625 16.40625 8.203125 18.015625 
L 14.015625 47.703125 
L 6.390625 47.703125 
L 7.8125 54.6875 
L 15.28125 54.6875 
L 18.3125 70.21875 
L 27.296875 70.21875 
L 24.3125 54.6875 
z
" id="DejaVuSans-Oblique-74"/>
      <path d="M 25.390625 72.90625 
L 33.6875 72.90625 
L 8.296875 -9.28125 
L 0 -9.28125 
z
" id="DejaVuSans-2f"/>
      <path d="M 32.859375 9.96875 
Q 34.1875 7.625 39.453125 7.625 
L 43.75 7.625 
L 42.28125 0 
L 36.921875 0 
Q 28.125 0 25 4.6875 
Q 21.921875 9.46875 23.96875 19.828125 
L 29 45.703125 
L 8.453125 45.703125 
L 10.203125 54.6875 
L 60.640625 54.6875 
L 58.890625 45.703125 
L 38.1875 45.703125 
L 33.015625 19.28125 
Q 31.640625 12.203125 32.859375 9.96875 
z
" id="DejaVuSans-Oblique-3c4"/>
     </defs>
     <g transform="translate(232.511209 328.214063)scale(0.2 -0.2)">
      <use transform="translate(0 0.09375)" xlink:href="#DejaVuSans-Oblique-74"/>
      <use transform="translate(39.208984 0.09375)" xlink:href="#DejaVuSans-2f"/>
      <use transform="translate(72.900391 0.09375)" xlink:href="#DejaVuSans-Oblique-3c4"/>
     </g>
    </g>
   </g>
   <g id="matplotlib.axis_2">
    <g id="ytick_1">
     <g id="line2d_15">
      <path clip-path="url(#p21fe6b36fe)" d="M 63.954688 272.645455 
L 427.867731 272.645455 
" style="fill:none;stroke:#b0b0b0;stroke-linecap:square;stroke-width:0.8;"/>
     </g>
     <g id="line2d_16">
      <defs>
       <path d="M 0 0 
L -6 0 
" id="m5b654da70a"/>
      </defs>
      <g>
       <use x="63.954688" xlink:href="#m5b654da70a" y="272.645455"/>
      </g>
     </g>
     <g id="text_9">
      <!-- 1.0 -->
      <defs>
       <path d="M 10.6875 12.40625 
L 21 12.40625 
L 21 0 
L 10.6875 0 
z
" id="DejaVuSans-2e"/>
      </defs>
      <g transform="translate(30.6 278.344283)scale(0.15 -0.15)">
       <use xlink:href="#DejaVuSans-31"/>
       <use x="63.623047" xlink:href="#DejaVuSans-2e"/>
       <use x="95.410156" xlink:href="#DejaVuSans-30"/>
      </g>
     </g>
    </g>
    <g id="ytick_2">
     <g id="line2d_17">
      <path clip-path="url(#p21fe6b36fe)" d="M 63.954688 231.280469 
L 427.867731 231.280469 
" style="fill:none;stroke:#b0b0b0;stroke-linecap:square;stroke-width:0.8;"/>
     </g>
     <g id="line2d_18">
      <g>
       <use x="63.954688" xlink:href="#m5b654da70a" y="231.280469"/>
      </g>
     </g>
     <g id="text_10">
      <!-- 1.1 -->
      <g transform="translate(30.6 236.979297)scale(0.15 -0.15)">
       <use xlink:href="#DejaVuSans-31"/>
       <use x="63.623047" xlink:href="#DejaVuSans-2e"/>
       <use x="95.410156" xlink:href="#DejaVuSans-31"/>
      </g>
     </g>
    </g>
    <g id="ytick_3">
     <g id="line2d_19">
      <path clip-path="url(#p21fe6b36fe)" d="M 63.954688 189.915483 
L 427.867731 189.915483 
" style="fill:none;stroke:#b0b0b0;stroke-linecap:square;stroke-width:0.8;"/>
     </g>
     <g id="line2d_20">
      <g>
       <use x="63.954688" xlink:href="#m5b654da70a" y="189.915483"/>
      </g>
     </g>
     <g id="text_11">
      <!-- 1.2 -->
      <g transform="translate(30.6 195.614311)scale(0.15 -0.15)">
       <use xlink:href="#DejaVuSans-31"/>
       <use x="63.623047" xlink:href="#DejaVuSans-2e"/>
       <use x="95.410156" xlink:href="#DejaVuSans-32"/>
      </g>
     </g>
    </g>
    <g id="ytick_4">
     <g id="line2d_21">
      <path clip-path="url(#p21fe6b36fe)" d="M 63.954688 148.550497 
L 427.867731 148.550497 
" style="fill:none;stroke:#b0b0b0;stroke-linecap:square;stroke-width:0.8;"/>
     </g>
     <g id="line2d_22">
      <g>
       <use x="63.954688" xlink:href="#m5b654da70a" y="148.550497"/>
      </g>
     </g>
     <g id="text_12">
      <!-- 1.3 -->
      <g transform="translate(30.6 154.249325)scale(0.15 -0.15)">
       <use xlink:href="#DejaVuSans-31"/>
       <use x="63.623047" xlink:href="#DejaVuSans-2e"/>
       <use x="95.410156" xlink:href="#DejaVuSans-33"/>
      </g>
     </g>
    </g>
    <g id="ytick_5">
     <g id="line2d_23">
      <path clip-path="url(#p21fe6b36fe)" d="M 63.954688 107.185511 
L 427.867731 107.185511 
" style="fill:none;stroke:#b0b0b0;stroke-linecap:square;stroke-width:0.8;"/>
     </g>
     <g id="line2d_24">
      <g>
       <use x="63.954688" xlink:href="#m5b654da70a" y="107.185511"/>
      </g>
     </g>
     <g id="text_13">
      <!-- 1.4 -->
      <g transform="translate(30.6 112.884339)scale(0.15 -0.15)">
       <use xlink:href="#DejaVuSans-31"/>
       <use x="63.623047" xlink:href="#DejaVuSans-2e"/>
       <use x="95.410156" xlink:href="#DejaVuSans-34"/>
      </g>
     </g>
    </g>
    <g id="ytick_6">
     <g id="line2d_25">
      <path clip-path="url(#p21fe6b36fe)" d="M 63.954688 65.820525 
L 427.867731 65.820525 
" style="fill:none;stroke:#b0b0b0;stroke-linecap:square;stroke-width:0.8;"/>
     </g>
     <g id="line2d_26">
      <g>
       <use x="63.954688" xlink:href="#m5b654da70a" y="65.820525"/>
      </g>
     </g>
     <g id="text_14">
      <!-- 1.5 -->
      <g transform="translate(30.6 71.519353)scale(0.15 -0.15)">
       <use xlink:href="#DejaVuSans-31"/>
       <use x="63.623047" xlink:href="#DejaVuSans-2e"/>
       <use x="95.410156" xlink:href="#DejaVuSans-35"/>
      </g>
     </g>
    </g>
    <g id="ytick_7">
     <g id="line2d_27">
      <path clip-path="url(#p21fe6b36fe)" d="M 63.954688 24.455539 
L 427.867731 24.455539 
" style="fill:none;stroke:#b0b0b0;stroke-linecap:square;stroke-width:0.8;"/>
     </g>
     <g id="line2d_28">
      <g>
       <use x="63.954688" xlink:href="#m5b654da70a" y="24.455539"/>
      </g>
     </g>
     <g id="text_15">
      <!-- 1.6 -->
      <g transform="translate(30.6 30.154367)scale(0.15 -0.15)">
       <use xlink:href="#DejaVuSans-31"/>
       <use x="63.623047" xlink:href="#DejaVuSans-2e"/>
       <use x="95.410156" xlink:href="#DejaVuSans-36"/>
      </g>
     </g>
    </g>
    <g id="text_16">
     <!-- $s$ $(\mu m)$ -->
     <defs>
      <path d="M 50 53.078125 
L 48.296875 44.578125 
Q 44.734375 46.53125 40.765625 47.5 
Q 36.8125 48.484375 32.625 48.484375 
Q 25.53125 48.484375 21.453125 46.0625 
Q 17.390625 43.65625 17.390625 39.5 
Q 17.390625 34.671875 26.859375 32.078125 
Q 27.59375 31.890625 27.9375 31.78125 
L 30.8125 30.90625 
Q 39.796875 28.421875 42.796875 25.6875 
Q 45.796875 22.953125 45.796875 18.21875 
Q 45.796875 9.515625 38.890625 4.046875 
Q 31.984375 -1.421875 20.796875 -1.421875 
Q 16.453125 -1.421875 11.671875 -0.578125 
Q 6.890625 0.25 1.125 2 
L 2.875 11.28125 
Q 7.8125 8.734375 12.59375 7.421875 
Q 17.390625 6.109375 21.78125 6.109375 
Q 28.375 6.109375 32.5 8.9375 
Q 36.625 11.765625 36.625 16.109375 
Q 36.625 20.796875 25.78125 23.6875 
L 24.859375 23.921875 
L 21.78125 24.703125 
Q 14.9375 26.515625 11.765625 29.46875 
Q 8.59375 32.421875 8.59375 37.015625 
Q 8.59375 45.75 15.15625 50.875 
Q 21.734375 56 33.015625 56 
Q 37.453125 56 41.671875 55.265625 
Q 45.90625 54.546875 50 53.078125 
z
" id="DejaVuSans-Oblique-73"/>
      <path id="DejaVuSans-20"/>
      <path d="M 31 75.875 
Q 24.46875 64.65625 21.28125 53.65625 
Q 18.109375 42.671875 18.109375 31.390625 
Q 18.109375 20.125 21.3125 9.0625 
Q 24.515625 -2 31 -13.1875 
L 23.1875 -13.1875 
Q 15.875 -1.703125 12.234375 9.375 
Q 8.59375 20.453125 8.59375 31.390625 
Q 8.59375 42.28125 12.203125 53.3125 
Q 15.828125 64.359375 23.1875 75.875 
z
" id="DejaVuSans-28"/>
      <path d="M -1.3125 -20.796875 
L 13.375 54.6875 
L 22.40625 54.6875 
L 15.765625 20.65625 
Q 15.578125 19.625 15.421875 18.359375 
Q 15.28125 17.09375 15.28125 15.828125 
Q 15.28125 11.28125 18.140625 8.828125 
Q 21 6.390625 26.3125 6.390625 
Q 33.546875 6.390625 37.984375 10.484375 
Q 42.4375 14.59375 44 22.796875 
L 50.203125 54.6875 
L 59.1875 54.6875 
L 51.03125 12.640625 
Q 50.828125 11.71875 50.75 11.03125 
Q 50.6875 10.359375 50.6875 9.8125 
Q 50.6875 8.296875 51.296875 7.59375 
Q 51.90625 6.890625 53.21875 6.890625 
Q 53.71875 6.890625 54.5625 7.125 
Q 55.421875 7.375 56.984375 8.015625 
L 55.609375 0.78125 
Q 53.46875 -0.296875 51.515625 -0.859375 
Q 49.5625 -1.421875 47.703125 -1.421875 
Q 44.484375 -1.421875 42.65625 0.625 
Q 40.828125 2.6875 40.828125 6.296875 
Q 38.09375 2.390625 34.296875 0.484375 
Q 30.515625 -1.421875 25.390625 -1.421875 
Q 20.84375 -1.421875 17.453125 0.671875 
Q 14.0625 2.78125 12.984375 6.203125 
L 7.71875 -20.796875 
z
" id="DejaVuSans-Oblique-3bc"/>
      <path d="M 89.796875 33.015625 
L 83.40625 0 
L 74.421875 0 
L 80.71875 32.71875 
Q 81.109375 34.8125 81.296875 36.328125 
Q 81.5 37.84375 81.5 38.921875 
Q 81.5 43.3125 79.046875 45.75 
Q 76.609375 48.1875 72.21875 48.1875 
Q 65.671875 48.1875 60.546875 43.28125 
Q 55.421875 38.375 53.90625 30.515625 
L 47.90625 0 
L 38.921875 0 
L 45.3125 32.71875 
Q 45.703125 34.515625 45.890625 36.046875 
Q 46.09375 37.59375 46.09375 38.8125 
Q 46.09375 43.265625 43.65625 45.71875 
Q 41.21875 48.1875 36.921875 48.1875 
Q 30.28125 48.1875 25.140625 43.28125 
Q 20.015625 38.375 18.5 30.515625 
L 12.5 0 
L 3.515625 0 
L 14.203125 54.6875 
L 23.1875 54.6875 
L 21.484375 46.1875 
Q 25.140625 50.984375 30.046875 53.484375 
Q 34.96875 56 40.578125 56 
Q 46.53125 56 50.359375 52.875 
Q 54.203125 49.75 54.984375 44.1875 
Q 59.078125 49.953125 64.46875 52.96875 
Q 69.875 56 75.875 56 
Q 82.90625 56 86.734375 51.953125 
Q 90.578125 47.90625 90.578125 40.484375 
Q 90.578125 38.875 90.375 36.9375 
Q 90.1875 35.015625 89.796875 33.015625 
z
" id="DejaVuSans-Oblique-6d"/>
      <path d="M 8.015625 75.875 
L 15.828125 75.875 
Q 23.140625 64.359375 26.78125 53.3125 
Q 30.421875 42.28125 30.421875 31.390625 
Q 30.421875 20.453125 26.78125 9.375 
Q 23.140625 -1.703125 15.828125 -13.1875 
L 8.015625 -13.1875 
Q 14.5 -2 17.703125 9.0625 
Q 20.90625 20.125 20.90625 31.390625 
Q 20.90625 42.671875 17.703125 53.65625 
Q 14.5 64.65625 8.015625 75.875 
z
" id="DejaVuSans-29"/>
     </defs>
     <g transform="translate(22.4 181.4)rotate(-90)scale(0.2 -0.2)">
      <use transform="translate(0 0.125)" xlink:href="#DejaVuSans-Oblique-73"/>
      <use transform="translate(52.099609 0.125)" xlink:href="#DejaVuSans-20"/>
      <use transform="translate(83.886719 0.125)" xlink:href="#DejaVuSans-28"/>
      <use transform="translate(122.900391 0.125)" xlink:href="#DejaVuSans-Oblique-3bc"/>
      <use transform="translate(186.523438 0.125)" xlink:href="#DejaVuSans-Oblique-6d"/>
      <use transform="translate(283.935547 0.125)" xlink:href="#DejaVuSans-29"/>
     </g>
    </g>
   </g>
   <g id="line2d_29">
    <path clip-path="url(#p21fe6b36fe)" d="M 63.954688 272.645455 
L 70.019905 242.956373 
L 76.085122 211.136403 
L 82.15034 177.032602 
L 88.215557 140.619553 
L 94.280774 103.931506 
L 100.345992 69.612746 
L 106.411209 45.129244 
L 112.476427 39.750871 
L 118.541644 52.302545 
L 124.606861 74.584111 
L 130.672079 103.275567 
L 136.737296 125.939935 
L 142.802514 134.093225 
L 148.867731 124.891506 
L 154.932948 103.452546 
L 160.998166 78.199181 
L 167.063383 59.327344 
L 173.128601 54.182183 
L 179.193818 56.556957 
L 185.259035 74.982663 
L 191.324253 100.841414 
L 197.38947 119.181037 
L 203.454688 123.478407 
L 209.519905 116.774975 
L 215.585122 98.186619 
L 221.65034 78.047767 
L 227.715557 60.997121 
L 233.780774 56.6154 
L 239.845992 62.165857 
L 245.911209 79.883379 
L 251.976427 98.73234 
L 258.041644 117.035219 
L 264.106861 120.117274 
L 270.172079 117.172873 
L 276.237296 102.25595 
L 282.302514 82.621713 
L 288.367731 66.066341 
L 294.432948 56.071104 
L 300.498166 64.527093 
L 306.563383 81.72288 
L 312.628601 101.975032 
L 318.693818 120.523598 
L 324.759035 126.209201 
L 330.824253 119.839585 
L 336.88947 101.637032 
L 342.954687 83.390542 
L 349.019905 66.073901 
L 355.085122 61.072396 
L 361.15034 72.00331 
L 367.215557 80.441186 
L 373.280774 102.238375 
L 379.345992 120.561848 
L 385.411209 124.666135 
L 391.476427 119.766856 
L 397.541644 101.507895 
L 403.606861 77.326588 
L 409.672079 63.195155 
L 415.737296 57.157715 
L 421.802514 66.684355 
L 427.867731 84.670549 
" style="fill:none;stroke:#1f77b4;stroke-linecap:square;stroke-width:3;"/>
   </g>
   <g id="line2d_30">
    <path clip-path="url(#p21fe6b36fe)" d="M 63.954688 272.645455 
L 70.019905 242.956373 
L 76.085122 211.136403 
L 82.15034 177.032602 
L 88.215557 140.481053 
L 94.280774 107.087911 
L 100.345992 74.591585 
L 106.411209 75.087163 
L 112.476427 93.15213 
L 118.541644 112.29164 
L 124.606861 120.906545 
L 130.672079 143.732508 
L 136.737296 152.39288 
L 142.802514 143.591696 
L 148.867731 130.828612 
L 154.932948 113.028799 
L 160.998166 101.804662 
L 167.063383 84.875131 
L 173.128601 86.50681 
L 179.193818 112.49681 
L 185.259035 124.714012 
L 191.324253 152.022147 
L 197.38947 159.918616 
L 203.454688 148.32485 
L 209.519905 135.413171 
L 215.585122 121.001771 
L 221.65034 101.619419 
L 227.715557 96.333791 
L 233.780774 96.298823 
L 239.845992 118.784321 
L 245.911209 148.716695 
L 251.976427 165.411769 
L 258.041644 165.214199 
L 264.106861 156.212637 
L 270.172079 135.989693 
L 276.237296 114.201761 
L 282.302514 100.061262 
L 288.367731 100.713642 
L 294.432948 114.095927 
L 300.498166 127.453268 
L 306.563383 149.583447 
L 312.628601 165.497866 
L 318.693818 164.334066 
L 324.759035 151.893892 
L 330.824253 136.595927 
L 336.88947 117.385899 
L 342.954687 105.299829 
L 349.019905 105.311673 
L 355.085122 115.256887 
L 361.15034 134.930655 
L 367.215557 152.495808 
L 373.280774 159.89278 
L 379.345992 162.767066 
L 385.411209 154.559993 
L 391.476427 136.493679 
L 397.541644 116.677797 
L 403.606861 102.508471 
L 409.672079 100.120657 
L 415.737296 112.349279 
L 421.802514 126.13022 
L 427.867731 144.767084 
" style="fill:none;stroke:#ff7f0e;stroke-linecap:square;stroke-width:3;"/>
   </g>
   <g id="line2d_31">
    <path clip-path="url(#p21fe6b36fe)" d="M 63.954688 272.645455 
L 70.019905 242.956373 
L 76.085122 211.136403 
L 82.15034 177.032602 
L 88.215557 140.481053 
L 94.280774 104.327543 
L 100.345992 67.034307 
L 106.411209 47.880986 
L 112.476427 43.721908 
L 118.541644 47.746611 
L 124.606861 51.135955 
L 130.672079 81.275093 
L 136.737296 105.295547 
L 142.802514 110.384542 
L 148.867731 110.601361 
L 154.932948 95.294334 
L 160.998166 81.416091 
L 167.063383 58.437172 
L 173.128601 52.710682 
L 179.193818 69.332093 
L 185.259035 80.854629 
L 191.324253 119.268059 
L 197.38947 137.754603 
L 203.454688 135.073938 
L 209.519905 126.75346 
L 215.585122 115.072431 
L 221.65034 91.307054 
L 227.715557 80.620369 
L 233.780774 75.89539 
L 239.845992 95.145224 
L 245.911209 128.544538 
L 251.976427 153.503874 
L 258.041644 157.481066 
L 264.106861 151.406146 
L 270.172079 132.497739 
L 276.237296 111.096593 
L 282.302514 95.02677 
L 288.367731 91.357735 
L 294.432948 102.455021 
L 300.498166 114.508064 
L 306.563383 140.01021 
L 312.628601 158.166941 
L 318.693818 160.186297 
L 324.759035 149.534504 
L 330.824253 135.027388 
L 336.88947 115.521374 
L 342.954687 102.330139 
L 349.019905 100.528844 
L 355.085122 109.532004 
L 361.15034 129.989887 
L 367.215557 148.107223 
L 373.280774 156.773609 
L 379.345992 160.907094 
L 385.411209 153.545042 
L 391.476427 135.64402 
L 397.541644 115.688522 
L 403.606861 101.172823 
L 409.672079 98.170554 
L 415.737296 109.382305 
L 421.802514 123.281067 
L 427.867731 142.100826 
" style="fill:none;stroke:#2ca02c;stroke-linecap:square;stroke-width:3;"/>
   </g>
   <g id="patch_3">
    <path d="M 63.954688 285 
L 63.954688 13.2 
" style="fill:none;stroke:#000000;stroke-linecap:square;stroke-linejoin:miter;stroke-width:2;"/>
   </g>
   <g id="patch_4">
    <path d="M 427.867731 285 
L 427.867731 13.2 
" style="fill:none;"/>
   </g>
   <g id="patch_5">
    <path d="M 63.954688 285 
L 427.867731 285 
" style="fill:none;stroke:#000000;stroke-linecap:square;stroke-linejoin:miter;stroke-width:2;"/>
   </g>
   <g id="patch_6">
    <path d="M 63.954688 13.2 
L 427.867731 13.2 
" style="fill:none;"/>
   </g>
   <g id="legend_1">
    <g id="patch_7">
     <path d="M 162.04195 277.5 
L 417.367731 277.5 
Q 420.367731 277.5 420.367731 274.5 
L 420.367731 209.948438 
Q 420.367731 206.948438 417.367731 206.948438 
L 162.04195 206.948438 
Q 159.04195 206.948438 159.04195 209.948438 
L 159.04195 274.5 
Q 159.04195 277.5 162.04195 277.5 
z
" style="fill:#ffffff;opacity:0.8;stroke:#cccccc;stroke-linejoin:miter;"/>
    </g>
    <g id="line2d_32">
     <path d="M 165.04195 219.096094 
L 195.04195 219.096094 
" style="fill:none;stroke:#1f77b4;stroke-linecap:square;stroke-width:3;"/>
    </g>
    <g id="line2d_33"/>
    <g id="text_17">
     <!-- Single Lineage -->
     <defs>
      <path d="M 53.515625 70.515625 
L 53.515625 60.890625 
Q 47.90625 63.578125 42.921875 64.890625 
Q 37.9375 66.21875 33.296875 66.21875 
Q 25.25 66.21875 20.875 63.09375 
Q 16.5 59.96875 16.5 54.203125 
Q 16.5 49.359375 19.40625 46.890625 
Q 22.3125 44.4375 30.421875 42.921875 
L 36.375 41.703125 
Q 47.40625 39.59375 52.65625 34.296875 
Q 57.90625 29 57.90625 20.125 
Q 57.90625 9.515625 50.796875 4.046875 
Q 43.703125 -1.421875 29.984375 -1.421875 
Q 24.8125 -1.421875 18.96875 -0.25 
Q 13.140625 0.921875 6.890625 3.21875 
L 6.890625 13.375 
Q 12.890625 10.015625 18.65625 8.296875 
Q 24.421875 6.59375 29.984375 6.59375 
Q 38.421875 6.59375 43.015625 9.90625 
Q 47.609375 13.234375 47.609375 19.390625 
Q 47.609375 24.75 44.3125 27.78125 
Q 41.015625 30.8125 33.5 32.328125 
L 27.484375 33.5 
Q 16.453125 35.6875 11.515625 40.375 
Q 6.59375 45.0625 6.59375 53.421875 
Q 6.59375 63.09375 13.40625 68.65625 
Q 20.21875 74.21875 32.171875 74.21875 
Q 37.3125 74.21875 42.625 73.28125 
Q 47.953125 72.359375 53.515625 70.515625 
z
" id="DejaVuSans-53"/>
      <path d="M 9.421875 54.6875 
L 18.40625 54.6875 
L 18.40625 0 
L 9.421875 0 
z
M 9.421875 75.984375 
L 18.40625 75.984375 
L 18.40625 64.59375 
L 9.421875 64.59375 
z
" id="DejaVuSans-69"/>
      <path d="M 54.890625 33.015625 
L 54.890625 0 
L 45.90625 0 
L 45.90625 32.71875 
Q 45.90625 40.484375 42.875 44.328125 
Q 39.84375 48.1875 33.796875 48.1875 
Q 26.515625 48.1875 22.3125 43.546875 
Q 18.109375 38.921875 18.109375 30.90625 
L 18.109375 0 
L 9.078125 0 
L 9.078125 54.6875 
L 18.109375 54.6875 
L 18.109375 46.1875 
Q 21.34375 51.125 25.703125 53.5625 
Q 30.078125 56 35.796875 56 
Q 45.21875 56 50.046875 50.171875 
Q 54.890625 44.34375 54.890625 33.015625 
z
" id="DejaVuSans-6e"/>
      <path d="M 45.40625 27.984375 
Q 45.40625 37.75 41.375 43.109375 
Q 37.359375 48.484375 30.078125 48.484375 
Q 22.859375 48.484375 18.828125 43.109375 
Q 14.796875 37.75 14.796875 27.984375 
Q 14.796875 18.265625 18.828125 12.890625 
Q 22.859375 7.515625 30.078125 7.515625 
Q 37.359375 7.515625 41.375 12.890625 
Q 45.40625 18.265625 45.40625 27.984375 
z
M 54.390625 6.78125 
Q 54.390625 -7.171875 48.1875 -13.984375 
Q 42 -20.796875 29.203125 -20.796875 
Q 24.46875 -20.796875 20.265625 -20.09375 
Q 16.0625 -19.390625 12.109375 -17.921875 
L 12.109375 -9.1875 
Q 16.0625 -11.328125 19.921875 -12.34375 
Q 23.78125 -13.375 27.78125 -13.375 
Q 36.625 -13.375 41.015625 -8.765625 
Q 45.40625 -4.15625 45.40625 5.171875 
L 45.40625 9.625 
Q 42.625 4.78125 38.28125 2.390625 
Q 33.9375 0 27.875 0 
Q 17.828125 0 11.671875 7.65625 
Q 5.515625 15.328125 5.515625 27.984375 
Q 5.515625 40.671875 11.671875 48.328125 
Q 17.828125 56 27.875 56 
Q 33.9375 56 38.28125 53.609375 
Q 42.625 51.21875 45.40625 46.390625 
L 45.40625 54.6875 
L 54.390625 54.6875 
z
" id="DejaVuSans-67"/>
      <path d="M 9.421875 75.984375 
L 18.40625 75.984375 
L 18.40625 0 
L 9.421875 0 
z
" id="DejaVuSans-6c"/>
      <path d="M 56.203125 29.59375 
L 56.203125 25.203125 
L 14.890625 25.203125 
Q 15.484375 15.921875 20.484375 11.0625 
Q 25.484375 6.203125 34.421875 6.203125 
Q 39.59375 6.203125 44.453125 7.46875 
Q 49.3125 8.734375 54.109375 11.28125 
L 54.109375 2.78125 
Q 49.265625 0.734375 44.1875 -0.34375 
Q 39.109375 -1.421875 33.890625 -1.421875 
Q 20.796875 -1.421875 13.15625 6.1875 
Q 5.515625 13.8125 5.515625 26.8125 
Q 5.515625 40.234375 12.765625 48.109375 
Q 20.015625 56 32.328125 56 
Q 43.359375 56 49.78125 48.890625 
Q 56.203125 41.796875 56.203125 29.59375 
z
M 47.21875 32.234375 
Q 47.125 39.59375 43.09375 43.984375 
Q 39.0625 48.390625 32.421875 48.390625 
Q 24.90625 48.390625 20.390625 44.140625 
Q 15.875 39.890625 15.1875 32.171875 
z
" id="DejaVuSans-65"/>
      <path d="M 9.8125 72.90625 
L 19.671875 72.90625 
L 19.671875 8.296875 
L 55.171875 8.296875 
L 55.171875 0 
L 9.8125 0 
z
" id="DejaVuSans-4c"/>
      <path d="M 34.28125 27.484375 
Q 23.390625 27.484375 19.1875 25 
Q 14.984375 22.515625 14.984375 16.5 
Q 14.984375 11.71875 18.140625 8.90625 
Q 21.296875 6.109375 26.703125 6.109375 
Q 34.1875 6.109375 38.703125 11.40625 
Q 43.21875 16.703125 43.21875 25.484375 
L 43.21875 27.484375 
z
M 52.203125 31.203125 
L 52.203125 0 
L 43.21875 0 
L 43.21875 8.296875 
Q 40.140625 3.328125 35.546875 0.953125 
Q 30.953125 -1.421875 24.3125 -1.421875 
Q 15.921875 -1.421875 10.953125 3.296875 
Q 6 8.015625 6 15.921875 
Q 6 25.140625 12.171875 29.828125 
Q 18.359375 34.515625 30.609375 34.515625 
L 43.21875 34.515625 
L 43.21875 35.40625 
Q 43.21875 41.609375 39.140625 45 
Q 35.0625 48.390625 27.6875 48.390625 
Q 23 48.390625 18.546875 47.265625 
Q 14.109375 46.140625 10.015625 43.890625 
L 10.015625 52.203125 
Q 14.9375 54.109375 19.578125 55.046875 
Q 24.21875 56 28.609375 56 
Q 40.484375 56 46.34375 49.84375 
Q 52.203125 43.703125 52.203125 31.203125 
z
" id="DejaVuSans-61"/>
     </defs>
     <g transform="translate(207.04195 224.346094)scale(0.15 -0.15)">
      <use xlink:href="#DejaVuSans-53"/>
      <use x="63.476562" xlink:href="#DejaVuSans-69"/>
      <use x="91.259766" xlink:href="#DejaVuSans-6e"/>
      <use x="154.638672" xlink:href="#DejaVuSans-67"/>
      <use x="218.115234" xlink:href="#DejaVuSans-6c"/>
      <use x="245.898438" xlink:href="#DejaVuSans-65"/>
      <use x="307.421875" xlink:href="#DejaVuSans-20"/>
      <use x="339.208984" xlink:href="#DejaVuSans-4c"/>
      <use x="394.921875" xlink:href="#DejaVuSans-69"/>
      <use x="422.705078" xlink:href="#DejaVuSans-6e"/>
      <use x="486.083984" xlink:href="#DejaVuSans-65"/>
      <use x="547.607422" xlink:href="#DejaVuSans-61"/>
      <use x="608.886719" xlink:href="#DejaVuSans-67"/>
      <use x="672.363281" xlink:href="#DejaVuSans-65"/>
     </g>
    </g>
    <g id="line2d_34">
     <path d="M 165.04195 241.113281 
L 195.04195 241.113281 
" style="fill:none;stroke:#ff7f0e;stroke-linecap:square;stroke-width:3;"/>
    </g>
    <g id="line2d_35"/>
    <g id="text_18">
     <!-- Population Snapshots (PBE) -->
     <defs>
      <path d="M 19.671875 64.796875 
L 19.671875 37.40625 
L 32.078125 37.40625 
Q 38.96875 37.40625 42.71875 40.96875 
Q 46.484375 44.53125 46.484375 51.125 
Q 46.484375 57.671875 42.71875 61.234375 
Q 38.96875 64.796875 32.078125 64.796875 
z
M 9.8125 72.90625 
L 32.078125 72.90625 
Q 44.34375 72.90625 50.609375 67.359375 
Q 56.890625 61.8125 56.890625 51.125 
Q 56.890625 40.328125 50.609375 34.8125 
Q 44.34375 29.296875 32.078125 29.296875 
L 19.671875 29.296875 
L 19.671875 0 
L 9.8125 0 
z
" id="DejaVuSans-50"/>
      <path d="M 30.609375 48.390625 
Q 23.390625 48.390625 19.1875 42.75 
Q 14.984375 37.109375 14.984375 27.296875 
Q 14.984375 17.484375 19.15625 11.84375 
Q 23.34375 6.203125 30.609375 6.203125 
Q 37.796875 6.203125 41.984375 11.859375 
Q 46.1875 17.53125 46.1875 27.296875 
Q 46.1875 37.015625 41.984375 42.703125 
Q 37.796875 48.390625 30.609375 48.390625 
z
M 30.609375 56 
Q 42.328125 56 49.015625 48.375 
Q 55.71875 40.765625 55.71875 27.296875 
Q 55.71875 13.875 49.015625 6.21875 
Q 42.328125 -1.421875 30.609375 -1.421875 
Q 18.84375 -1.421875 12.171875 6.21875 
Q 5.515625 13.875 5.515625 27.296875 
Q 5.515625 40.765625 12.171875 48.375 
Q 18.84375 56 30.609375 56 
z
" id="DejaVuSans-6f"/>
      <path d="M 18.109375 8.203125 
L 18.109375 -20.796875 
L 9.078125 -20.796875 
L 9.078125 54.6875 
L 18.109375 54.6875 
L 18.109375 46.390625 
Q 20.953125 51.265625 25.265625 53.625 
Q 29.59375 56 35.59375 56 
Q 45.5625 56 51.78125 48.09375 
Q 58.015625 40.1875 58.015625 27.296875 
Q 58.015625 14.40625 51.78125 6.484375 
Q 45.5625 -1.421875 35.59375 -1.421875 
Q 29.59375 -1.421875 25.265625 0.953125 
Q 20.953125 3.328125 18.109375 8.203125 
z
M 48.6875 27.296875 
Q 48.6875 37.203125 44.609375 42.84375 
Q 40.53125 48.484375 33.40625 48.484375 
Q 26.265625 48.484375 22.1875 42.84375 
Q 18.109375 37.203125 18.109375 27.296875 
Q 18.109375 17.390625 22.1875 11.75 
Q 26.265625 6.109375 33.40625 6.109375 
Q 40.53125 6.109375 44.609375 11.75 
Q 48.6875 17.390625 48.6875 27.296875 
z
" id="DejaVuSans-70"/>
      <path d="M 8.5 21.578125 
L 8.5 54.6875 
L 17.484375 54.6875 
L 17.484375 21.921875 
Q 17.484375 14.15625 20.5 10.265625 
Q 23.53125 6.390625 29.59375 6.390625 
Q 36.859375 6.390625 41.078125 11.03125 
Q 45.3125 15.671875 45.3125 23.6875 
L 45.3125 54.6875 
L 54.296875 54.6875 
L 54.296875 0 
L 45.3125 0 
L 45.3125 8.40625 
Q 42.046875 3.421875 37.71875 1 
Q 33.40625 -1.421875 27.6875 -1.421875 
Q 18.265625 -1.421875 13.375 4.4375 
Q 8.5 10.296875 8.5 21.578125 
z
M 31.109375 56 
z
" id="DejaVuSans-75"/>
      <path d="M 18.3125 70.21875 
L 18.3125 54.6875 
L 36.8125 54.6875 
L 36.8125 47.703125 
L 18.3125 47.703125 
L 18.3125 18.015625 
Q 18.3125 11.328125 20.140625 9.421875 
Q 21.96875 7.515625 27.59375 7.515625 
L 36.8125 7.515625 
L 36.8125 0 
L 27.59375 0 
Q 17.1875 0 13.234375 3.875 
Q 9.28125 7.765625 9.28125 18.015625 
L 9.28125 47.703125 
L 2.6875 47.703125 
L 2.6875 54.6875 
L 9.28125 54.6875 
L 9.28125 70.21875 
z
" id="DejaVuSans-74"/>
      <path d="M 44.28125 53.078125 
L 44.28125 44.578125 
Q 40.484375 46.53125 36.375 47.5 
Q 32.28125 48.484375 27.875 48.484375 
Q 21.1875 48.484375 17.84375 46.4375 
Q 14.5 44.390625 14.5 40.28125 
Q 14.5 37.15625 16.890625 35.375 
Q 19.28125 33.59375 26.515625 31.984375 
L 29.59375 31.296875 
Q 39.15625 29.25 43.1875 25.515625 
Q 47.21875 21.78125 47.21875 15.09375 
Q 47.21875 7.46875 41.1875 3.015625 
Q 35.15625 -1.421875 24.609375 -1.421875 
Q 20.21875 -1.421875 15.453125 -0.5625 
Q 10.6875 0.296875 5.421875 2 
L 5.421875 11.28125 
Q 10.40625 8.6875 15.234375 7.390625 
Q 20.0625 6.109375 24.8125 6.109375 
Q 31.15625 6.109375 34.5625 8.28125 
Q 37.984375 10.453125 37.984375 14.40625 
Q 37.984375 18.0625 35.515625 20.015625 
Q 33.0625 21.96875 24.703125 23.78125 
L 21.578125 24.515625 
Q 13.234375 26.265625 9.515625 29.90625 
Q 5.8125 33.546875 5.8125 39.890625 
Q 5.8125 47.609375 11.28125 51.796875 
Q 16.75 56 26.8125 56 
Q 31.78125 56 36.171875 55.265625 
Q 40.578125 54.546875 44.28125 53.078125 
z
" id="DejaVuSans-73"/>
      <path d="M 54.890625 33.015625 
L 54.890625 0 
L 45.90625 0 
L 45.90625 32.71875 
Q 45.90625 40.484375 42.875 44.328125 
Q 39.84375 48.1875 33.796875 48.1875 
Q 26.515625 48.1875 22.3125 43.546875 
Q 18.109375 38.921875 18.109375 30.90625 
L 18.109375 0 
L 9.078125 0 
L 9.078125 75.984375 
L 18.109375 75.984375 
L 18.109375 46.1875 
Q 21.34375 51.125 25.703125 53.5625 
Q 30.078125 56 35.796875 56 
Q 45.21875 56 50.046875 50.171875 
Q 54.890625 44.34375 54.890625 33.015625 
z
" id="DejaVuSans-68"/>
      <path d="M 19.671875 34.8125 
L 19.671875 8.109375 
L 35.5 8.109375 
Q 43.453125 8.109375 47.28125 11.40625 
Q 51.125 14.703125 51.125 21.484375 
Q 51.125 28.328125 47.28125 31.5625 
Q 43.453125 34.8125 35.5 34.8125 
z
M 19.671875 64.796875 
L 19.671875 42.828125 
L 34.28125 42.828125 
Q 41.5 42.828125 45.03125 45.53125 
Q 48.578125 48.25 48.578125 53.8125 
Q 48.578125 59.328125 45.03125 62.0625 
Q 41.5 64.796875 34.28125 64.796875 
z
M 9.8125 72.90625 
L 35.015625 72.90625 
Q 46.296875 72.90625 52.390625 68.21875 
Q 58.5 63.53125 58.5 54.890625 
Q 58.5 48.1875 55.375 44.234375 
Q 52.25 40.28125 46.1875 39.3125 
Q 53.46875 37.75 57.5 32.78125 
Q 61.53125 27.828125 61.53125 20.40625 
Q 61.53125 10.640625 54.890625 5.3125 
Q 48.25 0 35.984375 0 
L 9.8125 0 
z
" id="DejaVuSans-42"/>
      <path d="M 9.8125 72.90625 
L 55.90625 72.90625 
L 55.90625 64.59375 
L 19.671875 64.59375 
L 19.671875 43.015625 
L 54.390625 43.015625 
L 54.390625 34.71875 
L 19.671875 34.71875 
L 19.671875 8.296875 
L 56.78125 8.296875 
L 56.78125 0 
L 9.8125 0 
z
" id="DejaVuSans-45"/>
     </defs>
     <g transform="translate(207.04195 246.363281)scale(0.15 -0.15)">
      <use xlink:href="#DejaVuSans-50"/>
      <use x="60.255859" xlink:href="#DejaVuSans-6f"/>
      <use x="121.4375" xlink:href="#DejaVuSans-70"/>
      <use x="184.914062" xlink:href="#DejaVuSans-75"/>
      <use x="248.292969" xlink:href="#DejaVuSans-6c"/>
      <use x="276.076172" xlink:href="#DejaVuSans-61"/>
      <use x="337.355469" xlink:href="#DejaVuSans-74"/>
      <use x="376.564453" xlink:href="#DejaVuSans-69"/>
      <use x="404.347656" xlink:href="#DejaVuSans-6f"/>
      <use x="465.529297" xlink:href="#DejaVuSans-6e"/>
      <use x="528.908203" xlink:href="#DejaVuSans-20"/>
      <use x="560.695312" xlink:href="#DejaVuSans-53"/>
      <use x="624.171875" xlink:href="#DejaVuSans-6e"/>
      <use x="687.550781" xlink:href="#DejaVuSans-61"/>
      <use x="748.830078" xlink:href="#DejaVuSans-70"/>
      <use x="812.306641" xlink:href="#DejaVuSans-73"/>
      <use x="864.40625" xlink:href="#DejaVuSans-68"/>
      <use x="927.785156" xlink:href="#DejaVuSans-6f"/>
      <use x="988.966797" xlink:href="#DejaVuSans-74"/>
      <use x="1028.175781" xlink:href="#DejaVuSans-73"/>
      <use x="1080.275391" xlink:href="#DejaVuSans-20"/>
      <use x="1112.0625" xlink:href="#DejaVuSans-28"/>
      <use x="1151.076172" xlink:href="#DejaVuSans-50"/>
      <use x="1211.378906" xlink:href="#DejaVuSans-42"/>
      <use x="1279.982422" xlink:href="#DejaVuSans-45"/>
      <use x="1343.166016" xlink:href="#DejaVuSans-29"/>
     </g>
    </g>
    <g id="line2d_36">
     <path d="M 165.04195 263.130469 
L 195.04195 263.130469 
" style="fill:none;stroke:#2ca02c;stroke-linecap:square;stroke-width:3;"/>
    </g>
    <g id="line2d_37"/>
    <g id="text_19">
     <!-- Lineage Tracking -->
     <defs>
      <path d="M -0.296875 72.90625 
L 61.375 72.90625 
L 61.375 64.59375 
L 35.5 64.59375 
L 35.5 0 
L 25.59375 0 
L 25.59375 64.59375 
L -0.296875 64.59375 
z
" id="DejaVuSans-54"/>
      <path d="M 41.109375 46.296875 
Q 39.59375 47.171875 37.8125 47.578125 
Q 36.03125 48 33.890625 48 
Q 26.265625 48 22.1875 43.046875 
Q 18.109375 38.09375 18.109375 28.8125 
L 18.109375 0 
L 9.078125 0 
L 9.078125 54.6875 
L 18.109375 54.6875 
L 18.109375 46.1875 
Q 20.953125 51.171875 25.484375 53.578125 
Q 30.03125 56 36.53125 56 
Q 37.453125 56 38.578125 55.875 
Q 39.703125 55.765625 41.0625 55.515625 
z
" id="DejaVuSans-72"/>
      <path d="M 48.78125 52.59375 
L 48.78125 44.1875 
Q 44.96875 46.296875 41.140625 47.34375 
Q 37.3125 48.390625 33.40625 48.390625 
Q 24.65625 48.390625 19.8125 42.84375 
Q 14.984375 37.3125 14.984375 27.296875 
Q 14.984375 17.28125 19.8125 11.734375 
Q 24.65625 6.203125 33.40625 6.203125 
Q 37.3125 6.203125 41.140625 7.25 
Q 44.96875 8.296875 48.78125 10.40625 
L 48.78125 2.09375 
Q 45.015625 0.34375 40.984375 -0.53125 
Q 36.96875 -1.421875 32.421875 -1.421875 
Q 20.0625 -1.421875 12.78125 6.34375 
Q 5.515625 14.109375 5.515625 27.296875 
Q 5.515625 40.671875 12.859375 48.328125 
Q 20.21875 56 33.015625 56 
Q 37.15625 56 41.109375 55.140625 
Q 45.0625 54.296875 48.78125 52.59375 
z
" id="DejaVuSans-63"/>
      <path d="M 9.078125 75.984375 
L 18.109375 75.984375 
L 18.109375 31.109375 
L 44.921875 54.6875 
L 56.390625 54.6875 
L 27.390625 29.109375 
L 57.625 0 
L 45.90625 0 
L 18.109375 26.703125 
L 18.109375 0 
L 9.078125 0 
z
" id="DejaVuSans-6b"/>
     </defs>
     <g transform="translate(207.04195 268.380469)scale(0.15 -0.15)">
      <use xlink:href="#DejaVuSans-4c"/>
      <use x="55.712891" xlink:href="#DejaVuSans-69"/>
      <use x="83.496094" xlink:href="#DejaVuSans-6e"/>
      <use x="146.875" xlink:href="#DejaVuSans-65"/>
      <use x="208.398438" xlink:href="#DejaVuSans-61"/>
      <use x="269.677734" xlink:href="#DejaVuSans-67"/>
      <use x="333.154297" xlink:href="#DejaVuSans-65"/>
      <use x="394.677734" xlink:href="#DejaVuSans-20"/>
      <use x="426.464844" xlink:href="#DejaVuSans-54"/>
      <use x="487.330078" xlink:href="#DejaVuSans-72"/>
      <use x="528.443359" xlink:href="#DejaVuSans-61"/>
      <use x="589.722656" xlink:href="#DejaVuSans-63"/>
      <use x="644.703125" xlink:href="#DejaVuSans-6b"/>
      <use x="702.613281" xlink:href="#DejaVuSans-69"/>
      <use x="730.396484" xlink:href="#DejaVuSans-6e"/>
      <use x="793.775391" xlink:href="#DejaVuSans-67"/>
     </g>
    </g>
   </g>
  </g>
  <g id="axes_2">
   <g id="patch_8">
    <path d="M 537.041644 285 
L 900.954688 285 
L 900.954688 13.2 
L 537.041644 13.2 
z
" style="fill:#ffffff;"/>
   </g>
   <g id="PolyCollection_4">
    <defs>
     <path d="M 537.041644 -67.521397 
L 537.041644 -67.521397 
L 543.106861 -67.521397 
L 549.172079 -67.521397 
L 555.237296 -67.521397 
L 561.302514 -67.413437 
L 567.367731 -70.243063 
L 573.432948 -80.506294 
L 579.498166 -107.043882 
L 585.563383 -159.133215 
L 591.628601 -226.428094 
L 597.693818 -285.093674 
L 603.759035 -309.883478 
L 609.824253 -266.966476 
L 615.88947 -189.163211 
L 621.954688 -127.33835 
L 628.019905 -104.884398 
L 634.085122 -105.325212 
L 640.15034 -128.144058 
L 646.215557 -177.184635 
L 652.280774 -231.12616 
L 658.345992 -285.757021 
L 664.411209 -311.136253 
L 670.476427 -277.975418 
L 676.541644 -213.675393 
L 682.606861 -147.143183 
L 688.672079 -114.114762 
L 694.737296 -108.608203 
L 700.802514 -133.250889 
L 706.867731 -183.387606 
L 712.932948 -238.104713 
L 718.998166 -288.698434 
L 725.063383 -310.788085 
L 731.128601 -278.154809 
L 737.193818 -217.843156 
L 743.259035 -147.590218 
L 749.324253 -110.812721 
L 755.38947 -106.950594 
L 761.454687 -135.709317 
L 767.519905 -180.127797 
L 773.585122 -238.683057 
L 779.65034 -289.757759 
L 785.715557 -310.498422 
L 791.780774 -275.392753 
L 797.845992 -208.949186 
L 803.911209 -143.455157 
L 809.976427 -116.597404 
L 816.041644 -108.951793 
L 822.106861 -137.27636 
L 828.172079 -185.473619 
L 834.237296 -246.641608 
L 840.302514 -289.114647 
L 846.367731 -310.177723 
L 852.432948 -273.442391 
L 858.498166 -211.807102 
L 864.563383 -141.806526 
L 870.628601 -105.508496 
L 876.693818 -104.29933 
L 882.759035 -137.269811 
L 888.824253 -182.719065 
L 894.88947 -241.227629 
L 900.954687 -291.659472 
L 900.954687 -300.469561 
L 900.954687 -300.469561 
L 894.88947 -254.870285 
L 888.824253 -198.048883 
L 882.759035 -152.56889 
L 876.693818 -118.009964 
L 870.628601 -124.197655 
L 864.563383 -165.622092 
L 858.498166 -234.370045 
L 852.432948 -287.707275 
L 846.367731 -312.182997 
L 840.302514 -298.034784 
L 834.237296 -260.489329 
L 828.172079 -200.109466 
L 822.106861 -150.451574 
L 816.041644 -122.457686 
L 809.976427 -137.025956 
L 803.911209 -167.545176 
L 797.845992 -231.530603 
L 791.780774 -289.074832 
L 785.715557 -312.819325 
L 779.65034 -298.28946 
L 773.585122 -252.857484 
L 767.519905 -193.774003 
L 761.454687 -148.578078 
L 755.38947 -119.700276 
L 749.324253 -130.233067 
L 743.259035 -170.90889 
L 737.193818 -240.049689 
L 731.128601 -292.522561 
L 725.063383 -312.82326 
L 718.998166 -297.742204 
L 712.932948 -253.421514 
L 706.867731 -199.597564 
L 700.802514 -146.827622 
L 694.737296 -124.690348 
L 688.672079 -134.254612 
L 682.606861 -169.977867 
L 676.541644 -235.709623 
L 670.476427 -293.074251 
L 664.411209 -314.018892 
L 658.345992 -295.855451 
L 652.280774 -244.793874 
L 646.215557 -191.789407 
L 640.15034 -140.745031 
L 634.085122 -119.695116 
L 628.019905 -122.231961 
L 621.954688 -148.041048 
L 615.88947 -212.510612 
L 609.824253 -282.747369 
L 603.759035 -311.504372 
L 597.693818 -295.04467 
L 591.628601 -240.695488 
L 585.563383 -172.674415 
L 579.498166 -116.963765 
L 573.432948 -86.836888 
L 567.367731 -73.654669 
L 561.302514 -68.144543 
L 555.237296 -67.521397 
L 549.172079 -67.521397 
L 543.106861 -67.521397 
L 537.041644 -67.521397 
z
" id="m15e75c586c"/>
    </defs>
    <g clip-path="url(#p855b93b324)">
     <use style="fill:#4db8ff;" x="0" xlink:href="#m15e75c586c" y="339.573438"/>
    </g>
   </g>
   <g id="PolyCollection_5">
    <defs>
     <path d="M 537.041644 -67.521397 
L 537.041644 -67.521397 
L 543.106861 -67.521397 
L 549.172079 -67.521397 
L 555.237296 -67.521397 
L 561.302514 -67.521397 
L 567.367731 -69.874894 
L 573.432948 -79.773098 
L 579.498166 -134.228703 
L 585.563383 -211.000165 
L 591.628601 -274.419609 
L 597.693818 -305.75365 
L 603.759035 -279.15458 
L 609.824253 -215.688024 
L 615.88947 -158.977047 
L 621.954688 -118.377752 
L 628.019905 -114.775127 
L 634.085122 -135.974365 
L 640.15034 -163.640029 
L 646.215557 -208.069844 
L 652.280774 -277.667614 
L 658.345992 -308.219486 
L 664.411209 -277.681814 
L 670.476427 -205.843338 
L 676.541644 -152.093689 
L 682.606861 -121.548515 
L 688.672079 -104.302858 
L 694.737296 -132.735478 
L 700.802514 -179.42007 
L 706.867731 -224.178849 
L 712.932948 -285.515661 
L 718.998166 -307.361464 
L 725.063383 -261.604696 
L 731.128601 -202.534348 
L 737.193818 -143.124116 
L 743.259035 -121.680464 
L 749.324253 -110.99554 
L 755.38947 -136.886945 
L 761.454687 -184.234433 
L 767.519905 -249.61807 
L 773.585122 -294.162107 
L 779.65034 -309.087059 
L 785.715557 -267.830821 
L 791.780774 -208.341932 
L 797.845992 -154.358347 
L 803.911209 -118.587567 
L 809.976427 -114.07836 
L 816.041644 -142.379875 
L 822.106861 -195.677936 
L 828.172079 -253.277655 
L 834.237296 -300.245361 
L 840.302514 -308.357124 
L 846.367731 -275.857398 
L 852.432948 -215.455215 
L 858.498166 -154.969118 
L 864.563383 -119.432299 
L 870.628601 -116.838332 
L 876.693818 -141.832387 
L 882.759035 -190.737668 
L 888.824253 -250.805401 
L 894.88947 -295.099378 
L 900.954687 -310.127294 
L 900.954687 -311.133629 
L 900.954687 -311.133629 
L 894.88947 -299.352406 
L 888.824253 -257.862571 
L 882.759035 -199.491843 
L 876.693818 -150.413982 
L 870.628601 -126.555745 
L 864.563383 -131.65856 
L 858.498166 -168.487528 
L 852.432948 -228.797656 
L 846.367731 -284.556322 
L 840.302514 -311.197516 
L 834.237296 -306.404439 
L 828.172079 -263.853137 
L 822.106861 -208.002862 
L 816.041644 -154.832355 
L 809.976427 -126.670892 
L 803.911209 -134.921652 
L 797.845992 -173.729862 
L 791.780774 -228.300243 
L 785.715557 -282.229248 
L 779.65034 -312.702918 
L 773.585122 -301.663518 
L 767.519905 -264.344448 
L 761.454687 -200.076419 
L 755.38947 -155.429367 
L 749.324253 -130.195755 
L 743.259035 -146.132383 
L 737.193818 -171.420112 
L 731.128601 -228.666426 
L 725.063383 -280.966359 
L 718.998166 -311.433258 
L 712.932948 -298.535845 
L 706.867731 -245.373427 
L 700.802514 -205.22275 
L 694.737296 -156.57192 
L 688.672079 -126.603258 
L 682.606861 -155.393787 
L 676.541644 -189.727712 
L 670.476427 -242.007652 
L 664.411209 -300.22554 
L 658.345992 -311.915892 
L 652.280774 -297.495131 
L 646.215557 -237.783174 
L 640.15034 -206.125237 
L 634.085122 -178.248348 
L 628.019905 -160.923109 
L 621.954688 -167.917752 
L 615.88947 -215.225978 
L 609.824253 -264.22904 
L 603.759035 -305.27951 
L 597.693818 -312.714378 
L 591.628601 -300.62388 
L 585.563383 -253.179173 
L 579.498166 -174.973606 
L 573.432948 -103.499276 
L 567.367731 -84.346999 
L 561.302514 -67.521397 
L 555.237296 -67.521397 
L 549.172079 -67.521397 
L 543.106861 -67.521397 
L 537.041644 -67.521397 
z
" id="mb57ba5d545"/>
    </defs>
    <g clip-path="url(#p855b93b324)">
     <use style="fill:#ffa035;" x="0" xlink:href="#mb57ba5d545" y="339.573438"/>
    </g>
   </g>
   <g id="PolyCollection_6">
    <defs>
     <path d="M 537.041644 -67.521397 
L 537.041644 -67.521397 
L 543.106861 -67.521397 
L 549.172079 -67.521397 
L 555.237296 -67.521397 
L 561.302514 -67.521397 
L 567.367731 -67.521397 
L 573.432948 -67.521397 
L 579.498166 -67.521397 
L 585.563383 -67.521397 
L 591.628601 -67.521397 
L 597.693818 -67.521397 
L 603.759035 -67.521397 
L 609.824253 -66.927983 
L 615.88947 -67.475094 
L 621.954688 -69.953542 
L 628.019905 -75.975416 
L 634.085122 -88.396903 
L 640.15034 -99.057641 
L 646.215557 -116.533506 
L 652.280774 -134.161683 
L 658.345992 -148.24156 
L 664.411209 -146.515847 
L 670.476427 -115.870942 
L 676.541644 -102.928238 
L 682.606861 -93.369944 
L 688.672079 -89.559665 
L 694.737296 -107.324316 
L 700.802514 -139.090857 
L 706.867731 -168.507508 
L 712.932948 -205.216628 
L 718.998166 -217.406598 
L 725.063383 -201.792923 
L 731.128601 -162.866341 
L 737.193818 -121.713009 
L 743.259035 -108.325168 
L 749.324253 -101.516137 
L 755.38947 -123.883708 
L 761.454687 -159.562731 
L 767.519905 -213.168776 
L 773.585122 -249.187554 
L 779.65034 -265.218722 
L 785.715557 -231.629024 
L 791.780774 -186.232823 
L 797.845992 -141.188257 
L 803.911209 -111.620551 
L 809.976427 -108.177024 
L 816.041644 -134.502124 
L 822.106861 -182.663858 
L 828.172079 -235.72117 
L 834.237296 -281.083325 
L 840.302514 -287.641943 
L 846.367731 -259.21104 
L 852.432948 -202.941878 
L 858.498166 -148.52477 
L 864.563383 -115.821872 
L 870.628601 -113.315022 
L 876.693818 -137.497625 
L 882.759035 -185.288437 
L 888.824253 -241.446479 
L 894.88947 -285.082307 
L 900.954687 -298.215963 
L 900.954687 -302.115908 
L 900.954687 -302.115908 
L 894.88947 -291.015639 
L 888.824253 -251.704807 
L 882.759035 -195.623158 
L 876.693818 -148.210275 
L 870.628601 -124.698091 
L 864.563383 -128.168562 
L 858.498166 -162.545007 
L 852.432948 -217.351229 
L 846.367731 -269.813739 
L 840.302514 -294.287104 
L 834.237296 -289.597185 
L 828.172079 -250.806889 
L 822.106861 -198.343838 
L 816.041644 -148.991916 
L 809.976427 -121.526367 
L 803.911209 -127.435472 
L 797.845992 -159.275508 
L 791.780774 -205.414829 
L 785.715557 -249.273614 
L 779.65034 -278.057814 
L 773.585122 -264.248522 
L 767.519905 -231.831011 
L 761.454687 -180.818106 
L 755.38947 -143.619755 
L 749.324253 -119.645274 
L 743.259035 -127.604274 
L 737.193818 -142.65995 
L 731.128601 -185.644854 
L 725.063383 -225.249232 
L 718.998166 -239.355 
L 712.932948 -228.672937 
L 706.867731 -191.659189 
L 700.802514 -162.562397 
L 694.737296 -128.054209 
L 688.672079 -106.329402 
L 682.606861 -111.952214 
L 676.541644 -125.470664 
L 670.476427 -141.155014 
L 664.411209 -173.323057 
L 658.345992 -175.04877 
L 652.280774 -162.187402 
L 646.215557 -140.903697 
L 640.15034 -120.990812 
L 634.085122 -105.456036 
L 628.019905 -90.59753 
L 621.954688 -79.701618 
L 615.88947 -72.349132 
L 609.824253 -70.583511 
L 603.759035 -67.521397 
L 597.693818 -67.521397 
L 591.628601 -67.521397 
L 585.563383 -67.521397 
L 579.498166 -67.521397 
L 573.432948 -67.521397 
L 567.367731 -67.521397 
L 561.302514 -67.521397 
L 555.237296 -67.521397 
L 549.172079 -67.521397 
L 543.106861 -67.521397 
L 537.041644 -67.521397 
z
" id="m466a660f12"/>
    </defs>
    <g clip-path="url(#p855b93b324)">
     <use style="fill:#47d200;" x="0" xlink:href="#m466a660f12" y="339.573438"/>
    </g>
   </g>
   <g id="matplotlib.axis_3">
    <g id="xtick_8">
     <g id="line2d_38">
      <path clip-path="url(#p855b93b324)" d="M 537.041644 285 
L 537.041644 13.2 
" style="fill:none;stroke:#b0b0b0;stroke-linecap:square;stroke-width:0.8;"/>
     </g>
     <g id="line2d_39">
      <g>
       <use x="537.041644" xlink:href="#me049356ca2" y="285"/>
      </g>
     </g>
     <g id="text_20">
      <!-- 0 -->
      <g transform="translate(532.269769 305.897656)scale(0.15 -0.15)">
       <use xlink:href="#DejaVuSans-30"/>
      </g>
     </g>
    </g>
    <g id="xtick_9">
     <g id="line2d_40">
      <path clip-path="url(#p855b93b324)" d="M 597.693818 285 
L 597.693818 13.2 
" style="fill:none;stroke:#b0b0b0;stroke-linecap:square;stroke-width:0.8;"/>
     </g>
     <g id="line2d_41">
      <g>
       <use x="597.693818" xlink:href="#me049356ca2" y="285"/>
      </g>
     </g>
     <g id="text_21">
      <!-- 1 -->
      <g transform="translate(592.921943 305.897656)scale(0.15 -0.15)">
       <use xlink:href="#DejaVuSans-31"/>
      </g>
     </g>
    </g>
    <g id="xtick_10">
     <g id="line2d_42">
      <path clip-path="url(#p855b93b324)" d="M 658.345992 285 
L 658.345992 13.2 
" style="fill:none;stroke:#b0b0b0;stroke-linecap:square;stroke-width:0.8;"/>
     </g>
     <g id="line2d_43">
      <g>
       <use x="658.345992" xlink:href="#me049356ca2" y="285"/>
      </g>
     </g>
     <g id="text_22">
      <!-- 2 -->
      <g transform="translate(653.574117 305.897656)scale(0.15 -0.15)">
       <use xlink:href="#DejaVuSans-32"/>
      </g>
     </g>
    </g>
    <g id="xtick_11">
     <g id="line2d_44">
      <path clip-path="url(#p855b93b324)" d="M 718.998166 285 
L 718.998166 13.2 
" style="fill:none;stroke:#b0b0b0;stroke-linecap:square;stroke-width:0.8;"/>
     </g>
     <g id="line2d_45">
      <g>
       <use x="718.998166" xlink:href="#me049356ca2" y="285"/>
      </g>
     </g>
     <g id="text_23">
      <!-- 3 -->
      <g transform="translate(714.226291 305.897656)scale(0.15 -0.15)">
       <use xlink:href="#DejaVuSans-33"/>
      </g>
     </g>
    </g>
    <g id="xtick_12">
     <g id="line2d_46">
      <path clip-path="url(#p855b93b324)" d="M 779.65034 285 
L 779.65034 13.2 
" style="fill:none;stroke:#b0b0b0;stroke-linecap:square;stroke-width:0.8;"/>
     </g>
     <g id="line2d_47">
      <g>
       <use x="779.65034" xlink:href="#me049356ca2" y="285"/>
      </g>
     </g>
     <g id="text_24">
      <!-- 4 -->
      <g transform="translate(774.878465 305.897656)scale(0.15 -0.15)">
       <use xlink:href="#DejaVuSans-34"/>
      </g>
     </g>
    </g>
    <g id="xtick_13">
     <g id="line2d_48">
      <path clip-path="url(#p855b93b324)" d="M 840.302514 285 
L 840.302514 13.2 
" style="fill:none;stroke:#b0b0b0;stroke-linecap:square;stroke-width:0.8;"/>
     </g>
     <g id="line2d_49">
      <g>
       <use x="840.302514" xlink:href="#me049356ca2" y="285"/>
      </g>
     </g>
     <g id="text_25">
      <!-- 5 -->
      <g transform="translate(835.530639 305.897656)scale(0.15 -0.15)">
       <use xlink:href="#DejaVuSans-35"/>
      </g>
     </g>
    </g>
    <g id="xtick_14">
     <g id="line2d_50">
      <path clip-path="url(#p855b93b324)" d="M 900.954688 285 
L 900.954688 13.2 
" style="fill:none;stroke:#b0b0b0;stroke-linecap:square;stroke-width:0.8;"/>
     </g>
     <g id="line2d_51">
      <g>
       <use x="900.954688" xlink:href="#me049356ca2" y="285"/>
      </g>
     </g>
     <g id="text_26">
      <!-- 6 -->
      <g transform="translate(896.182813 305.897656)scale(0.15 -0.15)">
       <use xlink:href="#DejaVuSans-36"/>
      </g>
     </g>
    </g>
    <g id="text_27">
     <!-- $t/\tau$ -->
     <g transform="translate(705.598166 328.214063)scale(0.2 -0.2)">
      <use transform="translate(0 0.09375)" xlink:href="#DejaVuSans-Oblique-74"/>
      <use transform="translate(39.208984 0.09375)" xlink:href="#DejaVuSans-2f"/>
      <use transform="translate(72.900391 0.09375)" xlink:href="#DejaVuSans-Oblique-3c4"/>
     </g>
    </g>
   </g>
   <g id="matplotlib.axis_4">
    <g id="ytick_8">
     <g id="line2d_52">
      <path clip-path="url(#p855b93b324)" d="M 537.041644 272.05204 
L 900.954688 272.05204 
" style="fill:none;stroke:#b0b0b0;stroke-linecap:square;stroke-width:0.8;"/>
     </g>
     <g id="line2d_53">
      <g>
       <use x="537.041644" xlink:href="#m5b654da70a" y="272.05204"/>
      </g>
     </g>
     <g id="text_28">
      <!-- 0.00 -->
      <g transform="translate(494.143207 277.750869)scale(0.15 -0.15)">
       <use xlink:href="#DejaVuSans-30"/>
       <use x="63.623047" xlink:href="#DejaVuSans-2e"/>
       <use x="95.410156" xlink:href="#DejaVuSans-30"/>
       <use x="159.033203" xlink:href="#DejaVuSans-30"/>
      </g>
     </g>
    </g>
    <g id="ytick_9">
     <g id="line2d_54">
      <path clip-path="url(#p855b93b324)" d="M 537.041644 233.059736 
L 900.954688 233.059736 
" style="fill:none;stroke:#b0b0b0;stroke-linecap:square;stroke-width:0.8;"/>
     </g>
     <g id="line2d_55">
      <g>
       <use x="537.041644" xlink:href="#m5b654da70a" y="233.059736"/>
      </g>
     </g>
     <g id="text_29">
      <!-- 0.02 -->
      <g transform="translate(494.143207 238.758564)scale(0.15 -0.15)">
       <use xlink:href="#DejaVuSans-30"/>
       <use x="63.623047" xlink:href="#DejaVuSans-2e"/>
       <use x="95.410156" xlink:href="#DejaVuSans-30"/>
       <use x="159.033203" xlink:href="#DejaVuSans-32"/>
      </g>
     </g>
    </g>
    <g id="ytick_10">
     <g id="line2d_56">
      <path clip-path="url(#p855b93b324)" d="M 537.041644 194.067431 
L 900.954688 194.067431 
" style="fill:none;stroke:#b0b0b0;stroke-linecap:square;stroke-width:0.8;"/>
     </g>
     <g id="line2d_57">
      <g>
       <use x="537.041644" xlink:href="#m5b654da70a" y="194.067431"/>
      </g>
     </g>
     <g id="text_30">
      <!-- 0.04 -->
      <g transform="translate(494.143207 199.766259)scale(0.15 -0.15)">
       <use xlink:href="#DejaVuSans-30"/>
       <use x="63.623047" xlink:href="#DejaVuSans-2e"/>
       <use x="95.410156" xlink:href="#DejaVuSans-30"/>
       <use x="159.033203" xlink:href="#DejaVuSans-34"/>
      </g>
     </g>
    </g>
    <g id="ytick_11">
     <g id="line2d_58">
      <path clip-path="url(#p855b93b324)" d="M 537.041644 155.075126 
L 900.954688 155.075126 
" style="fill:none;stroke:#b0b0b0;stroke-linecap:square;stroke-width:0.8;"/>
     </g>
     <g id="line2d_59">
      <g>
       <use x="537.041644" xlink:href="#m5b654da70a" y="155.075126"/>
      </g>
     </g>
     <g id="text_31">
      <!-- 0.06 -->
      <g transform="translate(494.143207 160.773955)scale(0.15 -0.15)">
       <use xlink:href="#DejaVuSans-30"/>
       <use x="63.623047" xlink:href="#DejaVuSans-2e"/>
       <use x="95.410156" xlink:href="#DejaVuSans-30"/>
       <use x="159.033203" xlink:href="#DejaVuSans-36"/>
      </g>
     </g>
    </g>
    <g id="ytick_12">
     <g id="line2d_60">
      <path clip-path="url(#p855b93b324)" d="M 537.041644 116.082822 
L 900.954688 116.082822 
" style="fill:none;stroke:#b0b0b0;stroke-linecap:square;stroke-width:0.8;"/>
     </g>
     <g id="line2d_61">
      <g>
       <use x="537.041644" xlink:href="#m5b654da70a" y="116.082822"/>
      </g>
     </g>
     <g id="text_32">
      <!-- 0.08 -->
      <defs>
       <path d="M 31.78125 34.625 
Q 24.75 34.625 20.71875 30.859375 
Q 16.703125 27.09375 16.703125 20.515625 
Q 16.703125 13.921875 20.71875 10.15625 
Q 24.75 6.390625 31.78125 6.390625 
Q 38.8125 6.390625 42.859375 10.171875 
Q 46.921875 13.96875 46.921875 20.515625 
Q 46.921875 27.09375 42.890625 30.859375 
Q 38.875 34.625 31.78125 34.625 
z
M 21.921875 38.8125 
Q 15.578125 40.375 12.03125 44.71875 
Q 8.5 49.078125 8.5 55.328125 
Q 8.5 64.0625 14.71875 69.140625 
Q 20.953125 74.21875 31.78125 74.21875 
Q 42.671875 74.21875 48.875 69.140625 
Q 55.078125 64.0625 55.078125 55.328125 
Q 55.078125 49.078125 51.53125 44.71875 
Q 48 40.375 41.703125 38.8125 
Q 48.828125 37.15625 52.796875 32.3125 
Q 56.78125 27.484375 56.78125 20.515625 
Q 56.78125 9.90625 50.3125 4.234375 
Q 43.84375 -1.421875 31.78125 -1.421875 
Q 19.734375 -1.421875 13.25 4.234375 
Q 6.78125 9.90625 6.78125 20.515625 
Q 6.78125 27.484375 10.78125 32.3125 
Q 14.796875 37.15625 21.921875 38.8125 
z
M 18.3125 54.390625 
Q 18.3125 48.734375 21.84375 45.5625 
Q 25.390625 42.390625 31.78125 42.390625 
Q 38.140625 42.390625 41.71875 45.5625 
Q 45.3125 48.734375 45.3125 54.390625 
Q 45.3125 60.0625 41.71875 63.234375 
Q 38.140625 66.40625 31.78125 66.40625 
Q 25.390625 66.40625 21.84375 63.234375 
Q 18.3125 60.0625 18.3125 54.390625 
z
" id="DejaVuSans-38"/>
      </defs>
      <g transform="translate(494.143207 121.78165)scale(0.15 -0.15)">
       <use xlink:href="#DejaVuSans-30"/>
       <use x="63.623047" xlink:href="#DejaVuSans-2e"/>
       <use x="95.410156" xlink:href="#DejaVuSans-30"/>
       <use x="159.033203" xlink:href="#DejaVuSans-38"/>
      </g>
     </g>
    </g>
    <g id="ytick_13">
     <g id="line2d_62">
      <path clip-path="url(#p855b93b324)" d="M 537.041644 77.090517 
L 900.954688 77.090517 
" style="fill:none;stroke:#b0b0b0;stroke-linecap:square;stroke-width:0.8;"/>
     </g>
     <g id="line2d_63">
      <g>
       <use x="537.041644" xlink:href="#m5b654da70a" y="77.090517"/>
      </g>
     </g>
     <g id="text_33">
      <!-- 0.10 -->
      <g transform="translate(494.143207 82.789345)scale(0.15 -0.15)">
       <use xlink:href="#DejaVuSans-30"/>
       <use x="63.623047" xlink:href="#DejaVuSans-2e"/>
       <use x="95.410156" xlink:href="#DejaVuSans-31"/>
       <use x="159.033203" xlink:href="#DejaVuSans-30"/>
      </g>
     </g>
    </g>
    <g id="ytick_14">
     <g id="line2d_64">
      <path clip-path="url(#p855b93b324)" d="M 537.041644 38.098212 
L 900.954688 38.098212 
" style="fill:none;stroke:#b0b0b0;stroke-linecap:square;stroke-width:0.8;"/>
     </g>
     <g id="line2d_65">
      <g>
       <use x="537.041644" xlink:href="#m5b654da70a" y="38.098212"/>
      </g>
     </g>
     <g id="text_34">
      <!-- 0.12 -->
      <g transform="translate(494.143207 43.79704)scale(0.15 -0.15)">
       <use xlink:href="#DejaVuSans-30"/>
       <use x="63.623047" xlink:href="#DejaVuSans-2e"/>
       <use x="95.410156" xlink:href="#DejaVuSans-31"/>
       <use x="159.033203" xlink:href="#DejaVuSans-32"/>
      </g>
     </g>
    </g>
    <g id="text_35">
     <!-- $C_V^2(s)$ -->
     <defs>
      <path d="M 69.484375 67.28125 
L 67.484375 56.890625 
Q 62.796875 61.625 57.546875 63.921875 
Q 52.296875 66.21875 46.1875 66.21875 
Q 37.84375 66.21875 31.515625 62.203125 
Q 25.203125 58.203125 20.609375 50 
Q 17.671875 44.734375 16.125 38.84375 
Q 14.59375 32.953125 14.59375 27 
Q 14.59375 17.046875 19.75 11.8125 
Q 24.90625 6.59375 34.71875 6.59375 
Q 41.5 6.59375 47.75 8.765625 
Q 54 10.9375 59.90625 15.28125 
L 57.625 3.609375 
Q 51.8125 1.125 45.875 -0.140625 
Q 39.9375 -1.421875 33.984375 -1.421875 
Q 19.96875 -1.421875 12.078125 6.1875 
Q 4.203125 13.8125 4.203125 27.390625 
Q 4.203125 36.078125 7.203125 44.46875 
Q 10.203125 52.875 15.828125 59.8125 
Q 21.78125 67.1875 29.421875 70.703125 
Q 37.0625 74.21875 47.21875 74.21875 
Q 53.46875 74.21875 59.0625 72.484375 
Q 64.65625 70.75 69.484375 67.28125 
z
" id="DejaVuSans-Oblique-43"/>
      <path d="M 20.609375 0 
L 7.8125 72.90625 
L 17.484375 72.90625 
L 28.078125 10.203125 
L 63.484375 72.90625 
L 74.21875 72.90625 
L 32.078125 0 
z
" id="DejaVuSans-Oblique-56"/>
     </defs>
     <g transform="translate(484.543207 174.6)rotate(-90)scale(0.2 -0.2)">
      <use transform="translate(0 0.765625)" xlink:href="#DejaVuSans-Oblique-43"/>
      <use transform="translate(77.02474 39.046875)scale(0.7)" xlink:href="#DejaVuSans-32"/>
      <use transform="translate(69.824219 -26.578125)scale(0.7)" xlink:href="#DejaVuSans-Oblique-56"/>
      <use transform="translate(124.295247 0.765625)" xlink:href="#DejaVuSans-28"/>
      <use transform="translate(163.308919 0.765625)" xlink:href="#DejaVuSans-Oblique-73"/>
      <use transform="translate(215.408529 0.765625)" xlink:href="#DejaVuSans-29"/>
     </g>
    </g>
   </g>
   <g id="line2d_66">
    <path clip-path="url(#p855b93b324)" d="M 537.041644 272.05204 
L 543.106861 272.05204 
L 549.172079 272.05204 
L 555.237296 272.05204 
L 561.302514 271.794448 
L 567.367731 267.624571 
L 573.432948 255.901847 
L 579.498166 227.569614 
L 585.563383 173.669622 
L 591.628601 106.011646 
L 597.693818 49.504266 
L 603.759035 28.879512 
L 609.824253 64.716515 
L 615.88947 138.736526 
L 621.954688 201.883739 
L 628.019905 226.015258 
L 634.085122 227.063274 
L 640.15034 205.128893 
L 646.215557 155.086416 
L 652.280774 101.613421 
L 658.345992 48.767201 
L 664.411209 26.995865 
L 670.476427 54.048603 
L 676.541644 114.88093 
L 682.606861 181.012913 
L 688.672079 215.388751 
L 694.737296 222.924162 
L 700.802514 199.534182 
L 706.867731 148.080853 
L 712.932948 93.810324 
L 718.998166 46.353119 
L 725.063383 27.767765 
L 731.128601 54.234753 
L 737.193818 110.627015 
L 743.259035 180.323884 
L 749.324253 219.050543 
L 755.38947 226.248002 
L 761.454687 197.42974 
L 767.519905 152.622537 
L 773.585122 93.803167 
L 779.65034 45.549828 
L 785.715557 27.914564 
L 791.780774 57.339645 
L 797.845992 119.333543 
L 803.911209 184.073271 
L 809.976427 212.761757 
L 816.041644 223.868698 
L 822.106861 195.709471 
L 828.172079 146.781895 
L 834.237296 86.007969 
L 840.302514 45.998722 
L 846.367731 28.393078 
L 852.432948 58.998604 
L 858.498166 116.484864 
L 864.563383 185.859128 
L 870.628601 224.720362 
L 876.693818 228.41879 
L 882.759035 194.654087 
L 888.824253 149.189463 
L 894.88947 91.524481 
L 900.954687 43.508921 
" style="fill:none;stroke:#1f77b4;stroke-linecap:square;stroke-width:3;"/>
   </g>
   <g id="line2d_67">
    <path clip-path="url(#p855b93b324)" d="M 537.041644 272.05204 
L 543.106861 272.05204 
L 549.172079 272.05204 
L 555.237296 272.05204 
L 561.302514 272.05204 
L 567.367731 262.462491 
L 573.432948 247.937251 
L 579.498166 184.972283 
L 585.563383 107.483768 
L 591.628601 52.051693 
L 597.693818 30.339423 
L 603.759035 47.356392 
L 609.824253 99.614906 
L 615.88947 152.471925 
L 621.954688 196.425686 
L 628.019905 201.72432 
L 634.085122 182.462081 
L 640.15034 154.690805 
L 646.215557 116.646929 
L 652.280774 51.992065 
L 658.345992 29.505748 
L 664.411209 50.619761 
L 670.476427 115.647942 
L 676.541644 168.662737 
L 682.606861 201.102286 
L 688.672079 224.120379 
L 694.737296 194.919739 
L 700.802514 147.252027 
L 706.867731 104.7973 
L 712.932948 47.547685 
L 718.998166 30.176076 
L 725.063383 68.28791 
L 731.128601 123.97305 
L 737.193818 182.301323 
L 743.259035 205.667014 
L 749.324253 218.97779 
L 755.38947 193.415282 
L 761.454687 147.418012 
L 767.519905 82.592179 
L 773.585122 41.660625 
L 779.65034 28.678449 
L 785.715557 64.543403 
L 791.780774 121.25235 
L 797.845992 175.529333 
L 803.911209 212.818828 
L 809.976427 219.198811 
L 816.041644 190.967323 
L 822.106861 137.733039 
L 828.172079 81.008041 
L 834.237296 36.248537 
L 840.302514 29.796118 
L 846.367731 59.366577 
L 852.432948 117.447002 
L 858.498166 177.845114 
L 864.563383 214.028008 
L 870.628601 217.876399 
L 876.693818 193.450253 
L 882.759035 144.458682 
L 888.824253 85.239452 
L 894.88947 42.347545 
L 900.954687 28.942976 
" style="fill:none;stroke:#ff7f0e;stroke-linecap:square;stroke-width:3;"/>
   </g>
   <g id="line2d_68">
    <path clip-path="url(#p855b93b324)" d="M 537.041644 272.05204 
L 543.106861 272.05204 
L 549.172079 272.05204 
L 555.237296 272.05204 
L 561.302514 272.05204 
L 567.367731 272.05204 
L 573.432948 272.05204 
L 579.498166 272.05204 
L 585.563383 272.05204 
L 591.628601 272.05204 
L 597.693818 272.05204 
L 603.759035 272.05204 
L 609.824253 270.81769 
L 615.88947 269.661325 
L 621.954688 264.745858 
L 628.019905 256.286964 
L 634.085122 242.646968 
L 640.15034 229.549211 
L 646.215557 210.854836 
L 652.280774 191.398895 
L 658.345992 177.928272 
L 664.411209 179.653985 
L 670.476427 211.060459 
L 676.541644 225.373986 
L 682.606861 236.912358 
L 688.672079 241.628904 
L 694.737296 221.884175 
L 700.802514 188.746811 
L 706.867731 159.490089 
L 712.932948 122.628655 
L 718.998166 111.192638 
L 725.063383 126.05236 
L 731.128601 165.31784 
L 737.193818 207.386958 
L 743.259035 221.608717 
L 749.324253 228.992732 
L 755.38947 205.821706 
L 761.454687 169.383019 
L 767.519905 117.073544 
L 773.585122 82.8554 
L 779.65034 67.93517 
L 785.715557 99.122119 
L 791.780774 143.749612 
L 797.845992 189.341555 
L 803.911209 220.045426 
L 809.976427 224.721742 
L 816.041644 197.826418 
L 822.106861 149.06959 
L 828.172079 96.309408 
L 834.237296 54.233182 
L 840.302514 48.608914 
L 846.367731 75.061048 
L 852.432948 129.426884 
L 858.498166 184.038549 
L 864.563383 217.57822 
L 870.628601 220.566881 
L 876.693818 196.719488 
L 882.759035 149.11764 
L 888.824253 92.997795 
L 894.88947 51.524464 
L 900.954687 39.407502 
" style="fill:none;stroke:#2ca02c;stroke-linecap:square;stroke-width:3;"/>
   </g>
   <g id="patch_9">
    <path d="M 537.041644 285 
L 537.041644 13.2 
" style="fill:none;stroke:#000000;stroke-linecap:square;stroke-linejoin:miter;stroke-width:2;"/>
   </g>
   <g id="patch_10">
    <path d="M 900.954688 285 
L 900.954688 13.2 
" style="fill:none;"/>
   </g>
   <g id="patch_11">
    <path d="M 537.041644 285 
L 900.954688 285 
" style="fill:none;stroke:#000000;stroke-linecap:square;stroke-linejoin:miter;stroke-width:2;"/>
   </g>
   <g id="patch_12">
    <path d="M 537.041644 13.2 
L 900.954688 13.2 
" style="fill:none;"/>
   </g>
  </g>
 </g>
 <defs>
  <clipPath id="p21fe6b36fe">
   <rect height="271.8" width="363.913043" x="63.954688" y="13.2"/>
  </clipPath>
  <clipPath id="p855b93b324">
   <rect height="271.8" width="363.913043" x="537.041644" y="13.2"/>
  </clipPath>
 </defs>
</svg>
