<?xml version="1.0" encoding="utf-8" standalone="no"?>
<!DOCTYPE svg PUBLIC "-//W3C//DTD SVG 1.1//EN"
  "http://www.w3.org/Graphics/SVG/1.1/DTD/svg11.dtd">
<!-- Created with matplotlib (http://matplotlib.org/) -->
<svg height="285.213437pt" version="1.1" viewBox="0 0 761.242188 285.213437" width="761.242188pt" xmlns="http://www.w3.org/2000/svg" xmlns:xlink="http://www.w3.org/1999/xlink">
 <defs>
  <style type="text/css">
*{stroke-linecap:butt;stroke-linejoin:round;}
  </style>
 </defs>
 <g id="figure_1">
  <g id="patch_1">
   <path d="M 0 285.213437 
L 761.242188 285.213437 
L 761.242188 0 
L 0 0 
z
" style="fill:#ffffff;"/>
  </g>
  <g id="axes_1">
   <g id="patch_2">
    <path d="M 74.898438 230.64 
L 366.028872 230.64 
L 366.028872 13.2 
L 74.898438 13.2 
z
" style="fill:#ffffff;"/>
   </g>
   <g id="PolyCollection_1">
    <defs>
     <path d="M 74.962083 -129.298462 
L 74.962083 -128.013727 
L 78.332497 -150.642225 
L 81.441769 -167.942245 
L 84.816538 -176.94846 
L 88.16753 -182.447576 
L 91.103937 -188.05639 
L 94.329505 -191.067785 
L 97.756317 -191.892612 
L 100.82402 -193.113098 
L 104.081817 -193.138829 
L 107.371444 -193.044853 
L 110.536646 -193.939859 
L 114.170994 -191.997586 
L 117.083602 -194.312723 
L 120.383649 -194.305567 
L 123.663871 -195.470917 
L 126.699645 -196.0571 
L 129.905809 -195.659586 
L 133.241602 -195.183905 
L 136.515542 -193.54087 
L 139.594565 -195.118754 
L 142.949666 -195.388761 
L 146.082554 -196.309732 
L 149.331392 -194.815919 
L 152.663403 -194.42577 
L 155.806331 -194.878765 
L 159.003216 -196.929346 
L 163.545684 -195.658451 
L 165.600094 -195.285246 
L 169.171227 -194.48407 
L 172.05124 -195.414671 
L 175.417842 -195.128533 
L 178.473237 -194.250322 
L 181.805401 -193.36713 
L 184.94928 -192.555608 
L 188.342213 -191.428549 
L 191.506624 -193.794233 
L 194.769282 -193.174911 
L 198.157907 -192.206088 
L 201.12128 -192.312065 
L 204.380738 -193.013708 
L 207.721015 -194.722384 
L 210.919014 -194.369991 
L 214.030698 -193.029447 
L 217.301548 -193.626871 
L 220.976765 -194.245333 
L 223.874219 -193.509078 
L 226.975543 -193.10119 
L 230.179367 -193.844572 
L 233.454744 -195.234916 
L 236.793333 -194.862588 
L 239.884995 -194.223271 
L 243.217733 -193.27776 
L 246.524878 -194.328313 
L 249.57963 -194.878954 
L 252.846492 -195.517835 
L 256.067176 -193.354706 
L 259.830283 -193.77741 
L 262.968526 -193.45247 
L 265.756152 -194.349439 
L 269.318535 -195.171773 
L 272.350478 -194.083458 
L 275.598303 -194.360141 
L 278.746953 -193.91913 
L 282.070887 -194.801869 
L 285.307919 -193.358798 
L 288.399587 -194.3606 
L 291.887726 -195.519866 
L 294.891807 -195.77464 
L 298.134629 -196.688997 
L 301.335562 -196.350691 
L 304.687541 -196.929008 
L 307.828702 -194.518748 
L 311.591478 -193.453972 
L 314.324963 -195.921514 
L 317.610568 -196.286675 
L 321.077366 -197.093232 
L 324.245725 -194.95677 
L 327.318388 -195.95257 
L 330.451456 -193.246807 
L 333.827852 -193.6745 
L 336.987259 -194.057748 
L 340.214769 -195.413096 
L 343.713115 -194.377514 
L 346.654556 -193.194682 
L 349.866246 -193.147679 
L 353.166243 -192.47947 
L 356.411816 -193.261901 
L 359.668332 -195.344692 
L 362.895302 -194.986186 
L 362.895302 -200.125719 
L 362.895302 -200.125719 
L 359.668332 -200.243158 
L 356.411816 -197.994645 
L 353.166243 -197.243871 
L 349.866246 -197.973467 
L 346.654556 -197.856309 
L 343.713115 -199.273476 
L 340.214769 -200.244981 
L 336.987259 -198.944064 
L 333.827852 -198.283063 
L 330.451456 -197.846258 
L 327.318388 -200.667999 
L 324.245725 -199.702542 
L 321.077366 -201.973643 
L 317.610568 -201.155324 
L 314.324963 -200.82326 
L 311.591478 -198.400297 
L 307.828702 -199.489462 
L 304.687541 -201.783181 
L 301.335562 -201.273094 
L 298.134629 -201.528974 
L 294.891807 -200.519744 
L 291.887726 -200.401041 
L 288.399587 -199.183302 
L 285.307919 -198.183442 
L 282.070887 -199.699875 
L 278.746953 -198.825769 
L 275.598303 -199.139069 
L 272.350478 -198.76702 
L 269.318535 -199.936336 
L 265.756152 -199.120106 
L 262.968526 -197.936885 
L 259.830283 -198.503002 
L 256.067176 -198.392228 
L 252.846492 -200.67947 
L 249.57963 -199.963654 
L 246.524878 -199.160496 
L 243.217733 -198.041323 
L 239.884995 -198.876082 
L 236.793333 -199.481004 
L 233.454744 -199.964897 
L 230.179367 -198.811498 
L 226.975543 -198.223384 
L 223.874219 -198.444208 
L 220.976765 -199.259615 
L 217.301548 -198.444013 
L 214.030698 -197.671812 
L 210.919014 -198.978693 
L 207.721015 -199.13567 
L 204.380738 -197.684874 
L 201.12128 -197.132369 
L 198.157907 -197.03302 
L 194.769282 -198.195696 
L 191.506624 -198.69697 
L 188.342213 -196.09349 
L 184.94928 -197.407194 
L 181.805401 -197.863997 
L 178.473237 -198.915561 
L 175.417842 -199.844639 
L 172.05124 -200.181728 
L 169.171227 -199.37317 
L 165.600094 -200.364487 
L 163.545684 -200.75083 
L 159.003216 -201.75344 
L 155.806331 -199.424826 
L 152.663403 -199.043146 
L 149.331392 -199.490049 
L 146.082554 -201.153359 
L 142.949666 -200.308633 
L 139.594565 -200.174268 
L 136.515542 -198.596772 
L 133.241602 -200.197385 
L 129.905809 -200.556153 
L 126.699645 -200.865414 
L 123.663871 -200.27223 
L 120.383649 -199.067468 
L 117.083602 -199.229273 
L 114.170994 -196.706114 
L 110.536646 -198.765679 
L 107.371444 -197.775623 
L 104.081817 -197.957614 
L 100.82402 -197.692173 
L 97.756317 -196.506008 
L 94.329505 -195.606369 
L 91.103937 -192.385309 
L 88.16753 -186.941776 
L 84.816538 -181.389845 
L 81.441769 -172.130208 
L 78.332497 -154.308939 
L 74.962083 -129.298462 
z
" id="m652f496ffe"/>
    </defs>
    <g clip-path="url(#p0c2b31aed1)">
     <use style="fill:#ff3333;" x="0" xlink:href="#m652f496ffe" y="285.213437"/>
    </g>
   </g>
   <g id="matplotlib.axis_1">
    <g id="xtick_1">
     <g id="line2d_1">
      <path clip-path="url(#p0c2b31aed1)" d="M 74.898438 230.64 
L 74.898438 13.2 
" style="fill:none;stroke:#b0b0b0;stroke-linecap:square;stroke-width:0.8;"/>
     </g>
     <g id="line2d_2">
      <defs>
       <path d="M 0 0 
L 0 6 
" id="m979038b010"/>
      </defs>
      <g>
       <use x="74.898438" xlink:href="#m979038b010" y="230.64"/>
      </g>
     </g>
     <g id="text_1">
      <!-- 0 -->
      <defs>
       <path d="M 31.78125 66.40625 
Q 24.171875 66.40625 20.328125 58.90625 
Q 16.5 51.421875 16.5 36.375 
Q 16.5 21.390625 20.328125 13.890625 
Q 24.171875 6.390625 31.78125 6.390625 
Q 39.453125 6.390625 43.28125 13.890625 
Q 47.125 21.390625 47.125 36.375 
Q 47.125 51.421875 43.28125 58.90625 
Q 39.453125 66.40625 31.78125 66.40625 
z
M 31.78125 74.21875 
Q 44.046875 74.21875 50.515625 64.515625 
Q 56.984375 54.828125 56.984375 36.375 
Q 56.984375 17.96875 50.515625 8.265625 
Q 44.046875 -1.421875 31.78125 -1.421875 
Q 19.53125 -1.421875 13.0625 8.265625 
Q 6.59375 17.96875 6.59375 36.375 
Q 6.59375 54.828125 13.0625 64.515625 
Q 19.53125 74.21875 31.78125 74.21875 
z
" id="DejaVuSans-30"/>
      </defs>
      <g transform="translate(70.126563 251.537656)scale(0.15 -0.15)">
       <use xlink:href="#DejaVuSans-30"/>
      </g>
     </g>
    </g>
    <g id="xtick_2">
     <g id="line2d_3">
      <path clip-path="url(#p0c2b31aed1)" d="M 104.011481 230.64 
L 104.011481 13.2 
" style="fill:none;stroke:#b0b0b0;stroke-linecap:square;stroke-width:0.8;"/>
     </g>
     <g id="line2d_4">
      <g>
       <use x="104.011481" xlink:href="#m979038b010" y="230.64"/>
      </g>
     </g>
     <g id="text_2">
      <!-- 1 -->
      <defs>
       <path d="M 12.40625 8.296875 
L 28.515625 8.296875 
L 28.515625 63.921875 
L 10.984375 60.40625 
L 10.984375 69.390625 
L 28.421875 72.90625 
L 38.28125 72.90625 
L 38.28125 8.296875 
L 54.390625 8.296875 
L 54.390625 0 
L 12.40625 0 
z
" id="DejaVuSans-31"/>
      </defs>
      <g transform="translate(99.239606 251.537656)scale(0.15 -0.15)">
       <use xlink:href="#DejaVuSans-31"/>
      </g>
     </g>
    </g>
    <g id="xtick_3">
     <g id="line2d_5">
      <path clip-path="url(#p0c2b31aed1)" d="M 133.124524 230.64 
L 133.124524 13.2 
" style="fill:none;stroke:#b0b0b0;stroke-linecap:square;stroke-width:0.8;"/>
     </g>
     <g id="line2d_6">
      <g>
       <use x="133.124524" xlink:href="#m979038b010" y="230.64"/>
      </g>
     </g>
     <g id="text_3">
      <!-- 2 -->
      <defs>
       <path d="M 19.1875 8.296875 
L 53.609375 8.296875 
L 53.609375 0 
L 7.328125 0 
L 7.328125 8.296875 
Q 12.9375 14.109375 22.625 23.890625 
Q 32.328125 33.6875 34.8125 36.53125 
Q 39.546875 41.84375 41.421875 45.53125 
Q 43.3125 49.21875 43.3125 52.78125 
Q 43.3125 58.59375 39.234375 62.25 
Q 35.15625 65.921875 28.609375 65.921875 
Q 23.96875 65.921875 18.8125 64.3125 
Q 13.671875 62.703125 7.8125 59.421875 
L 7.8125 69.390625 
Q 13.765625 71.78125 18.9375 73 
Q 24.125 74.21875 28.421875 74.21875 
Q 39.75 74.21875 46.484375 68.546875 
Q 53.21875 62.890625 53.21875 53.421875 
Q 53.21875 48.921875 51.53125 44.890625 
Q 49.859375 40.875 45.40625 35.40625 
Q 44.1875 33.984375 37.640625 27.21875 
Q 31.109375 20.453125 19.1875 8.296875 
z
" id="DejaVuSans-32"/>
      </defs>
      <g transform="translate(128.352649 251.537656)scale(0.15 -0.15)">
       <use xlink:href="#DejaVuSans-32"/>
      </g>
     </g>
    </g>
    <g id="xtick_4">
     <g id="line2d_7">
      <path clip-path="url(#p0c2b31aed1)" d="M 162.237568 230.64 
L 162.237568 13.2 
" style="fill:none;stroke:#b0b0b0;stroke-linecap:square;stroke-width:0.8;"/>
     </g>
     <g id="line2d_8">
      <g>
       <use x="162.237568" xlink:href="#m979038b010" y="230.64"/>
      </g>
     </g>
     <g id="text_4">
      <!-- 3 -->
      <defs>
       <path d="M 40.578125 39.3125 
Q 47.65625 37.796875 51.625 33 
Q 55.609375 28.21875 55.609375 21.1875 
Q 55.609375 10.40625 48.1875 4.484375 
Q 40.765625 -1.421875 27.09375 -1.421875 
Q 22.515625 -1.421875 17.65625 -0.515625 
Q 12.796875 0.390625 7.625 2.203125 
L 7.625 11.71875 
Q 11.71875 9.328125 16.59375 8.109375 
Q 21.484375 6.890625 26.8125 6.890625 
Q 36.078125 6.890625 40.9375 10.546875 
Q 45.796875 14.203125 45.796875 21.1875 
Q 45.796875 27.640625 41.28125 31.265625 
Q 36.765625 34.90625 28.71875 34.90625 
L 20.21875 34.90625 
L 20.21875 43.015625 
L 29.109375 43.015625 
Q 36.375 43.015625 40.234375 45.921875 
Q 44.09375 48.828125 44.09375 54.296875 
Q 44.09375 59.90625 40.109375 62.90625 
Q 36.140625 65.921875 28.71875 65.921875 
Q 24.65625 65.921875 20.015625 65.03125 
Q 15.375 64.15625 9.8125 62.3125 
L 9.8125 71.09375 
Q 15.4375 72.65625 20.34375 73.4375 
Q 25.25 74.21875 29.59375 74.21875 
Q 40.828125 74.21875 47.359375 69.109375 
Q 53.90625 64.015625 53.90625 55.328125 
Q 53.90625 49.265625 50.4375 45.09375 
Q 46.96875 40.921875 40.578125 39.3125 
z
" id="DejaVuSans-33"/>
      </defs>
      <g transform="translate(157.465693 251.537656)scale(0.15 -0.15)">
       <use xlink:href="#DejaVuSans-33"/>
      </g>
     </g>
    </g>
    <g id="xtick_5">
     <g id="line2d_9">
      <path clip-path="url(#p0c2b31aed1)" d="M 191.350611 230.64 
L 191.350611 13.2 
" style="fill:none;stroke:#b0b0b0;stroke-linecap:square;stroke-width:0.8;"/>
     </g>
     <g id="line2d_10">
      <g>
       <use x="191.350611" xlink:href="#m979038b010" y="230.64"/>
      </g>
     </g>
     <g id="text_5">
      <!-- 4 -->
      <defs>
       <path d="M 37.796875 64.3125 
L 12.890625 25.390625 
L 37.796875 25.390625 
z
M 35.203125 72.90625 
L 47.609375 72.90625 
L 47.609375 25.390625 
L 58.015625 25.390625 
L 58.015625 17.1875 
L 47.609375 17.1875 
L 47.609375 0 
L 37.796875 0 
L 37.796875 17.1875 
L 4.890625 17.1875 
L 4.890625 26.703125 
z
" id="DejaVuSans-34"/>
      </defs>
      <g transform="translate(186.578736 251.537656)scale(0.15 -0.15)">
       <use xlink:href="#DejaVuSans-34"/>
      </g>
     </g>
    </g>
    <g id="xtick_6">
     <g id="line2d_11">
      <path clip-path="url(#p0c2b31aed1)" d="M 220.463655 230.64 
L 220.463655 13.2 
" style="fill:none;stroke:#b0b0b0;stroke-linecap:square;stroke-width:0.8;"/>
     </g>
     <g id="line2d_12">
      <g>
       <use x="220.463655" xlink:href="#m979038b010" y="230.64"/>
      </g>
     </g>
     <g id="text_6">
      <!-- 5 -->
      <defs>
       <path d="M 10.796875 72.90625 
L 49.515625 72.90625 
L 49.515625 64.59375 
L 19.828125 64.59375 
L 19.828125 46.734375 
Q 21.96875 47.46875 24.109375 47.828125 
Q 26.265625 48.1875 28.421875 48.1875 
Q 40.625 48.1875 47.75 41.5 
Q 54.890625 34.8125 54.890625 23.390625 
Q 54.890625 11.625 47.5625 5.09375 
Q 40.234375 -1.421875 26.90625 -1.421875 
Q 22.3125 -1.421875 17.546875 -0.640625 
Q 12.796875 0.140625 7.71875 1.703125 
L 7.71875 11.625 
Q 12.109375 9.234375 16.796875 8.0625 
Q 21.484375 6.890625 26.703125 6.890625 
Q 35.15625 6.890625 40.078125 11.328125 
Q 45.015625 15.765625 45.015625 23.390625 
Q 45.015625 31 40.078125 35.4375 
Q 35.15625 39.890625 26.703125 39.890625 
Q 22.75 39.890625 18.8125 39.015625 
Q 14.890625 38.140625 10.796875 36.28125 
z
" id="DejaVuSans-35"/>
      </defs>
      <g transform="translate(215.69178 251.537656)scale(0.15 -0.15)">
       <use xlink:href="#DejaVuSans-35"/>
      </g>
     </g>
    </g>
    <g id="xtick_7">
     <g id="line2d_13">
      <path clip-path="url(#p0c2b31aed1)" d="M 249.576698 230.64 
L 249.576698 13.2 
" style="fill:none;stroke:#b0b0b0;stroke-linecap:square;stroke-width:0.8;"/>
     </g>
     <g id="line2d_14">
      <g>
       <use x="249.576698" xlink:href="#m979038b010" y="230.64"/>
      </g>
     </g>
     <g id="text_7">
      <!-- 6 -->
      <defs>
       <path d="M 33.015625 40.375 
Q 26.375 40.375 22.484375 35.828125 
Q 18.609375 31.296875 18.609375 23.390625 
Q 18.609375 15.53125 22.484375 10.953125 
Q 26.375 6.390625 33.015625 6.390625 
Q 39.65625 6.390625 43.53125 10.953125 
Q 47.40625 15.53125 47.40625 23.390625 
Q 47.40625 31.296875 43.53125 35.828125 
Q 39.65625 40.375 33.015625 40.375 
z
M 52.59375 71.296875 
L 52.59375 62.3125 
Q 48.875 64.0625 45.09375 64.984375 
Q 41.3125 65.921875 37.59375 65.921875 
Q 27.828125 65.921875 22.671875 59.328125 
Q 17.53125 52.734375 16.796875 39.40625 
Q 19.671875 43.65625 24.015625 45.921875 
Q 28.375 48.1875 33.59375 48.1875 
Q 44.578125 48.1875 50.953125 41.515625 
Q 57.328125 34.859375 57.328125 23.390625 
Q 57.328125 12.15625 50.6875 5.359375 
Q 44.046875 -1.421875 33.015625 -1.421875 
Q 20.359375 -1.421875 13.671875 8.265625 
Q 6.984375 17.96875 6.984375 36.375 
Q 6.984375 53.65625 15.1875 63.9375 
Q 23.390625 74.21875 37.203125 74.21875 
Q 40.921875 74.21875 44.703125 73.484375 
Q 48.484375 72.75 52.59375 71.296875 
z
" id="DejaVuSans-36"/>
      </defs>
      <g transform="translate(244.804823 251.537656)scale(0.15 -0.15)">
       <use xlink:href="#DejaVuSans-36"/>
      </g>
     </g>
    </g>
    <g id="xtick_8">
     <g id="line2d_15">
      <path clip-path="url(#p0c2b31aed1)" d="M 278.689742 230.64 
L 278.689742 13.2 
" style="fill:none;stroke:#b0b0b0;stroke-linecap:square;stroke-width:0.8;"/>
     </g>
     <g id="line2d_16">
      <g>
       <use x="278.689742" xlink:href="#m979038b010" y="230.64"/>
      </g>
     </g>
     <g id="text_8">
      <!-- 7 -->
      <defs>
       <path d="M 8.203125 72.90625 
L 55.078125 72.90625 
L 55.078125 68.703125 
L 28.609375 0 
L 18.3125 0 
L 43.21875 64.59375 
L 8.203125 64.59375 
z
" id="DejaVuSans-37"/>
      </defs>
      <g transform="translate(273.917867 251.537656)scale(0.15 -0.15)">
       <use xlink:href="#DejaVuSans-37"/>
      </g>
     </g>
    </g>
    <g id="xtick_9">
     <g id="line2d_17">
      <path clip-path="url(#p0c2b31aed1)" d="M 307.802785 230.64 
L 307.802785 13.2 
" style="fill:none;stroke:#b0b0b0;stroke-linecap:square;stroke-width:0.8;"/>
     </g>
     <g id="line2d_18">
      <g>
       <use x="307.802785" xlink:href="#m979038b010" y="230.64"/>
      </g>
     </g>
     <g id="text_9">
      <!-- 8 -->
      <defs>
       <path d="M 31.78125 34.625 
Q 24.75 34.625 20.71875 30.859375 
Q 16.703125 27.09375 16.703125 20.515625 
Q 16.703125 13.921875 20.71875 10.15625 
Q 24.75 6.390625 31.78125 6.390625 
Q 38.8125 6.390625 42.859375 10.171875 
Q 46.921875 13.96875 46.921875 20.515625 
Q 46.921875 27.09375 42.890625 30.859375 
Q 38.875 34.625 31.78125 34.625 
z
M 21.921875 38.8125 
Q 15.578125 40.375 12.03125 44.71875 
Q 8.5 49.078125 8.5 55.328125 
Q 8.5 64.0625 14.71875 69.140625 
Q 20.953125 74.21875 31.78125 74.21875 
Q 42.671875 74.21875 48.875 69.140625 
Q 55.078125 64.0625 55.078125 55.328125 
Q 55.078125 49.078125 51.53125 44.71875 
Q 48 40.375 41.703125 38.8125 
Q 48.828125 37.15625 52.796875 32.3125 
Q 56.78125 27.484375 56.78125 20.515625 
Q 56.78125 9.90625 50.3125 4.234375 
Q 43.84375 -1.421875 31.78125 -1.421875 
Q 19.734375 -1.421875 13.25 4.234375 
Q 6.78125 9.90625 6.78125 20.515625 
Q 6.78125 27.484375 10.78125 32.3125 
Q 14.796875 37.15625 21.921875 38.8125 
z
M 18.3125 54.390625 
Q 18.3125 48.734375 21.84375 45.5625 
Q 25.390625 42.390625 31.78125 42.390625 
Q 38.140625 42.390625 41.71875 45.5625 
Q 45.3125 48.734375 45.3125 54.390625 
Q 45.3125 60.0625 41.71875 63.234375 
Q 38.140625 66.40625 31.78125 66.40625 
Q 25.390625 66.40625 21.84375 63.234375 
Q 18.3125 60.0625 18.3125 54.390625 
z
" id="DejaVuSans-38"/>
      </defs>
      <g transform="translate(303.03091 251.537656)scale(0.15 -0.15)">
       <use xlink:href="#DejaVuSans-38"/>
      </g>
     </g>
    </g>
    <g id="xtick_10">
     <g id="line2d_19">
      <path clip-path="url(#p0c2b31aed1)" d="M 336.915829 230.64 
L 336.915829 13.2 
" style="fill:none;stroke:#b0b0b0;stroke-linecap:square;stroke-width:0.8;"/>
     </g>
     <g id="line2d_20">
      <g>
       <use x="336.915829" xlink:href="#m979038b010" y="230.64"/>
      </g>
     </g>
     <g id="text_10">
      <!-- 9 -->
      <defs>
       <path d="M 10.984375 1.515625 
L 10.984375 10.5 
Q 14.703125 8.734375 18.5 7.8125 
Q 22.3125 6.890625 25.984375 6.890625 
Q 35.75 6.890625 40.890625 13.453125 
Q 46.046875 20.015625 46.78125 33.40625 
Q 43.953125 29.203125 39.59375 26.953125 
Q 35.25 24.703125 29.984375 24.703125 
Q 19.046875 24.703125 12.671875 31.3125 
Q 6.296875 37.9375 6.296875 49.421875 
Q 6.296875 60.640625 12.9375 67.421875 
Q 19.578125 74.21875 30.609375 74.21875 
Q 43.265625 74.21875 49.921875 64.515625 
Q 56.59375 54.828125 56.59375 36.375 
Q 56.59375 19.140625 48.40625 8.859375 
Q 40.234375 -1.421875 26.421875 -1.421875 
Q 22.703125 -1.421875 18.890625 -0.6875 
Q 15.09375 0.046875 10.984375 1.515625 
z
M 30.609375 32.421875 
Q 37.25 32.421875 41.125 36.953125 
Q 45.015625 41.5 45.015625 49.421875 
Q 45.015625 57.28125 41.125 61.84375 
Q 37.25 66.40625 30.609375 66.40625 
Q 23.96875 66.40625 20.09375 61.84375 
Q 16.21875 57.28125 16.21875 49.421875 
Q 16.21875 41.5 20.09375 36.953125 
Q 23.96875 32.421875 30.609375 32.421875 
z
" id="DejaVuSans-39"/>
      </defs>
      <g transform="translate(332.143954 251.537656)scale(0.15 -0.15)">
       <use xlink:href="#DejaVuSans-39"/>
      </g>
     </g>
    </g>
    <g id="xtick_11">
     <g id="line2d_21">
      <path clip-path="url(#p0c2b31aed1)" d="M 366.028872 230.64 
L 366.028872 13.2 
" style="fill:none;stroke:#b0b0b0;stroke-linecap:square;stroke-width:0.8;"/>
     </g>
     <g id="line2d_22">
      <g>
       <use x="366.028872" xlink:href="#m979038b010" y="230.64"/>
      </g>
     </g>
     <g id="text_11">
      <!-- 10 -->
      <g transform="translate(356.485122 251.537656)scale(0.15 -0.15)">
       <use xlink:href="#DejaVuSans-31"/>
       <use x="63.623047" xlink:href="#DejaVuSans-30"/>
      </g>
     </g>
    </g>
    <g id="text_12">
     <!-- $t/\tau$ -->
     <defs>
      <path d="M 42.28125 54.6875 
L 40.921875 47.703125 
L 23 47.703125 
L 17.1875 18.015625 
Q 16.890625 16.359375 16.75 15.234375 
Q 16.609375 14.109375 16.609375 13.484375 
Q 16.609375 10.359375 18.484375 8.9375 
Q 20.359375 7.515625 24.515625 7.515625 
L 33.59375 7.515625 
L 32.078125 0 
L 23.484375 0 
Q 15.484375 0 11.546875 3.125 
Q 7.625 6.25 7.625 12.59375 
Q 7.625 13.71875 7.765625 15.0625 
Q 7.90625 16.40625 8.203125 18.015625 
L 14.015625 47.703125 
L 6.390625 47.703125 
L 7.8125 54.6875 
L 15.28125 54.6875 
L 18.3125 70.21875 
L 27.296875 70.21875 
L 24.3125 54.6875 
z
" id="DejaVuSans-Oblique-74"/>
      <path d="M 25.390625 72.90625 
L 33.6875 72.90625 
L 8.296875 -9.28125 
L 0 -9.28125 
z
" id="DejaVuSans-2f"/>
      <path d="M 32.859375 9.96875 
Q 34.1875 7.625 39.453125 7.625 
L 43.75 7.625 
L 42.28125 0 
L 36.921875 0 
Q 28.125 0 25 4.6875 
Q 21.921875 9.46875 23.96875 19.828125 
L 29 45.703125 
L 8.453125 45.703125 
L 10.203125 54.6875 
L 60.640625 54.6875 
L 58.890625 45.703125 
L 38.1875 45.703125 
L 33.015625 19.28125 
Q 31.640625 12.203125 32.859375 9.96875 
z
" id="DejaVuSans-Oblique-3c4"/>
     </defs>
     <g transform="translate(207.063655 273.854062)scale(0.2 -0.2)">
      <use transform="translate(0 0.09375)" xlink:href="#DejaVuSans-Oblique-74"/>
      <use transform="translate(39.208984 0.09375)" xlink:href="#DejaVuSans-2f"/>
      <use transform="translate(72.900391 0.09375)" xlink:href="#DejaVuSans-Oblique-3c4"/>
     </g>
    </g>
   </g>
   <g id="matplotlib.axis_2">
    <g id="ytick_1">
     <g id="line2d_23">
      <path clip-path="url(#p0c2b31aed1)" d="M 74.898438 230.64 
L 366.028872 230.64 
" style="fill:none;stroke:#b0b0b0;stroke-linecap:square;stroke-width:0.8;"/>
     </g>
     <g id="line2d_24">
      <defs>
       <path d="M 0 0 
L -6 0 
" id="m2d04ecf039"/>
      </defs>
      <g>
       <use x="74.898438" xlink:href="#m2d04ecf039" y="230.64"/>
      </g>
     </g>
     <g id="text_13">
      <!-- 0.0 -->
      <defs>
       <path d="M 10.6875 12.40625 
L 21 12.40625 
L 21 0 
L 10.6875 0 
z
" id="DejaVuSans-2e"/>
      </defs>
      <g transform="translate(41.54375 236.338828)scale(0.15 -0.15)">
       <use xlink:href="#DejaVuSans-30"/>
       <use x="63.623047" xlink:href="#DejaVuSans-2e"/>
       <use x="95.410156" xlink:href="#DejaVuSans-30"/>
      </g>
     </g>
    </g>
    <g id="ytick_2">
     <g id="line2d_25">
      <path clip-path="url(#p0c2b31aed1)" d="M 74.898438 195.028563 
L 366.028872 195.028563 
" style="fill:none;stroke:#b0b0b0;stroke-linecap:square;stroke-width:0.8;"/>
     </g>
     <g id="line2d_26">
      <g>
       <use x="74.898438" xlink:href="#m2d04ecf039" y="195.028563"/>
      </g>
     </g>
     <g id="text_14">
      <!-- 2.5 -->
      <g transform="translate(41.54375 200.727391)scale(0.15 -0.15)">
       <use xlink:href="#DejaVuSans-32"/>
       <use x="63.623047" xlink:href="#DejaVuSans-2e"/>
       <use x="95.410156" xlink:href="#DejaVuSans-35"/>
      </g>
     </g>
    </g>
    <g id="ytick_3">
     <g id="line2d_27">
      <path clip-path="url(#p0c2b31aed1)" d="M 74.898438 159.417126 
L 366.028872 159.417126 
" style="fill:none;stroke:#b0b0b0;stroke-linecap:square;stroke-width:0.8;"/>
     </g>
     <g id="line2d_28">
      <g>
       <use x="74.898438" xlink:href="#m2d04ecf039" y="159.417126"/>
      </g>
     </g>
     <g id="text_15">
      <!-- 5.0 -->
      <g transform="translate(41.54375 165.115954)scale(0.15 -0.15)">
       <use xlink:href="#DejaVuSans-35"/>
       <use x="63.623047" xlink:href="#DejaVuSans-2e"/>
       <use x="95.410156" xlink:href="#DejaVuSans-30"/>
      </g>
     </g>
    </g>
    <g id="ytick_4">
     <g id="line2d_29">
      <path clip-path="url(#p0c2b31aed1)" d="M 74.898438 123.805689 
L 366.028872 123.805689 
" style="fill:none;stroke:#b0b0b0;stroke-linecap:square;stroke-width:0.8;"/>
     </g>
     <g id="line2d_30">
      <g>
       <use x="74.898438" xlink:href="#m2d04ecf039" y="123.805689"/>
      </g>
     </g>
     <g id="text_16">
      <!-- 7.5 -->
      <g transform="translate(41.54375 129.504518)scale(0.15 -0.15)">
       <use xlink:href="#DejaVuSans-37"/>
       <use x="63.623047" xlink:href="#DejaVuSans-2e"/>
       <use x="95.410156" xlink:href="#DejaVuSans-35"/>
      </g>
     </g>
    </g>
    <g id="ytick_5">
     <g id="line2d_31">
      <path clip-path="url(#p0c2b31aed1)" d="M 74.898438 88.194253 
L 366.028872 88.194253 
" style="fill:none;stroke:#b0b0b0;stroke-linecap:square;stroke-width:0.8;"/>
     </g>
     <g id="line2d_32">
      <g>
       <use x="74.898438" xlink:href="#m2d04ecf039" y="88.194253"/>
      </g>
     </g>
     <g id="text_17">
      <!-- 10.0 -->
      <g transform="translate(32 93.893081)scale(0.15 -0.15)">
       <use xlink:href="#DejaVuSans-31"/>
       <use x="63.623047" xlink:href="#DejaVuSans-30"/>
       <use x="127.246094" xlink:href="#DejaVuSans-2e"/>
       <use x="159.033203" xlink:href="#DejaVuSans-30"/>
      </g>
     </g>
    </g>
    <g id="ytick_6">
     <g id="line2d_33">
      <path clip-path="url(#p0c2b31aed1)" d="M 74.898438 52.582816 
L 366.028872 52.582816 
" style="fill:none;stroke:#b0b0b0;stroke-linecap:square;stroke-width:0.8;"/>
     </g>
     <g id="line2d_34">
      <g>
       <use x="74.898438" xlink:href="#m2d04ecf039" y="52.582816"/>
      </g>
     </g>
     <g id="text_18">
      <!-- 12.5 -->
      <g transform="translate(32 58.281644)scale(0.15 -0.15)">
       <use xlink:href="#DejaVuSans-31"/>
       <use x="63.623047" xlink:href="#DejaVuSans-32"/>
       <use x="127.246094" xlink:href="#DejaVuSans-2e"/>
       <use x="159.033203" xlink:href="#DejaVuSans-35"/>
      </g>
     </g>
    </g>
    <g id="ytick_7">
     <g id="line2d_35">
      <path clip-path="url(#p0c2b31aed1)" d="M 74.898438 16.971379 
L 366.028872 16.971379 
" style="fill:none;stroke:#b0b0b0;stroke-linecap:square;stroke-width:0.8;"/>
     </g>
     <g id="line2d_36">
      <g>
       <use x="74.898438" xlink:href="#m2d04ecf039" y="16.971379"/>
      </g>
     </g>
     <g id="text_19">
      <!-- 15.0 -->
      <g transform="translate(32 22.670207)scale(0.15 -0.15)">
       <use xlink:href="#DejaVuSans-31"/>
       <use x="63.623047" xlink:href="#DejaVuSans-35"/>
       <use x="127.246094" xlink:href="#DejaVuSans-2e"/>
       <use x="159.033203" xlink:href="#DejaVuSans-30"/>
      </g>
     </g>
    </g>
    <g id="text_20">
     <!-- RNA ($fl^{-1}$) -->
     <defs>
      <path d="M 44.390625 34.1875 
Q 47.5625 33.109375 50.5625 29.59375 
Q 53.5625 26.078125 56.59375 19.921875 
L 66.609375 0 
L 56 0 
L 46.6875 18.703125 
Q 43.0625 26.03125 39.671875 28.421875 
Q 36.28125 30.8125 30.421875 30.8125 
L 19.671875 30.8125 
L 19.671875 0 
L 9.8125 0 
L 9.8125 72.90625 
L 32.078125 72.90625 
Q 44.578125 72.90625 50.734375 67.671875 
Q 56.890625 62.453125 56.890625 51.90625 
Q 56.890625 45.015625 53.6875 40.46875 
Q 50.484375 35.9375 44.390625 34.1875 
z
M 19.671875 64.796875 
L 19.671875 38.921875 
L 32.078125 38.921875 
Q 39.203125 38.921875 42.84375 42.21875 
Q 46.484375 45.515625 46.484375 51.90625 
Q 46.484375 58.296875 42.84375 61.546875 
Q 39.203125 64.796875 32.078125 64.796875 
z
" id="DejaVuSans-52"/>
      <path d="M 9.8125 72.90625 
L 23.09375 72.90625 
L 55.421875 11.921875 
L 55.421875 72.90625 
L 64.984375 72.90625 
L 64.984375 0 
L 51.703125 0 
L 19.390625 60.984375 
L 19.390625 0 
L 9.8125 0 
z
" id="DejaVuSans-4e"/>
      <path d="M 34.1875 63.1875 
L 20.796875 26.90625 
L 47.609375 26.90625 
z
M 28.609375 72.90625 
L 39.796875 72.90625 
L 67.578125 0 
L 57.328125 0 
L 50.6875 18.703125 
L 17.828125 18.703125 
L 11.1875 0 
L 0.78125 0 
z
" id="DejaVuSans-41"/>
      <path id="DejaVuSans-20"/>
      <path d="M 31 75.875 
Q 24.46875 64.65625 21.28125 53.65625 
Q 18.109375 42.671875 18.109375 31.390625 
Q 18.109375 20.125 21.3125 9.0625 
Q 24.515625 -2 31 -13.1875 
L 23.1875 -13.1875 
Q 15.875 -1.703125 12.234375 9.375 
Q 8.59375 20.453125 8.59375 31.390625 
Q 8.59375 42.28125 12.203125 53.3125 
Q 15.828125 64.359375 23.1875 75.875 
z
" id="DejaVuSans-28"/>
      <path d="M 47.796875 75.984375 
L 46.390625 68.5 
L 37.796875 68.5 
Q 32.90625 68.5 30.6875 66.578125 
Q 28.46875 64.65625 27.390625 59.515625 
L 26.421875 54.6875 
L 41.21875 54.6875 
L 39.890625 47.703125 
L 25.09375 47.703125 
L 15.828125 0 
L 6.78125 0 
L 16.109375 47.703125 
L 7.515625 47.703125 
L 8.796875 54.6875 
L 17.390625 54.6875 
L 18.109375 58.5 
Q 19.96875 68.171875 24.625 72.078125 
Q 29.296875 75.984375 39.3125 75.984375 
z
" id="DejaVuSans-Oblique-66"/>
      <path d="M 18.3125 75.984375 
L 27.296875 75.984375 
L 12.5 0 
L 3.515625 0 
z
" id="DejaVuSans-Oblique-6c"/>
      <path d="M 10.59375 35.5 
L 73.1875 35.5 
L 73.1875 27.203125 
L 10.59375 27.203125 
z
" id="DejaVuSans-2212"/>
      <path d="M 8.015625 75.875 
L 15.828125 75.875 
Q 23.140625 64.359375 26.78125 53.3125 
Q 30.421875 42.28125 30.421875 31.390625 
Q 30.421875 20.453125 26.78125 9.375 
Q 23.140625 -1.703125 15.828125 -13.1875 
L 8.015625 -13.1875 
Q 14.5 -2 17.703125 9.0625 
Q 20.90625 20.125 20.90625 31.390625 
Q 20.90625 42.671875 17.703125 53.65625 
Q 14.5 64.65625 8.015625 75.875 
z
" id="DejaVuSans-29"/>
     </defs>
     <g transform="translate(23.840625 171.82)rotate(-90)scale(0.2 -0.2)">
      <use transform="translate(0 0.684375)" xlink:href="#DejaVuSans-52"/>
      <use transform="translate(69.482422 0.684375)" xlink:href="#DejaVuSans-4e"/>
      <use transform="translate(144.287109 0.684375)" xlink:href="#DejaVuSans-41"/>
      <use transform="translate(212.695312 0.684375)" xlink:href="#DejaVuSans-20"/>
      <use transform="translate(244.482422 0.684375)" xlink:href="#DejaVuSans-28"/>
      <use transform="translate(283.496094 0.684375)" xlink:href="#DejaVuSans-Oblique-66"/>
      <use transform="translate(318.701172 0.684375)" xlink:href="#DejaVuSans-Oblique-6c"/>
      <use transform="translate(353.932083 38.965625)scale(0.7)" xlink:href="#DejaVuSans-2212"/>
      <use transform="translate(412.584427 38.965625)scale(0.7)" xlink:href="#DejaVuSans-31"/>
      <use transform="translate(459.854935 0.684375)" xlink:href="#DejaVuSans-29"/>
     </g>
    </g>
   </g>
   <g id="line2d_37">
    <path clip-path="url(#p0c2b31aed1)" d="M 74.962083 147.089108 
L 78.332497 165.105762 
L 81.441769 133.764785 
L 84.816538 106.443141 
L 88.16753 33.588914 
L 91.103937 56.452895 
L 94.329505 69.366819 
L 97.756317 32.345433 
L 100.82402 33.047267 
L 104.081817 88.522225 
L 107.371444 86.666417 
L 110.536646 133.227307 
L 114.170994 106.745069 
L 117.083602 126.017516 
L 120.383649 135.084197 
L 123.663871 141.038042 
L 126.699645 197.663344 
L 129.905809 184.744631 
L 133.241602 145.403263 
L 136.515542 60.267365 
L 139.594565 72.516227 
L 142.949666 97.008457 
L 146.082554 42.284637 
L 149.331392 96.536854 
L 152.663403 114.035203 
L 155.806331 131.423023 
L 159.003216 138.692391 
L 163.545684 131.38383 
L 165.600094 165.238027 
L 169.171227 121.517199 
L 172.05124 106.350074 
L 175.417842 105.441101 
L 178.473237 95.038243 
L 181.805401 96.524546 
L 184.94928 131.081674 
L 188.342213 76.811515 
L 191.506624 45.568227 
L 194.769282 73.359776 
L 198.157907 73.081399 
L 201.12128 49.950587 
L 204.380738 32.283271 
L 207.721015 37.109279 
L 210.919014 60.594447 
L 214.030698 48.046877 
L 217.301548 38.973987 
L 220.976765 31.374662 
L 223.874219 59.251301 
L 226.975543 98.499736 
L 230.179367 95.333602 
L 233.454744 63.557564 
L 236.793333 95.506206 
L 239.884995 105.361116 
L 243.217733 73.657681 
L 246.524878 61.64628 
L 249.57963 59.76979 
L 252.846492 85.673568 
L 256.067176 121.282954 
L 259.830283 106.830415 
L 262.968526 105.141653 
L 265.756152 85.549503 
L 269.318535 51.627636 
L 272.350478 115.055956 
L 275.598303 99.983975 
L 278.746953 81.133516 
L 282.070887 111.946125 
L 285.307919 66.141105 
L 288.399587 84.076858 
L 291.887726 63.20179 
L 294.891807 56.200196 
L 298.134629 34.178235 
L 301.335562 47.974914 
L 304.687541 84.779282 
L 307.828702 102.543627 
L 311.591478 65.864342 
L 314.324963 23.295677 
L 317.610568 50.445146 
L 321.077366 94.978085 
L 324.245725 124.056616 
L 327.318388 105.1018 
L 330.451456 72.823409 
L 333.827852 115.543037 
L 336.987259 109.736359 
L 340.214769 85.661108 
L 343.713115 145.522619 
L 346.654556 152.600619 
L 349.866246 137.399843 
L 353.166243 124.097503 
L 356.411816 88.2332 
L 359.668332 122.68304 
L 362.895302 123.582434 
" style="fill:none;stroke:#ff7b7b;stroke-linecap:square;stroke-width:1.5;"/>
   </g>
   <g id="line2d_38">
    <path clip-path="url(#p0c2b31aed1)" d="M 74.962083 159.673711 
L 78.332497 125.430128 
L 81.441769 109.691131 
L 84.816538 119.284177 
L 88.16753 115.775689 
L 91.103937 86.277271 
L 94.329505 105.666232 
L 97.756317 122.907758 
L 100.82402 130.751306 
L 104.081817 116.831197 
L 107.371444 73.746589 
L 110.536646 84.2047 
L 114.170994 61.241195 
L 117.083602 94.860621 
L 120.383649 95.1556 
L 123.663871 96.565655 
L 126.699645 139.371702 
L 129.905809 107.755169 
L 133.241602 81.455906 
L 136.515542 86.548655 
L 139.594565 85.394977 
L 142.949666 129.003376 
L 146.082554 105.101158 
L 149.331392 114.86749 
L 152.663403 78.337402 
L 155.527713 -1 
M 160.076778 -1 
L 163.545684 45.523848 
L 165.600094 79.35547 
L 169.171227 59.717743 
L 172.05124 140.564587 
L 175.417842 115.563593 
L 178.473237 95.158902 
L 181.805401 97.509055 
L 184.94928 114.398703 
L 188.342213 107.701882 
L 191.506624 67.18557 
L 194.769282 79.165079 
L 198.157907 72.050987 
L 201.12128 61.308513 
L 204.380738 52.757449 
L 207.721015 65.988617 
L 210.919014 105.465379 
L 214.030698 73.330985 
L 217.301548 77.000664 
L 220.976765 45.531207 
L 223.874219 86.283676 
L 226.975543 73.418526 
L 230.179367 72.418336 
L 233.454744 105.148822 
L 236.793333 115.602063 
L 239.884995 113.988944 
L 243.217733 81.152777 
L 246.524878 31.34792 
L 248.843645 -1 
M 249.980088 -1 
L 252.846492 72.491761 
L 256.067176 59.708073 
L 259.830283 83.918516 
L 262.968526 42.670439 
L 265.756152 8.674774 
L 269.318535 42.586154 
L 272.350478 64.724424 
L 275.598303 77.489842 
L 278.746953 74.212958 
L 282.070887 85.618567 
L 285.307919 59.877961 
L 288.399587 83.749901 
L 291.887726 105.222648 
L 294.891807 66.89081 
L 298.134629 87.221217 
L 301.335562 66.073607 
L 304.687541 46.235925 
L 307.828702 74.366115 
L 311.591478 99.614043 
L 314.324963 121.650075 
L 317.610568 95.765129 
L 321.077366 85.062104 
L 323.900404 -1 
M 325.445429 -1 
L 327.318388 15.435099 
L 328.382615 -1 
M 333.732786 -1 
L 333.827852 -0.074363 
L 336.987259 74.030847 
L 340.214769 85.99393 
L 343.713115 60.403979 
L 346.654556 61.384756 
L 349.866246 53.47022 
L 353.166243 85.423749 
L 356.411816 96.160442 
L 359.668332 56.404919 
L 362.895302 62.494559 
" style="fill:none;stroke:#ff7b7b;stroke-linecap:square;stroke-width:1.5;"/>
   </g>
   <g id="line2d_39">
    <path clip-path="url(#p0c2b31aed1)" d="M 74.962083 148.229385 
L 78.332497 164.746283 
L 81.441769 157.389415 
L 84.816538 140.857305 
L 88.16753 84.135526 
L 91.103937 124.175563 
L 94.329505 105.16257 
L 97.756317 139.355638 
L 100.82402 123.957315 
L 104.081817 117.088576 
L 107.371444 126.572664 
L 110.536646 72.445063 
L 114.170994 95.554886 
L 117.083602 105.098414 
L 120.383649 134.04385 
L 123.663871 114.160334 
L 126.699645 139.263678 
L 129.905809 123.175128 
L 133.241602 145.240861 
L 136.515542 86.835115 
L 139.594565 96.890589 
L 142.949666 83.675706 
L 146.082554 105.253767 
L 149.331392 66.30027 
L 152.663403 87.167256 
L 155.806331 114.464535 
L 159.003216 69.57964 
L 163.545684 74.338082 
L 165.600094 59.942025 
L 169.171227 10.919805 
L 172.05124 61.146903 
L 175.417842 31.76941 
L 178.473237 95.622901 
L 181.805401 87.477602 
L 184.94928 31.510638 
L 188.342213 108.015187 
L 191.506624 76.197506 
L 194.769282 85.951767 
L 198.157907 133.910736 
L 201.12128 95.061728 
L 204.380738 53.04682 
L 207.721015 76.387389 
L 210.919014 60.36924 
L 214.030698 97.834365 
L 217.301548 76.834295 
L 220.976765 103.252904 
L 223.874219 139.646853 
L 226.975543 120.814882 
L 230.179367 62.300762 
L 233.454744 95.087928 
L 236.793333 95.629495 
L 239.884995 114.514729 
L 243.217733 98.613082 
L 246.524878 77.365179 
L 249.57963 88.838474 
L 252.846492 85.782751 
L 256.067176 96.325287 
L 259.830283 140.446905 
L 262.968526 137.288679 
L 265.756152 114.649496 
L 269.318535 87.73442 
L 272.350478 81.144549 
L 275.598303 108.729211 
L 278.746953 102.572731 
L 282.070887 99.301613 
L 285.307919 84.128597 
L 288.399587 118.202311 
L 291.887726 146.943201 
L 294.891807 114.38231 
L 298.134629 106.009651 
L 301.335562 51.051899 
L 304.687541 31.352096 
L 307.828702 59.889723 
L 311.591478 59.399318 
L 314.324963 72.148135 
L 317.610568 106.974113 
L 321.077366 126.646872 
L 324.245725 125.104537 
L 327.318388 96.35694 
L 330.451456 89.478931 
L 333.827852 107.59027 
L 336.987259 117.733832 
L 340.214769 99.207001 
L 343.713115 121.174535 
L 346.654556 106.642037 
L 349.866246 105.196331 
L 353.166243 85.556634 
L 356.411816 60.689655 
L 359.668332 56.810075 
L 361.804026 -1 
" style="fill:none;stroke:#ff7b7b;stroke-linecap:square;stroke-width:1.5;"/>
   </g>
   <g id="line2d_40">
    <path clip-path="url(#p0c2b31aed1)" d="M 74.962083 159.434794 
L 78.332497 151.831106 
L 81.441769 108.729798 
L 84.816538 95.301044 
L 88.16753 63.495891 
L 91.103937 46.515031 
L 94.329505 60.619244 
L 97.756317 89.819949 
L 100.82402 78.253799 
L 104.081817 60.697796 
L 107.371444 99.037051 
L 110.536646 72.706519 
L 114.170994 72.465919 
L 117.083602 21.616546 
L 120.383649 46.505659 
L 123.077062 -1 
M 124.188103 -1 
L 126.699645 48.585607 
L 129.905809 61.889805 
L 132.766624 -1 
M 136.746819 -1 
L 139.594565 59.75847 
L 142.949666 72.874119 
L 146.082554 147.253399 
L 149.331392 153.246204 
L 152.663403 143.780647 
L 155.806331 81.356575 
L 158.177202 -1 
M 161.762776 -1 
L 163.545684 17.538192 
L 165.600094 59.984947 
L 169.171227 120.874396 
L 172.05124 185.452923 
L 175.417842 116.567583 
L 178.473237 94.960856 
L 181.805401 70.448083 
L 184.94928 116.928336 
L 188.342213 138.74148 
L 191.506624 159.546987 
L 194.769282 101.282116 
L 198.157907 120.941718 
L 201.12128 117.722739 
L 204.380738 96.029803 
L 207.721015 124.190704 
L 210.919014 52.098843 
L 214.030698 97.795693 
L 217.301548 107.581734 
L 220.976765 109.585174 
L 223.874219 112.481558 
L 226.975543 59.9226 
L 230.179367 61.192555 
L 233.454744 105.453248 
L 236.793333 105.178085 
L 239.884995 87.118326 
L 243.217733 114.826183 
L 246.524878 46.570081 
L 249.57963 31.947185 
L 252.846492 20.43943 
L 256.067176 23.087101 
L 259.830283 50.025745 
L 262.968526 43.121373 
L 265.756152 47.203448 
L 269.318535 87.162746 
L 272.350478 81.25516 
L 275.598303 92.352332 
L 278.746953 130.988544 
L 282.070887 125.705552 
L 285.307919 85.083099 
L 288.399587 96.338317 
L 291.887726 126.048226 
L 294.891807 163.097536 
L 298.134629 123.020055 
L 301.335562 165.053533 
L 304.687541 139.421856 
L 307.828702 103.005281 
L 311.591478 99.187587 
L 314.324963 59.694998 
L 317.610568 50.591663 
L 321.077366 75.000523 
L 324.245725 36.889401 
L 327.318388 60.24476 
L 330.451456 65.118897 
L 333.827852 146.643994 
L 336.987259 95.667437 
L 340.214769 98.96483 
L 343.713115 84.411359 
L 346.654556 95.50913 
L 349.866246 63.29463 
L 353.166243 94.953729 
L 356.411816 96.30042 
L 359.668332 90.130665 
L 362.895302 123.131195 
" style="fill:none;stroke:#ff7b7b;stroke-linecap:square;stroke-width:1.5;"/>
   </g>
   <g id="line2d_41">
    <path clip-path="url(#p0c2b31aed1)" d="M 74.962083 159.727213 
L 78.332497 99.294614 
L 81.441769 72.430501 
L 84.816538 50.513748 
L 88.16753 52.986209 
L 91.103937 17.43859 
L 94.329505 15.866501 
L 97.756317 14.897179 
L 100.82402 69.731577 
L 104.081817 73.971202 
L 107.371444 98.932576 
L 110.536646 71.960966 
L 114.170994 51.683505 
L 117.083602 116.360094 
L 120.383649 104.970496 
L 123.663871 150.368232 
L 126.699645 156.116871 
L 129.905809 161.554987 
L 133.241602 138.462878 
L 136.515542 152.259369 
L 139.594565 169.926336 
L 142.949666 151.91493 
L 146.082554 136.434116 
L 149.331392 114.870902 
L 152.663403 132.232983 
L 155.806331 98.039981 
L 159.003216 154.942762 
L 163.545684 160.444745 
L 165.600094 191.943965 
L 169.171227 108.559184 
L 172.05124 106.323 
L 175.417842 106.250607 
L 178.473237 104.686984 
L 181.805401 87.492755 
L 184.94928 31.354136 
L 188.342213 46.354116 
L 191.506624 117.296374 
L 194.769282 87.203093 
L 198.157907 35.708135 
L 201.12128 84.200672 
L 204.380738 115.727825 
L 207.721015 86.180107 
L 210.919014 51.336677 
L 214.030698 89.39929 
L 217.301548 123.058664 
L 220.976765 88.233793 
L 223.874219 72.691051 
L 226.975543 84.4601 
L 230.179367 83.934933 
L 233.454744 84.482789 
L 236.793333 95.280386 
L 239.884995 105.171365 
L 243.217733 82.53393 
L 246.524878 61.695702 
L 249.57963 46.330471 
L 252.846492 72.669737 
L 256.067176 96.469996 
L 259.830283 73.767281 
L 262.968526 105.071904 
L 265.756152 105.239376 
L 269.318535 105.197762 
L 272.350478 131.001019 
L 275.598303 69.31305 
L 278.746953 102.841266 
L 282.070887 33.373181 
L 285.307919 23.801524 
L 288.399587 50.405362 
L 291.887726 53.029051 
L 294.891807 66.132281 
L 298.134629 52.167896 
L 301.335562 72.838519 
L 304.687541 63.372375 
L 307.828702 32.225393 
L 311.591478 85.767638 
L 314.324963 84.522971 
L 317.610568 83.915481 
L 321.077366 95.06962 
L 324.245725 75.952957 
L 327.318388 114.123532 
L 330.451456 106.13 
L 333.827852 123.996427 
L 336.987259 103.372152 
L 340.214769 85.854181 
L 343.713115 121.765119 
L 346.654556 174.365257 
L 349.866246 126.014787 
L 353.166243 124.086639 
L 356.411816 87.199664 
L 359.668332 106.87376 
L 362.895302 115.362577 
" style="fill:none;stroke:#ff7b7b;stroke-linecap:square;stroke-width:1.5;"/>
   </g>
   <g id="line2d_42">
    <path clip-path="url(#p0c2b31aed1)" d="M 74.962083 173.987826 
L 78.332497 165.346594 
L 81.441769 145.373895 
L 84.816538 163.708349 
L 88.16753 84.24805 
L 91.103937 124.670518 
L 94.329505 69.228592 
L 97.756317 64.917678 
L 100.82402 30.914428 
L 104.081817 60.349837 
L 107.371444 59.294859 
L 110.536646 85.562246 
L 114.170994 95.322016 
L 117.083602 116.068296 
L 120.383649 153.232122 
L 123.663871 159.098972 
L 126.699645 115.910336 
L 129.905809 61.726812 
L 133.241602 74.161215 
L 136.515542 139.297834 
L 139.594565 97.121804 
L 142.949666 84.107308 
L 146.082554 105.070029 
L 149.331392 143.934506 
L 152.663403 141.458891 
L 155.806331 106.508012 
L 159.003216 54.446957 
L 163.545684 60.58791 
L 165.600094 125.131769 
L 169.171227 157.767194 
L 172.05124 174.835848 
L 175.417842 148.098435 
L 178.473237 114.518182 
L 181.805401 96.421781 
L 184.94928 81.576719 
L 188.342213 84.772989 
L 191.506624 104.152796 
L 194.769282 99.774072 
L 198.157907 35.338591 
L 201.12128 4.710137 
L 204.380738 21.449538 
L 207.721015 47.04985 
L 210.919014 78.387967 
L 214.030698 81.771853 
L 217.301548 108.065164 
L 220.976765 124.089278 
L 223.874219 125.281543 
L 226.975543 109.740996 
L 230.179367 95.069525 
L 233.454744 63.726441 
L 236.793333 76.521844 
L 239.884995 61.250722 
L 243.217733 64.563197 
L 246.524878 99.983646 
L 249.57963 109.75389 
L 252.846492 98.885032 
L 256.067176 84.424066 
L 259.830283 38.874466 
L 262.968526 43.202188 
L 265.756152 37.67355 
L 269.318535 105.028081 
L 272.350478 147.83179 
L 275.598303 169.23937 
L 278.746953 159.619645 
L 282.070887 139.479523 
L 285.307919 120.76955 
L 288.399587 141.18914 
L 291.887726 117.243911 
L 294.891807 133.923007 
L 298.134629 123.016821 
L 301.335562 116.932635 
L 304.687541 93.309497 
L 307.828702 45.770399 
L 311.591478 33.176508 
L 314.324963 11.103456 
L 317.610568 38.460535 
L 321.077366 115.700731 
L 324.245725 56.480323 
L 327.264817 -1 
M 327.413974 -1 
L 330.451456 31.411104 
L 333.827852 46.345274 
L 336.987259 117.081466 
L 340.214769 112.795961 
L 343.713115 73.349124 
L 346.654556 61.226235 
L 349.866246 105.445854 
L 353.166243 153.141221 
L 356.411816 71.433782 
L 359.668332 -0.650431 
L 359.747506 -1 
" style="fill:none;stroke:#ff7b7b;stroke-linecap:square;stroke-width:1.5;"/>
   </g>
   <g id="line2d_43">
    <path clip-path="url(#p0c2b31aed1)" d="M 74.962083 159.991788 
L 78.332497 87.791375 
L 81.441769 145.401122 
L 84.816538 117.805285 
L 88.16753 85.586956 
L 91.103937 86.31833 
L 94.329505 87.151406 
L 97.756317 56.454567 
L 100.82402 77.302827 
L 104.081817 88.699686 
L 107.371444 151.533487 
L 110.536646 147.318354 
L 114.170994 140.22078 
L 117.083602 105.134179 
L 120.383649 76.216119 
L 123.663871 60.831506 
L 126.699645 66.40234 
L 129.905809 46.344083 
L 133.241602 52.644335 
L 136.515542 46.157402 
L 138.958958 -1 
M 139.93721 -1 
L 142.949666 106.849268 
L 146.082554 115.614352 
L 149.331392 56.64763 
L 152.663403 78.628423 
L 155.806331 106.200861 
L 159.003216 69.423865 
L 163.545684 66.961545 
L 165.600094 52.794638 
L 169.171227 90.937377 
L 172.05124 151.726742 
L 175.417842 136.564522 
L 178.473237 124.198197 
L 181.805401 96.215186 
L 184.94928 114.497 
L 188.342213 146.035661 
L 191.506624 138.156925 
L 194.769282 79.221963 
L 198.157907 84.186599 
L 201.12128 129.093044 
L 204.380738 126.234056 
L 207.721015 114.521302 
L 210.919014 114.476019 
L 214.030698 123.127744 
L 217.301548 69.664499 
L 220.976765 81.270764 
L 223.874219 39.486401 
L 226.975543 29.293433 
L 230.179367 96.363595 
L 233.454744 73.640096 
L 236.793333 115.13485 
L 239.884995 114.314926 
L 243.217733 39.913007 
L 246.524878 69.129019 
L 249.57963 31.244119 
L 252.846492 6.763952 
L 256.067176 11.107538 
L 256.791831 -1 
M 261.216163 -1 
L 262.968526 63.191102 
L 265.756152 27.352751 
L 269.318535 24.842639 
L 272.350478 40.647261 
L 275.598303 53.971371 
L 278.746953 17.66254 
L 282.070887 6.84725 
L 285.307919 72.322298 
L 288.399587 62.058234 
L 291.887726 73.937851 
L 294.891807 75.732318 
L 298.134629 51.373104 
L 301.335562 32.166716 
L 304.687541 38.477934 
L 307.828702 74.086532 
L 311.591478 138.913563 
L 314.324963 109.794467 
L 317.610568 73.358682 
L 321.077366 115.789811 
L 324.245725 85.29898 
L 327.318388 114.1317 
L 330.451456 64.602906 
L 333.827852 107.601539 
L 336.987259 109.927998 
L 340.214769 85.608829 
L 343.713115 47.530044 
L 346.654556 33.236563 
L 349.866246 52.816788 
L 353.166243 56.600017 
L 356.411816 60.222189 
L 359.668332 81.122923 
L 362.895302 123.319925 
" style="fill:none;stroke:#ff7b7b;stroke-linecap:square;stroke-width:1.5;"/>
   </g>
   <g id="line2d_44">
    <path clip-path="url(#p0c2b31aed1)" d="M 74.962083 174.00696 
L 78.332497 125.211513 
L 81.441769 72.016464 
L 84.816538 72.54349 
L 88.16753 73.956657 
L 91.103937 96.323555 
L 94.329505 87.218999 
L 97.756317 97.923843 
L 100.82402 115.538655 
L 104.081817 59.797424 
L 107.371444 112.024479 
L 110.536646 108.67403 
L 114.170994 84.089313 
L 117.083602 74.612139 
L 120.383649 37.072063 
L 123.663871 69.218884 
L 126.699645 98.123061 
L 129.905809 92.345157 
L 133.241602 60.758807 
L 136.515542 99.053679 
L 139.594565 72.15665 
L 142.949666 117.979736 
L 146.082554 84.309059 
L 149.331392 75.717296 
L 152.663403 69.295141 
L 155.806331 122.820117 
L 159.003216 123.817152 
L 163.545684 88.442601 
L 165.600094 92.36747 
L 169.171227 96.846488 
L 172.05124 106.881867 
L 175.417842 136.615304 
L 178.473237 143.992693 
L 181.805401 97.249448 
L 184.94928 114.781889 
L 188.342213 84.7827 
L 191.506624 45.653971 
L 194.769282 46.060736 
L 198.157907 11.023694 
L 201.12128 61.152544 
L 204.380738 94.743903 
L 207.721015 95.995907 
L 210.919014 78.09289 
L 214.030698 81.461508 
L 217.301548 46.221703 
L 220.976765 17.180271 
L 223.874219 26.242489 
L 226.975543 35.435487 
L 230.179367 49.791239 
L 233.454744 52.76902 
L 236.793333 95.455484 
L 239.884995 69.622128 
L 243.217733 81.111883 
L 246.524878 130.845751 
L 249.57963 131.34449 
L 252.846492 99.538639 
L 256.067176 97.585441 
L 259.830283 106.748714 
L 262.968526 126.108137 
L 265.756152 163.664253 
L 269.318535 132.204258 
L 272.350478 115.665968 
L 275.598303 116.098758 
L 278.746953 138.588982 
L 282.070887 139.483531 
L 285.307919 114.662198 
L 288.399587 117.617865 
L 291.887726 73.844432 
L 294.891807 38.311592 
L 298.134629 24.63762 
L 301.335562 23.136689 
L 304.687541 23.311479 
L 307.828702 31.225336 
L 311.591478 40.077215 
L 314.324963 24.251067 
L 317.610568 27.480762 
L 319.667474 -1 
M 322.700688 -1 
L 324.245725 17.580489 
L 327.318388 78.680043 
L 330.451456 48.024375 
L 333.827852 53.743672 
L 336.987259 67.193428 
L 340.214769 72.661262 
L 343.713115 96.388295 
L 346.654556 73.085746 
L 349.866246 73.91231 
L 353.166243 36.915024 
L 356.411816 43.313045 
L 359.668332 6.324291 
L 362.895302 84.684578 
" style="fill:none;stroke:#ff7b7b;stroke-linecap:square;stroke-width:1.5;"/>
   </g>
   <g id="line2d_45">
    <path clip-path="url(#p0c2b31aed1)" d="M 74.962083 145.317686 
L 78.332497 86.431182 
L 81.441769 84.416953 
L 84.816538 117.752956 
L 88.16753 74.435874 
L 91.103937 66.991854 
L 94.329505 96.232695 
L 97.756317 81.877112 
L 100.82402 32.055981 
L 104.081817 74.123809 
L 107.371444 74.144503 
L 110.536646 84.230713 
L 114.170994 95.19764 
L 117.083602 31.761499 
L 120.383649 38.103687 
L 123.663871 106.496347 
L 126.699645 114.329751 
L 129.905809 123.027853 
L 133.241602 103.581683 
L 136.515542 126.218488 
L 139.594565 121.231945 
L 142.949666 97.459329 
L 146.082554 125.965747 
L 149.331392 143.462627 
L 152.663403 105.065323 
L 155.806331 72.99787 
L 159.003216 31.385017 
L 163.545684 74.801069 
L 165.600094 99.006265 
L 169.171227 108.570141 
L 172.05124 73.160828 
L 175.417842 10.938016 
L 178.473237 37.308177 
L 181.805401 69.336429 
L 184.94928 49.276749 
L 188.342213 53.883147 
L 191.506624 38.345768 
L 194.769282 20.159491 
L 198.157907 11.318826 
L 201.12128 38.822908 
L 204.380738 32.221034 
L 207.721015 28.648132 
L 210.919014 60.692439 
L 214.030698 122.947359 
L 217.301548 16.088191 
L 220.976765 31.327004 
L 222.80714 -1 
M 230.389546 -1 
L 233.454744 74.14101 
L 236.793333 134.520035 
L 239.884995 87.737999 
L 243.217733 132.118291 
L 246.524878 139.177677 
L 249.57963 45.545069 
L 252.846492 86.635461 
L 256.067176 59.946703 
L 259.830283 50.081327 
L 262.968526 52.833402 
L 265.756152 104.786146 
L 269.318535 51.328249 
L 272.350478 48.021572 
L 275.598303 84.591516 
L 278.746953 102.455834 
L 282.070887 99.108813 
L 285.307919 59.984804 
L 288.399587 117.606276 
L 291.887726 52.914961 
L 294.891807 56.470929 
L 298.134629 69.309033 
L 301.335562 82.287182 
L 304.687541 76.962736 
L 307.828702 17.175701 
L 311.591478 59.338867 
L 314.324963 36.549344 
L 317.610568 84.971739 
L 321.077366 53.206776 
L 324.245725 56.453793 
L 327.318388 106.164655 
L 330.451456 97.949616 
L 333.827852 99.917644 
L 336.987259 138.797692 
L 340.214769 85.88236 
L 343.713115 84.551134 
L 346.654556 73.746918 
L 349.866246 84.772408 
L 353.166243 37.016186 
L 356.411816 122.970065 
L 359.668332 131.095504 
L 362.895302 92.238334 
" style="fill:none;stroke:#ff7b7b;stroke-linecap:square;stroke-width:1.5;"/>
   </g>
   <g id="line2d_46">
    <path clip-path="url(#p0c2b31aed1)" d="M 74.962083 159.915381 
L 78.332497 59.197897 
L 81.441769 47.514256 
L 84.816538 49.846527 
L 88.16753 74.038461 
L 91.103937 134.378833 
L 94.329505 96.469583 
L 97.756317 123.148881 
L 100.82402 47.057004 
L 104.081817 102.556196 
L 107.371444 98.897555 
L 110.536646 84.29352 
L 114.170994 61.112852 
L 117.083602 42.641191 
L 120.383649 95.621099 
L 123.663871 78.22925 
L 126.699645 64.579008 
L 129.905809 115.524379 
L 133.241602 117.187322 
L 136.515542 112.267729 
L 139.594565 85.621068 
L 142.949666 106.62295 
L 146.082554 73.761324 
L 149.331392 114.683838 
L 152.663403 141.646558 
L 155.806331 164.723599 
L 159.003216 200.019583 
L 163.545684 132.839338 
L 165.600094 191.140378 
L 169.171227 194.023223 
L 172.05124 163.592235 
L 175.417842 96.914403 
L 178.473237 76.253907 
L 181.805401 123.382506 
L 184.94928 131.207376 
L 188.342213 130.821188 
L 191.506624 174.002518 
L 194.769282 177.897783 
L 198.157907 133.472816 
L 201.12128 140.714708 
L 204.380738 115.568406 
L 207.721015 134.580445 
L 210.919014 123.383565 
L 214.030698 81.227894 
L 217.301548 123.275818 
L 220.976765 146.519538 
L 223.874219 125.231693 
L 226.975543 84.476691 
L 230.179367 72.535307 
L 233.454744 95.539831 
L 236.793333 65.957977 
L 239.884995 79.080094 
L 243.217733 40.783071 
L 246.524878 23.10399 
L 249.57963 74.098314 
L 252.846492 98.928424 
L 256.067176 109.138404 
L 259.830283 129.854297 
L 262.968526 137.090377 
L 265.756152 95.297581 
L 269.318535 123.109729 
L 272.350478 106.786225 
L 275.598303 92.295861 
L 278.746953 116.943837 
L 282.070887 98.99809 
L 285.307919 122.104624 
L 288.399587 107.035584 
L 291.887726 84.196839 
L 294.891807 58.451185 
L 298.134629 42.947179 
L 301.335562 89.435161 
L 304.687541 76.865127 
L 307.828702 59.961171 
L 311.591478 39.548057 
L 314.324963 78.112741 
L 317.610568 106.340635 
L 321.077366 105.218966 
L 324.245725 115.311986 
L 327.318388 132.176688 
L 330.451456 122.651324 
L 333.827852 130.656884 
L 336.987259 102.784431 
L 340.214769 138.479565 
L 343.713115 158.527907 
L 346.654556 107.311888 
L 349.866246 126.860975 
L 353.166243 105.60274 
L 356.411816 122.990207 
L 359.668332 115.883971 
L 362.895302 100.196562 
" style="fill:none;stroke:#ff7b7b;stroke-linecap:square;stroke-width:1.5;"/>
   </g>
   <g id="line2d_47">
    <path clip-path="url(#p0c2b31aed1)" d="M 74.962083 156.557343 
L 78.332497 132.737856 
L 81.441769 115.177211 
L 84.816538 106.044285 
L 88.16753 100.518761 
L 91.103937 94.992588 
L 94.329505 91.876361 
L 97.756317 91.014128 
L 100.82402 89.810802 
L 104.081817 89.665216 
L 107.371444 89.803199 
L 110.536646 88.860668 
L 114.170994 90.861587 
L 117.083602 88.442439 
L 120.383649 88.52692 
L 123.663871 87.341864 
L 126.699645 86.75218 
L 129.905809 87.105568 
L 133.241602 87.522793 
L 136.515542 89.144617 
L 139.594565 87.566927 
L 142.949666 87.364741 
L 146.082554 86.481892 
L 149.331392 88.060453 
L 152.663403 88.478979 
L 155.806331 88.061642 
L 159.003216 85.872045 
L 163.545684 87.008797 
L 165.600094 87.388571 
L 169.171227 88.284817 
L 172.05124 87.415238 
L 175.417842 87.726852 
L 178.473237 88.630496 
L 181.805401 89.597874 
L 184.94928 90.232036 
L 188.342213 91.452418 
L 191.506624 88.967836 
L 194.769282 89.528134 
L 198.157907 90.593883 
L 201.12128 90.49122 
L 204.380738 89.864146 
L 207.721015 88.28441 
L 210.919014 88.539095 
L 214.030698 89.862808 
L 217.301548 89.177995 
L 220.976765 88.460963 
L 223.874219 89.236795 
L 226.975543 89.55115 
L 230.179367 88.885402 
L 233.454744 87.613531 
L 236.793333 88.041641 
L 239.884995 88.663761 
L 243.217733 89.553896 
L 246.524878 88.469033 
L 249.57963 87.792134 
L 252.846492 87.114785 
L 256.067176 89.33997 
L 259.830283 89.073231 
L 262.968526 89.51876 
L 265.756152 88.478665 
L 269.318535 87.659383 
L 272.350478 88.788198 
L 275.598303 88.463832 
L 278.746953 88.840988 
L 282.070887 87.962565 
L 285.307919 89.442317 
L 288.399587 88.441486 
L 291.887726 87.252984 
L 294.891807 87.066246 
L 298.134629 86.104452 
L 301.335562 86.401545 
L 304.687541 85.857343 
L 307.828702 88.209332 
L 311.591478 89.286303 
L 314.324963 86.84105 
L 317.610568 86.492438 
L 321.077366 85.68 
L 324.245725 87.883781 
L 327.318388 86.903153 
L 330.451456 89.666905 
L 333.827852 89.234656 
L 336.987259 88.712532 
L 340.214769 87.384399 
L 343.713115 88.387942 
L 346.654556 89.687942 
L 349.866246 89.652865 
L 353.166243 90.351767 
L 356.411816 89.585164 
L 359.668332 87.419512 
L 362.895302 87.657485 
" style="fill:none;stroke:#bd0025;stroke-linecap:square;stroke-width:3;"/>
   </g>
   <g id="patch_3">
    <path d="M 74.898438 230.64 
L 74.898438 13.2 
" style="fill:none;stroke:#000000;stroke-linecap:square;stroke-linejoin:miter;stroke-width:2;"/>
   </g>
   <g id="patch_4">
    <path d="M 366.028872 230.64 
L 366.028872 13.2 
" style="fill:none;"/>
   </g>
   <g id="patch_5">
    <path d="M 74.898438 230.64 
L 366.028872 230.64 
" style="fill:none;stroke:#000000;stroke-linecap:square;stroke-linejoin:miter;stroke-width:2;"/>
   </g>
   <g id="patch_6">
    <path d="M 74.898438 13.2 
L 366.028872 13.2 
" style="fill:none;"/>
   </g>
  </g>
  <g id="axes_2">
   <g id="patch_7">
    <path d="M 453.368003 230.64 
L 744.498438 230.64 
L 744.498438 13.2 
L 453.368003 13.2 
z
" style="fill:#ffffff;"/>
   </g>
   <g id="PolyCollection_2">
    <defs>
     <path d="M 453.431648 -89.040047 
L 453.431648 -82.265588 
L 456.802062 -180.819489 
L 459.911334 -173.139045 
L 463.286103 -169.171865 
L 466.637095 -162.296161 
L 469.573502 -146.817396 
L 472.799071 -151.378385 
L 476.225882 -153.326908 
L 479.293585 -150.265005 
L 482.551382 -160.12592 
L 485.841009 -156.573743 
L 489.006212 -159.253601 
L 492.640559 -157.141652 
L 495.553167 -162.522106 
L 498.853214 -156.08221 
L 502.133436 -156.069911 
L 505.169211 -155.543771 
L 508.375374 -159.716642 
L 511.711167 -165.324875 
L 514.985107 -169.711362 
L 518.06413 -167.219991 
L 521.419231 -161.076879 
L 524.55212 -156.627183 
L 527.800958 -151.816354 
L 531.132969 -150.061781 
L 534.275896 -146.656414 
L 537.472782 -154.98634 
L 542.015249 -167.966724 
L 544.069659 -167.98104 
L 547.640792 -161.111983 
L 550.520805 -154.754777 
L 553.887407 -153.084703 
L 556.942802 -152.218381 
L 560.274966 -146.647917 
L 563.418845 -162.387535 
L 566.811778 -156.127804 
L 569.976189 -162.710237 
L 573.238847 -168.7553 
L 576.627472 -161.857467 
L 579.590845 -161.415184 
L 582.850303 -154.152323 
L 586.19058 -141.715599 
L 589.38858 -149.789052 
L 592.500264 -152.949317 
L 595.771113 -159.344101 
L 599.44633 -166.796748 
L 602.343784 -164.524025 
L 605.445108 -173.354451 
L 608.648932 -165.376371 
L 611.924309 -153.500239 
L 615.262898 -149.52977 
L 618.35456 -151.753171 
L 621.687298 -157.607145 
L 624.994443 -158.958218 
L 628.049195 -168.849894 
L 631.316058 -171.176131 
L 634.536741 -169.202602 
L 638.299848 -155.327825 
L 641.438091 -146.047139 
L 644.225718 -156.381304 
L 647.7881 -154.987521 
L 650.820043 -153.187159 
L 654.067868 -156.706529 
L 657.216518 -162.68919 
L 660.540452 -161.019853 
L 663.777484 -160.050471 
L 666.869153 -158.51747 
L 670.357291 -159.280231 
L 673.361372 -153.378625 
L 676.604194 -155.955002 
L 679.805127 -159.792849 
L 683.157106 -156.198035 
L 686.298267 -164.512058 
L 690.061044 -165.089214 
L 692.794529 -159.555101 
L 696.080134 -157.678605 
L 699.546931 -157.031986 
L 702.71529 -154.519481 
L 705.787953 -151.95249 
L 708.921022 -150.9093 
L 712.297417 -150.704838 
L 715.456824 -161.622816 
L 718.684334 -157.401376 
L 722.18268 -161.557287 
L 725.124121 -153.510592 
L 728.335811 -160.408753 
L 731.635808 -158.795538 
L 734.881381 -156.347912 
L 738.137897 -160.249355 
L 741.364867 -171.061361 
L 741.364867 -205.133989 
L 741.364867 -205.133989 
L 738.137897 -190.676449 
L 734.881381 -185.478719 
L 731.635808 -188.738381 
L 728.335811 -190.889027 
L 725.124121 -181.705213 
L 722.18268 -192.421257 
L 718.684334 -186.881184 
L 715.456824 -192.508704 
L 712.297417 -177.979175 
L 708.921022 -178.250514 
L 705.787953 -179.635377 
L 702.71529 -183.046353 
L 699.546931 -186.389333 
L 696.080134 -187.250383 
L 692.794529 -189.750768 
L 690.061044 -197.138635 
L 686.298267 -196.367197 
L 683.157106 -185.279251 
L 679.805127 -190.067731 
L 676.604194 -184.955836 
L 673.361372 -181.529838 
L 670.357291 -189.384362 
L 666.869153 -188.367854 
L 663.777484 -190.411234 
L 660.540452 -191.70417 
L 657.216518 -193.932165 
L 654.067868 -185.956057 
L 650.820043 -181.275414 
L 647.7881 -183.668768 
L 644.225718 -185.523162 
L 641.438091 -171.805982 
L 638.299848 -184.121411 
L 634.536741 -202.643033 
L 631.316058 -205.287868 
L 628.049195 -202.170616 
L 624.994443 -188.955176 
L 621.687298 -187.155211 
L 618.35456 -179.370717 
L 615.262898 -176.420322 
L 611.924309 -181.691453 
L 608.648932 -197.522538 
L 605.445108 -208.210079 
L 602.343784 -196.38319 
L 599.44633 -199.422251 
L 595.771113 -189.469496 
L 592.500264 -180.959402 
L 589.38858 -176.764204 
L 586.19058 -166.079015 
L 582.850303 -182.558199 
L 579.590845 -192.231634 
L 576.627472 -192.821865 
L 573.238847 -202.043932 
L 569.976189 -193.960268 
L 566.811778 -185.185787 
L 563.418845 -193.52942 
L 560.274966 -172.601372 
L 556.942802 -179.988477 
L 553.887407 -181.139279 
L 550.520805 -183.359239 
L 547.640792 -191.827083 
L 544.069659 -201.007222 
L 542.015249 -200.988056 
L 537.472782 -183.667198 
L 534.275896 -172.612623 
L 531.132969 -177.12597 
L 527.800958 -179.454609 
L 524.55212 -185.850435 
L 521.419231 -191.78025 
L 518.06413 -199.988583 
L 514.985107 -203.324608 
L 511.711167 -197.453689 
L 508.375374 -189.966129 
L 505.169211 -184.408685 
L 502.133436 -185.108746 
L 498.853214 -185.125112 
L 495.553167 -193.709081 
L 492.640559 -186.535346 
L 489.006212 -189.348865 
L 485.841009 -185.779302 
L 482.551382 -190.511843 
L 479.293585 -177.395576 
L 476.225882 -181.461112 
L 472.799071 -178.873143 
L 469.573502 -172.825797 
L 466.637095 -193.407437 
L 463.286103 -202.601861 
L 459.911334 -207.920976 
L 456.802062 -218.247386 
L 453.431648 -89.040047 
z
" id="m93642b76a8"/>
    </defs>
    <g clip-path="url(#p2c19a704e1)">
     <use style="fill:#ff3333;" x="0" xlink:href="#m93642b76a8" y="285.213437"/>
    </g>
   </g>
   <g id="matplotlib.axis_3">
    <g id="xtick_12">
     <g id="line2d_48">
      <path clip-path="url(#p2c19a704e1)" d="M 453.368003 230.64 
L 453.368003 13.2 
" style="fill:none;stroke:#b0b0b0;stroke-linecap:square;stroke-width:0.8;"/>
     </g>
     <g id="line2d_49">
      <g>
       <use x="453.368003" xlink:href="#m979038b010" y="230.64"/>
      </g>
     </g>
     <g id="text_21">
      <!-- 0 -->
      <g transform="translate(448.596128 251.537656)scale(0.15 -0.15)">
       <use xlink:href="#DejaVuSans-30"/>
      </g>
     </g>
    </g>
    <g id="xtick_13">
     <g id="line2d_50">
      <path clip-path="url(#p2c19a704e1)" d="M 482.481046 230.64 
L 482.481046 13.2 
" style="fill:none;stroke:#b0b0b0;stroke-linecap:square;stroke-width:0.8;"/>
     </g>
     <g id="line2d_51">
      <g>
       <use x="482.481046" xlink:href="#m979038b010" y="230.64"/>
      </g>
     </g>
     <g id="text_22">
      <!-- 1 -->
      <g transform="translate(477.709171 251.537656)scale(0.15 -0.15)">
       <use xlink:href="#DejaVuSans-31"/>
      </g>
     </g>
    </g>
    <g id="xtick_14">
     <g id="line2d_52">
      <path clip-path="url(#p2c19a704e1)" d="M 511.59409 230.64 
L 511.59409 13.2 
" style="fill:none;stroke:#b0b0b0;stroke-linecap:square;stroke-width:0.8;"/>
     </g>
     <g id="line2d_53">
      <g>
       <use x="511.59409" xlink:href="#m979038b010" y="230.64"/>
      </g>
     </g>
     <g id="text_23">
      <!-- 2 -->
      <g transform="translate(506.822215 251.537656)scale(0.15 -0.15)">
       <use xlink:href="#DejaVuSans-32"/>
      </g>
     </g>
    </g>
    <g id="xtick_15">
     <g id="line2d_54">
      <path clip-path="url(#p2c19a704e1)" d="M 540.707133 230.64 
L 540.707133 13.2 
" style="fill:none;stroke:#b0b0b0;stroke-linecap:square;stroke-width:0.8;"/>
     </g>
     <g id="line2d_55">
      <g>
       <use x="540.707133" xlink:href="#m979038b010" y="230.64"/>
      </g>
     </g>
     <g id="text_24">
      <!-- 3 -->
      <g transform="translate(535.935258 251.537656)scale(0.15 -0.15)">
       <use xlink:href="#DejaVuSans-33"/>
      </g>
     </g>
    </g>
    <g id="xtick_16">
     <g id="line2d_56">
      <path clip-path="url(#p2c19a704e1)" d="M 569.820177 230.64 
L 569.820177 13.2 
" style="fill:none;stroke:#b0b0b0;stroke-linecap:square;stroke-width:0.8;"/>
     </g>
     <g id="line2d_57">
      <g>
       <use x="569.820177" xlink:href="#m979038b010" y="230.64"/>
      </g>
     </g>
     <g id="text_25">
      <!-- 4 -->
      <g transform="translate(565.048302 251.537656)scale(0.15 -0.15)">
       <use xlink:href="#DejaVuSans-34"/>
      </g>
     </g>
    </g>
    <g id="xtick_17">
     <g id="line2d_58">
      <path clip-path="url(#p2c19a704e1)" d="M 598.93322 230.64 
L 598.93322 13.2 
" style="fill:none;stroke:#b0b0b0;stroke-linecap:square;stroke-width:0.8;"/>
     </g>
     <g id="line2d_59">
      <g>
       <use x="598.93322" xlink:href="#m979038b010" y="230.64"/>
      </g>
     </g>
     <g id="text_26">
      <!-- 5 -->
      <g transform="translate(594.161345 251.537656)scale(0.15 -0.15)">
       <use xlink:href="#DejaVuSans-35"/>
      </g>
     </g>
    </g>
    <g id="xtick_18">
     <g id="line2d_60">
      <path clip-path="url(#p2c19a704e1)" d="M 628.046264 230.64 
L 628.046264 13.2 
" style="fill:none;stroke:#b0b0b0;stroke-linecap:square;stroke-width:0.8;"/>
     </g>
     <g id="line2d_61">
      <g>
       <use x="628.046264" xlink:href="#m979038b010" y="230.64"/>
      </g>
     </g>
     <g id="text_27">
      <!-- 6 -->
      <g transform="translate(623.274389 251.537656)scale(0.15 -0.15)">
       <use xlink:href="#DejaVuSans-36"/>
      </g>
     </g>
    </g>
    <g id="xtick_19">
     <g id="line2d_62">
      <path clip-path="url(#p2c19a704e1)" d="M 657.159307 230.64 
L 657.159307 13.2 
" style="fill:none;stroke:#b0b0b0;stroke-linecap:square;stroke-width:0.8;"/>
     </g>
     <g id="line2d_63">
      <g>
       <use x="657.159307" xlink:href="#m979038b010" y="230.64"/>
      </g>
     </g>
     <g id="text_28">
      <!-- 7 -->
      <g transform="translate(652.387432 251.537656)scale(0.15 -0.15)">
       <use xlink:href="#DejaVuSans-37"/>
      </g>
     </g>
    </g>
    <g id="xtick_20">
     <g id="line2d_64">
      <path clip-path="url(#p2c19a704e1)" d="M 686.272351 230.64 
L 686.272351 13.2 
" style="fill:none;stroke:#b0b0b0;stroke-linecap:square;stroke-width:0.8;"/>
     </g>
     <g id="line2d_65">
      <g>
       <use x="686.272351" xlink:href="#m979038b010" y="230.64"/>
      </g>
     </g>
     <g id="text_29">
      <!-- 8 -->
      <g transform="translate(681.500476 251.537656)scale(0.15 -0.15)">
       <use xlink:href="#DejaVuSans-38"/>
      </g>
     </g>
    </g>
    <g id="xtick_21">
     <g id="line2d_66">
      <path clip-path="url(#p2c19a704e1)" d="M 715.385394 230.64 
L 715.385394 13.2 
" style="fill:none;stroke:#b0b0b0;stroke-linecap:square;stroke-width:0.8;"/>
     </g>
     <g id="line2d_67">
      <g>
       <use x="715.385394" xlink:href="#m979038b010" y="230.64"/>
      </g>
     </g>
     <g id="text_30">
      <!-- 9 -->
      <g transform="translate(710.613519 251.537656)scale(0.15 -0.15)">
       <use xlink:href="#DejaVuSans-39"/>
      </g>
     </g>
    </g>
    <g id="xtick_22">
     <g id="line2d_68">
      <path clip-path="url(#p2c19a704e1)" d="M 744.498438 230.64 
L 744.498438 13.2 
" style="fill:none;stroke:#b0b0b0;stroke-linecap:square;stroke-width:0.8;"/>
     </g>
     <g id="line2d_69">
      <g>
       <use x="744.498438" xlink:href="#m979038b010" y="230.64"/>
      </g>
     </g>
     <g id="text_31">
      <!-- 10 -->
      <g transform="translate(734.954688 251.537656)scale(0.15 -0.15)">
       <use xlink:href="#DejaVuSans-31"/>
       <use x="63.623047" xlink:href="#DejaVuSans-30"/>
      </g>
     </g>
    </g>
    <g id="text_32">
     <!-- $t/\tau$ -->
     <g transform="translate(585.53322 273.854062)scale(0.2 -0.2)">
      <use transform="translate(0 0.09375)" xlink:href="#DejaVuSans-Oblique-74"/>
      <use transform="translate(39.208984 0.09375)" xlink:href="#DejaVuSans-2f"/>
      <use transform="translate(72.900391 0.09375)" xlink:href="#DejaVuSans-Oblique-3c4"/>
     </g>
    </g>
   </g>
   <g id="matplotlib.axis_4">
    <g id="ytick_8">
     <g id="line2d_70">
      <path clip-path="url(#p2c19a704e1)" d="M 453.368003 230.64 
L 744.498438 230.64 
" style="fill:none;stroke:#b0b0b0;stroke-linecap:square;stroke-width:0.8;"/>
     </g>
     <g id="line2d_71">
      <g>
       <use x="453.368003" xlink:href="#m2d04ecf039" y="230.64"/>
      </g>
     </g>
     <g id="text_33">
      <!-- 0.00 -->
      <g transform="translate(410.469565 236.338828)scale(0.15 -0.15)">
       <use xlink:href="#DejaVuSans-30"/>
       <use x="63.623047" xlink:href="#DejaVuSans-2e"/>
       <use x="95.410156" xlink:href="#DejaVuSans-30"/>
       <use x="159.033203" xlink:href="#DejaVuSans-30"/>
      </g>
     </g>
    </g>
    <g id="ytick_9">
     <g id="line2d_72">
      <path clip-path="url(#p2c19a704e1)" d="M 453.368003 198.86779 
L 744.498438 198.86779 
" style="fill:none;stroke:#b0b0b0;stroke-linecap:square;stroke-width:0.8;"/>
     </g>
     <g id="line2d_73">
      <g>
       <use x="453.368003" xlink:href="#m2d04ecf039" y="198.86779"/>
      </g>
     </g>
     <g id="text_34">
      <!-- 0.02 -->
      <g transform="translate(410.469565 204.566618)scale(0.15 -0.15)">
       <use xlink:href="#DejaVuSans-30"/>
       <use x="63.623047" xlink:href="#DejaVuSans-2e"/>
       <use x="95.410156" xlink:href="#DejaVuSans-30"/>
       <use x="159.033203" xlink:href="#DejaVuSans-32"/>
      </g>
     </g>
    </g>
    <g id="ytick_10">
     <g id="line2d_74">
      <path clip-path="url(#p2c19a704e1)" d="M 453.368003 167.09558 
L 744.498438 167.09558 
" style="fill:none;stroke:#b0b0b0;stroke-linecap:square;stroke-width:0.8;"/>
     </g>
     <g id="line2d_75">
      <g>
       <use x="453.368003" xlink:href="#m2d04ecf039" y="167.09558"/>
      </g>
     </g>
     <g id="text_35">
      <!-- 0.04 -->
      <g transform="translate(410.469565 172.794408)scale(0.15 -0.15)">
       <use xlink:href="#DejaVuSans-30"/>
       <use x="63.623047" xlink:href="#DejaVuSans-2e"/>
       <use x="95.410156" xlink:href="#DejaVuSans-30"/>
       <use x="159.033203" xlink:href="#DejaVuSans-34"/>
      </g>
     </g>
    </g>
    <g id="ytick_11">
     <g id="line2d_76">
      <path clip-path="url(#p2c19a704e1)" d="M 453.368003 135.323369 
L 744.498438 135.323369 
" style="fill:none;stroke:#b0b0b0;stroke-linecap:square;stroke-width:0.8;"/>
     </g>
     <g id="line2d_77">
      <g>
       <use x="453.368003" xlink:href="#m2d04ecf039" y="135.323369"/>
      </g>
     </g>
     <g id="text_36">
      <!-- 0.06 -->
      <g transform="translate(410.469565 141.022198)scale(0.15 -0.15)">
       <use xlink:href="#DejaVuSans-30"/>
       <use x="63.623047" xlink:href="#DejaVuSans-2e"/>
       <use x="95.410156" xlink:href="#DejaVuSans-30"/>
       <use x="159.033203" xlink:href="#DejaVuSans-36"/>
      </g>
     </g>
    </g>
    <g id="ytick_12">
     <g id="line2d_78">
      <path clip-path="url(#p2c19a704e1)" d="M 453.368003 103.551159 
L 744.498438 103.551159 
" style="fill:none;stroke:#b0b0b0;stroke-linecap:square;stroke-width:0.8;"/>
     </g>
     <g id="line2d_79">
      <g>
       <use x="453.368003" xlink:href="#m2d04ecf039" y="103.551159"/>
      </g>
     </g>
     <g id="text_37">
      <!-- 0.08 -->
      <g transform="translate(410.469565 109.249987)scale(0.15 -0.15)">
       <use xlink:href="#DejaVuSans-30"/>
       <use x="63.623047" xlink:href="#DejaVuSans-2e"/>
       <use x="95.410156" xlink:href="#DejaVuSans-30"/>
       <use x="159.033203" xlink:href="#DejaVuSans-38"/>
      </g>
     </g>
    </g>
    <g id="ytick_13">
     <g id="line2d_80">
      <path clip-path="url(#p2c19a704e1)" d="M 453.368003 71.778949 
L 744.498438 71.778949 
" style="fill:none;stroke:#b0b0b0;stroke-linecap:square;stroke-width:0.8;"/>
     </g>
     <g id="line2d_81">
      <g>
       <use x="453.368003" xlink:href="#m2d04ecf039" y="71.778949"/>
      </g>
     </g>
     <g id="text_38">
      <!-- 0.10 -->
      <g transform="translate(410.469565 77.477777)scale(0.15 -0.15)">
       <use xlink:href="#DejaVuSans-30"/>
       <use x="63.623047" xlink:href="#DejaVuSans-2e"/>
       <use x="95.410156" xlink:href="#DejaVuSans-31"/>
       <use x="159.033203" xlink:href="#DejaVuSans-30"/>
      </g>
     </g>
    </g>
    <g id="ytick_14">
     <g id="line2d_82">
      <path clip-path="url(#p2c19a704e1)" d="M 453.368003 40.006739 
L 744.498438 40.006739 
" style="fill:none;stroke:#b0b0b0;stroke-linecap:square;stroke-width:0.8;"/>
     </g>
     <g id="line2d_83">
      <g>
       <use x="453.368003" xlink:href="#m2d04ecf039" y="40.006739"/>
      </g>
     </g>
     <g id="text_39">
      <!-- 0.12 -->
      <g transform="translate(410.469565 45.705567)scale(0.15 -0.15)">
       <use xlink:href="#DejaVuSans-30"/>
       <use x="63.623047" xlink:href="#DejaVuSans-2e"/>
       <use x="95.410156" xlink:href="#DejaVuSans-31"/>
       <use x="159.033203" xlink:href="#DejaVuSans-32"/>
      </g>
     </g>
    </g>
    <g id="text_40">
     <!-- $C_V^2(r)$ -->
     <defs>
      <path d="M 69.484375 67.28125 
L 67.484375 56.890625 
Q 62.796875 61.625 57.546875 63.921875 
Q 52.296875 66.21875 46.1875 66.21875 
Q 37.84375 66.21875 31.515625 62.203125 
Q 25.203125 58.203125 20.609375 50 
Q 17.671875 44.734375 16.125 38.84375 
Q 14.59375 32.953125 14.59375 27 
Q 14.59375 17.046875 19.75 11.8125 
Q 24.90625 6.59375 34.71875 6.59375 
Q 41.5 6.59375 47.75 8.765625 
Q 54 10.9375 59.90625 15.28125 
L 57.625 3.609375 
Q 51.8125 1.125 45.875 -0.140625 
Q 39.9375 -1.421875 33.984375 -1.421875 
Q 19.96875 -1.421875 12.078125 6.1875 
Q 4.203125 13.8125 4.203125 27.390625 
Q 4.203125 36.078125 7.203125 44.46875 
Q 10.203125 52.875 15.828125 59.8125 
Q 21.78125 67.1875 29.421875 70.703125 
Q 37.0625 74.21875 47.21875 74.21875 
Q 53.46875 74.21875 59.0625 72.484375 
Q 64.65625 70.75 69.484375 67.28125 
z
" id="DejaVuSans-Oblique-43"/>
      <path d="M 20.609375 0 
L 7.8125 72.90625 
L 17.484375 72.90625 
L 28.078125 10.203125 
L 63.484375 72.90625 
L 74.21875 72.90625 
L 32.078125 0 
z
" id="DejaVuSans-Oblique-56"/>
      <path d="M 44.578125 46.390625 
Q 43.21875 47.125 41.453125 47.515625 
Q 39.703125 47.90625 37.703125 47.90625 
Q 30.515625 47.90625 25.140625 42.453125 
Q 19.78125 37.015625 18.015625 27.875 
L 12.5 0 
L 3.515625 0 
L 14.203125 54.6875 
L 23.1875 54.6875 
L 21.484375 46.1875 
Q 25.046875 50.921875 30 53.453125 
Q 34.96875 56 40.578125 56 
Q 42.046875 56 43.453125 55.828125 
Q 44.875 55.671875 46.296875 55.28125 
z
" id="DejaVuSans-Oblique-72"/>
     </defs>
     <g transform="translate(400.869565 146.32)rotate(-90)scale(0.2 -0.2)">
      <use transform="translate(0 0.765625)" xlink:href="#DejaVuSans-Oblique-43"/>
      <use transform="translate(77.02474 39.046875)scale(0.7)" xlink:href="#DejaVuSans-32"/>
      <use transform="translate(69.824219 -26.578125)scale(0.7)" xlink:href="#DejaVuSans-Oblique-56"/>
      <use transform="translate(124.295247 0.765625)" xlink:href="#DejaVuSans-28"/>
      <use transform="translate(163.308919 0.765625)" xlink:href="#DejaVuSans-Oblique-72"/>
      <use transform="translate(204.422201 0.765625)" xlink:href="#DejaVuSans-29"/>
     </g>
    </g>
   </g>
   <g id="line2d_84">
    <path clip-path="url(#p2c19a704e1)" d="M 453.431648 199.56062 
L 456.802062 85.68 
L 459.911334 94.683427 
L 463.286103 99.326574 
L 466.637095 107.361638 
L 469.573502 125.391841 
L 472.799071 120.087673 
L 476.225882 117.819428 
L 479.293585 121.383147 
L 482.551382 109.894556 
L 485.841009 114.036915 
L 489.006212 110.912204 
L 492.640559 113.374939 
L 495.553167 107.097844 
L 498.853214 114.609776 
L 502.133436 114.624109 
L 505.169211 115.23721 
L 508.375374 110.372052 
L 511.711167 103.824155 
L 514.985107 98.695453 
L 518.06413 101.60915 
L 521.419231 108.784873 
L 524.55212 113.974629 
L 527.800958 119.577956 
L 531.132969 121.619562 
L 534.275896 125.578919 
L 537.472782 115.886669 
L 542.015249 100.736047 
L 544.069659 100.719307 
L 547.640792 108.743905 
L 550.520805 116.156429 
L 553.887407 118.101447 
L 556.942802 119.110008 
L 560.274966 125.588793 
L 563.418845 107.25496 
L 566.811778 114.556642 
L 569.976189 106.878185 
L 573.238847 99.813821 
L 576.627472 107.873771 
L 579.590845 108.390029 
L 582.850303 116.858176 
L 586.19058 131.316131 
L 589.38858 121.93681 
L 592.500264 118.259078 
L 595.771113 110.806639 
L 599.44633 102.103938 
L 602.343784 104.75983 
L 605.445108 94.431172 
L 608.648932 103.763983 
L 611.924309 117.617591 
L 615.262898 122.238391 
L 618.35456 119.651493 
L 621.687298 112.832259 
L 624.994443 111.256741 
L 628.049195 99.703183 
L 631.316058 96.981438 
L 634.536741 99.29062 
L 638.299848 115.488819 
L 641.438091 126.286877 
L 644.225718 114.261204 
L 647.7881 115.885293 
L 650.820043 117.982151 
L 654.067868 113.882144 
L 657.216518 106.90276 
L 660.540452 108.851426 
L 663.777484 109.982585 
L 666.869153 111.770775 
L 670.357291 110.881141 
L 673.361372 117.759206 
L 676.604194 114.758018 
L 679.805127 110.283147 
L 683.157106 114.474794 
L 686.298267 104.77381 
L 690.061044 104.099513 
L 692.794529 110.560503 
L 696.080134 112.748944 
L 699.546931 113.502778 
L 702.71529 116.43052 
L 705.787953 119.419504 
L 708.921022 120.633531 
L 712.297417 120.871431 
L 715.456824 108.147677 
L 718.684334 113.072158 
L 722.18268 108.224166 
L 725.124121 117.605535 
L 728.335811 109.564548 
L 731.635808 111.446478 
L 734.881381 114.300122 
L 738.137897 109.750535 
L 741.364867 97.115763 
" style="fill:none;stroke:#bd0025;stroke-linecap:square;stroke-width:3;"/>
   </g>
   <g id="patch_8">
    <path d="M 453.368003 230.64 
L 453.368003 13.2 
" style="fill:none;stroke:#000000;stroke-linecap:square;stroke-linejoin:miter;stroke-width:2;"/>
   </g>
   <g id="patch_9">
    <path d="M 744.498438 230.64 
L 744.498438 13.2 
" style="fill:none;"/>
   </g>
   <g id="patch_10">
    <path d="M 453.368003 230.64 
L 744.498438 230.64 
" style="fill:none;stroke:#000000;stroke-linecap:square;stroke-linejoin:miter;stroke-width:2;"/>
   </g>
   <g id="patch_11">
    <path d="M 453.368003 13.2 
L 744.498438 13.2 
" style="fill:none;"/>
   </g>
  </g>
 </g>
 <defs>
  <clipPath id="p0c2b31aed1">
   <rect height="217.44" width="291.130435" x="74.898438" y="13.2"/>
  </clipPath>
  <clipPath id="p2c19a704e1">
   <rect height="217.44" width="291.130435" x="453.368003" y="13.2"/>
  </clipPath>
 </defs>
</svg>
