<?xml version="1.0" encoding="utf-8" standalone="no"?>
<!DOCTYPE svg PUBLIC "-//W3C//DTD SVG 1.1//EN"
  "http://www.w3.org/Graphics/SVG/1.1/DTD/svg11.dtd">
<!-- Created with matplotlib (https://matplotlib.org/) -->
<svg height="280.213819pt" version="1.1" viewBox="0 0 761.242188 280.213819" width="761.242188pt" xmlns="http://www.w3.org/2000/svg" xmlns:xlink="http://www.w3.org/1999/xlink">
 <defs>
  <style type="text/css">
*{stroke-linecap:butt;stroke-linejoin:round;}
  </style>
 </defs>
 <g id="figure_1">
  <g id="patch_1">
   <path d="M 0 280.213819 
L 761.242188 280.213819 
L 761.242188 0 
L 0 0 
z
" style="fill:#ffffff;"/>
  </g>
  <g id="axes_1">
   <g id="patch_2">
    <path d="M 74.898438 225.640381 
L 366.028872 225.640381 
L 366.028872 8.200381 
L 74.898438 8.200381 
z
" style="fill:#ffffff;"/>
   </g>
   <g id="PolyCollection_1">
    <defs>
     <path d="M 75.022378 -128.890878 
L 75.022378 -127.62583 
L 78.795536 -150.963175 
L 81.437674 -165.26759 
L 84.640839 -175.219683 
L 88.113958 -181.11058 
L 91.437409 -186.134801 
L 94.341379 -187.786338 
L 97.571101 -190.809661 
L 100.83338 -191.700208 
L 104.023652 -193.693509 
L 107.399481 -195.858406 
L 110.626517 -196.960804 
L 113.742252 -196.220365 
L 116.980858 -195.862128 
L 120.212793 -194.99413 
L 123.642072 -194.46696 
L 126.781063 -194.956847 
L 130.13153 -193.60861 
L 133.165341 -193.102954 
L 136.512258 -193.96142 
L 139.665702 -193.696465 
L 142.838773 -193.39103 
L 146.067897 -191.96294 
L 149.399304 -194.185333 
L 152.893616 -194.109134 
L 155.820013 -195.727848 
L 159.131331 -196.475209 
L 162.278595 -196.351784 
L 165.563206 -195.025724 
L 169.004861 -195.349617 
L 172.030312 -195.946966 
L 175.538445 -196.166513 
L 178.472917 -195.979809 
L 181.662499 -194.852914 
L 184.899369 -194.048885 
L 188.185001 -193.547395 
L 191.527824 -192.70928 
L 194.642587 -192.037598 
L 197.838252 -192.653776 
L 201.322058 -193.373751 
L 204.444783 -195.123764 
L 207.755724 -195.869236 
L 210.901102 -196.409838 
L 214.005979 -194.457194 
L 217.657286 -195.111433 
L 220.783091 -195.986388 
L 223.746412 -194.799212 
L 227.261637 -192.79322 
L 230.274839 -194.079989 
L 233.568868 -192.425163 
L 236.677436 -192.977197 
L 239.980764 -193.24619 
L 243.124278 -193.753283 
L 246.431175 -193.217344 
L 249.852486 -194.606473 
L 252.857118 -193.856897 
L 256.214307 -193.599928 
L 259.717812 -192.654594 
L 262.600071 -193.854165 
L 265.776354 -194.357767 
L 270.510432 -194.397674 
L 272.450451 -193.820101 
L 275.541015 -193.928165 
L 278.860053 -194.599077 
L 282.630697 -195.133002 
L 285.982944 -194.254085 
L 288.58472 -193.861423 
L 291.632945 -194.035381 
L 294.967274 -195.661134 
L 298.166058 -195.501923 
L 301.345865 -196.111828 
L 304.615987 -195.373016 
L 307.912678 -196.294379 
L 311.048024 -194.767269 
L 314.275677 -195.420988 
L 317.582722 -194.424284 
L 320.939092 -194.684295 
L 324.237527 -192.638715 
L 327.520356 -193.409489 
L 330.469838 -194.975998 
L 333.688879 -194.376886 
L 337.049817 -194.011832 
L 340.296211 -195.312731 
L 343.436064 -194.872339 
L 346.666912 -195.815259 
L 349.948555 -195.262861 
L 353.146894 -194.649806 
L 356.608428 -197.209389 
L 359.628228 -195.696303 
L 362.867066 -195.2864 
L 362.867066 -200.068159 
L 362.867066 -200.068159 
L 359.628228 -200.264803 
L 356.608428 -201.857486 
L 353.146894 -199.370914 
L 349.948555 -199.954144 
L 346.666912 -200.599577 
L 343.436064 -199.637566 
L 340.296211 -200.111471 
L 337.049817 -198.76959 
L 333.688879 -198.897252 
L 330.469838 -199.59256 
L 327.520356 -198.032877 
L 324.237527 -197.2673 
L 320.939092 -199.486651 
L 317.582722 -199.250639 
L 314.275677 -200.254653 
L 311.048024 -199.885286 
L 307.912678 -201.056058 
L 304.615987 -200.058371 
L 301.345865 -200.694542 
L 298.166058 -200.197082 
L 294.967274 -200.337687 
L 291.632945 -198.769503 
L 288.58472 -198.670978 
L 285.982944 -199.091024 
L 282.630697 -200.04879 
L 278.860053 -199.708305 
L 275.541015 -198.892402 
L 272.450451 -198.715922 
L 270.510432 -199.108011 
L 265.776354 -198.92692 
L 262.600071 -198.362202 
L 259.717812 -197.385828 
L 256.214307 -198.446351 
L 252.857118 -198.540996 
L 249.852486 -199.279223 
L 246.431175 -197.793325 
L 243.124278 -198.426643 
L 239.980764 -197.986356 
L 236.677436 -197.624873 
L 233.568868 -197.063878 
L 230.274839 -199.105784 
L 227.261637 -197.76705 
L 223.746412 -199.82764 
L 220.783091 -201.084415 
L 217.657286 -199.922709 
L 214.005979 -199.14168 
L 210.901102 -200.928414 
L 207.755724 -200.528093 
L 204.444783 -199.79155 
L 201.322058 -198.336469 
L 197.838252 -197.348026 
L 194.642587 -196.867811 
L 191.527824 -197.63707 
L 188.185001 -198.290835 
L 184.899369 -198.763993 
L 181.662499 -199.56256 
L 178.472917 -200.732799 
L 175.538445 -200.79396 
L 172.030312 -200.803533 
L 169.004861 -200.259489 
L 165.563206 -199.91183 
L 162.278595 -201.174628 
L 159.131331 -201.333781 
L 155.820013 -200.383284 
L 152.893616 -198.800901 
L 149.399304 -198.934233 
L 146.067897 -196.805104 
L 142.838773 -198.438538 
L 139.665702 -198.690943 
L 136.512258 -199.094697 
L 133.165341 -198.076297 
L 130.13153 -198.427349 
L 126.781063 -199.610455 
L 123.642072 -199.116538 
L 120.212793 -199.696462 
L 116.980858 -200.746471 
L 113.742252 -201.107398 
L 110.626517 -201.776159 
L 107.399481 -200.669811 
L 104.023652 -198.467003 
L 100.83338 -196.352689 
L 97.571101 -195.36372 
L 94.341379 -192.208877 
L 91.437409 -190.588146 
L 88.113958 -185.663135 
L 84.640839 -179.953964 
L 81.437674 -169.778613 
L 78.795536 -154.638174 
L 75.022378 -128.890878 
z
" id="m5b832f9673"/>
    </defs>
    <g clip-path="url(#p33310d8bfc)">
     <use style="fill:#ff3333;" x="0" xlink:href="#m5b832f9673" y="280.213819"/>
    </g>
   </g>
   <g id="matplotlib.axis_1">
    <g id="xtick_1">
     <g id="line2d_1">
      <path clip-path="url(#p33310d8bfc)" d="M 74.898438 225.640381 
L 74.898438 8.200381 
" style="fill:none;stroke:#b0b0b0;stroke-linecap:square;stroke-width:0.8;"/>
     </g>
     <g id="line2d_2">
      <defs>
       <path d="M 0 0 
L 0 6 
" id="m1b1f80da30"/>
      </defs>
      <g>
       <use x="74.898438" xlink:href="#m1b1f80da30" y="225.640381"/>
      </g>
     </g>
     <g id="text_1">
      <!-- 0 -->
      <defs>
       <path d="M 31.78125 66.40625 
Q 24.171875 66.40625 20.328125 58.90625 
Q 16.5 51.421875 16.5 36.375 
Q 16.5 21.390625 20.328125 13.890625 
Q 24.171875 6.390625 31.78125 6.390625 
Q 39.453125 6.390625 43.28125 13.890625 
Q 47.125 21.390625 47.125 36.375 
Q 47.125 51.421875 43.28125 58.90625 
Q 39.453125 66.40625 31.78125 66.40625 
z
M 31.78125 74.21875 
Q 44.046875 74.21875 50.515625 64.515625 
Q 56.984375 54.828125 56.984375 36.375 
Q 56.984375 17.96875 50.515625 8.265625 
Q 44.046875 -1.421875 31.78125 -1.421875 
Q 19.53125 -1.421875 13.0625 8.265625 
Q 6.59375 17.96875 6.59375 36.375 
Q 6.59375 54.828125 13.0625 64.515625 
Q 19.53125 74.21875 31.78125 74.21875 
z
" id="DejaVuSans-48"/>
      </defs>
      <g transform="translate(70.126563 246.538037)scale(0.15 -0.15)">
       <use xlink:href="#DejaVuSans-48"/>
      </g>
     </g>
    </g>
    <g id="xtick_2">
     <g id="line2d_3">
      <path clip-path="url(#p33310d8bfc)" d="M 104.011481 225.640381 
L 104.011481 8.200381 
" style="fill:none;stroke:#b0b0b0;stroke-linecap:square;stroke-width:0.8;"/>
     </g>
     <g id="line2d_4">
      <g>
       <use x="104.011481" xlink:href="#m1b1f80da30" y="225.640381"/>
      </g>
     </g>
     <g id="text_2">
      <!-- 1 -->
      <defs>
       <path d="M 12.40625 8.296875 
L 28.515625 8.296875 
L 28.515625 63.921875 
L 10.984375 60.40625 
L 10.984375 69.390625 
L 28.421875 72.90625 
L 38.28125 72.90625 
L 38.28125 8.296875 
L 54.390625 8.296875 
L 54.390625 0 
L 12.40625 0 
z
" id="DejaVuSans-49"/>
      </defs>
      <g transform="translate(99.239606 246.538037)scale(0.15 -0.15)">
       <use xlink:href="#DejaVuSans-49"/>
      </g>
     </g>
    </g>
    <g id="xtick_3">
     <g id="line2d_5">
      <path clip-path="url(#p33310d8bfc)" d="M 133.124524 225.640381 
L 133.124524 8.200381 
" style="fill:none;stroke:#b0b0b0;stroke-linecap:square;stroke-width:0.8;"/>
     </g>
     <g id="line2d_6">
      <g>
       <use x="133.124524" xlink:href="#m1b1f80da30" y="225.640381"/>
      </g>
     </g>
     <g id="text_3">
      <!-- 2 -->
      <defs>
       <path d="M 19.1875 8.296875 
L 53.609375 8.296875 
L 53.609375 0 
L 7.328125 0 
L 7.328125 8.296875 
Q 12.9375 14.109375 22.625 23.890625 
Q 32.328125 33.6875 34.8125 36.53125 
Q 39.546875 41.84375 41.421875 45.53125 
Q 43.3125 49.21875 43.3125 52.78125 
Q 43.3125 58.59375 39.234375 62.25 
Q 35.15625 65.921875 28.609375 65.921875 
Q 23.96875 65.921875 18.8125 64.3125 
Q 13.671875 62.703125 7.8125 59.421875 
L 7.8125 69.390625 
Q 13.765625 71.78125 18.9375 73 
Q 24.125 74.21875 28.421875 74.21875 
Q 39.75 74.21875 46.484375 68.546875 
Q 53.21875 62.890625 53.21875 53.421875 
Q 53.21875 48.921875 51.53125 44.890625 
Q 49.859375 40.875 45.40625 35.40625 
Q 44.1875 33.984375 37.640625 27.21875 
Q 31.109375 20.453125 19.1875 8.296875 
z
" id="DejaVuSans-50"/>
      </defs>
      <g transform="translate(128.352649 246.538037)scale(0.15 -0.15)">
       <use xlink:href="#DejaVuSans-50"/>
      </g>
     </g>
    </g>
    <g id="xtick_4">
     <g id="line2d_7">
      <path clip-path="url(#p33310d8bfc)" d="M 162.237568 225.640381 
L 162.237568 8.200381 
" style="fill:none;stroke:#b0b0b0;stroke-linecap:square;stroke-width:0.8;"/>
     </g>
     <g id="line2d_8">
      <g>
       <use x="162.237568" xlink:href="#m1b1f80da30" y="225.640381"/>
      </g>
     </g>
     <g id="text_4">
      <!-- 3 -->
      <defs>
       <path d="M 40.578125 39.3125 
Q 47.65625 37.796875 51.625 33 
Q 55.609375 28.21875 55.609375 21.1875 
Q 55.609375 10.40625 48.1875 4.484375 
Q 40.765625 -1.421875 27.09375 -1.421875 
Q 22.515625 -1.421875 17.65625 -0.515625 
Q 12.796875 0.390625 7.625 2.203125 
L 7.625 11.71875 
Q 11.71875 9.328125 16.59375 8.109375 
Q 21.484375 6.890625 26.8125 6.890625 
Q 36.078125 6.890625 40.9375 10.546875 
Q 45.796875 14.203125 45.796875 21.1875 
Q 45.796875 27.640625 41.28125 31.265625 
Q 36.765625 34.90625 28.71875 34.90625 
L 20.21875 34.90625 
L 20.21875 43.015625 
L 29.109375 43.015625 
Q 36.375 43.015625 40.234375 45.921875 
Q 44.09375 48.828125 44.09375 54.296875 
Q 44.09375 59.90625 40.109375 62.90625 
Q 36.140625 65.921875 28.71875 65.921875 
Q 24.65625 65.921875 20.015625 65.03125 
Q 15.375 64.15625 9.8125 62.3125 
L 9.8125 71.09375 
Q 15.4375 72.65625 20.34375 73.4375 
Q 25.25 74.21875 29.59375 74.21875 
Q 40.828125 74.21875 47.359375 69.109375 
Q 53.90625 64.015625 53.90625 55.328125 
Q 53.90625 49.265625 50.4375 45.09375 
Q 46.96875 40.921875 40.578125 39.3125 
z
" id="DejaVuSans-51"/>
      </defs>
      <g transform="translate(157.465693 246.538037)scale(0.15 -0.15)">
       <use xlink:href="#DejaVuSans-51"/>
      </g>
     </g>
    </g>
    <g id="xtick_5">
     <g id="line2d_9">
      <path clip-path="url(#p33310d8bfc)" d="M 191.350611 225.640381 
L 191.350611 8.200381 
" style="fill:none;stroke:#b0b0b0;stroke-linecap:square;stroke-width:0.8;"/>
     </g>
     <g id="line2d_10">
      <g>
       <use x="191.350611" xlink:href="#m1b1f80da30" y="225.640381"/>
      </g>
     </g>
     <g id="text_5">
      <!-- 4 -->
      <defs>
       <path d="M 37.796875 64.3125 
L 12.890625 25.390625 
L 37.796875 25.390625 
z
M 35.203125 72.90625 
L 47.609375 72.90625 
L 47.609375 25.390625 
L 58.015625 25.390625 
L 58.015625 17.1875 
L 47.609375 17.1875 
L 47.609375 0 
L 37.796875 0 
L 37.796875 17.1875 
L 4.890625 17.1875 
L 4.890625 26.703125 
z
" id="DejaVuSans-52"/>
      </defs>
      <g transform="translate(186.578736 246.538037)scale(0.15 -0.15)">
       <use xlink:href="#DejaVuSans-52"/>
      </g>
     </g>
    </g>
    <g id="xtick_6">
     <g id="line2d_11">
      <path clip-path="url(#p33310d8bfc)" d="M 220.463655 225.640381 
L 220.463655 8.200381 
" style="fill:none;stroke:#b0b0b0;stroke-linecap:square;stroke-width:0.8;"/>
     </g>
     <g id="line2d_12">
      <g>
       <use x="220.463655" xlink:href="#m1b1f80da30" y="225.640381"/>
      </g>
     </g>
     <g id="text_6">
      <!-- 5 -->
      <defs>
       <path d="M 10.796875 72.90625 
L 49.515625 72.90625 
L 49.515625 64.59375 
L 19.828125 64.59375 
L 19.828125 46.734375 
Q 21.96875 47.46875 24.109375 47.828125 
Q 26.265625 48.1875 28.421875 48.1875 
Q 40.625 48.1875 47.75 41.5 
Q 54.890625 34.8125 54.890625 23.390625 
Q 54.890625 11.625 47.5625 5.09375 
Q 40.234375 -1.421875 26.90625 -1.421875 
Q 22.3125 -1.421875 17.546875 -0.640625 
Q 12.796875 0.140625 7.71875 1.703125 
L 7.71875 11.625 
Q 12.109375 9.234375 16.796875 8.0625 
Q 21.484375 6.890625 26.703125 6.890625 
Q 35.15625 6.890625 40.078125 11.328125 
Q 45.015625 15.765625 45.015625 23.390625 
Q 45.015625 31 40.078125 35.4375 
Q 35.15625 39.890625 26.703125 39.890625 
Q 22.75 39.890625 18.8125 39.015625 
Q 14.890625 38.140625 10.796875 36.28125 
z
" id="DejaVuSans-53"/>
      </defs>
      <g transform="translate(215.69178 246.538037)scale(0.15 -0.15)">
       <use xlink:href="#DejaVuSans-53"/>
      </g>
     </g>
    </g>
    <g id="xtick_7">
     <g id="line2d_13">
      <path clip-path="url(#p33310d8bfc)" d="M 249.576698 225.640381 
L 249.576698 8.200381 
" style="fill:none;stroke:#b0b0b0;stroke-linecap:square;stroke-width:0.8;"/>
     </g>
     <g id="line2d_14">
      <g>
       <use x="249.576698" xlink:href="#m1b1f80da30" y="225.640381"/>
      </g>
     </g>
     <g id="text_7">
      <!-- 6 -->
      <defs>
       <path d="M 33.015625 40.375 
Q 26.375 40.375 22.484375 35.828125 
Q 18.609375 31.296875 18.609375 23.390625 
Q 18.609375 15.53125 22.484375 10.953125 
Q 26.375 6.390625 33.015625 6.390625 
Q 39.65625 6.390625 43.53125 10.953125 
Q 47.40625 15.53125 47.40625 23.390625 
Q 47.40625 31.296875 43.53125 35.828125 
Q 39.65625 40.375 33.015625 40.375 
z
M 52.59375 71.296875 
L 52.59375 62.3125 
Q 48.875 64.0625 45.09375 64.984375 
Q 41.3125 65.921875 37.59375 65.921875 
Q 27.828125 65.921875 22.671875 59.328125 
Q 17.53125 52.734375 16.796875 39.40625 
Q 19.671875 43.65625 24.015625 45.921875 
Q 28.375 48.1875 33.59375 48.1875 
Q 44.578125 48.1875 50.953125 41.515625 
Q 57.328125 34.859375 57.328125 23.390625 
Q 57.328125 12.15625 50.6875 5.359375 
Q 44.046875 -1.421875 33.015625 -1.421875 
Q 20.359375 -1.421875 13.671875 8.265625 
Q 6.984375 17.96875 6.984375 36.375 
Q 6.984375 53.65625 15.1875 63.9375 
Q 23.390625 74.21875 37.203125 74.21875 
Q 40.921875 74.21875 44.703125 73.484375 
Q 48.484375 72.75 52.59375 71.296875 
z
" id="DejaVuSans-54"/>
      </defs>
      <g transform="translate(244.804823 246.538037)scale(0.15 -0.15)">
       <use xlink:href="#DejaVuSans-54"/>
      </g>
     </g>
    </g>
    <g id="xtick_8">
     <g id="line2d_15">
      <path clip-path="url(#p33310d8bfc)" d="M 278.689742 225.640381 
L 278.689742 8.200381 
" style="fill:none;stroke:#b0b0b0;stroke-linecap:square;stroke-width:0.8;"/>
     </g>
     <g id="line2d_16">
      <g>
       <use x="278.689742" xlink:href="#m1b1f80da30" y="225.640381"/>
      </g>
     </g>
     <g id="text_8">
      <!-- 7 -->
      <defs>
       <path d="M 8.203125 72.90625 
L 55.078125 72.90625 
L 55.078125 68.703125 
L 28.609375 0 
L 18.3125 0 
L 43.21875 64.59375 
L 8.203125 64.59375 
z
" id="DejaVuSans-55"/>
      </defs>
      <g transform="translate(273.917867 246.538037)scale(0.15 -0.15)">
       <use xlink:href="#DejaVuSans-55"/>
      </g>
     </g>
    </g>
    <g id="xtick_9">
     <g id="line2d_17">
      <path clip-path="url(#p33310d8bfc)" d="M 307.802785 225.640381 
L 307.802785 8.200381 
" style="fill:none;stroke:#b0b0b0;stroke-linecap:square;stroke-width:0.8;"/>
     </g>
     <g id="line2d_18">
      <g>
       <use x="307.802785" xlink:href="#m1b1f80da30" y="225.640381"/>
      </g>
     </g>
     <g id="text_9">
      <!-- 8 -->
      <defs>
       <path d="M 31.78125 34.625 
Q 24.75 34.625 20.71875 30.859375 
Q 16.703125 27.09375 16.703125 20.515625 
Q 16.703125 13.921875 20.71875 10.15625 
Q 24.75 6.390625 31.78125 6.390625 
Q 38.8125 6.390625 42.859375 10.171875 
Q 46.921875 13.96875 46.921875 20.515625 
Q 46.921875 27.09375 42.890625 30.859375 
Q 38.875 34.625 31.78125 34.625 
z
M 21.921875 38.8125 
Q 15.578125 40.375 12.03125 44.71875 
Q 8.5 49.078125 8.5 55.328125 
Q 8.5 64.0625 14.71875 69.140625 
Q 20.953125 74.21875 31.78125 74.21875 
Q 42.671875 74.21875 48.875 69.140625 
Q 55.078125 64.0625 55.078125 55.328125 
Q 55.078125 49.078125 51.53125 44.71875 
Q 48 40.375 41.703125 38.8125 
Q 48.828125 37.15625 52.796875 32.3125 
Q 56.78125 27.484375 56.78125 20.515625 
Q 56.78125 9.90625 50.3125 4.234375 
Q 43.84375 -1.421875 31.78125 -1.421875 
Q 19.734375 -1.421875 13.25 4.234375 
Q 6.78125 9.90625 6.78125 20.515625 
Q 6.78125 27.484375 10.78125 32.3125 
Q 14.796875 37.15625 21.921875 38.8125 
z
M 18.3125 54.390625 
Q 18.3125 48.734375 21.84375 45.5625 
Q 25.390625 42.390625 31.78125 42.390625 
Q 38.140625 42.390625 41.71875 45.5625 
Q 45.3125 48.734375 45.3125 54.390625 
Q 45.3125 60.0625 41.71875 63.234375 
Q 38.140625 66.40625 31.78125 66.40625 
Q 25.390625 66.40625 21.84375 63.234375 
Q 18.3125 60.0625 18.3125 54.390625 
z
" id="DejaVuSans-56"/>
      </defs>
      <g transform="translate(303.03091 246.538037)scale(0.15 -0.15)">
       <use xlink:href="#DejaVuSans-56"/>
      </g>
     </g>
    </g>
    <g id="xtick_10">
     <g id="line2d_19">
      <path clip-path="url(#p33310d8bfc)" d="M 336.915829 225.640381 
L 336.915829 8.200381 
" style="fill:none;stroke:#b0b0b0;stroke-linecap:square;stroke-width:0.8;"/>
     </g>
     <g id="line2d_20">
      <g>
       <use x="336.915829" xlink:href="#m1b1f80da30" y="225.640381"/>
      </g>
     </g>
     <g id="text_10">
      <!-- 9 -->
      <defs>
       <path d="M 10.984375 1.515625 
L 10.984375 10.5 
Q 14.703125 8.734375 18.5 7.8125 
Q 22.3125 6.890625 25.984375 6.890625 
Q 35.75 6.890625 40.890625 13.453125 
Q 46.046875 20.015625 46.78125 33.40625 
Q 43.953125 29.203125 39.59375 26.953125 
Q 35.25 24.703125 29.984375 24.703125 
Q 19.046875 24.703125 12.671875 31.3125 
Q 6.296875 37.9375 6.296875 49.421875 
Q 6.296875 60.640625 12.9375 67.421875 
Q 19.578125 74.21875 30.609375 74.21875 
Q 43.265625 74.21875 49.921875 64.515625 
Q 56.59375 54.828125 56.59375 36.375 
Q 56.59375 19.140625 48.40625 8.859375 
Q 40.234375 -1.421875 26.421875 -1.421875 
Q 22.703125 -1.421875 18.890625 -0.6875 
Q 15.09375 0.046875 10.984375 1.515625 
z
M 30.609375 32.421875 
Q 37.25 32.421875 41.125 36.953125 
Q 45.015625 41.5 45.015625 49.421875 
Q 45.015625 57.28125 41.125 61.84375 
Q 37.25 66.40625 30.609375 66.40625 
Q 23.96875 66.40625 20.09375 61.84375 
Q 16.21875 57.28125 16.21875 49.421875 
Q 16.21875 41.5 20.09375 36.953125 
Q 23.96875 32.421875 30.609375 32.421875 
z
" id="DejaVuSans-57"/>
      </defs>
      <g transform="translate(332.143954 246.538037)scale(0.15 -0.15)">
       <use xlink:href="#DejaVuSans-57"/>
      </g>
     </g>
    </g>
    <g id="xtick_11">
     <g id="line2d_21">
      <path clip-path="url(#p33310d8bfc)" d="M 366.028872 225.640381 
L 366.028872 8.200381 
" style="fill:none;stroke:#b0b0b0;stroke-linecap:square;stroke-width:0.8;"/>
     </g>
     <g id="line2d_22">
      <g>
       <use x="366.028872" xlink:href="#m1b1f80da30" y="225.640381"/>
      </g>
     </g>
     <g id="text_11">
      <!-- 10 -->
      <g transform="translate(356.485122 246.538037)scale(0.15 -0.15)">
       <use xlink:href="#DejaVuSans-49"/>
       <use x="63.623047" xlink:href="#DejaVuSans-48"/>
      </g>
     </g>
    </g>
    <g id="text_12">
     <!-- $t/\tau$ -->
     <defs>
      <path d="M 42.28125 54.6875 
L 40.921875 47.703125 
L 23 47.703125 
L 17.1875 18.015625 
Q 16.890625 16.359375 16.75 15.234375 
Q 16.609375 14.109375 16.609375 13.484375 
Q 16.609375 10.359375 18.484375 8.9375 
Q 20.359375 7.515625 24.515625 7.515625 
L 33.59375 7.515625 
L 32.078125 0 
L 23.484375 0 
Q 15.484375 0 11.546875 3.125 
Q 7.625 6.25 7.625 12.59375 
Q 7.625 13.71875 7.765625 15.0625 
Q 7.90625 16.40625 8.203125 18.015625 
L 14.015625 47.703125 
L 6.390625 47.703125 
L 7.8125 54.6875 
L 15.28125 54.6875 
L 18.3125 70.21875 
L 27.296875 70.21875 
L 24.3125 54.6875 
z
" id="DejaVuSans-Oblique-116"/>
      <path d="M 25.390625 72.90625 
L 33.6875 72.90625 
L 8.296875 -9.28125 
L 0 -9.28125 
z
" id="DejaVuSans-47"/>
      <path d="M 32.859375 9.96875 
Q 34.1875 7.625 39.453125 7.625 
L 43.75 7.625 
L 42.28125 0 
L 36.921875 0 
Q 28.125 0 25 4.6875 
Q 21.921875 9.46875 23.96875 19.828125 
L 29 45.703125 
L 8.453125 45.703125 
L 10.203125 54.6875 
L 60.640625 54.6875 
L 58.890625 45.703125 
L 38.1875 45.703125 
L 33.015625 19.28125 
Q 31.640625 12.203125 32.859375 9.96875 
z
" id="DejaVuSans-Oblique-964"/>
     </defs>
     <g transform="translate(207.063655 268.854444)scale(0.2 -0.2)">
      <use transform="translate(0 0.09375)" xlink:href="#DejaVuSans-Oblique-116"/>
      <use transform="translate(39.208984 0.09375)" xlink:href="#DejaVuSans-47"/>
      <use transform="translate(72.900391 0.09375)" xlink:href="#DejaVuSans-Oblique-964"/>
     </g>
    </g>
   </g>
   <g id="matplotlib.axis_2">
    <g id="ytick_1">
     <g id="line2d_23">
      <path clip-path="url(#p33310d8bfc)" d="M 74.898438 225.640381 
L 366.028872 225.640381 
" style="fill:none;stroke:#b0b0b0;stroke-linecap:square;stroke-width:0.8;"/>
     </g>
     <g id="line2d_24">
      <defs>
       <path d="M 0 0 
L -6 0 
" id="m9ce6d51399"/>
      </defs>
      <g>
       <use x="74.898438" xlink:href="#m9ce6d51399" y="225.640381"/>
      </g>
     </g>
     <g id="text_13">
      <!-- 0.0 -->
      <defs>
       <path d="M 10.6875 12.40625 
L 21 12.40625 
L 21 0 
L 10.6875 0 
z
" id="DejaVuSans-46"/>
      </defs>
      <g transform="translate(41.54375 231.339209)scale(0.15 -0.15)">
       <use xlink:href="#DejaVuSans-48"/>
       <use x="63.623047" xlink:href="#DejaVuSans-46"/>
       <use x="95.410156" xlink:href="#DejaVuSans-48"/>
      </g>
     </g>
    </g>
    <g id="ytick_2">
     <g id="line2d_25">
      <path clip-path="url(#p33310d8bfc)" d="M 74.898438 190.183456 
L 366.028872 190.183456 
" style="fill:none;stroke:#b0b0b0;stroke-linecap:square;stroke-width:0.8;"/>
     </g>
     <g id="line2d_26">
      <g>
       <use x="74.898438" xlink:href="#m9ce6d51399" y="190.183456"/>
      </g>
     </g>
     <g id="text_14">
      <!-- 2.5 -->
      <g transform="translate(41.54375 195.882284)scale(0.15 -0.15)">
       <use xlink:href="#DejaVuSans-50"/>
       <use x="63.623047" xlink:href="#DejaVuSans-46"/>
       <use x="95.410156" xlink:href="#DejaVuSans-53"/>
      </g>
     </g>
    </g>
    <g id="ytick_3">
     <g id="line2d_27">
      <path clip-path="url(#p33310d8bfc)" d="M 74.898438 154.72653 
L 366.028872 154.72653 
" style="fill:none;stroke:#b0b0b0;stroke-linecap:square;stroke-width:0.8;"/>
     </g>
     <g id="line2d_28">
      <g>
       <use x="74.898438" xlink:href="#m9ce6d51399" y="154.72653"/>
      </g>
     </g>
     <g id="text_15">
      <!-- 5.0 -->
      <g transform="translate(41.54375 160.425358)scale(0.15 -0.15)">
       <use xlink:href="#DejaVuSans-53"/>
       <use x="63.623047" xlink:href="#DejaVuSans-46"/>
       <use x="95.410156" xlink:href="#DejaVuSans-48"/>
      </g>
     </g>
    </g>
    <g id="ytick_4">
     <g id="line2d_29">
      <path clip-path="url(#p33310d8bfc)" d="M 74.898438 119.269605 
L 366.028872 119.269605 
" style="fill:none;stroke:#b0b0b0;stroke-linecap:square;stroke-width:0.8;"/>
     </g>
     <g id="line2d_30">
      <g>
       <use x="74.898438" xlink:href="#m9ce6d51399" y="119.269605"/>
      </g>
     </g>
     <g id="text_16">
      <!-- 7.5 -->
      <g transform="translate(41.54375 124.968433)scale(0.15 -0.15)">
       <use xlink:href="#DejaVuSans-55"/>
       <use x="63.623047" xlink:href="#DejaVuSans-46"/>
       <use x="95.410156" xlink:href="#DejaVuSans-53"/>
      </g>
     </g>
    </g>
    <g id="ytick_5">
     <g id="line2d_31">
      <path clip-path="url(#p33310d8bfc)" d="M 74.898438 83.812679 
L 366.028872 83.812679 
" style="fill:none;stroke:#b0b0b0;stroke-linecap:square;stroke-width:0.8;"/>
     </g>
     <g id="line2d_32">
      <g>
       <use x="74.898438" xlink:href="#m9ce6d51399" y="83.812679"/>
      </g>
     </g>
     <g id="text_17">
      <!-- 10.0 -->
      <g transform="translate(32 89.511507)scale(0.15 -0.15)">
       <use xlink:href="#DejaVuSans-49"/>
       <use x="63.623047" xlink:href="#DejaVuSans-48"/>
       <use x="127.246094" xlink:href="#DejaVuSans-46"/>
       <use x="159.033203" xlink:href="#DejaVuSans-48"/>
      </g>
     </g>
    </g>
    <g id="ytick_6">
     <g id="line2d_33">
      <path clip-path="url(#p33310d8bfc)" d="M 74.898438 48.355754 
L 366.028872 48.355754 
" style="fill:none;stroke:#b0b0b0;stroke-linecap:square;stroke-width:0.8;"/>
     </g>
     <g id="line2d_34">
      <g>
       <use x="74.898438" xlink:href="#m9ce6d51399" y="48.355754"/>
      </g>
     </g>
     <g id="text_18">
      <!-- 12.5 -->
      <g transform="translate(32 54.054582)scale(0.15 -0.15)">
       <use xlink:href="#DejaVuSans-49"/>
       <use x="63.623047" xlink:href="#DejaVuSans-50"/>
       <use x="127.246094" xlink:href="#DejaVuSans-46"/>
       <use x="159.033203" xlink:href="#DejaVuSans-53"/>
      </g>
     </g>
    </g>
    <g id="ytick_7">
     <g id="line2d_35">
      <path clip-path="url(#p33310d8bfc)" d="M 74.898438 12.898828 
L 366.028872 12.898828 
" style="fill:none;stroke:#b0b0b0;stroke-linecap:square;stroke-width:0.8;"/>
     </g>
     <g id="line2d_36">
      <g>
       <use x="74.898438" xlink:href="#m9ce6d51399" y="12.898828"/>
      </g>
     </g>
     <g id="text_19">
      <!-- 15.0 -->
      <g transform="translate(32 18.597656)scale(0.15 -0.15)">
       <use xlink:href="#DejaVuSans-49"/>
       <use x="63.623047" xlink:href="#DejaVuSans-53"/>
       <use x="127.246094" xlink:href="#DejaVuSans-46"/>
       <use x="159.033203" xlink:href="#DejaVuSans-48"/>
      </g>
     </g>
    </g>
    <g id="text_20">
     <!-- RNA ($fl^{-1}$) -->
     <defs>
      <path d="M 44.390625 34.1875 
Q 47.5625 33.109375 50.5625 29.59375 
Q 53.5625 26.078125 56.59375 19.921875 
L 66.609375 0 
L 56 0 
L 46.6875 18.703125 
Q 43.0625 26.03125 39.671875 28.421875 
Q 36.28125 30.8125 30.421875 30.8125 
L 19.671875 30.8125 
L 19.671875 0 
L 9.8125 0 
L 9.8125 72.90625 
L 32.078125 72.90625 
Q 44.578125 72.90625 50.734375 67.671875 
Q 56.890625 62.453125 56.890625 51.90625 
Q 56.890625 45.015625 53.6875 40.46875 
Q 50.484375 35.9375 44.390625 34.1875 
z
M 19.671875 64.796875 
L 19.671875 38.921875 
L 32.078125 38.921875 
Q 39.203125 38.921875 42.84375 42.21875 
Q 46.484375 45.515625 46.484375 51.90625 
Q 46.484375 58.296875 42.84375 61.546875 
Q 39.203125 64.796875 32.078125 64.796875 
z
" id="DejaVuSans-82"/>
      <path d="M 9.8125 72.90625 
L 23.09375 72.90625 
L 55.421875 11.921875 
L 55.421875 72.90625 
L 64.984375 72.90625 
L 64.984375 0 
L 51.703125 0 
L 19.390625 60.984375 
L 19.390625 0 
L 9.8125 0 
z
" id="DejaVuSans-78"/>
      <path d="M 34.1875 63.1875 
L 20.796875 26.90625 
L 47.609375 26.90625 
z
M 28.609375 72.90625 
L 39.796875 72.90625 
L 67.578125 0 
L 57.328125 0 
L 50.6875 18.703125 
L 17.828125 18.703125 
L 11.1875 0 
L 0.78125 0 
z
" id="DejaVuSans-65"/>
      <path id="DejaVuSans-32"/>
      <path d="M 31 75.875 
Q 24.46875 64.65625 21.28125 53.65625 
Q 18.109375 42.671875 18.109375 31.390625 
Q 18.109375 20.125 21.3125 9.0625 
Q 24.515625 -2 31 -13.1875 
L 23.1875 -13.1875 
Q 15.875 -1.703125 12.234375 9.375 
Q 8.59375 20.453125 8.59375 31.390625 
Q 8.59375 42.28125 12.203125 53.3125 
Q 15.828125 64.359375 23.1875 75.875 
z
" id="DejaVuSans-40"/>
      <path d="M 47.796875 75.984375 
L 46.390625 68.5 
L 37.796875 68.5 
Q 32.90625 68.5 30.6875 66.578125 
Q 28.46875 64.65625 27.390625 59.515625 
L 26.421875 54.6875 
L 41.21875 54.6875 
L 39.890625 47.703125 
L 25.09375 47.703125 
L 15.828125 0 
L 6.78125 0 
L 16.109375 47.703125 
L 7.515625 47.703125 
L 8.796875 54.6875 
L 17.390625 54.6875 
L 18.109375 58.5 
Q 19.96875 68.171875 24.625 72.078125 
Q 29.296875 75.984375 39.3125 75.984375 
z
" id="DejaVuSans-Oblique-102"/>
      <path d="M 18.3125 75.984375 
L 27.296875 75.984375 
L 12.5 0 
L 3.515625 0 
z
" id="DejaVuSans-Oblique-108"/>
      <path d="M 10.59375 35.5 
L 73.1875 35.5 
L 73.1875 27.203125 
L 10.59375 27.203125 
z
" id="DejaVuSans-8722"/>
      <path d="M 8.015625 75.875 
L 15.828125 75.875 
Q 23.140625 64.359375 26.78125 53.3125 
Q 30.421875 42.28125 30.421875 31.390625 
Q 30.421875 20.453125 26.78125 9.375 
Q 23.140625 -1.703125 15.828125 -13.1875 
L 8.015625 -13.1875 
Q 14.5 -2 17.703125 9.0625 
Q 20.90625 20.125 20.90625 31.390625 
Q 20.90625 42.671875 17.703125 53.65625 
Q 14.5 64.65625 8.015625 75.875 
z
" id="DejaVuSans-41"/>
     </defs>
     <g transform="translate(23.840625 166.820381)rotate(-90)scale(0.2 -0.2)">
      <use transform="translate(0 0.684375)" xlink:href="#DejaVuSans-82"/>
      <use transform="translate(69.482422 0.684375)" xlink:href="#DejaVuSans-78"/>
      <use transform="translate(144.287109 0.684375)" xlink:href="#DejaVuSans-65"/>
      <use transform="translate(212.695312 0.684375)" xlink:href="#DejaVuSans-32"/>
      <use transform="translate(244.482422 0.684375)" xlink:href="#DejaVuSans-40"/>
      <use transform="translate(283.496094 0.684375)" xlink:href="#DejaVuSans-Oblique-102"/>
      <use transform="translate(318.701172 0.684375)" xlink:href="#DejaVuSans-Oblique-108"/>
      <use transform="translate(353.932083 38.965625)scale(0.7)" xlink:href="#DejaVuSans-8722"/>
      <use transform="translate(412.584427 38.965625)scale(0.7)" xlink:href="#DejaVuSans-49"/>
      <use transform="translate(459.854935 0.684375)" xlink:href="#DejaVuSans-41"/>
     </g>
    </g>
   </g>
   <g id="line2d_37">
    <path clip-path="url(#p33310d8bfc)" d="M 75.022378 156.443331 
L 78.795536 133.928963 
L 81.437674 104.092314 
L 84.640839 158.612366 
L 88.113958 143.14395 
L 91.437409 119.550391 
L 94.341379 127.601585 
L 97.571101 77.229486 
L 100.83338 103.309172 
L 104.023652 98.106228 
L 107.399481 121.237098 
L 110.626517 55.564042 
L 113.742252 1.994916 
L 114.124636 -1 
M 122.003028 -1 
L 123.642072 29.347773 
L 126.781063 61.250991 
L 130.13153 118.550376 
L 133.165341 91.157714 
L 136.512258 100.91007 
L 139.665702 79.758247 
L 142.838773 23.047297 
L 146.067897 69.345721 
L 149.399304 100.346231 
L 152.893616 128.743428 
L 155.820013 126.82714 
L 159.131331 110.878418 
L 162.278595 154.771076 
L 165.563206 140.864814 
L 169.004861 134.487619 
L 172.030312 113.128217 
L 175.538445 100.758666 
L 178.472917 110.019983 
L 181.662499 109.496571 
L 184.899369 151.568988 
L 188.185001 172.066018 
L 191.527824 112.229221 
L 194.642587 82.300531 
L 197.838252 92.613484 
L 201.322058 113.217863 
L 204.444783 59.589909 
L 207.755724 81.451502 
L 210.901102 82.708195 
L 214.005979 62.543586 
L 217.657286 73.544758 
L 220.783091 84.128369 
L 223.746412 94.434302 
L 227.261637 68.336638 
L 230.274839 101.834756 
L 233.568868 80.189489 
L 236.677436 100.955483 
L 239.980764 119.338845 
L 243.124278 143.205169 
L 246.431175 149.41581 
L 249.852486 140.995856 
L 252.857118 120.643813 
L 256.214307 128.796493 
L 259.717812 57.123993 
L 262.600071 69.6226 
L 265.776354 81.419004 
L 270.510432 74.404846 
L 272.450451 60.373246 
L 275.541015 42.039448 
L 278.860053 48.522298 
L 282.630697 61.708141 
L 285.982944 92.610514 
L 288.58472 92.262605 
L 291.632945 142.325181 
L 294.967274 168.270082 
L 298.166058 109.598425 
L 301.345865 134.966154 
L 304.615987 126.271468 
L 307.912678 91.110674 
L 311.048024 114.16335 
L 314.275677 92.145312 
L 317.582722 124.337427 
L 320.939092 152.734712 
L 324.237527 130.167585 
L 327.520356 65.199115 
L 330.469838 109.855075 
L 333.688879 110.851999 
L 337.049817 126.497418 
L 340.296211 121.047096 
L 343.436064 116.727861 
L 346.666912 79.380095 
L 349.948555 122.064496 
L 353.146894 112.336976 
L 356.608428 83.534988 
L 359.628228 35.573197 
L 362.867066 72.789287 
" style="fill:none;stroke:#ff7b7b;stroke-linecap:square;stroke-width:1.5;"/>
   </g>
   <g id="line2d_38">
    <path clip-path="url(#p33310d8bfc)" d="M 75.022378 154.909927 
L 78.795536 121.639576 
L 81.437674 116.574324 
L 84.640839 102.766949 
L 88.113958 59.282672 
L 91.437409 81.046548 
L 94.341379 65.160634 
L 97.571101 101.615473 
L 100.83338 103.245103 
L 104.023652 98.371618 
L 107.399481 55.463806 
L 110.626517 128.557636 
L 113.742252 91.229453 
L 116.980858 81.674035 
L 120.212793 32.886968 
L 123.642072 29.52591 
L 126.781063 10.562178 
L 130.13153 88.225937 
L 133.165341 70.853287 
L 136.512258 81.58403 
L 139.665702 44.995019 
L 142.838773 23.111876 
L 146.067897 80.981046 
L 149.399304 72.548369 
L 152.893616 47.382442 
L 155.820013 44.04371 
L 159.131331 11.795138 
L 162.278595 70.337844 
L 165.563206 68.696734 
L 169.004861 55.721856 
L 172.030312 56.997385 
L 175.538445 70.602467 
L 178.472917 91.356858 
L 181.662499 91.784376 
L 184.899369 118.352086 
L 188.185001 73.628023 
L 191.527824 98.559661 
L 194.642587 160.233334 
L 197.838252 213.602125 
L 201.322058 192.021074 
L 204.444783 152.691283 
L 207.755724 129.792721 
L 210.901102 91.806743 
L 214.005979 61.181661 
L 217.657286 126.571489 
L 220.783091 119.356842 
L 223.746412 87.996423 
L 227.261637 116.335702 
L 230.274839 79.304306 
L 233.568868 79.845211 
L 236.677436 62.178612 
L 239.980764 127.438383 
L 243.124278 118.371501 
L 246.431175 72.724803 
L 249.852486 90.968434 
L 252.857118 94.585487 
L 256.214307 86.263506 
L 259.717812 73.814921 
L 262.600071 64.13629 
L 265.776354 23.083108 
L 270.510432 29.328603 
L 272.450451 101.576167 
L 275.541015 96.123141 
L 278.860053 83.838182 
L 282.630697 48.477046 
L 285.982944 55.591372 
L 288.58472 57.022955 
L 291.632945 71.466942 
L 294.967274 33.029933 
L 298.166058 3.192764 
L 301.345865 68.583871 
L 304.615987 87.910469 
L 307.912678 84.008008 
L 311.048024 74.758526 
L 314.275677 73.724961 
L 317.582722 79.552116 
L 320.939092 100.608136 
L 324.237527 119.827969 
L 327.520356 109.893835 
L 330.469838 85.252766 
L 333.688879 95.766668 
L 337.049817 105.390096 
L 340.296211 127.329389 
L 343.436064 104.796805 
L 346.666912 79.469011 
L 349.948555 48.728983 
L 353.146894 80.916547 
L 356.608428 83.224728 
L 359.628228 60.467395 
L 362.867066 49.558801 
" style="fill:none;stroke:#ff7b7b;stroke-linecap:square;stroke-width:1.5;"/>
   </g>
   <g id="line2d_39">
    <path clip-path="url(#p33310d8bfc)" d="M 75.022378 154.888615 
L 78.795536 94.356506 
L 81.437674 104.669581 
L 84.640839 124.400019 
L 88.113958 152.728814 
L 91.437409 129.27161 
L 94.341379 145.361484 
L 97.571101 118.480384 
L 100.83338 72.558245 
L 104.023652 63.051321 
L 107.399481 173.273515 
L 110.626517 141.193511 
L 113.742252 159.208161 
L 116.980858 164.12642 
L 120.212793 139.183314 
L 123.642072 109.756238 
L 126.781063 85.460334 
L 130.13153 73.092872 
L 133.165341 76.828629 
L 136.512258 95.270987 
L 139.665702 91.905094 
L 142.838773 58.193454 
L 146.067897 28.01796 
L 148.943535 -1 
M 154.207971 -1 
L 155.820013 27.559517 
L 159.131331 65.245021 
L 162.278595 69.81733 
L 165.563206 56.722204 
L 169.004861 91.911501 
L 172.030312 113.255455 
L 175.538445 142.261049 
L 178.472917 158.371561 
L 181.662499 172.235381 
L 184.899369 126.377462 
L 188.185001 88.142491 
L 191.527824 69.63039 
L 194.642587 81.471738 
L 197.838252 105.502053 
L 201.322058 79.749229 
L 204.444783 101.546333 
L 207.755724 110.231362 
L 210.901102 65.056995 
L 214.005979 126.717099 
L 217.657286 118.761925 
L 220.783091 119.29882 
L 223.746412 87.90921 
L 227.261637 128.654892 
L 230.274839 79.341254 
L 233.568868 102.052781 
L 236.677436 81.179623 
L 239.980764 101.147973 
L 243.124278 93.445124 
L 246.431175 27.058673 
L 249.852486 -0.916615 
L 252.857118 41.859364 
L 256.214307 31.398659 
L 259.717812 45.651421 
L 261.639628 -1 
M 263.569934 -1 
L 265.776354 52.03983 
L 270.510432 73.864565 
L 272.450451 85.047415 
L 275.541015 87.981441 
L 278.860053 63.416553 
L 282.141599 -1 
M 287.005443 -1 
L 288.58472 23.145316 
L 291.632945 100.845805 
L 294.967274 90.596099 
L 298.166058 56.767541 
L 301.345865 85.16571 
L 304.615987 96.915882 
L 307.912678 98.175145 
L 311.048024 68.739171 
L 314.275677 140.931627 
L 317.582722 68.705173 
L 320.939092 80.918334 
L 324.237527 43.301252 
L 327.520356 83.130715 
L 330.469838 45.292261 
L 333.688879 103.198887 
L 336.368397 -1 
M 338.261457 -1 
L 340.296211 43.500018 
L 343.436064 79.847686 
L 346.666912 102.027372 
L 349.948555 100.730636 
L 353.146894 71.537187 
L 356.608428 30.101428 
L 359.628228 27.632193 
L 362.867066 103.282784 
" style="fill:none;stroke:#ff7b7b;stroke-linecap:square;stroke-width:1.5;"/>
   </g>
   <g id="line2d_40">
    <path clip-path="url(#p33310d8bfc)" d="M 75.022378 169.771991 
L 78.795536 160.016208 
L 81.437674 116.234517 
L 84.640839 56.966204 
L 88.113958 90.487575 
L 91.437409 139.20791 
L 94.341379 100.597324 
L 97.571101 93.377192 
L 100.83338 34.19423 
L 102.283501 -1 
M 106.447847 -1 
L 107.399481 15.578942 
L 108.598712 -1 
M 113.579431 -1 
L 113.742252 0.545748 
L 116.980858 7.707784 
L 120.212793 52.415674 
L 123.642072 92.35349 
L 126.781063 60.35181 
L 130.13153 28.041037 
L 133.165341 98.141268 
L 136.512258 97.104111 
L 139.665702 55.440716 
L 142.838773 90.939825 
L 146.067897 71.258282 
L 149.399304 110.219404 
L 152.893616 82.804797 
L 155.820013 35.407458 
L 159.131331 80.219936 
L 162.278595 62.830166 
L 165.563206 55.277961 
L 169.004861 91.910637 
L 172.030312 80.153723 
L 175.538445 111.327306 
L 178.472917 100.4187 
L 181.662499 82.925718 
L 184.899369 43.764534 
L 188.185001 57.592141 
L 191.527824 69.801571 
L 194.642587 68.459416 
L 197.838252 104.807107 
L 201.322058 101.931344 
L 204.444783 90.519687 
L 207.755724 109.856182 
L 210.901102 91.741977 
L 214.005979 76.840247 
L 217.657286 59.295459 
L 220.783091 70.231622 
L 223.746412 29.072707 
L 227.261637 32.382382 
L 230.274839 69.665489 
L 233.568868 17.838282 
L 236.677436 91.256239 
L 239.980764 84.453146 
L 243.124278 60.673012 
L 246.431175 58.884433 
L 249.852486 27.987962 
L 252.857118 94.969516 
L 256.214307 129.572336 
L 259.717812 23.246072 
L 262.600071 59.11383 
L 265.776354 33.486838 
L 270.510432 65.171326 
L 272.450451 43.890416 
L 275.541015 27.056579 
L 278.860053 98.150602 
L 282.630697 94.885135 
L 285.982944 80.14194 
L 288.58472 49.333577 
L 291.494948 -1 
M 292.104446 -1 
L 294.967274 13.491504 
L 298.166058 102.14347 
L 301.345865 60.885945 
L 304.615987 42.462183 
L 307.912678 55.813683 
L 311.048024 29.096947 
L 314.275677 32.36756 
L 317.582722 68.285076 
L 320.939092 59.170425 
L 324.237527 72.158105 
L 327.520356 83.829341 
L 330.469838 112.104171 
L 333.688879 91.701391 
L 337.049817 70.543543 
L 340.296211 107.76398 
L 343.436064 67.681258 
L 346.666912 113.674343 
L 349.948555 90.380993 
L 353.146894 52.766218 
L 356.608428 65.027373 
L 359.628228 44.102224 
L 362.867066 65.143928 
" style="fill:none;stroke:#ff7b7b;stroke-linecap:square;stroke-width:1.5;"/>
   </g>
   <g id="line2d_41">
    <path clip-path="url(#p33310d8bfc)" d="M 75.022378 140.814043 
L 78.795536 108.271473 
L 81.437674 116.398489 
L 84.640839 57.87445 
L 88.113958 79.781788 
L 91.437409 110.647214 
L 94.341379 65.028241 
L 97.571101 77.036925 
L 100.83338 72.76315 
L 104.023652 69.678758 
L 107.399481 61.847356 
L 110.626517 49.598935 
L 113.742252 51.299845 
L 116.980858 27.998261 
L 120.212793 33.156169 
L 123.642072 29.094451 
L 126.781063 60.502993 
L 130.13153 43.27901 
L 133.165341 41.285738 
L 136.512258 48.59917 
L 139.665702 92.000577 
L 142.838773 113.469511 
L 146.067897 90.559008 
L 149.399304 90.759182 
L 152.893616 101.312063 
L 155.820013 126.525797 
L 159.131331 119.311503 
L 162.278595 105.72023 
L 165.563206 68.374186 
L 169.004861 55.853056 
L 172.030312 11.873751 
L 175.538445 48.665165 
L 178.472917 61.632355 
L 181.662499 29.422363 
L 184.899369 93.296244 
L 188.185001 118.614419 
L 191.527824 112.942641 
L 194.642587 135.284214 
L 197.838252 128.627247 
L 201.322058 125.586668 
L 204.444783 122.520888 
L 207.755724 101.367737 
L 210.901102 100.709891 
L 214.005979 52.233339 
L 216.786987 -1 
M 218.251728 -1 
L 220.783091 69.940629 
L 223.746412 68.519233 
L 227.261637 19.237803 
L 230.274839 45.727871 
L 233.568868 101.489768 
L 236.677436 52.029893 
L 239.980764 120.93497 
L 243.124278 110.008086 
L 246.431175 58.951233 
L 249.852486 69.949772 
L 252.857118 56.532845 
L 256.214307 55.828053 
L 259.717812 90.62775 
L 262.600071 48.865983 
L 265.776354 42.439779 
L 270.510432 47.323344 
L 272.450451 10.934602 
L 275.541015 133.935369 
L 278.860053 28.19114 
L 282.630697 95.296931 
L 285.982944 56.496237 
L 288.58472 135.874337 
L 291.632945 81.360153 
L 294.967274 129.992354 
L 298.166058 101.956056 
L 301.345865 110.230532 
L 304.615987 89.132162 
L 307.912678 112.562668 
L 311.048024 146.891053 
L 314.275677 31.736452 
L 317.582722 23.258462 
L 320.939092 17.884105 
L 324.237527 52.728558 
L 327.520356 55.909647 
L 330.469838 77.331638 
L 333.688879 119.565157 
L 337.049817 127.55005 
L 340.296211 108.513017 
L 343.436064 104.879851 
L 346.666912 135.629094 
L 349.948555 90.493415 
L 353.146894 91.113303 
L 356.608428 74.044235 
L 359.628228 85.164338 
L 362.867066 72.574936 
" style="fill:none;stroke:#ff7b7b;stroke-linecap:square;stroke-width:1.5;"/>
   </g>
   <g id="line2d_42">
    <path clip-path="url(#p33310d8bfc)" d="M 75.022378 141.053837 
L 78.795536 121.181249 
L 81.437674 55.630322 
L 84.640839 79.877368 
L 88.113958 79.73713 
L 91.437409 91.077336 
L 94.341379 82.791415 
L 97.571101 51.959712 
L 100.83338 57.236116 
L 104.023652 41.297395 
L 107.399481 68.676171 
L 110.626517 92.841849 
L 113.742252 124.785985 
L 116.980858 111.089605 
L 120.212793 158.445628 
L 123.642072 109.788321 
L 126.781063 93.32416 
L 130.13153 126.576534 
L 133.165341 126.492039 
L 136.512258 160.370377 
L 139.665702 116.237634 
L 142.838773 124.343882 
L 146.067897 91.07097 
L 149.399304 110.345839 
L 152.893616 91.801315 
L 155.820013 44.485064 
L 159.131331 73.720211 
L 162.278595 112.535492 
L 165.563206 149.408182 
L 169.004861 116.282279 
L 172.030312 57.450555 
L 175.538445 18.327417 
L 177.891084 -1 
M 178.685363 -1 
L 181.662499 65.983512 
L 184.899369 94.375104 
L 188.185001 103.41596 
L 191.527824 155.065216 
L 194.642587 107.975029 
L 197.838252 80.548827 
L 201.322058 68.653167 
L 204.444783 70.056316 
L 207.755724 100.545856 
L 210.901102 100.751701 
L 214.005979 110.451848 
L 217.657286 118.598968 
L 220.783091 140.685713 
L 223.746412 160.337987 
L 227.261637 80.156916 
L 230.274839 69.073134 
L 233.568868 101.208672 
L 236.677436 71.389984 
L 239.980764 73.796722 
L 243.124278 93.665914 
L 246.431175 118.581297 
L 249.852486 55.775822 
L 252.857118 68.222471 
L 256.214307 55.669201 
L 259.717812 57.04439 
L 262.600071 7.657564 
L 265.776354 22.995538 
L 270.510432 2.535191 
L 272.450451 2.35719 
L 275.541015 58.459935 
L 278.860053 127.500569 
L 282.630697 108.171079 
L 285.982944 104.752505 
L 288.58472 46.217138 
L 291.632945 27.831576 
L 294.967274 43.004796 
L 298.166058 65.201742 
L 301.345865 69.067305 
L 304.615987 95.452489 
L 307.912678 105.211996 
L 311.048024 133.754923 
L 314.275677 165.260662 
L 317.582722 135.782955 
L 320.939092 48.774833 
L 324.237527 42.383688 
L 327.520356 56.89529 
L 330.469838 126.899563 
L 333.688879 133.890095 
L 337.049817 112.200035 
L 340.296211 107.474568 
L 343.436064 116.511434 
L 346.666912 136.025885 
L 349.948555 101.275159 
L 353.146894 91.359088 
L 356.608428 91.889845 
L 359.628228 70.389244 
L 362.867066 64.870664 
" style="fill:none;stroke:#ff7b7b;stroke-linecap:square;stroke-width:1.5;"/>
   </g>
   <g id="line2d_43">
    <path clip-path="url(#p33310d8bfc)" d="M 75.022378 155.125739 
L 78.795536 186.516356 
L 81.437674 201.399711 
L 84.640839 180.671094 
L 88.113958 154.847357 
L 91.437409 158.43631 
L 94.341379 145.298847 
L 97.571101 126.624438 
L 100.83338 42.308066 
L 104.023652 41.360195 
L 107.399481 94.978507 
L 110.626517 116.52734 
L 113.742252 91.271202 
L 116.980858 49.356627 
L 120.212793 52.001109 
L 123.642072 82.868508 
L 126.781063 20.193367 
L 130.13153 64.872204 
L 133.165341 62.641895 
L 136.512258 61.920221 
L 139.665702 67.984072 
L 142.838773 34.525619 
L 146.067897 17.455365 
L 149.399304 42.412738 
L 152.893616 30.056557 
L 155.820013 36.653509 
L 159.131331 35.512186 
L 162.278595 78.110687 
L 165.563206 68.584767 
L 169.004861 129.568188 
L 172.030312 113.262233 
L 175.538445 90.91638 
L 178.472917 71.350751 
L 181.662499 91.777823 
L 184.899369 68.467266 
L 188.185001 73.084679 
L 191.527824 112.389662 
L 194.642587 114.094041 
L 197.838252 74.608453 
L 201.322058 68.316656 
L 204.444783 132.464111 
L 207.755724 92.105221 
L 210.901102 64.93995 
L 214.005979 60.348488 
L 217.657286 57.824097 
L 220.783091 98.642985 
L 223.746412 88.938251 
L 227.261637 80.090203 
L 230.274839 113.091666 
L 233.568868 142.315149 
L 236.677436 129.694599 
L 239.980764 118.805973 
L 243.124278 77.306731 
L 246.431175 80.228958 
L 249.852486 84.818053 
L 252.857118 101.636033 
L 256.214307 104.072526 
L 259.717812 102.612046 
L 262.600071 111.070132 
L 265.776354 71.515308 
L 270.510432 64.985401 
L 272.450451 109.914 
L 275.541015 88.567827 
L 278.860053 27.134303 
L 282.630697 15.639322 
L 285.982944 55.466485 
L 288.58472 34.63945 
L 291.632945 101.729915 
L 294.967274 90.744347 
L 298.166058 74.105432 
L 301.345865 60.809767 
L 304.463951 -1 
M 304.728293 -1 
L 307.912678 84.455084 
L 311.048024 107.470849 
L 314.275677 104.363305 
L 317.582722 45.828024 
L 320.939092 111.422159 
L 324.237527 109.985254 
L 327.520356 172.628155 
L 330.469838 159.674277 
L 333.688879 119.268569 
L 337.049817 126.688901 
L 340.296211 134.059118 
L 343.436064 67.720236 
L 346.666912 113.11873 
L 349.948555 48.558118 
L 353.146894 3.860904 
L 356.608428 29.188331 
L 359.628228 35.669621 
L 362.867066 49.628995 
" style="fill:none;stroke:#ff7b7b;stroke-linecap:square;stroke-width:1.5;"/>
   </g>
   <g id="line2d_44">
    <path clip-path="url(#p33310d8bfc)" d="M 75.022378 155.15431 
L 78.795536 108.632437 
L 81.437674 165.064788 
L 84.640839 147.791253 
L 88.113958 144.027371 
L 91.437409 130.151951 
L 94.341379 100.593559 
L 97.571101 27.264083 
L 100.83338 73.087078 
L 104.023652 0.334025 
L 104.53556 -1 
M 107.994116 -1 
L 110.626517 32.039666 
L 112.229648 -1 
M 116.323484 -1 
L 116.980858 6.93922 
L 120.212793 61.906581 
L 123.642072 38.269556 
L 126.781063 19.043822 
L 130.13153 26.609781 
L 133.165341 69.830101 
L 136.512258 107.503975 
L 139.665702 85.899337 
L 142.838773 113.256759 
L 146.067897 101.905366 
L 149.399304 129.240124 
L 152.893616 82.813436 
L 155.820013 60.534824 
L 159.131331 88.128986 
L 162.278595 140.602821 
L 165.563206 94.735283 
L 169.004861 116.84749 
L 172.030312 90.668166 
L 175.538445 80.333279 
L 178.472917 52.300371 
L 181.662499 154.263826 
L 184.899369 77.425326 
L 188.185001 42.156063 
L 191.527824 27.6297 
L 194.642587 28.862692 
L 197.838252 6.982575 
L 201.322058 68.545563 
L 204.444783 69.312419 
L 207.755724 62.945207 
L 210.901102 64.902528 
L 214.005979 110.184092 
L 217.657286 72.682701 
L 220.783091 127.540802 
L 223.746412 133.734986 
L 227.261637 164.975993 
L 230.274839 113.113644 
L 233.568868 142.305381 
L 236.677436 100.559959 
L 239.980764 56.055355 
L 243.124278 68.527805 
L 246.431175 103.39794 
L 249.852486 98.300626 
L 252.857118 107.974351 
L 256.214307 116.751981 
L 259.717812 115.083307 
L 262.600071 121.759429 
L 265.776354 81.126754 
L 270.510432 65.546026 
L 272.450451 76.778578 
L 275.541015 103.121148 
L 278.860053 91.018761 
L 282.630697 94.343098 
L 285.982944 61.683288 
L 288.58472 0.643246 
L 291.632945 28.242202 
L 294.967274 23.048401 
L 298.166058 56.20808 
L 301.345865 76.770751 
L 304.615987 65.327103 
L 307.912678 83.843807 
L 311.048024 133.857358 
L 314.275677 93.981903 
L 317.582722 79.476795 
L 320.939092 90.23122 
L 324.237527 119.86613 
L 327.520356 111.806671 
L 330.469838 102.013723 
L 333.688879 73.162552 
L 337.049817 100.853753 
L 340.296211 120.850141 
L 343.436064 128.931009 
L 346.666912 114.149051 
L 349.948555 100.619308 
L 353.146894 110.017367 
L 356.608428 109.642012 
L 359.628228 159.47942 
L 362.867066 126.18685 
" style="fill:none;stroke:#ff7b7b;stroke-linecap:square;stroke-width:1.5;"/>
   </g>
   <g id="line2d_45">
    <path clip-path="url(#p33310d8bfc)" d="M 75.022378 140.823369 
L 78.795536 147.37371 
L 81.437674 117.769693 
L 84.640839 90.568015 
L 88.113958 111.05251 
L 91.437409 119.992796 
L 94.341379 100.876355 
L 97.571101 94.213287 
L 100.83338 149.102839 
L 104.023652 98.036624 
L 107.399481 2.693851 
L 108.970468 -1 
M 110.769909 -1 
L 113.742252 79.714958 
L 116.980858 112.404238 
L 120.212793 100.375308 
L 123.642072 118.714901 
L 126.781063 118.213501 
L 130.13153 57.614859 
L 133.165341 91.702127 
L 136.512258 160.004366 
L 139.665702 117.249848 
L 142.838773 125.714888 
L 146.067897 163.482202 
L 149.399304 129.651266 
L 152.893616 136.29721 
L 155.820013 143.000523 
L 159.131331 110.941376 
L 162.278595 98.125018 
L 165.563206 62.136435 
L 169.004861 117.414841 
L 172.030312 80.328555 
L 175.538445 59.371569 
L 178.472917 100.58941 
L 181.662499 65.509368 
L 184.899369 68.974261 
L 188.185001 65.358016 
L 191.527824 83.815664 
L 194.642587 107.774482 
L 197.838252 116.821134 
L 201.322058 57.328216 
L 204.444783 69.427246 
L 207.755724 71.411013 
L 210.901102 127.460024 
L 214.005979 94.638351 
L 217.657286 103.12551 
L 220.783091 98.016868 
L 223.746412 81.287376 
L 227.261637 92.089846 
L 230.274839 69.372776 
L 233.568868 100.632879 
L 236.677436 111.298015 
L 239.980764 154.380879 
L 243.124278 27.670467 
L 246.431175 103.61035 
L 249.852486 98.634296 
L 252.857118 133.948207 
L 256.214307 116.631284 
L 259.717812 90.884699 
L 262.600071 69.313117 
L 265.776354 100.727018 
L 270.510432 100.892125 
L 272.450451 118.434006 
L 275.541015 80.280244 
L 278.860053 90.97126 
L 282.630697 68.721221 
L 285.982944 37.237496 
L 288.08394 -1 
M 289.058996 -1 
L 291.632945 48.46283 
L 294.967274 13.474246 
L 298.166058 20.502186 
L 301.345865 19.27141 
L 304.615987 3.994092 
L 307.912678 41.360458 
L 311.048024 48.388699 
L 314.275677 56.850626 
L 317.582722 69.799997 
L 320.939092 59.983351 
L 324.237527 71.344628 
L 327.520356 109.496476 
L 330.469838 101.897557 
L 333.688879 65.404381 
L 337.049817 98.243393 
L 340.296211 120.879317 
L 343.436064 140.606229 
L 346.666912 136.574068 
L 349.948555 153.537937 
L 353.146894 129.153143 
L 356.608428 127.806972 
L 359.628228 109.877445 
L 362.867066 103.448189 
" style="fill:none;stroke:#ff7b7b;stroke-linecap:square;stroke-width:1.5;"/>
   </g>
   <g id="line2d_46">
    <path clip-path="url(#p33310d8bfc)" d="M 75.022378 142.555075 
L 78.795536 108.926877 
L 81.437674 79.779797 
L 84.640839 147.16106 
L 88.113958 100.93686 
L 91.437409 81.361814 
L 94.341379 74.487162 
L 97.571101 93.9797 
L 100.83338 88.24525 
L 104.023652 98.033548 
L 107.399481 68.194122 
L 110.626517 68.441089 
L 113.742252 68.367184 
L 116.980858 81.310543 
L 120.212793 91.228533 
L 123.642072 73.844729 
L 126.781063 68.523142 
L 130.13153 72.696738 
L 133.165341 76.851664 
L 136.512258 61.844045 
L 139.665702 165.286903 
L 142.838773 125.205933 
L 146.067897 90.174282 
L 149.399304 71.744862 
L 152.893616 38.153855 
L 155.820013 68.674181 
L 159.131331 65.021532 
L 162.278595 62.584661 
L 165.563206 94.442876 
L 169.004861 86.281169 
L 172.030312 57.122838 
L 175.538445 100.781032 
L 178.472917 100.210802 
L 181.662499 100.740323 
L 184.899369 85.076771 
L 188.185001 118.893034 
L 191.527824 85.07081 
L 194.642587 134.479795 
L 197.838252 128.74061 
L 201.322058 136.624063 
L 204.444783 59.487617 
L 207.755724 52.133482 
L 210.901102 110.037147 
L 214.005979 85.507737 
L 217.657286 88.106725 
L 220.783091 69.793116 
L 223.746412 61.674418 
L 227.261637 92.352273 
L 230.274839 169.553854 
L 233.568868 163.131721 
L 236.677436 119.799414 
L 239.980764 109.729754 
L 243.124278 93.406355 
L 246.431175 118.532608 
L 249.852486 91.037532 
L 252.857118 134.574824 
L 256.214307 152.876073 
L 259.717812 101.831064 
L 262.600071 111.013869 
L 265.776354 61.984492 
L 270.510432 46.993136 
L 272.450451 101.603076 
L 275.541015 80.12552 
L 278.860053 42.009494 
L 282.630697 68.284858 
L 285.982944 86.143763 
L 288.58472 108.301806 
L 291.632945 105.841898 
L 294.967274 119.67286 
L 298.166058 100.715411 
L 301.345865 85.075651 
L 304.615987 57.49514 
L 307.912678 62.768507 
L 311.048024 81.224022 
L 314.275677 43.281367 
L 317.582722 68.887206 
L 320.939092 48.74087 
L 324.237527 81.072608 
L 327.520356 91.79739 
L 330.469838 118.254766 
L 333.688879 118.416442 
L 337.049817 105.192572 
L 340.296211 101.020378 
L 343.436064 104.425929 
L 346.666912 158.11048 
L 349.948555 131.968355 
L 353.146894 109.934995 
L 356.608428 109.930506 
L 359.628228 109.874704 
L 362.867066 118.786018 
" style="fill:none;stroke:#ff7b7b;stroke-linecap:square;stroke-width:1.5;"/>
   </g>
   <g id="line2d_47">
    <path clip-path="url(#p33310d8bfc)" d="M 75.022378 151.955465 
L 78.795536 127.413144 
L 81.437674 112.690717 
L 84.640839 102.626995 
L 88.113958 96.826961 
L 91.437409 91.852345 
L 94.341379 90.216211 
L 97.571101 87.127128 
L 100.83338 86.18737 
L 104.023652 84.133563 
L 107.399481 81.94971 
L 110.626517 80.845337 
L 113.742252 81.549937 
L 116.980858 81.909519 
L 120.212793 82.868523 
L 123.642072 83.42207 
L 126.781063 82.930167 
L 130.13153 84.195839 
L 133.165341 84.624193 
L 136.512258 83.68576 
L 139.665702 84.020114 
L 142.838773 84.299034 
L 146.067897 85.829796 
L 149.399304 83.654035 
L 152.893616 83.758801 
L 155.820013 82.158252 
L 159.131331 81.309324 
L 162.278595 81.450613 
L 165.563206 82.745042 
L 169.004861 82.409266 
L 172.030312 81.838569 
L 175.538445 81.733582 
L 178.472917 81.857514 
L 181.662499 83.006082 
L 184.899369 83.807379 
L 188.185001 84.294704 
L 191.527824 85.040643 
L 194.642587 85.761114 
L 197.838252 85.212917 
L 201.322058 84.358708 
L 204.444783 82.756161 
L 207.755724 82.015154 
L 210.901102 81.544693 
L 214.005979 83.414382 
L 217.657286 82.696748 
L 220.783091 81.678417 
L 223.746412 82.900392 
L 227.261637 84.933683 
L 230.274839 83.620932 
L 233.568868 85.469298 
L 236.677436 84.912783 
L 239.980764 84.597545 
L 243.124278 84.123856 
L 246.431175 84.708484 
L 249.852486 83.270971 
L 252.857118 84.014872 
L 256.214307 84.190679 
L 259.717812 85.193608 
L 262.600071 84.105635 
L 265.776354 83.571475 
L 270.510432 83.460976 
L 272.450451 83.945807 
L 275.541015 83.803535 
L 278.860053 83.060128 
L 282.630697 82.622922 
L 285.982944 83.541264 
L 288.58472 83.947618 
L 291.632945 83.811377 
L 294.967274 82.214408 
L 298.166058 82.364316 
L 301.345865 81.810634 
L 304.615987 82.498125 
L 307.912678 81.5386 
L 311.048024 82.887541 
L 314.275677 82.375998 
L 317.582722 83.376357 
L 320.939092 83.128345 
L 324.237527 85.260811 
L 327.520356 84.492636 
L 330.469838 82.929539 
L 333.688879 83.576749 
L 337.049817 83.823107 
L 340.296211 82.501718 
L 343.436064 82.958866 
L 346.666912 82.006401 
L 349.948555 82.605316 
L 353.146894 83.203458 
L 356.608428 80.680381 
L 359.628228 82.233266 
L 362.867066 82.536539 
" style="fill:none;stroke:#bd0025;stroke-linecap:square;stroke-width:3;"/>
   </g>
   <g id="patch_3">
    <path d="M 74.898438 225.640381 
L 74.898438 8.200381 
" style="fill:none;stroke:#000000;stroke-linecap:square;stroke-linejoin:miter;stroke-width:2;"/>
   </g>
   <g id="patch_4">
    <path d="M 366.028872 225.640381 
L 366.028872 8.200381 
" style="fill:none;"/>
   </g>
   <g id="patch_5">
    <path d="M 74.898438 225.640381 
L 366.028872 225.640381 
" style="fill:none;stroke:#000000;stroke-linecap:square;stroke-linejoin:miter;stroke-width:2;"/>
   </g>
   <g id="patch_6">
    <path d="M 74.898438 8.200381 
L 366.028872 8.200381 
" style="fill:none;"/>
   </g>
  </g>
  <g id="axes_2">
   <g id="patch_7">
    <path d="M 453.368003 225.640381 
L 744.498438 225.640381 
L 744.498438 8.200381 
L 453.368003 8.200381 
z
" style="fill:#ffffff;"/>
   </g>
   <g id="PolyCollection_2">
    <defs>
     <path d="M 453.491943 -84.275257 
L 453.491943 -78.445708 
L 457.265101 -165.365319 
L 459.907239 -180.459189 
L 463.110404 -171.664932 
L 466.583523 -153.674209 
L 469.906975 -142.688129 
L 472.810944 -139.447236 
L 476.040667 -140.579193 
L 479.302945 -143.082116 
L 482.493218 -145.022983 
L 485.869047 -143.718774 
L 489.096082 -142.531224 
L 492.211817 -145.988506 
L 495.450423 -146.338411 
L 498.682358 -140.876352 
L 502.111637 -139.632473 
L 505.250629 -139.201799 
L 508.601095 -146.791629 
L 511.634906 -153.266041 
L 514.981823 -158.223951 
L 518.135268 -153.259478 
L 521.308338 -155.712894 
L 524.537463 -149.817938 
L 527.86887 -143.518922 
L 531.363181 -141.55744 
L 534.289578 -138.375009 
L 537.600896 -144.651963 
L 540.748161 -143.527894 
L 544.032771 -147.459275 
L 547.474426 -147.91665 
L 550.499878 -145.229917 
L 554.008011 -136.909705 
L 556.942482 -141.498275 
L 560.132064 -141.303866 
L 563.368934 -142.467585 
L 566.654566 -144.109198 
L 569.99739 -152.065715 
L 573.112153 -149.266433 
L 576.307818 -143.425626 
L 579.791623 -152.49166 
L 582.914348 -139.505212 
L 586.225289 -138.33189 
L 589.370667 -132.946609 
L 592.475544 -140.881122 
L 596.126851 -144.630208 
L 599.252656 -154.059599 
L 602.215977 -153.046811 
L 605.731202 -153.710905 
L 608.744405 -153.926182 
L 612.038433 -141.686759 
L 615.147002 -141.340037 
L 618.450329 -144.365029 
L 621.593843 -141.326541 
L 624.900741 -138.493408 
L 628.322051 -140.287646 
L 631.326683 -141.586574 
L 634.683873 -147.826701 
L 638.187377 -144.779686 
L 641.069636 -135.384504 
L 644.245919 -136.938215 
L 648.979997 -141.874338 
L 650.920016 -149.377367 
L 654.01058 -151.80024 
L 657.329618 -156.394091 
L 661.100262 -148.411576 
L 664.452509 -146.638505 
L 667.054285 -146.131883 
L 670.102511 -143.169234 
L 673.436839 -139.187758 
L 676.635623 -140.024966 
L 679.81543 -135.439197 
L 683.085553 -139.83134 
L 686.382243 -141.431918 
L 689.51759 -156.495653 
L 692.745242 -145.055416 
L 696.052287 -146.035587 
L 699.408657 -144.836824 
L 702.707092 -141.061259 
L 705.989921 -139.951497 
L 708.939403 -137.883721 
L 712.158444 -135.226176 
L 715.519383 -144.053531 
L 718.765776 -143.931229 
L 721.90563 -143.265917 
L 725.136477 -142.805144 
L 728.41812 -140.168891 
L 731.616459 -141.955631 
L 735.077993 -136.451989 
L 738.097793 -135.413203 
L 741.336632 -143.354305 
L 741.336632 -168.733974 
L 741.336632 -168.733974 
L 738.097793 -158.194345 
L 735.077993 -159.570176 
L 731.616459 -166.873988 
L 728.41812 -164.500186 
L 725.136477 -168.003505 
L 721.90563 -168.616388 
L 718.765776 -169.501625 
L 715.519383 -169.664392 
L 712.158444 -157.946727 
L 708.939403 -161.46788 
L 705.989921 -164.211536 
L 702.707092 -165.685441 
L 699.408657 -170.707126 
L 696.052287 -172.303862 
L 692.745242 -170.998204 
L 689.51759 -186.282946 
L 686.382243 -166.177939 
L 683.085553 -164.052011 
L 679.81543 -158.228761 
L 676.635623 -164.309081 
L 673.436839 -163.197761 
L 670.102511 -168.487775 
L 667.054285 -172.432175 
L 664.452509 -173.107361 
L 661.100262 -175.471919 
L 657.329618 -186.146822 
L 654.01058 -179.997685 
L 650.920016 -176.760904 
L 648.979997 -166.76593 
L 644.245919 -160.214465 
L 641.069636 -158.156346 
L 638.187377 -170.631047 
L 634.683873 -174.691666 
L 631.326683 -166.383465 
L 628.322051 -164.657881 
L 624.900741 -162.276497 
L 621.593843 -166.037914 
L 618.450329 -170.079007 
L 615.147002 -166.055847 
L 612.038433 -166.516613 
L 608.744405 -182.841428 
L 605.731202 -182.553311 
L 602.215977 -181.664737 
L 599.252656 -183.020004 
L 596.126851 -170.432029 
L 592.475544 -165.446129 
L 589.370667 -154.930958 
L 586.225289 -162.06225 
L 582.914348 -163.619088 
L 579.791623 -180.922183 
L 576.307818 -168.828859 
L 573.112153 -176.61281 
L 569.99739 -180.35261 
L 566.654566 -169.738482 
L 563.368934 -167.554618 
L 560.132064 -166.007784 
L 556.942482 -166.266121 
L 554.008011 -160.176681 
L 550.499878 -171.230598 
L 547.474426 -174.811646 
L 544.032771 -174.201635 
L 540.748161 -168.964923 
L 537.600896 -170.460992 
L 534.289578 -162.119443 
L 531.363181 -166.344747 
L 527.86887 -168.952985 
L 524.537463 -177.349143 
L 521.308338 -185.23401 
L 518.135268 -181.949255 
L 514.981823 -188.60055 
L 511.634906 -181.958036 
L 508.601095 -173.31147 
L 505.250629 -163.216395 
L 502.111637 -163.788012 
L 498.682358 -165.439793 
L 495.450423 -172.707395 
L 492.211817 -172.24113 
L 489.096082 -167.639238 
L 485.869047 -169.218903 
L 482.493218 -170.955015 
L 479.302945 -168.371891 
L 476.040667 -165.045076 
L 472.810944 -163.542136 
L 469.906975 -167.847887 
L 466.583523 -182.504203 
L 463.110404 -206.69814 
L 459.907239 -218.607686 
L 457.265101 -198.199983 
L 453.491943 -84.275257 
z
" id="m3d84dee33a"/>
    </defs>
    <g clip-path="url(#pe50e3af1f5)">
     <use style="fill:#ff3333;" x="0" xlink:href="#m3d84dee33a" y="280.213819"/>
    </g>
   </g>
   <g id="matplotlib.axis_3">
    <g id="xtick_12">
     <g id="line2d_48">
      <path clip-path="url(#pe50e3af1f5)" d="M 453.368003 225.640381 
L 453.368003 8.200381 
" style="fill:none;stroke:#b0b0b0;stroke-linecap:square;stroke-width:0.8;"/>
     </g>
     <g id="line2d_49">
      <g>
       <use x="453.368003" xlink:href="#m1b1f80da30" y="225.640381"/>
      </g>
     </g>
     <g id="text_21">
      <!-- 0 -->
      <g transform="translate(448.596128 246.538037)scale(0.15 -0.15)">
       <use xlink:href="#DejaVuSans-48"/>
      </g>
     </g>
    </g>
    <g id="xtick_13">
     <g id="line2d_50">
      <path clip-path="url(#pe50e3af1f5)" d="M 482.481046 225.640381 
L 482.481046 8.200381 
" style="fill:none;stroke:#b0b0b0;stroke-linecap:square;stroke-width:0.8;"/>
     </g>
     <g id="line2d_51">
      <g>
       <use x="482.481046" xlink:href="#m1b1f80da30" y="225.640381"/>
      </g>
     </g>
     <g id="text_22">
      <!-- 1 -->
      <g transform="translate(477.709171 246.538037)scale(0.15 -0.15)">
       <use xlink:href="#DejaVuSans-49"/>
      </g>
     </g>
    </g>
    <g id="xtick_14">
     <g id="line2d_52">
      <path clip-path="url(#pe50e3af1f5)" d="M 511.59409 225.640381 
L 511.59409 8.200381 
" style="fill:none;stroke:#b0b0b0;stroke-linecap:square;stroke-width:0.8;"/>
     </g>
     <g id="line2d_53">
      <g>
       <use x="511.59409" xlink:href="#m1b1f80da30" y="225.640381"/>
      </g>
     </g>
     <g id="text_23">
      <!-- 2 -->
      <g transform="translate(506.822215 246.538037)scale(0.15 -0.15)">
       <use xlink:href="#DejaVuSans-50"/>
      </g>
     </g>
    </g>
    <g id="xtick_15">
     <g id="line2d_54">
      <path clip-path="url(#pe50e3af1f5)" d="M 540.707133 225.640381 
L 540.707133 8.200381 
" style="fill:none;stroke:#b0b0b0;stroke-linecap:square;stroke-width:0.8;"/>
     </g>
     <g id="line2d_55">
      <g>
       <use x="540.707133" xlink:href="#m1b1f80da30" y="225.640381"/>
      </g>
     </g>
     <g id="text_24">
      <!-- 3 -->
      <g transform="translate(535.935258 246.538037)scale(0.15 -0.15)">
       <use xlink:href="#DejaVuSans-51"/>
      </g>
     </g>
    </g>
    <g id="xtick_16">
     <g id="line2d_56">
      <path clip-path="url(#pe50e3af1f5)" d="M 569.820177 225.640381 
L 569.820177 8.200381 
" style="fill:none;stroke:#b0b0b0;stroke-linecap:square;stroke-width:0.8;"/>
     </g>
     <g id="line2d_57">
      <g>
       <use x="569.820177" xlink:href="#m1b1f80da30" y="225.640381"/>
      </g>
     </g>
     <g id="text_25">
      <!-- 4 -->
      <g transform="translate(565.048302 246.538037)scale(0.15 -0.15)">
       <use xlink:href="#DejaVuSans-52"/>
      </g>
     </g>
    </g>
    <g id="xtick_17">
     <g id="line2d_58">
      <path clip-path="url(#pe50e3af1f5)" d="M 598.93322 225.640381 
L 598.93322 8.200381 
" style="fill:none;stroke:#b0b0b0;stroke-linecap:square;stroke-width:0.8;"/>
     </g>
     <g id="line2d_59">
      <g>
       <use x="598.93322" xlink:href="#m1b1f80da30" y="225.640381"/>
      </g>
     </g>
     <g id="text_26">
      <!-- 5 -->
      <g transform="translate(594.161345 246.538037)scale(0.15 -0.15)">
       <use xlink:href="#DejaVuSans-53"/>
      </g>
     </g>
    </g>
    <g id="xtick_18">
     <g id="line2d_60">
      <path clip-path="url(#pe50e3af1f5)" d="M 628.046264 225.640381 
L 628.046264 8.200381 
" style="fill:none;stroke:#b0b0b0;stroke-linecap:square;stroke-width:0.8;"/>
     </g>
     <g id="line2d_61">
      <g>
       <use x="628.046264" xlink:href="#m1b1f80da30" y="225.640381"/>
      </g>
     </g>
     <g id="text_27">
      <!-- 6 -->
      <g transform="translate(623.274389 246.538037)scale(0.15 -0.15)">
       <use xlink:href="#DejaVuSans-54"/>
      </g>
     </g>
    </g>
    <g id="xtick_19">
     <g id="line2d_62">
      <path clip-path="url(#pe50e3af1f5)" d="M 657.159307 225.640381 
L 657.159307 8.200381 
" style="fill:none;stroke:#b0b0b0;stroke-linecap:square;stroke-width:0.8;"/>
     </g>
     <g id="line2d_63">
      <g>
       <use x="657.159307" xlink:href="#m1b1f80da30" y="225.640381"/>
      </g>
     </g>
     <g id="text_28">
      <!-- 7 -->
      <g transform="translate(652.387432 246.538037)scale(0.15 -0.15)">
       <use xlink:href="#DejaVuSans-55"/>
      </g>
     </g>
    </g>
    <g id="xtick_20">
     <g id="line2d_64">
      <path clip-path="url(#pe50e3af1f5)" d="M 686.272351 225.640381 
L 686.272351 8.200381 
" style="fill:none;stroke:#b0b0b0;stroke-linecap:square;stroke-width:0.8;"/>
     </g>
     <g id="line2d_65">
      <g>
       <use x="686.272351" xlink:href="#m1b1f80da30" y="225.640381"/>
      </g>
     </g>
     <g id="text_29">
      <!-- 8 -->
      <g transform="translate(681.500476 246.538037)scale(0.15 -0.15)">
       <use xlink:href="#DejaVuSans-56"/>
      </g>
     </g>
    </g>
    <g id="xtick_21">
     <g id="line2d_66">
      <path clip-path="url(#pe50e3af1f5)" d="M 715.385394 225.640381 
L 715.385394 8.200381 
" style="fill:none;stroke:#b0b0b0;stroke-linecap:square;stroke-width:0.8;"/>
     </g>
     <g id="line2d_67">
      <g>
       <use x="715.385394" xlink:href="#m1b1f80da30" y="225.640381"/>
      </g>
     </g>
     <g id="text_30">
      <!-- 9 -->
      <g transform="translate(710.613519 246.538037)scale(0.15 -0.15)">
       <use xlink:href="#DejaVuSans-57"/>
      </g>
     </g>
    </g>
    <g id="xtick_22">
     <g id="line2d_68">
      <path clip-path="url(#pe50e3af1f5)" d="M 744.498438 225.640381 
L 744.498438 8.200381 
" style="fill:none;stroke:#b0b0b0;stroke-linecap:square;stroke-width:0.8;"/>
     </g>
     <g id="line2d_69">
      <g>
       <use x="744.498438" xlink:href="#m1b1f80da30" y="225.640381"/>
      </g>
     </g>
     <g id="text_31">
      <!-- 10 -->
      <g transform="translate(734.954688 246.538037)scale(0.15 -0.15)">
       <use xlink:href="#DejaVuSans-49"/>
       <use x="63.623047" xlink:href="#DejaVuSans-48"/>
      </g>
     </g>
    </g>
    <g id="text_32">
     <!-- $t/\tau$ -->
     <g transform="translate(585.53322 268.854444)scale(0.2 -0.2)">
      <use transform="translate(0 0.09375)" xlink:href="#DejaVuSans-Oblique-116"/>
      <use transform="translate(39.208984 0.09375)" xlink:href="#DejaVuSans-47"/>
      <use transform="translate(72.900391 0.09375)" xlink:href="#DejaVuSans-Oblique-964"/>
     </g>
    </g>
   </g>
   <g id="matplotlib.axis_4">
    <g id="ytick_8">
     <g id="line2d_70">
      <path clip-path="url(#pe50e3af1f5)" d="M 453.368003 225.640381 
L 744.498438 225.640381 
" style="fill:none;stroke:#b0b0b0;stroke-linecap:square;stroke-width:0.8;"/>
     </g>
     <g id="line2d_71">
      <g>
       <use x="453.368003" xlink:href="#m9ce6d51399" y="225.640381"/>
      </g>
     </g>
     <g id="text_33">
      <!-- 0.00 -->
      <g transform="translate(410.469565 231.339209)scale(0.15 -0.15)">
       <use xlink:href="#DejaVuSans-48"/>
       <use x="63.623047" xlink:href="#DejaVuSans-46"/>
       <use x="95.410156" xlink:href="#DejaVuSans-48"/>
       <use x="159.033203" xlink:href="#DejaVuSans-48"/>
      </g>
     </g>
    </g>
    <g id="ytick_9">
     <g id="line2d_72">
      <path clip-path="url(#pe50e3af1f5)" d="M 453.368003 197.699718 
L 744.498438 197.699718 
" style="fill:none;stroke:#b0b0b0;stroke-linecap:square;stroke-width:0.8;"/>
     </g>
     <g id="line2d_73">
      <g>
       <use x="453.368003" xlink:href="#m9ce6d51399" y="197.699718"/>
      </g>
     </g>
     <g id="text_34">
      <!-- 0.02 -->
      <g transform="translate(410.469565 203.398546)scale(0.15 -0.15)">
       <use xlink:href="#DejaVuSans-48"/>
       <use x="63.623047" xlink:href="#DejaVuSans-46"/>
       <use x="95.410156" xlink:href="#DejaVuSans-48"/>
       <use x="159.033203" xlink:href="#DejaVuSans-50"/>
      </g>
     </g>
    </g>
    <g id="ytick_10">
     <g id="line2d_74">
      <path clip-path="url(#pe50e3af1f5)" d="M 453.368003 169.759054 
L 744.498438 169.759054 
" style="fill:none;stroke:#b0b0b0;stroke-linecap:square;stroke-width:0.8;"/>
     </g>
     <g id="line2d_75">
      <g>
       <use x="453.368003" xlink:href="#m9ce6d51399" y="169.759054"/>
      </g>
     </g>
     <g id="text_35">
      <!-- 0.04 -->
      <g transform="translate(410.469565 175.457882)scale(0.15 -0.15)">
       <use xlink:href="#DejaVuSans-48"/>
       <use x="63.623047" xlink:href="#DejaVuSans-46"/>
       <use x="95.410156" xlink:href="#DejaVuSans-48"/>
       <use x="159.033203" xlink:href="#DejaVuSans-52"/>
      </g>
     </g>
    </g>
    <g id="ytick_11">
     <g id="line2d_76">
      <path clip-path="url(#pe50e3af1f5)" d="M 453.368003 141.818391 
L 744.498438 141.818391 
" style="fill:none;stroke:#b0b0b0;stroke-linecap:square;stroke-width:0.8;"/>
     </g>
     <g id="line2d_77">
      <g>
       <use x="453.368003" xlink:href="#m9ce6d51399" y="141.818391"/>
      </g>
     </g>
     <g id="text_36">
      <!-- 0.06 -->
      <g transform="translate(410.469565 147.517219)scale(0.15 -0.15)">
       <use xlink:href="#DejaVuSans-48"/>
       <use x="63.623047" xlink:href="#DejaVuSans-46"/>
       <use x="95.410156" xlink:href="#DejaVuSans-48"/>
       <use x="159.033203" xlink:href="#DejaVuSans-54"/>
      </g>
     </g>
    </g>
    <g id="ytick_12">
     <g id="line2d_78">
      <path clip-path="url(#pe50e3af1f5)" d="M 453.368003 113.877727 
L 744.498438 113.877727 
" style="fill:none;stroke:#b0b0b0;stroke-linecap:square;stroke-width:0.8;"/>
     </g>
     <g id="line2d_79">
      <g>
       <use x="453.368003" xlink:href="#m9ce6d51399" y="113.877727"/>
      </g>
     </g>
     <g id="text_37">
      <!-- 0.08 -->
      <g transform="translate(410.469565 119.576555)scale(0.15 -0.15)">
       <use xlink:href="#DejaVuSans-48"/>
       <use x="63.623047" xlink:href="#DejaVuSans-46"/>
       <use x="95.410156" xlink:href="#DejaVuSans-48"/>
       <use x="159.033203" xlink:href="#DejaVuSans-56"/>
      </g>
     </g>
    </g>
    <g id="ytick_13">
     <g id="line2d_80">
      <path clip-path="url(#pe50e3af1f5)" d="M 453.368003 85.937064 
L 744.498438 85.937064 
" style="fill:none;stroke:#b0b0b0;stroke-linecap:square;stroke-width:0.8;"/>
     </g>
     <g id="line2d_81">
      <g>
       <use x="453.368003" xlink:href="#m9ce6d51399" y="85.937064"/>
      </g>
     </g>
     <g id="text_38">
      <!-- 0.10 -->
      <g transform="translate(410.469565 91.635892)scale(0.15 -0.15)">
       <use xlink:href="#DejaVuSans-48"/>
       <use x="63.623047" xlink:href="#DejaVuSans-46"/>
       <use x="95.410156" xlink:href="#DejaVuSans-49"/>
       <use x="159.033203" xlink:href="#DejaVuSans-48"/>
      </g>
     </g>
    </g>
    <g id="ytick_14">
     <g id="line2d_82">
      <path clip-path="url(#pe50e3af1f5)" d="M 453.368003 57.9964 
L 744.498438 57.9964 
" style="fill:none;stroke:#b0b0b0;stroke-linecap:square;stroke-width:0.8;"/>
     </g>
     <g id="line2d_83">
      <g>
       <use x="453.368003" xlink:href="#m9ce6d51399" y="57.9964"/>
      </g>
     </g>
     <g id="text_39">
      <!-- 0.12 -->
      <g transform="translate(410.469565 63.695228)scale(0.15 -0.15)">
       <use xlink:href="#DejaVuSans-48"/>
       <use x="63.623047" xlink:href="#DejaVuSans-46"/>
       <use x="95.410156" xlink:href="#DejaVuSans-49"/>
       <use x="159.033203" xlink:href="#DejaVuSans-50"/>
      </g>
     </g>
    </g>
    <g id="ytick_15">
     <g id="line2d_84">
      <path clip-path="url(#pe50e3af1f5)" d="M 453.368003 30.055737 
L 744.498438 30.055737 
" style="fill:none;stroke:#b0b0b0;stroke-linecap:square;stroke-width:0.8;"/>
     </g>
     <g id="line2d_85">
      <g>
       <use x="453.368003" xlink:href="#m9ce6d51399" y="30.055737"/>
      </g>
     </g>
     <g id="text_40">
      <!-- 0.14 -->
      <g transform="translate(410.469565 35.754565)scale(0.15 -0.15)">
       <use xlink:href="#DejaVuSans-48"/>
       <use x="63.623047" xlink:href="#DejaVuSans-46"/>
       <use x="95.410156" xlink:href="#DejaVuSans-49"/>
       <use x="159.033203" xlink:href="#DejaVuSans-52"/>
      </g>
     </g>
    </g>
    <g id="text_41">
     <!-- $C_V^2(r)$ -->
     <defs>
      <path d="M 69.484375 67.28125 
L 67.484375 56.890625 
Q 62.796875 61.625 57.546875 63.921875 
Q 52.296875 66.21875 46.1875 66.21875 
Q 37.84375 66.21875 31.515625 62.203125 
Q 25.203125 58.203125 20.609375 50 
Q 17.671875 44.734375 16.125 38.84375 
Q 14.59375 32.953125 14.59375 27 
Q 14.59375 17.046875 19.75 11.8125 
Q 24.90625 6.59375 34.71875 6.59375 
Q 41.5 6.59375 47.75 8.765625 
Q 54 10.9375 59.90625 15.28125 
L 57.625 3.609375 
Q 51.8125 1.125 45.875 -0.140625 
Q 39.9375 -1.421875 33.984375 -1.421875 
Q 19.96875 -1.421875 12.078125 6.1875 
Q 4.203125 13.8125 4.203125 27.390625 
Q 4.203125 36.078125 7.203125 44.46875 
Q 10.203125 52.875 15.828125 59.8125 
Q 21.78125 67.1875 29.421875 70.703125 
Q 37.0625 74.21875 47.21875 74.21875 
Q 53.46875 74.21875 59.0625 72.484375 
Q 64.65625 70.75 69.484375 67.28125 
z
" id="DejaVuSans-Oblique-67"/>
      <path d="M 20.609375 0 
L 7.8125 72.90625 
L 17.484375 72.90625 
L 28.078125 10.203125 
L 63.484375 72.90625 
L 74.21875 72.90625 
L 32.078125 0 
z
" id="DejaVuSans-Oblique-86"/>
      <path d="M 44.578125 46.390625 
Q 43.21875 47.125 41.453125 47.515625 
Q 39.703125 47.90625 37.703125 47.90625 
Q 30.515625 47.90625 25.140625 42.453125 
Q 19.78125 37.015625 18.015625 27.875 
L 12.5 0 
L 3.515625 0 
L 14.203125 54.6875 
L 23.1875 54.6875 
L 21.484375 46.1875 
Q 25.046875 50.921875 30 53.453125 
Q 34.96875 56 40.578125 56 
Q 42.046875 56 43.453125 55.828125 
Q 44.875 55.671875 46.296875 55.28125 
z
" id="DejaVuSans-Oblique-114"/>
     </defs>
     <g transform="translate(400.869565 141.320381)rotate(-90)scale(0.2 -0.2)">
      <use transform="translate(0 0.765625)" xlink:href="#DejaVuSans-Oblique-67"/>
      <use transform="translate(77.02474 39.046875)scale(0.7)" xlink:href="#DejaVuSans-50"/>
      <use transform="translate(69.824219 -26.578125)scale(0.7)" xlink:href="#DejaVuSans-Oblique-86"/>
      <use transform="translate(124.295247 0.765625)" xlink:href="#DejaVuSans-40"/>
      <use transform="translate(163.308919 0.765625)" xlink:href="#DejaVuSans-Oblique-114"/>
      <use transform="translate(204.422201 0.765625)" xlink:href="#DejaVuSans-41"/>
     </g>
    </g>
   </g>
   <g id="line2d_86">
    <path clip-path="url(#pe50e3af1f5)" d="M 453.491943 198.853336 
L 457.265101 98.431167 
L 459.907239 80.680381 
L 463.110404 91.032282 
L 466.583523 112.124613 
L 469.906975 124.94581 
L 472.810944 128.719133 
L 476.040667 127.401684 
L 479.302945 124.486815 
L 482.493218 122.22482 
L 485.869047 123.74498 
L 489.096082 125.128588 
L 492.211817 121.099 
L 495.450423 120.690915 
L 498.682358 127.055746 
L 502.111637 128.503576 
L 505.250629 129.004722 
L 508.601095 120.162269 
L 511.634906 112.60178 
L 514.981823 106.801568 
L 518.135268 112.609452 
L 521.308338 109.740367 
L 524.537463 116.630278 
L 527.86887 123.977865 
L 531.363181 126.262725 
L 534.289578 129.966593 
L 537.600896 122.657341 
L 540.748161 123.96741 
L 544.032771 119.383364 
L 547.474426 118.84967 
L 550.499878 121.983561 
L 554.008011 131.670625 
L 556.942482 126.331621 
L 560.132064 126.557993 
L 563.368934 125.202717 
L 566.654566 123.289978 
L 569.99739 114.004656 
L 573.112153 117.274197 
L 576.307818 124.086576 
L 579.791623 113.506897 
L 582.914348 128.651668 
L 586.225289 130.016748 
L 589.370667 136.275035 
L 592.475544 127.050193 
L 596.126851 122.6827 
L 599.252656 111.674017 
L 602.215977 112.858045 
L 605.731202 112.08171 
L 608.744405 111.830014 
L 612.038433 126.112133 
L 615.147002 126.515877 
L 618.450329 122.991801 
L 621.593843 126.531591 
L 624.900741 129.828866 
L 628.322051 127.741055 
L 631.326683 126.228799 
L 634.683873 118.954635 
L 638.187377 122.508452 
L 641.069636 133.443393 
L 644.245919 131.637479 
L 648.979997 125.893685 
L 650.920016 117.144683 
L 654.01058 114.314856 
L 657.329618 108.943362 
L 661.100262 118.272071 
L 664.452509 120.340885 
L 667.054285 120.931789 
L 670.102511 124.385314 
L 673.436839 129.021059 
L 676.635623 128.046795 
L 679.81543 133.37984 
L 683.085553 128.272143 
L 686.382243 126.40889 
L 689.51759 108.824519 
L 692.745242 122.187009 
L 696.052287 121.044094 
L 699.408657 122.441844 
L 702.707092 126.840468 
L 705.989921 128.132302 
L 708.939403 130.538018 
L 712.158444 133.627367 
L 715.519383 123.354857 
L 718.765776 123.497392 
L 721.90563 124.272666 
L 725.136477 124.809494 
L 728.41812 127.87928 
L 731.616459 125.799009 
L 735.077993 132.202736 
L 738.097793 133.410044 
L 741.336632 124.169679 
" style="fill:none;stroke:#bd0025;stroke-linecap:square;stroke-width:3;"/>
   </g>
   <g id="patch_8">
    <path d="M 453.368003 225.640381 
L 453.368003 8.200381 
" style="fill:none;stroke:#000000;stroke-linecap:square;stroke-linejoin:miter;stroke-width:2;"/>
   </g>
   <g id="patch_9">
    <path d="M 744.498438 225.640381 
L 744.498438 8.200381 
" style="fill:none;"/>
   </g>
   <g id="patch_10">
    <path d="M 453.368003 225.640381 
L 744.498438 225.640381 
" style="fill:none;stroke:#000000;stroke-linecap:square;stroke-linejoin:miter;stroke-width:2;"/>
   </g>
   <g id="patch_11">
    <path d="M 453.368003 8.200381 
L 744.498438 8.200381 
" style="fill:none;"/>
   </g>
  </g>
 </g>
 <defs>
  <clipPath id="p33310d8bfc">
   <rect height="217.44" width="291.130435" x="74.898438" y="8.200381"/>
  </clipPath>
  <clipPath id="pe50e3af1f5">
   <rect height="217.44" width="291.130435" x="453.368003" y="8.200381"/>
  </clipPath>
 </defs>
</svg>
