<?xml version="1.0" encoding="utf-8" standalone="no"?>
<!DOCTYPE svg PUBLIC "-//W3C//DTD SVG 1.1//EN"
  "http://www.w3.org/Graphics/SVG/1.1/DTD/svg11.dtd">
<!-- Created with matplotlib (http://matplotlib.org/) -->
<svg height="285.213437pt" version="1.1" viewBox="0 0 750.254688 285.213437" width="750.254688pt" xmlns="http://www.w3.org/2000/svg" xmlns:xlink="http://www.w3.org/1999/xlink">
 <defs>
  <style type="text/css">
*{stroke-linecap:butt;stroke-linejoin:round;}
  </style>
 </defs>
 <g id="figure_1">
  <g id="patch_1">
   <path d="M 0 285.213437 
L 750.254688 285.213437 
L 750.254688 0 
L 0 0 
z
" style="fill:#ffffff;"/>
  </g>
  <g id="axes_1">
   <g id="patch_2">
    <path d="M 63.910937 230.64 
L 355.041372 230.64 
L 355.041372 13.2 
L 63.910937 13.2 
z
" style="fill:#ffffff;"/>
   </g>
   <g id="PolyCollection_1">
    <defs>
     <path d="M 63.974583 -56.432037 
L 63.974583 -56.223838 
L 67.344997 -75.501505 
L 70.454269 -96.462991 
L 73.829038 -119.337685 
L 77.18003 -143.119104 
L 80.116437 -164.068242 
L 83.342005 -182.411973 
L 86.768817 -190.195573 
L 89.83652 -184.236136 
L 93.094317 -163.027695 
L 96.383944 -142.595459 
L 99.549146 -133.635393 
L 103.183494 -134.952105 
L 106.096102 -146.785399 
L 109.396149 -161.005892 
L 112.676371 -177.574264 
L 115.712145 -186.512907 
L 118.918309 -180.706673 
L 122.254102 -169.579844 
L 125.528042 -147.721625 
L 128.607065 -130.448582 
L 131.962166 -133.493695 
L 135.095054 -145.771595 
L 138.343892 -163.838216 
L 141.675903 -175.842418 
L 144.818831 -184.803187 
L 148.015716 -176.441094 
L 152.558184 -162.72725 
L 154.612594 -152.195071 
L 158.183727 -137.50833 
L 161.06374 -134.741288 
L 164.430342 -144.472792 
L 167.485737 -158.995077 
L 170.817901 -172.171201 
L 173.96178 -176.631478 
L 177.354713 -177.977518 
L 180.519124 -165.514308 
L 183.781782 -147.013767 
L 187.170407 -138.451994 
L 190.13378 -138.138244 
L 193.393238 -146.565478 
L 196.733515 -160.491132 
L 199.931514 -173.762227 
L 203.043198 -181.587352 
L 206.314048 -181.372784 
L 209.989265 -164.923428 
L 212.886719 -151.021137 
L 215.988043 -141.106531 
L 219.191867 -141.075153 
L 222.467244 -146.469851 
L 225.805833 -160.89022 
L 228.897495 -172.024388 
L 232.230233 -175.176876 
L 235.537378 -172.248705 
L 238.59213 -164.405062 
L 241.858992 -146.300574 
L 245.079676 -140.178544 
L 248.842783 -138.348973 
L 251.981026 -149.18422 
L 254.768652 -160.055879 
L 258.331035 -172.036165 
L 261.362978 -176.470394 
L 264.610803 -170.13403 
L 267.759453 -157.432301 
L 271.083387 -145.66054 
L 274.320419 -136.208275 
L 277.412087 -134.886681 
L 280.900226 -146.463725 
L 283.904307 -161.011248 
L 287.147129 -171.130967 
L 290.348062 -177.371317 
L 293.700041 -173.525972 
L 296.841202 -161.575011 
L 300.603978 -147.544121 
L 303.337463 -137.548446 
L 306.623068 -137.680094 
L 310.089866 -147.250489 
L 313.258225 -159.860775 
L 316.330888 -170.79726 
L 319.463956 -177.828738 
L 322.840352 -172.618412 
L 325.999759 -155.229067 
L 329.227269 -141.337391 
L 332.725615 -134.657541 
L 335.667056 -136.258912 
L 338.878746 -146.179477 
L 342.178743 -157.351177 
L 345.424316 -168.822793 
L 348.680832 -173.472566 
L 351.907802 -169.20308 
L 351.907802 -182.899951 
L 351.907802 -182.899951 
L 348.680832 -184.821303 
L 345.424316 -177.632589 
L 342.178743 -164.546973 
L 338.878746 -154.106951 
L 335.667056 -146.577584 
L 332.725615 -147.673207 
L 329.227269 -156.071374 
L 325.999759 -170.281615 
L 322.840352 -186.200884 
L 319.463956 -188.853706 
L 316.330888 -179.191985 
L 313.258225 -167.234987 
L 310.089866 -155.710816 
L 306.623068 -148.572921 
L 303.337463 -150.990837 
L 300.603978 -162.678196 
L 296.841202 -176.694632 
L 293.700041 -187.077854 
L 290.348062 -188.423951 
L 287.147129 -179.676863 
L 283.904307 -168.370714 
L 280.900226 -154.628271 
L 277.412087 -145.194363 
L 274.320419 -149.377746 
L 271.083387 -160.656083 
L 267.759453 -172.541601 
L 264.610803 -183.79373 
L 261.362978 -187.42551 
L 258.331035 -180.258945 
L 254.768652 -166.611706 
L 251.981026 -158.166804 
L 248.842783 -149.058962 
L 245.079676 -153.801478 
L 241.858992 -161.312034 
L 238.59213 -179.556104 
L 235.537378 -185.850124 
L 232.230233 -186.228784 
L 228.897495 -180.257368 
L 225.805833 -168.285505 
L 222.467244 -154.905484 
L 219.191867 -152.42736 
L 215.988043 -154.864802 
L 212.886719 -166.31268 
L 209.989265 -180.076946 
L 206.314048 -194.630297 
L 203.043198 -192.12826 
L 199.931514 -181.771019 
L 196.733515 -166.742941 
L 193.393238 -154.412595 
L 190.13378 -149.057241 
L 187.170407 -151.911929 
L 183.781782 -162.114325 
L 180.519124 -180.689739 
L 177.354713 -191.361287 
L 173.96178 -187.583531 
L 170.817901 -180.191054 
L 167.485737 -165.08876 
L 164.430342 -151.575273 
L 161.06374 -144.851887 
L 158.183727 -150.82784 
L 154.612594 -167.503941 
L 152.558184 -177.861117 
L 148.015716 -190.063274 
L 144.818831 -195.244943 
L 141.675903 -183.558203 
L 138.343892 -170.133717 
L 135.095054 -152.975408 
L 131.962166 -143.179169 
L 128.607065 -142.900959 
L 125.528042 -162.77759 
L 122.254102 -184.745391 
L 118.918309 -193.999858 
L 115.712145 -196.614189 
L 112.676371 -184.610636 
L 109.396149 -165.957528 
L 106.096102 -154.297043 
L 103.183494 -144.73824 
L 99.549146 -146.366159 
L 96.383944 -157.357883 
L 93.094317 -178.169905 
L 89.83652 -197.36941 
L 86.768817 -199.913736 
L 83.342005 -188.594404 
L 80.116437 -167.620332 
L 77.18003 -144.05538 
L 73.829038 -119.522067 
L 70.454269 -96.642537 
L 67.344997 -75.692955 
L 63.974583 -56.432037 
z
" id="mb11fec63db"/>
    </defs>
    <g clip-path="url(#p250663676b)">
     <use style="fill:#4db8ff;" x="0" xlink:href="#mb11fec63db" y="285.213437"/>
    </g>
   </g>
   <g id="matplotlib.axis_1">
    <g id="xtick_1">
     <g id="line2d_1">
      <path clip-path="url(#p250663676b)" d="M 63.910937 230.64 
L 63.910937 13.2 
" style="fill:none;stroke:#b0b0b0;stroke-linecap:square;stroke-width:0.8;"/>
     </g>
     <g id="line2d_2">
      <defs>
       <path d="M 0 0 
L 0 6 
" id="md6aa8b3c34"/>
      </defs>
      <g>
       <use x="63.910937" xlink:href="#md6aa8b3c34" y="230.64"/>
      </g>
     </g>
     <g id="text_1">
      <!-- 0 -->
      <defs>
       <path d="M 31.78125 66.40625 
Q 24.171875 66.40625 20.328125 58.90625 
Q 16.5 51.421875 16.5 36.375 
Q 16.5 21.390625 20.328125 13.890625 
Q 24.171875 6.390625 31.78125 6.390625 
Q 39.453125 6.390625 43.28125 13.890625 
Q 47.125 21.390625 47.125 36.375 
Q 47.125 51.421875 43.28125 58.90625 
Q 39.453125 66.40625 31.78125 66.40625 
z
M 31.78125 74.21875 
Q 44.046875 74.21875 50.515625 64.515625 
Q 56.984375 54.828125 56.984375 36.375 
Q 56.984375 17.96875 50.515625 8.265625 
Q 44.046875 -1.421875 31.78125 -1.421875 
Q 19.53125 -1.421875 13.0625 8.265625 
Q 6.59375 17.96875 6.59375 36.375 
Q 6.59375 54.828125 13.0625 64.515625 
Q 19.53125 74.21875 31.78125 74.21875 
z
" id="DejaVuSans-30"/>
      </defs>
      <g transform="translate(59.139062 251.537656)scale(0.15 -0.15)">
       <use xlink:href="#DejaVuSans-30"/>
      </g>
     </g>
    </g>
    <g id="xtick_2">
     <g id="line2d_3">
      <path clip-path="url(#p250663676b)" d="M 93.023981 230.64 
L 93.023981 13.2 
" style="fill:none;stroke:#b0b0b0;stroke-linecap:square;stroke-width:0.8;"/>
     </g>
     <g id="line2d_4">
      <g>
       <use x="93.023981" xlink:href="#md6aa8b3c34" y="230.64"/>
      </g>
     </g>
     <g id="text_2">
      <!-- 1 -->
      <defs>
       <path d="M 12.40625 8.296875 
L 28.515625 8.296875 
L 28.515625 63.921875 
L 10.984375 60.40625 
L 10.984375 69.390625 
L 28.421875 72.90625 
L 38.28125 72.90625 
L 38.28125 8.296875 
L 54.390625 8.296875 
L 54.390625 0 
L 12.40625 0 
z
" id="DejaVuSans-31"/>
      </defs>
      <g transform="translate(88.252106 251.537656)scale(0.15 -0.15)">
       <use xlink:href="#DejaVuSans-31"/>
      </g>
     </g>
    </g>
    <g id="xtick_3">
     <g id="line2d_5">
      <path clip-path="url(#p250663676b)" d="M 122.137024 230.64 
L 122.137024 13.2 
" style="fill:none;stroke:#b0b0b0;stroke-linecap:square;stroke-width:0.8;"/>
     </g>
     <g id="line2d_6">
      <g>
       <use x="122.137024" xlink:href="#md6aa8b3c34" y="230.64"/>
      </g>
     </g>
     <g id="text_3">
      <!-- 2 -->
      <defs>
       <path d="M 19.1875 8.296875 
L 53.609375 8.296875 
L 53.609375 0 
L 7.328125 0 
L 7.328125 8.296875 
Q 12.9375 14.109375 22.625 23.890625 
Q 32.328125 33.6875 34.8125 36.53125 
Q 39.546875 41.84375 41.421875 45.53125 
Q 43.3125 49.21875 43.3125 52.78125 
Q 43.3125 58.59375 39.234375 62.25 
Q 35.15625 65.921875 28.609375 65.921875 
Q 23.96875 65.921875 18.8125 64.3125 
Q 13.671875 62.703125 7.8125 59.421875 
L 7.8125 69.390625 
Q 13.765625 71.78125 18.9375 73 
Q 24.125 74.21875 28.421875 74.21875 
Q 39.75 74.21875 46.484375 68.546875 
Q 53.21875 62.890625 53.21875 53.421875 
Q 53.21875 48.921875 51.53125 44.890625 
Q 49.859375 40.875 45.40625 35.40625 
Q 44.1875 33.984375 37.640625 27.21875 
Q 31.109375 20.453125 19.1875 8.296875 
z
" id="DejaVuSans-32"/>
      </defs>
      <g transform="translate(117.365149 251.537656)scale(0.15 -0.15)">
       <use xlink:href="#DejaVuSans-32"/>
      </g>
     </g>
    </g>
    <g id="xtick_4">
     <g id="line2d_7">
      <path clip-path="url(#p250663676b)" d="M 151.250068 230.64 
L 151.250068 13.2 
" style="fill:none;stroke:#b0b0b0;stroke-linecap:square;stroke-width:0.8;"/>
     </g>
     <g id="line2d_8">
      <g>
       <use x="151.250068" xlink:href="#md6aa8b3c34" y="230.64"/>
      </g>
     </g>
     <g id="text_4">
      <!-- 3 -->
      <defs>
       <path d="M 40.578125 39.3125 
Q 47.65625 37.796875 51.625 33 
Q 55.609375 28.21875 55.609375 21.1875 
Q 55.609375 10.40625 48.1875 4.484375 
Q 40.765625 -1.421875 27.09375 -1.421875 
Q 22.515625 -1.421875 17.65625 -0.515625 
Q 12.796875 0.390625 7.625 2.203125 
L 7.625 11.71875 
Q 11.71875 9.328125 16.59375 8.109375 
Q 21.484375 6.890625 26.8125 6.890625 
Q 36.078125 6.890625 40.9375 10.546875 
Q 45.796875 14.203125 45.796875 21.1875 
Q 45.796875 27.640625 41.28125 31.265625 
Q 36.765625 34.90625 28.71875 34.90625 
L 20.21875 34.90625 
L 20.21875 43.015625 
L 29.109375 43.015625 
Q 36.375 43.015625 40.234375 45.921875 
Q 44.09375 48.828125 44.09375 54.296875 
Q 44.09375 59.90625 40.109375 62.90625 
Q 36.140625 65.921875 28.71875 65.921875 
Q 24.65625 65.921875 20.015625 65.03125 
Q 15.375 64.15625 9.8125 62.3125 
L 9.8125 71.09375 
Q 15.4375 72.65625 20.34375 73.4375 
Q 25.25 74.21875 29.59375 74.21875 
Q 40.828125 74.21875 47.359375 69.109375 
Q 53.90625 64.015625 53.90625 55.328125 
Q 53.90625 49.265625 50.4375 45.09375 
Q 46.96875 40.921875 40.578125 39.3125 
z
" id="DejaVuSans-33"/>
      </defs>
      <g transform="translate(146.478193 251.537656)scale(0.15 -0.15)">
       <use xlink:href="#DejaVuSans-33"/>
      </g>
     </g>
    </g>
    <g id="xtick_5">
     <g id="line2d_9">
      <path clip-path="url(#p250663676b)" d="M 180.363111 230.64 
L 180.363111 13.2 
" style="fill:none;stroke:#b0b0b0;stroke-linecap:square;stroke-width:0.8;"/>
     </g>
     <g id="line2d_10">
      <g>
       <use x="180.363111" xlink:href="#md6aa8b3c34" y="230.64"/>
      </g>
     </g>
     <g id="text_5">
      <!-- 4 -->
      <defs>
       <path d="M 37.796875 64.3125 
L 12.890625 25.390625 
L 37.796875 25.390625 
z
M 35.203125 72.90625 
L 47.609375 72.90625 
L 47.609375 25.390625 
L 58.015625 25.390625 
L 58.015625 17.1875 
L 47.609375 17.1875 
L 47.609375 0 
L 37.796875 0 
L 37.796875 17.1875 
L 4.890625 17.1875 
L 4.890625 26.703125 
z
" id="DejaVuSans-34"/>
      </defs>
      <g transform="translate(175.591236 251.537656)scale(0.15 -0.15)">
       <use xlink:href="#DejaVuSans-34"/>
      </g>
     </g>
    </g>
    <g id="xtick_6">
     <g id="line2d_11">
      <path clip-path="url(#p250663676b)" d="M 209.476155 230.64 
L 209.476155 13.2 
" style="fill:none;stroke:#b0b0b0;stroke-linecap:square;stroke-width:0.8;"/>
     </g>
     <g id="line2d_12">
      <g>
       <use x="209.476155" xlink:href="#md6aa8b3c34" y="230.64"/>
      </g>
     </g>
     <g id="text_6">
      <!-- 5 -->
      <defs>
       <path d="M 10.796875 72.90625 
L 49.515625 72.90625 
L 49.515625 64.59375 
L 19.828125 64.59375 
L 19.828125 46.734375 
Q 21.96875 47.46875 24.109375 47.828125 
Q 26.265625 48.1875 28.421875 48.1875 
Q 40.625 48.1875 47.75 41.5 
Q 54.890625 34.8125 54.890625 23.390625 
Q 54.890625 11.625 47.5625 5.09375 
Q 40.234375 -1.421875 26.90625 -1.421875 
Q 22.3125 -1.421875 17.546875 -0.640625 
Q 12.796875 0.140625 7.71875 1.703125 
L 7.71875 11.625 
Q 12.109375 9.234375 16.796875 8.0625 
Q 21.484375 6.890625 26.703125 6.890625 
Q 35.15625 6.890625 40.078125 11.328125 
Q 45.015625 15.765625 45.015625 23.390625 
Q 45.015625 31 40.078125 35.4375 
Q 35.15625 39.890625 26.703125 39.890625 
Q 22.75 39.890625 18.8125 39.015625 
Q 14.890625 38.140625 10.796875 36.28125 
z
" id="DejaVuSans-35"/>
      </defs>
      <g transform="translate(204.70428 251.537656)scale(0.15 -0.15)">
       <use xlink:href="#DejaVuSans-35"/>
      </g>
     </g>
    </g>
    <g id="xtick_7">
     <g id="line2d_13">
      <path clip-path="url(#p250663676b)" d="M 238.589198 230.64 
L 238.589198 13.2 
" style="fill:none;stroke:#b0b0b0;stroke-linecap:square;stroke-width:0.8;"/>
     </g>
     <g id="line2d_14">
      <g>
       <use x="238.589198" xlink:href="#md6aa8b3c34" y="230.64"/>
      </g>
     </g>
     <g id="text_7">
      <!-- 6 -->
      <defs>
       <path d="M 33.015625 40.375 
Q 26.375 40.375 22.484375 35.828125 
Q 18.609375 31.296875 18.609375 23.390625 
Q 18.609375 15.53125 22.484375 10.953125 
Q 26.375 6.390625 33.015625 6.390625 
Q 39.65625 6.390625 43.53125 10.953125 
Q 47.40625 15.53125 47.40625 23.390625 
Q 47.40625 31.296875 43.53125 35.828125 
Q 39.65625 40.375 33.015625 40.375 
z
M 52.59375 71.296875 
L 52.59375 62.3125 
Q 48.875 64.0625 45.09375 64.984375 
Q 41.3125 65.921875 37.59375 65.921875 
Q 27.828125 65.921875 22.671875 59.328125 
Q 17.53125 52.734375 16.796875 39.40625 
Q 19.671875 43.65625 24.015625 45.921875 
Q 28.375 48.1875 33.59375 48.1875 
Q 44.578125 48.1875 50.953125 41.515625 
Q 57.328125 34.859375 57.328125 23.390625 
Q 57.328125 12.15625 50.6875 5.359375 
Q 44.046875 -1.421875 33.015625 -1.421875 
Q 20.359375 -1.421875 13.671875 8.265625 
Q 6.984375 17.96875 6.984375 36.375 
Q 6.984375 53.65625 15.1875 63.9375 
Q 23.390625 74.21875 37.203125 74.21875 
Q 40.921875 74.21875 44.703125 73.484375 
Q 48.484375 72.75 52.59375 71.296875 
z
" id="DejaVuSans-36"/>
      </defs>
      <g transform="translate(233.817323 251.537656)scale(0.15 -0.15)">
       <use xlink:href="#DejaVuSans-36"/>
      </g>
     </g>
    </g>
    <g id="xtick_8">
     <g id="line2d_15">
      <path clip-path="url(#p250663676b)" d="M 267.702242 230.64 
L 267.702242 13.2 
" style="fill:none;stroke:#b0b0b0;stroke-linecap:square;stroke-width:0.8;"/>
     </g>
     <g id="line2d_16">
      <g>
       <use x="267.702242" xlink:href="#md6aa8b3c34" y="230.64"/>
      </g>
     </g>
     <g id="text_8">
      <!-- 7 -->
      <defs>
       <path d="M 8.203125 72.90625 
L 55.078125 72.90625 
L 55.078125 68.703125 
L 28.609375 0 
L 18.3125 0 
L 43.21875 64.59375 
L 8.203125 64.59375 
z
" id="DejaVuSans-37"/>
      </defs>
      <g transform="translate(262.930367 251.537656)scale(0.15 -0.15)">
       <use xlink:href="#DejaVuSans-37"/>
      </g>
     </g>
    </g>
    <g id="xtick_9">
     <g id="line2d_17">
      <path clip-path="url(#p250663676b)" d="M 296.815285 230.64 
L 296.815285 13.2 
" style="fill:none;stroke:#b0b0b0;stroke-linecap:square;stroke-width:0.8;"/>
     </g>
     <g id="line2d_18">
      <g>
       <use x="296.815285" xlink:href="#md6aa8b3c34" y="230.64"/>
      </g>
     </g>
     <g id="text_9">
      <!-- 8 -->
      <defs>
       <path d="M 31.78125 34.625 
Q 24.75 34.625 20.71875 30.859375 
Q 16.703125 27.09375 16.703125 20.515625 
Q 16.703125 13.921875 20.71875 10.15625 
Q 24.75 6.390625 31.78125 6.390625 
Q 38.8125 6.390625 42.859375 10.171875 
Q 46.921875 13.96875 46.921875 20.515625 
Q 46.921875 27.09375 42.890625 30.859375 
Q 38.875 34.625 31.78125 34.625 
z
M 21.921875 38.8125 
Q 15.578125 40.375 12.03125 44.71875 
Q 8.5 49.078125 8.5 55.328125 
Q 8.5 64.0625 14.71875 69.140625 
Q 20.953125 74.21875 31.78125 74.21875 
Q 42.671875 74.21875 48.875 69.140625 
Q 55.078125 64.0625 55.078125 55.328125 
Q 55.078125 49.078125 51.53125 44.71875 
Q 48 40.375 41.703125 38.8125 
Q 48.828125 37.15625 52.796875 32.3125 
Q 56.78125 27.484375 56.78125 20.515625 
Q 56.78125 9.90625 50.3125 4.234375 
Q 43.84375 -1.421875 31.78125 -1.421875 
Q 19.734375 -1.421875 13.25 4.234375 
Q 6.78125 9.90625 6.78125 20.515625 
Q 6.78125 27.484375 10.78125 32.3125 
Q 14.796875 37.15625 21.921875 38.8125 
z
M 18.3125 54.390625 
Q 18.3125 48.734375 21.84375 45.5625 
Q 25.390625 42.390625 31.78125 42.390625 
Q 38.140625 42.390625 41.71875 45.5625 
Q 45.3125 48.734375 45.3125 54.390625 
Q 45.3125 60.0625 41.71875 63.234375 
Q 38.140625 66.40625 31.78125 66.40625 
Q 25.390625 66.40625 21.84375 63.234375 
Q 18.3125 60.0625 18.3125 54.390625 
z
" id="DejaVuSans-38"/>
      </defs>
      <g transform="translate(292.04341 251.537656)scale(0.15 -0.15)">
       <use xlink:href="#DejaVuSans-38"/>
      </g>
     </g>
    </g>
    <g id="xtick_10">
     <g id="line2d_19">
      <path clip-path="url(#p250663676b)" d="M 325.928329 230.64 
L 325.928329 13.2 
" style="fill:none;stroke:#b0b0b0;stroke-linecap:square;stroke-width:0.8;"/>
     </g>
     <g id="line2d_20">
      <g>
       <use x="325.928329" xlink:href="#md6aa8b3c34" y="230.64"/>
      </g>
     </g>
     <g id="text_10">
      <!-- 9 -->
      <defs>
       <path d="M 10.984375 1.515625 
L 10.984375 10.5 
Q 14.703125 8.734375 18.5 7.8125 
Q 22.3125 6.890625 25.984375 6.890625 
Q 35.75 6.890625 40.890625 13.453125 
Q 46.046875 20.015625 46.78125 33.40625 
Q 43.953125 29.203125 39.59375 26.953125 
Q 35.25 24.703125 29.984375 24.703125 
Q 19.046875 24.703125 12.671875 31.3125 
Q 6.296875 37.9375 6.296875 49.421875 
Q 6.296875 60.640625 12.9375 67.421875 
Q 19.578125 74.21875 30.609375 74.21875 
Q 43.265625 74.21875 49.921875 64.515625 
Q 56.59375 54.828125 56.59375 36.375 
Q 56.59375 19.140625 48.40625 8.859375 
Q 40.234375 -1.421875 26.421875 -1.421875 
Q 22.703125 -1.421875 18.890625 -0.6875 
Q 15.09375 0.046875 10.984375 1.515625 
z
M 30.609375 32.421875 
Q 37.25 32.421875 41.125 36.953125 
Q 45.015625 41.5 45.015625 49.421875 
Q 45.015625 57.28125 41.125 61.84375 
Q 37.25 66.40625 30.609375 66.40625 
Q 23.96875 66.40625 20.09375 61.84375 
Q 16.21875 57.28125 16.21875 49.421875 
Q 16.21875 41.5 20.09375 36.953125 
Q 23.96875 32.421875 30.609375 32.421875 
z
" id="DejaVuSans-39"/>
      </defs>
      <g transform="translate(321.156454 251.537656)scale(0.15 -0.15)">
       <use xlink:href="#DejaVuSans-39"/>
      </g>
     </g>
    </g>
    <g id="xtick_11">
     <g id="line2d_21">
      <path clip-path="url(#p250663676b)" d="M 355.041372 230.64 
L 355.041372 13.2 
" style="fill:none;stroke:#b0b0b0;stroke-linecap:square;stroke-width:0.8;"/>
     </g>
     <g id="line2d_22">
      <g>
       <use x="355.041372" xlink:href="#md6aa8b3c34" y="230.64"/>
      </g>
     </g>
     <g id="text_11">
      <!-- 10 -->
      <g transform="translate(345.497622 251.537656)scale(0.15 -0.15)">
       <use xlink:href="#DejaVuSans-31"/>
       <use x="63.623047" xlink:href="#DejaVuSans-30"/>
      </g>
     </g>
    </g>
    <g id="text_12">
     <!-- $t/\tau$ -->
     <defs>
      <path d="M 42.28125 54.6875 
L 40.921875 47.703125 
L 23 47.703125 
L 17.1875 18.015625 
Q 16.890625 16.359375 16.75 15.234375 
Q 16.609375 14.109375 16.609375 13.484375 
Q 16.609375 10.359375 18.484375 8.9375 
Q 20.359375 7.515625 24.515625 7.515625 
L 33.59375 7.515625 
L 32.078125 0 
L 23.484375 0 
Q 15.484375 0 11.546875 3.125 
Q 7.625 6.25 7.625 12.59375 
Q 7.625 13.71875 7.765625 15.0625 
Q 7.90625 16.40625 8.203125 18.015625 
L 14.015625 47.703125 
L 6.390625 47.703125 
L 7.8125 54.6875 
L 15.28125 54.6875 
L 18.3125 70.21875 
L 27.296875 70.21875 
L 24.3125 54.6875 
z
" id="DejaVuSans-Oblique-74"/>
      <path d="M 25.390625 72.90625 
L 33.6875 72.90625 
L 8.296875 -9.28125 
L 0 -9.28125 
z
" id="DejaVuSans-2f"/>
      <path d="M 32.859375 9.96875 
Q 34.1875 7.625 39.453125 7.625 
L 43.75 7.625 
L 42.28125 0 
L 36.921875 0 
Q 28.125 0 25 4.6875 
Q 21.921875 9.46875 23.96875 19.828125 
L 29 45.703125 
L 8.453125 45.703125 
L 10.203125 54.6875 
L 60.640625 54.6875 
L 58.890625 45.703125 
L 38.1875 45.703125 
L 33.015625 19.28125 
Q 31.640625 12.203125 32.859375 9.96875 
z
" id="DejaVuSans-Oblique-3c4"/>
     </defs>
     <g transform="translate(196.076155 273.854062)scale(0.2 -0.2)">
      <use transform="translate(0 0.09375)" xlink:href="#DejaVuSans-Oblique-74"/>
      <use transform="translate(39.208984 0.09375)" xlink:href="#DejaVuSans-2f"/>
      <use transform="translate(72.900391 0.09375)" xlink:href="#DejaVuSans-Oblique-3c4"/>
     </g>
    </g>
   </g>
   <g id="matplotlib.axis_2">
    <g id="ytick_1">
     <g id="line2d_23">
      <path clip-path="url(#p250663676b)" d="M 63.910937 230.64 
L 355.041372 230.64 
" style="fill:none;stroke:#b0b0b0;stroke-linecap:square;stroke-width:0.8;"/>
     </g>
     <g id="line2d_24">
      <defs>
       <path d="M 0 0 
L -6 0 
" id="ma11922998b"/>
      </defs>
      <g>
       <use x="63.910937" xlink:href="#ma11922998b" y="230.64"/>
      </g>
     </g>
     <g id="text_13">
      <!-- 1.0 -->
      <defs>
       <path d="M 10.6875 12.40625 
L 21 12.40625 
L 21 0 
L 10.6875 0 
z
" id="DejaVuSans-2e"/>
      </defs>
      <g transform="translate(30.55625 236.338828)scale(0.15 -0.15)">
       <use xlink:href="#DejaVuSans-31"/>
       <use x="63.623047" xlink:href="#DejaVuSans-2e"/>
       <use x="95.410156" xlink:href="#DejaVuSans-30"/>
      </g>
     </g>
    </g>
    <g id="ytick_2">
     <g id="line2d_25">
      <path clip-path="url(#p250663676b)" d="M 63.910937 181.77746 
L 355.041372 181.77746 
" style="fill:none;stroke:#b0b0b0;stroke-linecap:square;stroke-width:0.8;"/>
     </g>
     <g id="line2d_26">
      <g>
       <use x="63.910937" xlink:href="#ma11922998b" y="181.77746"/>
      </g>
     </g>
     <g id="text_14">
      <!-- 1.2 -->
      <g transform="translate(30.55625 187.476288)scale(0.15 -0.15)">
       <use xlink:href="#DejaVuSans-31"/>
       <use x="63.623047" xlink:href="#DejaVuSans-2e"/>
       <use x="95.410156" xlink:href="#DejaVuSans-32"/>
      </g>
     </g>
    </g>
    <g id="ytick_3">
     <g id="line2d_27">
      <path clip-path="url(#p250663676b)" d="M 63.910937 132.91492 
L 355.041372 132.91492 
" style="fill:none;stroke:#b0b0b0;stroke-linecap:square;stroke-width:0.8;"/>
     </g>
     <g id="line2d_28">
      <g>
       <use x="63.910937" xlink:href="#ma11922998b" y="132.91492"/>
      </g>
     </g>
     <g id="text_15">
      <!-- 1.4 -->
      <g transform="translate(30.55625 138.613749)scale(0.15 -0.15)">
       <use xlink:href="#DejaVuSans-31"/>
       <use x="63.623047" xlink:href="#DejaVuSans-2e"/>
       <use x="95.410156" xlink:href="#DejaVuSans-34"/>
      </g>
     </g>
    </g>
    <g id="ytick_4">
     <g id="line2d_29">
      <path clip-path="url(#p250663676b)" d="M 63.910937 84.052381 
L 355.041372 84.052381 
" style="fill:none;stroke:#b0b0b0;stroke-linecap:square;stroke-width:0.8;"/>
     </g>
     <g id="line2d_30">
      <g>
       <use x="63.910937" xlink:href="#ma11922998b" y="84.052381"/>
      </g>
     </g>
     <g id="text_16">
      <!-- 1.6 -->
      <g transform="translate(30.55625 89.751209)scale(0.15 -0.15)">
       <use xlink:href="#DejaVuSans-31"/>
       <use x="63.623047" xlink:href="#DejaVuSans-2e"/>
       <use x="95.410156" xlink:href="#DejaVuSans-36"/>
      </g>
     </g>
    </g>
    <g id="ytick_5">
     <g id="line2d_31">
      <path clip-path="url(#p250663676b)" d="M 63.910937 35.189841 
L 355.041372 35.189841 
" style="fill:none;stroke:#b0b0b0;stroke-linecap:square;stroke-width:0.8;"/>
     </g>
     <g id="line2d_32">
      <g>
       <use x="63.910937" xlink:href="#ma11922998b" y="35.189841"/>
      </g>
     </g>
     <g id="text_17">
      <!-- 1.8 -->
      <g transform="translate(30.55625 40.888669)scale(0.15 -0.15)">
       <use xlink:href="#DejaVuSans-31"/>
       <use x="63.623047" xlink:href="#DejaVuSans-2e"/>
       <use x="95.410156" xlink:href="#DejaVuSans-38"/>
      </g>
     </g>
    </g>
    <g id="text_18">
     <!-- Mean Size ($fl$) -->
     <defs>
      <path d="M 9.8125 72.90625 
L 24.515625 72.90625 
L 43.109375 23.296875 
L 61.8125 72.90625 
L 76.515625 72.90625 
L 76.515625 0 
L 66.890625 0 
L 66.890625 64.015625 
L 48.09375 14.015625 
L 38.1875 14.015625 
L 19.390625 64.015625 
L 19.390625 0 
L 9.8125 0 
z
" id="DejaVuSans-4d"/>
      <path d="M 56.203125 29.59375 
L 56.203125 25.203125 
L 14.890625 25.203125 
Q 15.484375 15.921875 20.484375 11.0625 
Q 25.484375 6.203125 34.421875 6.203125 
Q 39.59375 6.203125 44.453125 7.46875 
Q 49.3125 8.734375 54.109375 11.28125 
L 54.109375 2.78125 
Q 49.265625 0.734375 44.1875 -0.34375 
Q 39.109375 -1.421875 33.890625 -1.421875 
Q 20.796875 -1.421875 13.15625 6.1875 
Q 5.515625 13.8125 5.515625 26.8125 
Q 5.515625 40.234375 12.765625 48.109375 
Q 20.015625 56 32.328125 56 
Q 43.359375 56 49.78125 48.890625 
Q 56.203125 41.796875 56.203125 29.59375 
z
M 47.21875 32.234375 
Q 47.125 39.59375 43.09375 43.984375 
Q 39.0625 48.390625 32.421875 48.390625 
Q 24.90625 48.390625 20.390625 44.140625 
Q 15.875 39.890625 15.1875 32.171875 
z
" id="DejaVuSans-65"/>
      <path d="M 34.28125 27.484375 
Q 23.390625 27.484375 19.1875 25 
Q 14.984375 22.515625 14.984375 16.5 
Q 14.984375 11.71875 18.140625 8.90625 
Q 21.296875 6.109375 26.703125 6.109375 
Q 34.1875 6.109375 38.703125 11.40625 
Q 43.21875 16.703125 43.21875 25.484375 
L 43.21875 27.484375 
z
M 52.203125 31.203125 
L 52.203125 0 
L 43.21875 0 
L 43.21875 8.296875 
Q 40.140625 3.328125 35.546875 0.953125 
Q 30.953125 -1.421875 24.3125 -1.421875 
Q 15.921875 -1.421875 10.953125 3.296875 
Q 6 8.015625 6 15.921875 
Q 6 25.140625 12.171875 29.828125 
Q 18.359375 34.515625 30.609375 34.515625 
L 43.21875 34.515625 
L 43.21875 35.40625 
Q 43.21875 41.609375 39.140625 45 
Q 35.0625 48.390625 27.6875 48.390625 
Q 23 48.390625 18.546875 47.265625 
Q 14.109375 46.140625 10.015625 43.890625 
L 10.015625 52.203125 
Q 14.9375 54.109375 19.578125 55.046875 
Q 24.21875 56 28.609375 56 
Q 40.484375 56 46.34375 49.84375 
Q 52.203125 43.703125 52.203125 31.203125 
z
" id="DejaVuSans-61"/>
      <path d="M 54.890625 33.015625 
L 54.890625 0 
L 45.90625 0 
L 45.90625 32.71875 
Q 45.90625 40.484375 42.875 44.328125 
Q 39.84375 48.1875 33.796875 48.1875 
Q 26.515625 48.1875 22.3125 43.546875 
Q 18.109375 38.921875 18.109375 30.90625 
L 18.109375 0 
L 9.078125 0 
L 9.078125 54.6875 
L 18.109375 54.6875 
L 18.109375 46.1875 
Q 21.34375 51.125 25.703125 53.5625 
Q 30.078125 56 35.796875 56 
Q 45.21875 56 50.046875 50.171875 
Q 54.890625 44.34375 54.890625 33.015625 
z
" id="DejaVuSans-6e"/>
      <path id="DejaVuSans-20"/>
      <path d="M 53.515625 70.515625 
L 53.515625 60.890625 
Q 47.90625 63.578125 42.921875 64.890625 
Q 37.9375 66.21875 33.296875 66.21875 
Q 25.25 66.21875 20.875 63.09375 
Q 16.5 59.96875 16.5 54.203125 
Q 16.5 49.359375 19.40625 46.890625 
Q 22.3125 44.4375 30.421875 42.921875 
L 36.375 41.703125 
Q 47.40625 39.59375 52.65625 34.296875 
Q 57.90625 29 57.90625 20.125 
Q 57.90625 9.515625 50.796875 4.046875 
Q 43.703125 -1.421875 29.984375 -1.421875 
Q 24.8125 -1.421875 18.96875 -0.25 
Q 13.140625 0.921875 6.890625 3.21875 
L 6.890625 13.375 
Q 12.890625 10.015625 18.65625 8.296875 
Q 24.421875 6.59375 29.984375 6.59375 
Q 38.421875 6.59375 43.015625 9.90625 
Q 47.609375 13.234375 47.609375 19.390625 
Q 47.609375 24.75 44.3125 27.78125 
Q 41.015625 30.8125 33.5 32.328125 
L 27.484375 33.5 
Q 16.453125 35.6875 11.515625 40.375 
Q 6.59375 45.0625 6.59375 53.421875 
Q 6.59375 63.09375 13.40625 68.65625 
Q 20.21875 74.21875 32.171875 74.21875 
Q 37.3125 74.21875 42.625 73.28125 
Q 47.953125 72.359375 53.515625 70.515625 
z
" id="DejaVuSans-53"/>
      <path d="M 9.421875 54.6875 
L 18.40625 54.6875 
L 18.40625 0 
L 9.421875 0 
z
M 9.421875 75.984375 
L 18.40625 75.984375 
L 18.40625 64.59375 
L 9.421875 64.59375 
z
" id="DejaVuSans-69"/>
      <path d="M 5.515625 54.6875 
L 48.1875 54.6875 
L 48.1875 46.484375 
L 14.40625 7.171875 
L 48.1875 7.171875 
L 48.1875 0 
L 4.296875 0 
L 4.296875 8.203125 
L 38.09375 47.515625 
L 5.515625 47.515625 
z
" id="DejaVuSans-7a"/>
      <path d="M 31 75.875 
Q 24.46875 64.65625 21.28125 53.65625 
Q 18.109375 42.671875 18.109375 31.390625 
Q 18.109375 20.125 21.3125 9.0625 
Q 24.515625 -2 31 -13.1875 
L 23.1875 -13.1875 
Q 15.875 -1.703125 12.234375 9.375 
Q 8.59375 20.453125 8.59375 31.390625 
Q 8.59375 42.28125 12.203125 53.3125 
Q 15.828125 64.359375 23.1875 75.875 
z
" id="DejaVuSans-28"/>
      <path d="M 47.796875 75.984375 
L 46.390625 68.5 
L 37.796875 68.5 
Q 32.90625 68.5 30.6875 66.578125 
Q 28.46875 64.65625 27.390625 59.515625 
L 26.421875 54.6875 
L 41.21875 54.6875 
L 39.890625 47.703125 
L 25.09375 47.703125 
L 15.828125 0 
L 6.78125 0 
L 16.109375 47.703125 
L 7.515625 47.703125 
L 8.796875 54.6875 
L 17.390625 54.6875 
L 18.109375 58.5 
Q 19.96875 68.171875 24.625 72.078125 
Q 29.296875 75.984375 39.3125 75.984375 
z
" id="DejaVuSans-Oblique-66"/>
      <path d="M 18.3125 75.984375 
L 27.296875 75.984375 
L 12.5 0 
L 3.515625 0 
z
" id="DejaVuSans-Oblique-6c"/>
      <path d="M 8.015625 75.875 
L 15.828125 75.875 
Q 23.140625 64.359375 26.78125 53.3125 
Q 30.421875 42.28125 30.421875 31.390625 
Q 30.421875 20.453125 26.78125 9.375 
Q 23.140625 -1.703125 15.828125 -13.1875 
L 8.015625 -13.1875 
Q 14.5 -2 17.703125 9.0625 
Q 20.90625 20.125 20.90625 31.390625 
Q 20.90625 42.671875 17.703125 53.65625 
Q 14.5 64.65625 8.015625 75.875 
z
" id="DejaVuSans-29"/>
     </defs>
     <g transform="translate(22.396875 190.22)rotate(-90)scale(0.2 -0.2)">
      <use transform="translate(0 0.015625)" xlink:href="#DejaVuSans-4d"/>
      <use transform="translate(86.279297 0.015625)" xlink:href="#DejaVuSans-65"/>
      <use transform="translate(147.802734 0.015625)" xlink:href="#DejaVuSans-61"/>
      <use transform="translate(209.082031 0.015625)" xlink:href="#DejaVuSans-6e"/>
      <use transform="translate(272.460938 0.015625)" xlink:href="#DejaVuSans-20"/>
      <use transform="translate(304.248047 0.015625)" xlink:href="#DejaVuSans-53"/>
      <use transform="translate(367.724609 0.015625)" xlink:href="#DejaVuSans-69"/>
      <use transform="translate(395.507812 0.015625)" xlink:href="#DejaVuSans-7a"/>
      <use transform="translate(447.998047 0.015625)" xlink:href="#DejaVuSans-65"/>
      <use transform="translate(509.521484 0.015625)" xlink:href="#DejaVuSans-20"/>
      <use transform="translate(541.308594 0.015625)" xlink:href="#DejaVuSans-28"/>
      <use transform="translate(580.322266 0.015625)" xlink:href="#DejaVuSans-Oblique-66"/>
      <use transform="translate(615.527344 0.015625)" xlink:href="#DejaVuSans-Oblique-6c"/>
      <use transform="translate(643.310547 0.015625)" xlink:href="#DejaVuSans-29"/>
     </g>
    </g>
   </g>
   <g id="line2d_33">
    <path clip-path="url(#p250663676b)" d="M 63.910937 230.64 
L 66.822242 213.104832 
L 69.733546 194.311652 
L 72.935981 172.107127 
L 77.011807 141.972667 
L 79.923111 120.974315 
L 81.669894 110.032557 
L 82.834416 104.005916 
L 83.707807 100.357889 
L 84.581198 97.579903 
L 85.163459 96.256654 
L 85.74572 95.38079 
L 86.327981 94.966318 
L 86.619111 94.934596 
L 86.910242 95.02029 
L 87.492503 95.542244 
L 88.074764 96.523841 
L 88.657024 97.948716 
L 89.530416 100.861902 
L 90.403807 104.60231 
L 91.568329 110.617029 
L 93.606242 122.743994 
L 95.644155 134.723094 
L 96.808677 140.575333 
L 97.973198 145.254443 
L 98.84659 147.841171 
L 99.428851 149.087299 
L 100.011111 149.937445 
L 100.593372 150.387722 
L 101.175633 150.440591 
L 101.757894 150.104465 
L 102.340155 149.393228 
L 102.922416 148.325706 
L 103.795807 146.108212 
L 104.669198 143.235997 
L 105.83372 138.577795 
L 107.580503 130.407574 
L 111.074068 113.656006 
L 112.23859 109.061495 
L 113.403111 105.407365 
L 114.276503 103.410508 
L 114.858764 102.472097 
L 115.441024 101.86541 
L 116.023285 101.600246 
L 116.605546 101.681465 
L 117.187807 102.108736 
L 117.770068 102.876371 
L 118.352329 103.973251 
L 119.22572 106.198314 
L 120.099111 109.048065 
L 121.263633 113.64001 
L 123.010416 121.601859 
L 125.63059 133.609485 
L 126.795111 138.071228 
L 127.668503 140.800969 
L 128.541894 142.896514 
L 129.124155 143.906722 
L 129.706416 144.591175 
L 130.288677 144.942125 
L 130.870937 144.957333 
L 131.453198 144.639944 
L 132.035459 143.998274 
L 132.61772 143.045509 
L 133.491111 141.072906 
L 134.364503 138.517672 
L 135.529024 134.368618 
L 137.275807 127.092248 
L 140.478242 113.46585 
L 141.642764 109.372941 
L 142.516155 106.860666 
L 143.389546 104.923982 
L 143.971807 103.987681 
L 144.554068 103.354077 
L 145.136329 103.03447 
L 145.71859 103.035519 
L 146.300851 103.359017 
L 146.883111 104.00172 
L 147.465372 104.955262 
L 148.338764 106.93753 
L 149.212155 109.521217 
L 150.376677 113.743067 
L 152.123459 121.175155 
L 155.034764 133.758085 
L 156.199285 137.89402 
L 157.072677 140.393622 
L 157.946068 142.277612 
L 158.528329 143.15939 
L 159.11059 143.726775 
L 159.692851 143.972872 
L 160.275111 143.896107 
L 160.857372 143.500117 
L 161.439633 142.793558 
L 162.021894 141.78983 
L 162.895285 139.767093 
L 163.768677 137.193261 
L 164.933198 133.067802 
L 166.679981 125.926834 
L 169.591285 113.896015 
L 170.755807 109.876247 
L 171.920329 106.692281 
L 172.79372 104.974955 
L 173.375981 104.186596 
L 173.958242 103.700208 
L 174.540503 103.525207 
L 175.122764 103.66632 
L 175.705024 104.123391 
L 176.287285 104.891246 
L 177.160677 106.601982 
L 178.034068 108.932201 
L 179.19859 112.862016 
L 180.654242 118.739013 
L 184.438938 134.798489 
L 185.603459 138.698594 
L 186.476851 140.996397 
L 187.350242 142.665197 
L 187.932503 143.399799 
L 188.514764 143.819664 
L 189.097024 143.920112 
L 189.679285 143.701708 
L 190.261546 143.170131 
L 190.843807 142.335943 
L 191.717198 140.551588 
L 192.59059 138.19003 
L 193.755111 134.295688 
L 195.210764 128.580678 
L 198.995459 113.130403 
L 200.159981 109.316477 
L 201.033372 107.023932 
L 201.906764 105.310543 
L 202.489024 104.522393 
L 203.071285 104.034361 
L 203.653546 103.85595 
L 204.235807 103.991999 
L 204.818068 104.442484 
L 205.400329 105.202382 
L 206.27372 106.898992 
L 207.147111 109.213041 
L 208.311633 113.11936 
L 209.767285 118.966404 
L 213.843111 136.01756 
L 215.007633 139.688166 
L 215.881024 141.782077 
L 216.754416 143.228437 
L 217.336677 143.80859 
L 217.918938 144.072046 
L 218.501198 144.016652 
L 219.083459 143.645435 
L 219.66572 142.966423 
L 220.247981 141.992391 
L 221.121372 140.016914 
L 221.994764 137.491907 
L 223.159285 133.431071 
L 224.906068 126.379493 
L 227.817372 114.459735 
L 228.981894 110.467549 
L 230.146416 107.300748 
L 231.019807 105.589447 
L 231.602068 104.801913 
L 232.184329 104.313881 
L 232.76659 104.134871 
L 233.348851 104.269743 
L 233.931111 104.718501 
L 234.513372 105.47616 
L 235.386764 107.168554 
L 236.260155 109.477521 
L 237.424677 113.376087 
L 238.880329 119.212666 
L 242.956155 136.238869 
L 244.120677 139.90542 
L 244.994068 141.997468 
L 245.867459 143.442993 
L 246.44972 144.023146 
L 247.031981 144.287031 
L 247.614242 144.232469 
L 248.196503 143.862459 
L 248.778764 143.184997 
L 249.361024 142.212822 
L 250.234416 140.240619 
L 251.107807 137.719355 
L 252.272329 133.664001 
L 254.019111 126.621049 
L 256.930416 114.714328 
L 258.094938 110.726156 
L 259.259459 107.562382 
L 260.132851 105.852616 
L 260.715111 105.065731 
L 261.297372 104.578041 
L 261.879633 104.39906 
L 262.461894 104.53365 
L 263.044155 104.981822 
L 263.626416 105.738602 
L 264.499807 107.429158 
L 265.373198 109.735729 
L 266.53772 113.630393 
L 267.993372 119.461332 
L 272.069198 136.47208 
L 273.23372 140.135528 
L 274.107111 142.225875 
L 274.980503 143.670287 
L 275.562764 144.250038 
L 276.145024 144.513793 
L 276.727285 144.459372 
L 277.309546 144.089764 
L 277.891807 143.412956 
L 278.474068 142.441671 
L 279.347459 140.471206 
L 280.220851 137.952101 
L 281.385372 133.900137 
L 283.132155 126.862938 
L 286.043459 114.965712 
L 287.207981 110.980678 
L 288.372503 107.819382 
L 289.245894 106.110953 
L 289.828155 105.324683 
L 290.410416 104.837376 
L 290.992677 104.658539 
L 291.574938 104.793032 
L 292.157198 105.240864 
L 292.739459 105.997067 
L 293.612851 107.686333 
L 294.486242 109.991144 
L 295.650764 113.882837 
L 297.106416 119.709337 
L 301.182242 136.70719 
L 302.346764 140.367865 
L 303.220155 142.456624 
L 304.093546 143.899931 
L 304.675807 144.479229 
L 305.258068 144.742766 
L 305.840329 144.68836 
L 306.42259 144.319 
L 307.004851 143.642663 
L 307.587111 142.672066 
L 308.460503 140.703008 
L 309.333894 138.185708 
L 310.498416 134.136656 
L 312.245198 127.10452 
L 315.156503 115.215876 
L 316.321024 111.233729 
L 317.485546 108.074735 
L 318.358938 106.36756 
L 318.941198 105.581875 
L 319.523459 105.094939 
L 320.10572 104.916253 
L 320.687981 105.050673 
L 321.270242 105.498207 
L 321.852503 106.253891 
L 322.725894 107.941981 
L 323.599285 110.245172 
L 324.763807 114.134115 
L 326.219459 119.956479 
L 330.295285 136.942177 
L 331.459807 140.60021 
L 332.333198 142.68745 
L 333.20659 144.129692 
L 333.788851 144.708551 
L 334.371111 144.971871 
L 334.953372 144.917473 
L 335.535633 144.548344 
L 336.117894 143.872456 
L 336.700155 142.902515 
L 337.573546 140.934806 
L 338.446938 138.419244 
L 339.611459 134.373003 
L 341.358242 127.345772 
L 344.269546 115.465464 
L 345.434068 111.486123 
L 346.59859 108.329366 
L 347.471981 106.623408 
L 348.054242 105.838289 
L 348.636503 105.351709 
L 349.218764 105.173165 
L 349.801024 105.307507 
L 350.383285 105.754744 
L 350.965546 106.509915 
L 351.838938 108.196845 
L 352.712329 110.498444 
L 353.876851 114.384686 
L 354.750242 117.778848 
L 354.750242 117.778848 
" style="fill:none;stroke:#008000;stroke-dasharray:7.4,3.2;stroke-dashoffset:0;stroke-width:2;"/>
   </g>
   <g id="patch_3">
    <path d="M 63.910937 230.64 
L 63.910937 13.2 
" style="fill:none;stroke:#000000;stroke-linecap:square;stroke-linejoin:miter;stroke-width:2;"/>
   </g>
   <g id="patch_4">
    <path d="M 355.041372 230.64 
L 355.041372 13.2 
" style="fill:none;"/>
   </g>
   <g id="patch_5">
    <path d="M 63.910937 230.64 
L 355.041372 230.64 
" style="fill:none;stroke:#000000;stroke-linecap:square;stroke-linejoin:miter;stroke-width:2;"/>
   </g>
   <g id="patch_6">
    <path d="M 63.910937 13.2 
L 355.041372 13.2 
" style="fill:none;"/>
   </g>
   <g id="legend_1">
    <g id="patch_7">
     <path d="M 220.031997 69.234375 
L 344.541372 69.234375 
Q 347.541372 69.234375 347.541372 66.234375 
L 347.541372 23.7 
Q 347.541372 20.7 344.541372 20.7 
L 220.031997 20.7 
Q 217.031997 20.7 217.031997 23.7 
L 217.031997 66.234375 
Q 217.031997 69.234375 220.031997 69.234375 
z
" style="fill:#ffffff;opacity:0.8;stroke:#cccccc;stroke-linejoin:miter;"/>
    </g>
    <g id="line2d_34">
     <path d="M 223.031997 32.847656 
L 253.031997 32.847656 
" style="fill:none;stroke:#008000;stroke-dasharray:7.4,3.2;stroke-dashoffset:0;stroke-width:2;"/>
    </g>
    <g id="line2d_35"/>
    <g id="text_19">
     <!-- Numerical -->
     <defs>
      <path d="M 9.8125 72.90625 
L 23.09375 72.90625 
L 55.421875 11.921875 
L 55.421875 72.90625 
L 64.984375 72.90625 
L 64.984375 0 
L 51.703125 0 
L 19.390625 60.984375 
L 19.390625 0 
L 9.8125 0 
z
" id="DejaVuSans-4e"/>
      <path d="M 8.5 21.578125 
L 8.5 54.6875 
L 17.484375 54.6875 
L 17.484375 21.921875 
Q 17.484375 14.15625 20.5 10.265625 
Q 23.53125 6.390625 29.59375 6.390625 
Q 36.859375 6.390625 41.078125 11.03125 
Q 45.3125 15.671875 45.3125 23.6875 
L 45.3125 54.6875 
L 54.296875 54.6875 
L 54.296875 0 
L 45.3125 0 
L 45.3125 8.40625 
Q 42.046875 3.421875 37.71875 1 
Q 33.40625 -1.421875 27.6875 -1.421875 
Q 18.265625 -1.421875 13.375 4.4375 
Q 8.5 10.296875 8.5 21.578125 
z
M 31.109375 56 
z
" id="DejaVuSans-75"/>
      <path d="M 52 44.1875 
Q 55.375 50.25 60.0625 53.125 
Q 64.75 56 71.09375 56 
Q 79.640625 56 84.28125 50.015625 
Q 88.921875 44.046875 88.921875 33.015625 
L 88.921875 0 
L 79.890625 0 
L 79.890625 32.71875 
Q 79.890625 40.578125 77.09375 44.375 
Q 74.3125 48.1875 68.609375 48.1875 
Q 61.625 48.1875 57.5625 43.546875 
Q 53.515625 38.921875 53.515625 30.90625 
L 53.515625 0 
L 44.484375 0 
L 44.484375 32.71875 
Q 44.484375 40.625 41.703125 44.40625 
Q 38.921875 48.1875 33.109375 48.1875 
Q 26.21875 48.1875 22.15625 43.53125 
Q 18.109375 38.875 18.109375 30.90625 
L 18.109375 0 
L 9.078125 0 
L 9.078125 54.6875 
L 18.109375 54.6875 
L 18.109375 46.1875 
Q 21.1875 51.21875 25.484375 53.609375 
Q 29.78125 56 35.6875 56 
Q 41.65625 56 45.828125 52.96875 
Q 50 49.953125 52 44.1875 
z
" id="DejaVuSans-6d"/>
      <path d="M 41.109375 46.296875 
Q 39.59375 47.171875 37.8125 47.578125 
Q 36.03125 48 33.890625 48 
Q 26.265625 48 22.1875 43.046875 
Q 18.109375 38.09375 18.109375 28.8125 
L 18.109375 0 
L 9.078125 0 
L 9.078125 54.6875 
L 18.109375 54.6875 
L 18.109375 46.1875 
Q 20.953125 51.171875 25.484375 53.578125 
Q 30.03125 56 36.53125 56 
Q 37.453125 56 38.578125 55.875 
Q 39.703125 55.765625 41.0625 55.515625 
z
" id="DejaVuSans-72"/>
      <path d="M 48.78125 52.59375 
L 48.78125 44.1875 
Q 44.96875 46.296875 41.140625 47.34375 
Q 37.3125 48.390625 33.40625 48.390625 
Q 24.65625 48.390625 19.8125 42.84375 
Q 14.984375 37.3125 14.984375 27.296875 
Q 14.984375 17.28125 19.8125 11.734375 
Q 24.65625 6.203125 33.40625 6.203125 
Q 37.3125 6.203125 41.140625 7.25 
Q 44.96875 8.296875 48.78125 10.40625 
L 48.78125 2.09375 
Q 45.015625 0.34375 40.984375 -0.53125 
Q 36.96875 -1.421875 32.421875 -1.421875 
Q 20.0625 -1.421875 12.78125 6.34375 
Q 5.515625 14.109375 5.515625 27.296875 
Q 5.515625 40.671875 12.859375 48.328125 
Q 20.21875 56 33.015625 56 
Q 37.15625 56 41.109375 55.140625 
Q 45.0625 54.296875 48.78125 52.59375 
z
" id="DejaVuSans-63"/>
      <path d="M 9.421875 75.984375 
L 18.40625 75.984375 
L 18.40625 0 
L 9.421875 0 
z
" id="DejaVuSans-6c"/>
     </defs>
     <g transform="translate(265.031997 38.097656)scale(0.15 -0.15)">
      <use xlink:href="#DejaVuSans-4e"/>
      <use x="74.804688" xlink:href="#DejaVuSans-75"/>
      <use x="138.183594" xlink:href="#DejaVuSans-6d"/>
      <use x="235.595703" xlink:href="#DejaVuSans-65"/>
      <use x="297.119141" xlink:href="#DejaVuSans-72"/>
      <use x="338.232422" xlink:href="#DejaVuSans-69"/>
      <use x="366.015625" xlink:href="#DejaVuSans-63"/>
      <use x="420.996094" xlink:href="#DejaVuSans-61"/>
      <use x="482.275391" xlink:href="#DejaVuSans-6c"/>
     </g>
    </g>
    <g id="patch_8">
     <path d="M 223.031997 60.114844 
L 253.031997 60.114844 
L 253.031997 49.614844 
L 223.031997 49.614844 
z
" style="fill:#4db8ff;"/>
    </g>
    <g id="text_20">
     <!-- SSA -->
     <defs>
      <path d="M 34.1875 63.1875 
L 20.796875 26.90625 
L 47.609375 26.90625 
z
M 28.609375 72.90625 
L 39.796875 72.90625 
L 67.578125 0 
L 57.328125 0 
L 50.6875 18.703125 
L 17.828125 18.703125 
L 11.1875 0 
L 0.78125 0 
z
" id="DejaVuSans-41"/>
     </defs>
     <g transform="translate(265.031997 60.114844)scale(0.15 -0.15)">
      <use xlink:href="#DejaVuSans-53"/>
      <use x="63.476562" xlink:href="#DejaVuSans-53"/>
      <use x="126.96875" xlink:href="#DejaVuSans-41"/>
     </g>
    </g>
   </g>
  </g>
  <g id="axes_2">
   <g id="patch_9">
    <path d="M 442.380503 230.64 
L 733.510938 230.64 
L 733.510938 13.2 
L 442.380503 13.2 
z
" style="fill:#ffffff;"/>
   </g>
   <g id="PolyCollection_2">
    <defs>
     <path d="M 442.444148 -54.647006 
L 442.444148 -54.63455 
L 445.814562 -54.617886 
L 448.923834 -54.60702 
L 452.298603 -54.603807 
L 455.649595 -55.245495 
L 458.586002 -63.00611 
L 461.811571 -77.346854 
L 465.238382 -107.557965 
L 468.306085 -152.477697 
L 471.563882 -198.476656 
L 474.853509 -208.203715 
L 478.018712 -176.524585 
L 481.653059 -127.441735 
L 484.565667 -95.19854 
L 487.865714 -71.105722 
L 491.145936 -84.693716 
L 494.181711 -112.789367 
L 497.387874 -156.633387 
L 500.723667 -193.91264 
L 503.997607 -209.49312 
L 507.07663 -173.702153 
L 510.431731 -126.622353 
L 513.56462 -92.230157 
L 516.813458 -80.668316 
L 520.145469 -90.986275 
L 523.288396 -117.213938 
L 526.485282 -163.958133 
L 531.027749 -198.559422 
L 533.082159 -210.527223 
L 536.653292 -184.561789 
L 539.533305 -132.289184 
L 542.899907 -91.480242 
L 545.955302 -79.723302 
L 549.287466 -94.626482 
L 552.431345 -126.291888 
L 555.824278 -159.458124 
L 558.988689 -197.154007 
L 562.251347 -210.994214 
L 565.639972 -186.469297 
L 568.603345 -142.948733 
L 571.862803 -98.872316 
L 575.20308 -80.799095 
L 578.40108 -94.177736 
L 581.512764 -119.450695 
L 584.783613 -155.756188 
L 588.45883 -197.213858 
L 591.356284 -211.21459 
L 594.457608 -190.016556 
L 597.661432 -148.213306 
L 600.936809 -105.607329 
L 604.275398 -90.938877 
L 607.36706 -96.765008 
L 610.699798 -128.128625 
L 614.006943 -166.078617 
L 617.061695 -197.568434 
L 620.328558 -209.865664 
L 623.549241 -188.194795 
L 627.312348 -139.605493 
L 630.450591 -111.34859 
L 633.238218 -83.429661 
L 636.8006 -96.66033 
L 639.832543 -126.391926 
L 643.080368 -168.270974 
L 646.229018 -202.323435 
L 649.552952 -210.116252 
L 652.789984 -182.745119 
L 655.881653 -135.176205 
L 659.369791 -102.462381 
L 662.373872 -90.570854 
L 665.616694 -100.170354 
L 668.817627 -127.288632 
L 672.169606 -164.552435 
L 675.310767 -199.202463 
L 679.073544 -211.186226 
L 681.807029 -186.836615 
L 685.092634 -142.778063 
L 688.559431 -105.667383 
L 691.72779 -90.945055 
L 694.800453 -98.689607 
L 697.933522 -126.762109 
L 701.309917 -165.562391 
L 704.469324 -203.059606 
L 707.696834 -208.750954 
L 711.19518 -181.042725 
L 714.136621 -134.686314 
L 717.348311 -99.862987 
L 720.648308 -89.735574 
L 723.893881 -103.564658 
L 727.150397 -132.705537 
L 730.377367 -169.435937 
L 730.377367 -203.486466 
L 730.377367 -203.486466 
L 727.150397 -154.501806 
L 723.893881 -116.411565 
L 720.648308 -98.61989 
L 717.348311 -111.629527 
L 714.136621 -157.117269 
L 711.19518 -219.165362 
L 707.696834 -256.949516 
L 704.469324 -249.149069 
L 701.309917 -198.274381 
L 697.933522 -146.673149 
L 694.800453 -110.116597 
L 691.72779 -100.167657 
L 688.559431 -119.134067 
L 685.092634 -167.834069 
L 681.807029 -227.025543 
L 679.073544 -260.293318 
L 675.310767 -243.873954 
L 672.169606 -196.917141 
L 668.817627 -147.365505 
L 665.616694 -112.026073 
L 662.373872 -99.688616 
L 659.369791 -114.986137 
L 655.881653 -157.764619 
L 652.789984 -221.472599 
L 649.552952 -258.823722 
L 646.229018 -248.14155 
L 643.080368 -201.917847 
L 639.832543 -146.186513 
L 636.8006 -107.503477 
L 633.238218 -90.578139 
L 630.450591 -126.511108 
L 627.312348 -163.626178 
L 623.549241 -228.871265 
L 620.328558 -258.479643 
L 617.061695 -241.642027 
L 614.006943 -198.968392 
L 610.699798 -148.470539 
L 607.36706 -107.638165 
L 604.275398 -100.159747 
L 600.936809 -119.056253 
L 597.661432 -175.06093 
L 594.457608 -231.348851 
L 591.356284 -260.332285 
L 588.45883 -241.157931 
L 584.783613 -185.126724 
L 581.512764 -137.083255 
L 578.40108 -104.312566 
L 575.20308 -87.23798 
L 571.862803 -110.352085 
L 568.603345 -168.060655 
L 565.639972 -226.526575 
L 562.251347 -260.02954 
L 558.988689 -241.076226 
L 555.824278 -190.082044 
L 552.431345 -146.055024 
L 549.287466 -104.888853 
L 545.955302 -85.874593 
L 542.899907 -100.853063 
L 539.533305 -153.952445 
L 536.653292 -223.936817 
L 533.082159 -259.388103 
L 531.027749 -242.995421 
L 526.485282 -196.118816 
L 523.288396 -134.158704 
L 520.145469 -100.220435 
L 516.813458 -87.072159 
L 513.56462 -101.814009 
L 510.431731 -146.489414 
L 507.07663 -209.238856 
L 503.997607 -257.968179 
L 500.723667 -236.654664 
L 497.387874 -186.300028 
L 494.181711 -128.386775 
L 491.145936 -92.186291 
L 487.865714 -75.012193 
L 484.565667 -105.623816 
L 481.653059 -147.566872 
L 478.018712 -213.0513 
L 474.853509 -256.198616 
L 471.563882 -242.882364 
L 468.306085 -180.74651 
L 465.238382 -121.585573 
L 461.811571 -82.868381 
L 458.586002 -64.914121 
L 455.649595 -55.385693 
L 452.298603 -54.609979 
L 448.923834 -54.613847 
L 445.814562 -54.626932 
L 442.444148 -54.647006 
z
" id="me268a9875a"/>
    </defs>
    <g clip-path="url(#pfc1b24a4e0)">
     <use style="fill:#4db8ff;" x="0" xlink:href="#me268a9875a" y="285.213437"/>
    </g>
   </g>
   <g id="matplotlib.axis_3">
    <g id="xtick_12">
     <g id="line2d_36">
      <path clip-path="url(#pfc1b24a4e0)" d="M 442.380503 230.64 
L 442.380503 13.2 
" style="fill:none;stroke:#b0b0b0;stroke-linecap:square;stroke-width:0.8;"/>
     </g>
     <g id="line2d_37">
      <g>
       <use x="442.380503" xlink:href="#md6aa8b3c34" y="230.64"/>
      </g>
     </g>
     <g id="text_21">
      <!-- 0 -->
      <g transform="translate(437.608628 251.537656)scale(0.15 -0.15)">
       <use xlink:href="#DejaVuSans-30"/>
      </g>
     </g>
    </g>
    <g id="xtick_13">
     <g id="line2d_38">
      <path clip-path="url(#pfc1b24a4e0)" d="M 471.493546 230.64 
L 471.493546 13.2 
" style="fill:none;stroke:#b0b0b0;stroke-linecap:square;stroke-width:0.8;"/>
     </g>
     <g id="line2d_39">
      <g>
       <use x="471.493546" xlink:href="#md6aa8b3c34" y="230.64"/>
      </g>
     </g>
     <g id="text_22">
      <!-- 1 -->
      <g transform="translate(466.721671 251.537656)scale(0.15 -0.15)">
       <use xlink:href="#DejaVuSans-31"/>
      </g>
     </g>
    </g>
    <g id="xtick_14">
     <g id="line2d_40">
      <path clip-path="url(#pfc1b24a4e0)" d="M 500.60659 230.64 
L 500.60659 13.2 
" style="fill:none;stroke:#b0b0b0;stroke-linecap:square;stroke-width:0.8;"/>
     </g>
     <g id="line2d_41">
      <g>
       <use x="500.60659" xlink:href="#md6aa8b3c34" y="230.64"/>
      </g>
     </g>
     <g id="text_23">
      <!-- 2 -->
      <g transform="translate(495.834715 251.537656)scale(0.15 -0.15)">
       <use xlink:href="#DejaVuSans-32"/>
      </g>
     </g>
    </g>
    <g id="xtick_15">
     <g id="line2d_42">
      <path clip-path="url(#pfc1b24a4e0)" d="M 529.719633 230.64 
L 529.719633 13.2 
" style="fill:none;stroke:#b0b0b0;stroke-linecap:square;stroke-width:0.8;"/>
     </g>
     <g id="line2d_43">
      <g>
       <use x="529.719633" xlink:href="#md6aa8b3c34" y="230.64"/>
      </g>
     </g>
     <g id="text_24">
      <!-- 3 -->
      <g transform="translate(524.947758 251.537656)scale(0.15 -0.15)">
       <use xlink:href="#DejaVuSans-33"/>
      </g>
     </g>
    </g>
    <g id="xtick_16">
     <g id="line2d_44">
      <path clip-path="url(#pfc1b24a4e0)" d="M 558.832677 230.64 
L 558.832677 13.2 
" style="fill:none;stroke:#b0b0b0;stroke-linecap:square;stroke-width:0.8;"/>
     </g>
     <g id="line2d_45">
      <g>
       <use x="558.832677" xlink:href="#md6aa8b3c34" y="230.64"/>
      </g>
     </g>
     <g id="text_25">
      <!-- 4 -->
      <g transform="translate(554.060802 251.537656)scale(0.15 -0.15)">
       <use xlink:href="#DejaVuSans-34"/>
      </g>
     </g>
    </g>
    <g id="xtick_17">
     <g id="line2d_46">
      <path clip-path="url(#pfc1b24a4e0)" d="M 587.94572 230.64 
L 587.94572 13.2 
" style="fill:none;stroke:#b0b0b0;stroke-linecap:square;stroke-width:0.8;"/>
     </g>
     <g id="line2d_47">
      <g>
       <use x="587.94572" xlink:href="#md6aa8b3c34" y="230.64"/>
      </g>
     </g>
     <g id="text_26">
      <!-- 5 -->
      <g transform="translate(583.173845 251.537656)scale(0.15 -0.15)">
       <use xlink:href="#DejaVuSans-35"/>
      </g>
     </g>
    </g>
    <g id="xtick_18">
     <g id="line2d_48">
      <path clip-path="url(#pfc1b24a4e0)" d="M 617.058764 230.64 
L 617.058764 13.2 
" style="fill:none;stroke:#b0b0b0;stroke-linecap:square;stroke-width:0.8;"/>
     </g>
     <g id="line2d_49">
      <g>
       <use x="617.058764" xlink:href="#md6aa8b3c34" y="230.64"/>
      </g>
     </g>
     <g id="text_27">
      <!-- 6 -->
      <g transform="translate(612.286889 251.537656)scale(0.15 -0.15)">
       <use xlink:href="#DejaVuSans-36"/>
      </g>
     </g>
    </g>
    <g id="xtick_19">
     <g id="line2d_50">
      <path clip-path="url(#pfc1b24a4e0)" d="M 646.171807 230.64 
L 646.171807 13.2 
" style="fill:none;stroke:#b0b0b0;stroke-linecap:square;stroke-width:0.8;"/>
     </g>
     <g id="line2d_51">
      <g>
       <use x="646.171807" xlink:href="#md6aa8b3c34" y="230.64"/>
      </g>
     </g>
     <g id="text_28">
      <!-- 7 -->
      <g transform="translate(641.399932 251.537656)scale(0.15 -0.15)">
       <use xlink:href="#DejaVuSans-37"/>
      </g>
     </g>
    </g>
    <g id="xtick_20">
     <g id="line2d_52">
      <path clip-path="url(#pfc1b24a4e0)" d="M 675.284851 230.64 
L 675.284851 13.2 
" style="fill:none;stroke:#b0b0b0;stroke-linecap:square;stroke-width:0.8;"/>
     </g>
     <g id="line2d_53">
      <g>
       <use x="675.284851" xlink:href="#md6aa8b3c34" y="230.64"/>
      </g>
     </g>
     <g id="text_29">
      <!-- 8 -->
      <g transform="translate(670.512976 251.537656)scale(0.15 -0.15)">
       <use xlink:href="#DejaVuSans-38"/>
      </g>
     </g>
    </g>
    <g id="xtick_21">
     <g id="line2d_54">
      <path clip-path="url(#pfc1b24a4e0)" d="M 704.397894 230.64 
L 704.397894 13.2 
" style="fill:none;stroke:#b0b0b0;stroke-linecap:square;stroke-width:0.8;"/>
     </g>
     <g id="line2d_55">
      <g>
       <use x="704.397894" xlink:href="#md6aa8b3c34" y="230.64"/>
      </g>
     </g>
     <g id="text_30">
      <!-- 9 -->
      <g transform="translate(699.626019 251.537656)scale(0.15 -0.15)">
       <use xlink:href="#DejaVuSans-39"/>
      </g>
     </g>
    </g>
    <g id="xtick_22">
     <g id="line2d_56">
      <path clip-path="url(#pfc1b24a4e0)" d="M 733.510938 230.64 
L 733.510938 13.2 
" style="fill:none;stroke:#b0b0b0;stroke-linecap:square;stroke-width:0.8;"/>
     </g>
     <g id="line2d_57">
      <g>
       <use x="733.510938" xlink:href="#md6aa8b3c34" y="230.64"/>
      </g>
     </g>
     <g id="text_31">
      <!-- 10 -->
      <g transform="translate(723.967188 251.537656)scale(0.15 -0.15)">
       <use xlink:href="#DejaVuSans-31"/>
       <use x="63.623047" xlink:href="#DejaVuSans-30"/>
      </g>
     </g>
    </g>
    <g id="text_32">
     <!-- $t/\tau$ -->
     <g transform="translate(574.54572 273.854062)scale(0.2 -0.2)">
      <use transform="translate(0 0.09375)" xlink:href="#DejaVuSans-Oblique-74"/>
      <use transform="translate(39.208984 0.09375)" xlink:href="#DejaVuSans-2f"/>
      <use transform="translate(72.900391 0.09375)" xlink:href="#DejaVuSans-Oblique-3c4"/>
     </g>
    </g>
   </g>
   <g id="matplotlib.axis_4">
    <g id="ytick_6">
     <g id="line2d_58">
      <path clip-path="url(#pfc1b24a4e0)" d="M 442.380503 230.64 
L 733.510938 230.64 
" style="fill:none;stroke:#b0b0b0;stroke-linecap:square;stroke-width:0.8;"/>
     </g>
     <g id="line2d_59">
      <g>
       <use x="442.380503" xlink:href="#ma11922998b" y="230.64"/>
      </g>
     </g>
     <g id="text_33">
      <!-- 0.00 -->
      <g transform="translate(399.482065 236.338828)scale(0.15 -0.15)">
       <use xlink:href="#DejaVuSans-30"/>
       <use x="63.623047" xlink:href="#DejaVuSans-2e"/>
       <use x="95.410156" xlink:href="#DejaVuSans-30"/>
       <use x="159.033203" xlink:href="#DejaVuSans-30"/>
      </g>
     </g>
    </g>
    <g id="ytick_7">
     <g id="line2d_60">
      <path clip-path="url(#pfc1b24a4e0)" d="M 442.380503 201.720149 
L 733.510938 201.720149 
" style="fill:none;stroke:#b0b0b0;stroke-linecap:square;stroke-width:0.8;"/>
     </g>
     <g id="line2d_61">
      <g>
       <use x="442.380503" xlink:href="#ma11922998b" y="201.720149"/>
      </g>
     </g>
     <g id="text_34">
      <!-- 0.02 -->
      <g transform="translate(399.482065 207.418977)scale(0.15 -0.15)">
       <use xlink:href="#DejaVuSans-30"/>
       <use x="63.623047" xlink:href="#DejaVuSans-2e"/>
       <use x="95.410156" xlink:href="#DejaVuSans-30"/>
       <use x="159.033203" xlink:href="#DejaVuSans-32"/>
      </g>
     </g>
    </g>
    <g id="ytick_8">
     <g id="line2d_62">
      <path clip-path="url(#pfc1b24a4e0)" d="M 442.380503 172.800297 
L 733.510938 172.800297 
" style="fill:none;stroke:#b0b0b0;stroke-linecap:square;stroke-width:0.8;"/>
     </g>
     <g id="line2d_63">
      <g>
       <use x="442.380503" xlink:href="#ma11922998b" y="172.800297"/>
      </g>
     </g>
     <g id="text_35">
      <!-- 0.04 -->
      <g transform="translate(399.482065 178.499125)scale(0.15 -0.15)">
       <use xlink:href="#DejaVuSans-30"/>
       <use x="63.623047" xlink:href="#DejaVuSans-2e"/>
       <use x="95.410156" xlink:href="#DejaVuSans-30"/>
       <use x="159.033203" xlink:href="#DejaVuSans-34"/>
      </g>
     </g>
    </g>
    <g id="ytick_9">
     <g id="line2d_64">
      <path clip-path="url(#pfc1b24a4e0)" d="M 442.380503 143.880446 
L 733.510938 143.880446 
" style="fill:none;stroke:#b0b0b0;stroke-linecap:square;stroke-width:0.8;"/>
     </g>
     <g id="line2d_65">
      <g>
       <use x="442.380503" xlink:href="#ma11922998b" y="143.880446"/>
      </g>
     </g>
     <g id="text_36">
      <!-- 0.06 -->
      <g transform="translate(399.482065 149.579274)scale(0.15 -0.15)">
       <use xlink:href="#DejaVuSans-30"/>
       <use x="63.623047" xlink:href="#DejaVuSans-2e"/>
       <use x="95.410156" xlink:href="#DejaVuSans-30"/>
       <use x="159.033203" xlink:href="#DejaVuSans-36"/>
      </g>
     </g>
    </g>
    <g id="ytick_10">
     <g id="line2d_66">
      <path clip-path="url(#pfc1b24a4e0)" d="M 442.380503 114.960594 
L 733.510938 114.960594 
" style="fill:none;stroke:#b0b0b0;stroke-linecap:square;stroke-width:0.8;"/>
     </g>
     <g id="line2d_67">
      <g>
       <use x="442.380503" xlink:href="#ma11922998b" y="114.960594"/>
      </g>
     </g>
     <g id="text_37">
      <!-- 0.08 -->
      <g transform="translate(399.482065 120.659422)scale(0.15 -0.15)">
       <use xlink:href="#DejaVuSans-30"/>
       <use x="63.623047" xlink:href="#DejaVuSans-2e"/>
       <use x="95.410156" xlink:href="#DejaVuSans-30"/>
       <use x="159.033203" xlink:href="#DejaVuSans-38"/>
      </g>
     </g>
    </g>
    <g id="ytick_11">
     <g id="line2d_68">
      <path clip-path="url(#pfc1b24a4e0)" d="M 442.380503 86.040743 
L 733.510938 86.040743 
" style="fill:none;stroke:#b0b0b0;stroke-linecap:square;stroke-width:0.8;"/>
     </g>
     <g id="line2d_69">
      <g>
       <use x="442.380503" xlink:href="#ma11922998b" y="86.040743"/>
      </g>
     </g>
     <g id="text_38">
      <!-- 0.10 -->
      <g transform="translate(399.482065 91.739571)scale(0.15 -0.15)">
       <use xlink:href="#DejaVuSans-30"/>
       <use x="63.623047" xlink:href="#DejaVuSans-2e"/>
       <use x="95.410156" xlink:href="#DejaVuSans-31"/>
       <use x="159.033203" xlink:href="#DejaVuSans-30"/>
      </g>
     </g>
    </g>
    <g id="ytick_12">
     <g id="line2d_70">
      <path clip-path="url(#pfc1b24a4e0)" d="M 442.380503 57.120891 
L 733.510938 57.120891 
" style="fill:none;stroke:#b0b0b0;stroke-linecap:square;stroke-width:0.8;"/>
     </g>
     <g id="line2d_71">
      <g>
       <use x="442.380503" xlink:href="#ma11922998b" y="57.120891"/>
      </g>
     </g>
     <g id="text_39">
      <!-- 0.12 -->
      <g transform="translate(399.482065 62.819719)scale(0.15 -0.15)">
       <use xlink:href="#DejaVuSans-30"/>
       <use x="63.623047" xlink:href="#DejaVuSans-2e"/>
       <use x="95.410156" xlink:href="#DejaVuSans-31"/>
       <use x="159.033203" xlink:href="#DejaVuSans-32"/>
      </g>
     </g>
    </g>
    <g id="ytick_13">
     <g id="line2d_72">
      <path clip-path="url(#pfc1b24a4e0)" d="M 442.380503 28.20104 
L 733.510938 28.20104 
" style="fill:none;stroke:#b0b0b0;stroke-linecap:square;stroke-width:0.8;"/>
     </g>
     <g id="line2d_73">
      <g>
       <use x="442.380503" xlink:href="#ma11922998b" y="28.20104"/>
      </g>
     </g>
     <g id="text_40">
      <!-- 0.14 -->
      <g transform="translate(399.482065 33.899868)scale(0.15 -0.15)">
       <use xlink:href="#DejaVuSans-30"/>
       <use x="63.623047" xlink:href="#DejaVuSans-2e"/>
       <use x="95.410156" xlink:href="#DejaVuSans-31"/>
       <use x="159.033203" xlink:href="#DejaVuSans-34"/>
      </g>
     </g>
    </g>
    <g id="text_41">
     <!-- $C_V^2(s)$ -->
     <defs>
      <path d="M 69.484375 67.28125 
L 67.484375 56.890625 
Q 62.796875 61.625 57.546875 63.921875 
Q 52.296875 66.21875 46.1875 66.21875 
Q 37.84375 66.21875 31.515625 62.203125 
Q 25.203125 58.203125 20.609375 50 
Q 17.671875 44.734375 16.125 38.84375 
Q 14.59375 32.953125 14.59375 27 
Q 14.59375 17.046875 19.75 11.8125 
Q 24.90625 6.59375 34.71875 6.59375 
Q 41.5 6.59375 47.75 8.765625 
Q 54 10.9375 59.90625 15.28125 
L 57.625 3.609375 
Q 51.8125 1.125 45.875 -0.140625 
Q 39.9375 -1.421875 33.984375 -1.421875 
Q 19.96875 -1.421875 12.078125 6.1875 
Q 4.203125 13.8125 4.203125 27.390625 
Q 4.203125 36.078125 7.203125 44.46875 
Q 10.203125 52.875 15.828125 59.8125 
Q 21.78125 67.1875 29.421875 70.703125 
Q 37.0625 74.21875 47.21875 74.21875 
Q 53.46875 74.21875 59.0625 72.484375 
Q 64.65625 70.75 69.484375 67.28125 
z
" id="DejaVuSans-Oblique-43"/>
      <path d="M 20.609375 0 
L 7.8125 72.90625 
L 17.484375 72.90625 
L 28.078125 10.203125 
L 63.484375 72.90625 
L 74.21875 72.90625 
L 32.078125 0 
z
" id="DejaVuSans-Oblique-56"/>
      <path d="M 50 53.078125 
L 48.296875 44.578125 
Q 44.734375 46.53125 40.765625 47.5 
Q 36.8125 48.484375 32.625 48.484375 
Q 25.53125 48.484375 21.453125 46.0625 
Q 17.390625 43.65625 17.390625 39.5 
Q 17.390625 34.671875 26.859375 32.078125 
Q 27.59375 31.890625 27.9375 31.78125 
L 30.8125 30.90625 
Q 39.796875 28.421875 42.796875 25.6875 
Q 45.796875 22.953125 45.796875 18.21875 
Q 45.796875 9.515625 38.890625 4.046875 
Q 31.984375 -1.421875 20.796875 -1.421875 
Q 16.453125 -1.421875 11.671875 -0.578125 
Q 6.890625 0.25 1.125 2 
L 2.875 11.28125 
Q 7.8125 8.734375 12.59375 7.421875 
Q 17.390625 6.109375 21.78125 6.109375 
Q 28.375 6.109375 32.5 8.9375 
Q 36.625 11.765625 36.625 16.109375 
Q 36.625 20.796875 25.78125 23.6875 
L 24.859375 23.921875 
L 21.78125 24.703125 
Q 14.9375 26.515625 11.765625 29.46875 
Q 8.59375 32.421875 8.59375 37.015625 
Q 8.59375 45.75 15.15625 50.875 
Q 21.734375 56 33.015625 56 
Q 37.453125 56 41.671875 55.265625 
Q 45.90625 54.546875 50 53.078125 
z
" id="DejaVuSans-Oblique-73"/>
     </defs>
     <g transform="translate(389.882065 147.42)rotate(-90)scale(0.2 -0.2)">
      <use transform="translate(0 0.765625)" xlink:href="#DejaVuSans-Oblique-43"/>
      <use transform="translate(77.02474 39.046875)scale(0.7)" xlink:href="#DejaVuSans-32"/>
      <use transform="translate(69.824219 -26.578125)scale(0.7)" xlink:href="#DejaVuSans-Oblique-56"/>
      <use transform="translate(124.295247 0.765625)" xlink:href="#DejaVuSans-28"/>
      <use transform="translate(163.308919 0.765625)" xlink:href="#DejaVuSans-Oblique-73"/>
      <use transform="translate(215.408529 0.765625)" xlink:href="#DejaVuSans-29"/>
     </g>
    </g>
   </g>
   <g id="line2d_74">
    <path clip-path="url(#pfc1b24a4e0)" d="M 442.380503 230.64 
L 451.696677 230.543295 
L 453.152329 230.30611 
L 454.316851 229.859522 
L 455.190242 229.261675 
L 456.063633 228.325525 
L 456.937024 226.923358 
L 457.810416 224.905476 
L 458.683807 222.105021 
L 459.557198 218.345707 
L 460.43059 213.452362 
L 461.303981 207.26398 
L 462.177372 199.648802 
L 463.341894 187.135873 
L 464.506416 171.919023 
L 465.962068 149.503738 
L 468.291111 109.085279 
L 470.037894 80.19639 
L 471.202416 64.654528 
L 472.075807 56.161724 
L 472.658068 52.355075 
L 473.240329 50.199916 
L 473.531459 49.773217 
L 473.82259 49.791048 
L 474.11372 50.257116 
L 474.404851 51.171544 
L 474.987111 54.327549 
L 475.569372 59.18619 
L 476.442764 69.366787 
L 477.316155 82.420675 
L 478.771807 108.225498 
L 481.391981 155.406861 
L 482.556503 172.495767 
L 483.429894 182.883689 
L 484.303285 191.034293 
L 485.176677 196.943085 
L 485.758938 199.671721 
L 486.341198 201.470061 
L 486.923459 202.375609 
L 487.21459 202.505576 
L 487.50572 202.426614 
L 487.796851 202.143263 
L 488.379111 200.980654 
L 488.961372 199.050266 
L 489.543633 196.38143 
L 490.417024 191.051346 
L 491.290416 184.203293 
L 492.454938 172.862266 
L 493.619459 159.231151 
L 495.075111 139.537868 
L 500.024329 68.833688 
L 500.89772 59.970593 
L 501.771111 53.545625 
L 502.353372 50.844763 
L 502.644503 50.010842 
L 502.935633 49.53555 
L 503.226764 49.426921 
L 503.517894 49.690629 
L 503.809024 50.329845 
L 504.391285 52.734254 
L 504.973546 56.61155 
L 505.555807 61.888659 
L 506.429198 72.163462 
L 507.59372 89.362222 
L 509.922764 129.186058 
L 511.669546 156.881622 
L 512.834068 171.809428 
L 513.707459 180.62834 
L 514.580851 187.269787 
L 515.163111 190.477466 
L 515.745372 192.72367 
L 516.327633 194.032068 
L 516.618764 194.34376 
L 516.909894 194.43252 
L 517.201024 194.302601 
L 517.492155 193.958337 
L 518.074416 192.644279 
L 518.656677 190.525289 
L 519.238938 187.635903 
L 520.112329 181.932027 
L 520.98572 174.688349 
L 522.150242 162.854031 
L 523.605894 145.079468 
L 525.643807 116.432457 
L 528.263981 79.378691 
L 529.428503 65.73588 
L 530.301894 57.718592 
L 530.884155 53.705567 
L 531.466416 50.908987 
L 532.048677 49.433942 
L 532.339807 49.217206 
L 532.630937 49.357038 
L 532.922068 49.857647 
L 533.213198 50.720824 
L 533.795459 53.529366 
L 534.37772 57.745446 
L 535.251111 66.524118 
L 536.124503 77.847324 
L 537.289024 95.841243 
L 541.07372 157.323701 
L 542.238242 171.686137 
L 543.111633 180.078582 
L 543.985024 186.29961 
L 544.567285 189.231633 
L 545.149546 191.205903 
L 545.731807 192.245785 
L 546.022937 192.424387 
L 546.314068 192.380793 
L 546.605198 192.119234 
L 547.187459 190.959639 
L 547.76972 188.980894 
L 548.351981 186.218575 
L 549.225372 180.683977 
L 550.098764 173.589449 
L 551.263285 161.933288 
L 552.718938 144.364411 
L 554.46572 120.199253 
L 557.377024 79.227259 
L 558.541546 65.657466 
L 559.414938 57.660025 
L 559.997198 53.641226 
L 560.579459 50.822982 
L 561.16172 49.310527 
L 561.452851 49.069429 
L 561.743981 49.181354 
L 562.035111 49.650742 
L 562.326242 50.479661 
L 562.908503 53.211907 
L 563.490764 57.343911 
L 564.364155 65.989689 
L 565.237546 77.183375 
L 566.402068 95.031037 
L 570.186764 156.417044 
L 571.351285 170.853535 
L 572.224677 179.316474 
L 573.098068 185.612696 
L 573.680329 188.594506 
L 574.26259 190.61672 
L 574.844851 191.701763 
L 575.135981 191.901702 
L 575.427111 191.878548 
L 575.718242 191.636504 
L 576.009372 191.179897 
L 576.591633 189.640646 
L 577.173894 187.296444 
L 578.047285 182.349453 
L 578.920677 175.79501 
L 580.085198 164.780527 
L 581.24972 151.491715 
L 582.705372 132.372423 
L 587.363459 68.657808 
L 588.236851 59.966301 
L 589.110242 53.52459 
L 589.692503 50.700875 
L 590.274764 49.179838 
L 590.565894 48.933346 
L 590.857024 49.039195 
L 591.148155 49.501881 
L 591.439285 50.323537 
L 592.021546 53.039867 
L 592.603807 57.154691 
L 593.477198 65.77406 
L 594.35059 76.943081 
L 595.515111 94.765086 
L 599.299807 156.156751 
L 600.464329 170.61714 
L 601.33772 179.100403 
L 602.211111 185.417019 
L 602.793372 188.411754 
L 603.375633 190.44599 
L 603.957894 191.541933 
L 604.249024 191.746859 
L 604.540155 191.728368 
L 604.831285 191.49066 
L 605.122416 191.038058 
L 605.704677 189.505845 
L 606.286938 187.16743 
L 607.160329 182.226979 
L 608.03372 175.676861 
L 609.198242 164.665456 
L 610.362764 151.377554 
L 611.818416 132.257561 
L 616.476503 68.534447 
L 617.349894 59.840345 
L 618.223285 53.395686 
L 618.805546 50.569855 
L 619.387807 49.046644 
L 619.678938 48.799066 
L 619.970068 48.903846 
L 620.261198 49.365492 
L 620.552329 50.18615 
L 621.13459 52.900682 
L 621.716851 57.014076 
L 622.590242 65.632283 
L 623.463633 76.801694 
L 624.628155 94.62715 
L 628.412851 156.051029 
L 629.577372 170.523985 
L 630.450764 179.015999 
L 631.324155 185.340263 
L 631.906416 188.339313 
L 632.488677 190.377158 
L 633.070938 191.475967 
L 633.362068 191.68204 
L 633.653198 191.664506 
L 633.944329 191.427565 
L 634.235459 190.975543 
L 634.81772 189.443939 
L 635.399981 187.105425 
L 636.273372 182.16359 
L 637.146764 175.610748 
L 638.311285 164.593934 
L 639.475807 151.29899 
L 640.931459 132.168578 
L 645.589546 68.410756 
L 646.462938 59.711883 
L 647.336329 53.263614 
L 647.91859 50.436139 
L 648.500851 48.911963 
L 648.791981 48.664173 
L 649.083111 48.76893 
L 649.374242 49.230746 
L 649.665372 50.051771 
L 650.247633 52.767629 
L 650.829894 56.883145 
L 651.703285 65.505988 
L 652.576677 76.681643 
L 653.741198 94.517482 
L 657.525894 155.980709 
L 658.690416 170.463865 
L 659.563807 178.962113 
L 660.437198 185.291212 
L 661.019459 188.292667 
L 661.60172 190.332249 
L 662.183981 191.432132 
L 662.475111 191.638496 
L 662.766242 191.621093 
L 663.057372 191.384124 
L 663.348503 190.931919 
L 663.930764 189.399492 
L 664.513024 187.05957 
L 665.386416 182.114589 
L 666.259807 175.557452 
L 667.424329 164.533316 
L 668.588851 151.2295 
L 670.044503 132.086358 
L 674.70259 68.286878 
L 675.575981 59.582467 
L 676.449372 53.13016 
L 677.031633 50.300965 
L 677.613894 48.775926 
L 677.905024 48.528042 
L 678.196155 48.632936 
L 678.487285 49.095122 
L 678.778416 49.916752 
L 679.360677 52.634522 
L 679.942938 56.752865 
L 680.816329 65.381551 
L 681.68972 76.564727 
L 682.854242 94.412538 
L 686.638938 155.91718 
L 687.803459 170.410172 
L 688.676851 178.914206 
L 689.550242 185.247616 
L 690.132503 188.251111 
L 690.714764 190.292072 
L 691.297024 191.392683 
L 691.588155 191.599175 
L 691.879285 191.581743 
L 692.170416 191.344594 
L 692.461546 190.892058 
L 693.043807 189.358535 
L 693.626068 187.016956 
L 694.499459 182.068493 
L 695.372851 175.506758 
L 696.537372 164.474922 
L 697.701894 151.161851 
L 699.157546 132.005456 
L 703.815633 68.162357 
L 704.689024 59.452101 
L 705.562416 52.995515 
L 706.144677 50.164483 
L 706.726938 48.638505 
L 707.018068 48.390505 
L 707.309198 48.495524 
L 707.600329 48.958079 
L 707.891459 49.780323 
L 708.47372 52.500053 
L 709.055981 56.621309 
L 709.929372 65.256024 
L 710.802764 76.446951 
L 711.967285 94.307063 
L 715.751981 155.853797 
L 716.916503 170.35665 
L 717.789894 178.866448 
L 718.663285 185.204128 
L 719.245546 188.209629 
L 719.827807 190.251933 
L 720.410068 191.353239 
L 720.701198 191.55984 
L 720.992329 191.542364 
L 721.283459 191.305018 
L 721.57459 190.852137 
L 722.156851 189.31749 
L 722.739111 186.974228 
L 723.612503 182.022249 
L 724.485894 175.455885 
L 725.650416 164.416302 
L 726.814938 151.093916 
L 728.27059 131.92416 
L 732.928677 68.036829 
L 733.219807 64.911064 
L 733.219807 64.911064 
" style="fill:none;stroke:#008000;stroke-dasharray:7.4,3.2;stroke-dashoffset:0;stroke-width:2;"/>
   </g>
   <g id="patch_10">
    <path d="M 442.380503 230.64 
L 442.380503 13.2 
" style="fill:none;stroke:#000000;stroke-linecap:square;stroke-linejoin:miter;stroke-width:2;"/>
   </g>
   <g id="patch_11">
    <path d="M 733.510938 230.64 
L 733.510938 13.2 
" style="fill:none;"/>
   </g>
   <g id="patch_12">
    <path d="M 442.380503 230.64 
L 733.510938 230.64 
" style="fill:none;stroke:#000000;stroke-linecap:square;stroke-linejoin:miter;stroke-width:2;"/>
   </g>
   <g id="patch_13">
    <path d="M 442.380503 13.2 
L 733.510938 13.2 
" style="fill:none;"/>
   </g>
  </g>
 </g>
 <defs>
  <clipPath id="p250663676b">
   <rect height="217.44" width="291.130435" x="63.910937" y="13.2"/>
  </clipPath>
  <clipPath id="pfc1b24a4e0">
   <rect height="217.44" width="291.130435" x="442.380503" y="13.2"/>
  </clipPath>
 </defs>
</svg>
