<?xml version="1.0" encoding="utf-8" standalone="no"?>
<!DOCTYPE svg PUBLIC "-//W3C//DTD SVG 1.1//EN"
  "http://www.w3.org/Graphics/SVG/1.1/DTD/svg11.dtd">
<!-- Created with matplotlib (http://matplotlib.org/) -->
<svg height="285.213437pt" version="1.1" viewBox="0 0 746.754688 285.213437" width="746.754688pt" xmlns="http://www.w3.org/2000/svg" xmlns:xlink="http://www.w3.org/1999/xlink">
 <defs>
  <style type="text/css">
*{stroke-linecap:butt;stroke-linejoin:round;}
  </style>
 </defs>
 <g id="figure_1">
  <g id="patch_1">
   <path d="M 0 285.213437 
L 746.754688 285.213437 
L 746.754688 0 
L 0 0 
z
" style="fill:#ffffff;"/>
  </g>
  <g id="axes_1">
   <g id="patch_2">
    <path d="M 63.954687 230.64 
L 355.085122 230.64 
L 355.085122 13.2 
L 63.954687 13.2 
z
" style="fill:#ffffff;"/>
   </g>
   <g id="PolyCollection_1">
    <path clip-path="url(#p92e75c9af0)" d="M 72.2727 174.069279 
L 72.2727 174.069279 
L 72.2727 174.069279 
L 72.2727 174.069279 
z
" style="fill:#4db8ff;"/>
    <path clip-path="url(#p92e75c9af0)" d="M 80.590712 120.404688 
L 80.590712 120.685951 
L 84.749719 91.572324 
L 88.908725 62.434399 
L 93.067731 37.258807 
L 97.226737 28.363951 
L 101.385743 39.40436 
L 105.54475 73.619435 
L 109.703756 112.082182 
L 113.862762 138.352469 
L 118.021768 137.327331 
L 122.180774 119.048313 
L 126.339781 91.691011 
L 130.498787 64.229242 
L 134.657793 40.119336 
L 138.816799 28.307681 
L 142.975806 42.013844 
L 147.134812 71.737533 
L 151.293818 111.551436 
L 155.452824 133.331961 
L 159.61183 135.817269 
L 163.770837 117.917933 
L 167.929843 91.314795 
L 172.088849 63.705391 
L 176.247855 40.226914 
L 180.406861 28.9828 
L 184.565868 39.523009 
L 188.724874 73.808921 
L 192.88388 112.480197 
L 197.042886 137.029189 
L 201.201892 134.774549 
L 205.360899 117.64216 
L 209.519905 91.867991 
L 213.678911 63.60027 
L 217.837917 39.473353 
L 221.996924 28.814045 
L 226.15593 40.768612 
L 230.314936 75.942289 
L 234.473942 111.551436 
L 238.632948 134.518783 
L 242.791955 135.312304 
L 246.950961 117.740868 
L 251.109967 91.455749 
L 255.268973 63.34606 
L 259.427979 40.495754 
L 263.586986 29.770108 
L 267.745992 38.573726 
L 271.904998 68.976398 
L 276.064004 112.61286 
L 280.22301 135.495525 
L 284.382017 135.248413 
L 288.541023 118.677936 
L 292.700029 91.982159 
L 296.859035 63.757906 
L 301.018042 39.850286 
L 305.177048 29.657657 
L 309.336054 39.700975 
L 313.49506 70.483484 
L 317.654066 110.556104 
L 321.813073 136.262547 
L 325.972079 137.049171 
L 330.131085 118.865315 
L 334.290091 91.890991 
L 338.449097 63.495023 
L 342.608104 39.634933 
L 346.76711 30.10742 
L 350.926116 39.285709 
L 355.085122 71.739226 
L 359.244128 113.077146 
L 363.403135 136.889828 
L 367.562141 137.040296 
L 371.721147 118.211822 
L 375.880153 91.847403 
L 380.03916 63.94471 
L 384.198166 40.818169 
L 388.357172 30.725662 
L 392.516178 40.1162 
L 396.675184 70.483991 
L 400.834191 112.281194 
L 404.993197 136.680763 
L 409.152203 136.577611 
L 413.311209 118.159304 
L 417.470215 92.120206 
L 421.629222 63.683105 
L 425.788228 41.104744 
L 429.947234 30.894237 
L 434.10624 40.29414 
L 438.265247 71.614122 
L 442.424253 109.095853 
L 446.583259 133.471631 
L 450.742265 135.312304 
L 454.901271 118.199308 
L 459.060278 91.512074 
L 463.219284 63.60027 
L 467.37829 39.473353 
L 471.537296 29.770108 
L 475.696302 42.784518 
L 479.855309 73.245985 
L 479.855309 64.546121 
L 479.855309 64.546121 
L 475.696302 35.285545 
L 471.537296 24.464482 
L 467.37829 36.333706 
L 463.219284 61.91454 
L 459.060278 90.383943 
L 454.901271 116.178465 
L 450.742265 131.183474 
L 446.583259 126.935875 
L 442.424253 100.744013 
L 438.265247 62.911756 
L 434.10624 32.853379 
L 429.947234 25.527486 
L 425.788228 37.763317 
L 421.629222 61.926909 
L 417.470215 90.841684 
L 413.311209 115.969859 
L 409.152203 132.624531 
L 404.993197 130.36429 
L 400.834191 104.020935 
L 396.675184 61.780452 
L 392.516178 32.67971 
L 388.357172 25.367991 
L 384.198166 37.539722 
L 380.03916 62.141303 
L 375.880153 90.848019 
L 371.721147 116.083087 
L 367.562141 133.167067 
L 363.403135 130.588108 
L 359.244128 104.840549 
L 355.085122 63.037017 
L 350.926116 31.869353 
L 346.76711 24.78331 
L 342.608104 36.478225 
L 338.449097 61.829388 
L 334.290091 90.804431 
L 330.131085 117.004213 
L 325.972079 133.158192 
L 321.813073 129.916739 
L 317.654066 102.245633 
L 313.49506 61.779946 
L 309.336054 32.27451 
L 305.177048 24.35822 
L 301.018042 36.671006 
L 296.859035 62.042504 
L 292.700029 90.802085 
L 288.541023 116.694347 
L 284.382017 131.092716 
L 280.22301 129.096521 
L 276.064004 104.362422 
L 271.904998 60.271993 
L 267.745992 31.174894 
L 263.586986 24.464482 
L 259.427979 37.249937 
L 255.268973 61.59756 
L 251.109967 90.084978 
L 246.950961 115.476666 
L 242.791955 131.183474 
L 238.632948 128.05314 
L 234.473942 103.269758 
L 230.314936 67.248629 
L 226.15593 33.316535 
L 221.996924 23.561483 
L 217.837917 36.333706 
L 213.678911 61.91454 
L 209.519905 90.649786 
L 205.360899 115.326752 
L 201.201892 130.561359 
L 197.042886 130.737336 
L 192.88388 104.225824 
L 188.724874 65.11014 
L 184.565868 32.100866 
L 180.406861 23.720798 
L 176.247855 37.008611 
L 172.088849 61.999818 
L 167.929843 90.314755 
L 163.770837 115.796842 
L 159.61183 131.761055 
L 155.452824 126.786956 
L 151.293818 103.269758 
L 147.134812 63.03533 
L 142.975806 34.532575 
L 138.816799 23.083636 
L 134.657793 36.912122 
L 130.498787 62.427966 
L 126.339781 90.737943 
L 122.180774 117.318459 
L 118.021768 133.49863 
L 113.862762 132.155651 
L 109.703756 103.816055 
L 105.54475 64.920281 
L 101.385743 31.985108 
L 97.226737 23.136723 
L 93.067731 34.364888 
L 88.908725 60.986016 
L 84.749719 90.945453 
L 80.590712 120.404688 
z
" style="fill:#4db8ff;"/>
   </g>
   <g id="matplotlib.axis_1">
    <g id="xtick_1">
     <g id="line2d_1">
      <path clip-path="url(#p92e75c9af0)" d="M 63.954687 230.64 
L 63.954687 13.2 
" style="fill:none;stroke:#b0b0b0;stroke-linecap:square;stroke-width:0.8;"/>
     </g>
     <g id="line2d_2">
      <defs>
       <path d="M 0 0 
L 0 6 
" id="m8074d27565"/>
      </defs>
      <g>
       <use x="63.954687" xlink:href="#m8074d27565" y="230.64"/>
      </g>
     </g>
     <g id="text_1">
      <!-- 0 -->
      <defs>
       <path d="M 31.78125 66.40625 
Q 24.171875 66.40625 20.328125 58.90625 
Q 16.5 51.421875 16.5 36.375 
Q 16.5 21.390625 20.328125 13.890625 
Q 24.171875 6.390625 31.78125 6.390625 
Q 39.453125 6.390625 43.28125 13.890625 
Q 47.125 21.390625 47.125 36.375 
Q 47.125 51.421875 43.28125 58.90625 
Q 39.453125 66.40625 31.78125 66.40625 
z
M 31.78125 74.21875 
Q 44.046875 74.21875 50.515625 64.515625 
Q 56.984375 54.828125 56.984375 36.375 
Q 56.984375 17.96875 50.515625 8.265625 
Q 44.046875 -1.421875 31.78125 -1.421875 
Q 19.53125 -1.421875 13.0625 8.265625 
Q 6.59375 17.96875 6.59375 36.375 
Q 6.59375 54.828125 13.0625 64.515625 
Q 19.53125 74.21875 31.78125 74.21875 
z
" id="DejaVuSans-30"/>
      </defs>
      <g transform="translate(59.182812 251.537656)scale(0.15 -0.15)">
       <use xlink:href="#DejaVuSans-30"/>
      </g>
     </g>
    </g>
    <g id="xtick_2">
     <g id="line2d_3">
      <path clip-path="url(#p92e75c9af0)" d="M 105.54475 230.64 
L 105.54475 13.2 
" style="fill:none;stroke:#b0b0b0;stroke-linecap:square;stroke-width:0.8;"/>
     </g>
     <g id="line2d_4">
      <g>
       <use x="105.54475" xlink:href="#m8074d27565" y="230.64"/>
      </g>
     </g>
     <g id="text_2">
      <!-- 1 -->
      <defs>
       <path d="M 12.40625 8.296875 
L 28.515625 8.296875 
L 28.515625 63.921875 
L 10.984375 60.40625 
L 10.984375 69.390625 
L 28.421875 72.90625 
L 38.28125 72.90625 
L 38.28125 8.296875 
L 54.390625 8.296875 
L 54.390625 0 
L 12.40625 0 
z
" id="DejaVuSans-31"/>
      </defs>
      <g transform="translate(100.772875 251.537656)scale(0.15 -0.15)">
       <use xlink:href="#DejaVuSans-31"/>
      </g>
     </g>
    </g>
    <g id="xtick_3">
     <g id="line2d_5">
      <path clip-path="url(#p92e75c9af0)" d="M 147.134812 230.64 
L 147.134812 13.2 
" style="fill:none;stroke:#b0b0b0;stroke-linecap:square;stroke-width:0.8;"/>
     </g>
     <g id="line2d_6">
      <g>
       <use x="147.134812" xlink:href="#m8074d27565" y="230.64"/>
      </g>
     </g>
     <g id="text_3">
      <!-- 2 -->
      <defs>
       <path d="M 19.1875 8.296875 
L 53.609375 8.296875 
L 53.609375 0 
L 7.328125 0 
L 7.328125 8.296875 
Q 12.9375 14.109375 22.625 23.890625 
Q 32.328125 33.6875 34.8125 36.53125 
Q 39.546875 41.84375 41.421875 45.53125 
Q 43.3125 49.21875 43.3125 52.78125 
Q 43.3125 58.59375 39.234375 62.25 
Q 35.15625 65.921875 28.609375 65.921875 
Q 23.96875 65.921875 18.8125 64.3125 
Q 13.671875 62.703125 7.8125 59.421875 
L 7.8125 69.390625 
Q 13.765625 71.78125 18.9375 73 
Q 24.125 74.21875 28.421875 74.21875 
Q 39.75 74.21875 46.484375 68.546875 
Q 53.21875 62.890625 53.21875 53.421875 
Q 53.21875 48.921875 51.53125 44.890625 
Q 49.859375 40.875 45.40625 35.40625 
Q 44.1875 33.984375 37.640625 27.21875 
Q 31.109375 20.453125 19.1875 8.296875 
z
" id="DejaVuSans-32"/>
      </defs>
      <g transform="translate(142.362937 251.537656)scale(0.15 -0.15)">
       <use xlink:href="#DejaVuSans-32"/>
      </g>
     </g>
    </g>
    <g id="xtick_4">
     <g id="line2d_7">
      <path clip-path="url(#p92e75c9af0)" d="M 188.724874 230.64 
L 188.724874 13.2 
" style="fill:none;stroke:#b0b0b0;stroke-linecap:square;stroke-width:0.8;"/>
     </g>
     <g id="line2d_8">
      <g>
       <use x="188.724874" xlink:href="#m8074d27565" y="230.64"/>
      </g>
     </g>
     <g id="text_4">
      <!-- 3 -->
      <defs>
       <path d="M 40.578125 39.3125 
Q 47.65625 37.796875 51.625 33 
Q 55.609375 28.21875 55.609375 21.1875 
Q 55.609375 10.40625 48.1875 4.484375 
Q 40.765625 -1.421875 27.09375 -1.421875 
Q 22.515625 -1.421875 17.65625 -0.515625 
Q 12.796875 0.390625 7.625 2.203125 
L 7.625 11.71875 
Q 11.71875 9.328125 16.59375 8.109375 
Q 21.484375 6.890625 26.8125 6.890625 
Q 36.078125 6.890625 40.9375 10.546875 
Q 45.796875 14.203125 45.796875 21.1875 
Q 45.796875 27.640625 41.28125 31.265625 
Q 36.765625 34.90625 28.71875 34.90625 
L 20.21875 34.90625 
L 20.21875 43.015625 
L 29.109375 43.015625 
Q 36.375 43.015625 40.234375 45.921875 
Q 44.09375 48.828125 44.09375 54.296875 
Q 44.09375 59.90625 40.109375 62.90625 
Q 36.140625 65.921875 28.71875 65.921875 
Q 24.65625 65.921875 20.015625 65.03125 
Q 15.375 64.15625 9.8125 62.3125 
L 9.8125 71.09375 
Q 15.4375 72.65625 20.34375 73.4375 
Q 25.25 74.21875 29.59375 74.21875 
Q 40.828125 74.21875 47.359375 69.109375 
Q 53.90625 64.015625 53.90625 55.328125 
Q 53.90625 49.265625 50.4375 45.09375 
Q 46.96875 40.921875 40.578125 39.3125 
z
" id="DejaVuSans-33"/>
      </defs>
      <g transform="translate(183.952999 251.537656)scale(0.15 -0.15)">
       <use xlink:href="#DejaVuSans-33"/>
      </g>
     </g>
    </g>
    <g id="xtick_5">
     <g id="line2d_9">
      <path clip-path="url(#p92e75c9af0)" d="M 230.314936 230.64 
L 230.314936 13.2 
" style="fill:none;stroke:#b0b0b0;stroke-linecap:square;stroke-width:0.8;"/>
     </g>
     <g id="line2d_10">
      <g>
       <use x="230.314936" xlink:href="#m8074d27565" y="230.64"/>
      </g>
     </g>
     <g id="text_5">
      <!-- 4 -->
      <defs>
       <path d="M 37.796875 64.3125 
L 12.890625 25.390625 
L 37.796875 25.390625 
z
M 35.203125 72.90625 
L 47.609375 72.90625 
L 47.609375 25.390625 
L 58.015625 25.390625 
L 58.015625 17.1875 
L 47.609375 17.1875 
L 47.609375 0 
L 37.796875 0 
L 37.796875 17.1875 
L 4.890625 17.1875 
L 4.890625 26.703125 
z
" id="DejaVuSans-34"/>
      </defs>
      <g transform="translate(225.543061 251.537656)scale(0.15 -0.15)">
       <use xlink:href="#DejaVuSans-34"/>
      </g>
     </g>
    </g>
    <g id="xtick_6">
     <g id="line2d_11">
      <path clip-path="url(#p92e75c9af0)" d="M 271.904998 230.64 
L 271.904998 13.2 
" style="fill:none;stroke:#b0b0b0;stroke-linecap:square;stroke-width:0.8;"/>
     </g>
     <g id="line2d_12">
      <g>
       <use x="271.904998" xlink:href="#m8074d27565" y="230.64"/>
      </g>
     </g>
     <g id="text_6">
      <!-- 5 -->
      <defs>
       <path d="M 10.796875 72.90625 
L 49.515625 72.90625 
L 49.515625 64.59375 
L 19.828125 64.59375 
L 19.828125 46.734375 
Q 21.96875 47.46875 24.109375 47.828125 
Q 26.265625 48.1875 28.421875 48.1875 
Q 40.625 48.1875 47.75 41.5 
Q 54.890625 34.8125 54.890625 23.390625 
Q 54.890625 11.625 47.5625 5.09375 
Q 40.234375 -1.421875 26.90625 -1.421875 
Q 22.3125 -1.421875 17.546875 -0.640625 
Q 12.796875 0.140625 7.71875 1.703125 
L 7.71875 11.625 
Q 12.109375 9.234375 16.796875 8.0625 
Q 21.484375 6.890625 26.703125 6.890625 
Q 35.15625 6.890625 40.078125 11.328125 
Q 45.015625 15.765625 45.015625 23.390625 
Q 45.015625 31 40.078125 35.4375 
Q 35.15625 39.890625 26.703125 39.890625 
Q 22.75 39.890625 18.8125 39.015625 
Q 14.890625 38.140625 10.796875 36.28125 
z
" id="DejaVuSans-35"/>
      </defs>
      <g transform="translate(267.133123 251.537656)scale(0.15 -0.15)">
       <use xlink:href="#DejaVuSans-35"/>
      </g>
     </g>
    </g>
    <g id="xtick_7">
     <g id="line2d_13">
      <path clip-path="url(#p92e75c9af0)" d="M 313.49506 230.64 
L 313.49506 13.2 
" style="fill:none;stroke:#b0b0b0;stroke-linecap:square;stroke-width:0.8;"/>
     </g>
     <g id="line2d_14">
      <g>
       <use x="313.49506" xlink:href="#m8074d27565" y="230.64"/>
      </g>
     </g>
     <g id="text_7">
      <!-- 6 -->
      <defs>
       <path d="M 33.015625 40.375 
Q 26.375 40.375 22.484375 35.828125 
Q 18.609375 31.296875 18.609375 23.390625 
Q 18.609375 15.53125 22.484375 10.953125 
Q 26.375 6.390625 33.015625 6.390625 
Q 39.65625 6.390625 43.53125 10.953125 
Q 47.40625 15.53125 47.40625 23.390625 
Q 47.40625 31.296875 43.53125 35.828125 
Q 39.65625 40.375 33.015625 40.375 
z
M 52.59375 71.296875 
L 52.59375 62.3125 
Q 48.875 64.0625 45.09375 64.984375 
Q 41.3125 65.921875 37.59375 65.921875 
Q 27.828125 65.921875 22.671875 59.328125 
Q 17.53125 52.734375 16.796875 39.40625 
Q 19.671875 43.65625 24.015625 45.921875 
Q 28.375 48.1875 33.59375 48.1875 
Q 44.578125 48.1875 50.953125 41.515625 
Q 57.328125 34.859375 57.328125 23.390625 
Q 57.328125 12.15625 50.6875 5.359375 
Q 44.046875 -1.421875 33.015625 -1.421875 
Q 20.359375 -1.421875 13.671875 8.265625 
Q 6.984375 17.96875 6.984375 36.375 
Q 6.984375 53.65625 15.1875 63.9375 
Q 23.390625 74.21875 37.203125 74.21875 
Q 40.921875 74.21875 44.703125 73.484375 
Q 48.484375 72.75 52.59375 71.296875 
z
" id="DejaVuSans-36"/>
      </defs>
      <g transform="translate(308.723185 251.537656)scale(0.15 -0.15)">
       <use xlink:href="#DejaVuSans-36"/>
      </g>
     </g>
    </g>
    <g id="xtick_8">
     <g id="line2d_15">
      <path clip-path="url(#p92e75c9af0)" d="M 355.085122 230.64 
L 355.085122 13.2 
" style="fill:none;stroke:#b0b0b0;stroke-linecap:square;stroke-width:0.8;"/>
     </g>
     <g id="line2d_16">
      <g>
       <use x="355.085122" xlink:href="#m8074d27565" y="230.64"/>
      </g>
     </g>
     <g id="text_8">
      <!-- 7 -->
      <defs>
       <path d="M 8.203125 72.90625 
L 55.078125 72.90625 
L 55.078125 68.703125 
L 28.609375 0 
L 18.3125 0 
L 43.21875 64.59375 
L 8.203125 64.59375 
z
" id="DejaVuSans-37"/>
      </defs>
      <g transform="translate(350.313247 251.537656)scale(0.15 -0.15)">
       <use xlink:href="#DejaVuSans-37"/>
      </g>
     </g>
    </g>
    <g id="text_9">
     <!-- $t/\tau$ -->
     <defs>
      <path d="M 42.28125 54.6875 
L 40.921875 47.703125 
L 23 47.703125 
L 17.1875 18.015625 
Q 16.890625 16.359375 16.75 15.234375 
Q 16.609375 14.109375 16.609375 13.484375 
Q 16.609375 10.359375 18.484375 8.9375 
Q 20.359375 7.515625 24.515625 7.515625 
L 33.59375 7.515625 
L 32.078125 0 
L 23.484375 0 
Q 15.484375 0 11.546875 3.125 
Q 7.625 6.25 7.625 12.59375 
Q 7.625 13.71875 7.765625 15.0625 
Q 7.90625 16.40625 8.203125 18.015625 
L 14.015625 47.703125 
L 6.390625 47.703125 
L 7.8125 54.6875 
L 15.28125 54.6875 
L 18.3125 70.21875 
L 27.296875 70.21875 
L 24.3125 54.6875 
z
" id="DejaVuSans-Oblique-74"/>
      <path d="M 25.390625 72.90625 
L 33.6875 72.90625 
L 8.296875 -9.28125 
L 0 -9.28125 
z
" id="DejaVuSans-2f"/>
      <path d="M 32.859375 9.96875 
Q 34.1875 7.625 39.453125 7.625 
L 43.75 7.625 
L 42.28125 0 
L 36.921875 0 
Q 28.125 0 25 4.6875 
Q 21.921875 9.46875 23.96875 19.828125 
L 29 45.703125 
L 8.453125 45.703125 
L 10.203125 54.6875 
L 60.640625 54.6875 
L 58.890625 45.703125 
L 38.1875 45.703125 
L 33.015625 19.28125 
Q 31.640625 12.203125 32.859375 9.96875 
z
" id="DejaVuSans-Oblique-3c4"/>
     </defs>
     <g transform="translate(196.119905 273.854062)scale(0.2 -0.2)">
      <use transform="translate(0 0.09375)" xlink:href="#DejaVuSans-Oblique-74"/>
      <use transform="translate(39.208984 0.09375)" xlink:href="#DejaVuSans-2f"/>
      <use transform="translate(72.900391 0.09375)" xlink:href="#DejaVuSans-Oblique-3c4"/>
     </g>
    </g>
   </g>
   <g id="matplotlib.axis_2">
    <g id="ytick_1">
     <g id="line2d_17">
      <path clip-path="url(#p92e75c9af0)" d="M 63.954687 220.756364 
L 355.085122 220.756364 
" style="fill:none;stroke:#b0b0b0;stroke-linecap:square;stroke-width:0.8;"/>
     </g>
     <g id="line2d_18">
      <defs>
       <path d="M 0 0 
L -6 0 
" id="mb54cd28a91"/>
      </defs>
      <g>
       <use x="63.954687" xlink:href="#mb54cd28a91" y="220.756364"/>
      </g>
     </g>
     <g id="text_10">
      <!-- 3.0 -->
      <defs>
       <path d="M 10.6875 12.40625 
L 21 12.40625 
L 21 0 
L 10.6875 0 
z
" id="DejaVuSans-2e"/>
      </defs>
      <g transform="translate(30.6 226.455192)scale(0.15 -0.15)">
       <use xlink:href="#DejaVuSans-33"/>
       <use x="63.623047" xlink:href="#DejaVuSans-2e"/>
       <use x="95.410156" xlink:href="#DejaVuSans-30"/>
      </g>
     </g>
    </g>
    <g id="ytick_2">
     <g id="line2d_19">
      <path clip-path="url(#p92e75c9af0)" d="M 63.954687 168.416583 
L 355.085122 168.416583 
" style="fill:none;stroke:#b0b0b0;stroke-linecap:square;stroke-width:0.8;"/>
     </g>
     <g id="line2d_20">
      <g>
       <use x="63.954687" xlink:href="#mb54cd28a91" y="168.416583"/>
      </g>
     </g>
     <g id="text_11">
      <!-- 3.5 -->
      <g transform="translate(30.6 174.115411)scale(0.15 -0.15)">
       <use xlink:href="#DejaVuSans-33"/>
       <use x="63.623047" xlink:href="#DejaVuSans-2e"/>
       <use x="95.410156" xlink:href="#DejaVuSans-35"/>
      </g>
     </g>
    </g>
    <g id="ytick_3">
     <g id="line2d_21">
      <path clip-path="url(#p92e75c9af0)" d="M 63.954687 116.076802 
L 355.085122 116.076802 
" style="fill:none;stroke:#b0b0b0;stroke-linecap:square;stroke-width:0.8;"/>
     </g>
     <g id="line2d_22">
      <g>
       <use x="63.954687" xlink:href="#mb54cd28a91" y="116.076802"/>
      </g>
     </g>
     <g id="text_12">
      <!-- 4.0 -->
      <g transform="translate(30.6 121.77563)scale(0.15 -0.15)">
       <use xlink:href="#DejaVuSans-34"/>
       <use x="63.623047" xlink:href="#DejaVuSans-2e"/>
       <use x="95.410156" xlink:href="#DejaVuSans-30"/>
      </g>
     </g>
    </g>
    <g id="ytick_4">
     <g id="line2d_23">
      <path clip-path="url(#p92e75c9af0)" d="M 63.954687 63.737022 
L 355.085122 63.737022 
" style="fill:none;stroke:#b0b0b0;stroke-linecap:square;stroke-width:0.8;"/>
     </g>
     <g id="line2d_24">
      <g>
       <use x="63.954687" xlink:href="#mb54cd28a91" y="63.737022"/>
      </g>
     </g>
     <g id="text_13">
      <!-- 4.5 -->
      <g transform="translate(30.6 69.43585)scale(0.15 -0.15)">
       <use xlink:href="#DejaVuSans-34"/>
       <use x="63.623047" xlink:href="#DejaVuSans-2e"/>
       <use x="95.410156" xlink:href="#DejaVuSans-35"/>
      </g>
     </g>
    </g>
    <g id="text_14">
     <!-- $s$ $(\mu m)$ -->
     <defs>
      <path d="M 50 53.078125 
L 48.296875 44.578125 
Q 44.734375 46.53125 40.765625 47.5 
Q 36.8125 48.484375 32.625 48.484375 
Q 25.53125 48.484375 21.453125 46.0625 
Q 17.390625 43.65625 17.390625 39.5 
Q 17.390625 34.671875 26.859375 32.078125 
Q 27.59375 31.890625 27.9375 31.78125 
L 30.8125 30.90625 
Q 39.796875 28.421875 42.796875 25.6875 
Q 45.796875 22.953125 45.796875 18.21875 
Q 45.796875 9.515625 38.890625 4.046875 
Q 31.984375 -1.421875 20.796875 -1.421875 
Q 16.453125 -1.421875 11.671875 -0.578125 
Q 6.890625 0.25 1.125 2 
L 2.875 11.28125 
Q 7.8125 8.734375 12.59375 7.421875 
Q 17.390625 6.109375 21.78125 6.109375 
Q 28.375 6.109375 32.5 8.9375 
Q 36.625 11.765625 36.625 16.109375 
Q 36.625 20.796875 25.78125 23.6875 
L 24.859375 23.921875 
L 21.78125 24.703125 
Q 14.9375 26.515625 11.765625 29.46875 
Q 8.59375 32.421875 8.59375 37.015625 
Q 8.59375 45.75 15.15625 50.875 
Q 21.734375 56 33.015625 56 
Q 37.453125 56 41.671875 55.265625 
Q 45.90625 54.546875 50 53.078125 
z
" id="DejaVuSans-Oblique-73"/>
      <path id="DejaVuSans-20"/>
      <path d="M 31 75.875 
Q 24.46875 64.65625 21.28125 53.65625 
Q 18.109375 42.671875 18.109375 31.390625 
Q 18.109375 20.125 21.3125 9.0625 
Q 24.515625 -2 31 -13.1875 
L 23.1875 -13.1875 
Q 15.875 -1.703125 12.234375 9.375 
Q 8.59375 20.453125 8.59375 31.390625 
Q 8.59375 42.28125 12.203125 53.3125 
Q 15.828125 64.359375 23.1875 75.875 
z
" id="DejaVuSans-28"/>
      <path d="M -1.3125 -20.796875 
L 13.375 54.6875 
L 22.40625 54.6875 
L 15.765625 20.65625 
Q 15.578125 19.625 15.421875 18.359375 
Q 15.28125 17.09375 15.28125 15.828125 
Q 15.28125 11.28125 18.140625 8.828125 
Q 21 6.390625 26.3125 6.390625 
Q 33.546875 6.390625 37.984375 10.484375 
Q 42.4375 14.59375 44 22.796875 
L 50.203125 54.6875 
L 59.1875 54.6875 
L 51.03125 12.640625 
Q 50.828125 11.71875 50.75 11.03125 
Q 50.6875 10.359375 50.6875 9.8125 
Q 50.6875 8.296875 51.296875 7.59375 
Q 51.90625 6.890625 53.21875 6.890625 
Q 53.71875 6.890625 54.5625 7.125 
Q 55.421875 7.375 56.984375 8.015625 
L 55.609375 0.78125 
Q 53.46875 -0.296875 51.515625 -0.859375 
Q 49.5625 -1.421875 47.703125 -1.421875 
Q 44.484375 -1.421875 42.65625 0.625 
Q 40.828125 2.6875 40.828125 6.296875 
Q 38.09375 2.390625 34.296875 0.484375 
Q 30.515625 -1.421875 25.390625 -1.421875 
Q 20.84375 -1.421875 17.453125 0.671875 
Q 14.0625 2.78125 12.984375 6.203125 
L 7.71875 -20.796875 
z
" id="DejaVuSans-Oblique-3bc"/>
      <path d="M 89.796875 33.015625 
L 83.40625 0 
L 74.421875 0 
L 80.71875 32.71875 
Q 81.109375 34.8125 81.296875 36.328125 
Q 81.5 37.84375 81.5 38.921875 
Q 81.5 43.3125 79.046875 45.75 
Q 76.609375 48.1875 72.21875 48.1875 
Q 65.671875 48.1875 60.546875 43.28125 
Q 55.421875 38.375 53.90625 30.515625 
L 47.90625 0 
L 38.921875 0 
L 45.3125 32.71875 
Q 45.703125 34.515625 45.890625 36.046875 
Q 46.09375 37.59375 46.09375 38.8125 
Q 46.09375 43.265625 43.65625 45.71875 
Q 41.21875 48.1875 36.921875 48.1875 
Q 30.28125 48.1875 25.140625 43.28125 
Q 20.015625 38.375 18.5 30.515625 
L 12.5 0 
L 3.515625 0 
L 14.203125 54.6875 
L 23.1875 54.6875 
L 21.484375 46.1875 
Q 25.140625 50.984375 30.046875 53.484375 
Q 34.96875 56 40.578125 56 
Q 46.53125 56 50.359375 52.875 
Q 54.203125 49.75 54.984375 44.1875 
Q 59.078125 49.953125 64.46875 52.96875 
Q 69.875 56 75.875 56 
Q 82.90625 56 86.734375 51.953125 
Q 90.578125 47.90625 90.578125 40.484375 
Q 90.578125 38.875 90.375 36.9375 
Q 90.1875 35.015625 89.796875 33.015625 
z
" id="DejaVuSans-Oblique-6d"/>
      <path d="M 8.015625 75.875 
L 15.828125 75.875 
Q 23.140625 64.359375 26.78125 53.3125 
Q 30.421875 42.28125 30.421875 31.390625 
Q 30.421875 20.453125 26.78125 9.375 
Q 23.140625 -1.703125 15.828125 -13.1875 
L 8.015625 -13.1875 
Q 14.5 -2 17.703125 9.0625 
Q 20.90625 20.125 20.90625 31.390625 
Q 20.90625 42.671875 17.703125 53.65625 
Q 14.5 64.65625 8.015625 75.875 
z
" id="DejaVuSans-29"/>
     </defs>
     <g transform="translate(22.4 154.22)rotate(-90)scale(0.2 -0.2)">
      <use transform="translate(0 0.125)" xlink:href="#DejaVuSans-Oblique-73"/>
      <use transform="translate(52.099609 0.125)" xlink:href="#DejaVuSans-20"/>
      <use transform="translate(83.886719 0.125)" xlink:href="#DejaVuSans-28"/>
      <use transform="translate(122.900391 0.125)" xlink:href="#DejaVuSans-Oblique-3bc"/>
      <use transform="translate(186.523438 0.125)" xlink:href="#DejaVuSans-Oblique-6d"/>
      <use transform="translate(283.935547 0.125)" xlink:href="#DejaVuSans-29"/>
     </g>
    </g>
   </g>
   <g id="line2d_25">
    <path clip-path="url(#p92e75c9af0)" d="M 63.954687 220.756364 
L 68.113694 198.218854 
L 72.2727 174.069279 
L 76.431706 148.171556 
L 80.590712 120.545319 
L 84.749719 91.258888 
L 88.908725 61.710208 
L 93.067731 35.811848 
L 97.226737 25.750337 
L 101.385743 35.694734 
L 105.54475 69.269858 
L 109.703756 107.949119 
L 113.862762 135.25406 
L 118.021768 135.412981 
L 122.180774 118.183386 
L 126.339781 91.214477 
L 130.498787 63.328604 
L 134.657793 38.515729 
L 138.816799 25.695659 
L 142.975806 38.27321 
L 147.134812 67.386432 
L 151.293818 107.410597 
L 155.452824 130.059458 
L 159.61183 133.789162 
L 163.770837 116.857387 
L 167.929843 90.814775 
L 172.088849 62.852605 
L 176.247855 38.617762 
L 180.406861 26.351799 
L 184.565868 35.811938 
L 188.724874 69.459531 
L 192.88388 108.35301 
L 197.042886 133.883263 
L 201.201892 132.667954 
L 205.360899 116.484456 
L 209.519905 91.258888 
L 213.678911 62.757405 
L 217.837917 37.903529 
L 221.996924 26.187764 
L 226.15593 37.042574 
L 230.314936 71.595459 
L 234.473942 107.410597 
L 238.632948 131.285962 
L 242.791955 133.247889 
L 246.950961 116.608767 
L 251.109967 90.770363 
L 255.268973 62.47181 
L 259.427979 38.872845 
L 263.586986 27.117295 
L 267.745992 34.87431 
L 271.904998 64.624195 
L 276.064004 108.487641 
L 280.22301 132.296023 
L 284.382017 133.170564 
L 288.541023 117.686142 
L 292.700029 91.392122 
L 296.859035 62.900205 
L 301.018042 38.260646 
L 305.177048 27.007938 
L 309.336054 35.987743 
L 313.49506 66.131715 
L 317.654066 106.400868 
L 321.813073 133.089643 
L 325.972079 135.103682 
L 330.131085 117.934764 
L 334.290091 91.347711 
L 338.449097 62.662205 
L 342.608104 38.056579 
L 346.76711 27.445365 
L 350.926116 35.577531 
L 355.085122 67.388121 
L 359.244128 108.958847 
L 363.403135 133.738968 
L 367.562141 135.103682 
L 371.721147 117.147454 
L 375.880153 91.347711 
L 380.03916 63.043007 
L 384.198166 39.178945 
L 388.357172 28.046827 
L 392.516178 36.397955 
L 396.675184 66.132222 
L 400.834191 108.151065 
L 404.993197 133.522526 
L 409.152203 134.601071 
L 413.311209 117.064582 
L 417.470215 91.480945 
L 421.629222 62.805007 
L 425.788228 39.43403 
L 429.947234 28.210862 
L 434.10624 36.57376 
L 438.265247 67.262939 
L 442.424253 104.919933 
L 446.583259 130.203753 
L 450.742265 133.247889 
L 454.901271 117.188887 
L 459.060278 90.948009 
L 463.219284 62.757405 
L 467.37829 37.903529 
L 471.537296 27.117295 
L 475.696302 39.035032 
L 479.855309 68.896053 
" style="fill:none;stroke:#1f77b4;stroke-linecap:square;stroke-width:1.5;"/>
   </g>
   <g id="line2d_26">
    <path clip-path="url(#p92e75c9af0)" d="M 63.954687 220.756364 
L 67.697793 200.541636 
L 71.440899 179.025693 
L 75.184004 156.125472 
L 78.92711 131.764845 
L 82.670215 105.962477 
L 90.572327 50.720956 
L 92.23593 40.959498 
L 93.483632 34.787677 
L 94.731333 29.927836 
L 95.563135 27.565968 
L 96.394936 26.006625 
L 96.810837 25.552465 
L 97.226737 25.327041 
L 97.642638 25.338051 
L 98.058538 25.59215 
L 98.474439 26.094817 
L 98.89034 26.850228 
L 99.722141 29.128738 
L 100.553942 32.430654 
L 101.385743 36.731561 
L 102.633445 44.93052 
L 103.881147 54.943778 
L 105.54475 70.330916 
L 109.703756 110.202629 
L 110.951458 120.044075 
L 112.19916 128.023868 
L 113.030961 132.160679 
L 113.862762 135.292274 
L 114.694563 137.402786 
L 115.110464 138.077996 
L 115.526365 138.504609 
L 115.942265 138.688002 
L 116.358166 138.634816 
L 116.774066 138.352804 
L 117.189967 137.850669 
L 118.021768 136.224631 
L 118.853569 133.839261 
L 119.685371 130.782376 
L 120.933073 125.131604 
L 122.180774 118.455541 
L 123.844377 108.3981 
L 126.339781 91.826359 
L 131.746489 55.374234 
L 133.410091 45.581673 
L 134.657793 39.217575 
L 135.905495 33.980553 
L 136.737296 31.249702 
L 137.569097 29.220754 
L 138.400899 27.969452 
L 138.816799 27.657074 
L 139.2327 27.563798 
L 139.648601 27.69629 
L 140.064501 28.060254 
L 140.480402 28.660305 
L 141.312203 30.581017 
L 142.144004 33.469393 
L 142.975806 37.312406 
L 143.807607 42.070766 
L 145.055309 50.770957 
L 146.30301 61.034208 
L 148.382514 80.309162 
L 151.293818 107.283615 
L 152.54152 117.192885 
L 153.789222 125.399434 
L 154.621023 129.756498 
L 155.452824 133.147799 
L 156.284625 135.543409 
L 156.700526 136.366423 
L 157.116427 136.942206 
L 157.532327 137.274657 
L 157.948228 137.369058 
L 158.364128 137.231936 
L 158.780029 136.870909 
L 159.19593 136.294533 
L 160.027731 134.533689 
L 160.859532 132.030641 
L 161.691333 128.871874 
L 162.939035 123.095176 
L 164.602638 113.888319 
L 166.682141 100.770931 
L 170.841147 72.444194 
L 173.336551 56.069295 
L 175.000153 46.283912 
L 176.247855 39.915187 
L 177.495557 34.663325 
L 178.327358 31.916254 
L 179.15916 29.865726 
L 179.990961 28.587418 
L 180.406861 28.259537 
L 180.822762 28.149474 
L 181.238663 28.263953 
L 181.654563 28.608747 
L 182.070464 29.188562 
L 182.902265 31.066036 
L 183.734066 33.90836 
L 184.565868 37.703745 
L 185.397669 42.414303 
L 186.645371 51.045787 
L 187.893073 61.248492 
L 189.972576 80.452816 
L 192.88388 107.411279 
L 194.131582 117.343005 
L 195.379284 125.585894 
L 196.211085 129.972935 
L 197.042886 133.397303 
L 197.874687 135.827779 
L 198.706489 137.262039 
L 199.122389 137.612108 
L 199.53829 137.723893 
L 199.954191 137.603818 
L 200.370091 137.259411 
L 200.785992 136.699153 
L 201.617793 134.968805 
L 202.449594 132.493664 
L 203.281396 129.360066 
L 204.529097 123.616048 
L 206.1927 114.444241 
L 208.272203 101.360014 
L 212.431209 73.078285 
L 214.926613 56.721018 
L 216.590215 46.942948 
L 217.837917 40.576787 
L 219.085619 35.324575 
L 219.91742 32.575502 
L 220.749222 30.521489 
L 221.581023 29.238188 
L 221.996924 28.907251 
L 222.412824 28.793767 
L 222.828725 28.904469 
L 223.244625 29.245143 
L 223.660526 29.820511 
L 224.492327 31.688186 
L 225.324128 34.519667 
L 226.15593 38.303393 
L 226.987731 43.001745 
L 228.235433 51.614542 
L 229.483135 61.799043 
L 231.562638 80.976852 
L 234.473942 107.912209 
L 235.721644 117.840118 
L 236.969346 126.082798 
L 237.801147 130.471541 
L 238.632948 133.89892 
L 239.46475 136.333556 
L 240.296551 137.772951 
L 240.712451 138.1259 
L 241.128352 138.240746 
L 241.544253 138.123892 
L 241.960153 137.78285 
L 242.376054 137.226081 
L 243.207855 135.503018 
L 244.039656 133.03548 
L 244.871458 129.909707 
L 246.11916 124.177685 
L 247.782762 115.022098 
L 249.862265 101.958163 
L 254.021271 73.715616 
L 256.516675 57.379245 
L 258.180278 47.612879 
L 259.427979 41.2538 
L 260.675681 36.006837 
L 261.507483 33.260077 
L 262.339284 31.207321 
L 263.171085 29.924141 
L 263.586986 29.592818 
L 264.002886 29.478642 
L 264.418787 29.588341 
L 264.834688 29.927699 
L 265.250588 30.501437 
L 266.082389 32.364914 
L 266.914191 35.190974 
L 267.745992 38.968121 
L 268.577793 43.658834 
L 269.825495 52.258479 
L 271.073197 62.428319 
L 273.1527 81.580262 
L 276.064004 108.482399 
L 277.311706 118.399087 
L 278.559408 126.633098 
L 279.391209 131.017624 
L 280.22301 134.442085 
L 281.054812 136.8751 
L 281.886613 138.31414 
L 282.302514 138.667368 
L 282.718414 138.782785 
L 283.134315 138.666784 
L 283.550215 138.326864 
L 283.966116 137.771474 
L 284.797917 136.051886 
L 285.629719 133.588689 
L 286.46152 130.46801 
L 287.709222 124.744805 
L 289.372824 115.602651 
L 291.452327 102.557257 
L 295.611333 74.353747 
L 298.106737 58.039537 
L 299.77034 48.286223 
L 301.018042 41.93551 
L 302.265743 36.695302 
L 303.097545 33.951972 
L 303.929346 31.901663 
L 304.761147 30.619849 
L 305.177048 30.288777 
L 305.592948 30.174549 
L 306.008849 30.283888 
L 306.42475 30.62257 
L 306.84065 31.19531 
L 307.672451 33.055815 
L 308.504253 35.877601 
L 309.336054 39.649198 
L 310.167855 44.333148 
L 311.415557 52.920605 
L 312.663259 63.076247 
L 314.742762 82.201875 
L 317.654066 109.067798 
L 318.901768 118.971383 
L 320.14947 127.194669 
L 320.981271 131.573581 
L 321.813073 134.993749 
L 322.644874 137.423822 
L 323.476675 138.861269 
L 323.892576 139.214194 
L 324.308476 139.329629 
L 324.724377 139.213957 
L 325.140278 138.874665 
L 325.556178 138.320191 
L 326.387979 136.603249 
L 327.219781 134.143687 
L 328.051582 131.027515 
L 329.299284 125.312449 
L 330.962886 116.183139 
L 333.042389 103.155922 
L 337.201396 74.991455 
L 339.696799 58.699726 
L 341.360402 48.959804 
L 342.608104 42.617778 
L 343.855806 37.384701 
L 344.687607 34.645078 
L 345.519408 32.597509 
L 346.351209 31.317369 
L 346.76711 30.986703 
L 347.18301 30.872582 
L 347.598911 30.981718 
L 348.014812 31.319879 
L 348.430712 31.891776 
L 349.262514 33.749607 
L 350.094315 36.567395 
L 350.926116 40.333689 
L 351.757917 45.011085 
L 353.005619 53.586579 
L 354.253321 63.728126 
L 356.332824 82.827316 
L 359.244128 109.656285 
L 360.49183 119.546309 
L 361.739532 127.758373 
L 362.571333 132.131334 
L 363.403135 135.546874 
L 364.234936 137.973688 
L 365.066737 139.409242 
L 365.482638 139.761725 
L 365.898538 139.877044 
L 366.314439 139.761574 
L 366.73034 139.422791 
L 367.14624 138.869122 
L 367.978042 137.154624 
L 368.809843 134.698523 
L 369.641644 131.586714 
L 370.889346 125.879618 
L 372.552948 116.762998 
L 374.632451 103.753854 
L 378.791458 75.628397 
L 381.286861 59.359208 
L 382.950464 49.632749 
L 384.198166 43.299481 
L 385.445868 38.073621 
L 386.277669 35.33777 
L 387.10947 33.293013 
L 387.941271 32.014621 
L 388.357172 31.6844 
L 388.773073 31.570425 
L 389.188973 31.679396 
L 389.604874 32.017076 
L 390.020774 32.588168 
L 390.852576 34.443401 
L 391.684377 37.257264 
L 392.516178 41.018321 
L 393.347979 45.689222 
L 394.595681 54.252818 
L 395.843383 64.38031 
L 397.922886 83.453056 
L 400.834191 110.244924 
L 402.081892 120.121286 
L 403.329594 128.322016 
L 404.161396 132.688947 
L 404.993197 136.099784 
L 405.824998 138.523262 
L 406.656799 139.956853 
L 407.0727 140.308859 
L 407.488601 140.424029 
L 407.904501 140.308729 
L 408.320402 139.970425 
L 408.736302 139.417532 
L 409.568104 137.705425 
L 410.399905 135.252741 
L 411.231706 132.145254 
L 412.479408 126.446077 
L 414.14301 117.342098 
L 416.222514 104.350982 
L 420.38152 76.264487 
L 422.876924 60.017828 
L 424.540526 50.304836 
L 425.788228 43.980334 
L 427.03593 38.761707 
L 427.867731 36.02964 
L 428.699532 33.987709 
L 429.531333 32.711082 
L 429.947234 32.381315 
L 430.363135 32.267494 
L 430.779035 32.376312 
L 431.194936 32.713521 
L 431.610837 33.283818 
L 432.442638 35.136475 
L 433.274439 37.946434 
L 434.10624 41.702276 
L 434.938042 46.366702 
L 436.185743 54.918431 
L 437.433445 65.031891 
L 439.512948 84.078219 
L 442.424253 110.832988 
L 443.671955 120.695677 
L 444.919656 128.885058 
L 445.751458 133.245946 
L 446.583259 136.652065 
L 447.41506 139.072192 
L 448.246861 140.503803 
L 448.662762 140.855324 
L 449.078663 140.970338 
L 449.494563 140.8552 
L 449.910464 140.517367 
L 450.326365 139.965242 
L 451.158166 138.255511 
L 451.989967 135.806228 
L 452.821768 132.703049 
L 454.06947 127.01177 
L 455.733073 117.920406 
L 457.812576 104.947289 
L 461.971582 76.899702 
L 464.466986 60.675549 
L 466.130588 50.976011 
L 467.37829 44.660269 
L 468.625992 39.448869 
L 469.457793 36.720585 
L 470.289594 34.681482 
L 471.121396 33.406621 
L 471.537296 33.077311 
L 471.953197 32.963647 
L 472.369097 33.072312 
L 472.784998 33.409054 
L 473.200899 33.97856 
L 474.0327 35.828649 
L 474.864501 38.634714 
L 475.696302 42.385352 
L 476.528104 47.043315 
L 477.775806 55.583196 
L 479.023507 65.682645 
L 479.439408 69.320278 
L 479.439408 69.320278 
" style="fill:none;stroke:#008000;stroke-dasharray:5.55,2.4;stroke-dashoffset:0;stroke-width:1.5;"/>
   </g>
   <g id="patch_3">
    <path d="M 63.954687 230.64 
L 63.954687 13.2 
" style="fill:none;stroke:#000000;stroke-linecap:square;stroke-linejoin:miter;stroke-width:2;"/>
   </g>
   <g id="patch_4">
    <path d="M 355.085122 230.64 
L 355.085122 13.2 
" style="fill:none;"/>
   </g>
   <g id="patch_5">
    <path d="M 63.954687 230.64 
L 355.085122 230.64 
" style="fill:none;stroke:#000000;stroke-linecap:square;stroke-linejoin:miter;stroke-width:2;"/>
   </g>
   <g id="patch_6">
    <path d="M 63.954687 13.2 
L 355.085122 13.2 
" style="fill:none;"/>
   </g>
  </g>
  <g id="axes_2">
   <g id="patch_7">
    <path d="M 442.424253 230.64 
L 733.554688 230.64 
L 733.554688 13.2 
L 442.424253 13.2 
z
" style="fill:#ffffff;"/>
   </g>
   <g id="PolyCollection_2">
    <path clip-path="url(#p67c52a9cd9)" d="M 450.742265 220.756364 
L 450.742265 220.756364 
L 450.742265 220.756364 
L 450.742265 220.756364 
z
" style="fill:#4db8ff;"/>
    <path clip-path="url(#p67c52a9cd9)" d="M 459.060278 220.519223 
L 459.060278 220.537411 
L 463.219284 219.808346 
L 467.37829 216.315578 
L 471.537296 204.866201 
L 475.696302 171.174652 
L 479.855309 117.354145 
L 484.014315 58.016172 
L 488.173321 46.10339 
L 492.332327 108.268914 
L 496.491333 177.512152 
L 500.65034 212.59745 
L 504.809346 218.567151 
L 508.968352 213.846241 
L 513.127358 201.039865 
L 517.286365 171.245276 
L 521.445371 114.546136 
L 525.604377 59.200073 
L 529.763383 45.889346 
L 533.922389 98.558791 
L 538.081396 172.639109 
L 542.240402 208.57902 
L 546.399408 218.350645 
L 550.558414 214.572173 
L 554.71742 200.89562 
L 558.876427 170.398105 
L 563.035433 117.225973 
L 567.194439 57.898607 
L 571.353445 46.267962 
L 575.512451 105.606291 
L 579.671458 169.151498 
L 583.830464 206.278484 
L 587.98947 217.181197 
L 592.148476 214.717393 
L 596.307483 201.905563 
L 600.466489 170.609832 
L 604.625495 115.883221 
L 608.784501 56.599755 
L 612.943507 45.889346 
L 617.102514 100.759487 
L 621.26152 171.043907 
L 625.420526 206.901769 
L 629.579532 216.24118 
L 633.738538 214.268033 
L 637.897545 200.535052 
L 642.056551 169.410623 
L 646.215557 118.252748 
L 650.374563 60.994188 
L 654.533569 46.323593 
L 658.692576 102.613943 
L 662.851582 170.417674 
L 667.010588 210.060721 
L 671.169594 217.399192 
L 675.328601 214.499567 
L 679.487607 201.400527 
L 683.646613 169.551633 
L 687.805619 117.033809 
L 691.964625 60.006637 
L 696.123632 45.504461 
L 700.282638 104.098071 
L 704.441644 176.169959 
L 708.60065 211.326753 
L 712.759656 217.910125 
L 716.918663 214.862624 
L 721.077669 201.689103 
L 725.236675 168.987713 
L 729.395681 117.482367 
L 733.554687 59.198693 
L 737.713694 46.521359 
L 741.8727 105.330265 
L 746.031706 176.573749 
L 750.190712 208.47433 
L 754.349719 218.34802 
L 758.508725 213.838282 
L 762.667731 200.102459 
L 766.826737 168.212846 
L 770.985743 116.585868 
L 775.14475 60.006258 
L 779.303756 46.185242 
L 783.462762 104.917733 
L 787.621768 174.857788 
L 791.780774 207.770913 
L 795.939781 216.815015 
L 800.098787 214.201672 
L 804.257793 199.282144 
L 808.416799 168.001624 
L 812.575806 116.394084 
L 816.734812 59.278602 
L 820.893818 44.97824 
L 825.052824 98.814812 
L 829.21183 171.043907 
L 833.370837 209.682594 
L 837.529843 217.693984 
L 841.688849 214.717393 
L 845.847855 201.905563 
L 850.006861 169.410623 
L 854.165868 113.721312 
L 858.324874 58.248346 
L 858.324874 38.283413 
L 858.324874 38.283413 
L 854.165868 101.423778 
L 850.006861 164.045612 
L 845.847855 200.107629 
L 841.688849 214.177732 
L 837.529843 217.427195 
L 833.370837 208.662321 
L 829.21183 165.868097 
L 825.052824 84.52405 
L 820.893818 23.083636 
L 816.734812 39.462026 
L 812.575806 104.448333 
L 808.416799 162.472656 
L 804.257793 197.213864 
L 800.098787 213.613783 
L 795.939781 216.468712 
L 791.780774 206.563074 
L 787.621768 170.120131 
L 783.462762 91.449336 
L 779.303756 24.467577 
L 775.14475 40.294337 
L 770.985743 104.665292 
L 766.826737 162.708499 
L 762.667731 198.119111 
L 758.508725 213.216261 
L 754.349719 218.139719 
L 750.190712 207.335802 
L 746.031706 172.031519 
L 741.8727 91.917145 
L 737.713694 24.852917 
L 733.554687 39.370618 
L 729.395681 105.679351 
L 725.236675 163.573562 
L 721.077669 199.869005 
L 716.918663 214.336498 
L 712.759656 217.662732 
L 708.60065 210.465689 
L 704.441644 171.58184 
L 700.282638 90.519727 
L 696.123632 23.687032 
L 691.964625 40.294771 
L 687.805619 105.171997 
L 683.646613 164.202993 
L 679.487607 199.550838 
L 675.328601 213.939568 
L 671.169594 217.105845 
L 667.010588 209.077241 
L 662.851582 165.16943 
L 658.692576 88.836124 
L 654.533569 24.626192 
L 650.374563 41.424184 
L 646.215557 106.550595 
L 642.056551 164.045612 
L 637.897545 198.596348 
L 633.738538 213.686365 
L 629.579532 215.842458 
L 625.420526 205.607834 
L 621.26152 165.868097 
L 617.102514 86.731702 
L 612.943507 24.128331 
L 608.784501 36.396982 
L 604.625495 103.870366 
L 600.466489 165.383829 
L 596.307483 200.107629 
L 592.148476 214.177732 
L 587.98947 216.868139 
L 583.830464 204.922506 
L 579.671458 163.756386 
L 575.512451 92.230134 
L 571.353445 24.562414 
L 567.194439 37.883263 
L 563.035433 105.389355 
L 558.876427 165.147595 
L 554.71742 198.99405 
L 550.558414 214.018958 
L 546.399408 218.142578 
L 542.240402 207.450778 
L 538.081396 167.647191 
L 533.922389 84.233342 
L 529.763383 24.128331 
L 525.604377 39.372196 
L 521.445371 102.357349 
L 517.286365 166.092729 
L 513.127358 199.153132 
L 508.968352 213.224969 
L 504.809346 218.378304 
L 500.65034 211.857991 
L 496.491333 173.076336 
L 492.332327 95.248394 
L 488.173321 24.373735 
L 484.014315 38.017777 
L 479.855309 105.534326 
L 475.696302 166.013948 
L 471.537296 203.368737 
L 467.37829 215.923673 
L 463.219284 219.728083 
L 459.060278 220.519223 
z
" style="fill:#4db8ff;"/>
   </g>
   <g id="matplotlib.axis_3">
    <g id="xtick_9">
     <g id="line2d_27">
      <path clip-path="url(#p67c52a9cd9)" d="M 442.424253 230.64 
L 442.424253 13.2 
" style="fill:none;stroke:#b0b0b0;stroke-linecap:square;stroke-width:0.8;"/>
     </g>
     <g id="line2d_28">
      <g>
       <use x="442.424253" xlink:href="#m8074d27565" y="230.64"/>
      </g>
     </g>
     <g id="text_15">
      <!-- 0 -->
      <g transform="translate(437.652378 251.537656)scale(0.15 -0.15)">
       <use xlink:href="#DejaVuSans-30"/>
      </g>
     </g>
    </g>
    <g id="xtick_10">
     <g id="line2d_29">
      <path clip-path="url(#p67c52a9cd9)" d="M 484.014315 230.64 
L 484.014315 13.2 
" style="fill:none;stroke:#b0b0b0;stroke-linecap:square;stroke-width:0.8;"/>
     </g>
     <g id="line2d_30">
      <g>
       <use x="484.014315" xlink:href="#m8074d27565" y="230.64"/>
      </g>
     </g>
     <g id="text_16">
      <!-- 1 -->
      <g transform="translate(479.24244 251.537656)scale(0.15 -0.15)">
       <use xlink:href="#DejaVuSans-31"/>
      </g>
     </g>
    </g>
    <g id="xtick_11">
     <g id="line2d_31">
      <path clip-path="url(#p67c52a9cd9)" d="M 525.604377 230.64 
L 525.604377 13.2 
" style="fill:none;stroke:#b0b0b0;stroke-linecap:square;stroke-width:0.8;"/>
     </g>
     <g id="line2d_32">
      <g>
       <use x="525.604377" xlink:href="#m8074d27565" y="230.64"/>
      </g>
     </g>
     <g id="text_17">
      <!-- 2 -->
      <g transform="translate(520.832502 251.537656)scale(0.15 -0.15)">
       <use xlink:href="#DejaVuSans-32"/>
      </g>
     </g>
    </g>
    <g id="xtick_12">
     <g id="line2d_33">
      <path clip-path="url(#p67c52a9cd9)" d="M 567.194439 230.64 
L 567.194439 13.2 
" style="fill:none;stroke:#b0b0b0;stroke-linecap:square;stroke-width:0.8;"/>
     </g>
     <g id="line2d_34">
      <g>
       <use x="567.194439" xlink:href="#m8074d27565" y="230.64"/>
      </g>
     </g>
     <g id="text_18">
      <!-- 3 -->
      <g transform="translate(562.422564 251.537656)scale(0.15 -0.15)">
       <use xlink:href="#DejaVuSans-33"/>
      </g>
     </g>
    </g>
    <g id="xtick_13">
     <g id="line2d_35">
      <path clip-path="url(#p67c52a9cd9)" d="M 608.784501 230.64 
L 608.784501 13.2 
" style="fill:none;stroke:#b0b0b0;stroke-linecap:square;stroke-width:0.8;"/>
     </g>
     <g id="line2d_36">
      <g>
       <use x="608.784501" xlink:href="#m8074d27565" y="230.64"/>
      </g>
     </g>
     <g id="text_19">
      <!-- 4 -->
      <g transform="translate(604.012626 251.537656)scale(0.15 -0.15)">
       <use xlink:href="#DejaVuSans-34"/>
      </g>
     </g>
    </g>
    <g id="xtick_14">
     <g id="line2d_37">
      <path clip-path="url(#p67c52a9cd9)" d="M 650.374563 230.64 
L 650.374563 13.2 
" style="fill:none;stroke:#b0b0b0;stroke-linecap:square;stroke-width:0.8;"/>
     </g>
     <g id="line2d_38">
      <g>
       <use x="650.374563" xlink:href="#m8074d27565" y="230.64"/>
      </g>
     </g>
     <g id="text_20">
      <!-- 5 -->
      <g transform="translate(645.602688 251.537656)scale(0.15 -0.15)">
       <use xlink:href="#DejaVuSans-35"/>
      </g>
     </g>
    </g>
    <g id="xtick_15">
     <g id="line2d_39">
      <path clip-path="url(#p67c52a9cd9)" d="M 691.964625 230.64 
L 691.964625 13.2 
" style="fill:none;stroke:#b0b0b0;stroke-linecap:square;stroke-width:0.8;"/>
     </g>
     <g id="line2d_40">
      <g>
       <use x="691.964625" xlink:href="#m8074d27565" y="230.64"/>
      </g>
     </g>
     <g id="text_21">
      <!-- 6 -->
      <g transform="translate(687.19275 251.537656)scale(0.15 -0.15)">
       <use xlink:href="#DejaVuSans-36"/>
      </g>
     </g>
    </g>
    <g id="xtick_16">
     <g id="line2d_41">
      <path clip-path="url(#p67c52a9cd9)" d="M 733.554688 230.64 
L 733.554688 13.2 
" style="fill:none;stroke:#b0b0b0;stroke-linecap:square;stroke-width:0.8;"/>
     </g>
     <g id="line2d_42">
      <g>
       <use x="733.554688" xlink:href="#m8074d27565" y="230.64"/>
      </g>
     </g>
     <g id="text_22">
      <!-- 7 -->
      <g transform="translate(728.782813 251.537656)scale(0.15 -0.15)">
       <use xlink:href="#DejaVuSans-37"/>
      </g>
     </g>
    </g>
    <g id="text_23">
     <!-- $t/\tau$ -->
     <g transform="translate(574.58947 273.854062)scale(0.2 -0.2)">
      <use transform="translate(0 0.09375)" xlink:href="#DejaVuSans-Oblique-74"/>
      <use transform="translate(39.208984 0.09375)" xlink:href="#DejaVuSans-2f"/>
      <use transform="translate(72.900391 0.09375)" xlink:href="#DejaVuSans-Oblique-3c4"/>
     </g>
    </g>
   </g>
   <g id="matplotlib.axis_4">
    <g id="ytick_5">
     <g id="line2d_43">
      <path clip-path="url(#p67c52a9cd9)" d="M 442.424253 220.756364 
L 733.554688 220.756364 
" style="fill:none;stroke:#b0b0b0;stroke-linecap:square;stroke-width:0.8;"/>
     </g>
     <g id="line2d_44">
      <g>
       <use x="442.424253" xlink:href="#mb54cd28a91" y="220.756364"/>
      </g>
     </g>
     <g id="text_24">
      <!-- 0.000 -->
      <g transform="translate(389.982065 226.455192)scale(0.15 -0.15)">
       <use xlink:href="#DejaVuSans-30"/>
       <use x="63.623047" xlink:href="#DejaVuSans-2e"/>
       <use x="95.410156" xlink:href="#DejaVuSans-30"/>
       <use x="159.033203" xlink:href="#DejaVuSans-30"/>
       <use x="222.65625" xlink:href="#DejaVuSans-30"/>
      </g>
     </g>
    </g>
    <g id="ytick_6">
     <g id="line2d_45">
      <path clip-path="url(#p67c52a9cd9)" d="M 442.424253 182.75056 
L 733.554688 182.75056 
" style="fill:none;stroke:#b0b0b0;stroke-linecap:square;stroke-width:0.8;"/>
     </g>
     <g id="line2d_46">
      <g>
       <use x="442.424253" xlink:href="#mb54cd28a91" y="182.75056"/>
      </g>
     </g>
     <g id="text_25">
      <!-- 0.025 -->
      <g transform="translate(389.982065 188.449389)scale(0.15 -0.15)">
       <use xlink:href="#DejaVuSans-30"/>
       <use x="63.623047" xlink:href="#DejaVuSans-2e"/>
       <use x="95.410156" xlink:href="#DejaVuSans-30"/>
       <use x="159.033203" xlink:href="#DejaVuSans-32"/>
       <use x="222.65625" xlink:href="#DejaVuSans-35"/>
      </g>
     </g>
    </g>
    <g id="ytick_7">
     <g id="line2d_47">
      <path clip-path="url(#p67c52a9cd9)" d="M 442.424253 144.744757 
L 733.554688 144.744757 
" style="fill:none;stroke:#b0b0b0;stroke-linecap:square;stroke-width:0.8;"/>
     </g>
     <g id="line2d_48">
      <g>
       <use x="442.424253" xlink:href="#mb54cd28a91" y="144.744757"/>
      </g>
     </g>
     <g id="text_26">
      <!-- 0.050 -->
      <g transform="translate(389.982065 150.443585)scale(0.15 -0.15)">
       <use xlink:href="#DejaVuSans-30"/>
       <use x="63.623047" xlink:href="#DejaVuSans-2e"/>
       <use x="95.410156" xlink:href="#DejaVuSans-30"/>
       <use x="159.033203" xlink:href="#DejaVuSans-35"/>
       <use x="222.65625" xlink:href="#DejaVuSans-30"/>
      </g>
     </g>
    </g>
    <g id="ytick_8">
     <g id="line2d_49">
      <path clip-path="url(#p67c52a9cd9)" d="M 442.424253 106.738954 
L 733.554688 106.738954 
" style="fill:none;stroke:#b0b0b0;stroke-linecap:square;stroke-width:0.8;"/>
     </g>
     <g id="line2d_50">
      <g>
       <use x="442.424253" xlink:href="#mb54cd28a91" y="106.738954"/>
      </g>
     </g>
     <g id="text_27">
      <!-- 0.075 -->
      <g transform="translate(389.982065 112.437782)scale(0.15 -0.15)">
       <use xlink:href="#DejaVuSans-30"/>
       <use x="63.623047" xlink:href="#DejaVuSans-2e"/>
       <use x="95.410156" xlink:href="#DejaVuSans-30"/>
       <use x="159.033203" xlink:href="#DejaVuSans-37"/>
       <use x="222.65625" xlink:href="#DejaVuSans-35"/>
      </g>
     </g>
    </g>
    <g id="ytick_9">
     <g id="line2d_51">
      <path clip-path="url(#p67c52a9cd9)" d="M 442.424253 68.733151 
L 733.554688 68.733151 
" style="fill:none;stroke:#b0b0b0;stroke-linecap:square;stroke-width:0.8;"/>
     </g>
     <g id="line2d_52">
      <g>
       <use x="442.424253" xlink:href="#mb54cd28a91" y="68.733151"/>
      </g>
     </g>
     <g id="text_28">
      <!-- 0.100 -->
      <g transform="translate(389.982065 74.431979)scale(0.15 -0.15)">
       <use xlink:href="#DejaVuSans-30"/>
       <use x="63.623047" xlink:href="#DejaVuSans-2e"/>
       <use x="95.410156" xlink:href="#DejaVuSans-31"/>
       <use x="159.033203" xlink:href="#DejaVuSans-30"/>
       <use x="222.65625" xlink:href="#DejaVuSans-30"/>
      </g>
     </g>
    </g>
    <g id="ytick_10">
     <g id="line2d_53">
      <path clip-path="url(#p67c52a9cd9)" d="M 442.424253 30.727347 
L 733.554688 30.727347 
" style="fill:none;stroke:#b0b0b0;stroke-linecap:square;stroke-width:0.8;"/>
     </g>
     <g id="line2d_54">
      <g>
       <use x="442.424253" xlink:href="#mb54cd28a91" y="30.727347"/>
      </g>
     </g>
     <g id="text_29">
      <!-- 0.125 -->
      <g transform="translate(389.982065 36.426175)scale(0.15 -0.15)">
       <use xlink:href="#DejaVuSans-30"/>
       <use x="63.623047" xlink:href="#DejaVuSans-2e"/>
       <use x="95.410156" xlink:href="#DejaVuSans-31"/>
       <use x="159.033203" xlink:href="#DejaVuSans-32"/>
       <use x="222.65625" xlink:href="#DejaVuSans-35"/>
      </g>
     </g>
    </g>
    <g id="text_30">
     <!-- $C_V^2(s)$ -->
     <defs>
      <path d="M 69.484375 67.28125 
L 67.484375 56.890625 
Q 62.796875 61.625 57.546875 63.921875 
Q 52.296875 66.21875 46.1875 66.21875 
Q 37.84375 66.21875 31.515625 62.203125 
Q 25.203125 58.203125 20.609375 50 
Q 17.671875 44.734375 16.125 38.84375 
Q 14.59375 32.953125 14.59375 27 
Q 14.59375 17.046875 19.75 11.8125 
Q 24.90625 6.59375 34.71875 6.59375 
Q 41.5 6.59375 47.75 8.765625 
Q 54 10.9375 59.90625 15.28125 
L 57.625 3.609375 
Q 51.8125 1.125 45.875 -0.140625 
Q 39.9375 -1.421875 33.984375 -1.421875 
Q 19.96875 -1.421875 12.078125 6.1875 
Q 4.203125 13.8125 4.203125 27.390625 
Q 4.203125 36.078125 7.203125 44.46875 
Q 10.203125 52.875 15.828125 59.8125 
Q 21.78125 67.1875 29.421875 70.703125 
Q 37.0625 74.21875 47.21875 74.21875 
Q 53.46875 74.21875 59.0625 72.484375 
Q 64.65625 70.75 69.484375 67.28125 
z
" id="DejaVuSans-Oblique-43"/>
      <path d="M 20.609375 0 
L 7.8125 72.90625 
L 17.484375 72.90625 
L 28.078125 10.203125 
L 63.484375 72.90625 
L 74.21875 72.90625 
L 32.078125 0 
z
" id="DejaVuSans-Oblique-56"/>
     </defs>
     <g transform="translate(380.382065 147.42)rotate(-90)scale(0.2 -0.2)">
      <use transform="translate(0 0.765625)" xlink:href="#DejaVuSans-Oblique-43"/>
      <use transform="translate(77.02474 39.046875)scale(0.7)" xlink:href="#DejaVuSans-32"/>
      <use transform="translate(69.824219 -26.578125)scale(0.7)" xlink:href="#DejaVuSans-Oblique-56"/>
      <use transform="translate(124.295247 0.765625)" xlink:href="#DejaVuSans-28"/>
      <use transform="translate(163.308919 0.765625)" xlink:href="#DejaVuSans-Oblique-73"/>
      <use transform="translate(215.408529 0.765625)" xlink:href="#DejaVuSans-29"/>
     </g>
    </g>
   </g>
   <g id="line2d_55">
    <path clip-path="url(#p67c52a9cd9)" d="M 450.742265 220.756364 
M 459.060278 220.528317 
L 463.219284 219.768214 
L 467.37829 216.119625 
L 471.537296 204.117469 
L 475.696302 168.5943 
L 479.855309 111.444236 
L 484.014315 48.016974 
L 488.173321 35.238563 
L 492.332327 101.758654 
L 496.491333 175.294244 
L 500.65034 212.227721 
L 504.809346 218.472727 
L 508.968352 213.535605 
L 513.127358 200.096499 
L 517.286365 168.669002 
L 521.445371 108.451743 
L 525.604377 49.286134 
L 529.763383 35.008839 
L 533.922389 91.396066 
L 538.081396 170.14315 
L 542.240402 208.014899 
L 546.399408 218.246612 
L 550.558414 214.295565 
L 554.71742 199.944835 
L 558.876427 167.77285 
L 563.035433 111.307664 
L 567.194439 47.890935 
L 571.353445 35.415188 
L 575.512451 98.918212 
L 579.671458 166.453942 
L 583.830464 205.600495 
L 587.98947 217.024668 
L 592.148476 214.447562 
L 596.307483 201.006596 
L 600.466489 167.996831 
L 604.625495 109.876794 
L 608.784501 46.498369 
L 612.943507 35.008839 
L 617.102514 93.745595 
L 621.26152 168.456002 
L 625.420526 206.254801 
L 629.579532 216.041819 
L 633.738538 213.977199 
L 637.897545 199.5657 
L 642.056551 166.728118 
L 646.215557 112.401671 
L 650.374563 51.209186 
L 654.533569 35.474892 
L 658.692576 95.725033 
L 662.851582 167.793552 
L 667.010588 209.568981 
L 671.169594 217.252518 
L 675.328601 214.219567 
L 679.487607 200.475682 
L 683.646613 166.877313 
L 687.805619 111.102903 
L 691.964625 50.150704 
L 696.123632 34.595746 
L 700.282638 97.308899 
L 704.441644 173.875899 
L 708.60065 210.896221 
L 712.759656 217.786428 
L 716.918663 214.599561 
L 721.077669 200.779054 
L 725.236675 166.280637 
L 729.395681 111.580859 
L 733.554687 49.284656 
L 737.713694 35.687138 
L 741.8727 98.623705 
L 746.031706 174.302634 
L 747.754688 188.223355 
" style="fill:none;stroke:#1f77b4;stroke-linecap:square;stroke-width:1.5;"/>
   </g>
   <g id="line2d_56">
    <path clip-path="url(#p67c52a9cd9)" d="M 442.424253 220.756364 
L 459.476178 220.64811 
L 461.555681 220.410121 
L 462.803383 220.106692 
L 464.051085 219.591185 
L 464.882886 219.075708 
L 465.714688 218.373851 
L 466.546489 217.434043 
L 467.37829 216.195638 
L 468.210091 214.588824 
L 469.041892 212.535038 
L 469.873694 209.947978 
L 470.705495 206.735357 
L 471.537296 202.801481 
L 472.369097 198.050769 
L 473.616799 189.196779 
L 474.864501 178.045649 
L 476.112203 164.445354 
L 477.359905 148.411941 
L 479.023507 123.73288 
L 483.598414 52.419776 
L 484.430215 42.903006 
L 485.262017 35.792272 
L 485.677917 33.298238 
L 486.093818 31.585086 
L 486.509719 30.697659 
L 486.925619 30.670711 
L 487.34152 31.527417 
L 487.75742 33.278094 
L 488.173321 35.919222 
L 489.005122 43.786254 
L 489.836924 54.810875 
L 491.084625 76.056728 
L 493.164128 117.751951 
L 494.827731 149.838385 
L 496.075433 170.174287 
L 497.323135 186.364214 
L 498.154936 194.827013 
L 498.986737 201.570349 
L 499.818538 206.79219 
L 500.65034 210.71748 
L 501.482141 213.571075 
L 502.313942 215.55901 
L 503.145743 216.857367 
L 503.977545 217.607178 
L 504.809346 217.913652 
L 505.641147 217.848078 
L 506.472948 217.451181 
L 507.30475 216.736989 
L 508.136551 215.696688 
L 508.968352 214.302167 
L 509.800153 212.509192 
L 510.631955 210.260284 
L 511.463756 207.487439 
L 512.295557 204.114916 
L 513.127358 200.062272 
L 514.37506 192.530176 
L 515.622762 183.02693 
L 516.870464 171.349641 
L 518.118166 157.399774 
L 519.365868 141.242378 
L 521.02947 116.815986 
L 524.772576 59.319903 
L 526.020278 44.21646 
L 526.852079 36.763681 
L 527.68388 31.98946 
L 528.099781 30.740203 
L 528.515681 30.305551 
L 528.931582 30.715363 
L 529.347483 31.988071 
L 529.763383 34.129523 
L 530.179284 37.132117 
L 531.011085 45.620401 
L 531.842886 57.11424 
L 533.090588 78.76188 
L 537.665495 165.724139 
L 538.913197 182.878305 
L 539.744998 191.975193 
L 540.576799 199.301402 
L 541.408601 205.032906 
L 542.240402 209.385091 
L 543.072203 212.582823 
L 543.904004 214.838591 
L 544.735806 216.338554 
L 545.567607 217.235236 
L 546.399408 217.645204 
L 547.231209 217.650058 
L 548.06301 217.299322 
L 548.894812 216.614214 
L 549.726613 215.591589 
L 550.558414 214.2077 
L 551.390215 212.421613 
L 552.222017 210.178314 
L 553.053818 207.411635 
L 553.885619 204.047183 
L 554.71742 200.005479 
L 555.965122 192.496481 
L 557.212824 183.024997 
L 558.460526 171.387326 
L 559.708228 157.482259 
L 560.95593 141.370066 
L 562.619532 116.99226 
L 566.778538 53.952253 
L 567.61034 44.24964 
L 568.442141 36.709732 
L 569.273942 31.83195 
L 569.689843 30.526124 
L 570.105743 30.032698 
L 570.521644 30.382412 
L 570.937545 31.594679 
L 571.353445 33.676397 
L 571.769346 36.621057 
L 572.601147 45.00327 
L 573.432948 56.410925 
L 574.68065 77.980493 
L 579.255557 165.177275 
L 580.503259 182.458743 
L 581.33506 191.634949 
L 582.166861 199.031914 
L 582.998663 204.823884 
L 583.830464 209.225833 
L 584.662265 212.463165 
L 585.494066 214.749502 
L 586.325868 216.27242 
L 587.157669 217.185917 
L 587.98947 217.607943 
L 588.821271 217.621299 
L 589.653073 217.276501 
L 590.484874 216.595547 
L 591.316675 215.575878 
L 592.148476 214.194165 
L 592.980278 212.409754 
L 593.812079 210.167799 
L 594.64388 207.402211 
L 595.475681 204.038597 
L 596.307483 199.997421 
L 597.555184 192.48837 
L 598.802886 183.015278 
L 600.050588 171.373651 
L 601.29829 157.46131 
L 602.545992 141.33746 
L 604.209594 116.935487 
L 608.368601 53.784824 
L 609.200402 44.053194 
L 610.032203 36.483728 
L 610.864004 31.577161 
L 611.279905 30.257708 
L 611.695806 29.751439 
L 612.111706 30.089306 
L 612.527607 31.290928 
L 612.943507 33.363404 
L 613.359408 36.300411 
L 614.191209 44.672713 
L 615.02301 56.078382 
L 616.270712 77.660388 
L 620.845619 165.004248 
L 622.093321 182.327863 
L 622.925122 191.528194 
L 623.756924 198.945604 
L 624.588725 204.754318 
L 625.420526 209.16955 
L 626.252327 212.417107 
L 627.084128 214.711083 
L 627.91593 216.239531 
L 628.747731 217.156889 
L 629.579532 217.581479 
L 630.411333 217.596401 
L 631.243135 217.252396 
L 632.074936 216.571614 
L 632.906737 215.551588 
L 633.738538 214.169029 
L 634.57034 212.383278 
L 635.402141 210.139451 
L 636.233942 207.371387 
L 637.065743 204.004601 
L 637.897545 199.959444 
L 639.145247 192.442628 
L 640.392948 182.959218 
L 641.64065 171.304279 
L 642.888352 157.375272 
L 644.136054 141.231197 
L 645.799656 116.79687 
L 649.958663 53.550397 
L 650.790464 43.801083 
L 651.622265 36.216164 
L 652.454066 31.297237 
L 652.869967 29.973023 
L 653.285868 29.463067 
L 653.701768 29.798403 
L 654.117669 30.998718 
L 654.533569 33.071167 
L 654.94947 36.00946 
L 655.781271 44.38831 
L 656.613073 55.805666 
L 657.860774 77.41361 
L 662.435681 164.884469 
L 663.683383 182.236098 
L 664.515184 191.451672 
L 665.346986 198.881574 
L 666.178787 204.700222 
L 667.010588 209.12312 
L 667.842389 212.37641 
L 668.674191 214.674525 
L 669.505992 216.205827 
L 670.337793 217.125017 
L 671.169594 217.550629 
L 672.001396 217.565918 
L 672.833197 217.221727 
L 673.664998 216.540263 
L 674.496799 215.519076 
L 675.328601 214.134861 
L 676.160402 212.346911 
L 676.992203 210.100274 
L 677.824004 207.3287 
L 678.655806 203.957602 
L 679.487607 199.907217 
L 680.735309 192.380587 
L 681.98301 182.884653 
L 683.230712 171.214151 
L 684.478414 157.266342 
L 685.726116 141.100233 
L 687.389719 116.632099 
L 691.548725 53.294913 
L 692.380526 43.530829 
L 693.212327 35.933953 
L 694.044128 31.006624 
L 694.460029 29.679749 
L 694.87593 29.16825 
L 695.29183 29.503213 
L 695.707731 30.704366 
L 696.123632 32.778882 
L 696.539532 35.720475 
L 697.371333 44.109531 
L 698.203135 55.541549 
L 699.450837 77.178271 
L 704.025743 164.771332 
L 705.273445 182.147907 
L 706.105247 191.376817 
L 706.937048 198.817521 
L 707.768849 204.644663 
L 708.60065 209.074044 
L 709.432451 212.332124 
L 710.264253 214.633643 
L 711.096054 216.167235 
L 711.927855 217.087828 
L 712.759656 217.514128 
L 713.591458 217.529516 
L 714.423259 217.184913 
L 715.25506 216.502561 
L 716.086861 215.480014 
L 716.918663 214.093934 
L 717.750464 212.303562 
L 718.582265 210.053869 
L 719.414066 207.278513 
L 720.245868 203.902805 
L 721.077669 199.846868 
L 722.325371 192.309894 
L 723.573073 182.800869 
L 724.820774 171.114232 
L 726.068476 157.147081 
L 727.316178 140.958486 
L 728.979781 116.456183 
L 733.138787 53.029559 
L 733.970588 43.251426 
L 734.802389 35.643457 
L 735.634191 30.708699 
L 736.050091 29.379678 
L 736.465992 28.867162 
L 736.881892 29.202283 
L 737.297793 30.404799 
L 737.713694 32.481896 
L 738.129594 35.427282 
L 738.961396 43.827441 
L 739.793197 55.274855 
L 741.040899 76.941059 
L 745.615806 164.655254 
L 746.863507 182.056062 
L 747.754688 191.860362 
L 747.754688 191.860362 
" style="fill:none;stroke:#008000;stroke-dasharray:5.55,2.4;stroke-dashoffset:0;stroke-width:1.5;"/>
   </g>
   <g id="patch_8">
    <path d="M 442.424253 230.64 
L 442.424253 13.2 
" style="fill:none;stroke:#000000;stroke-linecap:square;stroke-linejoin:miter;stroke-width:2;"/>
   </g>
   <g id="patch_9">
    <path d="M 733.554688 230.64 
L 733.554688 13.2 
" style="fill:none;"/>
   </g>
   <g id="patch_10">
    <path d="M 442.424253 230.64 
L 733.554688 230.64 
" style="fill:none;stroke:#000000;stroke-linecap:square;stroke-linejoin:miter;stroke-width:2;"/>
   </g>
   <g id="patch_11">
    <path d="M 442.424253 13.2 
L 733.554688 13.2 
" style="fill:none;"/>
   </g>
  </g>
 </g>
 <defs>
  <clipPath id="p92e75c9af0">
   <rect height="217.44" width="291.130435" x="63.954687" y="13.2"/>
  </clipPath>
  <clipPath id="p67c52a9cd9">
   <rect height="217.44" width="291.130435" x="442.424253" y="13.2"/>
  </clipPath>
 </defs>
</svg>
