<?xml version="1.0" encoding="utf-8" standalone="no"?>
<!DOCTYPE svg PUBLIC "-//W3C//DTD SVG 1.1//EN"
  "http://www.w3.org/Graphics/SVG/1.1/DTD/svg11.dtd">
<!-- Created with matplotlib (http://matplotlib.org/) -->
<svg height="339.573438pt" version="1.1" viewBox="0 0 918.8875 339.573438" width="918.8875pt" xmlns="http://www.w3.org/2000/svg" xmlns:xlink="http://www.w3.org/1999/xlink">
 <defs>
  <style type="text/css">
*{stroke-linecap:butt;stroke-linejoin:round;}
  </style>
 </defs>
 <g id="figure_1">
  <g id="patch_1">
   <path d="M 0 339.573438 
L 918.8875 339.573438 
L 918.8875 0 
L 0 0 
z
" style="fill:#ffffff;"/>
  </g>
  <g id="axes_1">
   <g id="patch_2">
    <path d="M 68.6875 285 
L 432.600543 285 
L 432.600543 13.2 
L 68.6875 13.2 
z
" style="fill:#ffffff;"/>
   </g>
   <g id="PolyCollection_1">
    <defs>
     <path d="M 68.6875 -66.927983 
L 68.6875 -66.927983 
L 74.752717 -68.590965 
L 80.817935 -76.23725 
L 86.883152 -85.95181 
L 92.94837 -95.891962 
L 99.013587 -107.111352 
L 105.078804 -118.715698 
L 111.144022 -130.293412 
L 117.209239 -142.351767 
L 123.274457 -152.959905 
L 129.339674 -162.857859 
L 135.404891 -172.878052 
L 141.470109 -181.462595 
L 147.535326 -190.059039 
L 153.600543 -198.141532 
L 159.665761 -205.450691 
L 165.730978 -212.449568 
L 171.796196 -218.628394 
L 177.861413 -225.02529 
L 183.92663 -231.018155 
L 189.991848 -235.720595 
L 196.057065 -240.848072 
L 202.122283 -245.89518 
L 208.1875 -249.116382 
L 214.252717 -252.379485 
L 220.317935 -257.799349 
L 226.383152 -261.96491 
L 232.44837 -264.664295 
L 238.513587 -266.852454 
L 244.578804 -269.627445 
L 250.644022 -271.975043 
L 256.709239 -275.025038 
L 262.774457 -277.605071 
L 268.839674 -280.125958 
L 274.904891 -282.72625 
L 280.970109 -285.242634 
L 287.035326 -286.710624 
L 293.100543 -289.101835 
L 299.165761 -289.932777 
L 305.230978 -291.597734 
L 311.296196 -292.39706 
L 317.361413 -293.603365 
L 323.42663 -295.241219 
L 329.491848 -296.144245 
L 335.557065 -297.79175 
L 341.622283 -298.772907 
L 347.6875 -300.739605 
L 353.752717 -300.971258 
L 359.817935 -301.355701 
L 365.883152 -300.670702 
L 371.94837 -301.382096 
L 378.013587 -301.77964 
L 384.078804 -302.518996 
L 390.144022 -303.736926 
L 396.209239 -303.369587 
L 402.274457 -303.112601 
L 408.339674 -303.704987 
L 414.404891 -302.881825 
L 420.470109 -303.072841 
L 426.535326 -302.589431 
L 426.535326 -310.425277 
L 426.535326 -310.425277 
L 420.470109 -311.09598 
L 414.404891 -311.203526 
L 408.339674 -311.423538 
L 402.274457 -311.124652 
L 396.209239 -311.328424 
L 390.144022 -311.597268 
L 384.078804 -310.697821 
L 378.013587 -309.7236 
L 371.94837 -309.748316 
L 365.883152 -309.436208 
L 359.817935 -309.942846 
L 353.752717 -309.567305 
L 347.6875 -309.267089 
L 341.622283 -307.092433 
L 335.557065 -305.785398 
L 329.491848 -304.38763 
L 323.42663 -303.456565 
L 317.361413 -301.897612 
L 311.296196 -300.987251 
L 305.230978 -299.342341 
L 299.165761 -298.041569 
L 293.100543 -297.108023 
L 287.035326 -294.444491 
L 280.970109 -293.073904 
L 274.904891 -290.830041 
L 268.839674 -287.876163 
L 262.774457 -285.683289 
L 256.709239 -282.919341 
L 250.644022 -279.927313 
L 244.578804 -277.110674 
L 238.513587 -274.585993 
L 232.44837 -272.248693 
L 226.383152 -269.739546 
L 220.317935 -264.942288 
L 214.252717 -260.069351 
L 208.1875 -256.546274 
L 202.122283 -253.052199 
L 196.057065 -248.371632 
L 189.991848 -243.203061 
L 183.92663 -238.39078 
L 177.861413 -232.052186 
L 171.796196 -225.21313 
L 165.730978 -218.95545 
L 159.665761 -212.337344 
L 153.600543 -205.090251 
L 147.535326 -196.583706 
L 141.470109 -187.838798 
L 135.404891 -178.74138 
L 129.339674 -168.846698 
L 123.274457 -158.605738 
L 117.209239 -147.497963 
L 111.144022 -135.071852 
L 105.078804 -123.09379 
L 99.013587 -111.27378 
L 92.94837 -99.458455 
L 86.883152 -88.829309 
L 80.817935 -78.417033 
L 74.752717 -70.122855 
L 68.6875 -66.927983 
z
" id="m157b809b1e"/>
    </defs>
    <g clip-path="url(#p53d1b4e382)">
     <use style="fill:#4db8ff;" x="0" xlink:href="#m157b809b1e" y="339.573438"/>
    </g>
   </g>
   <g id="PolyCollection_2">
    <defs>
     <path d="M 68.6875 -66.927983 
L 68.6875 -66.927983 
L 74.752717 -68.504663 
L 80.817935 -74.836719 
L 86.883152 -82.68236 
L 92.94837 -98.007751 
L 99.013587 -111.540282 
L 105.078804 -122.313009 
L 111.144022 -134.854015 
L 117.209239 -145.637832 
L 123.274457 -155.340738 
L 129.339674 -162.300586 
L 135.404891 -173.568465 
L 141.470109 -182.422305 
L 147.535326 -194.801186 
L 153.600543 -201.152694 
L 159.665761 -208.10938 
L 165.730978 -213.809612 
L 171.796196 -216.250815 
L 177.861413 -218.617271 
L 183.92663 -226.477141 
L 189.991848 -233.556757 
L 196.057065 -240.329892 
L 202.122283 -245.081169 
L 208.1875 -247.20276 
L 214.252717 -248.691566 
L 220.317935 -253.454983 
L 226.383152 -256.030086 
L 232.44837 -261.912698 
L 238.513587 -264.048142 
L 244.578804 -268.310137 
L 250.644022 -268.665512 
L 256.709239 -269.874055 
L 262.774457 -275.758216 
L 268.839674 -276.14794 
L 274.904891 -280.080781 
L 280.970109 -282.728756 
L 287.035326 -284.88397 
L 293.100543 -286.994908 
L 299.165761 -286.835269 
L 305.230978 -289.317406 
L 311.296196 -290.297131 
L 317.361413 -291.532261 
L 323.42663 -292.451408 
L 329.491848 -292.674143 
L 335.557065 -293.401209 
L 341.622283 -294.438895 
L 347.6875 -296.650139 
L 353.752717 -298.457762 
L 359.817935 -299.435722 
L 365.883152 -299.714361 
L 371.94837 -300.102879 
L 378.013587 -299.5259 
L 384.078804 -300.714814 
L 390.144022 -301.070743 
L 396.209239 -303.016044 
L 402.274457 -304.984925 
L 408.339674 -305.584564 
L 414.404891 -306.177849 
L 420.470109 -306.444205 
L 426.535326 -307.010944 
L 426.535326 -312.332283 
L 426.535326 -312.332283 
L 420.470109 -311.999578 
L 414.404891 -311.601205 
L 408.339674 -311.237517 
L 402.274457 -310.760149 
L 396.209239 -309.187159 
L 390.144022 -307.361528 
L 384.078804 -307.377708 
L 378.013587 -306.864169 
L 371.94837 -307.324028 
L 365.883152 -307.284619 
L 359.817935 -307.282283 
L 353.752717 -306.645305 
L 347.6875 -304.772849 
L 341.622283 -302.851712 
L 335.557065 -302.420975 
L 329.491848 -302.175459 
L 323.42663 -302.099173 
L 317.361413 -301.229115 
L 311.296196 -300.850075 
L 305.230978 -300.296521 
L 299.165761 -298.621306 
L 293.100543 -297.971865 
L 287.035326 -297.252488 
L 280.970109 -294.670798 
L 274.904891 -292.997491 
L 268.839674 -289.821382 
L 262.774457 -290.081003 
L 256.709239 -285.054181 
L 250.644022 -284.26446 
L 244.578804 -283.652442 
L 238.513587 -280.035227 
L 232.44837 -279.60479 
L 226.383152 -273.652995 
L 220.317935 -271.001638 
L 214.252717 -267.012619 
L 208.1875 -265.826344 
L 202.122283 -264.352808 
L 196.057065 -260.227601 
L 189.991848 -253.423773 
L 183.92663 -248.144824 
L 177.861413 -238.020634 
L 171.796196 -238.688228 
L 165.730978 -235.751271 
L 159.665761 -230.725161 
L 153.600543 -224.260706 
L 147.535326 -216.035925 
L 141.470109 -201.952701 
L 135.404891 -191.998225 
L 129.339674 -180.160479 
L 123.274457 -172.217185 
L 117.209239 -161.842945 
L 111.144022 -150.852839 
L 105.078804 -138.564049 
L 99.013587 -127.742934 
L 92.94837 -110.844685 
L 86.883152 -94.561356 
L 80.817935 -84.62118 
L 74.752717 -75.85162 
L 68.6875 -66.927983 
z
" id="mc258b1cd5f"/>
    </defs>
    <g clip-path="url(#p53d1b4e382)">
     <use style="fill:#ffa035;" x="0" xlink:href="#mc258b1cd5f" y="339.573438"/>
    </g>
   </g>
   <g id="PolyCollection_3">
    <defs>
     <path d="M 68.6875 -66.927983 
L 68.6875 -66.927983 
L 74.752717 -69.435996 
L 80.817935 -75.281246 
L 86.883152 -83.067923 
L 92.94837 -95.858013 
L 99.013587 -109.939399 
L 105.078804 -121.909492 
L 111.144022 -134.243467 
L 117.209239 -144.894965 
L 123.274457 -153.492811 
L 129.339674 -160.487201 
L 135.404891 -171.719848 
L 141.470109 -180.970257 
L 147.535326 -190.966936 
L 153.600543 -198.010978 
L 159.665761 -205.158628 
L 165.730978 -211.087726 
L 171.796196 -215.126839 
L 177.861413 -219.624784 
L 183.92663 -227.501476 
L 189.991848 -231.619428 
L 196.057065 -238.903915 
L 202.122283 -244.458741 
L 208.1875 -247.110644 
L 214.252717 -250.178133 
L 220.317935 -254.727235 
L 226.383152 -257.494341 
L 232.44837 -263.124684 
L 238.513587 -264.276775 
L 244.578804 -268.932348 
L 250.644022 -269.576148 
L 256.709239 -270.702812 
L 262.774457 -276.346468 
L 268.839674 -276.696837 
L 274.904891 -280.011201 
L 280.970109 -281.970702 
L 287.035326 -284.659472 
L 293.100543 -285.901878 
L 299.165761 -287.140227 
L 305.230978 -289.549094 
L 311.296196 -290.837479 
L 317.361413 -292.18756 
L 323.42663 -293.25968 
L 329.491848 -293.233221 
L 335.557065 -293.424873 
L 341.622283 -294.547898 
L 347.6875 -296.716048 
L 353.752717 -297.560043 
L 359.817935 -298.667153 
L 365.883152 -298.473328 
L 371.94837 -298.999979 
L 378.013587 -298.472163 
L 384.078804 -298.919879 
L 390.144022 -299.497969 
L 396.209239 -301.538882 
L 402.274457 -303.005114 
L 408.339674 -303.811674 
L 414.404891 -304.138164 
L 420.470109 -304.712658 
L 426.535326 -304.938832 
L 426.535326 -314.018892 
L 426.535326 -314.018892 
L 420.470109 -313.386695 
L 414.404891 -313.156388 
L 408.339674 -312.746353 
L 402.274457 -312.122205 
L 396.209239 -310.304139 
L 390.144022 -308.71339 
L 384.078804 -308.752345 
L 378.013587 -308.184015 
L 371.94837 -308.850403 
L 365.883152 -309.090576 
L 359.817935 -308.735224 
L 353.752717 -308.399009 
L 347.6875 -306.851275 
L 341.622283 -304.85745 
L 335.557065 -304.557693 
L 329.491848 -303.76703 
L 323.42663 -303.489325 
L 317.361413 -302.938683 
L 311.296196 -302.030593 
L 305.230978 -301.243453 
L 299.165761 -299.402324 
L 293.100543 -298.731413 
L 287.035326 -297.795694 
L 280.970109 -295.20053 
L 274.904891 -294.965019 
L 268.839674 -291.53069 
L 262.774457 -291.775099 
L 256.709239 -288.095281 
L 250.644022 -287.060925 
L 244.578804 -286.860843 
L 238.513587 -281.975565 
L 232.44837 -280.523581 
L 226.383152 -276.211356 
L 220.317935 -273.617781 
L 214.252717 -268.128653 
L 208.1875 -266.155933 
L 202.122283 -263.339196 
L 196.057065 -257.095834 
L 189.991848 -250.294476 
L 183.92663 -244.545566 
L 177.861413 -238.591375 
L 171.796196 -233.630532 
L 165.730978 -230.247104 
L 159.665761 -225.310259 
L 153.600543 -217.879494 
L 147.535326 -208.525968 
L 141.470109 -197.313337 
L 135.404891 -188.016269 
L 129.339674 -177.451066 
L 123.274457 -169.147528 
L 117.209239 -159.008368 
L 111.144022 -150.514924 
L 105.078804 -137.449177 
L 99.013587 -124.770937 
L 92.94837 -109.401155 
L 86.883152 -94.616924 
L 80.817935 -84.238384 
L 74.752717 -74.377722 
L 68.6875 -66.927983 
z
" id="m33e407110e"/>
    </defs>
    <g clip-path="url(#p53d1b4e382)">
     <use style="fill:#47d200;" x="0" xlink:href="#m33e407110e" y="339.573438"/>
    </g>
   </g>
   <g id="matplotlib.axis_1">
    <g id="xtick_1">
     <g id="line2d_1">
      <path clip-path="url(#p53d1b4e382)" d="M 68.6875 285 
L 68.6875 13.2 
" style="fill:none;stroke:#b0b0b0;stroke-linecap:square;stroke-width:0.8;"/>
     </g>
     <g id="line2d_2">
      <defs>
       <path d="M 0 0 
L 0 6 
" id="m3973921d95"/>
      </defs>
      <g>
       <use x="68.6875" xlink:href="#m3973921d95" y="285"/>
      </g>
     </g>
     <g id="text_1">
      <!-- 0 -->
      <defs>
       <path d="M 31.78125 66.40625 
Q 24.171875 66.40625 20.328125 58.90625 
Q 16.5 51.421875 16.5 36.375 
Q 16.5 21.390625 20.328125 13.890625 
Q 24.171875 6.390625 31.78125 6.390625 
Q 39.453125 6.390625 43.28125 13.890625 
Q 47.125 21.390625 47.125 36.375 
Q 47.125 51.421875 43.28125 58.90625 
Q 39.453125 66.40625 31.78125 66.40625 
z
M 31.78125 74.21875 
Q 44.046875 74.21875 50.515625 64.515625 
Q 56.984375 54.828125 56.984375 36.375 
Q 56.984375 17.96875 50.515625 8.265625 
Q 44.046875 -1.421875 31.78125 -1.421875 
Q 19.53125 -1.421875 13.0625 8.265625 
Q 6.59375 17.96875 6.59375 36.375 
Q 6.59375 54.828125 13.0625 64.515625 
Q 19.53125 74.21875 31.78125 74.21875 
z
" id="DejaVuSans-30"/>
      </defs>
      <g transform="translate(63.915625 305.897656)scale(0.15 -0.15)">
       <use xlink:href="#DejaVuSans-30"/>
      </g>
     </g>
    </g>
    <g id="xtick_2">
     <g id="line2d_3">
      <path clip-path="url(#p53d1b4e382)" d="M 129.339674 285 
L 129.339674 13.2 
" style="fill:none;stroke:#b0b0b0;stroke-linecap:square;stroke-width:0.8;"/>
     </g>
     <g id="line2d_4">
      <g>
       <use x="129.339674" xlink:href="#m3973921d95" y="285"/>
      </g>
     </g>
     <g id="text_2">
      <!-- 1 -->
      <defs>
       <path d="M 12.40625 8.296875 
L 28.515625 8.296875 
L 28.515625 63.921875 
L 10.984375 60.40625 
L 10.984375 69.390625 
L 28.421875 72.90625 
L 38.28125 72.90625 
L 38.28125 8.296875 
L 54.390625 8.296875 
L 54.390625 0 
L 12.40625 0 
z
" id="DejaVuSans-31"/>
      </defs>
      <g transform="translate(124.567799 305.897656)scale(0.15 -0.15)">
       <use xlink:href="#DejaVuSans-31"/>
      </g>
     </g>
    </g>
    <g id="xtick_3">
     <g id="line2d_5">
      <path clip-path="url(#p53d1b4e382)" d="M 189.991848 285 
L 189.991848 13.2 
" style="fill:none;stroke:#b0b0b0;stroke-linecap:square;stroke-width:0.8;"/>
     </g>
     <g id="line2d_6">
      <g>
       <use x="189.991848" xlink:href="#m3973921d95" y="285"/>
      </g>
     </g>
     <g id="text_3">
      <!-- 2 -->
      <defs>
       <path d="M 19.1875 8.296875 
L 53.609375 8.296875 
L 53.609375 0 
L 7.328125 0 
L 7.328125 8.296875 
Q 12.9375 14.109375 22.625 23.890625 
Q 32.328125 33.6875 34.8125 36.53125 
Q 39.546875 41.84375 41.421875 45.53125 
Q 43.3125 49.21875 43.3125 52.78125 
Q 43.3125 58.59375 39.234375 62.25 
Q 35.15625 65.921875 28.609375 65.921875 
Q 23.96875 65.921875 18.8125 64.3125 
Q 13.671875 62.703125 7.8125 59.421875 
L 7.8125 69.390625 
Q 13.765625 71.78125 18.9375 73 
Q 24.125 74.21875 28.421875 74.21875 
Q 39.75 74.21875 46.484375 68.546875 
Q 53.21875 62.890625 53.21875 53.421875 
Q 53.21875 48.921875 51.53125 44.890625 
Q 49.859375 40.875 45.40625 35.40625 
Q 44.1875 33.984375 37.640625 27.21875 
Q 31.109375 20.453125 19.1875 8.296875 
z
" id="DejaVuSans-32"/>
      </defs>
      <g transform="translate(185.219973 305.897656)scale(0.15 -0.15)">
       <use xlink:href="#DejaVuSans-32"/>
      </g>
     </g>
    </g>
    <g id="xtick_4">
     <g id="line2d_7">
      <path clip-path="url(#p53d1b4e382)" d="M 250.644022 285 
L 250.644022 13.2 
" style="fill:none;stroke:#b0b0b0;stroke-linecap:square;stroke-width:0.8;"/>
     </g>
     <g id="line2d_8">
      <g>
       <use x="250.644022" xlink:href="#m3973921d95" y="285"/>
      </g>
     </g>
     <g id="text_4">
      <!-- 3 -->
      <defs>
       <path d="M 40.578125 39.3125 
Q 47.65625 37.796875 51.625 33 
Q 55.609375 28.21875 55.609375 21.1875 
Q 55.609375 10.40625 48.1875 4.484375 
Q 40.765625 -1.421875 27.09375 -1.421875 
Q 22.515625 -1.421875 17.65625 -0.515625 
Q 12.796875 0.390625 7.625 2.203125 
L 7.625 11.71875 
Q 11.71875 9.328125 16.59375 8.109375 
Q 21.484375 6.890625 26.8125 6.890625 
Q 36.078125 6.890625 40.9375 10.546875 
Q 45.796875 14.203125 45.796875 21.1875 
Q 45.796875 27.640625 41.28125 31.265625 
Q 36.765625 34.90625 28.71875 34.90625 
L 20.21875 34.90625 
L 20.21875 43.015625 
L 29.109375 43.015625 
Q 36.375 43.015625 40.234375 45.921875 
Q 44.09375 48.828125 44.09375 54.296875 
Q 44.09375 59.90625 40.109375 62.90625 
Q 36.140625 65.921875 28.71875 65.921875 
Q 24.65625 65.921875 20.015625 65.03125 
Q 15.375 64.15625 9.8125 62.3125 
L 9.8125 71.09375 
Q 15.4375 72.65625 20.34375 73.4375 
Q 25.25 74.21875 29.59375 74.21875 
Q 40.828125 74.21875 47.359375 69.109375 
Q 53.90625 64.015625 53.90625 55.328125 
Q 53.90625 49.265625 50.4375 45.09375 
Q 46.96875 40.921875 40.578125 39.3125 
z
" id="DejaVuSans-33"/>
      </defs>
      <g transform="translate(245.872147 305.897656)scale(0.15 -0.15)">
       <use xlink:href="#DejaVuSans-33"/>
      </g>
     </g>
    </g>
    <g id="xtick_5">
     <g id="line2d_9">
      <path clip-path="url(#p53d1b4e382)" d="M 311.296196 285 
L 311.296196 13.2 
" style="fill:none;stroke:#b0b0b0;stroke-linecap:square;stroke-width:0.8;"/>
     </g>
     <g id="line2d_10">
      <g>
       <use x="311.296196" xlink:href="#m3973921d95" y="285"/>
      </g>
     </g>
     <g id="text_5">
      <!-- 4 -->
      <defs>
       <path d="M 37.796875 64.3125 
L 12.890625 25.390625 
L 37.796875 25.390625 
z
M 35.203125 72.90625 
L 47.609375 72.90625 
L 47.609375 25.390625 
L 58.015625 25.390625 
L 58.015625 17.1875 
L 47.609375 17.1875 
L 47.609375 0 
L 37.796875 0 
L 37.796875 17.1875 
L 4.890625 17.1875 
L 4.890625 26.703125 
z
" id="DejaVuSans-34"/>
      </defs>
      <g transform="translate(306.524321 305.897656)scale(0.15 -0.15)">
       <use xlink:href="#DejaVuSans-34"/>
      </g>
     </g>
    </g>
    <g id="xtick_6">
     <g id="line2d_11">
      <path clip-path="url(#p53d1b4e382)" d="M 371.94837 285 
L 371.94837 13.2 
" style="fill:none;stroke:#b0b0b0;stroke-linecap:square;stroke-width:0.8;"/>
     </g>
     <g id="line2d_12">
      <g>
       <use x="371.94837" xlink:href="#m3973921d95" y="285"/>
      </g>
     </g>
     <g id="text_6">
      <!-- 5 -->
      <defs>
       <path d="M 10.796875 72.90625 
L 49.515625 72.90625 
L 49.515625 64.59375 
L 19.828125 64.59375 
L 19.828125 46.734375 
Q 21.96875 47.46875 24.109375 47.828125 
Q 26.265625 48.1875 28.421875 48.1875 
Q 40.625 48.1875 47.75 41.5 
Q 54.890625 34.8125 54.890625 23.390625 
Q 54.890625 11.625 47.5625 5.09375 
Q 40.234375 -1.421875 26.90625 -1.421875 
Q 22.3125 -1.421875 17.546875 -0.640625 
Q 12.796875 0.140625 7.71875 1.703125 
L 7.71875 11.625 
Q 12.109375 9.234375 16.796875 8.0625 
Q 21.484375 6.890625 26.703125 6.890625 
Q 35.15625 6.890625 40.078125 11.328125 
Q 45.015625 15.765625 45.015625 23.390625 
Q 45.015625 31 40.078125 35.4375 
Q 35.15625 39.890625 26.703125 39.890625 
Q 22.75 39.890625 18.8125 39.015625 
Q 14.890625 38.140625 10.796875 36.28125 
z
" id="DejaVuSans-35"/>
      </defs>
      <g transform="translate(367.176495 305.897656)scale(0.15 -0.15)">
       <use xlink:href="#DejaVuSans-35"/>
      </g>
     </g>
    </g>
    <g id="xtick_7">
     <g id="line2d_13">
      <path clip-path="url(#p53d1b4e382)" d="M 432.600543 285 
L 432.600543 13.2 
" style="fill:none;stroke:#b0b0b0;stroke-linecap:square;stroke-width:0.8;"/>
     </g>
     <g id="line2d_14">
      <g>
       <use x="432.600543" xlink:href="#m3973921d95" y="285"/>
      </g>
     </g>
     <g id="text_7">
      <!-- 6 -->
      <defs>
       <path d="M 33.015625 40.375 
Q 26.375 40.375 22.484375 35.828125 
Q 18.609375 31.296875 18.609375 23.390625 
Q 18.609375 15.53125 22.484375 10.953125 
Q 26.375 6.390625 33.015625 6.390625 
Q 39.65625 6.390625 43.53125 10.953125 
Q 47.40625 15.53125 47.40625 23.390625 
Q 47.40625 31.296875 43.53125 35.828125 
Q 39.65625 40.375 33.015625 40.375 
z
M 52.59375 71.296875 
L 52.59375 62.3125 
Q 48.875 64.0625 45.09375 64.984375 
Q 41.3125 65.921875 37.59375 65.921875 
Q 27.828125 65.921875 22.671875 59.328125 
Q 17.53125 52.734375 16.796875 39.40625 
Q 19.671875 43.65625 24.015625 45.921875 
Q 28.375 48.1875 33.59375 48.1875 
Q 44.578125 48.1875 50.953125 41.515625 
Q 57.328125 34.859375 57.328125 23.390625 
Q 57.328125 12.15625 50.6875 5.359375 
Q 44.046875 -1.421875 33.015625 -1.421875 
Q 20.359375 -1.421875 13.671875 8.265625 
Q 6.984375 17.96875 6.984375 36.375 
Q 6.984375 53.65625 15.1875 63.9375 
Q 23.390625 74.21875 37.203125 74.21875 
Q 40.921875 74.21875 44.703125 73.484375 
Q 48.484375 72.75 52.59375 71.296875 
z
" id="DejaVuSans-36"/>
      </defs>
      <g transform="translate(427.828668 305.897656)scale(0.15 -0.15)">
       <use xlink:href="#DejaVuSans-36"/>
      </g>
     </g>
    </g>
    <g id="text_8">
     <!-- $t/\tau$ -->
     <defs>
      <path d="M 42.28125 54.6875 
L 40.921875 47.703125 
L 23 47.703125 
L 17.1875 18.015625 
Q 16.890625 16.359375 16.75 15.234375 
Q 16.609375 14.109375 16.609375 13.484375 
Q 16.609375 10.359375 18.484375 8.9375 
Q 20.359375 7.515625 24.515625 7.515625 
L 33.59375 7.515625 
L 32.078125 0 
L 23.484375 0 
Q 15.484375 0 11.546875 3.125 
Q 7.625 6.25 7.625 12.59375 
Q 7.625 13.71875 7.765625 15.0625 
Q 7.90625 16.40625 8.203125 18.015625 
L 14.015625 47.703125 
L 6.390625 47.703125 
L 7.8125 54.6875 
L 15.28125 54.6875 
L 18.3125 70.21875 
L 27.296875 70.21875 
L 24.3125 54.6875 
z
" id="DejaVuSans-Oblique-74"/>
      <path d="M 25.390625 72.90625 
L 33.6875 72.90625 
L 8.296875 -9.28125 
L 0 -9.28125 
z
" id="DejaVuSans-2f"/>
      <path d="M 32.859375 9.96875 
Q 34.1875 7.625 39.453125 7.625 
L 43.75 7.625 
L 42.28125 0 
L 36.921875 0 
Q 28.125 0 25 4.6875 
Q 21.921875 9.46875 23.96875 19.828125 
L 29 45.703125 
L 8.453125 45.703125 
L 10.203125 54.6875 
L 60.640625 54.6875 
L 58.890625 45.703125 
L 38.1875 45.703125 
L 33.015625 19.28125 
Q 31.640625 12.203125 32.859375 9.96875 
z
" id="DejaVuSans-Oblique-3c4"/>
     </defs>
     <g transform="translate(237.244022 328.214063)scale(0.2 -0.2)">
      <use transform="translate(0 0.09375)" xlink:href="#DejaVuSans-Oblique-74"/>
      <use transform="translate(39.208984 0.09375)" xlink:href="#DejaVuSans-2f"/>
      <use transform="translate(72.900391 0.09375)" xlink:href="#DejaVuSans-Oblique-3c4"/>
     </g>
    </g>
   </g>
   <g id="matplotlib.axis_2">
    <g id="ytick_1">
     <g id="line2d_15">
      <path clip-path="url(#p53d1b4e382)" d="M 68.6875 272.645455 
L 432.600543 272.645455 
" style="fill:none;stroke:#b0b0b0;stroke-linecap:square;stroke-width:0.8;"/>
     </g>
     <g id="line2d_16">
      <defs>
       <path d="M 0 0 
L -6 0 
" id="mdb71333e49"/>
      </defs>
      <g>
       <use x="68.6875" xlink:href="#mdb71333e49" y="272.645455"/>
      </g>
     </g>
     <g id="text_9">
      <!-- 50 -->
      <g transform="translate(40.1 278.344283)scale(0.15 -0.15)">
       <use xlink:href="#DejaVuSans-35"/>
       <use x="63.623047" xlink:href="#DejaVuSans-30"/>
      </g>
     </g>
    </g>
    <g id="ytick_2">
     <g id="line2d_17">
      <path clip-path="url(#p53d1b4e382)" d="M 68.6875 223.649978 
L 432.600543 223.649978 
" style="fill:none;stroke:#b0b0b0;stroke-linecap:square;stroke-width:0.8;"/>
     </g>
     <g id="line2d_18">
      <g>
       <use x="68.6875" xlink:href="#mdb71333e49" y="223.649978"/>
      </g>
     </g>
     <g id="text_10">
      <!-- 60 -->
      <g transform="translate(40.1 229.348806)scale(0.15 -0.15)">
       <use xlink:href="#DejaVuSans-36"/>
       <use x="63.623047" xlink:href="#DejaVuSans-30"/>
      </g>
     </g>
    </g>
    <g id="ytick_3">
     <g id="line2d_19">
      <path clip-path="url(#p53d1b4e382)" d="M 68.6875 174.654502 
L 432.600543 174.654502 
" style="fill:none;stroke:#b0b0b0;stroke-linecap:square;stroke-width:0.8;"/>
     </g>
     <g id="line2d_20">
      <g>
       <use x="68.6875" xlink:href="#mdb71333e49" y="174.654502"/>
      </g>
     </g>
     <g id="text_11">
      <!-- 70 -->
      <defs>
       <path d="M 8.203125 72.90625 
L 55.078125 72.90625 
L 55.078125 68.703125 
L 28.609375 0 
L 18.3125 0 
L 43.21875 64.59375 
L 8.203125 64.59375 
z
" id="DejaVuSans-37"/>
      </defs>
      <g transform="translate(40.1 180.35333)scale(0.15 -0.15)">
       <use xlink:href="#DejaVuSans-37"/>
       <use x="63.623047" xlink:href="#DejaVuSans-30"/>
      </g>
     </g>
    </g>
    <g id="ytick_4">
     <g id="line2d_21">
      <path clip-path="url(#p53d1b4e382)" d="M 68.6875 125.659026 
L 432.600543 125.659026 
" style="fill:none;stroke:#b0b0b0;stroke-linecap:square;stroke-width:0.8;"/>
     </g>
     <g id="line2d_22">
      <g>
       <use x="68.6875" xlink:href="#mdb71333e49" y="125.659026"/>
      </g>
     </g>
     <g id="text_12">
      <!-- 80 -->
      <defs>
       <path d="M 31.78125 34.625 
Q 24.75 34.625 20.71875 30.859375 
Q 16.703125 27.09375 16.703125 20.515625 
Q 16.703125 13.921875 20.71875 10.15625 
Q 24.75 6.390625 31.78125 6.390625 
Q 38.8125 6.390625 42.859375 10.171875 
Q 46.921875 13.96875 46.921875 20.515625 
Q 46.921875 27.09375 42.890625 30.859375 
Q 38.875 34.625 31.78125 34.625 
z
M 21.921875 38.8125 
Q 15.578125 40.375 12.03125 44.71875 
Q 8.5 49.078125 8.5 55.328125 
Q 8.5 64.0625 14.71875 69.140625 
Q 20.953125 74.21875 31.78125 74.21875 
Q 42.671875 74.21875 48.875 69.140625 
Q 55.078125 64.0625 55.078125 55.328125 
Q 55.078125 49.078125 51.53125 44.71875 
Q 48 40.375 41.703125 38.8125 
Q 48.828125 37.15625 52.796875 32.3125 
Q 56.78125 27.484375 56.78125 20.515625 
Q 56.78125 9.90625 50.3125 4.234375 
Q 43.84375 -1.421875 31.78125 -1.421875 
Q 19.734375 -1.421875 13.25 4.234375 
Q 6.78125 9.90625 6.78125 20.515625 
Q 6.78125 27.484375 10.78125 32.3125 
Q 14.796875 37.15625 21.921875 38.8125 
z
M 18.3125 54.390625 
Q 18.3125 48.734375 21.84375 45.5625 
Q 25.390625 42.390625 31.78125 42.390625 
Q 38.140625 42.390625 41.71875 45.5625 
Q 45.3125 48.734375 45.3125 54.390625 
Q 45.3125 60.0625 41.71875 63.234375 
Q 38.140625 66.40625 31.78125 66.40625 
Q 25.390625 66.40625 21.84375 63.234375 
Q 18.3125 60.0625 18.3125 54.390625 
z
" id="DejaVuSans-38"/>
      </defs>
      <g transform="translate(40.1 131.357854)scale(0.15 -0.15)">
       <use xlink:href="#DejaVuSans-38"/>
       <use x="63.623047" xlink:href="#DejaVuSans-30"/>
      </g>
     </g>
    </g>
    <g id="ytick_5">
     <g id="line2d_23">
      <path clip-path="url(#p53d1b4e382)" d="M 68.6875 76.66355 
L 432.600543 76.66355 
" style="fill:none;stroke:#b0b0b0;stroke-linecap:square;stroke-width:0.8;"/>
     </g>
     <g id="line2d_24">
      <g>
       <use x="68.6875" xlink:href="#mdb71333e49" y="76.66355"/>
      </g>
     </g>
     <g id="text_13">
      <!-- 90 -->
      <defs>
       <path d="M 10.984375 1.515625 
L 10.984375 10.5 
Q 14.703125 8.734375 18.5 7.8125 
Q 22.3125 6.890625 25.984375 6.890625 
Q 35.75 6.890625 40.890625 13.453125 
Q 46.046875 20.015625 46.78125 33.40625 
Q 43.953125 29.203125 39.59375 26.953125 
Q 35.25 24.703125 29.984375 24.703125 
Q 19.046875 24.703125 12.671875 31.3125 
Q 6.296875 37.9375 6.296875 49.421875 
Q 6.296875 60.640625 12.9375 67.421875 
Q 19.578125 74.21875 30.609375 74.21875 
Q 43.265625 74.21875 49.921875 64.515625 
Q 56.59375 54.828125 56.59375 36.375 
Q 56.59375 19.140625 48.40625 8.859375 
Q 40.234375 -1.421875 26.421875 -1.421875 
Q 22.703125 -1.421875 18.890625 -0.6875 
Q 15.09375 0.046875 10.984375 1.515625 
z
M 30.609375 32.421875 
Q 37.25 32.421875 41.125 36.953125 
Q 45.015625 41.5 45.015625 49.421875 
Q 45.015625 57.28125 41.125 61.84375 
Q 37.25 66.40625 30.609375 66.40625 
Q 23.96875 66.40625 20.09375 61.84375 
Q 16.21875 57.28125 16.21875 49.421875 
Q 16.21875 41.5 20.09375 36.953125 
Q 23.96875 32.421875 30.609375 32.421875 
z
" id="DejaVuSans-39"/>
      </defs>
      <g transform="translate(40.1 82.362378)scale(0.15 -0.15)">
       <use xlink:href="#DejaVuSans-39"/>
       <use x="63.623047" xlink:href="#DejaVuSans-30"/>
      </g>
     </g>
    </g>
    <g id="ytick_6">
     <g id="line2d_25">
      <path clip-path="url(#p53d1b4e382)" d="M 68.6875 27.668073 
L 432.600543 27.668073 
" style="fill:none;stroke:#b0b0b0;stroke-linecap:square;stroke-width:0.8;"/>
     </g>
     <g id="line2d_26">
      <g>
       <use x="68.6875" xlink:href="#mdb71333e49" y="27.668073"/>
      </g>
     </g>
     <g id="text_14">
      <!-- 100 -->
      <g transform="translate(30.55625 33.366902)scale(0.15 -0.15)">
       <use xlink:href="#DejaVuSans-31"/>
       <use x="63.623047" xlink:href="#DejaVuSans-30"/>
       <use x="127.246094" xlink:href="#DejaVuSans-30"/>
      </g>
     </g>
    </g>
    <g id="text_15">
     <!-- $p$ -->
     <defs>
      <path d="M 49.609375 33.6875 
Q 49.609375 40.875 46.484375 44.671875 
Q 43.359375 48.484375 37.5 48.484375 
Q 33.5 48.484375 29.859375 46.4375 
Q 26.21875 44.390625 23.390625 40.484375 
Q 20.609375 36.625 18.9375 31.15625 
Q 17.28125 25.6875 17.28125 20.3125 
Q 17.28125 13.484375 20.40625 9.796875 
Q 23.53125 6.109375 29.296875 6.109375 
Q 33.546875 6.109375 37.1875 8.109375 
Q 40.828125 10.109375 43.40625 13.921875 
Q 46.1875 17.921875 47.890625 23.34375 
Q 49.609375 28.765625 49.609375 33.6875 
z
M 21.78125 46.390625 
Q 25.390625 51.125 30.296875 53.5625 
Q 35.203125 56 41.21875 56 
Q 49.609375 56 54.25 50.5 
Q 58.890625 45.015625 58.890625 35.109375 
Q 58.890625 27 56 19.65625 
Q 53.125 12.3125 47.703125 6.5 
Q 44.09375 2.640625 39.546875 0.609375 
Q 35.015625 -1.421875 29.984375 -1.421875 
Q 24.171875 -1.421875 20.21875 1 
Q 16.265625 3.421875 14.3125 8.203125 
L 8.6875 -20.796875 
L -0.296875 -20.796875 
L 14.40625 54.6875 
L 23.390625 54.6875 
z
" id="DejaVuSans-Oblique-70"/>
     </defs>
     <g transform="translate(22.35625 155.5)rotate(-90)scale(0.2 -0.2)">
      <use xlink:href="#DejaVuSans-Oblique-70"/>
     </g>
    </g>
   </g>
   <g id="line2d_27">
    <path clip-path="url(#p53d1b4e382)" d="M 68.6875 272.645455 
L 74.752717 270.216527 
L 80.817935 262.246296 
L 86.883152 252.182878 
L 92.94837 241.898229 
L 99.013587 230.380872 
L 105.078804 218.668693 
L 111.144022 206.890806 
L 117.209239 194.648573 
L 123.274457 183.790616 
L 129.339674 173.721159 
L 135.404891 163.763721 
L 141.470109 154.922741 
L 147.535326 146.252065 
L 153.600543 137.957546 
L 159.665761 130.67942 
L 165.730978 123.870928 
L 171.796196 117.652675 
L 177.861413 111.034699 
L 183.92663 104.86897 
L 189.991848 100.111609 
L 196.057065 94.963585 
L 202.122283 90.099748 
L 208.1875 86.74211 
L 214.252717 83.34902 
L 220.317935 78.202619 
L 226.383152 73.72121 
L 232.44837 71.116944 
L 238.513587 68.854214 
L 244.578804 66.204378 
L 250.644022 63.62226 
L 256.709239 60.601248 
L 262.774457 57.929257 
L 268.839674 55.572377 
L 274.904891 52.795292 
L 280.970109 50.415168 
L 287.035326 48.99588 
L 293.100543 46.468508 
L 299.165761 45.586264 
L 305.230978 44.1034 
L 311.296196 42.881282 
L 317.361413 41.822949 
L 323.42663 40.224546 
L 329.491848 39.3075 
L 335.557065 37.784863 
L 341.622283 36.640768 
L 347.6875 34.570091 
L 353.752717 34.304156 
L 359.817935 33.924164 
L 365.883152 34.519982 
L 371.94837 34.008232 
L 378.013587 33.821818 
L 384.078804 32.965029 
L 390.144022 31.906341 
L 396.209239 32.224432 
L 402.274457 32.454811 
L 408.339674 32.009175 
L 414.404891 32.530762 
L 420.470109 32.489027 
L 426.535326 33.066084 
" style="fill:none;stroke:#1f77b4;stroke-linecap:square;stroke-width:3;"/>
   </g>
   <g id="line2d_28">
    <path clip-path="url(#p53d1b4e382)" d="M 68.6875 272.645455 
L 74.752717 267.395296 
L 80.817935 259.844488 
L 86.883152 250.95158 
L 92.94837 235.14722 
L 99.013587 219.931829 
L 105.078804 209.134909 
L 111.144022 196.720011 
L 117.209239 185.833049 
L 123.274457 175.794476 
L 129.339674 168.342905 
L 135.404891 156.790093 
L 141.470109 147.385935 
L 147.535326 134.154882 
L 153.600543 126.866737 
L 159.665761 120.156167 
L 165.730978 114.792996 
L 171.796196 112.103916 
L 177.861413 111.254485 
L 183.92663 102.262455 
L 189.991848 96.083173 
L 196.057065 89.294691 
L 202.122283 84.856449 
L 208.1875 83.058885 
L 214.252717 81.721345 
L 220.317935 77.345127 
L 226.383152 74.731897 
L 232.44837 68.814694 
L 238.513587 67.531753 
L 244.578804 63.592148 
L 250.644022 63.108452 
L 256.709239 62.10932 
L 262.774457 56.653828 
L 268.839674 56.588777 
L 274.904891 53.034301 
L 280.970109 50.873661 
L 287.035326 48.505209 
L 293.100543 47.090051 
L 299.165761 46.84515 
L 305.230978 44.766474 
L 311.296196 43.999834 
L 317.361413 43.192749 
L 323.42663 42.298147 
L 329.491848 42.148636 
L 335.557065 41.662346 
L 341.622283 40.928134 
L 347.6875 38.861943 
L 353.752717 37.021904 
L 359.817935 36.214435 
L 365.883152 36.073948 
L 371.94837 35.859984 
L 378.013587 36.378403 
L 384.078804 35.527177 
L 390.144022 35.357302 
L 396.209239 33.471836 
L 402.274457 31.7009 
L 408.339674 31.162397 
L 414.404891 30.683911 
L 420.470109 30.351546 
L 426.535326 29.901824 
" style="fill:none;stroke:#ff7f0e;stroke-linecap:square;stroke-width:3;"/>
   </g>
   <g id="line2d_29">
    <path clip-path="url(#p53d1b4e382)" d="M 68.6875 272.645455 
L 74.752717 267.666578 
L 80.817935 259.813622 
L 86.883152 250.731014 
L 92.94837 236.943854 
L 99.013587 222.218269 
L 105.078804 209.894103 
L 111.144022 197.194242 
L 117.209239 187.621771 
L 123.274457 178.253268 
L 129.339674 170.604304 
L 135.404891 159.705379 
L 141.470109 150.431641 
L 147.535326 139.826986 
L 153.600543 131.628201 
L 159.665761 124.338994 
L 165.730978 118.906022 
L 171.796196 115.194752 
L 177.861413 110.465358 
L 183.92663 103.549916 
L 189.991848 98.616485 
L 196.057065 91.573563 
L 202.122283 85.674469 
L 208.1875 82.940149 
L 214.252717 80.420044 
L 220.317935 75.40093 
L 226.383152 72.720589 
L 232.44837 67.749305 
L 238.513587 66.447267 
L 244.578804 61.676842 
L 250.644022 61.254901 
L 256.709239 60.174391 
L 262.774457 55.512654 
L 268.839674 55.459674 
L 274.904891 52.085328 
L 280.970109 50.987821 
L 287.035326 48.345854 
L 293.100543 47.256792 
L 299.165761 46.302162 
L 305.230978 44.177164 
L 311.296196 43.139402 
L 317.361413 42.010316 
L 323.42663 41.198935 
L 329.491848 41.073312 
L 335.557065 40.582154 
L 341.622283 39.870764 
L 347.6875 37.789776 
L 353.752717 36.593912 
L 359.817935 35.872249 
L 365.883152 35.791485 
L 371.94837 35.648246 
L 378.013587 36.245349 
L 384.078804 35.737326 
L 390.144022 35.467758 
L 396.209239 33.651927 
L 402.274457 32.009778 
L 408.339674 31.294424 
L 414.404891 30.926162 
L 420.470109 30.523761 
L 426.535326 30.094576 
" style="fill:none;stroke:#2ca02c;stroke-linecap:square;stroke-width:3;"/>
   </g>
   <g id="patch_3">
    <path d="M 68.6875 285 
L 68.6875 13.2 
" style="fill:none;stroke:#000000;stroke-linecap:square;stroke-linejoin:miter;stroke-width:2;"/>
   </g>
   <g id="patch_4">
    <path d="M 432.600543 285 
L 432.600543 13.2 
" style="fill:none;"/>
   </g>
   <g id="patch_5">
    <path d="M 68.6875 285 
L 432.600543 285 
" style="fill:none;stroke:#000000;stroke-linecap:square;stroke-linejoin:miter;stroke-width:2;"/>
   </g>
   <g id="patch_6">
    <path d="M 68.6875 13.2 
L 432.600543 13.2 
" style="fill:none;"/>
   </g>
   <g id="legend_1">
    <g id="patch_7">
     <path d="M 212.0607 277.5 
L 422.100543 277.5 
Q 425.100543 277.5 425.100543 274.5 
L 425.100543 209.948438 
Q 425.100543 206.948438 422.100543 206.948438 
L 212.0607 206.948438 
Q 209.0607 206.948438 209.0607 209.948438 
L 209.0607 274.5 
Q 209.0607 277.5 212.0607 277.5 
z
" style="fill:#ffffff;opacity:0.8;stroke:#cccccc;stroke-linejoin:miter;"/>
    </g>
    <g id="line2d_30">
     <path d="M 215.0607 219.096094 
L 245.0607 219.096094 
" style="fill:none;stroke:#1f77b4;stroke-linecap:square;stroke-width:3;"/>
    </g>
    <g id="line2d_31"/>
    <g id="text_16">
     <!-- Single Lineage -->
     <defs>
      <path d="M 53.515625 70.515625 
L 53.515625 60.890625 
Q 47.90625 63.578125 42.921875 64.890625 
Q 37.9375 66.21875 33.296875 66.21875 
Q 25.25 66.21875 20.875 63.09375 
Q 16.5 59.96875 16.5 54.203125 
Q 16.5 49.359375 19.40625 46.890625 
Q 22.3125 44.4375 30.421875 42.921875 
L 36.375 41.703125 
Q 47.40625 39.59375 52.65625 34.296875 
Q 57.90625 29 57.90625 20.125 
Q 57.90625 9.515625 50.796875 4.046875 
Q 43.703125 -1.421875 29.984375 -1.421875 
Q 24.8125 -1.421875 18.96875 -0.25 
Q 13.140625 0.921875 6.890625 3.21875 
L 6.890625 13.375 
Q 12.890625 10.015625 18.65625 8.296875 
Q 24.421875 6.59375 29.984375 6.59375 
Q 38.421875 6.59375 43.015625 9.90625 
Q 47.609375 13.234375 47.609375 19.390625 
Q 47.609375 24.75 44.3125 27.78125 
Q 41.015625 30.8125 33.5 32.328125 
L 27.484375 33.5 
Q 16.453125 35.6875 11.515625 40.375 
Q 6.59375 45.0625 6.59375 53.421875 
Q 6.59375 63.09375 13.40625 68.65625 
Q 20.21875 74.21875 32.171875 74.21875 
Q 37.3125 74.21875 42.625 73.28125 
Q 47.953125 72.359375 53.515625 70.515625 
z
" id="DejaVuSans-53"/>
      <path d="M 9.421875 54.6875 
L 18.40625 54.6875 
L 18.40625 0 
L 9.421875 0 
z
M 9.421875 75.984375 
L 18.40625 75.984375 
L 18.40625 64.59375 
L 9.421875 64.59375 
z
" id="DejaVuSans-69"/>
      <path d="M 54.890625 33.015625 
L 54.890625 0 
L 45.90625 0 
L 45.90625 32.71875 
Q 45.90625 40.484375 42.875 44.328125 
Q 39.84375 48.1875 33.796875 48.1875 
Q 26.515625 48.1875 22.3125 43.546875 
Q 18.109375 38.921875 18.109375 30.90625 
L 18.109375 0 
L 9.078125 0 
L 9.078125 54.6875 
L 18.109375 54.6875 
L 18.109375 46.1875 
Q 21.34375 51.125 25.703125 53.5625 
Q 30.078125 56 35.796875 56 
Q 45.21875 56 50.046875 50.171875 
Q 54.890625 44.34375 54.890625 33.015625 
z
" id="DejaVuSans-6e"/>
      <path d="M 45.40625 27.984375 
Q 45.40625 37.75 41.375 43.109375 
Q 37.359375 48.484375 30.078125 48.484375 
Q 22.859375 48.484375 18.828125 43.109375 
Q 14.796875 37.75 14.796875 27.984375 
Q 14.796875 18.265625 18.828125 12.890625 
Q 22.859375 7.515625 30.078125 7.515625 
Q 37.359375 7.515625 41.375 12.890625 
Q 45.40625 18.265625 45.40625 27.984375 
z
M 54.390625 6.78125 
Q 54.390625 -7.171875 48.1875 -13.984375 
Q 42 -20.796875 29.203125 -20.796875 
Q 24.46875 -20.796875 20.265625 -20.09375 
Q 16.0625 -19.390625 12.109375 -17.921875 
L 12.109375 -9.1875 
Q 16.0625 -11.328125 19.921875 -12.34375 
Q 23.78125 -13.375 27.78125 -13.375 
Q 36.625 -13.375 41.015625 -8.765625 
Q 45.40625 -4.15625 45.40625 5.171875 
L 45.40625 9.625 
Q 42.625 4.78125 38.28125 2.390625 
Q 33.9375 0 27.875 0 
Q 17.828125 0 11.671875 7.65625 
Q 5.515625 15.328125 5.515625 27.984375 
Q 5.515625 40.671875 11.671875 48.328125 
Q 17.828125 56 27.875 56 
Q 33.9375 56 38.28125 53.609375 
Q 42.625 51.21875 45.40625 46.390625 
L 45.40625 54.6875 
L 54.390625 54.6875 
z
" id="DejaVuSans-67"/>
      <path d="M 9.421875 75.984375 
L 18.40625 75.984375 
L 18.40625 0 
L 9.421875 0 
z
" id="DejaVuSans-6c"/>
      <path d="M 56.203125 29.59375 
L 56.203125 25.203125 
L 14.890625 25.203125 
Q 15.484375 15.921875 20.484375 11.0625 
Q 25.484375 6.203125 34.421875 6.203125 
Q 39.59375 6.203125 44.453125 7.46875 
Q 49.3125 8.734375 54.109375 11.28125 
L 54.109375 2.78125 
Q 49.265625 0.734375 44.1875 -0.34375 
Q 39.109375 -1.421875 33.890625 -1.421875 
Q 20.796875 -1.421875 13.15625 6.1875 
Q 5.515625 13.8125 5.515625 26.8125 
Q 5.515625 40.234375 12.765625 48.109375 
Q 20.015625 56 32.328125 56 
Q 43.359375 56 49.78125 48.890625 
Q 56.203125 41.796875 56.203125 29.59375 
z
M 47.21875 32.234375 
Q 47.125 39.59375 43.09375 43.984375 
Q 39.0625 48.390625 32.421875 48.390625 
Q 24.90625 48.390625 20.390625 44.140625 
Q 15.875 39.890625 15.1875 32.171875 
z
" id="DejaVuSans-65"/>
      <path id="DejaVuSans-20"/>
      <path d="M 9.8125 72.90625 
L 19.671875 72.90625 
L 19.671875 8.296875 
L 55.171875 8.296875 
L 55.171875 0 
L 9.8125 0 
z
" id="DejaVuSans-4c"/>
      <path d="M 34.28125 27.484375 
Q 23.390625 27.484375 19.1875 25 
Q 14.984375 22.515625 14.984375 16.5 
Q 14.984375 11.71875 18.140625 8.90625 
Q 21.296875 6.109375 26.703125 6.109375 
Q 34.1875 6.109375 38.703125 11.40625 
Q 43.21875 16.703125 43.21875 25.484375 
L 43.21875 27.484375 
z
M 52.203125 31.203125 
L 52.203125 0 
L 43.21875 0 
L 43.21875 8.296875 
Q 40.140625 3.328125 35.546875 0.953125 
Q 30.953125 -1.421875 24.3125 -1.421875 
Q 15.921875 -1.421875 10.953125 3.296875 
Q 6 8.015625 6 15.921875 
Q 6 25.140625 12.171875 29.828125 
Q 18.359375 34.515625 30.609375 34.515625 
L 43.21875 34.515625 
L 43.21875 35.40625 
Q 43.21875 41.609375 39.140625 45 
Q 35.0625 48.390625 27.6875 48.390625 
Q 23 48.390625 18.546875 47.265625 
Q 14.109375 46.140625 10.015625 43.890625 
L 10.015625 52.203125 
Q 14.9375 54.109375 19.578125 55.046875 
Q 24.21875 56 28.609375 56 
Q 40.484375 56 46.34375 49.84375 
Q 52.203125 43.703125 52.203125 31.203125 
z
" id="DejaVuSans-61"/>
     </defs>
     <g transform="translate(257.0607 224.346094)scale(0.15 -0.15)">
      <use xlink:href="#DejaVuSans-53"/>
      <use x="63.476562" xlink:href="#DejaVuSans-69"/>
      <use x="91.259766" xlink:href="#DejaVuSans-6e"/>
      <use x="154.638672" xlink:href="#DejaVuSans-67"/>
      <use x="218.115234" xlink:href="#DejaVuSans-6c"/>
      <use x="245.898438" xlink:href="#DejaVuSans-65"/>
      <use x="307.421875" xlink:href="#DejaVuSans-20"/>
      <use x="339.208984" xlink:href="#DejaVuSans-4c"/>
      <use x="394.921875" xlink:href="#DejaVuSans-69"/>
      <use x="422.705078" xlink:href="#DejaVuSans-6e"/>
      <use x="486.083984" xlink:href="#DejaVuSans-65"/>
      <use x="547.607422" xlink:href="#DejaVuSans-61"/>
      <use x="608.886719" xlink:href="#DejaVuSans-67"/>
      <use x="672.363281" xlink:href="#DejaVuSans-65"/>
     </g>
    </g>
    <g id="line2d_32">
     <path d="M 215.0607 241.113281 
L 245.0607 241.113281 
" style="fill:none;stroke:#ff7f0e;stroke-linecap:square;stroke-width:3;"/>
    </g>
    <g id="line2d_33"/>
    <g id="text_17">
     <!-- Population Snapshots -->
     <defs>
      <path d="M 19.671875 64.796875 
L 19.671875 37.40625 
L 32.078125 37.40625 
Q 38.96875 37.40625 42.71875 40.96875 
Q 46.484375 44.53125 46.484375 51.125 
Q 46.484375 57.671875 42.71875 61.234375 
Q 38.96875 64.796875 32.078125 64.796875 
z
M 9.8125 72.90625 
L 32.078125 72.90625 
Q 44.34375 72.90625 50.609375 67.359375 
Q 56.890625 61.8125 56.890625 51.125 
Q 56.890625 40.328125 50.609375 34.8125 
Q 44.34375 29.296875 32.078125 29.296875 
L 19.671875 29.296875 
L 19.671875 0 
L 9.8125 0 
z
" id="DejaVuSans-50"/>
      <path d="M 30.609375 48.390625 
Q 23.390625 48.390625 19.1875 42.75 
Q 14.984375 37.109375 14.984375 27.296875 
Q 14.984375 17.484375 19.15625 11.84375 
Q 23.34375 6.203125 30.609375 6.203125 
Q 37.796875 6.203125 41.984375 11.859375 
Q 46.1875 17.53125 46.1875 27.296875 
Q 46.1875 37.015625 41.984375 42.703125 
Q 37.796875 48.390625 30.609375 48.390625 
z
M 30.609375 56 
Q 42.328125 56 49.015625 48.375 
Q 55.71875 40.765625 55.71875 27.296875 
Q 55.71875 13.875 49.015625 6.21875 
Q 42.328125 -1.421875 30.609375 -1.421875 
Q 18.84375 -1.421875 12.171875 6.21875 
Q 5.515625 13.875 5.515625 27.296875 
Q 5.515625 40.765625 12.171875 48.375 
Q 18.84375 56 30.609375 56 
z
" id="DejaVuSans-6f"/>
      <path d="M 18.109375 8.203125 
L 18.109375 -20.796875 
L 9.078125 -20.796875 
L 9.078125 54.6875 
L 18.109375 54.6875 
L 18.109375 46.390625 
Q 20.953125 51.265625 25.265625 53.625 
Q 29.59375 56 35.59375 56 
Q 45.5625 56 51.78125 48.09375 
Q 58.015625 40.1875 58.015625 27.296875 
Q 58.015625 14.40625 51.78125 6.484375 
Q 45.5625 -1.421875 35.59375 -1.421875 
Q 29.59375 -1.421875 25.265625 0.953125 
Q 20.953125 3.328125 18.109375 8.203125 
z
M 48.6875 27.296875 
Q 48.6875 37.203125 44.609375 42.84375 
Q 40.53125 48.484375 33.40625 48.484375 
Q 26.265625 48.484375 22.1875 42.84375 
Q 18.109375 37.203125 18.109375 27.296875 
Q 18.109375 17.390625 22.1875 11.75 
Q 26.265625 6.109375 33.40625 6.109375 
Q 40.53125 6.109375 44.609375 11.75 
Q 48.6875 17.390625 48.6875 27.296875 
z
" id="DejaVuSans-70"/>
      <path d="M 8.5 21.578125 
L 8.5 54.6875 
L 17.484375 54.6875 
L 17.484375 21.921875 
Q 17.484375 14.15625 20.5 10.265625 
Q 23.53125 6.390625 29.59375 6.390625 
Q 36.859375 6.390625 41.078125 11.03125 
Q 45.3125 15.671875 45.3125 23.6875 
L 45.3125 54.6875 
L 54.296875 54.6875 
L 54.296875 0 
L 45.3125 0 
L 45.3125 8.40625 
Q 42.046875 3.421875 37.71875 1 
Q 33.40625 -1.421875 27.6875 -1.421875 
Q 18.265625 -1.421875 13.375 4.4375 
Q 8.5 10.296875 8.5 21.578125 
z
M 31.109375 56 
z
" id="DejaVuSans-75"/>
      <path d="M 18.3125 70.21875 
L 18.3125 54.6875 
L 36.8125 54.6875 
L 36.8125 47.703125 
L 18.3125 47.703125 
L 18.3125 18.015625 
Q 18.3125 11.328125 20.140625 9.421875 
Q 21.96875 7.515625 27.59375 7.515625 
L 36.8125 7.515625 
L 36.8125 0 
L 27.59375 0 
Q 17.1875 0 13.234375 3.875 
Q 9.28125 7.765625 9.28125 18.015625 
L 9.28125 47.703125 
L 2.6875 47.703125 
L 2.6875 54.6875 
L 9.28125 54.6875 
L 9.28125 70.21875 
z
" id="DejaVuSans-74"/>
      <path d="M 44.28125 53.078125 
L 44.28125 44.578125 
Q 40.484375 46.53125 36.375 47.5 
Q 32.28125 48.484375 27.875 48.484375 
Q 21.1875 48.484375 17.84375 46.4375 
Q 14.5 44.390625 14.5 40.28125 
Q 14.5 37.15625 16.890625 35.375 
Q 19.28125 33.59375 26.515625 31.984375 
L 29.59375 31.296875 
Q 39.15625 29.25 43.1875 25.515625 
Q 47.21875 21.78125 47.21875 15.09375 
Q 47.21875 7.46875 41.1875 3.015625 
Q 35.15625 -1.421875 24.609375 -1.421875 
Q 20.21875 -1.421875 15.453125 -0.5625 
Q 10.6875 0.296875 5.421875 2 
L 5.421875 11.28125 
Q 10.40625 8.6875 15.234375 7.390625 
Q 20.0625 6.109375 24.8125 6.109375 
Q 31.15625 6.109375 34.5625 8.28125 
Q 37.984375 10.453125 37.984375 14.40625 
Q 37.984375 18.0625 35.515625 20.015625 
Q 33.0625 21.96875 24.703125 23.78125 
L 21.578125 24.515625 
Q 13.234375 26.265625 9.515625 29.90625 
Q 5.8125 33.546875 5.8125 39.890625 
Q 5.8125 47.609375 11.28125 51.796875 
Q 16.75 56 26.8125 56 
Q 31.78125 56 36.171875 55.265625 
Q 40.578125 54.546875 44.28125 53.078125 
z
" id="DejaVuSans-73"/>
      <path d="M 54.890625 33.015625 
L 54.890625 0 
L 45.90625 0 
L 45.90625 32.71875 
Q 45.90625 40.484375 42.875 44.328125 
Q 39.84375 48.1875 33.796875 48.1875 
Q 26.515625 48.1875 22.3125 43.546875 
Q 18.109375 38.921875 18.109375 30.90625 
L 18.109375 0 
L 9.078125 0 
L 9.078125 75.984375 
L 18.109375 75.984375 
L 18.109375 46.1875 
Q 21.34375 51.125 25.703125 53.5625 
Q 30.078125 56 35.796875 56 
Q 45.21875 56 50.046875 50.171875 
Q 54.890625 44.34375 54.890625 33.015625 
z
" id="DejaVuSans-68"/>
     </defs>
     <g transform="translate(257.0607 246.363281)scale(0.15 -0.15)">
      <use xlink:href="#DejaVuSans-50"/>
      <use x="60.255859" xlink:href="#DejaVuSans-6f"/>
      <use x="121.4375" xlink:href="#DejaVuSans-70"/>
      <use x="184.914062" xlink:href="#DejaVuSans-75"/>
      <use x="248.292969" xlink:href="#DejaVuSans-6c"/>
      <use x="276.076172" xlink:href="#DejaVuSans-61"/>
      <use x="337.355469" xlink:href="#DejaVuSans-74"/>
      <use x="376.564453" xlink:href="#DejaVuSans-69"/>
      <use x="404.347656" xlink:href="#DejaVuSans-6f"/>
      <use x="465.529297" xlink:href="#DejaVuSans-6e"/>
      <use x="528.908203" xlink:href="#DejaVuSans-20"/>
      <use x="560.695312" xlink:href="#DejaVuSans-53"/>
      <use x="624.171875" xlink:href="#DejaVuSans-6e"/>
      <use x="687.550781" xlink:href="#DejaVuSans-61"/>
      <use x="748.830078" xlink:href="#DejaVuSans-70"/>
      <use x="812.306641" xlink:href="#DejaVuSans-73"/>
      <use x="864.40625" xlink:href="#DejaVuSans-68"/>
      <use x="927.785156" xlink:href="#DejaVuSans-6f"/>
      <use x="988.966797" xlink:href="#DejaVuSans-74"/>
      <use x="1028.175781" xlink:href="#DejaVuSans-73"/>
     </g>
    </g>
    <g id="line2d_34">
     <path d="M 215.0607 263.130469 
L 245.0607 263.130469 
" style="fill:none;stroke:#2ca02c;stroke-linecap:square;stroke-width:3;"/>
    </g>
    <g id="line2d_35"/>
    <g id="text_18">
     <!-- Lineage Tracking -->
     <defs>
      <path d="M -0.296875 72.90625 
L 61.375 72.90625 
L 61.375 64.59375 
L 35.5 64.59375 
L 35.5 0 
L 25.59375 0 
L 25.59375 64.59375 
L -0.296875 64.59375 
z
" id="DejaVuSans-54"/>
      <path d="M 41.109375 46.296875 
Q 39.59375 47.171875 37.8125 47.578125 
Q 36.03125 48 33.890625 48 
Q 26.265625 48 22.1875 43.046875 
Q 18.109375 38.09375 18.109375 28.8125 
L 18.109375 0 
L 9.078125 0 
L 9.078125 54.6875 
L 18.109375 54.6875 
L 18.109375 46.1875 
Q 20.953125 51.171875 25.484375 53.578125 
Q 30.03125 56 36.53125 56 
Q 37.453125 56 38.578125 55.875 
Q 39.703125 55.765625 41.0625 55.515625 
z
" id="DejaVuSans-72"/>
      <path d="M 48.78125 52.59375 
L 48.78125 44.1875 
Q 44.96875 46.296875 41.140625 47.34375 
Q 37.3125 48.390625 33.40625 48.390625 
Q 24.65625 48.390625 19.8125 42.84375 
Q 14.984375 37.3125 14.984375 27.296875 
Q 14.984375 17.28125 19.8125 11.734375 
Q 24.65625 6.203125 33.40625 6.203125 
Q 37.3125 6.203125 41.140625 7.25 
Q 44.96875 8.296875 48.78125 10.40625 
L 48.78125 2.09375 
Q 45.015625 0.34375 40.984375 -0.53125 
Q 36.96875 -1.421875 32.421875 -1.421875 
Q 20.0625 -1.421875 12.78125 6.34375 
Q 5.515625 14.109375 5.515625 27.296875 
Q 5.515625 40.671875 12.859375 48.328125 
Q 20.21875 56 33.015625 56 
Q 37.15625 56 41.109375 55.140625 
Q 45.0625 54.296875 48.78125 52.59375 
z
" id="DejaVuSans-63"/>
      <path d="M 9.078125 75.984375 
L 18.109375 75.984375 
L 18.109375 31.109375 
L 44.921875 54.6875 
L 56.390625 54.6875 
L 27.390625 29.109375 
L 57.625 0 
L 45.90625 0 
L 18.109375 26.703125 
L 18.109375 0 
L 9.078125 0 
z
" id="DejaVuSans-6b"/>
     </defs>
     <g transform="translate(257.0607 268.380469)scale(0.15 -0.15)">
      <use xlink:href="#DejaVuSans-4c"/>
      <use x="55.712891" xlink:href="#DejaVuSans-69"/>
      <use x="83.496094" xlink:href="#DejaVuSans-6e"/>
      <use x="146.875" xlink:href="#DejaVuSans-65"/>
      <use x="208.398438" xlink:href="#DejaVuSans-61"/>
      <use x="269.677734" xlink:href="#DejaVuSans-67"/>
      <use x="333.154297" xlink:href="#DejaVuSans-65"/>
      <use x="394.677734" xlink:href="#DejaVuSans-20"/>
      <use x="426.464844" xlink:href="#DejaVuSans-54"/>
      <use x="487.330078" xlink:href="#DejaVuSans-72"/>
      <use x="528.443359" xlink:href="#DejaVuSans-61"/>
      <use x="589.722656" xlink:href="#DejaVuSans-63"/>
      <use x="644.703125" xlink:href="#DejaVuSans-6b"/>
      <use x="702.613281" xlink:href="#DejaVuSans-69"/>
      <use x="730.396484" xlink:href="#DejaVuSans-6e"/>
      <use x="793.775391" xlink:href="#DejaVuSans-67"/>
     </g>
    </g>
   </g>
  </g>
  <g id="axes_2">
   <g id="patch_8">
    <path d="M 541.774457 285 
L 905.6875 285 
L 905.6875 13.2 
L 541.774457 13.2 
z
" style="fill:#ffffff;"/>
   </g>
   <g id="PolyCollection_4">
    <defs>
     <path d="M 541.774457 -66.927983 
L 541.774457 -66.927983 
L 547.839674 -77.091273 
L 553.904891 -89.388056 
L 559.970109 -101.005272 
L 566.035326 -106.798079 
L 572.100543 -117.66627 
L 578.165761 -123.966547 
L 584.230978 -119.57358 
L 590.296196 -115.586841 
L 596.361413 -121.863425 
L 602.42663 -135.050097 
L 608.491848 -139.62787 
L 614.557065 -160.258615 
L 620.622283 -168.337902 
L 626.6875 -186.258379 
L 632.752717 -202.35219 
L 638.817935 -195.233578 
L 644.883152 -204.21574 
L 650.94837 -205.660591 
L 657.013587 -219.839891 
L 663.078804 -216.085125 
L 669.144022 -212.993 
L 675.209239 -217.774072 
L 681.274457 -222.096107 
L 687.339674 -222.582188 
L 693.404891 -229.110078 
L 699.470109 -226.371252 
L 705.535326 -230.516141 
L 711.600543 -225.054115 
L 717.665761 -224.897654 
L 723.730978 -226.498056 
L 729.796196 -226.949173 
L 735.861413 -222.504291 
L 741.92663 -214.179894 
L 747.991848 -210.183363 
L 754.057065 -208.260063 
L 760.122283 -208.512101 
L 766.1875 -210.917189 
L 772.252717 -212.153008 
L 778.317935 -216.051054 
L 784.383152 -208.170362 
L 790.44837 -204.802216 
L 796.513587 -201.87514 
L 802.578804 -202.114928 
L 808.644022 -201.721719 
L 814.709239 -196.889152 
L 820.774457 -199.752469 
L 826.839674 -200.013435 
L 832.904891 -198.271222 
L 838.970109 -196.782176 
L 845.035326 -194.663842 
L 851.100543 -194.164848 
L 857.165761 -193.397835 
L 863.230978 -194.250739 
L 869.296196 -194.247074 
L 875.361413 -195.064097 
L 881.42663 -195.991121 
L 887.491848 -195.872127 
L 893.557065 -194.437759 
L 899.622283 -197.264833 
L 899.622283 -211.228125 
L 899.622283 -211.228125 
L 893.557065 -208.24491 
L 887.491848 -211.388082 
L 881.42663 -212.155823 
L 875.361413 -211.214249 
L 869.296196 -211.768807 
L 863.230978 -211.49966 
L 857.165761 -211.145296 
L 851.100543 -211.774846 
L 845.035326 -213.030065 
L 838.970109 -215.88018 
L 832.904891 -218.622037 
L 826.839674 -222.568873 
L 820.774457 -221.505994 
L 814.709239 -220.20246 
L 808.644022 -227.861236 
L 802.578804 -229.254457 
L 796.513587 -228.496721 
L 790.44837 -234.353711 
L 784.383152 -243.482178 
L 778.317935 -255.734407 
L 772.252717 -245.133504 
L 766.1875 -244.477225 
L 760.122283 -242.807924 
L 754.057065 -240.367566 
L 747.991848 -246.762339 
L 741.92663 -257.626784 
L 735.861413 -270.353916 
L 729.796196 -278.977887 
L 723.730978 -276.783115 
L 717.665761 -273.570621 
L 711.600543 -276.492119 
L 705.535326 -284.999053 
L 699.470109 -282.213782 
L 693.404891 -296.131265 
L 687.339674 -291.801258 
L 681.274457 -299.107487 
L 675.209239 -305.786958 
L 669.144022 -314.018892 
L 663.078804 -312.769116 
L 657.013587 -302.106134 
L 650.94837 -274.740158 
L 644.883152 -282.430656 
L 638.817935 -273.113195 
L 632.752717 -276.483224 
L 626.6875 -264.507321 
L 620.622283 -231.681461 
L 614.557065 -225.757078 
L 608.491848 -187.26581 
L 602.42663 -181.84105 
L 596.361413 -162.847107 
L 590.296196 -155.734813 
L 584.230978 -162.868282 
L 578.165761 -167.181178 
L 572.100543 -168.085602 
L 566.035326 -146.329841 
L 559.970109 -129.546895 
L 553.904891 -112.048637 
L 547.839674 -96.574026 
L 541.774457 -66.927983 
z
" id="m9e8164c06b"/>
    </defs>
    <g clip-path="url(#p91d3723b09)">
     <use style="fill:#ffa035;" x="0" xlink:href="#m9e8164c06b" y="339.573438"/>
    </g>
   </g>
   <g id="PolyCollection_5">
    <defs>
     <path d="M 541.774457 -66.927983 
L 541.774457 -66.927983 
L 547.839674 -78.469398 
L 553.904891 -92.582575 
L 559.970109 -104.474548 
L 566.035326 -119.816973 
L 572.100543 -132.454173 
L 578.165761 -143.680145 
L 584.230978 -150.684241 
L 590.296196 -162.154458 
L 596.361413 -165.132766 
L 602.42663 -170.836586 
L 608.491848 -173.59581 
L 614.557065 -172.975655 
L 620.622283 -174.594574 
L 626.6875 -173.942537 
L 632.752717 -171.736139 
L 638.817935 -171.896395 
L 644.883152 -171.711678 
L 650.94837 -173.318464 
L 657.013587 -174.444969 
L 663.078804 -175.527024 
L 669.144022 -177.406155 
L 675.209239 -173.228775 
L 681.274457 -169.498287 
L 687.339674 -172.345205 
L 693.404891 -168.986866 
L 699.470109 -170.9307 
L 705.535326 -173.832575 
L 711.600543 -171.981434 
L 717.665761 -173.070752 
L 723.730978 -170.108629 
L 729.796196 -168.618712 
L 735.861413 -169.941634 
L 741.92663 -172.144002 
L 747.991848 -172.361675 
L 754.057065 -169.737691 
L 760.122283 -170.796998 
L 766.1875 -169.831543 
L 772.252717 -170.334771 
L 778.317935 -170.77922 
L 784.383152 -169.71385 
L 790.44837 -169.652661 
L 796.513587 -168.723665 
L 802.578804 -166.064769 
L 808.644022 -165.424048 
L 814.709239 -166.464779 
L 820.774457 -168.808361 
L 826.839674 -170.39772 
L 832.904891 -168.735684 
L 838.970109 -167.020733 
L 845.035326 -164.167766 
L 851.100543 -167.880678 
L 857.165761 -165.444673 
L 863.230978 -163.134124 
L 869.296196 -162.257108 
L 875.361413 -160.974493 
L 881.42663 -162.054977 
L 887.491848 -162.241457 
L 893.557065 -162.674478 
L 899.622283 -159.314128 
L 899.622283 -178.214289 
L 899.622283 -178.214289 
L 893.557065 -181.630342 
L 887.491848 -183.055206 
L 881.42663 -183.520792 
L 875.361413 -182.907774 
L 869.296196 -185.344265 
L 863.230978 -187.62154 
L 857.165761 -190.504782 
L 851.100543 -193.23025 
L 845.035326 -190.44813 
L 838.970109 -196.806813 
L 832.904891 -197.723064 
L 826.839674 -200.725424 
L 820.774457 -197.452675 
L 814.709239 -197.560425 
L 808.644022 -193.081558 
L 802.578804 -196.944568 
L 796.513587 -197.534635 
L 790.44837 -200.317787 
L 784.383152 -193.246646 
L 778.317935 -192.933501 
L 772.252717 -191.246628 
L 766.1875 -189.91803 
L 760.122283 -189.129819 
L 754.057065 -187.680302 
L 747.991848 -191.187107 
L 741.92663 -189.728951 
L 735.861413 -188.436798 
L 729.796196 -186.0904 
L 723.730978 -188.894635 
L 717.665761 -193.073616 
L 711.600543 -191.20759 
L 705.535326 -193.082788 
L 699.470109 -189.8018 
L 693.404891 -187.631948 
L 687.339674 -192.540038 
L 681.274457 -188.709442 
L 675.209239 -192.249191 
L 669.144022 -199.394777 
L 663.078804 -197.40097 
L 657.013587 -194.224502 
L 650.94837 -193.900418 
L 644.883152 -191.712763 
L 638.817935 -192.23535 
L 632.752717 -190.660602 
L 626.6875 -194.714183 
L 620.622283 -195.657318 
L 614.557065 -194.261465 
L 608.491848 -194.003671 
L 602.42663 -190.970403 
L 596.361413 -184.100401 
L 590.296196 -183.300281 
L 584.230978 -167.336351 
L 578.165761 -159.677305 
L 572.100543 -147.659687 
L 566.035326 -131.215494 
L 559.970109 -113.918209 
L 553.904891 -100.085583 
L 547.839674 -84.47788 
L 541.774457 -66.927983 
z
" id="m945b66df6d"/>
    </defs>
    <g clip-path="url(#p91d3723b09)">
     <use style="fill:#4db8ff;" x="0" xlink:href="#m945b66df6d" y="339.573438"/>
    </g>
   </g>
   <g id="PolyCollection_6">
    <defs>
     <path d="M 541.774457 -66.927983 
L 541.774457 -66.927983 
L 547.839674 -67.129191 
L 553.904891 -68.579555 
L 559.970109 -69.484028 
L 566.035326 -70.890728 
L 572.100543 -74.393972 
L 578.165761 -75.744747 
L 584.230978 -77.861667 
L 590.296196 -78.931689 
L 596.361413 -80.548354 
L 602.42663 -89.16123 
L 608.491848 -92.477374 
L 614.557065 -102.239235 
L 620.622283 -102.193827 
L 626.6875 -110.346973 
L 632.752717 -120.494325 
L 638.817935 -119.144463 
L 644.883152 -119.833502 
L 650.94837 -127.784176 
L 657.013587 -135.01283 
L 663.078804 -136.129741 
L 669.144022 -141.049663 
L 675.209239 -144.441826 
L 681.274457 -153.916917 
L 687.339674 -159.710807 
L 693.404891 -166.056829 
L 699.470109 -170.61798 
L 705.535326 -178.061568 
L 711.600543 -181.27487 
L 717.665761 -183.230252 
L 723.730978 -183.784758 
L 729.796196 -187.849427 
L 735.861413 -185.240566 
L 741.92663 -184.027259 
L 747.991848 -182.02852 
L 754.057065 -182.265146 
L 760.122283 -184.118188 
L 766.1875 -188.472903 
L 772.252717 -191.171249 
L 778.317935 -192.388904 
L 784.383152 -187.693914 
L 790.44837 -185.713178 
L 796.513587 -185.597116 
L 802.578804 -188.081434 
L 808.644022 -188.715429 
L 814.709239 -184.069105 
L 820.774457 -187.176418 
L 826.839674 -186.46771 
L 832.904891 -184.988008 
L 838.970109 -183.630022 
L 845.035326 -182.380832 
L 851.100543 -182.627989 
L 857.165761 -182.673643 
L 863.230978 -183.925961 
L 869.296196 -184.066925 
L 875.361413 -184.803164 
L 881.42663 -185.287267 
L 887.491848 -185.242326 
L 893.557065 -183.642505 
L 899.622283 -186.248202 
L 899.622283 -202.799258 
L 899.622283 -202.799258 
L 893.557065 -200.540831 
L 887.491848 -202.289764 
L 881.42663 -202.07736 
L 875.361413 -201.798426 
L 869.296196 -201.177603 
L 863.230978 -200.789251 
L 857.165761 -199.945599 
L 851.100543 -201.466139 
L 845.035326 -201.706547 
L 838.970109 -204.522144 
L 832.904891 -206.617973 
L 826.839674 -208.871089 
L 820.774457 -208.43228 
L 814.709239 -206.49519 
L 808.644022 -212.060059 
L 802.578804 -214.209836 
L 796.513587 -213.077372 
L 790.44837 -216.739033 
L 784.383152 -221.833739 
L 778.317935 -230.05562 
L 772.252717 -224.263937 
L 766.1875 -225.08153 
L 760.122283 -221.293204 
L 754.057065 -219.255653 
L 747.991848 -217.753219 
L 741.92663 -221.682522 
L 735.861413 -226.5804 
L 729.796196 -231.231454 
L 723.730978 -228.379325 
L 717.665761 -223.850849 
L 711.600543 -226.051405 
L 705.535326 -226.629123 
L 699.470109 -223.010673 
L 693.404891 -227.344057 
L 687.339674 -221.725014 
L 681.274457 -222.384481 
L 675.209239 -215.344112 
L 669.144022 -216.675948 
L 663.078804 -210.622072 
L 657.013587 -203.165843 
L 650.94837 -190.083454 
L 644.883152 -190.138574 
L 638.817935 -181.832364 
L 632.752717 -176.961667 
L 626.6875 -165.731579 
L 620.622283 -150.23262 
L 614.557065 -150.094605 
L 608.491848 -129.12581 
L 602.42663 -121.064248 
L 596.361413 -110.753739 
L 590.296196 -101.565341 
L 584.230978 -97.753613 
L 578.165761 -100.53835 
L 572.100543 -97.280937 
L 566.035326 -83.526385 
L 559.970109 -82.190051 
L 553.904891 -81.612257 
L 547.839674 -82.144606 
L 541.774457 -66.927983 
z
" id="me60865108f"/>
    </defs>
    <g clip-path="url(#p91d3723b09)">
     <use style="fill:#47d200;" x="0" xlink:href="#me60865108f" y="339.573438"/>
    </g>
   </g>
   <g id="matplotlib.axis_3">
    <g id="xtick_8">
     <g id="line2d_36">
      <path clip-path="url(#p91d3723b09)" d="M 541.774457 285 
L 541.774457 13.2 
" style="fill:none;stroke:#b0b0b0;stroke-linecap:square;stroke-width:0.8;"/>
     </g>
     <g id="line2d_37">
      <g>
       <use x="541.774457" xlink:href="#m3973921d95" y="285"/>
      </g>
     </g>
     <g id="text_19">
      <!-- 0 -->
      <g transform="translate(537.002582 305.897656)scale(0.15 -0.15)">
       <use xlink:href="#DejaVuSans-30"/>
      </g>
     </g>
    </g>
    <g id="xtick_9">
     <g id="line2d_38">
      <path clip-path="url(#p91d3723b09)" d="M 602.42663 285 
L 602.42663 13.2 
" style="fill:none;stroke:#b0b0b0;stroke-linecap:square;stroke-width:0.8;"/>
     </g>
     <g id="line2d_39">
      <g>
       <use x="602.42663" xlink:href="#m3973921d95" y="285"/>
      </g>
     </g>
     <g id="text_20">
      <!-- 1 -->
      <g transform="translate(597.654755 305.897656)scale(0.15 -0.15)">
       <use xlink:href="#DejaVuSans-31"/>
      </g>
     </g>
    </g>
    <g id="xtick_10">
     <g id="line2d_40">
      <path clip-path="url(#p91d3723b09)" d="M 663.078804 285 
L 663.078804 13.2 
" style="fill:none;stroke:#b0b0b0;stroke-linecap:square;stroke-width:0.8;"/>
     </g>
     <g id="line2d_41">
      <g>
       <use x="663.078804" xlink:href="#m3973921d95" y="285"/>
      </g>
     </g>
     <g id="text_21">
      <!-- 2 -->
      <g transform="translate(658.306929 305.897656)scale(0.15 -0.15)">
       <use xlink:href="#DejaVuSans-32"/>
      </g>
     </g>
    </g>
    <g id="xtick_11">
     <g id="line2d_42">
      <path clip-path="url(#p91d3723b09)" d="M 723.730978 285 
L 723.730978 13.2 
" style="fill:none;stroke:#b0b0b0;stroke-linecap:square;stroke-width:0.8;"/>
     </g>
     <g id="line2d_43">
      <g>
       <use x="723.730978" xlink:href="#m3973921d95" y="285"/>
      </g>
     </g>
     <g id="text_22">
      <!-- 3 -->
      <g transform="translate(718.959103 305.897656)scale(0.15 -0.15)">
       <use xlink:href="#DejaVuSans-33"/>
      </g>
     </g>
    </g>
    <g id="xtick_12">
     <g id="line2d_44">
      <path clip-path="url(#p91d3723b09)" d="M 784.383152 285 
L 784.383152 13.2 
" style="fill:none;stroke:#b0b0b0;stroke-linecap:square;stroke-width:0.8;"/>
     </g>
     <g id="line2d_45">
      <g>
       <use x="784.383152" xlink:href="#m3973921d95" y="285"/>
      </g>
     </g>
     <g id="text_23">
      <!-- 4 -->
      <g transform="translate(779.611277 305.897656)scale(0.15 -0.15)">
       <use xlink:href="#DejaVuSans-34"/>
      </g>
     </g>
    </g>
    <g id="xtick_13">
     <g id="line2d_46">
      <path clip-path="url(#p91d3723b09)" d="M 845.035326 285 
L 845.035326 13.2 
" style="fill:none;stroke:#b0b0b0;stroke-linecap:square;stroke-width:0.8;"/>
     </g>
     <g id="line2d_47">
      <g>
       <use x="845.035326" xlink:href="#m3973921d95" y="285"/>
      </g>
     </g>
     <g id="text_24">
      <!-- 5 -->
      <g transform="translate(840.263451 305.897656)scale(0.15 -0.15)">
       <use xlink:href="#DejaVuSans-35"/>
      </g>
     </g>
    </g>
    <g id="xtick_14">
     <g id="line2d_48">
      <path clip-path="url(#p91d3723b09)" d="M 905.6875 285 
L 905.6875 13.2 
" style="fill:none;stroke:#b0b0b0;stroke-linecap:square;stroke-width:0.8;"/>
     </g>
     <g id="line2d_49">
      <g>
       <use x="905.6875" xlink:href="#m3973921d95" y="285"/>
      </g>
     </g>
     <g id="text_25">
      <!-- 6 -->
      <g transform="translate(900.915625 305.897656)scale(0.15 -0.15)">
       <use xlink:href="#DejaVuSans-36"/>
      </g>
     </g>
    </g>
    <g id="text_26">
     <!-- $t/\tau$ -->
     <g transform="translate(710.330978 328.214063)scale(0.2 -0.2)">
      <use transform="translate(0 0.09375)" xlink:href="#DejaVuSans-Oblique-74"/>
      <use transform="translate(39.208984 0.09375)" xlink:href="#DejaVuSans-2f"/>
      <use transform="translate(72.900391 0.09375)" xlink:href="#DejaVuSans-Oblique-3c4"/>
     </g>
    </g>
   </g>
   <g id="matplotlib.axis_4">
    <g id="ytick_7">
     <g id="line2d_50">
      <path clip-path="url(#p91d3723b09)" d="M 541.774457 272.645455 
L 905.6875 272.645455 
" style="fill:none;stroke:#b0b0b0;stroke-linecap:square;stroke-width:0.8;"/>
     </g>
     <g id="line2d_51">
      <g>
       <use x="541.774457" xlink:href="#mdb71333e49" y="272.645455"/>
      </g>
     </g>
     <g id="text_27">
      <!-- 0.00 -->
      <defs>
       <path d="M 10.6875 12.40625 
L 21 12.40625 
L 21 0 
L 10.6875 0 
z
" id="DejaVuSans-2e"/>
      </defs>
      <g transform="translate(498.876019 278.344283)scale(0.15 -0.15)">
       <use xlink:href="#DejaVuSans-30"/>
       <use x="63.623047" xlink:href="#DejaVuSans-2e"/>
       <use x="95.410156" xlink:href="#DejaVuSans-30"/>
       <use x="159.033203" xlink:href="#DejaVuSans-30"/>
      </g>
     </g>
    </g>
    <g id="ytick_8">
     <g id="line2d_52">
      <path clip-path="url(#p91d3723b09)" d="M 541.774457 231.063888 
L 905.6875 231.063888 
" style="fill:none;stroke:#b0b0b0;stroke-linecap:square;stroke-width:0.8;"/>
     </g>
     <g id="line2d_53">
      <g>
       <use x="541.774457" xlink:href="#mdb71333e49" y="231.063888"/>
      </g>
     </g>
     <g id="text_28">
      <!-- 0.01 -->
      <g transform="translate(498.876019 236.762716)scale(0.15 -0.15)">
       <use xlink:href="#DejaVuSans-30"/>
       <use x="63.623047" xlink:href="#DejaVuSans-2e"/>
       <use x="95.410156" xlink:href="#DejaVuSans-30"/>
       <use x="159.033203" xlink:href="#DejaVuSans-31"/>
      </g>
     </g>
    </g>
    <g id="ytick_9">
     <g id="line2d_54">
      <path clip-path="url(#p91d3723b09)" d="M 541.774457 189.482321 
L 905.6875 189.482321 
" style="fill:none;stroke:#b0b0b0;stroke-linecap:square;stroke-width:0.8;"/>
     </g>
     <g id="line2d_55">
      <g>
       <use x="541.774457" xlink:href="#mdb71333e49" y="189.482321"/>
      </g>
     </g>
     <g id="text_29">
      <!-- 0.02 -->
      <g transform="translate(498.876019 195.181149)scale(0.15 -0.15)">
       <use xlink:href="#DejaVuSans-30"/>
       <use x="63.623047" xlink:href="#DejaVuSans-2e"/>
       <use x="95.410156" xlink:href="#DejaVuSans-30"/>
       <use x="159.033203" xlink:href="#DejaVuSans-32"/>
      </g>
     </g>
    </g>
    <g id="ytick_10">
     <g id="line2d_56">
      <path clip-path="url(#p91d3723b09)" d="M 541.774457 147.900754 
L 905.6875 147.900754 
" style="fill:none;stroke:#b0b0b0;stroke-linecap:square;stroke-width:0.8;"/>
     </g>
     <g id="line2d_57">
      <g>
       <use x="541.774457" xlink:href="#mdb71333e49" y="147.900754"/>
      </g>
     </g>
     <g id="text_30">
      <!-- 0.03 -->
      <g transform="translate(498.876019 153.599583)scale(0.15 -0.15)">
       <use xlink:href="#DejaVuSans-30"/>
       <use x="63.623047" xlink:href="#DejaVuSans-2e"/>
       <use x="95.410156" xlink:href="#DejaVuSans-30"/>
       <use x="159.033203" xlink:href="#DejaVuSans-33"/>
      </g>
     </g>
    </g>
    <g id="ytick_11">
     <g id="line2d_58">
      <path clip-path="url(#p91d3723b09)" d="M 541.774457 106.319188 
L 905.6875 106.319188 
" style="fill:none;stroke:#b0b0b0;stroke-linecap:square;stroke-width:0.8;"/>
     </g>
     <g id="line2d_59">
      <g>
       <use x="541.774457" xlink:href="#mdb71333e49" y="106.319188"/>
      </g>
     </g>
     <g id="text_31">
      <!-- 0.04 -->
      <g transform="translate(498.876019 112.018016)scale(0.15 -0.15)">
       <use xlink:href="#DejaVuSans-30"/>
       <use x="63.623047" xlink:href="#DejaVuSans-2e"/>
       <use x="95.410156" xlink:href="#DejaVuSans-30"/>
       <use x="159.033203" xlink:href="#DejaVuSans-34"/>
      </g>
     </g>
    </g>
    <g id="ytick_12">
     <g id="line2d_60">
      <path clip-path="url(#p91d3723b09)" d="M 541.774457 64.737621 
L 905.6875 64.737621 
" style="fill:none;stroke:#b0b0b0;stroke-linecap:square;stroke-width:0.8;"/>
     </g>
     <g id="line2d_61">
      <g>
       <use x="541.774457" xlink:href="#mdb71333e49" y="64.737621"/>
      </g>
     </g>
     <g id="text_32">
      <!-- 0.05 -->
      <g transform="translate(498.876019 70.436449)scale(0.15 -0.15)">
       <use xlink:href="#DejaVuSans-30"/>
       <use x="63.623047" xlink:href="#DejaVuSans-2e"/>
       <use x="95.410156" xlink:href="#DejaVuSans-30"/>
       <use x="159.033203" xlink:href="#DejaVuSans-35"/>
      </g>
     </g>
    </g>
    <g id="ytick_13">
     <g id="line2d_62">
      <path clip-path="url(#p91d3723b09)" d="M 541.774457 23.156054 
L 905.6875 23.156054 
" style="fill:none;stroke:#b0b0b0;stroke-linecap:square;stroke-width:0.8;"/>
     </g>
     <g id="line2d_63">
      <g>
       <use x="541.774457" xlink:href="#mdb71333e49" y="23.156054"/>
      </g>
     </g>
     <g id="text_33">
      <!-- 0.06 -->
      <g transform="translate(498.876019 28.854883)scale(0.15 -0.15)">
       <use xlink:href="#DejaVuSans-30"/>
       <use x="63.623047" xlink:href="#DejaVuSans-2e"/>
       <use x="95.410156" xlink:href="#DejaVuSans-30"/>
       <use x="159.033203" xlink:href="#DejaVuSans-36"/>
      </g>
     </g>
    </g>
    <g id="text_34">
     <!-- $C_V^2(p)$ -->
     <defs>
      <path d="M 69.484375 67.28125 
L 67.484375 56.890625 
Q 62.796875 61.625 57.546875 63.921875 
Q 52.296875 66.21875 46.1875 66.21875 
Q 37.84375 66.21875 31.515625 62.203125 
Q 25.203125 58.203125 20.609375 50 
Q 17.671875 44.734375 16.125 38.84375 
Q 14.59375 32.953125 14.59375 27 
Q 14.59375 17.046875 19.75 11.8125 
Q 24.90625 6.59375 34.71875 6.59375 
Q 41.5 6.59375 47.75 8.765625 
Q 54 10.9375 59.90625 15.28125 
L 57.625 3.609375 
Q 51.8125 1.125 45.875 -0.140625 
Q 39.9375 -1.421875 33.984375 -1.421875 
Q 19.96875 -1.421875 12.078125 6.1875 
Q 4.203125 13.8125 4.203125 27.390625 
Q 4.203125 36.078125 7.203125 44.46875 
Q 10.203125 52.875 15.828125 59.8125 
Q 21.78125 67.1875 29.421875 70.703125 
Q 37.0625 74.21875 47.21875 74.21875 
Q 53.46875 74.21875 59.0625 72.484375 
Q 64.65625 70.75 69.484375 67.28125 
z
" id="DejaVuSans-Oblique-43"/>
      <path d="M 20.609375 0 
L 7.8125 72.90625 
L 17.484375 72.90625 
L 28.078125 10.203125 
L 63.484375 72.90625 
L 74.21875 72.90625 
L 32.078125 0 
z
" id="DejaVuSans-Oblique-56"/>
      <path d="M 31 75.875 
Q 24.46875 64.65625 21.28125 53.65625 
Q 18.109375 42.671875 18.109375 31.390625 
Q 18.109375 20.125 21.3125 9.0625 
Q 24.515625 -2 31 -13.1875 
L 23.1875 -13.1875 
Q 15.875 -1.703125 12.234375 9.375 
Q 8.59375 20.453125 8.59375 31.390625 
Q 8.59375 42.28125 12.203125 53.3125 
Q 15.828125 64.359375 23.1875 75.875 
z
" id="DejaVuSans-28"/>
      <path d="M 8.015625 75.875 
L 15.828125 75.875 
Q 23.140625 64.359375 26.78125 53.3125 
Q 30.421875 42.28125 30.421875 31.390625 
Q 30.421875 20.453125 26.78125 9.375 
Q 23.140625 -1.703125 15.828125 -13.1875 
L 8.015625 -13.1875 
Q 14.5 -2 17.703125 9.0625 
Q 20.90625 20.125 20.90625 31.390625 
Q 20.90625 42.671875 17.703125 53.65625 
Q 14.5 64.65625 8.015625 75.875 
z
" id="DejaVuSans-29"/>
     </defs>
     <g transform="translate(489.276019 175.7)rotate(-90)scale(0.2 -0.2)">
      <use transform="translate(0 0.765625)" xlink:href="#DejaVuSans-Oblique-43"/>
      <use transform="translate(77.02474 39.046875)scale(0.7)" xlink:href="#DejaVuSans-32"/>
      <use transform="translate(69.824219 -26.578125)scale(0.7)" xlink:href="#DejaVuSans-Oblique-56"/>
      <use transform="translate(124.295247 0.765625)" xlink:href="#DejaVuSans-28"/>
      <use transform="translate(163.308919 0.765625)" xlink:href="#DejaVuSans-Oblique-70"/>
      <use transform="translate(226.785482 0.765625)" xlink:href="#DejaVuSans-29"/>
     </g>
    </g>
   </g>
   <g id="line2d_64">
    <path clip-path="url(#p91d3723b09)" d="M 541.774457 272.645455 
L 547.839674 258.099799 
L 553.904891 243.239358 
L 559.970109 230.377059 
L 566.035326 214.057204 
L 572.100543 199.516507 
L 578.165761 187.894712 
L 584.230978 180.563141 
L 590.296196 166.846068 
L 596.361413 164.956854 
L 602.42663 158.669943 
L 608.491848 155.773697 
L 614.557065 155.954878 
L 620.622283 154.447491 
L 626.6875 155.245077 
L 632.752717 158.375067 
L 638.817935 157.507565 
L 644.883152 157.861217 
L 650.94837 155.963997 
L 657.013587 155.238702 
L 663.078804 153.109441 
L 669.144022 151.172972 
L 675.209239 156.834455 
L 681.274457 160.469573 
L 687.339674 157.130816 
L 693.404891 161.264031 
L 699.470109 159.207187 
L 705.535326 156.115756 
L 711.600543 157.978926 
L 717.665761 156.501254 
L 723.730978 160.071805 
L 729.796196 162.218882 
L 735.861413 160.384221 
L 741.92663 158.636961 
L 747.991848 157.799046 
L 754.057065 160.864441 
L 760.122283 159.610029 
L 766.1875 159.698651 
L 772.252717 158.782738 
L 778.317935 157.717077 
L 784.383152 158.09319 
L 790.44837 154.588214 
L 796.513587 156.444287 
L 802.578804 158.068769 
L 808.644022 160.320634 
L 814.709239 157.560836 
L 820.774457 156.442919 
L 826.839674 154.011865 
L 832.904891 156.344063 
L 838.970109 157.659664 
L 845.035326 162.265489 
L 851.100543 159.017974 
L 857.165761 161.59871 
L 863.230978 164.195605 
L 869.296196 165.772751 
L 875.361413 167.632304 
L 881.42663 166.785553 
L 887.491848 166.925106 
L 893.557065 167.421027 
L 899.622283 170.809229 
" style="fill:none;stroke:#1f77b4;stroke-linecap:square;stroke-width:3;"/>
   </g>
   <g id="line2d_65">
    <path clip-path="url(#p91d3723b09)" d="M 541.774457 272.645455 
L 547.839674 264.936539 
L 553.904891 264.477531 
L 559.970109 263.736398 
L 566.035326 262.364881 
L 572.100543 253.735983 
L 578.165761 251.431889 
L 584.230978 251.765798 
L 590.296196 249.324922 
L 596.361413 243.922391 
L 602.42663 234.460699 
L 608.491848 228.771846 
L 614.557065 213.406517 
L 620.622283 213.360214 
L 626.6875 201.534162 
L 632.752717 190.845442 
L 638.817935 189.085024 
L 644.883152 184.5874 
L 650.94837 180.639622 
L 657.013587 170.484101 
L 663.078804 166.197531 
L 669.144022 160.710632 
L 675.209239 159.680469 
L 681.274457 151.422738 
L 687.339674 148.855527 
L 693.404891 142.872994 
L 699.470109 142.759111 
L 705.535326 137.228092 
L 711.600543 135.9103 
L 717.665761 136.032887 
L 723.730978 133.491396 
L 729.796196 130.032997 
L 735.861413 133.662955 
L 741.92663 136.718547 
L 747.991848 139.682568 
L 754.057065 138.813038 
L 760.122283 136.867742 
L 766.1875 132.796221 
L 772.252717 131.855845 
L 778.317935 128.351175 
L 784.383152 134.809611 
L 790.44837 138.347332 
L 796.513587 140.236194 
L 802.578804 138.427802 
L 808.644022 139.185693 
L 814.709239 144.29129 
L 820.774457 141.769089 
L 826.839674 141.904038 
L 832.904891 143.770447 
L 838.970109 145.497354 
L 845.035326 147.529748 
L 851.100543 147.526373 
L 857.165761 148.263816 
L 863.230978 147.215831 
L 869.296196 146.951173 
L 875.361413 146.272642 
L 881.42663 145.891124 
L 887.491848 145.807392 
L 893.557065 147.48177 
L 899.622283 145.049708 
" style="fill:none;stroke:#319000;stroke-linecap:square;stroke-width:3;"/>
   </g>
   <g id="patch_9">
    <path d="M 541.774457 285 
L 541.774457 13.2 
" style="fill:none;stroke:#000000;stroke-linecap:square;stroke-linejoin:miter;stroke-width:2;"/>
   </g>
   <g id="patch_10">
    <path d="M 905.6875 285 
L 905.6875 13.2 
" style="fill:none;"/>
   </g>
   <g id="patch_11">
    <path d="M 541.774457 285 
L 905.6875 285 
" style="fill:none;stroke:#000000;stroke-linecap:square;stroke-linejoin:miter;stroke-width:2;"/>
   </g>
   <g id="patch_12">
    <path d="M 541.774457 13.2 
L 905.6875 13.2 
" style="fill:none;"/>
   </g>
  </g>
 </g>
 <defs>
  <clipPath id="p53d1b4e382">
   <rect height="271.8" width="363.913043" x="68.6875" y="13.2"/>
  </clipPath>
  <clipPath id="p91d3723b09">
   <rect height="271.8" width="363.913043" x="541.774457" y="13.2"/>
  </clipPath>
 </defs>
</svg>
