<?xml version="1.0" encoding="utf-8" standalone="no"?>
<!DOCTYPE svg PUBLIC "-//W3C//DTD SVG 1.1//EN"
  "http://www.w3.org/Graphics/SVG/1.1/DTD/svg11.dtd">
<!-- Created with matplotlib (http://matplotlib.org/) -->
<svg height="339.573438pt" version="1.1" viewBox="0 0 914.154688 339.573438" width="914.154688pt" xmlns="http://www.w3.org/2000/svg" xmlns:xlink="http://www.w3.org/1999/xlink">
 <defs>
  <style type="text/css">
*{stroke-linecap:butt;stroke-linejoin:round;}
  </style>
 </defs>
 <g id="figure_1">
  <g id="patch_1">
   <path d="M 0 339.573438 
L 914.154688 339.573438 
L 914.154688 0 
L 0 0 
z
" style="fill:#ffffff;"/>
  </g>
  <g id="axes_1">
   <g id="patch_2">
    <path d="M 63.954688 285 
L 427.867731 285 
L 427.867731 13.2 
L 63.954688 13.2 
z
" style="fill:#ffffff;"/>
   </g>
   <g id="PolyCollection_1">
    <defs>
     <path d="M 63.954688 -112.196247 
L 63.954688 -112.196247 
L 70.019905 -122.955556 
L 76.085122 -132.11901 
L 82.15034 -144.377532 
L 88.215557 -155.198096 
L 94.280774 -168.007301 
L 100.345992 -174.817991 
L 106.411209 -185.93633 
L 112.476427 -193.599645 
L 118.541644 -202.380077 
L 124.606861 -206.503233 
L 130.672079 -213.627633 
L 136.737296 -219.791435 
L 142.802514 -226.59112 
L 148.867731 -230.95756 
L 154.932948 -229.17158 
L 160.998166 -238.923374 
L 167.063383 -245.172029 
L 173.128601 -246.14289 
L 179.193818 -244.2099 
L 185.259035 -243.723787 
L 191.324253 -249.255067 
L 197.38947 -252.928516 
L 203.454688 -250.098233 
L 209.519905 -250.149104 
L 215.585122 -252.168891 
L 221.65034 -250.380721 
L 227.715557 -248.516859 
L 233.780774 -250.870504 
L 239.845992 -251.299704 
L 245.911209 -257.303282 
L 251.976427 -257.783597 
L 258.041644 -258.101844 
L 264.106861 -257.211695 
L 270.172079 -258.312613 
L 276.237296 -261.040223 
L 282.302514 -254.981696 
L 288.367731 -258.043443 
L 294.432948 -254.885859 
L 300.498166 -256.05333 
L 306.563383 -256.367365 
L 312.628601 -259.61246 
L 318.693818 -265.575999 
L 324.759035 -262.170341 
L 330.824253 -259.300433 
L 336.88947 -252.717154 
L 342.954687 -249.114081 
L 349.019905 -251.247428 
L 355.085122 -250.921433 
L 361.15034 -253.134743 
L 367.215557 -247.97449 
L 373.280774 -247.685455 
L 379.345992 -253.369083 
L 385.411209 -257.633052 
L 391.476427 -258.086156 
L 397.541644 -254.094984 
L 403.606861 -250.947905 
L 409.672079 -255.004593 
L 415.737296 -254.177537 
L 421.802514 -254.08283 
L 427.867731 -247.872601 
L 427.867731 -279.652479 
L 427.867731 -279.652479 
L 421.802514 -286.867559 
L 415.737296 -287.567389 
L 409.672079 -288.22526 
L 403.606861 -284.91228 
L 397.541644 -286.947974 
L 391.476427 -293.04398 
L 385.411209 -291.488963 
L 379.345992 -285.056936 
L 373.280774 -281.490607 
L 367.215557 -279.327242 
L 361.15034 -284.609438 
L 355.085122 -283.286763 
L 349.019905 -281.146396 
L 342.954687 -281.07427 
L 336.88947 -284.744399 
L 330.824253 -294.866815 
L 324.759035 -296.577275 
L 318.693818 -297.741438 
L 312.628601 -293.466311 
L 306.563383 -289.814842 
L 300.498166 -289.639338 
L 294.432948 -288.394378 
L 288.367731 -293.260815 
L 282.302514 -288.112712 
L 276.237296 -295.804948 
L 270.172079 -292.622898 
L 264.106861 -290.385113 
L 258.041644 -292.670881 
L 251.976427 -290.70484 
L 245.911209 -289.764736 
L 239.845992 -284.300647 
L 233.780774 -281.970015 
L 227.715557 -279.744503 
L 221.65034 -281.304378 
L 215.585122 -284.755196 
L 209.519905 -282.954471 
L 203.454688 -282.326234 
L 197.38947 -286.563253 
L 191.324253 -280.34275 
L 185.259035 -275.671781 
L 179.193818 -275.082568 
L 173.128601 -278.353943 
L 167.063383 -275.222314 
L 160.998166 -267.918605 
L 154.932948 -256.041946 
L 148.867731 -257.878165 
L 142.802514 -252.494913 
L 136.737296 -243.918772 
L 130.672079 -237.105931 
L 124.606861 -228.825024 
L 118.541644 -222.819122 
L 112.476427 -212.35745 
L 106.411209 -201.810349 
L 100.345992 -190.114524 
L 94.280774 -181.373404 
L 88.215557 -166.835711 
L 82.15034 -154.111383 
L 76.085122 -140.365888 
L 70.019905 -127.728161 
L 63.954688 -112.196247 
z
" id="m52ce108c9c"/>
    </defs>
    <g clip-path="url(#pe3ed34d778)">
     <use style="fill:#4db8ff;" x="0" xlink:href="#m52ce108c9c" y="339.573438"/>
    </g>
   </g>
   <g id="PolyCollection_2">
    <defs>
     <path d="M 63.954688 -112.196247 
L 63.954688 -112.196247 
L 70.019905 -78.56992 
L 76.085122 -89.090356 
L 82.15034 -78.676345 
L 88.215557 -67.305189 
L 94.280774 -84.889637 
L 100.345992 -98.129028 
L 106.411209 -106.706802 
L 112.476427 -108.890801 
L 118.541644 -112.646165 
L 124.606861 -103.207107 
L 130.672079 -106.690027 
L 136.737296 -97.659059 
L 142.802514 -94.607682 
L 148.867731 -86.026205 
L 154.932948 -84.625175 
L 160.998166 -89.478315 
L 167.063383 -91.229723 
L 173.128601 -81.469814 
L 179.193818 -72.966408 
L 185.259035 -70.651242 
L 191.324253 -76.667108 
L 197.38947 -68.045411 
L 203.454688 -71.143923 
L 209.519905 -72.5739 
L 215.585122 -74.872879 
L 221.65034 -73.634201 
L 227.715557 -76.794474 
L 233.780774 -80.742522 
L 239.845992 -81.172706 
L 245.911209 -80.633854 
L 251.976427 -84.851865 
L 258.041644 -82.064269 
L 264.106861 -76.60459 
L 270.172079 -68.179833 
L 276.237296 -66.927983 
L 282.302514 -73.434421 
L 288.367731 -77.004087 
L 294.432948 -79.538028 
L 300.498166 -81.176015 
L 306.563383 -79.650482 
L 312.628601 -83.950718 
L 318.693818 -82.563397 
L 324.759035 -82.215936 
L 330.824253 -83.539337 
L 336.88947 -86.354175 
L 342.954687 -90.144534 
L 349.019905 -90.280519 
L 355.085122 -94.020128 
L 361.15034 -94.893248 
L 367.215557 -96.294274 
L 373.280774 -93.653327 
L 379.345992 -95.324724 
L 385.411209 -98.450659 
L 391.476427 -99.17636 
L 397.541644 -99.356004 
L 403.606861 -99.426473 
L 409.672079 -100.001686 
L 415.737296 -103.528521 
L 421.802514 -105.253457 
L 427.867731 -105.829538 
L 427.867731 -120.470757 
L 427.867731 -120.470757 
L 421.802514 -120.673367 
L 415.737296 -119.112742 
L 409.672079 -116.044624 
L 403.606861 -115.32428 
L 397.541644 -115.858785 
L 391.476427 -115.815843 
L 385.411209 -115.982129 
L 379.345992 -113.003462 
L 373.280774 -111.378267 
L 367.215557 -115.480768 
L 361.15034 -113.846528 
L 355.085122 -113.817927 
L 349.019905 -111.402087 
L 342.954687 -111.73112 
L 336.88947 -108.948858 
L 330.824253 -107.161883 
L 324.759035 -105.770182 
L 318.693818 -107.179085 
L 312.628601 -108.496197 
L 306.563383 -105.892036 
L 300.498166 -107.977219 
L 294.432948 -105.988907 
L 288.367731 -103.202707 
L 282.302514 -101.046809 
L 276.237296 -95.074221 
L 270.172079 -99.520887 
L 264.106861 -107.367151 
L 258.041644 -114.604514 
L 251.976427 -119.01903 
L 245.911209 -113.770368 
L 239.845992 -117.346124 
L 233.780774 -118.009131 
L 227.715557 -114.592341 
L 221.65034 -111.729179 
L 215.585122 -116.12092 
L 209.519905 -116.376871 
L 203.454688 -116.966416 
L 197.38947 -119.378102 
L 191.324253 -130.026872 
L 185.259035 -125.712967 
L 179.193818 -125.719598 
L 173.128601 -134.511801 
L 167.063383 -154.29991 
L 160.998166 -151.858915 
L 154.932948 -148.44923 
L 148.867731 -153.408423 
L 142.802514 -160.979157 
L 136.737296 -165.656769 
L 130.672079 -171.9968 
L 124.606861 -168.948288 
L 118.541644 -182.474639 
L 112.476427 -171.40021 
L 106.411209 -168.964331 
L 100.345992 -152.849467 
L 94.280774 -135.573664 
L 88.215557 -115.270628 
L 82.15034 -128.402275 
L 76.085122 -128.686885 
L 70.019905 -113.355673 
L 63.954688 -112.196247 
z
" id="m7e6a9c3a70"/>
    </defs>
    <g clip-path="url(#pe3ed34d778)">
     <use style="fill:#ffa035;" x="0" xlink:href="#m7e6a9c3a70" y="339.573438"/>
    </g>
   </g>
   <g id="PolyCollection_3">
    <defs>
     <path d="M 63.954688 -112.196247 
L 63.954688 -112.196247 
L 70.019905 -99.330474 
L 76.085122 -116.104404 
L 82.15034 -117.774424 
L 88.215557 -108.783531 
L 94.280774 -128.415438 
L 100.345992 -148.907583 
L 106.411209 -169.314346 
L 112.476427 -175.578261 
L 118.541644 -187.65631 
L 124.606861 -178.569548 
L 130.672079 -183.672475 
L 136.737296 -180.394415 
L 142.802514 -186.13276 
L 148.867731 -179.178569 
L 154.932948 -172.654495 
L 160.998166 -163.634496 
L 167.063383 -178.223719 
L 173.128601 -149.84616 
L 179.193818 -141.240032 
L 185.259035 -133.833716 
L 191.324253 -140.545649 
L 197.38947 -123.932075 
L 203.454688 -114.060067 
L 209.519905 -110.310796 
L 215.585122 -115.25404 
L 221.65034 -107.351931 
L 227.715557 -108.312821 
L 233.780774 -104.53333 
L 239.845992 -105.359882 
L 245.911209 -100.666324 
L 251.976427 -102.095594 
L 258.041644 -100.777361 
L 264.106861 -92.688849 
L 270.172079 -85.628104 
L 276.237296 -82.190888 
L 282.302514 -87.437126 
L 288.367731 -89.295455 
L 294.432948 -92.539032 
L 300.498166 -93.460243 
L 306.563383 -91.677102 
L 312.628601 -96.640782 
L 318.693818 -94.468781 
L 324.759035 -92.295006 
L 330.824253 -93.532305 
L 336.88947 -97.920892 
L 342.954687 -99.406672 
L 349.019905 -97.784939 
L 355.085122 -101.441143 
L 361.15034 -101.016236 
L 367.215557 -103.23374 
L 373.280774 -98.030924 
L 379.345992 -100.041065 
L 385.411209 -101.915613 
L 391.476427 -103.602977 
L 397.541644 -103.587816 
L 403.606861 -102.799223 
L 409.672079 -103.034957 
L 415.737296 -106.344926 
L 421.802514 -108.645132 
L 427.867731 -107.951664 
L 427.867731 -130.577716 
L 427.867731 -130.577716 
L 421.802514 -131.442301 
L 415.737296 -130.174369 
L 409.672079 -129.916375 
L 403.606861 -130.205544 
L 397.541644 -130.882153 
L 391.476427 -131.848247 
L 385.411209 -132.003056 
L 379.345992 -130.801273 
L 373.280774 -132.571606 
L 367.215557 -134.865026 
L 361.15034 -133.705627 
L 355.085122 -138.734823 
L 349.019905 -139.128779 
L 342.954687 -137.632875 
L 336.88947 -134.951511 
L 330.824253 -131.826264 
L 324.759035 -132.088268 
L 318.693818 -134.060923 
L 312.628601 -134.601868 
L 306.563383 -133.930686 
L 300.498166 -134.713126 
L 294.432948 -133.159289 
L 288.367731 -132.908841 
L 282.302514 -133.691929 
L 276.237296 -130.2852 
L 270.172079 -133.492297 
L 264.106861 -139.536959 
L 258.041644 -147.361289 
L 251.976427 -152.7206 
L 245.911209 -149.193323 
L 239.845992 -158.812769 
L 233.780774 -184.512456 
L 227.715557 -188.72888 
L 221.65034 -188.339265 
L 215.585122 -202.062272 
L 209.519905 -235.522672 
L 203.454688 -234.007536 
L 197.38947 -260.310934 
L 191.324253 -285.592035 
L 185.259035 -268.011048 
L 179.193818 -273.129109 
L 173.128601 -267.366584 
L 167.063383 -314.018892 
L 160.998166 -290.028898 
L 154.932948 -299.152656 
L 148.867731 -299.763683 
L 142.802514 -304.609763 
L 136.737296 -294.027336 
L 130.672079 -291.526862 
L 124.606861 -275.505563 
L 118.541644 -280.474978 
L 112.476427 -255.746579 
L 106.411209 -242.145617 
L 100.345992 -211.351781 
L 94.280774 -186.677935 
L 88.215557 -163.144362 
L 82.15034 -165.511316 
L 76.085122 -149.509476 
L 70.019905 -130.498509 
L 63.954688 -112.196247 
z
" id="mbbf4e79883"/>
    </defs>
    <g clip-path="url(#pe3ed34d778)">
     <use style="fill:#47d200;" x="0" xlink:href="#mbbf4e79883" y="339.573438"/>
    </g>
   </g>
   <g id="matplotlib.axis_1">
    <g id="xtick_1">
     <g id="line2d_1">
      <path clip-path="url(#pe3ed34d778)" d="M 63.954688 285 
L 63.954688 13.2 
" style="fill:none;stroke:#b0b0b0;stroke-linecap:square;stroke-width:0.8;"/>
     </g>
     <g id="line2d_2">
      <defs>
       <path d="M 0 0 
L 0 6 
" id="m9febe0aa08"/>
      </defs>
      <g>
       <use x="63.954688" xlink:href="#m9febe0aa08" y="285"/>
      </g>
     </g>
     <g id="text_1">
      <!-- 0 -->
      <defs>
       <path d="M 31.78125 66.40625 
Q 24.171875 66.40625 20.328125 58.90625 
Q 16.5 51.421875 16.5 36.375 
Q 16.5 21.390625 20.328125 13.890625 
Q 24.171875 6.390625 31.78125 6.390625 
Q 39.453125 6.390625 43.28125 13.890625 
Q 47.125 21.390625 47.125 36.375 
Q 47.125 51.421875 43.28125 58.90625 
Q 39.453125 66.40625 31.78125 66.40625 
z
M 31.78125 74.21875 
Q 44.046875 74.21875 50.515625 64.515625 
Q 56.984375 54.828125 56.984375 36.375 
Q 56.984375 17.96875 50.515625 8.265625 
Q 44.046875 -1.421875 31.78125 -1.421875 
Q 19.53125 -1.421875 13.0625 8.265625 
Q 6.59375 17.96875 6.59375 36.375 
Q 6.59375 54.828125 13.0625 64.515625 
Q 19.53125 74.21875 31.78125 74.21875 
z
" id="DejaVuSans-30"/>
      </defs>
      <g transform="translate(59.182813 305.897656)scale(0.15 -0.15)">
       <use xlink:href="#DejaVuSans-30"/>
      </g>
     </g>
    </g>
    <g id="xtick_2">
     <g id="line2d_3">
      <path clip-path="url(#pe3ed34d778)" d="M 124.606861 285 
L 124.606861 13.2 
" style="fill:none;stroke:#b0b0b0;stroke-linecap:square;stroke-width:0.8;"/>
     </g>
     <g id="line2d_4">
      <g>
       <use x="124.606861" xlink:href="#m9febe0aa08" y="285"/>
      </g>
     </g>
     <g id="text_2">
      <!-- 1 -->
      <defs>
       <path d="M 12.40625 8.296875 
L 28.515625 8.296875 
L 28.515625 63.921875 
L 10.984375 60.40625 
L 10.984375 69.390625 
L 28.421875 72.90625 
L 38.28125 72.90625 
L 38.28125 8.296875 
L 54.390625 8.296875 
L 54.390625 0 
L 12.40625 0 
z
" id="DejaVuSans-31"/>
      </defs>
      <g transform="translate(119.834986 305.897656)scale(0.15 -0.15)">
       <use xlink:href="#DejaVuSans-31"/>
      </g>
     </g>
    </g>
    <g id="xtick_3">
     <g id="line2d_5">
      <path clip-path="url(#pe3ed34d778)" d="M 185.259035 285 
L 185.259035 13.2 
" style="fill:none;stroke:#b0b0b0;stroke-linecap:square;stroke-width:0.8;"/>
     </g>
     <g id="line2d_6">
      <g>
       <use x="185.259035" xlink:href="#m9febe0aa08" y="285"/>
      </g>
     </g>
     <g id="text_3">
      <!-- 2 -->
      <defs>
       <path d="M 19.1875 8.296875 
L 53.609375 8.296875 
L 53.609375 0 
L 7.328125 0 
L 7.328125 8.296875 
Q 12.9375 14.109375 22.625 23.890625 
Q 32.328125 33.6875 34.8125 36.53125 
Q 39.546875 41.84375 41.421875 45.53125 
Q 43.3125 49.21875 43.3125 52.78125 
Q 43.3125 58.59375 39.234375 62.25 
Q 35.15625 65.921875 28.609375 65.921875 
Q 23.96875 65.921875 18.8125 64.3125 
Q 13.671875 62.703125 7.8125 59.421875 
L 7.8125 69.390625 
Q 13.765625 71.78125 18.9375 73 
Q 24.125 74.21875 28.421875 74.21875 
Q 39.75 74.21875 46.484375 68.546875 
Q 53.21875 62.890625 53.21875 53.421875 
Q 53.21875 48.921875 51.53125 44.890625 
Q 49.859375 40.875 45.40625 35.40625 
Q 44.1875 33.984375 37.640625 27.21875 
Q 31.109375 20.453125 19.1875 8.296875 
z
" id="DejaVuSans-32"/>
      </defs>
      <g transform="translate(180.48716 305.897656)scale(0.15 -0.15)">
       <use xlink:href="#DejaVuSans-32"/>
      </g>
     </g>
    </g>
    <g id="xtick_4">
     <g id="line2d_7">
      <path clip-path="url(#pe3ed34d778)" d="M 245.911209 285 
L 245.911209 13.2 
" style="fill:none;stroke:#b0b0b0;stroke-linecap:square;stroke-width:0.8;"/>
     </g>
     <g id="line2d_8">
      <g>
       <use x="245.911209" xlink:href="#m9febe0aa08" y="285"/>
      </g>
     </g>
     <g id="text_4">
      <!-- 3 -->
      <defs>
       <path d="M 40.578125 39.3125 
Q 47.65625 37.796875 51.625 33 
Q 55.609375 28.21875 55.609375 21.1875 
Q 55.609375 10.40625 48.1875 4.484375 
Q 40.765625 -1.421875 27.09375 -1.421875 
Q 22.515625 -1.421875 17.65625 -0.515625 
Q 12.796875 0.390625 7.625 2.203125 
L 7.625 11.71875 
Q 11.71875 9.328125 16.59375 8.109375 
Q 21.484375 6.890625 26.8125 6.890625 
Q 36.078125 6.890625 40.9375 10.546875 
Q 45.796875 14.203125 45.796875 21.1875 
Q 45.796875 27.640625 41.28125 31.265625 
Q 36.765625 34.90625 28.71875 34.90625 
L 20.21875 34.90625 
L 20.21875 43.015625 
L 29.109375 43.015625 
Q 36.375 43.015625 40.234375 45.921875 
Q 44.09375 48.828125 44.09375 54.296875 
Q 44.09375 59.90625 40.109375 62.90625 
Q 36.140625 65.921875 28.71875 65.921875 
Q 24.65625 65.921875 20.015625 65.03125 
Q 15.375 64.15625 9.8125 62.3125 
L 9.8125 71.09375 
Q 15.4375 72.65625 20.34375 73.4375 
Q 25.25 74.21875 29.59375 74.21875 
Q 40.828125 74.21875 47.359375 69.109375 
Q 53.90625 64.015625 53.90625 55.328125 
Q 53.90625 49.265625 50.4375 45.09375 
Q 46.96875 40.921875 40.578125 39.3125 
z
" id="DejaVuSans-33"/>
      </defs>
      <g transform="translate(241.139334 305.897656)scale(0.15 -0.15)">
       <use xlink:href="#DejaVuSans-33"/>
      </g>
     </g>
    </g>
    <g id="xtick_5">
     <g id="line2d_9">
      <path clip-path="url(#pe3ed34d778)" d="M 306.563383 285 
L 306.563383 13.2 
" style="fill:none;stroke:#b0b0b0;stroke-linecap:square;stroke-width:0.8;"/>
     </g>
     <g id="line2d_10">
      <g>
       <use x="306.563383" xlink:href="#m9febe0aa08" y="285"/>
      </g>
     </g>
     <g id="text_5">
      <!-- 4 -->
      <defs>
       <path d="M 37.796875 64.3125 
L 12.890625 25.390625 
L 37.796875 25.390625 
z
M 35.203125 72.90625 
L 47.609375 72.90625 
L 47.609375 25.390625 
L 58.015625 25.390625 
L 58.015625 17.1875 
L 47.609375 17.1875 
L 47.609375 0 
L 37.796875 0 
L 37.796875 17.1875 
L 4.890625 17.1875 
L 4.890625 26.703125 
z
" id="DejaVuSans-34"/>
      </defs>
      <g transform="translate(301.791508 305.897656)scale(0.15 -0.15)">
       <use xlink:href="#DejaVuSans-34"/>
      </g>
     </g>
    </g>
    <g id="xtick_6">
     <g id="line2d_11">
      <path clip-path="url(#pe3ed34d778)" d="M 367.215557 285 
L 367.215557 13.2 
" style="fill:none;stroke:#b0b0b0;stroke-linecap:square;stroke-width:0.8;"/>
     </g>
     <g id="line2d_12">
      <g>
       <use x="367.215557" xlink:href="#m9febe0aa08" y="285"/>
      </g>
     </g>
     <g id="text_6">
      <!-- 5 -->
      <defs>
       <path d="M 10.796875 72.90625 
L 49.515625 72.90625 
L 49.515625 64.59375 
L 19.828125 64.59375 
L 19.828125 46.734375 
Q 21.96875 47.46875 24.109375 47.828125 
Q 26.265625 48.1875 28.421875 48.1875 
Q 40.625 48.1875 47.75 41.5 
Q 54.890625 34.8125 54.890625 23.390625 
Q 54.890625 11.625 47.5625 5.09375 
Q 40.234375 -1.421875 26.90625 -1.421875 
Q 22.3125 -1.421875 17.546875 -0.640625 
Q 12.796875 0.140625 7.71875 1.703125 
L 7.71875 11.625 
Q 12.109375 9.234375 16.796875 8.0625 
Q 21.484375 6.890625 26.703125 6.890625 
Q 35.15625 6.890625 40.078125 11.328125 
Q 45.015625 15.765625 45.015625 23.390625 
Q 45.015625 31 40.078125 35.4375 
Q 35.15625 39.890625 26.703125 39.890625 
Q 22.75 39.890625 18.8125 39.015625 
Q 14.890625 38.140625 10.796875 36.28125 
z
" id="DejaVuSans-35"/>
      </defs>
      <g transform="translate(362.443682 305.897656)scale(0.15 -0.15)">
       <use xlink:href="#DejaVuSans-35"/>
      </g>
     </g>
    </g>
    <g id="xtick_7">
     <g id="line2d_13">
      <path clip-path="url(#pe3ed34d778)" d="M 427.867731 285 
L 427.867731 13.2 
" style="fill:none;stroke:#b0b0b0;stroke-linecap:square;stroke-width:0.8;"/>
     </g>
     <g id="line2d_14">
      <g>
       <use x="427.867731" xlink:href="#m9febe0aa08" y="285"/>
      </g>
     </g>
     <g id="text_7">
      <!-- 6 -->
      <defs>
       <path d="M 33.015625 40.375 
Q 26.375 40.375 22.484375 35.828125 
Q 18.609375 31.296875 18.609375 23.390625 
Q 18.609375 15.53125 22.484375 10.953125 
Q 26.375 6.390625 33.015625 6.390625 
Q 39.65625 6.390625 43.53125 10.953125 
Q 47.40625 15.53125 47.40625 23.390625 
Q 47.40625 31.296875 43.53125 35.828125 
Q 39.65625 40.375 33.015625 40.375 
z
M 52.59375 71.296875 
L 52.59375 62.3125 
Q 48.875 64.0625 45.09375 64.984375 
Q 41.3125 65.921875 37.59375 65.921875 
Q 27.828125 65.921875 22.671875 59.328125 
Q 17.53125 52.734375 16.796875 39.40625 
Q 19.671875 43.65625 24.015625 45.921875 
Q 28.375 48.1875 33.59375 48.1875 
Q 44.578125 48.1875 50.953125 41.515625 
Q 57.328125 34.859375 57.328125 23.390625 
Q 57.328125 12.15625 50.6875 5.359375 
Q 44.046875 -1.421875 33.015625 -1.421875 
Q 20.359375 -1.421875 13.671875 8.265625 
Q 6.984375 17.96875 6.984375 36.375 
Q 6.984375 53.65625 15.1875 63.9375 
Q 23.390625 74.21875 37.203125 74.21875 
Q 40.921875 74.21875 44.703125 73.484375 
Q 48.484375 72.75 52.59375 71.296875 
z
" id="DejaVuSans-36"/>
      </defs>
      <g transform="translate(423.095856 305.897656)scale(0.15 -0.15)">
       <use xlink:href="#DejaVuSans-36"/>
      </g>
     </g>
    </g>
    <g id="text_8">
     <!-- $t/\tau$ -->
     <defs>
      <path d="M 42.28125 54.6875 
L 40.921875 47.703125 
L 23 47.703125 
L 17.1875 18.015625 
Q 16.890625 16.359375 16.75 15.234375 
Q 16.609375 14.109375 16.609375 13.484375 
Q 16.609375 10.359375 18.484375 8.9375 
Q 20.359375 7.515625 24.515625 7.515625 
L 33.59375 7.515625 
L 32.078125 0 
L 23.484375 0 
Q 15.484375 0 11.546875 3.125 
Q 7.625 6.25 7.625 12.59375 
Q 7.625 13.71875 7.765625 15.0625 
Q 7.90625 16.40625 8.203125 18.015625 
L 14.015625 47.703125 
L 6.390625 47.703125 
L 7.8125 54.6875 
L 15.28125 54.6875 
L 18.3125 70.21875 
L 27.296875 70.21875 
L 24.3125 54.6875 
z
" id="DejaVuSans-Oblique-74"/>
      <path d="M 25.390625 72.90625 
L 33.6875 72.90625 
L 8.296875 -9.28125 
L 0 -9.28125 
z
" id="DejaVuSans-2f"/>
      <path d="M 32.859375 9.96875 
Q 34.1875 7.625 39.453125 7.625 
L 43.75 7.625 
L 42.28125 0 
L 36.921875 0 
Q 28.125 0 25 4.6875 
Q 21.921875 9.46875 23.96875 19.828125 
L 29 45.703125 
L 8.453125 45.703125 
L 10.203125 54.6875 
L 60.640625 54.6875 
L 58.890625 45.703125 
L 38.1875 45.703125 
L 33.015625 19.28125 
Q 31.640625 12.203125 32.859375 9.96875 
z
" id="DejaVuSans-Oblique-3c4"/>
     </defs>
     <g transform="translate(232.511209 328.214063)scale(0.2 -0.2)">
      <use transform="translate(0 0.09375)" xlink:href="#DejaVuSans-Oblique-74"/>
      <use transform="translate(39.208984 0.09375)" xlink:href="#DejaVuSans-2f"/>
      <use transform="translate(72.900391 0.09375)" xlink:href="#DejaVuSans-Oblique-3c4"/>
     </g>
    </g>
   </g>
   <g id="matplotlib.axis_2">
    <g id="ytick_1">
     <g id="line2d_15">
      <path clip-path="url(#pe3ed34d778)" d="M 63.954688 263.728196 
L 427.867731 263.728196 
" style="fill:none;stroke:#b0b0b0;stroke-linecap:square;stroke-width:0.8;"/>
     </g>
     <g id="line2d_16">
      <defs>
       <path d="M 0 0 
L -6 0 
" id="m0f1a75edc4"/>
      </defs>
      <g>
       <use x="63.954688" xlink:href="#m0f1a75edc4" y="263.728196"/>
      </g>
     </g>
     <g id="text_9">
      <!-- 0.9 -->
      <defs>
       <path d="M 10.6875 12.40625 
L 21 12.40625 
L 21 0 
L 10.6875 0 
z
" id="DejaVuSans-2e"/>
       <path d="M 10.984375 1.515625 
L 10.984375 10.5 
Q 14.703125 8.734375 18.5 7.8125 
Q 22.3125 6.890625 25.984375 6.890625 
Q 35.75 6.890625 40.890625 13.453125 
Q 46.046875 20.015625 46.78125 33.40625 
Q 43.953125 29.203125 39.59375 26.953125 
Q 35.25 24.703125 29.984375 24.703125 
Q 19.046875 24.703125 12.671875 31.3125 
Q 6.296875 37.9375 6.296875 49.421875 
Q 6.296875 60.640625 12.9375 67.421875 
Q 19.578125 74.21875 30.609375 74.21875 
Q 43.265625 74.21875 49.921875 64.515625 
Q 56.59375 54.828125 56.59375 36.375 
Q 56.59375 19.140625 48.40625 8.859375 
Q 40.234375 -1.421875 26.421875 -1.421875 
Q 22.703125 -1.421875 18.890625 -0.6875 
Q 15.09375 0.046875 10.984375 1.515625 
z
M 30.609375 32.421875 
Q 37.25 32.421875 41.125 36.953125 
Q 45.015625 41.5 45.015625 49.421875 
Q 45.015625 57.28125 41.125 61.84375 
Q 37.25 66.40625 30.609375 66.40625 
Q 23.96875 66.40625 20.09375 61.84375 
Q 16.21875 57.28125 16.21875 49.421875 
Q 16.21875 41.5 20.09375 36.953125 
Q 23.96875 32.421875 30.609375 32.421875 
z
" id="DejaVuSans-39"/>
      </defs>
      <g transform="translate(30.6 269.427024)scale(0.15 -0.15)">
       <use xlink:href="#DejaVuSans-30"/>
       <use x="63.623047" xlink:href="#DejaVuSans-2e"/>
       <use x="95.410156" xlink:href="#DejaVuSans-39"/>
      </g>
     </g>
    </g>
    <g id="ytick_2">
     <g id="line2d_17">
      <path clip-path="url(#pe3ed34d778)" d="M 63.954688 227.37719 
L 427.867731 227.37719 
" style="fill:none;stroke:#b0b0b0;stroke-linecap:square;stroke-width:0.8;"/>
     </g>
     <g id="line2d_18">
      <g>
       <use x="63.954688" xlink:href="#m0f1a75edc4" y="227.37719"/>
      </g>
     </g>
     <g id="text_10">
      <!-- 1.0 -->
      <g transform="translate(30.6 233.076019)scale(0.15 -0.15)">
       <use xlink:href="#DejaVuSans-31"/>
       <use x="63.623047" xlink:href="#DejaVuSans-2e"/>
       <use x="95.410156" xlink:href="#DejaVuSans-30"/>
      </g>
     </g>
    </g>
    <g id="ytick_3">
     <g id="line2d_19">
      <path clip-path="url(#pe3ed34d778)" d="M 63.954688 191.026185 
L 427.867731 191.026185 
" style="fill:none;stroke:#b0b0b0;stroke-linecap:square;stroke-width:0.8;"/>
     </g>
     <g id="line2d_20">
      <g>
       <use x="63.954688" xlink:href="#m0f1a75edc4" y="191.026185"/>
      </g>
     </g>
     <g id="text_11">
      <!-- 1.1 -->
      <g transform="translate(30.6 196.725013)scale(0.15 -0.15)">
       <use xlink:href="#DejaVuSans-31"/>
       <use x="63.623047" xlink:href="#DejaVuSans-2e"/>
       <use x="95.410156" xlink:href="#DejaVuSans-31"/>
      </g>
     </g>
    </g>
    <g id="ytick_4">
     <g id="line2d_21">
      <path clip-path="url(#pe3ed34d778)" d="M 63.954688 154.675179 
L 427.867731 154.675179 
" style="fill:none;stroke:#b0b0b0;stroke-linecap:square;stroke-width:0.8;"/>
     </g>
     <g id="line2d_22">
      <g>
       <use x="63.954688" xlink:href="#m0f1a75edc4" y="154.675179"/>
      </g>
     </g>
     <g id="text_12">
      <!-- 1.2 -->
      <g transform="translate(30.6 160.374007)scale(0.15 -0.15)">
       <use xlink:href="#DejaVuSans-31"/>
       <use x="63.623047" xlink:href="#DejaVuSans-2e"/>
       <use x="95.410156" xlink:href="#DejaVuSans-32"/>
      </g>
     </g>
    </g>
    <g id="ytick_5">
     <g id="line2d_23">
      <path clip-path="url(#pe3ed34d778)" d="M 63.954688 118.324174 
L 427.867731 118.324174 
" style="fill:none;stroke:#b0b0b0;stroke-linecap:square;stroke-width:0.8;"/>
     </g>
     <g id="line2d_24">
      <g>
       <use x="63.954688" xlink:href="#m0f1a75edc4" y="118.324174"/>
      </g>
     </g>
     <g id="text_13">
      <!-- 1.3 -->
      <g transform="translate(30.6 124.023002)scale(0.15 -0.15)">
       <use xlink:href="#DejaVuSans-31"/>
       <use x="63.623047" xlink:href="#DejaVuSans-2e"/>
       <use x="95.410156" xlink:href="#DejaVuSans-33"/>
      </g>
     </g>
    </g>
    <g id="ytick_6">
     <g id="line2d_25">
      <path clip-path="url(#pe3ed34d778)" d="M 63.954688 81.973168 
L 427.867731 81.973168 
" style="fill:none;stroke:#b0b0b0;stroke-linecap:square;stroke-width:0.8;"/>
     </g>
     <g id="line2d_26">
      <g>
       <use x="63.954688" xlink:href="#m0f1a75edc4" y="81.973168"/>
      </g>
     </g>
     <g id="text_14">
      <!-- 1.4 -->
      <g transform="translate(30.6 87.671996)scale(0.15 -0.15)">
       <use xlink:href="#DejaVuSans-31"/>
       <use x="63.623047" xlink:href="#DejaVuSans-2e"/>
       <use x="95.410156" xlink:href="#DejaVuSans-34"/>
      </g>
     </g>
    </g>
    <g id="ytick_7">
     <g id="line2d_27">
      <path clip-path="url(#pe3ed34d778)" d="M 63.954688 45.622162 
L 427.867731 45.622162 
" style="fill:none;stroke:#b0b0b0;stroke-linecap:square;stroke-width:0.8;"/>
     </g>
     <g id="line2d_28">
      <g>
       <use x="63.954688" xlink:href="#m0f1a75edc4" y="45.622162"/>
      </g>
     </g>
     <g id="text_15">
      <!-- 1.5 -->
      <g transform="translate(30.6 51.32099)scale(0.15 -0.15)">
       <use xlink:href="#DejaVuSans-31"/>
       <use x="63.623047" xlink:href="#DejaVuSans-2e"/>
       <use x="95.410156" xlink:href="#DejaVuSans-35"/>
      </g>
     </g>
    </g>
    <g id="text_16">
     <!-- $s$ $(\mu m)$ -->
     <defs>
      <path d="M 50 53.078125 
L 48.296875 44.578125 
Q 44.734375 46.53125 40.765625 47.5 
Q 36.8125 48.484375 32.625 48.484375 
Q 25.53125 48.484375 21.453125 46.0625 
Q 17.390625 43.65625 17.390625 39.5 
Q 17.390625 34.671875 26.859375 32.078125 
Q 27.59375 31.890625 27.9375 31.78125 
L 30.8125 30.90625 
Q 39.796875 28.421875 42.796875 25.6875 
Q 45.796875 22.953125 45.796875 18.21875 
Q 45.796875 9.515625 38.890625 4.046875 
Q 31.984375 -1.421875 20.796875 -1.421875 
Q 16.453125 -1.421875 11.671875 -0.578125 
Q 6.890625 0.25 1.125 2 
L 2.875 11.28125 
Q 7.8125 8.734375 12.59375 7.421875 
Q 17.390625 6.109375 21.78125 6.109375 
Q 28.375 6.109375 32.5 8.9375 
Q 36.625 11.765625 36.625 16.109375 
Q 36.625 20.796875 25.78125 23.6875 
L 24.859375 23.921875 
L 21.78125 24.703125 
Q 14.9375 26.515625 11.765625 29.46875 
Q 8.59375 32.421875 8.59375 37.015625 
Q 8.59375 45.75 15.15625 50.875 
Q 21.734375 56 33.015625 56 
Q 37.453125 56 41.671875 55.265625 
Q 45.90625 54.546875 50 53.078125 
z
" id="DejaVuSans-Oblique-73"/>
      <path id="DejaVuSans-20"/>
      <path d="M 31 75.875 
Q 24.46875 64.65625 21.28125 53.65625 
Q 18.109375 42.671875 18.109375 31.390625 
Q 18.109375 20.125 21.3125 9.0625 
Q 24.515625 -2 31 -13.1875 
L 23.1875 -13.1875 
Q 15.875 -1.703125 12.234375 9.375 
Q 8.59375 20.453125 8.59375 31.390625 
Q 8.59375 42.28125 12.203125 53.3125 
Q 15.828125 64.359375 23.1875 75.875 
z
" id="DejaVuSans-28"/>
      <path d="M -1.3125 -20.796875 
L 13.375 54.6875 
L 22.40625 54.6875 
L 15.765625 20.65625 
Q 15.578125 19.625 15.421875 18.359375 
Q 15.28125 17.09375 15.28125 15.828125 
Q 15.28125 11.28125 18.140625 8.828125 
Q 21 6.390625 26.3125 6.390625 
Q 33.546875 6.390625 37.984375 10.484375 
Q 42.4375 14.59375 44 22.796875 
L 50.203125 54.6875 
L 59.1875 54.6875 
L 51.03125 12.640625 
Q 50.828125 11.71875 50.75 11.03125 
Q 50.6875 10.359375 50.6875 9.8125 
Q 50.6875 8.296875 51.296875 7.59375 
Q 51.90625 6.890625 53.21875 6.890625 
Q 53.71875 6.890625 54.5625 7.125 
Q 55.421875 7.375 56.984375 8.015625 
L 55.609375 0.78125 
Q 53.46875 -0.296875 51.515625 -0.859375 
Q 49.5625 -1.421875 47.703125 -1.421875 
Q 44.484375 -1.421875 42.65625 0.625 
Q 40.828125 2.6875 40.828125 6.296875 
Q 38.09375 2.390625 34.296875 0.484375 
Q 30.515625 -1.421875 25.390625 -1.421875 
Q 20.84375 -1.421875 17.453125 0.671875 
Q 14.0625 2.78125 12.984375 6.203125 
L 7.71875 -20.796875 
z
" id="DejaVuSans-Oblique-3bc"/>
      <path d="M 89.796875 33.015625 
L 83.40625 0 
L 74.421875 0 
L 80.71875 32.71875 
Q 81.109375 34.8125 81.296875 36.328125 
Q 81.5 37.84375 81.5 38.921875 
Q 81.5 43.3125 79.046875 45.75 
Q 76.609375 48.1875 72.21875 48.1875 
Q 65.671875 48.1875 60.546875 43.28125 
Q 55.421875 38.375 53.90625 30.515625 
L 47.90625 0 
L 38.921875 0 
L 45.3125 32.71875 
Q 45.703125 34.515625 45.890625 36.046875 
Q 46.09375 37.59375 46.09375 38.8125 
Q 46.09375 43.265625 43.65625 45.71875 
Q 41.21875 48.1875 36.921875 48.1875 
Q 30.28125 48.1875 25.140625 43.28125 
Q 20.015625 38.375 18.5 30.515625 
L 12.5 0 
L 3.515625 0 
L 14.203125 54.6875 
L 23.1875 54.6875 
L 21.484375 46.1875 
Q 25.140625 50.984375 30.046875 53.484375 
Q 34.96875 56 40.578125 56 
Q 46.53125 56 50.359375 52.875 
Q 54.203125 49.75 54.984375 44.1875 
Q 59.078125 49.953125 64.46875 52.96875 
Q 69.875 56 75.875 56 
Q 82.90625 56 86.734375 51.953125 
Q 90.578125 47.90625 90.578125 40.484375 
Q 90.578125 38.875 90.375 36.9375 
Q 90.1875 35.015625 89.796875 33.015625 
z
" id="DejaVuSans-Oblique-6d"/>
      <path d="M 8.015625 75.875 
L 15.828125 75.875 
Q 23.140625 64.359375 26.78125 53.3125 
Q 30.421875 42.28125 30.421875 31.390625 
Q 30.421875 20.453125 26.78125 9.375 
Q 23.140625 -1.703125 15.828125 -13.1875 
L 8.015625 -13.1875 
Q 14.5 -2 17.703125 9.0625 
Q 20.90625 20.125 20.90625 31.390625 
Q 20.90625 42.671875 17.703125 53.65625 
Q 14.5 64.65625 8.015625 75.875 
z
" id="DejaVuSans-29"/>
     </defs>
     <g transform="translate(22.4 181.4)rotate(-90)scale(0.2 -0.2)">
      <use transform="translate(0 0.125)" xlink:href="#DejaVuSans-Oblique-73"/>
      <use transform="translate(52.099609 0.125)" xlink:href="#DejaVuSans-20"/>
      <use transform="translate(83.886719 0.125)" xlink:href="#DejaVuSans-28"/>
      <use transform="translate(122.900391 0.125)" xlink:href="#DejaVuSans-Oblique-3bc"/>
      <use transform="translate(186.523438 0.125)" xlink:href="#DejaVuSans-Oblique-6d"/>
      <use transform="translate(283.935547 0.125)" xlink:href="#DejaVuSans-29"/>
     </g>
    </g>
   </g>
   <g id="line2d_29">
    <path clip-path="url(#pe3ed34d778)" d="M 63.954688 227.37719 
L 70.019905 214.231579 
L 76.085122 203.330988 
L 82.15034 190.32898 
L 88.215557 178.556534 
L 94.280774 164.883085 
L 100.345992 157.10718 
L 106.411209 145.700098 
L 112.476427 136.59489 
L 118.541644 126.973838 
L 124.606861 121.909309 
L 130.672079 114.206655 
L 136.737296 107.718334 
L 142.802514 100.030421 
L 148.867731 95.155575 
L 154.932948 96.966674 
L 160.998166 86.152448 
L 167.063383 79.376266 
L 173.128601 77.325021 
L 179.193818 79.927204 
L 185.259035 79.875654 
L 191.324253 74.774529 
L 197.38947 69.827553 
L 203.454688 73.361204 
L 209.519905 73.02165 
L 215.585122 71.111394 
L 221.65034 73.730888 
L 227.715557 75.442756 
L 233.780774 73.153178 
L 239.845992 71.773262 
L 245.911209 66.039428 
L 251.976427 65.329219 
L 258.041644 64.187075 
L 264.106861 65.775033 
L 270.172079 64.105682 
L 276.237296 61.150852 
L 282.302514 68.026234 
L 288.367731 63.921309 
L 294.432948 67.933319 
L 300.498166 66.727104 
L 306.563383 66.482334 
L 312.628601 63.034052 
L 318.693818 57.914719 
L 324.759035 60.199629 
L 330.824253 62.489814 
L 336.88947 70.842661 
L 342.954687 74.479262 
L 349.019905 73.376525 
L 355.085122 72.46934 
L 361.15034 70.701347 
L 367.215557 75.922572 
L 373.280774 74.985407 
L 379.345992 70.360428 
L 385.411209 65.01243 
L 391.476427 64.00837 
L 397.541644 69.051958 
L 403.606861 71.643345 
L 409.672079 67.958511 
L 415.737296 68.700974 
L 421.802514 69.098243 
L 427.867731 75.810898 
" style="fill:none;stroke:#1f77b4;stroke-linecap:square;stroke-width:3;"/>
   </g>
   <g id="line2d_30">
    <path clip-path="url(#pe3ed34d778)" d="M 63.954688 227.37719 
L 70.019905 243.610641 
L 76.085122 230.684817 
L 82.15034 236.034127 
L 88.215557 248.285529 
L 94.280774 229.341787 
L 100.345992 214.08419 
L 106.411209 201.737871 
L 112.476427 199.427932 
L 118.541644 192.013036 
L 124.606861 203.49574 
L 130.672079 200.230024 
L 136.737296 207.915524 
L 142.802514 211.780018 
L 148.867731 219.856123 
L 154.932948 223.036235 
L 160.998166 218.904822 
L 167.063383 216.808621 
L 173.128601 231.58263 
L 179.193818 240.230435 
L 185.259035 241.391333 
L 191.324253 236.226448 
L 197.38947 245.861681 
L 203.454688 245.518268 
L 209.519905 245.098052 
L 215.585122 244.076538 
L 221.65034 246.891747 
L 227.715557 243.88003 
L 233.780774 240.197611 
L 239.845992 240.314023 
L 245.911209 242.371327 
L 251.976427 237.63799 
L 258.041644 241.239046 
L 264.106861 247.587567 
L 270.172079 255.723077 
L 276.237296 258.572336 
L 282.302514 252.332822 
L 288.367731 249.470041 
L 294.432948 246.80997 
L 300.498166 244.99682 
L 306.563383 246.802178 
L 312.628601 243.34998 
L 318.693818 244.702196 
L 324.759035 245.580379 
L 330.824253 244.222827 
L 336.88947 241.921921 
L 342.954687 238.635611 
L 349.019905 238.732134 
L 355.085122 235.65441 
L 361.15034 235.20355 
L 367.215557 233.685916 
L 373.280774 237.057641 
L 379.345992 235.409345 
L 385.411209 232.357044 
L 391.476427 232.077336 
L 397.541644 231.966043 
L 403.606861 232.198061 
L 409.672079 231.550283 
L 415.737296 228.252806 
L 421.802514 226.610025 
L 427.867731 226.42329 
" style="fill:none;stroke:#ff7f0e;stroke-linecap:square;stroke-width:3;"/>
   </g>
   <g id="line2d_31">
    <path clip-path="url(#pe3ed34d778)" d="M 63.954688 227.37719 
L 70.019905 224.658946 
L 76.085122 206.766497 
L 82.15034 197.930568 
L 88.215557 203.609491 
L 94.280774 182.026751 
L 100.345992 159.443756 
L 106.411209 133.843456 
L 112.476427 123.911017 
L 118.541644 105.507793 
L 124.606861 112.535882 
L 130.672079 101.973769 
L 136.737296 102.362562 
L 142.802514 94.202176 
L 148.867731 100.102311 
L 154.932948 103.669862 
L 160.998166 112.741741 
L 167.063383 93.452132 
L 173.128601 130.967065 
L 179.193818 132.388867 
L 185.259035 138.651056 
L 191.324253 126.504595 
L 197.38947 147.451933 
L 203.454688 165.539636 
L 209.519905 166.656703 
L 215.585122 180.915282 
L 221.65034 191.727839 
L 227.715557 191.052587 
L 233.780774 195.050544 
L 239.845992 207.487112 
L 245.911209 214.643614 
L 251.976427 212.165341 
L 258.041644 215.504113 
L 264.106861 223.460534 
L 270.172079 230.013237 
L 276.237296 233.335393 
L 282.302514 229.00891 
L 288.367731 228.471289 
L 294.432948 226.724277 
L 300.498166 225.486753 
L 306.563383 226.769544 
L 312.628601 223.952113 
L 318.693818 225.308585 
L 324.759035 227.381801 
L 330.824253 226.894153 
L 336.88947 223.137236 
L 342.954687 221.053664 
L 349.019905 221.116578 
L 355.085122 219.485455 
L 361.15034 222.212506 
L 367.215557 220.524054 
L 373.280774 224.272173 
L 379.345992 224.152269 
L 385.411209 222.614103 
L 391.476427 221.847825 
L 397.541644 222.338453 
L 403.606861 223.071054 
L 409.672079 223.097772 
L 415.737296 221.31379 
L 421.802514 219.529721 
L 427.867731 220.308747 
" style="fill:none;stroke:#2ca02c;stroke-linecap:square;stroke-width:3;"/>
   </g>
   <g id="patch_3">
    <path d="M 63.954688 285 
L 63.954688 13.2 
" style="fill:none;stroke:#000000;stroke-linecap:square;stroke-linejoin:miter;stroke-width:2;"/>
   </g>
   <g id="patch_4">
    <path d="M 427.867731 285 
L 427.867731 13.2 
" style="fill:none;"/>
   </g>
   <g id="patch_5">
    <path d="M 63.954688 285 
L 427.867731 285 
" style="fill:none;stroke:#000000;stroke-linecap:square;stroke-linejoin:miter;stroke-width:2;"/>
   </g>
   <g id="patch_6">
    <path d="M 63.954688 13.2 
L 427.867731 13.2 
" style="fill:none;"/>
   </g>
   <g id="legend_1">
    <g id="patch_7">
     <path d="M 162.04195 184.375781 
L 417.367731 184.375781 
Q 420.367731 184.375781 420.367731 181.375781 
L 420.367731 116.824219 
Q 420.367731 113.824219 417.367731 113.824219 
L 162.04195 113.824219 
Q 159.04195 113.824219 159.04195 116.824219 
L 159.04195 181.375781 
Q 159.04195 184.375781 162.04195 184.375781 
z
" style="fill:#ffffff;opacity:0.8;stroke:#cccccc;stroke-linejoin:miter;"/>
    </g>
    <g id="line2d_32">
     <path d="M 165.04195 125.971875 
L 195.04195 125.971875 
" style="fill:none;stroke:#1f77b4;stroke-linecap:square;stroke-width:3;"/>
    </g>
    <g id="line2d_33"/>
    <g id="text_17">
     <!-- Single Lineage -->
     <defs>
      <path d="M 53.515625 70.515625 
L 53.515625 60.890625 
Q 47.90625 63.578125 42.921875 64.890625 
Q 37.9375 66.21875 33.296875 66.21875 
Q 25.25 66.21875 20.875 63.09375 
Q 16.5 59.96875 16.5 54.203125 
Q 16.5 49.359375 19.40625 46.890625 
Q 22.3125 44.4375 30.421875 42.921875 
L 36.375 41.703125 
Q 47.40625 39.59375 52.65625 34.296875 
Q 57.90625 29 57.90625 20.125 
Q 57.90625 9.515625 50.796875 4.046875 
Q 43.703125 -1.421875 29.984375 -1.421875 
Q 24.8125 -1.421875 18.96875 -0.25 
Q 13.140625 0.921875 6.890625 3.21875 
L 6.890625 13.375 
Q 12.890625 10.015625 18.65625 8.296875 
Q 24.421875 6.59375 29.984375 6.59375 
Q 38.421875 6.59375 43.015625 9.90625 
Q 47.609375 13.234375 47.609375 19.390625 
Q 47.609375 24.75 44.3125 27.78125 
Q 41.015625 30.8125 33.5 32.328125 
L 27.484375 33.5 
Q 16.453125 35.6875 11.515625 40.375 
Q 6.59375 45.0625 6.59375 53.421875 
Q 6.59375 63.09375 13.40625 68.65625 
Q 20.21875 74.21875 32.171875 74.21875 
Q 37.3125 74.21875 42.625 73.28125 
Q 47.953125 72.359375 53.515625 70.515625 
z
" id="DejaVuSans-53"/>
      <path d="M 9.421875 54.6875 
L 18.40625 54.6875 
L 18.40625 0 
L 9.421875 0 
z
M 9.421875 75.984375 
L 18.40625 75.984375 
L 18.40625 64.59375 
L 9.421875 64.59375 
z
" id="DejaVuSans-69"/>
      <path d="M 54.890625 33.015625 
L 54.890625 0 
L 45.90625 0 
L 45.90625 32.71875 
Q 45.90625 40.484375 42.875 44.328125 
Q 39.84375 48.1875 33.796875 48.1875 
Q 26.515625 48.1875 22.3125 43.546875 
Q 18.109375 38.921875 18.109375 30.90625 
L 18.109375 0 
L 9.078125 0 
L 9.078125 54.6875 
L 18.109375 54.6875 
L 18.109375 46.1875 
Q 21.34375 51.125 25.703125 53.5625 
Q 30.078125 56 35.796875 56 
Q 45.21875 56 50.046875 50.171875 
Q 54.890625 44.34375 54.890625 33.015625 
z
" id="DejaVuSans-6e"/>
      <path d="M 45.40625 27.984375 
Q 45.40625 37.75 41.375 43.109375 
Q 37.359375 48.484375 30.078125 48.484375 
Q 22.859375 48.484375 18.828125 43.109375 
Q 14.796875 37.75 14.796875 27.984375 
Q 14.796875 18.265625 18.828125 12.890625 
Q 22.859375 7.515625 30.078125 7.515625 
Q 37.359375 7.515625 41.375 12.890625 
Q 45.40625 18.265625 45.40625 27.984375 
z
M 54.390625 6.78125 
Q 54.390625 -7.171875 48.1875 -13.984375 
Q 42 -20.796875 29.203125 -20.796875 
Q 24.46875 -20.796875 20.265625 -20.09375 
Q 16.0625 -19.390625 12.109375 -17.921875 
L 12.109375 -9.1875 
Q 16.0625 -11.328125 19.921875 -12.34375 
Q 23.78125 -13.375 27.78125 -13.375 
Q 36.625 -13.375 41.015625 -8.765625 
Q 45.40625 -4.15625 45.40625 5.171875 
L 45.40625 9.625 
Q 42.625 4.78125 38.28125 2.390625 
Q 33.9375 0 27.875 0 
Q 17.828125 0 11.671875 7.65625 
Q 5.515625 15.328125 5.515625 27.984375 
Q 5.515625 40.671875 11.671875 48.328125 
Q 17.828125 56 27.875 56 
Q 33.9375 56 38.28125 53.609375 
Q 42.625 51.21875 45.40625 46.390625 
L 45.40625 54.6875 
L 54.390625 54.6875 
z
" id="DejaVuSans-67"/>
      <path d="M 9.421875 75.984375 
L 18.40625 75.984375 
L 18.40625 0 
L 9.421875 0 
z
" id="DejaVuSans-6c"/>
      <path d="M 56.203125 29.59375 
L 56.203125 25.203125 
L 14.890625 25.203125 
Q 15.484375 15.921875 20.484375 11.0625 
Q 25.484375 6.203125 34.421875 6.203125 
Q 39.59375 6.203125 44.453125 7.46875 
Q 49.3125 8.734375 54.109375 11.28125 
L 54.109375 2.78125 
Q 49.265625 0.734375 44.1875 -0.34375 
Q 39.109375 -1.421875 33.890625 -1.421875 
Q 20.796875 -1.421875 13.15625 6.1875 
Q 5.515625 13.8125 5.515625 26.8125 
Q 5.515625 40.234375 12.765625 48.109375 
Q 20.015625 56 32.328125 56 
Q 43.359375 56 49.78125 48.890625 
Q 56.203125 41.796875 56.203125 29.59375 
z
M 47.21875 32.234375 
Q 47.125 39.59375 43.09375 43.984375 
Q 39.0625 48.390625 32.421875 48.390625 
Q 24.90625 48.390625 20.390625 44.140625 
Q 15.875 39.890625 15.1875 32.171875 
z
" id="DejaVuSans-65"/>
      <path d="M 9.8125 72.90625 
L 19.671875 72.90625 
L 19.671875 8.296875 
L 55.171875 8.296875 
L 55.171875 0 
L 9.8125 0 
z
" id="DejaVuSans-4c"/>
      <path d="M 34.28125 27.484375 
Q 23.390625 27.484375 19.1875 25 
Q 14.984375 22.515625 14.984375 16.5 
Q 14.984375 11.71875 18.140625 8.90625 
Q 21.296875 6.109375 26.703125 6.109375 
Q 34.1875 6.109375 38.703125 11.40625 
Q 43.21875 16.703125 43.21875 25.484375 
L 43.21875 27.484375 
z
M 52.203125 31.203125 
L 52.203125 0 
L 43.21875 0 
L 43.21875 8.296875 
Q 40.140625 3.328125 35.546875 0.953125 
Q 30.953125 -1.421875 24.3125 -1.421875 
Q 15.921875 -1.421875 10.953125 3.296875 
Q 6 8.015625 6 15.921875 
Q 6 25.140625 12.171875 29.828125 
Q 18.359375 34.515625 30.609375 34.515625 
L 43.21875 34.515625 
L 43.21875 35.40625 
Q 43.21875 41.609375 39.140625 45 
Q 35.0625 48.390625 27.6875 48.390625 
Q 23 48.390625 18.546875 47.265625 
Q 14.109375 46.140625 10.015625 43.890625 
L 10.015625 52.203125 
Q 14.9375 54.109375 19.578125 55.046875 
Q 24.21875 56 28.609375 56 
Q 40.484375 56 46.34375 49.84375 
Q 52.203125 43.703125 52.203125 31.203125 
z
" id="DejaVuSans-61"/>
     </defs>
     <g transform="translate(207.04195 131.221875)scale(0.15 -0.15)">
      <use xlink:href="#DejaVuSans-53"/>
      <use x="63.476562" xlink:href="#DejaVuSans-69"/>
      <use x="91.259766" xlink:href="#DejaVuSans-6e"/>
      <use x="154.638672" xlink:href="#DejaVuSans-67"/>
      <use x="218.115234" xlink:href="#DejaVuSans-6c"/>
      <use x="245.898438" xlink:href="#DejaVuSans-65"/>
      <use x="307.421875" xlink:href="#DejaVuSans-20"/>
      <use x="339.208984" xlink:href="#DejaVuSans-4c"/>
      <use x="394.921875" xlink:href="#DejaVuSans-69"/>
      <use x="422.705078" xlink:href="#DejaVuSans-6e"/>
      <use x="486.083984" xlink:href="#DejaVuSans-65"/>
      <use x="547.607422" xlink:href="#DejaVuSans-61"/>
      <use x="608.886719" xlink:href="#DejaVuSans-67"/>
      <use x="672.363281" xlink:href="#DejaVuSans-65"/>
     </g>
    </g>
    <g id="line2d_34">
     <path d="M 165.04195 147.989063 
L 195.04195 147.989063 
" style="fill:none;stroke:#ff7f0e;stroke-linecap:square;stroke-width:3;"/>
    </g>
    <g id="line2d_35"/>
    <g id="text_18">
     <!-- Population Snapshots (PBE) -->
     <defs>
      <path d="M 19.671875 64.796875 
L 19.671875 37.40625 
L 32.078125 37.40625 
Q 38.96875 37.40625 42.71875 40.96875 
Q 46.484375 44.53125 46.484375 51.125 
Q 46.484375 57.671875 42.71875 61.234375 
Q 38.96875 64.796875 32.078125 64.796875 
z
M 9.8125 72.90625 
L 32.078125 72.90625 
Q 44.34375 72.90625 50.609375 67.359375 
Q 56.890625 61.8125 56.890625 51.125 
Q 56.890625 40.328125 50.609375 34.8125 
Q 44.34375 29.296875 32.078125 29.296875 
L 19.671875 29.296875 
L 19.671875 0 
L 9.8125 0 
z
" id="DejaVuSans-50"/>
      <path d="M 30.609375 48.390625 
Q 23.390625 48.390625 19.1875 42.75 
Q 14.984375 37.109375 14.984375 27.296875 
Q 14.984375 17.484375 19.15625 11.84375 
Q 23.34375 6.203125 30.609375 6.203125 
Q 37.796875 6.203125 41.984375 11.859375 
Q 46.1875 17.53125 46.1875 27.296875 
Q 46.1875 37.015625 41.984375 42.703125 
Q 37.796875 48.390625 30.609375 48.390625 
z
M 30.609375 56 
Q 42.328125 56 49.015625 48.375 
Q 55.71875 40.765625 55.71875 27.296875 
Q 55.71875 13.875 49.015625 6.21875 
Q 42.328125 -1.421875 30.609375 -1.421875 
Q 18.84375 -1.421875 12.171875 6.21875 
Q 5.515625 13.875 5.515625 27.296875 
Q 5.515625 40.765625 12.171875 48.375 
Q 18.84375 56 30.609375 56 
z
" id="DejaVuSans-6f"/>
      <path d="M 18.109375 8.203125 
L 18.109375 -20.796875 
L 9.078125 -20.796875 
L 9.078125 54.6875 
L 18.109375 54.6875 
L 18.109375 46.390625 
Q 20.953125 51.265625 25.265625 53.625 
Q 29.59375 56 35.59375 56 
Q 45.5625 56 51.78125 48.09375 
Q 58.015625 40.1875 58.015625 27.296875 
Q 58.015625 14.40625 51.78125 6.484375 
Q 45.5625 -1.421875 35.59375 -1.421875 
Q 29.59375 -1.421875 25.265625 0.953125 
Q 20.953125 3.328125 18.109375 8.203125 
z
M 48.6875 27.296875 
Q 48.6875 37.203125 44.609375 42.84375 
Q 40.53125 48.484375 33.40625 48.484375 
Q 26.265625 48.484375 22.1875 42.84375 
Q 18.109375 37.203125 18.109375 27.296875 
Q 18.109375 17.390625 22.1875 11.75 
Q 26.265625 6.109375 33.40625 6.109375 
Q 40.53125 6.109375 44.609375 11.75 
Q 48.6875 17.390625 48.6875 27.296875 
z
" id="DejaVuSans-70"/>
      <path d="M 8.5 21.578125 
L 8.5 54.6875 
L 17.484375 54.6875 
L 17.484375 21.921875 
Q 17.484375 14.15625 20.5 10.265625 
Q 23.53125 6.390625 29.59375 6.390625 
Q 36.859375 6.390625 41.078125 11.03125 
Q 45.3125 15.671875 45.3125 23.6875 
L 45.3125 54.6875 
L 54.296875 54.6875 
L 54.296875 0 
L 45.3125 0 
L 45.3125 8.40625 
Q 42.046875 3.421875 37.71875 1 
Q 33.40625 -1.421875 27.6875 -1.421875 
Q 18.265625 -1.421875 13.375 4.4375 
Q 8.5 10.296875 8.5 21.578125 
z
M 31.109375 56 
z
" id="DejaVuSans-75"/>
      <path d="M 18.3125 70.21875 
L 18.3125 54.6875 
L 36.8125 54.6875 
L 36.8125 47.703125 
L 18.3125 47.703125 
L 18.3125 18.015625 
Q 18.3125 11.328125 20.140625 9.421875 
Q 21.96875 7.515625 27.59375 7.515625 
L 36.8125 7.515625 
L 36.8125 0 
L 27.59375 0 
Q 17.1875 0 13.234375 3.875 
Q 9.28125 7.765625 9.28125 18.015625 
L 9.28125 47.703125 
L 2.6875 47.703125 
L 2.6875 54.6875 
L 9.28125 54.6875 
L 9.28125 70.21875 
z
" id="DejaVuSans-74"/>
      <path d="M 44.28125 53.078125 
L 44.28125 44.578125 
Q 40.484375 46.53125 36.375 47.5 
Q 32.28125 48.484375 27.875 48.484375 
Q 21.1875 48.484375 17.84375 46.4375 
Q 14.5 44.390625 14.5 40.28125 
Q 14.5 37.15625 16.890625 35.375 
Q 19.28125 33.59375 26.515625 31.984375 
L 29.59375 31.296875 
Q 39.15625 29.25 43.1875 25.515625 
Q 47.21875 21.78125 47.21875 15.09375 
Q 47.21875 7.46875 41.1875 3.015625 
Q 35.15625 -1.421875 24.609375 -1.421875 
Q 20.21875 -1.421875 15.453125 -0.5625 
Q 10.6875 0.296875 5.421875 2 
L 5.421875 11.28125 
Q 10.40625 8.6875 15.234375 7.390625 
Q 20.0625 6.109375 24.8125 6.109375 
Q 31.15625 6.109375 34.5625 8.28125 
Q 37.984375 10.453125 37.984375 14.40625 
Q 37.984375 18.0625 35.515625 20.015625 
Q 33.0625 21.96875 24.703125 23.78125 
L 21.578125 24.515625 
Q 13.234375 26.265625 9.515625 29.90625 
Q 5.8125 33.546875 5.8125 39.890625 
Q 5.8125 47.609375 11.28125 51.796875 
Q 16.75 56 26.8125 56 
Q 31.78125 56 36.171875 55.265625 
Q 40.578125 54.546875 44.28125 53.078125 
z
" id="DejaVuSans-73"/>
      <path d="M 54.890625 33.015625 
L 54.890625 0 
L 45.90625 0 
L 45.90625 32.71875 
Q 45.90625 40.484375 42.875 44.328125 
Q 39.84375 48.1875 33.796875 48.1875 
Q 26.515625 48.1875 22.3125 43.546875 
Q 18.109375 38.921875 18.109375 30.90625 
L 18.109375 0 
L 9.078125 0 
L 9.078125 75.984375 
L 18.109375 75.984375 
L 18.109375 46.1875 
Q 21.34375 51.125 25.703125 53.5625 
Q 30.078125 56 35.796875 56 
Q 45.21875 56 50.046875 50.171875 
Q 54.890625 44.34375 54.890625 33.015625 
z
" id="DejaVuSans-68"/>
      <path d="M 19.671875 34.8125 
L 19.671875 8.109375 
L 35.5 8.109375 
Q 43.453125 8.109375 47.28125 11.40625 
Q 51.125 14.703125 51.125 21.484375 
Q 51.125 28.328125 47.28125 31.5625 
Q 43.453125 34.8125 35.5 34.8125 
z
M 19.671875 64.796875 
L 19.671875 42.828125 
L 34.28125 42.828125 
Q 41.5 42.828125 45.03125 45.53125 
Q 48.578125 48.25 48.578125 53.8125 
Q 48.578125 59.328125 45.03125 62.0625 
Q 41.5 64.796875 34.28125 64.796875 
z
M 9.8125 72.90625 
L 35.015625 72.90625 
Q 46.296875 72.90625 52.390625 68.21875 
Q 58.5 63.53125 58.5 54.890625 
Q 58.5 48.1875 55.375 44.234375 
Q 52.25 40.28125 46.1875 39.3125 
Q 53.46875 37.75 57.5 32.78125 
Q 61.53125 27.828125 61.53125 20.40625 
Q 61.53125 10.640625 54.890625 5.3125 
Q 48.25 0 35.984375 0 
L 9.8125 0 
z
" id="DejaVuSans-42"/>
      <path d="M 9.8125 72.90625 
L 55.90625 72.90625 
L 55.90625 64.59375 
L 19.671875 64.59375 
L 19.671875 43.015625 
L 54.390625 43.015625 
L 54.390625 34.71875 
L 19.671875 34.71875 
L 19.671875 8.296875 
L 56.78125 8.296875 
L 56.78125 0 
L 9.8125 0 
z
" id="DejaVuSans-45"/>
     </defs>
     <g transform="translate(207.04195 153.239063)scale(0.15 -0.15)">
      <use xlink:href="#DejaVuSans-50"/>
      <use x="60.255859" xlink:href="#DejaVuSans-6f"/>
      <use x="121.4375" xlink:href="#DejaVuSans-70"/>
      <use x="184.914062" xlink:href="#DejaVuSans-75"/>
      <use x="248.292969" xlink:href="#DejaVuSans-6c"/>
      <use x="276.076172" xlink:href="#DejaVuSans-61"/>
      <use x="337.355469" xlink:href="#DejaVuSans-74"/>
      <use x="376.564453" xlink:href="#DejaVuSans-69"/>
      <use x="404.347656" xlink:href="#DejaVuSans-6f"/>
      <use x="465.529297" xlink:href="#DejaVuSans-6e"/>
      <use x="528.908203" xlink:href="#DejaVuSans-20"/>
      <use x="560.695312" xlink:href="#DejaVuSans-53"/>
      <use x="624.171875" xlink:href="#DejaVuSans-6e"/>
      <use x="687.550781" xlink:href="#DejaVuSans-61"/>
      <use x="748.830078" xlink:href="#DejaVuSans-70"/>
      <use x="812.306641" xlink:href="#DejaVuSans-73"/>
      <use x="864.40625" xlink:href="#DejaVuSans-68"/>
      <use x="927.785156" xlink:href="#DejaVuSans-6f"/>
      <use x="988.966797" xlink:href="#DejaVuSans-74"/>
      <use x="1028.175781" xlink:href="#DejaVuSans-73"/>
      <use x="1080.275391" xlink:href="#DejaVuSans-20"/>
      <use x="1112.0625" xlink:href="#DejaVuSans-28"/>
      <use x="1151.076172" xlink:href="#DejaVuSans-50"/>
      <use x="1211.378906" xlink:href="#DejaVuSans-42"/>
      <use x="1279.982422" xlink:href="#DejaVuSans-45"/>
      <use x="1343.166016" xlink:href="#DejaVuSans-29"/>
     </g>
    </g>
    <g id="line2d_36">
     <path d="M 165.04195 170.00625 
L 195.04195 170.00625 
" style="fill:none;stroke:#2ca02c;stroke-linecap:square;stroke-width:3;"/>
    </g>
    <g id="line2d_37"/>
    <g id="text_19">
     <!-- Lineage Tracking -->
     <defs>
      <path d="M -0.296875 72.90625 
L 61.375 72.90625 
L 61.375 64.59375 
L 35.5 64.59375 
L 35.5 0 
L 25.59375 0 
L 25.59375 64.59375 
L -0.296875 64.59375 
z
" id="DejaVuSans-54"/>
      <path d="M 41.109375 46.296875 
Q 39.59375 47.171875 37.8125 47.578125 
Q 36.03125 48 33.890625 48 
Q 26.265625 48 22.1875 43.046875 
Q 18.109375 38.09375 18.109375 28.8125 
L 18.109375 0 
L 9.078125 0 
L 9.078125 54.6875 
L 18.109375 54.6875 
L 18.109375 46.1875 
Q 20.953125 51.171875 25.484375 53.578125 
Q 30.03125 56 36.53125 56 
Q 37.453125 56 38.578125 55.875 
Q 39.703125 55.765625 41.0625 55.515625 
z
" id="DejaVuSans-72"/>
      <path d="M 48.78125 52.59375 
L 48.78125 44.1875 
Q 44.96875 46.296875 41.140625 47.34375 
Q 37.3125 48.390625 33.40625 48.390625 
Q 24.65625 48.390625 19.8125 42.84375 
Q 14.984375 37.3125 14.984375 27.296875 
Q 14.984375 17.28125 19.8125 11.734375 
Q 24.65625 6.203125 33.40625 6.203125 
Q 37.3125 6.203125 41.140625 7.25 
Q 44.96875 8.296875 48.78125 10.40625 
L 48.78125 2.09375 
Q 45.015625 0.34375 40.984375 -0.53125 
Q 36.96875 -1.421875 32.421875 -1.421875 
Q 20.0625 -1.421875 12.78125 6.34375 
Q 5.515625 14.109375 5.515625 27.296875 
Q 5.515625 40.671875 12.859375 48.328125 
Q 20.21875 56 33.015625 56 
Q 37.15625 56 41.109375 55.140625 
Q 45.0625 54.296875 48.78125 52.59375 
z
" id="DejaVuSans-63"/>
      <path d="M 9.078125 75.984375 
L 18.109375 75.984375 
L 18.109375 31.109375 
L 44.921875 54.6875 
L 56.390625 54.6875 
L 27.390625 29.109375 
L 57.625 0 
L 45.90625 0 
L 18.109375 26.703125 
L 18.109375 0 
L 9.078125 0 
z
" id="DejaVuSans-6b"/>
     </defs>
     <g transform="translate(207.04195 175.25625)scale(0.15 -0.15)">
      <use xlink:href="#DejaVuSans-4c"/>
      <use x="55.712891" xlink:href="#DejaVuSans-69"/>
      <use x="83.496094" xlink:href="#DejaVuSans-6e"/>
      <use x="146.875" xlink:href="#DejaVuSans-65"/>
      <use x="208.398438" xlink:href="#DejaVuSans-61"/>
      <use x="269.677734" xlink:href="#DejaVuSans-67"/>
      <use x="333.154297" xlink:href="#DejaVuSans-65"/>
      <use x="394.677734" xlink:href="#DejaVuSans-20"/>
      <use x="426.464844" xlink:href="#DejaVuSans-54"/>
      <use x="487.330078" xlink:href="#DejaVuSans-72"/>
      <use x="528.443359" xlink:href="#DejaVuSans-61"/>
      <use x="589.722656" xlink:href="#DejaVuSans-63"/>
      <use x="644.703125" xlink:href="#DejaVuSans-6b"/>
      <use x="702.613281" xlink:href="#DejaVuSans-69"/>
      <use x="730.396484" xlink:href="#DejaVuSans-6e"/>
      <use x="793.775391" xlink:href="#DejaVuSans-67"/>
     </g>
    </g>
   </g>
  </g>
  <g id="axes_2">
   <g id="patch_8">
    <path d="M 537.041644 285 
L 900.954688 285 
L 900.954688 13.2 
L 537.041644 13.2 
z
" style="fill:#ffffff;"/>
   </g>
   <g id="PolyCollection_4">
    <defs>
     <path d="M 537.041644 -67.491911 
L 537.041644 -67.491911 
L 543.106861 -73.342936 
L 549.172079 -81.543255 
L 555.237296 -89.131811 
L 561.302514 -97.149933 
L 567.367731 -104.718534 
L 573.432948 -114.690872 
L 579.498166 -123.201227 
L 585.563383 -133.611963 
L 591.628601 -142.098553 
L 597.693818 -152.452416 
L 603.759035 -160.393239 
L 609.824253 -168.341471 
L 615.88947 -174.246555 
L 621.954688 -181.355597 
L 628.019905 -186.854951 
L 634.085122 -195.074597 
L 640.15034 -202.82557 
L 646.215557 -206.253129 
L 652.280774 -213.133569 
L 658.345992 -211.741507 
L 664.411209 -212.666993 
L 670.476427 -216.346851 
L 676.541644 -208.666502 
L 682.606861 -210.228661 
L 688.672079 -207.453559 
L 694.737296 -205.481449 
L 700.802514 -208.792238 
L 706.867731 -208.235941 
L 712.932948 -210.207078 
L 718.998166 -205.431891 
L 725.063383 -212.24687 
L 731.128601 -210.092905 
L 737.193818 -206.846016 
L 743.259035 -206.332134 
L 749.324253 -205.279248 
L 755.38947 -210.490214 
L 761.454687 -210.311133 
L 767.519905 -218.157507 
L 773.585122 -213.757312 
L 779.65034 -213.29375 
L 785.715557 -219.77907 
L 791.780774 -221.470784 
L 797.845992 -222.393447 
L 803.911209 -222.455297 
L 809.976427 -207.726441 
L 816.041644 -206.155377 
L 822.106861 -206.274146 
L 828.172079 -208.130258 
L 834.237296 -209.656919 
L 840.302514 -204.524142 
L 846.367731 -209.824576 
L 852.432948 -219.418135 
L 858.498166 -218.330206 
L 864.563383 -219.351255 
L 870.628601 -209.956759 
L 876.693818 -210.400607 
L 882.759035 -211.704013 
L 888.824253 -206.423659 
L 894.88947 -203.993245 
L 900.954687 -206.388521 
L 900.954687 -230.848026 
L 900.954687 -230.848026 
L 894.88947 -233.557978 
L 888.824253 -236.795225 
L 882.759035 -248.784544 
L 876.693818 -246.649496 
L 870.628601 -240.756457 
L 864.563383 -251.201923 
L 858.498166 -250.822071 
L 852.432948 -248.828542 
L 846.367731 -236.822644 
L 840.302514 -229.710859 
L 834.237296 -234.166804 
L 828.172079 -228.456 
L 822.106861 -230.739389 
L 816.041644 -234.937494 
L 809.976427 -235.80329 
L 803.911209 -254.656578 
L 797.845992 -252.206637 
L 791.780774 -250.511353 
L 785.715557 -246.323365 
L 779.65034 -238.673581 
L 773.585122 -244.233698 
L 767.519905 -255.66381 
L 761.454687 -245.90561 
L 755.38947 -243.988112 
L 749.324253 -271.361238 
L 743.259035 -264.22606 
L 737.193818 -255.884548 
L 731.128601 -255.1117 
L 725.063383 -252.566504 
L 718.998166 -239.346042 
L 712.932948 -245.505537 
L 706.867731 -240.395691 
L 700.802514 -236.142105 
L 694.737296 -230.112073 
L 688.672079 -235.202604 
L 682.606861 -239.538644 
L 676.541644 -237.03192 
L 670.476427 -243.761013 
L 664.411209 -239.577674 
L 658.345992 -235.469093 
L 652.280774 -235.640298 
L 646.215557 -226.506491 
L 640.15034 -220.677675 
L 634.085122 -211.051731 
L 628.019905 -201.050681 
L 621.954688 -194.543048 
L 615.88947 -185.513404 
L 609.824253 -179.178168 
L 603.759035 -169.904735 
L 597.693818 -161.551313 
L 591.628601 -151.024884 
L 585.563383 -141.900611 
L 579.498166 -130.671149 
L 573.432948 -121.662632 
L 567.367731 -111.506704 
L 561.302514 -103.196696 
L 555.237296 -94.120963 
L 549.172079 -85.753304 
L 543.106861 -76.388669 
L 537.041644 -67.491911 
z
" id="m54dfe683e3"/>
    </defs>
    <g clip-path="url(#pb27c170aa6)">
     <use style="fill:#4db8ff;" x="0" xlink:href="#m54dfe683e3" y="339.573438"/>
    </g>
   </g>
   <g id="PolyCollection_5">
    <defs>
     <path d="M 537.041644 -67.491911 
L 537.041644 -67.491911 
L 543.106861 -81.368074 
L 549.172079 -87.333439 
L 555.237296 -101.649537 
L 561.302514 -115.945342 
L 567.367731 -117.495679 
L 573.432948 -121.946246 
L 579.498166 -132.955671 
L 585.563383 -142.68425 
L 591.628601 -153.396815 
L 597.693818 -160.61137 
L 603.759035 -167.7266 
L 609.824253 -176.788703 
L 615.88947 -194.414945 
L 621.954688 -203.0086 
L 628.019905 -202.662675 
L 634.085122 -190.018629 
L 640.15034 -200.595894 
L 646.215557 -193.543631 
L 652.280774 -204.134175 
L 658.345992 -213.49642 
L 664.411209 -219.865192 
L 670.476427 -213.975308 
L 676.541644 -201.679168 
L 682.606861 -211.807427 
L 688.672079 -214.724143 
L 694.737296 -200.629378 
L 700.802514 -204.214154 
L 706.867731 -208.098576 
L 712.932948 -209.715277 
L 718.998166 -213.5713 
L 725.063383 -216.917682 
L 731.128601 -217.155881 
L 737.193818 -217.892907 
L 743.259035 -222.984274 
L 749.324253 -225.91956 
L 755.38947 -236.695009 
L 761.454687 -232.405054 
L 767.519905 -231.027269 
L 773.585122 -241.597647 
L 779.65034 -237.479846 
L 785.715557 -245.947352 
L 791.780774 -238.205576 
L 797.845992 -246.585869 
L 803.911209 -238.467676 
L 809.976427 -239.366118 
L 816.041644 -236.269325 
L 822.106861 -243.639102 
L 828.172079 -236.395071 
L 834.237296 -231.220417 
L 840.302514 -231.121468 
L 846.367731 -239.08682 
L 852.432948 -237.347877 
L 858.498166 -234.655157 
L 864.563383 -237.499788 
L 870.628601 -243.83267 
L 876.693818 -250.51477 
L 882.759035 -254.86575 
L 888.824253 -254.551386 
L 894.88947 -254.465357 
L 900.954687 -261.462677 
L 900.954687 -289.18205 
L 900.954687 -289.18205 
L 894.88947 -282.237897 
L 888.824253 -285.829821 
L 882.759035 -292.844134 
L 876.693818 -283.815651 
L 870.628601 -275.328905 
L 864.563383 -270.286563 
L 858.498166 -267.280571 
L 852.432948 -269.402826 
L 846.367731 -270.870576 
L 840.302514 -260.084655 
L 834.237296 -259.498505 
L 828.172079 -264.426862 
L 822.106861 -271.243583 
L 816.041644 -273.378862 
L 809.976427 -281.629886 
L 803.911209 -276.776339 
L 797.845992 -289.664022 
L 791.780774 -279.789748 
L 785.715557 -291.566339 
L 779.65034 -281.024483 
L 773.585122 -286.311293 
L 767.519905 -268.242026 
L 761.454687 -270.424568 
L 755.38947 -274.68199 
L 749.324253 -262.779154 
L 743.259035 -256.412463 
L 737.193818 -265.935039 
L 731.128601 -260.34913 
L 725.063383 -271.006596 
L 718.998166 -262.073041 
L 712.932948 -262.238889 
L 706.867731 -260.84554 
L 700.802514 -255.286012 
L 694.737296 -251.606294 
L 688.672079 -264.214281 
L 682.606861 -304.01201 
L 676.541644 -288.818758 
L 670.476427 -309.088238 
L 664.411209 -314.018892 
L 658.345992 -304.693246 
L 652.280774 -286.614733 
L 646.215557 -261.72862 
L 640.15034 -275.056353 
L 634.085122 -254.944266 
L 628.019905 -272.621303 
L 621.954688 -268.133027 
L 615.88947 -249.021368 
L 609.824253 -224.705289 
L 603.759035 -209.981672 
L 597.693818 -199.031124 
L 591.628601 -185.919027 
L 585.563383 -170.311777 
L 579.498166 -162.238453 
L 573.432948 -141.267688 
L 567.367731 -132.996925 
L 561.302514 -132.880188 
L 555.237296 -125.939448 
L 549.172079 -106.200141 
L 543.106861 -100.150463 
L 537.041644 -67.491911 
z
" id="m76ae1fbc52"/>
    </defs>
    <g clip-path="url(#pb27c170aa6)">
     <use style="fill:#ffa035;" x="0" xlink:href="#m76ae1fbc52" y="339.573438"/>
    </g>
   </g>
   <g id="PolyCollection_6">
    <defs>
     <path d="M 537.041644 -67.491911 
L 537.041644 -67.491911 
L 543.106861 -67.491911 
L 549.172079 -67.491911 
L 555.237296 -66.966608 
L 561.302514 -66.950054 
L 567.367731 -66.937915 
L 573.432948 -66.927983 
L 579.498166 -69.108651 
L 585.563383 -70.767327 
L 591.628601 -73.520751 
L 597.693818 -73.272446 
L 603.759035 -76.882246 
L 609.824253 -80.212841 
L 615.88947 -83.881958 
L 621.954688 -86.946039 
L 628.019905 -90.688889 
L 634.085122 -93.353476 
L 640.15034 -90.869462 
L 646.215557 -98.940747 
L 652.280774 -103.420424 
L 658.345992 -111.660143 
L 664.411209 -111.485105 
L 670.476427 -119.489571 
L 676.541644 -124.244108 
L 682.606861 -137.028753 
L 688.672079 -136.035431 
L 694.737296 -132.119165 
L 700.802514 -143.442759 
L 706.867731 -153.646087 
L 712.932948 -167.37496 
L 718.998166 -173.872649 
L 725.063383 -179.624871 
L 731.128601 -184.677459 
L 737.193818 -185.155757 
L 743.259035 -186.366998 
L 749.324253 -189.758601 
L 755.38947 -201.301135 
L 761.454687 -197.863348 
L 767.519905 -198.917742 
L 773.585122 -209.976723 
L 779.65034 -206.241852 
L 785.715557 -214.939187 
L 791.780774 -210.196526 
L 797.845992 -217.183919 
L 803.911209 -209.780959 
L 809.976427 -209.502264 
L 816.041644 -208.540124 
L 822.106861 -213.302107 
L 828.172079 -208.914953 
L 834.237296 -207.556231 
L 840.302514 -206.1731 
L 846.367731 -215.119764 
L 852.432948 -219.010468 
L 858.498166 -219.013764 
L 864.563383 -222.355013 
L 870.628601 -227.782748 
L 876.693818 -234.389011 
L 882.759035 -240.440061 
L 888.824253 -243.679655 
L 894.88947 -243.479081 
L 900.954687 -250.840561 
L 900.954687 -278.225055 
L 900.954687 -278.225055 
L 894.88947 -270.715027 
L 888.824253 -271.000709 
L 882.759035 -273.305003 
L 876.693818 -263.780865 
L 870.628601 -256.88042 
L 864.563383 -249.662073 
L 858.498166 -245.087411 
L 852.432948 -244.504292 
L 846.367731 -246.796716 
L 840.302514 -243.130086 
L 834.237296 -244.859876 
L 828.172079 -243.484578 
L 822.106861 -245.960599 
L 816.041644 -241.634874 
L 809.976427 -247.860397 
L 803.911209 -245.872341 
L 797.845992 -253.937339 
L 791.780774 -244.999772 
L 785.715557 -251.46354 
L 779.65034 -241.535781 
L 773.585122 -253.552543 
L 767.519905 -237.383753 
L 761.454687 -233.811556 
L 755.38947 -238.918018 
L 749.324253 -228.049377 
L 743.259035 -222.065445 
L 737.193818 -226.908035 
L 731.128601 -225.593433 
L 725.063383 -242.015761 
L 718.998166 -230.185244 
L 712.932948 -214.896876 
L 706.867731 -196.998551 
L 700.802514 -177.301875 
L 694.737296 -175.782873 
L 688.672079 -183.484062 
L 682.606861 -190.521191 
L 676.541644 -176.261376 
L 670.476427 -168.70134 
L 664.411209 -157.959485 
L 658.345992 -153.390866 
L 652.280774 -146.015903 
L 646.215557 -127.578567 
L 640.15034 -118.952043 
L 634.085122 -123.012104 
L 628.019905 -117.874815 
L 621.954688 -110.397047 
L 615.88947 -103.746341 
L 609.824253 -97.60797 
L 603.759035 -93.435899 
L 597.693818 -92.033253 
L 591.628601 -83.452942 
L 585.563383 -79.595942 
L 579.498166 -76.833689 
L 573.432948 -72.445867 
L 567.367731 -70.248646 
L 561.302514 -70.260785 
L 555.237296 -70.277339 
L 549.172079 -67.491911 
L 543.106861 -67.491911 
L 537.041644 -67.491911 
z
" id="mc5ac36fecc"/>
    </defs>
    <g clip-path="url(#pb27c170aa6)">
     <use style="fill:#47d200;" x="0" xlink:href="#mc5ac36fecc" y="339.573438"/>
    </g>
   </g>
   <g id="matplotlib.axis_3">
    <g id="xtick_8">
     <g id="line2d_38">
      <path clip-path="url(#pb27c170aa6)" d="M 537.041644 285 
L 537.041644 13.2 
" style="fill:none;stroke:#b0b0b0;stroke-linecap:square;stroke-width:0.8;"/>
     </g>
     <g id="line2d_39">
      <g>
       <use x="537.041644" xlink:href="#m9febe0aa08" y="285"/>
      </g>
     </g>
     <g id="text_20">
      <!-- 0 -->
      <g transform="translate(532.269769 305.897656)scale(0.15 -0.15)">
       <use xlink:href="#DejaVuSans-30"/>
      </g>
     </g>
    </g>
    <g id="xtick_9">
     <g id="line2d_40">
      <path clip-path="url(#pb27c170aa6)" d="M 597.693818 285 
L 597.693818 13.2 
" style="fill:none;stroke:#b0b0b0;stroke-linecap:square;stroke-width:0.8;"/>
     </g>
     <g id="line2d_41">
      <g>
       <use x="597.693818" xlink:href="#m9febe0aa08" y="285"/>
      </g>
     </g>
     <g id="text_21">
      <!-- 1 -->
      <g transform="translate(592.921943 305.897656)scale(0.15 -0.15)">
       <use xlink:href="#DejaVuSans-31"/>
      </g>
     </g>
    </g>
    <g id="xtick_10">
     <g id="line2d_42">
      <path clip-path="url(#pb27c170aa6)" d="M 658.345992 285 
L 658.345992 13.2 
" style="fill:none;stroke:#b0b0b0;stroke-linecap:square;stroke-width:0.8;"/>
     </g>
     <g id="line2d_43">
      <g>
       <use x="658.345992" xlink:href="#m9febe0aa08" y="285"/>
      </g>
     </g>
     <g id="text_22">
      <!-- 2 -->
      <g transform="translate(653.574117 305.897656)scale(0.15 -0.15)">
       <use xlink:href="#DejaVuSans-32"/>
      </g>
     </g>
    </g>
    <g id="xtick_11">
     <g id="line2d_44">
      <path clip-path="url(#pb27c170aa6)" d="M 718.998166 285 
L 718.998166 13.2 
" style="fill:none;stroke:#b0b0b0;stroke-linecap:square;stroke-width:0.8;"/>
     </g>
     <g id="line2d_45">
      <g>
       <use x="718.998166" xlink:href="#m9febe0aa08" y="285"/>
      </g>
     </g>
     <g id="text_23">
      <!-- 3 -->
      <g transform="translate(714.226291 305.897656)scale(0.15 -0.15)">
       <use xlink:href="#DejaVuSans-33"/>
      </g>
     </g>
    </g>
    <g id="xtick_12">
     <g id="line2d_46">
      <path clip-path="url(#pb27c170aa6)" d="M 779.65034 285 
L 779.65034 13.2 
" style="fill:none;stroke:#b0b0b0;stroke-linecap:square;stroke-width:0.8;"/>
     </g>
     <g id="line2d_47">
      <g>
       <use x="779.65034" xlink:href="#m9febe0aa08" y="285"/>
      </g>
     </g>
     <g id="text_24">
      <!-- 4 -->
      <g transform="translate(774.878465 305.897656)scale(0.15 -0.15)">
       <use xlink:href="#DejaVuSans-34"/>
      </g>
     </g>
    </g>
    <g id="xtick_13">
     <g id="line2d_48">
      <path clip-path="url(#pb27c170aa6)" d="M 840.302514 285 
L 840.302514 13.2 
" style="fill:none;stroke:#b0b0b0;stroke-linecap:square;stroke-width:0.8;"/>
     </g>
     <g id="line2d_49">
      <g>
       <use x="840.302514" xlink:href="#m9febe0aa08" y="285"/>
      </g>
     </g>
     <g id="text_25">
      <!-- 5 -->
      <g transform="translate(835.530639 305.897656)scale(0.15 -0.15)">
       <use xlink:href="#DejaVuSans-35"/>
      </g>
     </g>
    </g>
    <g id="xtick_14">
     <g id="line2d_50">
      <path clip-path="url(#pb27c170aa6)" d="M 900.954688 285 
L 900.954688 13.2 
" style="fill:none;stroke:#b0b0b0;stroke-linecap:square;stroke-width:0.8;"/>
     </g>
     <g id="line2d_51">
      <g>
       <use x="900.954688" xlink:href="#m9febe0aa08" y="285"/>
      </g>
     </g>
     <g id="text_26">
      <!-- 6 -->
      <g transform="translate(896.182813 305.897656)scale(0.15 -0.15)">
       <use xlink:href="#DejaVuSans-36"/>
      </g>
     </g>
    </g>
    <g id="text_27">
     <!-- $t/\tau$ -->
     <g transform="translate(705.598166 328.214063)scale(0.2 -0.2)">
      <use transform="translate(0 0.09375)" xlink:href="#DejaVuSans-Oblique-74"/>
      <use transform="translate(39.208984 0.09375)" xlink:href="#DejaVuSans-2f"/>
      <use transform="translate(72.900391 0.09375)" xlink:href="#DejaVuSans-Oblique-3c4"/>
     </g>
    </g>
   </g>
   <g id="matplotlib.axis_4">
    <g id="ytick_8">
     <g id="line2d_52">
      <path clip-path="url(#pb27c170aa6)" d="M 537.041644 272.081527 
L 900.954688 272.081527 
" style="fill:none;stroke:#b0b0b0;stroke-linecap:square;stroke-width:0.8;"/>
     </g>
     <g id="line2d_53">
      <g>
       <use x="537.041644" xlink:href="#m0f1a75edc4" y="272.081527"/>
      </g>
     </g>
     <g id="text_28">
      <!-- 0.0 -->
      <g transform="translate(503.686957 277.780355)scale(0.15 -0.15)">
       <use xlink:href="#DejaVuSans-30"/>
       <use x="63.623047" xlink:href="#DejaVuSans-2e"/>
       <use x="95.410156" xlink:href="#DejaVuSans-30"/>
      </g>
     </g>
    </g>
    <g id="ytick_9">
     <g id="line2d_54">
      <path clip-path="url(#pb27c170aa6)" d="M 537.041644 227.938453 
L 900.954688 227.938453 
" style="fill:none;stroke:#b0b0b0;stroke-linecap:square;stroke-width:0.8;"/>
     </g>
     <g id="line2d_55">
      <g>
       <use x="537.041644" xlink:href="#m0f1a75edc4" y="227.938453"/>
      </g>
     </g>
     <g id="text_29">
      <!-- 0.1 -->
      <g transform="translate(503.686957 233.637281)scale(0.15 -0.15)">
       <use xlink:href="#DejaVuSans-30"/>
       <use x="63.623047" xlink:href="#DejaVuSans-2e"/>
       <use x="95.410156" xlink:href="#DejaVuSans-31"/>
      </g>
     </g>
    </g>
    <g id="ytick_10">
     <g id="line2d_56">
      <path clip-path="url(#pb27c170aa6)" d="M 537.041644 183.795379 
L 900.954688 183.795379 
" style="fill:none;stroke:#b0b0b0;stroke-linecap:square;stroke-width:0.8;"/>
     </g>
     <g id="line2d_57">
      <g>
       <use x="537.041644" xlink:href="#m0f1a75edc4" y="183.795379"/>
      </g>
     </g>
     <g id="text_30">
      <!-- 0.2 -->
      <g transform="translate(503.686957 189.494207)scale(0.15 -0.15)">
       <use xlink:href="#DejaVuSans-30"/>
       <use x="63.623047" xlink:href="#DejaVuSans-2e"/>
       <use x="95.410156" xlink:href="#DejaVuSans-32"/>
      </g>
     </g>
    </g>
    <g id="ytick_11">
     <g id="line2d_58">
      <path clip-path="url(#pb27c170aa6)" d="M 537.041644 139.652305 
L 900.954688 139.652305 
" style="fill:none;stroke:#b0b0b0;stroke-linecap:square;stroke-width:0.8;"/>
     </g>
     <g id="line2d_59">
      <g>
       <use x="537.041644" xlink:href="#m0f1a75edc4" y="139.652305"/>
      </g>
     </g>
     <g id="text_31">
      <!-- 0.3 -->
      <g transform="translate(503.686957 145.351133)scale(0.15 -0.15)">
       <use xlink:href="#DejaVuSans-30"/>
       <use x="63.623047" xlink:href="#DejaVuSans-2e"/>
       <use x="95.410156" xlink:href="#DejaVuSans-33"/>
      </g>
     </g>
    </g>
    <g id="ytick_12">
     <g id="line2d_60">
      <path clip-path="url(#pb27c170aa6)" d="M 537.041644 95.509231 
L 900.954688 95.509231 
" style="fill:none;stroke:#b0b0b0;stroke-linecap:square;stroke-width:0.8;"/>
     </g>
     <g id="line2d_61">
      <g>
       <use x="537.041644" xlink:href="#m0f1a75edc4" y="95.509231"/>
      </g>
     </g>
     <g id="text_32">
      <!-- 0.4 -->
      <g transform="translate(503.686957 101.20806)scale(0.15 -0.15)">
       <use xlink:href="#DejaVuSans-30"/>
       <use x="63.623047" xlink:href="#DejaVuSans-2e"/>
       <use x="95.410156" xlink:href="#DejaVuSans-34"/>
      </g>
     </g>
    </g>
    <g id="ytick_13">
     <g id="line2d_62">
      <path clip-path="url(#pb27c170aa6)" d="M 537.041644 51.366158 
L 900.954688 51.366158 
" style="fill:none;stroke:#b0b0b0;stroke-linecap:square;stroke-width:0.8;"/>
     </g>
     <g id="line2d_63">
      <g>
       <use x="537.041644" xlink:href="#m0f1a75edc4" y="51.366158"/>
      </g>
     </g>
     <g id="text_33">
      <!-- 0.5 -->
      <g transform="translate(503.686957 57.064986)scale(0.15 -0.15)">
       <use xlink:href="#DejaVuSans-30"/>
       <use x="63.623047" xlink:href="#DejaVuSans-2e"/>
       <use x="95.410156" xlink:href="#DejaVuSans-35"/>
      </g>
     </g>
    </g>
    <g id="text_34">
     <!-- $C_V^2(s)$ -->
     <defs>
      <path d="M 69.484375 67.28125 
L 67.484375 56.890625 
Q 62.796875 61.625 57.546875 63.921875 
Q 52.296875 66.21875 46.1875 66.21875 
Q 37.84375 66.21875 31.515625 62.203125 
Q 25.203125 58.203125 20.609375 50 
Q 17.671875 44.734375 16.125 38.84375 
Q 14.59375 32.953125 14.59375 27 
Q 14.59375 17.046875 19.75 11.8125 
Q 24.90625 6.59375 34.71875 6.59375 
Q 41.5 6.59375 47.75 8.765625 
Q 54 10.9375 59.90625 15.28125 
L 57.625 3.609375 
Q 51.8125 1.125 45.875 -0.140625 
Q 39.9375 -1.421875 33.984375 -1.421875 
Q 19.96875 -1.421875 12.078125 6.1875 
Q 4.203125 13.8125 4.203125 27.390625 
Q 4.203125 36.078125 7.203125 44.46875 
Q 10.203125 52.875 15.828125 59.8125 
Q 21.78125 67.1875 29.421875 70.703125 
Q 37.0625 74.21875 47.21875 74.21875 
Q 53.46875 74.21875 59.0625 72.484375 
Q 64.65625 70.75 69.484375 67.28125 
z
" id="DejaVuSans-Oblique-43"/>
      <path d="M 20.609375 0 
L 7.8125 72.90625 
L 17.484375 72.90625 
L 28.078125 10.203125 
L 63.484375 72.90625 
L 74.21875 72.90625 
L 32.078125 0 
z
" id="DejaVuSans-Oblique-56"/>
     </defs>
     <g transform="translate(494.086957 174.6)rotate(-90)scale(0.2 -0.2)">
      <use transform="translate(0 0.765625)" xlink:href="#DejaVuSans-Oblique-43"/>
      <use transform="translate(77.02474 39.046875)scale(0.7)" xlink:href="#DejaVuSans-32"/>
      <use transform="translate(69.824219 -26.578125)scale(0.7)" xlink:href="#DejaVuSans-Oblique-56"/>
      <use transform="translate(124.295247 0.765625)" xlink:href="#DejaVuSans-28"/>
      <use transform="translate(163.308919 0.765625)" xlink:href="#DejaVuSans-Oblique-73"/>
      <use transform="translate(215.408529 0.765625)" xlink:href="#DejaVuSans-29"/>
     </g>
    </g>
   </g>
   <g id="line2d_64">
    <path clip-path="url(#pb27c170aa6)" d="M 537.041644 272.081527 
L 543.106861 264.707635 
L 549.172079 255.925158 
L 555.237296 247.94705 
L 561.302514 239.400123 
L 567.367731 231.460818 
L 573.432948 221.396686 
L 579.498166 212.637249 
L 585.563383 201.817151 
L 591.628601 193.011719 
L 597.693818 182.571573 
L 603.759035 174.424451 
L 609.824253 165.813618 
L 615.88947 159.693458 
L 621.954688 151.624115 
L 628.019905 145.620621 
L 634.085122 136.510273 
L 640.15034 127.821815 
L 646.215557 123.193628 
L 652.280774 115.186504 
L 658.345992 115.968137 
L 664.411209 113.451104 
L 670.476427 109.519506 
L 676.541644 116.724226 
L 682.606861 114.689785 
L 688.672079 118.245356 
L 694.737296 121.776676 
L 700.802514 117.106266 
L 706.867731 115.257621 
L 712.932948 111.71713 
L 718.998166 117.184471 
L 725.063383 107.166751 
L 731.128601 106.971135 
L 737.193818 108.208156 
L 743.259035 104.29434 
L 749.324253 101.253195 
L 755.38947 112.334275 
L 761.454687 111.465066 
L 767.519905 102.662779 
L 773.585122 110.577933 
L 779.65034 113.589772 
L 785.715557 106.52222 
L 791.780774 103.582369 
L 797.845992 102.273395 
L 803.911209 101.0175 
L 809.976427 117.808572 
L 816.041644 119.027002 
L 822.106861 121.06667 
L 828.172079 121.280309 
L 834.237296 117.661576 
L 840.302514 122.455937 
L 846.367731 116.249828 
L 852.432948 105.450099 
L 858.498166 104.997299 
L 864.563383 104.296849 
L 870.628601 114.216829 
L 876.693818 111.048386 
L 882.759035 109.329159 
L 888.824253 117.963996 
L 894.88947 120.797826 
L 900.954687 120.955164 
" style="fill:none;stroke:#1f77b4;stroke-linecap:square;stroke-width:3;"/>
   </g>
   <g id="line2d_65">
    <path clip-path="url(#pb27c170aa6)" d="M 537.041644 272.081527 
L 543.106861 248.814169 
L 549.172079 242.806647 
L 555.237296 225.778945 
L 561.302514 215.160673 
L 567.367731 214.327135 
L 573.432948 207.96647 
L 579.498166 191.976375 
L 585.563383 183.075424 
L 591.628601 169.915517 
L 597.693818 159.752191 
L 603.759035 150.719301 
L 609.824253 138.826441 
L 615.88947 117.855281 
L 621.954688 104.002624 
L 628.019905 101.931448 
L 634.085122 117.09199 
L 640.15034 101.747314 
L 646.215557 111.937312 
L 652.280774 94.198984 
L 658.345992 80.478604 
L 664.411209 72.631395 
L 670.476427 78.041664 
L 676.541644 94.324475 
L 682.606861 81.663719 
L 688.672079 100.104226 
L 694.737296 113.455602 
L 700.802514 109.823354 
L 706.867731 105.101379 
L 712.932948 103.596354 
L 718.998166 101.751267 
L 725.063383 95.611299 
L 731.128601 100.820932 
L 737.193818 97.659465 
L 743.259035 99.875069 
L 749.324253 95.22408 
L 755.38947 83.884938 
L 761.454687 88.158626 
L 767.519905 89.93879 
L 773.585122 75.618968 
L 779.65034 80.321273 
L 785.715557 70.816592 
L 791.780774 80.575776 
L 797.845992 71.448492 
L 803.911209 81.95143 
L 809.976427 79.075435 
L 816.041644 84.749344 
L 822.106861 82.132095 
L 828.172079 89.162471 
L 834.237296 94.213977 
L 840.302514 93.970376 
L 846.367731 84.59474 
L 852.432948 86.198086 
L 858.498166 88.605574 
L 864.563383 85.680262 
L 870.628601 79.99265 
L 876.693818 72.408227 
L 882.759035 65.718495 
L 888.824253 69.382834 
L 894.88947 71.221811 
L 900.954687 64.251074 
" style="fill:none;stroke:#ff7f0e;stroke-linecap:square;stroke-width:3;"/>
   </g>
   <g id="line2d_66">
    <path clip-path="url(#pb27c170aa6)" d="M 537.041644 272.081527 
L 543.106861 272.081527 
L 549.172079 272.081527 
L 555.237296 270.951464 
L 561.302514 270.968018 
L 567.367731 270.980157 
L 573.432948 269.886512 
L 579.498166 266.602268 
L 585.563383 264.391803 
L 591.628601 261.086591 
L 597.693818 256.920588 
L 603.759035 254.414365 
L 609.824253 250.663032 
L 615.88947 245.759288 
L 621.954688 240.901895 
L 628.019905 235.291586 
L 634.085122 231.390648 
L 640.15034 234.662685 
L 646.215557 226.313781 
L 652.280774 214.855274 
L 658.345992 207.047933 
L 664.411209 204.851143 
L 670.476427 195.477982 
L 676.541644 189.320695 
L 682.606861 175.798466 
L 688.672079 179.813691 
L 694.737296 185.622419 
L 700.802514 179.201121 
L 706.867731 164.251119 
L 712.932948 148.43752 
L 718.998166 137.544491 
L 725.063383 128.753121 
L 731.128601 134.437992 
L 737.193818 133.541542 
L 743.259035 135.357216 
L 749.324253 130.669449 
L 755.38947 119.463861 
L 761.454687 123.735985 
L 767.519905 121.42269 
L 773.585122 107.808805 
L 779.65034 115.684621 
L 785.715557 106.372074 
L 791.780774 111.975288 
L 797.845992 104.012809 
L 803.911209 111.746788 
L 809.976427 110.892107 
L 816.041644 114.485938 
L 822.106861 109.942084 
L 828.172079 113.373672 
L 834.237296 113.365384 
L 840.302514 114.921844 
L 846.367731 108.615197 
L 852.432948 107.816058 
L 858.498166 107.52285 
L 864.563383 103.564894 
L 870.628601 97.241853 
L 876.693818 90.4885 
L 882.759035 82.700905 
L 888.824253 82.233256 
L 894.88947 82.476384 
L 900.954687 75.040629 
" style="fill:none;stroke:#2ca02c;stroke-linecap:square;stroke-width:3;"/>
   </g>
   <g id="patch_9">
    <path d="M 537.041644 285 
L 537.041644 13.2 
" style="fill:none;stroke:#000000;stroke-linecap:square;stroke-linejoin:miter;stroke-width:2;"/>
   </g>
   <g id="patch_10">
    <path d="M 900.954688 285 
L 900.954688 13.2 
" style="fill:none;"/>
   </g>
   <g id="patch_11">
    <path d="M 537.041644 285 
L 900.954688 285 
" style="fill:none;stroke:#000000;stroke-linecap:square;stroke-linejoin:miter;stroke-width:2;"/>
   </g>
   <g id="patch_12">
    <path d="M 537.041644 13.2 
L 900.954688 13.2 
" style="fill:none;"/>
   </g>
  </g>
 </g>
 <defs>
  <clipPath id="pe3ed34d778">
   <rect height="271.8" width="363.913043" x="63.954688" y="13.2"/>
  </clipPath>
  <clipPath id="pb27c170aa6">
   <rect height="271.8" width="363.913043" x="537.041644" y="13.2"/>
  </clipPath>
 </defs>
</svg>
