<?xml version="1.0" encoding="utf-8" standalone="no"?>
<!DOCTYPE svg PUBLIC "-//W3C//DTD SVG 1.1//EN"
  "http://www.w3.org/Graphics/SVG/1.1/DTD/svg11.dtd">
<!-- Created with matplotlib (http://matplotlib.org/) -->
<svg height="285.213437pt" version="1.1" viewBox="0 0 741.9875 285.213437" width="741.9875pt" xmlns="http://www.w3.org/2000/svg" xmlns:xlink="http://www.w3.org/1999/xlink">
 <defs>
  <style type="text/css">
*{stroke-linecap:butt;stroke-linejoin:round;}
  </style>
 </defs>
 <g id="figure_1">
  <g id="patch_1">
   <path d="M 0 285.213437 
L 741.9875 285.213437 
L 741.9875 0 
L 0 0 
z
" style="fill:#ffffff;"/>
  </g>
  <g id="axes_1">
   <g id="patch_2">
    <path d="M 59.1875 230.64 
L 350.317935 230.64 
L 350.317935 13.2 
L 59.1875 13.2 
z
" style="fill:#ffffff;"/>
   </g>
   <g id="PolyCollection_1">
    <defs>
     <path d="M 67.505512 -95.469487 
L 67.505512 -95.469487 
L 71.664519 -101.984259 
L 75.823525 -108.841858 
L 79.982531 -115.900415 
L 84.141537 -122.028015 
L 88.300543 -126.352317 
L 92.45955 -126.98098 
L 96.618556 -124.26179 
L 100.777562 -119.155211 
L 104.936568 -113.455715 
L 109.095575 -109.373721 
L 113.254581 -109.250341 
L 117.413587 -112.274194 
L 121.572593 -116.535099 
L 125.731599 -120.758457 
L 129.890606 -124.179083 
L 134.049612 -125.381111 
L 138.208618 -123.955634 
L 142.367624 -119.708688 
L 146.52663 -114.892461 
L 150.685637 -111.496167 
L 154.844643 -110.933573 
L 159.003649 -112.935878 
L 163.162655 -116.28714 
L 167.321661 -120.387301 
L 171.480668 -123.367758 
L 175.639674 -124.517622 
L 179.79868 -123.396692 
L 183.957686 -119.360724 
L 188.116693 -115.809813 
L 192.275699 -112.462217 
L 196.434705 -111.428369 
L 200.593711 -112.64565 
L 204.752717 -116.307203 
L 208.911724 -120.618851 
L 213.07073 -123.170942 
L 217.229736 -123.629603 
L 221.388742 -122.008299 
L 225.547748 -118.734864 
L 229.706755 -115.4132 
L 233.865761 -112.612515 
L 238.024767 -111.248606 
L 242.183773 -112.843492 
L 246.34278 -116.271041 
L 250.501786 -120.49344 
L 254.660792 -123.737156 
L 258.819798 -125.186391 
L 262.978804 -123.826621 
L 267.137811 -120.815744 
L 271.296817 -116.431983 
L 275.455823 -113.435927 
L 279.614829 -111.534033 
L 283.773835 -112.971671 
L 287.932842 -116.434427 
L 292.091848 -120.368567 
L 296.250854 -123.48255 
L 300.40986 -124.141305 
L 304.568866 -123.023993 
L 308.727873 -119.645588 
L 312.886879 -115.380306 
L 317.045885 -112.524211 
L 321.204891 -111.477452 
L 325.363898 -112.703079 
L 329.522904 -116.284423 
L 333.68191 -119.875725 
L 337.840916 -123.19122 
L 341.999922 -123.650294 
L 346.158929 -122.115073 
L 350.317935 -118.66373 
L 354.476941 -114.707468 
L 358.635947 -111.933509 
L 362.794953 -111.163137 
L 366.95396 -112.550691 
L 371.112966 -115.967592 
L 375.271972 -119.85386 
L 379.430978 -122.847157 
L 383.589984 -124.172896 
L 387.748991 -122.956603 
L 391.907997 -119.067066 
L 396.067003 -114.160683 
L 400.226009 -111.408979 
L 404.385016 -110.447041 
L 408.544022 -112.348413 
L 412.703028 -116.142443 
L 416.862034 -120.465322 
L 421.02104 -123.732682 
L 425.180047 -125.13628 
L 429.339053 -122.725914 
L 433.498059 -118.877002 
L 437.657065 -114.901252 
L 441.816071 -112.318503 
L 445.975078 -111.270058 
L 450.134084 -112.874126 
L 454.29309 -116.044665 
L 458.452096 -120.047228 
L 462.611102 -123.482757 
L 466.770109 -124.343906 
L 470.929115 -122.486871 
L 475.088121 -119.414713 
L 475.088121 -121.610498 
L 475.088121 -121.610498 
L 470.929115 -124.490352 
L 466.770109 -126.018834 
L 462.611102 -124.820494 
L 458.452096 -121.129345 
L 454.29309 -117.123935 
L 450.134084 -114.222089 
L 445.975078 -112.958531 
L 441.816071 -114.332547 
L 437.657065 -117.088394 
L 433.498059 -121.069119 
L 429.339053 -124.725137 
L 425.180047 -126.801458 
L 421.02104 -125.034634 
L 416.862034 -121.529103 
L 412.703028 -117.160817 
L 408.544022 -113.617029 
L 404.385016 -112.062207 
L 400.226009 -113.382637 
L 396.067003 -116.332186 
L 391.907997 -121.260058 
L 387.748991 -124.953469 
L 383.589984 -125.858265 
L 379.430978 -124.167045 
L 375.271972 -120.937843 
L 371.112966 -117.021463 
L 366.95396 -113.854495 
L 362.794953 -112.850535 
L 358.635947 -113.933663 
L 354.476941 -116.890974 
L 350.317935 -120.854138 
L 346.158929 -124.121792 
L 341.999922 -125.33087 
L 337.840916 -124.493293 
L 333.68191 -120.964085 
L 329.522904 -117.355485 
L 325.363898 -114.037149 
L 321.204891 -113.180972 
L 317.045885 -114.546122 
L 312.886879 -117.578842 
L 308.727873 -121.840265 
L 304.568866 -125.019343 
L 300.40986 -125.806965 
L 296.250854 -124.769147 
L 292.091848 -121.433423 
L 287.932842 -117.519685 
L 283.773835 -114.313011 
L 279.614829 -113.241618 
L 275.455823 -115.493839 
L 271.296817 -118.653268 
L 267.137811 -123.019006 
L 262.978804 -125.815886 
L 258.819798 -126.834246 
L 254.660792 -125.055938 
L 250.501786 -121.573145 
L 246.34278 -117.368867 
L 242.183773 -114.189901 
L 238.024767 -112.940907 
L 233.865761 -114.640117 
L 229.706755 -117.613983 
L 225.547748 -120.926288 
L 221.388742 -124.021266 
L 217.229736 -125.351553 
L 213.07073 -124.513563 
L 208.911724 -121.73638 
L 204.752717 -117.422477 
L 200.593711 -113.968937 
L 196.434705 -113.132365 
L 192.275699 -114.480507 
L 188.116693 -118.016786 
L 183.957686 -121.554301 
L 179.79868 -125.387 
L 175.639674 -126.176699 
L 171.480668 -124.677687 
L 167.321661 -121.462796 
L 163.162655 -117.352768 
L 159.003649 -114.265046 
L 154.844643 -112.591649 
L 150.685637 -113.477749 
L 146.52663 -117.080176 
L 142.367624 -121.904912 
L 138.208618 -125.938594 
L 134.049612 -127.012554 
L 129.890606 -125.439015 
L 125.731599 -121.717072 
L 121.572593 -117.486343 
L 117.413587 -113.460922 
L 113.254581 -110.75805 
L 109.095575 -111.24328 
L 104.936568 -115.608414 
L 100.777562 -121.347923 
L 96.618556 -126.239531 
L 92.45955 -128.548872 
L 88.300543 -127.416558 
L 84.141537 -122.660556 
L 79.982531 -116.190911 
L 75.823525 -108.977833 
L 71.664519 -102.022549 
L 67.505512 -95.469487 
z
" id="mfb81e64e6b"/>
    </defs>
    <g clip-path="url(#p6e75be5cb9)">
     <use style="fill:#4db8ff;" x="0" xlink:href="#mfb81e64e6b" y="285.213437"/>
    </g>
   </g>
   <g id="matplotlib.axis_1">
    <g id="xtick_1">
     <g id="line2d_1">
      <path clip-path="url(#p6e75be5cb9)" d="M 59.1875 230.64 
L 59.1875 13.2 
" style="fill:none;stroke:#b0b0b0;stroke-linecap:square;stroke-width:0.8;"/>
     </g>
     <g id="line2d_2">
      <defs>
       <path d="M 0 0 
L 0 6 
" id="m3bd4d59acc"/>
      </defs>
      <g>
       <use x="59.1875" xlink:href="#m3bd4d59acc" y="230.64"/>
      </g>
     </g>
     <g id="text_1">
      <!-- 0 -->
      <defs>
       <path d="M 31.78125 66.40625 
Q 24.171875 66.40625 20.328125 58.90625 
Q 16.5 51.421875 16.5 36.375 
Q 16.5 21.390625 20.328125 13.890625 
Q 24.171875 6.390625 31.78125 6.390625 
Q 39.453125 6.390625 43.28125 13.890625 
Q 47.125 21.390625 47.125 36.375 
Q 47.125 51.421875 43.28125 58.90625 
Q 39.453125 66.40625 31.78125 66.40625 
z
M 31.78125 74.21875 
Q 44.046875 74.21875 50.515625 64.515625 
Q 56.984375 54.828125 56.984375 36.375 
Q 56.984375 17.96875 50.515625 8.265625 
Q 44.046875 -1.421875 31.78125 -1.421875 
Q 19.53125 -1.421875 13.0625 8.265625 
Q 6.59375 17.96875 6.59375 36.375 
Q 6.59375 54.828125 13.0625 64.515625 
Q 19.53125 74.21875 31.78125 74.21875 
z
" id="DejaVuSans-30"/>
      </defs>
      <g transform="translate(54.415625 251.537656)scale(0.15 -0.15)">
       <use xlink:href="#DejaVuSans-30"/>
      </g>
     </g>
    </g>
    <g id="xtick_2">
     <g id="line2d_3">
      <path clip-path="url(#p6e75be5cb9)" d="M 100.777562 230.64 
L 100.777562 13.2 
" style="fill:none;stroke:#b0b0b0;stroke-linecap:square;stroke-width:0.8;"/>
     </g>
     <g id="line2d_4">
      <g>
       <use x="100.777562" xlink:href="#m3bd4d59acc" y="230.64"/>
      </g>
     </g>
     <g id="text_2">
      <!-- 1 -->
      <defs>
       <path d="M 12.40625 8.296875 
L 28.515625 8.296875 
L 28.515625 63.921875 
L 10.984375 60.40625 
L 10.984375 69.390625 
L 28.421875 72.90625 
L 38.28125 72.90625 
L 38.28125 8.296875 
L 54.390625 8.296875 
L 54.390625 0 
L 12.40625 0 
z
" id="DejaVuSans-31"/>
      </defs>
      <g transform="translate(96.005687 251.537656)scale(0.15 -0.15)">
       <use xlink:href="#DejaVuSans-31"/>
      </g>
     </g>
    </g>
    <g id="xtick_3">
     <g id="line2d_5">
      <path clip-path="url(#p6e75be5cb9)" d="M 142.367624 230.64 
L 142.367624 13.2 
" style="fill:none;stroke:#b0b0b0;stroke-linecap:square;stroke-width:0.8;"/>
     </g>
     <g id="line2d_6">
      <g>
       <use x="142.367624" xlink:href="#m3bd4d59acc" y="230.64"/>
      </g>
     </g>
     <g id="text_3">
      <!-- 2 -->
      <defs>
       <path d="M 19.1875 8.296875 
L 53.609375 8.296875 
L 53.609375 0 
L 7.328125 0 
L 7.328125 8.296875 
Q 12.9375 14.109375 22.625 23.890625 
Q 32.328125 33.6875 34.8125 36.53125 
Q 39.546875 41.84375 41.421875 45.53125 
Q 43.3125 49.21875 43.3125 52.78125 
Q 43.3125 58.59375 39.234375 62.25 
Q 35.15625 65.921875 28.609375 65.921875 
Q 23.96875 65.921875 18.8125 64.3125 
Q 13.671875 62.703125 7.8125 59.421875 
L 7.8125 69.390625 
Q 13.765625 71.78125 18.9375 73 
Q 24.125 74.21875 28.421875 74.21875 
Q 39.75 74.21875 46.484375 68.546875 
Q 53.21875 62.890625 53.21875 53.421875 
Q 53.21875 48.921875 51.53125 44.890625 
Q 49.859375 40.875 45.40625 35.40625 
Q 44.1875 33.984375 37.640625 27.21875 
Q 31.109375 20.453125 19.1875 8.296875 
z
" id="DejaVuSans-32"/>
      </defs>
      <g transform="translate(137.595749 251.537656)scale(0.15 -0.15)">
       <use xlink:href="#DejaVuSans-32"/>
      </g>
     </g>
    </g>
    <g id="xtick_4">
     <g id="line2d_7">
      <path clip-path="url(#p6e75be5cb9)" d="M 183.957686 230.64 
L 183.957686 13.2 
" style="fill:none;stroke:#b0b0b0;stroke-linecap:square;stroke-width:0.8;"/>
     </g>
     <g id="line2d_8">
      <g>
       <use x="183.957686" xlink:href="#m3bd4d59acc" y="230.64"/>
      </g>
     </g>
     <g id="text_4">
      <!-- 3 -->
      <defs>
       <path d="M 40.578125 39.3125 
Q 47.65625 37.796875 51.625 33 
Q 55.609375 28.21875 55.609375 21.1875 
Q 55.609375 10.40625 48.1875 4.484375 
Q 40.765625 -1.421875 27.09375 -1.421875 
Q 22.515625 -1.421875 17.65625 -0.515625 
Q 12.796875 0.390625 7.625 2.203125 
L 7.625 11.71875 
Q 11.71875 9.328125 16.59375 8.109375 
Q 21.484375 6.890625 26.8125 6.890625 
Q 36.078125 6.890625 40.9375 10.546875 
Q 45.796875 14.203125 45.796875 21.1875 
Q 45.796875 27.640625 41.28125 31.265625 
Q 36.765625 34.90625 28.71875 34.90625 
L 20.21875 34.90625 
L 20.21875 43.015625 
L 29.109375 43.015625 
Q 36.375 43.015625 40.234375 45.921875 
Q 44.09375 48.828125 44.09375 54.296875 
Q 44.09375 59.90625 40.109375 62.90625 
Q 36.140625 65.921875 28.71875 65.921875 
Q 24.65625 65.921875 20.015625 65.03125 
Q 15.375 64.15625 9.8125 62.3125 
L 9.8125 71.09375 
Q 15.4375 72.65625 20.34375 73.4375 
Q 25.25 74.21875 29.59375 74.21875 
Q 40.828125 74.21875 47.359375 69.109375 
Q 53.90625 64.015625 53.90625 55.328125 
Q 53.90625 49.265625 50.4375 45.09375 
Q 46.96875 40.921875 40.578125 39.3125 
z
" id="DejaVuSans-33"/>
      </defs>
      <g transform="translate(179.185811 251.537656)scale(0.15 -0.15)">
       <use xlink:href="#DejaVuSans-33"/>
      </g>
     </g>
    </g>
    <g id="xtick_5">
     <g id="line2d_9">
      <path clip-path="url(#p6e75be5cb9)" d="M 225.547748 230.64 
L 225.547748 13.2 
" style="fill:none;stroke:#b0b0b0;stroke-linecap:square;stroke-width:0.8;"/>
     </g>
     <g id="line2d_10">
      <g>
       <use x="225.547748" xlink:href="#m3bd4d59acc" y="230.64"/>
      </g>
     </g>
     <g id="text_5">
      <!-- 4 -->
      <defs>
       <path d="M 37.796875 64.3125 
L 12.890625 25.390625 
L 37.796875 25.390625 
z
M 35.203125 72.90625 
L 47.609375 72.90625 
L 47.609375 25.390625 
L 58.015625 25.390625 
L 58.015625 17.1875 
L 47.609375 17.1875 
L 47.609375 0 
L 37.796875 0 
L 37.796875 17.1875 
L 4.890625 17.1875 
L 4.890625 26.703125 
z
" id="DejaVuSans-34"/>
      </defs>
      <g transform="translate(220.775873 251.537656)scale(0.15 -0.15)">
       <use xlink:href="#DejaVuSans-34"/>
      </g>
     </g>
    </g>
    <g id="xtick_6">
     <g id="line2d_11">
      <path clip-path="url(#p6e75be5cb9)" d="M 267.137811 230.64 
L 267.137811 13.2 
" style="fill:none;stroke:#b0b0b0;stroke-linecap:square;stroke-width:0.8;"/>
     </g>
     <g id="line2d_12">
      <g>
       <use x="267.137811" xlink:href="#m3bd4d59acc" y="230.64"/>
      </g>
     </g>
     <g id="text_6">
      <!-- 5 -->
      <defs>
       <path d="M 10.796875 72.90625 
L 49.515625 72.90625 
L 49.515625 64.59375 
L 19.828125 64.59375 
L 19.828125 46.734375 
Q 21.96875 47.46875 24.109375 47.828125 
Q 26.265625 48.1875 28.421875 48.1875 
Q 40.625 48.1875 47.75 41.5 
Q 54.890625 34.8125 54.890625 23.390625 
Q 54.890625 11.625 47.5625 5.09375 
Q 40.234375 -1.421875 26.90625 -1.421875 
Q 22.3125 -1.421875 17.546875 -0.640625 
Q 12.796875 0.140625 7.71875 1.703125 
L 7.71875 11.625 
Q 12.109375 9.234375 16.796875 8.0625 
Q 21.484375 6.890625 26.703125 6.890625 
Q 35.15625 6.890625 40.078125 11.328125 
Q 45.015625 15.765625 45.015625 23.390625 
Q 45.015625 31 40.078125 35.4375 
Q 35.15625 39.890625 26.703125 39.890625 
Q 22.75 39.890625 18.8125 39.015625 
Q 14.890625 38.140625 10.796875 36.28125 
z
" id="DejaVuSans-35"/>
      </defs>
      <g transform="translate(262.365936 251.537656)scale(0.15 -0.15)">
       <use xlink:href="#DejaVuSans-35"/>
      </g>
     </g>
    </g>
    <g id="xtick_7">
     <g id="line2d_13">
      <path clip-path="url(#p6e75be5cb9)" d="M 308.727873 230.64 
L 308.727873 13.2 
" style="fill:none;stroke:#b0b0b0;stroke-linecap:square;stroke-width:0.8;"/>
     </g>
     <g id="line2d_14">
      <g>
       <use x="308.727873" xlink:href="#m3bd4d59acc" y="230.64"/>
      </g>
     </g>
     <g id="text_7">
      <!-- 6 -->
      <defs>
       <path d="M 33.015625 40.375 
Q 26.375 40.375 22.484375 35.828125 
Q 18.609375 31.296875 18.609375 23.390625 
Q 18.609375 15.53125 22.484375 10.953125 
Q 26.375 6.390625 33.015625 6.390625 
Q 39.65625 6.390625 43.53125 10.953125 
Q 47.40625 15.53125 47.40625 23.390625 
Q 47.40625 31.296875 43.53125 35.828125 
Q 39.65625 40.375 33.015625 40.375 
z
M 52.59375 71.296875 
L 52.59375 62.3125 
Q 48.875 64.0625 45.09375 64.984375 
Q 41.3125 65.921875 37.59375 65.921875 
Q 27.828125 65.921875 22.671875 59.328125 
Q 17.53125 52.734375 16.796875 39.40625 
Q 19.671875 43.65625 24.015625 45.921875 
Q 28.375 48.1875 33.59375 48.1875 
Q 44.578125 48.1875 50.953125 41.515625 
Q 57.328125 34.859375 57.328125 23.390625 
Q 57.328125 12.15625 50.6875 5.359375 
Q 44.046875 -1.421875 33.015625 -1.421875 
Q 20.359375 -1.421875 13.671875 8.265625 
Q 6.984375 17.96875 6.984375 36.375 
Q 6.984375 53.65625 15.1875 63.9375 
Q 23.390625 74.21875 37.203125 74.21875 
Q 40.921875 74.21875 44.703125 73.484375 
Q 48.484375 72.75 52.59375 71.296875 
z
" id="DejaVuSans-36"/>
      </defs>
      <g transform="translate(303.955998 251.537656)scale(0.15 -0.15)">
       <use xlink:href="#DejaVuSans-36"/>
      </g>
     </g>
    </g>
    <g id="xtick_8">
     <g id="line2d_15">
      <path clip-path="url(#p6e75be5cb9)" d="M 350.317935 230.64 
L 350.317935 13.2 
" style="fill:none;stroke:#b0b0b0;stroke-linecap:square;stroke-width:0.8;"/>
     </g>
     <g id="line2d_16">
      <g>
       <use x="350.317935" xlink:href="#m3bd4d59acc" y="230.64"/>
      </g>
     </g>
     <g id="text_8">
      <!-- 7 -->
      <defs>
       <path d="M 8.203125 72.90625 
L 55.078125 72.90625 
L 55.078125 68.703125 
L 28.609375 0 
L 18.3125 0 
L 43.21875 64.59375 
L 8.203125 64.59375 
z
" id="DejaVuSans-37"/>
      </defs>
      <g transform="translate(345.54606 251.537656)scale(0.15 -0.15)">
       <use xlink:href="#DejaVuSans-37"/>
      </g>
     </g>
    </g>
    <g id="text_9">
     <!-- $t/\tau$ -->
     <defs>
      <path d="M 42.28125 54.6875 
L 40.921875 47.703125 
L 23 47.703125 
L 17.1875 18.015625 
Q 16.890625 16.359375 16.75 15.234375 
Q 16.609375 14.109375 16.609375 13.484375 
Q 16.609375 10.359375 18.484375 8.9375 
Q 20.359375 7.515625 24.515625 7.515625 
L 33.59375 7.515625 
L 32.078125 0 
L 23.484375 0 
Q 15.484375 0 11.546875 3.125 
Q 7.625 6.25 7.625 12.59375 
Q 7.625 13.71875 7.765625 15.0625 
Q 7.90625 16.40625 8.203125 18.015625 
L 14.015625 47.703125 
L 6.390625 47.703125 
L 7.8125 54.6875 
L 15.28125 54.6875 
L 18.3125 70.21875 
L 27.296875 70.21875 
L 24.3125 54.6875 
z
" id="DejaVuSans-Oblique-74"/>
      <path d="M 25.390625 72.90625 
L 33.6875 72.90625 
L 8.296875 -9.28125 
L 0 -9.28125 
z
" id="DejaVuSans-2f"/>
      <path d="M 32.859375 9.96875 
Q 34.1875 7.625 39.453125 7.625 
L 43.75 7.625 
L 42.28125 0 
L 36.921875 0 
Q 28.125 0 25 4.6875 
Q 21.921875 9.46875 23.96875 19.828125 
L 29 45.703125 
L 8.453125 45.703125 
L 10.203125 54.6875 
L 60.640625 54.6875 
L 58.890625 45.703125 
L 38.1875 45.703125 
L 33.015625 19.28125 
Q 31.640625 12.203125 32.859375 9.96875 
z
" id="DejaVuSans-Oblique-3c4"/>
     </defs>
     <g transform="translate(191.352717 273.854062)scale(0.2 -0.2)">
      <use transform="translate(0 0.09375)" xlink:href="#DejaVuSans-Oblique-74"/>
      <use transform="translate(39.208984 0.09375)" xlink:href="#DejaVuSans-2f"/>
      <use transform="translate(72.900391 0.09375)" xlink:href="#DejaVuSans-Oblique-3c4"/>
     </g>
    </g>
   </g>
   <g id="matplotlib.axis_2">
    <g id="ytick_1">
     <g id="line2d_17">
      <path clip-path="url(#p6e75be5cb9)" d="M 59.1875 227.990389 
L 350.317935 227.990389 
" style="fill:none;stroke:#b0b0b0;stroke-linecap:square;stroke-width:0.8;"/>
     </g>
     <g id="line2d_18">
      <defs>
       <path d="M 0 0 
L -6 0 
" id="mba582aaa6b"/>
      </defs>
      <g>
       <use x="59.1875" xlink:href="#mba582aaa6b" y="227.990389"/>
      </g>
     </g>
     <g id="text_10">
      <!-- 2 -->
      <g transform="translate(40.14375 233.689217)scale(0.15 -0.15)">
       <use xlink:href="#DejaVuSans-32"/>
      </g>
     </g>
    </g>
    <g id="ytick_2">
     <g id="line2d_19">
      <path clip-path="url(#p6e75be5cb9)" d="M 59.1875 175.09075 
L 350.317935 175.09075 
" style="fill:none;stroke:#b0b0b0;stroke-linecap:square;stroke-width:0.8;"/>
     </g>
     <g id="line2d_20">
      <g>
       <use x="59.1875" xlink:href="#mba582aaa6b" y="175.09075"/>
      </g>
     </g>
     <g id="text_11">
      <!-- 4 -->
      <g transform="translate(40.14375 180.789578)scale(0.15 -0.15)">
       <use xlink:href="#DejaVuSans-34"/>
      </g>
     </g>
    </g>
    <g id="ytick_3">
     <g id="line2d_21">
      <path clip-path="url(#p6e75be5cb9)" d="M 59.1875 122.191111 
L 350.317935 122.191111 
" style="fill:none;stroke:#b0b0b0;stroke-linecap:square;stroke-width:0.8;"/>
     </g>
     <g id="line2d_22">
      <g>
       <use x="59.1875" xlink:href="#mba582aaa6b" y="122.191111"/>
      </g>
     </g>
     <g id="text_12">
      <!-- 6 -->
      <g transform="translate(40.14375 127.889939)scale(0.15 -0.15)">
       <use xlink:href="#DejaVuSans-36"/>
      </g>
     </g>
    </g>
    <g id="ytick_4">
     <g id="line2d_23">
      <path clip-path="url(#p6e75be5cb9)" d="M 59.1875 69.291471 
L 350.317935 69.291471 
" style="fill:none;stroke:#b0b0b0;stroke-linecap:square;stroke-width:0.8;"/>
     </g>
     <g id="line2d_24">
      <g>
       <use x="59.1875" xlink:href="#mba582aaa6b" y="69.291471"/>
      </g>
     </g>
     <g id="text_13">
      <!-- 8 -->
      <defs>
       <path d="M 31.78125 34.625 
Q 24.75 34.625 20.71875 30.859375 
Q 16.703125 27.09375 16.703125 20.515625 
Q 16.703125 13.921875 20.71875 10.15625 
Q 24.75 6.390625 31.78125 6.390625 
Q 38.8125 6.390625 42.859375 10.171875 
Q 46.921875 13.96875 46.921875 20.515625 
Q 46.921875 27.09375 42.890625 30.859375 
Q 38.875 34.625 31.78125 34.625 
z
M 21.921875 38.8125 
Q 15.578125 40.375 12.03125 44.71875 
Q 8.5 49.078125 8.5 55.328125 
Q 8.5 64.0625 14.71875 69.140625 
Q 20.953125 74.21875 31.78125 74.21875 
Q 42.671875 74.21875 48.875 69.140625 
Q 55.078125 64.0625 55.078125 55.328125 
Q 55.078125 49.078125 51.53125 44.71875 
Q 48 40.375 41.703125 38.8125 
Q 48.828125 37.15625 52.796875 32.3125 
Q 56.78125 27.484375 56.78125 20.515625 
Q 56.78125 9.90625 50.3125 4.234375 
Q 43.84375 -1.421875 31.78125 -1.421875 
Q 19.734375 -1.421875 13.25 4.234375 
Q 6.78125 9.90625 6.78125 20.515625 
Q 6.78125 27.484375 10.78125 32.3125 
Q 14.796875 37.15625 21.921875 38.8125 
z
M 18.3125 54.390625 
Q 18.3125 48.734375 21.84375 45.5625 
Q 25.390625 42.390625 31.78125 42.390625 
Q 38.140625 42.390625 41.71875 45.5625 
Q 45.3125 48.734375 45.3125 54.390625 
Q 45.3125 60.0625 41.71875 63.234375 
Q 38.140625 66.40625 31.78125 66.40625 
Q 25.390625 66.40625 21.84375 63.234375 
Q 18.3125 60.0625 18.3125 54.390625 
z
" id="DejaVuSans-38"/>
      </defs>
      <g transform="translate(40.14375 74.990299)scale(0.15 -0.15)">
       <use xlink:href="#DejaVuSans-38"/>
      </g>
     </g>
    </g>
    <g id="ytick_5">
     <g id="line2d_25">
      <path clip-path="url(#p6e75be5cb9)" d="M 59.1875 16.391832 
L 350.317935 16.391832 
" style="fill:none;stroke:#b0b0b0;stroke-linecap:square;stroke-width:0.8;"/>
     </g>
     <g id="line2d_26">
      <g>
       <use x="59.1875" xlink:href="#mba582aaa6b" y="16.391832"/>
      </g>
     </g>
     <g id="text_14">
      <!-- 10 -->
      <g transform="translate(30.6 22.09066)scale(0.15 -0.15)">
       <use xlink:href="#DejaVuSans-31"/>
       <use x="63.623047" xlink:href="#DejaVuSans-30"/>
      </g>
     </g>
    </g>
    <g id="text_15">
     <!-- $s$ $(\mu m)$ -->
     <defs>
      <path d="M 50 53.078125 
L 48.296875 44.578125 
Q 44.734375 46.53125 40.765625 47.5 
Q 36.8125 48.484375 32.625 48.484375 
Q 25.53125 48.484375 21.453125 46.0625 
Q 17.390625 43.65625 17.390625 39.5 
Q 17.390625 34.671875 26.859375 32.078125 
Q 27.59375 31.890625 27.9375 31.78125 
L 30.8125 30.90625 
Q 39.796875 28.421875 42.796875 25.6875 
Q 45.796875 22.953125 45.796875 18.21875 
Q 45.796875 9.515625 38.890625 4.046875 
Q 31.984375 -1.421875 20.796875 -1.421875 
Q 16.453125 -1.421875 11.671875 -0.578125 
Q 6.890625 0.25 1.125 2 
L 2.875 11.28125 
Q 7.8125 8.734375 12.59375 7.421875 
Q 17.390625 6.109375 21.78125 6.109375 
Q 28.375 6.109375 32.5 8.9375 
Q 36.625 11.765625 36.625 16.109375 
Q 36.625 20.796875 25.78125 23.6875 
L 24.859375 23.921875 
L 21.78125 24.703125 
Q 14.9375 26.515625 11.765625 29.46875 
Q 8.59375 32.421875 8.59375 37.015625 
Q 8.59375 45.75 15.15625 50.875 
Q 21.734375 56 33.015625 56 
Q 37.453125 56 41.671875 55.265625 
Q 45.90625 54.546875 50 53.078125 
z
" id="DejaVuSans-Oblique-73"/>
      <path id="DejaVuSans-20"/>
      <path d="M 31 75.875 
Q 24.46875 64.65625 21.28125 53.65625 
Q 18.109375 42.671875 18.109375 31.390625 
Q 18.109375 20.125 21.3125 9.0625 
Q 24.515625 -2 31 -13.1875 
L 23.1875 -13.1875 
Q 15.875 -1.703125 12.234375 9.375 
Q 8.59375 20.453125 8.59375 31.390625 
Q 8.59375 42.28125 12.203125 53.3125 
Q 15.828125 64.359375 23.1875 75.875 
z
" id="DejaVuSans-28"/>
      <path d="M -1.3125 -20.796875 
L 13.375 54.6875 
L 22.40625 54.6875 
L 15.765625 20.65625 
Q 15.578125 19.625 15.421875 18.359375 
Q 15.28125 17.09375 15.28125 15.828125 
Q 15.28125 11.28125 18.140625 8.828125 
Q 21 6.390625 26.3125 6.390625 
Q 33.546875 6.390625 37.984375 10.484375 
Q 42.4375 14.59375 44 22.796875 
L 50.203125 54.6875 
L 59.1875 54.6875 
L 51.03125 12.640625 
Q 50.828125 11.71875 50.75 11.03125 
Q 50.6875 10.359375 50.6875 9.8125 
Q 50.6875 8.296875 51.296875 7.59375 
Q 51.90625 6.890625 53.21875 6.890625 
Q 53.71875 6.890625 54.5625 7.125 
Q 55.421875 7.375 56.984375 8.015625 
L 55.609375 0.78125 
Q 53.46875 -0.296875 51.515625 -0.859375 
Q 49.5625 -1.421875 47.703125 -1.421875 
Q 44.484375 -1.421875 42.65625 0.625 
Q 40.828125 2.6875 40.828125 6.296875 
Q 38.09375 2.390625 34.296875 0.484375 
Q 30.515625 -1.421875 25.390625 -1.421875 
Q 20.84375 -1.421875 17.453125 0.671875 
Q 14.0625 2.78125 12.984375 6.203125 
L 7.71875 -20.796875 
z
" id="DejaVuSans-Oblique-3bc"/>
      <path d="M 89.796875 33.015625 
L 83.40625 0 
L 74.421875 0 
L 80.71875 32.71875 
Q 81.109375 34.8125 81.296875 36.328125 
Q 81.5 37.84375 81.5 38.921875 
Q 81.5 43.3125 79.046875 45.75 
Q 76.609375 48.1875 72.21875 48.1875 
Q 65.671875 48.1875 60.546875 43.28125 
Q 55.421875 38.375 53.90625 30.515625 
L 47.90625 0 
L 38.921875 0 
L 45.3125 32.71875 
Q 45.703125 34.515625 45.890625 36.046875 
Q 46.09375 37.59375 46.09375 38.8125 
Q 46.09375 43.265625 43.65625 45.71875 
Q 41.21875 48.1875 36.921875 48.1875 
Q 30.28125 48.1875 25.140625 43.28125 
Q 20.015625 38.375 18.5 30.515625 
L 12.5 0 
L 3.515625 0 
L 14.203125 54.6875 
L 23.1875 54.6875 
L 21.484375 46.1875 
Q 25.140625 50.984375 30.046875 53.484375 
Q 34.96875 56 40.578125 56 
Q 46.53125 56 50.359375 52.875 
Q 54.203125 49.75 54.984375 44.1875 
Q 59.078125 49.953125 64.46875 52.96875 
Q 69.875 56 75.875 56 
Q 82.90625 56 86.734375 51.953125 
Q 90.578125 47.90625 90.578125 40.484375 
Q 90.578125 38.875 90.375 36.9375 
Q 90.1875 35.015625 89.796875 33.015625 
z
" id="DejaVuSans-Oblique-6d"/>
      <path d="M 8.015625 75.875 
L 15.828125 75.875 
Q 23.140625 64.359375 26.78125 53.3125 
Q 30.421875 42.28125 30.421875 31.390625 
Q 30.421875 20.453125 26.78125 9.375 
Q 23.140625 -1.703125 15.828125 -13.1875 
L 8.015625 -13.1875 
Q 14.5 -2 17.703125 9.0625 
Q 20.90625 20.125 20.90625 31.390625 
Q 20.90625 42.671875 17.703125 53.65625 
Q 14.5 64.65625 8.015625 75.875 
z
" id="DejaVuSans-29"/>
     </defs>
     <g transform="translate(22.4 154.22)rotate(-90)scale(0.2 -0.2)">
      <use transform="translate(0 0.125)" xlink:href="#DejaVuSans-Oblique-73"/>
      <use transform="translate(52.099609 0.125)" xlink:href="#DejaVuSans-20"/>
      <use transform="translate(83.886719 0.125)" xlink:href="#DejaVuSans-28"/>
      <use transform="translate(122.900391 0.125)" xlink:href="#DejaVuSans-Oblique-3bc"/>
      <use transform="translate(186.523438 0.125)" xlink:href="#DejaVuSans-Oblique-6d"/>
      <use transform="translate(283.935547 0.125)" xlink:href="#DejaVuSans-29"/>
     </g>
    </g>
   </g>
   <g id="line2d_27">
    <path clip-path="url(#p6e75be5cb9)" d="M 59.1875 201.54057 
L 63.346506 195.845923 
L 67.505512 189.74395 
L 71.664519 183.200265 
L 75.823525 176.188417 
L 79.982531 168.674024 
L 84.141537 160.620054 
L 88.300543 151.986833 
L 92.45955 142.734686 
L 96.618556 132.821293 
L 100.777562 122.193756 
L 104.936568 110.801818 
L 109.095575 98.595227 
L 113.254581 85.510501 
L 117.413587 176.188417 
L 121.572593 168.674024 
L 125.731599 160.620054 
L 129.890606 151.986833 
L 134.049612 142.734686 
L 138.208618 132.821293 
L 142.367624 122.193756 
L 146.52663 110.801818 
L 150.685637 189.74395 
L 154.844643 183.200265 
L 159.003649 176.188417 
L 163.162655 168.674024 
L 167.321661 160.620054 
L 171.480668 151.986833 
L 175.639674 142.734686 
L 179.79868 132.821293 
L 183.957686 201.543215 
L 188.116693 195.845923 
L 192.275699 189.74395 
L 196.434705 183.200265 
L 200.593711 176.188417 
L 204.752717 168.674024 
L 208.911724 160.620054 
L 213.07073 151.986833 
L 217.229736 211.81368 
L 221.388742 206.856983 
L 225.547748 201.543215 
L 229.706755 195.845923 
L 233.865761 189.74395 
L 238.024767 183.200265 
L 242.183773 176.188417 
L 246.34278 168.674024 
L 250.501786 160.620054 
L 254.660792 151.986833 
L 258.819798 211.81368 
L 262.978804 206.856983 
L 267.137811 201.54057 
L 271.296817 195.845923 
L 275.455823 189.74395 
L 279.614829 183.200265 
L 283.773835 176.188417 
L 287.932842 168.674024 
L 292.091848 160.620054 
L 296.250854 151.986833 
L 300.40986 142.734686 
L 304.568866 206.856983 
L 308.727873 201.543215 
L 312.886879 195.845923 
L 317.045885 189.74395 
L 321.204891 183.200265 
L 325.363898 176.188417 
L 329.522904 168.674024 
L 333.68191 160.620054 
L 337.840916 151.986833 
L 341.999922 211.81368 
L 346.158929 206.856983 
L 350.317935 201.54057 
L 354.476941 195.845923 
L 358.635947 189.74395 
L 362.794953 183.200265 
L 366.95396 176.188417 
L 371.112966 168.674024 
L 375.271972 160.620054 
L 379.430978 151.986833 
L 383.589984 142.734686 
L 387.748991 132.821293 
L 391.907997 122.193756 
L 396.067003 110.801818 
L 400.226009 98.595227 
L 404.385016 183.200265 
L 408.544022 176.188417 
L 412.703028 168.674024 
L 416.862034 160.620054 
L 421.02104 151.986833 
L 425.180047 142.734686 
L 429.339053 132.821293 
L 433.498059 122.193756 
L 437.657065 110.801818 
L 441.816071 98.595227 
L 445.975078 85.510501 
L 450.134084 71.486806 
L 454.29309 168.674024 
L 458.452096 160.620054 
L 462.611102 151.986833 
L 466.770109 142.734686 
L 470.929115 132.821293 
L 475.088121 122.193756 
" style="fill:none;stroke:#b9b9b9;stroke-linecap:square;stroke-width:1.5;"/>
   </g>
   <g id="line2d_28">
    <path clip-path="url(#p6e75be5cb9)" d="M 59.1875 201.54057 
L 63.346506 195.845923 
L 67.505512 189.74395 
L 71.664519 183.200265 
L 75.823525 176.188417 
L 79.982531 168.674024 
L 84.141537 160.620054 
L 88.300543 151.986833 
L 92.45955 142.734686 
L 96.618556 206.856983 
L 100.777562 201.543215 
L 104.936568 195.845923 
L 109.095575 189.74395 
L 113.254581 183.200265 
L 117.413587 176.188417 
L 121.572593 168.674024 
L 125.731599 160.620054 
L 129.890606 151.986833 
L 134.049612 142.734686 
L 138.208618 206.856983 
L 142.367624 201.543215 
L 146.52663 195.845923 
L 150.685637 189.74395 
L 154.844643 183.200265 
L 159.003649 176.188417 
L 163.162655 168.674024 
L 167.321661 160.620054 
L 171.480668 151.986833 
L 175.639674 142.734686 
L 179.79868 132.821293 
L 183.957686 122.193756 
L 188.116693 195.845923 
L 192.275699 189.74395 
L 196.434705 183.200265 
L 200.593711 176.188417 
L 204.752717 168.674024 
L 208.911724 160.620054 
L 213.07073 151.986833 
L 217.229736 142.734686 
L 221.388742 132.821293 
L 225.547748 122.193756 
L 229.706755 110.801818 
L 233.865761 189.74395 
L 238.024767 183.200265 
L 242.183773 176.188417 
L 246.34278 168.674024 
L 250.501786 160.620054 
L 254.660792 151.986833 
L 258.819798 142.734686 
L 262.978804 132.821293 
L 267.137811 122.193756 
L 271.296817 110.801818 
L 275.455823 98.595227 
L 279.614829 85.510501 
L 283.773835 176.188417 
L 287.932842 168.674024 
L 292.091848 160.620054 
L 296.250854 151.986833 
L 300.40986 142.734686 
L 304.568866 132.821293 
L 308.727873 201.543215 
L 312.886879 195.845923 
L 317.045885 189.74395 
L 321.204891 183.200265 
L 325.363898 176.188417 
L 329.522904 168.674024 
L 333.68191 160.620054 
L 337.840916 151.986833 
L 341.999922 142.734686 
L 346.158929 132.821293 
L 350.317935 201.543215 
L 354.476941 195.845923 
L 358.635947 189.74395 
L 362.794953 183.200265 
L 366.95396 176.188417 
L 371.112966 168.674024 
L 375.271972 160.620054 
L 379.430978 151.986833 
L 383.589984 211.81368 
L 387.748991 206.856983 
L 391.907997 201.543215 
L 396.067003 195.845923 
L 400.226009 189.74395 
L 404.385016 183.200265 
L 408.544022 176.188417 
L 412.703028 168.674024 
L 416.862034 160.620054 
L 421.02104 151.986833 
L 425.180047 142.734686 
L 429.339053 206.856983 
L 433.498059 201.543215 
L 437.657065 195.845923 
L 441.816071 189.74395 
L 445.975078 183.200265 
L 450.134084 176.188417 
L 454.29309 168.674024 
L 458.452096 160.620054 
L 462.611102 151.986833 
L 466.770109 142.734686 
L 470.929115 206.856983 
L 475.088121 201.543215 
" style="fill:none;stroke:#b9b9b9;stroke-linecap:square;stroke-width:1.5;"/>
   </g>
   <g id="line2d_29">
    <path clip-path="url(#p6e75be5cb9)" d="M 59.1875 201.54057 
L 63.346506 195.845923 
L 67.505512 189.74395 
L 71.664519 183.200265 
L 75.823525 176.188417 
L 79.982531 168.674024 
L 84.141537 160.620054 
L 88.300543 151.986833 
L 92.45955 142.734686 
L 96.618556 132.821293 
L 100.777562 122.193756 
L 104.936568 110.801818 
L 109.095575 189.74395 
L 113.254581 183.200265 
L 117.413587 176.188417 
L 121.572593 168.674024 
L 125.731599 160.620054 
L 129.890606 151.986833 
L 134.049612 142.734686 
L 138.208618 132.821293 
L 142.367624 122.191111 
L 146.52663 110.801818 
L 150.685637 98.595227 
L 154.844643 85.510501 
L 159.003649 176.188417 
L 163.162655 168.674024 
L 167.321661 160.620054 
L 171.480668 151.986833 
L 175.639674 142.734686 
L 179.79868 132.821293 
L 183.957686 122.191111 
L 188.116693 110.801818 
L 192.275699 189.74395 
L 196.434705 183.200265 
L 200.593711 176.188417 
L 204.752717 168.674024 
L 208.911724 160.620054 
L 213.07073 151.986833 
L 217.229736 142.734686 
L 221.388742 132.821293 
L 225.547748 122.191111 
L 229.706755 110.801818 
L 233.865761 98.595227 
L 238.024767 183.200265 
L 242.183773 176.188417 
L 246.34278 168.674024 
L 250.501786 160.620054 
L 254.660792 151.986833 
L 258.819798 142.734686 
L 262.978804 132.821293 
L 267.137811 201.54057 
L 271.296817 195.845923 
L 275.455823 189.74395 
L 279.614829 183.200265 
L 283.773835 176.188417 
L 287.932842 168.674024 
L 292.091848 160.620054 
L 296.250854 216.439753 
L 300.40986 211.81368 
L 304.568866 206.856983 
L 308.727873 201.543215 
L 312.886879 195.845923 
L 317.045885 189.74395 
L 321.204891 183.200265 
L 325.363898 176.188417 
L 329.522904 168.674024 
L 333.68191 160.620054 
L 337.840916 151.986833 
L 341.999922 142.734686 
L 346.158929 206.856983 
L 350.317935 201.543215 
L 354.476941 195.845923 
L 358.635947 189.74395 
L 362.794953 183.200265 
L 366.95396 176.188417 
L 371.112966 168.674024 
L 375.271972 160.620054 
L 379.430978 151.986833 
L 383.589984 142.734686 
L 387.748991 206.856983 
L 391.907997 201.543215 
L 396.067003 195.845923 
L 400.226009 189.74395 
L 404.385016 183.200265 
L 408.544022 176.188417 
L 412.703028 168.674024 
L 416.862034 160.620054 
L 421.02104 151.986833 
L 425.180047 142.734686 
L 429.339053 132.821293 
L 433.498059 122.193756 
L 437.657065 110.801818 
L 441.816071 98.595227 
L 445.975078 183.200265 
L 450.134084 176.188417 
L 454.29309 168.674024 
L 458.452096 160.620054 
L 462.611102 151.986833 
L 466.770109 142.734686 
L 470.929115 132.821293 
L 475.088121 122.193756 
" style="fill:none;stroke:#b9b9b9;stroke-linecap:square;stroke-width:1.5;"/>
   </g>
   <g id="line2d_30">
    <path clip-path="url(#p6e75be5cb9)" d="M 59.1875 201.54057 
L 63.346506 195.845923 
L 67.505512 189.74395 
L 71.664519 183.200265 
L 75.823525 176.188417 
L 79.982531 168.674024 
L 84.141537 160.620054 
L 88.300543 151.986833 
L 92.45955 142.734686 
L 96.618556 132.821293 
L 100.777562 122.193756 
L 104.936568 110.801818 
L 109.095575 98.595227 
L 113.254581 183.200265 
L 117.413587 176.188417 
L 121.572593 168.674024 
L 125.731599 160.620054 
L 129.890606 151.986833 
L 134.049612 142.734686 
L 138.208618 132.821293 
L 142.367624 122.193756 
L 146.52663 110.801818 
L 150.685637 98.595227 
L 154.844643 183.200265 
L 159.003649 176.188417 
L 163.162655 168.674024 
L 167.321661 160.620054 
L 171.480668 151.986833 
L 175.639674 142.734686 
L 179.79868 206.856983 
L 183.957686 201.543215 
L 188.116693 195.845923 
L 192.275699 189.74395 
L 196.434705 183.200265 
L 200.593711 176.188417 
L 204.752717 168.674024 
L 208.911724 160.620054 
L 213.07073 151.986833 
L 217.229736 142.734686 
L 221.388742 132.821293 
L 225.547748 122.193756 
L 229.706755 195.845923 
L 233.865761 189.74395 
L 238.024767 183.200265 
L 242.183773 176.188417 
L 246.34278 168.674024 
L 250.501786 160.620054 
L 254.660792 151.986833 
L 258.819798 142.734686 
L 262.978804 206.856983 
L 267.137811 201.543215 
L 271.296817 195.845923 
L 275.455823 189.74395 
L 279.614829 183.200265 
L 283.773835 176.188417 
L 287.932842 168.674024 
L 292.091848 160.620054 
L 296.250854 151.986833 
L 300.40986 211.81368 
L 304.568866 206.856983 
L 308.727873 201.543215 
L 312.886879 195.845923 
L 317.045885 189.74395 
L 321.204891 183.200265 
L 325.363898 176.188417 
L 329.522904 168.674024 
L 333.68191 160.620054 
L 337.840916 151.986833 
L 341.999922 142.734686 
L 346.158929 132.821293 
L 350.317935 201.543215 
L 354.476941 195.845923 
L 358.635947 189.74395 
L 362.794953 183.200265 
L 366.95396 176.188417 
L 371.112966 168.674024 
L 375.271972 160.620054 
L 379.430978 151.986833 
L 383.589984 142.734686 
L 387.748991 132.821293 
L 391.907997 201.543215 
L 396.067003 195.845923 
L 400.226009 189.74395 
L 404.385016 183.200265 
L 408.544022 176.188417 
L 412.703028 168.674024 
L 416.862034 160.620054 
L 421.02104 151.986833 
L 425.180047 142.734686 
L 429.339053 206.856983 
L 433.498059 201.543215 
L 437.657065 195.845923 
L 441.816071 189.74395 
L 445.975078 183.200265 
L 450.134084 176.188417 
L 454.29309 168.674024 
L 458.452096 160.620054 
L 462.611102 151.986833 
L 466.770109 142.734686 
L 470.929115 206.856983 
L 475.088121 201.543215 
" style="fill:none;stroke:#b9b9b9;stroke-linecap:square;stroke-width:1.5;"/>
   </g>
   <g id="line2d_31">
    <path clip-path="url(#p6e75be5cb9)" d="M 59.1875 201.54057 
L 63.346506 195.845923 
L 67.505512 189.74395 
L 71.664519 183.200265 
L 75.823525 176.188417 
L 79.982531 168.674024 
L 84.141537 160.620054 
L 88.300543 151.986833 
L 92.45955 142.734686 
L 96.618556 132.821293 
L 100.777562 201.54057 
L 104.936568 195.845923 
L 109.095575 189.74395 
L 113.254581 183.200265 
L 117.413587 176.188417 
L 121.572593 168.674024 
L 125.731599 160.620054 
L 129.890606 151.986833 
L 134.049612 142.734686 
L 138.208618 132.821293 
L 142.367624 122.191111 
L 146.52663 110.801818 
L 150.685637 189.74395 
L 154.844643 183.200265 
L 159.003649 176.188417 
L 163.162655 168.674024 
L 167.321661 160.620054 
L 171.480668 151.986833 
L 175.639674 142.734686 
L 179.79868 132.821293 
L 183.957686 122.191111 
L 188.116693 110.801818 
L 192.275699 189.74395 
L 196.434705 183.200265 
L 200.593711 176.188417 
L 204.752717 168.674024 
L 208.911724 160.620054 
L 213.07073 151.986833 
L 217.229736 142.734686 
L 221.388742 132.821293 
L 225.547748 122.193756 
L 229.706755 195.845923 
L 233.865761 189.74395 
L 238.024767 183.200265 
L 242.183773 176.188417 
L 246.34278 168.674024 
L 250.501786 160.620054 
L 254.660792 151.986833 
L 258.819798 142.734686 
L 262.978804 132.821293 
L 267.137811 122.193756 
L 271.296817 195.845923 
L 275.455823 189.74395 
L 279.614829 183.200265 
L 283.773835 176.188417 
L 287.932842 168.674024 
L 292.091848 160.620054 
L 296.250854 151.986833 
L 300.40986 142.734686 
L 304.568866 132.821293 
L 308.727873 201.543215 
L 312.886879 195.845923 
L 317.045885 189.74395 
L 321.204891 183.200265 
L 325.363898 176.188417 
L 329.522904 168.674024 
L 333.68191 160.620054 
L 337.840916 151.986833 
L 341.999922 142.734686 
L 346.158929 206.856983 
L 350.317935 201.543215 
L 354.476941 195.845923 
L 358.635947 189.74395 
L 362.794953 183.200265 
L 366.95396 176.188417 
L 371.112966 168.674024 
L 375.271972 160.620054 
L 379.430978 216.439753 
L 383.589984 211.81368 
L 387.748991 206.856983 
L 391.907997 201.543215 
L 396.067003 195.845923 
L 400.226009 189.74395 
L 404.385016 183.200265 
L 408.544022 176.188417 
L 412.703028 168.674024 
L 416.862034 160.620054 
L 421.02104 151.986833 
L 425.180047 142.734686 
L 429.339053 206.856983 
L 433.498059 201.543215 
L 437.657065 195.845923 
L 441.816071 189.74395 
L 445.975078 183.200265 
L 450.134084 176.188417 
L 454.29309 168.674024 
L 458.452096 160.620054 
L 462.611102 151.986833 
L 466.770109 142.734686 
L 470.929115 132.821293 
L 475.088121 201.543215 
" style="fill:none;stroke:#b9b9b9;stroke-linecap:square;stroke-width:1.5;"/>
   </g>
   <g id="line2d_32">
    <path clip-path="url(#p6e75be5cb9)" d="M 59.1875 201.54057 
L 63.346506 195.845923 
L 67.505512 189.74395 
L 71.664519 183.200265 
L 75.823525 176.188417 
L 79.982531 168.674024 
L 84.141537 160.620054 
L 88.300543 151.986833 
L 92.45955 142.734686 
L 96.618556 206.856983 
L 100.777562 201.543215 
L 104.936568 195.845923 
L 109.095575 189.74395 
L 113.254581 183.200265 
L 117.413587 176.188417 
L 121.572593 168.674024 
L 125.731599 160.620054 
L 129.890606 151.986833 
L 134.049612 211.81368 
L 138.208618 206.856983 
L 142.367624 201.543215 
L 146.52663 195.845923 
L 150.685637 189.74395 
L 154.844643 183.200265 
L 159.003649 176.188417 
L 163.162655 168.674024 
L 167.321661 160.620054 
L 171.480668 216.439753 
L 175.639674 211.81368 
L 179.79868 206.856983 
L 183.957686 201.543215 
L 188.116693 195.845923 
L 192.275699 189.74395 
L 196.434705 183.200265 
L 200.593711 176.188417 
L 204.752717 168.674024 
L 208.911724 160.620054 
L 213.07073 151.986833 
L 217.229736 142.734686 
L 221.388742 132.821293 
L 225.547748 122.193756 
L 229.706755 110.801818 
L 233.865761 98.595227 
L 238.024767 183.200265 
L 242.183773 176.188417 
L 246.34278 168.674024 
L 250.501786 160.620054 
L 254.660792 151.986833 
L 258.819798 142.734686 
L 262.978804 132.821293 
L 267.137811 122.193756 
L 271.296817 195.845923 
L 275.455823 189.74395 
L 279.614829 183.200265 
L 283.773835 176.188417 
L 287.932842 168.674024 
L 292.091848 160.620054 
L 296.250854 216.439753 
L 300.40986 211.81368 
L 304.568866 206.856983 
L 308.727873 201.543215 
L 312.886879 195.845923 
L 317.045885 189.74395 
L 321.204891 183.200265 
L 325.363898 176.188417 
L 329.522904 168.674024 
L 333.68191 160.620054 
L 337.840916 151.986833 
L 341.999922 142.734686 
L 346.158929 132.821293 
L 350.317935 201.543215 
L 354.476941 195.845923 
L 358.635947 189.74395 
L 362.794953 183.200265 
L 366.95396 176.188417 
L 371.112966 168.674024 
L 375.271972 160.620054 
L 379.430978 151.986833 
L 383.589984 142.734686 
L 387.748991 132.821293 
L 391.907997 122.193756 
L 396.067003 110.801818 
L 400.226009 98.595227 
L 404.385016 183.200265 
L 408.544022 176.188417 
L 412.703028 168.674024 
L 416.862034 160.620054 
L 421.02104 151.986833 
L 425.180047 142.734686 
L 429.339053 132.821293 
L 433.498059 122.193756 
L 437.657065 110.801818 
L 441.816071 98.595227 
L 445.975078 85.510501 
L 450.134084 71.486806 
L 454.29309 56.458019 
L 458.452096 40.350079 
L 462.611102 23.083636 
L 466.770109 142.734686 
L 470.929115 132.821293 
L 475.088121 122.193756 
" style="fill:none;stroke:#b9b9b9;stroke-linecap:square;stroke-width:1.5;"/>
   </g>
   <g id="line2d_33">
    <path clip-path="url(#p6e75be5cb9)" d="M 59.1875 201.54057 
L 63.346506 195.845923 
L 67.505512 189.74395 
L 71.664519 183.200265 
L 75.823525 176.188417 
L 79.982531 168.674024 
L 84.141537 160.620054 
L 88.300543 151.986833 
L 92.45955 142.734686 
L 96.618556 132.821293 
L 100.777562 122.193756 
L 104.936568 110.801818 
L 109.095575 98.595227 
L 113.254581 85.510501 
L 117.413587 176.188417 
L 121.572593 168.674024 
L 125.731599 160.620054 
L 129.890606 151.986833 
L 134.049612 142.734686 
L 138.208618 132.821293 
L 142.367624 122.193756 
L 146.52663 110.801818 
L 150.685637 98.595227 
L 154.844643 85.510501 
L 159.003649 71.486806 
L 163.162655 56.458019 
L 167.321661 160.620054 
L 171.480668 151.986833 
L 175.639674 142.734686 
L 179.79868 132.821293 
L 183.957686 122.191111 
L 188.116693 110.801818 
L 192.275699 98.595227 
L 196.434705 85.510501 
L 200.593711 176.188417 
L 204.752717 168.674024 
L 208.911724 160.620054 
L 213.07073 151.986833 
L 217.229736 142.734686 
L 221.388742 132.821293 
L 225.547748 122.193756 
L 229.706755 110.801818 
L 233.865761 189.74395 
L 238.024767 183.200265 
L 242.183773 176.188417 
L 246.34278 168.674024 
L 250.501786 160.620054 
L 254.660792 216.439753 
L 258.819798 211.81368 
L 262.978804 206.856983 
L 267.137811 201.543215 
L 271.296817 195.845923 
L 275.455823 189.74395 
L 279.614829 183.200265 
L 283.773835 176.188417 
L 287.932842 168.674024 
L 292.091848 160.620054 
L 296.250854 151.986833 
L 300.40986 211.81368 
L 304.568866 206.856983 
L 308.727873 201.543215 
L 312.886879 195.845923 
L 317.045885 189.74395 
L 321.204891 183.200265 
L 325.363898 176.188417 
L 329.522904 168.674024 
L 333.68191 160.620054 
L 337.840916 216.439753 
L 341.999922 211.81368 
L 346.158929 206.856983 
L 350.317935 201.543215 
L 354.476941 195.845923 
L 358.635947 189.74395 
L 362.794953 183.200265 
L 366.95396 176.188417 
L 371.112966 168.674024 
L 375.271972 160.620054 
L 379.430978 151.986833 
L 383.589984 142.734686 
L 387.748991 132.821293 
L 391.907997 122.193756 
L 396.067003 110.801818 
L 400.226009 98.595227 
L 404.385016 183.200265 
L 408.544022 176.188417 
L 412.703028 168.674024 
L 416.862034 160.620054 
L 421.02104 151.986833 
L 425.180047 142.734686 
L 429.339053 132.821293 
L 433.498059 201.543215 
L 437.657065 195.845923 
L 441.816071 189.74395 
L 445.975078 183.200265 
L 450.134084 176.188417 
L 454.29309 168.674024 
L 458.452096 160.620054 
L 462.611102 151.986833 
L 466.770109 142.734686 
L 470.929115 132.821293 
L 475.088121 122.191111 
" style="fill:none;stroke:#b9b9b9;stroke-linecap:square;stroke-width:1.5;"/>
   </g>
   <g id="line2d_34">
    <path clip-path="url(#p6e75be5cb9)" d="M 59.1875 201.54057 
L 63.346506 195.845923 
L 67.505512 189.74395 
L 71.664519 183.200265 
L 75.823525 176.188417 
L 79.982531 168.674024 
L 84.141537 160.620054 
L 88.300543 151.986833 
L 92.45955 142.734686 
L 96.618556 206.856983 
L 100.777562 201.543215 
L 104.936568 195.845923 
L 109.095575 189.74395 
L 113.254581 183.200265 
L 117.413587 176.188417 
L 121.572593 168.674024 
L 125.731599 160.620054 
L 129.890606 151.986833 
L 134.049612 142.734686 
L 138.208618 132.821293 
L 142.367624 201.543215 
L 146.52663 195.845923 
L 150.685637 189.74395 
L 154.844643 183.200265 
L 159.003649 176.188417 
L 163.162655 168.674024 
L 167.321661 160.620054 
L 171.480668 151.986833 
L 175.639674 142.734686 
L 179.79868 132.821293 
L 183.957686 122.193756 
L 188.116693 110.801818 
L 192.275699 189.74395 
L 196.434705 183.200265 
L 200.593711 176.188417 
L 204.752717 168.674024 
L 208.911724 160.620054 
L 213.07073 151.986833 
L 217.229736 142.734686 
L 221.388742 132.821293 
L 225.547748 122.193756 
L 229.706755 110.801818 
L 233.865761 189.74395 
L 238.024767 183.200265 
L 242.183773 176.188417 
L 246.34278 168.674024 
L 250.501786 160.620054 
L 254.660792 151.986833 
L 258.819798 142.734686 
L 262.978804 132.821293 
L 267.137811 122.191111 
L 271.296817 110.801818 
L 275.455823 98.595227 
L 279.614829 85.510501 
L 283.773835 71.486806 
L 287.932842 168.674024 
L 292.091848 160.620054 
L 296.250854 151.986833 
L 300.40986 142.734686 
L 304.568866 132.821293 
L 308.727873 122.191111 
L 312.886879 110.801818 
L 317.045885 189.74395 
L 321.204891 183.200265 
L 325.363898 176.188417 
L 329.522904 168.674024 
L 333.68191 160.620054 
L 337.840916 151.986833 
L 341.999922 211.81368 
L 346.158929 206.856983 
L 350.317935 201.543215 
L 354.476941 195.845923 
L 358.635947 189.74395 
L 362.794953 183.200265 
L 366.95396 176.188417 
L 371.112966 168.674024 
L 375.271972 160.620054 
L 379.430978 151.986833 
L 383.589984 142.734686 
L 387.748991 132.821293 
L 391.907997 201.543215 
L 396.067003 195.845923 
L 400.226009 189.74395 
L 404.385016 183.200265 
L 408.544022 176.188417 
L 412.703028 168.674024 
L 416.862034 160.620054 
L 421.02104 151.986833 
L 425.180047 142.734686 
L 429.339053 206.856983 
L 433.498059 201.54057 
L 437.657065 195.845923 
L 441.816071 189.74395 
L 445.975078 183.200265 
L 450.134084 176.188417 
L 454.29309 168.674024 
L 458.452096 220.756364 
L 462.611102 216.439753 
L 466.770109 211.81368 
L 470.929115 206.856983 
L 475.088121 201.543215 
" style="fill:none;stroke:#b9b9b9;stroke-linecap:square;stroke-width:1.5;"/>
   </g>
   <g id="line2d_35">
    <path clip-path="url(#p6e75be5cb9)" d="M 59.1875 201.54057 
L 63.346506 195.845923 
L 67.505512 189.74395 
L 71.664519 183.200265 
L 75.823525 176.188417 
L 79.982531 168.674024 
L 84.141537 160.620054 
L 88.300543 216.439753 
L 92.45955 211.81368 
L 96.618556 206.856983 
L 100.777562 201.543215 
L 104.936568 195.845923 
L 109.095575 189.74395 
L 113.254581 183.200265 
L 117.413587 176.188417 
L 121.572593 168.674024 
L 125.731599 160.620054 
L 129.890606 151.986833 
L 134.049612 142.734686 
L 138.208618 206.856983 
L 142.367624 201.543215 
L 146.52663 195.845923 
L 150.685637 189.74395 
L 154.844643 183.200265 
L 159.003649 176.188417 
L 163.162655 168.674024 
L 167.321661 160.620054 
L 171.480668 151.986833 
L 175.639674 142.734686 
L 179.79868 132.821293 
L 183.957686 201.543215 
L 188.116693 195.845923 
L 192.275699 189.74395 
L 196.434705 183.200265 
L 200.593711 176.188417 
L 204.752717 168.674024 
L 208.911724 160.620054 
L 213.07073 151.986833 
L 217.229736 142.734686 
L 221.388742 132.821293 
L 225.547748 122.193756 
L 229.706755 110.801818 
L 233.865761 189.74395 
L 238.024767 183.200265 
L 242.183773 176.188417 
L 246.34278 168.674024 
L 250.501786 160.620054 
L 254.660792 151.986833 
L 258.819798 142.734686 
L 262.978804 132.821293 
L 267.137811 122.193756 
L 271.296817 110.801818 
L 275.455823 98.595227 
L 279.614829 183.200265 
L 283.773835 176.188417 
L 287.932842 168.674024 
L 292.091848 160.620054 
L 296.250854 151.986833 
L 300.40986 211.81368 
L 304.568866 206.856983 
L 308.727873 201.543215 
L 312.886879 195.845923 
L 317.045885 189.74395 
L 321.204891 183.200265 
L 325.363898 176.188417 
L 329.522904 168.674024 
L 333.68191 160.620054 
L 337.840916 151.986833 
L 341.999922 142.734686 
L 346.158929 132.821293 
L 350.317935 122.193756 
L 354.476941 110.801818 
L 358.635947 98.595227 
L 362.794953 85.510501 
L 366.95396 176.188417 
L 371.112966 168.674024 
L 375.271972 160.620054 
L 379.430978 151.986833 
L 383.589984 142.734686 
L 387.748991 132.821293 
L 391.907997 122.193756 
L 396.067003 110.801818 
L 400.226009 98.595227 
L 404.385016 85.510501 
L 408.544022 71.486806 
L 412.703028 168.674024 
L 416.862034 160.620054 
L 421.02104 151.986833 
L 425.180047 142.734686 
L 429.339053 132.821293 
L 433.498059 122.193756 
L 437.657065 110.801818 
L 441.816071 98.595227 
L 445.975078 85.510501 
L 450.134084 71.486806 
L 454.29309 168.674024 
L 458.452096 160.620054 
L 462.611102 151.986833 
L 466.770109 142.734686 
L 470.929115 206.856983 
L 475.088121 201.543215 
" style="fill:none;stroke:#b9b9b9;stroke-linecap:square;stroke-width:1.5;"/>
   </g>
   <g id="line2d_36">
    <path clip-path="url(#p6e75be5cb9)" d="M 59.1875 201.54057 
L 63.346506 195.845923 
L 67.505512 189.74395 
L 71.664519 183.200265 
L 75.823525 176.188417 
L 79.982531 168.674024 
L 84.141537 160.620054 
L 88.300543 151.986833 
L 92.45955 142.734686 
L 96.618556 132.821293 
L 100.777562 122.193756 
L 104.936568 195.845923 
L 109.095575 189.74395 
L 113.254581 183.200265 
L 117.413587 176.188417 
L 121.572593 168.674024 
L 125.731599 160.620054 
L 129.890606 151.986833 
L 134.049612 142.734686 
L 138.208618 132.821293 
L 142.367624 122.193756 
L 146.52663 110.801818 
L 150.685637 98.595227 
L 154.844643 183.200265 
L 159.003649 176.188417 
L 163.162655 168.674024 
L 167.321661 160.620054 
L 171.480668 151.986833 
L 175.639674 142.734686 
L 179.79868 132.821293 
L 183.957686 122.193756 
L 188.116693 110.801818 
L 192.275699 189.74395 
L 196.434705 183.200265 
L 200.593711 176.188417 
L 204.752717 168.674024 
L 208.911724 160.620054 
L 213.07073 151.986833 
L 217.229736 211.81368 
L 221.388742 206.856983 
L 225.547748 201.54057 
L 229.706755 195.845923 
L 233.865761 189.74395 
L 238.024767 183.200265 
L 242.183773 176.188417 
L 246.34278 168.674024 
L 250.501786 160.620054 
L 254.660792 216.439753 
L 258.819798 211.81368 
L 262.978804 206.856983 
L 267.137811 201.54057 
L 271.296817 195.845923 
L 275.455823 189.74395 
L 279.614829 183.200265 
L 283.773835 176.188417 
L 287.932842 168.674024 
L 292.091848 160.620054 
L 296.250854 151.986833 
L 300.40986 142.734686 
L 304.568866 206.856983 
L 308.727873 201.54057 
L 312.886879 195.845923 
L 317.045885 189.74395 
L 321.204891 183.200265 
L 325.363898 176.188417 
L 329.522904 168.674024 
L 333.68191 160.620054 
L 337.840916 151.986833 
L 341.999922 142.734686 
L 346.158929 132.821293 
L 350.317935 122.191111 
L 354.476941 110.801818 
L 358.635947 189.74395 
L 362.794953 183.200265 
L 366.95396 176.188417 
L 371.112966 168.674024 
L 375.271972 160.620054 
L 379.430978 151.986833 
L 383.589984 142.734686 
L 387.748991 132.821293 
L 391.907997 122.191111 
L 396.067003 110.801818 
L 400.226009 98.595227 
L 404.385016 85.510501 
L 408.544022 71.486806 
L 412.703028 56.458019 
L 416.862034 160.620054 
L 421.02104 151.986833 
L 425.180047 142.734686 
L 429.339053 132.821293 
L 433.498059 122.191111 
L 437.657065 110.801818 
L 441.816071 98.595227 
L 445.975078 183.200265 
L 450.134084 176.188417 
L 454.29309 168.674024 
L 458.452096 160.620054 
L 462.611102 151.986833 
L 466.770109 142.734686 
L 470.929115 132.821293 
L 475.088121 122.191111 
" style="fill:none;stroke:#b9b9b9;stroke-linecap:square;stroke-width:1.5;"/>
   </g>
   <g id="line2d_37">
    <path clip-path="url(#p6e75be5cb9)" d="M 59.1875 201.54057 
L 63.346506 195.845923 
L 67.505512 189.74395 
L 71.664519 183.210034 
L 75.823525 176.303592 
L 79.982531 169.167774 
L 84.141537 162.869152 
L 88.300543 158.329 
L 92.45955 157.448511 
L 96.618556 159.962777 
L 100.777562 164.96187 
L 104.936568 170.681373 
L 109.095575 174.904937 
L 113.254581 175.209242 
L 117.413587 172.34588 
L 121.572593 168.202717 
L 125.731599 163.975673 
L 129.890606 160.404389 
L 134.049612 159.016605 
L 138.208618 160.266323 
L 142.367624 164.406638 
L 146.52663 169.227119 
L 150.685637 172.72648 
L 154.844643 173.450826 
L 159.003649 171.612976 
L 163.162655 168.393484 
L 167.321661 164.288389 
L 171.480668 161.190715 
L 175.639674 159.866277 
L 179.79868 160.821591 
L 183.957686 164.755925 
L 188.116693 168.300138 
L 192.275699 171.742075 
L 196.434705 172.933071 
L 200.593711 171.906144 
L 204.752717 168.348597 
L 208.911724 164.035822 
L 213.07073 161.371185 
L 217.229736 160.72286 
L 221.388742 162.198655 
L 225.547748 165.382862 
L 229.706755 168.699846 
L 233.865761 171.587122 
L 238.024767 173.118681 
L 242.183773 171.696741 
L 246.34278 168.393484 
L 250.501786 164.180145 
L 254.660792 160.816891 
L 258.819798 159.203119 
L 262.978804 160.392184 
L 267.137811 163.296062 
L 271.296817 167.670812 
L 275.455823 170.748555 
L 279.614829 172.825612 
L 283.773835 171.571096 
L 287.932842 168.236381 
L 292.091848 164.312443 
L 296.250854 161.087589 
L 300.40986 160.239303 
L 304.568866 161.19177 
L 308.727873 164.470511 
L 312.886879 168.733863 
L 317.045885 171.678271 
L 321.204891 172.884226 
L 325.363898 171.843324 
L 329.522904 168.393484 
L 333.68191 164.793532 
L 337.840916 161.371181 
L 341.999922 160.722856 
L 346.158929 162.095005 
L 350.317935 165.454504 
L 354.476941 169.414216 
L 358.635947 172.279851 
L 362.794953 173.206602 
L 366.95396 172.010845 
L 371.112966 168.71891 
L 375.271972 164.817586 
L 379.430978 161.706337 
L 383.589984 160.197857 
L 387.748991 161.258402 
L 391.907997 165.049875 
L 396.067003 169.967003 
L 400.226009 172.81763 
L 404.385016 173.958813 
L 408.544022 172.230717 
L 412.703028 168.561808 
L 416.862034 164.216225 
L 421.02104 160.82978 
L 425.180047 159.244568 
L 429.339053 161.487912 
L 433.498059 165.240377 
L 437.657065 169.218614 
L 441.816071 171.887913 
L 445.975078 173.099143 
L 450.134084 171.66533 
L 454.29309 168.629137 
L 458.452096 164.625151 
L 462.611102 161.061812 
L 466.770109 160.032067 
L 470.929115 161.724826 
L 475.088121 164.700832 
" style="fill:none;stroke:#1f77b4;stroke-linecap:square;stroke-width:1.5;"/>
   </g>
   <g id="line2d_38">
    <path clip-path="url(#p6e75be5cb9)" d="M 59.1875 201.54057 
L 63.346506 195.845384 
L 67.505512 189.741614 
L 71.664519 183.206833 
L 76.239425 175.573443 
L 81.646134 166.567977 
L 83.725637 163.483118 
L 85.389239 161.341054 
L 87.052842 159.591896 
L 88.300543 158.591845 
L 89.548245 157.894677 
L 90.795947 157.523971 
L 91.627748 157.46529 
L 92.45955 157.558994 
L 93.707252 157.981456 
L 94.954953 158.727246 
L 96.202655 159.76765 
L 97.866258 161.541097 
L 99.945761 164.199002 
L 104.936568 170.893314 
L 106.600171 172.708152 
L 107.847873 173.808496 
L 109.095575 174.64863 
L 110.343276 175.207619 
L 111.590978 175.475715 
L 112.83868 175.453853 
L 114.086382 175.152717 
L 115.334084 174.591553 
L 116.581786 173.796805 
L 118.245388 172.430194 
L 120.324891 170.354583 
L 127.811102 162.400925 
L 129.474705 161.130804 
L 130.722407 160.409537 
L 131.970109 159.913369 
L 133.217811 159.659262 
L 134.465512 159.656582 
L 135.713214 159.906379 
L 136.960916 160.400923 
L 138.208618 161.123594 
L 139.87222 162.397241 
L 141.951724 164.369601 
L 148.606134 171.139195 
L 150.269736 172.362068 
L 151.517438 173.042673 
L 152.76514 173.49535 
L 154.012842 173.70706 
L 155.260543 173.673829 
L 156.508245 173.400509 
L 157.755947 172.900194 
L 159.003649 172.193379 
L 160.667252 170.976942 
L 162.746755 169.127512 
L 169.817065 162.463469 
L 171.480668 161.338717 
L 172.72837 160.709708 
L 173.976071 160.290164 
L 175.223773 160.09602 
L 176.471475 160.135831 
L 177.719177 160.41017 
L 178.966879 160.911271 
L 180.214581 161.622987 
L 181.878183 162.85663 
L 183.957686 164.743873 
L 190.196196 170.779369 
L 191.859798 171.980122 
L 193.1075 172.661349 
L 194.355202 173.128051 
L 195.602904 173.365411 
L 196.850606 173.367327 
L 198.098307 173.136346 
L 199.346009 172.683237 
L 200.593711 172.026279 
L 202.257314 170.877021 
L 204.336817 169.107271 
L 211.823028 162.318137 
L 213.48663 161.284028 
L 214.734332 160.726263 
L 215.982034 160.378744 
L 217.229736 160.255405 
L 218.477438 160.362701 
L 219.72514 160.699076 
L 220.972842 161.2547 
L 222.636444 162.304252 
L 224.300047 163.646563 
L 226.79545 166.018631 
L 230.954457 170.055577 
L 232.618059 171.389374 
L 234.281661 172.42554 
L 235.529363 172.967544 
L 236.777065 173.287229 
L 238.024767 173.375123 
L 239.272469 173.2304 
L 240.520171 172.860607 
L 241.767873 172.281072 
L 243.431475 171.221468 
L 245.095078 169.897942 
L 247.590481 167.601043 
L 251.749488 163.720863 
L 253.41309 162.421882 
L 255.076693 161.391743 
L 256.324394 160.835258 
L 257.572096 160.487612 
L 258.819798 160.362826 
L 260.0675 160.467466 
L 261.315202 160.800128 
L 262.562904 161.351164 
L 264.226506 162.393606 
L 265.890109 163.728185 
L 268.385512 166.088764 
L 272.544519 170.111125 
L 274.208121 171.44172 
L 275.871724 172.476398 
L 277.119425 173.018378 
L 278.367127 173.338902 
L 279.614829 173.428396 
L 280.862531 173.285912 
L 282.110233 172.918862 
L 283.357935 172.34244 
L 285.021537 171.287329 
L 286.68514 169.968425 
L 289.180543 167.678168 
L 293.33955 163.806792 
L 295.419053 162.225107 
L 297.082655 161.274377 
L 298.330357 160.786043 
L 299.578059 160.511555 
L 300.825761 160.462537 
L 302.073463 160.64297 
L 303.321165 161.048756 
L 304.568866 161.667546 
L 306.232469 162.787515 
L 307.896071 164.180012 
L 310.391475 166.581821 
L 314.134581 170.183868 
L 315.798183 171.512868 
L 317.461786 172.546518 
L 318.709488 173.088117 
L 319.957189 173.408587 
L 321.204891 173.49834 
L 322.452593 173.356398 
L 323.700295 172.990142 
L 324.947997 172.414723 
L 326.611599 171.361202 
L 328.275202 170.044077 
L 330.770606 167.756622 
L 334.929612 163.88948 
L 337.009115 162.309377 
L 338.672717 161.359542 
L 339.920419 160.871634 
L 341.168121 160.597351 
L 342.415823 160.548309 
L 343.663525 160.728494 
L 344.911227 161.133816 
L 346.158929 161.751946 
L 347.822531 162.870772 
L 349.486134 164.261899 
L 351.981537 166.661427 
L 355.724643 170.260216 
L 357.388245 171.588072 
L 359.051848 172.620865 
L 360.29955 173.162037 
L 361.547252 173.482279 
L 362.794953 173.572001 
L 364.042655 173.430224 
L 365.290357 173.064315 
L 366.538059 172.48941 
L 368.201661 171.436794 
L 369.865264 170.120771 
L 372.360668 167.835184 
L 376.519674 163.971126 
L 378.599177 162.392266 
L 380.26278 161.443174 
L 381.510481 160.955648 
L 382.758183 160.681579 
L 384.005885 160.632578 
L 385.253587 160.812627 
L 386.501289 161.217641 
L 387.748991 161.835298 
L 389.412593 162.953271 
L 391.076196 164.343337 
L 393.571599 166.741041 
L 397.314705 170.337103 
L 398.978307 171.663954 
L 400.64191 172.695965 
L 401.889612 173.236724 
L 403.137314 173.556717 
L 404.385016 173.646361 
L 405.632717 173.504677 
L 406.880419 173.139024 
L 408.128121 172.564528 
L 409.791724 171.512667 
L 411.455326 170.197589 
L 413.95073 167.913647 
L 418.109736 164.052376 
L 420.189239 162.47466 
L 421.852842 161.526261 
L 423.100543 161.039094 
L 424.348245 160.765233 
L 425.595947 160.716277 
L 426.843649 160.896209 
L 428.091351 161.300943 
L 429.339053 161.918169 
L 431.002655 163.035354 
L 432.666258 164.424436 
L 435.161661 166.820433 
L 438.904767 170.413924 
L 440.56837 171.73982 
L 442.231972 172.771083 
L 443.479674 173.311445 
L 444.727376 173.631198 
L 445.975078 173.720764 
L 447.22278 173.579165 
L 448.470481 173.213756 
L 449.718183 172.639652 
L 451.381786 171.588516 
L 453.045388 170.274351 
L 455.540792 167.992002 
L 459.699798 164.133439 
L 461.779301 162.556835 
L 463.442904 161.609109 
L 464.690606 161.12229 
L 465.938307 160.848628 
L 467.186009 160.799715 
L 468.433711 160.979528 
L 469.681413 161.383987 
L 470.929115 162.000788 
L 472.592717 163.117199 
L 474.25632 164.505314 
L 474.67222 164.884795 
L 474.67222 164.884795 
" style="fill:none;stroke:#008000;stroke-dasharray:7.4,3.2;stroke-dashoffset:0;stroke-width:2;"/>
   </g>
   <g id="patch_3">
    <path d="M 59.1875 230.64 
L 59.1875 13.2 
" style="fill:none;stroke:#000000;stroke-linecap:square;stroke-linejoin:miter;stroke-width:2;"/>
   </g>
   <g id="patch_4">
    <path d="M 350.317935 230.64 
L 350.317935 13.2 
" style="fill:none;"/>
   </g>
   <g id="patch_5">
    <path d="M 59.1875 230.64 
L 350.317935 230.64 
" style="fill:none;stroke:#000000;stroke-linecap:square;stroke-linejoin:miter;stroke-width:2;"/>
   </g>
   <g id="patch_6">
    <path d="M 59.1875 13.2 
L 350.317935 13.2 
" style="fill:none;"/>
   </g>
   <g id="legend_1">
    <g id="patch_7">
     <path d="M 228.667935 69.234375 
L 339.817935 69.234375 
Q 342.817935 69.234375 342.817935 66.234375 
L 342.817935 23.7 
Q 342.817935 20.7 339.817935 20.7 
L 228.667935 20.7 
Q 225.667935 20.7 225.667935 23.7 
L 225.667935 66.234375 
Q 225.667935 69.234375 228.667935 69.234375 
z
" style="fill:#ffffff;opacity:0.8;stroke:#cccccc;stroke-linejoin:miter;"/>
    </g>
    <g id="line2d_39">
     <path d="M 231.667935 32.847656 
L 261.667935 32.847656 
" style="fill:none;stroke:#008000;stroke-dasharray:7.4,3.2;stroke-dashoffset:0;stroke-width:2;"/>
    </g>
    <g id="line2d_40"/>
    <g id="text_16">
     <!-- Numeric -->
     <defs>
      <path d="M 9.8125 72.90625 
L 23.09375 72.90625 
L 55.421875 11.921875 
L 55.421875 72.90625 
L 64.984375 72.90625 
L 64.984375 0 
L 51.703125 0 
L 19.390625 60.984375 
L 19.390625 0 
L 9.8125 0 
z
" id="DejaVuSans-4e"/>
      <path d="M 8.5 21.578125 
L 8.5 54.6875 
L 17.484375 54.6875 
L 17.484375 21.921875 
Q 17.484375 14.15625 20.5 10.265625 
Q 23.53125 6.390625 29.59375 6.390625 
Q 36.859375 6.390625 41.078125 11.03125 
Q 45.3125 15.671875 45.3125 23.6875 
L 45.3125 54.6875 
L 54.296875 54.6875 
L 54.296875 0 
L 45.3125 0 
L 45.3125 8.40625 
Q 42.046875 3.421875 37.71875 1 
Q 33.40625 -1.421875 27.6875 -1.421875 
Q 18.265625 -1.421875 13.375 4.4375 
Q 8.5 10.296875 8.5 21.578125 
z
M 31.109375 56 
z
" id="DejaVuSans-75"/>
      <path d="M 52 44.1875 
Q 55.375 50.25 60.0625 53.125 
Q 64.75 56 71.09375 56 
Q 79.640625 56 84.28125 50.015625 
Q 88.921875 44.046875 88.921875 33.015625 
L 88.921875 0 
L 79.890625 0 
L 79.890625 32.71875 
Q 79.890625 40.578125 77.09375 44.375 
Q 74.3125 48.1875 68.609375 48.1875 
Q 61.625 48.1875 57.5625 43.546875 
Q 53.515625 38.921875 53.515625 30.90625 
L 53.515625 0 
L 44.484375 0 
L 44.484375 32.71875 
Q 44.484375 40.625 41.703125 44.40625 
Q 38.921875 48.1875 33.109375 48.1875 
Q 26.21875 48.1875 22.15625 43.53125 
Q 18.109375 38.875 18.109375 30.90625 
L 18.109375 0 
L 9.078125 0 
L 9.078125 54.6875 
L 18.109375 54.6875 
L 18.109375 46.1875 
Q 21.1875 51.21875 25.484375 53.609375 
Q 29.78125 56 35.6875 56 
Q 41.65625 56 45.828125 52.96875 
Q 50 49.953125 52 44.1875 
z
" id="DejaVuSans-6d"/>
      <path d="M 56.203125 29.59375 
L 56.203125 25.203125 
L 14.890625 25.203125 
Q 15.484375 15.921875 20.484375 11.0625 
Q 25.484375 6.203125 34.421875 6.203125 
Q 39.59375 6.203125 44.453125 7.46875 
Q 49.3125 8.734375 54.109375 11.28125 
L 54.109375 2.78125 
Q 49.265625 0.734375 44.1875 -0.34375 
Q 39.109375 -1.421875 33.890625 -1.421875 
Q 20.796875 -1.421875 13.15625 6.1875 
Q 5.515625 13.8125 5.515625 26.8125 
Q 5.515625 40.234375 12.765625 48.109375 
Q 20.015625 56 32.328125 56 
Q 43.359375 56 49.78125 48.890625 
Q 56.203125 41.796875 56.203125 29.59375 
z
M 47.21875 32.234375 
Q 47.125 39.59375 43.09375 43.984375 
Q 39.0625 48.390625 32.421875 48.390625 
Q 24.90625 48.390625 20.390625 44.140625 
Q 15.875 39.890625 15.1875 32.171875 
z
" id="DejaVuSans-65"/>
      <path d="M 41.109375 46.296875 
Q 39.59375 47.171875 37.8125 47.578125 
Q 36.03125 48 33.890625 48 
Q 26.265625 48 22.1875 43.046875 
Q 18.109375 38.09375 18.109375 28.8125 
L 18.109375 0 
L 9.078125 0 
L 9.078125 54.6875 
L 18.109375 54.6875 
L 18.109375 46.1875 
Q 20.953125 51.171875 25.484375 53.578125 
Q 30.03125 56 36.53125 56 
Q 37.453125 56 38.578125 55.875 
Q 39.703125 55.765625 41.0625 55.515625 
z
" id="DejaVuSans-72"/>
      <path d="M 9.421875 54.6875 
L 18.40625 54.6875 
L 18.40625 0 
L 9.421875 0 
z
M 9.421875 75.984375 
L 18.40625 75.984375 
L 18.40625 64.59375 
L 9.421875 64.59375 
z
" id="DejaVuSans-69"/>
      <path d="M 48.78125 52.59375 
L 48.78125 44.1875 
Q 44.96875 46.296875 41.140625 47.34375 
Q 37.3125 48.390625 33.40625 48.390625 
Q 24.65625 48.390625 19.8125 42.84375 
Q 14.984375 37.3125 14.984375 27.296875 
Q 14.984375 17.28125 19.8125 11.734375 
Q 24.65625 6.203125 33.40625 6.203125 
Q 37.3125 6.203125 41.140625 7.25 
Q 44.96875 8.296875 48.78125 10.40625 
L 48.78125 2.09375 
Q 45.015625 0.34375 40.984375 -0.53125 
Q 36.96875 -1.421875 32.421875 -1.421875 
Q 20.0625 -1.421875 12.78125 6.34375 
Q 5.515625 14.109375 5.515625 27.296875 
Q 5.515625 40.671875 12.859375 48.328125 
Q 20.21875 56 33.015625 56 
Q 37.15625 56 41.109375 55.140625 
Q 45.0625 54.296875 48.78125 52.59375 
z
" id="DejaVuSans-63"/>
     </defs>
     <g transform="translate(273.667935 38.097656)scale(0.15 -0.15)">
      <use xlink:href="#DejaVuSans-4e"/>
      <use x="74.804688" xlink:href="#DejaVuSans-75"/>
      <use x="138.183594" xlink:href="#DejaVuSans-6d"/>
      <use x="235.595703" xlink:href="#DejaVuSans-65"/>
      <use x="297.119141" xlink:href="#DejaVuSans-72"/>
      <use x="338.232422" xlink:href="#DejaVuSans-69"/>
      <use x="366.015625" xlink:href="#DejaVuSans-63"/>
     </g>
    </g>
    <g id="patch_8">
     <path d="M 231.667935 60.114844 
L 261.667935 60.114844 
L 261.667935 49.614844 
L 231.667935 49.614844 
z
" style="fill:#4db8ff;"/>
    </g>
    <g id="text_17">
     <!-- SSA -->
     <defs>
      <path d="M 53.515625 70.515625 
L 53.515625 60.890625 
Q 47.90625 63.578125 42.921875 64.890625 
Q 37.9375 66.21875 33.296875 66.21875 
Q 25.25 66.21875 20.875 63.09375 
Q 16.5 59.96875 16.5 54.203125 
Q 16.5 49.359375 19.40625 46.890625 
Q 22.3125 44.4375 30.421875 42.921875 
L 36.375 41.703125 
Q 47.40625 39.59375 52.65625 34.296875 
Q 57.90625 29 57.90625 20.125 
Q 57.90625 9.515625 50.796875 4.046875 
Q 43.703125 -1.421875 29.984375 -1.421875 
Q 24.8125 -1.421875 18.96875 -0.25 
Q 13.140625 0.921875 6.890625 3.21875 
L 6.890625 13.375 
Q 12.890625 10.015625 18.65625 8.296875 
Q 24.421875 6.59375 29.984375 6.59375 
Q 38.421875 6.59375 43.015625 9.90625 
Q 47.609375 13.234375 47.609375 19.390625 
Q 47.609375 24.75 44.3125 27.78125 
Q 41.015625 30.8125 33.5 32.328125 
L 27.484375 33.5 
Q 16.453125 35.6875 11.515625 40.375 
Q 6.59375 45.0625 6.59375 53.421875 
Q 6.59375 63.09375 13.40625 68.65625 
Q 20.21875 74.21875 32.171875 74.21875 
Q 37.3125 74.21875 42.625 73.28125 
Q 47.953125 72.359375 53.515625 70.515625 
z
" id="DejaVuSans-53"/>
      <path d="M 34.1875 63.1875 
L 20.796875 26.90625 
L 47.609375 26.90625 
z
M 28.609375 72.90625 
L 39.796875 72.90625 
L 67.578125 0 
L 57.328125 0 
L 50.6875 18.703125 
L 17.828125 18.703125 
L 11.1875 0 
L 0.78125 0 
z
" id="DejaVuSans-41"/>
     </defs>
     <g transform="translate(273.667935 60.114844)scale(0.15 -0.15)">
      <use xlink:href="#DejaVuSans-53"/>
      <use x="63.476562" xlink:href="#DejaVuSans-53"/>
      <use x="126.96875" xlink:href="#DejaVuSans-41"/>
     </g>
    </g>
   </g>
  </g>
  <g id="axes_2">
   <g id="patch_9">
    <path d="M 437.657065 230.64 
L 728.7875 230.64 
L 728.7875 13.2 
L 437.657065 13.2 
z
" style="fill:#ffffff;"/>
   </g>
   <g id="PolyCollection_2">
    <defs>
     <path d="M 445.975078 -64.406474 
L 445.975078 -64.406474 
L 450.134084 -64.477684 
L 454.29309 -65.18908 
L 458.452096 -67.532442 
L 462.611102 -77.64962 
L 466.770109 -99.047741 
L 470.929115 -138.212447 
L 475.088121 -186.30414 
L 479.247127 -227.003064 
L 483.406134 -237.697464 
L 487.56514 -206.019271 
L 491.724146 -157.368798 
L 495.883152 -119.193868 
L 500.042158 -97.152801 
L 504.201165 -95.308866 
L 508.360171 -114.551937 
L 512.519177 -146.327164 
L 516.678183 -187.554809 
L 520.837189 -225.983356 
L 524.996196 -238.738386 
L 529.155202 -217.044347 
L 533.314208 -173.052069 
L 537.473214 -132.128476 
L 541.63222 -105.596408 
L 545.791227 -103.470706 
L 549.950233 -119.297151 
L 554.109239 -150.290379 
L 558.268245 -189.60114 
L 562.427252 -226.559264 
L 566.586258 -238.909987 
L 570.745264 -219.880238 
L 574.90427 -178.012901 
L 579.063276 -131.893574 
L 583.222283 -109.467039 
L 587.381289 -106.386785 
L 591.540295 -122.227682 
L 595.699301 -158.185262 
L 599.858307 -195.403554 
L 604.017314 -227.988172 
L 608.17632 -239.168526 
L 612.335326 -220.863822 
L 616.494332 -176.854907 
L 620.653339 -133.991209 
L 624.812345 -108.109922 
L 628.971351 -103.702957 
L 633.130357 -119.693321 
L 637.289363 -148.226266 
L 641.44837 -188.589041 
L 645.607376 -223.983627 
L 649.766382 -239.217734 
L 653.925388 -223.109131 
L 658.084394 -178.263169 
L 662.243401 -133.313959 
L 666.402407 -107.001621 
L 670.561413 -102.721083 
L 674.720419 -117.279382 
L 678.879425 -151.500493 
L 683.038432 -191.00322 
L 687.197438 -225.933273 
L 691.356444 -238.920217 
L 695.51545 -220.252666 
L 699.674457 -177.848098 
L 703.833463 -132.912299 
L 707.992469 -106.015406 
L 712.151475 -104.753323 
L 716.310481 -118.807424 
L 720.469488 -153.765289 
L 724.628494 -194.373841 
L 728.7875 -228.038803 
L 732.946506 -238.652655 
L 737.105512 -218.626899 
L 741.264519 -176.390735 
L 745.423525 -130.058675 
L 749.582531 -104.929934 
L 753.741537 -104.447513 
L 757.900543 -120.610371 
L 762.05955 -153.497595 
L 766.218556 -191.334055 
L 770.377562 -227.288859 
L 774.536568 -238.466112 
L 778.695575 -216.090824 
L 782.854581 -168.519387 
L 787.013587 -126.834275 
L 791.172593 -102.153279 
L 795.331599 -102.581313 
L 799.490606 -118.310733 
L 803.649612 -150.042837 
L 807.808618 -192.116344 
L 811.967624 -227.691513 
L 816.12663 -238.621898 
L 820.285637 -219.643672 
L 824.444643 -176.310671 
L 828.603649 -134.110885 
L 832.762655 -106.828998 
L 836.921661 -104.179148 
L 841.080668 -121.515983 
L 845.239674 -152.165772 
L 849.39868 -193.161916 
L 853.557686 -226.73007 
L 853.557686 -246.754688 
L 853.557686 -246.754688 
L 849.39868 -208.441428 
L 845.239674 -162.000222 
L 841.080668 -127.573477 
L 836.921661 -108.234327 
L 832.762655 -111.183096 
L 828.603649 -141.686533 
L 824.444643 -189.302382 
L 820.285637 -238.646743 
L 816.12663 -260.383591 
L 811.967624 -247.855517 
L 807.808618 -207.251996 
L 803.649612 -159.606946 
L 799.490606 -123.990054 
L 795.331599 -106.457577 
L 791.172593 -105.981788 
L 787.013587 -133.526709 
L 782.854581 -180.476184 
L 778.695575 -234.58563 
L 774.536568 -260.204866 
L 770.377562 -247.394466 
L 766.218556 -206.362235 
L 762.05955 -163.502265 
L 757.900543 -126.560668 
L 753.741537 -108.532841 
L 749.582531 -109.06953 
L 745.423525 -137.140458 
L 741.264519 -189.393157 
L 737.105512 -237.484243 
L 732.946506 -260.418876 
L 728.7875 -248.253203 
L 724.628494 -209.820408 
L 720.469488 -163.80423 
L 716.310481 -124.545121 
L 712.151475 -108.873041 
L 707.992469 -110.277437 
L 703.833463 -140.341348 
L 699.674457 -191.045769 
L 695.51545 -239.343121 
L 691.356444 -260.725846 
L 687.197438 -245.842514 
L 683.038432 -205.98599 
L 678.879425 -161.250092 
L 674.720419 -122.837758 
L 670.561413 -106.612957 
L 666.402407 -111.375285 
L 662.243401 -140.792086 
L 658.084394 -191.516541 
L 653.925388 -242.610482 
L 649.766382 -261.067199 
L 645.607376 -243.611107 
L 641.44837 -203.241208 
L 637.289363 -157.560024 
L 633.130357 -125.535345 
L 628.971351 -107.70471 
L 624.812345 -112.609481 
L 620.653339 -141.5522 
L 616.494332 -189.91946 
L 612.335326 -240.042049 
L 608.17632 -261.01074 
L 604.017314 -248.195223 
L 599.858307 -210.992321 
L 595.699301 -168.792825 
L 591.540295 -128.369611 
L 587.381289 -110.69081 
L 583.222283 -114.121384 
L 579.063276 -139.198365 
L 574.90427 -191.232682 
L 570.745264 -238.917244 
L 566.586258 -260.71411 
L 562.427252 -246.559138 
L 558.268245 -204.391744 
L 554.109239 -159.885947 
L 549.950233 -125.092488 
L 545.791227 -107.446433 
L 541.63222 -109.811124 
L 537.473214 -139.46189 
L 533.314208 -185.609133 
L 529.155202 -235.675305 
L 524.996196 -260.517232 
L 520.837189 -245.899846 
L 516.678183 -202.065755 
L 512.519177 -155.42108 
L 508.360171 -119.792236 
L 504.201165 -98.384086 
L 500.042158 -100.429 
L 495.883152 -124.977042 
L 491.724146 -167.870936 
L 487.56514 -223.087718 
L 483.406134 -259.323114 
L 479.247127 -247.06724 
L 475.088121 -200.644639 
L 470.929115 -146.29301 
L 466.770109 -102.532008 
L 462.611102 -78.884859 
L 458.452096 -67.805169 
L 454.29309 -65.255146 
L 450.134084 -64.483555 
L 445.975078 -64.406474 
z
" id="ma58303b616"/>
    </defs>
    <g clip-path="url(#pba1599f33f)">
     <use style="fill:#4db8ff;" x="0" xlink:href="#ma58303b616" y="285.213437"/>
    </g>
   </g>
   <g id="matplotlib.axis_3">
    <g id="xtick_9">
     <g id="line2d_41">
      <path clip-path="url(#pba1599f33f)" d="M 437.657065 230.64 
L 437.657065 13.2 
" style="fill:none;stroke:#b0b0b0;stroke-linecap:square;stroke-width:0.8;"/>
     </g>
     <g id="line2d_42">
      <g>
       <use x="437.657065" xlink:href="#m3bd4d59acc" y="230.64"/>
      </g>
     </g>
     <g id="text_18">
      <!-- 0 -->
      <g transform="translate(432.88519 251.537656)scale(0.15 -0.15)">
       <use xlink:href="#DejaVuSans-30"/>
      </g>
     </g>
    </g>
    <g id="xtick_10">
     <g id="line2d_43">
      <path clip-path="url(#pba1599f33f)" d="M 479.247127 230.64 
L 479.247127 13.2 
" style="fill:none;stroke:#b0b0b0;stroke-linecap:square;stroke-width:0.8;"/>
     </g>
     <g id="line2d_44">
      <g>
       <use x="479.247127" xlink:href="#m3bd4d59acc" y="230.64"/>
      </g>
     </g>
     <g id="text_19">
      <!-- 1 -->
      <g transform="translate(474.475252 251.537656)scale(0.15 -0.15)">
       <use xlink:href="#DejaVuSans-31"/>
      </g>
     </g>
    </g>
    <g id="xtick_11">
     <g id="line2d_45">
      <path clip-path="url(#pba1599f33f)" d="M 520.837189 230.64 
L 520.837189 13.2 
" style="fill:none;stroke:#b0b0b0;stroke-linecap:square;stroke-width:0.8;"/>
     </g>
     <g id="line2d_46">
      <g>
       <use x="520.837189" xlink:href="#m3bd4d59acc" y="230.64"/>
      </g>
     </g>
     <g id="text_20">
      <!-- 2 -->
      <g transform="translate(516.065314 251.537656)scale(0.15 -0.15)">
       <use xlink:href="#DejaVuSans-32"/>
      </g>
     </g>
    </g>
    <g id="xtick_12">
     <g id="line2d_47">
      <path clip-path="url(#pba1599f33f)" d="M 562.427252 230.64 
L 562.427252 13.2 
" style="fill:none;stroke:#b0b0b0;stroke-linecap:square;stroke-width:0.8;"/>
     </g>
     <g id="line2d_48">
      <g>
       <use x="562.427252" xlink:href="#m3bd4d59acc" y="230.64"/>
      </g>
     </g>
     <g id="text_21">
      <!-- 3 -->
      <g transform="translate(557.655377 251.537656)scale(0.15 -0.15)">
       <use xlink:href="#DejaVuSans-33"/>
      </g>
     </g>
    </g>
    <g id="xtick_13">
     <g id="line2d_49">
      <path clip-path="url(#pba1599f33f)" d="M 604.017314 230.64 
L 604.017314 13.2 
" style="fill:none;stroke:#b0b0b0;stroke-linecap:square;stroke-width:0.8;"/>
     </g>
     <g id="line2d_50">
      <g>
       <use x="604.017314" xlink:href="#m3bd4d59acc" y="230.64"/>
      </g>
     </g>
     <g id="text_22">
      <!-- 4 -->
      <g transform="translate(599.245439 251.537656)scale(0.15 -0.15)">
       <use xlink:href="#DejaVuSans-34"/>
      </g>
     </g>
    </g>
    <g id="xtick_14">
     <g id="line2d_51">
      <path clip-path="url(#pba1599f33f)" d="M 645.607376 230.64 
L 645.607376 13.2 
" style="fill:none;stroke:#b0b0b0;stroke-linecap:square;stroke-width:0.8;"/>
     </g>
     <g id="line2d_52">
      <g>
       <use x="645.607376" xlink:href="#m3bd4d59acc" y="230.64"/>
      </g>
     </g>
     <g id="text_23">
      <!-- 5 -->
      <g transform="translate(640.835501 251.537656)scale(0.15 -0.15)">
       <use xlink:href="#DejaVuSans-35"/>
      </g>
     </g>
    </g>
    <g id="xtick_15">
     <g id="line2d_53">
      <path clip-path="url(#pba1599f33f)" d="M 687.197438 230.64 
L 687.197438 13.2 
" style="fill:none;stroke:#b0b0b0;stroke-linecap:square;stroke-width:0.8;"/>
     </g>
     <g id="line2d_54">
      <g>
       <use x="687.197438" xlink:href="#m3bd4d59acc" y="230.64"/>
      </g>
     </g>
     <g id="text_24">
      <!-- 6 -->
      <g transform="translate(682.425563 251.537656)scale(0.15 -0.15)">
       <use xlink:href="#DejaVuSans-36"/>
      </g>
     </g>
    </g>
    <g id="xtick_16">
     <g id="line2d_55">
      <path clip-path="url(#pba1599f33f)" d="M 728.7875 230.64 
L 728.7875 13.2 
" style="fill:none;stroke:#b0b0b0;stroke-linecap:square;stroke-width:0.8;"/>
     </g>
     <g id="line2d_56">
      <g>
       <use x="728.7875" xlink:href="#m3bd4d59acc" y="230.64"/>
      </g>
     </g>
     <g id="text_25">
      <!-- 7 -->
      <g transform="translate(724.015625 251.537656)scale(0.15 -0.15)">
       <use xlink:href="#DejaVuSans-37"/>
      </g>
     </g>
    </g>
    <g id="text_26">
     <!-- $t/\tau$ -->
     <g transform="translate(569.822283 273.854062)scale(0.2 -0.2)">
      <use transform="translate(0 0.09375)" xlink:href="#DejaVuSans-Oblique-74"/>
      <use transform="translate(39.208984 0.09375)" xlink:href="#DejaVuSans-2f"/>
      <use transform="translate(72.900391 0.09375)" xlink:href="#DejaVuSans-Oblique-3c4"/>
     </g>
    </g>
   </g>
   <g id="matplotlib.axis_4">
    <g id="ytick_6">
     <g id="line2d_57">
      <path clip-path="url(#pba1599f33f)" d="M 437.657065 220.806964 
L 728.7875 220.806964 
" style="fill:none;stroke:#b0b0b0;stroke-linecap:square;stroke-width:0.8;"/>
     </g>
     <g id="line2d_58">
      <g>
       <use x="437.657065" xlink:href="#mba582aaa6b" y="220.806964"/>
      </g>
     </g>
     <g id="text_27">
      <!-- 0.00 -->
      <defs>
       <path d="M 10.6875 12.40625 
L 21 12.40625 
L 21 0 
L 10.6875 0 
z
" id="DejaVuSans-2e"/>
      </defs>
      <g transform="translate(394.758628 226.505792)scale(0.15 -0.15)">
       <use xlink:href="#DejaVuSans-30"/>
       <use x="63.623047" xlink:href="#DejaVuSans-2e"/>
       <use x="95.410156" xlink:href="#DejaVuSans-30"/>
       <use x="159.033203" xlink:href="#DejaVuSans-30"/>
      </g>
     </g>
    </g>
    <g id="ytick_7">
     <g id="line2d_59">
      <path clip-path="url(#pba1599f33f)" d="M 437.657065 191.148826 
L 728.7875 191.148826 
" style="fill:none;stroke:#b0b0b0;stroke-linecap:square;stroke-width:0.8;"/>
     </g>
     <g id="line2d_60">
      <g>
       <use x="437.657065" xlink:href="#mba582aaa6b" y="191.148826"/>
      </g>
     </g>
     <g id="text_28">
      <!-- 0.02 -->
      <g transform="translate(394.758628 196.847654)scale(0.15 -0.15)">
       <use xlink:href="#DejaVuSans-30"/>
       <use x="63.623047" xlink:href="#DejaVuSans-2e"/>
       <use x="95.410156" xlink:href="#DejaVuSans-30"/>
       <use x="159.033203" xlink:href="#DejaVuSans-32"/>
      </g>
     </g>
    </g>
    <g id="ytick_8">
     <g id="line2d_61">
      <path clip-path="url(#pba1599f33f)" d="M 437.657065 161.490688 
L 728.7875 161.490688 
" style="fill:none;stroke:#b0b0b0;stroke-linecap:square;stroke-width:0.8;"/>
     </g>
     <g id="line2d_62">
      <g>
       <use x="437.657065" xlink:href="#mba582aaa6b" y="161.490688"/>
      </g>
     </g>
     <g id="text_29">
      <!-- 0.04 -->
      <g transform="translate(394.758628 167.189516)scale(0.15 -0.15)">
       <use xlink:href="#DejaVuSans-30"/>
       <use x="63.623047" xlink:href="#DejaVuSans-2e"/>
       <use x="95.410156" xlink:href="#DejaVuSans-30"/>
       <use x="159.033203" xlink:href="#DejaVuSans-34"/>
      </g>
     </g>
    </g>
    <g id="ytick_9">
     <g id="line2d_63">
      <path clip-path="url(#pba1599f33f)" d="M 437.657065 131.832551 
L 728.7875 131.832551 
" style="fill:none;stroke:#b0b0b0;stroke-linecap:square;stroke-width:0.8;"/>
     </g>
     <g id="line2d_64">
      <g>
       <use x="437.657065" xlink:href="#mba582aaa6b" y="131.832551"/>
      </g>
     </g>
     <g id="text_30">
      <!-- 0.06 -->
      <g transform="translate(394.758628 137.531379)scale(0.15 -0.15)">
       <use xlink:href="#DejaVuSans-30"/>
       <use x="63.623047" xlink:href="#DejaVuSans-2e"/>
       <use x="95.410156" xlink:href="#DejaVuSans-30"/>
       <use x="159.033203" xlink:href="#DejaVuSans-36"/>
      </g>
     </g>
    </g>
    <g id="ytick_10">
     <g id="line2d_65">
      <path clip-path="url(#pba1599f33f)" d="M 437.657065 102.174413 
L 728.7875 102.174413 
" style="fill:none;stroke:#b0b0b0;stroke-linecap:square;stroke-width:0.8;"/>
     </g>
     <g id="line2d_66">
      <g>
       <use x="437.657065" xlink:href="#mba582aaa6b" y="102.174413"/>
      </g>
     </g>
     <g id="text_31">
      <!-- 0.08 -->
      <g transform="translate(394.758628 107.873241)scale(0.15 -0.15)">
       <use xlink:href="#DejaVuSans-30"/>
       <use x="63.623047" xlink:href="#DejaVuSans-2e"/>
       <use x="95.410156" xlink:href="#DejaVuSans-30"/>
       <use x="159.033203" xlink:href="#DejaVuSans-38"/>
      </g>
     </g>
    </g>
    <g id="ytick_11">
     <g id="line2d_67">
      <path clip-path="url(#pba1599f33f)" d="M 437.657065 72.516275 
L 728.7875 72.516275 
" style="fill:none;stroke:#b0b0b0;stroke-linecap:square;stroke-width:0.8;"/>
     </g>
     <g id="line2d_68">
      <g>
       <use x="437.657065" xlink:href="#mba582aaa6b" y="72.516275"/>
      </g>
     </g>
     <g id="text_32">
      <!-- 0.10 -->
      <g transform="translate(394.758628 78.215103)scale(0.15 -0.15)">
       <use xlink:href="#DejaVuSans-30"/>
       <use x="63.623047" xlink:href="#DejaVuSans-2e"/>
       <use x="95.410156" xlink:href="#DejaVuSans-31"/>
       <use x="159.033203" xlink:href="#DejaVuSans-30"/>
      </g>
     </g>
    </g>
    <g id="ytick_12">
     <g id="line2d_69">
      <path clip-path="url(#pba1599f33f)" d="M 437.657065 42.858138 
L 728.7875 42.858138 
" style="fill:none;stroke:#b0b0b0;stroke-linecap:square;stroke-width:0.8;"/>
     </g>
     <g id="line2d_70">
      <g>
       <use x="437.657065" xlink:href="#mba582aaa6b" y="42.858138"/>
      </g>
     </g>
     <g id="text_33">
      <!-- 0.12 -->
      <g transform="translate(394.758628 48.556966)scale(0.15 -0.15)">
       <use xlink:href="#DejaVuSans-30"/>
       <use x="63.623047" xlink:href="#DejaVuSans-2e"/>
       <use x="95.410156" xlink:href="#DejaVuSans-31"/>
       <use x="159.033203" xlink:href="#DejaVuSans-32"/>
      </g>
     </g>
    </g>
    <g id="ytick_13">
     <g id="line2d_71">
      <path clip-path="url(#pba1599f33f)" d="M 437.657065 13.2 
L 728.7875 13.2 
" style="fill:none;stroke:#b0b0b0;stroke-linecap:square;stroke-width:0.8;"/>
     </g>
     <g id="line2d_72">
      <g>
       <use x="437.657065" xlink:href="#mba582aaa6b" y="13.2"/>
      </g>
     </g>
     <g id="text_34">
      <!-- 0.14 -->
      <g transform="translate(394.758628 18.898828)scale(0.15 -0.15)">
       <use xlink:href="#DejaVuSans-30"/>
       <use x="63.623047" xlink:href="#DejaVuSans-2e"/>
       <use x="95.410156" xlink:href="#DejaVuSans-31"/>
       <use x="159.033203" xlink:href="#DejaVuSans-34"/>
      </g>
     </g>
    </g>
    <g id="text_35">
     <!-- $C_V^2(s)$ -->
     <defs>
      <path d="M 69.484375 67.28125 
L 67.484375 56.890625 
Q 62.796875 61.625 57.546875 63.921875 
Q 52.296875 66.21875 46.1875 66.21875 
Q 37.84375 66.21875 31.515625 62.203125 
Q 25.203125 58.203125 20.609375 50 
Q 17.671875 44.734375 16.125 38.84375 
Q 14.59375 32.953125 14.59375 27 
Q 14.59375 17.046875 19.75 11.8125 
Q 24.90625 6.59375 34.71875 6.59375 
Q 41.5 6.59375 47.75 8.765625 
Q 54 10.9375 59.90625 15.28125 
L 57.625 3.609375 
Q 51.8125 1.125 45.875 -0.140625 
Q 39.9375 -1.421875 33.984375 -1.421875 
Q 19.96875 -1.421875 12.078125 6.1875 
Q 4.203125 13.8125 4.203125 27.390625 
Q 4.203125 36.078125 7.203125 44.46875 
Q 10.203125 52.875 15.828125 59.8125 
Q 21.78125 67.1875 29.421875 70.703125 
Q 37.0625 74.21875 47.21875 74.21875 
Q 53.46875 74.21875 59.0625 72.484375 
Q 64.65625 70.75 69.484375 67.28125 
z
" id="DejaVuSans-Oblique-43"/>
      <path d="M 20.609375 0 
L 7.8125 72.90625 
L 17.484375 72.90625 
L 28.078125 10.203125 
L 63.484375 72.90625 
L 74.21875 72.90625 
L 32.078125 0 
z
" id="DejaVuSans-Oblique-56"/>
     </defs>
     <g transform="translate(385.158628 147.42)rotate(-90)scale(0.2 -0.2)">
      <use transform="translate(0 0.765625)" xlink:href="#DejaVuSans-Oblique-43"/>
      <use transform="translate(77.02474 39.046875)scale(0.7)" xlink:href="#DejaVuSans-32"/>
      <use transform="translate(69.824219 -26.578125)scale(0.7)" xlink:href="#DejaVuSans-Oblique-56"/>
      <use transform="translate(124.295247 0.765625)" xlink:href="#DejaVuSans-28"/>
      <use transform="translate(163.308919 0.765625)" xlink:href="#DejaVuSans-Oblique-73"/>
      <use transform="translate(215.408529 0.765625)" xlink:href="#DejaVuSans-29"/>
     </g>
    </g>
   </g>
   <g id="line2d_73">
    <path clip-path="url(#pba1599f33f)" d="M 437.657065 220.806964 
L 441.816071 220.806964 
L 445.975078 220.806964 
L 450.134084 220.732818 
L 454.29309 219.991325 
L 458.452096 217.544632 
L 462.611102 206.946198 
L 466.770109 184.423563 
L 470.929115 142.960709 
L 475.088121 91.739048 
L 479.247127 48.178286 
L 483.406134 36.703149 
L 487.56514 70.659943 
L 491.724146 122.59357 
L 495.883152 163.127983 
L 500.042158 186.422537 
L 504.201165 188.366961 
L 508.360171 168.041351 
L 512.519177 134.339316 
L 516.678183 90.403155 
L 520.837189 49.271837 
L 524.996196 35.585628 
L 529.155202 58.853612 
L 533.314208 105.882836 
L 537.473214 149.418255 
L 541.63222 177.509672 
L 545.791227 179.754868 
L 549.950233 163.018618 
L 554.109239 130.125274 
L 558.268245 88.216996 
L 562.427252 48.654237 
L 566.586258 35.401389 
L 570.745264 55.814697 
L 574.90427 100.590646 
L 579.063276 149.667468 
L 583.222283 173.419226 
L 587.381289 176.67464 
L 591.540295 159.914791 
L 595.699301 121.724394 
L 599.858307 82.0155 
L 604.017314 47.12174 
L 608.17632 35.123805 
L 612.335326 54.760502 
L 616.494332 101.826254 
L 620.653339 147.441733 
L 624.812345 174.853736 
L 628.971351 179.509604 
L 633.130357 162.599104 
L 637.289363 132.320292 
L 641.44837 89.298313 
L 645.607376 51.41607 
L 649.766382 35.070971 
L 653.925388 52.353631 
L 658.084394 100.323583 
L 662.243401 148.160415 
L 666.402407 176.024985 
L 670.561413 180.546418 
L 674.720419 165.154868 
L 678.879425 128.838145 
L 683.038432 86.718832 
L 687.197438 49.325544 
L 691.356444 35.390406 
L 695.51545 55.415544 
L 699.674457 100.766504 
L 703.833463 148.586614 
L 707.992469 177.067016 
L 712.151475 178.400256 
L 716.310481 163.537165 
L 720.469488 126.428678 
L 724.628494 83.116313 
L 728.7875 47.067434 
L 732.946506 35.677672 
L 737.105512 57.157866 
L 741.264519 102.321491 
L 742.9875 122.742199 
" style="fill:none;stroke:#1f77b4;stroke-linecap:square;stroke-width:1.5;"/>
   </g>
   <g id="line2d_74">
    <path clip-path="url(#pba1599f33f)" d="M 437.657065 220.806964 
L 450.965885 220.70779 
L 453.045388 220.46455 
L 454.29309 220.152922 
L 455.540792 219.630607 
L 456.788494 218.799557 
L 457.620295 218.014336 
L 458.452096 216.995441 
L 459.283898 215.696278 
L 460.115699 214.066723 
L 460.9475 212.054098 
L 461.779301 209.604418 
L 462.611102 206.663872 
L 463.858804 201.220108 
L 465.106506 194.399059 
L 466.354208 186.079313 
L 467.60191 176.192233 
L 468.849612 164.739678 
L 470.513214 147.203783 
L 472.592717 122.411866 
L 476.751724 71.100509 
L 477.999425 58.023149 
L 479.247127 47.329496 
L 480.078929 41.874484 
L 480.91073 37.970656 
L 481.32663 36.646623 
L 481.742531 35.76048 
L 482.158432 35.322887 
L 482.574332 35.341174 
L 482.990233 35.819139 
L 483.406134 36.756911 
L 483.822034 38.150845 
L 484.653835 42.27358 
L 485.485637 48.082678 
L 486.317438 55.416655 
L 487.56514 68.803792 
L 489.228742 89.7261 
L 492.971848 138.752062 
L 494.63545 157.135497 
L 495.883152 168.531983 
L 497.130854 177.661259 
L 497.962655 182.462977 
L 498.794457 186.24981 
L 499.626258 189.048105 
L 500.458059 190.892354 
L 500.87396 191.46867 
L 501.28986 191.82102 
L 501.705761 191.954304 
L 502.121661 191.873326 
L 502.537562 191.582742 
L 502.953463 191.087026 
L 503.785264 189.497088 
L 504.617065 187.135201 
L 505.448866 184.029966 
L 506.280668 180.207663 
L 507.52837 173.184788 
L 508.776071 164.693633 
L 510.023773 154.838388 
L 511.687376 139.814842 
L 513.766879 118.669985 
L 519.173587 62.052829 
L 520.421289 51.594742 
L 521.668991 43.281434 
L 522.500792 39.1916 
L 523.332593 36.421788 
L 523.748494 35.566578 
L 524.164394 35.079153 
L 524.580295 34.96775 
L 524.996196 35.238191 
L 525.412096 35.893725 
L 525.827997 36.93491 
L 526.659798 40.16246 
L 527.491599 44.868714 
L 528.323401 50.95622 
L 529.571102 62.360026 
L 530.818804 75.922548 
L 533.314208 106.450587 
L 535.809612 136.294936 
L 537.473214 153.257805 
L 538.720916 163.732509 
L 539.968618 172.039559 
L 540.800419 176.329566 
L 541.63222 179.619132 
L 542.464022 181.922679 
L 543.295823 183.264479 
L 543.711724 183.584128 
L 544.127624 183.675154 
L 544.543525 183.541918 
L 544.959425 183.188865 
L 545.375326 182.620482 
L 546.207127 180.855678 
L 547.038929 178.283166 
L 547.87073 174.938126 
L 548.702531 170.85554 
L 549.950233 163.42694 
L 551.197935 154.547771 
L 552.861537 140.712843 
L 554.94104 120.859907 
L 561.17955 58.322089 
L 562.427252 48.703468 
L 563.259053 43.471097 
L 564.090854 39.355625 
L 564.922655 36.487652 
L 565.338556 35.556226 
L 565.754457 34.974951 
L 566.170357 34.752682 
L 566.586258 34.896083 
L 567.002158 35.409472 
L 567.418059 36.294685 
L 567.83396 37.550973 
L 568.665761 41.160424 
L 569.497562 46.178049 
L 570.329363 52.501416 
L 571.577065 64.113689 
L 573.240668 82.56697 
L 578.231475 141.414764 
L 579.479177 153.423168 
L 580.726879 163.459913 
L 581.974581 171.331167 
L 582.806382 175.334621 
L 583.638183 178.341495 
L 584.469984 180.366166 
L 584.885885 181.017382 
L 585.301786 181.432594 
L 585.717686 181.615756 
L 586.133587 181.571048 
L 586.549488 181.302813 
L 586.965388 180.815497 
L 587.797189 179.201714 
L 588.628991 176.766102 
L 589.460792 173.545175 
L 590.292593 169.575629 
L 591.540295 162.299987 
L 592.787997 153.559485 
L 594.451599 139.896528 
L 596.531102 120.248939 
L 602.769612 58.21037 
L 604.017314 48.633562 
L 604.849115 43.411035 
L 605.680916 39.289641 
L 606.512717 36.399451 
L 606.928618 35.450823 
L 607.344519 34.848386 
L 607.760419 34.601132 
L 608.17632 34.715914 
L 608.59222 35.197285 
L 609.008121 36.047366 
L 609.424022 37.265738 
L 610.255823 40.79253 
L 611.087624 45.721277 
L 611.919425 51.953345 
L 613.167127 63.432791 
L 614.83073 81.73608 
L 620.237438 144.689192 
L 621.48514 156.124516 
L 622.732842 165.523605 
L 623.564643 170.575103 
L 624.396444 174.630171 
L 625.228245 177.688103 
L 626.060047 179.761942 
L 626.475947 180.436718 
L 626.891848 180.874684 
L 627.307748 181.079728 
L 627.723649 181.055982 
L 628.13955 180.80776 
L 628.55545 180.339496 
L 629.387252 178.76095 
L 630.219053 176.356903 
L 631.050854 173.164172 
L 631.882655 169.219856 
L 633.130357 161.977498 
L 634.378059 153.266184 
L 636.041661 139.638126 
L 637.705264 124.133635 
L 640.616568 94.387934 
L 643.111972 69.271441 
L 644.775575 54.689577 
L 646.023276 45.776188 
L 646.855078 41.086092 
L 647.686879 37.561293 
L 648.51868 35.321587 
L 648.934581 34.71436 
L 649.350481 34.461575 
L 649.766382 34.570127 
L 650.182283 35.044624 
L 650.598183 35.887255 
L 651.014084 37.097676 
L 651.845885 40.607402 
L 652.677686 45.51818 
L 653.509488 51.732211 
L 654.757189 63.186362 
L 656.420792 81.46334 
L 661.8275 144.422254 
L 663.075202 155.87546 
L 664.322904 165.294979 
L 665.154705 170.360559 
L 665.986506 174.429499 
L 666.818307 177.500686 
L 667.650109 179.586853 
L 668.066009 180.267373 
L 668.48191 180.710774 
L 668.897811 180.920931 
L 669.313711 180.901968 
L 669.729612 180.658192 
L 670.145512 180.194036 
L 670.977314 178.622708 
L 671.809115 176.224596 
L 672.640916 173.03661 
L 673.472717 169.095965 
L 674.720419 161.857384 
L 675.968121 153.148176 
L 677.631724 139.521051 
L 679.295326 124.0161 
L 682.20663 94.267803 
L 684.702034 69.147899 
L 686.365637 54.563067 
L 687.613339 45.647016 
L 688.44514 40.954941 
L 689.276941 37.428026 
L 690.108742 35.186111 
L 690.524643 34.577766 
L 690.940543 34.323867 
L 691.356444 34.431322 
L 691.772345 34.904753 
L 692.188245 35.746362 
L 692.604146 36.955821 
L 693.435947 40.463875 
L 694.267748 45.373425 
L 695.09955 51.586814 
L 696.347252 63.041366 
L 698.010854 81.321882 
L 703.417562 144.313834 
L 704.665264 155.776763 
L 705.912966 165.205534 
L 706.744767 170.27676 
L 707.576568 174.350783 
L 708.40837 177.426396 
L 709.240171 179.516264 
L 709.656071 180.19835 
L 710.071972 180.643124 
L 710.487873 180.854458 
L 710.903773 180.836476 
L 711.319674 180.593486 
L 711.735575 180.129925 
L 712.567376 178.559221 
L 713.399177 176.161008 
L 714.230978 172.972237 
L 715.06278 169.030171 
L 716.310481 161.788378 
L 717.558183 153.074828 
L 719.221786 139.44048 
L 720.885388 123.92709 
L 723.796693 94.162531 
L 726.292096 69.028978 
L 727.955699 54.436218 
L 729.203401 45.515275 
L 730.035202 40.820584 
L 730.867003 37.291655 
L 731.698804 35.048395 
L 732.114705 34.439646 
L 732.530606 34.185531 
L 732.946506 34.292962 
L 733.362407 34.766568 
L 733.778307 35.608552 
L 734.194208 36.818589 
L 735.026009 40.328412 
L 735.857811 45.240543 
L 736.689612 51.457295 
L 737.937314 62.91825 
L 739.600916 81.209415 
L 742.9875 122.167825 
L 742.9875 122.167825 
" style="fill:none;stroke:#008000;stroke-dasharray:7.4,3.2;stroke-dashoffset:0;stroke-width:2;"/>
   </g>
   <g id="patch_10">
    <path d="M 437.657065 230.64 
L 437.657065 13.2 
" style="fill:none;stroke:#000000;stroke-linecap:square;stroke-linejoin:miter;stroke-width:2;"/>
   </g>
   <g id="patch_11">
    <path d="M 728.7875 230.64 
L 728.7875 13.2 
" style="fill:none;"/>
   </g>
   <g id="patch_12">
    <path d="M 437.657065 230.64 
L 728.7875 230.64 
" style="fill:none;stroke:#000000;stroke-linecap:square;stroke-linejoin:miter;stroke-width:2;"/>
   </g>
   <g id="patch_13">
    <path d="M 437.657065 13.2 
L 728.7875 13.2 
" style="fill:none;"/>
   </g>
  </g>
 </g>
 <defs>
  <clipPath id="p6e75be5cb9">
   <rect height="217.44" width="291.130435" x="59.1875" y="13.2"/>
  </clipPath>
  <clipPath id="pba1599f33f">
   <rect height="217.44" width="291.130435" x="437.657065" y="13.2"/>
  </clipPath>
 </defs>
</svg>
