<?xml version="1.0" encoding="utf-8" standalone="no"?>
<!DOCTYPE svg PUBLIC "-//W3C//DTD SVG 1.1//EN"
  "http://www.w3.org/Graphics/SVG/1.1/DTD/svg11.dtd">
<!-- Created with matplotlib (http://matplotlib.org/) -->
<svg height="285.213437pt" version="1.1" viewBox="0 0 732.44375 285.213437" width="732.44375pt" xmlns="http://www.w3.org/2000/svg" xmlns:xlink="http://www.w3.org/1999/xlink">
 <defs>
  <style type="text/css">
*{stroke-linecap:butt;stroke-linejoin:round;}
  </style>
 </defs>
 <g id="figure_1">
  <g id="patch_1">
   <path d="M 0 285.213437 
L 732.44375 285.213437 
L 732.44375 0 
L 0 0 
z
" style="fill:#ffffff;"/>
  </g>
  <g id="axes_1">
   <g id="patch_2">
    <path d="M 49.64375 230.64 
L 340.774185 230.64 
L 340.774185 13.2 
L 49.64375 13.2 
z
" style="fill:#ffffff;"/>
   </g>
   <g id="PolyCollection_1">
    <path clip-path="url(#p52e9e75a3a)" d="M 57.961762 186.775794 
L 57.961762 186.775794 
L 57.961762 186.775794 
L 57.961762 186.775794 
z
" style="fill:#4db8ff;"/>
    <path clip-path="url(#p52e9e75a3a)" d="M 66.279775 171.943737 
L 66.279775 172.062637 
L 70.438781 164.445641 
L 74.597787 157.829986 
L 78.756793 153.083696 
L 82.9158 152.587814 
L 87.074806 155.178772 
L 91.233812 161.118116 
L 95.392818 167.132122 
L 99.551825 170.791365 
L 103.710831 171.728081 
L 107.869837 169.284362 
L 112.028843 164.395097 
L 116.187849 159.298507 
L 120.346856 155.414515 
L 124.505862 154.190509 
L 128.664868 156.012331 
L 132.823874 160.389536 
L 136.98288 165.005011 
L 141.141887 168.205079 
L 145.300893 169.727038 
L 149.459899 167.950671 
L 153.618905 163.831648 
L 157.777911 159.435152 
L 161.936918 155.79783 
L 166.095924 155.183975 
L 170.25493 156.341852 
L 174.413936 160.329311 
L 178.572943 164.894394 
L 182.731949 167.675935 
L 186.890955 169.125324 
L 191.049961 168.122374 
L 195.208967 163.935064 
L 199.367974 159.226866 
L 203.52698 156.19611 
L 207.685986 154.543723 
L 211.844992 156.635851 
L 216.003998 160.285652 
L 220.163005 165.180551 
L 224.322011 168.26478 
L 228.481017 169.307336 
L 232.640023 167.405215 
L 236.79903 163.610101 
L 240.958036 159.37289 
L 245.117042 156.220121 
L 249.276048 154.781192 
L 253.435054 156.17067 
L 257.594061 159.863703 
L 261.753067 164.58176 
L 265.912073 167.373137 
L 270.071079 169.126743 
L 274.230085 167.474034 
L 278.389092 163.604355 
L 282.548098 159.448891 
L 286.707104 156.588668 
L 290.86611 155.364506 
L 295.025116 157.346163 
L 299.184123 160.783686 
L 303.343129 164.932099 
L 307.502135 168.433572 
L 311.661141 169.380352 
L 315.820148 167.768381 
L 319.979154 164.071916 
L 324.13816 159.548372 
L 328.297166 155.778538 
L 332.456172 154.737941 
L 336.615179 157.049822 
L 340.774185 160.069286 
L 344.933191 165.134884 
L 349.092197 168.636207 
L 353.251203 169.243935 
L 357.41021 167.349547 
L 361.569216 164.344442 
L 365.728222 159.61675 
L 369.887228 156.173462 
L 374.046234 155.306981 
L 378.205241 156.390856 
L 382.364247 160.042943 
L 386.523253 163.732375 
L 390.682259 167.216549 
L 394.841266 168.71187 
L 399.000272 166.768624 
L 403.159278 163.540411 
L 407.318284 159.654208 
L 411.47729 156.034761 
L 415.636297 155.038806 
L 419.795303 156.739579 
L 423.954309 160.451259 
L 428.113315 164.471108 
L 432.272321 168.11145 
L 436.431328 169.251001 
L 440.590334 167.582966 
L 444.74934 164.116875 
L 448.908346 159.608922 
L 453.067352 156.455173 
L 457.226359 155.699789 
L 461.385365 157.07673 
L 465.544371 160.997524 
L 465.544371 158.595723 
L 465.544371 158.595723 
L 461.385365 154.878574 
L 457.226359 153.83061 
L 453.067352 154.976345 
L 448.908346 158.369772 
L 444.74934 162.892843 
L 440.590334 166.09843 
L 436.431328 167.375303 
L 432.272321 165.890641 
L 428.113315 162.050866 
L 423.954309 158.046429 
L 419.795303 154.550528 
L 415.636297 153.189718 
L 411.47729 154.577546 
L 407.318284 158.456262 
L 403.159278 162.338112 
L 399.000272 165.237812 
L 394.841266 166.822631 
L 390.682259 164.967869 
L 386.523253 161.298662 
L 382.364247 157.637366 
L 378.205241 154.201605 
L 374.046234 153.46651 
L 369.887228 154.721329 
L 365.728222 158.441003 
L 361.569216 163.181691 
L 357.41021 165.87295 
L 353.251203 167.382369 
L 349.092197 166.44451 
L 344.933191 162.728934 
L 340.774185 157.663073 
L 336.615179 154.856808 
L 332.456172 152.915332 
L 328.297166 154.353539 
L 324.13816 158.377597 
L 319.979154 162.913211 
L 315.820148 166.303072 
L 311.661141 167.524255 
L 307.502135 166.227678 
L 303.343129 162.521712 
L 299.184123 158.374407 
L 295.025116 155.128319 
L 290.86611 153.499818 
L 286.707104 155.097089 
L 282.548098 158.239876 
L 278.389092 162.397123 
L 274.230085 166.000855 
L 270.071079 167.264074 
L 265.912073 165.130873 
L 261.753067 162.163855 
L 257.594061 157.451033 
L 253.435054 153.983735 
L 249.276048 152.962909 
L 245.117042 154.759417 
L 240.958036 158.131386 
L 236.79903 162.391378 
L 232.640023 165.909067 
L 228.481017 167.447415 
L 224.322011 166.056906 
L 220.163005 162.77645 
L 216.003998 157.880927 
L 211.844992 154.44334 
L 207.685986 152.715962 
L 203.52698 154.755176 
L 199.367974 158.066543 
L 195.208967 162.828742 
L 191.049961 166.752122 
L 186.890955 167.265493 
L 182.731949 165.447284 
L 178.572943 162.484868 
L 174.413936 157.924019 
L 170.25493 154.153264 
L 166.095924 153.347307 
L 161.936918 154.390741 
L 157.777911 158.306314 
L 153.618905 162.686246 
L 149.459899 166.533775 
L 145.300893 167.905437 
L 141.141887 165.996762 
L 136.98288 162.597892 
L 132.823874 157.985197 
L 128.664868 153.833812 
L 124.505862 152.403094 
L 120.346856 154.067832 
L 116.187849 158.258449 
L 112.028843 163.40154 
L 107.869837 168.09108 
L 103.710831 170.078935 
L 99.551825 168.703716 
L 95.392818 164.775861 
L 91.233812 158.716881 
L 87.074806 153.012492 
L 82.9158 150.857066 
L 78.756793 151.907113 
L 74.597787 157.117628 
L 70.438781 164.113323 
L 66.279775 171.943737 
z
" style="fill:#4db8ff;"/>
   </g>
   <g id="matplotlib.axis_1">
    <g id="xtick_1">
     <g id="line2d_1">
      <path clip-path="url(#p52e9e75a3a)" d="M 49.64375 230.64 
L 49.64375 13.2 
" style="fill:none;stroke:#b0b0b0;stroke-linecap:square;stroke-width:0.8;"/>
     </g>
     <g id="line2d_2">
      <defs>
       <path d="M 0 0 
L 0 6 
" id="mf21ea4f5d2"/>
      </defs>
      <g>
       <use x="49.64375" xlink:href="#mf21ea4f5d2" y="230.64"/>
      </g>
     </g>
     <g id="text_1">
      <!-- 0 -->
      <defs>
       <path d="M 31.78125 66.40625 
Q 24.171875 66.40625 20.328125 58.90625 
Q 16.5 51.421875 16.5 36.375 
Q 16.5 21.390625 20.328125 13.890625 
Q 24.171875 6.390625 31.78125 6.390625 
Q 39.453125 6.390625 43.28125 13.890625 
Q 47.125 21.390625 47.125 36.375 
Q 47.125 51.421875 43.28125 58.90625 
Q 39.453125 66.40625 31.78125 66.40625 
z
M 31.78125 74.21875 
Q 44.046875 74.21875 50.515625 64.515625 
Q 56.984375 54.828125 56.984375 36.375 
Q 56.984375 17.96875 50.515625 8.265625 
Q 44.046875 -1.421875 31.78125 -1.421875 
Q 19.53125 -1.421875 13.0625 8.265625 
Q 6.59375 17.96875 6.59375 36.375 
Q 6.59375 54.828125 13.0625 64.515625 
Q 19.53125 74.21875 31.78125 74.21875 
z
" id="DejaVuSans-30"/>
      </defs>
      <g transform="translate(44.871875 251.537656)scale(0.15 -0.15)">
       <use xlink:href="#DejaVuSans-30"/>
      </g>
     </g>
    </g>
    <g id="xtick_2">
     <g id="line2d_3">
      <path clip-path="url(#p52e9e75a3a)" d="M 91.233812 230.64 
L 91.233812 13.2 
" style="fill:none;stroke:#b0b0b0;stroke-linecap:square;stroke-width:0.8;"/>
     </g>
     <g id="line2d_4">
      <g>
       <use x="91.233812" xlink:href="#mf21ea4f5d2" y="230.64"/>
      </g>
     </g>
     <g id="text_2">
      <!-- 1 -->
      <defs>
       <path d="M 12.40625 8.296875 
L 28.515625 8.296875 
L 28.515625 63.921875 
L 10.984375 60.40625 
L 10.984375 69.390625 
L 28.421875 72.90625 
L 38.28125 72.90625 
L 38.28125 8.296875 
L 54.390625 8.296875 
L 54.390625 0 
L 12.40625 0 
z
" id="DejaVuSans-31"/>
      </defs>
      <g transform="translate(86.461937 251.537656)scale(0.15 -0.15)">
       <use xlink:href="#DejaVuSans-31"/>
      </g>
     </g>
    </g>
    <g id="xtick_3">
     <g id="line2d_5">
      <path clip-path="url(#p52e9e75a3a)" d="M 132.823874 230.64 
L 132.823874 13.2 
" style="fill:none;stroke:#b0b0b0;stroke-linecap:square;stroke-width:0.8;"/>
     </g>
     <g id="line2d_6">
      <g>
       <use x="132.823874" xlink:href="#mf21ea4f5d2" y="230.64"/>
      </g>
     </g>
     <g id="text_3">
      <!-- 2 -->
      <defs>
       <path d="M 19.1875 8.296875 
L 53.609375 8.296875 
L 53.609375 0 
L 7.328125 0 
L 7.328125 8.296875 
Q 12.9375 14.109375 22.625 23.890625 
Q 32.328125 33.6875 34.8125 36.53125 
Q 39.546875 41.84375 41.421875 45.53125 
Q 43.3125 49.21875 43.3125 52.78125 
Q 43.3125 58.59375 39.234375 62.25 
Q 35.15625 65.921875 28.609375 65.921875 
Q 23.96875 65.921875 18.8125 64.3125 
Q 13.671875 62.703125 7.8125 59.421875 
L 7.8125 69.390625 
Q 13.765625 71.78125 18.9375 73 
Q 24.125 74.21875 28.421875 74.21875 
Q 39.75 74.21875 46.484375 68.546875 
Q 53.21875 62.890625 53.21875 53.421875 
Q 53.21875 48.921875 51.53125 44.890625 
Q 49.859375 40.875 45.40625 35.40625 
Q 44.1875 33.984375 37.640625 27.21875 
Q 31.109375 20.453125 19.1875 8.296875 
z
" id="DejaVuSans-32"/>
      </defs>
      <g transform="translate(128.051999 251.537656)scale(0.15 -0.15)">
       <use xlink:href="#DejaVuSans-32"/>
      </g>
     </g>
    </g>
    <g id="xtick_4">
     <g id="line2d_7">
      <path clip-path="url(#p52e9e75a3a)" d="M 174.413936 230.64 
L 174.413936 13.2 
" style="fill:none;stroke:#b0b0b0;stroke-linecap:square;stroke-width:0.8;"/>
     </g>
     <g id="line2d_8">
      <g>
       <use x="174.413936" xlink:href="#mf21ea4f5d2" y="230.64"/>
      </g>
     </g>
     <g id="text_4">
      <!-- 3 -->
      <defs>
       <path d="M 40.578125 39.3125 
Q 47.65625 37.796875 51.625 33 
Q 55.609375 28.21875 55.609375 21.1875 
Q 55.609375 10.40625 48.1875 4.484375 
Q 40.765625 -1.421875 27.09375 -1.421875 
Q 22.515625 -1.421875 17.65625 -0.515625 
Q 12.796875 0.390625 7.625 2.203125 
L 7.625 11.71875 
Q 11.71875 9.328125 16.59375 8.109375 
Q 21.484375 6.890625 26.8125 6.890625 
Q 36.078125 6.890625 40.9375 10.546875 
Q 45.796875 14.203125 45.796875 21.1875 
Q 45.796875 27.640625 41.28125 31.265625 
Q 36.765625 34.90625 28.71875 34.90625 
L 20.21875 34.90625 
L 20.21875 43.015625 
L 29.109375 43.015625 
Q 36.375 43.015625 40.234375 45.921875 
Q 44.09375 48.828125 44.09375 54.296875 
Q 44.09375 59.90625 40.109375 62.90625 
Q 36.140625 65.921875 28.71875 65.921875 
Q 24.65625 65.921875 20.015625 65.03125 
Q 15.375 64.15625 9.8125 62.3125 
L 9.8125 71.09375 
Q 15.4375 72.65625 20.34375 73.4375 
Q 25.25 74.21875 29.59375 74.21875 
Q 40.828125 74.21875 47.359375 69.109375 
Q 53.90625 64.015625 53.90625 55.328125 
Q 53.90625 49.265625 50.4375 45.09375 
Q 46.96875 40.921875 40.578125 39.3125 
z
" id="DejaVuSans-33"/>
      </defs>
      <g transform="translate(169.642061 251.537656)scale(0.15 -0.15)">
       <use xlink:href="#DejaVuSans-33"/>
      </g>
     </g>
    </g>
    <g id="xtick_5">
     <g id="line2d_9">
      <path clip-path="url(#p52e9e75a3a)" d="M 216.003998 230.64 
L 216.003998 13.2 
" style="fill:none;stroke:#b0b0b0;stroke-linecap:square;stroke-width:0.8;"/>
     </g>
     <g id="line2d_10">
      <g>
       <use x="216.003998" xlink:href="#mf21ea4f5d2" y="230.64"/>
      </g>
     </g>
     <g id="text_5">
      <!-- 4 -->
      <defs>
       <path d="M 37.796875 64.3125 
L 12.890625 25.390625 
L 37.796875 25.390625 
z
M 35.203125 72.90625 
L 47.609375 72.90625 
L 47.609375 25.390625 
L 58.015625 25.390625 
L 58.015625 17.1875 
L 47.609375 17.1875 
L 47.609375 0 
L 37.796875 0 
L 37.796875 17.1875 
L 4.890625 17.1875 
L 4.890625 26.703125 
z
" id="DejaVuSans-34"/>
      </defs>
      <g transform="translate(211.232123 251.537656)scale(0.15 -0.15)">
       <use xlink:href="#DejaVuSans-34"/>
      </g>
     </g>
    </g>
    <g id="xtick_6">
     <g id="line2d_11">
      <path clip-path="url(#p52e9e75a3a)" d="M 257.594061 230.64 
L 257.594061 13.2 
" style="fill:none;stroke:#b0b0b0;stroke-linecap:square;stroke-width:0.8;"/>
     </g>
     <g id="line2d_12">
      <g>
       <use x="257.594061" xlink:href="#mf21ea4f5d2" y="230.64"/>
      </g>
     </g>
     <g id="text_6">
      <!-- 5 -->
      <defs>
       <path d="M 10.796875 72.90625 
L 49.515625 72.90625 
L 49.515625 64.59375 
L 19.828125 64.59375 
L 19.828125 46.734375 
Q 21.96875 47.46875 24.109375 47.828125 
Q 26.265625 48.1875 28.421875 48.1875 
Q 40.625 48.1875 47.75 41.5 
Q 54.890625 34.8125 54.890625 23.390625 
Q 54.890625 11.625 47.5625 5.09375 
Q 40.234375 -1.421875 26.90625 -1.421875 
Q 22.3125 -1.421875 17.546875 -0.640625 
Q 12.796875 0.140625 7.71875 1.703125 
L 7.71875 11.625 
Q 12.109375 9.234375 16.796875 8.0625 
Q 21.484375 6.890625 26.703125 6.890625 
Q 35.15625 6.890625 40.078125 11.328125 
Q 45.015625 15.765625 45.015625 23.390625 
Q 45.015625 31 40.078125 35.4375 
Q 35.15625 39.890625 26.703125 39.890625 
Q 22.75 39.890625 18.8125 39.015625 
Q 14.890625 38.140625 10.796875 36.28125 
z
" id="DejaVuSans-35"/>
      </defs>
      <g transform="translate(252.822186 251.537656)scale(0.15 -0.15)">
       <use xlink:href="#DejaVuSans-35"/>
      </g>
     </g>
    </g>
    <g id="xtick_7">
     <g id="line2d_13">
      <path clip-path="url(#p52e9e75a3a)" d="M 299.184123 230.64 
L 299.184123 13.2 
" style="fill:none;stroke:#b0b0b0;stroke-linecap:square;stroke-width:0.8;"/>
     </g>
     <g id="line2d_14">
      <g>
       <use x="299.184123" xlink:href="#mf21ea4f5d2" y="230.64"/>
      </g>
     </g>
     <g id="text_7">
      <!-- 6 -->
      <defs>
       <path d="M 33.015625 40.375 
Q 26.375 40.375 22.484375 35.828125 
Q 18.609375 31.296875 18.609375 23.390625 
Q 18.609375 15.53125 22.484375 10.953125 
Q 26.375 6.390625 33.015625 6.390625 
Q 39.65625 6.390625 43.53125 10.953125 
Q 47.40625 15.53125 47.40625 23.390625 
Q 47.40625 31.296875 43.53125 35.828125 
Q 39.65625 40.375 33.015625 40.375 
z
M 52.59375 71.296875 
L 52.59375 62.3125 
Q 48.875 64.0625 45.09375 64.984375 
Q 41.3125 65.921875 37.59375 65.921875 
Q 27.828125 65.921875 22.671875 59.328125 
Q 17.53125 52.734375 16.796875 39.40625 
Q 19.671875 43.65625 24.015625 45.921875 
Q 28.375 48.1875 33.59375 48.1875 
Q 44.578125 48.1875 50.953125 41.515625 
Q 57.328125 34.859375 57.328125 23.390625 
Q 57.328125 12.15625 50.6875 5.359375 
Q 44.046875 -1.421875 33.015625 -1.421875 
Q 20.359375 -1.421875 13.671875 8.265625 
Q 6.984375 17.96875 6.984375 36.375 
Q 6.984375 53.65625 15.1875 63.9375 
Q 23.390625 74.21875 37.203125 74.21875 
Q 40.921875 74.21875 44.703125 73.484375 
Q 48.484375 72.75 52.59375 71.296875 
z
" id="DejaVuSans-36"/>
      </defs>
      <g transform="translate(294.412248 251.537656)scale(0.15 -0.15)">
       <use xlink:href="#DejaVuSans-36"/>
      </g>
     </g>
    </g>
    <g id="xtick_8">
     <g id="line2d_15">
      <path clip-path="url(#p52e9e75a3a)" d="M 340.774185 230.64 
L 340.774185 13.2 
" style="fill:none;stroke:#b0b0b0;stroke-linecap:square;stroke-width:0.8;"/>
     </g>
     <g id="line2d_16">
      <g>
       <use x="340.774185" xlink:href="#mf21ea4f5d2" y="230.64"/>
      </g>
     </g>
     <g id="text_8">
      <!-- 7 -->
      <defs>
       <path d="M 8.203125 72.90625 
L 55.078125 72.90625 
L 55.078125 68.703125 
L 28.609375 0 
L 18.3125 0 
L 43.21875 64.59375 
L 8.203125 64.59375 
z
" id="DejaVuSans-37"/>
      </defs>
      <g transform="translate(336.00231 251.537656)scale(0.15 -0.15)">
       <use xlink:href="#DejaVuSans-37"/>
      </g>
     </g>
    </g>
    <g id="text_9">
     <!-- $t/\tau$ -->
     <defs>
      <path d="M 42.28125 54.6875 
L 40.921875 47.703125 
L 23 47.703125 
L 17.1875 18.015625 
Q 16.890625 16.359375 16.75 15.234375 
Q 16.609375 14.109375 16.609375 13.484375 
Q 16.609375 10.359375 18.484375 8.9375 
Q 20.359375 7.515625 24.515625 7.515625 
L 33.59375 7.515625 
L 32.078125 0 
L 23.484375 0 
Q 15.484375 0 11.546875 3.125 
Q 7.625 6.25 7.625 12.59375 
Q 7.625 13.71875 7.765625 15.0625 
Q 7.90625 16.40625 8.203125 18.015625 
L 14.015625 47.703125 
L 6.390625 47.703125 
L 7.8125 54.6875 
L 15.28125 54.6875 
L 18.3125 70.21875 
L 27.296875 70.21875 
L 24.3125 54.6875 
z
" id="DejaVuSans-Oblique-74"/>
      <path d="M 25.390625 72.90625 
L 33.6875 72.90625 
L 8.296875 -9.28125 
L 0 -9.28125 
z
" id="DejaVuSans-2f"/>
      <path d="M 32.859375 9.96875 
Q 34.1875 7.625 39.453125 7.625 
L 43.75 7.625 
L 42.28125 0 
L 36.921875 0 
Q 28.125 0 25 4.6875 
Q 21.921875 9.46875 23.96875 19.828125 
L 29 45.703125 
L 8.453125 45.703125 
L 10.203125 54.6875 
L 60.640625 54.6875 
L 58.890625 45.703125 
L 38.1875 45.703125 
L 33.015625 19.28125 
Q 31.640625 12.203125 32.859375 9.96875 
z
" id="DejaVuSans-Oblique-3c4"/>
     </defs>
     <g transform="translate(181.808967 273.854062)scale(0.2 -0.2)">
      <use transform="translate(0 0.09375)" xlink:href="#DejaVuSans-Oblique-74"/>
      <use transform="translate(39.208984 0.09375)" xlink:href="#DejaVuSans-2f"/>
      <use transform="translate(72.900391 0.09375)" xlink:href="#DejaVuSans-Oblique-3c4"/>
     </g>
    </g>
   </g>
   <g id="matplotlib.axis_2">
    <g id="ytick_1">
     <g id="line2d_17">
      <path clip-path="url(#p52e9e75a3a)" d="M 49.64375 228.682748 
L 340.774185 228.682748 
" style="fill:none;stroke:#b0b0b0;stroke-linecap:square;stroke-width:0.8;"/>
     </g>
     <g id="line2d_18">
      <defs>
       <path d="M 0 0 
L -6 0 
" id="md29b0940ec"/>
      </defs>
      <g>
       <use x="49.64375" xlink:href="#md29b0940ec" y="228.682748"/>
      </g>
     </g>
     <g id="text_10">
      <!-- 2 -->
      <g transform="translate(30.6 234.381576)scale(0.15 -0.15)">
       <use xlink:href="#DejaVuSans-32"/>
      </g>
     </g>
    </g>
    <g id="ytick_2">
     <g id="line2d_19">
      <path clip-path="url(#p52e9e75a3a)" d="M 49.64375 170.720156 
L 340.774185 170.720156 
" style="fill:none;stroke:#b0b0b0;stroke-linecap:square;stroke-width:0.8;"/>
     </g>
     <g id="line2d_20">
      <g>
       <use x="49.64375" xlink:href="#md29b0940ec" y="170.720156"/>
      </g>
     </g>
     <g id="text_11">
      <!-- 4 -->
      <g transform="translate(30.6 176.418984)scale(0.15 -0.15)">
       <use xlink:href="#DejaVuSans-34"/>
      </g>
     </g>
    </g>
    <g id="ytick_3">
     <g id="line2d_21">
      <path clip-path="url(#p52e9e75a3a)" d="M 49.64375 112.757563 
L 340.774185 112.757563 
" style="fill:none;stroke:#b0b0b0;stroke-linecap:square;stroke-width:0.8;"/>
     </g>
     <g id="line2d_22">
      <g>
       <use x="49.64375" xlink:href="#md29b0940ec" y="112.757563"/>
      </g>
     </g>
     <g id="text_12">
      <!-- 6 -->
      <g transform="translate(30.6 118.456391)scale(0.15 -0.15)">
       <use xlink:href="#DejaVuSans-36"/>
      </g>
     </g>
    </g>
    <g id="ytick_4">
     <g id="line2d_23">
      <path clip-path="url(#p52e9e75a3a)" d="M 49.64375 54.794971 
L 340.774185 54.794971 
" style="fill:none;stroke:#b0b0b0;stroke-linecap:square;stroke-width:0.8;"/>
     </g>
     <g id="line2d_24">
      <g>
       <use x="49.64375" xlink:href="#md29b0940ec" y="54.794971"/>
      </g>
     </g>
     <g id="text_13">
      <!-- 8 -->
      <defs>
       <path d="M 31.78125 34.625 
Q 24.75 34.625 20.71875 30.859375 
Q 16.703125 27.09375 16.703125 20.515625 
Q 16.703125 13.921875 20.71875 10.15625 
Q 24.75 6.390625 31.78125 6.390625 
Q 38.8125 6.390625 42.859375 10.171875 
Q 46.921875 13.96875 46.921875 20.515625 
Q 46.921875 27.09375 42.890625 30.859375 
Q 38.875 34.625 31.78125 34.625 
z
M 21.921875 38.8125 
Q 15.578125 40.375 12.03125 44.71875 
Q 8.5 49.078125 8.5 55.328125 
Q 8.5 64.0625 14.71875 69.140625 
Q 20.953125 74.21875 31.78125 74.21875 
Q 42.671875 74.21875 48.875 69.140625 
Q 55.078125 64.0625 55.078125 55.328125 
Q 55.078125 49.078125 51.53125 44.71875 
Q 48 40.375 41.703125 38.8125 
Q 48.828125 37.15625 52.796875 32.3125 
Q 56.78125 27.484375 56.78125 20.515625 
Q 56.78125 9.90625 50.3125 4.234375 
Q 43.84375 -1.421875 31.78125 -1.421875 
Q 19.734375 -1.421875 13.25 4.234375 
Q 6.78125 9.90625 6.78125 20.515625 
Q 6.78125 27.484375 10.78125 32.3125 
Q 14.796875 37.15625 21.921875 38.8125 
z
M 18.3125 54.390625 
Q 18.3125 48.734375 21.84375 45.5625 
Q 25.390625 42.390625 31.78125 42.390625 
Q 38.140625 42.390625 41.71875 45.5625 
Q 45.3125 48.734375 45.3125 54.390625 
Q 45.3125 60.0625 41.71875 63.234375 
Q 38.140625 66.40625 31.78125 66.40625 
Q 25.390625 66.40625 21.84375 63.234375 
Q 18.3125 60.0625 18.3125 54.390625 
z
" id="DejaVuSans-38"/>
      </defs>
      <g transform="translate(30.6 60.493799)scale(0.15 -0.15)">
       <use xlink:href="#DejaVuSans-38"/>
      </g>
     </g>
    </g>
    <g id="text_14">
     <!-- $s$ $(\mu m)$ -->
     <defs>
      <path d="M 50 53.078125 
L 48.296875 44.578125 
Q 44.734375 46.53125 40.765625 47.5 
Q 36.8125 48.484375 32.625 48.484375 
Q 25.53125 48.484375 21.453125 46.0625 
Q 17.390625 43.65625 17.390625 39.5 
Q 17.390625 34.671875 26.859375 32.078125 
Q 27.59375 31.890625 27.9375 31.78125 
L 30.8125 30.90625 
Q 39.796875 28.421875 42.796875 25.6875 
Q 45.796875 22.953125 45.796875 18.21875 
Q 45.796875 9.515625 38.890625 4.046875 
Q 31.984375 -1.421875 20.796875 -1.421875 
Q 16.453125 -1.421875 11.671875 -0.578125 
Q 6.890625 0.25 1.125 2 
L 2.875 11.28125 
Q 7.8125 8.734375 12.59375 7.421875 
Q 17.390625 6.109375 21.78125 6.109375 
Q 28.375 6.109375 32.5 8.9375 
Q 36.625 11.765625 36.625 16.109375 
Q 36.625 20.796875 25.78125 23.6875 
L 24.859375 23.921875 
L 21.78125 24.703125 
Q 14.9375 26.515625 11.765625 29.46875 
Q 8.59375 32.421875 8.59375 37.015625 
Q 8.59375 45.75 15.15625 50.875 
Q 21.734375 56 33.015625 56 
Q 37.453125 56 41.671875 55.265625 
Q 45.90625 54.546875 50 53.078125 
z
" id="DejaVuSans-Oblique-73"/>
      <path id="DejaVuSans-20"/>
      <path d="M 31 75.875 
Q 24.46875 64.65625 21.28125 53.65625 
Q 18.109375 42.671875 18.109375 31.390625 
Q 18.109375 20.125 21.3125 9.0625 
Q 24.515625 -2 31 -13.1875 
L 23.1875 -13.1875 
Q 15.875 -1.703125 12.234375 9.375 
Q 8.59375 20.453125 8.59375 31.390625 
Q 8.59375 42.28125 12.203125 53.3125 
Q 15.828125 64.359375 23.1875 75.875 
z
" id="DejaVuSans-28"/>
      <path d="M -1.3125 -20.796875 
L 13.375 54.6875 
L 22.40625 54.6875 
L 15.765625 20.65625 
Q 15.578125 19.625 15.421875 18.359375 
Q 15.28125 17.09375 15.28125 15.828125 
Q 15.28125 11.28125 18.140625 8.828125 
Q 21 6.390625 26.3125 6.390625 
Q 33.546875 6.390625 37.984375 10.484375 
Q 42.4375 14.59375 44 22.796875 
L 50.203125 54.6875 
L 59.1875 54.6875 
L 51.03125 12.640625 
Q 50.828125 11.71875 50.75 11.03125 
Q 50.6875 10.359375 50.6875 9.8125 
Q 50.6875 8.296875 51.296875 7.59375 
Q 51.90625 6.890625 53.21875 6.890625 
Q 53.71875 6.890625 54.5625 7.125 
Q 55.421875 7.375 56.984375 8.015625 
L 55.609375 0.78125 
Q 53.46875 -0.296875 51.515625 -0.859375 
Q 49.5625 -1.421875 47.703125 -1.421875 
Q 44.484375 -1.421875 42.65625 0.625 
Q 40.828125 2.6875 40.828125 6.296875 
Q 38.09375 2.390625 34.296875 0.484375 
Q 30.515625 -1.421875 25.390625 -1.421875 
Q 20.84375 -1.421875 17.453125 0.671875 
Q 14.0625 2.78125 12.984375 6.203125 
L 7.71875 -20.796875 
z
" id="DejaVuSans-Oblique-3bc"/>
      <path d="M 89.796875 33.015625 
L 83.40625 0 
L 74.421875 0 
L 80.71875 32.71875 
Q 81.109375 34.8125 81.296875 36.328125 
Q 81.5 37.84375 81.5 38.921875 
Q 81.5 43.3125 79.046875 45.75 
Q 76.609375 48.1875 72.21875 48.1875 
Q 65.671875 48.1875 60.546875 43.28125 
Q 55.421875 38.375 53.90625 30.515625 
L 47.90625 0 
L 38.921875 0 
L 45.3125 32.71875 
Q 45.703125 34.515625 45.890625 36.046875 
Q 46.09375 37.59375 46.09375 38.8125 
Q 46.09375 43.265625 43.65625 45.71875 
Q 41.21875 48.1875 36.921875 48.1875 
Q 30.28125 48.1875 25.140625 43.28125 
Q 20.015625 38.375 18.5 30.515625 
L 12.5 0 
L 3.515625 0 
L 14.203125 54.6875 
L 23.1875 54.6875 
L 21.484375 46.1875 
Q 25.140625 50.984375 30.046875 53.484375 
Q 34.96875 56 40.578125 56 
Q 46.53125 56 50.359375 52.875 
Q 54.203125 49.75 54.984375 44.1875 
Q 59.078125 49.953125 64.46875 52.96875 
Q 69.875 56 75.875 56 
Q 82.90625 56 86.734375 51.953125 
Q 90.578125 47.90625 90.578125 40.484375 
Q 90.578125 38.875 90.375 36.9375 
Q 90.1875 35.015625 89.796875 33.015625 
z
" id="DejaVuSans-Oblique-6d"/>
      <path d="M 8.015625 75.875 
L 15.828125 75.875 
Q 23.140625 64.359375 26.78125 53.3125 
Q 30.421875 42.28125 30.421875 31.390625 
Q 30.421875 20.453125 26.78125 9.375 
Q 23.140625 -1.703125 15.828125 -13.1875 
L 8.015625 -13.1875 
Q 14.5 -2 17.703125 9.0625 
Q 20.90625 20.125 20.90625 31.390625 
Q 20.90625 42.671875 17.703125 53.65625 
Q 14.5 64.65625 8.015625 75.875 
z
" id="DejaVuSans-29"/>
     </defs>
     <g transform="translate(22.4 154.22)rotate(-90)scale(0.2 -0.2)">
      <use transform="translate(0 0.125)" xlink:href="#DejaVuSans-Oblique-73"/>
      <use transform="translate(52.099609 0.125)" xlink:href="#DejaVuSans-20"/>
      <use transform="translate(83.886719 0.125)" xlink:href="#DejaVuSans-28"/>
      <use transform="translate(122.900391 0.125)" xlink:href="#DejaVuSans-Oblique-3bc"/>
      <use transform="translate(186.523438 0.125)" xlink:href="#DejaVuSans-Oblique-6d"/>
      <use transform="translate(283.935547 0.125)" xlink:href="#DejaVuSans-29"/>
     </g>
    </g>
   </g>
   <g id="line2d_25">
    <path clip-path="url(#p52e9e75a3a)" d="M 49.64375 199.701452 
L 53.802756 193.461779 
L 57.961762 186.775794 
L 62.120769 179.605821 
L 66.279775 171.922879 
L 70.438781 163.689293 
L 74.597787 154.864489 
L 78.756793 145.404993 
L 82.9158 135.267336 
L 87.074806 124.405146 
L 91.233812 112.760461 
L 95.392818 100.278217 
L 99.551825 86.903349 
L 103.710831 72.566302 
L 107.869837 171.922879 
L 112.028843 163.689293 
L 116.187849 154.864489 
L 120.346856 145.404993 
L 124.505862 135.267336 
L 128.664868 124.405146 
L 132.823874 112.760461 
L 136.98288 100.278217 
L 141.141887 86.903349 
L 145.300893 72.566302 
L 149.459899 57.200418 
L 153.618905 40.733246 
L 157.777911 154.864489 
L 161.936918 145.404993 
L 166.095924 135.267336 
L 170.25493 124.405146 
L 174.413936 112.760461 
L 178.572943 100.278217 
L 182.731949 86.903349 
L 186.890955 72.566302 
L 191.049961 171.922879 
L 195.208967 163.689293 
L 199.367974 154.864489 
L 203.52698 145.404993 
L 207.685986 135.267336 
L 211.844992 124.405146 
L 216.003998 112.760461 
L 220.163005 100.278217 
L 224.322011 86.903349 
L 228.481017 179.605821 
L 232.640023 171.922879 
L 236.79903 163.689293 
L 240.958036 154.864489 
L 245.117042 145.404993 
L 249.276048 135.267336 
L 253.435054 124.405146 
L 257.594061 112.760461 
L 261.753067 100.278217 
L 265.912073 86.903349 
L 270.071079 72.566302 
L 274.230085 57.200418 
L 278.389092 163.689293 
L 282.548098 154.864489 
L 286.707104 145.404993 
L 290.86611 135.267336 
L 295.025116 124.405146 
L 299.184123 112.760461 
L 303.343129 100.278217 
L 307.502135 86.903349 
L 311.661141 179.605821 
L 315.820148 171.922879 
L 319.979154 163.689293 
L 324.13816 154.864489 
L 328.297166 145.404993 
L 332.456172 135.267336 
L 336.615179 124.405146 
L 340.774185 112.760461 
L 344.933191 193.461779 
L 349.092197 186.775794 
L 353.251203 179.605821 
L 357.41021 171.922879 
L 361.569216 163.689293 
L 365.728222 154.864489 
L 369.887228 145.404993 
L 374.046234 210.957787 
L 378.205241 205.526692 
L 382.364247 199.70435 
L 386.523253 193.461779 
L 390.682259 186.775794 
L 394.841266 179.605821 
L 399.000272 171.922879 
L 403.159278 163.689293 
L 407.318284 154.864489 
L 411.47729 145.404993 
L 415.636297 135.267336 
L 419.795303 124.405146 
L 423.954309 112.760461 
L 428.113315 193.461779 
L 432.272321 186.775794 
L 436.431328 179.605821 
L 440.590334 171.922879 
L 444.74934 163.689293 
L 448.908346 154.864489 
L 453.067352 145.404993 
L 457.226359 135.267336 
L 461.385365 124.405146 
L 465.544371 199.70435 
" style="fill:none;stroke:#b9b9b9;stroke-linecap:square;stroke-width:1.5;"/>
   </g>
   <g id="line2d_26">
    <path clip-path="url(#p52e9e75a3a)" d="M 49.64375 199.701452 
L 53.802756 193.461779 
L 57.961762 186.775794 
L 62.120769 179.605821 
L 66.279775 171.922879 
L 70.438781 163.689293 
L 74.597787 154.864489 
L 78.756793 145.404993 
L 82.9158 135.267336 
L 87.074806 124.405146 
L 91.233812 112.760461 
L 95.392818 100.278217 
L 99.551825 186.775794 
L 103.710831 179.605821 
L 107.869837 171.922879 
L 112.028843 163.689293 
L 116.187849 154.864489 
L 120.346856 145.404993 
L 124.505862 135.267336 
L 128.664868 124.405146 
L 132.823874 199.70435 
L 136.98288 193.461779 
L 141.141887 186.775794 
L 145.300893 179.605821 
L 149.459899 171.922879 
L 153.618905 163.689293 
L 157.777911 154.864489 
L 161.936918 216.026616 
L 166.095924 210.957787 
L 170.25493 205.526692 
L 174.413936 199.70435 
L 178.572943 193.461779 
L 182.731949 186.775794 
L 186.890955 179.605821 
L 191.049961 171.922879 
L 195.208967 163.689293 
L 199.367974 154.864489 
L 203.52698 145.404993 
L 207.685986 135.267336 
L 211.844992 205.526692 
L 216.003998 199.70435 
L 220.163005 193.461779 
L 224.322011 186.775794 
L 228.481017 179.605821 
L 232.640023 171.922879 
L 236.79903 163.689293 
L 240.958036 154.864489 
L 245.117042 145.404993 
L 249.276048 135.267336 
L 253.435054 124.405146 
L 257.594061 112.760461 
L 261.753067 100.278217 
L 265.912073 186.775794 
L 270.071079 179.605821 
L 274.230085 171.922879 
L 278.389092 163.689293 
L 282.548098 154.864489 
L 286.707104 145.404993 
L 290.86611 135.267336 
L 295.025116 124.405146 
L 299.184123 112.757563 
L 303.343129 193.461779 
L 307.502135 186.775794 
L 311.661141 179.605821 
L 315.820148 171.922879 
L 319.979154 163.689293 
L 324.13816 154.864489 
L 328.297166 145.404993 
L 332.456172 135.267336 
L 336.615179 124.405146 
L 340.774185 112.760461 
L 344.933191 100.278217 
L 349.092197 86.903349 
L 353.251203 72.566302 
L 357.41021 57.200418 
L 361.569216 163.689293 
L 365.728222 154.864489 
L 369.887228 145.404993 
L 374.046234 135.267336 
L 378.205241 124.405146 
L 382.364247 112.760461 
L 386.523253 100.278217 
L 390.682259 86.903349 
L 394.841266 72.566302 
L 399.000272 171.922879 
L 403.159278 163.689293 
L 407.318284 154.864489 
L 411.47729 145.404993 
L 415.636297 135.267336 
L 419.795303 124.405146 
L 423.954309 112.760461 
L 428.113315 100.278217 
L 432.272321 86.903349 
L 436.431328 72.566302 
L 440.590334 171.922879 
L 444.74934 163.689293 
L 448.908346 154.864489 
L 453.067352 145.404993 
L 457.226359 135.267336 
L 461.385365 124.405146 
L 465.544371 112.760461 
" style="fill:none;stroke:#b9b9b9;stroke-linecap:square;stroke-width:1.5;"/>
   </g>
   <g id="line2d_27">
    <path clip-path="url(#p52e9e75a3a)" d="M 49.64375 199.701452 
L 53.802756 193.461779 
L 57.961762 186.775794 
L 62.120769 179.605821 
L 66.279775 171.922879 
L 70.438781 163.689293 
L 74.597787 154.864489 
L 78.756793 145.404993 
L 82.9158 135.267336 
L 87.074806 124.405146 
L 91.233812 112.757563 
L 95.392818 193.461779 
L 99.551825 186.775794 
L 103.710831 179.605821 
L 107.869837 171.922879 
L 112.028843 163.689293 
L 116.187849 154.864489 
L 120.346856 145.404993 
L 124.505862 135.267336 
L 128.664868 124.405146 
L 132.823874 112.757563 
L 136.98288 100.278217 
L 141.141887 186.775794 
L 145.300893 179.605821 
L 149.459899 171.922879 
L 153.618905 163.689293 
L 157.777911 154.864489 
L 161.936918 145.404993 
L 166.095924 135.267336 
L 170.25493 124.405146 
L 174.413936 112.757563 
L 178.572943 100.278217 
L 182.731949 86.903349 
L 186.890955 179.605821 
L 191.049961 171.922879 
L 195.208967 163.689293 
L 199.367974 154.864489 
L 203.52698 145.404993 
L 207.685986 135.267336 
L 211.844992 124.405146 
L 216.003998 199.701452 
L 220.163005 193.461779 
L 224.322011 186.775794 
L 228.481017 179.605821 
L 232.640023 171.922879 
L 236.79903 163.689293 
L 240.958036 154.864489 
L 245.117042 145.404993 
L 249.276048 135.267336 
L 253.435054 124.405146 
L 257.594061 112.757563 
L 261.753067 100.278217 
L 265.912073 186.775794 
L 270.071079 179.605821 
L 274.230085 171.922879 
L 278.389092 163.689293 
L 282.548098 154.864489 
L 286.707104 145.404993 
L 290.86611 135.267336 
L 295.025116 124.405146 
L 299.184123 112.757563 
L 303.343129 100.278217 
L 307.502135 186.775794 
L 311.661141 179.605821 
L 315.820148 171.922879 
L 319.979154 163.689293 
L 324.13816 154.864489 
L 328.297166 145.404993 
L 332.456172 135.267336 
L 336.615179 124.405146 
L 340.774185 199.701452 
L 344.933191 193.461779 
L 349.092197 186.775794 
L 353.251203 179.605821 
L 357.41021 171.922879 
L 361.569216 163.689293 
L 365.728222 154.864489 
L 369.887228 145.404993 
L 374.046234 135.267336 
L 378.205241 124.405146 
L 382.364247 112.757563 
L 386.523253 100.278217 
L 390.682259 86.903349 
L 394.841266 179.605821 
L 399.000272 171.922879 
L 403.159278 163.689293 
L 407.318284 154.864489 
L 411.47729 145.404993 
L 415.636297 135.267336 
L 419.795303 124.405146 
L 423.954309 112.757563 
L 428.113315 100.278217 
L 432.272321 86.903349 
L 436.431328 72.566302 
L 440.590334 171.922879 
L 444.74934 163.689293 
L 448.908346 154.864489 
L 453.067352 145.404993 
L 457.226359 135.267336 
L 461.385365 124.405146 
L 465.544371 112.757563 
" style="fill:none;stroke:#b9b9b9;stroke-linecap:square;stroke-width:1.5;"/>
   </g>
   <g id="line2d_28">
    <path clip-path="url(#p52e9e75a3a)" d="M 49.64375 199.701452 
L 53.802756 193.461779 
L 57.961762 186.775794 
L 62.120769 179.605821 
L 66.279775 171.922879 
L 70.438781 163.689293 
L 74.597787 154.864489 
L 78.756793 145.404993 
L 82.9158 210.957787 
L 87.074806 205.526692 
L 91.233812 199.701452 
L 95.392818 193.461779 
L 99.551825 186.775794 
L 103.710831 179.605821 
L 107.869837 171.922879 
L 112.028843 163.689293 
L 116.187849 154.864489 
L 120.346856 145.404993 
L 124.505862 135.267336 
L 128.664868 205.526692 
L 132.823874 199.701452 
L 136.98288 193.461779 
L 141.141887 186.775794 
L 145.300893 179.605821 
L 149.459899 171.922879 
L 153.618905 163.689293 
L 157.777911 154.864489 
L 161.936918 145.404993 
L 166.095924 135.267336 
L 170.25493 124.405146 
L 174.413936 112.760461 
L 178.572943 193.461779 
L 182.731949 186.775794 
L 186.890955 179.605821 
L 191.049961 171.922879 
L 195.208967 163.689293 
L 199.367974 154.864489 
L 203.52698 145.404993 
L 207.685986 135.267336 
L 211.844992 124.405146 
L 216.003998 112.757563 
L 220.163005 193.461779 
L 224.322011 186.775794 
L 228.481017 179.605821 
L 232.640023 171.922879 
L 236.79903 163.689293 
L 240.958036 154.864489 
L 245.117042 145.404993 
L 249.276048 135.267336 
L 253.435054 124.405146 
L 257.594061 199.70435 
L 261.753067 193.461779 
L 265.912073 186.775794 
L 270.071079 179.605821 
L 274.230085 171.922879 
L 278.389092 163.689293 
L 282.548098 154.864489 
L 286.707104 216.026616 
L 290.86611 210.957787 
L 295.025116 205.526692 
L 299.184123 199.701452 
L 303.343129 193.461779 
L 307.502135 186.775794 
L 311.661141 179.605821 
L 315.820148 171.922879 
L 319.979154 163.689293 
L 324.13816 154.864489 
L 328.297166 145.404993 
L 332.456172 135.267336 
L 336.615179 124.405146 
L 340.774185 199.70435 
L 344.933191 193.461779 
L 349.092197 186.775794 
L 353.251203 179.605821 
L 357.41021 171.922879 
L 361.569216 163.689293 
L 365.728222 154.864489 
L 369.887228 145.404993 
L 374.046234 135.267336 
L 378.205241 124.405146 
L 382.364247 112.757563 
L 386.523253 193.461779 
L 390.682259 186.775794 
L 394.841266 179.605821 
L 399.000272 171.922879 
L 403.159278 163.689293 
L 407.318284 154.864489 
L 411.47729 145.404993 
L 415.636297 135.267336 
L 419.795303 124.405146 
L 423.954309 112.760461 
L 428.113315 100.278217 
L 432.272321 86.903349 
L 436.431328 179.605821 
L 440.590334 171.922879 
L 444.74934 163.689293 
L 448.908346 154.864489 
L 453.067352 145.404993 
L 457.226359 135.267336 
L 461.385365 124.405146 
L 465.544371 112.760461 
" style="fill:none;stroke:#b9b9b9;stroke-linecap:square;stroke-width:1.5;"/>
   </g>
   <g id="line2d_29">
    <path clip-path="url(#p52e9e75a3a)" d="M 49.64375 199.701452 
L 53.802756 193.461779 
L 57.961762 186.775794 
L 62.120769 179.605821 
L 66.279775 171.922879 
L 70.438781 163.689293 
L 74.597787 154.864489 
L 78.756793 145.404993 
L 82.9158 135.267336 
L 87.074806 124.405146 
L 91.233812 112.760461 
L 95.392818 100.278217 
L 99.551825 186.775794 
L 103.710831 179.605821 
L 107.869837 171.922879 
L 112.028843 163.689293 
L 116.187849 154.864489 
L 120.346856 145.404993 
L 124.505862 135.267336 
L 128.664868 124.405146 
L 132.823874 112.760461 
L 136.98288 193.461779 
L 141.141887 186.775794 
L 145.300893 179.605821 
L 149.459899 171.922879 
L 153.618905 163.689293 
L 157.777911 154.864489 
L 161.936918 145.404993 
L 166.095924 135.267336 
L 170.25493 124.405146 
L 174.413936 199.70435 
L 178.572943 193.461779 
L 182.731949 186.775794 
L 186.890955 179.605821 
L 191.049961 171.922879 
L 195.208967 163.689293 
L 199.367974 154.864489 
L 203.52698 145.404993 
L 207.685986 135.267336 
L 211.844992 124.405146 
L 216.003998 112.760461 
L 220.163005 100.278217 
L 224.322011 86.903349 
L 228.481017 179.605821 
L 232.640023 171.922879 
L 236.79903 163.689293 
L 240.958036 154.864489 
L 245.117042 145.404993 
L 249.276048 135.267336 
L 253.435054 124.405146 
L 257.594061 199.70435 
L 261.753067 193.461779 
L 265.912073 186.775794 
L 270.071079 179.605821 
L 274.230085 171.922879 
L 278.389092 163.689293 
L 282.548098 154.864489 
L 286.707104 145.404993 
L 290.86611 135.267336 
L 295.025116 205.526692 
L 299.184123 199.70435 
L 303.343129 193.461779 
L 307.502135 186.775794 
L 311.661141 179.605821 
L 315.820148 171.922879 
L 319.979154 163.689293 
L 324.13816 154.864489 
L 328.297166 216.026616 
L 332.456172 210.957787 
L 336.615179 205.526692 
L 340.774185 199.70435 
L 344.933191 193.461779 
L 349.092197 186.775794 
L 353.251203 179.605821 
L 357.41021 171.922879 
L 361.569216 163.689293 
L 365.728222 154.864489 
L 369.887228 145.404993 
L 374.046234 135.267336 
L 378.205241 205.526692 
L 382.364247 199.70435 
L 386.523253 193.461779 
L 390.682259 186.775794 
L 394.841266 179.605821 
L 399.000272 171.922879 
L 403.159278 163.689293 
L 407.318284 154.864489 
L 411.47729 145.404993 
L 415.636297 135.267336 
L 419.795303 124.405146 
L 423.954309 112.760461 
L 428.113315 193.461779 
L 432.272321 186.775794 
L 436.431328 179.605821 
L 440.590334 171.922879 
L 444.74934 163.689293 
L 448.908346 154.864489 
L 453.067352 145.404993 
L 457.226359 135.267336 
L 461.385365 124.405146 
L 465.544371 112.760461 
" style="fill:none;stroke:#b9b9b9;stroke-linecap:square;stroke-width:1.5;"/>
   </g>
   <g id="line2d_30">
    <path clip-path="url(#p52e9e75a3a)" d="M 49.64375 199.701452 
L 53.802756 193.461779 
L 57.961762 186.775794 
L 62.120769 179.605821 
L 66.279775 171.922879 
L 70.438781 163.689293 
L 74.597787 154.864489 
L 78.756793 145.404993 
L 82.9158 210.957787 
L 87.074806 205.526692 
L 91.233812 199.70435 
L 95.392818 193.461779 
L 99.551825 186.775794 
L 103.710831 179.605821 
L 107.869837 171.922879 
L 112.028843 163.689293 
L 116.187849 154.864489 
L 120.346856 145.404993 
L 124.505862 135.267336 
L 128.664868 124.405146 
L 132.823874 112.760461 
L 136.98288 100.278217 
L 141.141887 86.903349 
L 145.300893 72.566302 
L 149.459899 57.200418 
L 153.618905 163.689293 
L 157.777911 154.864489 
L 161.936918 145.404993 
L 166.095924 135.267336 
L 170.25493 124.405146 
L 174.413936 112.760461 
L 178.572943 100.278217 
L 182.731949 186.775794 
L 186.890955 179.605821 
L 191.049961 171.922879 
L 195.208967 163.689293 
L 199.367974 154.864489 
L 203.52698 145.404993 
L 207.685986 135.267336 
L 211.844992 124.405146 
L 216.003998 112.757563 
L 220.163005 193.461779 
L 224.322011 186.775794 
L 228.481017 179.605821 
L 232.640023 171.922879 
L 236.79903 163.689293 
L 240.958036 154.864489 
L 245.117042 145.404993 
L 249.276048 135.267336 
L 253.435054 124.405146 
L 257.594061 112.757563 
L 261.753067 193.461779 
L 265.912073 186.775794 
L 270.071079 179.605821 
L 274.230085 171.922879 
L 278.389092 163.689293 
L 282.548098 154.864489 
L 286.707104 145.404993 
L 290.86611 135.267336 
L 295.025116 124.405146 
L 299.184123 112.760461 
L 303.343129 100.278217 
L 307.502135 186.775794 
L 311.661141 179.605821 
L 315.820148 171.922879 
L 319.979154 163.689293 
L 324.13816 154.864489 
L 328.297166 145.404993 
L 332.456172 135.267336 
L 336.615179 124.405146 
L 340.774185 112.760461 
L 344.933191 100.278217 
L 349.092197 86.903349 
L 353.251203 179.605821 
L 357.41021 171.922879 
L 361.569216 163.689293 
L 365.728222 154.864489 
L 369.887228 145.404993 
L 374.046234 135.267336 
L 378.205241 124.405146 
L 382.364247 112.757563 
L 386.523253 100.278217 
L 390.682259 86.903349 
L 394.841266 179.605821 
L 399.000272 171.922879 
L 403.159278 163.689293 
L 407.318284 154.864489 
L 411.47729 145.404993 
L 415.636297 135.267336 
L 419.795303 124.405146 
L 423.954309 112.760461 
L 428.113315 100.278217 
L 432.272321 86.903349 
L 436.431328 72.566302 
L 440.590334 57.200418 
L 444.74934 163.689293 
L 448.908346 154.864489 
L 453.067352 145.404993 
L 457.226359 135.267336 
L 461.385365 124.405146 
L 465.544371 112.757563 
" style="fill:none;stroke:#b9b9b9;stroke-linecap:square;stroke-width:1.5;"/>
   </g>
   <g id="line2d_31">
    <path clip-path="url(#p52e9e75a3a)" d="M 49.64375 199.701452 
L 53.802756 193.461779 
L 57.961762 186.775794 
L 62.120769 179.605821 
L 66.279775 171.922879 
L 70.438781 163.689293 
L 74.597787 154.864489 
L 78.756793 145.404993 
L 82.9158 135.267336 
L 87.074806 124.405146 
L 91.233812 112.760461 
L 95.392818 193.461779 
L 99.551825 186.775794 
L 103.710831 179.605821 
L 107.869837 171.922879 
L 112.028843 163.689293 
L 116.187849 154.864489 
L 120.346856 145.404993 
L 124.505862 135.267336 
L 128.664868 124.405146 
L 132.823874 112.760461 
L 136.98288 100.278217 
L 141.141887 186.775794 
L 145.300893 179.605821 
L 149.459899 171.922879 
L 153.618905 163.689293 
L 157.777911 154.864489 
L 161.936918 145.404993 
L 166.095924 135.267336 
L 170.25493 124.405146 
L 174.413936 112.760461 
L 178.572943 100.278217 
L 182.731949 86.903349 
L 186.890955 72.566302 
L 191.049961 57.200418 
L 195.208967 163.689293 
L 199.367974 154.864489 
L 203.52698 145.404993 
L 207.685986 135.267336 
L 211.844992 124.405146 
L 216.003998 112.760461 
L 220.163005 100.278217 
L 224.322011 186.775794 
L 228.481017 179.605821 
L 232.640023 171.922879 
L 236.79903 163.689293 
L 240.958036 154.864489 
L 245.117042 145.404993 
L 249.276048 135.267336 
L 253.435054 124.405146 
L 257.594061 112.760461 
L 261.753067 193.461779 
L 265.912073 186.775794 
L 270.071079 179.605821 
L 274.230085 171.922879 
L 278.389092 163.689293 
L 282.548098 154.864489 
L 286.707104 145.404993 
L 290.86611 135.267336 
L 295.025116 124.405146 
L 299.184123 199.70435 
L 303.343129 193.461779 
L 307.502135 186.775794 
L 311.661141 179.605821 
L 315.820148 171.922879 
L 319.979154 163.689293 
L 324.13816 154.864489 
L 328.297166 145.404993 
L 332.456172 135.267336 
L 336.615179 205.526692 
L 340.774185 199.70435 
L 344.933191 193.461779 
L 349.092197 186.775794 
L 353.251203 179.605821 
L 357.41021 171.922879 
L 361.569216 163.689293 
L 365.728222 154.864489 
L 369.887228 145.404993 
L 374.046234 135.267336 
L 378.205241 124.405146 
L 382.364247 112.760461 
L 386.523253 193.461779 
L 390.682259 186.775794 
L 394.841266 179.605821 
L 399.000272 171.922879 
L 403.159278 163.689293 
L 407.318284 154.864489 
L 411.47729 145.404993 
L 415.636297 135.267336 
L 419.795303 124.405146 
L 423.954309 112.760461 
L 428.113315 100.278217 
L 432.272321 186.775794 
L 436.431328 179.605821 
L 440.590334 171.922879 
L 444.74934 163.689293 
L 448.908346 154.864489 
L 453.067352 145.404993 
L 457.226359 135.267336 
L 461.385365 124.405146 
L 465.544371 199.70435 
" style="fill:none;stroke:#b9b9b9;stroke-linecap:square;stroke-width:1.5;"/>
   </g>
   <g id="line2d_32">
    <path clip-path="url(#p52e9e75a3a)" d="M 49.64375 199.701452 
L 53.802756 193.461779 
L 57.961762 186.775794 
L 62.120769 179.605821 
L 66.279775 171.922879 
L 70.438781 163.689293 
L 74.597787 154.864489 
L 78.756793 145.404993 
L 82.9158 135.267336 
L 87.074806 205.526692 
L 91.233812 199.701452 
L 95.392818 193.461779 
L 99.551825 186.775794 
L 103.710831 179.605821 
L 107.869837 171.922879 
L 112.028843 163.689293 
L 116.187849 154.864489 
L 120.346856 145.404993 
L 124.505862 135.267336 
L 128.664868 205.526692 
L 132.823874 199.701452 
L 136.98288 193.461779 
L 141.141887 186.775794 
L 145.300893 179.605821 
L 149.459899 171.922879 
L 153.618905 163.689293 
L 157.777911 154.864489 
L 161.936918 145.404993 
L 166.095924 210.957787 
L 170.25493 205.526692 
L 174.413936 199.701452 
L 178.572943 193.461779 
L 182.731949 186.775794 
L 186.890955 179.605821 
L 191.049961 171.922879 
L 195.208967 163.689293 
L 199.367974 154.864489 
L 203.52698 145.404993 
L 207.685986 135.267336 
L 211.844992 205.526692 
L 216.003998 199.70435 
L 220.163005 193.461779 
L 224.322011 186.775794 
L 228.481017 179.605821 
L 232.640023 171.922879 
L 236.79903 163.689293 
L 240.958036 154.864489 
L 245.117042 145.404993 
L 249.276048 135.267336 
L 253.435054 124.405146 
L 257.594061 199.70435 
L 261.753067 193.461779 
L 265.912073 186.775794 
L 270.071079 179.605821 
L 274.230085 171.922879 
L 278.389092 163.689293 
L 282.548098 154.864489 
L 286.707104 145.404993 
L 290.86611 210.957787 
L 295.025116 205.526692 
L 299.184123 199.70435 
L 303.343129 193.461779 
L 307.502135 186.775794 
L 311.661141 179.605821 
L 315.820148 171.922879 
L 319.979154 163.689293 
L 324.13816 154.864489 
L 328.297166 145.404993 
L 332.456172 135.267336 
L 336.615179 124.405146 
L 340.774185 112.760461 
L 344.933191 100.278217 
L 349.092197 186.775794 
L 353.251203 179.605821 
L 357.41021 171.922879 
L 361.569216 163.689293 
L 365.728222 154.864489 
L 369.887228 145.404993 
L 374.046234 135.267336 
L 378.205241 124.405146 
L 382.364247 112.760461 
L 386.523253 100.278217 
L 390.682259 86.903349 
L 394.841266 179.605821 
L 399.000272 171.922879 
L 403.159278 163.689293 
L 407.318284 154.864489 
L 411.47729 145.404993 
L 415.636297 135.267336 
L 419.795303 124.405146 
L 423.954309 112.760461 
L 428.113315 100.278217 
L 432.272321 86.903349 
L 436.431328 179.605821 
L 440.590334 171.922879 
L 444.74934 163.689293 
L 448.908346 154.864489 
L 453.067352 145.404993 
L 457.226359 135.267336 
L 461.385365 124.405146 
L 465.544371 199.70435 
" style="fill:none;stroke:#b9b9b9;stroke-linecap:square;stroke-width:1.5;"/>
   </g>
   <g id="line2d_33">
    <path clip-path="url(#p52e9e75a3a)" d="M 49.64375 199.701452 
L 53.802756 193.461779 
L 57.961762 186.775794 
L 62.120769 179.605821 
L 66.279775 171.922879 
L 70.438781 163.689293 
L 74.597787 154.864489 
L 78.756793 145.404993 
L 82.9158 135.267336 
L 87.074806 124.405146 
L 91.233812 199.70435 
L 95.392818 193.461779 
L 99.551825 186.775794 
L 103.710831 179.605821 
L 107.869837 171.922879 
L 112.028843 163.689293 
L 116.187849 220.756364 
L 120.346856 216.026616 
L 124.505862 210.957787 
L 128.664868 205.526692 
L 132.823874 199.70435 
L 136.98288 193.461779 
L 141.141887 186.775794 
L 145.300893 179.605821 
L 149.459899 171.922879 
L 153.618905 163.689293 
L 157.777911 154.864489 
L 161.936918 145.404993 
L 166.095924 210.957787 
L 170.25493 205.526692 
L 174.413936 199.70435 
L 178.572943 193.461779 
L 182.731949 186.775794 
L 186.890955 179.605821 
L 191.049961 171.922879 
L 195.208967 163.689293 
L 199.367974 154.864489 
L 203.52698 145.404993 
L 207.685986 135.267336 
L 211.844992 124.405146 
L 216.003998 112.760461 
L 220.163005 100.278217 
L 224.322011 86.903349 
L 228.481017 179.605821 
L 232.640023 171.922879 
L 236.79903 163.689293 
L 240.958036 154.864489 
L 245.117042 145.404993 
L 249.276048 135.267336 
L 253.435054 205.526692 
L 257.594061 199.70435 
L 261.753067 193.461779 
L 265.912073 186.775794 
L 270.071079 179.605821 
L 274.230085 171.922879 
L 278.389092 163.689293 
L 282.548098 154.864489 
L 286.707104 145.404993 
L 290.86611 135.267336 
L 295.025116 124.405146 
L 299.184123 112.760461 
L 303.343129 100.278217 
L 307.502135 186.775794 
L 311.661141 179.605821 
L 315.820148 171.922879 
L 319.979154 163.689293 
L 324.13816 154.864489 
L 328.297166 145.404993 
L 332.456172 135.267336 
L 336.615179 124.405146 
L 340.774185 112.760461 
L 344.933191 100.278217 
L 349.092197 86.903349 
L 353.251203 179.605821 
L 357.41021 171.922879 
L 361.569216 163.689293 
L 365.728222 154.864489 
L 369.887228 145.404993 
L 374.046234 135.267336 
L 378.205241 124.405146 
L 382.364247 112.760461 
L 386.523253 100.278217 
L 390.682259 86.903349 
L 394.841266 179.605821 
L 399.000272 171.922879 
L 403.159278 163.689293 
L 407.318284 154.864489 
L 411.47729 145.404993 
L 415.636297 135.267336 
L 419.795303 124.405146 
L 423.954309 112.760461 
L 428.113315 100.278217 
L 432.272321 186.775794 
L 436.431328 179.605821 
L 440.590334 171.922879 
L 444.74934 163.689293 
L 448.908346 154.864489 
L 453.067352 145.404993 
L 457.226359 135.267336 
L 461.385365 124.405146 
L 465.544371 112.760461 
" style="fill:none;stroke:#b9b9b9;stroke-linecap:square;stroke-width:1.5;"/>
   </g>
   <g id="line2d_34">
    <path clip-path="url(#p52e9e75a3a)" d="M 49.64375 199.701452 
L 53.802756 193.461779 
L 57.961762 186.775794 
L 62.120769 179.605821 
L 66.279775 171.922879 
L 70.438781 163.689293 
L 74.597787 154.864489 
L 78.756793 216.026616 
L 82.9158 210.957787 
L 87.074806 205.526692 
L 91.233812 199.70435 
L 95.392818 193.461779 
L 99.551825 186.775794 
L 103.710831 179.605821 
L 107.869837 171.922879 
L 112.028843 163.689293 
L 116.187849 154.864489 
L 120.346856 145.404993 
L 124.505862 135.267336 
L 128.664868 124.405146 
L 132.823874 112.760461 
L 136.98288 100.278217 
L 141.141887 186.775794 
L 145.300893 179.605821 
L 149.459899 171.922879 
L 153.618905 163.689293 
L 157.777911 154.864489 
L 161.936918 145.404993 
L 166.095924 135.267336 
L 170.25493 124.405146 
L 174.413936 112.760461 
L 178.572943 100.278217 
L 182.731949 86.903349 
L 186.890955 179.605821 
L 191.049961 171.922879 
L 195.208967 163.689293 
L 199.367974 154.864489 
L 203.52698 145.404993 
L 207.685986 135.267336 
L 211.844992 124.405146 
L 216.003998 112.760461 
L 220.163005 100.278217 
L 224.322011 86.903349 
L 228.481017 72.566302 
L 232.640023 57.200418 
L 236.79903 40.733246 
L 240.958036 154.864489 
L 245.117042 145.404993 
L 249.276048 135.267336 
L 253.435054 124.405146 
L 257.594061 112.760461 
L 261.753067 100.278217 
L 265.912073 86.903349 
L 270.071079 72.566302 
L 274.230085 57.200418 
L 278.389092 40.733246 
L 282.548098 23.083636 
L 286.707104 145.404993 
L 290.86611 135.267336 
L 295.025116 124.405146 
L 299.184123 112.760461 
L 303.343129 100.278217 
L 307.502135 186.775794 
L 311.661141 179.605821 
L 315.820148 171.922879 
L 319.979154 163.689293 
L 324.13816 154.864489 
L 328.297166 145.404993 
L 332.456172 135.267336 
L 336.615179 124.405146 
L 340.774185 199.70435 
L 344.933191 193.461779 
L 349.092197 186.775794 
L 353.251203 179.605821 
L 357.41021 171.922879 
L 361.569216 163.689293 
L 365.728222 154.864489 
L 369.887228 145.404993 
L 374.046234 135.267336 
L 378.205241 124.405146 
L 382.364247 199.70435 
L 386.523253 193.461779 
L 390.682259 186.775794 
L 394.841266 179.605821 
L 399.000272 171.922879 
L 403.159278 163.689293 
L 407.318284 154.864489 
L 411.47729 145.404993 
L 415.636297 135.267336 
L 419.795303 124.405146 
L 423.954309 112.760461 
L 428.113315 193.461779 
L 432.272321 186.775794 
L 436.431328 179.605821 
L 440.590334 171.922879 
L 444.74934 163.689293 
L 448.908346 154.864489 
L 453.067352 145.404993 
L 457.226359 135.267336 
L 461.385365 124.405146 
L 465.544371 199.70435 
" style="fill:none;stroke:#b9b9b9;stroke-linecap:square;stroke-width:1.5;"/>
   </g>
   <g id="line2d_35">
    <path clip-path="url(#p52e9e75a3a)" d="M 49.64375 199.701452 
L 53.802756 193.461779 
L 57.961762 186.775794 
L 62.120769 179.605821 
L 66.279775 172.003187 
L 70.438781 164.279482 
L 74.597787 157.473807 
L 78.756793 152.495404 
L 82.9158 151.72244 
L 87.074806 154.095632 
L 91.233812 159.917499 
L 95.392818 165.953991 
L 99.551825 169.74754 
L 103.710831 170.903508 
L 107.869837 168.687721 
L 112.028843 163.898318 
L 116.187849 158.778478 
L 120.346856 154.741174 
L 124.505862 153.296802 
L 128.664868 154.923072 
L 132.823874 159.187366 
L 136.98288 163.801451 
L 141.141887 167.10092 
L 145.300893 168.816238 
L 149.459899 167.242223 
L 153.618905 163.258947 
L 157.777911 158.870733 
L 161.936918 155.094285 
L 166.095924 154.265641 
L 170.25493 155.247558 
L 174.413936 159.126665 
L 178.572943 163.689631 
L 182.731949 166.56161 
L 186.890955 168.195408 
L 191.049961 167.437248 
L 195.208967 163.381903 
L 199.367974 158.646705 
L 203.52698 155.475643 
L 207.685986 153.629842 
L 211.844992 155.539596 
L 216.003998 159.083289 
L 220.163005 163.9785 
L 224.322011 167.160843 
L 228.481017 168.377376 
L 232.640023 166.657141 
L 236.79903 163.000739 
L 240.958036 158.752138 
L 245.117042 155.489769 
L 249.276048 153.87205 
L 253.435054 155.077203 
L 257.594061 158.657368 
L 261.753067 163.372808 
L 265.912073 166.252005 
L 270.071079 168.195408 
L 274.230085 166.737445 
L 278.389092 163.000739 
L 282.548098 158.844383 
L 286.707104 155.842879 
L 290.86611 154.432162 
L 295.025116 156.237241 
L 299.184123 159.579046 
L 303.343129 163.726905 
L 307.502135 167.330625 
L 311.661141 168.452303 
L 315.820148 167.035726 
L 319.979154 163.492564 
L 324.13816 158.962985 
L 328.297166 155.066038 
L 332.456172 153.826636 
L 336.615179 155.953315 
L 340.774185 158.86618 
L 344.933191 163.931909 
L 349.092197 167.540359 
L 353.251203 168.313152 
L 357.41021 166.611248 
L 361.569216 163.763067 
L 365.728222 159.028876 
L 369.887228 155.447396 
L 374.046234 154.386746 
L 378.205241 155.296231 
L 382.364247 158.840154 
L 386.523253 162.515518 
L 390.682259 166.092209 
L 394.841266 167.76725 
L 399.000272 166.003218 
L 403.159278 162.939261 
L 407.318284 159.055235 
L 411.47729 155.306154 
L 415.636297 154.114262 
L 419.795303 155.645053 
L 423.954309 159.248844 
L 428.113315 163.260987 
L 432.272321 167.001046 
L 436.431328 168.313152 
L 440.590334 166.840698 
L 444.74934 163.504859 
L 448.908346 158.989347 
L 453.067352 155.715759 
L 457.226359 154.7652 
L 461.385365 155.977652 
L 465.544371 159.796623 
" style="fill:none;stroke:#1f77b4;stroke-linecap:square;stroke-width:1.5;"/>
   </g>
   <g id="line2d_36">
    <path clip-path="url(#p52e9e75a3a)" d="M 49.64375 199.701452 
L 53.802756 193.461188 
L 57.545862 187.463027 
L 61.704868 180.350253 
L 66.279775 172.02348 
L 72.102384 161.38168 
L 74.181887 158.001573 
L 75.845489 155.654495 
L 77.509092 153.737927 
L 78.756793 152.642163 
L 80.004495 151.87827 
L 80.836297 151.566575 
L 81.668098 151.419076 
L 82.499899 151.438283 
L 83.3317 151.624032 
L 84.163502 151.973354 
L 85.411203 152.790523 
L 86.658905 153.930503 
L 87.906607 155.348595 
L 89.57021 157.573743 
L 92.897415 162.567273 
L 95.392818 166.120988 
L 97.056421 168.109523 
L 98.304123 169.315179 
L 99.551825 170.235721 
L 100.799526 170.84821 
L 102.047228 171.141966 
L 103.29493 171.11801 
L 104.542632 170.788054 
L 105.790334 170.173182 
L 107.038036 169.302369 
L 108.701638 167.804962 
L 110.781141 165.530696 
L 118.267352 156.815805 
L 119.930955 155.424122 
L 121.178657 154.633824 
L 122.426359 154.090168 
L 123.674061 153.811741 
L 124.921762 153.808805 
L 126.169464 154.082509 
L 127.417166 154.624386 
L 128.664868 155.416222 
L 130.32847 156.811768 
L 131.992073 158.512587 
L 134.903377 161.882683 
L 137.814682 165.171072 
L 139.478284 166.758879 
L 141.141887 168.005357 
L 142.389589 168.670053 
L 143.63729 169.079141 
L 144.884992 169.221649 
L 146.132694 169.096496 
L 147.380396 168.712094 
L 148.628098 168.085609 
L 149.8758 167.241956 
L 151.539402 165.834476 
L 153.618905 163.748025 
L 159.441514 157.613975 
L 161.105116 156.226996 
L 162.768719 155.168038 
L 164.016421 154.629521 
L 165.264123 154.333014 
L 166.511825 154.290674 
L 167.759526 154.506101 
L 169.007228 154.973855 
L 170.25493 155.679288 
L 171.918533 156.947484 
L 173.582135 158.516439 
L 176.077539 161.209819 
L 179.404744 164.814533 
L 181.068346 166.355772 
L 182.731949 167.585352 
L 183.979651 168.25581 
L 185.227352 168.684751 
L 186.475054 168.859105 
L 187.722756 168.775374 
L 188.970458 168.439421 
L 190.21816 167.865888 
L 191.465862 167.077331 
L 193.129464 165.743064 
L 195.208967 163.742154 
L 201.447477 157.408288 
L 203.111079 156.116505 
L 204.358781 155.363956 
L 205.606483 154.827425 
L 206.854185 154.527218 
L 208.101887 154.475949 
L 209.349589 154.677816 
L 210.59729 155.128109 
L 211.844992 155.81303 
L 213.508595 157.050786 
L 215.172197 158.587991 
L 217.667601 161.236552 
L 221.410707 165.203073 
L 223.074309 166.664526 
L 224.737911 167.799862 
L 225.985613 168.39374 
L 227.233315 168.744022 
L 228.481017 168.840329 
L 229.728719 168.681754 
L 230.976421 168.276569 
L 232.224123 167.641568 
L 233.887725 166.48055 
L 235.551328 165.030351 
L 238.046731 162.513619 
L 242.205738 158.262072 
L 243.86934 156.838768 
L 245.532943 155.710036 
L 246.780644 155.10029 
L 248.028346 154.719372 
L 249.276048 154.582641 
L 250.52375 154.697297 
L 251.771452 155.061798 
L 253.019154 155.665573 
L 254.266856 156.489077 
L 255.930458 157.879224 
L 258.009961 159.960019 
L 263.416669 165.654019 
L 265.080272 167.038912 
L 266.327974 167.855587 
L 267.575675 168.44944 
L 268.823377 168.800641 
L 270.071079 168.8987 
L 271.318781 168.742579 
L 272.566483 168.3404 
L 273.814185 167.708809 
L 275.477787 166.552715 
L 277.14139 165.10758 
L 279.636793 162.598125 
L 283.7958 158.356225 
L 285.459402 156.93552 
L 287.123005 155.808546 
L 288.370707 155.199543 
L 289.618408 154.818872 
L 290.86611 154.681902 
L 292.113812 154.795855 
L 293.361514 155.159228 
L 294.609216 155.761502 
L 295.856918 156.583198 
L 297.52052 157.970586 
L 299.600023 160.047657 
L 305.006731 165.733232 
L 306.670334 167.116529 
L 307.918036 167.932419 
L 309.165738 168.525853 
L 310.413439 168.876996 
L 311.661141 168.975338 
L 312.908843 168.819812 
L 314.156545 168.418501 
L 315.404247 167.78801 
L 317.067849 166.633657 
L 318.731452 165.190473 
L 321.226856 162.684088 
L 325.385862 158.446827 
L 327.049464 157.027551 
L 328.713067 155.901655 
L 329.960769 155.293198 
L 331.20847 154.912832 
L 332.456172 154.775919 
L 333.703874 154.889681 
L 334.951576 155.252623 
L 336.199278 155.854244 
L 337.44698 156.675087 
L 339.110582 158.061086 
L 341.190085 160.13615 
L 346.596793 165.816548 
L 348.260396 167.198664 
L 349.508098 168.013881 
L 350.7558 168.606848 
L 352.003502 168.95774 
L 353.251203 169.056049 
L 354.498905 168.900703 
L 355.746607 168.499774 
L 356.994309 167.869845 
L 358.657911 166.716485 
L 360.321514 165.274507 
L 362.816918 162.770169 
L 366.975924 158.536287 
L 368.639526 157.118128 
L 370.303129 155.993113 
L 371.550831 155.385132 
L 372.798533 155.005064 
L 374.046234 154.86826 
L 375.293936 154.981937 
L 376.541638 155.344604 
L 377.78934 155.945765 
L 379.037042 156.765981 
L 380.700644 158.150923 
L 382.780148 160.224408 
L 388.186856 165.900499 
L 389.850458 167.281569 
L 391.09816 168.096169 
L 392.345862 168.688683 
L 393.593564 169.039303 
L 394.841266 169.137526 
L 396.088967 168.982281 
L 397.336669 168.581633 
L 398.584371 167.952153 
L 400.247974 166.799619 
L 401.911576 165.358677 
L 404.40698 162.856142 
L 408.565986 158.625314 
L 410.229589 157.208182 
L 411.893191 156.083986 
L 413.140893 155.476452 
L 414.388595 155.096667 
L 415.636297 154.959973 
L 416.883998 155.073581 
L 418.1317 155.436 
L 419.379402 156.036743 
L 420.627104 156.856383 
L 422.290707 158.240346 
L 424.37021 160.312358 
L 429.776918 165.984393 
L 431.44052 167.364467 
L 432.688222 168.178476 
L 433.935924 168.770556 
L 435.183626 169.120912 
L 436.431328 169.21905 
L 437.67903 169.063898 
L 438.926731 168.663517 
L 440.174433 168.034467 
L 441.838036 166.882728 
L 443.501638 165.442786 
L 445.997042 162.941996 
L 450.156048 158.714135 
L 451.819651 157.298002 
L 453.483253 156.174602 
L 454.730955 155.5675 
L 455.978657 155.18799 
L 457.226359 155.051401 
L 458.474061 155.164938 
L 459.721762 155.527112 
L 460.969464 156.127442 
L 462.217166 156.946515 
L 463.880769 158.329517 
L 465.12847 159.537402 
L 465.12847 159.537402 
" style="fill:none;stroke:#008000;stroke-dasharray:7.4,3.2;stroke-dashoffset:0;stroke-width:2;"/>
   </g>
   <g id="patch_3">
    <path d="M 49.64375 230.64 
L 49.64375 13.2 
" style="fill:none;stroke:#000000;stroke-linecap:square;stroke-linejoin:miter;stroke-width:2;"/>
   </g>
   <g id="patch_4">
    <path d="M 340.774185 230.64 
L 340.774185 13.2 
" style="fill:none;"/>
   </g>
   <g id="patch_5">
    <path d="M 49.64375 230.64 
L 340.774185 230.64 
" style="fill:none;stroke:#000000;stroke-linecap:square;stroke-linejoin:miter;stroke-width:2;"/>
   </g>
   <g id="patch_6">
    <path d="M 49.64375 13.2 
L 340.774185 13.2 
" style="fill:none;"/>
   </g>
   <g id="legend_1">
    <g id="patch_7">
     <path d="M 60.14375 69.234375 
L 171.29375 69.234375 
Q 174.29375 69.234375 174.29375 66.234375 
L 174.29375 23.7 
Q 174.29375 20.7 171.29375 20.7 
L 60.14375 20.7 
Q 57.14375 20.7 57.14375 23.7 
L 57.14375 66.234375 
Q 57.14375 69.234375 60.14375 69.234375 
z
" style="fill:#ffffff;opacity:0.8;stroke:#cccccc;stroke-linejoin:miter;"/>
    </g>
    <g id="line2d_37">
     <path d="M 63.14375 32.847656 
L 93.14375 32.847656 
" style="fill:none;stroke:#008000;stroke-dasharray:7.4,3.2;stroke-dashoffset:0;stroke-width:2;"/>
    </g>
    <g id="line2d_38"/>
    <g id="text_15">
     <!-- Numeric -->
     <defs>
      <path d="M 9.8125 72.90625 
L 23.09375 72.90625 
L 55.421875 11.921875 
L 55.421875 72.90625 
L 64.984375 72.90625 
L 64.984375 0 
L 51.703125 0 
L 19.390625 60.984375 
L 19.390625 0 
L 9.8125 0 
z
" id="DejaVuSans-4e"/>
      <path d="M 8.5 21.578125 
L 8.5 54.6875 
L 17.484375 54.6875 
L 17.484375 21.921875 
Q 17.484375 14.15625 20.5 10.265625 
Q 23.53125 6.390625 29.59375 6.390625 
Q 36.859375 6.390625 41.078125 11.03125 
Q 45.3125 15.671875 45.3125 23.6875 
L 45.3125 54.6875 
L 54.296875 54.6875 
L 54.296875 0 
L 45.3125 0 
L 45.3125 8.40625 
Q 42.046875 3.421875 37.71875 1 
Q 33.40625 -1.421875 27.6875 -1.421875 
Q 18.265625 -1.421875 13.375 4.4375 
Q 8.5 10.296875 8.5 21.578125 
z
M 31.109375 56 
z
" id="DejaVuSans-75"/>
      <path d="M 52 44.1875 
Q 55.375 50.25 60.0625 53.125 
Q 64.75 56 71.09375 56 
Q 79.640625 56 84.28125 50.015625 
Q 88.921875 44.046875 88.921875 33.015625 
L 88.921875 0 
L 79.890625 0 
L 79.890625 32.71875 
Q 79.890625 40.578125 77.09375 44.375 
Q 74.3125 48.1875 68.609375 48.1875 
Q 61.625 48.1875 57.5625 43.546875 
Q 53.515625 38.921875 53.515625 30.90625 
L 53.515625 0 
L 44.484375 0 
L 44.484375 32.71875 
Q 44.484375 40.625 41.703125 44.40625 
Q 38.921875 48.1875 33.109375 48.1875 
Q 26.21875 48.1875 22.15625 43.53125 
Q 18.109375 38.875 18.109375 30.90625 
L 18.109375 0 
L 9.078125 0 
L 9.078125 54.6875 
L 18.109375 54.6875 
L 18.109375 46.1875 
Q 21.1875 51.21875 25.484375 53.609375 
Q 29.78125 56 35.6875 56 
Q 41.65625 56 45.828125 52.96875 
Q 50 49.953125 52 44.1875 
z
" id="DejaVuSans-6d"/>
      <path d="M 56.203125 29.59375 
L 56.203125 25.203125 
L 14.890625 25.203125 
Q 15.484375 15.921875 20.484375 11.0625 
Q 25.484375 6.203125 34.421875 6.203125 
Q 39.59375 6.203125 44.453125 7.46875 
Q 49.3125 8.734375 54.109375 11.28125 
L 54.109375 2.78125 
Q 49.265625 0.734375 44.1875 -0.34375 
Q 39.109375 -1.421875 33.890625 -1.421875 
Q 20.796875 -1.421875 13.15625 6.1875 
Q 5.515625 13.8125 5.515625 26.8125 
Q 5.515625 40.234375 12.765625 48.109375 
Q 20.015625 56 32.328125 56 
Q 43.359375 56 49.78125 48.890625 
Q 56.203125 41.796875 56.203125 29.59375 
z
M 47.21875 32.234375 
Q 47.125 39.59375 43.09375 43.984375 
Q 39.0625 48.390625 32.421875 48.390625 
Q 24.90625 48.390625 20.390625 44.140625 
Q 15.875 39.890625 15.1875 32.171875 
z
" id="DejaVuSans-65"/>
      <path d="M 41.109375 46.296875 
Q 39.59375 47.171875 37.8125 47.578125 
Q 36.03125 48 33.890625 48 
Q 26.265625 48 22.1875 43.046875 
Q 18.109375 38.09375 18.109375 28.8125 
L 18.109375 0 
L 9.078125 0 
L 9.078125 54.6875 
L 18.109375 54.6875 
L 18.109375 46.1875 
Q 20.953125 51.171875 25.484375 53.578125 
Q 30.03125 56 36.53125 56 
Q 37.453125 56 38.578125 55.875 
Q 39.703125 55.765625 41.0625 55.515625 
z
" id="DejaVuSans-72"/>
      <path d="M 9.421875 54.6875 
L 18.40625 54.6875 
L 18.40625 0 
L 9.421875 0 
z
M 9.421875 75.984375 
L 18.40625 75.984375 
L 18.40625 64.59375 
L 9.421875 64.59375 
z
" id="DejaVuSans-69"/>
      <path d="M 48.78125 52.59375 
L 48.78125 44.1875 
Q 44.96875 46.296875 41.140625 47.34375 
Q 37.3125 48.390625 33.40625 48.390625 
Q 24.65625 48.390625 19.8125 42.84375 
Q 14.984375 37.3125 14.984375 27.296875 
Q 14.984375 17.28125 19.8125 11.734375 
Q 24.65625 6.203125 33.40625 6.203125 
Q 37.3125 6.203125 41.140625 7.25 
Q 44.96875 8.296875 48.78125 10.40625 
L 48.78125 2.09375 
Q 45.015625 0.34375 40.984375 -0.53125 
Q 36.96875 -1.421875 32.421875 -1.421875 
Q 20.0625 -1.421875 12.78125 6.34375 
Q 5.515625 14.109375 5.515625 27.296875 
Q 5.515625 40.671875 12.859375 48.328125 
Q 20.21875 56 33.015625 56 
Q 37.15625 56 41.109375 55.140625 
Q 45.0625 54.296875 48.78125 52.59375 
z
" id="DejaVuSans-63"/>
     </defs>
     <g transform="translate(105.14375 38.097656)scale(0.15 -0.15)">
      <use xlink:href="#DejaVuSans-4e"/>
      <use x="74.804688" xlink:href="#DejaVuSans-75"/>
      <use x="138.183594" xlink:href="#DejaVuSans-6d"/>
      <use x="235.595703" xlink:href="#DejaVuSans-65"/>
      <use x="297.119141" xlink:href="#DejaVuSans-72"/>
      <use x="338.232422" xlink:href="#DejaVuSans-69"/>
      <use x="366.015625" xlink:href="#DejaVuSans-63"/>
     </g>
    </g>
    <g id="patch_8">
     <path d="M 63.14375 60.114844 
L 93.14375 60.114844 
L 93.14375 49.614844 
L 63.14375 49.614844 
z
" style="fill:#4db8ff;"/>
    </g>
    <g id="text_16">
     <!-- SSA -->
     <defs>
      <path d="M 53.515625 70.515625 
L 53.515625 60.890625 
Q 47.90625 63.578125 42.921875 64.890625 
Q 37.9375 66.21875 33.296875 66.21875 
Q 25.25 66.21875 20.875 63.09375 
Q 16.5 59.96875 16.5 54.203125 
Q 16.5 49.359375 19.40625 46.890625 
Q 22.3125 44.4375 30.421875 42.921875 
L 36.375 41.703125 
Q 47.40625 39.59375 52.65625 34.296875 
Q 57.90625 29 57.90625 20.125 
Q 57.90625 9.515625 50.796875 4.046875 
Q 43.703125 -1.421875 29.984375 -1.421875 
Q 24.8125 -1.421875 18.96875 -0.25 
Q 13.140625 0.921875 6.890625 3.21875 
L 6.890625 13.375 
Q 12.890625 10.015625 18.65625 8.296875 
Q 24.421875 6.59375 29.984375 6.59375 
Q 38.421875 6.59375 43.015625 9.90625 
Q 47.609375 13.234375 47.609375 19.390625 
Q 47.609375 24.75 44.3125 27.78125 
Q 41.015625 30.8125 33.5 32.328125 
L 27.484375 33.5 
Q 16.453125 35.6875 11.515625 40.375 
Q 6.59375 45.0625 6.59375 53.421875 
Q 6.59375 63.09375 13.40625 68.65625 
Q 20.21875 74.21875 32.171875 74.21875 
Q 37.3125 74.21875 42.625 73.28125 
Q 47.953125 72.359375 53.515625 70.515625 
z
" id="DejaVuSans-53"/>
      <path d="M 34.1875 63.1875 
L 20.796875 26.90625 
L 47.609375 26.90625 
z
M 28.609375 72.90625 
L 39.796875 72.90625 
L 67.578125 0 
L 57.328125 0 
L 50.6875 18.703125 
L 17.828125 18.703125 
L 11.1875 0 
L 0.78125 0 
z
" id="DejaVuSans-41"/>
     </defs>
     <g transform="translate(105.14375 60.114844)scale(0.15 -0.15)">
      <use xlink:href="#DejaVuSans-53"/>
      <use x="63.476562" xlink:href="#DejaVuSans-53"/>
      <use x="126.96875" xlink:href="#DejaVuSans-41"/>
     </g>
    </g>
   </g>
  </g>
  <g id="axes_2">
   <g id="patch_9">
    <path d="M 428.113315 230.64 
L 719.24375 230.64 
L 719.24375 13.2 
L 428.113315 13.2 
z
" style="fill:#ffffff;"/>
   </g>
   <g id="PolyCollection_2">
    <path clip-path="url(#pbc74c9cc1b)" d="M 436.431328 220.810694 
L 436.431328 220.810694 
L 436.431328 220.810694 
L 436.431328 220.810694 
z
" style="fill:#4db8ff;"/>
    <path clip-path="url(#pbc74c9cc1b)" d="M 444.74934 220.270757 
L 444.74934 220.312526 
L 448.908346 217.40091 
L 453.067352 206.791195 
L 457.226359 185.472044 
L 461.385365 145.539656 
L 465.544371 99.083008 
L 469.703377 57.639428 
L 473.862384 47.690383 
L 478.02139 75.692114 
L 482.180396 128.081205 
L 486.339402 173.86388 
L 490.498408 190.690451 
L 494.657415 190.39657 
L 498.816421 172.998004 
L 502.975427 138.673112 
L 507.134433 96.177883 
L 511.293439 59.071764 
L 515.452446 46.426213 
L 519.611452 65.642737 
L 523.770458 111.785799 
L 527.929464 156.332001 
L 532.08847 181.243626 
L 536.247477 184.957226 
L 540.406483 168.358807 
L 544.565489 132.853705 
L 548.724495 94.416776 
L 552.883502 59.097355 
L 557.042508 46.395147 
L 561.201514 64.202775 
L 565.36052 108.378571 
L 569.519526 160.286201 
L 573.678533 183.811878 
L 577.837539 183.070972 
L 581.996545 165.501683 
L 586.155551 134.523318 
L 590.314557 93.406698 
L 594.473564 59.281482 
L 598.63257 46.361352 
L 602.791576 65.550428 
L 606.950582 108.024339 
L 611.109589 149.661892 
L 615.268595 176.229645 
L 619.427601 177.563269 
L 623.586607 163.970376 
L 627.745613 135.099865 
L 631.90462 94.929654 
L 636.063626 59.292807 
L 640.222632 46.084849 
L 644.381638 63.108989 
L 648.540644 108.038078 
L 652.699651 151.723944 
L 656.858657 177.062085 
L 661.017663 179.727275 
L 665.176669 161.238435 
L 669.335675 129.943008 
L 673.494682 89.086551 
L 677.653688 57.42049 
L 681.812694 46.16706 
L 685.9717 65.389039 
L 690.130707 108.342584 
L 694.289713 152.11615 
L 698.448719 180.170859 
L 702.607725 182.201666 
L 706.766731 167.045655 
L 710.925738 134.752968 
L 715.084744 92.547602 
L 719.24375 59.627243 
L 723.402756 46.22692 
L 727.561762 66.828114 
L 731.720769 107.948113 
L 735.879775 151.54991 
L 740.038781 179.70844 
L 744.197787 181.834535 
L 748.356793 164.66771 
L 752.5158 132.331148 
L 756.674806 94.248007 
L 760.833812 59.77653 
L 764.992818 46.227937 
L 769.151825 62.630332 
L 773.310831 105.652345 
L 777.469837 147.149156 
L 781.628843 177.459988 
L 785.787849 180.339612 
L 789.946856 164.397149 
L 794.105862 131.87103 
L 798.264868 93.60216 
L 802.423874 58.851736 
L 806.58288 46.064401 
L 810.741887 64.15896 
L 814.900893 106.242472 
L 819.059899 150.541352 
L 823.218905 175.475441 
L 827.377911 177.566836 
L 831.536918 162.359574 
L 835.695924 129.049764 
L 839.85493 91.903161 
L 844.013936 57.871133 
L 844.013936 37.757299 
L 844.013936 37.757299 
L 839.85493 76.602747 
L 835.695924 118.702463 
L 831.536918 156.142788 
L 827.377911 173.119548 
L 823.218905 170.789691 
L 819.059899 142.896474 
L 814.900893 92.893555 
L 810.741887 44.952859 
L 806.58288 24.22458 
L 802.423874 38.879996 
L 798.264868 78.535442 
L 794.105862 121.885767 
L 789.946856 158.422073 
L 785.787849 176.205921 
L 781.628843 173.000556 
L 777.469837 139.086477 
L 773.310831 92.224064 
L 769.151825 43.204298 
L 764.992818 24.41221 
L 760.833812 39.938619 
L 756.674806 79.269953 
L 752.5158 122.404728 
L 748.356793 158.724626 
L 744.197787 177.868678 
L 740.038781 175.503624 
L 735.879775 144.02859 
L 731.720769 94.828116 
L 727.561762 48.004885 
L 723.402756 24.411043 
L 719.24375 39.76774 
L 715.084744 77.335908 
L 710.925738 125.135324 
L 706.766731 161.382692 
L 702.607725 178.276892 
L 698.448719 176.018166 
L 694.289713 144.664065 
L 690.130707 95.27543 
L 685.9717 46.359568 
L 681.812694 24.342365 
L 677.653688 37.24129 
L 673.494682 73.397282 
L 669.335675 119.710561 
L 665.176669 154.888071 
L 661.017663 175.524584 
L 656.858657 172.557394 
L 652.699651 144.223913 
L 648.540644 94.930136 
L 644.381638 43.751874 
L 640.222632 24.24804 
L 636.063626 39.384917 
L 631.90462 80.045075 
L 627.745613 125.526319 
L 623.586607 157.944788 
L 619.427601 173.115575 
L 615.268595 171.630078 
L 611.109589 141.909023 
L 606.950582 94.914556 
L 602.791576 46.544108 
L 598.63257 24.565279 
L 594.473564 39.371954 
L 590.314557 78.313127 
L 586.155551 124.876462 
L 581.996545 159.657058 
L 577.837539 179.24326 
L 573.678533 180.066651 
L 569.519526 153.822063 
L 565.36052 95.316237 
L 561.201514 45.002971 
L 557.042508 24.604052 
L 552.883502 39.161176 
L 548.724495 79.461876 
L 544.565489 122.994043 
L 540.406483 162.849711 
L 536.247477 181.339069 
L 532.08847 177.211533 
L 527.929464 149.392312 
L 523.770458 99.178309 
L 519.611452 46.649656 
L 515.452446 24.639694 
L 511.293439 39.131881 
L 507.134433 81.464202 
L 502.975427 129.551878 
L 498.816421 168.027687 
L 494.657415 187.374322 
L 490.498408 187.700032 
L 486.339402 168.993276 
L 482.180396 117.609126 
L 478.02139 58.129672 
L 473.862384 26.089901 
L 469.703377 37.491991 
L 465.544371 84.765687 
L 461.385365 137.277557 
L 457.226359 181.910828 
L 453.067352 205.478773 
L 448.908346 217.102563 
L 444.74934 220.270757 
z
" style="fill:#4db8ff;"/>
   </g>
   <g id="matplotlib.axis_3">
    <g id="xtick_9">
     <g id="line2d_39">
      <path clip-path="url(#pbc74c9cc1b)" d="M 428.113315 230.64 
L 428.113315 13.2 
" style="fill:none;stroke:#b0b0b0;stroke-linecap:square;stroke-width:0.8;"/>
     </g>
     <g id="line2d_40">
      <g>
       <use x="428.113315" xlink:href="#mf21ea4f5d2" y="230.64"/>
      </g>
     </g>
     <g id="text_17">
      <!-- 0 -->
      <g transform="translate(423.34144 251.537656)scale(0.15 -0.15)">
       <use xlink:href="#DejaVuSans-30"/>
      </g>
     </g>
    </g>
    <g id="xtick_10">
     <g id="line2d_41">
      <path clip-path="url(#pbc74c9cc1b)" d="M 469.703377 230.64 
L 469.703377 13.2 
" style="fill:none;stroke:#b0b0b0;stroke-linecap:square;stroke-width:0.8;"/>
     </g>
     <g id="line2d_42">
      <g>
       <use x="469.703377" xlink:href="#mf21ea4f5d2" y="230.64"/>
      </g>
     </g>
     <g id="text_18">
      <!-- 1 -->
      <g transform="translate(464.931502 251.537656)scale(0.15 -0.15)">
       <use xlink:href="#DejaVuSans-31"/>
      </g>
     </g>
    </g>
    <g id="xtick_11">
     <g id="line2d_43">
      <path clip-path="url(#pbc74c9cc1b)" d="M 511.293439 230.64 
L 511.293439 13.2 
" style="fill:none;stroke:#b0b0b0;stroke-linecap:square;stroke-width:0.8;"/>
     </g>
     <g id="line2d_44">
      <g>
       <use x="511.293439" xlink:href="#mf21ea4f5d2" y="230.64"/>
      </g>
     </g>
     <g id="text_19">
      <!-- 2 -->
      <g transform="translate(506.521564 251.537656)scale(0.15 -0.15)">
       <use xlink:href="#DejaVuSans-32"/>
      </g>
     </g>
    </g>
    <g id="xtick_12">
     <g id="line2d_45">
      <path clip-path="url(#pbc74c9cc1b)" d="M 552.883502 230.64 
L 552.883502 13.2 
" style="fill:none;stroke:#b0b0b0;stroke-linecap:square;stroke-width:0.8;"/>
     </g>
     <g id="line2d_46">
      <g>
       <use x="552.883502" xlink:href="#mf21ea4f5d2" y="230.64"/>
      </g>
     </g>
     <g id="text_20">
      <!-- 3 -->
      <g transform="translate(548.111627 251.537656)scale(0.15 -0.15)">
       <use xlink:href="#DejaVuSans-33"/>
      </g>
     </g>
    </g>
    <g id="xtick_13">
     <g id="line2d_47">
      <path clip-path="url(#pbc74c9cc1b)" d="M 594.473564 230.64 
L 594.473564 13.2 
" style="fill:none;stroke:#b0b0b0;stroke-linecap:square;stroke-width:0.8;"/>
     </g>
     <g id="line2d_48">
      <g>
       <use x="594.473564" xlink:href="#mf21ea4f5d2" y="230.64"/>
      </g>
     </g>
     <g id="text_21">
      <!-- 4 -->
      <g transform="translate(589.701689 251.537656)scale(0.15 -0.15)">
       <use xlink:href="#DejaVuSans-34"/>
      </g>
     </g>
    </g>
    <g id="xtick_14">
     <g id="line2d_49">
      <path clip-path="url(#pbc74c9cc1b)" d="M 636.063626 230.64 
L 636.063626 13.2 
" style="fill:none;stroke:#b0b0b0;stroke-linecap:square;stroke-width:0.8;"/>
     </g>
     <g id="line2d_50">
      <g>
       <use x="636.063626" xlink:href="#mf21ea4f5d2" y="230.64"/>
      </g>
     </g>
     <g id="text_22">
      <!-- 5 -->
      <g transform="translate(631.291751 251.537656)scale(0.15 -0.15)">
       <use xlink:href="#DejaVuSans-35"/>
      </g>
     </g>
    </g>
    <g id="xtick_15">
     <g id="line2d_51">
      <path clip-path="url(#pbc74c9cc1b)" d="M 677.653688 230.64 
L 677.653688 13.2 
" style="fill:none;stroke:#b0b0b0;stroke-linecap:square;stroke-width:0.8;"/>
     </g>
     <g id="line2d_52">
      <g>
       <use x="677.653688" xlink:href="#mf21ea4f5d2" y="230.64"/>
      </g>
     </g>
     <g id="text_23">
      <!-- 6 -->
      <g transform="translate(672.881813 251.537656)scale(0.15 -0.15)">
       <use xlink:href="#DejaVuSans-36"/>
      </g>
     </g>
    </g>
    <g id="xtick_16">
     <g id="line2d_53">
      <path clip-path="url(#pbc74c9cc1b)" d="M 719.24375 230.64 
L 719.24375 13.2 
" style="fill:none;stroke:#b0b0b0;stroke-linecap:square;stroke-width:0.8;"/>
     </g>
     <g id="line2d_54">
      <g>
       <use x="719.24375" xlink:href="#mf21ea4f5d2" y="230.64"/>
      </g>
     </g>
     <g id="text_24">
      <!-- 7 -->
      <g transform="translate(714.471875 251.537656)scale(0.15 -0.15)">
       <use xlink:href="#DejaVuSans-37"/>
      </g>
     </g>
    </g>
    <g id="text_25">
     <!-- $t/\tau$ -->
     <g transform="translate(560.278533 273.854062)scale(0.2 -0.2)">
      <use transform="translate(0 0.09375)" xlink:href="#DejaVuSans-Oblique-74"/>
      <use transform="translate(39.208984 0.09375)" xlink:href="#DejaVuSans-2f"/>
      <use transform="translate(72.900391 0.09375)" xlink:href="#DejaVuSans-Oblique-3c4"/>
     </g>
    </g>
   </g>
   <g id="matplotlib.axis_4">
    <g id="ytick_5">
     <g id="line2d_55">
      <path clip-path="url(#pbc74c9cc1b)" d="M 428.113315 220.810694 
L 719.24375 220.810694 
" style="fill:none;stroke:#b0b0b0;stroke-linecap:square;stroke-width:0.8;"/>
     </g>
     <g id="line2d_56">
      <g>
       <use x="428.113315" xlink:href="#md29b0940ec" y="220.810694"/>
      </g>
     </g>
     <g id="text_26">
      <!-- 0.00 -->
      <defs>
       <path d="M 10.6875 12.40625 
L 21 12.40625 
L 21 0 
L 10.6875 0 
z
" id="DejaVuSans-2e"/>
      </defs>
      <g transform="translate(385.214878 226.509522)scale(0.15 -0.15)">
       <use xlink:href="#DejaVuSans-30"/>
       <use x="63.623047" xlink:href="#DejaVuSans-2e"/>
       <use x="95.410156" xlink:href="#DejaVuSans-30"/>
       <use x="159.033203" xlink:href="#DejaVuSans-30"/>
      </g>
     </g>
    </g>
    <g id="ytick_6">
     <g id="line2d_57">
      <path clip-path="url(#pbc74c9cc1b)" d="M 428.113315 191.152024 
L 719.24375 191.152024 
" style="fill:none;stroke:#b0b0b0;stroke-linecap:square;stroke-width:0.8;"/>
     </g>
     <g id="line2d_58">
      <g>
       <use x="428.113315" xlink:href="#md29b0940ec" y="191.152024"/>
      </g>
     </g>
     <g id="text_27">
      <!-- 0.02 -->
      <g transform="translate(385.214878 196.850852)scale(0.15 -0.15)">
       <use xlink:href="#DejaVuSans-30"/>
       <use x="63.623047" xlink:href="#DejaVuSans-2e"/>
       <use x="95.410156" xlink:href="#DejaVuSans-30"/>
       <use x="159.033203" xlink:href="#DejaVuSans-32"/>
      </g>
     </g>
    </g>
    <g id="ytick_7">
     <g id="line2d_59">
      <path clip-path="url(#pbc74c9cc1b)" d="M 428.113315 161.493353 
L 719.24375 161.493353 
" style="fill:none;stroke:#b0b0b0;stroke-linecap:square;stroke-width:0.8;"/>
     </g>
     <g id="line2d_60">
      <g>
       <use x="428.113315" xlink:href="#md29b0940ec" y="161.493353"/>
      </g>
     </g>
     <g id="text_28">
      <!-- 0.04 -->
      <g transform="translate(385.214878 167.192181)scale(0.15 -0.15)">
       <use xlink:href="#DejaVuSans-30"/>
       <use x="63.623047" xlink:href="#DejaVuSans-2e"/>
       <use x="95.410156" xlink:href="#DejaVuSans-30"/>
       <use x="159.033203" xlink:href="#DejaVuSans-34"/>
      </g>
     </g>
    </g>
    <g id="ytick_8">
     <g id="line2d_61">
      <path clip-path="url(#pbc74c9cc1b)" d="M 428.113315 131.834682 
L 719.24375 131.834682 
" style="fill:none;stroke:#b0b0b0;stroke-linecap:square;stroke-width:0.8;"/>
     </g>
     <g id="line2d_62">
      <g>
       <use x="428.113315" xlink:href="#md29b0940ec" y="131.834682"/>
      </g>
     </g>
     <g id="text_29">
      <!-- 0.06 -->
      <g transform="translate(385.214878 137.533511)scale(0.15 -0.15)">
       <use xlink:href="#DejaVuSans-30"/>
       <use x="63.623047" xlink:href="#DejaVuSans-2e"/>
       <use x="95.410156" xlink:href="#DejaVuSans-30"/>
       <use x="159.033203" xlink:href="#DejaVuSans-36"/>
      </g>
     </g>
    </g>
    <g id="ytick_9">
     <g id="line2d_63">
      <path clip-path="url(#pbc74c9cc1b)" d="M 428.113315 102.176012 
L 719.24375 102.176012 
" style="fill:none;stroke:#b0b0b0;stroke-linecap:square;stroke-width:0.8;"/>
     </g>
     <g id="line2d_64">
      <g>
       <use x="428.113315" xlink:href="#md29b0940ec" y="102.176012"/>
      </g>
     </g>
     <g id="text_30">
      <!-- 0.08 -->
      <g transform="translate(385.214878 107.87484)scale(0.15 -0.15)">
       <use xlink:href="#DejaVuSans-30"/>
       <use x="63.623047" xlink:href="#DejaVuSans-2e"/>
       <use x="95.410156" xlink:href="#DejaVuSans-30"/>
       <use x="159.033203" xlink:href="#DejaVuSans-38"/>
      </g>
     </g>
    </g>
    <g id="ytick_10">
     <g id="line2d_65">
      <path clip-path="url(#pbc74c9cc1b)" d="M 428.113315 72.517341 
L 719.24375 72.517341 
" style="fill:none;stroke:#b0b0b0;stroke-linecap:square;stroke-width:0.8;"/>
     </g>
     <g id="line2d_66">
      <g>
       <use x="428.113315" xlink:href="#md29b0940ec" y="72.517341"/>
      </g>
     </g>
     <g id="text_31">
      <!-- 0.10 -->
      <g transform="translate(385.214878 78.216169)scale(0.15 -0.15)">
       <use xlink:href="#DejaVuSans-30"/>
       <use x="63.623047" xlink:href="#DejaVuSans-2e"/>
       <use x="95.410156" xlink:href="#DejaVuSans-31"/>
       <use x="159.033203" xlink:href="#DejaVuSans-30"/>
      </g>
     </g>
    </g>
    <g id="ytick_11">
     <g id="line2d_67">
      <path clip-path="url(#pbc74c9cc1b)" d="M 428.113315 42.858671 
L 719.24375 42.858671 
" style="fill:none;stroke:#b0b0b0;stroke-linecap:square;stroke-width:0.8;"/>
     </g>
     <g id="line2d_68">
      <g>
       <use x="428.113315" xlink:href="#md29b0940ec" y="42.858671"/>
      </g>
     </g>
     <g id="text_32">
      <!-- 0.12 -->
      <g transform="translate(385.214878 48.557499)scale(0.15 -0.15)">
       <use xlink:href="#DejaVuSans-30"/>
       <use x="63.623047" xlink:href="#DejaVuSans-2e"/>
       <use x="95.410156" xlink:href="#DejaVuSans-31"/>
       <use x="159.033203" xlink:href="#DejaVuSans-32"/>
      </g>
     </g>
    </g>
    <g id="ytick_12">
     <g id="line2d_69">
      <path clip-path="url(#pbc74c9cc1b)" d="M 428.113315 13.2 
L 719.24375 13.2 
" style="fill:none;stroke:#b0b0b0;stroke-linecap:square;stroke-width:0.8;"/>
     </g>
     <g id="line2d_70">
      <g>
       <use x="428.113315" xlink:href="#md29b0940ec" y="13.2"/>
      </g>
     </g>
     <g id="text_33">
      <!-- 0.14 -->
      <g transform="translate(385.214878 18.898828)scale(0.15 -0.15)">
       <use xlink:href="#DejaVuSans-30"/>
       <use x="63.623047" xlink:href="#DejaVuSans-2e"/>
       <use x="95.410156" xlink:href="#DejaVuSans-31"/>
       <use x="159.033203" xlink:href="#DejaVuSans-34"/>
      </g>
     </g>
    </g>
    <g id="text_34">
     <!-- $C_V^2(s)$ -->
     <defs>
      <path d="M 69.484375 67.28125 
L 67.484375 56.890625 
Q 62.796875 61.625 57.546875 63.921875 
Q 52.296875 66.21875 46.1875 66.21875 
Q 37.84375 66.21875 31.515625 62.203125 
Q 25.203125 58.203125 20.609375 50 
Q 17.671875 44.734375 16.125 38.84375 
Q 14.59375 32.953125 14.59375 27 
Q 14.59375 17.046875 19.75 11.8125 
Q 24.90625 6.59375 34.71875 6.59375 
Q 41.5 6.59375 47.75 8.765625 
Q 54 10.9375 59.90625 15.28125 
L 57.625 3.609375 
Q 51.8125 1.125 45.875 -0.140625 
Q 39.9375 -1.421875 33.984375 -1.421875 
Q 19.96875 -1.421875 12.078125 6.1875 
Q 4.203125 13.8125 4.203125 27.390625 
Q 4.203125 36.078125 7.203125 44.46875 
Q 10.203125 52.875 15.828125 59.8125 
Q 21.78125 67.1875 29.421875 70.703125 
Q 37.0625 74.21875 47.21875 74.21875 
Q 53.46875 74.21875 59.0625 72.484375 
Q 64.65625 70.75 69.484375 67.28125 
z
" id="DejaVuSans-Oblique-43"/>
      <path d="M 20.609375 0 
L 7.8125 72.90625 
L 17.484375 72.90625 
L 28.078125 10.203125 
L 63.484375 72.90625 
L 74.21875 72.90625 
L 32.078125 0 
z
" id="DejaVuSans-Oblique-56"/>
     </defs>
     <g transform="translate(375.614878 147.42)rotate(-90)scale(0.2 -0.2)">
      <use transform="translate(0 0.765625)" xlink:href="#DejaVuSans-Oblique-43"/>
      <use transform="translate(77.02474 39.046875)scale(0.7)" xlink:href="#DejaVuSans-32"/>
      <use transform="translate(69.824219 -26.578125)scale(0.7)" xlink:href="#DejaVuSans-Oblique-56"/>
      <use transform="translate(124.295247 0.765625)" xlink:href="#DejaVuSans-28"/>
      <use transform="translate(163.308919 0.765625)" xlink:href="#DejaVuSans-Oblique-73"/>
      <use transform="translate(215.408529 0.765625)" xlink:href="#DejaVuSans-29"/>
     </g>
    </g>
   </g>
   <g id="line2d_71">
    <path clip-path="url(#pbc74c9cc1b)" d="M 428.113315 220.810694 
L 432.272321 220.810694 
L 436.431328 220.810694 
L 440.590334 220.810694 
L 444.74934 220.291642 
L 448.908346 217.251737 
L 453.067352 206.134984 
L 457.226359 183.691436 
L 461.385365 141.408607 
L 465.544371 91.924347 
L 469.703377 47.56571 
L 473.862384 36.890142 
L 478.02139 66.910893 
L 482.180396 122.845165 
L 486.339402 171.428578 
L 490.498408 189.195241 
L 494.657415 188.885446 
L 498.816421 170.512845 
L 502.975427 134.112495 
L 507.134433 88.821043 
L 511.293439 49.101823 
L 515.452446 35.532954 
L 519.611452 56.146196 
L 523.770458 105.482054 
L 527.929464 152.862157 
L 532.08847 179.227579 
L 536.247477 183.148148 
L 540.406483 165.604259 
L 544.565489 127.923874 
L 548.724495 86.939326 
L 552.883502 49.129266 
L 557.042508 35.4996 
L 561.201514 54.602873 
L 565.36052 101.847404 
L 569.519526 157.054132 
L 573.678533 181.939264 
L 577.837539 181.157116 
L 581.996545 162.57937 
L 586.155551 129.69989 
L 590.314557 85.859913 
L 594.473564 49.326718 
L 598.63257 35.463315 
L 602.791576 56.047268 
L 606.950582 101.469447 
L 611.109589 145.785457 
L 615.268595 173.929862 
L 619.427601 175.339422 
L 623.586607 160.957582 
L 627.745613 130.313092 
L 631.90462 87.487365 
L 636.063626 49.338862 
L 640.222632 35.166444 
L 644.381638 53.430432 
L 648.540644 101.484107 
L 652.699651 147.973928 
L 656.858657 174.809739 
L 661.017663 177.62593 
L 665.176669 158.063253 
L 669.335675 124.826785 
L 673.494682 81.241916 
L 677.653688 47.33089 
L 681.812694 35.254713 
L 685.9717 55.874304 
L 690.130707 101.809007 
L 694.289713 148.390107 
L 698.448719 178.094513 
L 702.607725 180.239279 
L 706.766731 164.214174 
L 710.925738 129.944146 
L 715.084744 84.941755 
L 719.24375 49.697491 
L 723.402756 35.318982 
L 727.561762 57.416499 
L 731.720769 101.388114 
L 733.44375 120.611046 
" style="fill:none;stroke:#1f77b4;stroke-linecap:square;stroke-width:1.5;"/>
   </g>
   <g id="line2d_72">
    <path clip-path="url(#pbc74c9cc1b)" d="M 428.113315 220.810694 
L 441.422135 220.711518 
L 443.501638 220.468274 
L 444.74934 220.156641 
L 445.997042 219.634316 
L 447.244744 218.803251 
L 448.076545 218.018016 
L 448.908346 216.999103 
L 449.740148 215.699917 
L 450.571949 214.070332 
L 451.40375 212.057671 
L 452.235551 209.607947 
L 453.067352 206.667348 
L 454.315054 201.223486 
L 455.562756 194.402315 
L 456.810458 186.082419 
L 458.05816 176.195162 
L 459.305862 164.742401 
L 460.969464 147.206191 
L 463.048967 122.413828 
L 467.207974 71.101549 
L 468.455675 58.023955 
L 469.703377 47.330109 
L 470.535179 41.875 
L 471.36698 37.971101 
L 471.78288 36.647045 
L 472.198781 35.760885 
L 472.614682 35.323285 
L 473.030582 35.341572 
L 473.446483 35.819546 
L 473.862384 36.757334 
L 474.278284 38.151293 
L 475.110085 42.274103 
L 475.941887 48.083305 
L 476.773688 55.417414 
L 478.02139 68.804791 
L 479.684992 89.727475 
L 483.428098 138.754318 
L 485.0917 157.138083 
L 486.339402 168.534774 
L 487.587104 177.664214 
L 488.418905 182.466019 
L 489.250707 186.25292 
L 490.082508 189.051265 
L 490.914309 190.895547 
L 491.33021 191.471874 
L 491.74611 191.82423 
L 492.162011 191.957517 
L 492.577911 191.876537 
L 492.993812 191.585947 
L 493.409713 191.090222 
L 494.241514 189.500256 
L 495.073315 187.138326 
L 495.905116 184.033036 
L 496.736918 180.210664 
L 497.98462 173.187663 
L 499.232321 164.696356 
L 500.480023 154.840933 
L 502.143626 139.817117 
L 504.223129 118.67188 
L 509.629837 62.053707 
L 510.877539 51.595432 
L 512.125241 43.281975 
L 512.957042 39.192067 
L 513.788843 36.422205 
L 514.204744 35.56698 
L 514.620644 35.079546 
L 515.036545 34.968142 
L 515.452446 35.238587 
L 515.868346 35.894133 
L 516.284247 36.935337 
L 517.116048 40.162945 
L 517.947849 44.869283 
L 518.779651 50.956898 
L 520.027352 62.360909 
L 521.275054 75.923675 
L 523.770458 106.452262 
L 526.265862 136.297148 
L 527.929464 153.260321 
L 529.177166 163.735214 
L 530.424868 172.042414 
L 531.256669 176.332497 
L 532.08847 179.622123 
L 532.920272 181.925711 
L 533.752073 183.267535 
L 534.167974 183.587189 
L 534.583874 183.678218 
L 534.999775 183.544979 
L 535.415675 183.19192 
L 535.831576 182.623527 
L 536.663377 180.858691 
L 537.495179 178.286133 
L 538.32698 174.941032 
L 539.158781 170.858373 
L 540.406483 163.429639 
L 541.654185 154.550311 
L 543.317787 140.715135 
L 545.39729 120.861842 
L 551.6358 58.3229 
L 552.883502 48.704106 
L 553.715303 43.471641 
L 554.547104 39.356095 
L 555.378905 36.488071 
L 555.794806 35.556628 
L 556.210707 34.975342 
L 556.626607 34.753069 
L 557.042508 34.896473 
L 557.458408 35.409871 
L 557.874309 36.2951 
L 558.29021 37.551411 
L 559.122011 41.160926 
L 559.953812 46.178641 
L 560.785613 52.502123 
L 562.033315 64.114604 
L 563.696918 82.568217 
L 568.687725 141.417068 
L 569.935427 153.425688 
L 571.183129 163.462613 
L 572.430831 171.334008 
L 573.262632 175.337534 
L 574.094433 178.344462 
L 574.926234 180.36917 
L 575.342135 181.020398 
L 575.758036 181.435617 
L 576.173936 181.618782 
L 576.589837 181.574074 
L 577.005738 181.305833 
L 577.421638 180.818509 
L 578.253439 179.204697 
L 579.085241 176.769041 
L 579.917042 173.548056 
L 580.748843 169.578439 
L 581.996545 162.302666 
L 583.244247 153.562007 
L 584.907849 139.898805 
L 586.987352 120.250862 
L 593.225862 58.211179 
L 594.473564 48.634199 
L 595.305365 43.411578 
L 596.137166 39.29011 
L 596.968967 36.399868 
L 597.384868 35.451223 
L 597.800769 34.848775 
L 598.216669 34.601517 
L 598.63257 34.716301 
L 599.04847 35.19768 
L 599.464371 36.047776 
L 599.880272 37.26617 
L 600.712073 40.793025 
L 601.543874 45.721861 
L 602.375675 51.954041 
L 603.623377 63.433694 
L 605.28698 81.737312 
L 610.693688 144.691555 
L 611.94139 156.127084 
L 613.189092 165.526342 
L 614.020893 170.57793 
L 614.852694 174.633072 
L 615.684495 177.691058 
L 616.516297 179.764935 
L 616.932197 180.439723 
L 617.348098 180.877697 
L 617.763998 181.082744 
L 618.179899 181.058998 
L 618.5958 180.810771 
L 619.0117 180.342499 
L 619.843502 178.763925 
L 620.675303 176.359834 
L 621.507104 173.167046 
L 622.338905 169.22266 
L 623.586607 161.980172 
L 624.834309 153.268701 
L 626.497911 139.640398 
L 628.161514 124.135628 
L 631.072818 94.389393 
L 633.568222 69.272449 
L 635.231825 54.690323 
L 636.479526 45.776773 
L 637.311328 41.086593 
L 638.143129 37.561731 
L 638.97493 35.321984 
L 639.390831 34.714747 
L 639.806731 34.461957 
L 640.222632 34.570511 
L 640.638533 35.045017 
L 641.054433 35.887663 
L 641.470334 37.098105 
L 642.302135 40.607895 
L 643.133936 45.51876 
L 643.965738 51.732903 
L 645.213439 63.187261 
L 646.877042 81.464567 
L 652.28375 144.424612 
L 653.531452 155.878024 
L 654.779154 165.297712 
L 655.610955 170.363383 
L 656.442756 174.432396 
L 657.274557 177.503638 
L 658.106359 179.589842 
L 658.522259 180.270375 
L 658.93816 180.713784 
L 659.354061 180.923945 
L 659.769961 180.904982 
L 660.185862 180.661201 
L 660.601762 180.197037 
L 661.433564 178.62568 
L 662.265365 176.227525 
L 663.097166 173.039482 
L 663.928967 169.098766 
L 665.176669 161.860055 
L 666.424371 153.15069 
L 668.087974 139.523321 
L 669.751576 124.018091 
L 672.66288 94.26926 
L 675.158284 69.148905 
L 676.821887 54.56381 
L 678.069589 45.647599 
L 678.90139 40.955439 
L 679.733191 37.428461 
L 680.564992 35.186506 
L 680.980893 34.57815 
L 681.396793 34.324246 
L 681.812694 34.431703 
L 682.228595 34.905143 
L 682.644495 35.746767 
L 683.060396 36.956248 
L 683.892197 40.464365 
L 684.723998 45.374004 
L 685.5558 51.587504 
L 686.803502 63.042262 
L 688.467104 81.323106 
L 693.873812 144.31619 
L 695.121514 155.779325 
L 696.369216 165.208266 
L 697.201017 170.279583 
L 698.032818 174.353679 
L 698.86462 177.429347 
L 699.696421 179.519253 
L 700.112321 180.201351 
L 700.528222 180.646133 
L 700.944123 180.85747 
L 701.360023 180.839488 
L 701.775924 180.596494 
L 702.191825 180.132924 
L 703.023626 178.562192 
L 703.855427 176.163936 
L 704.687228 172.975108 
L 705.51903 169.032971 
L 706.766731 161.791048 
L 708.014433 153.077341 
L 709.678036 139.442749 
L 711.341638 123.92908 
L 714.252943 94.163986 
L 716.748346 69.029982 
L 718.411949 54.436959 
L 719.659651 45.515855 
L 720.491452 40.82108 
L 721.323253 37.292088 
L 722.155054 35.048787 
L 722.570955 34.440028 
L 722.986856 34.185908 
L 723.402756 34.293341 
L 723.818657 34.766955 
L 724.234557 35.608955 
L 724.650458 36.819014 
L 725.482259 40.3289 
L 726.314061 45.241119 
L 727.145862 51.457983 
L 728.393564 62.919144 
L 730.057166 81.210637 
L 733.44375 122.169783 
L 733.44375 122.169783 
" style="fill:none;stroke:#008000;stroke-dasharray:7.4,3.2;stroke-dashoffset:0;stroke-width:2;"/>
   </g>
   <g id="patch_10">
    <path d="M 428.113315 230.64 
L 428.113315 13.2 
" style="fill:none;stroke:#000000;stroke-linecap:square;stroke-linejoin:miter;stroke-width:2;"/>
   </g>
   <g id="patch_11">
    <path d="M 719.24375 230.64 
L 719.24375 13.2 
" style="fill:none;"/>
   </g>
   <g id="patch_12">
    <path d="M 428.113315 230.64 
L 719.24375 230.64 
" style="fill:none;stroke:#000000;stroke-linecap:square;stroke-linejoin:miter;stroke-width:2;"/>
   </g>
   <g id="patch_13">
    <path d="M 428.113315 13.2 
L 719.24375 13.2 
" style="fill:none;"/>
   </g>
  </g>
 </g>
 <defs>
  <clipPath id="p52e9e75a3a">
   <rect height="217.44" width="291.130435" x="49.64375" y="13.2"/>
  </clipPath>
  <clipPath id="pbc74c9cc1b">
   <rect height="217.44" width="291.130435" x="428.113315" y="13.2"/>
  </clipPath>
 </defs>
</svg>
