<?xml version="1.0" encoding="utf-8" standalone="no"?>
<!DOCTYPE svg PUBLIC "-//W3C//DTD SVG 1.1//EN"
  "http://www.w3.org/Graphics/SVG/1.1/DTD/svg11.dtd">
<!-- Created with matplotlib (http://matplotlib.org/) -->
<svg height="285.213437pt" version="1.1" viewBox="0 0 746.754688 285.213437" width="746.754688pt" xmlns="http://www.w3.org/2000/svg" xmlns:xlink="http://www.w3.org/1999/xlink">
 <defs>
  <style type="text/css">
*{stroke-linecap:butt;stroke-linejoin:round;}
  </style>
 </defs>
 <g id="figure_1">
  <g id="patch_1">
   <path d="M 0 285.213437 
L 746.754688 285.213437 
L 746.754688 0 
L 0 0 
z
" style="fill:#ffffff;"/>
  </g>
  <g id="axes_1">
   <g id="patch_2">
    <path d="M 63.954687 230.64 
L 355.085122 230.64 
L 355.085122 13.2 
L 63.954687 13.2 
z
" style="fill:#ffffff;"/>
   </g>
   <g id="PolyCollection_1">
    <defs>
     <path d="M 63.954687 -55.649998 
L 63.954687 -53.496877 
L 68.113694 -76.378082 
L 72.2727 -100.91151 
L 76.431706 -127.21786 
L 80.590712 -154.515514 
L 84.749719 -181.904771 
L 88.908725 -206.187877 
L 93.067731 -219.097172 
L 97.226737 -219.758427 
L 101.385743 -208.179271 
L 105.54475 -193.179557 
L 109.703756 -178.976629 
L 113.862762 -169.357276 
L 118.021768 -168.879775 
L 122.180774 -174.649286 
L 126.339781 -185.567811 
L 130.498787 -195.220343 
L 134.657793 -202.324891 
L 138.816799 -203.454156 
L 142.975806 -199.781531 
L 147.134812 -193.823384 
L 151.293818 -185.891029 
L 155.452824 -181.24064 
L 159.61183 -178.409601 
L 163.770837 -181.825217 
L 167.929843 -189.8391 
L 172.088849 -195.612634 
L 176.247855 -201.704963 
L 180.406861 -204.751667 
L 184.565868 -202.714888 
L 188.724874 -198.286043 
L 192.88388 -190.773195 
L 197.042886 -184.898318 
L 201.201892 -183.117395 
L 205.360899 -185.407597 
L 209.519905 -188.585082 
L 213.678911 -195.258404 
L 217.837917 -199.927262 
L 221.996924 -202.504916 
L 226.15593 -200.457243 
L 230.314936 -196.04951 
L 234.473942 -191.568683 
L 238.632948 -187.280769 
L 242.791955 -185.946334 
L 246.950961 -186.077077 
L 251.109967 -190.491373 
L 255.268973 -194.416259 
L 259.427979 -195.67629 
L 263.586986 -199.639567 
L 267.745992 -201.526856 
L 271.904998 -198.340162 
L 276.064004 -196.345838 
L 280.22301 -191.288123 
L 284.382017 -189.38022 
L 288.541023 -191.482561 
L 292.700029 -191.549202 
L 296.859035 -194.156844 
L 301.018042 -196.187932 
L 305.177048 -195.342469 
L 309.336054 -194.985092 
L 313.49506 -193.440074 
L 317.654066 -191.847385 
L 321.813073 -189.123303 
L 325.972079 -188.133621 
L 330.131085 -187.189103 
L 334.290091 -188.650831 
L 338.449097 -191.072343 
L 342.608104 -195.445239 
L 346.76711 -196.818304 
L 350.926116 -196.914132 
L 355.085122 -195.499021 
L 359.244128 -192.580548 
L 363.403135 -190.604315 
L 367.562141 -191.072227 
L 371.721147 -191.346776 
L 375.880153 -193.61793 
L 380.03916 -195.43437 
L 384.198166 -196.242936 
L 388.357172 -195.872775 
L 392.516178 -193.564289 
L 396.675184 -194.101894 
L 400.834191 -193.450558 
L 404.993197 -192.86232 
L 409.152203 -192.080471 
L 413.311209 -192.889146 
L 417.470215 -192.91692 
L 421.629222 -194.104302 
L 425.788228 -196.46326 
L 429.947234 -196.404346 
L 434.10624 -198.286095 
L 438.265247 -194.482117 
L 442.424253 -192.260824 
L 446.583259 -191.728212 
L 450.742265 -192.329356 
L 454.901271 -191.347271 
L 459.060278 -190.368496 
L 463.219284 -191.042941 
L 467.37829 -193.438642 
L 471.537296 -194.156689 
L 475.696302 -193.06452 
L 479.855309 -194.00467 
L 479.855309 -201.007928 
L 479.855309 -201.007928 
L 475.696302 -199.980798 
L 471.537296 -200.934546 
L 467.37829 -200.19748 
L 463.219284 -197.806792 
L 459.060278 -197.213545 
L 454.901271 -198.254172 
L 450.742265 -199.42566 
L 446.583259 -198.866182 
L 442.424253 -199.4658 
L 438.265247 -201.624551 
L 434.10624 -205.337138 
L 429.947234 -203.255093 
L 425.788228 -203.235035 
L 421.629222 -200.860359 
L 417.470215 -199.687201 
L 413.311209 -199.882935 
L 409.152203 -199.164057 
L 404.993197 -200.059577 
L 400.834191 -200.737523 
L 396.675184 -201.349107 
L 392.516178 -200.645966 
L 388.357172 -202.852551 
L 384.198166 -203.059165 
L 380.03916 -202.285112 
L 375.880153 -200.520372 
L 371.721147 -198.384975 
L 367.562141 -198.276678 
L 363.403135 -197.864209 
L 359.244128 -199.872714 
L 355.085122 -202.772181 
L 350.926116 -203.975305 
L 346.76711 -203.720392 
L 342.608104 -202.112624 
L 338.449097 -197.675396 
L 334.290091 -195.294739 
L 330.131085 -194.023577 
L 325.972079 -195.247596 
L 321.813073 -196.38901 
L 317.654066 -199.185352 
L 313.49506 -200.675678 
L 309.336054 -202.036019 
L 305.177048 -202.071624 
L 301.018042 -202.74419 
L 296.859035 -200.666333 
L 292.700029 -198.27971 
L 288.541023 -198.505299 
L 284.382017 -196.58767 
L 280.22301 -198.705511 
L 276.064004 -203.809974 
L 271.904998 -205.761052 
L 267.745992 -208.639186 
L 263.586986 -206.488574 
L 259.427979 -202.21543 
L 255.268973 -200.901937 
L 251.109967 -196.998938 
L 246.950961 -192.784399 
L 242.791955 -193.025157 
L 238.632948 -194.614691 
L 234.473942 -199.052124 
L 230.314936 -203.525084 
L 226.15593 -207.736267 
L 221.996924 -209.438725 
L 217.837917 -206.457625 
L 213.678911 -201.583615 
L 209.519905 -194.827903 
L 205.360899 -191.994121 
L 201.201892 -190.061923 
L 197.042886 -192.261042 
L 192.88388 -198.450961 
L 188.724874 -205.910952 
L 184.565868 -210.089665 
L 180.406861 -211.711121 
L 176.247855 -208.045867 
L 172.088849 -201.62326 
L 167.929843 -195.886325 
L 163.770837 -188.098622 
L 159.61183 -185.273262 
L 155.452824 -188.627275 
L 151.293818 -193.632572 
L 147.134812 -201.582606 
L 142.975806 -207.160542 
L 138.816799 -210.246508 
L 134.657793 -208.420109 
L 130.498787 -200.765712 
L 126.339781 -190.948424 
L 122.180774 -180.314188 
L 118.021768 -175.32737 
L 113.862762 -176.622985 
L 109.703756 -186.896673 
L 105.54475 -201.345693 
L 101.385743 -215.868253 
L 97.226737 -226.458956 
L 93.067731 -224.497921 
L 88.908725 -210.287398 
L 84.749719 -185.269947 
L 80.590712 -157.48178 
L 76.431706 -129.910816 
L 72.2727 -103.402742 
L 68.113694 -78.690226 
L 63.954687 -55.649998 
z
" id="m4f1d6ae1a3"/>
    </defs>
    <g clip-path="url(#p8585cb5696)">
     <use style="fill:#4db8ff;" x="0" xlink:href="#m4f1d6ae1a3" y="285.213437"/>
    </g>
   </g>
   <g id="matplotlib.axis_1">
    <g id="xtick_1">
     <g id="line2d_1">
      <path clip-path="url(#p8585cb5696)" d="M 63.954687 230.64 
L 63.954687 13.2 
" style="fill:none;stroke:#b0b0b0;stroke-linecap:square;stroke-width:0.8;"/>
     </g>
     <g id="line2d_2">
      <defs>
       <path d="M 0 0 
L 0 6 
" id="m943a7c3891"/>
      </defs>
      <g>
       <use x="63.954687" xlink:href="#m943a7c3891" y="230.64"/>
      </g>
     </g>
     <g id="text_1">
      <!-- 0 -->
      <defs>
       <path d="M 31.78125 66.40625 
Q 24.171875 66.40625 20.328125 58.90625 
Q 16.5 51.421875 16.5 36.375 
Q 16.5 21.390625 20.328125 13.890625 
Q 24.171875 6.390625 31.78125 6.390625 
Q 39.453125 6.390625 43.28125 13.890625 
Q 47.125 21.390625 47.125 36.375 
Q 47.125 51.421875 43.28125 58.90625 
Q 39.453125 66.40625 31.78125 66.40625 
z
M 31.78125 74.21875 
Q 44.046875 74.21875 50.515625 64.515625 
Q 56.984375 54.828125 56.984375 36.375 
Q 56.984375 17.96875 50.515625 8.265625 
Q 44.046875 -1.421875 31.78125 -1.421875 
Q 19.53125 -1.421875 13.0625 8.265625 
Q 6.59375 17.96875 6.59375 36.375 
Q 6.59375 54.828125 13.0625 64.515625 
Q 19.53125 74.21875 31.78125 74.21875 
z
" id="DejaVuSans-30"/>
      </defs>
      <g transform="translate(59.182812 251.537656)scale(0.15 -0.15)">
       <use xlink:href="#DejaVuSans-30"/>
      </g>
     </g>
    </g>
    <g id="xtick_2">
     <g id="line2d_3">
      <path clip-path="url(#p8585cb5696)" d="M 105.54475 230.64 
L 105.54475 13.2 
" style="fill:none;stroke:#b0b0b0;stroke-linecap:square;stroke-width:0.8;"/>
     </g>
     <g id="line2d_4">
      <g>
       <use x="105.54475" xlink:href="#m943a7c3891" y="230.64"/>
      </g>
     </g>
     <g id="text_2">
      <!-- 1 -->
      <defs>
       <path d="M 12.40625 8.296875 
L 28.515625 8.296875 
L 28.515625 63.921875 
L 10.984375 60.40625 
L 10.984375 69.390625 
L 28.421875 72.90625 
L 38.28125 72.90625 
L 38.28125 8.296875 
L 54.390625 8.296875 
L 54.390625 0 
L 12.40625 0 
z
" id="DejaVuSans-31"/>
      </defs>
      <g transform="translate(100.772875 251.537656)scale(0.15 -0.15)">
       <use xlink:href="#DejaVuSans-31"/>
      </g>
     </g>
    </g>
    <g id="xtick_3">
     <g id="line2d_5">
      <path clip-path="url(#p8585cb5696)" d="M 147.134812 230.64 
L 147.134812 13.2 
" style="fill:none;stroke:#b0b0b0;stroke-linecap:square;stroke-width:0.8;"/>
     </g>
     <g id="line2d_6">
      <g>
       <use x="147.134812" xlink:href="#m943a7c3891" y="230.64"/>
      </g>
     </g>
     <g id="text_3">
      <!-- 2 -->
      <defs>
       <path d="M 19.1875 8.296875 
L 53.609375 8.296875 
L 53.609375 0 
L 7.328125 0 
L 7.328125 8.296875 
Q 12.9375 14.109375 22.625 23.890625 
Q 32.328125 33.6875 34.8125 36.53125 
Q 39.546875 41.84375 41.421875 45.53125 
Q 43.3125 49.21875 43.3125 52.78125 
Q 43.3125 58.59375 39.234375 62.25 
Q 35.15625 65.921875 28.609375 65.921875 
Q 23.96875 65.921875 18.8125 64.3125 
Q 13.671875 62.703125 7.8125 59.421875 
L 7.8125 69.390625 
Q 13.765625 71.78125 18.9375 73 
Q 24.125 74.21875 28.421875 74.21875 
Q 39.75 74.21875 46.484375 68.546875 
Q 53.21875 62.890625 53.21875 53.421875 
Q 53.21875 48.921875 51.53125 44.890625 
Q 49.859375 40.875 45.40625 35.40625 
Q 44.1875 33.984375 37.640625 27.21875 
Q 31.109375 20.453125 19.1875 8.296875 
z
" id="DejaVuSans-32"/>
      </defs>
      <g transform="translate(142.362937 251.537656)scale(0.15 -0.15)">
       <use xlink:href="#DejaVuSans-32"/>
      </g>
     </g>
    </g>
    <g id="xtick_4">
     <g id="line2d_7">
      <path clip-path="url(#p8585cb5696)" d="M 188.724874 230.64 
L 188.724874 13.2 
" style="fill:none;stroke:#b0b0b0;stroke-linecap:square;stroke-width:0.8;"/>
     </g>
     <g id="line2d_8">
      <g>
       <use x="188.724874" xlink:href="#m943a7c3891" y="230.64"/>
      </g>
     </g>
     <g id="text_4">
      <!-- 3 -->
      <defs>
       <path d="M 40.578125 39.3125 
Q 47.65625 37.796875 51.625 33 
Q 55.609375 28.21875 55.609375 21.1875 
Q 55.609375 10.40625 48.1875 4.484375 
Q 40.765625 -1.421875 27.09375 -1.421875 
Q 22.515625 -1.421875 17.65625 -0.515625 
Q 12.796875 0.390625 7.625 2.203125 
L 7.625 11.71875 
Q 11.71875 9.328125 16.59375 8.109375 
Q 21.484375 6.890625 26.8125 6.890625 
Q 36.078125 6.890625 40.9375 10.546875 
Q 45.796875 14.203125 45.796875 21.1875 
Q 45.796875 27.640625 41.28125 31.265625 
Q 36.765625 34.90625 28.71875 34.90625 
L 20.21875 34.90625 
L 20.21875 43.015625 
L 29.109375 43.015625 
Q 36.375 43.015625 40.234375 45.921875 
Q 44.09375 48.828125 44.09375 54.296875 
Q 44.09375 59.90625 40.109375 62.90625 
Q 36.140625 65.921875 28.71875 65.921875 
Q 24.65625 65.921875 20.015625 65.03125 
Q 15.375 64.15625 9.8125 62.3125 
L 9.8125 71.09375 
Q 15.4375 72.65625 20.34375 73.4375 
Q 25.25 74.21875 29.59375 74.21875 
Q 40.828125 74.21875 47.359375 69.109375 
Q 53.90625 64.015625 53.90625 55.328125 
Q 53.90625 49.265625 50.4375 45.09375 
Q 46.96875 40.921875 40.578125 39.3125 
z
" id="DejaVuSans-33"/>
      </defs>
      <g transform="translate(183.952999 251.537656)scale(0.15 -0.15)">
       <use xlink:href="#DejaVuSans-33"/>
      </g>
     </g>
    </g>
    <g id="xtick_5">
     <g id="line2d_9">
      <path clip-path="url(#p8585cb5696)" d="M 230.314936 230.64 
L 230.314936 13.2 
" style="fill:none;stroke:#b0b0b0;stroke-linecap:square;stroke-width:0.8;"/>
     </g>
     <g id="line2d_10">
      <g>
       <use x="230.314936" xlink:href="#m943a7c3891" y="230.64"/>
      </g>
     </g>
     <g id="text_5">
      <!-- 4 -->
      <defs>
       <path d="M 37.796875 64.3125 
L 12.890625 25.390625 
L 37.796875 25.390625 
z
M 35.203125 72.90625 
L 47.609375 72.90625 
L 47.609375 25.390625 
L 58.015625 25.390625 
L 58.015625 17.1875 
L 47.609375 17.1875 
L 47.609375 0 
L 37.796875 0 
L 37.796875 17.1875 
L 4.890625 17.1875 
L 4.890625 26.703125 
z
" id="DejaVuSans-34"/>
      </defs>
      <g transform="translate(225.543061 251.537656)scale(0.15 -0.15)">
       <use xlink:href="#DejaVuSans-34"/>
      </g>
     </g>
    </g>
    <g id="xtick_6">
     <g id="line2d_11">
      <path clip-path="url(#p8585cb5696)" d="M 271.904998 230.64 
L 271.904998 13.2 
" style="fill:none;stroke:#b0b0b0;stroke-linecap:square;stroke-width:0.8;"/>
     </g>
     <g id="line2d_12">
      <g>
       <use x="271.904998" xlink:href="#m943a7c3891" y="230.64"/>
      </g>
     </g>
     <g id="text_6">
      <!-- 5 -->
      <defs>
       <path d="M 10.796875 72.90625 
L 49.515625 72.90625 
L 49.515625 64.59375 
L 19.828125 64.59375 
L 19.828125 46.734375 
Q 21.96875 47.46875 24.109375 47.828125 
Q 26.265625 48.1875 28.421875 48.1875 
Q 40.625 48.1875 47.75 41.5 
Q 54.890625 34.8125 54.890625 23.390625 
Q 54.890625 11.625 47.5625 5.09375 
Q 40.234375 -1.421875 26.90625 -1.421875 
Q 22.3125 -1.421875 17.546875 -0.640625 
Q 12.796875 0.140625 7.71875 1.703125 
L 7.71875 11.625 
Q 12.109375 9.234375 16.796875 8.0625 
Q 21.484375 6.890625 26.703125 6.890625 
Q 35.15625 6.890625 40.078125 11.328125 
Q 45.015625 15.765625 45.015625 23.390625 
Q 45.015625 31 40.078125 35.4375 
Q 35.15625 39.890625 26.703125 39.890625 
Q 22.75 39.890625 18.8125 39.015625 
Q 14.890625 38.140625 10.796875 36.28125 
z
" id="DejaVuSans-35"/>
      </defs>
      <g transform="translate(267.133123 251.537656)scale(0.15 -0.15)">
       <use xlink:href="#DejaVuSans-35"/>
      </g>
     </g>
    </g>
    <g id="xtick_7">
     <g id="line2d_13">
      <path clip-path="url(#p8585cb5696)" d="M 313.49506 230.64 
L 313.49506 13.2 
" style="fill:none;stroke:#b0b0b0;stroke-linecap:square;stroke-width:0.8;"/>
     </g>
     <g id="line2d_14">
      <g>
       <use x="313.49506" xlink:href="#m943a7c3891" y="230.64"/>
      </g>
     </g>
     <g id="text_7">
      <!-- 6 -->
      <defs>
       <path d="M 33.015625 40.375 
Q 26.375 40.375 22.484375 35.828125 
Q 18.609375 31.296875 18.609375 23.390625 
Q 18.609375 15.53125 22.484375 10.953125 
Q 26.375 6.390625 33.015625 6.390625 
Q 39.65625 6.390625 43.53125 10.953125 
Q 47.40625 15.53125 47.40625 23.390625 
Q 47.40625 31.296875 43.53125 35.828125 
Q 39.65625 40.375 33.015625 40.375 
z
M 52.59375 71.296875 
L 52.59375 62.3125 
Q 48.875 64.0625 45.09375 64.984375 
Q 41.3125 65.921875 37.59375 65.921875 
Q 27.828125 65.921875 22.671875 59.328125 
Q 17.53125 52.734375 16.796875 39.40625 
Q 19.671875 43.65625 24.015625 45.921875 
Q 28.375 48.1875 33.59375 48.1875 
Q 44.578125 48.1875 50.953125 41.515625 
Q 57.328125 34.859375 57.328125 23.390625 
Q 57.328125 12.15625 50.6875 5.359375 
Q 44.046875 -1.421875 33.015625 -1.421875 
Q 20.359375 -1.421875 13.671875 8.265625 
Q 6.984375 17.96875 6.984375 36.375 
Q 6.984375 53.65625 15.1875 63.9375 
Q 23.390625 74.21875 37.203125 74.21875 
Q 40.921875 74.21875 44.703125 73.484375 
Q 48.484375 72.75 52.59375 71.296875 
z
" id="DejaVuSans-36"/>
      </defs>
      <g transform="translate(308.723185 251.537656)scale(0.15 -0.15)">
       <use xlink:href="#DejaVuSans-36"/>
      </g>
     </g>
    </g>
    <g id="xtick_8">
     <g id="line2d_15">
      <path clip-path="url(#p8585cb5696)" d="M 355.085122 230.64 
L 355.085122 13.2 
" style="fill:none;stroke:#b0b0b0;stroke-linecap:square;stroke-width:0.8;"/>
     </g>
     <g id="line2d_16">
      <g>
       <use x="355.085122" xlink:href="#m943a7c3891" y="230.64"/>
      </g>
     </g>
     <g id="text_8">
      <!-- 7 -->
      <defs>
       <path d="M 8.203125 72.90625 
L 55.078125 72.90625 
L 55.078125 68.703125 
L 28.609375 0 
L 18.3125 0 
L 43.21875 64.59375 
L 8.203125 64.59375 
z
" id="DejaVuSans-37"/>
      </defs>
      <g transform="translate(350.313247 251.537656)scale(0.15 -0.15)">
       <use xlink:href="#DejaVuSans-37"/>
      </g>
     </g>
    </g>
    <g id="text_9">
     <!-- $t/\tau$ -->
     <defs>
      <path d="M 42.28125 54.6875 
L 40.921875 47.703125 
L 23 47.703125 
L 17.1875 18.015625 
Q 16.890625 16.359375 16.75 15.234375 
Q 16.609375 14.109375 16.609375 13.484375 
Q 16.609375 10.359375 18.484375 8.9375 
Q 20.359375 7.515625 24.515625 7.515625 
L 33.59375 7.515625 
L 32.078125 0 
L 23.484375 0 
Q 15.484375 0 11.546875 3.125 
Q 7.625 6.25 7.625 12.59375 
Q 7.625 13.71875 7.765625 15.0625 
Q 7.90625 16.40625 8.203125 18.015625 
L 14.015625 47.703125 
L 6.390625 47.703125 
L 7.8125 54.6875 
L 15.28125 54.6875 
L 18.3125 70.21875 
L 27.296875 70.21875 
L 24.3125 54.6875 
z
" id="DejaVuSans-Oblique-74"/>
      <path d="M 25.390625 72.90625 
L 33.6875 72.90625 
L 8.296875 -9.28125 
L 0 -9.28125 
z
" id="DejaVuSans-2f"/>
      <path d="M 32.859375 9.96875 
Q 34.1875 7.625 39.453125 7.625 
L 43.75 7.625 
L 42.28125 0 
L 36.921875 0 
Q 28.125 0 25 4.6875 
Q 21.921875 9.46875 23.96875 19.828125 
L 29 45.703125 
L 8.453125 45.703125 
L 10.203125 54.6875 
L 60.640625 54.6875 
L 58.890625 45.703125 
L 38.1875 45.703125 
L 33.015625 19.28125 
Q 31.640625 12.203125 32.859375 9.96875 
z
" id="DejaVuSans-Oblique-3c4"/>
     </defs>
     <g transform="translate(196.119905 273.854062)scale(0.2 -0.2)">
      <use transform="translate(0 0.09375)" xlink:href="#DejaVuSans-Oblique-74"/>
      <use transform="translate(39.208984 0.09375)" xlink:href="#DejaVuSans-2f"/>
      <use transform="translate(72.900391 0.09375)" xlink:href="#DejaVuSans-Oblique-3c4"/>
     </g>
    </g>
   </g>
   <g id="matplotlib.axis_2">
    <g id="ytick_1">
     <g id="line2d_17">
      <path clip-path="url(#p8585cb5696)" d="M 63.954687 230.657745 
L 355.085122 230.657745 
" style="fill:none;stroke:#b0b0b0;stroke-linecap:square;stroke-width:0.8;"/>
     </g>
     <g id="line2d_18">
      <defs>
       <path d="M 0 0 
L -6 0 
" id="mb63ff1fe16"/>
      </defs>
      <g>
       <use x="63.954687" xlink:href="#mb63ff1fe16" y="230.657745"/>
      </g>
     </g>
     <g id="text_10">
      <!-- 3.0 -->
      <defs>
       <path d="M 10.6875 12.40625 
L 21 12.40625 
L 21 0 
L 10.6875 0 
z
" id="DejaVuSans-2e"/>
      </defs>
      <g transform="translate(30.6 236.356573)scale(0.15 -0.15)">
       <use xlink:href="#DejaVuSans-33"/>
       <use x="63.623047" xlink:href="#DejaVuSans-2e"/>
       <use x="95.410156" xlink:href="#DejaVuSans-30"/>
      </g>
     </g>
    </g>
    <g id="ytick_2">
     <g id="line2d_19">
      <path clip-path="url(#p8585cb5696)" d="M 63.954687 177.242001 
L 355.085122 177.242001 
" style="fill:none;stroke:#b0b0b0;stroke-linecap:square;stroke-width:0.8;"/>
     </g>
     <g id="line2d_20">
      <g>
       <use x="63.954687" xlink:href="#mb63ff1fe16" y="177.242001"/>
      </g>
     </g>
     <g id="text_11">
      <!-- 3.5 -->
      <g transform="translate(30.6 182.940829)scale(0.15 -0.15)">
       <use xlink:href="#DejaVuSans-33"/>
       <use x="63.623047" xlink:href="#DejaVuSans-2e"/>
       <use x="95.410156" xlink:href="#DejaVuSans-35"/>
      </g>
     </g>
    </g>
    <g id="ytick_3">
     <g id="line2d_21">
      <path clip-path="url(#p8585cb5696)" d="M 63.954687 123.826257 
L 355.085122 123.826257 
" style="fill:none;stroke:#b0b0b0;stroke-linecap:square;stroke-width:0.8;"/>
     </g>
     <g id="line2d_22">
      <g>
       <use x="63.954687" xlink:href="#mb63ff1fe16" y="123.826257"/>
      </g>
     </g>
     <g id="text_12">
      <!-- 4.0 -->
      <g transform="translate(30.6 129.525086)scale(0.15 -0.15)">
       <use xlink:href="#DejaVuSans-34"/>
       <use x="63.623047" xlink:href="#DejaVuSans-2e"/>
       <use x="95.410156" xlink:href="#DejaVuSans-30"/>
      </g>
     </g>
    </g>
    <g id="ytick_4">
     <g id="line2d_23">
      <path clip-path="url(#p8585cb5696)" d="M 63.954687 70.410514 
L 355.085122 70.410514 
" style="fill:none;stroke:#b0b0b0;stroke-linecap:square;stroke-width:0.8;"/>
     </g>
     <g id="line2d_24">
      <g>
       <use x="63.954687" xlink:href="#mb63ff1fe16" y="70.410514"/>
      </g>
     </g>
     <g id="text_13">
      <!-- 4.5 -->
      <g transform="translate(30.6 76.109342)scale(0.15 -0.15)">
       <use xlink:href="#DejaVuSans-34"/>
       <use x="63.623047" xlink:href="#DejaVuSans-2e"/>
       <use x="95.410156" xlink:href="#DejaVuSans-35"/>
      </g>
     </g>
    </g>
    <g id="ytick_5">
     <g id="line2d_25">
      <path clip-path="url(#p8585cb5696)" d="M 63.954687 16.99477 
L 355.085122 16.99477 
" style="fill:none;stroke:#b0b0b0;stroke-linecap:square;stroke-width:0.8;"/>
     </g>
     <g id="line2d_26">
      <g>
       <use x="63.954687" xlink:href="#mb63ff1fe16" y="16.99477"/>
      </g>
     </g>
     <g id="text_14">
      <!-- 5.0 -->
      <g transform="translate(30.6 22.693598)scale(0.15 -0.15)">
       <use xlink:href="#DejaVuSans-35"/>
       <use x="63.623047" xlink:href="#DejaVuSans-2e"/>
       <use x="95.410156" xlink:href="#DejaVuSans-30"/>
      </g>
     </g>
    </g>
    <g id="text_15">
     <!-- $s$ $(\mu m)$ -->
     <defs>
      <path d="M 50 53.078125 
L 48.296875 44.578125 
Q 44.734375 46.53125 40.765625 47.5 
Q 36.8125 48.484375 32.625 48.484375 
Q 25.53125 48.484375 21.453125 46.0625 
Q 17.390625 43.65625 17.390625 39.5 
Q 17.390625 34.671875 26.859375 32.078125 
Q 27.59375 31.890625 27.9375 31.78125 
L 30.8125 30.90625 
Q 39.796875 28.421875 42.796875 25.6875 
Q 45.796875 22.953125 45.796875 18.21875 
Q 45.796875 9.515625 38.890625 4.046875 
Q 31.984375 -1.421875 20.796875 -1.421875 
Q 16.453125 -1.421875 11.671875 -0.578125 
Q 6.890625 0.25 1.125 2 
L 2.875 11.28125 
Q 7.8125 8.734375 12.59375 7.421875 
Q 17.390625 6.109375 21.78125 6.109375 
Q 28.375 6.109375 32.5 8.9375 
Q 36.625 11.765625 36.625 16.109375 
Q 36.625 20.796875 25.78125 23.6875 
L 24.859375 23.921875 
L 21.78125 24.703125 
Q 14.9375 26.515625 11.765625 29.46875 
Q 8.59375 32.421875 8.59375 37.015625 
Q 8.59375 45.75 15.15625 50.875 
Q 21.734375 56 33.015625 56 
Q 37.453125 56 41.671875 55.265625 
Q 45.90625 54.546875 50 53.078125 
z
" id="DejaVuSans-Oblique-73"/>
      <path id="DejaVuSans-20"/>
      <path d="M 31 75.875 
Q 24.46875 64.65625 21.28125 53.65625 
Q 18.109375 42.671875 18.109375 31.390625 
Q 18.109375 20.125 21.3125 9.0625 
Q 24.515625 -2 31 -13.1875 
L 23.1875 -13.1875 
Q 15.875 -1.703125 12.234375 9.375 
Q 8.59375 20.453125 8.59375 31.390625 
Q 8.59375 42.28125 12.203125 53.3125 
Q 15.828125 64.359375 23.1875 75.875 
z
" id="DejaVuSans-28"/>
      <path d="M -1.3125 -20.796875 
L 13.375 54.6875 
L 22.40625 54.6875 
L 15.765625 20.65625 
Q 15.578125 19.625 15.421875 18.359375 
Q 15.28125 17.09375 15.28125 15.828125 
Q 15.28125 11.28125 18.140625 8.828125 
Q 21 6.390625 26.3125 6.390625 
Q 33.546875 6.390625 37.984375 10.484375 
Q 42.4375 14.59375 44 22.796875 
L 50.203125 54.6875 
L 59.1875 54.6875 
L 51.03125 12.640625 
Q 50.828125 11.71875 50.75 11.03125 
Q 50.6875 10.359375 50.6875 9.8125 
Q 50.6875 8.296875 51.296875 7.59375 
Q 51.90625 6.890625 53.21875 6.890625 
Q 53.71875 6.890625 54.5625 7.125 
Q 55.421875 7.375 56.984375 8.015625 
L 55.609375 0.78125 
Q 53.46875 -0.296875 51.515625 -0.859375 
Q 49.5625 -1.421875 47.703125 -1.421875 
Q 44.484375 -1.421875 42.65625 0.625 
Q 40.828125 2.6875 40.828125 6.296875 
Q 38.09375 2.390625 34.296875 0.484375 
Q 30.515625 -1.421875 25.390625 -1.421875 
Q 20.84375 -1.421875 17.453125 0.671875 
Q 14.0625 2.78125 12.984375 6.203125 
L 7.71875 -20.796875 
z
" id="DejaVuSans-Oblique-3bc"/>
      <path d="M 89.796875 33.015625 
L 83.40625 0 
L 74.421875 0 
L 80.71875 32.71875 
Q 81.109375 34.8125 81.296875 36.328125 
Q 81.5 37.84375 81.5 38.921875 
Q 81.5 43.3125 79.046875 45.75 
Q 76.609375 48.1875 72.21875 48.1875 
Q 65.671875 48.1875 60.546875 43.28125 
Q 55.421875 38.375 53.90625 30.515625 
L 47.90625 0 
L 38.921875 0 
L 45.3125 32.71875 
Q 45.703125 34.515625 45.890625 36.046875 
Q 46.09375 37.59375 46.09375 38.8125 
Q 46.09375 43.265625 43.65625 45.71875 
Q 41.21875 48.1875 36.921875 48.1875 
Q 30.28125 48.1875 25.140625 43.28125 
Q 20.015625 38.375 18.5 30.515625 
L 12.5 0 
L 3.515625 0 
L 14.203125 54.6875 
L 23.1875 54.6875 
L 21.484375 46.1875 
Q 25.140625 50.984375 30.046875 53.484375 
Q 34.96875 56 40.578125 56 
Q 46.53125 56 50.359375 52.875 
Q 54.203125 49.75 54.984375 44.1875 
Q 59.078125 49.953125 64.46875 52.96875 
Q 69.875 56 75.875 56 
Q 82.90625 56 86.734375 51.953125 
Q 90.578125 47.90625 90.578125 40.484375 
Q 90.578125 38.875 90.375 36.9375 
Q 90.1875 35.015625 89.796875 33.015625 
z
" id="DejaVuSans-Oblique-6d"/>
      <path d="M 8.015625 75.875 
L 15.828125 75.875 
Q 23.140625 64.359375 26.78125 53.3125 
Q 30.421875 42.28125 30.421875 31.390625 
Q 30.421875 20.453125 26.78125 9.375 
Q 23.140625 -1.703125 15.828125 -13.1875 
L 8.015625 -13.1875 
Q 14.5 -2 17.703125 9.0625 
Q 20.90625 20.125 20.90625 31.390625 
Q 20.90625 42.671875 17.703125 53.65625 
Q 14.5 64.65625 8.015625 75.875 
z
" id="DejaVuSans-29"/>
     </defs>
     <g transform="translate(22.4 154.22)rotate(-90)scale(0.2 -0.2)">
      <use transform="translate(0 0.125)" xlink:href="#DejaVuSans-Oblique-73"/>
      <use transform="translate(52.099609 0.125)" xlink:href="#DejaVuSans-20"/>
      <use transform="translate(83.886719 0.125)" xlink:href="#DejaVuSans-28"/>
      <use transform="translate(122.900391 0.125)" xlink:href="#DejaVuSans-Oblique-3bc"/>
      <use transform="translate(186.523438 0.125)" xlink:href="#DejaVuSans-Oblique-6d"/>
      <use transform="translate(283.935547 0.125)" xlink:href="#DejaVuSans-29"/>
     </g>
    </g>
   </g>
   <g id="line2d_27">
    <path clip-path="url(#p8585cb5696)" d="M 63.954687 230.64 
L 68.113694 207.679283 
L 72.2727 183.056311 
L 76.431706 156.6491 
L 80.590712 129.214791 
L 84.749719 101.626078 
L 88.908725 76.9758 
L 93.067731 63.415891 
L 97.226737 62.104746 
L 101.385743 73.189675 
L 105.54475 87.950813 
L 109.703756 102.276787 
L 113.862762 112.223307 
L 118.021768 113.109865 
L 122.180774 107.731701 
L 126.339781 96.95532 
L 130.498787 87.22041 
L 134.657793 79.840937 
L 138.816799 78.363105 
L 142.975806 81.742401 
L 147.134812 87.510442 
L 151.293818 95.451637 
L 155.452824 100.27948 
L 159.61183 103.372006 
L 163.770837 100.251518 
L 167.929843 92.350725 
L 172.088849 86.595491 
L 176.247855 80.338022 
L 180.406861 76.982043 
L 184.565868 78.811161 
L 188.724874 83.11494 
L 192.88388 90.601359 
L 197.042886 96.633757 
L 201.201892 98.623778 
L 205.360899 96.512578 
L 209.519905 93.506945 
L 213.678911 86.792428 
L 217.837917 82.020994 
L 221.996924 79.241617 
L 226.15593 81.116683 
L 230.314936 85.426141 
L 234.473942 89.903034 
L 238.632948 94.265707 
L 242.791955 95.727692 
L 246.950961 95.782699 
L 251.109967 91.468282 
L 255.268973 87.554339 
L 259.427979 86.267578 
L 263.586986 82.149367 
L 267.745992 80.130416 
L 271.904998 83.16283 
L 276.064004 85.135531 
L 280.22301 90.216621 
L 284.382017 92.229493 
L 288.541023 90.219507 
L 292.700029 90.298981 
L 296.859035 87.801849 
L 301.018042 85.747377 
L 305.177048 86.506391 
L 309.336054 86.702882 
L 313.49506 88.155561 
L 317.654066 89.697069 
L 321.813073 92.457281 
L 325.972079 93.522829 
L 330.131085 94.607098 
L 334.290091 93.240653 
L 338.449097 90.839568 
L 342.608104 86.434506 
L 346.76711 84.944089 
L 350.926116 84.768719 
L 355.085122 86.077836 
L 359.244128 88.986807 
L 363.403135 90.979175 
L 367.562141 90.538985 
L 371.721147 90.347562 
L 375.880153 88.144286 
L 380.03916 86.353697 
L 384.198166 85.562387 
L 388.357172 85.850775 
L 392.516178 88.10831 
L 396.675184 87.487937 
L 400.834191 88.119397 
L 404.993197 88.752489 
L 409.152203 89.591174 
L 413.311209 88.827397 
L 417.470215 88.911377 
L 421.629222 87.731107 
L 425.788228 85.36429 
L 429.947234 85.383718 
L 434.10624 83.401821 
L 438.265247 87.160104 
L 442.424253 89.350126 
L 446.583259 89.916241 
L 450.742265 89.33593 
L 454.901271 90.412716 
L 459.060278 91.422417 
L 463.219284 90.788571 
L 467.37829 88.395377 
L 471.537296 87.66782 
L 475.696302 88.690779 
L 479.855309 87.707138 
" style="fill:none;stroke:#1f77b4;stroke-linecap:square;stroke-width:1.5;"/>
   </g>
   <g id="patch_3">
    <path d="M 63.954687 230.64 
L 63.954687 13.2 
" style="fill:none;stroke:#000000;stroke-linecap:square;stroke-linejoin:miter;stroke-width:2;"/>
   </g>
   <g id="patch_4">
    <path d="M 355.085122 230.64 
L 355.085122 13.2 
" style="fill:none;"/>
   </g>
   <g id="patch_5">
    <path d="M 63.954687 230.64 
L 355.085122 230.64 
" style="fill:none;stroke:#000000;stroke-linecap:square;stroke-linejoin:miter;stroke-width:2;"/>
   </g>
   <g id="patch_6">
    <path d="M 63.954687 13.2 
L 355.085122 13.2 
" style="fill:none;"/>
   </g>
  </g>
  <g id="axes_2">
   <g id="patch_7">
    <path d="M 442.424253 230.64 
L 733.554688 230.64 
L 733.554688 13.2 
L 442.424253 13.2 
z
" style="fill:#ffffff;"/>
   </g>
   <g id="PolyCollection_2">
    <defs>
     <path d="M 442.424253 -84.543552 
L 442.424253 -81.912103 
L 446.583259 -82.025038 
L 450.742265 -82.320245 
L 454.901271 -82.798668 
L 459.060278 -84.503746 
L 463.219284 -88.495733 
L 467.37829 -99.762921 
L 471.537296 -128.51354 
L 475.696302 -167.463333 
L 479.855309 -209.809781 
L 484.014315 -240.708053 
L 488.173321 -241.009761 
L 492.332327 -218.857957 
L 496.491333 -184.720724 
L 500.65034 -152.819773 
L 504.809346 -139.133177 
L 508.968352 -140.651487 
L 513.127358 -155.23277 
L 517.286365 -178.606948 
L 521.445371 -202.860826 
L 525.604377 -222.460222 
L 529.763383 -227.525125 
L 533.922389 -215.524075 
L 538.081396 -195.623717 
L 542.240402 -170.955656 
L 546.399408 -159.103222 
L 550.558414 -155.32466 
L 554.71742 -163.679539 
L 558.876427 -183.984976 
L 563.035433 -200.874536 
L 567.194439 -213.742247 
L 571.353445 -221.179019 
L 575.512451 -211.959391 
L 579.671458 -195.950075 
L 583.830464 -180.685403 
L 587.98947 -166.483765 
L 592.148476 -166.161128 
L 596.307483 -171.073041 
L 600.466489 -184.263917 
L 604.625495 -198.521046 
L 608.784501 -209.130131 
L 612.943507 -212.447899 
L 617.102514 -209.139961 
L 621.26152 -199.57829 
L 625.420526 -184.901365 
L 629.579532 -175.034947 
L 633.738538 -172.234933 
L 637.897545 -173.51192 
L 642.056551 -182.697045 
L 646.215557 -191.484574 
L 650.374563 -205.43868 
L 654.533569 -208.47104 
L 658.692576 -209.906058 
L 662.851582 -202.587553 
L 667.010588 -193.944454 
L 671.169594 -182.716444 
L 675.328601 -173.219756 
L 679.487607 -173.865654 
L 683.646613 -180.598678 
L 687.805619 -192.954107 
L 691.964625 -201.14456 
L 696.123632 -206.285847 
L 700.282638 -205.11795 
L 704.441644 -199.613928 
L 708.60065 -189.159306 
L 712.759656 -181.062259 
L 716.918663 -178.232954 
L 721.077669 -178.275001 
L 725.236675 -186.227366 
L 729.395681 -192.213806 
L 733.554687 -201.348068 
L 737.713694 -203.957273 
L 741.8727 -203.923136 
L 746.031706 -201.39079 
L 750.190712 -194.630967 
L 754.349719 -188.052694 
L 758.508725 -185.072809 
L 762.667731 -183.335977 
L 766.826737 -189.705019 
L 770.985743 -194.995676 
L 775.14475 -201.191718 
L 779.303756 -203.192286 
L 783.462762 -199.979419 
L 787.621768 -195.967608 
L 791.780774 -191.982384 
L 795.939781 -183.452367 
L 800.098787 -182.267668 
L 804.257793 -181.567481 
L 808.416799 -184.534248 
L 812.575806 -191.027688 
L 816.734812 -196.817269 
L 820.893818 -200.663151 
L 825.052824 -198.329956 
L 829.21183 -196.316123 
L 833.370837 -189.532671 
L 837.529843 -187.723579 
L 841.688849 -184.252572 
L 845.847855 -182.736355 
L 850.006861 -183.051865 
L 854.165868 -188.898563 
L 858.324874 -191.691736 
L 858.324874 -207.441039 
L 858.324874 -207.441039 
L 854.165868 -204.280208 
L 850.006861 -197.668774 
L 845.847855 -197.312184 
L 841.688849 -199.025992 
L 837.529843 -202.951011 
L 833.370837 -204.997652 
L 829.21183 -212.67736 
L 825.052824 -214.958928 
L 820.893818 -217.603257 
L 816.734812 -213.245061 
L 812.575806 -206.689449 
L 808.416799 -199.344424 
L 804.257793 -195.991292 
L 800.098787 -196.78251 
L 795.939781 -198.12145 
L 791.780774 -207.770029 
L 787.621768 -212.282587 
L 783.462762 -216.828245 
L 779.303756 -220.470783 
L 775.14475 -218.202447 
L 770.985743 -211.181772 
L 766.826737 -205.192663 
L 762.667731 -197.989895 
L 758.508725 -199.953306 
L 754.349719 -203.323294 
L 750.190712 -210.768746 
L 746.031706 -218.428131 
L 741.8727 -221.299636 
L 737.713694 -221.338353 
L 733.554687 -218.379698 
L 729.395681 -208.031991 
L 725.236675 -201.258805 
L 721.077669 -192.272053 
L 716.918663 -192.22457 
L 712.759656 -195.420446 
L 708.60065 -204.57521 
L 704.441644 -216.413995 
L 700.282638 -222.654879 
L 696.123632 -223.97984 
L 691.964625 -218.148986 
L 687.805619 -208.870056 
L 683.646613 -194.896695 
L 679.487607 -187.294562 
L 675.328601 -186.565769 
L 671.169594 -197.289682 
L 667.010588 -209.991351 
L 662.851582 -219.785032 
L 658.692576 -228.088475 
L 654.533569 -226.459569 
L 650.374563 -223.018718 
L 646.215557 -207.206557 
L 642.056551 -197.267758 
L 637.897545 -186.895418 
L 633.738538 -185.454714 
L 629.579532 -188.614138 
L 625.420526 -199.759471 
L 621.26152 -216.373604 
L 617.102514 -227.218823 
L 612.943507 -230.974651 
L 608.784501 -227.207665 
L 604.625495 -215.175463 
L 600.466489 -199.038817 
L 596.307483 -184.144148 
L 592.148476 -178.606781 
L 587.98947 -178.970348 
L 583.830464 -194.994673 
L 579.671458 -212.262728 
L 575.512451 -230.419878 
L 571.353445 -240.897222 
L 567.194439 -232.444781 
L 563.035433 -217.842879 
L 558.876427 -198.723491 
L 554.71742 -175.811108 
L 550.558414 -166.408413 
L 546.399408 -170.659002 
L 542.240402 -184.011758 
L 538.081396 -211.893073 
L 533.922389 -234.469079 
L 529.763383 -248.117612 
L 525.604377 -242.354375 
L 521.445371 -220.094908 
L 517.286365 -192.646929 
L 513.127358 -166.305083 
L 508.968352 -149.932401 
L 504.809346 -148.230374 
L 500.65034 -163.592329 
L 496.491333 -199.555242 
L 492.332327 -238.258128 
L 488.173321 -263.482569 
L 484.014315 -263.13846 
L 479.855309 -227.979178 
L 475.696302 -180.074316 
L 471.537296 -136.341351 
L 467.37829 -104.304373 
L 463.219284 -91.81819 
L 459.060278 -87.405198 
L 454.901271 -85.522178 
L 450.742265 -84.994036 
L 446.583259 -84.668196 
L 442.424253 -84.543552 
z
" id="m9af9c02053"/>
    </defs>
    <g clip-path="url(#pc7e0103038)">
     <use style="fill:#4db8ff;" x="0" xlink:href="#m9af9c02053" y="285.213437"/>
    </g>
   </g>
   <g id="matplotlib.axis_3">
    <g id="xtick_9">
     <g id="line2d_28">
      <path clip-path="url(#pc7e0103038)" d="M 442.424253 230.64 
L 442.424253 13.2 
" style="fill:none;stroke:#b0b0b0;stroke-linecap:square;stroke-width:0.8;"/>
     </g>
     <g id="line2d_29">
      <g>
       <use x="442.424253" xlink:href="#m943a7c3891" y="230.64"/>
      </g>
     </g>
     <g id="text_16">
      <!-- 0 -->
      <g transform="translate(437.652378 251.537656)scale(0.15 -0.15)">
       <use xlink:href="#DejaVuSans-30"/>
      </g>
     </g>
    </g>
    <g id="xtick_10">
     <g id="line2d_30">
      <path clip-path="url(#pc7e0103038)" d="M 484.014315 230.64 
L 484.014315 13.2 
" style="fill:none;stroke:#b0b0b0;stroke-linecap:square;stroke-width:0.8;"/>
     </g>
     <g id="line2d_31">
      <g>
       <use x="484.014315" xlink:href="#m943a7c3891" y="230.64"/>
      </g>
     </g>
     <g id="text_17">
      <!-- 1 -->
      <g transform="translate(479.24244 251.537656)scale(0.15 -0.15)">
       <use xlink:href="#DejaVuSans-31"/>
      </g>
     </g>
    </g>
    <g id="xtick_11">
     <g id="line2d_32">
      <path clip-path="url(#pc7e0103038)" d="M 525.604377 230.64 
L 525.604377 13.2 
" style="fill:none;stroke:#b0b0b0;stroke-linecap:square;stroke-width:0.8;"/>
     </g>
     <g id="line2d_33">
      <g>
       <use x="525.604377" xlink:href="#m943a7c3891" y="230.64"/>
      </g>
     </g>
     <g id="text_18">
      <!-- 2 -->
      <g transform="translate(520.832502 251.537656)scale(0.15 -0.15)">
       <use xlink:href="#DejaVuSans-32"/>
      </g>
     </g>
    </g>
    <g id="xtick_12">
     <g id="line2d_34">
      <path clip-path="url(#pc7e0103038)" d="M 567.194439 230.64 
L 567.194439 13.2 
" style="fill:none;stroke:#b0b0b0;stroke-linecap:square;stroke-width:0.8;"/>
     </g>
     <g id="line2d_35">
      <g>
       <use x="567.194439" xlink:href="#m943a7c3891" y="230.64"/>
      </g>
     </g>
     <g id="text_19">
      <!-- 3 -->
      <g transform="translate(562.422564 251.537656)scale(0.15 -0.15)">
       <use xlink:href="#DejaVuSans-33"/>
      </g>
     </g>
    </g>
    <g id="xtick_13">
     <g id="line2d_36">
      <path clip-path="url(#pc7e0103038)" d="M 608.784501 230.64 
L 608.784501 13.2 
" style="fill:none;stroke:#b0b0b0;stroke-linecap:square;stroke-width:0.8;"/>
     </g>
     <g id="line2d_37">
      <g>
       <use x="608.784501" xlink:href="#m943a7c3891" y="230.64"/>
      </g>
     </g>
     <g id="text_20">
      <!-- 4 -->
      <g transform="translate(604.012626 251.537656)scale(0.15 -0.15)">
       <use xlink:href="#DejaVuSans-34"/>
      </g>
     </g>
    </g>
    <g id="xtick_14">
     <g id="line2d_38">
      <path clip-path="url(#pc7e0103038)" d="M 650.374563 230.64 
L 650.374563 13.2 
" style="fill:none;stroke:#b0b0b0;stroke-linecap:square;stroke-width:0.8;"/>
     </g>
     <g id="line2d_39">
      <g>
       <use x="650.374563" xlink:href="#m943a7c3891" y="230.64"/>
      </g>
     </g>
     <g id="text_21">
      <!-- 5 -->
      <g transform="translate(645.602688 251.537656)scale(0.15 -0.15)">
       <use xlink:href="#DejaVuSans-35"/>
      </g>
     </g>
    </g>
    <g id="xtick_15">
     <g id="line2d_40">
      <path clip-path="url(#pc7e0103038)" d="M 691.964625 230.64 
L 691.964625 13.2 
" style="fill:none;stroke:#b0b0b0;stroke-linecap:square;stroke-width:0.8;"/>
     </g>
     <g id="line2d_41">
      <g>
       <use x="691.964625" xlink:href="#m943a7c3891" y="230.64"/>
      </g>
     </g>
     <g id="text_22">
      <!-- 6 -->
      <g transform="translate(687.19275 251.537656)scale(0.15 -0.15)">
       <use xlink:href="#DejaVuSans-36"/>
      </g>
     </g>
    </g>
    <g id="xtick_16">
     <g id="line2d_42">
      <path clip-path="url(#pc7e0103038)" d="M 733.554688 230.64 
L 733.554688 13.2 
" style="fill:none;stroke:#b0b0b0;stroke-linecap:square;stroke-width:0.8;"/>
     </g>
     <g id="line2d_43">
      <g>
       <use x="733.554688" xlink:href="#m943a7c3891" y="230.64"/>
      </g>
     </g>
     <g id="text_23">
      <!-- 7 -->
      <g transform="translate(728.782813 251.537656)scale(0.15 -0.15)">
       <use xlink:href="#DejaVuSans-37"/>
      </g>
     </g>
    </g>
    <g id="text_24">
     <!-- $t/\tau$ -->
     <g transform="translate(574.58947 273.854062)scale(0.2 -0.2)">
      <use transform="translate(0 0.09375)" xlink:href="#DejaVuSans-Oblique-74"/>
      <use transform="translate(39.208984 0.09375)" xlink:href="#DejaVuSans-2f"/>
      <use transform="translate(72.900391 0.09375)" xlink:href="#DejaVuSans-Oblique-3c4"/>
     </g>
    </g>
   </g>
   <g id="matplotlib.axis_4">
    <g id="ytick_6">
     <g id="line2d_44">
      <path clip-path="url(#pc7e0103038)" d="M 442.424253 230.64 
L 733.554688 230.64 
" style="fill:none;stroke:#b0b0b0;stroke-linecap:square;stroke-width:0.8;"/>
     </g>
     <g id="line2d_45">
      <g>
       <use x="442.424253" xlink:href="#mb63ff1fe16" y="230.64"/>
      </g>
     </g>
     <g id="text_25">
      <!-- 0.00 -->
      <g transform="translate(399.525815 236.338828)scale(0.15 -0.15)">
       <use xlink:href="#DejaVuSans-30"/>
       <use x="63.623047" xlink:href="#DejaVuSans-2e"/>
       <use x="95.410156" xlink:href="#DejaVuSans-30"/>
       <use x="159.033203" xlink:href="#DejaVuSans-30"/>
      </g>
     </g>
    </g>
    <g id="ytick_7">
     <g id="line2d_46">
      <path clip-path="url(#pc7e0103038)" d="M 442.424253 191.613519 
L 733.554688 191.613519 
" style="fill:none;stroke:#b0b0b0;stroke-linecap:square;stroke-width:0.8;"/>
     </g>
     <g id="line2d_47">
      <g>
       <use x="442.424253" xlink:href="#mb63ff1fe16" y="191.613519"/>
      </g>
     </g>
     <g id="text_26">
      <!-- 0.02 -->
      <g transform="translate(399.525815 197.312347)scale(0.15 -0.15)">
       <use xlink:href="#DejaVuSans-30"/>
       <use x="63.623047" xlink:href="#DejaVuSans-2e"/>
       <use x="95.410156" xlink:href="#DejaVuSans-30"/>
       <use x="159.033203" xlink:href="#DejaVuSans-32"/>
      </g>
     </g>
    </g>
    <g id="ytick_8">
     <g id="line2d_48">
      <path clip-path="url(#pc7e0103038)" d="M 442.424253 152.587039 
L 733.554688 152.587039 
" style="fill:none;stroke:#b0b0b0;stroke-linecap:square;stroke-width:0.8;"/>
     </g>
     <g id="line2d_49">
      <g>
       <use x="442.424253" xlink:href="#mb63ff1fe16" y="152.587039"/>
      </g>
     </g>
     <g id="text_27">
      <!-- 0.04 -->
      <g transform="translate(399.525815 158.285867)scale(0.15 -0.15)">
       <use xlink:href="#DejaVuSans-30"/>
       <use x="63.623047" xlink:href="#DejaVuSans-2e"/>
       <use x="95.410156" xlink:href="#DejaVuSans-30"/>
       <use x="159.033203" xlink:href="#DejaVuSans-34"/>
      </g>
     </g>
    </g>
    <g id="ytick_9">
     <g id="line2d_50">
      <path clip-path="url(#pc7e0103038)" d="M 442.424253 113.560558 
L 733.554688 113.560558 
" style="fill:none;stroke:#b0b0b0;stroke-linecap:square;stroke-width:0.8;"/>
     </g>
     <g id="line2d_51">
      <g>
       <use x="442.424253" xlink:href="#mb63ff1fe16" y="113.560558"/>
      </g>
     </g>
     <g id="text_28">
      <!-- 0.06 -->
      <g transform="translate(399.525815 119.259386)scale(0.15 -0.15)">
       <use xlink:href="#DejaVuSans-30"/>
       <use x="63.623047" xlink:href="#DejaVuSans-2e"/>
       <use x="95.410156" xlink:href="#DejaVuSans-30"/>
       <use x="159.033203" xlink:href="#DejaVuSans-36"/>
      </g>
     </g>
    </g>
    <g id="ytick_10">
     <g id="line2d_52">
      <path clip-path="url(#pc7e0103038)" d="M 442.424253 74.534077 
L 733.554688 74.534077 
" style="fill:none;stroke:#b0b0b0;stroke-linecap:square;stroke-width:0.8;"/>
     </g>
     <g id="line2d_53">
      <g>
       <use x="442.424253" xlink:href="#mb63ff1fe16" y="74.534077"/>
      </g>
     </g>
     <g id="text_29">
      <!-- 0.08 -->
      <defs>
       <path d="M 31.78125 34.625 
Q 24.75 34.625 20.71875 30.859375 
Q 16.703125 27.09375 16.703125 20.515625 
Q 16.703125 13.921875 20.71875 10.15625 
Q 24.75 6.390625 31.78125 6.390625 
Q 38.8125 6.390625 42.859375 10.171875 
Q 46.921875 13.96875 46.921875 20.515625 
Q 46.921875 27.09375 42.890625 30.859375 
Q 38.875 34.625 31.78125 34.625 
z
M 21.921875 38.8125 
Q 15.578125 40.375 12.03125 44.71875 
Q 8.5 49.078125 8.5 55.328125 
Q 8.5 64.0625 14.71875 69.140625 
Q 20.953125 74.21875 31.78125 74.21875 
Q 42.671875 74.21875 48.875 69.140625 
Q 55.078125 64.0625 55.078125 55.328125 
Q 55.078125 49.078125 51.53125 44.71875 
Q 48 40.375 41.703125 38.8125 
Q 48.828125 37.15625 52.796875 32.3125 
Q 56.78125 27.484375 56.78125 20.515625 
Q 56.78125 9.90625 50.3125 4.234375 
Q 43.84375 -1.421875 31.78125 -1.421875 
Q 19.734375 -1.421875 13.25 4.234375 
Q 6.78125 9.90625 6.78125 20.515625 
Q 6.78125 27.484375 10.78125 32.3125 
Q 14.796875 37.15625 21.921875 38.8125 
z
M 18.3125 54.390625 
Q 18.3125 48.734375 21.84375 45.5625 
Q 25.390625 42.390625 31.78125 42.390625 
Q 38.140625 42.390625 41.71875 45.5625 
Q 45.3125 48.734375 45.3125 54.390625 
Q 45.3125 60.0625 41.71875 63.234375 
Q 38.140625 66.40625 31.78125 66.40625 
Q 25.390625 66.40625 21.84375 63.234375 
Q 18.3125 60.0625 18.3125 54.390625 
z
" id="DejaVuSans-38"/>
      </defs>
      <g transform="translate(399.525815 80.232906)scale(0.15 -0.15)">
       <use xlink:href="#DejaVuSans-30"/>
       <use x="63.623047" xlink:href="#DejaVuSans-2e"/>
       <use x="95.410156" xlink:href="#DejaVuSans-30"/>
       <use x="159.033203" xlink:href="#DejaVuSans-38"/>
      </g>
     </g>
    </g>
    <g id="ytick_11">
     <g id="line2d_54">
      <path clip-path="url(#pc7e0103038)" d="M 442.424253 35.507597 
L 733.554688 35.507597 
" style="fill:none;stroke:#b0b0b0;stroke-linecap:square;stroke-width:0.8;"/>
     </g>
     <g id="line2d_55">
      <g>
       <use x="442.424253" xlink:href="#mb63ff1fe16" y="35.507597"/>
      </g>
     </g>
     <g id="text_30">
      <!-- 0.10 -->
      <g transform="translate(399.525815 41.206425)scale(0.15 -0.15)">
       <use xlink:href="#DejaVuSans-30"/>
       <use x="63.623047" xlink:href="#DejaVuSans-2e"/>
       <use x="95.410156" xlink:href="#DejaVuSans-31"/>
       <use x="159.033203" xlink:href="#DejaVuSans-30"/>
      </g>
     </g>
    </g>
    <g id="text_31">
     <!-- $C_V^2(s)$ -->
     <defs>
      <path d="M 69.484375 67.28125 
L 67.484375 56.890625 
Q 62.796875 61.625 57.546875 63.921875 
Q 52.296875 66.21875 46.1875 66.21875 
Q 37.84375 66.21875 31.515625 62.203125 
Q 25.203125 58.203125 20.609375 50 
Q 17.671875 44.734375 16.125 38.84375 
Q 14.59375 32.953125 14.59375 27 
Q 14.59375 17.046875 19.75 11.8125 
Q 24.90625 6.59375 34.71875 6.59375 
Q 41.5 6.59375 47.75 8.765625 
Q 54 10.9375 59.90625 15.28125 
L 57.625 3.609375 
Q 51.8125 1.125 45.875 -0.140625 
Q 39.9375 -1.421875 33.984375 -1.421875 
Q 19.96875 -1.421875 12.078125 6.1875 
Q 4.203125 13.8125 4.203125 27.390625 
Q 4.203125 36.078125 7.203125 44.46875 
Q 10.203125 52.875 15.828125 59.8125 
Q 21.78125 67.1875 29.421875 70.703125 
Q 37.0625 74.21875 47.21875 74.21875 
Q 53.46875 74.21875 59.0625 72.484375 
Q 64.65625 70.75 69.484375 67.28125 
z
" id="DejaVuSans-Oblique-43"/>
      <path d="M 20.609375 0 
L 7.8125 72.90625 
L 17.484375 72.90625 
L 28.078125 10.203125 
L 63.484375 72.90625 
L 74.21875 72.90625 
L 32.078125 0 
z
" id="DejaVuSans-Oblique-56"/>
     </defs>
     <g transform="translate(389.925815 147.42)rotate(-90)scale(0.2 -0.2)">
      <use transform="translate(0 0.765625)" xlink:href="#DejaVuSans-Oblique-43"/>
      <use transform="translate(77.02474 39.046875)scale(0.7)" xlink:href="#DejaVuSans-32"/>
      <use transform="translate(69.824219 -26.578125)scale(0.7)" xlink:href="#DejaVuSans-Oblique-56"/>
      <use transform="translate(124.295247 0.765625)" xlink:href="#DejaVuSans-28"/>
      <use transform="translate(163.308919 0.765625)" xlink:href="#DejaVuSans-Oblique-73"/>
      <use transform="translate(215.408529 0.765625)" xlink:href="#DejaVuSans-29"/>
     </g>
    </g>
   </g>
   <g id="line2d_56">
    <path clip-path="url(#pc7e0103038)" d="M 442.424253 201.98561 
L 446.583259 201.86682 
L 450.742265 201.556297 
L 454.901271 201.053014 
L 459.060278 199.258966 
L 463.219284 195.056476 
L 467.37829 183.179791 
L 471.537296 152.785992 
L 475.696302 111.444613 
L 479.855309 66.318958 
L 484.014315 33.290181 
L 488.173321 32.967273 
L 492.332327 56.655395 
L 496.491333 93.075454 
L 500.65034 127.007387 
L 504.809346 141.531662 
L 508.968352 139.921494 
L 513.127358 124.444511 
L 517.286365 99.586499 
L 521.445371 73.735571 
L 525.604377 52.806139 
L 529.763383 47.392069 
L 533.922389 60.21686 
L 538.081396 81.455042 
L 542.240402 107.729731 
L 546.399408 120.332326 
L 550.558414 124.346901 
L 554.71742 115.468114 
L 558.876427 93.859204 
L 563.035433 75.85473 
L 567.194439 62.119923 
L 571.353445 54.175317 
L 575.512451 64.023803 
L 579.671458 81.107036 
L 583.830464 97.3734 
L 587.98947 112.486381 
L 592.148476 112.829483 
L 596.307483 107.604843 
L 600.466489 93.562071 
L 604.625495 78.365183 
L 608.784501 67.04454 
L 612.943507 63.502162 
L 617.102514 67.034045 
L 621.26152 77.23749 
L 625.420526 92.883019 
L 629.579532 103.388895 
L 633.738538 106.368614 
L 637.897545 105.009769 
L 642.056551 95.231036 
L 646.215557 85.867872 
L 650.374563 70.984738 
L 654.533569 67.748133 
L 658.692576 66.216171 
L 662.851582 74.027145 
L 667.010588 83.245535 
L 671.169594 95.210375 
L 675.328601 105.320675 
L 679.487607 104.633329 
L 683.646613 97.465751 
L 687.805619 84.301356 
L 691.964625 75.566665 
L 696.123632 70.080594 
L 700.282638 71.327023 
L 704.441644 77.199476 
L 708.60065 88.34618 
L 712.759656 96.972085 
L 716.918663 99.984676 
L 721.077669 99.93991 
L 725.236675 91.470352 
L 729.395681 85.090539 
L 733.554687 75.349555 
L 737.713694 72.565625 
L 741.8727 72.602051 
L 746.031706 75.303977 
L 747.754688 78.290751 
" style="fill:none;stroke:#1f77b4;stroke-linecap:square;stroke-width:1.5;"/>
   </g>
   <g id="patch_8">
    <path d="M 442.424253 230.64 
L 442.424253 13.2 
" style="fill:none;stroke:#000000;stroke-linecap:square;stroke-linejoin:miter;stroke-width:2;"/>
   </g>
   <g id="patch_9">
    <path d="M 733.554688 230.64 
L 733.554688 13.2 
" style="fill:none;"/>
   </g>
   <g id="patch_10">
    <path d="M 442.424253 230.64 
L 733.554688 230.64 
" style="fill:none;stroke:#000000;stroke-linecap:square;stroke-linejoin:miter;stroke-width:2;"/>
   </g>
   <g id="patch_11">
    <path d="M 442.424253 13.2 
L 733.554688 13.2 
" style="fill:none;"/>
   </g>
  </g>
 </g>
 <defs>
  <clipPath id="p8585cb5696">
   <rect height="217.44" width="291.130435" x="63.954687" y="13.2"/>
  </clipPath>
  <clipPath id="pc7e0103038">
   <rect height="217.44" width="291.130435" x="442.424253" y="13.2"/>
  </clipPath>
 </defs>
</svg>
