<?xml version="1.0" encoding="utf-8" standalone="no"?>
<!DOCTYPE svg PUBLIC "-//W3C//DTD SVG 1.1//EN"
  "http://www.w3.org/Graphics/SVG/1.1/DTD/svg11.dtd">
<!-- Created with matplotlib (http://matplotlib.org/) -->
<svg height="339.573438pt" version="1.1" viewBox="0 0 928.475 339.573438" width="928.475pt" xmlns="http://www.w3.org/2000/svg" xmlns:xlink="http://www.w3.org/1999/xlink">
 <defs>
  <style type="text/css">
*{stroke-linecap:butt;stroke-linejoin:round;}
  </style>
 </defs>
 <g id="figure_1">
  <g id="patch_1">
   <path d="M 0 339.573438 
L 928.475 339.573438 
L 928.475 0 
L 0 0 
z
" style="fill:#ffffff;"/>
  </g>
  <g id="axes_1">
   <g id="patch_2">
    <path d="M 78.275 285 
L 442.188043 285 
L 442.188043 13.2 
L 78.275 13.2 
z
" style="fill:#ffffff;"/>
   </g>
   <g id="PolyCollection_1">
    <defs>
     <path d="M 78.275 -66.927983 
L 78.275 -66.927983 
L 83.473758 -69.827721 
L 88.672516 -77.050422 
L 93.871273 -86.806876 
L 99.070031 -97.949523 
L 104.268789 -109.815711 
L 109.467547 -121.661127 
L 114.666304 -133.278352 
L 119.865062 -144.53585 
L 125.06382 -155.19745 
L 130.262578 -165.326787 
L 135.461335 -174.990312 
L 140.660093 -184.033495 
L 145.858851 -192.37776 
L 151.057609 -200.365771 
L 156.256366 -207.863588 
L 161.455124 -214.811251 
L 166.653882 -221.223152 
L 171.85264 -227.198105 
L 177.051398 -232.877708 
L 182.250155 -238.260805 
L 187.448913 -243.385797 
L 192.647671 -248.135202 
L 197.846429 -252.389423 
L 203.045186 -256.398917 
L 208.243944 -260.166041 
L 213.442702 -263.722723 
L 218.64146 -267.061019 
L 223.840217 -270.192264 
L 229.038975 -273.058533 
L 234.237733 -275.722533 
L 239.436491 -278.232211 
L 244.635248 -280.55628 
L 249.834006 -282.819672 
L 255.032764 -284.926408 
L 260.231522 -287.000971 
L 265.43028 -289.087218 
L 270.629037 -290.97567 
L 275.827795 -292.763378 
L 281.026553 -294.306137 
L 286.225311 -295.67518 
L 291.424068 -297.135663 
L 296.622826 -298.521482 
L 301.821584 -299.729319 
L 307.020342 -300.820572 
L 312.219099 -301.884805 
L 317.417857 -302.805732 
L 322.616615 -303.686423 
L 327.815373 -304.413892 
L 333.01413 -305.135137 
L 338.212888 -305.828741 
L 343.411646 -306.249513 
L 348.610404 -306.727812 
L 353.809161 -306.975559 
L 359.007919 -307.352394 
L 364.206677 -307.793806 
L 369.405435 -308.211884 
L 374.604193 -308.666391 
L 379.80295 -308.993801 
L 385.001708 -309.313228 
L 390.200466 -309.586868 
L 395.399224 -309.891098 
L 400.597981 -310.270396 
L 405.796739 -310.600811 
L 410.995497 -310.929756 
L 416.194255 -311.171078 
L 421.393012 -311.358003 
L 426.59177 -311.496378 
L 431.790528 -311.748229 
L 436.989286 -311.867563 
L 436.989286 -314.018892 
L 436.989286 -314.018892 
L 431.790528 -313.845101 
L 426.59177 -313.745778 
L 421.393012 -313.510332 
L 416.194255 -313.294542 
L 410.995497 -313.036676 
L 405.796739 -312.738823 
L 400.597981 -312.381253 
L 395.399224 -312.076934 
L 390.200466 -311.769904 
L 385.001708 -311.448274 
L 379.80295 -311.188599 
L 374.604193 -310.811413 
L 369.405435 -310.328769 
L 364.206677 -309.902503 
L 359.007919 -309.549422 
L 353.809161 -309.168362 
L 348.610404 -308.762222 
L 343.411646 -308.444764 
L 338.212888 -307.884073 
L 333.01413 -307.355259 
L 327.815373 -306.582127 
L 322.616615 -305.755496 
L 317.417857 -304.97386 
L 312.219099 -304.011088 
L 307.020342 -303.014321 
L 301.821584 -301.928693 
L 296.622826 -300.697851 
L 291.424068 -299.277483 
L 286.225311 -297.903174 
L 281.026553 -296.495139 
L 275.827795 -294.892047 
L 270.629037 -293.149727 
L 265.43028 -291.200003 
L 260.231522 -289.23292 
L 255.032764 -287.14232 
L 249.834006 -284.969102 
L 244.635248 -282.740909 
L 239.436491 -280.40922 
L 234.237733 -277.911133 
L 229.038975 -275.162371 
L 223.840217 -272.274135 
L 218.64146 -269.106879 
L 213.442702 -265.853546 
L 208.243944 -262.309268 
L 203.045186 -258.457614 
L 197.846429 -254.547605 
L 192.647671 -250.151531 
L 187.448913 -245.487461 
L 182.250155 -240.288972 
L 177.051398 -234.869773 
L 171.85264 -229.293769 
L 166.653882 -223.191037 
L 161.455124 -216.735053 
L 156.256366 -209.852634 
L 151.057609 -202.241829 
L 145.858851 -194.21236 
L 140.660093 -185.710477 
L 135.461335 -176.665751 
L 130.262578 -166.965375 
L 125.06382 -156.728545 
L 119.865062 -145.902512 
L 114.666304 -134.589737 
L 109.467547 -122.799651 
L 104.268789 -110.789821 
L 99.070031 -98.816498 
L 93.871273 -87.474251 
L 88.672516 -77.468883 
L 83.473758 -70.001454 
L 78.275 -66.927983 
z
" id="m705911ed45"/>
    </defs>
    <g clip-path="url(#p6e030c179b)">
     <use style="fill:#4db8ff;" x="0" xlink:href="#m705911ed45" y="339.573438"/>
    </g>
   </g>
   <g id="PolyCollection_2">
    <defs>
     <path d="M 78.275 -66.927983 
L 78.275 -66.927983 
L 83.473758 -69.657773 
L 88.672516 -76.826432 
L 93.871273 -86.645386 
L 99.070031 -97.622937 
L 104.268789 -109.525978 
L 109.467547 -121.075664 
L 114.666304 -132.269535 
L 119.865062 -143.471437 
L 125.06382 -154.040943 
L 130.262578 -164.56495 
L 135.461335 -173.43025 
L 140.660093 -182.38055 
L 145.858851 -191.5502 
L 151.057609 -199.469063 
L 156.256366 -207.147722 
L 161.455124 -214.242426 
L 166.653882 -221.357333 
L 171.85264 -228.12864 
L 177.051398 -233.535734 
L 182.250155 -238.411634 
L 187.448913 -243.528448 
L 192.647671 -248.658293 
L 197.846429 -253.555625 
L 203.045186 -257.80663 
L 208.243944 -261.201185 
L 213.442702 -264.398661 
L 218.64146 -267.436774 
L 223.840217 -270.798543 
L 229.038975 -273.474529 
L 234.237733 -276.254771 
L 239.436491 -279.306394 
L 244.635248 -282.01988 
L 249.834006 -283.89842 
L 255.032764 -285.916607 
L 260.231522 -287.689163 
L 265.43028 -289.527841 
L 270.629037 -291.261463 
L 275.827795 -292.984269 
L 281.026553 -294.764545 
L 286.225311 -296.317011 
L 291.424068 -297.239187 
L 296.622826 -297.836873 
L 301.821584 -298.752005 
L 307.020342 -299.705159 
L 312.219099 -300.463822 
L 317.417857 -301.366233 
L 322.616615 -302.427691 
L 327.815373 -303.535713 
L 333.01413 -304.381283 
L 338.212888 -305.335288 
L 343.411646 -305.773963 
L 348.610404 -306.226645 
L 353.809161 -306.733485 
L 359.007919 -307.329924 
L 364.206677 -307.883963 
L 369.405435 -308.177244 
L 374.604193 -308.738216 
L 379.80295 -309.276431 
L 385.001708 -309.564769 
L 390.200466 -309.915272 
L 395.399224 -310.06928 
L 400.597981 -310.355362 
L 405.796739 -310.762073 
L 410.995497 -311.048321 
L 416.194255 -311.229689 
L 421.393012 -311.459924 
L 426.59177 -311.500243 
L 431.790528 -311.655512 
L 436.989286 -311.909597 
L 436.989286 -312.720674 
L 436.989286 -312.720674 
L 431.790528 -312.537847 
L 426.59177 -312.407046 
L 421.393012 -312.368186 
L 416.194255 -312.165065 
L 410.995497 -311.990179 
L 405.796739 -311.720202 
L 400.597981 -311.369662 
L 395.399224 -311.083824 
L 390.200466 -310.978294 
L 385.001708 -310.705721 
L 379.80295 -310.485545 
L 374.604193 -309.98791 
L 369.405435 -309.518951 
L 364.206677 -309.198329 
L 359.007919 -308.652513 
L 353.809161 -308.094823 
L 348.610404 -307.600814 
L 343.411646 -307.291619 
L 338.212888 -306.860092 
L 333.01413 -305.936054 
L 327.815373 -305.233183 
L 322.616615 -304.263628 
L 317.417857 -303.24049 
L 312.219099 -302.377296 
L 307.020342 -301.590421 
L 301.821584 -300.766066 
L 296.622826 -299.841391 
L 291.424068 -299.24579 
L 286.225311 -298.495682 
L 281.026553 -297.023897 
L 275.827795 -295.381272 
L 270.629037 -293.786625 
L 265.43028 -292.126333 
L 260.231522 -290.324108 
L 255.032764 -288.599892 
L 249.834006 -286.557801 
L 244.635248 -284.687219 
L 239.436491 -282.09698 
L 234.237733 -279.223909 
L 229.038975 -276.649379 
L 223.840217 -274.27586 
L 218.64146 -270.763436 
L 213.442702 -267.888648 
L 208.243944 -264.722832 
L 203.045186 -261.374518 
L 197.846429 -257.141551 
L 192.647671 -252.56477 
L 187.448913 -247.577173 
L 182.250155 -242.550906 
L 177.051398 -237.780277 
L 171.85264 -232.431112 
L 166.653882 -225.766385 
L 161.455124 -218.843038 
L 156.256366 -211.812881 
L 151.057609 -204.084392 
L 145.858851 -196.196816 
L 140.660093 -186.889067 
L 135.461335 -178.015015 
L 130.262578 -169.080767 
L 125.06382 -158.574378 
L 119.865062 -147.961448 
L 114.666304 -136.593014 
L 109.467547 -125.151069 
L 104.268789 -113.175608 
L 99.070031 -100.713571 
L 93.871273 -88.870734 
L 88.672516 -78.211264 
L 83.473758 -70.219562 
L 78.275 -66.927983 
z
" id="ma998ec6b27"/>
    </defs>
    <g clip-path="url(#p6e030c179b)">
     <use style="fill:#ffa035;" x="0" xlink:href="#ma998ec6b27" y="339.573438"/>
    </g>
   </g>
   <g id="PolyCollection_3">
    <defs>
     <path d="M 78.275 -66.927983 
L 78.275 -66.927983 
L 83.473758 -69.636986 
L 88.672516 -76.820183 
L 93.871273 -86.6131 
L 99.070031 -97.574359 
L 104.268789 -109.30983 
L 109.467547 -120.85931 
L 114.666304 -132.218804 
L 119.865062 -142.987663 
L 125.06382 -153.529209 
L 130.262578 -163.541788 
L 135.461335 -172.855321 
L 140.660093 -181.704241 
L 145.858851 -190.720909 
L 151.057609 -198.789224 
L 156.256366 -206.49497 
L 161.455124 -213.690135 
L 166.653882 -220.797284 
L 171.85264 -227.601163 
L 177.051398 -233.048567 
L 182.250155 -237.888824 
L 187.448913 -242.997165 
L 192.647671 -248.169204 
L 197.846429 -252.855052 
L 203.045186 -256.989254 
L 208.243944 -260.544224 
L 213.442702 -263.862796 
L 218.64146 -266.837942 
L 223.840217 -270.36614 
L 229.038975 -272.926756 
L 234.237733 -275.513013 
L 239.436491 -278.615879 
L 244.635248 -281.047985 
L 249.834006 -282.968161 
L 255.032764 -285.371528 
L 260.231522 -287.110052 
L 265.43028 -288.946186 
L 270.629037 -290.709549 
L 275.827795 -292.27585 
L 281.026553 -294.106056 
L 286.225311 -295.716021 
L 291.424068 -296.55808 
L 296.622826 -297.374307 
L 301.821584 -298.185544 
L 307.020342 -299.256857 
L 312.219099 -300.022362 
L 317.417857 -301.007707 
L 322.616615 -301.982581 
L 327.815373 -303.018472 
L 333.01413 -303.801343 
L 338.212888 -304.913702 
L 343.411646 -305.346812 
L 348.610404 -305.847752 
L 353.809161 -306.373453 
L 359.007919 -307.013713 
L 364.206677 -307.582227 
L 369.405435 -307.937674 
L 374.604193 -308.413951 
L 379.80295 -308.940784 
L 385.001708 -309.304481 
L 390.200466 -309.634928 
L 395.399224 -309.781216 
L 400.597981 -310.129005 
L 405.796739 -310.508157 
L 410.995497 -310.837525 
L 416.194255 -311.001555 
L 421.393012 -311.240284 
L 426.59177 -311.331972 
L 431.790528 -311.468002 
L 436.989286 -311.702331 
L 436.989286 -312.932791 
L 436.989286 -312.932791 
L 431.790528 -312.760744 
L 426.59177 -312.632656 
L 421.393012 -312.609194 
L 416.194255 -312.354123 
L 410.995497 -312.227597 
L 405.796739 -311.948465 
L 400.597981 -311.537956 
L 395.399224 -311.331023 
L 390.200466 -311.33882 
L 385.001708 -310.953972 
L 379.80295 -310.698426 
L 374.604193 -310.307201 
L 369.405435 -309.780092 
L 364.206677 -309.512648 
L 359.007919 -308.960271 
L 353.809161 -308.448474 
L 348.610404 -307.943024 
L 343.411646 -307.67902 
L 338.212888 -307.261961 
L 333.01413 -306.311557 
L 327.815373 -305.487356 
L 322.616615 -304.499184 
L 317.417857 -303.65129 
L 312.219099 -302.796327 
L 307.020342 -301.935905 
L 301.821584 -301.138349 
L 296.622826 -300.345216 
L 291.424068 -299.608129 
L 286.225311 -298.92521 
L 281.026553 -297.539427 
L 275.827795 -295.781821 
L 270.629037 -294.141266 
L 265.43028 -292.456288 
L 260.231522 -290.906904 
L 255.032764 -289.054229 
L 249.834006 -286.830691 
L 244.635248 -284.993957 
L 239.436491 -282.82374 
L 234.237733 -279.92407 
L 229.038975 -277.712671 
L 223.840217 -274.722362 
L 218.64146 -271.722528 
L 213.442702 -268.778029 
L 208.243944 -265.560021 
L 203.045186 -262.09882 
L 197.846429 -258.030646 
L 192.647671 -253.500272 
L 187.448913 -248.500519 
L 182.250155 -243.262402 
L 177.051398 -238.717699 
L 171.85264 -232.86404 
L 166.653882 -226.314264 
L 161.455124 -219.434614 
L 156.256366 -212.11475 
L 151.057609 -204.682873 
L 145.858851 -196.295704 
L 140.660093 -187.563255 
L 135.461335 -178.451288 
L 130.262578 -168.769367 
L 125.06382 -158.762462 
L 119.865062 -148.076647 
L 114.666304 -136.770838 
L 109.467547 -125.06583 
L 104.268789 -112.949359 
L 99.070031 -100.635993 
L 93.871273 -88.830079 
L 88.672516 -78.232733 
L 83.473758 -70.222539 
L 78.275 -66.927983 
z
" id="mc6fa2feebd"/>
    </defs>
    <g clip-path="url(#p6e030c179b)">
     <use style="fill:#47d200;" x="0" xlink:href="#mc6fa2feebd" y="339.573438"/>
    </g>
   </g>
   <g id="matplotlib.axis_1">
    <g id="xtick_1">
     <g id="line2d_1">
      <path clip-path="url(#p6e030c179b)" d="M 78.275 285 
L 78.275 13.2 
" style="fill:none;stroke:#b0b0b0;stroke-linecap:square;stroke-width:0.8;"/>
     </g>
     <g id="line2d_2">
      <defs>
       <path d="M 0 0 
L 0 6 
" id="m4943a84a9e"/>
      </defs>
      <g>
       <use x="78.275" xlink:href="#m4943a84a9e" y="285"/>
      </g>
     </g>
     <g id="text_1">
      <!-- 0 -->
      <defs>
       <path d="M 31.78125 66.40625 
Q 24.171875 66.40625 20.328125 58.90625 
Q 16.5 51.421875 16.5 36.375 
Q 16.5 21.390625 20.328125 13.890625 
Q 24.171875 6.390625 31.78125 6.390625 
Q 39.453125 6.390625 43.28125 13.890625 
Q 47.125 21.390625 47.125 36.375 
Q 47.125 51.421875 43.28125 58.90625 
Q 39.453125 66.40625 31.78125 66.40625 
z
M 31.78125 74.21875 
Q 44.046875 74.21875 50.515625 64.515625 
Q 56.984375 54.828125 56.984375 36.375 
Q 56.984375 17.96875 50.515625 8.265625 
Q 44.046875 -1.421875 31.78125 -1.421875 
Q 19.53125 -1.421875 13.0625 8.265625 
Q 6.59375 17.96875 6.59375 36.375 
Q 6.59375 54.828125 13.0625 64.515625 
Q 19.53125 74.21875 31.78125 74.21875 
z
" id="DejaVuSans-30"/>
      </defs>
      <g transform="translate(73.503125 305.897656)scale(0.15 -0.15)">
       <use xlink:href="#DejaVuSans-30"/>
      </g>
     </g>
    </g>
    <g id="xtick_2">
     <g id="line2d_3">
      <path clip-path="url(#p6e030c179b)" d="M 130.262578 285 
L 130.262578 13.2 
" style="fill:none;stroke:#b0b0b0;stroke-linecap:square;stroke-width:0.8;"/>
     </g>
     <g id="line2d_4">
      <g>
       <use x="130.262578" xlink:href="#m4943a84a9e" y="285"/>
      </g>
     </g>
     <g id="text_2">
      <!-- 1 -->
      <defs>
       <path d="M 12.40625 8.296875 
L 28.515625 8.296875 
L 28.515625 63.921875 
L 10.984375 60.40625 
L 10.984375 69.390625 
L 28.421875 72.90625 
L 38.28125 72.90625 
L 38.28125 8.296875 
L 54.390625 8.296875 
L 54.390625 0 
L 12.40625 0 
z
" id="DejaVuSans-31"/>
      </defs>
      <g transform="translate(125.490703 305.897656)scale(0.15 -0.15)">
       <use xlink:href="#DejaVuSans-31"/>
      </g>
     </g>
    </g>
    <g id="xtick_3">
     <g id="line2d_5">
      <path clip-path="url(#p6e030c179b)" d="M 182.250155 285 
L 182.250155 13.2 
" style="fill:none;stroke:#b0b0b0;stroke-linecap:square;stroke-width:0.8;"/>
     </g>
     <g id="line2d_6">
      <g>
       <use x="182.250155" xlink:href="#m4943a84a9e" y="285"/>
      </g>
     </g>
     <g id="text_3">
      <!-- 2 -->
      <defs>
       <path d="M 19.1875 8.296875 
L 53.609375 8.296875 
L 53.609375 0 
L 7.328125 0 
L 7.328125 8.296875 
Q 12.9375 14.109375 22.625 23.890625 
Q 32.328125 33.6875 34.8125 36.53125 
Q 39.546875 41.84375 41.421875 45.53125 
Q 43.3125 49.21875 43.3125 52.78125 
Q 43.3125 58.59375 39.234375 62.25 
Q 35.15625 65.921875 28.609375 65.921875 
Q 23.96875 65.921875 18.8125 64.3125 
Q 13.671875 62.703125 7.8125 59.421875 
L 7.8125 69.390625 
Q 13.765625 71.78125 18.9375 73 
Q 24.125 74.21875 28.421875 74.21875 
Q 39.75 74.21875 46.484375 68.546875 
Q 53.21875 62.890625 53.21875 53.421875 
Q 53.21875 48.921875 51.53125 44.890625 
Q 49.859375 40.875 45.40625 35.40625 
Q 44.1875 33.984375 37.640625 27.21875 
Q 31.109375 20.453125 19.1875 8.296875 
z
" id="DejaVuSans-32"/>
      </defs>
      <g transform="translate(177.47828 305.897656)scale(0.15 -0.15)">
       <use xlink:href="#DejaVuSans-32"/>
      </g>
     </g>
    </g>
    <g id="xtick_4">
     <g id="line2d_7">
      <path clip-path="url(#p6e030c179b)" d="M 234.237733 285 
L 234.237733 13.2 
" style="fill:none;stroke:#b0b0b0;stroke-linecap:square;stroke-width:0.8;"/>
     </g>
     <g id="line2d_8">
      <g>
       <use x="234.237733" xlink:href="#m4943a84a9e" y="285"/>
      </g>
     </g>
     <g id="text_4">
      <!-- 3 -->
      <defs>
       <path d="M 40.578125 39.3125 
Q 47.65625 37.796875 51.625 33 
Q 55.609375 28.21875 55.609375 21.1875 
Q 55.609375 10.40625 48.1875 4.484375 
Q 40.765625 -1.421875 27.09375 -1.421875 
Q 22.515625 -1.421875 17.65625 -0.515625 
Q 12.796875 0.390625 7.625 2.203125 
L 7.625 11.71875 
Q 11.71875 9.328125 16.59375 8.109375 
Q 21.484375 6.890625 26.8125 6.890625 
Q 36.078125 6.890625 40.9375 10.546875 
Q 45.796875 14.203125 45.796875 21.1875 
Q 45.796875 27.640625 41.28125 31.265625 
Q 36.765625 34.90625 28.71875 34.90625 
L 20.21875 34.90625 
L 20.21875 43.015625 
L 29.109375 43.015625 
Q 36.375 43.015625 40.234375 45.921875 
Q 44.09375 48.828125 44.09375 54.296875 
Q 44.09375 59.90625 40.109375 62.90625 
Q 36.140625 65.921875 28.71875 65.921875 
Q 24.65625 65.921875 20.015625 65.03125 
Q 15.375 64.15625 9.8125 62.3125 
L 9.8125 71.09375 
Q 15.4375 72.65625 20.34375 73.4375 
Q 25.25 74.21875 29.59375 74.21875 
Q 40.828125 74.21875 47.359375 69.109375 
Q 53.90625 64.015625 53.90625 55.328125 
Q 53.90625 49.265625 50.4375 45.09375 
Q 46.96875 40.921875 40.578125 39.3125 
z
" id="DejaVuSans-33"/>
      </defs>
      <g transform="translate(229.465858 305.897656)scale(0.15 -0.15)">
       <use xlink:href="#DejaVuSans-33"/>
      </g>
     </g>
    </g>
    <g id="xtick_5">
     <g id="line2d_9">
      <path clip-path="url(#p6e030c179b)" d="M 286.225311 285 
L 286.225311 13.2 
" style="fill:none;stroke:#b0b0b0;stroke-linecap:square;stroke-width:0.8;"/>
     </g>
     <g id="line2d_10">
      <g>
       <use x="286.225311" xlink:href="#m4943a84a9e" y="285"/>
      </g>
     </g>
     <g id="text_5">
      <!-- 4 -->
      <defs>
       <path d="M 37.796875 64.3125 
L 12.890625 25.390625 
L 37.796875 25.390625 
z
M 35.203125 72.90625 
L 47.609375 72.90625 
L 47.609375 25.390625 
L 58.015625 25.390625 
L 58.015625 17.1875 
L 47.609375 17.1875 
L 47.609375 0 
L 37.796875 0 
L 37.796875 17.1875 
L 4.890625 17.1875 
L 4.890625 26.703125 
z
" id="DejaVuSans-34"/>
      </defs>
      <g transform="translate(281.453436 305.897656)scale(0.15 -0.15)">
       <use xlink:href="#DejaVuSans-34"/>
      </g>
     </g>
    </g>
    <g id="xtick_6">
     <g id="line2d_11">
      <path clip-path="url(#p6e030c179b)" d="M 338.212888 285 
L 338.212888 13.2 
" style="fill:none;stroke:#b0b0b0;stroke-linecap:square;stroke-width:0.8;"/>
     </g>
     <g id="line2d_12">
      <g>
       <use x="338.212888" xlink:href="#m4943a84a9e" y="285"/>
      </g>
     </g>
     <g id="text_6">
      <!-- 5 -->
      <defs>
       <path d="M 10.796875 72.90625 
L 49.515625 72.90625 
L 49.515625 64.59375 
L 19.828125 64.59375 
L 19.828125 46.734375 
Q 21.96875 47.46875 24.109375 47.828125 
Q 26.265625 48.1875 28.421875 48.1875 
Q 40.625 48.1875 47.75 41.5 
Q 54.890625 34.8125 54.890625 23.390625 
Q 54.890625 11.625 47.5625 5.09375 
Q 40.234375 -1.421875 26.90625 -1.421875 
Q 22.3125 -1.421875 17.546875 -0.640625 
Q 12.796875 0.140625 7.71875 1.703125 
L 7.71875 11.625 
Q 12.109375 9.234375 16.796875 8.0625 
Q 21.484375 6.890625 26.703125 6.890625 
Q 35.15625 6.890625 40.078125 11.328125 
Q 45.015625 15.765625 45.015625 23.390625 
Q 45.015625 31 40.078125 35.4375 
Q 35.15625 39.890625 26.703125 39.890625 
Q 22.75 39.890625 18.8125 39.015625 
Q 14.890625 38.140625 10.796875 36.28125 
z
" id="DejaVuSans-35"/>
      </defs>
      <g transform="translate(333.441013 305.897656)scale(0.15 -0.15)">
       <use xlink:href="#DejaVuSans-35"/>
      </g>
     </g>
    </g>
    <g id="xtick_7">
     <g id="line2d_13">
      <path clip-path="url(#p6e030c179b)" d="M 390.200466 285 
L 390.200466 13.2 
" style="fill:none;stroke:#b0b0b0;stroke-linecap:square;stroke-width:0.8;"/>
     </g>
     <g id="line2d_14">
      <g>
       <use x="390.200466" xlink:href="#m4943a84a9e" y="285"/>
      </g>
     </g>
     <g id="text_7">
      <!-- 6 -->
      <defs>
       <path d="M 33.015625 40.375 
Q 26.375 40.375 22.484375 35.828125 
Q 18.609375 31.296875 18.609375 23.390625 
Q 18.609375 15.53125 22.484375 10.953125 
Q 26.375 6.390625 33.015625 6.390625 
Q 39.65625 6.390625 43.53125 10.953125 
Q 47.40625 15.53125 47.40625 23.390625 
Q 47.40625 31.296875 43.53125 35.828125 
Q 39.65625 40.375 33.015625 40.375 
z
M 52.59375 71.296875 
L 52.59375 62.3125 
Q 48.875 64.0625 45.09375 64.984375 
Q 41.3125 65.921875 37.59375 65.921875 
Q 27.828125 65.921875 22.671875 59.328125 
Q 17.53125 52.734375 16.796875 39.40625 
Q 19.671875 43.65625 24.015625 45.921875 
Q 28.375 48.1875 33.59375 48.1875 
Q 44.578125 48.1875 50.953125 41.515625 
Q 57.328125 34.859375 57.328125 23.390625 
Q 57.328125 12.15625 50.6875 5.359375 
Q 44.046875 -1.421875 33.015625 -1.421875 
Q 20.359375 -1.421875 13.671875 8.265625 
Q 6.984375 17.96875 6.984375 36.375 
Q 6.984375 53.65625 15.1875 63.9375 
Q 23.390625 74.21875 37.203125 74.21875 
Q 40.921875 74.21875 44.703125 73.484375 
Q 48.484375 72.75 52.59375 71.296875 
z
" id="DejaVuSans-36"/>
      </defs>
      <g transform="translate(385.428591 305.897656)scale(0.15 -0.15)">
       <use xlink:href="#DejaVuSans-36"/>
      </g>
     </g>
    </g>
    <g id="xtick_8">
     <g id="line2d_15">
      <path clip-path="url(#p6e030c179b)" d="M 442.188043 285 
L 442.188043 13.2 
" style="fill:none;stroke:#b0b0b0;stroke-linecap:square;stroke-width:0.8;"/>
     </g>
     <g id="line2d_16">
      <g>
       <use x="442.188043" xlink:href="#m4943a84a9e" y="285"/>
      </g>
     </g>
     <g id="text_8">
      <!-- 7 -->
      <defs>
       <path d="M 8.203125 72.90625 
L 55.078125 72.90625 
L 55.078125 68.703125 
L 28.609375 0 
L 18.3125 0 
L 43.21875 64.59375 
L 8.203125 64.59375 
z
" id="DejaVuSans-37"/>
      </defs>
      <g transform="translate(437.416168 305.897656)scale(0.15 -0.15)">
       <use xlink:href="#DejaVuSans-37"/>
      </g>
     </g>
    </g>
    <g id="text_9">
     <!-- $t/\tau$ -->
     <defs>
      <path d="M 42.28125 54.6875 
L 40.921875 47.703125 
L 23 47.703125 
L 17.1875 18.015625 
Q 16.890625 16.359375 16.75 15.234375 
Q 16.609375 14.109375 16.609375 13.484375 
Q 16.609375 10.359375 18.484375 8.9375 
Q 20.359375 7.515625 24.515625 7.515625 
L 33.59375 7.515625 
L 32.078125 0 
L 23.484375 0 
Q 15.484375 0 11.546875 3.125 
Q 7.625 6.25 7.625 12.59375 
Q 7.625 13.71875 7.765625 15.0625 
Q 7.90625 16.40625 8.203125 18.015625 
L 14.015625 47.703125 
L 6.390625 47.703125 
L 7.8125 54.6875 
L 15.28125 54.6875 
L 18.3125 70.21875 
L 27.296875 70.21875 
L 24.3125 54.6875 
z
" id="DejaVuSans-Oblique-74"/>
      <path d="M 25.390625 72.90625 
L 33.6875 72.90625 
L 8.296875 -9.28125 
L 0 -9.28125 
z
" id="DejaVuSans-2f"/>
      <path d="M 32.859375 9.96875 
Q 34.1875 7.625 39.453125 7.625 
L 43.75 7.625 
L 42.28125 0 
L 36.921875 0 
Q 28.125 0 25 4.6875 
Q 21.921875 9.46875 23.96875 19.828125 
L 29 45.703125 
L 8.453125 45.703125 
L 10.203125 54.6875 
L 60.640625 54.6875 
L 58.890625 45.703125 
L 38.1875 45.703125 
L 33.015625 19.28125 
Q 31.640625 12.203125 32.859375 9.96875 
z
" id="DejaVuSans-Oblique-3c4"/>
     </defs>
     <g transform="translate(246.831522 328.214063)scale(0.2 -0.2)">
      <use transform="translate(0 0.09375)" xlink:href="#DejaVuSans-Oblique-74"/>
      <use transform="translate(39.208984 0.09375)" xlink:href="#DejaVuSans-2f"/>
      <use transform="translate(72.900391 0.09375)" xlink:href="#DejaVuSans-Oblique-3c4"/>
     </g>
    </g>
   </g>
   <g id="matplotlib.axis_2">
    <g id="ytick_1">
     <g id="line2d_17">
      <path clip-path="url(#p6e030c179b)" d="M 78.275 272.645455 
L 442.188043 272.645455 
" style="fill:none;stroke:#b0b0b0;stroke-linecap:square;stroke-width:0.8;"/>
     </g>
     <g id="line2d_18">
      <defs>
       <path d="M 0 0 
L -6 0 
" id="m6bf81397b7"/>
      </defs>
      <g>
       <use x="78.275" xlink:href="#m6bf81397b7" y="272.645455"/>
      </g>
     </g>
     <g id="text_10">
      <!-- 500 -->
      <g transform="translate(40.14375 278.344283)scale(0.15 -0.15)">
       <use xlink:href="#DejaVuSans-35"/>
       <use x="63.623047" xlink:href="#DejaVuSans-30"/>
       <use x="127.246094" xlink:href="#DejaVuSans-30"/>
      </g>
     </g>
    </g>
    <g id="ytick_2">
     <g id="line2d_19">
      <path clip-path="url(#p6e030c179b)" d="M 78.275 223.068174 
L 442.188043 223.068174 
" style="fill:none;stroke:#b0b0b0;stroke-linecap:square;stroke-width:0.8;"/>
     </g>
     <g id="line2d_20">
      <g>
       <use x="78.275" xlink:href="#m6bf81397b7" y="223.068174"/>
      </g>
     </g>
     <g id="text_11">
      <!-- 600 -->
      <g transform="translate(40.14375 228.767002)scale(0.15 -0.15)">
       <use xlink:href="#DejaVuSans-36"/>
       <use x="63.623047" xlink:href="#DejaVuSans-30"/>
       <use x="127.246094" xlink:href="#DejaVuSans-30"/>
      </g>
     </g>
    </g>
    <g id="ytick_3">
     <g id="line2d_21">
      <path clip-path="url(#p6e030c179b)" d="M 78.275 173.490893 
L 442.188043 173.490893 
" style="fill:none;stroke:#b0b0b0;stroke-linecap:square;stroke-width:0.8;"/>
     </g>
     <g id="line2d_22">
      <g>
       <use x="78.275" xlink:href="#m6bf81397b7" y="173.490893"/>
      </g>
     </g>
     <g id="text_12">
      <!-- 700 -->
      <g transform="translate(40.14375 179.189721)scale(0.15 -0.15)">
       <use xlink:href="#DejaVuSans-37"/>
       <use x="63.623047" xlink:href="#DejaVuSans-30"/>
       <use x="127.246094" xlink:href="#DejaVuSans-30"/>
      </g>
     </g>
    </g>
    <g id="ytick_4">
     <g id="line2d_23">
      <path clip-path="url(#p6e030c179b)" d="M 78.275 123.913612 
L 442.188043 123.913612 
" style="fill:none;stroke:#b0b0b0;stroke-linecap:square;stroke-width:0.8;"/>
     </g>
     <g id="line2d_24">
      <g>
       <use x="78.275" xlink:href="#m6bf81397b7" y="123.913612"/>
      </g>
     </g>
     <g id="text_13">
      <!-- 800 -->
      <defs>
       <path d="M 31.78125 34.625 
Q 24.75 34.625 20.71875 30.859375 
Q 16.703125 27.09375 16.703125 20.515625 
Q 16.703125 13.921875 20.71875 10.15625 
Q 24.75 6.390625 31.78125 6.390625 
Q 38.8125 6.390625 42.859375 10.171875 
Q 46.921875 13.96875 46.921875 20.515625 
Q 46.921875 27.09375 42.890625 30.859375 
Q 38.875 34.625 31.78125 34.625 
z
M 21.921875 38.8125 
Q 15.578125 40.375 12.03125 44.71875 
Q 8.5 49.078125 8.5 55.328125 
Q 8.5 64.0625 14.71875 69.140625 
Q 20.953125 74.21875 31.78125 74.21875 
Q 42.671875 74.21875 48.875 69.140625 
Q 55.078125 64.0625 55.078125 55.328125 
Q 55.078125 49.078125 51.53125 44.71875 
Q 48 40.375 41.703125 38.8125 
Q 48.828125 37.15625 52.796875 32.3125 
Q 56.78125 27.484375 56.78125 20.515625 
Q 56.78125 9.90625 50.3125 4.234375 
Q 43.84375 -1.421875 31.78125 -1.421875 
Q 19.734375 -1.421875 13.25 4.234375 
Q 6.78125 9.90625 6.78125 20.515625 
Q 6.78125 27.484375 10.78125 32.3125 
Q 14.796875 37.15625 21.921875 38.8125 
z
M 18.3125 54.390625 
Q 18.3125 48.734375 21.84375 45.5625 
Q 25.390625 42.390625 31.78125 42.390625 
Q 38.140625 42.390625 41.71875 45.5625 
Q 45.3125 48.734375 45.3125 54.390625 
Q 45.3125 60.0625 41.71875 63.234375 
Q 38.140625 66.40625 31.78125 66.40625 
Q 25.390625 66.40625 21.84375 63.234375 
Q 18.3125 60.0625 18.3125 54.390625 
z
" id="DejaVuSans-38"/>
      </defs>
      <g transform="translate(40.14375 129.61244)scale(0.15 -0.15)">
       <use xlink:href="#DejaVuSans-38"/>
       <use x="63.623047" xlink:href="#DejaVuSans-30"/>
       <use x="127.246094" xlink:href="#DejaVuSans-30"/>
      </g>
     </g>
    </g>
    <g id="ytick_5">
     <g id="line2d_25">
      <path clip-path="url(#p6e030c179b)" d="M 78.275 74.336331 
L 442.188043 74.336331 
" style="fill:none;stroke:#b0b0b0;stroke-linecap:square;stroke-width:0.8;"/>
     </g>
     <g id="line2d_26">
      <g>
       <use x="78.275" xlink:href="#m6bf81397b7" y="74.336331"/>
      </g>
     </g>
     <g id="text_14">
      <!-- 900 -->
      <defs>
       <path d="M 10.984375 1.515625 
L 10.984375 10.5 
Q 14.703125 8.734375 18.5 7.8125 
Q 22.3125 6.890625 25.984375 6.890625 
Q 35.75 6.890625 40.890625 13.453125 
Q 46.046875 20.015625 46.78125 33.40625 
Q 43.953125 29.203125 39.59375 26.953125 
Q 35.25 24.703125 29.984375 24.703125 
Q 19.046875 24.703125 12.671875 31.3125 
Q 6.296875 37.9375 6.296875 49.421875 
Q 6.296875 60.640625 12.9375 67.421875 
Q 19.578125 74.21875 30.609375 74.21875 
Q 43.265625 74.21875 49.921875 64.515625 
Q 56.59375 54.828125 56.59375 36.375 
Q 56.59375 19.140625 48.40625 8.859375 
Q 40.234375 -1.421875 26.421875 -1.421875 
Q 22.703125 -1.421875 18.890625 -0.6875 
Q 15.09375 0.046875 10.984375 1.515625 
z
M 30.609375 32.421875 
Q 37.25 32.421875 41.125 36.953125 
Q 45.015625 41.5 45.015625 49.421875 
Q 45.015625 57.28125 41.125 61.84375 
Q 37.25 66.40625 30.609375 66.40625 
Q 23.96875 66.40625 20.09375 61.84375 
Q 16.21875 57.28125 16.21875 49.421875 
Q 16.21875 41.5 20.09375 36.953125 
Q 23.96875 32.421875 30.609375 32.421875 
z
" id="DejaVuSans-39"/>
      </defs>
      <g transform="translate(40.14375 80.03516)scale(0.15 -0.15)">
       <use xlink:href="#DejaVuSans-39"/>
       <use x="63.623047" xlink:href="#DejaVuSans-30"/>
       <use x="127.246094" xlink:href="#DejaVuSans-30"/>
      </g>
     </g>
    </g>
    <g id="ytick_6">
     <g id="line2d_27">
      <path clip-path="url(#p6e030c179b)" d="M 78.275 24.759051 
L 442.188043 24.759051 
" style="fill:none;stroke:#b0b0b0;stroke-linecap:square;stroke-width:0.8;"/>
     </g>
     <g id="line2d_28">
      <g>
       <use x="78.275" xlink:href="#m6bf81397b7" y="24.759051"/>
      </g>
     </g>
     <g id="text_15">
      <!-- 1000 -->
      <g transform="translate(30.6 30.457879)scale(0.15 -0.15)">
       <use xlink:href="#DejaVuSans-31"/>
       <use x="63.623047" xlink:href="#DejaVuSans-30"/>
       <use x="127.246094" xlink:href="#DejaVuSans-30"/>
       <use x="190.869141" xlink:href="#DejaVuSans-30"/>
      </g>
     </g>
    </g>
    <g id="text_16">
     <!-- $\langle p\rangle$ -->
     <defs>
      <path d="M 8.9375 31.34375 
L 22.703125 75.875 
L 31 75.875 
L 17.234375 31.34375 
L 31 -13.1875 
L 22.703125 -13.1875 
z
" id="DejaVuSans-27e8"/>
      <path d="M 49.609375 33.6875 
Q 49.609375 40.875 46.484375 44.671875 
Q 43.359375 48.484375 37.5 48.484375 
Q 33.5 48.484375 29.859375 46.4375 
Q 26.21875 44.390625 23.390625 40.484375 
Q 20.609375 36.625 18.9375 31.15625 
Q 17.28125 25.6875 17.28125 20.3125 
Q 17.28125 13.484375 20.40625 9.796875 
Q 23.53125 6.109375 29.296875 6.109375 
Q 33.546875 6.109375 37.1875 8.109375 
Q 40.828125 10.109375 43.40625 13.921875 
Q 46.1875 17.921875 47.890625 23.34375 
Q 49.609375 28.765625 49.609375 33.6875 
z
M 21.78125 46.390625 
Q 25.390625 51.125 30.296875 53.5625 
Q 35.203125 56 41.21875 56 
Q 49.609375 56 54.25 50.5 
Q 58.890625 45.015625 58.890625 35.109375 
Q 58.890625 27 56 19.65625 
Q 53.125 12.3125 47.703125 6.5 
Q 44.09375 2.640625 39.546875 0.609375 
Q 35.015625 -1.421875 29.984375 -1.421875 
Q 24.171875 -1.421875 20.21875 1 
Q 16.265625 3.421875 14.3125 8.203125 
L 8.6875 -20.796875 
L -0.296875 -20.796875 
L 14.40625 54.6875 
L 23.390625 54.6875 
z
" id="DejaVuSans-Oblique-70"/>
      <path d="M 30.078125 31.34375 
L 16.3125 -13.1875 
L 8.015625 -13.1875 
L 21.78125 31.34375 
L 8.015625 75.875 
L 16.3125 75.875 
z
" id="DejaVuSans-27e9"/>
     </defs>
     <g transform="translate(22.4 163.3)rotate(-90)scale(0.2 -0.2)">
      <use transform="translate(0 0.125)" xlink:href="#DejaVuSans-27e8"/>
      <use transform="translate(39.013672 0.125)" xlink:href="#DejaVuSans-Oblique-70"/>
      <use transform="translate(102.490234 0.125)" xlink:href="#DejaVuSans-27e9"/>
     </g>
    </g>
   </g>
   <g id="line2d_29">
    <path clip-path="url(#p6e030c179b)" d="M 78.275 272.645455 
L 83.473758 269.65885 
L 88.672516 262.313785 
L 93.871273 252.432874 
L 99.070031 241.190427 
L 104.268789 229.270671 
L 109.467547 217.343048 
L 114.666304 205.639393 
L 119.865062 194.354256 
L 125.06382 183.61044 
L 130.262578 173.427357 
L 135.461335 163.745406 
L 140.660093 154.701452 
L 145.858851 146.278378 
L 151.057609 138.269637 
L 156.256366 130.715326 
L 161.455124 123.800286 
L 166.653882 117.366343 
L 171.85264 111.327501 
L 177.051398 105.699697 
L 182.250155 100.298549 
L 187.448913 95.136808 
L 192.647671 90.430071 
L 197.846429 86.104923 
L 203.045186 82.145172 
L 208.243944 78.335783 
L 213.442702 74.785303 
L 218.64146 71.489488 
L 223.840217 68.340238 
L 229.038975 65.462986 
L 234.237733 62.756604 
L 239.436491 60.252722 
L 244.635248 57.924843 
L 249.834006 55.67905 
L 255.032764 53.539073 
L 260.231522 51.456492 
L 265.43028 49.429827 
L 270.629037 47.510739 
L 275.827795 45.745725 
L 281.026553 44.1728 
L 286.225311 42.784261 
L 291.424068 41.366864 
L 296.622826 39.963771 
L 301.821584 38.744432 
L 307.020342 37.655991 
L 312.219099 36.625491 
L 317.417857 35.683642 
L 322.616615 34.852478 
L 327.815373 34.075428 
L 333.01413 33.328239 
L 338.212888 32.71703 
L 343.411646 32.226299 
L 348.610404 31.828421 
L 353.809161 31.501477 
L 359.007919 31.122529 
L 364.206677 30.725283 
L 369.405435 30.303111 
L 374.604193 29.834535 
L 379.80295 29.482237 
L 385.001708 29.192687 
L 390.200466 28.895051 
L 395.399224 28.589421 
L 400.597981 28.247613 
L 405.796739 27.903621 
L 410.995497 27.590221 
L 416.194255 27.340628 
L 421.393012 27.13927 
L 426.59177 26.95236 
L 431.790528 26.776772 
L 436.989286 26.63021 
" style="fill:none;stroke:#1f77b4;stroke-linecap:square;stroke-width:3;"/>
   </g>
   <g id="line2d_30">
    <path clip-path="url(#p6e030c179b)" d="M 78.275 272.645455 
L 83.473758 269.63477 
L 88.672516 262.054589 
L 93.871273 251.815377 
L 99.070031 240.405183 
L 104.268789 228.222644 
L 109.467547 216.460071 
L 114.666304 205.142163 
L 119.865062 193.856995 
L 125.06382 183.265777 
L 130.262578 172.750579 
L 135.461335 163.850805 
L 140.660093 154.938629 
L 145.858851 145.69993 
L 151.057609 137.79671 
L 156.256366 130.093136 
L 161.455124 123.030705 
L 166.653882 116.011579 
L 171.85264 109.293562 
L 177.051398 103.915432 
L 182.250155 99.092168 
L 187.448913 94.020627 
L 192.647671 88.961906 
L 197.846429 84.224849 
L 203.045186 79.982864 
L 208.243944 76.611429 
L 213.442702 73.429783 
L 218.64146 70.473332 
L 223.840217 67.036236 
L 229.038975 64.511484 
L 234.237733 61.834098 
L 239.436491 58.87175 
L 244.635248 56.219888 
L 249.834006 54.345327 
L 255.032764 52.315188 
L 260.231522 50.566802 
L 265.43028 48.746351 
L 270.629037 47.049393 
L 275.827795 45.390667 
L 281.026553 43.679217 
L 286.225311 42.167091 
L 291.424068 41.330949 
L 296.622826 40.734306 
L 301.821584 39.814402 
L 307.020342 38.925648 
L 312.219099 38.152878 
L 317.417857 37.270076 
L 322.616615 36.227778 
L 327.815373 35.18899 
L 333.01413 34.414769 
L 338.212888 33.475748 
L 343.411646 33.040647 
L 348.610404 32.659708 
L 353.809161 32.159283 
L 359.007919 31.582219 
L 364.206677 31.032292 
L 369.405435 30.72534 
L 374.604193 30.210375 
L 379.80295 29.692449 
L 385.001708 29.438192 
L 390.200466 29.126654 
L 395.399224 28.996885 
L 400.597981 28.710926 
L 405.796739 28.3323 
L 410.995497 28.054187 
L 416.194255 27.87606 
L 421.393012 27.659383 
L 426.59177 27.619793 
L 431.790528 27.476758 
L 436.989286 27.258302 
" style="fill:none;stroke:#ff7f0e;stroke-linecap:square;stroke-width:3;"/>
   </g>
   <g id="line2d_31">
    <path clip-path="url(#p6e030c179b)" d="M 78.275 272.645455 
L 83.473758 269.643675 
L 88.672516 262.046979 
L 93.871273 251.851848 
L 99.070031 240.468262 
L 104.268789 228.443843 
L 109.467547 216.610868 
L 114.666304 205.078617 
L 119.865062 194.041283 
L 125.06382 183.427602 
L 130.262578 173.41786 
L 135.461335 163.920133 
L 140.660093 154.939689 
L 145.858851 146.065131 
L 151.057609 137.837389 
L 156.256366 130.268577 
L 161.455124 123.011063 
L 166.653882 116.017664 
L 171.85264 109.340836 
L 177.051398 103.690305 
L 182.250155 98.997825 
L 187.448913 93.824595 
L 192.647671 88.738699 
L 197.846429 84.130588 
L 203.045186 80.029401 
L 208.243944 76.521315 
L 213.442702 73.253025 
L 218.64146 70.293202 
L 223.840217 67.029187 
L 229.038975 64.253724 
L 234.237733 61.854896 
L 239.436491 58.853628 
L 244.635248 56.552466 
L 249.834006 54.674011 
L 255.032764 52.360559 
L 260.231522 50.56496 
L 265.43028 48.872201 
L 270.629037 47.14803 
L 275.827795 45.544602 
L 281.026553 43.750696 
L 286.225311 42.252822 
L 291.424068 41.490333 
L 296.622826 40.713676 
L 301.821584 39.911491 
L 307.020342 38.977057 
L 312.219099 38.164093 
L 317.417857 37.243939 
L 322.616615 36.332555 
L 327.815373 35.320524 
L 333.01413 34.516988 
L 338.212888 33.485606 
L 343.411646 33.060521 
L 348.610404 32.678049 
L 353.809161 32.162474 
L 359.007919 31.586445 
L 364.206677 31.026 
L 369.405435 30.714554 
L 374.604193 30.212861 
L 379.80295 29.753833 
L 385.001708 29.444211 
L 390.200466 29.086564 
L 395.399224 29.017318 
L 400.597981 28.739957 
L 405.796739 28.345126 
L 410.995497 28.040877 
L 416.194255 27.895599 
L 421.393012 27.648698 
L 426.59177 27.591124 
L 431.790528 27.459065 
L 436.989286 27.255877 
" style="fill:none;stroke:#2ca02c;stroke-linecap:square;stroke-width:3;"/>
   </g>
   <g id="patch_3">
    <path d="M 78.275 285 
L 78.275 13.2 
" style="fill:none;stroke:#000000;stroke-linecap:square;stroke-linejoin:miter;stroke-width:2;"/>
   </g>
   <g id="patch_4">
    <path d="M 442.188043 285 
L 442.188043 13.2 
" style="fill:none;"/>
   </g>
   <g id="patch_5">
    <path d="M 78.275 285 
L 442.188043 285 
" style="fill:none;stroke:#000000;stroke-linecap:square;stroke-linejoin:miter;stroke-width:2;"/>
   </g>
   <g id="patch_6">
    <path d="M 78.275 13.2 
L 442.188043 13.2 
" style="fill:none;"/>
   </g>
   <g id="legend_1">
    <g id="patch_7">
     <path d="M 221.6482 277.5 
L 431.688043 277.5 
Q 434.688043 277.5 434.688043 274.5 
L 434.688043 209.948438 
Q 434.688043 206.948438 431.688043 206.948438 
L 221.6482 206.948438 
Q 218.6482 206.948438 218.6482 209.948438 
L 218.6482 274.5 
Q 218.6482 277.5 221.6482 277.5 
z
" style="fill:#ffffff;opacity:0.8;stroke:#cccccc;stroke-linejoin:miter;"/>
    </g>
    <g id="line2d_32">
     <path d="M 224.6482 219.096094 
L 254.6482 219.096094 
" style="fill:none;stroke:#1f77b4;stroke-linecap:square;stroke-width:3;"/>
    </g>
    <g id="line2d_33"/>
    <g id="text_17">
     <!-- Single Lineage -->
     <defs>
      <path d="M 53.515625 70.515625 
L 53.515625 60.890625 
Q 47.90625 63.578125 42.921875 64.890625 
Q 37.9375 66.21875 33.296875 66.21875 
Q 25.25 66.21875 20.875 63.09375 
Q 16.5 59.96875 16.5 54.203125 
Q 16.5 49.359375 19.40625 46.890625 
Q 22.3125 44.4375 30.421875 42.921875 
L 36.375 41.703125 
Q 47.40625 39.59375 52.65625 34.296875 
Q 57.90625 29 57.90625 20.125 
Q 57.90625 9.515625 50.796875 4.046875 
Q 43.703125 -1.421875 29.984375 -1.421875 
Q 24.8125 -1.421875 18.96875 -0.25 
Q 13.140625 0.921875 6.890625 3.21875 
L 6.890625 13.375 
Q 12.890625 10.015625 18.65625 8.296875 
Q 24.421875 6.59375 29.984375 6.59375 
Q 38.421875 6.59375 43.015625 9.90625 
Q 47.609375 13.234375 47.609375 19.390625 
Q 47.609375 24.75 44.3125 27.78125 
Q 41.015625 30.8125 33.5 32.328125 
L 27.484375 33.5 
Q 16.453125 35.6875 11.515625 40.375 
Q 6.59375 45.0625 6.59375 53.421875 
Q 6.59375 63.09375 13.40625 68.65625 
Q 20.21875 74.21875 32.171875 74.21875 
Q 37.3125 74.21875 42.625 73.28125 
Q 47.953125 72.359375 53.515625 70.515625 
z
" id="DejaVuSans-53"/>
      <path d="M 9.421875 54.6875 
L 18.40625 54.6875 
L 18.40625 0 
L 9.421875 0 
z
M 9.421875 75.984375 
L 18.40625 75.984375 
L 18.40625 64.59375 
L 9.421875 64.59375 
z
" id="DejaVuSans-69"/>
      <path d="M 54.890625 33.015625 
L 54.890625 0 
L 45.90625 0 
L 45.90625 32.71875 
Q 45.90625 40.484375 42.875 44.328125 
Q 39.84375 48.1875 33.796875 48.1875 
Q 26.515625 48.1875 22.3125 43.546875 
Q 18.109375 38.921875 18.109375 30.90625 
L 18.109375 0 
L 9.078125 0 
L 9.078125 54.6875 
L 18.109375 54.6875 
L 18.109375 46.1875 
Q 21.34375 51.125 25.703125 53.5625 
Q 30.078125 56 35.796875 56 
Q 45.21875 56 50.046875 50.171875 
Q 54.890625 44.34375 54.890625 33.015625 
z
" id="DejaVuSans-6e"/>
      <path d="M 45.40625 27.984375 
Q 45.40625 37.75 41.375 43.109375 
Q 37.359375 48.484375 30.078125 48.484375 
Q 22.859375 48.484375 18.828125 43.109375 
Q 14.796875 37.75 14.796875 27.984375 
Q 14.796875 18.265625 18.828125 12.890625 
Q 22.859375 7.515625 30.078125 7.515625 
Q 37.359375 7.515625 41.375 12.890625 
Q 45.40625 18.265625 45.40625 27.984375 
z
M 54.390625 6.78125 
Q 54.390625 -7.171875 48.1875 -13.984375 
Q 42 -20.796875 29.203125 -20.796875 
Q 24.46875 -20.796875 20.265625 -20.09375 
Q 16.0625 -19.390625 12.109375 -17.921875 
L 12.109375 -9.1875 
Q 16.0625 -11.328125 19.921875 -12.34375 
Q 23.78125 -13.375 27.78125 -13.375 
Q 36.625 -13.375 41.015625 -8.765625 
Q 45.40625 -4.15625 45.40625 5.171875 
L 45.40625 9.625 
Q 42.625 4.78125 38.28125 2.390625 
Q 33.9375 0 27.875 0 
Q 17.828125 0 11.671875 7.65625 
Q 5.515625 15.328125 5.515625 27.984375 
Q 5.515625 40.671875 11.671875 48.328125 
Q 17.828125 56 27.875 56 
Q 33.9375 56 38.28125 53.609375 
Q 42.625 51.21875 45.40625 46.390625 
L 45.40625 54.6875 
L 54.390625 54.6875 
z
" id="DejaVuSans-67"/>
      <path d="M 9.421875 75.984375 
L 18.40625 75.984375 
L 18.40625 0 
L 9.421875 0 
z
" id="DejaVuSans-6c"/>
      <path d="M 56.203125 29.59375 
L 56.203125 25.203125 
L 14.890625 25.203125 
Q 15.484375 15.921875 20.484375 11.0625 
Q 25.484375 6.203125 34.421875 6.203125 
Q 39.59375 6.203125 44.453125 7.46875 
Q 49.3125 8.734375 54.109375 11.28125 
L 54.109375 2.78125 
Q 49.265625 0.734375 44.1875 -0.34375 
Q 39.109375 -1.421875 33.890625 -1.421875 
Q 20.796875 -1.421875 13.15625 6.1875 
Q 5.515625 13.8125 5.515625 26.8125 
Q 5.515625 40.234375 12.765625 48.109375 
Q 20.015625 56 32.328125 56 
Q 43.359375 56 49.78125 48.890625 
Q 56.203125 41.796875 56.203125 29.59375 
z
M 47.21875 32.234375 
Q 47.125 39.59375 43.09375 43.984375 
Q 39.0625 48.390625 32.421875 48.390625 
Q 24.90625 48.390625 20.390625 44.140625 
Q 15.875 39.890625 15.1875 32.171875 
z
" id="DejaVuSans-65"/>
      <path id="DejaVuSans-20"/>
      <path d="M 9.8125 72.90625 
L 19.671875 72.90625 
L 19.671875 8.296875 
L 55.171875 8.296875 
L 55.171875 0 
L 9.8125 0 
z
" id="DejaVuSans-4c"/>
      <path d="M 34.28125 27.484375 
Q 23.390625 27.484375 19.1875 25 
Q 14.984375 22.515625 14.984375 16.5 
Q 14.984375 11.71875 18.140625 8.90625 
Q 21.296875 6.109375 26.703125 6.109375 
Q 34.1875 6.109375 38.703125 11.40625 
Q 43.21875 16.703125 43.21875 25.484375 
L 43.21875 27.484375 
z
M 52.203125 31.203125 
L 52.203125 0 
L 43.21875 0 
L 43.21875 8.296875 
Q 40.140625 3.328125 35.546875 0.953125 
Q 30.953125 -1.421875 24.3125 -1.421875 
Q 15.921875 -1.421875 10.953125 3.296875 
Q 6 8.015625 6 15.921875 
Q 6 25.140625 12.171875 29.828125 
Q 18.359375 34.515625 30.609375 34.515625 
L 43.21875 34.515625 
L 43.21875 35.40625 
Q 43.21875 41.609375 39.140625 45 
Q 35.0625 48.390625 27.6875 48.390625 
Q 23 48.390625 18.546875 47.265625 
Q 14.109375 46.140625 10.015625 43.890625 
L 10.015625 52.203125 
Q 14.9375 54.109375 19.578125 55.046875 
Q 24.21875 56 28.609375 56 
Q 40.484375 56 46.34375 49.84375 
Q 52.203125 43.703125 52.203125 31.203125 
z
" id="DejaVuSans-61"/>
     </defs>
     <g transform="translate(266.6482 224.346094)scale(0.15 -0.15)">
      <use xlink:href="#DejaVuSans-53"/>
      <use x="63.476562" xlink:href="#DejaVuSans-69"/>
      <use x="91.259766" xlink:href="#DejaVuSans-6e"/>
      <use x="154.638672" xlink:href="#DejaVuSans-67"/>
      <use x="218.115234" xlink:href="#DejaVuSans-6c"/>
      <use x="245.898438" xlink:href="#DejaVuSans-65"/>
      <use x="307.421875" xlink:href="#DejaVuSans-20"/>
      <use x="339.208984" xlink:href="#DejaVuSans-4c"/>
      <use x="394.921875" xlink:href="#DejaVuSans-69"/>
      <use x="422.705078" xlink:href="#DejaVuSans-6e"/>
      <use x="486.083984" xlink:href="#DejaVuSans-65"/>
      <use x="547.607422" xlink:href="#DejaVuSans-61"/>
      <use x="608.886719" xlink:href="#DejaVuSans-67"/>
      <use x="672.363281" xlink:href="#DejaVuSans-65"/>
     </g>
    </g>
    <g id="line2d_34">
     <path d="M 224.6482 241.113281 
L 254.6482 241.113281 
" style="fill:none;stroke:#ff7f0e;stroke-linecap:square;stroke-width:3;"/>
    </g>
    <g id="line2d_35"/>
    <g id="text_18">
     <!-- Population Snapshots -->
     <defs>
      <path d="M 19.671875 64.796875 
L 19.671875 37.40625 
L 32.078125 37.40625 
Q 38.96875 37.40625 42.71875 40.96875 
Q 46.484375 44.53125 46.484375 51.125 
Q 46.484375 57.671875 42.71875 61.234375 
Q 38.96875 64.796875 32.078125 64.796875 
z
M 9.8125 72.90625 
L 32.078125 72.90625 
Q 44.34375 72.90625 50.609375 67.359375 
Q 56.890625 61.8125 56.890625 51.125 
Q 56.890625 40.328125 50.609375 34.8125 
Q 44.34375 29.296875 32.078125 29.296875 
L 19.671875 29.296875 
L 19.671875 0 
L 9.8125 0 
z
" id="DejaVuSans-50"/>
      <path d="M 30.609375 48.390625 
Q 23.390625 48.390625 19.1875 42.75 
Q 14.984375 37.109375 14.984375 27.296875 
Q 14.984375 17.484375 19.15625 11.84375 
Q 23.34375 6.203125 30.609375 6.203125 
Q 37.796875 6.203125 41.984375 11.859375 
Q 46.1875 17.53125 46.1875 27.296875 
Q 46.1875 37.015625 41.984375 42.703125 
Q 37.796875 48.390625 30.609375 48.390625 
z
M 30.609375 56 
Q 42.328125 56 49.015625 48.375 
Q 55.71875 40.765625 55.71875 27.296875 
Q 55.71875 13.875 49.015625 6.21875 
Q 42.328125 -1.421875 30.609375 -1.421875 
Q 18.84375 -1.421875 12.171875 6.21875 
Q 5.515625 13.875 5.515625 27.296875 
Q 5.515625 40.765625 12.171875 48.375 
Q 18.84375 56 30.609375 56 
z
" id="DejaVuSans-6f"/>
      <path d="M 18.109375 8.203125 
L 18.109375 -20.796875 
L 9.078125 -20.796875 
L 9.078125 54.6875 
L 18.109375 54.6875 
L 18.109375 46.390625 
Q 20.953125 51.265625 25.265625 53.625 
Q 29.59375 56 35.59375 56 
Q 45.5625 56 51.78125 48.09375 
Q 58.015625 40.1875 58.015625 27.296875 
Q 58.015625 14.40625 51.78125 6.484375 
Q 45.5625 -1.421875 35.59375 -1.421875 
Q 29.59375 -1.421875 25.265625 0.953125 
Q 20.953125 3.328125 18.109375 8.203125 
z
M 48.6875 27.296875 
Q 48.6875 37.203125 44.609375 42.84375 
Q 40.53125 48.484375 33.40625 48.484375 
Q 26.265625 48.484375 22.1875 42.84375 
Q 18.109375 37.203125 18.109375 27.296875 
Q 18.109375 17.390625 22.1875 11.75 
Q 26.265625 6.109375 33.40625 6.109375 
Q 40.53125 6.109375 44.609375 11.75 
Q 48.6875 17.390625 48.6875 27.296875 
z
" id="DejaVuSans-70"/>
      <path d="M 8.5 21.578125 
L 8.5 54.6875 
L 17.484375 54.6875 
L 17.484375 21.921875 
Q 17.484375 14.15625 20.5 10.265625 
Q 23.53125 6.390625 29.59375 6.390625 
Q 36.859375 6.390625 41.078125 11.03125 
Q 45.3125 15.671875 45.3125 23.6875 
L 45.3125 54.6875 
L 54.296875 54.6875 
L 54.296875 0 
L 45.3125 0 
L 45.3125 8.40625 
Q 42.046875 3.421875 37.71875 1 
Q 33.40625 -1.421875 27.6875 -1.421875 
Q 18.265625 -1.421875 13.375 4.4375 
Q 8.5 10.296875 8.5 21.578125 
z
M 31.109375 56 
z
" id="DejaVuSans-75"/>
      <path d="M 18.3125 70.21875 
L 18.3125 54.6875 
L 36.8125 54.6875 
L 36.8125 47.703125 
L 18.3125 47.703125 
L 18.3125 18.015625 
Q 18.3125 11.328125 20.140625 9.421875 
Q 21.96875 7.515625 27.59375 7.515625 
L 36.8125 7.515625 
L 36.8125 0 
L 27.59375 0 
Q 17.1875 0 13.234375 3.875 
Q 9.28125 7.765625 9.28125 18.015625 
L 9.28125 47.703125 
L 2.6875 47.703125 
L 2.6875 54.6875 
L 9.28125 54.6875 
L 9.28125 70.21875 
z
" id="DejaVuSans-74"/>
      <path d="M 44.28125 53.078125 
L 44.28125 44.578125 
Q 40.484375 46.53125 36.375 47.5 
Q 32.28125 48.484375 27.875 48.484375 
Q 21.1875 48.484375 17.84375 46.4375 
Q 14.5 44.390625 14.5 40.28125 
Q 14.5 37.15625 16.890625 35.375 
Q 19.28125 33.59375 26.515625 31.984375 
L 29.59375 31.296875 
Q 39.15625 29.25 43.1875 25.515625 
Q 47.21875 21.78125 47.21875 15.09375 
Q 47.21875 7.46875 41.1875 3.015625 
Q 35.15625 -1.421875 24.609375 -1.421875 
Q 20.21875 -1.421875 15.453125 -0.5625 
Q 10.6875 0.296875 5.421875 2 
L 5.421875 11.28125 
Q 10.40625 8.6875 15.234375 7.390625 
Q 20.0625 6.109375 24.8125 6.109375 
Q 31.15625 6.109375 34.5625 8.28125 
Q 37.984375 10.453125 37.984375 14.40625 
Q 37.984375 18.0625 35.515625 20.015625 
Q 33.0625 21.96875 24.703125 23.78125 
L 21.578125 24.515625 
Q 13.234375 26.265625 9.515625 29.90625 
Q 5.8125 33.546875 5.8125 39.890625 
Q 5.8125 47.609375 11.28125 51.796875 
Q 16.75 56 26.8125 56 
Q 31.78125 56 36.171875 55.265625 
Q 40.578125 54.546875 44.28125 53.078125 
z
" id="DejaVuSans-73"/>
      <path d="M 54.890625 33.015625 
L 54.890625 0 
L 45.90625 0 
L 45.90625 32.71875 
Q 45.90625 40.484375 42.875 44.328125 
Q 39.84375 48.1875 33.796875 48.1875 
Q 26.515625 48.1875 22.3125 43.546875 
Q 18.109375 38.921875 18.109375 30.90625 
L 18.109375 0 
L 9.078125 0 
L 9.078125 75.984375 
L 18.109375 75.984375 
L 18.109375 46.1875 
Q 21.34375 51.125 25.703125 53.5625 
Q 30.078125 56 35.796875 56 
Q 45.21875 56 50.046875 50.171875 
Q 54.890625 44.34375 54.890625 33.015625 
z
" id="DejaVuSans-68"/>
     </defs>
     <g transform="translate(266.6482 246.363281)scale(0.15 -0.15)">
      <use xlink:href="#DejaVuSans-50"/>
      <use x="60.255859" xlink:href="#DejaVuSans-6f"/>
      <use x="121.4375" xlink:href="#DejaVuSans-70"/>
      <use x="184.914062" xlink:href="#DejaVuSans-75"/>
      <use x="248.292969" xlink:href="#DejaVuSans-6c"/>
      <use x="276.076172" xlink:href="#DejaVuSans-61"/>
      <use x="337.355469" xlink:href="#DejaVuSans-74"/>
      <use x="376.564453" xlink:href="#DejaVuSans-69"/>
      <use x="404.347656" xlink:href="#DejaVuSans-6f"/>
      <use x="465.529297" xlink:href="#DejaVuSans-6e"/>
      <use x="528.908203" xlink:href="#DejaVuSans-20"/>
      <use x="560.695312" xlink:href="#DejaVuSans-53"/>
      <use x="624.171875" xlink:href="#DejaVuSans-6e"/>
      <use x="687.550781" xlink:href="#DejaVuSans-61"/>
      <use x="748.830078" xlink:href="#DejaVuSans-70"/>
      <use x="812.306641" xlink:href="#DejaVuSans-73"/>
      <use x="864.40625" xlink:href="#DejaVuSans-68"/>
      <use x="927.785156" xlink:href="#DejaVuSans-6f"/>
      <use x="988.966797" xlink:href="#DejaVuSans-74"/>
      <use x="1028.175781" xlink:href="#DejaVuSans-73"/>
     </g>
    </g>
    <g id="line2d_36">
     <path d="M 224.6482 263.130469 
L 254.6482 263.130469 
" style="fill:none;stroke:#2ca02c;stroke-linecap:square;stroke-width:3;"/>
    </g>
    <g id="line2d_37"/>
    <g id="text_19">
     <!-- Lineage Tracking -->
     <defs>
      <path d="M -0.296875 72.90625 
L 61.375 72.90625 
L 61.375 64.59375 
L 35.5 64.59375 
L 35.5 0 
L 25.59375 0 
L 25.59375 64.59375 
L -0.296875 64.59375 
z
" id="DejaVuSans-54"/>
      <path d="M 41.109375 46.296875 
Q 39.59375 47.171875 37.8125 47.578125 
Q 36.03125 48 33.890625 48 
Q 26.265625 48 22.1875 43.046875 
Q 18.109375 38.09375 18.109375 28.8125 
L 18.109375 0 
L 9.078125 0 
L 9.078125 54.6875 
L 18.109375 54.6875 
L 18.109375 46.1875 
Q 20.953125 51.171875 25.484375 53.578125 
Q 30.03125 56 36.53125 56 
Q 37.453125 56 38.578125 55.875 
Q 39.703125 55.765625 41.0625 55.515625 
z
" id="DejaVuSans-72"/>
      <path d="M 48.78125 52.59375 
L 48.78125 44.1875 
Q 44.96875 46.296875 41.140625 47.34375 
Q 37.3125 48.390625 33.40625 48.390625 
Q 24.65625 48.390625 19.8125 42.84375 
Q 14.984375 37.3125 14.984375 27.296875 
Q 14.984375 17.28125 19.8125 11.734375 
Q 24.65625 6.203125 33.40625 6.203125 
Q 37.3125 6.203125 41.140625 7.25 
Q 44.96875 8.296875 48.78125 10.40625 
L 48.78125 2.09375 
Q 45.015625 0.34375 40.984375 -0.53125 
Q 36.96875 -1.421875 32.421875 -1.421875 
Q 20.0625 -1.421875 12.78125 6.34375 
Q 5.515625 14.109375 5.515625 27.296875 
Q 5.515625 40.671875 12.859375 48.328125 
Q 20.21875 56 33.015625 56 
Q 37.15625 56 41.109375 55.140625 
Q 45.0625 54.296875 48.78125 52.59375 
z
" id="DejaVuSans-63"/>
      <path d="M 9.078125 75.984375 
L 18.109375 75.984375 
L 18.109375 31.109375 
L 44.921875 54.6875 
L 56.390625 54.6875 
L 27.390625 29.109375 
L 57.625 0 
L 45.90625 0 
L 18.109375 26.703125 
L 18.109375 0 
L 9.078125 0 
z
" id="DejaVuSans-6b"/>
     </defs>
     <g transform="translate(266.6482 268.380469)scale(0.15 -0.15)">
      <use xlink:href="#DejaVuSans-4c"/>
      <use x="55.712891" xlink:href="#DejaVuSans-69"/>
      <use x="83.496094" xlink:href="#DejaVuSans-6e"/>
      <use x="146.875" xlink:href="#DejaVuSans-65"/>
      <use x="208.398438" xlink:href="#DejaVuSans-61"/>
      <use x="269.677734" xlink:href="#DejaVuSans-67"/>
      <use x="333.154297" xlink:href="#DejaVuSans-65"/>
      <use x="394.677734" xlink:href="#DejaVuSans-20"/>
      <use x="426.464844" xlink:href="#DejaVuSans-54"/>
      <use x="487.330078" xlink:href="#DejaVuSans-72"/>
      <use x="528.443359" xlink:href="#DejaVuSans-61"/>
      <use x="589.722656" xlink:href="#DejaVuSans-63"/>
      <use x="644.703125" xlink:href="#DejaVuSans-6b"/>
      <use x="702.613281" xlink:href="#DejaVuSans-69"/>
      <use x="730.396484" xlink:href="#DejaVuSans-6e"/>
      <use x="793.775391" xlink:href="#DejaVuSans-67"/>
     </g>
    </g>
   </g>
  </g>
  <g id="axes_2">
   <g id="patch_8">
    <path d="M 551.361957 285 
L 915.275 285 
L 915.275 13.2 
L 551.361957 13.2 
z
" style="fill:#ffffff;"/>
   </g>
   <g id="PolyCollection_4">
    <defs>
     <path d="M 551.361957 -66.938136 
L 551.361957 -66.938136 
L 556.560714 -70.503352 
L 561.759472 -88.376418 
L 566.95823 -115.055626 
L 572.156988 -144.372735 
L 577.355745 -175.324423 
L 582.554503 -201.85248 
L 587.753261 -218.077398 
L 592.952019 -232.059323 
L 598.150776 -245.580231 
L 603.349534 -257.115974 
L 608.548292 -267.148937 
L 613.74705 -270.594524 
L 618.945807 -273.214837 
L 624.144565 -274.197119 
L 629.343323 -278.160116 
L 634.542081 -281.802019 
L 639.740839 -279.749276 
L 644.939596 -279.942632 
L 650.138354 -279.412544 
L 655.337112 -279.342485 
L 660.53587 -279.232578 
L 665.734627 -275.062883 
L 670.933385 -272.007939 
L 676.132143 -267.478692 
L 681.330901 -267.216107 
L 686.529658 -265.576314 
L 691.728416 -262.183361 
L 696.927174 -260.401812 
L 702.125932 -260.703074 
L 707.324689 -256.336869 
L 712.523447 -254.851662 
L 717.722205 -254.79224 
L 722.920963 -254.758 
L 728.11972 -254.820023 
L 733.318478 -252.621022 
L 738.517236 -252.441091 
L 743.715994 -253.2909 
L 748.914752 -254.722564 
L 754.113509 -253.110329 
L 759.312267 -252.22663 
L 764.511025 -251.262398 
L 769.709783 -250.340121 
L 774.90854 -251.354544 
L 780.107298 -251.548897 
L 785.306056 -253.11635 
L 790.504814 -253.094028 
L 795.703571 -253.605271 
L 800.902329 -252.096054 
L 806.101087 -251.190718 
L 811.299845 -250.449498 
L 816.498602 -249.771675 
L 821.69736 -249.380078 
L 826.896118 -249.257433 
L 832.094876 -249.818374 
L 837.293634 -250.427055 
L 842.492391 -250.77375 
L 847.691149 -251.533083 
L 852.889907 -252.354339 
L 858.088665 -251.40565 
L 863.287422 -250.777066 
L 868.48618 -250.056467 
L 873.684938 -249.045834 
L 878.883696 -248.949511 
L 884.082453 -249.297943 
L 889.281211 -249.109218 
L 894.479969 -249.153008 
L 899.678727 -249.471505 
L 904.877484 -249.662368 
L 910.076242 -249.532034 
L 910.076242 -253.623815 
L 910.076242 -253.623815 
L 904.877484 -253.967984 
L 899.678727 -253.803984 
L 894.479969 -253.805024 
L 889.281211 -254.083506 
L 884.082453 -254.020543 
L 878.883696 -253.807435 
L 873.684938 -254.195359 
L 868.48618 -255.476014 
L 863.287422 -256.226274 
L 858.088665 -257.422131 
L 852.889907 -258.412141 
L 847.691149 -258.050033 
L 842.492391 -257.386613 
L 837.293634 -257.231865 
L 832.094876 -256.804675 
L 826.896118 -256.734783 
L 821.69736 -256.573133 
L 816.498602 -257.085599 
L 811.299845 -258.181912 
L 806.101087 -259.531379 
L 800.902329 -260.976106 
L 795.703571 -263.133436 
L 790.504814 -262.913281 
L 785.306056 -262.730574 
L 780.107298 -261.79391 
L 774.90854 -261.727389 
L 769.709783 -261.535187 
L 764.511025 -262.582095 
L 759.312267 -263.967913 
L 754.113509 -266.278181 
L 748.914752 -267.617996 
L 743.715994 -267.30752 
L 738.517236 -266.035378 
L 733.318478 -267.375355 
L 728.11972 -269.472978 
L 722.920963 -269.938689 
L 717.722205 -270.279737 
L 712.523447 -270.886437 
L 707.324689 -273.369201 
L 702.125932 -279.254303 
L 696.927174 -278.934564 
L 691.728416 -281.805389 
L 686.529658 -286.101509 
L 681.330901 -287.893243 
L 676.132143 -290.755701 
L 670.933385 -295.100199 
L 665.734627 -298.212602 
L 660.53587 -303.711888 
L 655.337112 -305.537981 
L 650.138354 -306.5257 
L 644.939596 -310.802335 
L 639.740839 -311.69323 
L 634.542081 -314.018892 
L 629.343323 -312.234557 
L 624.144565 -309.215287 
L 618.945807 -307.772194 
L 613.74705 -304.113295 
L 608.548292 -302.957068 
L 603.349534 -292.978138 
L 598.150776 -284.951169 
L 592.952019 -272.990613 
L 587.753261 -260.667342 
L 582.554503 -236.493202 
L 577.355745 -204.481344 
L 572.156988 -164.96853 
L 566.95823 -128.033132 
L 561.759472 -94.010716 
L 556.560714 -71.384888 
L 551.361957 -66.938136 
z
" id="m889ae8c007"/>
    </defs>
    <g clip-path="url(#pe76aa74a33)">
     <use style="fill:#ffa035;" x="0" xlink:href="#m889ae8c007" y="339.573438"/>
    </g>
   </g>
   <g id="PolyCollection_5">
    <defs>
     <path d="M 551.361957 -66.938136 
L 551.361957 -66.938136 
L 556.560714 -70.993503 
L 561.759472 -89.137106 
L 566.95823 -118.136429 
L 572.156988 -149.185065 
L 577.355745 -178.475417 
L 582.554503 -203.244809 
L 587.753261 -221.917635 
L 592.952019 -235.906976 
L 598.150776 -245.472723 
L 603.349534 -253.64923 
L 608.548292 -262.383565 
L 613.74705 -270.160153 
L 618.945807 -274.706402 
L 624.144565 -278.482003 
L 629.343323 -279.53908 
L 634.542081 -281.694347 
L 639.740839 -281.066549 
L 644.939596 -279.535318 
L 650.138354 -276.466797 
L 655.337112 -274.071662 
L 660.53587 -273.704425 
L 665.734627 -274.752646 
L 670.933385 -274.141076 
L 676.132143 -274.877604 
L 681.330901 -273.189057 
L 686.529658 -270.567016 
L 691.728416 -268.790458 
L 696.927174 -265.908305 
L 702.125932 -263.135967 
L 707.324689 -261.603547 
L 712.523447 -260.268833 
L 717.722205 -259.235851 
L 722.920963 -258.618521 
L 728.11972 -258.647202 
L 733.318478 -258.060731 
L 738.517236 -257.209158 
L 743.715994 -255.75128 
L 748.914752 -253.247218 
L 754.113509 -251.070803 
L 759.312267 -249.36199 
L 764.511025 -248.801343 
L 769.709783 -249.411017 
L 774.90854 -249.927756 
L 780.107298 -249.888411 
L 785.306056 -249.416863 
L 790.504814 -248.000787 
L 795.703571 -246.091099 
L 800.902329 -243.946243 
L 806.101087 -243.145872 
L 811.299845 -241.767406 
L 816.498602 -241.862913 
L 821.69736 -241.679221 
L 826.896118 -242.151403 
L 832.094876 -241.783211 
L 837.293634 -240.334309 
L 842.492391 -238.629881 
L 847.691149 -237.631416 
L 852.889907 -237.330119 
L 858.088665 -236.226919 
L 863.287422 -235.407634 
L 868.48618 -233.849725 
L 873.684938 -232.762005 
L 878.883696 -232.680281 
L 884.082453 -234.116131 
L 889.281211 -235.143256 
L 894.479969 -235.609505 
L 899.678727 -235.292324 
L 904.877484 -234.906839 
L 910.076242 -235.583285 
L 910.076242 -245.906307 
L 910.076242 -245.906307 
L 904.877484 -245.234613 
L 899.678727 -245.636097 
L 894.479969 -246.423772 
L 889.281211 -245.888303 
L 884.082453 -244.212776 
L 878.883696 -242.938258 
L 873.684938 -243.239834 
L 868.48618 -243.943909 
L 863.287422 -246.142693 
L 858.088665 -246.938611 
L 852.889907 -247.974363 
L 847.691149 -248.484757 
L 842.492391 -249.693132 
L 837.293634 -251.807101 
L 832.094876 -252.892654 
L 826.896118 -253.080181 
L 821.69736 -252.803382 
L 816.498602 -253.260406 
L 811.299845 -253.335393 
L 806.101087 -254.703587 
L 800.902329 -256.223986 
L 795.703571 -257.580571 
L 790.504814 -259.954946 
L 785.306056 -261.2284 
L 780.107298 -261.777388 
L 774.90854 -261.298444 
L 769.709783 -260.940535 
L 764.511025 -260.233059 
L 759.312267 -261.112361 
L 754.113509 -262.771335 
L 748.914752 -265.513867 
L 743.715994 -267.590967 
L 738.517236 -269.221376 
L 733.318478 -270.502199 
L 728.11972 -270.364961 
L 722.920963 -270.643276 
L 717.722205 -271.155672 
L 712.523447 -272.535701 
L 707.324689 -274.083422 
L 702.125932 -275.969942 
L 696.927174 -279.009733 
L 691.728416 -281.16328 
L 686.529658 -283.704871 
L 681.330901 -286.829584 
L 676.132143 -287.868097 
L 670.933385 -288.329567 
L 665.734627 -287.974433 
L 660.53587 -287.450224 
L 655.337112 -287.76738 
L 650.138354 -290.254501 
L 644.939596 -293.418323 
L 639.740839 -295.83287 
L 634.542081 -295.100704 
L 629.343323 -293.138978 
L 624.144565 -291.315002 
L 618.945807 -288.175012 
L 613.74705 -283.339403 
L 608.548292 -274.690723 
L 603.349534 -265.798544 
L 598.150776 -256.840224 
L 592.952019 -245.671533 
L 587.753261 -231.506487 
L 582.554503 -211.208448 
L 577.355745 -185.458835 
L 572.156988 -154.232769 
L 566.95823 -121.296832 
L 561.759472 -90.488325 
L 556.560714 -71.24232 
L 551.361957 -66.938136 
z
" id="mbfe146a368"/>
    </defs>
    <g clip-path="url(#pe76aa74a33)">
     <use style="fill:#4db8ff;" x="0" xlink:href="#mbfe146a368" y="339.573438"/>
    </g>
   </g>
   <g id="PolyCollection_6">
    <defs>
     <path d="M 551.361957 -66.938136 
L 551.361957 -66.938136 
L 556.560714 -66.938136 
L 561.759472 -66.938136 
L 566.95823 -66.938136 
L 572.156988 -66.938136 
L 577.355745 -66.927983 
L 582.554503 -66.992415 
L 587.753261 -67.543819 
L 592.952019 -69.658165 
L 598.150776 -73.225549 
L 603.349534 -78.385804 
L 608.548292 -85.339607 
L 613.74705 -93.420735 
L 618.945807 -103.005999 
L 624.144565 -112.499164 
L 629.343323 -120.669438 
L 634.542081 -128.082398 
L 639.740839 -134.329612 
L 644.939596 -139.193535 
L 650.138354 -143.392075 
L 655.337112 -149.328636 
L 660.53587 -153.844069 
L 665.734627 -156.869745 
L 670.933385 -160.14577 
L 676.132143 -164.256687 
L 681.330901 -169.066728 
L 686.529658 -173.681848 
L 691.728416 -177.195344 
L 696.927174 -179.42027 
L 702.125932 -183.824676 
L 707.324689 -186.624773 
L 712.523447 -191.783543 
L 717.722205 -196.532197 
L 722.920963 -200.69221 
L 728.11972 -204.228146 
L 733.318478 -206.730511 
L 738.517236 -208.222533 
L 743.715994 -211.202771 
L 748.914752 -214.245428 
L 754.113509 -215.377468 
L 759.312267 -217.699039 
L 764.511025 -219.742134 
L 769.709783 -220.415227 
L 774.90854 -223.453535 
L 780.107298 -225.40506 
L 785.306056 -227.55389 
L 790.504814 -229.008501 
L 795.703571 -230.073971 
L 800.902329 -229.550248 
L 806.101087 -230.309674 
L 811.299845 -230.492603 
L 816.498602 -231.872717 
L 821.69736 -233.269802 
L 826.896118 -234.410586 
L 832.094876 -235.564471 
L 837.293634 -236.864363 
L 842.492391 -237.881132 
L 847.691149 -239.588832 
L 852.889907 -241.247466 
L 858.088665 -240.91426 
L 863.287422 -241.073229 
L 868.48618 -241.352783 
L 873.684938 -240.853881 
L 878.883696 -241.494982 
L 884.082453 -242.242798 
L 889.281211 -242.542634 
L 894.479969 -242.667852 
L 899.678727 -243.078784 
L 904.877484 -243.706464 
L 910.076242 -243.911339 
L 910.076242 -248.882021 
L 910.076242 -248.882021 
L 904.877484 -248.621894 
L 899.678727 -248.404305 
L 894.479969 -248.291144 
L 889.281211 -248.127892 
L 884.082453 -248.013437 
L 878.883696 -247.392185 
L 873.684938 -247.364302 
L 868.48618 -248.004219 
L 863.287422 -248.320952 
L 858.088665 -248.627343 
L 852.889907 -248.863281 
L 847.691149 -247.707098 
L 842.492391 -246.187771 
L 837.293634 -245.351887 
L 832.094876 -244.280444 
L 826.896118 -243.38249 
L 821.69736 -241.953638 
L 816.498602 -240.617491 
L 811.299845 -239.637591 
L 806.101087 -239.995129 
L 800.902329 -240.297498 
L 795.703571 -240.927933 
L 790.504814 -239.661894 
L 785.306056 -238.319239 
L 780.107298 -237.002752 
L 774.90854 -234.413154 
L 769.709783 -233.240904 
L 764.511025 -232.755683 
L 759.312267 -230.946418 
L 754.113509 -229.249466 
L 748.914752 -227.98727 
L 743.715994 -225.083423 
L 738.517236 -223.067005 
L 733.318478 -221.361814 
L 728.11972 -219.273285 
L 722.920963 -216.973028 
L 717.722205 -212.504523 
L 712.523447 -206.928715 
L 707.324689 -202.973852 
L 702.125932 -198.886598 
L 696.927174 -193.865741 
L 691.728416 -192.516735 
L 686.529658 -188.635262 
L 681.330901 -183.811192 
L 676.132143 -178.456858 
L 670.933385 -174.372973 
L 665.734627 -172.125351 
L 660.53587 -169.005108 
L 655.337112 -164.283506 
L 650.138354 -159.542562 
L 644.939596 -154.699922 
L 639.740839 -149.793624 
L 634.542081 -143.459674 
L 629.343323 -134.650585 
L 624.144565 -125.007544 
L 618.945807 -113.929306 
L 613.74705 -102.046742 
L 608.548292 -92.89589 
L 603.349534 -84.438753 
L 598.150776 -77.827711 
L 592.952019 -72.383447 
L 587.753261 -69.142439 
L 582.554503 -67.74718 
L 577.355745 -67.02887 
L 572.156988 -66.938136 
L 566.95823 -66.938136 
L 561.759472 -66.938136 
L 556.560714 -66.938136 
L 551.361957 -66.938136 
z
" id="m2a35097953"/>
    </defs>
    <g clip-path="url(#pe76aa74a33)">
     <use style="fill:#47d200;" x="0" xlink:href="#m2a35097953" y="339.573438"/>
    </g>
   </g>
   <g id="matplotlib.axis_3">
    <g id="xtick_9">
     <g id="line2d_38">
      <path clip-path="url(#pe76aa74a33)" d="M 551.361957 285 
L 551.361957 13.2 
" style="fill:none;stroke:#b0b0b0;stroke-linecap:square;stroke-width:0.8;"/>
     </g>
     <g id="line2d_39">
      <g>
       <use x="551.361957" xlink:href="#m4943a84a9e" y="285"/>
      </g>
     </g>
     <g id="text_20">
      <!-- 0 -->
      <g transform="translate(546.590082 305.897656)scale(0.15 -0.15)">
       <use xlink:href="#DejaVuSans-30"/>
      </g>
     </g>
    </g>
    <g id="xtick_10">
     <g id="line2d_40">
      <path clip-path="url(#pe76aa74a33)" d="M 603.349534 285 
L 603.349534 13.2 
" style="fill:none;stroke:#b0b0b0;stroke-linecap:square;stroke-width:0.8;"/>
     </g>
     <g id="line2d_41">
      <g>
       <use x="603.349534" xlink:href="#m4943a84a9e" y="285"/>
      </g>
     </g>
     <g id="text_21">
      <!-- 1 -->
      <g transform="translate(598.577659 305.897656)scale(0.15 -0.15)">
       <use xlink:href="#DejaVuSans-31"/>
      </g>
     </g>
    </g>
    <g id="xtick_11">
     <g id="line2d_42">
      <path clip-path="url(#pe76aa74a33)" d="M 655.337112 285 
L 655.337112 13.2 
" style="fill:none;stroke:#b0b0b0;stroke-linecap:square;stroke-width:0.8;"/>
     </g>
     <g id="line2d_43">
      <g>
       <use x="655.337112" xlink:href="#m4943a84a9e" y="285"/>
      </g>
     </g>
     <g id="text_22">
      <!-- 2 -->
      <g transform="translate(650.565237 305.897656)scale(0.15 -0.15)">
       <use xlink:href="#DejaVuSans-32"/>
      </g>
     </g>
    </g>
    <g id="xtick_12">
     <g id="line2d_44">
      <path clip-path="url(#pe76aa74a33)" d="M 707.324689 285 
L 707.324689 13.2 
" style="fill:none;stroke:#b0b0b0;stroke-linecap:square;stroke-width:0.8;"/>
     </g>
     <g id="line2d_45">
      <g>
       <use x="707.324689" xlink:href="#m4943a84a9e" y="285"/>
      </g>
     </g>
     <g id="text_23">
      <!-- 3 -->
      <g transform="translate(702.552814 305.897656)scale(0.15 -0.15)">
       <use xlink:href="#DejaVuSans-33"/>
      </g>
     </g>
    </g>
    <g id="xtick_13">
     <g id="line2d_46">
      <path clip-path="url(#pe76aa74a33)" d="M 759.312267 285 
L 759.312267 13.2 
" style="fill:none;stroke:#b0b0b0;stroke-linecap:square;stroke-width:0.8;"/>
     </g>
     <g id="line2d_47">
      <g>
       <use x="759.312267" xlink:href="#m4943a84a9e" y="285"/>
      </g>
     </g>
     <g id="text_24">
      <!-- 4 -->
      <g transform="translate(754.540392 305.897656)scale(0.15 -0.15)">
       <use xlink:href="#DejaVuSans-34"/>
      </g>
     </g>
    </g>
    <g id="xtick_14">
     <g id="line2d_48">
      <path clip-path="url(#pe76aa74a33)" d="M 811.299845 285 
L 811.299845 13.2 
" style="fill:none;stroke:#b0b0b0;stroke-linecap:square;stroke-width:0.8;"/>
     </g>
     <g id="line2d_49">
      <g>
       <use x="811.299845" xlink:href="#m4943a84a9e" y="285"/>
      </g>
     </g>
     <g id="text_25">
      <!-- 5 -->
      <g transform="translate(806.52797 305.897656)scale(0.15 -0.15)">
       <use xlink:href="#DejaVuSans-35"/>
      </g>
     </g>
    </g>
    <g id="xtick_15">
     <g id="line2d_50">
      <path clip-path="url(#pe76aa74a33)" d="M 863.287422 285 
L 863.287422 13.2 
" style="fill:none;stroke:#b0b0b0;stroke-linecap:square;stroke-width:0.8;"/>
     </g>
     <g id="line2d_51">
      <g>
       <use x="863.287422" xlink:href="#m4943a84a9e" y="285"/>
      </g>
     </g>
     <g id="text_26">
      <!-- 6 -->
      <g transform="translate(858.515547 305.897656)scale(0.15 -0.15)">
       <use xlink:href="#DejaVuSans-36"/>
      </g>
     </g>
    </g>
    <g id="xtick_16">
     <g id="line2d_52">
      <path clip-path="url(#pe76aa74a33)" d="M 915.275 285 
L 915.275 13.2 
" style="fill:none;stroke:#b0b0b0;stroke-linecap:square;stroke-width:0.8;"/>
     </g>
     <g id="line2d_53">
      <g>
       <use x="915.275" xlink:href="#m4943a84a9e" y="285"/>
      </g>
     </g>
     <g id="text_27">
      <!-- 7 -->
      <g transform="translate(910.503125 305.897656)scale(0.15 -0.15)">
       <use xlink:href="#DejaVuSans-37"/>
      </g>
     </g>
    </g>
    <g id="text_28">
     <!-- $t/\tau$ -->
     <g transform="translate(719.918478 328.214063)scale(0.2 -0.2)">
      <use transform="translate(0 0.09375)" xlink:href="#DejaVuSans-Oblique-74"/>
      <use transform="translate(39.208984 0.09375)" xlink:href="#DejaVuSans-2f"/>
      <use transform="translate(72.900391 0.09375)" xlink:href="#DejaVuSans-Oblique-3c4"/>
     </g>
    </g>
   </g>
   <g id="matplotlib.axis_4">
    <g id="ytick_7">
     <g id="line2d_54">
      <path clip-path="url(#pe76aa74a33)" d="M 551.361957 272.635302 
L 915.275 272.635302 
" style="fill:none;stroke:#b0b0b0;stroke-linecap:square;stroke-width:0.8;"/>
     </g>
     <g id="line2d_55">
      <g>
       <use x="551.361957" xlink:href="#m6bf81397b7" y="272.635302"/>
      </g>
     </g>
     <g id="text_29">
      <!-- 0.000 -->
      <defs>
       <path d="M 10.6875 12.40625 
L 21 12.40625 
L 21 0 
L 10.6875 0 
z
" id="DejaVuSans-2e"/>
      </defs>
      <g transform="translate(498.919769 278.33413)scale(0.15 -0.15)">
       <use xlink:href="#DejaVuSans-30"/>
       <use x="63.623047" xlink:href="#DejaVuSans-2e"/>
       <use x="95.410156" xlink:href="#DejaVuSans-30"/>
       <use x="159.033203" xlink:href="#DejaVuSans-30"/>
       <use x="222.65625" xlink:href="#DejaVuSans-30"/>
      </g>
     </g>
    </g>
    <g id="ytick_8">
     <g id="line2d_56">
      <path clip-path="url(#pe76aa74a33)" d="M 551.361957 239.398579 
L 915.275 239.398579 
" style="fill:none;stroke:#b0b0b0;stroke-linecap:square;stroke-width:0.8;"/>
     </g>
     <g id="line2d_57">
      <g>
       <use x="551.361957" xlink:href="#m6bf81397b7" y="239.398579"/>
      </g>
     </g>
     <g id="text_30">
      <!-- 0.002 -->
      <g transform="translate(498.919769 245.097408)scale(0.15 -0.15)">
       <use xlink:href="#DejaVuSans-30"/>
       <use x="63.623047" xlink:href="#DejaVuSans-2e"/>
       <use x="95.410156" xlink:href="#DejaVuSans-30"/>
       <use x="159.033203" xlink:href="#DejaVuSans-30"/>
       <use x="222.65625" xlink:href="#DejaVuSans-32"/>
      </g>
     </g>
    </g>
    <g id="ytick_9">
     <g id="line2d_58">
      <path clip-path="url(#pe76aa74a33)" d="M 551.361957 206.161857 
L 915.275 206.161857 
" style="fill:none;stroke:#b0b0b0;stroke-linecap:square;stroke-width:0.8;"/>
     </g>
     <g id="line2d_59">
      <g>
       <use x="551.361957" xlink:href="#m6bf81397b7" y="206.161857"/>
      </g>
     </g>
     <g id="text_31">
      <!-- 0.004 -->
      <g transform="translate(498.919769 211.860685)scale(0.15 -0.15)">
       <use xlink:href="#DejaVuSans-30"/>
       <use x="63.623047" xlink:href="#DejaVuSans-2e"/>
       <use x="95.410156" xlink:href="#DejaVuSans-30"/>
       <use x="159.033203" xlink:href="#DejaVuSans-30"/>
       <use x="222.65625" xlink:href="#DejaVuSans-34"/>
      </g>
     </g>
    </g>
    <g id="ytick_10">
     <g id="line2d_60">
      <path clip-path="url(#pe76aa74a33)" d="M 551.361957 172.925135 
L 915.275 172.925135 
" style="fill:none;stroke:#b0b0b0;stroke-linecap:square;stroke-width:0.8;"/>
     </g>
     <g id="line2d_61">
      <g>
       <use x="551.361957" xlink:href="#m6bf81397b7" y="172.925135"/>
      </g>
     </g>
     <g id="text_32">
      <!-- 0.006 -->
      <g transform="translate(498.919769 178.623963)scale(0.15 -0.15)">
       <use xlink:href="#DejaVuSans-30"/>
       <use x="63.623047" xlink:href="#DejaVuSans-2e"/>
       <use x="95.410156" xlink:href="#DejaVuSans-30"/>
       <use x="159.033203" xlink:href="#DejaVuSans-30"/>
       <use x="222.65625" xlink:href="#DejaVuSans-36"/>
      </g>
     </g>
    </g>
    <g id="ytick_11">
     <g id="line2d_62">
      <path clip-path="url(#pe76aa74a33)" d="M 551.361957 139.688413 
L 915.275 139.688413 
" style="fill:none;stroke:#b0b0b0;stroke-linecap:square;stroke-width:0.8;"/>
     </g>
     <g id="line2d_63">
      <g>
       <use x="551.361957" xlink:href="#m6bf81397b7" y="139.688413"/>
      </g>
     </g>
     <g id="text_33">
      <!-- 0.008 -->
      <g transform="translate(498.919769 145.387241)scale(0.15 -0.15)">
       <use xlink:href="#DejaVuSans-30"/>
       <use x="63.623047" xlink:href="#DejaVuSans-2e"/>
       <use x="95.410156" xlink:href="#DejaVuSans-30"/>
       <use x="159.033203" xlink:href="#DejaVuSans-30"/>
       <use x="222.65625" xlink:href="#DejaVuSans-38"/>
      </g>
     </g>
    </g>
    <g id="ytick_12">
     <g id="line2d_64">
      <path clip-path="url(#pe76aa74a33)" d="M 551.361957 106.451691 
L 915.275 106.451691 
" style="fill:none;stroke:#b0b0b0;stroke-linecap:square;stroke-width:0.8;"/>
     </g>
     <g id="line2d_65">
      <g>
       <use x="551.361957" xlink:href="#m6bf81397b7" y="106.451691"/>
      </g>
     </g>
     <g id="text_34">
      <!-- 0.010 -->
      <g transform="translate(498.919769 112.150519)scale(0.15 -0.15)">
       <use xlink:href="#DejaVuSans-30"/>
       <use x="63.623047" xlink:href="#DejaVuSans-2e"/>
       <use x="95.410156" xlink:href="#DejaVuSans-30"/>
       <use x="159.033203" xlink:href="#DejaVuSans-31"/>
       <use x="222.65625" xlink:href="#DejaVuSans-30"/>
      </g>
     </g>
    </g>
    <g id="ytick_13">
     <g id="line2d_66">
      <path clip-path="url(#pe76aa74a33)" d="M 551.361957 73.214969 
L 915.275 73.214969 
" style="fill:none;stroke:#b0b0b0;stroke-linecap:square;stroke-width:0.8;"/>
     </g>
     <g id="line2d_67">
      <g>
       <use x="551.361957" xlink:href="#m6bf81397b7" y="73.214969"/>
      </g>
     </g>
     <g id="text_35">
      <!-- 0.012 -->
      <g transform="translate(498.919769 78.913797)scale(0.15 -0.15)">
       <use xlink:href="#DejaVuSans-30"/>
       <use x="63.623047" xlink:href="#DejaVuSans-2e"/>
       <use x="95.410156" xlink:href="#DejaVuSans-30"/>
       <use x="159.033203" xlink:href="#DejaVuSans-31"/>
       <use x="222.65625" xlink:href="#DejaVuSans-32"/>
      </g>
     </g>
    </g>
    <g id="ytick_14">
     <g id="line2d_68">
      <path clip-path="url(#pe76aa74a33)" d="M 551.361957 39.978247 
L 915.275 39.978247 
" style="fill:none;stroke:#b0b0b0;stroke-linecap:square;stroke-width:0.8;"/>
     </g>
     <g id="line2d_69">
      <g>
       <use x="551.361957" xlink:href="#m6bf81397b7" y="39.978247"/>
      </g>
     </g>
     <g id="text_36">
      <!-- 0.014 -->
      <g transform="translate(498.919769 45.677075)scale(0.15 -0.15)">
       <use xlink:href="#DejaVuSans-30"/>
       <use x="63.623047" xlink:href="#DejaVuSans-2e"/>
       <use x="95.410156" xlink:href="#DejaVuSans-30"/>
       <use x="159.033203" xlink:href="#DejaVuSans-31"/>
       <use x="222.65625" xlink:href="#DejaVuSans-34"/>
      </g>
     </g>
    </g>
    <g id="text_37">
     <!-- $C_V^2(p)$ -->
     <defs>
      <path d="M 69.484375 67.28125 
L 67.484375 56.890625 
Q 62.796875 61.625 57.546875 63.921875 
Q 52.296875 66.21875 46.1875 66.21875 
Q 37.84375 66.21875 31.515625 62.203125 
Q 25.203125 58.203125 20.609375 50 
Q 17.671875 44.734375 16.125 38.84375 
Q 14.59375 32.953125 14.59375 27 
Q 14.59375 17.046875 19.75 11.8125 
Q 24.90625 6.59375 34.71875 6.59375 
Q 41.5 6.59375 47.75 8.765625 
Q 54 10.9375 59.90625 15.28125 
L 57.625 3.609375 
Q 51.8125 1.125 45.875 -0.140625 
Q 39.9375 -1.421875 33.984375 -1.421875 
Q 19.96875 -1.421875 12.078125 6.1875 
Q 4.203125 13.8125 4.203125 27.390625 
Q 4.203125 36.078125 7.203125 44.46875 
Q 10.203125 52.875 15.828125 59.8125 
Q 21.78125 67.1875 29.421875 70.703125 
Q 37.0625 74.21875 47.21875 74.21875 
Q 53.46875 74.21875 59.0625 72.484375 
Q 64.65625 70.75 69.484375 67.28125 
z
" id="DejaVuSans-Oblique-43"/>
      <path d="M 20.609375 0 
L 7.8125 72.90625 
L 17.484375 72.90625 
L 28.078125 10.203125 
L 63.484375 72.90625 
L 74.21875 72.90625 
L 32.078125 0 
z
" id="DejaVuSans-Oblique-56"/>
      <path d="M 31 75.875 
Q 24.46875 64.65625 21.28125 53.65625 
Q 18.109375 42.671875 18.109375 31.390625 
Q 18.109375 20.125 21.3125 9.0625 
Q 24.515625 -2 31 -13.1875 
L 23.1875 -13.1875 
Q 15.875 -1.703125 12.234375 9.375 
Q 8.59375 20.453125 8.59375 31.390625 
Q 8.59375 42.28125 12.203125 53.3125 
Q 15.828125 64.359375 23.1875 75.875 
z
" id="DejaVuSans-28"/>
      <path d="M 8.015625 75.875 
L 15.828125 75.875 
Q 23.140625 64.359375 26.78125 53.3125 
Q 30.421875 42.28125 30.421875 31.390625 
Q 30.421875 20.453125 26.78125 9.375 
Q 23.140625 -1.703125 15.828125 -13.1875 
L 8.015625 -13.1875 
Q 14.5 -2 17.703125 9.0625 
Q 20.90625 20.125 20.90625 31.390625 
Q 20.90625 42.671875 17.703125 53.65625 
Q 14.5 64.65625 8.015625 75.875 
z
" id="DejaVuSans-29"/>
     </defs>
     <g transform="translate(489.319769 175.7)rotate(-90)scale(0.2 -0.2)">
      <use transform="translate(0 0.765625)" xlink:href="#DejaVuSans-Oblique-43"/>
      <use transform="translate(77.02474 39.046875)scale(0.7)" xlink:href="#DejaVuSans-32"/>
      <use transform="translate(69.824219 -26.578125)scale(0.7)" xlink:href="#DejaVuSans-Oblique-56"/>
      <use transform="translate(124.295247 0.765625)" xlink:href="#DejaVuSans-28"/>
      <use transform="translate(163.308919 0.765625)" xlink:href="#DejaVuSans-Oblique-70"/>
      <use transform="translate(226.785482 0.765625)" xlink:href="#DejaVuSans-29"/>
     </g>
    </g>
   </g>
   <g id="line2d_70">
    <path clip-path="url(#pe76aa74a33)" d="M 551.361957 272.635302 
L 556.560714 268.455526 
L 561.759472 249.760722 
L 566.95823 219.856807 
L 572.156988 187.864521 
L 577.355745 157.606311 
L 582.554503 132.346809 
L 587.753261 112.861377 
L 592.952019 98.784183 
L 598.150776 88.416964 
L 603.349534 79.849551 
L 608.548292 71.036294 
L 613.74705 62.823659 
L 618.945807 58.13273 
L 624.144565 54.674935 
L 629.343323 53.234408 
L 634.542081 51.175912 
L 639.740839 51.123728 
L 644.939596 53.096617 
L 650.138354 56.212788 
L 655.337112 58.653917 
L 660.53587 58.996113 
L 665.734627 58.209898 
L 670.933385 58.338116 
L 676.132143 58.200587 
L 681.330901 59.564117 
L 686.529658 62.437494 
L 691.728416 64.596569 
L 696.927174 67.114419 
L 702.125932 70.020483 
L 707.324689 71.729953 
L 712.523447 73.171171 
L 717.722205 74.377676 
L 722.920963 74.942539 
L 728.11972 75.067356 
L 733.318478 75.291972 
L 738.517236 76.35817 
L 743.715994 77.902314 
L 748.914752 80.192895 
L 754.113509 82.652369 
L 759.312267 84.336262 
L 764.511025 85.056236 
L 769.709783 84.397661 
L 774.90854 83.960337 
L 780.107298 83.740538 
L 785.306056 84.250806 
L 790.504814 85.595571 
L 795.703571 87.737603 
L 800.902329 89.488323 
L 806.101087 90.648708 
L 811.299845 92.022038 
L 816.498602 92.011778 
L 821.69736 92.332136 
L 826.896118 91.957645 
L 832.094876 92.235505 
L 837.293634 93.502732 
L 842.492391 95.411931 
L 847.691149 96.515351 
L 852.889907 96.921196 
L 858.088665 97.990673 
L 863.287422 98.798274 
L 868.48618 100.67662 
L 873.684938 101.572518 
L 878.883696 101.764168 
L 884.082453 100.408984 
L 889.281211 99.057658 
L 894.479969 98.556799 
L 899.678727 99.109227 
L 904.877484 99.502712 
L 910.076242 98.828642 
" style="fill:none;stroke:#1f77b4;stroke-linecap:square;stroke-width:3;"/>
   </g>
   <g id="line2d_71">
    <path clip-path="url(#pe76aa74a33)" d="M 551.361957 272.635302 
L 556.560714 268.629317 
L 561.759472 248.379871 
L 566.95823 218.029059 
L 572.156988 184.902805 
L 577.355745 149.670554 
L 582.554503 120.400597 
L 587.753261 100.201068 
L 592.952019 87.04847 
L 598.150776 74.307738 
L 603.349534 64.526381 
L 608.548292 54.520435 
L 613.74705 52.219528 
L 618.945807 49.079922 
L 624.144565 47.867234 
L 629.343323 44.376101 
L 634.542081 41.662982 
L 639.740839 43.852184 
L 644.939596 44.200954 
L 650.138354 46.604316 
L 655.337112 47.133204 
L 660.53587 48.101204 
L 665.734627 52.935695 
L 670.933385 56.019369 
L 676.132143 60.456241 
L 681.330901 62.018762 
L 686.529658 63.734526 
L 691.728416 67.579063 
L 696.927174 69.905249 
L 702.125932 69.594749 
L 707.324689 74.720402 
L 712.523447 76.704388 
L 717.722205 77.037449 
L 722.920963 77.225093 
L 728.11972 77.426937 
L 733.318478 79.575249 
L 738.517236 80.335203 
L 743.715994 79.274228 
L 748.914752 78.403158 
L 754.113509 79.879182 
L 759.312267 81.476166 
L 764.511025 82.651191 
L 769.709783 83.635784 
L 774.90854 83.032471 
L 780.107298 82.902034 
L 785.306056 81.649975 
L 790.504814 81.569783 
L 795.703571 81.204084 
L 800.902329 83.037358 
L 806.101087 84.212389 
L 811.299845 85.257732 
L 816.498602 86.144801 
L 821.69736 86.596832 
L 826.896118 86.577329 
L 832.094876 86.261913 
L 837.293634 85.743977 
L 842.492391 85.493256 
L 847.691149 84.781879 
L 852.889907 84.190198 
L 858.088665 85.159547 
L 863.287422 86.071768 
L 868.48618 86.807197 
L 873.684938 87.952841 
L 878.883696 88.194965 
L 884.082453 87.914195 
L 889.281211 87.977075 
L 894.479969 88.094421 
L 899.678727 87.935693 
L 904.877484 87.758261 
L 910.076242 87.995513 
" style="fill:none;stroke:#ff7f0e;stroke-linecap:square;stroke-width:3;"/>
   </g>
   <g id="line2d_72">
    <path clip-path="url(#pe76aa74a33)" d="M 551.361957 272.635302 
L 556.560714 272.635302 
L 561.759472 272.635302 
L 566.95823 272.635302 
L 572.156988 272.635302 
L 577.355745 272.595011 
L 582.554503 272.20364 
L 587.753261 271.230309 
L 592.952019 268.552631 
L 598.150776 264.046808 
L 603.349534 258.161159 
L 608.548292 250.455689 
L 613.74705 241.839699 
L 618.945807 231.105785 
L 624.144565 220.820084 
L 629.343323 211.913426 
L 634.542081 203.802401 
L 639.740839 197.511819 
L 644.939596 192.626709 
L 650.138354 188.106119 
L 655.337112 182.767366 
L 660.53587 178.148849 
L 665.734627 175.075889 
L 670.933385 172.314066 
L 676.132143 168.216665 
L 681.330901 163.134477 
L 686.529658 158.414883 
L 691.728416 154.717398 
L 696.927174 152.930432 
L 702.125932 148.217801 
L 707.324689 144.774125 
L 712.523447 140.217308 
L 717.722205 135.055078 
L 722.920963 130.740818 
L 728.11972 127.822722 
L 733.318478 125.527275 
L 738.517236 123.928668 
L 743.715994 121.43034 
L 748.914752 118.457089 
L 754.113509 117.25997 
L 759.312267 115.250709 
L 764.511025 113.324529 
L 769.709783 112.745372 
L 774.90854 110.640093 
L 780.107298 108.369531 
L 785.306056 106.636873 
L 790.504814 105.23824 
L 795.703571 104.072485 
L 800.902329 104.649565 
L 806.101087 104.421036 
L 811.299845 104.508341 
L 816.498602 103.328333 
L 821.69736 101.961718 
L 826.896118 100.676899 
L 832.094876 99.65098 
L 837.293634 98.465312 
L 842.492391 97.538986 
L 847.691149 95.925473 
L 852.889907 94.518064 
L 858.088665 94.802636 
L 863.287422 94.876347 
L 868.48618 94.894936 
L 873.684938 95.464346 
L 878.883696 95.129854 
L 884.082453 94.44532 
L 889.281211 94.238175 
L 894.479969 94.093939 
L 899.678727 93.831893 
L 904.877484 93.409258 
L 910.076242 93.176758 
" style="fill:none;stroke:#319000;stroke-linecap:square;stroke-width:3;"/>
   </g>
   <g id="patch_9">
    <path d="M 551.361957 285 
L 551.361957 13.2 
" style="fill:none;stroke:#000000;stroke-linecap:square;stroke-linejoin:miter;stroke-width:2;"/>
   </g>
   <g id="patch_10">
    <path d="M 915.275 285 
L 915.275 13.2 
" style="fill:none;"/>
   </g>
   <g id="patch_11">
    <path d="M 551.361957 285 
L 915.275 285 
" style="fill:none;stroke:#000000;stroke-linecap:square;stroke-linejoin:miter;stroke-width:2;"/>
   </g>
   <g id="patch_12">
    <path d="M 551.361957 13.2 
L 915.275 13.2 
" style="fill:none;"/>
   </g>
  </g>
 </g>
 <defs>
  <clipPath id="p6e030c179b">
   <rect height="271.8" width="363.913043" x="78.275" y="13.2"/>
  </clipPath>
  <clipPath id="pe76aa74a33">
   <rect height="271.8" width="363.913043" x="551.361957" y="13.2"/>
  </clipPath>
 </defs>
</svg>
