<?xml version="1.0" encoding="utf-8" standalone="no"?>
<!DOCTYPE svg PUBLIC "-//W3C//DTD SVG 1.1//EN"
  "http://www.w3.org/Graphics/SVG/1.1/DTD/svg11.dtd">
<!-- Created with matplotlib (http://matplotlib.org/) -->
<svg height="339.573438pt" version="1.1" viewBox="0 0 928.475 339.573438" width="928.475pt" xmlns="http://www.w3.org/2000/svg" xmlns:xlink="http://www.w3.org/1999/xlink">
 <defs>
  <style type="text/css">
*{stroke-linecap:butt;stroke-linejoin:round;}
  </style>
 </defs>
 <g id="figure_1">
  <g id="patch_1">
   <path d="M 0 339.573438 
L 928.475 339.573438 
L 928.475 0 
L 0 0 
z
" style="fill:#ffffff;"/>
  </g>
  <g id="axes_1">
   <g id="patch_2">
    <path d="M 78.275 285 
L 442.188043 285 
L 442.188043 13.2 
L 78.275 13.2 
z
" style="fill:#ffffff;"/>
   </g>
   <g id="PolyCollection_1">
    <defs>
     <path d="M 78.275 -66.927983 
L 78.275 -66.927983 
L 83.473758 -69.659191 
L 88.672516 -76.608888 
L 93.871273 -86.045742 
L 99.070031 -96.818016 
L 104.268789 -108.246234 
L 109.467547 -119.814456 
L 114.666304 -131.160459 
L 119.865062 -142.321785 
L 125.06382 -153.122177 
L 130.262578 -163.349212 
L 135.461335 -173.017837 
L 140.660093 -181.950912 
L 145.858851 -190.328418 
L 151.057609 -198.255796 
L 156.256366 -205.732876 
L 161.455124 -212.889187 
L 166.653882 -219.430498 
L 171.85264 -225.523288 
L 177.051398 -231.012221 
L 182.250155 -236.008086 
L 187.448913 -241.009103 
L 192.647671 -245.50277 
L 197.846429 -249.6709 
L 203.045186 -253.686301 
L 208.243944 -257.532338 
L 213.442702 -261.115784 
L 218.64146 -264.397234 
L 223.840217 -267.53014 
L 229.038975 -270.409792 
L 234.237733 -273.111316 
L 239.436491 -275.907027 
L 244.635248 -278.119815 
L 249.834006 -280.547281 
L 255.032764 -282.670434 
L 260.231522 -284.679672 
L 265.43028 -286.693355 
L 270.629037 -288.52429 
L 275.827795 -290.270149 
L 281.026553 -291.865255 
L 286.225311 -293.326659 
L 291.424068 -294.704505 
L 296.622826 -295.9777 
L 301.821584 -297.652036 
L 307.020342 -299.016593 
L 312.219099 -300.145034 
L 317.417857 -300.937818 
L 322.616615 -301.630094 
L 327.815373 -302.442962 
L 333.01413 -303.045792 
L 338.212888 -303.525734 
L 343.411646 -303.915225 
L 348.610404 -304.091437 
L 353.809161 -304.263147 
L 359.007919 -304.619841 
L 364.206677 -304.667231 
L 369.405435 -304.991933 
L 374.604193 -305.273994 
L 379.80295 -305.767126 
L 385.001708 -306.264565 
L 390.200466 -306.737537 
L 395.399224 -307.361637 
L 400.597981 -307.971859 
L 405.796739 -308.428158 
L 410.995497 -308.971151 
L 416.194255 -309.406232 
L 421.393012 -309.84864 
L 426.59177 -310.123003 
L 431.790528 -310.247358 
L 436.989286 -310.306865 
L 436.989286 -314.018892 
L 436.989286 -314.018892 
L 431.790528 -313.964432 
L 426.59177 -313.707362 
L 421.393012 -313.504602 
L 416.194255 -312.997119 
L 410.995497 -312.512314 
L 405.796739 -312.138888 
L 400.597981 -311.498688 
L 395.399224 -311.088016 
L 390.200466 -310.483813 
L 385.001708 -309.876069 
L 379.80295 -309.541873 
L 374.604193 -308.968225 
L 369.405435 -308.4942 
L 364.206677 -308.512028 
L 359.007919 -308.271401 
L 353.809161 -308.043322 
L 348.610404 -307.731297 
L 343.411646 -307.540713 
L 338.212888 -307.173473 
L 333.01413 -306.723012 
L 327.815373 -306.12185 
L 322.616615 -305.379285 
L 317.417857 -304.553977 
L 312.219099 -303.674277 
L 307.020342 -302.636985 
L 301.821584 -301.330117 
L 296.622826 -299.921216 
L 291.424068 -298.430759 
L 286.225311 -296.91343 
L 281.026553 -295.662702 
L 275.827795 -294.199037 
L 270.629037 -292.433564 
L 265.43028 -290.573336 
L 260.231522 -288.499993 
L 255.032764 -286.454611 
L 249.834006 -284.160558 
L 244.635248 -281.952878 
L 239.436491 -279.513598 
L 234.237733 -277.045406 
L 229.038975 -274.078045 
L 223.840217 -271.18347 
L 218.64146 -267.979256 
L 213.442702 -264.67245 
L 208.243944 -261.203659 
L 203.045186 -257.388187 
L 197.846429 -253.408746 
L 192.647671 -249.049605 
L 187.448913 -244.547925 
L 182.250155 -239.614751 
L 177.051398 -234.353728 
L 171.85264 -228.950527 
L 166.653882 -222.785654 
L 161.455124 -216.146763 
L 156.256366 -208.974957 
L 151.057609 -201.351432 
L 145.858851 -193.290971 
L 140.660093 -184.848104 
L 135.461335 -175.827598 
L 130.262578 -166.040022 
L 125.06382 -155.584616 
L 119.865062 -144.719783 
L 114.666304 -133.369895 
L 109.467547 -121.708 
L 104.268789 -110.048564 
L 99.070031 -98.260343 
L 93.871273 -87.140153 
L 88.672516 -77.276746 
L 83.473758 -69.937128 
L 78.275 -66.927983 
z
" id="m3a77e857e0"/>
    </defs>
    <g clip-path="url(#p7ccb22e4c1)">
     <use style="fill:#4db8ff;" x="0" xlink:href="#m3a77e857e0" y="339.573438"/>
    </g>
   </g>
   <g id="PolyCollection_2">
    <defs>
     <path d="M 78.275 -66.927983 
L 78.275 -66.927983 
L 83.473758 -69.388187 
L 88.672516 -75.405106 
L 93.871273 -83.699335 
L 99.070031 -94.011369 
L 104.268789 -105.41583 
L 109.467547 -116.824018 
L 114.666304 -126.559437 
L 119.865062 -137.019659 
L 125.06382 -147.648171 
L 130.262578 -158.644367 
L 135.461335 -166.246605 
L 140.660093 -175.954314 
L 145.858851 -185.275533 
L 151.057609 -193.26976 
L 156.256366 -200.636978 
L 161.455124 -208.97749 
L 166.653882 -215.072454 
L 171.85264 -221.802413 
L 177.051398 -226.771252 
L 182.250155 -231.759191 
L 187.448913 -235.794548 
L 192.647671 -240.485238 
L 197.846429 -245.17352 
L 203.045186 -250.028997 
L 208.243944 -252.949832 
L 213.442702 -257.010391 
L 218.64146 -259.714828 
L 223.840217 -263.7496 
L 229.038975 -265.953805 
L 234.237733 -269.45447 
L 239.436491 -272.756614 
L 244.635248 -276.29671 
L 249.834006 -277.886404 
L 255.032764 -280.670135 
L 260.231522 -282.297084 
L 265.43028 -284.015173 
L 270.629037 -285.338287 
L 275.827795 -287.038881 
L 281.026553 -288.896334 
L 286.225311 -291.823192 
L 291.424068 -293.270542 
L 296.622826 -293.813341 
L 301.821584 -295.140861 
L 307.020342 -296.166954 
L 312.219099 -297.262902 
L 317.417857 -298.304796 
L 322.616615 -299.522217 
L 327.815373 -301.022987 
L 333.01413 -301.805095 
L 338.212888 -302.60729 
L 343.411646 -302.971669 
L 348.610404 -303.680729 
L 353.809161 -304.376686 
L 359.007919 -305.087523 
L 364.206677 -305.722752 
L 369.405435 -306.227419 
L 374.604193 -306.838754 
L 379.80295 -307.401702 
L 385.001708 -307.648087 
L 390.200466 -307.740243 
L 395.399224 -307.725743 
L 400.597981 -308.10894 
L 405.796739 -308.544935 
L 410.995497 -308.662486 
L 416.194255 -308.815183 
L 421.393012 -308.942606 
L 426.59177 -308.820246 
L 431.790528 -308.827729 
L 436.989286 -309.179408 
L 436.989286 -310.975714 
L 436.989286 -310.975714 
L 431.790528 -310.832645 
L 426.59177 -310.772291 
L 421.393012 -310.911967 
L 416.194255 -310.844513 
L 410.995497 -310.923372 
L 405.796739 -310.586508 
L 400.597981 -310.31216 
L 395.399224 -310.002331 
L 390.200466 -310.125858 
L 385.001708 -310.155811 
L 379.80295 -310.073425 
L 374.604193 -309.55195 
L 369.405435 -309.161562 
L 364.206677 -308.649091 
L 359.007919 -308.072053 
L 353.809161 -307.442033 
L 348.610404 -306.698491 
L 343.411646 -306.325028 
L 338.212888 -305.960105 
L 333.01413 -305.352474 
L 327.815373 -305.089047 
L 322.616615 -303.597771 
L 317.417857 -302.283069 
L 312.219099 -301.372846 
L 307.020342 -300.423517 
L 301.821584 -299.376882 
L 296.622826 -298.337072 
L 291.424068 -297.559394 
L 286.225311 -296.546741 
L 281.026553 -293.86318 
L 275.827795 -292.166319 
L 270.629037 -290.655549 
L 265.43028 -289.408225 
L 260.231522 -287.932062 
L 255.032764 -286.154982 
L 249.834006 -283.690399 
L 244.635248 -282.451475 
L 239.436491 -279.290188 
L 234.237733 -276.174869 
L 229.038975 -272.748996 
L 223.840217 -271.075864 
L 218.64146 -266.88053 
L 213.442702 -264.682755 
L 208.243944 -261.002943 
L 203.045186 -257.926499 
L 197.846429 -253.479131 
L 192.647671 -249.206225 
L 187.448913 -243.82423 
L 182.250155 -240.506902 
L 177.051398 -235.668452 
L 171.85264 -231.650679 
L 166.653882 -225.24482 
L 161.455124 -218.957722 
L 156.256366 -211.116568 
L 151.057609 -203.387137 
L 145.858851 -195.489701 
L 140.660093 -185.32503 
L 135.461335 -175.779049 
L 130.262578 -167.720898 
L 125.06382 -157.714922 
L 119.865062 -146.89735 
L 114.666304 -136.127818 
L 109.467547 -126.299491 
L 104.268789 -113.690499 
L 99.070031 -101.127758 
L 93.871273 -89.009327 
L 88.672516 -78.985656 
L 83.473758 -70.737134 
L 78.275 -66.927983 
z
" id="md40e8b90ec"/>
    </defs>
    <g clip-path="url(#p7ccb22e4c1)">
     <use style="fill:#ffa035;" x="0" xlink:href="#md40e8b90ec" y="339.573438"/>
    </g>
   </g>
   <g id="PolyCollection_3">
    <defs>
     <path d="M 78.275 -66.927983 
L 78.275 -66.927983 
L 83.473758 -69.38361 
L 88.672516 -75.563925 
L 93.871273 -83.859442 
L 99.070031 -94.360066 
L 104.268789 -105.37572 
L 109.467547 -115.468684 
L 114.666304 -125.195798 
L 119.865062 -134.930778 
L 125.06382 -144.649331 
L 130.262578 -155.206035 
L 135.461335 -164.61337 
L 140.660093 -174.115395 
L 145.858851 -183.132455 
L 151.057609 -191.421479 
L 156.256366 -199.10978 
L 161.455124 -206.401293 
L 166.653882 -213.726444 
L 171.85264 -219.869051 
L 177.051398 -225.751758 
L 182.250155 -230.795092 
L 187.448913 -235.301041 
L 192.647671 -239.935193 
L 197.846429 -244.077904 
L 203.045186 -248.026751 
L 208.243944 -252.279919 
L 213.442702 -255.422274 
L 218.64146 -259.507942 
L 223.840217 -263.404642 
L 229.038975 -265.880811 
L 234.237733 -268.857924 
L 239.436491 -271.690571 
L 244.635248 -274.380355 
L 249.834006 -276.265991 
L 255.032764 -278.853141 
L 260.231522 -281.041109 
L 265.43028 -283.065805 
L 270.629037 -284.308942 
L 275.827795 -286.194795 
L 281.026553 -287.546378 
L 286.225311 -290.534183 
L 291.424068 -292.04205 
L 296.622826 -292.895641 
L 301.821584 -294.327198 
L 307.020342 -295.372084 
L 312.219099 -296.321233 
L 317.417857 -297.568324 
L 322.616615 -298.795622 
L 327.815373 -300.351847 
L 333.01413 -300.973713 
L 338.212888 -301.764254 
L 343.411646 -302.349061 
L 348.610404 -302.857464 
L 353.809161 -303.718792 
L 359.007919 -304.323122 
L 364.206677 -305.099695 
L 369.405435 -305.45803 
L 374.604193 -306.077936 
L 379.80295 -306.670326 
L 385.001708 -307.093617 
L 390.200466 -307.195808 
L 395.399224 -307.229928 
L 400.597981 -307.712635 
L 405.796739 -308.048931 
L 410.995497 -308.374221 
L 416.194255 -308.400234 
L 421.393012 -308.558896 
L 426.59177 -308.420418 
L 431.790528 -308.470378 
L 436.989286 -308.656693 
L 436.989286 -311.439623 
L 436.989286 -311.439623 
L 431.790528 -311.204464 
L 426.59177 -311.215072 
L 421.393012 -311.283091 
L 416.194255 -311.298417 
L 410.995497 -311.28227 
L 405.796739 -311.162976 
L 400.597981 -310.834241 
L 395.399224 -310.651167 
L 390.200466 -310.783331 
L 385.001708 -310.929728 
L 379.80295 -310.568613 
L 374.604193 -310.23134 
L 369.405435 -309.896308 
L 364.206677 -309.290472 
L 359.007919 -308.783072 
L 353.809161 -308.160461 
L 348.610404 -307.368499 
L 343.411646 -307.08773 
L 338.212888 -306.892426 
L 333.01413 -306.150159 
L 327.815373 -305.780037 
L 322.616615 -304.717166 
L 317.417857 -303.681858 
L 312.219099 -302.395583 
L 307.020342 -301.170541 
L 301.821584 -300.16557 
L 296.622826 -299.403925 
L 291.424068 -298.491159 
L 286.225311 -297.570736 
L 281.026553 -295.168097 
L 275.827795 -293.534677 
L 270.629037 -292.479652 
L 265.43028 -290.868748 
L 260.231522 -288.88811 
L 255.032764 -287.362265 
L 249.834006 -284.959634 
L 244.635248 -283.143676 
L 239.436491 -280.977774 
L 234.237733 -278.364251 
L 229.038975 -275.907562 
L 223.840217 -273.675845 
L 218.64146 -271.068934 
L 213.442702 -267.236966 
L 208.243944 -263.320453 
L 203.045186 -259.387388 
L 197.846429 -255.607105 
L 192.647671 -251.611519 
L 187.448913 -246.979365 
L 182.250155 -242.639449 
L 177.051398 -238.402367 
L 171.85264 -232.949361 
L 166.653882 -226.027531 
L 161.455124 -218.945834 
L 156.256366 -211.990685 
L 151.057609 -204.032112 
L 145.858851 -195.670974 
L 140.660093 -185.996548 
L 135.461335 -176.445248 
L 130.262578 -166.134732 
L 125.06382 -156.217553 
L 119.865062 -145.66373 
L 114.666304 -135.68791 
L 109.467547 -124.959668 
L 104.268789 -113.687894 
L 99.070031 -100.949377 
L 93.871273 -88.934501 
L 88.672516 -78.869598 
L 83.473758 -70.762386 
L 78.275 -66.927983 
z
" id="m46beee4a1f"/>
    </defs>
    <g clip-path="url(#p7ccb22e4c1)">
     <use style="fill:#47d200;" x="0" xlink:href="#m46beee4a1f" y="339.573438"/>
    </g>
   </g>
   <g id="matplotlib.axis_1">
    <g id="xtick_1">
     <g id="line2d_1">
      <path clip-path="url(#p7ccb22e4c1)" d="M 78.275 285 
L 78.275 13.2 
" style="fill:none;stroke:#b0b0b0;stroke-linecap:square;stroke-width:0.8;"/>
     </g>
     <g id="line2d_2">
      <defs>
       <path d="M 0 0 
L 0 6 
" id="m712b3dc6c2"/>
      </defs>
      <g>
       <use x="78.275" xlink:href="#m712b3dc6c2" y="285"/>
      </g>
     </g>
     <g id="text_1">
      <!-- 0 -->
      <defs>
       <path d="M 31.78125 66.40625 
Q 24.171875 66.40625 20.328125 58.90625 
Q 16.5 51.421875 16.5 36.375 
Q 16.5 21.390625 20.328125 13.890625 
Q 24.171875 6.390625 31.78125 6.390625 
Q 39.453125 6.390625 43.28125 13.890625 
Q 47.125 21.390625 47.125 36.375 
Q 47.125 51.421875 43.28125 58.90625 
Q 39.453125 66.40625 31.78125 66.40625 
z
M 31.78125 74.21875 
Q 44.046875 74.21875 50.515625 64.515625 
Q 56.984375 54.828125 56.984375 36.375 
Q 56.984375 17.96875 50.515625 8.265625 
Q 44.046875 -1.421875 31.78125 -1.421875 
Q 19.53125 -1.421875 13.0625 8.265625 
Q 6.59375 17.96875 6.59375 36.375 
Q 6.59375 54.828125 13.0625 64.515625 
Q 19.53125 74.21875 31.78125 74.21875 
z
" id="DejaVuSans-30"/>
      </defs>
      <g transform="translate(73.503125 305.897656)scale(0.15 -0.15)">
       <use xlink:href="#DejaVuSans-30"/>
      </g>
     </g>
    </g>
    <g id="xtick_2">
     <g id="line2d_3">
      <path clip-path="url(#p7ccb22e4c1)" d="M 130.262578 285 
L 130.262578 13.2 
" style="fill:none;stroke:#b0b0b0;stroke-linecap:square;stroke-width:0.8;"/>
     </g>
     <g id="line2d_4">
      <g>
       <use x="130.262578" xlink:href="#m712b3dc6c2" y="285"/>
      </g>
     </g>
     <g id="text_2">
      <!-- 1 -->
      <defs>
       <path d="M 12.40625 8.296875 
L 28.515625 8.296875 
L 28.515625 63.921875 
L 10.984375 60.40625 
L 10.984375 69.390625 
L 28.421875 72.90625 
L 38.28125 72.90625 
L 38.28125 8.296875 
L 54.390625 8.296875 
L 54.390625 0 
L 12.40625 0 
z
" id="DejaVuSans-31"/>
      </defs>
      <g transform="translate(125.490703 305.897656)scale(0.15 -0.15)">
       <use xlink:href="#DejaVuSans-31"/>
      </g>
     </g>
    </g>
    <g id="xtick_3">
     <g id="line2d_5">
      <path clip-path="url(#p7ccb22e4c1)" d="M 182.250155 285 
L 182.250155 13.2 
" style="fill:none;stroke:#b0b0b0;stroke-linecap:square;stroke-width:0.8;"/>
     </g>
     <g id="line2d_6">
      <g>
       <use x="182.250155" xlink:href="#m712b3dc6c2" y="285"/>
      </g>
     </g>
     <g id="text_3">
      <!-- 2 -->
      <defs>
       <path d="M 19.1875 8.296875 
L 53.609375 8.296875 
L 53.609375 0 
L 7.328125 0 
L 7.328125 8.296875 
Q 12.9375 14.109375 22.625 23.890625 
Q 32.328125 33.6875 34.8125 36.53125 
Q 39.546875 41.84375 41.421875 45.53125 
Q 43.3125 49.21875 43.3125 52.78125 
Q 43.3125 58.59375 39.234375 62.25 
Q 35.15625 65.921875 28.609375 65.921875 
Q 23.96875 65.921875 18.8125 64.3125 
Q 13.671875 62.703125 7.8125 59.421875 
L 7.8125 69.390625 
Q 13.765625 71.78125 18.9375 73 
Q 24.125 74.21875 28.421875 74.21875 
Q 39.75 74.21875 46.484375 68.546875 
Q 53.21875 62.890625 53.21875 53.421875 
Q 53.21875 48.921875 51.53125 44.890625 
Q 49.859375 40.875 45.40625 35.40625 
Q 44.1875 33.984375 37.640625 27.21875 
Q 31.109375 20.453125 19.1875 8.296875 
z
" id="DejaVuSans-32"/>
      </defs>
      <g transform="translate(177.47828 305.897656)scale(0.15 -0.15)">
       <use xlink:href="#DejaVuSans-32"/>
      </g>
     </g>
    </g>
    <g id="xtick_4">
     <g id="line2d_7">
      <path clip-path="url(#p7ccb22e4c1)" d="M 234.237733 285 
L 234.237733 13.2 
" style="fill:none;stroke:#b0b0b0;stroke-linecap:square;stroke-width:0.8;"/>
     </g>
     <g id="line2d_8">
      <g>
       <use x="234.237733" xlink:href="#m712b3dc6c2" y="285"/>
      </g>
     </g>
     <g id="text_4">
      <!-- 3 -->
      <defs>
       <path d="M 40.578125 39.3125 
Q 47.65625 37.796875 51.625 33 
Q 55.609375 28.21875 55.609375 21.1875 
Q 55.609375 10.40625 48.1875 4.484375 
Q 40.765625 -1.421875 27.09375 -1.421875 
Q 22.515625 -1.421875 17.65625 -0.515625 
Q 12.796875 0.390625 7.625 2.203125 
L 7.625 11.71875 
Q 11.71875 9.328125 16.59375 8.109375 
Q 21.484375 6.890625 26.8125 6.890625 
Q 36.078125 6.890625 40.9375 10.546875 
Q 45.796875 14.203125 45.796875 21.1875 
Q 45.796875 27.640625 41.28125 31.265625 
Q 36.765625 34.90625 28.71875 34.90625 
L 20.21875 34.90625 
L 20.21875 43.015625 
L 29.109375 43.015625 
Q 36.375 43.015625 40.234375 45.921875 
Q 44.09375 48.828125 44.09375 54.296875 
Q 44.09375 59.90625 40.109375 62.90625 
Q 36.140625 65.921875 28.71875 65.921875 
Q 24.65625 65.921875 20.015625 65.03125 
Q 15.375 64.15625 9.8125 62.3125 
L 9.8125 71.09375 
Q 15.4375 72.65625 20.34375 73.4375 
Q 25.25 74.21875 29.59375 74.21875 
Q 40.828125 74.21875 47.359375 69.109375 
Q 53.90625 64.015625 53.90625 55.328125 
Q 53.90625 49.265625 50.4375 45.09375 
Q 46.96875 40.921875 40.578125 39.3125 
z
" id="DejaVuSans-33"/>
      </defs>
      <g transform="translate(229.465858 305.897656)scale(0.15 -0.15)">
       <use xlink:href="#DejaVuSans-33"/>
      </g>
     </g>
    </g>
    <g id="xtick_5">
     <g id="line2d_9">
      <path clip-path="url(#p7ccb22e4c1)" d="M 286.225311 285 
L 286.225311 13.2 
" style="fill:none;stroke:#b0b0b0;stroke-linecap:square;stroke-width:0.8;"/>
     </g>
     <g id="line2d_10">
      <g>
       <use x="286.225311" xlink:href="#m712b3dc6c2" y="285"/>
      </g>
     </g>
     <g id="text_5">
      <!-- 4 -->
      <defs>
       <path d="M 37.796875 64.3125 
L 12.890625 25.390625 
L 37.796875 25.390625 
z
M 35.203125 72.90625 
L 47.609375 72.90625 
L 47.609375 25.390625 
L 58.015625 25.390625 
L 58.015625 17.1875 
L 47.609375 17.1875 
L 47.609375 0 
L 37.796875 0 
L 37.796875 17.1875 
L 4.890625 17.1875 
L 4.890625 26.703125 
z
" id="DejaVuSans-34"/>
      </defs>
      <g transform="translate(281.453436 305.897656)scale(0.15 -0.15)">
       <use xlink:href="#DejaVuSans-34"/>
      </g>
     </g>
    </g>
    <g id="xtick_6">
     <g id="line2d_11">
      <path clip-path="url(#p7ccb22e4c1)" d="M 338.212888 285 
L 338.212888 13.2 
" style="fill:none;stroke:#b0b0b0;stroke-linecap:square;stroke-width:0.8;"/>
     </g>
     <g id="line2d_12">
      <g>
       <use x="338.212888" xlink:href="#m712b3dc6c2" y="285"/>
      </g>
     </g>
     <g id="text_6">
      <!-- 5 -->
      <defs>
       <path d="M 10.796875 72.90625 
L 49.515625 72.90625 
L 49.515625 64.59375 
L 19.828125 64.59375 
L 19.828125 46.734375 
Q 21.96875 47.46875 24.109375 47.828125 
Q 26.265625 48.1875 28.421875 48.1875 
Q 40.625 48.1875 47.75 41.5 
Q 54.890625 34.8125 54.890625 23.390625 
Q 54.890625 11.625 47.5625 5.09375 
Q 40.234375 -1.421875 26.90625 -1.421875 
Q 22.3125 -1.421875 17.546875 -0.640625 
Q 12.796875 0.140625 7.71875 1.703125 
L 7.71875 11.625 
Q 12.109375 9.234375 16.796875 8.0625 
Q 21.484375 6.890625 26.703125 6.890625 
Q 35.15625 6.890625 40.078125 11.328125 
Q 45.015625 15.765625 45.015625 23.390625 
Q 45.015625 31 40.078125 35.4375 
Q 35.15625 39.890625 26.703125 39.890625 
Q 22.75 39.890625 18.8125 39.015625 
Q 14.890625 38.140625 10.796875 36.28125 
z
" id="DejaVuSans-35"/>
      </defs>
      <g transform="translate(333.441013 305.897656)scale(0.15 -0.15)">
       <use xlink:href="#DejaVuSans-35"/>
      </g>
     </g>
    </g>
    <g id="xtick_7">
     <g id="line2d_13">
      <path clip-path="url(#p7ccb22e4c1)" d="M 390.200466 285 
L 390.200466 13.2 
" style="fill:none;stroke:#b0b0b0;stroke-linecap:square;stroke-width:0.8;"/>
     </g>
     <g id="line2d_14">
      <g>
       <use x="390.200466" xlink:href="#m712b3dc6c2" y="285"/>
      </g>
     </g>
     <g id="text_7">
      <!-- 6 -->
      <defs>
       <path d="M 33.015625 40.375 
Q 26.375 40.375 22.484375 35.828125 
Q 18.609375 31.296875 18.609375 23.390625 
Q 18.609375 15.53125 22.484375 10.953125 
Q 26.375 6.390625 33.015625 6.390625 
Q 39.65625 6.390625 43.53125 10.953125 
Q 47.40625 15.53125 47.40625 23.390625 
Q 47.40625 31.296875 43.53125 35.828125 
Q 39.65625 40.375 33.015625 40.375 
z
M 52.59375 71.296875 
L 52.59375 62.3125 
Q 48.875 64.0625 45.09375 64.984375 
Q 41.3125 65.921875 37.59375 65.921875 
Q 27.828125 65.921875 22.671875 59.328125 
Q 17.53125 52.734375 16.796875 39.40625 
Q 19.671875 43.65625 24.015625 45.921875 
Q 28.375 48.1875 33.59375 48.1875 
Q 44.578125 48.1875 50.953125 41.515625 
Q 57.328125 34.859375 57.328125 23.390625 
Q 57.328125 12.15625 50.6875 5.359375 
Q 44.046875 -1.421875 33.015625 -1.421875 
Q 20.359375 -1.421875 13.671875 8.265625 
Q 6.984375 17.96875 6.984375 36.375 
Q 6.984375 53.65625 15.1875 63.9375 
Q 23.390625 74.21875 37.203125 74.21875 
Q 40.921875 74.21875 44.703125 73.484375 
Q 48.484375 72.75 52.59375 71.296875 
z
" id="DejaVuSans-36"/>
      </defs>
      <g transform="translate(385.428591 305.897656)scale(0.15 -0.15)">
       <use xlink:href="#DejaVuSans-36"/>
      </g>
     </g>
    </g>
    <g id="xtick_8">
     <g id="line2d_15">
      <path clip-path="url(#p7ccb22e4c1)" d="M 442.188043 285 
L 442.188043 13.2 
" style="fill:none;stroke:#b0b0b0;stroke-linecap:square;stroke-width:0.8;"/>
     </g>
     <g id="line2d_16">
      <g>
       <use x="442.188043" xlink:href="#m712b3dc6c2" y="285"/>
      </g>
     </g>
     <g id="text_8">
      <!-- 7 -->
      <defs>
       <path d="M 8.203125 72.90625 
L 55.078125 72.90625 
L 55.078125 68.703125 
L 28.609375 0 
L 18.3125 0 
L 43.21875 64.59375 
L 8.203125 64.59375 
z
" id="DejaVuSans-37"/>
      </defs>
      <g transform="translate(437.416168 305.897656)scale(0.15 -0.15)">
       <use xlink:href="#DejaVuSans-37"/>
      </g>
     </g>
    </g>
    <g id="text_9">
     <!-- $t/\tau$ -->
     <defs>
      <path d="M 42.28125 54.6875 
L 40.921875 47.703125 
L 23 47.703125 
L 17.1875 18.015625 
Q 16.890625 16.359375 16.75 15.234375 
Q 16.609375 14.109375 16.609375 13.484375 
Q 16.609375 10.359375 18.484375 8.9375 
Q 20.359375 7.515625 24.515625 7.515625 
L 33.59375 7.515625 
L 32.078125 0 
L 23.484375 0 
Q 15.484375 0 11.546875 3.125 
Q 7.625 6.25 7.625 12.59375 
Q 7.625 13.71875 7.765625 15.0625 
Q 7.90625 16.40625 8.203125 18.015625 
L 14.015625 47.703125 
L 6.390625 47.703125 
L 7.8125 54.6875 
L 15.28125 54.6875 
L 18.3125 70.21875 
L 27.296875 70.21875 
L 24.3125 54.6875 
z
" id="DejaVuSans-Oblique-74"/>
      <path d="M 25.390625 72.90625 
L 33.6875 72.90625 
L 8.296875 -9.28125 
L 0 -9.28125 
z
" id="DejaVuSans-2f"/>
      <path d="M 32.859375 9.96875 
Q 34.1875 7.625 39.453125 7.625 
L 43.75 7.625 
L 42.28125 0 
L 36.921875 0 
Q 28.125 0 25 4.6875 
Q 21.921875 9.46875 23.96875 19.828125 
L 29 45.703125 
L 8.453125 45.703125 
L 10.203125 54.6875 
L 60.640625 54.6875 
L 58.890625 45.703125 
L 38.1875 45.703125 
L 33.015625 19.28125 
Q 31.640625 12.203125 32.859375 9.96875 
z
" id="DejaVuSans-Oblique-3c4"/>
     </defs>
     <g transform="translate(246.831522 328.214063)scale(0.2 -0.2)">
      <use transform="translate(0 0.09375)" xlink:href="#DejaVuSans-Oblique-74"/>
      <use transform="translate(39.208984 0.09375)" xlink:href="#DejaVuSans-2f"/>
      <use transform="translate(72.900391 0.09375)" xlink:href="#DejaVuSans-Oblique-3c4"/>
     </g>
    </g>
   </g>
   <g id="matplotlib.axis_2">
    <g id="ytick_1">
     <g id="line2d_17">
      <path clip-path="url(#p7ccb22e4c1)" d="M 78.275 272.645455 
L 442.188043 272.645455 
" style="fill:none;stroke:#b0b0b0;stroke-linecap:square;stroke-width:0.8;"/>
     </g>
     <g id="line2d_18">
      <defs>
       <path d="M 0 0 
L -6 0 
" id="m7fc8fd5aac"/>
      </defs>
      <g>
       <use x="78.275" xlink:href="#m7fc8fd5aac" y="272.645455"/>
      </g>
     </g>
     <g id="text_10">
      <!-- 500 -->
      <g transform="translate(40.14375 278.344283)scale(0.15 -0.15)">
       <use xlink:href="#DejaVuSans-35"/>
       <use x="63.623047" xlink:href="#DejaVuSans-30"/>
       <use x="127.246094" xlink:href="#DejaVuSans-30"/>
      </g>
     </g>
    </g>
    <g id="ytick_2">
     <g id="line2d_19">
      <path clip-path="url(#p7ccb22e4c1)" d="M 78.275 223.357019 
L 442.188043 223.357019 
" style="fill:none;stroke:#b0b0b0;stroke-linecap:square;stroke-width:0.8;"/>
     </g>
     <g id="line2d_20">
      <g>
       <use x="78.275" xlink:href="#m7fc8fd5aac" y="223.357019"/>
      </g>
     </g>
     <g id="text_11">
      <!-- 600 -->
      <g transform="translate(40.14375 229.055847)scale(0.15 -0.15)">
       <use xlink:href="#DejaVuSans-36"/>
       <use x="63.623047" xlink:href="#DejaVuSans-30"/>
       <use x="127.246094" xlink:href="#DejaVuSans-30"/>
      </g>
     </g>
    </g>
    <g id="ytick_3">
     <g id="line2d_21">
      <path clip-path="url(#p7ccb22e4c1)" d="M 78.275 174.068583 
L 442.188043 174.068583 
" style="fill:none;stroke:#b0b0b0;stroke-linecap:square;stroke-width:0.8;"/>
     </g>
     <g id="line2d_22">
      <g>
       <use x="78.275" xlink:href="#m7fc8fd5aac" y="174.068583"/>
      </g>
     </g>
     <g id="text_12">
      <!-- 700 -->
      <g transform="translate(40.14375 179.767411)scale(0.15 -0.15)">
       <use xlink:href="#DejaVuSans-37"/>
       <use x="63.623047" xlink:href="#DejaVuSans-30"/>
       <use x="127.246094" xlink:href="#DejaVuSans-30"/>
      </g>
     </g>
    </g>
    <g id="ytick_4">
     <g id="line2d_23">
      <path clip-path="url(#p7ccb22e4c1)" d="M 78.275 124.780148 
L 442.188043 124.780148 
" style="fill:none;stroke:#b0b0b0;stroke-linecap:square;stroke-width:0.8;"/>
     </g>
     <g id="line2d_24">
      <g>
       <use x="78.275" xlink:href="#m7fc8fd5aac" y="124.780148"/>
      </g>
     </g>
     <g id="text_13">
      <!-- 800 -->
      <defs>
       <path d="M 31.78125 34.625 
Q 24.75 34.625 20.71875 30.859375 
Q 16.703125 27.09375 16.703125 20.515625 
Q 16.703125 13.921875 20.71875 10.15625 
Q 24.75 6.390625 31.78125 6.390625 
Q 38.8125 6.390625 42.859375 10.171875 
Q 46.921875 13.96875 46.921875 20.515625 
Q 46.921875 27.09375 42.890625 30.859375 
Q 38.875 34.625 31.78125 34.625 
z
M 21.921875 38.8125 
Q 15.578125 40.375 12.03125 44.71875 
Q 8.5 49.078125 8.5 55.328125 
Q 8.5 64.0625 14.71875 69.140625 
Q 20.953125 74.21875 31.78125 74.21875 
Q 42.671875 74.21875 48.875 69.140625 
Q 55.078125 64.0625 55.078125 55.328125 
Q 55.078125 49.078125 51.53125 44.71875 
Q 48 40.375 41.703125 38.8125 
Q 48.828125 37.15625 52.796875 32.3125 
Q 56.78125 27.484375 56.78125 20.515625 
Q 56.78125 9.90625 50.3125 4.234375 
Q 43.84375 -1.421875 31.78125 -1.421875 
Q 19.734375 -1.421875 13.25 4.234375 
Q 6.78125 9.90625 6.78125 20.515625 
Q 6.78125 27.484375 10.78125 32.3125 
Q 14.796875 37.15625 21.921875 38.8125 
z
M 18.3125 54.390625 
Q 18.3125 48.734375 21.84375 45.5625 
Q 25.390625 42.390625 31.78125 42.390625 
Q 38.140625 42.390625 41.71875 45.5625 
Q 45.3125 48.734375 45.3125 54.390625 
Q 45.3125 60.0625 41.71875 63.234375 
Q 38.140625 66.40625 31.78125 66.40625 
Q 25.390625 66.40625 21.84375 63.234375 
Q 18.3125 60.0625 18.3125 54.390625 
z
" id="DejaVuSans-38"/>
      </defs>
      <g transform="translate(40.14375 130.478976)scale(0.15 -0.15)">
       <use xlink:href="#DejaVuSans-38"/>
       <use x="63.623047" xlink:href="#DejaVuSans-30"/>
       <use x="127.246094" xlink:href="#DejaVuSans-30"/>
      </g>
     </g>
    </g>
    <g id="ytick_5">
     <g id="line2d_25">
      <path clip-path="url(#p7ccb22e4c1)" d="M 78.275 75.491712 
L 442.188043 75.491712 
" style="fill:none;stroke:#b0b0b0;stroke-linecap:square;stroke-width:0.8;"/>
     </g>
     <g id="line2d_26">
      <g>
       <use x="78.275" xlink:href="#m7fc8fd5aac" y="75.491712"/>
      </g>
     </g>
     <g id="text_14">
      <!-- 900 -->
      <defs>
       <path d="M 10.984375 1.515625 
L 10.984375 10.5 
Q 14.703125 8.734375 18.5 7.8125 
Q 22.3125 6.890625 25.984375 6.890625 
Q 35.75 6.890625 40.890625 13.453125 
Q 46.046875 20.015625 46.78125 33.40625 
Q 43.953125 29.203125 39.59375 26.953125 
Q 35.25 24.703125 29.984375 24.703125 
Q 19.046875 24.703125 12.671875 31.3125 
Q 6.296875 37.9375 6.296875 49.421875 
Q 6.296875 60.640625 12.9375 67.421875 
Q 19.578125 74.21875 30.609375 74.21875 
Q 43.265625 74.21875 49.921875 64.515625 
Q 56.59375 54.828125 56.59375 36.375 
Q 56.59375 19.140625 48.40625 8.859375 
Q 40.234375 -1.421875 26.421875 -1.421875 
Q 22.703125 -1.421875 18.890625 -0.6875 
Q 15.09375 0.046875 10.984375 1.515625 
z
M 30.609375 32.421875 
Q 37.25 32.421875 41.125 36.953125 
Q 45.015625 41.5 45.015625 49.421875 
Q 45.015625 57.28125 41.125 61.84375 
Q 37.25 66.40625 30.609375 66.40625 
Q 23.96875 66.40625 20.09375 61.84375 
Q 16.21875 57.28125 16.21875 49.421875 
Q 16.21875 41.5 20.09375 36.953125 
Q 23.96875 32.421875 30.609375 32.421875 
z
" id="DejaVuSans-39"/>
      </defs>
      <g transform="translate(40.14375 81.19054)scale(0.15 -0.15)">
       <use xlink:href="#DejaVuSans-39"/>
       <use x="63.623047" xlink:href="#DejaVuSans-30"/>
       <use x="127.246094" xlink:href="#DejaVuSans-30"/>
      </g>
     </g>
    </g>
    <g id="ytick_6">
     <g id="line2d_27">
      <path clip-path="url(#p7ccb22e4c1)" d="M 78.275 26.203276 
L 442.188043 26.203276 
" style="fill:none;stroke:#b0b0b0;stroke-linecap:square;stroke-width:0.8;"/>
     </g>
     <g id="line2d_28">
      <g>
       <use x="78.275" xlink:href="#m7fc8fd5aac" y="26.203276"/>
      </g>
     </g>
     <g id="text_15">
      <!-- 1000 -->
      <g transform="translate(30.6 31.902105)scale(0.15 -0.15)">
       <use xlink:href="#DejaVuSans-31"/>
       <use x="63.623047" xlink:href="#DejaVuSans-30"/>
       <use x="127.246094" xlink:href="#DejaVuSans-30"/>
       <use x="190.869141" xlink:href="#DejaVuSans-30"/>
      </g>
     </g>
    </g>
    <g id="text_16">
     <!-- $\langle p\rangle$ -->
     <defs>
      <path d="M 8.9375 31.34375 
L 22.703125 75.875 
L 31 75.875 
L 17.234375 31.34375 
L 31 -13.1875 
L 22.703125 -13.1875 
z
" id="DejaVuSans-27e8"/>
      <path d="M 49.609375 33.6875 
Q 49.609375 40.875 46.484375 44.671875 
Q 43.359375 48.484375 37.5 48.484375 
Q 33.5 48.484375 29.859375 46.4375 
Q 26.21875 44.390625 23.390625 40.484375 
Q 20.609375 36.625 18.9375 31.15625 
Q 17.28125 25.6875 17.28125 20.3125 
Q 17.28125 13.484375 20.40625 9.796875 
Q 23.53125 6.109375 29.296875 6.109375 
Q 33.546875 6.109375 37.1875 8.109375 
Q 40.828125 10.109375 43.40625 13.921875 
Q 46.1875 17.921875 47.890625 23.34375 
Q 49.609375 28.765625 49.609375 33.6875 
z
M 21.78125 46.390625 
Q 25.390625 51.125 30.296875 53.5625 
Q 35.203125 56 41.21875 56 
Q 49.609375 56 54.25 50.5 
Q 58.890625 45.015625 58.890625 35.109375 
Q 58.890625 27 56 19.65625 
Q 53.125 12.3125 47.703125 6.5 
Q 44.09375 2.640625 39.546875 0.609375 
Q 35.015625 -1.421875 29.984375 -1.421875 
Q 24.171875 -1.421875 20.21875 1 
Q 16.265625 3.421875 14.3125 8.203125 
L 8.6875 -20.796875 
L -0.296875 -20.796875 
L 14.40625 54.6875 
L 23.390625 54.6875 
z
" id="DejaVuSans-Oblique-70"/>
      <path d="M 30.078125 31.34375 
L 16.3125 -13.1875 
L 8.015625 -13.1875 
L 21.78125 31.34375 
L 8.015625 75.875 
L 16.3125 75.875 
z
" id="DejaVuSans-27e9"/>
     </defs>
     <g transform="translate(22.4 163.3)rotate(-90)scale(0.2 -0.2)">
      <use transform="translate(0 0.125)" xlink:href="#DejaVuSans-27e8"/>
      <use transform="translate(39.013672 0.125)" xlink:href="#DejaVuSans-Oblique-70"/>
      <use transform="translate(102.490234 0.125)" xlink:href="#DejaVuSans-27e9"/>
     </g>
    </g>
   </g>
   <g id="line2d_29">
    <path clip-path="url(#p7ccb22e4c1)" d="M 78.275 272.645455 
L 83.473758 269.775278 
L 88.672516 262.63062 
L 93.871273 252.98049 
L 99.070031 242.034258 
L 104.268789 230.426038 
L 109.467547 218.81221 
L 114.666304 207.308261 
L 119.865062 196.052654 
L 125.06382 185.220041 
L 130.262578 174.878821 
L 135.461335 165.15072 
L 140.660093 156.173929 
L 145.858851 147.763743 
L 151.057609 139.769824 
L 156.256366 132.219521 
L 161.455124 125.055463 
L 166.653882 118.465362 
L 171.85264 112.33653 
L 177.051398 106.890463 
L 182.250155 101.762019 
L 187.448913 96.794923 
L 192.647671 92.29725 
L 197.846429 88.033614 
L 203.045186 84.036193 
L 208.243944 80.205439 
L 213.442702 76.679321 
L 218.64146 73.385192 
L 223.840217 70.216632 
L 229.038975 67.329519 
L 234.237733 64.495076 
L 239.436491 61.863125 
L 244.635248 59.537091 
L 249.834006 57.219518 
L 255.032764 55.010915 
L 260.231522 52.983605 
L 265.43028 50.940092 
L 270.629037 49.094511 
L 275.827795 47.338844 
L 281.026553 45.809459 
L 286.225311 44.453393 
L 291.424068 43.005806 
L 296.622826 41.62398 
L 301.821584 40.082361 
L 307.020342 38.746648 
L 312.219099 37.663782 
L 317.417857 36.82754 
L 322.616615 36.068748 
L 327.815373 35.291032 
L 333.01413 34.689036 
L 338.212888 34.223834 
L 343.411646 33.845468 
L 348.610404 33.66207 
L 353.809161 33.420203 
L 359.007919 33.127816 
L 364.206677 32.983808 
L 369.405435 32.830371 
L 374.604193 32.452328 
L 379.80295 31.918938 
L 385.001708 31.503121 
L 390.200466 30.962763 
L 395.399224 30.348611 
L 400.597981 29.838164 
L 405.796739 29.289914 
L 410.995497 28.831705 
L 416.194255 28.371762 
L 421.393012 27.896816 
L 426.59177 27.658255 
L 431.790528 27.467543 
L 436.989286 27.410559 
" style="fill:none;stroke:#1f77b4;stroke-linecap:square;stroke-width:3;"/>
   </g>
   <g id="line2d_30">
    <path clip-path="url(#p7ccb22e4c1)" d="M 78.275 272.645455 
L 83.473758 269.510777 
L 88.672516 262.378056 
L 93.871273 253.219106 
L 99.070031 242.003874 
L 104.268789 230.020273 
L 109.467547 218.011683 
L 114.666304 208.22981 
L 119.865062 197.614933 
L 125.06382 186.891891 
L 130.262578 176.390805 
L 135.461335 168.56061 
L 140.660093 158.933765 
L 145.858851 149.19082 
L 151.057609 141.244989 
L 156.256366 133.696664 
L 161.455124 125.605831 
L 166.653882 119.4148 
L 171.85264 112.846891 
L 177.051398 108.353585 
L 182.250155 103.440391 
L 187.448913 99.764049 
L 192.647671 94.727706 
L 197.846429 90.247112 
L 203.045186 85.595689 
L 208.243944 82.59705 
L 213.442702 78.726864 
L 218.64146 76.275759 
L 223.840217 72.160705 
L 229.038975 70.222037 
L 234.237733 66.758768 
L 239.436491 63.550036 
L 244.635248 60.199345 
L 249.834006 58.785036 
L 255.032764 56.160879 
L 260.231522 54.458865 
L 265.43028 52.861738 
L 270.629037 51.576519 
L 275.827795 49.970838 
L 281.026553 48.19368 
L 286.225311 45.388471 
L 291.424068 44.15847 
L 296.622826 43.498231 
L 301.821584 42.314566 
L 307.020342 41.278202 
L 312.219099 40.255564 
L 317.417857 39.279505 
L 322.616615 38.013444 
L 327.815373 36.51742 
L 333.01413 35.994653 
L 338.212888 35.28974 
L 343.411646 34.925089 
L 348.610404 34.383827 
L 353.809161 33.664078 
L 359.007919 32.99365 
L 364.206677 32.387516 
L 369.405435 31.878947 
L 374.604193 31.378086 
L 379.80295 30.835874 
L 385.001708 30.671488 
L 390.200466 30.640387 
L 395.399224 30.709401 
L 400.597981 30.362887 
L 405.796739 30.007716 
L 410.995497 29.780508 
L 416.194255 29.743589 
L 421.393012 29.646151 
L 426.59177 29.777169 
L 431.790528 29.743251 
L 436.989286 29.495876 
" style="fill:none;stroke:#ff7f0e;stroke-linecap:square;stroke-width:3;"/>
   </g>
   <g id="line2d_31">
    <path clip-path="url(#p7ccb22e4c1)" d="M 78.275 272.645455 
L 83.473758 269.500439 
L 88.672516 262.356676 
L 93.871273 253.176466 
L 99.070031 241.918716 
L 104.268789 230.041631 
L 109.467547 219.359261 
L 114.666304 209.131584 
L 119.865062 199.276184 
L 125.06382 189.139996 
L 130.262578 178.903054 
L 135.461335 169.044129 
L 140.660093 159.517466 
L 145.858851 150.171723 
L 151.057609 141.846642 
L 156.256366 134.023205 
L 161.455124 126.899874 
L 166.653882 119.69645 
L 171.85264 113.164231 
L 177.051398 107.496375 
L 182.250155 102.856167 
L 187.448913 98.433234 
L 192.647671 93.800081 
L 197.846429 89.730933 
L 203.045186 85.866368 
L 208.243944 81.773251 
L 213.442702 78.243818 
L 218.64146 74.284999 
L 223.840217 71.033194 
L 229.038975 68.679251 
L 234.237733 65.96235 
L 239.436491 63.239265 
L 244.635248 60.811422 
L 249.834006 58.960625 
L 255.032764 56.465735 
L 260.231522 54.608828 
L 265.43028 52.606161 
L 270.629037 51.17914 
L 275.827795 49.708702 
L 281.026553 48.2162 
L 286.225311 45.520978 
L 291.424068 44.306833 
L 296.622826 43.423654 
L 301.821584 42.327054 
L 307.020342 41.302125 
L 312.219099 40.215029 
L 317.417857 38.948346 
L 322.616615 37.817043 
L 327.815373 36.507495 
L 333.01413 36.011502 
L 338.212888 35.245098 
L 343.411646 34.855042 
L 348.610404 34.460456 
L 353.809161 33.633811 
L 359.007919 33.02034 
L 364.206677 32.378354 
L 369.405435 31.896268 
L 374.604193 31.418799 
L 379.80295 30.953968 
L 385.001708 30.561765 
L 390.200466 30.583868 
L 395.399224 30.63289 
L 400.597981 30.299999 
L 405.796739 29.967484 
L 410.995497 29.745192 
L 416.194255 29.724112 
L 421.393012 29.652444 
L 426.59177 29.755693 
L 431.790528 29.736017 
L 436.989286 29.52528 
" style="fill:none;stroke:#2ca02c;stroke-linecap:square;stroke-width:3;"/>
   </g>
   <g id="patch_3">
    <path d="M 78.275 285 
L 78.275 13.2 
" style="fill:none;stroke:#000000;stroke-linecap:square;stroke-linejoin:miter;stroke-width:2;"/>
   </g>
   <g id="patch_4">
    <path d="M 442.188043 285 
L 442.188043 13.2 
" style="fill:none;"/>
   </g>
   <g id="patch_5">
    <path d="M 78.275 285 
L 442.188043 285 
" style="fill:none;stroke:#000000;stroke-linecap:square;stroke-linejoin:miter;stroke-width:2;"/>
   </g>
   <g id="patch_6">
    <path d="M 78.275 13.2 
L 442.188043 13.2 
" style="fill:none;"/>
   </g>
   <g id="legend_1">
    <g id="patch_7">
     <path d="M 221.6482 277.5 
L 431.688043 277.5 
Q 434.688043 277.5 434.688043 274.5 
L 434.688043 209.948438 
Q 434.688043 206.948438 431.688043 206.948438 
L 221.6482 206.948438 
Q 218.6482 206.948438 218.6482 209.948438 
L 218.6482 274.5 
Q 218.6482 277.5 221.6482 277.5 
z
" style="fill:#ffffff;opacity:0.8;stroke:#cccccc;stroke-linejoin:miter;"/>
    </g>
    <g id="line2d_32">
     <path d="M 224.6482 219.096094 
L 254.6482 219.096094 
" style="fill:none;stroke:#1f77b4;stroke-linecap:square;stroke-width:3;"/>
    </g>
    <g id="line2d_33"/>
    <g id="text_17">
     <!-- Single Lineage -->
     <defs>
      <path d="M 53.515625 70.515625 
L 53.515625 60.890625 
Q 47.90625 63.578125 42.921875 64.890625 
Q 37.9375 66.21875 33.296875 66.21875 
Q 25.25 66.21875 20.875 63.09375 
Q 16.5 59.96875 16.5 54.203125 
Q 16.5 49.359375 19.40625 46.890625 
Q 22.3125 44.4375 30.421875 42.921875 
L 36.375 41.703125 
Q 47.40625 39.59375 52.65625 34.296875 
Q 57.90625 29 57.90625 20.125 
Q 57.90625 9.515625 50.796875 4.046875 
Q 43.703125 -1.421875 29.984375 -1.421875 
Q 24.8125 -1.421875 18.96875 -0.25 
Q 13.140625 0.921875 6.890625 3.21875 
L 6.890625 13.375 
Q 12.890625 10.015625 18.65625 8.296875 
Q 24.421875 6.59375 29.984375 6.59375 
Q 38.421875 6.59375 43.015625 9.90625 
Q 47.609375 13.234375 47.609375 19.390625 
Q 47.609375 24.75 44.3125 27.78125 
Q 41.015625 30.8125 33.5 32.328125 
L 27.484375 33.5 
Q 16.453125 35.6875 11.515625 40.375 
Q 6.59375 45.0625 6.59375 53.421875 
Q 6.59375 63.09375 13.40625 68.65625 
Q 20.21875 74.21875 32.171875 74.21875 
Q 37.3125 74.21875 42.625 73.28125 
Q 47.953125 72.359375 53.515625 70.515625 
z
" id="DejaVuSans-53"/>
      <path d="M 9.421875 54.6875 
L 18.40625 54.6875 
L 18.40625 0 
L 9.421875 0 
z
M 9.421875 75.984375 
L 18.40625 75.984375 
L 18.40625 64.59375 
L 9.421875 64.59375 
z
" id="DejaVuSans-69"/>
      <path d="M 54.890625 33.015625 
L 54.890625 0 
L 45.90625 0 
L 45.90625 32.71875 
Q 45.90625 40.484375 42.875 44.328125 
Q 39.84375 48.1875 33.796875 48.1875 
Q 26.515625 48.1875 22.3125 43.546875 
Q 18.109375 38.921875 18.109375 30.90625 
L 18.109375 0 
L 9.078125 0 
L 9.078125 54.6875 
L 18.109375 54.6875 
L 18.109375 46.1875 
Q 21.34375 51.125 25.703125 53.5625 
Q 30.078125 56 35.796875 56 
Q 45.21875 56 50.046875 50.171875 
Q 54.890625 44.34375 54.890625 33.015625 
z
" id="DejaVuSans-6e"/>
      <path d="M 45.40625 27.984375 
Q 45.40625 37.75 41.375 43.109375 
Q 37.359375 48.484375 30.078125 48.484375 
Q 22.859375 48.484375 18.828125 43.109375 
Q 14.796875 37.75 14.796875 27.984375 
Q 14.796875 18.265625 18.828125 12.890625 
Q 22.859375 7.515625 30.078125 7.515625 
Q 37.359375 7.515625 41.375 12.890625 
Q 45.40625 18.265625 45.40625 27.984375 
z
M 54.390625 6.78125 
Q 54.390625 -7.171875 48.1875 -13.984375 
Q 42 -20.796875 29.203125 -20.796875 
Q 24.46875 -20.796875 20.265625 -20.09375 
Q 16.0625 -19.390625 12.109375 -17.921875 
L 12.109375 -9.1875 
Q 16.0625 -11.328125 19.921875 -12.34375 
Q 23.78125 -13.375 27.78125 -13.375 
Q 36.625 -13.375 41.015625 -8.765625 
Q 45.40625 -4.15625 45.40625 5.171875 
L 45.40625 9.625 
Q 42.625 4.78125 38.28125 2.390625 
Q 33.9375 0 27.875 0 
Q 17.828125 0 11.671875 7.65625 
Q 5.515625 15.328125 5.515625 27.984375 
Q 5.515625 40.671875 11.671875 48.328125 
Q 17.828125 56 27.875 56 
Q 33.9375 56 38.28125 53.609375 
Q 42.625 51.21875 45.40625 46.390625 
L 45.40625 54.6875 
L 54.390625 54.6875 
z
" id="DejaVuSans-67"/>
      <path d="M 9.421875 75.984375 
L 18.40625 75.984375 
L 18.40625 0 
L 9.421875 0 
z
" id="DejaVuSans-6c"/>
      <path d="M 56.203125 29.59375 
L 56.203125 25.203125 
L 14.890625 25.203125 
Q 15.484375 15.921875 20.484375 11.0625 
Q 25.484375 6.203125 34.421875 6.203125 
Q 39.59375 6.203125 44.453125 7.46875 
Q 49.3125 8.734375 54.109375 11.28125 
L 54.109375 2.78125 
Q 49.265625 0.734375 44.1875 -0.34375 
Q 39.109375 -1.421875 33.890625 -1.421875 
Q 20.796875 -1.421875 13.15625 6.1875 
Q 5.515625 13.8125 5.515625 26.8125 
Q 5.515625 40.234375 12.765625 48.109375 
Q 20.015625 56 32.328125 56 
Q 43.359375 56 49.78125 48.890625 
Q 56.203125 41.796875 56.203125 29.59375 
z
M 47.21875 32.234375 
Q 47.125 39.59375 43.09375 43.984375 
Q 39.0625 48.390625 32.421875 48.390625 
Q 24.90625 48.390625 20.390625 44.140625 
Q 15.875 39.890625 15.1875 32.171875 
z
" id="DejaVuSans-65"/>
      <path id="DejaVuSans-20"/>
      <path d="M 9.8125 72.90625 
L 19.671875 72.90625 
L 19.671875 8.296875 
L 55.171875 8.296875 
L 55.171875 0 
L 9.8125 0 
z
" id="DejaVuSans-4c"/>
      <path d="M 34.28125 27.484375 
Q 23.390625 27.484375 19.1875 25 
Q 14.984375 22.515625 14.984375 16.5 
Q 14.984375 11.71875 18.140625 8.90625 
Q 21.296875 6.109375 26.703125 6.109375 
Q 34.1875 6.109375 38.703125 11.40625 
Q 43.21875 16.703125 43.21875 25.484375 
L 43.21875 27.484375 
z
M 52.203125 31.203125 
L 52.203125 0 
L 43.21875 0 
L 43.21875 8.296875 
Q 40.140625 3.328125 35.546875 0.953125 
Q 30.953125 -1.421875 24.3125 -1.421875 
Q 15.921875 -1.421875 10.953125 3.296875 
Q 6 8.015625 6 15.921875 
Q 6 25.140625 12.171875 29.828125 
Q 18.359375 34.515625 30.609375 34.515625 
L 43.21875 34.515625 
L 43.21875 35.40625 
Q 43.21875 41.609375 39.140625 45 
Q 35.0625 48.390625 27.6875 48.390625 
Q 23 48.390625 18.546875 47.265625 
Q 14.109375 46.140625 10.015625 43.890625 
L 10.015625 52.203125 
Q 14.9375 54.109375 19.578125 55.046875 
Q 24.21875 56 28.609375 56 
Q 40.484375 56 46.34375 49.84375 
Q 52.203125 43.703125 52.203125 31.203125 
z
" id="DejaVuSans-61"/>
     </defs>
     <g transform="translate(266.6482 224.346094)scale(0.15 -0.15)">
      <use xlink:href="#DejaVuSans-53"/>
      <use x="63.476562" xlink:href="#DejaVuSans-69"/>
      <use x="91.259766" xlink:href="#DejaVuSans-6e"/>
      <use x="154.638672" xlink:href="#DejaVuSans-67"/>
      <use x="218.115234" xlink:href="#DejaVuSans-6c"/>
      <use x="245.898438" xlink:href="#DejaVuSans-65"/>
      <use x="307.421875" xlink:href="#DejaVuSans-20"/>
      <use x="339.208984" xlink:href="#DejaVuSans-4c"/>
      <use x="394.921875" xlink:href="#DejaVuSans-69"/>
      <use x="422.705078" xlink:href="#DejaVuSans-6e"/>
      <use x="486.083984" xlink:href="#DejaVuSans-65"/>
      <use x="547.607422" xlink:href="#DejaVuSans-61"/>
      <use x="608.886719" xlink:href="#DejaVuSans-67"/>
      <use x="672.363281" xlink:href="#DejaVuSans-65"/>
     </g>
    </g>
    <g id="line2d_34">
     <path d="M 224.6482 241.113281 
L 254.6482 241.113281 
" style="fill:none;stroke:#ff7f0e;stroke-linecap:square;stroke-width:3;"/>
    </g>
    <g id="line2d_35"/>
    <g id="text_18">
     <!-- Population Snapshots -->
     <defs>
      <path d="M 19.671875 64.796875 
L 19.671875 37.40625 
L 32.078125 37.40625 
Q 38.96875 37.40625 42.71875 40.96875 
Q 46.484375 44.53125 46.484375 51.125 
Q 46.484375 57.671875 42.71875 61.234375 
Q 38.96875 64.796875 32.078125 64.796875 
z
M 9.8125 72.90625 
L 32.078125 72.90625 
Q 44.34375 72.90625 50.609375 67.359375 
Q 56.890625 61.8125 56.890625 51.125 
Q 56.890625 40.328125 50.609375 34.8125 
Q 44.34375 29.296875 32.078125 29.296875 
L 19.671875 29.296875 
L 19.671875 0 
L 9.8125 0 
z
" id="DejaVuSans-50"/>
      <path d="M 30.609375 48.390625 
Q 23.390625 48.390625 19.1875 42.75 
Q 14.984375 37.109375 14.984375 27.296875 
Q 14.984375 17.484375 19.15625 11.84375 
Q 23.34375 6.203125 30.609375 6.203125 
Q 37.796875 6.203125 41.984375 11.859375 
Q 46.1875 17.53125 46.1875 27.296875 
Q 46.1875 37.015625 41.984375 42.703125 
Q 37.796875 48.390625 30.609375 48.390625 
z
M 30.609375 56 
Q 42.328125 56 49.015625 48.375 
Q 55.71875 40.765625 55.71875 27.296875 
Q 55.71875 13.875 49.015625 6.21875 
Q 42.328125 -1.421875 30.609375 -1.421875 
Q 18.84375 -1.421875 12.171875 6.21875 
Q 5.515625 13.875 5.515625 27.296875 
Q 5.515625 40.765625 12.171875 48.375 
Q 18.84375 56 30.609375 56 
z
" id="DejaVuSans-6f"/>
      <path d="M 18.109375 8.203125 
L 18.109375 -20.796875 
L 9.078125 -20.796875 
L 9.078125 54.6875 
L 18.109375 54.6875 
L 18.109375 46.390625 
Q 20.953125 51.265625 25.265625 53.625 
Q 29.59375 56 35.59375 56 
Q 45.5625 56 51.78125 48.09375 
Q 58.015625 40.1875 58.015625 27.296875 
Q 58.015625 14.40625 51.78125 6.484375 
Q 45.5625 -1.421875 35.59375 -1.421875 
Q 29.59375 -1.421875 25.265625 0.953125 
Q 20.953125 3.328125 18.109375 8.203125 
z
M 48.6875 27.296875 
Q 48.6875 37.203125 44.609375 42.84375 
Q 40.53125 48.484375 33.40625 48.484375 
Q 26.265625 48.484375 22.1875 42.84375 
Q 18.109375 37.203125 18.109375 27.296875 
Q 18.109375 17.390625 22.1875 11.75 
Q 26.265625 6.109375 33.40625 6.109375 
Q 40.53125 6.109375 44.609375 11.75 
Q 48.6875 17.390625 48.6875 27.296875 
z
" id="DejaVuSans-70"/>
      <path d="M 8.5 21.578125 
L 8.5 54.6875 
L 17.484375 54.6875 
L 17.484375 21.921875 
Q 17.484375 14.15625 20.5 10.265625 
Q 23.53125 6.390625 29.59375 6.390625 
Q 36.859375 6.390625 41.078125 11.03125 
Q 45.3125 15.671875 45.3125 23.6875 
L 45.3125 54.6875 
L 54.296875 54.6875 
L 54.296875 0 
L 45.3125 0 
L 45.3125 8.40625 
Q 42.046875 3.421875 37.71875 1 
Q 33.40625 -1.421875 27.6875 -1.421875 
Q 18.265625 -1.421875 13.375 4.4375 
Q 8.5 10.296875 8.5 21.578125 
z
M 31.109375 56 
z
" id="DejaVuSans-75"/>
      <path d="M 18.3125 70.21875 
L 18.3125 54.6875 
L 36.8125 54.6875 
L 36.8125 47.703125 
L 18.3125 47.703125 
L 18.3125 18.015625 
Q 18.3125 11.328125 20.140625 9.421875 
Q 21.96875 7.515625 27.59375 7.515625 
L 36.8125 7.515625 
L 36.8125 0 
L 27.59375 0 
Q 17.1875 0 13.234375 3.875 
Q 9.28125 7.765625 9.28125 18.015625 
L 9.28125 47.703125 
L 2.6875 47.703125 
L 2.6875 54.6875 
L 9.28125 54.6875 
L 9.28125 70.21875 
z
" id="DejaVuSans-74"/>
      <path d="M 44.28125 53.078125 
L 44.28125 44.578125 
Q 40.484375 46.53125 36.375 47.5 
Q 32.28125 48.484375 27.875 48.484375 
Q 21.1875 48.484375 17.84375 46.4375 
Q 14.5 44.390625 14.5 40.28125 
Q 14.5 37.15625 16.890625 35.375 
Q 19.28125 33.59375 26.515625 31.984375 
L 29.59375 31.296875 
Q 39.15625 29.25 43.1875 25.515625 
Q 47.21875 21.78125 47.21875 15.09375 
Q 47.21875 7.46875 41.1875 3.015625 
Q 35.15625 -1.421875 24.609375 -1.421875 
Q 20.21875 -1.421875 15.453125 -0.5625 
Q 10.6875 0.296875 5.421875 2 
L 5.421875 11.28125 
Q 10.40625 8.6875 15.234375 7.390625 
Q 20.0625 6.109375 24.8125 6.109375 
Q 31.15625 6.109375 34.5625 8.28125 
Q 37.984375 10.453125 37.984375 14.40625 
Q 37.984375 18.0625 35.515625 20.015625 
Q 33.0625 21.96875 24.703125 23.78125 
L 21.578125 24.515625 
Q 13.234375 26.265625 9.515625 29.90625 
Q 5.8125 33.546875 5.8125 39.890625 
Q 5.8125 47.609375 11.28125 51.796875 
Q 16.75 56 26.8125 56 
Q 31.78125 56 36.171875 55.265625 
Q 40.578125 54.546875 44.28125 53.078125 
z
" id="DejaVuSans-73"/>
      <path d="M 54.890625 33.015625 
L 54.890625 0 
L 45.90625 0 
L 45.90625 32.71875 
Q 45.90625 40.484375 42.875 44.328125 
Q 39.84375 48.1875 33.796875 48.1875 
Q 26.515625 48.1875 22.3125 43.546875 
Q 18.109375 38.921875 18.109375 30.90625 
L 18.109375 0 
L 9.078125 0 
L 9.078125 75.984375 
L 18.109375 75.984375 
L 18.109375 46.1875 
Q 21.34375 51.125 25.703125 53.5625 
Q 30.078125 56 35.796875 56 
Q 45.21875 56 50.046875 50.171875 
Q 54.890625 44.34375 54.890625 33.015625 
z
" id="DejaVuSans-68"/>
     </defs>
     <g transform="translate(266.6482 246.363281)scale(0.15 -0.15)">
      <use xlink:href="#DejaVuSans-50"/>
      <use x="60.255859" xlink:href="#DejaVuSans-6f"/>
      <use x="121.4375" xlink:href="#DejaVuSans-70"/>
      <use x="184.914062" xlink:href="#DejaVuSans-75"/>
      <use x="248.292969" xlink:href="#DejaVuSans-6c"/>
      <use x="276.076172" xlink:href="#DejaVuSans-61"/>
      <use x="337.355469" xlink:href="#DejaVuSans-74"/>
      <use x="376.564453" xlink:href="#DejaVuSans-69"/>
      <use x="404.347656" xlink:href="#DejaVuSans-6f"/>
      <use x="465.529297" xlink:href="#DejaVuSans-6e"/>
      <use x="528.908203" xlink:href="#DejaVuSans-20"/>
      <use x="560.695312" xlink:href="#DejaVuSans-53"/>
      <use x="624.171875" xlink:href="#DejaVuSans-6e"/>
      <use x="687.550781" xlink:href="#DejaVuSans-61"/>
      <use x="748.830078" xlink:href="#DejaVuSans-70"/>
      <use x="812.306641" xlink:href="#DejaVuSans-73"/>
      <use x="864.40625" xlink:href="#DejaVuSans-68"/>
      <use x="927.785156" xlink:href="#DejaVuSans-6f"/>
      <use x="988.966797" xlink:href="#DejaVuSans-74"/>
      <use x="1028.175781" xlink:href="#DejaVuSans-73"/>
     </g>
    </g>
    <g id="line2d_36">
     <path d="M 224.6482 263.130469 
L 254.6482 263.130469 
" style="fill:none;stroke:#2ca02c;stroke-linecap:square;stroke-width:3;"/>
    </g>
    <g id="line2d_37"/>
    <g id="text_19">
     <!-- Lineage Tracking -->
     <defs>
      <path d="M -0.296875 72.90625 
L 61.375 72.90625 
L 61.375 64.59375 
L 35.5 64.59375 
L 35.5 0 
L 25.59375 0 
L 25.59375 64.59375 
L -0.296875 64.59375 
z
" id="DejaVuSans-54"/>
      <path d="M 41.109375 46.296875 
Q 39.59375 47.171875 37.8125 47.578125 
Q 36.03125 48 33.890625 48 
Q 26.265625 48 22.1875 43.046875 
Q 18.109375 38.09375 18.109375 28.8125 
L 18.109375 0 
L 9.078125 0 
L 9.078125 54.6875 
L 18.109375 54.6875 
L 18.109375 46.1875 
Q 20.953125 51.171875 25.484375 53.578125 
Q 30.03125 56 36.53125 56 
Q 37.453125 56 38.578125 55.875 
Q 39.703125 55.765625 41.0625 55.515625 
z
" id="DejaVuSans-72"/>
      <path d="M 48.78125 52.59375 
L 48.78125 44.1875 
Q 44.96875 46.296875 41.140625 47.34375 
Q 37.3125 48.390625 33.40625 48.390625 
Q 24.65625 48.390625 19.8125 42.84375 
Q 14.984375 37.3125 14.984375 27.296875 
Q 14.984375 17.28125 19.8125 11.734375 
Q 24.65625 6.203125 33.40625 6.203125 
Q 37.3125 6.203125 41.140625 7.25 
Q 44.96875 8.296875 48.78125 10.40625 
L 48.78125 2.09375 
Q 45.015625 0.34375 40.984375 -0.53125 
Q 36.96875 -1.421875 32.421875 -1.421875 
Q 20.0625 -1.421875 12.78125 6.34375 
Q 5.515625 14.109375 5.515625 27.296875 
Q 5.515625 40.671875 12.859375 48.328125 
Q 20.21875 56 33.015625 56 
Q 37.15625 56 41.109375 55.140625 
Q 45.0625 54.296875 48.78125 52.59375 
z
" id="DejaVuSans-63"/>
      <path d="M 9.078125 75.984375 
L 18.109375 75.984375 
L 18.109375 31.109375 
L 44.921875 54.6875 
L 56.390625 54.6875 
L 27.390625 29.109375 
L 57.625 0 
L 45.90625 0 
L 18.109375 26.703125 
L 18.109375 0 
L 9.078125 0 
z
" id="DejaVuSans-6b"/>
     </defs>
     <g transform="translate(266.6482 268.380469)scale(0.15 -0.15)">
      <use xlink:href="#DejaVuSans-4c"/>
      <use x="55.712891" xlink:href="#DejaVuSans-69"/>
      <use x="83.496094" xlink:href="#DejaVuSans-6e"/>
      <use x="146.875" xlink:href="#DejaVuSans-65"/>
      <use x="208.398438" xlink:href="#DejaVuSans-61"/>
      <use x="269.677734" xlink:href="#DejaVuSans-67"/>
      <use x="333.154297" xlink:href="#DejaVuSans-65"/>
      <use x="394.677734" xlink:href="#DejaVuSans-20"/>
      <use x="426.464844" xlink:href="#DejaVuSans-54"/>
      <use x="487.330078" xlink:href="#DejaVuSans-72"/>
      <use x="528.443359" xlink:href="#DejaVuSans-61"/>
      <use x="589.722656" xlink:href="#DejaVuSans-63"/>
      <use x="644.703125" xlink:href="#DejaVuSans-6b"/>
      <use x="702.613281" xlink:href="#DejaVuSans-69"/>
      <use x="730.396484" xlink:href="#DejaVuSans-6e"/>
      <use x="793.775391" xlink:href="#DejaVuSans-67"/>
     </g>
    </g>
   </g>
  </g>
  <g id="axes_2">
   <g id="patch_8">
    <path d="M 551.361957 285 
L 915.275 285 
L 915.275 13.2 
L 551.361957 13.2 
z
" style="fill:#ffffff;"/>
   </g>
   <g id="PolyCollection_4">
    <defs>
     <path d="M 551.361957 -66.965572 
L 551.361957 -66.965572 
L 556.560714 -70.241482 
L 561.759472 -86.636681 
L 566.95823 -107.572072 
L 572.156988 -136.93511 
L 577.355745 -157.361519 
L 582.554503 -178.311699 
L 587.753261 -193.601776 
L 592.952019 -195.415725 
L 598.150776 -194.756023 
L 603.349534 -200.212527 
L 608.548292 -223.746493 
L 613.74705 -227.336053 
L 618.945807 -231.942333 
L 624.144565 -236.891628 
L 629.343323 -245.519076 
L 634.542081 -248.9376 
L 639.740839 -245.441324 
L 644.939596 -253.998716 
L 650.138354 -248.794167 
L 655.337112 -241.160982 
L 660.53587 -240.567335 
L 665.734627 -239.599628 
L 670.933385 -236.44586 
L 676.132143 -234.119143 
L 681.330901 -233.223001 
L 686.529658 -234.424774 
L 691.728416 -234.689018 
L 696.927174 -226.149926 
L 702.125932 -231.79852 
L 707.324689 -225.424722 
L 712.523447 -224.216541 
L 717.722205 -224.914009 
L 722.920963 -222.012686 
L 728.11972 -223.051588 
L 733.318478 -223.533498 
L 738.517236 -224.082087 
L 743.715994 -225.244432 
L 748.914752 -228.415188 
L 754.113509 -233.646904 
L 759.312267 -234.830239 
L 764.511025 -233.610901 
L 769.709783 -229.839442 
L 774.90854 -229.43332 
L 780.107298 -230.812013 
L 785.306056 -234.449419 
L 790.504814 -235.58266 
L 795.703571 -237.847142 
L 800.902329 -236.506629 
L 806.101087 -236.581863 
L 811.299845 -233.249264 
L 816.498602 -230.545611 
L 821.69736 -230.953364 
L 826.896118 -230.118819 
L 832.094876 -230.670019 
L 837.293634 -232.050766 
L 842.492391 -230.43671 
L 847.691149 -231.495651 
L 852.889907 -231.106624 
L 858.088665 -230.12401 
L 863.287422 -227.752326 
L 868.48618 -226.638575 
L 873.684938 -225.700027 
L 878.883696 -226.514398 
L 884.082453 -227.431163 
L 889.281211 -229.47986 
L 894.479969 -230.150426 
L 899.678727 -230.852558 
L 904.877484 -231.114387 
L 910.076242 -230.464603 
L 910.076242 -239.047138 
L 910.076242 -239.047138 
L 904.877484 -240.059629 
L 899.678727 -239.870088 
L 894.479969 -239.752862 
L 889.281211 -239.097483 
L 884.082453 -237.343802 
L 878.883696 -236.687273 
L 873.684938 -236.342848 
L 868.48618 -237.736517 
L 863.287422 -238.94093 
L 858.088665 -242.094866 
L 852.889907 -244.285402 
L 847.691149 -245.094445 
L 842.492391 -245.047788 
L 837.293634 -246.540433 
L 832.094876 -245.490044 
L 826.896118 -245.419871 
L 821.69736 -245.974859 
L 816.498602 -246.789203 
L 811.299845 -250.108788 
L 806.101087 -254.40568 
L 800.902329 -257.031021 
L 795.703571 -258.475857 
L 790.504814 -258.038845 
L 785.306056 -256.316306 
L 780.107298 -252.270088 
L 774.90854 -251.182971 
L 769.709783 -252.433815 
L 764.511025 -256.569789 
L 759.312267 -258.794006 
L 754.113509 -258.826775 
L 748.914752 -255.164731 
L 743.715994 -253.044118 
L 738.517236 -250.631186 
L 733.318478 -253.132963 
L 728.11972 -252.68549 
L 722.920963 -251.318959 
L 717.722205 -255.489295 
L 712.523447 -255.916612 
L 707.324689 -261.856515 
L 702.125932 -269.349172 
L 696.927174 -269.081171 
L 691.728416 -280.922034 
L 686.529658 -286.164842 
L 681.330901 -288.099457 
L 676.132143 -285.717159 
L 670.933385 -282.789076 
L 665.734627 -289.132228 
L 660.53587 -289.719661 
L 655.337112 -290.385742 
L 650.138354 -301.897167 
L 644.939596 -314.018892 
L 639.740839 -310.505056 
L 634.542081 -312.973901 
L 629.343323 -313.483109 
L 624.144565 -298.822339 
L 618.945807 -292.687345 
L 613.74705 -289.57242 
L 608.548292 -283.284716 
L 603.349534 -262.915772 
L 598.150776 -260.647916 
L 592.952019 -260.318031 
L 587.753261 -254.760787 
L 582.554503 -242.392399 
L 577.355745 -207.1823 
L 572.156988 -173.446597 
L 566.95823 -128.364914 
L 561.759472 -95.935257 
L 556.560714 -72.076622 
L 551.361957 -66.965572 
z
" id="m3bdd008c37"/>
    </defs>
    <g clip-path="url(#pc6ae8e1862)">
     <use style="fill:#ffa035;" x="0" xlink:href="#m3bdd008c37" y="339.573438"/>
    </g>
   </g>
   <g id="PolyCollection_5">
    <defs>
     <path d="M 551.361957 -66.965572 
L 551.361957 -66.965572 
L 556.560714 -70.532707 
L 561.759472 -86.939051 
L 566.95823 -113.022195 
L 572.156988 -139.222607 
L 577.355745 -162.843747 
L 582.554503 -184.22402 
L 587.753261 -199.618083 
L 592.952019 -209.823976 
L 598.150776 -217.767573 
L 603.349534 -224.570508 
L 608.548292 -231.309121 
L 613.74705 -236.685407 
L 618.945807 -243.07597 
L 624.144565 -248.21829 
L 629.343323 -251.19993 
L 634.542081 -254.215455 
L 639.740839 -258.013755 
L 644.939596 -257.775047 
L 650.138354 -256.459434 
L 655.337112 -254.688119 
L 660.53587 -253.432029 
L 665.734627 -253.787492 
L 670.933385 -253.299456 
L 676.132143 -254.09306 
L 681.330901 -253.464105 
L 686.529658 -250.832991 
L 691.728416 -248.398091 
L 696.927174 -247.424143 
L 702.125932 -244.600708 
L 707.324689 -242.235755 
L 712.523447 -239.450472 
L 717.722205 -238.847126 
L 722.920963 -238.203689 
L 728.11972 -238.348953 
L 733.318478 -238.843361 
L 738.517236 -239.554913 
L 743.715994 -238.910105 
L 748.914752 -236.095554 
L 754.113509 -232.156924 
L 759.312267 -229.782809 
L 764.511025 -226.900261 
L 769.709783 -228.418934 
L 774.90854 -228.345611 
L 780.107298 -228.096816 
L 785.306056 -228.555654 
L 790.504814 -228.458003 
L 795.703571 -226.88063 
L 800.902329 -227.269447 
L 806.101087 -227.346048 
L 811.299845 -226.267372 
L 816.498602 -225.409907 
L 821.69736 -223.847727 
L 826.896118 -223.339209 
L 832.094876 -223.37101 
L 837.293634 -220.938883 
L 842.492391 -218.632224 
L 847.691149 -216.613318 
L 852.889907 -215.559409 
L 858.088665 -213.94837 
L 863.287422 -213.176763 
L 868.48618 -211.939022 
L 873.684938 -212.427558 
L 878.883696 -212.33097 
L 884.082453 -213.85742 
L 889.281211 -214.958351 
L 894.479969 -216.031081 
L 899.678727 -217.02276 
L 904.877484 -218.61098 
L 910.076242 -220.686022 
L 910.076242 -237.222972 
L 910.076242 -237.222972 
L 904.877484 -235.189434 
L 899.678727 -233.33624 
L 894.479969 -232.742153 
L 889.281211 -231.353978 
L 884.082453 -230.411237 
L 878.883696 -229.504306 
L 873.684938 -228.467269 
L 868.48618 -229.285886 
L 863.287422 -229.839249 
L 858.088665 -230.193243 
L 852.889907 -232.206123 
L 847.691149 -232.596774 
L 842.492391 -234.963505 
L 837.293634 -237.714214 
L 832.094876 -240.335735 
L 826.896118 -239.732917 
L 821.69736 -240.410629 
L 816.498602 -241.933504 
L 811.299845 -243.333911 
L 806.101087 -244.400279 
L 800.902329 -244.276494 
L 795.703571 -244.93295 
L 790.504814 -245.738013 
L 785.306056 -246.330176 
L 780.107298 -245.352293 
L 774.90854 -245.248019 
L 769.709783 -246.767411 
L 764.511025 -246.31235 
L 759.312267 -247.839029 
L 754.113509 -250.973406 
L 748.914752 -255.088188 
L 743.715994 -258.099841 
L 738.517236 -258.567469 
L 733.318478 -258.105449 
L 728.11972 -257.073696 
L 722.920963 -258.085577 
L 717.722205 -258.024895 
L 712.523447 -258.657877 
L 707.324689 -262.458892 
L 702.125932 -264.939781 
L 696.927174 -266.568673 
L 691.728416 -269.708416 
L 686.529658 -271.046348 
L 681.330901 -273.737867 
L 676.132143 -274.982358 
L 670.933385 -275.457556 
L 665.734627 -275.384257 
L 660.53587 -274.940151 
L 655.337112 -276.26389 
L 650.138354 -278.619368 
L 644.939596 -279.833187 
L 639.740839 -279.614319 
L 634.542081 -277.136059 
L 629.343323 -273.200562 
L 624.144565 -269.1011 
L 618.945807 -263.876672 
L 613.74705 -256.734638 
L 608.548292 -249.544251 
L 603.349534 -243.10493 
L 598.150776 -235.221255 
L 592.952019 -226.175805 
L 587.753261 -214.509659 
L 582.554503 -197.123491 
L 577.355745 -174.115981 
L 572.156988 -146.878599 
L 566.95823 -118.384524 
L 561.759472 -89.026603 
L 556.560714 -70.910903 
L 551.361957 -66.965572 
z
" id="m6cadec8466"/>
    </defs>
    <g clip-path="url(#pc6ae8e1862)">
     <use style="fill:#4db8ff;" x="0" xlink:href="#m6cadec8466" y="339.573438"/>
    </g>
   </g>
   <g id="PolyCollection_6">
    <defs>
     <path d="M 551.361957 -66.965572 
L 551.361957 -66.965572 
L 556.560714 -66.965572 
L 561.759472 -66.965572 
L 566.95823 -66.965572 
L 572.156988 -66.965572 
L 577.355745 -66.965572 
L 582.554503 -66.927983 
L 587.753261 -67.021052 
L 592.952019 -68.241097 
L 598.150776 -70.845148 
L 603.349534 -75.560946 
L 608.548292 -82.413061 
L 613.74705 -89.874137 
L 618.945807 -95.836106 
L 624.144565 -101.796492 
L 629.343323 -108.191011 
L 634.542081 -116.188003 
L 639.740839 -121.373953 
L 644.939596 -122.497987 
L 650.138354 -125.419043 
L 655.337112 -130.399165 
L 660.53587 -134.918922 
L 665.734627 -137.236376 
L 670.933385 -141.478669 
L 676.132143 -145.11171 
L 681.330901 -149.395086 
L 686.529658 -153.053435 
L 691.728416 -156.217391 
L 696.927174 -157.678707 
L 702.125932 -163.83007 
L 707.324689 -165.413361 
L 712.523447 -165.519174 
L 717.722205 -170.420001 
L 722.920963 -172.73831 
L 728.11972 -175.064536 
L 733.318478 -180.198758 
L 738.517236 -181.614974 
L 743.715994 -185.997078 
L 748.914752 -191.489813 
L 754.113509 -197.359986 
L 759.312267 -198.860562 
L 764.511025 -203.117307 
L 769.709783 -201.369258 
L 774.90854 -204.157655 
L 780.107298 -206.251475 
L 785.306056 -209.889829 
L 790.504814 -212.525688 
L 795.703571 -215.3509 
L 800.902329 -215.741442 
L 806.101087 -217.12001 
L 811.299845 -214.715893 
L 816.498602 -215.168818 
L 821.69736 -216.239038 
L 826.896118 -216.934157 
L 832.094876 -217.798751 
L 837.293634 -218.689438 
L 842.492391 -217.817821 
L 847.691149 -218.451 
L 852.889907 -220.326629 
L 858.088665 -220.106544 
L 863.287422 -218.363394 
L 868.48618 -218.578592 
L 873.684938 -218.296131 
L 878.883696 -219.327135 
L 884.082453 -221.267361 
L 889.281211 -223.288142 
L 894.479969 -224.679291 
L 899.678727 -225.144203 
L 904.877484 -225.764155 
L 910.076242 -225.263936 
L 910.076242 -235.016951 
L 910.076242 -235.016951 
L 904.877484 -235.70079 
L 899.678727 -235.933966 
L 894.479969 -234.758369 
L 889.281211 -234.623542 
L 884.082453 -233.117792 
L 878.883696 -232.80605 
L 873.684938 -231.695787 
L 868.48618 -233.431443 
L 863.287422 -235.099459 
L 858.088665 -237.152162 
L 852.889907 -238.207789 
L 847.691149 -237.986595 
L 842.492391 -235.588607 
L 837.293634 -237.087209 
L 832.094876 -235.693694 
L 826.896118 -235.074343 
L 821.69736 -234.756941 
L 816.498602 -235.14732 
L 811.299845 -236.821019 
L 806.101087 -239.76131 
L 800.902329 -241.47806 
L 795.703571 -241.037337 
L 790.504814 -238.313499 
L 785.306056 -236.079312 
L 780.107298 -232.012297 
L 774.90854 -229.875128 
L 769.709783 -227.485556 
L 764.511025 -229.287343 
L 759.312267 -227.942138 
L 754.113509 -222.138091 
L 748.914752 -217.185062 
L 743.715994 -213.133511 
L 738.517236 -209.301991 
L 733.318478 -207.487518 
L 728.11972 -203.853325 
L 722.920963 -207.034742 
L 717.722205 -206.221111 
L 712.523447 -200.287826 
L 707.324689 -198.245283 
L 702.125932 -194.789865 
L 696.927174 -187.702884 
L 691.728416 -187.53742 
L 686.529658 -183.306063 
L 681.330901 -179.122304 
L 676.132143 -172.984646 
L 670.933385 -168.287921 
L 665.734627 -163.958804 
L 660.53587 -161.622746 
L 655.337112 -158.019316 
L 650.138354 -153.987639 
L 644.939596 -150.904048 
L 639.740839 -149.554708 
L 634.542081 -146.421905 
L 629.343323 -137.560357 
L 624.144565 -128.219306 
L 618.945807 -117.683176 
L 613.74705 -106.746538 
L 608.548292 -96.799714 
L 603.349534 -87.616556 
L 598.150776 -81.307942 
L 592.952019 -74.73764 
L 587.753261 -69.491351 
L 582.554503 -67.219771 
L 577.355745 -66.965572 
L 572.156988 -66.965572 
L 566.95823 -66.965572 
L 561.759472 -66.965572 
L 556.560714 -66.965572 
L 551.361957 -66.965572 
z
" id="mb3717ca6c4"/>
    </defs>
    <g clip-path="url(#pc6ae8e1862)">
     <use style="fill:#47d200;" x="0" xlink:href="#mb3717ca6c4" y="339.573438"/>
    </g>
   </g>
   <g id="matplotlib.axis_3">
    <g id="xtick_9">
     <g id="line2d_38">
      <path clip-path="url(#pc6ae8e1862)" d="M 551.361957 285 
L 551.361957 13.2 
" style="fill:none;stroke:#b0b0b0;stroke-linecap:square;stroke-width:0.8;"/>
     </g>
     <g id="line2d_39">
      <g>
       <use x="551.361957" xlink:href="#m712b3dc6c2" y="285"/>
      </g>
     </g>
     <g id="text_20">
      <!-- 0 -->
      <g transform="translate(546.590082 305.897656)scale(0.15 -0.15)">
       <use xlink:href="#DejaVuSans-30"/>
      </g>
     </g>
    </g>
    <g id="xtick_10">
     <g id="line2d_40">
      <path clip-path="url(#pc6ae8e1862)" d="M 603.349534 285 
L 603.349534 13.2 
" style="fill:none;stroke:#b0b0b0;stroke-linecap:square;stroke-width:0.8;"/>
     </g>
     <g id="line2d_41">
      <g>
       <use x="603.349534" xlink:href="#m712b3dc6c2" y="285"/>
      </g>
     </g>
     <g id="text_21">
      <!-- 1 -->
      <g transform="translate(598.577659 305.897656)scale(0.15 -0.15)">
       <use xlink:href="#DejaVuSans-31"/>
      </g>
     </g>
    </g>
    <g id="xtick_11">
     <g id="line2d_42">
      <path clip-path="url(#pc6ae8e1862)" d="M 655.337112 285 
L 655.337112 13.2 
" style="fill:none;stroke:#b0b0b0;stroke-linecap:square;stroke-width:0.8;"/>
     </g>
     <g id="line2d_43">
      <g>
       <use x="655.337112" xlink:href="#m712b3dc6c2" y="285"/>
      </g>
     </g>
     <g id="text_22">
      <!-- 2 -->
      <g transform="translate(650.565237 305.897656)scale(0.15 -0.15)">
       <use xlink:href="#DejaVuSans-32"/>
      </g>
     </g>
    </g>
    <g id="xtick_12">
     <g id="line2d_44">
      <path clip-path="url(#pc6ae8e1862)" d="M 707.324689 285 
L 707.324689 13.2 
" style="fill:none;stroke:#b0b0b0;stroke-linecap:square;stroke-width:0.8;"/>
     </g>
     <g id="line2d_45">
      <g>
       <use x="707.324689" xlink:href="#m712b3dc6c2" y="285"/>
      </g>
     </g>
     <g id="text_23">
      <!-- 3 -->
      <g transform="translate(702.552814 305.897656)scale(0.15 -0.15)">
       <use xlink:href="#DejaVuSans-33"/>
      </g>
     </g>
    </g>
    <g id="xtick_13">
     <g id="line2d_46">
      <path clip-path="url(#pc6ae8e1862)" d="M 759.312267 285 
L 759.312267 13.2 
" style="fill:none;stroke:#b0b0b0;stroke-linecap:square;stroke-width:0.8;"/>
     </g>
     <g id="line2d_47">
      <g>
       <use x="759.312267" xlink:href="#m712b3dc6c2" y="285"/>
      </g>
     </g>
     <g id="text_24">
      <!-- 4 -->
      <g transform="translate(754.540392 305.897656)scale(0.15 -0.15)">
       <use xlink:href="#DejaVuSans-34"/>
      </g>
     </g>
    </g>
    <g id="xtick_14">
     <g id="line2d_48">
      <path clip-path="url(#pc6ae8e1862)" d="M 811.299845 285 
L 811.299845 13.2 
" style="fill:none;stroke:#b0b0b0;stroke-linecap:square;stroke-width:0.8;"/>
     </g>
     <g id="line2d_49">
      <g>
       <use x="811.299845" xlink:href="#m712b3dc6c2" y="285"/>
      </g>
     </g>
     <g id="text_25">
      <!-- 5 -->
      <g transform="translate(806.52797 305.897656)scale(0.15 -0.15)">
       <use xlink:href="#DejaVuSans-35"/>
      </g>
     </g>
    </g>
    <g id="xtick_15">
     <g id="line2d_50">
      <path clip-path="url(#pc6ae8e1862)" d="M 863.287422 285 
L 863.287422 13.2 
" style="fill:none;stroke:#b0b0b0;stroke-linecap:square;stroke-width:0.8;"/>
     </g>
     <g id="line2d_51">
      <g>
       <use x="863.287422" xlink:href="#m712b3dc6c2" y="285"/>
      </g>
     </g>
     <g id="text_26">
      <!-- 6 -->
      <g transform="translate(858.515547 305.897656)scale(0.15 -0.15)">
       <use xlink:href="#DejaVuSans-36"/>
      </g>
     </g>
    </g>
    <g id="xtick_16">
     <g id="line2d_52">
      <path clip-path="url(#pc6ae8e1862)" d="M 915.275 285 
L 915.275 13.2 
" style="fill:none;stroke:#b0b0b0;stroke-linecap:square;stroke-width:0.8;"/>
     </g>
     <g id="line2d_53">
      <g>
       <use x="915.275" xlink:href="#m712b3dc6c2" y="285"/>
      </g>
     </g>
     <g id="text_27">
      <!-- 7 -->
      <g transform="translate(910.503125 305.897656)scale(0.15 -0.15)">
       <use xlink:href="#DejaVuSans-37"/>
      </g>
     </g>
    </g>
    <g id="text_28">
     <!-- $t/\tau$ -->
     <g transform="translate(719.918478 328.214063)scale(0.2 -0.2)">
      <use transform="translate(0 0.09375)" xlink:href="#DejaVuSans-Oblique-74"/>
      <use transform="translate(39.208984 0.09375)" xlink:href="#DejaVuSans-2f"/>
      <use transform="translate(72.900391 0.09375)" xlink:href="#DejaVuSans-Oblique-3c4"/>
     </g>
    </g>
   </g>
   <g id="matplotlib.axis_4">
    <g id="ytick_7">
     <g id="line2d_54">
      <path clip-path="url(#pc6ae8e1862)" d="M 551.361957 272.607865 
L 915.275 272.607865 
" style="fill:none;stroke:#b0b0b0;stroke-linecap:square;stroke-width:0.8;"/>
     </g>
     <g id="line2d_55">
      <g>
       <use x="551.361957" xlink:href="#m7fc8fd5aac" y="272.607865"/>
      </g>
     </g>
     <g id="text_29">
      <!-- 0.000 -->
      <defs>
       <path d="M 10.6875 12.40625 
L 21 12.40625 
L 21 0 
L 10.6875 0 
z
" id="DejaVuSans-2e"/>
      </defs>
      <g transform="translate(498.919769 278.306693)scale(0.15 -0.15)">
       <use xlink:href="#DejaVuSans-30"/>
       <use x="63.623047" xlink:href="#DejaVuSans-2e"/>
       <use x="95.410156" xlink:href="#DejaVuSans-30"/>
       <use x="159.033203" xlink:href="#DejaVuSans-30"/>
       <use x="222.65625" xlink:href="#DejaVuSans-30"/>
      </g>
     </g>
    </g>
    <g id="ytick_8">
     <g id="line2d_56">
      <path clip-path="url(#pc6ae8e1862)" d="M 551.361957 241.986512 
L 915.275 241.986512 
" style="fill:none;stroke:#b0b0b0;stroke-linecap:square;stroke-width:0.8;"/>
     </g>
     <g id="line2d_57">
      <g>
       <use x="551.361957" xlink:href="#m7fc8fd5aac" y="241.986512"/>
      </g>
     </g>
     <g id="text_30">
      <!-- 0.002 -->
      <g transform="translate(498.919769 247.68534)scale(0.15 -0.15)">
       <use xlink:href="#DejaVuSans-30"/>
       <use x="63.623047" xlink:href="#DejaVuSans-2e"/>
       <use x="95.410156" xlink:href="#DejaVuSans-30"/>
       <use x="159.033203" xlink:href="#DejaVuSans-30"/>
       <use x="222.65625" xlink:href="#DejaVuSans-32"/>
      </g>
     </g>
    </g>
    <g id="ytick_9">
     <g id="line2d_58">
      <path clip-path="url(#pc6ae8e1862)" d="M 551.361957 211.365159 
L 915.275 211.365159 
" style="fill:none;stroke:#b0b0b0;stroke-linecap:square;stroke-width:0.8;"/>
     </g>
     <g id="line2d_59">
      <g>
       <use x="551.361957" xlink:href="#m7fc8fd5aac" y="211.365159"/>
      </g>
     </g>
     <g id="text_31">
      <!-- 0.004 -->
      <g transform="translate(498.919769 217.063987)scale(0.15 -0.15)">
       <use xlink:href="#DejaVuSans-30"/>
       <use x="63.623047" xlink:href="#DejaVuSans-2e"/>
       <use x="95.410156" xlink:href="#DejaVuSans-30"/>
       <use x="159.033203" xlink:href="#DejaVuSans-30"/>
       <use x="222.65625" xlink:href="#DejaVuSans-34"/>
      </g>
     </g>
    </g>
    <g id="ytick_10">
     <g id="line2d_60">
      <path clip-path="url(#pc6ae8e1862)" d="M 551.361957 180.743806 
L 915.275 180.743806 
" style="fill:none;stroke:#b0b0b0;stroke-linecap:square;stroke-width:0.8;"/>
     </g>
     <g id="line2d_61">
      <g>
       <use x="551.361957" xlink:href="#m7fc8fd5aac" y="180.743806"/>
      </g>
     </g>
     <g id="text_32">
      <!-- 0.006 -->
      <g transform="translate(498.919769 186.442634)scale(0.15 -0.15)">
       <use xlink:href="#DejaVuSans-30"/>
       <use x="63.623047" xlink:href="#DejaVuSans-2e"/>
       <use x="95.410156" xlink:href="#DejaVuSans-30"/>
       <use x="159.033203" xlink:href="#DejaVuSans-30"/>
       <use x="222.65625" xlink:href="#DejaVuSans-36"/>
      </g>
     </g>
    </g>
    <g id="ytick_11">
     <g id="line2d_62">
      <path clip-path="url(#pc6ae8e1862)" d="M 551.361957 150.122453 
L 915.275 150.122453 
" style="fill:none;stroke:#b0b0b0;stroke-linecap:square;stroke-width:0.8;"/>
     </g>
     <g id="line2d_63">
      <g>
       <use x="551.361957" xlink:href="#m7fc8fd5aac" y="150.122453"/>
      </g>
     </g>
     <g id="text_33">
      <!-- 0.008 -->
      <g transform="translate(498.919769 155.821281)scale(0.15 -0.15)">
       <use xlink:href="#DejaVuSans-30"/>
       <use x="63.623047" xlink:href="#DejaVuSans-2e"/>
       <use x="95.410156" xlink:href="#DejaVuSans-30"/>
       <use x="159.033203" xlink:href="#DejaVuSans-30"/>
       <use x="222.65625" xlink:href="#DejaVuSans-38"/>
      </g>
     </g>
    </g>
    <g id="ytick_12">
     <g id="line2d_64">
      <path clip-path="url(#pc6ae8e1862)" d="M 551.361957 119.5011 
L 915.275 119.5011 
" style="fill:none;stroke:#b0b0b0;stroke-linecap:square;stroke-width:0.8;"/>
     </g>
     <g id="line2d_65">
      <g>
       <use x="551.361957" xlink:href="#m7fc8fd5aac" y="119.5011"/>
      </g>
     </g>
     <g id="text_34">
      <!-- 0.010 -->
      <g transform="translate(498.919769 125.199928)scale(0.15 -0.15)">
       <use xlink:href="#DejaVuSans-30"/>
       <use x="63.623047" xlink:href="#DejaVuSans-2e"/>
       <use x="95.410156" xlink:href="#DejaVuSans-30"/>
       <use x="159.033203" xlink:href="#DejaVuSans-31"/>
       <use x="222.65625" xlink:href="#DejaVuSans-30"/>
      </g>
     </g>
    </g>
    <g id="ytick_13">
     <g id="line2d_66">
      <path clip-path="url(#pc6ae8e1862)" d="M 551.361957 88.879747 
L 915.275 88.879747 
" style="fill:none;stroke:#b0b0b0;stroke-linecap:square;stroke-width:0.8;"/>
     </g>
     <g id="line2d_67">
      <g>
       <use x="551.361957" xlink:href="#m7fc8fd5aac" y="88.879747"/>
      </g>
     </g>
     <g id="text_35">
      <!-- 0.012 -->
      <g transform="translate(498.919769 94.578575)scale(0.15 -0.15)">
       <use xlink:href="#DejaVuSans-30"/>
       <use x="63.623047" xlink:href="#DejaVuSans-2e"/>
       <use x="95.410156" xlink:href="#DejaVuSans-30"/>
       <use x="159.033203" xlink:href="#DejaVuSans-31"/>
       <use x="222.65625" xlink:href="#DejaVuSans-32"/>
      </g>
     </g>
    </g>
    <g id="ytick_14">
     <g id="line2d_68">
      <path clip-path="url(#pc6ae8e1862)" d="M 551.361957 58.258394 
L 915.275 58.258394 
" style="fill:none;stroke:#b0b0b0;stroke-linecap:square;stroke-width:0.8;"/>
     </g>
     <g id="line2d_69">
      <g>
       <use x="551.361957" xlink:href="#m7fc8fd5aac" y="58.258394"/>
      </g>
     </g>
     <g id="text_36">
      <!-- 0.014 -->
      <g transform="translate(498.919769 63.957222)scale(0.15 -0.15)">
       <use xlink:href="#DejaVuSans-30"/>
       <use x="63.623047" xlink:href="#DejaVuSans-2e"/>
       <use x="95.410156" xlink:href="#DejaVuSans-30"/>
       <use x="159.033203" xlink:href="#DejaVuSans-31"/>
       <use x="222.65625" xlink:href="#DejaVuSans-34"/>
      </g>
     </g>
    </g>
    <g id="ytick_15">
     <g id="line2d_70">
      <path clip-path="url(#pc6ae8e1862)" d="M 551.361957 27.637041 
L 915.275 27.637041 
" style="fill:none;stroke:#b0b0b0;stroke-linecap:square;stroke-width:0.8;"/>
     </g>
     <g id="line2d_71">
      <g>
       <use x="551.361957" xlink:href="#m7fc8fd5aac" y="27.637041"/>
      </g>
     </g>
     <g id="text_37">
      <!-- 0.016 -->
      <g transform="translate(498.919769 33.335869)scale(0.15 -0.15)">
       <use xlink:href="#DejaVuSans-30"/>
       <use x="63.623047" xlink:href="#DejaVuSans-2e"/>
       <use x="95.410156" xlink:href="#DejaVuSans-30"/>
       <use x="159.033203" xlink:href="#DejaVuSans-31"/>
       <use x="222.65625" xlink:href="#DejaVuSans-36"/>
      </g>
     </g>
    </g>
    <g id="text_38">
     <!-- $C_V^2(p)$ -->
     <defs>
      <path d="M 69.484375 67.28125 
L 67.484375 56.890625 
Q 62.796875 61.625 57.546875 63.921875 
Q 52.296875 66.21875 46.1875 66.21875 
Q 37.84375 66.21875 31.515625 62.203125 
Q 25.203125 58.203125 20.609375 50 
Q 17.671875 44.734375 16.125 38.84375 
Q 14.59375 32.953125 14.59375 27 
Q 14.59375 17.046875 19.75 11.8125 
Q 24.90625 6.59375 34.71875 6.59375 
Q 41.5 6.59375 47.75 8.765625 
Q 54 10.9375 59.90625 15.28125 
L 57.625 3.609375 
Q 51.8125 1.125 45.875 -0.140625 
Q 39.9375 -1.421875 33.984375 -1.421875 
Q 19.96875 -1.421875 12.078125 6.1875 
Q 4.203125 13.8125 4.203125 27.390625 
Q 4.203125 36.078125 7.203125 44.46875 
Q 10.203125 52.875 15.828125 59.8125 
Q 21.78125 67.1875 29.421875 70.703125 
Q 37.0625 74.21875 47.21875 74.21875 
Q 53.46875 74.21875 59.0625 72.484375 
Q 64.65625 70.75 69.484375 67.28125 
z
" id="DejaVuSans-Oblique-43"/>
      <path d="M 20.609375 0 
L 7.8125 72.90625 
L 17.484375 72.90625 
L 28.078125 10.203125 
L 63.484375 72.90625 
L 74.21875 72.90625 
L 32.078125 0 
z
" id="DejaVuSans-Oblique-56"/>
      <path d="M 31 75.875 
Q 24.46875 64.65625 21.28125 53.65625 
Q 18.109375 42.671875 18.109375 31.390625 
Q 18.109375 20.125 21.3125 9.0625 
Q 24.515625 -2 31 -13.1875 
L 23.1875 -13.1875 
Q 15.875 -1.703125 12.234375 9.375 
Q 8.59375 20.453125 8.59375 31.390625 
Q 8.59375 42.28125 12.203125 53.3125 
Q 15.828125 64.359375 23.1875 75.875 
z
" id="DejaVuSans-28"/>
      <path d="M 8.015625 75.875 
L 15.828125 75.875 
Q 23.140625 64.359375 26.78125 53.3125 
Q 30.421875 42.28125 30.421875 31.390625 
Q 30.421875 20.453125 26.78125 9.375 
Q 23.140625 -1.703125 15.828125 -13.1875 
L 8.015625 -13.1875 
Q 14.5 -2 17.703125 9.0625 
Q 20.90625 20.125 20.90625 31.390625 
Q 20.90625 42.671875 17.703125 53.65625 
Q 14.5 64.65625 8.015625 75.875 
z
" id="DejaVuSans-29"/>
     </defs>
     <g transform="translate(489.319769 175.7)rotate(-90)scale(0.2 -0.2)">
      <use transform="translate(0 0.765625)" xlink:href="#DejaVuSans-Oblique-43"/>
      <use transform="translate(77.02474 39.046875)scale(0.7)" xlink:href="#DejaVuSans-32"/>
      <use transform="translate(69.824219 -26.578125)scale(0.7)" xlink:href="#DejaVuSans-Oblique-56"/>
      <use transform="translate(124.295247 0.765625)" xlink:href="#DejaVuSans-28"/>
      <use transform="translate(163.308919 0.765625)" xlink:href="#DejaVuSans-Oblique-70"/>
      <use transform="translate(226.785482 0.765625)" xlink:href="#DejaVuSans-29"/>
     </g>
    </g>
   </g>
   <g id="line2d_72">
    <path clip-path="url(#pc6ae8e1862)" d="M 551.361957 272.607865 
L 556.560714 268.851632 
L 561.759472 251.590611 
L 566.95823 223.870078 
L 572.156988 196.522834 
L 577.355745 171.093573 
L 582.554503 148.899682 
L 587.753261 132.509566 
L 592.952019 121.573547 
L 598.150776 113.079023 
L 603.349534 105.735718 
L 608.548292 99.146751 
L 613.74705 92.863415 
L 618.945807 86.097116 
L 624.144565 80.913743 
L 629.343323 77.373192 
L 634.542081 73.897681 
L 639.740839 70.7594 
L 644.939596 70.76932 
L 650.138354 72.034036 
L 655.337112 74.097433 
L 660.53587 75.387348 
L 665.734627 74.987563 
L 670.933385 75.194932 
L 676.132143 75.035728 
L 681.330901 75.972452 
L 686.529658 78.633768 
L 691.728416 80.520184 
L 696.927174 82.577029 
L 702.125932 84.803193 
L 707.324689 87.226114 
L 712.523447 90.519263 
L 717.722205 91.137427 
L 722.920963 91.428804 
L 728.11972 91.862113 
L 733.318478 91.099033 
L 738.517236 90.512246 
L 743.715994 91.068464 
L 748.914752 93.981567 
L 754.113509 98.008273 
L 759.312267 100.762518 
L 764.511025 102.967132 
L 769.709783 101.980265 
L 774.90854 102.776622 
L 780.107298 102.848883 
L 785.306056 102.130523 
L 790.504814 102.475429 
L 795.703571 103.666648 
L 800.902329 103.800467 
L 806.101087 103.700274 
L 811.299845 104.772796 
L 816.498602 105.901732 
L 821.69736 107.44426 
L 826.896118 108.037375 
L 832.094876 107.720065 
L 837.293634 110.246889 
L 842.492391 112.775573 
L 847.691149 114.968392 
L 852.889907 115.690671 
L 858.088665 117.502631 
L 863.287422 118.065432 
L 868.48618 118.960984 
L 873.684938 119.126024 
L 878.883696 118.655799 
L 884.082453 117.439109 
L 889.281211 116.417273 
L 894.479969 115.18682 
L 899.678727 114.393937 
L 904.877484 112.673231 
L 910.076242 110.618941 
" style="fill:none;stroke:#1f77b4;stroke-linecap:square;stroke-width:3;"/>
   </g>
   <g id="line2d_73">
    <path clip-path="url(#pc6ae8e1862)" d="M 551.361957 272.607865 
L 556.560714 268.414385 
L 561.759472 248.287469 
L 566.95823 221.604945 
L 572.156988 184.382584 
L 577.355745 157.301528 
L 582.554503 129.221388 
L 587.753261 115.392156 
L 592.952019 111.706559 
L 598.150776 111.871468 
L 603.349534 108.009288 
L 608.548292 86.057833 
L 613.74705 81.119201 
L 618.945807 77.258599 
L 624.144565 71.716454 
L 629.343323 60.072345 
L 634.542081 58.617687 
L 639.740839 61.600247 
L 644.939596 55.564634 
L 650.138354 64.227771 
L 655.337112 73.800076 
L 660.53587 74.42994 
L 665.734627 75.20751 
L 670.933385 79.955969 
L 676.132143 79.655286 
L 681.330901 78.912209 
L 686.529658 79.27863 
L 691.728416 81.767912 
L 696.927174 91.957889 
L 702.125932 88.999591 
L 707.324689 95.932819 
L 712.523447 99.506861 
L 717.722205 99.371786 
L 722.920963 102.907615 
L 728.11972 101.704899 
L 733.318478 101.240207 
L 738.517236 102.216801 
L 743.715994 100.429162 
L 748.914752 97.783478 
L 754.113509 93.336598 
L 759.312267 92.761315 
L 764.511025 94.483092 
L 769.709783 98.436809 
L 774.90854 99.265292 
L 780.107298 98.032387 
L 785.306056 94.190575 
L 790.504814 92.762685 
L 795.703571 91.411938 
L 800.902329 92.804612 
L 806.101087 94.079666 
L 811.299845 97.894411 
L 816.498602 100.90603 
L 821.69736 101.109326 
L 826.896118 101.804092 
L 832.094876 101.493406 
L 837.293634 100.277838 
L 842.492391 101.831189 
L 847.691149 101.27839 
L 852.889907 101.877424 
L 858.088665 103.464 
L 863.287422 106.22681 
L 868.48618 107.385891 
L 873.684938 108.552 
L 878.883696 107.972602 
L 884.082453 107.185955 
L 889.281211 105.284766 
L 894.479969 104.621794 
L 899.678727 104.212115 
L 904.877484 103.98643 
L 910.076242 104.817567 
" style="fill:none;stroke:#ff7f0e;stroke-linecap:square;stroke-width:3;"/>
   </g>
   <g id="line2d_74">
    <path clip-path="url(#pc6ae8e1862)" d="M 551.361957 272.607865 
L 556.560714 272.607865 
L 561.759472 272.607865 
L 566.95823 272.607865 
L 572.156988 272.607865 
L 577.355745 272.607865 
L 582.554503 272.49956 
L 587.753261 271.317236 
L 592.952019 268.084069 
L 598.150776 263.496892 
L 603.349534 257.984687 
L 608.548292 249.96705 
L 613.74705 241.2631 
L 618.945807 232.813796 
L 624.144565 224.565538 
L 629.343323 216.697753 
L 634.542081 208.268484 
L 639.740839 204.109107 
L 644.939596 202.87242 
L 650.138354 199.870097 
L 655.337112 195.364197 
L 660.53587 191.302603 
L 665.734627 188.975847 
L 670.933385 184.690142 
L 676.132143 180.525259 
L 681.330901 175.314743 
L 686.529658 171.393688 
L 691.728416 167.696032 
L 696.927174 166.882642 
L 702.125932 160.26347 
L 707.324689 157.744116 
L 712.523447 156.669937 
L 717.722205 151.252882 
L 722.920963 149.686912 
L 728.11972 150.114507 
L 733.318478 145.7303 
L 738.517236 144.114955 
L 743.715994 140.008143 
L 748.914752 135.236 
L 754.113509 129.824399 
L 759.312267 126.172088 
L 764.511025 123.371113 
L 769.709783 125.14603 
L 774.90854 122.557046 
L 780.107298 120.441552 
L 785.306056 116.588867 
L 790.504814 114.153844 
L 795.703571 111.379319 
L 800.902329 110.963686 
L 806.101087 111.132777 
L 811.299845 113.804981 
L 816.498602 114.415368 
L 821.69736 114.075448 
L 826.896118 113.569188 
L 832.094876 112.827215 
L 837.293634 111.685114 
L 842.492391 112.870224 
L 847.691149 111.35464 
L 852.889907 110.306228 
L 858.088665 110.944085 
L 863.287422 112.842011 
L 868.48618 113.56842 
L 873.684938 114.577479 
L 878.883696 113.506845 
L 884.082453 112.380861 
L 889.281211 110.617596 
L 894.479969 109.854608 
L 899.678727 109.034353 
L 904.877484 108.840965 
L 910.076242 109.432994 
" style="fill:none;stroke:#319000;stroke-linecap:square;stroke-width:3;"/>
   </g>
   <g id="patch_9">
    <path d="M 551.361957 285 
L 551.361957 13.2 
" style="fill:none;stroke:#000000;stroke-linecap:square;stroke-linejoin:miter;stroke-width:2;"/>
   </g>
   <g id="patch_10">
    <path d="M 915.275 285 
L 915.275 13.2 
" style="fill:none;"/>
   </g>
   <g id="patch_11">
    <path d="M 551.361957 285 
L 915.275 285 
" style="fill:none;stroke:#000000;stroke-linecap:square;stroke-linejoin:miter;stroke-width:2;"/>
   </g>
   <g id="patch_12">
    <path d="M 551.361957 13.2 
L 915.275 13.2 
" style="fill:none;"/>
   </g>
  </g>
 </g>
 <defs>
  <clipPath id="p7ccb22e4c1">
   <rect height="271.8" width="363.913043" x="78.275" y="13.2"/>
  </clipPath>
  <clipPath id="pc6ae8e1862">
   <rect height="271.8" width="363.913043" x="551.361957" y="13.2"/>
  </clipPath>
 </defs>
</svg>
