<?xml version="1.0" encoding="utf-8" standalone="no"?>
<!DOCTYPE svg PUBLIC "-//W3C//DTD SVG 1.1//EN"
  "http://www.w3.org/Graphics/SVG/1.1/DTD/svg11.dtd">
<!-- Created with matplotlib (http://matplotlib.org/) -->
<svg height="339.573438pt" version="1.1" viewBox="0 0 909.34375 339.573438" width="909.34375pt" xmlns="http://www.w3.org/2000/svg" xmlns:xlink="http://www.w3.org/1999/xlink">
 <defs>
  <style type="text/css">
*{stroke-linecap:butt;stroke-linejoin:round;}
  </style>
 </defs>
 <g id="figure_1">
  <g id="patch_1">
   <path d="M 0 339.573438 
L 909.34375 339.573438 
L 909.34375 0 
L 0 0 
z
" style="fill:#ffffff;"/>
  </g>
  <g id="axes_1">
   <g id="patch_2">
    <path d="M 59.14375 285 
L 423.056793 285 
L 423.056793 13.2 
L 59.14375 13.2 
z
" style="fill:#ffffff;"/>
   </g>
   <g id="PolyCollection_1">
    <defs>
     <path d="M 59.14375 -66.927983 
L 59.14375 -66.927983 
L 64.342508 -143.75988 
L 69.541266 -195.983584 
L 74.740023 -229.925535 
L 79.938781 -254.865854 
L 85.137539 -269.566848 
L 90.336297 -279.591939 
L 95.535054 -285.80057 
L 100.733812 -290.141019 
L 105.93257 -291.658361 
L 111.131328 -294.629708 
L 116.330085 -295.695907 
L 121.528843 -295.115022 
L 126.727601 -296.470117 
L 131.926359 -299.159994 
L 137.125116 -298.039745 
L 142.323874 -296.707351 
L 147.522632 -296.807716 
L 152.72139 -296.199737 
L 157.920148 -297.466563 
L 163.118905 -300.922487 
L 168.317663 -300.011042 
L 173.516421 -299.714734 
L 178.715179 -297.830312 
L 183.913936 -299.096733 
L 189.112694 -300.373626 
L 194.311452 -298.603806 
L 199.51021 -300.19817 
L 204.708967 -299.728494 
L 209.907725 -297.831784 
L 215.106483 -299.967156 
L 220.305241 -299.310521 
L 225.503998 -299.764718 
L 230.702756 -298.573565 
L 235.901514 -301.452508 
L 241.100272 -302.319004 
L 246.29903 -303.351165 
L 251.497787 -302.683274 
L 256.696545 -303.890591 
L 261.895303 -300.951942 
L 267.094061 -302.438476 
L 272.292818 -303.67631 
L 277.491576 -303.816274 
L 282.690334 -301.91353 
L 287.889092 -301.627664 
L 293.087849 -301.832641 
L 298.286607 -300.153257 
L 303.485365 -301.487238 
L 308.684123 -301.783221 
L 313.88288 -301.462827 
L 319.081638 -299.050868 
L 324.280396 -299.482891 
L 329.479154 -297.695622 
L 334.677911 -299.375669 
L 339.876669 -298.325522 
L 345.075427 -300.282836 
L 350.274185 -300.676063 
L 355.472943 -301.073627 
L 360.6717 -299.347659 
L 365.870458 -299.396447 
L 371.069216 -299.631814 
L 376.267974 -300.236731 
L 381.466731 -301.325597 
L 386.665489 -301.008973 
L 391.864247 -301.112251 
L 397.063005 -300.700664 
L 402.261762 -300.176103 
L 407.46052 -299.671998 
L 412.659278 -300.519413 
L 417.858036 -300.211231 
L 417.858036 -305.463726 
L 417.858036 -305.463726 
L 412.659278 -305.745246 
L 407.46052 -304.901172 
L 402.261762 -305.652018 
L 397.063005 -306.075703 
L 391.864247 -306.337628 
L 386.665489 -306.504022 
L 381.466731 -306.864285 
L 376.267974 -305.636789 
L 371.069216 -305.368231 
L 365.870458 -304.729083 
L 360.6717 -304.671107 
L 355.472943 -306.544061 
L 350.274185 -306.217366 
L 345.075427 -305.294424 
L 339.876669 -303.529629 
L 334.677911 -304.646108 
L 329.479154 -303.109589 
L 324.280396 -304.879837 
L 319.081638 -304.331378 
L 313.88288 -306.797145 
L 308.684123 -307.031711 
L 303.485365 -306.624595 
L 298.286607 -305.537758 
L 293.087849 -307.570439 
L 287.889092 -307.209262 
L 282.690334 -307.417984 
L 277.491576 -309.438338 
L 272.292818 -309.142474 
L 267.094061 -307.635969 
L 261.895303 -306.508173 
L 256.696545 -309.242783 
L 251.497787 -307.928999 
L 246.29903 -308.648783 
L 241.100272 -307.840728 
L 235.901514 -306.990526 
L 230.702756 -304.265965 
L 225.503998 -305.456832 
L 220.305241 -304.775769 
L 215.106483 -305.602303 
L 209.907725 -303.520321 
L 204.708967 -305.126225 
L 199.51021 -305.294693 
L 194.311452 -303.704482 
L 189.112694 -305.87731 
L 183.913936 -304.353493 
L 178.715179 -303.292044 
L 173.516421 -305.340898 
L 168.317663 -305.793445 
L 163.118905 -306.508963 
L 157.920148 -302.607787 
L 152.72139 -301.628354 
L 147.522632 -301.940484 
L 142.323874 -301.975188 
L 137.125116 -303.35178 
L 131.926359 -304.497814 
L 126.727601 -302.293234 
L 121.528843 -300.823367 
L 116.330085 -301.201073 
L 111.131328 -300.046812 
L 105.93257 -296.934835 
L 100.733812 -295.276788 
L 95.535054 -290.991326 
L 90.336297 -284.651311 
L 85.137539 -274.707635 
L 79.938781 -259.988603 
L 74.740023 -234.74261 
L 69.541266 -200.673821 
L 64.342508 -147.694287 
L 59.14375 -66.927983 
z
" id="m60bcd0dacf"/>
    </defs>
    <g clip-path="url(#p46c69a507b)">
     <use style="fill:#4db8ff;" x="0" xlink:href="#m60bcd0dacf" y="339.573438"/>
    </g>
   </g>
   <g id="PolyCollection_2">
    <defs>
     <path d="M 59.14375 -66.927983 
L 59.14375 -66.927983 
L 64.342508 -139.198576 
L 69.541266 -195.181009 
L 74.740023 -228.615203 
L 79.938781 -248.516507 
L 85.137539 -264.869032 
L 90.336297 -274.016344 
L 95.535054 -274.250635 
L 100.733812 -281.366511 
L 105.93257 -286.030452 
L 111.131328 -291.843856 
L 116.330085 -292.485522 
L 121.528843 -292.697397 
L 126.727601 -296.934453 
L 131.926359 -297.355805 
L 137.125116 -297.904714 
L 142.323874 -301.464568 
L 147.522632 -299.277111 
L 152.72139 -298.147537 
L 157.920148 -293.079517 
L 163.118905 -296.568513 
L 168.317663 -299.965311 
L 173.516421 -302.430339 
L 178.715179 -300.087046 
L 183.913936 -296.639584 
L 189.112694 -294.786106 
L 194.311452 -296.194176 
L 199.51021 -294.992169 
L 204.708967 -299.23539 
L 209.907725 -297.560965 
L 215.106483 -301.620158 
L 220.305241 -299.362165 
L 225.503998 -301.187296 
L 230.702756 -297.771829 
L 235.901514 -299.390318 
L 241.100272 -300.824666 
L 246.29903 -298.717721 
L 251.497787 -299.014953 
L 256.696545 -299.892359 
L 261.895303 -300.815282 
L 267.094061 -300.547815 
L 272.292818 -295.986665 
L 277.491576 -297.890292 
L 282.690334 -296.873907 
L 287.889092 -299.178882 
L 293.087849 -300.196754 
L 298.286607 -300.742718 
L 303.485365 -300.352427 
L 308.684123 -300.979573 
L 313.88288 -301.053822 
L 319.081638 -303.113397 
L 324.280396 -300.568272 
L 329.479154 -298.802284 
L 334.677911 -300.457801 
L 339.876669 -301.174634 
L 345.075427 -301.121842 
L 350.274185 -301.207743 
L 355.472943 -301.725953 
L 360.6717 -300.816199 
L 365.870458 -301.866226 
L 371.069216 -300.368819 
L 376.267974 -300.906363 
L 381.466731 -300.987504 
L 386.665489 -301.761457 
L 391.864247 -302.070798 
L 397.063005 -301.774646 
L 402.261762 -301.326437 
L 407.46052 -301.179944 
L 412.659278 -300.721502 
L 417.858036 -301.72826 
L 417.858036 -303.855309 
L 417.858036 -303.855309 
L 412.659278 -303.048034 
L 407.46052 -303.421083 
L 402.261762 -303.663595 
L 397.063005 -304.110472 
L 391.864247 -304.454654 
L 386.665489 -304.252768 
L 381.466731 -303.620376 
L 376.267974 -303.689691 
L 371.069216 -303.337984 
L 365.870458 -304.967253 
L 360.6717 -304.032276 
L 355.472943 -305.073068 
L 350.274185 -304.402816 
L 345.075427 -304.387914 
L 339.876669 -304.663622 
L 334.677911 -304.137224 
L 329.479154 -302.395008 
L 324.280396 -304.383595 
L 319.081638 -307.31629 
L 313.88288 -305.181796 
L 308.684123 -305.293607 
L 303.485365 -304.66103 
L 298.286607 -305.447173 
L 293.087849 -304.788099 
L 287.889092 -303.746465 
L 282.690334 -301.596116 
L 277.491576 -302.965713 
L 272.292818 -301.52526 
L 267.094061 -306.307031 
L 261.895303 -306.919835 
L 256.696545 -305.867778 
L 251.497787 -305.172365 
L 246.29903 -305.169816 
L 241.100272 -307.432167 
L 235.901514 -306.228789 
L 230.702756 -305.228207 
L 225.503998 -309.016349 
L 220.305241 -307.501999 
L 215.106483 -309.7533 
L 209.907725 -306.287706 
L 204.708967 -307.733685 
L 199.51021 -303.809831 
L 194.311452 -304.635018 
L 189.112694 -304.480829 
L 183.913936 -306.537298 
L 178.715179 -310.065191 
L 173.516421 -312.358941 
L 168.317663 -311.106191 
L 163.118905 -308.393008 
L 157.920148 -304.579311 
L 152.72139 -311.708263 
L 147.522632 -311.904684 
L 142.323874 -314.018892 
L 137.125116 -310.364826 
L 131.926359 -310.59818 
L 126.727601 -310.990368 
L 121.528843 -307.140574 
L 116.330085 -307.555091 
L 111.131328 -307.631473 
L 105.93257 -303.037296 
L 100.733812 -299.347706 
L 95.535054 -291.876841 
L 90.336297 -293.154893 
L 85.137539 -282.484957 
L 79.938781 -265.725802 
L 74.740023 -246.447532 
L 69.541266 -211.418808 
L 64.342508 -153.358486 
L 59.14375 -66.927983 
z
" id="m6be340edfa"/>
    </defs>
    <g clip-path="url(#p46c69a507b)">
     <use style="fill:#ffa035;" x="0" xlink:href="#m6be340edfa" y="339.573438"/>
    </g>
   </g>
   <g id="PolyCollection_3">
    <defs>
     <path d="M 59.14375 -66.927983 
L 59.14375 -66.927983 
L 64.342508 -139.079478 
L 69.541266 -194.987468 
L 74.740023 -228.810246 
L 79.938781 -248.189313 
L 85.137539 -264.072007 
L 90.336297 -275.047973 
L 95.535054 -274.089613 
L 100.733812 -279.993329 
L 105.93257 -284.224845 
L 111.131328 -289.353641 
L 116.330085 -292.072638 
L 121.528843 -292.370801 
L 126.727601 -297.648017 
L 131.926359 -296.186193 
L 137.125116 -296.981723 
L 142.323874 -301.329897 
L 147.522632 -299.531534 
L 152.72139 -298.66348 
L 157.920148 -292.466925 
L 163.118905 -295.396787 
L 168.317663 -299.057889 
L 173.516421 -302.019399 
L 178.715179 -299.617485 
L 183.913936 -296.857025 
L 189.112694 -295.301384 
L 194.311452 -296.29689 
L 199.51021 -294.732689 
L 204.708967 -298.981827 
L 209.907725 -297.623868 
L 215.106483 -300.797205 
L 220.305241 -299.396614 
L 225.503998 -301.208455 
L 230.702756 -297.930036 
L 235.901514 -299.101357 
L 241.100272 -300.738207 
L 246.29903 -298.359194 
L 251.497787 -298.991092 
L 256.696545 -300.051452 
L 261.895303 -300.941947 
L 267.094061 -300.665804 
L 272.292818 -296.083767 
L 277.491576 -297.863199 
L 282.690334 -296.475699 
L 287.889092 -299.398896 
L 293.087849 -300.421121 
L 298.286607 -301.060122 
L 303.485365 -300.277766 
L 308.684123 -301.050472 
L 313.88288 -301.007183 
L 319.081638 -303.347128 
L 324.280396 -300.798692 
L 329.479154 -298.792588 
L 334.677911 -300.59563 
L 339.876669 -301.286782 
L 345.075427 -301.16374 
L 350.274185 -301.362823 
L 355.472943 -302.049387 
L 360.6717 -300.937486 
L 365.870458 -302.042266 
L 371.069216 -300.415039 
L 376.267974 -300.938454 
L 381.466731 -301.033683 
L 386.665489 -301.730268 
L 391.864247 -302.087277 
L 397.063005 -301.705441 
L 402.261762 -301.385283 
L 407.46052 -301.086682 
L 412.659278 -300.692873 
L 417.858036 -301.678251 
L 417.858036 -303.902341 
L 417.858036 -303.902341 
L 412.659278 -303.05973 
L 407.46052 -303.544746 
L 402.261762 -303.707308 
L 397.063005 -304.08937 
L 391.864247 -304.521963 
L 386.665489 -304.299575 
L 381.466731 -303.58793 
L 376.267974 -303.614899 
L 371.069216 -303.411075 
L 365.870458 -304.940737 
L 360.6717 -303.968771 
L 355.472943 -304.923194 
L 350.274185 -304.461974 
L 345.075427 -304.364165 
L 339.876669 -304.616508 
L 334.677911 -304.154385 
L 329.479154 -302.697082 
L 324.280396 -304.423093 
L 319.081638 -307.298549 
L 313.88288 -305.141446 
L 308.684123 -305.219771 
L 303.485365 -304.865946 
L 298.286607 -305.221281 
L 293.087849 -304.816765 
L 287.889092 -303.961523 
L 282.690334 -301.46356 
L 277.491576 -303.171663 
L 272.292818 -301.485988 
L 267.094061 -306.181823 
L 261.895303 -306.724227 
L 256.696545 -305.833319 
L 251.497787 -304.999738 
L 246.29903 -304.975912 
L 241.100272 -307.167852 
L 235.901514 -306.247878 
L 230.702756 -304.919616 
L 225.503998 -308.794858 
L 220.305241 -307.320259 
L 215.106483 -308.843042 
L 209.907725 -305.520246 
L 204.708967 -307.787897 
L 199.51021 -303.572128 
L 194.311452 -305.409057 
L 189.112694 -304.854333 
L 183.913936 -307.017327 
L 178.715179 -310.324788 
L 173.516421 -312.571849 
L 168.317663 -310.750142 
L 163.118905 -307.7779 
L 157.920148 -304.202425 
L 152.72139 -311.704786 
L 147.522632 -312.35874 
L 142.323874 -313.691266 
L 137.125116 -310.355207 
L 131.926359 -310.494551 
L 126.727601 -310.478672 
L 121.528843 -306.346515 
L 116.330085 -306.31385 
L 111.131328 -305.045622 
L 105.93257 -299.975388 
L 100.733812 -296.939271 
L 95.535054 -290.683216 
L 90.336297 -292.021482 
L 85.137539 -281.927373 
L 79.938781 -265.826966 
L 74.740023 -246.413023 
L 69.541266 -211.963348 
L 64.342508 -153.494284 
L 59.14375 -66.927983 
z
" id="maa5df9700a"/>
    </defs>
    <g clip-path="url(#p46c69a507b)">
     <use style="fill:#00c917;" x="0" xlink:href="#maa5df9700a" y="339.573438"/>
    </g>
   </g>
   <g id="matplotlib.axis_1">
    <g id="xtick_1">
     <g id="line2d_1">
      <path clip-path="url(#p46c69a507b)" d="M 59.14375 285 
L 59.14375 13.2 
" style="fill:none;stroke:#b0b0b0;stroke-linecap:square;stroke-width:0.8;"/>
     </g>
     <g id="line2d_2">
      <defs>
       <path d="M 0 0 
L 0 6 
" id="mc78e02fbde"/>
      </defs>
      <g>
       <use x="59.14375" xlink:href="#mc78e02fbde" y="285"/>
      </g>
     </g>
     <g id="text_1">
      <!-- 0 -->
      <defs>
       <path d="M 31.78125 66.40625 
Q 24.171875 66.40625 20.328125 58.90625 
Q 16.5 51.421875 16.5 36.375 
Q 16.5 21.390625 20.328125 13.890625 
Q 24.171875 6.390625 31.78125 6.390625 
Q 39.453125 6.390625 43.28125 13.890625 
Q 47.125 21.390625 47.125 36.375 
Q 47.125 51.421875 43.28125 58.90625 
Q 39.453125 66.40625 31.78125 66.40625 
z
M 31.78125 74.21875 
Q 44.046875 74.21875 50.515625 64.515625 
Q 56.984375 54.828125 56.984375 36.375 
Q 56.984375 17.96875 50.515625 8.265625 
Q 44.046875 -1.421875 31.78125 -1.421875 
Q 19.53125 -1.421875 13.0625 8.265625 
Q 6.59375 17.96875 6.59375 36.375 
Q 6.59375 54.828125 13.0625 64.515625 
Q 19.53125 74.21875 31.78125 74.21875 
z
" id="DejaVuSans-30"/>
      </defs>
      <g transform="translate(54.371875 305.897656)scale(0.15 -0.15)">
       <use xlink:href="#DejaVuSans-30"/>
      </g>
     </g>
    </g>
    <g id="xtick_2">
     <g id="line2d_3">
      <path clip-path="url(#p46c69a507b)" d="M 111.131328 285 
L 111.131328 13.2 
" style="fill:none;stroke:#b0b0b0;stroke-linecap:square;stroke-width:0.8;"/>
     </g>
     <g id="line2d_4">
      <g>
       <use x="111.131328" xlink:href="#mc78e02fbde" y="285"/>
      </g>
     </g>
     <g id="text_2">
      <!-- 1 -->
      <defs>
       <path d="M 12.40625 8.296875 
L 28.515625 8.296875 
L 28.515625 63.921875 
L 10.984375 60.40625 
L 10.984375 69.390625 
L 28.421875 72.90625 
L 38.28125 72.90625 
L 38.28125 8.296875 
L 54.390625 8.296875 
L 54.390625 0 
L 12.40625 0 
z
" id="DejaVuSans-31"/>
      </defs>
      <g transform="translate(106.359453 305.897656)scale(0.15 -0.15)">
       <use xlink:href="#DejaVuSans-31"/>
      </g>
     </g>
    </g>
    <g id="xtick_3">
     <g id="line2d_5">
      <path clip-path="url(#p46c69a507b)" d="M 163.118905 285 
L 163.118905 13.2 
" style="fill:none;stroke:#b0b0b0;stroke-linecap:square;stroke-width:0.8;"/>
     </g>
     <g id="line2d_6">
      <g>
       <use x="163.118905" xlink:href="#mc78e02fbde" y="285"/>
      </g>
     </g>
     <g id="text_3">
      <!-- 2 -->
      <defs>
       <path d="M 19.1875 8.296875 
L 53.609375 8.296875 
L 53.609375 0 
L 7.328125 0 
L 7.328125 8.296875 
Q 12.9375 14.109375 22.625 23.890625 
Q 32.328125 33.6875 34.8125 36.53125 
Q 39.546875 41.84375 41.421875 45.53125 
Q 43.3125 49.21875 43.3125 52.78125 
Q 43.3125 58.59375 39.234375 62.25 
Q 35.15625 65.921875 28.609375 65.921875 
Q 23.96875 65.921875 18.8125 64.3125 
Q 13.671875 62.703125 7.8125 59.421875 
L 7.8125 69.390625 
Q 13.765625 71.78125 18.9375 73 
Q 24.125 74.21875 28.421875 74.21875 
Q 39.75 74.21875 46.484375 68.546875 
Q 53.21875 62.890625 53.21875 53.421875 
Q 53.21875 48.921875 51.53125 44.890625 
Q 49.859375 40.875 45.40625 35.40625 
Q 44.1875 33.984375 37.640625 27.21875 
Q 31.109375 20.453125 19.1875 8.296875 
z
" id="DejaVuSans-32"/>
      </defs>
      <g transform="translate(158.34703 305.897656)scale(0.15 -0.15)">
       <use xlink:href="#DejaVuSans-32"/>
      </g>
     </g>
    </g>
    <g id="xtick_4">
     <g id="line2d_7">
      <path clip-path="url(#p46c69a507b)" d="M 215.106483 285 
L 215.106483 13.2 
" style="fill:none;stroke:#b0b0b0;stroke-linecap:square;stroke-width:0.8;"/>
     </g>
     <g id="line2d_8">
      <g>
       <use x="215.106483" xlink:href="#mc78e02fbde" y="285"/>
      </g>
     </g>
     <g id="text_4">
      <!-- 3 -->
      <defs>
       <path d="M 40.578125 39.3125 
Q 47.65625 37.796875 51.625 33 
Q 55.609375 28.21875 55.609375 21.1875 
Q 55.609375 10.40625 48.1875 4.484375 
Q 40.765625 -1.421875 27.09375 -1.421875 
Q 22.515625 -1.421875 17.65625 -0.515625 
Q 12.796875 0.390625 7.625 2.203125 
L 7.625 11.71875 
Q 11.71875 9.328125 16.59375 8.109375 
Q 21.484375 6.890625 26.8125 6.890625 
Q 36.078125 6.890625 40.9375 10.546875 
Q 45.796875 14.203125 45.796875 21.1875 
Q 45.796875 27.640625 41.28125 31.265625 
Q 36.765625 34.90625 28.71875 34.90625 
L 20.21875 34.90625 
L 20.21875 43.015625 
L 29.109375 43.015625 
Q 36.375 43.015625 40.234375 45.921875 
Q 44.09375 48.828125 44.09375 54.296875 
Q 44.09375 59.90625 40.109375 62.90625 
Q 36.140625 65.921875 28.71875 65.921875 
Q 24.65625 65.921875 20.015625 65.03125 
Q 15.375 64.15625 9.8125 62.3125 
L 9.8125 71.09375 
Q 15.4375 72.65625 20.34375 73.4375 
Q 25.25 74.21875 29.59375 74.21875 
Q 40.828125 74.21875 47.359375 69.109375 
Q 53.90625 64.015625 53.90625 55.328125 
Q 53.90625 49.265625 50.4375 45.09375 
Q 46.96875 40.921875 40.578125 39.3125 
z
" id="DejaVuSans-33"/>
      </defs>
      <g transform="translate(210.334608 305.897656)scale(0.15 -0.15)">
       <use xlink:href="#DejaVuSans-33"/>
      </g>
     </g>
    </g>
    <g id="xtick_5">
     <g id="line2d_9">
      <path clip-path="url(#p46c69a507b)" d="M 267.094061 285 
L 267.094061 13.2 
" style="fill:none;stroke:#b0b0b0;stroke-linecap:square;stroke-width:0.8;"/>
     </g>
     <g id="line2d_10">
      <g>
       <use x="267.094061" xlink:href="#mc78e02fbde" y="285"/>
      </g>
     </g>
     <g id="text_5">
      <!-- 4 -->
      <defs>
       <path d="M 37.796875 64.3125 
L 12.890625 25.390625 
L 37.796875 25.390625 
z
M 35.203125 72.90625 
L 47.609375 72.90625 
L 47.609375 25.390625 
L 58.015625 25.390625 
L 58.015625 17.1875 
L 47.609375 17.1875 
L 47.609375 0 
L 37.796875 0 
L 37.796875 17.1875 
L 4.890625 17.1875 
L 4.890625 26.703125 
z
" id="DejaVuSans-34"/>
      </defs>
      <g transform="translate(262.322186 305.897656)scale(0.15 -0.15)">
       <use xlink:href="#DejaVuSans-34"/>
      </g>
     </g>
    </g>
    <g id="xtick_6">
     <g id="line2d_11">
      <path clip-path="url(#p46c69a507b)" d="M 319.081638 285 
L 319.081638 13.2 
" style="fill:none;stroke:#b0b0b0;stroke-linecap:square;stroke-width:0.8;"/>
     </g>
     <g id="line2d_12">
      <g>
       <use x="319.081638" xlink:href="#mc78e02fbde" y="285"/>
      </g>
     </g>
     <g id="text_6">
      <!-- 5 -->
      <defs>
       <path d="M 10.796875 72.90625 
L 49.515625 72.90625 
L 49.515625 64.59375 
L 19.828125 64.59375 
L 19.828125 46.734375 
Q 21.96875 47.46875 24.109375 47.828125 
Q 26.265625 48.1875 28.421875 48.1875 
Q 40.625 48.1875 47.75 41.5 
Q 54.890625 34.8125 54.890625 23.390625 
Q 54.890625 11.625 47.5625 5.09375 
Q 40.234375 -1.421875 26.90625 -1.421875 
Q 22.3125 -1.421875 17.546875 -0.640625 
Q 12.796875 0.140625 7.71875 1.703125 
L 7.71875 11.625 
Q 12.109375 9.234375 16.796875 8.0625 
Q 21.484375 6.890625 26.703125 6.890625 
Q 35.15625 6.890625 40.078125 11.328125 
Q 45.015625 15.765625 45.015625 23.390625 
Q 45.015625 31 40.078125 35.4375 
Q 35.15625 39.890625 26.703125 39.890625 
Q 22.75 39.890625 18.8125 39.015625 
Q 14.890625 38.140625 10.796875 36.28125 
z
" id="DejaVuSans-35"/>
      </defs>
      <g transform="translate(314.309763 305.897656)scale(0.15 -0.15)">
       <use xlink:href="#DejaVuSans-35"/>
      </g>
     </g>
    </g>
    <g id="xtick_7">
     <g id="line2d_13">
      <path clip-path="url(#p46c69a507b)" d="M 371.069216 285 
L 371.069216 13.2 
" style="fill:none;stroke:#b0b0b0;stroke-linecap:square;stroke-width:0.8;"/>
     </g>
     <g id="line2d_14">
      <g>
       <use x="371.069216" xlink:href="#mc78e02fbde" y="285"/>
      </g>
     </g>
     <g id="text_7">
      <!-- 6 -->
      <defs>
       <path d="M 33.015625 40.375 
Q 26.375 40.375 22.484375 35.828125 
Q 18.609375 31.296875 18.609375 23.390625 
Q 18.609375 15.53125 22.484375 10.953125 
Q 26.375 6.390625 33.015625 6.390625 
Q 39.65625 6.390625 43.53125 10.953125 
Q 47.40625 15.53125 47.40625 23.390625 
Q 47.40625 31.296875 43.53125 35.828125 
Q 39.65625 40.375 33.015625 40.375 
z
M 52.59375 71.296875 
L 52.59375 62.3125 
Q 48.875 64.0625 45.09375 64.984375 
Q 41.3125 65.921875 37.59375 65.921875 
Q 27.828125 65.921875 22.671875 59.328125 
Q 17.53125 52.734375 16.796875 39.40625 
Q 19.671875 43.65625 24.015625 45.921875 
Q 28.375 48.1875 33.59375 48.1875 
Q 44.578125 48.1875 50.953125 41.515625 
Q 57.328125 34.859375 57.328125 23.390625 
Q 57.328125 12.15625 50.6875 5.359375 
Q 44.046875 -1.421875 33.015625 -1.421875 
Q 20.359375 -1.421875 13.671875 8.265625 
Q 6.984375 17.96875 6.984375 36.375 
Q 6.984375 53.65625 15.1875 63.9375 
Q 23.390625 74.21875 37.203125 74.21875 
Q 40.921875 74.21875 44.703125 73.484375 
Q 48.484375 72.75 52.59375 71.296875 
z
" id="DejaVuSans-36"/>
      </defs>
      <g transform="translate(366.297341 305.897656)scale(0.15 -0.15)">
       <use xlink:href="#DejaVuSans-36"/>
      </g>
     </g>
    </g>
    <g id="xtick_8">
     <g id="line2d_15">
      <path clip-path="url(#p46c69a507b)" d="M 423.056793 285 
L 423.056793 13.2 
" style="fill:none;stroke:#b0b0b0;stroke-linecap:square;stroke-width:0.8;"/>
     </g>
     <g id="line2d_16">
      <g>
       <use x="423.056793" xlink:href="#mc78e02fbde" y="285"/>
      </g>
     </g>
     <g id="text_8">
      <!-- 7 -->
      <defs>
       <path d="M 8.203125 72.90625 
L 55.078125 72.90625 
L 55.078125 68.703125 
L 28.609375 0 
L 18.3125 0 
L 43.21875 64.59375 
L 8.203125 64.59375 
z
" id="DejaVuSans-37"/>
      </defs>
      <g transform="translate(418.284918 305.897656)scale(0.15 -0.15)">
       <use xlink:href="#DejaVuSans-37"/>
      </g>
     </g>
    </g>
    <g id="text_9">
     <!-- $t/\tau$ -->
     <defs>
      <path d="M 42.28125 54.6875 
L 40.921875 47.703125 
L 23 47.703125 
L 17.1875 18.015625 
Q 16.890625 16.359375 16.75 15.234375 
Q 16.609375 14.109375 16.609375 13.484375 
Q 16.609375 10.359375 18.484375 8.9375 
Q 20.359375 7.515625 24.515625 7.515625 
L 33.59375 7.515625 
L 32.078125 0 
L 23.484375 0 
Q 15.484375 0 11.546875 3.125 
Q 7.625 6.25 7.625 12.59375 
Q 7.625 13.71875 7.765625 15.0625 
Q 7.90625 16.40625 8.203125 18.015625 
L 14.015625 47.703125 
L 6.390625 47.703125 
L 7.8125 54.6875 
L 15.28125 54.6875 
L 18.3125 70.21875 
L 27.296875 70.21875 
L 24.3125 54.6875 
z
" id="DejaVuSans-Oblique-74"/>
      <path d="M 25.390625 72.90625 
L 33.6875 72.90625 
L 8.296875 -9.28125 
L 0 -9.28125 
z
" id="DejaVuSans-2f"/>
      <path d="M 32.859375 9.96875 
Q 34.1875 7.625 39.453125 7.625 
L 43.75 7.625 
L 42.28125 0 
L 36.921875 0 
Q 28.125 0 25 4.6875 
Q 21.921875 9.46875 23.96875 19.828125 
L 29 45.703125 
L 8.453125 45.703125 
L 10.203125 54.6875 
L 60.640625 54.6875 
L 58.890625 45.703125 
L 38.1875 45.703125 
L 33.015625 19.28125 
Q 31.640625 12.203125 32.859375 9.96875 
z
" id="DejaVuSans-Oblique-3c4"/>
     </defs>
     <g transform="translate(227.700272 328.214063)scale(0.2 -0.2)">
      <use transform="translate(0 0.09375)" xlink:href="#DejaVuSans-Oblique-74"/>
      <use transform="translate(39.208984 0.09375)" xlink:href="#DejaVuSans-2f"/>
      <use transform="translate(72.900391 0.09375)" xlink:href="#DejaVuSans-Oblique-3c4"/>
     </g>
    </g>
   </g>
   <g id="matplotlib.axis_2">
    <g id="ytick_1">
     <g id="line2d_17">
      <path clip-path="url(#p46c69a507b)" d="M 59.14375 272.645455 
L 423.056793 272.645455 
" style="fill:none;stroke:#b0b0b0;stroke-linecap:square;stroke-width:0.8;"/>
     </g>
     <g id="line2d_18">
      <defs>
       <path d="M 0 0 
L -6 0 
" id="m90c613fa11"/>
      </defs>
      <g>
       <use x="59.14375" xlink:href="#m90c613fa11" y="272.645455"/>
      </g>
     </g>
     <g id="text_10">
      <!-- 5 -->
      <g transform="translate(40.1 278.344283)scale(0.15 -0.15)">
       <use xlink:href="#DejaVuSans-35"/>
      </g>
     </g>
    </g>
    <g id="ytick_2">
     <g id="line2d_19">
      <path clip-path="url(#p46c69a507b)" d="M 59.14375 225.543605 
L 423.056793 225.543605 
" style="fill:none;stroke:#b0b0b0;stroke-linecap:square;stroke-width:0.8;"/>
     </g>
     <g id="line2d_20">
      <g>
       <use x="59.14375" xlink:href="#m90c613fa11" y="225.543605"/>
      </g>
     </g>
     <g id="text_11">
      <!-- 6 -->
      <g transform="translate(40.1 231.242433)scale(0.15 -0.15)">
       <use xlink:href="#DejaVuSans-36"/>
      </g>
     </g>
    </g>
    <g id="ytick_3">
     <g id="line2d_21">
      <path clip-path="url(#p46c69a507b)" d="M 59.14375 178.441755 
L 423.056793 178.441755 
" style="fill:none;stroke:#b0b0b0;stroke-linecap:square;stroke-width:0.8;"/>
     </g>
     <g id="line2d_22">
      <g>
       <use x="59.14375" xlink:href="#m90c613fa11" y="178.441755"/>
      </g>
     </g>
     <g id="text_12">
      <!-- 7 -->
      <g transform="translate(40.1 184.140583)scale(0.15 -0.15)">
       <use xlink:href="#DejaVuSans-37"/>
      </g>
     </g>
    </g>
    <g id="ytick_4">
     <g id="line2d_23">
      <path clip-path="url(#p46c69a507b)" d="M 59.14375 131.339906 
L 423.056793 131.339906 
" style="fill:none;stroke:#b0b0b0;stroke-linecap:square;stroke-width:0.8;"/>
     </g>
     <g id="line2d_24">
      <g>
       <use x="59.14375" xlink:href="#m90c613fa11" y="131.339906"/>
      </g>
     </g>
     <g id="text_13">
      <!-- 8 -->
      <defs>
       <path d="M 31.78125 34.625 
Q 24.75 34.625 20.71875 30.859375 
Q 16.703125 27.09375 16.703125 20.515625 
Q 16.703125 13.921875 20.71875 10.15625 
Q 24.75 6.390625 31.78125 6.390625 
Q 38.8125 6.390625 42.859375 10.171875 
Q 46.921875 13.96875 46.921875 20.515625 
Q 46.921875 27.09375 42.890625 30.859375 
Q 38.875 34.625 31.78125 34.625 
z
M 21.921875 38.8125 
Q 15.578125 40.375 12.03125 44.71875 
Q 8.5 49.078125 8.5 55.328125 
Q 8.5 64.0625 14.71875 69.140625 
Q 20.953125 74.21875 31.78125 74.21875 
Q 42.671875 74.21875 48.875 69.140625 
Q 55.078125 64.0625 55.078125 55.328125 
Q 55.078125 49.078125 51.53125 44.71875 
Q 48 40.375 41.703125 38.8125 
Q 48.828125 37.15625 52.796875 32.3125 
Q 56.78125 27.484375 56.78125 20.515625 
Q 56.78125 9.90625 50.3125 4.234375 
Q 43.84375 -1.421875 31.78125 -1.421875 
Q 19.734375 -1.421875 13.25 4.234375 
Q 6.78125 9.90625 6.78125 20.515625 
Q 6.78125 27.484375 10.78125 32.3125 
Q 14.796875 37.15625 21.921875 38.8125 
z
M 18.3125 54.390625 
Q 18.3125 48.734375 21.84375 45.5625 
Q 25.390625 42.390625 31.78125 42.390625 
Q 38.140625 42.390625 41.71875 45.5625 
Q 45.3125 48.734375 45.3125 54.390625 
Q 45.3125 60.0625 41.71875 63.234375 
Q 38.140625 66.40625 31.78125 66.40625 
Q 25.390625 66.40625 21.84375 63.234375 
Q 18.3125 60.0625 18.3125 54.390625 
z
" id="DejaVuSans-38"/>
      </defs>
      <g transform="translate(40.1 137.038734)scale(0.15 -0.15)">
       <use xlink:href="#DejaVuSans-38"/>
      </g>
     </g>
    </g>
    <g id="ytick_5">
     <g id="line2d_25">
      <path clip-path="url(#p46c69a507b)" d="M 59.14375 84.238056 
L 423.056793 84.238056 
" style="fill:none;stroke:#b0b0b0;stroke-linecap:square;stroke-width:0.8;"/>
     </g>
     <g id="line2d_26">
      <g>
       <use x="59.14375" xlink:href="#m90c613fa11" y="84.238056"/>
      </g>
     </g>
     <g id="text_14">
      <!-- 9 -->
      <defs>
       <path d="M 10.984375 1.515625 
L 10.984375 10.5 
Q 14.703125 8.734375 18.5 7.8125 
Q 22.3125 6.890625 25.984375 6.890625 
Q 35.75 6.890625 40.890625 13.453125 
Q 46.046875 20.015625 46.78125 33.40625 
Q 43.953125 29.203125 39.59375 26.953125 
Q 35.25 24.703125 29.984375 24.703125 
Q 19.046875 24.703125 12.671875 31.3125 
Q 6.296875 37.9375 6.296875 49.421875 
Q 6.296875 60.640625 12.9375 67.421875 
Q 19.578125 74.21875 30.609375 74.21875 
Q 43.265625 74.21875 49.921875 64.515625 
Q 56.59375 54.828125 56.59375 36.375 
Q 56.59375 19.140625 48.40625 8.859375 
Q 40.234375 -1.421875 26.421875 -1.421875 
Q 22.703125 -1.421875 18.890625 -0.6875 
Q 15.09375 0.046875 10.984375 1.515625 
z
M 30.609375 32.421875 
Q 37.25 32.421875 41.125 36.953125 
Q 45.015625 41.5 45.015625 49.421875 
Q 45.015625 57.28125 41.125 61.84375 
Q 37.25 66.40625 30.609375 66.40625 
Q 23.96875 66.40625 20.09375 61.84375 
Q 16.21875 57.28125 16.21875 49.421875 
Q 16.21875 41.5 20.09375 36.953125 
Q 23.96875 32.421875 30.609375 32.421875 
z
" id="DejaVuSans-39"/>
      </defs>
      <g transform="translate(40.1 89.936884)scale(0.15 -0.15)">
       <use xlink:href="#DejaVuSans-39"/>
      </g>
     </g>
    </g>
    <g id="ytick_6">
     <g id="line2d_27">
      <path clip-path="url(#p46c69a507b)" d="M 59.14375 37.136206 
L 423.056793 37.136206 
" style="fill:none;stroke:#b0b0b0;stroke-linecap:square;stroke-width:0.8;"/>
     </g>
     <g id="line2d_28">
      <g>
       <use x="59.14375" xlink:href="#m90c613fa11" y="37.136206"/>
      </g>
     </g>
     <g id="text_15">
      <!-- 10 -->
      <g transform="translate(30.55625 42.835034)scale(0.15 -0.15)">
       <use xlink:href="#DejaVuSans-31"/>
       <use x="63.623047" xlink:href="#DejaVuSans-30"/>
      </g>
     </g>
    </g>
    <g id="text_16">
     <!-- $\langle r\rangle$ -->
     <defs>
      <path d="M 8.9375 31.34375 
L 22.703125 75.875 
L 31 75.875 
L 17.234375 31.34375 
L 31 -13.1875 
L 22.703125 -13.1875 
z
" id="DejaVuSans-27e8"/>
      <path d="M 44.578125 46.390625 
Q 43.21875 47.125 41.453125 47.515625 
Q 39.703125 47.90625 37.703125 47.90625 
Q 30.515625 47.90625 25.140625 42.453125 
Q 19.78125 37.015625 18.015625 27.875 
L 12.5 0 
L 3.515625 0 
L 14.203125 54.6875 
L 23.1875 54.6875 
L 21.484375 46.1875 
Q 25.046875 50.921875 30 53.453125 
Q 34.96875 56 40.578125 56 
Q 42.046875 56 43.453125 55.828125 
Q 44.875 55.671875 46.296875 55.28125 
z
" id="DejaVuSans-Oblique-72"/>
      <path d="M 30.078125 31.34375 
L 16.3125 -13.1875 
L 8.015625 -13.1875 
L 21.78125 31.34375 
L 8.015625 75.875 
L 16.3125 75.875 
z
" id="DejaVuSans-27e9"/>
     </defs>
     <g transform="translate(22.396875 161.1)rotate(-90)scale(0.2 -0.2)">
      <use transform="translate(0 0.125)" xlink:href="#DejaVuSans-27e8"/>
      <use transform="translate(39.013672 0.125)" xlink:href="#DejaVuSans-Oblique-72"/>
      <use transform="translate(80.126953 0.125)" xlink:href="#DejaVuSans-27e9"/>
     </g>
    </g>
   </g>
   <g id="line2d_29">
    <path clip-path="url(#p46c69a507b)" d="M 59.14375 272.645455 
L 64.342508 193.846354 
L 69.541266 141.244735 
L 74.740023 107.239365 
L 79.938781 82.146209 
L 85.137539 67.436196 
L 90.336297 57.451812 
L 95.535054 51.177489 
L 100.733812 46.864534 
L 105.93257 45.27684 
L 111.131328 42.235177 
L 116.330085 41.124948 
L 121.528843 41.604243 
L 126.727601 40.191762 
L 131.926359 37.744533 
L 137.125116 38.877675 
L 142.323874 40.232168 
L 147.522632 40.199338 
L 152.72139 40.659392 
L 157.920148 39.536262 
L 163.118905 35.857712 
L 168.317663 36.671194 
L 173.516421 37.045622 
L 178.715179 39.012259 
L 183.913936 37.848325 
L 189.112694 36.44797 
L 194.311452 38.419294 
L 199.51021 36.827006 
L 204.708967 37.146078 
L 209.907725 38.897385 
L 215.106483 36.788708 
L 220.305241 37.530292 
L 225.503998 36.962662 
L 230.702756 38.153673 
L 235.901514 35.351921 
L 241.100272 34.493571 
L 246.29903 33.573463 
L 251.497787 34.267301 
L 256.696545 33.006751 
L 261.895303 35.84338 
L 267.094061 34.536215 
L 272.292818 33.164046 
L 277.491576 32.946131 
L 282.690334 34.907681 
L 287.889092 35.154974 
L 293.087849 34.871898 
L 298.286607 36.72793 
L 303.485365 35.517521 
L 308.684123 35.165972 
L 313.88288 35.443451 
L 319.081638 37.882315 
L 324.280396 37.392074 
L 329.479154 39.170832 
L 334.677911 37.562549 
L 339.876669 38.645862 
L 345.075427 36.784807 
L 350.274185 36.126723 
L 355.472943 35.764593 
L 360.6717 37.564054 
L 365.870458 37.510672 
L 371.069216 37.073415 
L 376.267974 36.636677 
L 381.466731 35.478496 
L 386.665489 35.81694 
L 391.864247 35.848498 
L 397.063005 36.185254 
L 402.261762 36.659377 
L 407.46052 37.286853 
L 412.659278 36.441108 
L 417.858036 36.735959 
" style="fill:none;stroke:#1f77b4;stroke-linecap:square;stroke-width:3;"/>
   </g>
   <g id="line2d_30">
    <path clip-path="url(#p46c69a507b)" d="M 59.14375 272.645455 
L 64.342508 193.294907 
L 69.541266 136.273529 
L 74.740023 102.04207 
L 79.938781 82.452283 
L 85.137539 65.896443 
L 90.336297 55.987819 
L 95.535054 56.5097 
L 100.733812 49.216329 
L 105.93257 45.039563 
L 111.131328 39.835773 
L 116.330085 39.553131 
L 121.528843 39.654452 
L 126.727601 35.611027 
L 131.926359 35.596445 
L 137.125116 35.438667 
L 142.323874 31.831707 
L 147.522632 33.98254 
L 152.72139 34.645538 
L 157.920148 40.744023 
L 163.118905 37.092677 
L 168.317663 34.037686 
L 173.516421 32.178798 
L 178.715179 34.497319 
L 183.913936 37.984997 
L 189.112694 39.93997 
L 194.311452 39.15884 
L 199.51021 40.172437 
L 204.708967 36.0889 
L 209.907725 37.649102 
L 215.106483 33.886709 
L 220.305241 36.141356 
L 225.503998 34.471615 
L 230.702756 38.073419 
L 235.901514 36.763884 
L 241.100272 35.445021 
L 246.29903 37.629669 
L 251.497787 37.479778 
L 256.696545 36.693369 
L 261.895303 35.705879 
L 267.094061 36.146015 
L 272.292818 40.817475 
L 277.491576 39.145435 
L 282.690334 40.338426 
L 287.889092 38.110764 
L 293.087849 37.081011 
L 298.286607 36.478492 
L 303.485365 37.066709 
L 308.684123 36.436848 
L 313.88288 36.455629 
L 319.081638 34.358594 
L 324.280396 37.097504 
L 329.479154 38.974792 
L 334.677911 37.275925 
L 339.876669 36.654309 
L 345.075427 36.81856 
L 350.274185 36.768158 
L 355.472943 36.173927 
L 360.6717 37.1492 
L 365.870458 36.156698 
L 371.069216 37.720036 
L 376.267974 37.27541 
L 381.466731 37.269497 
L 386.665489 36.566325 
L 391.864247 36.310712 
L 397.063005 36.630879 
L 402.261762 37.078422 
L 407.46052 37.272924 
L 412.659278 37.68867 
L 417.858036 36.781653 
" style="fill:none;stroke:#ff7f0e;stroke-linecap:square;stroke-width:3;"/>
   </g>
   <g id="line2d_31">
    <path clip-path="url(#p46c69a507b)" d="M 59.14375 272.645455 
L 64.342508 193.286557 
L 69.541266 136.09803 
L 74.740023 101.961803 
L 79.938781 82.565298 
L 85.137539 66.573748 
L 90.336297 56.03871 
L 95.535054 57.187023 
L 100.733812 51.107137 
L 105.93257 47.473321 
L 111.131328 42.373806 
L 116.330085 40.380194 
L 121.528843 40.214779 
L 126.727601 35.510093 
L 131.926359 36.233065 
L 137.125116 35.904972 
L 142.323874 32.062856 
L 147.522632 33.628301 
L 152.72139 34.389304 
L 157.920148 41.238762 
L 163.118905 37.986094 
L 168.317663 34.669422 
L 173.516421 32.277813 
L 178.715179 34.602301 
L 183.913936 37.636261 
L 189.112694 39.495579 
L 194.311452 38.720464 
L 199.51021 40.421029 
L 204.708967 36.188575 
L 209.907725 38.00138 
L 215.106483 34.753314 
L 220.305241 36.215001 
L 225.503998 34.571781 
L 230.702756 38.148612 
L 235.901514 36.89882 
L 241.100272 35.620408 
L 246.29903 37.905885 
L 251.497787 37.578023 
L 256.696545 36.631052 
L 261.895303 35.740351 
L 267.094061 36.149624 
L 272.292818 40.78856 
L 277.491576 39.056006 
L 282.690334 40.603808 
L 287.889092 37.893228 
L 293.087849 36.954495 
L 298.286607 36.432736 
L 303.485365 37.001582 
L 308.684123 36.438316 
L 313.88288 36.499123 
L 319.081638 34.250599 
L 324.280396 36.962545 
L 329.479154 38.828603 
L 334.677911 37.19843 
L 339.876669 36.621792 
L 345.075427 36.809485 
L 350.274185 36.661039 
L 355.472943 36.087147 
L 360.6717 37.120309 
L 365.870458 36.081936 
L 371.069216 37.660381 
L 376.267974 37.296761 
L 381.466731 37.262631 
L 386.665489 36.558516 
L 391.864247 36.268817 
L 397.063005 36.676032 
L 402.261762 37.027142 
L 407.46052 37.257723 
L 412.659278 37.697136 
L 417.858036 36.783142 
" style="fill:none;stroke:#319000;stroke-linecap:square;stroke-width:3;"/>
   </g>
   <g id="patch_3">
    <path d="M 59.14375 285 
L 59.14375 13.2 
" style="fill:none;stroke:#000000;stroke-linecap:square;stroke-linejoin:miter;stroke-width:2;"/>
   </g>
   <g id="patch_4">
    <path d="M 423.056793 285 
L 423.056793 13.2 
" style="fill:none;"/>
   </g>
   <g id="patch_5">
    <path d="M 59.14375 285 
L 423.056793 285 
" style="fill:none;stroke:#000000;stroke-linecap:square;stroke-linejoin:miter;stroke-width:2;"/>
   </g>
   <g id="patch_6">
    <path d="M 59.14375 13.2 
L 423.056793 13.2 
" style="fill:none;"/>
   </g>
   <g id="legend_1">
    <g id="patch_7">
     <path d="M 69.64375 277.5 
L 279.683594 277.5 
Q 282.683594 277.5 282.683594 274.5 
L 282.683594 209.948438 
Q 282.683594 206.948438 279.683594 206.948438 
L 69.64375 206.948438 
Q 66.64375 206.948438 66.64375 209.948438 
L 66.64375 274.5 
Q 66.64375 277.5 69.64375 277.5 
z
" style="fill:#ffffff;opacity:0.8;stroke:#cccccc;stroke-linejoin:miter;"/>
    </g>
    <g id="line2d_32">
     <path d="M 72.64375 219.096094 
L 102.64375 219.096094 
" style="fill:none;stroke:#1f77b4;stroke-linecap:square;stroke-width:3;"/>
    </g>
    <g id="line2d_33"/>
    <g id="text_17">
     <!-- Single Lineage -->
     <defs>
      <path d="M 53.515625 70.515625 
L 53.515625 60.890625 
Q 47.90625 63.578125 42.921875 64.890625 
Q 37.9375 66.21875 33.296875 66.21875 
Q 25.25 66.21875 20.875 63.09375 
Q 16.5 59.96875 16.5 54.203125 
Q 16.5 49.359375 19.40625 46.890625 
Q 22.3125 44.4375 30.421875 42.921875 
L 36.375 41.703125 
Q 47.40625 39.59375 52.65625 34.296875 
Q 57.90625 29 57.90625 20.125 
Q 57.90625 9.515625 50.796875 4.046875 
Q 43.703125 -1.421875 29.984375 -1.421875 
Q 24.8125 -1.421875 18.96875 -0.25 
Q 13.140625 0.921875 6.890625 3.21875 
L 6.890625 13.375 
Q 12.890625 10.015625 18.65625 8.296875 
Q 24.421875 6.59375 29.984375 6.59375 
Q 38.421875 6.59375 43.015625 9.90625 
Q 47.609375 13.234375 47.609375 19.390625 
Q 47.609375 24.75 44.3125 27.78125 
Q 41.015625 30.8125 33.5 32.328125 
L 27.484375 33.5 
Q 16.453125 35.6875 11.515625 40.375 
Q 6.59375 45.0625 6.59375 53.421875 
Q 6.59375 63.09375 13.40625 68.65625 
Q 20.21875 74.21875 32.171875 74.21875 
Q 37.3125 74.21875 42.625 73.28125 
Q 47.953125 72.359375 53.515625 70.515625 
z
" id="DejaVuSans-53"/>
      <path d="M 9.421875 54.6875 
L 18.40625 54.6875 
L 18.40625 0 
L 9.421875 0 
z
M 9.421875 75.984375 
L 18.40625 75.984375 
L 18.40625 64.59375 
L 9.421875 64.59375 
z
" id="DejaVuSans-69"/>
      <path d="M 54.890625 33.015625 
L 54.890625 0 
L 45.90625 0 
L 45.90625 32.71875 
Q 45.90625 40.484375 42.875 44.328125 
Q 39.84375 48.1875 33.796875 48.1875 
Q 26.515625 48.1875 22.3125 43.546875 
Q 18.109375 38.921875 18.109375 30.90625 
L 18.109375 0 
L 9.078125 0 
L 9.078125 54.6875 
L 18.109375 54.6875 
L 18.109375 46.1875 
Q 21.34375 51.125 25.703125 53.5625 
Q 30.078125 56 35.796875 56 
Q 45.21875 56 50.046875 50.171875 
Q 54.890625 44.34375 54.890625 33.015625 
z
" id="DejaVuSans-6e"/>
      <path d="M 45.40625 27.984375 
Q 45.40625 37.75 41.375 43.109375 
Q 37.359375 48.484375 30.078125 48.484375 
Q 22.859375 48.484375 18.828125 43.109375 
Q 14.796875 37.75 14.796875 27.984375 
Q 14.796875 18.265625 18.828125 12.890625 
Q 22.859375 7.515625 30.078125 7.515625 
Q 37.359375 7.515625 41.375 12.890625 
Q 45.40625 18.265625 45.40625 27.984375 
z
M 54.390625 6.78125 
Q 54.390625 -7.171875 48.1875 -13.984375 
Q 42 -20.796875 29.203125 -20.796875 
Q 24.46875 -20.796875 20.265625 -20.09375 
Q 16.0625 -19.390625 12.109375 -17.921875 
L 12.109375 -9.1875 
Q 16.0625 -11.328125 19.921875 -12.34375 
Q 23.78125 -13.375 27.78125 -13.375 
Q 36.625 -13.375 41.015625 -8.765625 
Q 45.40625 -4.15625 45.40625 5.171875 
L 45.40625 9.625 
Q 42.625 4.78125 38.28125 2.390625 
Q 33.9375 0 27.875 0 
Q 17.828125 0 11.671875 7.65625 
Q 5.515625 15.328125 5.515625 27.984375 
Q 5.515625 40.671875 11.671875 48.328125 
Q 17.828125 56 27.875 56 
Q 33.9375 56 38.28125 53.609375 
Q 42.625 51.21875 45.40625 46.390625 
L 45.40625 54.6875 
L 54.390625 54.6875 
z
" id="DejaVuSans-67"/>
      <path d="M 9.421875 75.984375 
L 18.40625 75.984375 
L 18.40625 0 
L 9.421875 0 
z
" id="DejaVuSans-6c"/>
      <path d="M 56.203125 29.59375 
L 56.203125 25.203125 
L 14.890625 25.203125 
Q 15.484375 15.921875 20.484375 11.0625 
Q 25.484375 6.203125 34.421875 6.203125 
Q 39.59375 6.203125 44.453125 7.46875 
Q 49.3125 8.734375 54.109375 11.28125 
L 54.109375 2.78125 
Q 49.265625 0.734375 44.1875 -0.34375 
Q 39.109375 -1.421875 33.890625 -1.421875 
Q 20.796875 -1.421875 13.15625 6.1875 
Q 5.515625 13.8125 5.515625 26.8125 
Q 5.515625 40.234375 12.765625 48.109375 
Q 20.015625 56 32.328125 56 
Q 43.359375 56 49.78125 48.890625 
Q 56.203125 41.796875 56.203125 29.59375 
z
M 47.21875 32.234375 
Q 47.125 39.59375 43.09375 43.984375 
Q 39.0625 48.390625 32.421875 48.390625 
Q 24.90625 48.390625 20.390625 44.140625 
Q 15.875 39.890625 15.1875 32.171875 
z
" id="DejaVuSans-65"/>
      <path id="DejaVuSans-20"/>
      <path d="M 9.8125 72.90625 
L 19.671875 72.90625 
L 19.671875 8.296875 
L 55.171875 8.296875 
L 55.171875 0 
L 9.8125 0 
z
" id="DejaVuSans-4c"/>
      <path d="M 34.28125 27.484375 
Q 23.390625 27.484375 19.1875 25 
Q 14.984375 22.515625 14.984375 16.5 
Q 14.984375 11.71875 18.140625 8.90625 
Q 21.296875 6.109375 26.703125 6.109375 
Q 34.1875 6.109375 38.703125 11.40625 
Q 43.21875 16.703125 43.21875 25.484375 
L 43.21875 27.484375 
z
M 52.203125 31.203125 
L 52.203125 0 
L 43.21875 0 
L 43.21875 8.296875 
Q 40.140625 3.328125 35.546875 0.953125 
Q 30.953125 -1.421875 24.3125 -1.421875 
Q 15.921875 -1.421875 10.953125 3.296875 
Q 6 8.015625 6 15.921875 
Q 6 25.140625 12.171875 29.828125 
Q 18.359375 34.515625 30.609375 34.515625 
L 43.21875 34.515625 
L 43.21875 35.40625 
Q 43.21875 41.609375 39.140625 45 
Q 35.0625 48.390625 27.6875 48.390625 
Q 23 48.390625 18.546875 47.265625 
Q 14.109375 46.140625 10.015625 43.890625 
L 10.015625 52.203125 
Q 14.9375 54.109375 19.578125 55.046875 
Q 24.21875 56 28.609375 56 
Q 40.484375 56 46.34375 49.84375 
Q 52.203125 43.703125 52.203125 31.203125 
z
" id="DejaVuSans-61"/>
     </defs>
     <g transform="translate(114.64375 224.346094)scale(0.15 -0.15)">
      <use xlink:href="#DejaVuSans-53"/>
      <use x="63.476562" xlink:href="#DejaVuSans-69"/>
      <use x="91.259766" xlink:href="#DejaVuSans-6e"/>
      <use x="154.638672" xlink:href="#DejaVuSans-67"/>
      <use x="218.115234" xlink:href="#DejaVuSans-6c"/>
      <use x="245.898438" xlink:href="#DejaVuSans-65"/>
      <use x="307.421875" xlink:href="#DejaVuSans-20"/>
      <use x="339.208984" xlink:href="#DejaVuSans-4c"/>
      <use x="394.921875" xlink:href="#DejaVuSans-69"/>
      <use x="422.705078" xlink:href="#DejaVuSans-6e"/>
      <use x="486.083984" xlink:href="#DejaVuSans-65"/>
      <use x="547.607422" xlink:href="#DejaVuSans-61"/>
      <use x="608.886719" xlink:href="#DejaVuSans-67"/>
      <use x="672.363281" xlink:href="#DejaVuSans-65"/>
     </g>
    </g>
    <g id="line2d_34">
     <path d="M 72.64375 241.113281 
L 102.64375 241.113281 
" style="fill:none;stroke:#ff7f0e;stroke-linecap:square;stroke-width:3;"/>
    </g>
    <g id="line2d_35"/>
    <g id="text_18">
     <!-- Population Snapshots -->
     <defs>
      <path d="M 19.671875 64.796875 
L 19.671875 37.40625 
L 32.078125 37.40625 
Q 38.96875 37.40625 42.71875 40.96875 
Q 46.484375 44.53125 46.484375 51.125 
Q 46.484375 57.671875 42.71875 61.234375 
Q 38.96875 64.796875 32.078125 64.796875 
z
M 9.8125 72.90625 
L 32.078125 72.90625 
Q 44.34375 72.90625 50.609375 67.359375 
Q 56.890625 61.8125 56.890625 51.125 
Q 56.890625 40.328125 50.609375 34.8125 
Q 44.34375 29.296875 32.078125 29.296875 
L 19.671875 29.296875 
L 19.671875 0 
L 9.8125 0 
z
" id="DejaVuSans-50"/>
      <path d="M 30.609375 48.390625 
Q 23.390625 48.390625 19.1875 42.75 
Q 14.984375 37.109375 14.984375 27.296875 
Q 14.984375 17.484375 19.15625 11.84375 
Q 23.34375 6.203125 30.609375 6.203125 
Q 37.796875 6.203125 41.984375 11.859375 
Q 46.1875 17.53125 46.1875 27.296875 
Q 46.1875 37.015625 41.984375 42.703125 
Q 37.796875 48.390625 30.609375 48.390625 
z
M 30.609375 56 
Q 42.328125 56 49.015625 48.375 
Q 55.71875 40.765625 55.71875 27.296875 
Q 55.71875 13.875 49.015625 6.21875 
Q 42.328125 -1.421875 30.609375 -1.421875 
Q 18.84375 -1.421875 12.171875 6.21875 
Q 5.515625 13.875 5.515625 27.296875 
Q 5.515625 40.765625 12.171875 48.375 
Q 18.84375 56 30.609375 56 
z
" id="DejaVuSans-6f"/>
      <path d="M 18.109375 8.203125 
L 18.109375 -20.796875 
L 9.078125 -20.796875 
L 9.078125 54.6875 
L 18.109375 54.6875 
L 18.109375 46.390625 
Q 20.953125 51.265625 25.265625 53.625 
Q 29.59375 56 35.59375 56 
Q 45.5625 56 51.78125 48.09375 
Q 58.015625 40.1875 58.015625 27.296875 
Q 58.015625 14.40625 51.78125 6.484375 
Q 45.5625 -1.421875 35.59375 -1.421875 
Q 29.59375 -1.421875 25.265625 0.953125 
Q 20.953125 3.328125 18.109375 8.203125 
z
M 48.6875 27.296875 
Q 48.6875 37.203125 44.609375 42.84375 
Q 40.53125 48.484375 33.40625 48.484375 
Q 26.265625 48.484375 22.1875 42.84375 
Q 18.109375 37.203125 18.109375 27.296875 
Q 18.109375 17.390625 22.1875 11.75 
Q 26.265625 6.109375 33.40625 6.109375 
Q 40.53125 6.109375 44.609375 11.75 
Q 48.6875 17.390625 48.6875 27.296875 
z
" id="DejaVuSans-70"/>
      <path d="M 8.5 21.578125 
L 8.5 54.6875 
L 17.484375 54.6875 
L 17.484375 21.921875 
Q 17.484375 14.15625 20.5 10.265625 
Q 23.53125 6.390625 29.59375 6.390625 
Q 36.859375 6.390625 41.078125 11.03125 
Q 45.3125 15.671875 45.3125 23.6875 
L 45.3125 54.6875 
L 54.296875 54.6875 
L 54.296875 0 
L 45.3125 0 
L 45.3125 8.40625 
Q 42.046875 3.421875 37.71875 1 
Q 33.40625 -1.421875 27.6875 -1.421875 
Q 18.265625 -1.421875 13.375 4.4375 
Q 8.5 10.296875 8.5 21.578125 
z
M 31.109375 56 
z
" id="DejaVuSans-75"/>
      <path d="M 18.3125 70.21875 
L 18.3125 54.6875 
L 36.8125 54.6875 
L 36.8125 47.703125 
L 18.3125 47.703125 
L 18.3125 18.015625 
Q 18.3125 11.328125 20.140625 9.421875 
Q 21.96875 7.515625 27.59375 7.515625 
L 36.8125 7.515625 
L 36.8125 0 
L 27.59375 0 
Q 17.1875 0 13.234375 3.875 
Q 9.28125 7.765625 9.28125 18.015625 
L 9.28125 47.703125 
L 2.6875 47.703125 
L 2.6875 54.6875 
L 9.28125 54.6875 
L 9.28125 70.21875 
z
" id="DejaVuSans-74"/>
      <path d="M 44.28125 53.078125 
L 44.28125 44.578125 
Q 40.484375 46.53125 36.375 47.5 
Q 32.28125 48.484375 27.875 48.484375 
Q 21.1875 48.484375 17.84375 46.4375 
Q 14.5 44.390625 14.5 40.28125 
Q 14.5 37.15625 16.890625 35.375 
Q 19.28125 33.59375 26.515625 31.984375 
L 29.59375 31.296875 
Q 39.15625 29.25 43.1875 25.515625 
Q 47.21875 21.78125 47.21875 15.09375 
Q 47.21875 7.46875 41.1875 3.015625 
Q 35.15625 -1.421875 24.609375 -1.421875 
Q 20.21875 -1.421875 15.453125 -0.5625 
Q 10.6875 0.296875 5.421875 2 
L 5.421875 11.28125 
Q 10.40625 8.6875 15.234375 7.390625 
Q 20.0625 6.109375 24.8125 6.109375 
Q 31.15625 6.109375 34.5625 8.28125 
Q 37.984375 10.453125 37.984375 14.40625 
Q 37.984375 18.0625 35.515625 20.015625 
Q 33.0625 21.96875 24.703125 23.78125 
L 21.578125 24.515625 
Q 13.234375 26.265625 9.515625 29.90625 
Q 5.8125 33.546875 5.8125 39.890625 
Q 5.8125 47.609375 11.28125 51.796875 
Q 16.75 56 26.8125 56 
Q 31.78125 56 36.171875 55.265625 
Q 40.578125 54.546875 44.28125 53.078125 
z
" id="DejaVuSans-73"/>
      <path d="M 54.890625 33.015625 
L 54.890625 0 
L 45.90625 0 
L 45.90625 32.71875 
Q 45.90625 40.484375 42.875 44.328125 
Q 39.84375 48.1875 33.796875 48.1875 
Q 26.515625 48.1875 22.3125 43.546875 
Q 18.109375 38.921875 18.109375 30.90625 
L 18.109375 0 
L 9.078125 0 
L 9.078125 75.984375 
L 18.109375 75.984375 
L 18.109375 46.1875 
Q 21.34375 51.125 25.703125 53.5625 
Q 30.078125 56 35.796875 56 
Q 45.21875 56 50.046875 50.171875 
Q 54.890625 44.34375 54.890625 33.015625 
z
" id="DejaVuSans-68"/>
     </defs>
     <g transform="translate(114.64375 246.363281)scale(0.15 -0.15)">
      <use xlink:href="#DejaVuSans-50"/>
      <use x="60.255859" xlink:href="#DejaVuSans-6f"/>
      <use x="121.4375" xlink:href="#DejaVuSans-70"/>
      <use x="184.914062" xlink:href="#DejaVuSans-75"/>
      <use x="248.292969" xlink:href="#DejaVuSans-6c"/>
      <use x="276.076172" xlink:href="#DejaVuSans-61"/>
      <use x="337.355469" xlink:href="#DejaVuSans-74"/>
      <use x="376.564453" xlink:href="#DejaVuSans-69"/>
      <use x="404.347656" xlink:href="#DejaVuSans-6f"/>
      <use x="465.529297" xlink:href="#DejaVuSans-6e"/>
      <use x="528.908203" xlink:href="#DejaVuSans-20"/>
      <use x="560.695312" xlink:href="#DejaVuSans-53"/>
      <use x="624.171875" xlink:href="#DejaVuSans-6e"/>
      <use x="687.550781" xlink:href="#DejaVuSans-61"/>
      <use x="748.830078" xlink:href="#DejaVuSans-70"/>
      <use x="812.306641" xlink:href="#DejaVuSans-73"/>
      <use x="864.40625" xlink:href="#DejaVuSans-68"/>
      <use x="927.785156" xlink:href="#DejaVuSans-6f"/>
      <use x="988.966797" xlink:href="#DejaVuSans-74"/>
      <use x="1028.175781" xlink:href="#DejaVuSans-73"/>
     </g>
    </g>
    <g id="line2d_36">
     <path d="M 72.64375 263.130469 
L 102.64375 263.130469 
" style="fill:none;stroke:#319000;stroke-linecap:square;stroke-width:3;"/>
    </g>
    <g id="line2d_37"/>
    <g id="text_19">
     <!-- Lineage Tracking -->
     <defs>
      <path d="M -0.296875 72.90625 
L 61.375 72.90625 
L 61.375 64.59375 
L 35.5 64.59375 
L 35.5 0 
L 25.59375 0 
L 25.59375 64.59375 
L -0.296875 64.59375 
z
" id="DejaVuSans-54"/>
      <path d="M 41.109375 46.296875 
Q 39.59375 47.171875 37.8125 47.578125 
Q 36.03125 48 33.890625 48 
Q 26.265625 48 22.1875 43.046875 
Q 18.109375 38.09375 18.109375 28.8125 
L 18.109375 0 
L 9.078125 0 
L 9.078125 54.6875 
L 18.109375 54.6875 
L 18.109375 46.1875 
Q 20.953125 51.171875 25.484375 53.578125 
Q 30.03125 56 36.53125 56 
Q 37.453125 56 38.578125 55.875 
Q 39.703125 55.765625 41.0625 55.515625 
z
" id="DejaVuSans-72"/>
      <path d="M 48.78125 52.59375 
L 48.78125 44.1875 
Q 44.96875 46.296875 41.140625 47.34375 
Q 37.3125 48.390625 33.40625 48.390625 
Q 24.65625 48.390625 19.8125 42.84375 
Q 14.984375 37.3125 14.984375 27.296875 
Q 14.984375 17.28125 19.8125 11.734375 
Q 24.65625 6.203125 33.40625 6.203125 
Q 37.3125 6.203125 41.140625 7.25 
Q 44.96875 8.296875 48.78125 10.40625 
L 48.78125 2.09375 
Q 45.015625 0.34375 40.984375 -0.53125 
Q 36.96875 -1.421875 32.421875 -1.421875 
Q 20.0625 -1.421875 12.78125 6.34375 
Q 5.515625 14.109375 5.515625 27.296875 
Q 5.515625 40.671875 12.859375 48.328125 
Q 20.21875 56 33.015625 56 
Q 37.15625 56 41.109375 55.140625 
Q 45.0625 54.296875 48.78125 52.59375 
z
" id="DejaVuSans-63"/>
      <path d="M 9.078125 75.984375 
L 18.109375 75.984375 
L 18.109375 31.109375 
L 44.921875 54.6875 
L 56.390625 54.6875 
L 27.390625 29.109375 
L 57.625 0 
L 45.90625 0 
L 18.109375 26.703125 
L 18.109375 0 
L 9.078125 0 
z
" id="DejaVuSans-6b"/>
     </defs>
     <g transform="translate(114.64375 268.380469)scale(0.15 -0.15)">
      <use xlink:href="#DejaVuSans-4c"/>
      <use x="55.712891" xlink:href="#DejaVuSans-69"/>
      <use x="83.496094" xlink:href="#DejaVuSans-6e"/>
      <use x="146.875" xlink:href="#DejaVuSans-65"/>
      <use x="208.398438" xlink:href="#DejaVuSans-61"/>
      <use x="269.677734" xlink:href="#DejaVuSans-67"/>
      <use x="333.154297" xlink:href="#DejaVuSans-65"/>
      <use x="394.677734" xlink:href="#DejaVuSans-20"/>
      <use x="426.464844" xlink:href="#DejaVuSans-54"/>
      <use x="487.330078" xlink:href="#DejaVuSans-72"/>
      <use x="528.443359" xlink:href="#DejaVuSans-61"/>
      <use x="589.722656" xlink:href="#DejaVuSans-63"/>
      <use x="644.703125" xlink:href="#DejaVuSans-6b"/>
      <use x="702.613281" xlink:href="#DejaVuSans-69"/>
      <use x="730.396484" xlink:href="#DejaVuSans-6e"/>
      <use x="793.775391" xlink:href="#DejaVuSans-67"/>
     </g>
    </g>
   </g>
  </g>
  <g id="axes_2">
   <g id="patch_8">
    <path d="M 532.230707 285 
L 896.14375 285 
L 896.14375 13.2 
L 532.230707 13.2 
z
" style="fill:#ffffff;"/>
   </g>
   <g id="PolyCollection_4">
    <defs>
     <path d="M 532.230707 -67.0013 
L 532.230707 -67.0013 
L 537.429464 -262.408317 
L 542.628222 -266.053151 
L 547.82698 -231.710279 
L 553.025738 -237.28829 
L 558.224495 -227.550376 
L 563.423253 -232.092687 
L 568.622011 -226.612064 
L 573.820769 -246.09859 
L 579.019526 -239.916292 
L 584.218284 -242.770352 
L 589.417042 -242.014903 
L 594.6158 -236.997042 
L 599.814557 -234.205435 
L 605.013315 -230.17614 
L 610.212073 -226.419817 
L 615.410831 -223.961052 
L 620.609589 -238.794935 
L 625.808346 -253.399789 
L 631.007104 -251.887835 
L 636.205862 -250.759903 
L 641.40462 -253.819877 
L 646.603377 -235.387828 
L 651.802135 -239.175421 
L 657.000893 -242.999973 
L 662.199651 -237.543183 
L 667.398408 -227.098074 
L 672.597166 -237.350527 
L 677.795924 -244.038264 
L 682.994682 -252.738916 
L 688.193439 -255.910556 
L 693.392197 -258.307978 
L 698.590955 -256.639572 
L 703.789713 -248.291677 
L 708.98847 -238.792419 
L 714.187228 -234.920765 
L 719.385986 -236.429648 
L 724.584744 -239.360558 
L 729.783502 -248.595919 
L 734.982259 -251.590036 
L 740.181017 -260.207729 
L 745.379775 -257.150772 
L 750.578533 -256.00557 
L 755.77729 -248.915603 
L 760.976048 -237.848167 
L 766.174806 -235.790339 
L 771.373564 -240.570618 
L 776.572321 -241.921832 
L 781.771079 -245.890352 
L 786.969837 -253.041662 
L 792.168595 -257.732574 
L 797.367352 -259.208259 
L 802.56611 -254.149184 
L 807.764868 -250.778034 
L 812.963626 -243.231826 
L 818.162384 -238.81922 
L 823.361141 -237.720992 
L 828.559899 -241.646707 
L 833.758657 -248.913216 
L 838.957415 -253.459829 
L 844.156172 -260.122288 
L 849.35493 -259.14757 
L 854.553688 -256.537803 
L 859.752446 -248.649045 
L 864.951203 -241.323646 
L 870.149961 -238.715928 
L 875.348719 -241.790457 
L 880.547477 -244.356308 
L 885.746234 -251.229364 
L 890.944992 -259.451771 
L 890.944992 -264.189696 
L 890.944992 -264.189696 
L 885.746234 -256.125643 
L 880.547477 -249.072519 
L 875.348719 -246.786249 
L 870.149961 -243.577197 
L 864.951203 -246.032613 
L 859.752446 -253.781131 
L 854.553688 -261.957362 
L 849.35493 -264.905325 
L 844.156172 -266.282834 
L 838.957415 -260.023575 
L 833.758657 -255.739345 
L 828.559899 -248.364715 
L 823.361141 -244.096545 
L 818.162384 -245.539072 
L 812.963626 -250.385151 
L 807.764868 -257.946314 
L 802.56611 -261.891943 
L 797.367352 -266.923521 
L 792.168595 -265.935782 
L 786.969837 -262.817203 
L 781.771079 -255.416403 
L 776.572321 -251.608082 
L 771.373564 -250.621121 
L 766.174806 -244.956714 
L 760.976048 -247.617709 
L 755.77729 -258.669876 
L 750.578533 -267.177943 
L 745.379775 -269.08333 
L 740.181017 -272.903027 
L 734.982259 -264.447763 
L 729.783502 -261.817722 
L 724.584744 -252.870424 
L 719.385986 -249.606267 
L 714.187228 -247.811695 
L 708.98847 -252.282258 
L 703.789713 -262.892805 
L 698.590955 -271.074583 
L 693.392197 -274.796814 
L 688.193439 -273.454786 
L 682.994682 -271.986862 
L 677.795924 -262.362592 
L 672.597166 -256.800207 
L 667.398408 -244.911935 
L 662.199651 -256.367343 
L 657.000893 -262.70978 
L 651.802135 -261.594677 
L 646.603377 -254.923247 
L 641.40462 -276.544293 
L 636.205862 -276.977373 
L 631.007104 -278.331086 
L 625.808346 -280.643185 
L 620.609589 -263.647569 
L 615.410831 -250.030084 
L 610.212073 -250.152489 
L 605.013315 -255.417963 
L 599.814557 -265.90704 
L 594.6158 -266.828631 
L 589.417042 -272.144651 
L 584.218284 -275.014763 
L 579.019526 -272.698285 
L 573.820769 -284.300968 
L 568.622011 -264.395941 
L 563.423253 -271.164162 
L 558.224495 -268.858385 
L 553.025738 -279.013236 
L 547.82698 -271.094575 
L 542.628222 -314.018892 
L 537.429464 -308.495351 
L 532.230707 -67.0013 
z
" id="m24f19f2cc3"/>
    </defs>
    <g clip-path="url(#pdb7565e20f)">
     <use style="fill:#ffa035;" x="0" xlink:href="#m24f19f2cc3" y="339.573438"/>
    </g>
   </g>
   <g id="PolyCollection_5">
    <defs>
     <path d="M 532.230707 -67.0013 
L 532.230707 -67.0013 
L 537.429464 -265.744251 
L 542.628222 -280.170491 
L 547.82698 -264.238405 
L 553.025738 -246.679005 
L 558.224495 -238.6323 
L 563.423253 -224.63783 
L 568.622011 -221.859909 
L 573.820769 -222.542732 
L 579.019526 -234.036043 
L 584.218284 -241.491303 
L 589.417042 -247.062035 
L 594.6158 -250.635465 
L 599.814557 -241.077685 
L 605.013315 -233.812393 
L 610.212073 -233.526686 
L 615.410831 -228.928633 
L 620.609589 -224.431427 
L 625.808346 -226.094809 
L 631.007104 -233.517821 
L 636.205862 -240.5587 
L 641.40462 -247.168032 
L 646.603377 -242.614079 
L 651.802135 -238.931832 
L 657.000893 -230.437201 
L 662.199651 -228.282196 
L 667.398408 -226.04781 
L 672.597166 -221.399059 
L 677.795924 -222.779045 
L 682.994682 -232.354975 
L 688.193439 -241.295637 
L 693.392197 -241.115598 
L 698.590955 -244.975971 
L 703.789713 -245.432726 
L 708.98847 -234.665576 
L 714.187228 -227.897012 
L 719.385986 -221.969217 
L 724.584744 -225.725843 
L 729.783502 -220.829155 
L 734.982259 -230.884166 
L 740.181017 -238.013326 
L 745.379775 -238.873809 
L 750.578533 -242.029402 
L 755.77729 -235.892154 
L 760.976048 -233.793324 
L 766.174806 -227.670585 
L 771.373564 -222.710144 
L 776.572321 -220.622683 
L 781.771079 -225.744693 
L 786.969837 -235.176104 
L 792.168595 -239.224665 
L 797.367352 -243.552833 
L 802.56611 -240.818999 
L 807.764868 -235.823211 
L 812.963626 -228.704253 
L 818.162384 -224.150199 
L 823.361141 -222.461148 
L 828.559899 -229.945737 
L 833.758657 -232.253933 
L 838.957415 -230.836177 
L 844.156172 -238.62278 
L 849.35493 -239.400145 
L 854.553688 -240.344127 
L 859.752446 -238.837432 
L 864.951203 -232.089193 
L 870.149961 -229.445491 
L 875.348719 -225.349668 
L 880.547477 -225.377782 
L 885.746234 -229.438236 
L 890.944992 -234.808152 
L 890.944992 -247.294894 
L 890.944992 -247.294894 
L 885.746234 -240.790135 
L 880.547477 -235.765365 
L 875.348719 -235.857012 
L 870.149961 -239.583946 
L 864.951203 -242.613852 
L 859.752446 -249.250581 
L 854.553688 -251.193983 
L 849.35493 -250.059606 
L 844.156172 -250.324922 
L 838.957415 -241.551289 
L 833.758657 -243.134226 
L 828.559899 -241.429303 
L 823.361141 -233.548313 
L 818.162384 -234.449475 
L 812.963626 -239.267578 
L 807.764868 -247.018939 
L 802.56611 -252.371052 
L 797.367352 -254.751241 
L 792.168595 -251.550523 
L 786.969837 -246.145506 
L 781.771079 -236.674428 
L 776.572321 -231.049304 
L 771.373564 -232.47521 
L 766.174806 -237.886976 
L 760.976048 -245.024799 
L 755.77729 -246.978738 
L 750.578533 -253.672093 
L 745.379775 -250.015015 
L 740.181017 -249.067793 
L 734.982259 -241.426602 
L 729.783502 -230.486743 
L 724.584744 -236.4158 
L 719.385986 -232.163942 
L 714.187228 -238.588405 
L 708.98847 -245.805804 
L 703.789713 -256.558144 
L 698.590955 -256.407891 
L 693.392197 -252.788082 
L 688.193439 -253.598906 
L 682.994682 -243.723458 
L 677.795924 -233.367967 
L 672.597166 -231.239966 
L 667.398408 -236.479728 
L 662.199651 -239.424244 
L 657.000893 -240.362717 
L 651.802135 -249.156713 
L 646.603377 -254.107215 
L 641.40462 -259.011292 
L 636.205862 -252.004486 
L 631.007104 -245.212665 
L 625.808346 -236.633545 
L 620.609589 -235.023061 
L 615.410831 -239.724052 
L 610.212073 -244.145812 
L 605.013315 -244.769362 
L 599.814557 -252.231214 
L 594.6158 -263.140171 
L 589.417042 -258.82439 
L 584.218284 -253.067463 
L 579.019526 -245.553177 
L 573.820769 -232.928451 
L 568.622011 -231.739384 
L 563.423253 -234.709565 
L 558.224495 -249.329345 
L 553.025738 -257.539582 
L 547.82698 -277.263371 
L 542.628222 -294.151635 
L 537.429464 -279.0143 
L 532.230707 -67.0013 
z
" id="m775339a5cf"/>
    </defs>
    <g clip-path="url(#pdb7565e20f)">
     <use style="fill:#4db8ff;" x="0" xlink:href="#m775339a5cf" y="339.573438"/>
    </g>
   </g>
   <g id="PolyCollection_6">
    <defs>
     <path d="M 532.230707 -67.0013 
L 532.230707 -67.0013 
L 537.429464 -67.0013 
L 542.628222 -67.0013 
L 547.82698 -67.0013 
L 553.025738 -67.0013 
L 558.224495 -66.927983 
L 563.423253 -71.688775 
L 568.622011 -80.23422 
L 573.820769 -95.428713 
L 579.019526 -104.443944 
L 584.218284 -116.801201 
L 589.417042 -135.840775 
L 594.6158 -144.579412 
L 599.814557 -154.328659 
L 605.013315 -142.232242 
L 610.212073 -147.831971 
L 615.410831 -150.688898 
L 620.609589 -155.40562 
L 625.808346 -172.928987 
L 631.007104 -176.177821 
L 636.205862 -182.606674 
L 641.40462 -192.663167 
L 646.603377 -181.693183 
L 651.802135 -193.802331 
L 657.000893 -197.01269 
L 662.199651 -197.182606 
L 667.398408 -189.180745 
L 672.597166 -197.985132 
L 677.795924 -204.992721 
L 682.994682 -214.980135 
L 688.193439 -223.313944 
L 693.392197 -227.395332 
L 698.590955 -230.795809 
L 703.789713 -223.416999 
L 708.98847 -217.489772 
L 714.187228 -214.321076 
L 719.385986 -214.819854 
L 724.584744 -217.256048 
L 729.783502 -228.336973 
L 734.982259 -233.889624 
L 740.181017 -243.894502 
L 745.379775 -243.155314 
L 750.578533 -243.766008 
L 755.77729 -237.275006 
L 760.976048 -227.33741 
L 766.174806 -225.764806 
L 771.373564 -230.217381 
L 776.572321 -230.803529 
L 781.771079 -235.475349 
L 786.969837 -243.861773 
L 792.168595 -250.142426 
L 797.367352 -253.007424 
L 802.56611 -247.568148 
L 807.764868 -244.795504 
L 812.963626 -238.340894 
L 818.162384 -233.888221 
L 823.361141 -232.63426 
L 828.559899 -236.818094 
L 833.758657 -244.077801 
L 838.957415 -248.921825 
L 844.156172 -255.901276 
L 849.35493 -255.781322 
L 854.553688 -253.179335 
L 859.752446 -245.560402 
L 864.951203 -238.316826 
L 870.149961 -236.105569 
L 875.348719 -239.215732 
L 880.547477 -241.174478 
L 885.746234 -248.561388 
L 890.944992 -256.91195 
L 890.944992 -261.633617 
L 890.944992 -261.633617 
L 885.746234 -252.945325 
L 880.547477 -245.858242 
L 875.348719 -244.218237 
L 870.149961 -240.800121 
L 864.951203 -243.319611 
L 859.752446 -250.911637 
L 854.553688 -258.6411 
L 849.35493 -261.490857 
L 844.156172 -261.721379 
L 838.957415 -255.525167 
L 833.758657 -250.519206 
L 828.559899 -243.682006 
L 823.361141 -239.064851 
L 818.162384 -240.362625 
L 812.963626 -244.795932 
L 807.764868 -252.019115 
L 802.56611 -254.624403 
L 797.367352 -261.446596 
L 792.168595 -257.613641 
L 786.969837 -252.256109 
L 781.771079 -244.166162 
L 776.572321 -239.531413 
L 771.373564 -240.266284 
L 766.174806 -234.947441 
L 760.976048 -236.453869 
L 755.77729 -247.031671 
L 750.578533 -254.646959 
L 745.379775 -255.373566 
L 740.181017 -256.685545 
L 734.982259 -246.355954 
L 729.783502 -241.318246 
L 724.584744 -230.955843 
L 719.385986 -228.658111 
L 714.187228 -227.092575 
L 708.98847 -230.001365 
L 703.789713 -237.35189 
L 698.590955 -245.237037 
L 693.392197 -241.902759 
L 688.193439 -240.356054 
L 682.994682 -231.945013 
L 677.795924 -220.999696 
L 672.597166 -215.36718 
L 667.398408 -205.373056 
L 662.199651 -214.313968 
L 657.000893 -213.502095 
L 651.802135 -211.56017 
L 646.603377 -197.96314 
L 641.40462 -212.197184 
L 636.205862 -201.97471 
L 631.007104 -197.232639 
L 625.808346 -196.038548 
L 620.609589 -174.178755 
L 615.410831 -169.875443 
L 610.212073 -163.876525 
L 605.013315 -160.031588 
L 599.814557 -179.355345 
L 594.6158 -164.667858 
L 589.417042 -156.68149 
L 584.218284 -137.61602 
L 579.019526 -123.30355 
L 573.820769 -114.916575 
L 568.622011 -94.688051 
L 563.423253 -81.424079 
L 558.224495 -69.67814 
L 553.025738 -67.0013 
L 547.82698 -67.0013 
L 542.628222 -67.0013 
L 537.429464 -67.0013 
L 532.230707 -67.0013 
z
" id="mefdabe733d"/>
    </defs>
    <g clip-path="url(#pdb7565e20f)">
     <use style="fill:#00c917;" x="0" xlink:href="#mefdabe733d" y="339.573438"/>
    </g>
   </g>
   <g id="matplotlib.axis_3">
    <g id="xtick_9">
     <g id="line2d_38">
      <path clip-path="url(#pdb7565e20f)" d="M 532.230707 285 
L 532.230707 13.2 
" style="fill:none;stroke:#b0b0b0;stroke-linecap:square;stroke-width:0.8;"/>
     </g>
     <g id="line2d_39">
      <g>
       <use x="532.230707" xlink:href="#mc78e02fbde" y="285"/>
      </g>
     </g>
     <g id="text_20">
      <!-- 0 -->
      <g transform="translate(527.458832 305.897656)scale(0.15 -0.15)">
       <use xlink:href="#DejaVuSans-30"/>
      </g>
     </g>
    </g>
    <g id="xtick_10">
     <g id="line2d_40">
      <path clip-path="url(#pdb7565e20f)" d="M 584.218284 285 
L 584.218284 13.2 
" style="fill:none;stroke:#b0b0b0;stroke-linecap:square;stroke-width:0.8;"/>
     </g>
     <g id="line2d_41">
      <g>
       <use x="584.218284" xlink:href="#mc78e02fbde" y="285"/>
      </g>
     </g>
     <g id="text_21">
      <!-- 1 -->
      <g transform="translate(579.446409 305.897656)scale(0.15 -0.15)">
       <use xlink:href="#DejaVuSans-31"/>
      </g>
     </g>
    </g>
    <g id="xtick_11">
     <g id="line2d_42">
      <path clip-path="url(#pdb7565e20f)" d="M 636.205862 285 
L 636.205862 13.2 
" style="fill:none;stroke:#b0b0b0;stroke-linecap:square;stroke-width:0.8;"/>
     </g>
     <g id="line2d_43">
      <g>
       <use x="636.205862" xlink:href="#mc78e02fbde" y="285"/>
      </g>
     </g>
     <g id="text_22">
      <!-- 2 -->
      <g transform="translate(631.433987 305.897656)scale(0.15 -0.15)">
       <use xlink:href="#DejaVuSans-32"/>
      </g>
     </g>
    </g>
    <g id="xtick_12">
     <g id="line2d_44">
      <path clip-path="url(#pdb7565e20f)" d="M 688.193439 285 
L 688.193439 13.2 
" style="fill:none;stroke:#b0b0b0;stroke-linecap:square;stroke-width:0.8;"/>
     </g>
     <g id="line2d_45">
      <g>
       <use x="688.193439" xlink:href="#mc78e02fbde" y="285"/>
      </g>
     </g>
     <g id="text_23">
      <!-- 3 -->
      <g transform="translate(683.421564 305.897656)scale(0.15 -0.15)">
       <use xlink:href="#DejaVuSans-33"/>
      </g>
     </g>
    </g>
    <g id="xtick_13">
     <g id="line2d_46">
      <path clip-path="url(#pdb7565e20f)" d="M 740.181017 285 
L 740.181017 13.2 
" style="fill:none;stroke:#b0b0b0;stroke-linecap:square;stroke-width:0.8;"/>
     </g>
     <g id="line2d_47">
      <g>
       <use x="740.181017" xlink:href="#mc78e02fbde" y="285"/>
      </g>
     </g>
     <g id="text_24">
      <!-- 4 -->
      <g transform="translate(735.409142 305.897656)scale(0.15 -0.15)">
       <use xlink:href="#DejaVuSans-34"/>
      </g>
     </g>
    </g>
    <g id="xtick_14">
     <g id="line2d_48">
      <path clip-path="url(#pdb7565e20f)" d="M 792.168595 285 
L 792.168595 13.2 
" style="fill:none;stroke:#b0b0b0;stroke-linecap:square;stroke-width:0.8;"/>
     </g>
     <g id="line2d_49">
      <g>
       <use x="792.168595" xlink:href="#mc78e02fbde" y="285"/>
      </g>
     </g>
     <g id="text_25">
      <!-- 5 -->
      <g transform="translate(787.39672 305.897656)scale(0.15 -0.15)">
       <use xlink:href="#DejaVuSans-35"/>
      </g>
     </g>
    </g>
    <g id="xtick_15">
     <g id="line2d_50">
      <path clip-path="url(#pdb7565e20f)" d="M 844.156172 285 
L 844.156172 13.2 
" style="fill:none;stroke:#b0b0b0;stroke-linecap:square;stroke-width:0.8;"/>
     </g>
     <g id="line2d_51">
      <g>
       <use x="844.156172" xlink:href="#mc78e02fbde" y="285"/>
      </g>
     </g>
     <g id="text_26">
      <!-- 6 -->
      <g transform="translate(839.384297 305.897656)scale(0.15 -0.15)">
       <use xlink:href="#DejaVuSans-36"/>
      </g>
     </g>
    </g>
    <g id="xtick_16">
     <g id="line2d_52">
      <path clip-path="url(#pdb7565e20f)" d="M 896.14375 285 
L 896.14375 13.2 
" style="fill:none;stroke:#b0b0b0;stroke-linecap:square;stroke-width:0.8;"/>
     </g>
     <g id="line2d_53">
      <g>
       <use x="896.14375" xlink:href="#mc78e02fbde" y="285"/>
      </g>
     </g>
     <g id="text_27">
      <!-- 7 -->
      <g transform="translate(891.371875 305.897656)scale(0.15 -0.15)">
       <use xlink:href="#DejaVuSans-37"/>
      </g>
     </g>
    </g>
    <g id="text_28">
     <!-- $t/\tau$ -->
     <g transform="translate(700.787228 328.214063)scale(0.2 -0.2)">
      <use transform="translate(0 0.09375)" xlink:href="#DejaVuSans-Oblique-74"/>
      <use transform="translate(39.208984 0.09375)" xlink:href="#DejaVuSans-2f"/>
      <use transform="translate(72.900391 0.09375)" xlink:href="#DejaVuSans-Oblique-3c4"/>
     </g>
    </g>
   </g>
   <g id="matplotlib.axis_4">
    <g id="ytick_7">
     <g id="line2d_54">
      <path clip-path="url(#pdb7565e20f)" d="M 532.230707 272.572137 
L 896.14375 272.572137 
" style="fill:none;stroke:#b0b0b0;stroke-linecap:square;stroke-width:0.8;"/>
     </g>
     <g id="line2d_55">
      <g>
       <use x="532.230707" xlink:href="#m90c613fa11" y="272.572137"/>
      </g>
     </g>
     <g id="text_29">
      <!-- 0.00 -->
      <defs>
       <path d="M 10.6875 12.40625 
L 21 12.40625 
L 21 0 
L 10.6875 0 
z
" id="DejaVuSans-2e"/>
      </defs>
      <g transform="translate(489.332269 278.270965)scale(0.15 -0.15)">
       <use xlink:href="#DejaVuSans-30"/>
       <use x="63.623047" xlink:href="#DejaVuSans-2e"/>
       <use x="95.410156" xlink:href="#DejaVuSans-30"/>
       <use x="159.033203" xlink:href="#DejaVuSans-30"/>
      </g>
     </g>
    </g>
    <g id="ytick_8">
     <g id="line2d_56">
      <path clip-path="url(#pdb7565e20f)" d="M 532.230707 226.411125 
L 896.14375 226.411125 
" style="fill:none;stroke:#b0b0b0;stroke-linecap:square;stroke-width:0.8;"/>
     </g>
     <g id="line2d_57">
      <g>
       <use x="532.230707" xlink:href="#m90c613fa11" y="226.411125"/>
      </g>
     </g>
     <g id="text_30">
      <!-- 0.02 -->
      <g transform="translate(489.332269 232.109953)scale(0.15 -0.15)">
       <use xlink:href="#DejaVuSans-30"/>
       <use x="63.623047" xlink:href="#DejaVuSans-2e"/>
       <use x="95.410156" xlink:href="#DejaVuSans-30"/>
       <use x="159.033203" xlink:href="#DejaVuSans-32"/>
      </g>
     </g>
    </g>
    <g id="ytick_9">
     <g id="line2d_58">
      <path clip-path="url(#pdb7565e20f)" d="M 532.230707 180.250112 
L 896.14375 180.250112 
" style="fill:none;stroke:#b0b0b0;stroke-linecap:square;stroke-width:0.8;"/>
     </g>
     <g id="line2d_59">
      <g>
       <use x="532.230707" xlink:href="#m90c613fa11" y="180.250112"/>
      </g>
     </g>
     <g id="text_31">
      <!-- 0.04 -->
      <g transform="translate(489.332269 185.94894)scale(0.15 -0.15)">
       <use xlink:href="#DejaVuSans-30"/>
       <use x="63.623047" xlink:href="#DejaVuSans-2e"/>
       <use x="95.410156" xlink:href="#DejaVuSans-30"/>
       <use x="159.033203" xlink:href="#DejaVuSans-34"/>
      </g>
     </g>
    </g>
    <g id="ytick_10">
     <g id="line2d_60">
      <path clip-path="url(#pdb7565e20f)" d="M 532.230707 134.089099 
L 896.14375 134.089099 
" style="fill:none;stroke:#b0b0b0;stroke-linecap:square;stroke-width:0.8;"/>
     </g>
     <g id="line2d_61">
      <g>
       <use x="532.230707" xlink:href="#m90c613fa11" y="134.089099"/>
      </g>
     </g>
     <g id="text_32">
      <!-- 0.06 -->
      <g transform="translate(489.332269 139.787928)scale(0.15 -0.15)">
       <use xlink:href="#DejaVuSans-30"/>
       <use x="63.623047" xlink:href="#DejaVuSans-2e"/>
       <use x="95.410156" xlink:href="#DejaVuSans-30"/>
       <use x="159.033203" xlink:href="#DejaVuSans-36"/>
      </g>
     </g>
    </g>
    <g id="ytick_11">
     <g id="line2d_62">
      <path clip-path="url(#pdb7565e20f)" d="M 532.230707 87.928087 
L 896.14375 87.928087 
" style="fill:none;stroke:#b0b0b0;stroke-linecap:square;stroke-width:0.8;"/>
     </g>
     <g id="line2d_63">
      <g>
       <use x="532.230707" xlink:href="#m90c613fa11" y="87.928087"/>
      </g>
     </g>
     <g id="text_33">
      <!-- 0.08 -->
      <g transform="translate(489.332269 93.626915)scale(0.15 -0.15)">
       <use xlink:href="#DejaVuSans-30"/>
       <use x="63.623047" xlink:href="#DejaVuSans-2e"/>
       <use x="95.410156" xlink:href="#DejaVuSans-30"/>
       <use x="159.033203" xlink:href="#DejaVuSans-38"/>
      </g>
     </g>
    </g>
    <g id="ytick_12">
     <g id="line2d_64">
      <path clip-path="url(#pdb7565e20f)" d="M 532.230707 41.767074 
L 896.14375 41.767074 
" style="fill:none;stroke:#b0b0b0;stroke-linecap:square;stroke-width:0.8;"/>
     </g>
     <g id="line2d_65">
      <g>
       <use x="532.230707" xlink:href="#m90c613fa11" y="41.767074"/>
      </g>
     </g>
     <g id="text_34">
      <!-- 0.10 -->
      <g transform="translate(489.332269 47.465902)scale(0.15 -0.15)">
       <use xlink:href="#DejaVuSans-30"/>
       <use x="63.623047" xlink:href="#DejaVuSans-2e"/>
       <use x="95.410156" xlink:href="#DejaVuSans-31"/>
       <use x="159.033203" xlink:href="#DejaVuSans-30"/>
      </g>
     </g>
    </g>
    <g id="text_35">
     <!-- $C_V^2(r)$ -->
     <defs>
      <path d="M 69.484375 67.28125 
L 67.484375 56.890625 
Q 62.796875 61.625 57.546875 63.921875 
Q 52.296875 66.21875 46.1875 66.21875 
Q 37.84375 66.21875 31.515625 62.203125 
Q 25.203125 58.203125 20.609375 50 
Q 17.671875 44.734375 16.125 38.84375 
Q 14.59375 32.953125 14.59375 27 
Q 14.59375 17.046875 19.75 11.8125 
Q 24.90625 6.59375 34.71875 6.59375 
Q 41.5 6.59375 47.75 8.765625 
Q 54 10.9375 59.90625 15.28125 
L 57.625 3.609375 
Q 51.8125 1.125 45.875 -0.140625 
Q 39.9375 -1.421875 33.984375 -1.421875 
Q 19.96875 -1.421875 12.078125 6.1875 
Q 4.203125 13.8125 4.203125 27.390625 
Q 4.203125 36.078125 7.203125 44.46875 
Q 10.203125 52.875 15.828125 59.8125 
Q 21.78125 67.1875 29.421875 70.703125 
Q 37.0625 74.21875 47.21875 74.21875 
Q 53.46875 74.21875 59.0625 72.484375 
Q 64.65625 70.75 69.484375 67.28125 
z
" id="DejaVuSans-Oblique-43"/>
      <path d="M 20.609375 0 
L 7.8125 72.90625 
L 17.484375 72.90625 
L 28.078125 10.203125 
L 63.484375 72.90625 
L 74.21875 72.90625 
L 32.078125 0 
z
" id="DejaVuSans-Oblique-56"/>
      <path d="M 31 75.875 
Q 24.46875 64.65625 21.28125 53.65625 
Q 18.109375 42.671875 18.109375 31.390625 
Q 18.109375 20.125 21.3125 9.0625 
Q 24.515625 -2 31 -13.1875 
L 23.1875 -13.1875 
Q 15.875 -1.703125 12.234375 9.375 
Q 8.59375 20.453125 8.59375 31.390625 
Q 8.59375 42.28125 12.203125 53.3125 
Q 15.828125 64.359375 23.1875 75.875 
z
" id="DejaVuSans-28"/>
      <path d="M 8.015625 75.875 
L 15.828125 75.875 
Q 23.140625 64.359375 26.78125 53.3125 
Q 30.421875 42.28125 30.421875 31.390625 
Q 30.421875 20.453125 26.78125 9.375 
Q 23.140625 -1.703125 15.828125 -13.1875 
L 8.015625 -13.1875 
Q 14.5 -2 17.703125 9.0625 
Q 20.90625 20.125 20.90625 31.390625 
Q 20.90625 42.671875 17.703125 53.65625 
Q 14.5 64.65625 8.015625 75.875 
z
" id="DejaVuSans-29"/>
     </defs>
     <g transform="translate(479.732269 173.5)rotate(-90)scale(0.2 -0.2)">
      <use transform="translate(0 0.765625)" xlink:href="#DejaVuSans-Oblique-43"/>
      <use transform="translate(77.02474 39.046875)scale(0.7)" xlink:href="#DejaVuSans-32"/>
      <use transform="translate(69.824219 -26.578125)scale(0.7)" xlink:href="#DejaVuSans-Oblique-56"/>
      <use transform="translate(124.295247 0.765625)" xlink:href="#DejaVuSans-28"/>
      <use transform="translate(163.308919 0.765625)" xlink:href="#DejaVuSans-Oblique-72"/>
      <use transform="translate(204.422201 0.765625)" xlink:href="#DejaVuSans-29"/>
     </g>
    </g>
   </g>
   <g id="line2d_66">
    <path clip-path="url(#pdb7565e20f)" d="M 532.230707 272.572137 
L 537.429464 67.194162 
L 542.628222 52.412375 
L 547.82698 68.82255 
L 553.025738 87.464144 
L 558.224495 95.592615 
L 563.423253 109.89974 
L 568.622011 112.773791 
L 573.820769 111.837846 
L 579.019526 99.778828 
L 584.218284 92.294054 
L 589.417042 86.630225 
L 594.6158 82.68562 
L 599.814557 92.918988 
L 605.013315 100.28256 
L 610.212073 100.737188 
L 615.410831 105.247095 
L 620.609589 109.846193 
L 625.808346 108.209261 
L 631.007104 100.208195 
L 636.205862 93.291844 
L 641.40462 86.483775 
L 646.603377 91.21279 
L 651.802135 95.529165 
L 657.000893 104.173479 
L 662.199651 105.720217 
L 667.398408 108.309668 
L 672.597166 113.253925 
L 677.795924 111.499932 
L 682.994682 101.534221 
L 688.193439 92.126166 
L 693.392197 92.621598 
L 698.590955 88.881506 
L 703.789713 88.578002 
L 708.98847 99.337748 
L 714.187228 106.330729 
L 719.385986 112.506858 
L 724.584744 108.502616 
L 729.783502 113.915488 
L 734.982259 103.418053 
L 740.181017 96.032878 
L 745.379775 95.129026 
L 750.578533 91.72269 
L 755.77729 98.137991 
L 760.976048 100.164376 
L 766.174806 106.794657 
L 771.373564 111.98076 
L 776.572321 113.737444 
L 781.771079 108.363877 
L 786.969837 98.912632 
L 792.168595 94.185844 
L 797.367352 90.4214 
L 802.56611 92.978412 
L 807.764868 98.152362 
L 812.963626 105.587522 
L 818.162384 110.273601 
L 823.361141 111.568707 
L 828.559899 103.885917 
L 833.758657 101.879358 
L 838.957415 103.379704 
L 844.156172 95.099586 
L 849.35493 94.843562 
L 854.553688 93.804382 
L 859.752446 95.529431 
L 864.951203 102.221915 
L 870.149961 105.058719 
L 875.348719 108.970097 
L 880.547477 109.001864 
L 885.746234 104.459252 
L 890.944992 98.521915 
" style="fill:none;stroke:#1f77b4;stroke-linecap:square;stroke-width:3;"/>
   </g>
   <g id="line2d_67">
    <path clip-path="url(#pdb7565e20f)" d="M 532.230707 272.572137 
L 537.429464 54.121604 
L 542.628222 49.537416 
L 547.82698 88.17101 
L 553.025738 81.422675 
L 558.224495 91.369057 
L 563.423253 87.945013 
L 568.622011 94.069435 
L 573.820769 74.373659 
L 579.019526 83.266149 
L 584.218284 80.68088 
L 589.417042 82.49366 
L 594.6158 87.660601 
L 599.814557 89.5172 
L 605.013315 96.776386 
L 610.212073 101.287284 
L 615.410831 102.577869 
L 620.609589 88.352185 
L 625.808346 72.551951 
L 631.007104 74.463977 
L 636.205862 75.704799 
L 641.40462 74.391353 
L 646.603377 94.4179 
L 651.802135 89.188389 
L 657.000893 86.718561 
L 662.199651 92.618174 
L 667.398408 103.568433 
L 672.597166 92.49807 
L 677.795924 86.373009 
L 682.994682 77.210549 
L 688.193439 74.890767 
L 693.392197 73.021042 
L 698.590955 75.71636 
L 703.789713 83.981196 
L 708.98847 94.036099 
L 714.187228 98.207208 
L 719.385986 96.55548 
L 724.584744 93.457947 
L 729.783502 84.366617 
L 734.982259 81.554538 
L 740.181017 73.01806 
L 745.379775 76.456386 
L 750.578533 77.981681 
L 755.77729 85.780698 
L 760.976048 96.840499 
L 766.174806 99.199911 
L 771.373564 93.977568 
L 776.572321 92.80848 
L 781.771079 88.92006 
L 786.969837 81.644005 
L 792.168595 77.739259 
L 797.367352 76.507547 
L 802.56611 81.552874 
L 807.764868 85.211264 
L 812.963626 92.764949 
L 818.162384 97.394291 
L 823.361141 98.664669 
L 828.559899 94.567726 
L 833.758657 87.247157 
L 838.957415 82.831735 
L 844.156172 76.370876 
L 849.35493 77.54699 
L 854.553688 80.325855 
L 859.752446 88.35835 
L 864.951203 95.895308 
L 870.149961 98.426875 
L 875.348719 95.285085 
L 880.547477 92.859024 
L 885.746234 85.895934 
L 890.944992 77.752704 
" style="fill:none;stroke:#ff6800;stroke-linecap:square;stroke-width:3;"/>
   </g>
   <g id="line2d_68">
    <path clip-path="url(#pdb7565e20f)" d="M 532.230707 272.572137 
L 537.429464 272.572137 
L 542.628222 272.572137 
L 547.82698 272.572137 
L 553.025738 272.572137 
L 558.224495 271.270376 
L 563.423253 263.01701 
L 568.622011 252.112302 
L 573.820769 234.400793 
L 579.019526 225.69969 
L 584.218284 212.364827 
L 589.417042 193.312305 
L 594.6158 184.949802 
L 599.814557 172.731436 
L 605.013315 188.441523 
L 610.212073 183.71919 
L 615.410831 179.291267 
L 620.609589 174.78125 
L 625.808346 155.08967 
L 631.007104 152.868208 
L 636.205862 147.282745 
L 641.40462 137.143262 
L 646.603377 149.745276 
L 651.802135 136.892187 
L 657.000893 134.316045 
L 662.199651 133.82515 
L 667.398408 142.296537 
L 672.597166 132.897282 
L 677.795924 126.577229 
L 682.994682 116.110863 
L 688.193439 107.738438 
L 693.392197 104.924392 
L 698.590955 101.557015 
L 703.789713 109.188993 
L 708.98847 115.827869 
L 714.187228 118.866612 
L 719.385986 117.834455 
L 724.584744 115.467492 
L 729.783502 104.745828 
L 734.982259 99.450649 
L 740.181017 89.283414 
L 745.379775 90.308998 
L 750.578533 90.366954 
L 755.77729 97.420099 
L 760.976048 107.677798 
L 766.174806 109.217314 
L 771.373564 104.331605 
L 776.572321 104.405966 
L 781.771079 99.752682 
L 786.969837 91.514496 
L 792.168595 85.695404 
L 797.367352 82.346428 
L 802.56611 88.477162 
L 807.764868 91.166128 
L 812.963626 98.005024 
L 818.162384 102.448015 
L 823.361141 103.723882 
L 828.559899 99.323387 
L 833.758657 92.274934 
L 838.957415 87.349941 
L 844.156172 80.76211 
L 849.35493 80.937348 
L 854.553688 83.66322 
L 859.752446 91.337418 
L 864.951203 98.755219 
L 870.149961 101.120593 
L 875.348719 97.856453 
L 880.547477 96.057078 
L 885.746234 88.820081 
L 890.944992 80.300654 
" style="fill:none;stroke:#319000;stroke-linecap:square;stroke-width:3;"/>
   </g>
   <g id="patch_9">
    <path d="M 532.230707 285 
L 532.230707 13.2 
" style="fill:none;stroke:#000000;stroke-linecap:square;stroke-linejoin:miter;stroke-width:2;"/>
   </g>
   <g id="patch_10">
    <path d="M 896.14375 285 
L 896.14375 13.2 
" style="fill:none;"/>
   </g>
   <g id="patch_11">
    <path d="M 532.230707 285 
L 896.14375 285 
" style="fill:none;stroke:#000000;stroke-linecap:square;stroke-linejoin:miter;stroke-width:2;"/>
   </g>
   <g id="patch_12">
    <path d="M 532.230707 13.2 
L 896.14375 13.2 
" style="fill:none;"/>
   </g>
  </g>
 </g>
 <defs>
  <clipPath id="p46c69a507b">
   <rect height="271.8" width="363.913043" x="59.14375" y="13.2"/>
  </clipPath>
  <clipPath id="pdb7565e20f">
   <rect height="271.8" width="363.913043" x="532.230707" y="13.2"/>
  </clipPath>
 </defs>
</svg>
