<?xml version="1.0" encoding="utf-8" standalone="no"?>
<!DOCTYPE svg PUBLIC "-//W3C//DTD SVG 1.1//EN"
  "http://www.w3.org/Graphics/SVG/1.1/DTD/svg11.dtd">
<!-- Created with matplotlib (http://matplotlib.org/) -->
<svg height="339.573438pt" version="1.1" viewBox="0 0 909.34375 339.573438" width="909.34375pt" xmlns="http://www.w3.org/2000/svg" xmlns:xlink="http://www.w3.org/1999/xlink">
 <defs>
  <style type="text/css">
*{stroke-linecap:butt;stroke-linejoin:round;}
  </style>
 </defs>
 <g id="figure_1">
  <g id="patch_1">
   <path d="M 0 339.573438 
L 909.34375 339.573438 
L 909.34375 0 
L 0 0 
z
" style="fill:#ffffff;"/>
  </g>
  <g id="axes_1">
   <g id="patch_2">
    <path d="M 59.14375 285 
L 423.056793 285 
L 423.056793 13.2 
L 59.14375 13.2 
z
" style="fill:#ffffff;"/>
   </g>
   <g id="PolyCollection_1">
    <defs>
     <path d="M 59.14375 -66.927983 
L 59.14375 -66.927983 
L 64.342508 -137.500544 
L 69.541266 -186.975087 
L 74.740023 -218.931396 
L 79.938781 -242.028772 
L 85.137539 -255.317558 
L 90.336297 -265.424813 
L 95.535054 -273.129206 
L 100.733812 -279.010744 
L 105.93257 -283.36831 
L 111.131328 -285.433996 
L 116.330085 -283.504564 
L 121.528843 -284.505405 
L 126.727601 -286.500505 
L 131.926359 -286.12774 
L 137.125116 -288.995143 
L 142.323874 -288.736072 
L 147.522632 -287.522496 
L 152.72139 -285.173651 
L 157.920148 -283.480624 
L 163.118905 -286.457893 
L 168.317663 -286.57847 
L 173.516421 -286.406141 
L 178.715179 -286.648745 
L 183.913936 -285.885854 
L 189.112694 -290.282046 
L 194.311452 -286.657674 
L 199.51021 -288.095932 
L 204.708967 -288.563663 
L 209.907725 -287.500313 
L 215.106483 -289.667366 
L 220.305241 -288.816283 
L 225.503998 -286.984408 
L 230.702756 -289.191901 
L 235.901514 -289.041471 
L 241.100272 -290.902357 
L 246.29903 -292.641289 
L 251.497787 -290.402855 
L 256.696545 -291.377926 
L 261.895303 -289.197036 
L 267.094061 -291.216039 
L 272.292818 -291.50973 
L 277.491576 -293.760828 
L 282.690334 -296.05268 
L 287.889092 -292.670358 
L 293.087849 -291.817276 
L 298.286607 -287.678433 
L 303.485365 -290.03257 
L 308.684123 -289.13382 
L 313.88288 -288.335204 
L 319.081638 -284.958124 
L 324.280396 -285.752098 
L 329.479154 -282.725698 
L 334.677911 -286.634323 
L 339.876669 -285.553921 
L 345.075427 -284.28627 
L 350.274185 -285.296776 
L 355.472943 -290.14246 
L 360.6717 -290.222116 
L 365.870458 -288.708365 
L 371.069216 -293.26572 
L 376.267974 -292.640478 
L 381.466731 -292.558031 
L 386.665489 -293.374898 
L 391.864247 -292.544413 
L 397.063005 -294.589781 
L 402.261762 -292.209659 
L 407.46052 -289.443983 
L 412.659278 -289.254832 
L 417.858036 -287.750306 
L 417.858036 -296.800699 
L 417.858036 -296.800699 
L 412.659278 -298.384218 
L 407.46052 -298.347137 
L 402.261762 -300.967019 
L 397.063005 -303.550926 
L 391.864247 -301.188984 
L 386.665489 -302.735394 
L 381.466731 -301.611381 
L 376.267974 -302.164351 
L 371.069216 -302.062094 
L 365.870458 -297.587962 
L 360.6717 -298.91139 
L 355.472943 -298.980563 
L 350.274185 -294.323691 
L 345.075427 -292.936137 
L 339.876669 -293.960804 
L 334.677911 -296.072849 
L 329.479154 -291.907939 
L 324.280396 -294.602134 
L 319.081638 -294.057958 
L 313.88288 -297.530351 
L 308.684123 -297.657566 
L 303.485365 -299.016079 
L 298.286607 -296.509612 
L 293.087849 -300.815983 
L 287.889092 -301.444265 
L 282.690334 -305.326423 
L 277.491576 -303.119187 
L 272.292818 -300.508453 
L 267.094061 -300.145212 
L 261.895303 -298.054527 
L 256.696545 -300.175605 
L 251.497787 -299.211737 
L 246.29903 -301.791983 
L 241.100272 -299.665307 
L 235.901514 -297.968698 
L 230.702756 -298.35181 
L 225.503998 -296.460343 
L 220.305241 -297.590393 
L 215.106483 -299.253753 
L 209.907725 -296.796605 
L 204.708967 -297.17634 
L 199.51021 -296.947253 
L 194.311452 -295.173814 
L 189.112694 -299.315117 
L 183.913936 -295.180105 
L 178.715179 -295.564005 
L 173.516421 -295.893883 
L 168.317663 -296.032218 
L 163.118905 -295.387631 
L 157.920148 -292.032559 
L 152.72139 -294.353668 
L 147.522632 -296.460436 
L 142.323874 -297.820775 
L 137.125116 -298.259175 
L 131.926359 -295.165888 
L 126.727601 -295.672349 
L 121.528843 -293.450527 
L 116.330085 -293.272557 
L 111.131328 -294.680191 
L 105.93257 -291.902075 
L 100.733812 -287.376101 
L 95.535054 -281.413167 
L 90.336297 -273.701598 
L 85.137539 -263.885509 
L 79.938781 -250.33801 
L 74.740023 -227.270605 
L 69.541266 -194.96927 
L 64.342508 -143.935208 
L 59.14375 -66.927983 
z
" id="mc83d48958e"/>
    </defs>
    <g clip-path="url(#p9940418529)">
     <use style="fill:#4db8ff;" x="0" xlink:href="#mc83d48958e" y="339.573438"/>
    </g>
   </g>
   <g id="PolyCollection_2">
    <defs>
     <path d="M 59.14375 -66.927983 
L 59.14375 -66.927983 
L 64.342508 -125.755816 
L 69.541266 -176.863317 
L 74.740023 -198.111247 
L 79.938781 -225.869896 
L 85.137539 -250.148417 
L 90.336297 -236.469354 
L 95.535054 -232.927171 
L 100.733812 -244.681528 
L 105.93257 -265.899304 
L 111.131328 -273.925656 
L 116.330085 -280.031149 
L 121.528843 -271.480981 
L 126.727601 -279.008578 
L 131.926359 -282.204768 
L 137.125116 -276.812922 
L 142.323874 -277.56612 
L 147.522632 -277.214876 
L 152.72139 -273.754409 
L 157.920148 -265.999045 
L 163.118905 -270.333093 
L 168.317663 -274.444198 
L 173.516421 -276.47159 
L 178.715179 -282.058385 
L 183.913936 -279.044578 
L 189.112694 -280.727433 
L 194.311452 -284.174113 
L 199.51021 -287.410673 
L 204.708967 -285.49382 
L 209.907725 -278.511098 
L 215.106483 -283.96522 
L 220.305241 -278.321306 
L 225.503998 -279.952891 
L 230.702756 -279.55118 
L 235.901514 -281.02414 
L 241.100272 -289.549859 
L 246.29903 -285.465747 
L 251.497787 -283.447228 
L 256.696545 -288.386036 
L 261.895303 -291.211945 
L 267.094061 -287.979053 
L 272.292818 -286.89324 
L 277.491576 -287.443403 
L 282.690334 -283.65897 
L 287.889092 -288.423531 
L 293.087849 -290.938583 
L 298.286607 -292.485402 
L 303.485365 -289.032874 
L 308.684123 -288.773754 
L 313.88288 -288.43844 
L 319.081638 -289.661417 
L 324.280396 -286.041532 
L 329.479154 -287.887524 
L 334.677911 -289.387508 
L 339.876669 -291.438734 
L 345.075427 -291.396913 
L 350.274185 -289.941128 
L 355.472943 -290.171016 
L 360.6717 -288.618634 
L 365.870458 -289.49498 
L 371.069216 -287.513318 
L 376.267974 -288.732087 
L 381.466731 -289.012721 
L 386.665489 -289.249626 
L 391.864247 -287.95949 
L 397.063005 -287.490615 
L 402.261762 -289.270493 
L 407.46052 -288.768281 
L 412.659278 -288.009045 
L 417.858036 -290.402084 
L 417.858036 -295.100107 
L 417.858036 -295.100107 
L 412.659278 -292.63851 
L 407.46052 -293.585697 
L 402.261762 -294.080063 
L 397.063005 -292.471786 
L 391.864247 -293.177702 
L 386.665489 -294.533415 
L 381.466731 -294.384969 
L 376.267974 -294.408669 
L 371.069216 -293.697133 
L 365.870458 -296.070966 
L 360.6717 -295.461103 
L 355.472943 -296.91081 
L 350.274185 -297.221201 
L 345.075427 -298.69437 
L 339.876669 -299.250315 
L 334.677911 -296.934188 
L 329.479154 -295.3749 
L 324.280396 -294.483526 
L 319.081638 -298.120973 
L 313.88288 -297.294893 
L 308.684123 -297.880085 
L 303.485365 -298.843823 
L 298.286607 -302.579064 
L 293.087849 -301.305884 
L 287.889092 -299.2943 
L 282.690334 -294.464366 
L 277.491576 -298.333846 
L 272.292818 -298.580872 
L 267.094061 -299.882693 
L 261.895303 -304.22382 
L 256.696545 -301.930426 
L 251.497787 -297.4084 
L 246.29903 -299.470855 
L 241.100272 -304.099309 
L 235.901514 -295.692559 
L 230.702756 -294.393564 
L 225.503998 -296.067928 
L 220.305241 -294.948162 
L 215.106483 -300.530405 
L 209.907725 -296.057903 
L 204.708967 -303.259524 
L 199.51021 -306.396355 
L 194.311452 -301.903004 
L 189.112694 -300.771123 
L 183.913936 -299.756141 
L 178.715179 -304.204482 
L 173.516421 -298.721382 
L 168.317663 -296.614393 
L 163.118905 -293.302926 
L 157.920148 -291.35838 
L 152.72139 -298.315733 
L 147.522632 -305.292875 
L 142.323874 -307.536691 
L 137.125116 -305.23574 
L 131.926359 -314.018892 
L 126.727601 -310.708932 
L 121.528843 -300.519452 
L 116.330085 -313.330731 
L 111.131328 -310.35985 
L 105.93257 -301.260943 
L 100.733812 -283.012211 
L 95.535054 -270.373018 
L 90.336297 -274.982863 
L 85.137539 -286.287093 
L 79.938781 -268.011376 
L 74.740023 -234.501186 
L 69.541266 -212.303373 
L 64.342508 -157.391334 
L 59.14375 -66.927983 
z
" id="me34519d7c0"/>
    </defs>
    <g clip-path="url(#p9940418529)">
     <use style="fill:#ffa035;" x="0" xlink:href="#me34519d7c0" y="339.573438"/>
    </g>
   </g>
   <g id="PolyCollection_3">
    <defs>
     <path d="M 59.14375 -66.927983 
L 59.14375 -66.927983 
L 64.342508 -126.465717 
L 69.541266 -177.230115 
L 74.740023 -198.880173 
L 79.938781 -228.179454 
L 85.137539 -248.646608 
L 90.336297 -234.3492 
L 95.535054 -237.470453 
L 100.733812 -246.421773 
L 105.93257 -260.873258 
L 111.131328 -271.936959 
L 116.330085 -278.804855 
L 121.528843 -272.531784 
L 126.727601 -280.1555 
L 131.926359 -278.749113 
L 137.125116 -277.771513 
L 142.323874 -277.990971 
L 147.522632 -277.984985 
L 152.72139 -278.462301 
L 157.920148 -268.936749 
L 163.118905 -271.800883 
L 168.317663 -275.424867 
L 173.516421 -277.98727 
L 178.715179 -280.863011 
L 183.913936 -278.664511 
L 189.112694 -280.639298 
L 194.311452 -284.72035 
L 199.51021 -289.15531 
L 204.708967 -284.675324 
L 209.907725 -281.419884 
L 215.106483 -283.601199 
L 220.305241 -279.842979 
L 225.503998 -279.939576 
L 230.702756 -280.02744 
L 235.901514 -281.30853 
L 241.100272 -290.005794 
L 246.29903 -285.090543 
L 251.497787 -284.266149 
L 256.696545 -289.029836 
L 261.895303 -290.902638 
L 267.094061 -288.249037 
L 272.292818 -287.403828 
L 277.491576 -288.62896 
L 282.690334 -283.780356 
L 287.889092 -288.902475 
L 293.087849 -290.950182 
L 298.286607 -292.699292 
L 303.485365 -288.80935 
L 308.684123 -288.271313 
L 313.88288 -288.21455 
L 319.081638 -289.58377 
L 324.280396 -286.322123 
L 329.479154 -287.776527 
L 334.677911 -289.824462 
L 339.876669 -291.999476 
L 345.075427 -291.409008 
L 350.274185 -289.93315 
L 355.472943 -290.575612 
L 360.6717 -289.494051 
L 365.870458 -290.092497 
L 371.069216 -287.846878 
L 376.267974 -288.875288 
L 381.466731 -289.049055 
L 386.665489 -289.490927 
L 391.864247 -287.625756 
L 397.063005 -287.791742 
L 402.261762 -289.324651 
L 407.46052 -288.696219 
L 412.659278 -287.683816 
L 417.858036 -290.244395 
L 417.858036 -295.133927 
L 417.858036 -295.133927 
L 412.659278 -292.491514 
L 407.46052 -293.883187 
L 402.261762 -294.060875 
L 397.063005 -292.460679 
L 391.864247 -293.494997 
L 386.665489 -294.483696 
L 381.466731 -294.846648 
L 376.267974 -294.136593 
L 371.069216 -293.516491 
L 365.870458 -295.911551 
L 360.6717 -295.072195 
L 355.472943 -296.955262 
L 350.274185 -297.231365 
L 345.075427 -298.581819 
L 339.876669 -299.271631 
L 334.677911 -296.91084 
L 329.479154 -295.751914 
L 324.280396 -294.718345 
L 319.081638 -297.96679 
L 313.88288 -297.212102 
L 308.684123 -297.63017 
L 303.485365 -299.132971 
L 298.286607 -302.894324 
L 293.087849 -301.607925 
L 287.889092 -298.98511 
L 282.690334 -294.262646 
L 277.491576 -297.936393 
L 272.292818 -298.524793 
L 267.094061 -301.067084 
L 261.895303 -304.298772 
L 256.696545 -301.65986 
L 251.497787 -296.394497 
L 246.29903 -298.976603 
L 241.100272 -303.20202 
L 235.901514 -295.74366 
L 230.702756 -294.07711 
L 225.503998 -296.534609 
L 220.305241 -295.716099 
L 215.106483 -301.84481 
L 209.907725 -298.151617 
L 204.708967 -302.917772 
L 199.51021 -305.372489 
L 194.311452 -301.913692 
L 189.112694 -300.463891 
L 183.913936 -299.334394 
L 178.715179 -303.77166 
L 173.516421 -301.089554 
L 168.317663 -298.836555 
L 163.118905 -295.548344 
L 157.920148 -294.596591 
L 152.72139 -303.951529 
L 147.522632 -308.151486 
L 142.323874 -307.101393 
L 137.125116 -305.53484 
L 131.926359 -310.186773 
L 126.727601 -307.88248 
L 121.528843 -304.61674 
L 116.330085 -310.229469 
L 111.131328 -303.808698 
L 105.93257 -291.41069 
L 100.733812 -278.89133 
L 95.535054 -271.143393 
L 90.336297 -271.363578 
L 85.137539 -287.646329 
L 79.938781 -267.9569 
L 74.740023 -233.39737 
L 69.541266 -211.883051 
L 64.342508 -157.700518 
L 59.14375 -66.927983 
z
" id="mab8a59ccde"/>
    </defs>
    <g clip-path="url(#p9940418529)">
     <use style="fill:#00c917;" x="0" xlink:href="#mab8a59ccde" y="339.573438"/>
    </g>
   </g>
   <g id="matplotlib.axis_1">
    <g id="xtick_1">
     <g id="line2d_1">
      <path clip-path="url(#p9940418529)" d="M 59.14375 285 
L 59.14375 13.2 
" style="fill:none;stroke:#b0b0b0;stroke-linecap:square;stroke-width:0.8;"/>
     </g>
     <g id="line2d_2">
      <defs>
       <path d="M 0 0 
L 0 6 
" id="m6dcc7e41ab"/>
      </defs>
      <g>
       <use x="59.14375" xlink:href="#m6dcc7e41ab" y="285"/>
      </g>
     </g>
     <g id="text_1">
      <!-- 0 -->
      <defs>
       <path d="M 31.78125 66.40625 
Q 24.171875 66.40625 20.328125 58.90625 
Q 16.5 51.421875 16.5 36.375 
Q 16.5 21.390625 20.328125 13.890625 
Q 24.171875 6.390625 31.78125 6.390625 
Q 39.453125 6.390625 43.28125 13.890625 
Q 47.125 21.390625 47.125 36.375 
Q 47.125 51.421875 43.28125 58.90625 
Q 39.453125 66.40625 31.78125 66.40625 
z
M 31.78125 74.21875 
Q 44.046875 74.21875 50.515625 64.515625 
Q 56.984375 54.828125 56.984375 36.375 
Q 56.984375 17.96875 50.515625 8.265625 
Q 44.046875 -1.421875 31.78125 -1.421875 
Q 19.53125 -1.421875 13.0625 8.265625 
Q 6.59375 17.96875 6.59375 36.375 
Q 6.59375 54.828125 13.0625 64.515625 
Q 19.53125 74.21875 31.78125 74.21875 
z
" id="DejaVuSans-30"/>
      </defs>
      <g transform="translate(54.371875 305.897656)scale(0.15 -0.15)">
       <use xlink:href="#DejaVuSans-30"/>
      </g>
     </g>
    </g>
    <g id="xtick_2">
     <g id="line2d_3">
      <path clip-path="url(#p9940418529)" d="M 111.131328 285 
L 111.131328 13.2 
" style="fill:none;stroke:#b0b0b0;stroke-linecap:square;stroke-width:0.8;"/>
     </g>
     <g id="line2d_4">
      <g>
       <use x="111.131328" xlink:href="#m6dcc7e41ab" y="285"/>
      </g>
     </g>
     <g id="text_2">
      <!-- 1 -->
      <defs>
       <path d="M 12.40625 8.296875 
L 28.515625 8.296875 
L 28.515625 63.921875 
L 10.984375 60.40625 
L 10.984375 69.390625 
L 28.421875 72.90625 
L 38.28125 72.90625 
L 38.28125 8.296875 
L 54.390625 8.296875 
L 54.390625 0 
L 12.40625 0 
z
" id="DejaVuSans-31"/>
      </defs>
      <g transform="translate(106.359453 305.897656)scale(0.15 -0.15)">
       <use xlink:href="#DejaVuSans-31"/>
      </g>
     </g>
    </g>
    <g id="xtick_3">
     <g id="line2d_5">
      <path clip-path="url(#p9940418529)" d="M 163.118905 285 
L 163.118905 13.2 
" style="fill:none;stroke:#b0b0b0;stroke-linecap:square;stroke-width:0.8;"/>
     </g>
     <g id="line2d_6">
      <g>
       <use x="163.118905" xlink:href="#m6dcc7e41ab" y="285"/>
      </g>
     </g>
     <g id="text_3">
      <!-- 2 -->
      <defs>
       <path d="M 19.1875 8.296875 
L 53.609375 8.296875 
L 53.609375 0 
L 7.328125 0 
L 7.328125 8.296875 
Q 12.9375 14.109375 22.625 23.890625 
Q 32.328125 33.6875 34.8125 36.53125 
Q 39.546875 41.84375 41.421875 45.53125 
Q 43.3125 49.21875 43.3125 52.78125 
Q 43.3125 58.59375 39.234375 62.25 
Q 35.15625 65.921875 28.609375 65.921875 
Q 23.96875 65.921875 18.8125 64.3125 
Q 13.671875 62.703125 7.8125 59.421875 
L 7.8125 69.390625 
Q 13.765625 71.78125 18.9375 73 
Q 24.125 74.21875 28.421875 74.21875 
Q 39.75 74.21875 46.484375 68.546875 
Q 53.21875 62.890625 53.21875 53.421875 
Q 53.21875 48.921875 51.53125 44.890625 
Q 49.859375 40.875 45.40625 35.40625 
Q 44.1875 33.984375 37.640625 27.21875 
Q 31.109375 20.453125 19.1875 8.296875 
z
" id="DejaVuSans-32"/>
      </defs>
      <g transform="translate(158.34703 305.897656)scale(0.15 -0.15)">
       <use xlink:href="#DejaVuSans-32"/>
      </g>
     </g>
    </g>
    <g id="xtick_4">
     <g id="line2d_7">
      <path clip-path="url(#p9940418529)" d="M 215.106483 285 
L 215.106483 13.2 
" style="fill:none;stroke:#b0b0b0;stroke-linecap:square;stroke-width:0.8;"/>
     </g>
     <g id="line2d_8">
      <g>
       <use x="215.106483" xlink:href="#m6dcc7e41ab" y="285"/>
      </g>
     </g>
     <g id="text_4">
      <!-- 3 -->
      <defs>
       <path d="M 40.578125 39.3125 
Q 47.65625 37.796875 51.625 33 
Q 55.609375 28.21875 55.609375 21.1875 
Q 55.609375 10.40625 48.1875 4.484375 
Q 40.765625 -1.421875 27.09375 -1.421875 
Q 22.515625 -1.421875 17.65625 -0.515625 
Q 12.796875 0.390625 7.625 2.203125 
L 7.625 11.71875 
Q 11.71875 9.328125 16.59375 8.109375 
Q 21.484375 6.890625 26.8125 6.890625 
Q 36.078125 6.890625 40.9375 10.546875 
Q 45.796875 14.203125 45.796875 21.1875 
Q 45.796875 27.640625 41.28125 31.265625 
Q 36.765625 34.90625 28.71875 34.90625 
L 20.21875 34.90625 
L 20.21875 43.015625 
L 29.109375 43.015625 
Q 36.375 43.015625 40.234375 45.921875 
Q 44.09375 48.828125 44.09375 54.296875 
Q 44.09375 59.90625 40.109375 62.90625 
Q 36.140625 65.921875 28.71875 65.921875 
Q 24.65625 65.921875 20.015625 65.03125 
Q 15.375 64.15625 9.8125 62.3125 
L 9.8125 71.09375 
Q 15.4375 72.65625 20.34375 73.4375 
Q 25.25 74.21875 29.59375 74.21875 
Q 40.828125 74.21875 47.359375 69.109375 
Q 53.90625 64.015625 53.90625 55.328125 
Q 53.90625 49.265625 50.4375 45.09375 
Q 46.96875 40.921875 40.578125 39.3125 
z
" id="DejaVuSans-33"/>
      </defs>
      <g transform="translate(210.334608 305.897656)scale(0.15 -0.15)">
       <use xlink:href="#DejaVuSans-33"/>
      </g>
     </g>
    </g>
    <g id="xtick_5">
     <g id="line2d_9">
      <path clip-path="url(#p9940418529)" d="M 267.094061 285 
L 267.094061 13.2 
" style="fill:none;stroke:#b0b0b0;stroke-linecap:square;stroke-width:0.8;"/>
     </g>
     <g id="line2d_10">
      <g>
       <use x="267.094061" xlink:href="#m6dcc7e41ab" y="285"/>
      </g>
     </g>
     <g id="text_5">
      <!-- 4 -->
      <defs>
       <path d="M 37.796875 64.3125 
L 12.890625 25.390625 
L 37.796875 25.390625 
z
M 35.203125 72.90625 
L 47.609375 72.90625 
L 47.609375 25.390625 
L 58.015625 25.390625 
L 58.015625 17.1875 
L 47.609375 17.1875 
L 47.609375 0 
L 37.796875 0 
L 37.796875 17.1875 
L 4.890625 17.1875 
L 4.890625 26.703125 
z
" id="DejaVuSans-34"/>
      </defs>
      <g transform="translate(262.322186 305.897656)scale(0.15 -0.15)">
       <use xlink:href="#DejaVuSans-34"/>
      </g>
     </g>
    </g>
    <g id="xtick_6">
     <g id="line2d_11">
      <path clip-path="url(#p9940418529)" d="M 319.081638 285 
L 319.081638 13.2 
" style="fill:none;stroke:#b0b0b0;stroke-linecap:square;stroke-width:0.8;"/>
     </g>
     <g id="line2d_12">
      <g>
       <use x="319.081638" xlink:href="#m6dcc7e41ab" y="285"/>
      </g>
     </g>
     <g id="text_6">
      <!-- 5 -->
      <defs>
       <path d="M 10.796875 72.90625 
L 49.515625 72.90625 
L 49.515625 64.59375 
L 19.828125 64.59375 
L 19.828125 46.734375 
Q 21.96875 47.46875 24.109375 47.828125 
Q 26.265625 48.1875 28.421875 48.1875 
Q 40.625 48.1875 47.75 41.5 
Q 54.890625 34.8125 54.890625 23.390625 
Q 54.890625 11.625 47.5625 5.09375 
Q 40.234375 -1.421875 26.90625 -1.421875 
Q 22.3125 -1.421875 17.546875 -0.640625 
Q 12.796875 0.140625 7.71875 1.703125 
L 7.71875 11.625 
Q 12.109375 9.234375 16.796875 8.0625 
Q 21.484375 6.890625 26.703125 6.890625 
Q 35.15625 6.890625 40.078125 11.328125 
Q 45.015625 15.765625 45.015625 23.390625 
Q 45.015625 31 40.078125 35.4375 
Q 35.15625 39.890625 26.703125 39.890625 
Q 22.75 39.890625 18.8125 39.015625 
Q 14.890625 38.140625 10.796875 36.28125 
z
" id="DejaVuSans-35"/>
      </defs>
      <g transform="translate(314.309763 305.897656)scale(0.15 -0.15)">
       <use xlink:href="#DejaVuSans-35"/>
      </g>
     </g>
    </g>
    <g id="xtick_7">
     <g id="line2d_13">
      <path clip-path="url(#p9940418529)" d="M 371.069216 285 
L 371.069216 13.2 
" style="fill:none;stroke:#b0b0b0;stroke-linecap:square;stroke-width:0.8;"/>
     </g>
     <g id="line2d_14">
      <g>
       <use x="371.069216" xlink:href="#m6dcc7e41ab" y="285"/>
      </g>
     </g>
     <g id="text_7">
      <!-- 6 -->
      <defs>
       <path d="M 33.015625 40.375 
Q 26.375 40.375 22.484375 35.828125 
Q 18.609375 31.296875 18.609375 23.390625 
Q 18.609375 15.53125 22.484375 10.953125 
Q 26.375 6.390625 33.015625 6.390625 
Q 39.65625 6.390625 43.53125 10.953125 
Q 47.40625 15.53125 47.40625 23.390625 
Q 47.40625 31.296875 43.53125 35.828125 
Q 39.65625 40.375 33.015625 40.375 
z
M 52.59375 71.296875 
L 52.59375 62.3125 
Q 48.875 64.0625 45.09375 64.984375 
Q 41.3125 65.921875 37.59375 65.921875 
Q 27.828125 65.921875 22.671875 59.328125 
Q 17.53125 52.734375 16.796875 39.40625 
Q 19.671875 43.65625 24.015625 45.921875 
Q 28.375 48.1875 33.59375 48.1875 
Q 44.578125 48.1875 50.953125 41.515625 
Q 57.328125 34.859375 57.328125 23.390625 
Q 57.328125 12.15625 50.6875 5.359375 
Q 44.046875 -1.421875 33.015625 -1.421875 
Q 20.359375 -1.421875 13.671875 8.265625 
Q 6.984375 17.96875 6.984375 36.375 
Q 6.984375 53.65625 15.1875 63.9375 
Q 23.390625 74.21875 37.203125 74.21875 
Q 40.921875 74.21875 44.703125 73.484375 
Q 48.484375 72.75 52.59375 71.296875 
z
" id="DejaVuSans-36"/>
      </defs>
      <g transform="translate(366.297341 305.897656)scale(0.15 -0.15)">
       <use xlink:href="#DejaVuSans-36"/>
      </g>
     </g>
    </g>
    <g id="xtick_8">
     <g id="line2d_15">
      <path clip-path="url(#p9940418529)" d="M 423.056793 285 
L 423.056793 13.2 
" style="fill:none;stroke:#b0b0b0;stroke-linecap:square;stroke-width:0.8;"/>
     </g>
     <g id="line2d_16">
      <g>
       <use x="423.056793" xlink:href="#m6dcc7e41ab" y="285"/>
      </g>
     </g>
     <g id="text_8">
      <!-- 7 -->
      <defs>
       <path d="M 8.203125 72.90625 
L 55.078125 72.90625 
L 55.078125 68.703125 
L 28.609375 0 
L 18.3125 0 
L 43.21875 64.59375 
L 8.203125 64.59375 
z
" id="DejaVuSans-37"/>
      </defs>
      <g transform="translate(418.284918 305.897656)scale(0.15 -0.15)">
       <use xlink:href="#DejaVuSans-37"/>
      </g>
     </g>
    </g>
    <g id="text_9">
     <!-- $t/\tau$ -->
     <defs>
      <path d="M 42.28125 54.6875 
L 40.921875 47.703125 
L 23 47.703125 
L 17.1875 18.015625 
Q 16.890625 16.359375 16.75 15.234375 
Q 16.609375 14.109375 16.609375 13.484375 
Q 16.609375 10.359375 18.484375 8.9375 
Q 20.359375 7.515625 24.515625 7.515625 
L 33.59375 7.515625 
L 32.078125 0 
L 23.484375 0 
Q 15.484375 0 11.546875 3.125 
Q 7.625 6.25 7.625 12.59375 
Q 7.625 13.71875 7.765625 15.0625 
Q 7.90625 16.40625 8.203125 18.015625 
L 14.015625 47.703125 
L 6.390625 47.703125 
L 7.8125 54.6875 
L 15.28125 54.6875 
L 18.3125 70.21875 
L 27.296875 70.21875 
L 24.3125 54.6875 
z
" id="DejaVuSans-Oblique-74"/>
      <path d="M 25.390625 72.90625 
L 33.6875 72.90625 
L 8.296875 -9.28125 
L 0 -9.28125 
z
" id="DejaVuSans-2f"/>
      <path d="M 32.859375 9.96875 
Q 34.1875 7.625 39.453125 7.625 
L 43.75 7.625 
L 42.28125 0 
L 36.921875 0 
Q 28.125 0 25 4.6875 
Q 21.921875 9.46875 23.96875 19.828125 
L 29 45.703125 
L 8.453125 45.703125 
L 10.203125 54.6875 
L 60.640625 54.6875 
L 58.890625 45.703125 
L 38.1875 45.703125 
L 33.015625 19.28125 
Q 31.640625 12.203125 32.859375 9.96875 
z
" id="DejaVuSans-Oblique-3c4"/>
     </defs>
     <g transform="translate(227.700272 328.214063)scale(0.2 -0.2)">
      <use transform="translate(0 0.09375)" xlink:href="#DejaVuSans-Oblique-74"/>
      <use transform="translate(39.208984 0.09375)" xlink:href="#DejaVuSans-2f"/>
      <use transform="translate(72.900391 0.09375)" xlink:href="#DejaVuSans-Oblique-3c4"/>
     </g>
    </g>
   </g>
   <g id="matplotlib.axis_2">
    <g id="ytick_1">
     <g id="line2d_17">
      <path clip-path="url(#p9940418529)" d="M 59.14375 272.645455 
L 423.056793 272.645455 
" style="fill:none;stroke:#b0b0b0;stroke-linecap:square;stroke-width:0.8;"/>
     </g>
     <g id="line2d_18">
      <defs>
       <path d="M 0 0 
L -6 0 
" id="mee51a1f99a"/>
      </defs>
      <g>
       <use x="59.14375" xlink:href="#mee51a1f99a" y="272.645455"/>
      </g>
     </g>
     <g id="text_10">
      <!-- 5 -->
      <g transform="translate(40.1 278.344283)scale(0.15 -0.15)">
       <use xlink:href="#DejaVuSans-35"/>
      </g>
     </g>
    </g>
    <g id="ytick_2">
     <g id="line2d_19">
      <path clip-path="url(#p9940418529)" d="M 59.14375 227.43731 
L 423.056793 227.43731 
" style="fill:none;stroke:#b0b0b0;stroke-linecap:square;stroke-width:0.8;"/>
     </g>
     <g id="line2d_20">
      <g>
       <use x="59.14375" xlink:href="#mee51a1f99a" y="227.43731"/>
      </g>
     </g>
     <g id="text_11">
      <!-- 6 -->
      <g transform="translate(40.1 233.136138)scale(0.15 -0.15)">
       <use xlink:href="#DejaVuSans-36"/>
      </g>
     </g>
    </g>
    <g id="ytick_3">
     <g id="line2d_21">
      <path clip-path="url(#p9940418529)" d="M 59.14375 182.229166 
L 423.056793 182.229166 
" style="fill:none;stroke:#b0b0b0;stroke-linecap:square;stroke-width:0.8;"/>
     </g>
     <g id="line2d_22">
      <g>
       <use x="59.14375" xlink:href="#mee51a1f99a" y="182.229166"/>
      </g>
     </g>
     <g id="text_12">
      <!-- 7 -->
      <g transform="translate(40.1 187.927994)scale(0.15 -0.15)">
       <use xlink:href="#DejaVuSans-37"/>
      </g>
     </g>
    </g>
    <g id="ytick_4">
     <g id="line2d_23">
      <path clip-path="url(#p9940418529)" d="M 59.14375 137.021021 
L 423.056793 137.021021 
" style="fill:none;stroke:#b0b0b0;stroke-linecap:square;stroke-width:0.8;"/>
     </g>
     <g id="line2d_24">
      <g>
       <use x="59.14375" xlink:href="#mee51a1f99a" y="137.021021"/>
      </g>
     </g>
     <g id="text_13">
      <!-- 8 -->
      <defs>
       <path d="M 31.78125 34.625 
Q 24.75 34.625 20.71875 30.859375 
Q 16.703125 27.09375 16.703125 20.515625 
Q 16.703125 13.921875 20.71875 10.15625 
Q 24.75 6.390625 31.78125 6.390625 
Q 38.8125 6.390625 42.859375 10.171875 
Q 46.921875 13.96875 46.921875 20.515625 
Q 46.921875 27.09375 42.890625 30.859375 
Q 38.875 34.625 31.78125 34.625 
z
M 21.921875 38.8125 
Q 15.578125 40.375 12.03125 44.71875 
Q 8.5 49.078125 8.5 55.328125 
Q 8.5 64.0625 14.71875 69.140625 
Q 20.953125 74.21875 31.78125 74.21875 
Q 42.671875 74.21875 48.875 69.140625 
Q 55.078125 64.0625 55.078125 55.328125 
Q 55.078125 49.078125 51.53125 44.71875 
Q 48 40.375 41.703125 38.8125 
Q 48.828125 37.15625 52.796875 32.3125 
Q 56.78125 27.484375 56.78125 20.515625 
Q 56.78125 9.90625 50.3125 4.234375 
Q 43.84375 -1.421875 31.78125 -1.421875 
Q 19.734375 -1.421875 13.25 4.234375 
Q 6.78125 9.90625 6.78125 20.515625 
Q 6.78125 27.484375 10.78125 32.3125 
Q 14.796875 37.15625 21.921875 38.8125 
z
M 18.3125 54.390625 
Q 18.3125 48.734375 21.84375 45.5625 
Q 25.390625 42.390625 31.78125 42.390625 
Q 38.140625 42.390625 41.71875 45.5625 
Q 45.3125 48.734375 45.3125 54.390625 
Q 45.3125 60.0625 41.71875 63.234375 
Q 38.140625 66.40625 31.78125 66.40625 
Q 25.390625 66.40625 21.84375 63.234375 
Q 18.3125 60.0625 18.3125 54.390625 
z
" id="DejaVuSans-38"/>
      </defs>
      <g transform="translate(40.1 142.719849)scale(0.15 -0.15)">
       <use xlink:href="#DejaVuSans-38"/>
      </g>
     </g>
    </g>
    <g id="ytick_5">
     <g id="line2d_25">
      <path clip-path="url(#p9940418529)" d="M 59.14375 91.812877 
L 423.056793 91.812877 
" style="fill:none;stroke:#b0b0b0;stroke-linecap:square;stroke-width:0.8;"/>
     </g>
     <g id="line2d_26">
      <g>
       <use x="59.14375" xlink:href="#mee51a1f99a" y="91.812877"/>
      </g>
     </g>
     <g id="text_14">
      <!-- 9 -->
      <defs>
       <path d="M 10.984375 1.515625 
L 10.984375 10.5 
Q 14.703125 8.734375 18.5 7.8125 
Q 22.3125 6.890625 25.984375 6.890625 
Q 35.75 6.890625 40.890625 13.453125 
Q 46.046875 20.015625 46.78125 33.40625 
Q 43.953125 29.203125 39.59375 26.953125 
Q 35.25 24.703125 29.984375 24.703125 
Q 19.046875 24.703125 12.671875 31.3125 
Q 6.296875 37.9375 6.296875 49.421875 
Q 6.296875 60.640625 12.9375 67.421875 
Q 19.578125 74.21875 30.609375 74.21875 
Q 43.265625 74.21875 49.921875 64.515625 
Q 56.59375 54.828125 56.59375 36.375 
Q 56.59375 19.140625 48.40625 8.859375 
Q 40.234375 -1.421875 26.421875 -1.421875 
Q 22.703125 -1.421875 18.890625 -0.6875 
Q 15.09375 0.046875 10.984375 1.515625 
z
M 30.609375 32.421875 
Q 37.25 32.421875 41.125 36.953125 
Q 45.015625 41.5 45.015625 49.421875 
Q 45.015625 57.28125 41.125 61.84375 
Q 37.25 66.40625 30.609375 66.40625 
Q 23.96875 66.40625 20.09375 61.84375 
Q 16.21875 57.28125 16.21875 49.421875 
Q 16.21875 41.5 20.09375 36.953125 
Q 23.96875 32.421875 30.609375 32.421875 
z
" id="DejaVuSans-39"/>
      </defs>
      <g transform="translate(40.1 97.511705)scale(0.15 -0.15)">
       <use xlink:href="#DejaVuSans-39"/>
      </g>
     </g>
    </g>
    <g id="ytick_6">
     <g id="line2d_27">
      <path clip-path="url(#p9940418529)" d="M 59.14375 46.604732 
L 423.056793 46.604732 
" style="fill:none;stroke:#b0b0b0;stroke-linecap:square;stroke-width:0.8;"/>
     </g>
     <g id="line2d_28">
      <g>
       <use x="59.14375" xlink:href="#mee51a1f99a" y="46.604732"/>
      </g>
     </g>
     <g id="text_15">
      <!-- 10 -->
      <g transform="translate(30.55625 52.30356)scale(0.15 -0.15)">
       <use xlink:href="#DejaVuSans-31"/>
       <use x="63.623047" xlink:href="#DejaVuSans-30"/>
      </g>
     </g>
    </g>
    <g id="text_16">
     <!-- $\langle r\rangle$ -->
     <defs>
      <path d="M 8.9375 31.34375 
L 22.703125 75.875 
L 31 75.875 
L 17.234375 31.34375 
L 31 -13.1875 
L 22.703125 -13.1875 
z
" id="DejaVuSans-27e8"/>
      <path d="M 44.578125 46.390625 
Q 43.21875 47.125 41.453125 47.515625 
Q 39.703125 47.90625 37.703125 47.90625 
Q 30.515625 47.90625 25.140625 42.453125 
Q 19.78125 37.015625 18.015625 27.875 
L 12.5 0 
L 3.515625 0 
L 14.203125 54.6875 
L 23.1875 54.6875 
L 21.484375 46.1875 
Q 25.046875 50.921875 30 53.453125 
Q 34.96875 56 40.578125 56 
Q 42.046875 56 43.453125 55.828125 
Q 44.875 55.671875 46.296875 55.28125 
z
" id="DejaVuSans-Oblique-72"/>
      <path d="M 30.078125 31.34375 
L 16.3125 -13.1875 
L 8.015625 -13.1875 
L 21.78125 31.34375 
L 8.015625 75.875 
L 16.3125 75.875 
z
" id="DejaVuSans-27e9"/>
     </defs>
     <g transform="translate(22.396875 161.1)rotate(-90)scale(0.2 -0.2)">
      <use transform="translate(0 0.125)" xlink:href="#DejaVuSans-27e8"/>
      <use transform="translate(39.013672 0.125)" xlink:href="#DejaVuSans-Oblique-72"/>
      <use transform="translate(80.126953 0.125)" xlink:href="#DejaVuSans-27e9"/>
     </g>
    </g>
   </g>
   <g id="line2d_29">
    <path clip-path="url(#p9940418529)" d="M 59.14375 272.645455 
L 64.342508 198.855561 
L 69.541266 148.601259 
L 74.740023 116.472437 
L 79.938781 93.390047 
L 85.137539 79.971904 
L 90.336297 70.010232 
L 95.535054 62.302251 
L 100.733812 56.380015 
L 105.93257 51.938245 
L 111.131328 49.516344 
L 116.330085 51.184877 
L 121.528843 50.595471 
L 126.727601 48.48701 
L 131.926359 48.926624 
L 137.125116 45.946278 
L 142.323874 46.295014 
L 147.522632 47.581971 
L 152.72139 49.809778 
L 157.920148 51.816846 
L 163.118905 48.650675 
L 168.317663 48.268094 
L 173.516421 48.423426 
L 178.715179 48.467062 
L 183.913936 49.040458 
L 189.112694 44.774856 
L 194.311452 48.657693 
L 199.51021 47.051845 
L 204.708967 46.703436 
L 209.907725 47.424979 
L 215.106483 45.112878 
L 220.305241 46.3701 
L 225.503998 47.851062 
L 230.702756 45.801582 
L 235.901514 46.068353 
L 241.100272 44.289605 
L 246.29903 42.356801 
L 251.497787 44.766142 
L 256.696545 43.796672 
L 261.895303 45.947656 
L 267.094061 43.892812 
L 272.292818 43.564346 
L 277.491576 41.13343 
L 282.690334 38.883886 
L 287.889092 42.516126 
L 293.087849 43.256808 
L 298.286607 47.479415 
L 303.485365 45.049113 
L 308.684123 46.177744 
L 313.88288 46.64066 
L 319.081638 50.065396 
L 324.280396 49.396322 
L 329.479154 52.256619 
L 334.677911 48.219851 
L 339.876669 49.816075 
L 345.075427 50.962234 
L 350.274185 49.763204 
L 355.472943 45.011926 
L 360.6717 45.006685 
L 365.870458 46.425274 
L 371.069216 41.909531 
L 376.267974 42.171023 
L 381.466731 42.488732 
L 386.665489 41.518292 
L 391.864247 42.706739 
L 397.063005 40.503084 
L 402.261762 42.985098 
L 407.46052 45.677878 
L 412.659278 45.753913 
L 417.858036 47.297935 
" style="fill:none;stroke:#1f77b4;stroke-linecap:square;stroke-width:3;"/>
   </g>
   <g id="line2d_30">
    <path clip-path="url(#p9940418529)" d="M 59.14375 272.645455 
L 64.342508 197.999863 
L 69.541266 144.990092 
L 74.740023 123.267221 
L 79.938781 92.632802 
L 85.137539 71.355683 
L 90.336297 83.847329 
L 95.535054 87.923343 
L 100.733812 75.726568 
L 105.93257 55.993314 
L 111.131328 47.430685 
L 116.330085 42.892497 
L 121.528843 53.573221 
L 126.727601 44.714682 
L 131.926359 41.461608 
L 137.125116 48.549106 
L 142.323874 47.022032 
L 147.522632 48.319562 
L 152.72139 53.538366 
L 157.920148 60.894725 
L 163.118905 57.755428 
L 168.317663 54.044142 
L 173.516421 51.976952 
L 178.715179 46.442004 
L 183.913936 50.173078 
L 189.112694 48.824159 
L 194.311452 46.534879 
L 199.51021 42.669923 
L 204.708967 45.196766 
L 209.907725 52.288937 
L 215.106483 47.325625 
L 220.305241 52.938703 
L 225.503998 51.563028 
L 230.702756 52.601065 
L 235.901514 51.215088 
L 241.100272 42.748854 
L 246.29903 47.105136 
L 251.497787 49.145624 
L 256.696545 44.415207 
L 261.895303 41.855555 
L 267.094061 45.642564 
L 272.292818 46.836382 
L 277.491576 46.684813 
L 282.690334 50.51177 
L 287.889092 45.714522 
L 293.087849 43.451204 
L 298.286607 42.041205 
L 303.485365 45.635089 
L 308.684123 46.246518 
L 313.88288 46.706771 
L 319.081638 45.682242 
L 324.280396 49.310908 
L 329.479154 47.942226 
L 334.677911 46.41259 
L 339.876669 44.228913 
L 345.075427 44.527796 
L 350.274185 45.992273 
L 355.472943 46.032525 
L 360.6717 47.533569 
L 365.870458 46.790464 
L 371.069216 48.968212 
L 376.267974 48.00306 
L 381.466731 47.874593 
L 386.665489 47.681917 
L 391.864247 49.004842 
L 397.063005 49.592237 
L 402.261762 47.898159 
L 407.46052 48.396448 
L 412.659278 49.24966 
L 417.858036 46.822342 
" style="fill:none;stroke:#ff7f0e;stroke-linecap:square;stroke-width:3;"/>
   </g>
   <g id="line2d_31">
    <path clip-path="url(#p9940418529)" d="M 59.14375 272.645455 
L 64.342508 197.49032 
L 69.541266 145.016855 
L 74.740023 123.434666 
L 79.938781 91.50526 
L 85.137539 71.426969 
L 90.336297 86.717049 
L 95.535054 85.266514 
L 100.733812 76.916886 
L 105.93257 63.431464 
L 111.131328 51.700609 
L 116.330085 45.056276 
L 121.528843 50.999176 
L 126.727601 45.554448 
L 131.926359 45.105495 
L 137.125116 47.920261 
L 142.323874 47.027256 
L 147.522632 46.505202 
L 152.72139 48.366522 
L 157.920148 57.806768 
L 163.118905 55.898824 
L 168.317663 52.442726 
L 173.516421 50.035026 
L 178.715179 47.256102 
L 183.913936 50.573985 
L 189.112694 49.021843 
L 194.311452 46.256416 
L 199.51021 42.309538 
L 204.708967 45.77689 
L 209.907725 49.787687 
L 215.106483 46.850433 
L 220.305241 51.793899 
L 225.503998 51.336345 
L 230.702756 52.521162 
L 235.901514 51.047343 
L 241.100272 42.969531 
L 246.29903 47.539865 
L 251.497787 49.243114 
L 256.696545 44.22859 
L 261.895303 41.972732 
L 267.094061 44.915377 
L 272.292818 46.609127 
L 277.491576 46.290761 
L 282.690334 50.551936 
L 287.889092 45.629645 
L 293.087849 43.294384 
L 298.286607 41.776629 
L 303.485365 45.602277 
L 308.684123 46.622696 
L 313.88288 46.860112 
L 319.081638 45.798157 
L 324.280396 49.053203 
L 329.479154 47.809217 
L 334.677911 46.205786 
L 339.876669 43.937884 
L 345.075427 44.578024 
L 350.274185 45.99118 
L 355.472943 45.808001 
L 360.6717 47.290314 
L 365.870458 46.571414 
L 371.069216 48.891753 
L 376.267974 48.067497 
L 381.466731 47.625586 
L 386.665489 47.586126 
L 391.864247 49.013061 
L 397.063005 49.447227 
L 402.261762 47.880674 
L 407.46052 48.283735 
L 412.659278 49.485772 
L 417.858036 46.884276 
" style="fill:none;stroke:#319000;stroke-linecap:square;stroke-width:3;"/>
   </g>
   <g id="patch_3">
    <path d="M 59.14375 285 
L 59.14375 13.2 
" style="fill:none;stroke:#000000;stroke-linecap:square;stroke-linejoin:miter;stroke-width:2;"/>
   </g>
   <g id="patch_4">
    <path d="M 423.056793 285 
L 423.056793 13.2 
" style="fill:none;"/>
   </g>
   <g id="patch_5">
    <path d="M 59.14375 285 
L 423.056793 285 
" style="fill:none;stroke:#000000;stroke-linecap:square;stroke-linejoin:miter;stroke-width:2;"/>
   </g>
   <g id="patch_6">
    <path d="M 59.14375 13.2 
L 423.056793 13.2 
" style="fill:none;"/>
   </g>
   <g id="legend_1">
    <g id="patch_7">
     <path d="M 69.64375 277.5 
L 279.683594 277.5 
Q 282.683594 277.5 282.683594 274.5 
L 282.683594 209.948438 
Q 282.683594 206.948438 279.683594 206.948438 
L 69.64375 206.948438 
Q 66.64375 206.948438 66.64375 209.948438 
L 66.64375 274.5 
Q 66.64375 277.5 69.64375 277.5 
z
" style="fill:#ffffff;opacity:0.8;stroke:#cccccc;stroke-linejoin:miter;"/>
    </g>
    <g id="line2d_32">
     <path d="M 72.64375 219.096094 
L 102.64375 219.096094 
" style="fill:none;stroke:#1f77b4;stroke-linecap:square;stroke-width:3;"/>
    </g>
    <g id="line2d_33"/>
    <g id="text_17">
     <!-- Single Lineage -->
     <defs>
      <path d="M 53.515625 70.515625 
L 53.515625 60.890625 
Q 47.90625 63.578125 42.921875 64.890625 
Q 37.9375 66.21875 33.296875 66.21875 
Q 25.25 66.21875 20.875 63.09375 
Q 16.5 59.96875 16.5 54.203125 
Q 16.5 49.359375 19.40625 46.890625 
Q 22.3125 44.4375 30.421875 42.921875 
L 36.375 41.703125 
Q 47.40625 39.59375 52.65625 34.296875 
Q 57.90625 29 57.90625 20.125 
Q 57.90625 9.515625 50.796875 4.046875 
Q 43.703125 -1.421875 29.984375 -1.421875 
Q 24.8125 -1.421875 18.96875 -0.25 
Q 13.140625 0.921875 6.890625 3.21875 
L 6.890625 13.375 
Q 12.890625 10.015625 18.65625 8.296875 
Q 24.421875 6.59375 29.984375 6.59375 
Q 38.421875 6.59375 43.015625 9.90625 
Q 47.609375 13.234375 47.609375 19.390625 
Q 47.609375 24.75 44.3125 27.78125 
Q 41.015625 30.8125 33.5 32.328125 
L 27.484375 33.5 
Q 16.453125 35.6875 11.515625 40.375 
Q 6.59375 45.0625 6.59375 53.421875 
Q 6.59375 63.09375 13.40625 68.65625 
Q 20.21875 74.21875 32.171875 74.21875 
Q 37.3125 74.21875 42.625 73.28125 
Q 47.953125 72.359375 53.515625 70.515625 
z
" id="DejaVuSans-53"/>
      <path d="M 9.421875 54.6875 
L 18.40625 54.6875 
L 18.40625 0 
L 9.421875 0 
z
M 9.421875 75.984375 
L 18.40625 75.984375 
L 18.40625 64.59375 
L 9.421875 64.59375 
z
" id="DejaVuSans-69"/>
      <path d="M 54.890625 33.015625 
L 54.890625 0 
L 45.90625 0 
L 45.90625 32.71875 
Q 45.90625 40.484375 42.875 44.328125 
Q 39.84375 48.1875 33.796875 48.1875 
Q 26.515625 48.1875 22.3125 43.546875 
Q 18.109375 38.921875 18.109375 30.90625 
L 18.109375 0 
L 9.078125 0 
L 9.078125 54.6875 
L 18.109375 54.6875 
L 18.109375 46.1875 
Q 21.34375 51.125 25.703125 53.5625 
Q 30.078125 56 35.796875 56 
Q 45.21875 56 50.046875 50.171875 
Q 54.890625 44.34375 54.890625 33.015625 
z
" id="DejaVuSans-6e"/>
      <path d="M 45.40625 27.984375 
Q 45.40625 37.75 41.375 43.109375 
Q 37.359375 48.484375 30.078125 48.484375 
Q 22.859375 48.484375 18.828125 43.109375 
Q 14.796875 37.75 14.796875 27.984375 
Q 14.796875 18.265625 18.828125 12.890625 
Q 22.859375 7.515625 30.078125 7.515625 
Q 37.359375 7.515625 41.375 12.890625 
Q 45.40625 18.265625 45.40625 27.984375 
z
M 54.390625 6.78125 
Q 54.390625 -7.171875 48.1875 -13.984375 
Q 42 -20.796875 29.203125 -20.796875 
Q 24.46875 -20.796875 20.265625 -20.09375 
Q 16.0625 -19.390625 12.109375 -17.921875 
L 12.109375 -9.1875 
Q 16.0625 -11.328125 19.921875 -12.34375 
Q 23.78125 -13.375 27.78125 -13.375 
Q 36.625 -13.375 41.015625 -8.765625 
Q 45.40625 -4.15625 45.40625 5.171875 
L 45.40625 9.625 
Q 42.625 4.78125 38.28125 2.390625 
Q 33.9375 0 27.875 0 
Q 17.828125 0 11.671875 7.65625 
Q 5.515625 15.328125 5.515625 27.984375 
Q 5.515625 40.671875 11.671875 48.328125 
Q 17.828125 56 27.875 56 
Q 33.9375 56 38.28125 53.609375 
Q 42.625 51.21875 45.40625 46.390625 
L 45.40625 54.6875 
L 54.390625 54.6875 
z
" id="DejaVuSans-67"/>
      <path d="M 9.421875 75.984375 
L 18.40625 75.984375 
L 18.40625 0 
L 9.421875 0 
z
" id="DejaVuSans-6c"/>
      <path d="M 56.203125 29.59375 
L 56.203125 25.203125 
L 14.890625 25.203125 
Q 15.484375 15.921875 20.484375 11.0625 
Q 25.484375 6.203125 34.421875 6.203125 
Q 39.59375 6.203125 44.453125 7.46875 
Q 49.3125 8.734375 54.109375 11.28125 
L 54.109375 2.78125 
Q 49.265625 0.734375 44.1875 -0.34375 
Q 39.109375 -1.421875 33.890625 -1.421875 
Q 20.796875 -1.421875 13.15625 6.1875 
Q 5.515625 13.8125 5.515625 26.8125 
Q 5.515625 40.234375 12.765625 48.109375 
Q 20.015625 56 32.328125 56 
Q 43.359375 56 49.78125 48.890625 
Q 56.203125 41.796875 56.203125 29.59375 
z
M 47.21875 32.234375 
Q 47.125 39.59375 43.09375 43.984375 
Q 39.0625 48.390625 32.421875 48.390625 
Q 24.90625 48.390625 20.390625 44.140625 
Q 15.875 39.890625 15.1875 32.171875 
z
" id="DejaVuSans-65"/>
      <path id="DejaVuSans-20"/>
      <path d="M 9.8125 72.90625 
L 19.671875 72.90625 
L 19.671875 8.296875 
L 55.171875 8.296875 
L 55.171875 0 
L 9.8125 0 
z
" id="DejaVuSans-4c"/>
      <path d="M 34.28125 27.484375 
Q 23.390625 27.484375 19.1875 25 
Q 14.984375 22.515625 14.984375 16.5 
Q 14.984375 11.71875 18.140625 8.90625 
Q 21.296875 6.109375 26.703125 6.109375 
Q 34.1875 6.109375 38.703125 11.40625 
Q 43.21875 16.703125 43.21875 25.484375 
L 43.21875 27.484375 
z
M 52.203125 31.203125 
L 52.203125 0 
L 43.21875 0 
L 43.21875 8.296875 
Q 40.140625 3.328125 35.546875 0.953125 
Q 30.953125 -1.421875 24.3125 -1.421875 
Q 15.921875 -1.421875 10.953125 3.296875 
Q 6 8.015625 6 15.921875 
Q 6 25.140625 12.171875 29.828125 
Q 18.359375 34.515625 30.609375 34.515625 
L 43.21875 34.515625 
L 43.21875 35.40625 
Q 43.21875 41.609375 39.140625 45 
Q 35.0625 48.390625 27.6875 48.390625 
Q 23 48.390625 18.546875 47.265625 
Q 14.109375 46.140625 10.015625 43.890625 
L 10.015625 52.203125 
Q 14.9375 54.109375 19.578125 55.046875 
Q 24.21875 56 28.609375 56 
Q 40.484375 56 46.34375 49.84375 
Q 52.203125 43.703125 52.203125 31.203125 
z
" id="DejaVuSans-61"/>
     </defs>
     <g transform="translate(114.64375 224.346094)scale(0.15 -0.15)">
      <use xlink:href="#DejaVuSans-53"/>
      <use x="63.476562" xlink:href="#DejaVuSans-69"/>
      <use x="91.259766" xlink:href="#DejaVuSans-6e"/>
      <use x="154.638672" xlink:href="#DejaVuSans-67"/>
      <use x="218.115234" xlink:href="#DejaVuSans-6c"/>
      <use x="245.898438" xlink:href="#DejaVuSans-65"/>
      <use x="307.421875" xlink:href="#DejaVuSans-20"/>
      <use x="339.208984" xlink:href="#DejaVuSans-4c"/>
      <use x="394.921875" xlink:href="#DejaVuSans-69"/>
      <use x="422.705078" xlink:href="#DejaVuSans-6e"/>
      <use x="486.083984" xlink:href="#DejaVuSans-65"/>
      <use x="547.607422" xlink:href="#DejaVuSans-61"/>
      <use x="608.886719" xlink:href="#DejaVuSans-67"/>
      <use x="672.363281" xlink:href="#DejaVuSans-65"/>
     </g>
    </g>
    <g id="line2d_34">
     <path d="M 72.64375 241.113281 
L 102.64375 241.113281 
" style="fill:none;stroke:#ff7f0e;stroke-linecap:square;stroke-width:3;"/>
    </g>
    <g id="line2d_35"/>
    <g id="text_18">
     <!-- Population Snapshots -->
     <defs>
      <path d="M 19.671875 64.796875 
L 19.671875 37.40625 
L 32.078125 37.40625 
Q 38.96875 37.40625 42.71875 40.96875 
Q 46.484375 44.53125 46.484375 51.125 
Q 46.484375 57.671875 42.71875 61.234375 
Q 38.96875 64.796875 32.078125 64.796875 
z
M 9.8125 72.90625 
L 32.078125 72.90625 
Q 44.34375 72.90625 50.609375 67.359375 
Q 56.890625 61.8125 56.890625 51.125 
Q 56.890625 40.328125 50.609375 34.8125 
Q 44.34375 29.296875 32.078125 29.296875 
L 19.671875 29.296875 
L 19.671875 0 
L 9.8125 0 
z
" id="DejaVuSans-50"/>
      <path d="M 30.609375 48.390625 
Q 23.390625 48.390625 19.1875 42.75 
Q 14.984375 37.109375 14.984375 27.296875 
Q 14.984375 17.484375 19.15625 11.84375 
Q 23.34375 6.203125 30.609375 6.203125 
Q 37.796875 6.203125 41.984375 11.859375 
Q 46.1875 17.53125 46.1875 27.296875 
Q 46.1875 37.015625 41.984375 42.703125 
Q 37.796875 48.390625 30.609375 48.390625 
z
M 30.609375 56 
Q 42.328125 56 49.015625 48.375 
Q 55.71875 40.765625 55.71875 27.296875 
Q 55.71875 13.875 49.015625 6.21875 
Q 42.328125 -1.421875 30.609375 -1.421875 
Q 18.84375 -1.421875 12.171875 6.21875 
Q 5.515625 13.875 5.515625 27.296875 
Q 5.515625 40.765625 12.171875 48.375 
Q 18.84375 56 30.609375 56 
z
" id="DejaVuSans-6f"/>
      <path d="M 18.109375 8.203125 
L 18.109375 -20.796875 
L 9.078125 -20.796875 
L 9.078125 54.6875 
L 18.109375 54.6875 
L 18.109375 46.390625 
Q 20.953125 51.265625 25.265625 53.625 
Q 29.59375 56 35.59375 56 
Q 45.5625 56 51.78125 48.09375 
Q 58.015625 40.1875 58.015625 27.296875 
Q 58.015625 14.40625 51.78125 6.484375 
Q 45.5625 -1.421875 35.59375 -1.421875 
Q 29.59375 -1.421875 25.265625 0.953125 
Q 20.953125 3.328125 18.109375 8.203125 
z
M 48.6875 27.296875 
Q 48.6875 37.203125 44.609375 42.84375 
Q 40.53125 48.484375 33.40625 48.484375 
Q 26.265625 48.484375 22.1875 42.84375 
Q 18.109375 37.203125 18.109375 27.296875 
Q 18.109375 17.390625 22.1875 11.75 
Q 26.265625 6.109375 33.40625 6.109375 
Q 40.53125 6.109375 44.609375 11.75 
Q 48.6875 17.390625 48.6875 27.296875 
z
" id="DejaVuSans-70"/>
      <path d="M 8.5 21.578125 
L 8.5 54.6875 
L 17.484375 54.6875 
L 17.484375 21.921875 
Q 17.484375 14.15625 20.5 10.265625 
Q 23.53125 6.390625 29.59375 6.390625 
Q 36.859375 6.390625 41.078125 11.03125 
Q 45.3125 15.671875 45.3125 23.6875 
L 45.3125 54.6875 
L 54.296875 54.6875 
L 54.296875 0 
L 45.3125 0 
L 45.3125 8.40625 
Q 42.046875 3.421875 37.71875 1 
Q 33.40625 -1.421875 27.6875 -1.421875 
Q 18.265625 -1.421875 13.375 4.4375 
Q 8.5 10.296875 8.5 21.578125 
z
M 31.109375 56 
z
" id="DejaVuSans-75"/>
      <path d="M 18.3125 70.21875 
L 18.3125 54.6875 
L 36.8125 54.6875 
L 36.8125 47.703125 
L 18.3125 47.703125 
L 18.3125 18.015625 
Q 18.3125 11.328125 20.140625 9.421875 
Q 21.96875 7.515625 27.59375 7.515625 
L 36.8125 7.515625 
L 36.8125 0 
L 27.59375 0 
Q 17.1875 0 13.234375 3.875 
Q 9.28125 7.765625 9.28125 18.015625 
L 9.28125 47.703125 
L 2.6875 47.703125 
L 2.6875 54.6875 
L 9.28125 54.6875 
L 9.28125 70.21875 
z
" id="DejaVuSans-74"/>
      <path d="M 44.28125 53.078125 
L 44.28125 44.578125 
Q 40.484375 46.53125 36.375 47.5 
Q 32.28125 48.484375 27.875 48.484375 
Q 21.1875 48.484375 17.84375 46.4375 
Q 14.5 44.390625 14.5 40.28125 
Q 14.5 37.15625 16.890625 35.375 
Q 19.28125 33.59375 26.515625 31.984375 
L 29.59375 31.296875 
Q 39.15625 29.25 43.1875 25.515625 
Q 47.21875 21.78125 47.21875 15.09375 
Q 47.21875 7.46875 41.1875 3.015625 
Q 35.15625 -1.421875 24.609375 -1.421875 
Q 20.21875 -1.421875 15.453125 -0.5625 
Q 10.6875 0.296875 5.421875 2 
L 5.421875 11.28125 
Q 10.40625 8.6875 15.234375 7.390625 
Q 20.0625 6.109375 24.8125 6.109375 
Q 31.15625 6.109375 34.5625 8.28125 
Q 37.984375 10.453125 37.984375 14.40625 
Q 37.984375 18.0625 35.515625 20.015625 
Q 33.0625 21.96875 24.703125 23.78125 
L 21.578125 24.515625 
Q 13.234375 26.265625 9.515625 29.90625 
Q 5.8125 33.546875 5.8125 39.890625 
Q 5.8125 47.609375 11.28125 51.796875 
Q 16.75 56 26.8125 56 
Q 31.78125 56 36.171875 55.265625 
Q 40.578125 54.546875 44.28125 53.078125 
z
" id="DejaVuSans-73"/>
      <path d="M 54.890625 33.015625 
L 54.890625 0 
L 45.90625 0 
L 45.90625 32.71875 
Q 45.90625 40.484375 42.875 44.328125 
Q 39.84375 48.1875 33.796875 48.1875 
Q 26.515625 48.1875 22.3125 43.546875 
Q 18.109375 38.921875 18.109375 30.90625 
L 18.109375 0 
L 9.078125 0 
L 9.078125 75.984375 
L 18.109375 75.984375 
L 18.109375 46.1875 
Q 21.34375 51.125 25.703125 53.5625 
Q 30.078125 56 35.796875 56 
Q 45.21875 56 50.046875 50.171875 
Q 54.890625 44.34375 54.890625 33.015625 
z
" id="DejaVuSans-68"/>
     </defs>
     <g transform="translate(114.64375 246.363281)scale(0.15 -0.15)">
      <use xlink:href="#DejaVuSans-50"/>
      <use x="60.255859" xlink:href="#DejaVuSans-6f"/>
      <use x="121.4375" xlink:href="#DejaVuSans-70"/>
      <use x="184.914062" xlink:href="#DejaVuSans-75"/>
      <use x="248.292969" xlink:href="#DejaVuSans-6c"/>
      <use x="276.076172" xlink:href="#DejaVuSans-61"/>
      <use x="337.355469" xlink:href="#DejaVuSans-74"/>
      <use x="376.564453" xlink:href="#DejaVuSans-69"/>
      <use x="404.347656" xlink:href="#DejaVuSans-6f"/>
      <use x="465.529297" xlink:href="#DejaVuSans-6e"/>
      <use x="528.908203" xlink:href="#DejaVuSans-20"/>
      <use x="560.695312" xlink:href="#DejaVuSans-53"/>
      <use x="624.171875" xlink:href="#DejaVuSans-6e"/>
      <use x="687.550781" xlink:href="#DejaVuSans-61"/>
      <use x="748.830078" xlink:href="#DejaVuSans-70"/>
      <use x="812.306641" xlink:href="#DejaVuSans-73"/>
      <use x="864.40625" xlink:href="#DejaVuSans-68"/>
      <use x="927.785156" xlink:href="#DejaVuSans-6f"/>
      <use x="988.966797" xlink:href="#DejaVuSans-74"/>
      <use x="1028.175781" xlink:href="#DejaVuSans-73"/>
     </g>
    </g>
    <g id="line2d_36">
     <path d="M 72.64375 263.130469 
L 102.64375 263.130469 
" style="fill:none;stroke:#319000;stroke-linecap:square;stroke-width:3;"/>
    </g>
    <g id="line2d_37"/>
    <g id="text_19">
     <!-- Lineage Tracking -->
     <defs>
      <path d="M -0.296875 72.90625 
L 61.375 72.90625 
L 61.375 64.59375 
L 35.5 64.59375 
L 35.5 0 
L 25.59375 0 
L 25.59375 64.59375 
L -0.296875 64.59375 
z
" id="DejaVuSans-54"/>
      <path d="M 41.109375 46.296875 
Q 39.59375 47.171875 37.8125 47.578125 
Q 36.03125 48 33.890625 48 
Q 26.265625 48 22.1875 43.046875 
Q 18.109375 38.09375 18.109375 28.8125 
L 18.109375 0 
L 9.078125 0 
L 9.078125 54.6875 
L 18.109375 54.6875 
L 18.109375 46.1875 
Q 20.953125 51.171875 25.484375 53.578125 
Q 30.03125 56 36.53125 56 
Q 37.453125 56 38.578125 55.875 
Q 39.703125 55.765625 41.0625 55.515625 
z
" id="DejaVuSans-72"/>
      <path d="M 48.78125 52.59375 
L 48.78125 44.1875 
Q 44.96875 46.296875 41.140625 47.34375 
Q 37.3125 48.390625 33.40625 48.390625 
Q 24.65625 48.390625 19.8125 42.84375 
Q 14.984375 37.3125 14.984375 27.296875 
Q 14.984375 17.28125 19.8125 11.734375 
Q 24.65625 6.203125 33.40625 6.203125 
Q 37.3125 6.203125 41.140625 7.25 
Q 44.96875 8.296875 48.78125 10.40625 
L 48.78125 2.09375 
Q 45.015625 0.34375 40.984375 -0.53125 
Q 36.96875 -1.421875 32.421875 -1.421875 
Q 20.0625 -1.421875 12.78125 6.34375 
Q 5.515625 14.109375 5.515625 27.296875 
Q 5.515625 40.671875 12.859375 48.328125 
Q 20.21875 56 33.015625 56 
Q 37.15625 56 41.109375 55.140625 
Q 45.0625 54.296875 48.78125 52.59375 
z
" id="DejaVuSans-63"/>
      <path d="M 9.078125 75.984375 
L 18.109375 75.984375 
L 18.109375 31.109375 
L 44.921875 54.6875 
L 56.390625 54.6875 
L 27.390625 29.109375 
L 57.625 0 
L 45.90625 0 
L 18.109375 26.703125 
L 18.109375 0 
L 9.078125 0 
z
" id="DejaVuSans-6b"/>
     </defs>
     <g transform="translate(114.64375 268.380469)scale(0.15 -0.15)">
      <use xlink:href="#DejaVuSans-4c"/>
      <use x="55.712891" xlink:href="#DejaVuSans-69"/>
      <use x="83.496094" xlink:href="#DejaVuSans-6e"/>
      <use x="146.875" xlink:href="#DejaVuSans-65"/>
      <use x="208.398438" xlink:href="#DejaVuSans-61"/>
      <use x="269.677734" xlink:href="#DejaVuSans-67"/>
      <use x="333.154297" xlink:href="#DejaVuSans-65"/>
      <use x="394.677734" xlink:href="#DejaVuSans-20"/>
      <use x="426.464844" xlink:href="#DejaVuSans-54"/>
      <use x="487.330078" xlink:href="#DejaVuSans-72"/>
      <use x="528.443359" xlink:href="#DejaVuSans-61"/>
      <use x="589.722656" xlink:href="#DejaVuSans-63"/>
      <use x="644.703125" xlink:href="#DejaVuSans-6b"/>
      <use x="702.613281" xlink:href="#DejaVuSans-69"/>
      <use x="730.396484" xlink:href="#DejaVuSans-6e"/>
      <use x="793.775391" xlink:href="#DejaVuSans-67"/>
     </g>
    </g>
   </g>
  </g>
  <g id="axes_2">
   <g id="patch_8">
    <path d="M 532.230707 285 
L 896.14375 285 
L 896.14375 13.2 
L 532.230707 13.2 
z
" style="fill:#ffffff;"/>
   </g>
   <g id="PolyCollection_4">
    <defs>
     <path d="M 532.230707 -70.069454 
L 532.230707 -70.069454 
L 537.429464 -226.759374 
L 542.628222 -197.813889 
L 547.82698 -204.700556 
L 553.025738 -202.924981 
L 558.224495 -177.028832 
L 563.423253 -195.078648 
L 568.622011 -203.782629 
L 573.820769 -211.317043 
L 579.019526 -184.829928 
L 584.218284 -209.582524 
L 589.417042 -204.293835 
L 594.6158 -184.744495 
L 599.814557 -182.594568 
L 605.013315 -197.870973 
L 610.212073 -198.298964 
L 615.410831 -210.585484 
L 620.609589 -204.50071 
L 625.808346 -195.077987 
L 631.007104 -217.969348 
L 636.205862 -204.196959 
L 641.40462 -209.69838 
L 646.603377 -203.854035 
L 651.802135 -198.248285 
L 657.000893 -205.854052 
L 662.199651 -193.319295 
L 667.398408 -188.318873 
L 672.597166 -191.762354 
L 677.795924 -195.387647 
L 682.994682 -208.189619 
L 688.193439 -209.537172 
L 693.392197 -217.362495 
L 698.590955 -224.645008 
L 703.789713 -207.909058 
L 708.98847 -208.64355 
L 714.187228 -205.681959 
L 719.385986 -211.989489 
L 724.584744 -212.106787 
L 729.783502 -228.413003 
L 734.982259 -229.157798 
L 740.181017 -227.198555 
L 745.379775 -223.769179 
L 750.578533 -216.267237 
L 755.77729 -212.148868 
L 760.976048 -207.801873 
L 766.174806 -210.013484 
L 771.373564 -210.039298 
L 776.572321 -213.818199 
L 781.771079 -213.389323 
L 786.969837 -216.953686 
L 792.168595 -226.547331 
L 797.367352 -227.901961 
L 802.56611 -220.863697 
L 807.764868 -220.282263 
L 812.963626 -214.710111 
L 818.162384 -211.920815 
L 823.361141 -218.592017 
L 828.559899 -218.305386 
L 833.758657 -216.849591 
L 838.957415 -223.49069 
L 844.156172 -227.549623 
L 849.35493 -226.94243 
L 854.553688 -222.435964 
L 859.752446 -221.555695 
L 864.951203 -217.276028 
L 870.149961 -211.654083 
L 875.348719 -214.238921 
L 880.547477 -217.805079 
L 885.746234 -221.051793 
L 890.944992 -228.609774 
L 890.944992 -237.741063 
L 890.944992 -237.741063 
L 885.746234 -229.846857 
L 880.547477 -227.298605 
L 875.348719 -223.191845 
L 870.149961 -220.555577 
L 864.951203 -226.574752 
L 859.752446 -230.769279 
L 854.553688 -232.728351 
L 849.35493 -237.928858 
L 844.156172 -239.110748 
L 838.957415 -235.763035 
L 833.758657 -228.953101 
L 828.559899 -231.896068 
L 823.361141 -231.648236 
L 818.162384 -224.75781 
L 812.963626 -228.391289 
L 807.764868 -232.827962 
L 802.56611 -235.163612 
L 797.367352 -243.982661 
L 792.168595 -242.394631 
L 786.969837 -233.315372 
L 781.771079 -231.811097 
L 776.572321 -232.669357 
L 771.373564 -227.096208 
L 766.174806 -226.557189 
L 760.976048 -224.238902 
L 755.77729 -230.383039 
L 750.578533 -235.986037 
L 745.379775 -245.552083 
L 740.181017 -249.240266 
L 734.982259 -255.191039 
L 729.783502 -254.632163 
L 724.584744 -237.293548 
L 719.385986 -239.332623 
L 714.187228 -231.350383 
L 708.98847 -235.290097 
L 703.789713 -231.930032 
L 698.590955 -254.001542 
L 693.392197 -247.559104 
L 688.193439 -240.609249 
L 682.994682 -239.563262 
L 677.795924 -228.842174 
L 672.597166 -224.330702 
L 667.398408 -216.69891 
L 662.199651 -223.76815 
L 657.000893 -244.136802 
L 651.802135 -249.205556 
L 646.603377 -249.044066 
L 641.40462 -259.473254 
L 636.205862 -241.80164 
L 631.007104 -265.02741 
L 625.808346 -242.629725 
L 620.609589 -252.305671 
L 615.410831 -266.859324 
L 610.212073 -249.06019 
L 605.013315 -249.02892 
L 599.814557 -248.227647 
L 594.6158 -246.212476 
L 589.417042 -264.965098 
L 584.218284 -285.328813 
L 579.019526 -249.862276 
L 573.820769 -290.193289 
L 568.622011 -289.639186 
L 563.423253 -289.163179 
L 558.224495 -241.910433 
L 553.025738 -281.148153 
L 547.82698 -282.969287 
L 542.628222 -287.714994 
L 537.429464 -314.018892 
L 532.230707 -70.069454 
z
" id="m501adc4dd2"/>
    </defs>
    <g clip-path="url(#p0af7713b1d)">
     <use style="fill:#ffa035;" x="0" xlink:href="#m501adc4dd2" y="339.573438"/>
    </g>
   </g>
   <g id="PolyCollection_5">
    <defs>
     <path d="M 532.230707 -70.069454 
L 532.230707 -70.069454 
L 537.429464 -234.700365 
L 542.628222 -249.53807 
L 547.82698 -227.999761 
L 553.025738 -212.597972 
L 558.224495 -207.281793 
L 563.423253 -198.737684 
L 568.622011 -193.510853 
L 573.820769 -193.900382 
L 579.019526 -201.281531 
L 584.218284 -207.756303 
L 589.417042 -212.930444 
L 594.6158 -219.916116 
L 599.814557 -213.289356 
L 605.013315 -210.474732 
L 610.212073 -205.517794 
L 615.410831 -203.316878 
L 620.609589 -204.921149 
L 625.808346 -205.64704 
L 631.007104 -205.736718 
L 636.205862 -215.454362 
L 641.40462 -217.484891 
L 646.603377 -218.071156 
L 651.802135 -212.94884 
L 657.000893 -203.872918 
L 662.199651 -206.252574 
L 667.398408 -205.482226 
L 672.597166 -201.575712 
L 677.795924 -200.227886 
L 682.994682 -207.119678 
L 688.193439 -211.048361 
L 693.392197 -208.375789 
L 698.590955 -215.068139 
L 703.789713 -209.366977 
L 708.98847 -203.347972 
L 714.187228 -203.436325 
L 719.385986 -204.693113 
L 724.584744 -203.546139 
L 729.783502 -194.884616 
L 734.982259 -204.514941 
L 740.181017 -207.959152 
L 745.379775 -205.490594 
L 750.578533 -207.379248 
L 755.77729 -208.352049 
L 760.976048 -208.125476 
L 766.174806 -205.234391 
L 771.373564 -197.042408 
L 776.572321 -194.376768 
L 781.771079 -196.821312 
L 786.969837 -201.646538 
L 792.168595 -206.557853 
L 797.367352 -214.65748 
L 802.56611 -212.551157 
L 807.764868 -209.155842 
L 812.963626 -193.333828 
L 818.162384 -193.942375 
L 823.361141 -197.168152 
L 828.559899 -200.439418 
L 833.758657 -201.490673 
L 838.957415 -204.733603 
L 844.156172 -211.068458 
L 849.35493 -216.020741 
L 854.553688 -205.206935 
L 859.752446 -205.69942 
L 864.951203 -199.480928 
L 870.149961 -201.060381 
L 875.348719 -199.17655 
L 880.547477 -201.144102 
L 885.746234 -205.943762 
L 890.944992 -209.513685 
L 890.944992 -227.965317 
L 890.944992 -227.965317 
L 885.746234 -222.725607 
L 880.547477 -215.733116 
L 875.348719 -213.409747 
L 870.149961 -215.201126 
L 864.951203 -214.225147 
L 859.752446 -221.09396 
L 854.553688 -221.044051 
L 849.35493 -233.358926 
L 844.156172 -227.779139 
L 838.957415 -220.963639 
L 833.758657 -217.750217 
L 828.559899 -218.044435 
L 823.361141 -212.55703 
L 818.162384 -208.714743 
L 812.963626 -207.322087 
L 807.764868 -225.525127 
L 802.56611 -228.028152 
L 797.367352 -230.30197 
L 792.168595 -222.241924 
L 786.969837 -217.525242 
L 781.771079 -211.207138 
L 776.572321 -208.963719 
L 771.373564 -210.611804 
L 766.174806 -220.453807 
L 760.976048 -223.48973 
L 755.77729 -224.892325 
L 750.578533 -222.852343 
L 745.379775 -221.070478 
L 740.181017 -224.670623 
L 734.982259 -219.8522 
L 729.783502 -210.888135 
L 724.584744 -218.92818 
L 719.385986 -219.705238 
L 714.187228 -217.878187 
L 708.98847 -219.386281 
L 703.789713 -224.600758 
L 698.590955 -231.409341 
L 693.392197 -224.825987 
L 688.193439 -228.452063 
L 682.994682 -223.897763 
L 677.795924 -214.426039 
L 672.597166 -216.700097 
L 667.398408 -220.110108 
L 662.199651 -221.46647 
L 657.000893 -218.875356 
L 651.802135 -228.535994 
L 646.603377 -235.363245 
L 641.40462 -236.155449 
L 636.205862 -233.170168 
L 631.007104 -222.057682 
L 625.808346 -221.775297 
L 620.609589 -221.900418 
L 615.410831 -220.513778 
L 610.212073 -220.195445 
L 605.013315 -226.798213 
L 599.814557 -230.306519 
L 594.6158 -236.670082 
L 589.417042 -229.903042 
L 584.218284 -223.904231 
L 579.019526 -218.340581 
L 573.820769 -208.806273 
L 568.622011 -208.040822 
L 563.423253 -213.437899 
L 558.224495 -222.81899 
L 553.025738 -228.869693 
L 547.82698 -246.021822 
L 542.628222 -270.112906 
L 537.429464 -253.028593 
L 532.230707 -70.069454 
z
" id="mbfa35b3a2e"/>
    </defs>
    <g clip-path="url(#p0af7713b1d)">
     <use style="fill:#4db8ff;" x="0" xlink:href="#mbfa35b3a2e" y="339.573438"/>
    </g>
   </g>
   <g id="PolyCollection_6">
    <defs>
     <path d="M 532.230707 -70.069454 
L 532.230707 -70.069454 
L 537.429464 -70.069454 
L 542.628222 -70.069454 
L 547.82698 -70.069454 
L 553.025738 -70.069454 
L 558.224495 -70.069454 
L 563.423253 -66.927983 
L 568.622011 -82.846073 
L 573.820769 -88.015228 
L 579.019526 -87.72058 
L 584.218284 -104.480614 
L 589.417042 -127.68056 
L 594.6158 -118.924288 
L 599.814557 -124.932523 
L 605.013315 -127.475905 
L 610.212073 -133.202674 
L 615.410831 -144.678479 
L 620.609589 -134.569034 
L 625.808346 -140.241892 
L 631.007104 -162.013565 
L 636.205862 -158.648123 
L 641.40462 -158.857024 
L 646.603377 -156.81597 
L 651.802135 -162.859467 
L 657.000893 -168.765227 
L 662.199651 -166.159236 
L 667.398408 -165.310471 
L 672.597166 -167.185494 
L 677.795924 -170.464837 
L 682.994682 -179.196577 
L 688.193439 -178.236724 
L 693.392197 -192.63368 
L 698.590955 -206.81252 
L 703.789713 -191.049621 
L 708.98847 -192.927672 
L 714.187228 -188.524577 
L 719.385986 -193.930183 
L 724.584744 -195.56059 
L 729.783502 -211.3543 
L 734.982259 -215.597412 
L 740.181017 -213.548935 
L 745.379775 -211.622563 
L 750.578533 -207.353218 
L 755.77729 -203.595764 
L 760.976048 -199.808976 
L 766.174806 -200.303312 
L 771.373564 -200.847973 
L 776.572321 -204.189727 
L 781.771079 -206.306057 
L 786.969837 -211.825432 
L 792.168595 -221.259296 
L 797.367352 -222.569535 
L 802.56611 -215.778185 
L 807.764868 -214.886328 
L 812.963626 -212.126964 
L 818.162384 -207.61806 
L 823.361141 -213.915758 
L 828.559899 -214.008504 
L 833.758657 -213.587753 
L 838.957415 -219.55703 
L 844.156172 -224.084075 
L 849.35493 -224.170071 
L 854.553688 -219.988433 
L 859.752446 -218.273272 
L 864.951203 -214.341878 
L 870.149961 -210.185702 
L 875.348719 -211.662436 
L 880.547477 -215.480623 
L 885.746234 -218.664704 
L 890.944992 -226.119312 
L 890.944992 -235.281363 
L 890.944992 -235.281363 
L 885.746234 -227.330428 
L 880.547477 -224.401869 
L 875.348719 -221.212934 
L 870.149961 -217.958578 
L 864.951203 -224.327436 
L 859.752446 -229.582976 
L 854.553688 -230.141748 
L 849.35493 -235.600791 
L 844.156172 -235.707606 
L 838.957415 -232.949775 
L 833.758657 -224.900192 
L 828.559899 -227.217056 
L 823.361141 -226.345704 
L 818.162384 -218.900317 
L 812.963626 -222.425897 
L 807.764868 -228.461056 
L 802.56611 -229.37931 
L 797.367352 -239.430091 
L 792.168595 -236.269885 
L 786.969837 -226.428513 
L 781.771079 -222.058628 
L 776.572321 -220.644377 
L 771.373564 -217.95642 
L 766.174806 -217.494153 
L 760.976048 -216.761881 
L 755.77729 -219.948874 
L 750.578533 -227.201368 
L 745.379775 -234.503017 
L 740.181017 -234.883479 
L 734.982259 -238.308724 
L 729.783502 -236.184652 
L 724.584744 -220.245869 
L 719.385986 -224.585091 
L 714.187228 -213.196344 
L 708.98847 -215.905077 
L 703.789713 -211.27241 
L 698.590955 -231.139924 
L 693.392197 -220.243022 
L 688.193439 -210.384055 
L 682.994682 -214.234339 
L 677.795924 -203.815381 
L 672.597166 -200.88104 
L 667.398408 -193.540141 
L 662.199651 -192.37727 
L 657.000893 -199.822187 
L 651.802135 -197.482314 
L 646.603377 -189.315082 
L 641.40462 -195.814829 
L 636.205862 -191.220463 
L 631.007104 -206.584865 
L 625.808346 -174.431913 
L 620.609589 -168.739499 
L 615.410831 -187.906814 
L 610.212073 -171.236935 
L 605.013315 -165.291284 
L 599.814557 -172.6036 
L 594.6158 -153.724121 
L 589.417042 -168.41768 
L 584.218284 -165.957486 
L 579.019526 -115.556538 
L 573.820769 -135.535347 
L 568.622011 -138.843525 
L 563.423253 -93.039161 
L 558.224495 -70.069454 
L 553.025738 -70.069454 
L 547.82698 -70.069454 
L 542.628222 -70.069454 
L 537.429464 -70.069454 
L 532.230707 -70.069454 
z
" id="m8b3bf8c651"/>
    </defs>
    <g clip-path="url(#p0af7713b1d)">
     <use style="fill:#00c917;" x="0" xlink:href="#m8b3bf8c651" y="339.573438"/>
    </g>
   </g>
   <g id="matplotlib.axis_3">
    <g id="xtick_9">
     <g id="line2d_38">
      <path clip-path="url(#p0af7713b1d)" d="M 532.230707 285 
L 532.230707 13.2 
" style="fill:none;stroke:#b0b0b0;stroke-linecap:square;stroke-width:0.8;"/>
     </g>
     <g id="line2d_39">
      <g>
       <use x="532.230707" xlink:href="#m6dcc7e41ab" y="285"/>
      </g>
     </g>
     <g id="text_20">
      <!-- 0 -->
      <g transform="translate(527.458832 305.897656)scale(0.15 -0.15)">
       <use xlink:href="#DejaVuSans-30"/>
      </g>
     </g>
    </g>
    <g id="xtick_10">
     <g id="line2d_40">
      <path clip-path="url(#p0af7713b1d)" d="M 584.218284 285 
L 584.218284 13.2 
" style="fill:none;stroke:#b0b0b0;stroke-linecap:square;stroke-width:0.8;"/>
     </g>
     <g id="line2d_41">
      <g>
       <use x="584.218284" xlink:href="#m6dcc7e41ab" y="285"/>
      </g>
     </g>
     <g id="text_21">
      <!-- 1 -->
      <g transform="translate(579.446409 305.897656)scale(0.15 -0.15)">
       <use xlink:href="#DejaVuSans-31"/>
      </g>
     </g>
    </g>
    <g id="xtick_11">
     <g id="line2d_42">
      <path clip-path="url(#p0af7713b1d)" d="M 636.205862 285 
L 636.205862 13.2 
" style="fill:none;stroke:#b0b0b0;stroke-linecap:square;stroke-width:0.8;"/>
     </g>
     <g id="line2d_43">
      <g>
       <use x="636.205862" xlink:href="#m6dcc7e41ab" y="285"/>
      </g>
     </g>
     <g id="text_22">
      <!-- 2 -->
      <g transform="translate(631.433987 305.897656)scale(0.15 -0.15)">
       <use xlink:href="#DejaVuSans-32"/>
      </g>
     </g>
    </g>
    <g id="xtick_12">
     <g id="line2d_44">
      <path clip-path="url(#p0af7713b1d)" d="M 688.193439 285 
L 688.193439 13.2 
" style="fill:none;stroke:#b0b0b0;stroke-linecap:square;stroke-width:0.8;"/>
     </g>
     <g id="line2d_45">
      <g>
       <use x="688.193439" xlink:href="#m6dcc7e41ab" y="285"/>
      </g>
     </g>
     <g id="text_23">
      <!-- 3 -->
      <g transform="translate(683.421564 305.897656)scale(0.15 -0.15)">
       <use xlink:href="#DejaVuSans-33"/>
      </g>
     </g>
    </g>
    <g id="xtick_13">
     <g id="line2d_46">
      <path clip-path="url(#p0af7713b1d)" d="M 740.181017 285 
L 740.181017 13.2 
" style="fill:none;stroke:#b0b0b0;stroke-linecap:square;stroke-width:0.8;"/>
     </g>
     <g id="line2d_47">
      <g>
       <use x="740.181017" xlink:href="#m6dcc7e41ab" y="285"/>
      </g>
     </g>
     <g id="text_24">
      <!-- 4 -->
      <g transform="translate(735.409142 305.897656)scale(0.15 -0.15)">
       <use xlink:href="#DejaVuSans-34"/>
      </g>
     </g>
    </g>
    <g id="xtick_14">
     <g id="line2d_48">
      <path clip-path="url(#p0af7713b1d)" d="M 792.168595 285 
L 792.168595 13.2 
" style="fill:none;stroke:#b0b0b0;stroke-linecap:square;stroke-width:0.8;"/>
     </g>
     <g id="line2d_49">
      <g>
       <use x="792.168595" xlink:href="#m6dcc7e41ab" y="285"/>
      </g>
     </g>
     <g id="text_25">
      <!-- 5 -->
      <g transform="translate(787.39672 305.897656)scale(0.15 -0.15)">
       <use xlink:href="#DejaVuSans-35"/>
      </g>
     </g>
    </g>
    <g id="xtick_15">
     <g id="line2d_50">
      <path clip-path="url(#p0af7713b1d)" d="M 844.156172 285 
L 844.156172 13.2 
" style="fill:none;stroke:#b0b0b0;stroke-linecap:square;stroke-width:0.8;"/>
     </g>
     <g id="line2d_51">
      <g>
       <use x="844.156172" xlink:href="#m6dcc7e41ab" y="285"/>
      </g>
     </g>
     <g id="text_26">
      <!-- 6 -->
      <g transform="translate(839.384297 305.897656)scale(0.15 -0.15)">
       <use xlink:href="#DejaVuSans-36"/>
      </g>
     </g>
    </g>
    <g id="xtick_16">
     <g id="line2d_52">
      <path clip-path="url(#p0af7713b1d)" d="M 896.14375 285 
L 896.14375 13.2 
" style="fill:none;stroke:#b0b0b0;stroke-linecap:square;stroke-width:0.8;"/>
     </g>
     <g id="line2d_53">
      <g>
       <use x="896.14375" xlink:href="#m6dcc7e41ab" y="285"/>
      </g>
     </g>
     <g id="text_27">
      <!-- 7 -->
      <g transform="translate(891.371875 305.897656)scale(0.15 -0.15)">
       <use xlink:href="#DejaVuSans-37"/>
      </g>
     </g>
    </g>
    <g id="text_28">
     <!-- $t/\tau$ -->
     <g transform="translate(700.787228 328.214063)scale(0.2 -0.2)">
      <use transform="translate(0 0.09375)" xlink:href="#DejaVuSans-Oblique-74"/>
      <use transform="translate(39.208984 0.09375)" xlink:href="#DejaVuSans-2f"/>
      <use transform="translate(72.900391 0.09375)" xlink:href="#DejaVuSans-Oblique-3c4"/>
     </g>
    </g>
   </g>
   <g id="matplotlib.axis_4">
    <g id="ytick_7">
     <g id="line2d_54">
      <path clip-path="url(#p0af7713b1d)" d="M 532.230707 269.503984 
L 896.14375 269.503984 
" style="fill:none;stroke:#b0b0b0;stroke-linecap:square;stroke-width:0.8;"/>
     </g>
     <g id="line2d_55">
      <g>
       <use x="532.230707" xlink:href="#mee51a1f99a" y="269.503984"/>
      </g>
     </g>
     <g id="text_29">
      <!-- 0.00 -->
      <defs>
       <path d="M 10.6875 12.40625 
L 21 12.40625 
L 21 0 
L 10.6875 0 
z
" id="DejaVuSans-2e"/>
      </defs>
      <g transform="translate(489.332269 275.202812)scale(0.15 -0.15)">
       <use xlink:href="#DejaVuSans-30"/>
       <use x="63.623047" xlink:href="#DejaVuSans-2e"/>
       <use x="95.410156" xlink:href="#DejaVuSans-30"/>
       <use x="159.033203" xlink:href="#DejaVuSans-30"/>
      </g>
     </g>
    </g>
    <g id="ytick_8">
     <g id="line2d_56">
      <path clip-path="url(#p0af7713b1d)" d="M 532.230707 230.725007 
L 896.14375 230.725007 
" style="fill:none;stroke:#b0b0b0;stroke-linecap:square;stroke-width:0.8;"/>
     </g>
     <g id="line2d_57">
      <g>
       <use x="532.230707" xlink:href="#mee51a1f99a" y="230.725007"/>
      </g>
     </g>
     <g id="text_30">
      <!-- 0.02 -->
      <g transform="translate(489.332269 236.423835)scale(0.15 -0.15)">
       <use xlink:href="#DejaVuSans-30"/>
       <use x="63.623047" xlink:href="#DejaVuSans-2e"/>
       <use x="95.410156" xlink:href="#DejaVuSans-30"/>
       <use x="159.033203" xlink:href="#DejaVuSans-32"/>
      </g>
     </g>
    </g>
    <g id="ytick_9">
     <g id="line2d_58">
      <path clip-path="url(#p0af7713b1d)" d="M 532.230707 191.946029 
L 896.14375 191.946029 
" style="fill:none;stroke:#b0b0b0;stroke-linecap:square;stroke-width:0.8;"/>
     </g>
     <g id="line2d_59">
      <g>
       <use x="532.230707" xlink:href="#mee51a1f99a" y="191.946029"/>
      </g>
     </g>
     <g id="text_31">
      <!-- 0.04 -->
      <g transform="translate(489.332269 197.644857)scale(0.15 -0.15)">
       <use xlink:href="#DejaVuSans-30"/>
       <use x="63.623047" xlink:href="#DejaVuSans-2e"/>
       <use x="95.410156" xlink:href="#DejaVuSans-30"/>
       <use x="159.033203" xlink:href="#DejaVuSans-34"/>
      </g>
     </g>
    </g>
    <g id="ytick_10">
     <g id="line2d_60">
      <path clip-path="url(#p0af7713b1d)" d="M 532.230707 153.167052 
L 896.14375 153.167052 
" style="fill:none;stroke:#b0b0b0;stroke-linecap:square;stroke-width:0.8;"/>
     </g>
     <g id="line2d_61">
      <g>
       <use x="532.230707" xlink:href="#mee51a1f99a" y="153.167052"/>
      </g>
     </g>
     <g id="text_32">
      <!-- 0.06 -->
      <g transform="translate(489.332269 158.86588)scale(0.15 -0.15)">
       <use xlink:href="#DejaVuSans-30"/>
       <use x="63.623047" xlink:href="#DejaVuSans-2e"/>
       <use x="95.410156" xlink:href="#DejaVuSans-30"/>
       <use x="159.033203" xlink:href="#DejaVuSans-36"/>
      </g>
     </g>
    </g>
    <g id="ytick_11">
     <g id="line2d_62">
      <path clip-path="url(#p0af7713b1d)" d="M 532.230707 114.388074 
L 896.14375 114.388074 
" style="fill:none;stroke:#b0b0b0;stroke-linecap:square;stroke-width:0.8;"/>
     </g>
     <g id="line2d_63">
      <g>
       <use x="532.230707" xlink:href="#mee51a1f99a" y="114.388074"/>
      </g>
     </g>
     <g id="text_33">
      <!-- 0.08 -->
      <g transform="translate(489.332269 120.086902)scale(0.15 -0.15)">
       <use xlink:href="#DejaVuSans-30"/>
       <use x="63.623047" xlink:href="#DejaVuSans-2e"/>
       <use x="95.410156" xlink:href="#DejaVuSans-30"/>
       <use x="159.033203" xlink:href="#DejaVuSans-38"/>
      </g>
     </g>
    </g>
    <g id="ytick_12">
     <g id="line2d_64">
      <path clip-path="url(#p0af7713b1d)" d="M 532.230707 75.609097 
L 896.14375 75.609097 
" style="fill:none;stroke:#b0b0b0;stroke-linecap:square;stroke-width:0.8;"/>
     </g>
     <g id="line2d_65">
      <g>
       <use x="532.230707" xlink:href="#mee51a1f99a" y="75.609097"/>
      </g>
     </g>
     <g id="text_34">
      <!-- 0.10 -->
      <g transform="translate(489.332269 81.307925)scale(0.15 -0.15)">
       <use xlink:href="#DejaVuSans-30"/>
       <use x="63.623047" xlink:href="#DejaVuSans-2e"/>
       <use x="95.410156" xlink:href="#DejaVuSans-31"/>
       <use x="159.033203" xlink:href="#DejaVuSans-30"/>
      </g>
     </g>
    </g>
    <g id="ytick_13">
     <g id="line2d_66">
      <path clip-path="url(#p0af7713b1d)" d="M 532.230707 36.830119 
L 896.14375 36.830119 
" style="fill:none;stroke:#b0b0b0;stroke-linecap:square;stroke-width:0.8;"/>
     </g>
     <g id="line2d_67">
      <g>
       <use x="532.230707" xlink:href="#mee51a1f99a" y="36.830119"/>
      </g>
     </g>
     <g id="text_35">
      <!-- 0.12 -->
      <g transform="translate(489.332269 42.528947)scale(0.15 -0.15)">
       <use xlink:href="#DejaVuSans-30"/>
       <use x="63.623047" xlink:href="#DejaVuSans-2e"/>
       <use x="95.410156" xlink:href="#DejaVuSans-31"/>
       <use x="159.033203" xlink:href="#DejaVuSans-32"/>
      </g>
     </g>
    </g>
    <g id="text_36">
     <!-- $C_V^2(r)$ -->
     <defs>
      <path d="M 69.484375 67.28125 
L 67.484375 56.890625 
Q 62.796875 61.625 57.546875 63.921875 
Q 52.296875 66.21875 46.1875 66.21875 
Q 37.84375 66.21875 31.515625 62.203125 
Q 25.203125 58.203125 20.609375 50 
Q 17.671875 44.734375 16.125 38.84375 
Q 14.59375 32.953125 14.59375 27 
Q 14.59375 17.046875 19.75 11.8125 
Q 24.90625 6.59375 34.71875 6.59375 
Q 41.5 6.59375 47.75 8.765625 
Q 54 10.9375 59.90625 15.28125 
L 57.625 3.609375 
Q 51.8125 1.125 45.875 -0.140625 
Q 39.9375 -1.421875 33.984375 -1.421875 
Q 19.96875 -1.421875 12.078125 6.1875 
Q 4.203125 13.8125 4.203125 27.390625 
Q 4.203125 36.078125 7.203125 44.46875 
Q 10.203125 52.875 15.828125 59.8125 
Q 21.78125 67.1875 29.421875 70.703125 
Q 37.0625 74.21875 47.21875 74.21875 
Q 53.46875 74.21875 59.0625 72.484375 
Q 64.65625 70.75 69.484375 67.28125 
z
" id="DejaVuSans-Oblique-43"/>
      <path d="M 20.609375 0 
L 7.8125 72.90625 
L 17.484375 72.90625 
L 28.078125 10.203125 
L 63.484375 72.90625 
L 74.21875 72.90625 
L 32.078125 0 
z
" id="DejaVuSans-Oblique-56"/>
      <path d="M 31 75.875 
Q 24.46875 64.65625 21.28125 53.65625 
Q 18.109375 42.671875 18.109375 31.390625 
Q 18.109375 20.125 21.3125 9.0625 
Q 24.515625 -2 31 -13.1875 
L 23.1875 -13.1875 
Q 15.875 -1.703125 12.234375 9.375 
Q 8.59375 20.453125 8.59375 31.390625 
Q 8.59375 42.28125 12.203125 53.3125 
Q 15.828125 64.359375 23.1875 75.875 
z
" id="DejaVuSans-28"/>
      <path d="M 8.015625 75.875 
L 15.828125 75.875 
Q 23.140625 64.359375 26.78125 53.3125 
Q 30.421875 42.28125 30.421875 31.390625 
Q 30.421875 20.453125 26.78125 9.375 
Q 23.140625 -1.703125 15.828125 -13.1875 
L 8.015625 -13.1875 
Q 14.5 -2 17.703125 9.0625 
Q 20.90625 20.125 20.90625 31.390625 
Q 20.90625 42.671875 17.703125 53.65625 
Q 14.5 64.65625 8.015625 75.875 
z
" id="DejaVuSans-29"/>
     </defs>
     <g transform="translate(479.732269 173.5)rotate(-90)scale(0.2 -0.2)">
      <use transform="translate(0 0.765625)" xlink:href="#DejaVuSans-Oblique-43"/>
      <use transform="translate(77.02474 39.046875)scale(0.7)" xlink:href="#DejaVuSans-32"/>
      <use transform="translate(69.824219 -26.578125)scale(0.7)" xlink:href="#DejaVuSans-Oblique-56"/>
      <use transform="translate(124.295247 0.765625)" xlink:href="#DejaVuSans-28"/>
      <use transform="translate(163.308919 0.765625)" xlink:href="#DejaVuSans-Oblique-72"/>
      <use transform="translate(204.422201 0.765625)" xlink:href="#DejaVuSans-29"/>
     </g>
    </g>
   </g>
   <g id="line2d_68">
    <path clip-path="url(#p0af7713b1d)" d="M 532.230707 269.503984 
L 537.429464 95.708958 
L 542.628222 79.747949 
L 547.82698 102.562646 
L 553.025738 118.839605 
L 558.224495 124.523046 
L 563.423253 133.485646 
L 568.622011 138.7976 
L 573.820769 138.22011 
L 579.019526 129.762382 
L 584.218284 123.74317 
L 589.417042 118.156694 
L 594.6158 111.280339 
L 599.814557 117.7755 
L 605.013315 120.936965 
L 610.212073 126.716818 
L 615.410831 127.658109 
L 620.609589 126.162654 
L 625.808346 125.862269 
L 631.007104 125.676237 
L 636.205862 115.261172 
L 641.40462 112.753268 
L 646.603377 112.856237 
L 651.802135 118.83102 
L 657.000893 128.199301 
L 662.199651 125.713915 
L 667.398408 126.77727 
L 672.597166 130.435533 
L 677.795924 132.246475 
L 682.994682 124.064717 
L 688.193439 119.823226 
L 693.392197 122.97255 
L 698.590955 116.334698 
L 703.789713 122.58957 
L 708.98847 128.206311 
L 714.187228 128.916182 
L 719.385986 127.374262 
L 724.584744 128.336278 
L 729.783502 136.687062 
L 734.982259 127.389867 
L 740.181017 123.25855 
L 745.379775 126.292901 
L 750.578533 124.457642 
L 755.77729 122.951251 
L 760.976048 123.765834 
L 766.174806 126.729338 
L 771.373564 135.746331 
L 776.572321 137.903194 
L 781.771079 135.559213 
L 786.969837 129.987548 
L 792.168595 125.173549 
L 797.367352 117.093712 
L 802.56611 119.283783 
L 807.764868 122.232953 
L 812.963626 139.24548 
L 818.162384 138.244878 
L 823.361141 134.710846 
L 828.559899 130.331511 
L 833.758657 129.952992 
L 838.957415 126.724817 
L 844.156172 120.149639 
L 849.35493 114.883604 
L 854.553688 126.447945 
L 859.752446 126.176747 
L 864.951203 132.7204 
L 870.149961 131.442684 
L 875.348719 133.280289 
L 880.547477 131.134829 
L 885.746234 125.238753 
L 890.944992 120.833936 
" style="fill:none;stroke:#1f77b4;stroke-linecap:square;stroke-width:3;"/>
   </g>
   <g id="line2d_69">
    <path clip-path="url(#p0af7713b1d)" d="M 532.230707 269.503984 
L 537.429464 69.184305 
L 542.628222 96.808996 
L 547.82698 95.738516 
L 553.025738 97.53687 
L 558.224495 130.103805 
L 563.423253 97.452524 
L 568.622011 92.86253 
L 573.820769 88.818272 
L 579.019526 122.227336 
L 584.218284 92.117769 
L 589.417042 104.943971 
L 594.6158 124.094952 
L 599.814557 124.16233 
L 605.013315 116.123491 
L 610.212073 115.893861 
L 615.410831 100.851033 
L 620.609589 111.170247 
L 625.808346 120.719581 
L 631.007104 98.075058 
L 636.205862 116.574138 
L 641.40462 104.98762 
L 646.603377 113.124387 
L 651.802135 115.846517 
L 657.000893 114.578011 
L 662.199651 131.029715 
L 667.398408 137.064546 
L 672.597166 131.52691 
L 677.795924 127.458527 
L 682.994682 115.696997 
L 688.193439 114.500227 
L 693.392197 107.112638 
L 698.590955 100.250163 
L 703.789713 119.653893 
L 708.98847 117.606614 
L 714.187228 121.057267 
L 719.385986 113.912382 
L 724.584744 114.87327 
L 729.783502 98.050854 
L 734.982259 97.399019 
L 740.181017 101.354027 
L 745.379775 104.912806 
L 750.578533 113.446801 
L 755.77729 118.307484 
L 760.976048 123.55305 
L 766.174806 121.288101 
L 771.373564 121.005684 
L 776.572321 116.32966 
L 781.771079 116.973227 
L 786.969837 114.438909 
L 792.168595 105.102457 
L 797.367352 103.631126 
L 802.56611 111.559783 
L 807.764868 113.018325 
L 812.963626 118.022737 
L 818.162384 121.234125 
L 823.361141 114.453311 
L 828.559899 114.472711 
L 833.758657 116.672091 
L 838.957415 109.946575 
L 844.156172 106.243252 
L 849.35493 107.137793 
L 854.553688 111.99128 
L 859.752446 113.410951 
L 864.951203 117.648048 
L 870.149961 123.468608 
L 875.348719 120.858054 
L 880.547477 117.021595 
L 885.746234 114.124112 
L 890.944992 106.398019 
" style="fill:none;stroke:#ff6800;stroke-linecap:square;stroke-width:3;"/>
   </g>
   <g id="line2d_70">
    <path clip-path="url(#p0af7713b1d)" d="M 532.230707 269.503984 
L 537.429464 269.503984 
L 542.628222 269.503984 
L 547.82698 269.503984 
L 553.025738 269.503984 
L 558.224495 269.503984 
L 563.423253 259.589865 
L 568.622011 228.728639 
L 573.820769 227.79815 
L 579.019526 237.934879 
L 584.218284 204.354388 
L 589.417042 191.524317 
L 594.6158 203.249233 
L 599.814557 190.805376 
L 605.013315 193.189843 
L 610.212073 187.353633 
L 615.410831 173.280791 
L 620.609589 187.919171 
L 625.808346 182.236535 
L 631.007104 155.274222 
L 636.205862 164.639145 
L 641.40462 162.237511 
L 646.603377 166.507912 
L 651.802135 159.402547 
L 657.000893 155.27973 
L 662.199651 160.305185 
L 667.398408 160.148131 
L 672.597166 155.540171 
L 677.795924 152.433329 
L 682.994682 142.85798 
L 688.193439 145.263048 
L 693.392197 133.135086 
L 698.590955 120.597215 
L 703.789713 138.412422 
L 708.98847 135.157063 
L 714.187228 138.712977 
L 719.385986 130.315801 
L 724.584744 131.670208 
L 729.783502 115.803962 
L 734.982259 112.620369 
L 740.181017 115.35723 
L 745.379775 116.510648 
L 750.578533 122.296144 
L 755.77729 127.801118 
L 760.976048 131.288009 
L 766.174806 130.674705 
L 771.373564 130.171241 
L 776.572321 127.156385 
L 781.771079 125.391095 
L 786.969837 120.446465 
L 792.168595 110.808847 
L 797.367352 108.573624 
L 802.56611 116.99469 
L 807.764868 117.899746 
L 812.963626 122.297007 
L 818.162384 126.314249 
L 823.361141 119.442706 
L 828.559899 118.960657 
L 833.758657 120.329465 
L 838.957415 113.320035 
L 844.156172 109.677597 
L 849.35493 109.688007 
L 854.553688 114.508347 
L 859.752446 115.645313 
L 864.951203 120.238781 
L 870.149961 125.501298 
L 875.348719 123.135752 
L 880.547477 119.632191 
L 885.746234 116.575871 
L 890.944992 108.8731 
" style="fill:none;stroke:#319000;stroke-linecap:square;stroke-width:3;"/>
   </g>
   <g id="patch_9">
    <path d="M 532.230707 285 
L 532.230707 13.2 
" style="fill:none;stroke:#000000;stroke-linecap:square;stroke-linejoin:miter;stroke-width:2;"/>
   </g>
   <g id="patch_10">
    <path d="M 896.14375 285 
L 896.14375 13.2 
" style="fill:none;"/>
   </g>
   <g id="patch_11">
    <path d="M 532.230707 285 
L 896.14375 285 
" style="fill:none;stroke:#000000;stroke-linecap:square;stroke-linejoin:miter;stroke-width:2;"/>
   </g>
   <g id="patch_12">
    <path d="M 532.230707 13.2 
L 896.14375 13.2 
" style="fill:none;"/>
   </g>
  </g>
 </g>
 <defs>
  <clipPath id="p9940418529">
   <rect height="271.8" width="363.913043" x="59.14375" y="13.2"/>
  </clipPath>
  <clipPath id="p0af7713b1d">
   <rect height="271.8" width="363.913043" x="532.230707" y="13.2"/>
  </clipPath>
 </defs>
</svg>
