<?xml version="1.0" encoding="utf-8" standalone="no"?>
<!DOCTYPE svg PUBLIC "-//W3C//DTD SVG 1.1//EN"
  "http://www.w3.org/Graphics/SVG/1.1/DTD/svg11.dtd">
<!-- Created with matplotlib (http://matplotlib.org/) -->
<svg height="339.573438pt" version="1.1" viewBox="0 0 914.554688 339.573438" width="914.554688pt" xmlns="http://www.w3.org/2000/svg" xmlns:xlink="http://www.w3.org/1999/xlink">
 <defs>
  <style type="text/css">
*{stroke-linecap:butt;stroke-linejoin:round;}
  </style>
 </defs>
 <g id="figure_1">
  <g id="patch_1">
   <path d="M 0 339.573438 
L 914.554688 339.573438 
L 914.554688 0 
L 0 0 
z
" style="fill:#ffffff;"/>
  </g>
  <g id="axes_1">
   <g id="patch_2">
    <path d="M 64.354687 285 
L 428.267731 285 
L 428.267731 13.2 
L 64.354687 13.2 
z
" style="fill:#ffffff;"/>
   </g>
   <g id="PolyCollection_1">
    <defs>
     <path d="M 64.354687 -108.933437 
L 64.354687 -108.933437 
L 69.553445 -128.441464 
L 74.752203 -149.154202 
L 79.950961 -171.387305 
L 85.149719 -194.873613 
L 90.348476 -219.436209 
L 95.547234 -239.9791 
L 100.745992 -255.125828 
L 105.94475 -258.245042 
L 111.143507 -247.306225 
L 116.342265 -228.965346 
L 121.541023 -207.966517 
L 126.739781 -198.538143 
L 131.938538 -196.430979 
L 137.137296 -203.275883 
L 142.336054 -218.840511 
L 147.534812 -231.957597 
L 152.733569 -244.02771 
L 157.932327 -249.744151 
L 163.131085 -245.053257 
L 168.329843 -230.121175 
L 173.528601 -214.694276 
L 178.727358 -204.602552 
L 183.926116 -202.731634 
L 189.124874 -209.370291 
L 194.323632 -219.200197 
L 199.522389 -233.118122 
L 204.721147 -241.908316 
L 209.919905 -245.255553 
L 215.118663 -241.016098 
L 220.31742 -229.718096 
L 225.516178 -218.788173 
L 230.714936 -205.467235 
L 235.913694 -201.469094 
L 241.112451 -207.484998 
L 246.311209 -218.967357 
L 251.509967 -233.09155 
L 256.708725 -244.16238 
L 261.907483 -248.360305 
L 267.10624 -241.618204 
L 272.304998 -227.602269 
L 277.503756 -216.900133 
L 282.702514 -206.93871 
L 287.901271 -204.793845 
L 293.100029 -209.102654 
L 298.298787 -219.872964 
L 303.497545 -235.096307 
L 308.696302 -246.825089 
L 313.89506 -249.370417 
L 319.093818 -242.898559 
L 324.292576 -232.680172 
L 329.491333 -221.810712 
L 334.690091 -209.306402 
L 339.888849 -204.946768 
L 345.087607 -209.227372 
L 350.286365 -220.831039 
L 355.485122 -236.532544 
L 360.68388 -244.511417 
L 365.882638 -247.589056 
L 371.081396 -241.631582 
L 376.280153 -231.510753 
L 381.478911 -222.381603 
L 386.677669 -209.420361 
L 391.876427 -206.123645 
L 397.075184 -208.398819 
L 402.273942 -218.028886 
L 407.4727 -233.893659 
L 412.671458 -243.562988 
L 417.870215 -246.856494 
L 423.068973 -241.658209 
L 428.267731 -229.211461 
L 428.267731 -238.999658 
L 428.267731 -238.999658 
L 423.068973 -250.534152 
L 417.870215 -254.428195 
L 412.671458 -249.965324 
L 407.4727 -238.84247 
L 402.273942 -222.641485 
L 397.075184 -214.769202 
L 391.876427 -214.409797 
L 386.677669 -218.946858 
L 381.478911 -232.945161 
L 376.280153 -241.839153 
L 371.081396 -250.387065 
L 365.882638 -254.924141 
L 360.68388 -250.256962 
L 355.485122 -241.270219 
L 350.286365 -225.539734 
L 345.087607 -215.144969 
L 339.888849 -212.726801 
L 334.690091 -218.438726 
L 329.491333 -231.940949 
L 324.292576 -242.607667 
L 319.093818 -251.901301 
L 313.89506 -257.184649 
L 308.696302 -252.565114 
L 303.497545 -239.839132 
L 298.298787 -224.581659 
L 293.100029 -215.293716 
L 287.901271 -212.406565 
L 282.702514 -216.074937 
L 277.503756 -226.516939 
L 272.304998 -237.522969 
L 267.10624 -250.814315 
L 261.907483 -255.813698 
L 256.708725 -250.343945 
L 251.509967 -238.035211 
L 246.311209 -223.96434 
L 241.112451 -213.671577 
L 235.913694 -209.420622 
L 230.714936 -214.365397 
L 225.516178 -228.554275 
L 220.31742 -239.781491 
L 215.118663 -250.652836 
L 209.919905 -252.951476 
L 204.721147 -247.869111 
L 199.522389 -237.95879 
L 194.323632 -224.293275 
L 189.124874 -215.561353 
L 183.926116 -210.42801 
L 178.727358 -213.816833 
L 173.528601 -224.890057 
L 168.329843 -239.919565 
L 163.131085 -254.055999 
L 157.932327 -256.724313 
L 152.733569 -249.65735 
L 147.534812 -235.876479 
L 142.336054 -222.684343 
L 137.137296 -208.391018 
L 131.938538 -203.207136 
L 126.739781 -207.288002 
L 121.541023 -217.878272 
L 116.342265 -239.429646 
L 111.143507 -256.568906 
L 105.94475 -265.467734 
L 100.745992 -260.093157 
L 95.547234 -242.862902 
L 90.348476 -220.685454 
L 85.149719 -195.590897 
L 79.950961 -171.805587 
L 74.752203 -149.388364 
L 69.553445 -128.441464 
L 64.354687 -108.933437 
z
" id="mb43926b882"/>
    </defs>
    <g clip-path="url(#p309610ae3f)">
     <use style="fill:#4db8ff;" x="0" xlink:href="#mb43926b882" y="339.573438"/>
    </g>
   </g>
   <g id="PolyCollection_2">
    <defs>
     <path d="M 64.354687 -108.933437 
L 64.354687 -108.933437 
L 69.553445 -128.441464 
L 74.752203 -149.349649 
L 79.950961 -171.758488 
L 85.149719 -195.775687 
L 90.348476 -217.6805 
L 95.547234 -231.943377 
L 100.745992 -226.824809 
L 105.94475 -223.161918 
L 111.143507 -196.962482 
L 116.342265 -178.701321 
L 121.541023 -170.978451 
L 126.739781 -169.300095 
L 131.938538 -178.152774 
L 137.137296 -198.152947 
L 142.336054 -212.477508 
L 147.534812 -221.914088 
L 152.733569 -218.590792 
L 157.932327 -211.217511 
L 163.131085 -198.927604 
L 168.329843 -180.920855 
L 173.528601 -171.991587 
L 178.727358 -175.711679 
L 183.926116 -183.344224 
L 189.124874 -191.114456 
L 194.323632 -204.350656 
L 199.522389 -211.227921 
L 204.721147 -208.614525 
L 209.919905 -203.376064 
L 215.118663 -193.595377 
L 220.31742 -184.728102 
L 225.516178 -172.684668 
L 230.714936 -175.71436 
L 235.913694 -184.074792 
L 241.112451 -194.978767 
L 246.311209 -207.270872 
L 251.509967 -214.69235 
L 256.708725 -218.387814 
L 261.907483 -210.653594 
L 267.10624 -200.60663 
L 272.304998 -188.311629 
L 277.503756 -181.462081 
L 282.702514 -179.993417 
L 287.901271 -185.786519 
L 293.100029 -197.592276 
L 298.298787 -208.902152 
L 303.497545 -219.690826 
L 308.696302 -218.619787 
L 313.89506 -210.095086 
L 319.093818 -199.238408 
L 324.292576 -189.954678 
L 329.491333 -182.245563 
L 334.690091 -180.663769 
L 339.888849 -186.424474 
L 345.087607 -196.578827 
L 350.286365 -208.832153 
L 355.485122 -217.705788 
L 360.68388 -219.131919 
L 365.882638 -213.387445 
L 371.081396 -201.119675 
L 376.280153 -188.352476 
L 381.478911 -180.78895 
L 386.677669 -181.171723 
L 391.876427 -187.47897 
L 397.075184 -198.873149 
L 402.273942 -210.151011 
L 407.4727 -218.262601 
L 412.671458 -219.826625 
L 417.870215 -213.336716 
L 423.068973 -201.421204 
L 428.267731 -188.88379 
L 428.267731 -191.81569 
L 428.267731 -191.81569 
L 423.068973 -204.495448 
L 417.870215 -216.243143 
L 412.671458 -222.512742 
L 407.4727 -220.532418 
L 402.273942 -212.036116 
L 397.075184 -200.700643 
L 391.876427 -189.938519 
L 386.677669 -183.99349 
L 381.478911 -184.324045 
L 376.280153 -192.243117 
L 371.081396 -205.483849 
L 365.882638 -217.586752 
L 360.68388 -222.850406 
L 355.485122 -220.78065 
L 350.286365 -211.485534 
L 345.087607 -199.06063 
L 339.888849 -189.71425 
L 334.690091 -184.849961 
L 329.491333 -187.271346 
L 324.292576 -195.678538 
L 319.093818 -205.515595 
L 313.89506 -216.151459 
L 308.696302 -223.600761 
L 303.497545 -224.019776 
L 298.298787 -212.638563 
L 293.100029 -201.158321 
L 287.901271 -190.613897 
L 282.702514 -185.829234 
L 277.503756 -188.7475 
L 272.304998 -196.080117 
L 267.10624 -209.515911 
L 261.907483 -218.563401 
L 256.708725 -225.973406 
L 251.509967 -221.237251 
L 246.311209 -212.04365 
L 241.112451 -200.160157 
L 235.913694 -190.759629 
L 230.714936 -183.749966 
L 225.516178 -182.045862 
L 220.31742 -195.988703 
L 215.118663 -205.369587 
L 209.919905 -215.253378 
L 204.721147 -219.688377 
L 199.522389 -219.753514 
L 194.323632 -211.769392 
L 189.124874 -198.716599 
L 183.926116 -192.114992 
L 178.727358 -187.339041 
L 173.528601 -185.873568 
L 168.329843 -197.193671 
L 163.131085 -216.512892 
L 157.932327 -228.425922 
L 152.733569 -234.151687 
L 147.534812 -233.140807 
L 142.336054 -221.019358 
L 137.137296 -206.366128 
L 131.938538 -189.42253 
L 126.739781 -183.765548 
L 121.541023 -190.742713 
L 116.342265 -201.645476 
L 111.143507 -223.068196 
L 105.94475 -247.022319 
L 100.745992 -246.804013 
L 95.547234 -241.942692 
L 90.348476 -221.505209 
L 85.149719 -195.775687 
L 79.950961 -171.758488 
L 74.752203 -149.349649 
L 69.553445 -128.441464 
L 64.354687 -108.933437 
z
" id="mf70a9530b2"/>
    </defs>
    <g clip-path="url(#p309610ae3f)">
     <use style="fill:#ffa035;" x="0" xlink:href="#mf70a9530b2" y="339.573438"/>
    </g>
   </g>
   <g id="PolyCollection_3">
    <defs>
     <path d="M 64.354687 -108.933437 
L 64.354687 -108.933437 
L 69.553445 -128.441464 
L 74.752203 -149.349649 
L 79.950961 -171.758488 
L 85.149719 -195.775687 
L 90.348476 -219.118132 
L 95.547234 -238.861523 
L 100.745992 -248.570719 
L 105.94475 -254.11527 
L 111.143507 -238.620228 
L 116.342265 -218.096471 
L 121.541023 -201.352951 
L 126.739781 -186.93892 
L 131.938538 -185.161895 
L 137.137296 -201.956289 
L 142.336054 -216.430652 
L 147.534812 -229.244729 
L 152.733569 -232.87175 
L 157.932327 -230.654435 
L 163.131085 -220.36664 
L 168.329843 -201.904892 
L 173.528601 -186.50867 
L 178.727358 -184.700122 
L 183.926116 -187.118782 
L 189.124874 -194.089471 
L 194.323632 -208.115161 
L 199.522389 -216.618069 
L 204.721147 -217.372242 
L 209.919905 -213.930892 
L 215.118663 -204.200988 
L 220.31742 -194.480727 
L 225.516178 -179.625219 
L 230.714936 -179.419802 
L 235.913694 -186.582723 
L 241.112451 -196.23286 
L 246.311209 -208.646132 
L 251.509967 -217.391833 
L 256.708725 -221.946396 
L 261.907483 -216.063192 
L 267.10624 -205.840585 
L 272.304998 -193.39767 
L 277.503756 -185.240445 
L 282.702514 -181.978743 
L 287.901271 -187.165159 
L 293.100029 -198.118818 
L 298.298787 -209.44961 
L 303.497545 -220.710589 
L 308.696302 -220.164581 
L 313.89506 -212.286708 
L 319.093818 -201.929196 
L 324.292576 -191.984025 
L 329.491333 -183.609956 
L 334.690091 -181.590472 
L 339.888849 -186.924447 
L 345.087607 -196.885368 
L 350.286365 -208.854892 
L 355.485122 -217.977769 
L 360.68388 -219.630335 
L 365.882638 -214.261405 
L 371.081396 -202.052511 
L 376.280153 -188.972354 
L 381.478911 -181.33466 
L 386.677669 -181.405954 
L 391.876427 -187.862031 
L 397.075184 -198.989182 
L 402.273942 -210.12009 
L 407.4727 -218.334426 
L 412.671458 -219.93007 
L 417.870215 -213.58908 
L 423.068973 -201.74621 
L 428.267731 -189.085075 
L 428.267731 -193.318801 
L 428.267731 -193.318801 
L 423.068973 -206.02097 
L 417.870215 -217.953171 
L 412.671458 -224.116132 
L 407.4727 -221.57619 
L 402.273942 -212.538981 
L 397.075184 -201.106071 
L 391.876427 -190.557367 
L 386.677669 -185.235763 
L 381.478911 -186.286763 
L 376.280153 -194.978079 
L 371.081396 -208.447593 
L 365.882638 -220.375036 
L 360.68388 -225.343429 
L 355.485122 -222.193925 
L 350.286365 -212.715883 
L 345.087607 -200.220736 
L 339.888849 -190.679803 
L 334.690091 -186.917527 
L 329.491333 -191.020609 
L 324.292576 -200.18241 
L 319.093818 -211.086549 
L 313.89506 -220.643571 
L 308.696302 -227.798868 
L 303.497545 -226.411378 
L 298.298787 -214.444443 
L 293.100029 -202.904367 
L 287.901271 -193.284129 
L 282.702514 -190.416471 
L 277.503756 -195.377357 
L 272.304998 -205.10266 
L 267.10624 -218.313712 
L 261.907483 -228.082421 
L 256.708725 -232.405232 
L 251.509967 -225.903835 
L 246.311209 -215.407727 
L 241.112451 -203.140992 
L 235.913694 -195.882113 
L 230.714936 -192.103214 
L 225.516178 -193.441774 
L 220.31742 -212.073953 
L 215.118663 -220.51642 
L 209.919905 -229.757662 
L 204.721147 -230.726736 
L 199.522389 -226.705492 
L 194.323632 -217.724742 
L 189.124874 -203.061505 
L 183.926116 -198.830659 
L 178.727358 -204.057527 
L 173.528601 -208.45873 
L 168.329843 -225.913892 
L 163.131085 -244.479618 
L 157.932327 -249.209045 
L 152.733569 -250.533366 
L 147.534812 -244.35036 
L 142.336054 -230.524704 
L 137.137296 -216.899716 
L 131.938538 -205.239398 
L 126.739781 -211.916217 
L 121.541023 -233.469661 
L 116.342265 -249.353472 
L 111.143507 -267.847439 
L 105.94475 -276.593757 
L 100.745992 -262.975974 
L 95.547234 -247.100959 
L 90.348476 -222.001006 
L 85.149719 -195.775687 
L 79.950961 -171.758488 
L 74.752203 -149.349649 
L 69.553445 -128.441464 
L 64.354687 -108.933437 
z
" id="m0b08374994"/>
    </defs>
    <g clip-path="url(#p309610ae3f)">
     <use style="fill:#47d200;" x="0" xlink:href="#m0b08374994" y="339.573438"/>
    </g>
   </g>
   <g id="matplotlib.axis_1">
    <g id="xtick_1">
     <g id="line2d_1">
      <path clip-path="url(#p309610ae3f)" d="M 64.354687 285 
L 64.354687 13.2 
" style="fill:none;stroke:#b0b0b0;stroke-linecap:square;stroke-width:0.8;"/>
     </g>
     <g id="line2d_2">
      <defs>
       <path d="M 0 0 
L 0 6 
" id="m6492b62e4d"/>
      </defs>
      <g>
       <use x="64.354687" xlink:href="#m6492b62e4d" y="285"/>
      </g>
     </g>
     <g id="text_1">
      <!-- 0 -->
      <defs>
       <path d="M 31.78125 66.40625 
Q 24.171875 66.40625 20.328125 58.90625 
Q 16.5 51.421875 16.5 36.375 
Q 16.5 21.390625 20.328125 13.890625 
Q 24.171875 6.390625 31.78125 6.390625 
Q 39.453125 6.390625 43.28125 13.890625 
Q 47.125 21.390625 47.125 36.375 
Q 47.125 51.421875 43.28125 58.90625 
Q 39.453125 66.40625 31.78125 66.40625 
z
M 31.78125 74.21875 
Q 44.046875 74.21875 50.515625 64.515625 
Q 56.984375 54.828125 56.984375 36.375 
Q 56.984375 17.96875 50.515625 8.265625 
Q 44.046875 -1.421875 31.78125 -1.421875 
Q 19.53125 -1.421875 13.0625 8.265625 
Q 6.59375 17.96875 6.59375 36.375 
Q 6.59375 54.828125 13.0625 64.515625 
Q 19.53125 74.21875 31.78125 74.21875 
z
" id="DejaVuSans-30"/>
      </defs>
      <g transform="translate(59.582812 305.897656)scale(0.15 -0.15)">
       <use xlink:href="#DejaVuSans-30"/>
      </g>
     </g>
    </g>
    <g id="xtick_2">
     <g id="line2d_3">
      <path clip-path="url(#p309610ae3f)" d="M 116.342265 285 
L 116.342265 13.2 
" style="fill:none;stroke:#b0b0b0;stroke-linecap:square;stroke-width:0.8;"/>
     </g>
     <g id="line2d_4">
      <g>
       <use x="116.342265" xlink:href="#m6492b62e4d" y="285"/>
      </g>
     </g>
     <g id="text_2">
      <!-- 1 -->
      <defs>
       <path d="M 12.40625 8.296875 
L 28.515625 8.296875 
L 28.515625 63.921875 
L 10.984375 60.40625 
L 10.984375 69.390625 
L 28.421875 72.90625 
L 38.28125 72.90625 
L 38.28125 8.296875 
L 54.390625 8.296875 
L 54.390625 0 
L 12.40625 0 
z
" id="DejaVuSans-31"/>
      </defs>
      <g transform="translate(111.57039 305.897656)scale(0.15 -0.15)">
       <use xlink:href="#DejaVuSans-31"/>
      </g>
     </g>
    </g>
    <g id="xtick_3">
     <g id="line2d_5">
      <path clip-path="url(#p309610ae3f)" d="M 168.329843 285 
L 168.329843 13.2 
" style="fill:none;stroke:#b0b0b0;stroke-linecap:square;stroke-width:0.8;"/>
     </g>
     <g id="line2d_6">
      <g>
       <use x="168.329843" xlink:href="#m6492b62e4d" y="285"/>
      </g>
     </g>
     <g id="text_3">
      <!-- 2 -->
      <defs>
       <path d="M 19.1875 8.296875 
L 53.609375 8.296875 
L 53.609375 0 
L 7.328125 0 
L 7.328125 8.296875 
Q 12.9375 14.109375 22.625 23.890625 
Q 32.328125 33.6875 34.8125 36.53125 
Q 39.546875 41.84375 41.421875 45.53125 
Q 43.3125 49.21875 43.3125 52.78125 
Q 43.3125 58.59375 39.234375 62.25 
Q 35.15625 65.921875 28.609375 65.921875 
Q 23.96875 65.921875 18.8125 64.3125 
Q 13.671875 62.703125 7.8125 59.421875 
L 7.8125 69.390625 
Q 13.765625 71.78125 18.9375 73 
Q 24.125 74.21875 28.421875 74.21875 
Q 39.75 74.21875 46.484375 68.546875 
Q 53.21875 62.890625 53.21875 53.421875 
Q 53.21875 48.921875 51.53125 44.890625 
Q 49.859375 40.875 45.40625 35.40625 
Q 44.1875 33.984375 37.640625 27.21875 
Q 31.109375 20.453125 19.1875 8.296875 
z
" id="DejaVuSans-32"/>
      </defs>
      <g transform="translate(163.557968 305.897656)scale(0.15 -0.15)">
       <use xlink:href="#DejaVuSans-32"/>
      </g>
     </g>
    </g>
    <g id="xtick_4">
     <g id="line2d_7">
      <path clip-path="url(#p309610ae3f)" d="M 220.31742 285 
L 220.31742 13.2 
" style="fill:none;stroke:#b0b0b0;stroke-linecap:square;stroke-width:0.8;"/>
     </g>
     <g id="line2d_8">
      <g>
       <use x="220.31742" xlink:href="#m6492b62e4d" y="285"/>
      </g>
     </g>
     <g id="text_4">
      <!-- 3 -->
      <defs>
       <path d="M 40.578125 39.3125 
Q 47.65625 37.796875 51.625 33 
Q 55.609375 28.21875 55.609375 21.1875 
Q 55.609375 10.40625 48.1875 4.484375 
Q 40.765625 -1.421875 27.09375 -1.421875 
Q 22.515625 -1.421875 17.65625 -0.515625 
Q 12.796875 0.390625 7.625 2.203125 
L 7.625 11.71875 
Q 11.71875 9.328125 16.59375 8.109375 
Q 21.484375 6.890625 26.8125 6.890625 
Q 36.078125 6.890625 40.9375 10.546875 
Q 45.796875 14.203125 45.796875 21.1875 
Q 45.796875 27.640625 41.28125 31.265625 
Q 36.765625 34.90625 28.71875 34.90625 
L 20.21875 34.90625 
L 20.21875 43.015625 
L 29.109375 43.015625 
Q 36.375 43.015625 40.234375 45.921875 
Q 44.09375 48.828125 44.09375 54.296875 
Q 44.09375 59.90625 40.109375 62.90625 
Q 36.140625 65.921875 28.71875 65.921875 
Q 24.65625 65.921875 20.015625 65.03125 
Q 15.375 64.15625 9.8125 62.3125 
L 9.8125 71.09375 
Q 15.4375 72.65625 20.34375 73.4375 
Q 25.25 74.21875 29.59375 74.21875 
Q 40.828125 74.21875 47.359375 69.109375 
Q 53.90625 64.015625 53.90625 55.328125 
Q 53.90625 49.265625 50.4375 45.09375 
Q 46.96875 40.921875 40.578125 39.3125 
z
" id="DejaVuSans-33"/>
      </defs>
      <g transform="translate(215.545545 305.897656)scale(0.15 -0.15)">
       <use xlink:href="#DejaVuSans-33"/>
      </g>
     </g>
    </g>
    <g id="xtick_5">
     <g id="line2d_9">
      <path clip-path="url(#p309610ae3f)" d="M 272.304998 285 
L 272.304998 13.2 
" style="fill:none;stroke:#b0b0b0;stroke-linecap:square;stroke-width:0.8;"/>
     </g>
     <g id="line2d_10">
      <g>
       <use x="272.304998" xlink:href="#m6492b62e4d" y="285"/>
      </g>
     </g>
     <g id="text_5">
      <!-- 4 -->
      <defs>
       <path d="M 37.796875 64.3125 
L 12.890625 25.390625 
L 37.796875 25.390625 
z
M 35.203125 72.90625 
L 47.609375 72.90625 
L 47.609375 25.390625 
L 58.015625 25.390625 
L 58.015625 17.1875 
L 47.609375 17.1875 
L 47.609375 0 
L 37.796875 0 
L 37.796875 17.1875 
L 4.890625 17.1875 
L 4.890625 26.703125 
z
" id="DejaVuSans-34"/>
      </defs>
      <g transform="translate(267.533123 305.897656)scale(0.15 -0.15)">
       <use xlink:href="#DejaVuSans-34"/>
      </g>
     </g>
    </g>
    <g id="xtick_6">
     <g id="line2d_11">
      <path clip-path="url(#p309610ae3f)" d="M 324.292576 285 
L 324.292576 13.2 
" style="fill:none;stroke:#b0b0b0;stroke-linecap:square;stroke-width:0.8;"/>
     </g>
     <g id="line2d_12">
      <g>
       <use x="324.292576" xlink:href="#m6492b62e4d" y="285"/>
      </g>
     </g>
     <g id="text_6">
      <!-- 5 -->
      <defs>
       <path d="M 10.796875 72.90625 
L 49.515625 72.90625 
L 49.515625 64.59375 
L 19.828125 64.59375 
L 19.828125 46.734375 
Q 21.96875 47.46875 24.109375 47.828125 
Q 26.265625 48.1875 28.421875 48.1875 
Q 40.625 48.1875 47.75 41.5 
Q 54.890625 34.8125 54.890625 23.390625 
Q 54.890625 11.625 47.5625 5.09375 
Q 40.234375 -1.421875 26.90625 -1.421875 
Q 22.3125 -1.421875 17.546875 -0.640625 
Q 12.796875 0.140625 7.71875 1.703125 
L 7.71875 11.625 
Q 12.109375 9.234375 16.796875 8.0625 
Q 21.484375 6.890625 26.703125 6.890625 
Q 35.15625 6.890625 40.078125 11.328125 
Q 45.015625 15.765625 45.015625 23.390625 
Q 45.015625 31 40.078125 35.4375 
Q 35.15625 39.890625 26.703125 39.890625 
Q 22.75 39.890625 18.8125 39.015625 
Q 14.890625 38.140625 10.796875 36.28125 
z
" id="DejaVuSans-35"/>
      </defs>
      <g transform="translate(319.520701 305.897656)scale(0.15 -0.15)">
       <use xlink:href="#DejaVuSans-35"/>
      </g>
     </g>
    </g>
    <g id="xtick_7">
     <g id="line2d_13">
      <path clip-path="url(#p309610ae3f)" d="M 376.280153 285 
L 376.280153 13.2 
" style="fill:none;stroke:#b0b0b0;stroke-linecap:square;stroke-width:0.8;"/>
     </g>
     <g id="line2d_14">
      <g>
       <use x="376.280153" xlink:href="#m6492b62e4d" y="285"/>
      </g>
     </g>
     <g id="text_7">
      <!-- 6 -->
      <defs>
       <path d="M 33.015625 40.375 
Q 26.375 40.375 22.484375 35.828125 
Q 18.609375 31.296875 18.609375 23.390625 
Q 18.609375 15.53125 22.484375 10.953125 
Q 26.375 6.390625 33.015625 6.390625 
Q 39.65625 6.390625 43.53125 10.953125 
Q 47.40625 15.53125 47.40625 23.390625 
Q 47.40625 31.296875 43.53125 35.828125 
Q 39.65625 40.375 33.015625 40.375 
z
M 52.59375 71.296875 
L 52.59375 62.3125 
Q 48.875 64.0625 45.09375 64.984375 
Q 41.3125 65.921875 37.59375 65.921875 
Q 27.828125 65.921875 22.671875 59.328125 
Q 17.53125 52.734375 16.796875 39.40625 
Q 19.671875 43.65625 24.015625 45.921875 
Q 28.375 48.1875 33.59375 48.1875 
Q 44.578125 48.1875 50.953125 41.515625 
Q 57.328125 34.859375 57.328125 23.390625 
Q 57.328125 12.15625 50.6875 5.359375 
Q 44.046875 -1.421875 33.015625 -1.421875 
Q 20.359375 -1.421875 13.671875 8.265625 
Q 6.984375 17.96875 6.984375 36.375 
Q 6.984375 53.65625 15.1875 63.9375 
Q 23.390625 74.21875 37.203125 74.21875 
Q 40.921875 74.21875 44.703125 73.484375 
Q 48.484375 72.75 52.59375 71.296875 
z
" id="DejaVuSans-36"/>
      </defs>
      <g transform="translate(371.508278 305.897656)scale(0.15 -0.15)">
       <use xlink:href="#DejaVuSans-36"/>
      </g>
     </g>
    </g>
    <g id="xtick_8">
     <g id="line2d_15">
      <path clip-path="url(#p309610ae3f)" d="M 428.267731 285 
L 428.267731 13.2 
" style="fill:none;stroke:#b0b0b0;stroke-linecap:square;stroke-width:0.8;"/>
     </g>
     <g id="line2d_16">
      <g>
       <use x="428.267731" xlink:href="#m6492b62e4d" y="285"/>
      </g>
     </g>
     <g id="text_8">
      <!-- 7 -->
      <defs>
       <path d="M 8.203125 72.90625 
L 55.078125 72.90625 
L 55.078125 68.703125 
L 28.609375 0 
L 18.3125 0 
L 43.21875 64.59375 
L 8.203125 64.59375 
z
" id="DejaVuSans-37"/>
      </defs>
      <g transform="translate(423.495856 305.897656)scale(0.15 -0.15)">
       <use xlink:href="#DejaVuSans-37"/>
      </g>
     </g>
    </g>
    <g id="text_9">
     <!-- $t/\tau$ -->
     <defs>
      <path d="M 42.28125 54.6875 
L 40.921875 47.703125 
L 23 47.703125 
L 17.1875 18.015625 
Q 16.890625 16.359375 16.75 15.234375 
Q 16.609375 14.109375 16.609375 13.484375 
Q 16.609375 10.359375 18.484375 8.9375 
Q 20.359375 7.515625 24.515625 7.515625 
L 33.59375 7.515625 
L 32.078125 0 
L 23.484375 0 
Q 15.484375 0 11.546875 3.125 
Q 7.625 6.25 7.625 12.59375 
Q 7.625 13.71875 7.765625 15.0625 
Q 7.90625 16.40625 8.203125 18.015625 
L 14.015625 47.703125 
L 6.390625 47.703125 
L 7.8125 54.6875 
L 15.28125 54.6875 
L 18.3125 70.21875 
L 27.296875 70.21875 
L 24.3125 54.6875 
z
" id="DejaVuSans-Oblique-74"/>
      <path d="M 25.390625 72.90625 
L 33.6875 72.90625 
L 8.296875 -9.28125 
L 0 -9.28125 
z
" id="DejaVuSans-2f"/>
      <path d="M 32.859375 9.96875 
Q 34.1875 7.625 39.453125 7.625 
L 43.75 7.625 
L 42.28125 0 
L 36.921875 0 
Q 28.125 0 25 4.6875 
Q 21.921875 9.46875 23.96875 19.828125 
L 29 45.703125 
L 8.453125 45.703125 
L 10.203125 54.6875 
L 60.640625 54.6875 
L 58.890625 45.703125 
L 38.1875 45.703125 
L 33.015625 19.28125 
Q 31.640625 12.203125 32.859375 9.96875 
z
" id="DejaVuSans-Oblique-3c4"/>
     </defs>
     <g transform="translate(232.911209 328.214063)scale(0.2 -0.2)">
      <use transform="translate(0 0.09375)" xlink:href="#DejaVuSans-Oblique-74"/>
      <use transform="translate(39.208984 0.09375)" xlink:href="#DejaVuSans-2f"/>
      <use transform="translate(72.900391 0.09375)" xlink:href="#DejaVuSans-Oblique-3c4"/>
     </g>
    </g>
   </g>
   <g id="matplotlib.axis_2">
    <g id="ytick_1">
     <g id="line2d_17">
      <path clip-path="url(#p309610ae3f)" d="M 64.354687 285 
L 428.267731 285 
" style="fill:none;stroke:#b0b0b0;stroke-linecap:square;stroke-width:0.8;"/>
     </g>
     <g id="line2d_18">
      <defs>
       <path d="M 0 0 
L -6 0 
" id="m4e97b28a26"/>
      </defs>
      <g>
       <use x="64.354687" xlink:href="#m4e97b28a26" y="285"/>
      </g>
     </g>
     <g id="text_10">
      <!-- 0.8 -->
      <defs>
       <path d="M 10.6875 12.40625 
L 21 12.40625 
L 21 0 
L 10.6875 0 
z
" id="DejaVuSans-2e"/>
       <path d="M 31.78125 34.625 
Q 24.75 34.625 20.71875 30.859375 
Q 16.703125 27.09375 16.703125 20.515625 
Q 16.703125 13.921875 20.71875 10.15625 
Q 24.75 6.390625 31.78125 6.390625 
Q 38.8125 6.390625 42.859375 10.171875 
Q 46.921875 13.96875 46.921875 20.515625 
Q 46.921875 27.09375 42.890625 30.859375 
Q 38.875 34.625 31.78125 34.625 
z
M 21.921875 38.8125 
Q 15.578125 40.375 12.03125 44.71875 
Q 8.5 49.078125 8.5 55.328125 
Q 8.5 64.0625 14.71875 69.140625 
Q 20.953125 74.21875 31.78125 74.21875 
Q 42.671875 74.21875 48.875 69.140625 
Q 55.078125 64.0625 55.078125 55.328125 
Q 55.078125 49.078125 51.53125 44.71875 
Q 48 40.375 41.703125 38.8125 
Q 48.828125 37.15625 52.796875 32.3125 
Q 56.78125 27.484375 56.78125 20.515625 
Q 56.78125 9.90625 50.3125 4.234375 
Q 43.84375 -1.421875 31.78125 -1.421875 
Q 19.734375 -1.421875 13.25 4.234375 
Q 6.78125 9.90625 6.78125 20.515625 
Q 6.78125 27.484375 10.78125 32.3125 
Q 14.796875 37.15625 21.921875 38.8125 
z
M 18.3125 54.390625 
Q 18.3125 48.734375 21.84375 45.5625 
Q 25.390625 42.390625 31.78125 42.390625 
Q 38.140625 42.390625 41.71875 45.5625 
Q 45.3125 48.734375 45.3125 54.390625 
Q 45.3125 60.0625 41.71875 63.234375 
Q 38.140625 66.40625 31.78125 66.40625 
Q 25.390625 66.40625 21.84375 63.234375 
Q 18.3125 60.0625 18.3125 54.390625 
z
" id="DejaVuSans-38"/>
      </defs>
      <g transform="translate(31 290.698828)scale(0.15 -0.15)">
       <use xlink:href="#DejaVuSans-30"/>
       <use x="63.623047" xlink:href="#DejaVuSans-2e"/>
       <use x="95.410156" xlink:href="#DejaVuSans-38"/>
      </g>
     </g>
    </g>
    <g id="ytick_2">
     <g id="line2d_19">
      <path clip-path="url(#p309610ae3f)" d="M 64.354687 230.64 
L 428.267731 230.64 
" style="fill:none;stroke:#b0b0b0;stroke-linecap:square;stroke-width:0.8;"/>
     </g>
     <g id="line2d_20">
      <g>
       <use x="64.354687" xlink:href="#m4e97b28a26" y="230.64"/>
      </g>
     </g>
     <g id="text_11">
      <!-- 1.0 -->
      <g transform="translate(31 236.338828)scale(0.15 -0.15)">
       <use xlink:href="#DejaVuSans-31"/>
       <use x="63.623047" xlink:href="#DejaVuSans-2e"/>
       <use x="95.410156" xlink:href="#DejaVuSans-30"/>
      </g>
     </g>
    </g>
    <g id="ytick_3">
     <g id="line2d_21">
      <path clip-path="url(#p309610ae3f)" d="M 64.354687 176.28 
L 428.267731 176.28 
" style="fill:none;stroke:#b0b0b0;stroke-linecap:square;stroke-width:0.8;"/>
     </g>
     <g id="line2d_22">
      <g>
       <use x="64.354687" xlink:href="#m4e97b28a26" y="176.28"/>
      </g>
     </g>
     <g id="text_12">
      <!-- 1.2 -->
      <g transform="translate(31 181.978828)scale(0.15 -0.15)">
       <use xlink:href="#DejaVuSans-31"/>
       <use x="63.623047" xlink:href="#DejaVuSans-2e"/>
       <use x="95.410156" xlink:href="#DejaVuSans-32"/>
      </g>
     </g>
    </g>
    <g id="ytick_4">
     <g id="line2d_23">
      <path clip-path="url(#p309610ae3f)" d="M 64.354687 121.92 
L 428.267731 121.92 
" style="fill:none;stroke:#b0b0b0;stroke-linecap:square;stroke-width:0.8;"/>
     </g>
     <g id="line2d_24">
      <g>
       <use x="64.354687" xlink:href="#m4e97b28a26" y="121.92"/>
      </g>
     </g>
     <g id="text_13">
      <!-- 1.4 -->
      <g transform="translate(31 127.618828)scale(0.15 -0.15)">
       <use xlink:href="#DejaVuSans-31"/>
       <use x="63.623047" xlink:href="#DejaVuSans-2e"/>
       <use x="95.410156" xlink:href="#DejaVuSans-34"/>
      </g>
     </g>
    </g>
    <g id="ytick_5">
     <g id="line2d_25">
      <path clip-path="url(#p309610ae3f)" d="M 64.354687 67.56 
L 428.267731 67.56 
" style="fill:none;stroke:#b0b0b0;stroke-linecap:square;stroke-width:0.8;"/>
     </g>
     <g id="line2d_26">
      <g>
       <use x="64.354687" xlink:href="#m4e97b28a26" y="67.56"/>
      </g>
     </g>
     <g id="text_14">
      <!-- 1.6 -->
      <g transform="translate(31 73.258828)scale(0.15 -0.15)">
       <use xlink:href="#DejaVuSans-31"/>
       <use x="63.623047" xlink:href="#DejaVuSans-2e"/>
       <use x="95.410156" xlink:href="#DejaVuSans-36"/>
      </g>
     </g>
    </g>
    <g id="ytick_6">
     <g id="line2d_27">
      <path clip-path="url(#p309610ae3f)" d="M 64.354687 13.2 
L 428.267731 13.2 
" style="fill:none;stroke:#b0b0b0;stroke-linecap:square;stroke-width:0.8;"/>
     </g>
     <g id="line2d_28">
      <g>
       <use x="64.354687" xlink:href="#m4e97b28a26" y="13.2"/>
      </g>
     </g>
     <g id="text_15">
      <!-- 1.8 -->
      <g transform="translate(31 18.898828)scale(0.15 -0.15)">
       <use xlink:href="#DejaVuSans-31"/>
       <use x="63.623047" xlink:href="#DejaVuSans-2e"/>
       <use x="95.410156" xlink:href="#DejaVuSans-38"/>
      </g>
     </g>
    </g>
    <g id="text_16">
     <!-- $s/\overline{s_b}$ -->
     <defs>
      <path d="M 50 53.078125 
L 48.296875 44.578125 
Q 44.734375 46.53125 40.765625 47.5 
Q 36.8125 48.484375 32.625 48.484375 
Q 25.53125 48.484375 21.453125 46.0625 
Q 17.390625 43.65625 17.390625 39.5 
Q 17.390625 34.671875 26.859375 32.078125 
Q 27.59375 31.890625 27.9375 31.78125 
L 30.8125 30.90625 
Q 39.796875 28.421875 42.796875 25.6875 
Q 45.796875 22.953125 45.796875 18.21875 
Q 45.796875 9.515625 38.890625 4.046875 
Q 31.984375 -1.421875 20.796875 -1.421875 
Q 16.453125 -1.421875 11.671875 -0.578125 
Q 6.890625 0.25 1.125 2 
L 2.875 11.28125 
Q 7.8125 8.734375 12.59375 7.421875 
Q 17.390625 6.109375 21.78125 6.109375 
Q 28.375 6.109375 32.5 8.9375 
Q 36.625 11.765625 36.625 16.109375 
Q 36.625 20.796875 25.78125 23.6875 
L 24.859375 23.921875 
L 21.78125 24.703125 
Q 14.9375 26.515625 11.765625 29.46875 
Q 8.59375 32.421875 8.59375 37.015625 
Q 8.59375 45.75 15.15625 50.875 
Q 21.734375 56 33.015625 56 
Q 37.453125 56 41.671875 55.265625 
Q 45.90625 54.546875 50 53.078125 
z
" id="DejaVuSans-Oblique-73"/>
      <path d="M 49.515625 33.40625 
Q 49.515625 40.484375 46.265625 44.484375 
Q 43.015625 48.484375 37.3125 48.484375 
Q 33.15625 48.484375 29.515625 46.453125 
Q 25.875 44.4375 23.1875 40.578125 
Q 20.359375 36.53125 18.71875 31.171875 
Q 17.09375 25.828125 17.09375 20.515625 
Q 17.09375 13.765625 20.28125 9.9375 
Q 23.484375 6.109375 29.109375 6.109375 
Q 33.34375 6.109375 36.953125 8.078125 
Q 40.578125 10.0625 43.3125 13.921875 
Q 46.09375 17.921875 47.796875 23.234375 
Q 49.515625 28.5625 49.515625 33.40625 
z
M 21.578125 46.390625 
Q 24.90625 50.875 29.90625 53.4375 
Q 34.90625 56 40.375 56 
Q 48.78125 56 53.734375 50.328125 
Q 58.6875 44.671875 58.6875 35.015625 
Q 58.6875 27.09375 55.78125 19.671875 
Q 52.875 12.25 47.515625 6.5 
Q 44 2.6875 39.40625 0.625 
Q 34.8125 -1.421875 29.78125 -1.421875 
Q 24.46875 -1.421875 20.5625 1.015625 
Q 16.65625 3.46875 14.203125 8.296875 
L 12.59375 0 
L 3.609375 0 
L 18.40625 75.984375 
L 27.390625 75.984375 
z
" id="DejaVuSans-Oblique-62"/>
     </defs>
     <g transform="translate(22.840625 167.7)rotate(-90)scale(0.2 -0.2)">
      <use transform="translate(0 0.25)" xlink:href="#DejaVuSans-Oblique-73"/>
      <use transform="translate(52.099609 0.25)" xlink:href="#DejaVuSans-2f"/>
      <use transform="translate(85.791016 0.75)" xlink:href="#DejaVuSans-Oblique-73"/>
      <use transform="translate(137.890625 -15.65625)scale(0.7)" xlink:href="#DejaVuSans-Oblique-62"/>
      <path d="M 85.791016 68.5 
L 85.791016 74.75 
L 185.058594 74.75 
L 185.058594 68.5 
L 85.791016 68.5 
z
"/>
     </g>
    </g>
   </g>
   <g id="line2d_29">
    <path clip-path="url(#p309610ae3f)" d="M 64.354687 230.64 
L 69.553445 211.131974 
L 74.752203 190.302155 
L 79.950961 167.976992 
L 85.149719 144.341183 
L 90.348476 119.512606 
L 95.547234 98.152437 
L 100.745992 81.963945 
L 105.94475 77.71705 
L 111.143507 87.635872 
L 116.342265 105.375942 
L 121.541023 126.651043 
L 126.739781 136.660365 
L 131.938538 139.75438 
L 137.137296 133.739987 
L 142.336054 118.81101 
L 147.534812 105.656399 
L 152.733569 92.730908 
L 157.932327 86.339205 
L 163.131085 90.018809 
L 168.329843 104.553067 
L 173.528601 119.781271 
L 178.727358 130.363745 
L 183.926116 132.993615 
L 189.124874 127.107616 
L 194.323632 117.826701 
L 199.522389 104.034982 
L 204.721147 94.684724 
L 209.919905 90.469923 
L 215.118663 93.73897 
L 220.31742 104.823644 
L 225.516178 115.902214 
L 230.714936 129.657121 
L 235.913694 134.12858 
L 241.112451 128.99515 
L 246.311209 118.107589 
L 251.509967 104.010057 
L 256.708725 92.320275 
L 261.907483 87.486436 
L 267.10624 93.357178 
L 272.304998 107.010819 
L 277.503756 117.864901 
L 282.702514 128.066614 
L 287.901271 130.973233 
L 293.100029 127.375252 
L 298.298787 117.346126 
L 303.497545 102.105718 
L 308.696302 89.878336 
L 313.89506 86.295905 
L 319.093818 92.173508 
L 324.292576 101.929518 
L 329.491333 112.697607 
L 334.690091 125.700873 
L 339.888849 130.736653 
L 345.087607 127.387267 
L 350.286365 116.388051 
L 355.485122 100.672056 
L 360.68388 92.189248 
L 365.882638 88.316839 
L 371.081396 93.564114 
L 376.280153 102.898485 
L 381.478911 111.910056 
L 386.677669 125.389828 
L 391.876427 129.306716 
L 397.075184 127.989427 
L 402.273942 119.238252 
L 407.4727 103.205373 
L 412.671458 92.809281 
L 417.870215 88.931093 
L 423.068973 93.477257 
L 428.267731 105.467878 
" style="fill:none;stroke:#1f77b4;stroke-linecap:square;stroke-width:3;"/>
   </g>
   <g id="line2d_30">
    <path clip-path="url(#p309610ae3f)" d="M 64.354687 230.64 
L 69.553445 211.131974 
L 74.752203 190.223788 
L 79.950961 167.814949 
L 85.149719 143.79775 
L 90.348476 119.980583 
L 95.547234 102.630403 
L 100.745992 102.759026 
L 105.94475 104.481319 
L 111.143507 129.558099 
L 116.342265 149.400039 
L 121.541023 158.712855 
L 126.739781 163.040616 
L 131.938538 155.785786 
L 137.137296 137.3139 
L 142.336054 122.825005 
L 147.534812 112.04599 
L 152.733569 113.202198 
L 157.932327 119.751721 
L 163.131085 131.85319 
L 168.329843 150.516175 
L 173.528601 160.64086 
L 178.727358 158.048077 
L 183.926116 151.84383 
L 189.124874 144.65791 
L 194.323632 131.513414 
L 199.522389 124.08272 
L 204.721147 125.421986 
L 209.919905 130.258716 
L 215.118663 140.090955 
L 220.31742 149.215035 
L 225.516178 162.208172 
L 230.714936 159.841275 
L 235.913694 152.156227 
L 241.112451 142.003976 
L 246.311209 129.916177 
L 251.509967 121.608637 
L 256.708725 117.392827 
L 261.907483 124.96494 
L 267.10624 134.512167 
L 272.304998 147.377565 
L 277.503756 154.468647 
L 282.702514 156.662112 
L 287.901271 151.37323 
L 293.100029 140.198139 
L 298.298787 128.80308 
L 303.497545 117.718136 
L 308.696302 118.463164 
L 313.89506 126.450165 
L 319.093818 137.196436 
L 324.292576 146.756829 
L 329.491333 154.814983 
L 334.690091 156.816573 
L 339.888849 151.504075 
L 345.087607 141.753709 
L 350.286365 129.414594 
L 355.485122 120.330219 
L 360.68388 118.582275 
L 365.882638 124.086339 
L 371.081396 136.271675 
L 376.280153 149.275641 
L 381.478911 157.01694 
L 386.677669 156.990831 
L 391.876427 150.864693 
L 397.075184 139.786541 
L 402.273942 128.479874 
L 407.4727 120.175928 
L 412.671458 118.403754 
L 417.870215 124.783508 
L 423.068973 136.615111 
L 428.267731 149.223698 
" style="fill:none;stroke:#ff7f0e;stroke-linecap:square;stroke-width:3;"/>
   </g>
   <g id="line2d_31">
    <path clip-path="url(#p309610ae3f)" d="M 64.354687 230.64 
L 69.553445 211.131974 
L 74.752203 190.223788 
L 79.950961 167.814949 
L 85.149719 143.79775 
L 90.348476 119.013869 
L 95.547234 96.592197 
L 100.745992 83.800091 
L 105.94475 74.218924 
L 111.143507 86.339604 
L 116.342265 105.848466 
L 121.541023 122.162132 
L 126.739781 140.145869 
L 131.938538 144.372791 
L 137.137296 130.145435 
L 142.336054 116.095759 
L 147.534812 102.775893 
L 152.733569 97.87088 
L 157.932327 99.641698 
L 163.131085 107.150309 
L 168.329843 125.664045 
L 173.528601 142.089737 
L 178.727358 145.194613 
L 183.926116 146.598717 
L 189.124874 140.99795 
L 194.323632 126.653486 
L 199.522389 117.911657 
L 204.721147 115.523949 
L 209.919905 117.729161 
L 215.118663 127.214734 
L 220.31742 136.296097 
L 225.516178 153.039941 
L 230.714936 153.811929 
L 235.913694 148.341019 
L 241.112451 139.886511 
L 246.311209 127.546508 
L 251.509967 117.925603 
L 256.708725 112.397624 
L 261.907483 117.500631 
L 267.10624 127.496289 
L 272.304998 140.323272 
L 277.503756 149.264536 
L 282.702514 153.375831 
L 287.901271 149.348793 
L 293.100029 139.061845 
L 298.298787 127.626411 
L 303.497545 116.012454 
L 308.696302 115.591713 
L 313.89506 123.108298 
L 319.093818 133.065565 
L 324.292576 143.49022 
L 329.491333 152.258155 
L 334.690091 155.319438 
L 339.888849 150.771312 
L 345.087607 141.020386 
L 350.286365 128.78805 
L 355.485122 119.487591 
L 360.68388 117.086555 
L 365.882638 122.255217 
L 371.081396 134.323386 
L 376.280153 147.598221 
L 381.478911 155.762726 
L 386.677669 156.252579 
L 391.876427 150.363739 
L 397.075184 139.525811 
L 402.273942 128.243902 
L 407.4727 119.618129 
L 412.671458 117.550337 
L 417.870215 123.802312 
L 423.068973 135.689848 
L 428.267731 148.371499 
" style="fill:none;stroke:#2ca02c;stroke-linecap:square;stroke-width:3;"/>
   </g>
   <g id="patch_3">
    <path d="M 64.354687 285 
L 64.354687 13.2 
" style="fill:none;stroke:#000000;stroke-linecap:square;stroke-linejoin:miter;stroke-width:2;"/>
   </g>
   <g id="patch_4">
    <path d="M 428.267731 285 
L 428.267731 13.2 
" style="fill:none;"/>
   </g>
   <g id="patch_5">
    <path d="M 64.354687 285 
L 428.267731 285 
" style="fill:none;stroke:#000000;stroke-linecap:square;stroke-linejoin:miter;stroke-width:2;"/>
   </g>
   <g id="patch_6">
    <path d="M 64.354687 13.2 
L 428.267731 13.2 
" style="fill:none;"/>
   </g>
   <g id="legend_1">
    <g id="patch_7">
     <path d="M 74.854687 277.5 
L 330.180469 277.5 
Q 333.180469 277.5 333.180469 274.5 
L 333.180469 209.948438 
Q 333.180469 206.948438 330.180469 206.948438 
L 74.854687 206.948438 
Q 71.854687 206.948438 71.854687 209.948438 
L 71.854687 274.5 
Q 71.854687 277.5 74.854687 277.5 
z
" style="fill:#ffffff;opacity:0.8;stroke:#cccccc;stroke-linejoin:miter;"/>
    </g>
    <g id="line2d_32">
     <path d="M 77.854687 219.096094 
L 107.854687 219.096094 
" style="fill:none;stroke:#1f77b4;stroke-linecap:square;stroke-width:3;"/>
    </g>
    <g id="line2d_33"/>
    <g id="text_17">
     <!-- Single Lineage -->
     <defs>
      <path d="M 53.515625 70.515625 
L 53.515625 60.890625 
Q 47.90625 63.578125 42.921875 64.890625 
Q 37.9375 66.21875 33.296875 66.21875 
Q 25.25 66.21875 20.875 63.09375 
Q 16.5 59.96875 16.5 54.203125 
Q 16.5 49.359375 19.40625 46.890625 
Q 22.3125 44.4375 30.421875 42.921875 
L 36.375 41.703125 
Q 47.40625 39.59375 52.65625 34.296875 
Q 57.90625 29 57.90625 20.125 
Q 57.90625 9.515625 50.796875 4.046875 
Q 43.703125 -1.421875 29.984375 -1.421875 
Q 24.8125 -1.421875 18.96875 -0.25 
Q 13.140625 0.921875 6.890625 3.21875 
L 6.890625 13.375 
Q 12.890625 10.015625 18.65625 8.296875 
Q 24.421875 6.59375 29.984375 6.59375 
Q 38.421875 6.59375 43.015625 9.90625 
Q 47.609375 13.234375 47.609375 19.390625 
Q 47.609375 24.75 44.3125 27.78125 
Q 41.015625 30.8125 33.5 32.328125 
L 27.484375 33.5 
Q 16.453125 35.6875 11.515625 40.375 
Q 6.59375 45.0625 6.59375 53.421875 
Q 6.59375 63.09375 13.40625 68.65625 
Q 20.21875 74.21875 32.171875 74.21875 
Q 37.3125 74.21875 42.625 73.28125 
Q 47.953125 72.359375 53.515625 70.515625 
z
" id="DejaVuSans-53"/>
      <path d="M 9.421875 54.6875 
L 18.40625 54.6875 
L 18.40625 0 
L 9.421875 0 
z
M 9.421875 75.984375 
L 18.40625 75.984375 
L 18.40625 64.59375 
L 9.421875 64.59375 
z
" id="DejaVuSans-69"/>
      <path d="M 54.890625 33.015625 
L 54.890625 0 
L 45.90625 0 
L 45.90625 32.71875 
Q 45.90625 40.484375 42.875 44.328125 
Q 39.84375 48.1875 33.796875 48.1875 
Q 26.515625 48.1875 22.3125 43.546875 
Q 18.109375 38.921875 18.109375 30.90625 
L 18.109375 0 
L 9.078125 0 
L 9.078125 54.6875 
L 18.109375 54.6875 
L 18.109375 46.1875 
Q 21.34375 51.125 25.703125 53.5625 
Q 30.078125 56 35.796875 56 
Q 45.21875 56 50.046875 50.171875 
Q 54.890625 44.34375 54.890625 33.015625 
z
" id="DejaVuSans-6e"/>
      <path d="M 45.40625 27.984375 
Q 45.40625 37.75 41.375 43.109375 
Q 37.359375 48.484375 30.078125 48.484375 
Q 22.859375 48.484375 18.828125 43.109375 
Q 14.796875 37.75 14.796875 27.984375 
Q 14.796875 18.265625 18.828125 12.890625 
Q 22.859375 7.515625 30.078125 7.515625 
Q 37.359375 7.515625 41.375 12.890625 
Q 45.40625 18.265625 45.40625 27.984375 
z
M 54.390625 6.78125 
Q 54.390625 -7.171875 48.1875 -13.984375 
Q 42 -20.796875 29.203125 -20.796875 
Q 24.46875 -20.796875 20.265625 -20.09375 
Q 16.0625 -19.390625 12.109375 -17.921875 
L 12.109375 -9.1875 
Q 16.0625 -11.328125 19.921875 -12.34375 
Q 23.78125 -13.375 27.78125 -13.375 
Q 36.625 -13.375 41.015625 -8.765625 
Q 45.40625 -4.15625 45.40625 5.171875 
L 45.40625 9.625 
Q 42.625 4.78125 38.28125 2.390625 
Q 33.9375 0 27.875 0 
Q 17.828125 0 11.671875 7.65625 
Q 5.515625 15.328125 5.515625 27.984375 
Q 5.515625 40.671875 11.671875 48.328125 
Q 17.828125 56 27.875 56 
Q 33.9375 56 38.28125 53.609375 
Q 42.625 51.21875 45.40625 46.390625 
L 45.40625 54.6875 
L 54.390625 54.6875 
z
" id="DejaVuSans-67"/>
      <path d="M 9.421875 75.984375 
L 18.40625 75.984375 
L 18.40625 0 
L 9.421875 0 
z
" id="DejaVuSans-6c"/>
      <path d="M 56.203125 29.59375 
L 56.203125 25.203125 
L 14.890625 25.203125 
Q 15.484375 15.921875 20.484375 11.0625 
Q 25.484375 6.203125 34.421875 6.203125 
Q 39.59375 6.203125 44.453125 7.46875 
Q 49.3125 8.734375 54.109375 11.28125 
L 54.109375 2.78125 
Q 49.265625 0.734375 44.1875 -0.34375 
Q 39.109375 -1.421875 33.890625 -1.421875 
Q 20.796875 -1.421875 13.15625 6.1875 
Q 5.515625 13.8125 5.515625 26.8125 
Q 5.515625 40.234375 12.765625 48.109375 
Q 20.015625 56 32.328125 56 
Q 43.359375 56 49.78125 48.890625 
Q 56.203125 41.796875 56.203125 29.59375 
z
M 47.21875 32.234375 
Q 47.125 39.59375 43.09375 43.984375 
Q 39.0625 48.390625 32.421875 48.390625 
Q 24.90625 48.390625 20.390625 44.140625 
Q 15.875 39.890625 15.1875 32.171875 
z
" id="DejaVuSans-65"/>
      <path id="DejaVuSans-20"/>
      <path d="M 9.8125 72.90625 
L 19.671875 72.90625 
L 19.671875 8.296875 
L 55.171875 8.296875 
L 55.171875 0 
L 9.8125 0 
z
" id="DejaVuSans-4c"/>
      <path d="M 34.28125 27.484375 
Q 23.390625 27.484375 19.1875 25 
Q 14.984375 22.515625 14.984375 16.5 
Q 14.984375 11.71875 18.140625 8.90625 
Q 21.296875 6.109375 26.703125 6.109375 
Q 34.1875 6.109375 38.703125 11.40625 
Q 43.21875 16.703125 43.21875 25.484375 
L 43.21875 27.484375 
z
M 52.203125 31.203125 
L 52.203125 0 
L 43.21875 0 
L 43.21875 8.296875 
Q 40.140625 3.328125 35.546875 0.953125 
Q 30.953125 -1.421875 24.3125 -1.421875 
Q 15.921875 -1.421875 10.953125 3.296875 
Q 6 8.015625 6 15.921875 
Q 6 25.140625 12.171875 29.828125 
Q 18.359375 34.515625 30.609375 34.515625 
L 43.21875 34.515625 
L 43.21875 35.40625 
Q 43.21875 41.609375 39.140625 45 
Q 35.0625 48.390625 27.6875 48.390625 
Q 23 48.390625 18.546875 47.265625 
Q 14.109375 46.140625 10.015625 43.890625 
L 10.015625 52.203125 
Q 14.9375 54.109375 19.578125 55.046875 
Q 24.21875 56 28.609375 56 
Q 40.484375 56 46.34375 49.84375 
Q 52.203125 43.703125 52.203125 31.203125 
z
" id="DejaVuSans-61"/>
     </defs>
     <g transform="translate(119.854687 224.346094)scale(0.15 -0.15)">
      <use xlink:href="#DejaVuSans-53"/>
      <use x="63.476562" xlink:href="#DejaVuSans-69"/>
      <use x="91.259766" xlink:href="#DejaVuSans-6e"/>
      <use x="154.638672" xlink:href="#DejaVuSans-67"/>
      <use x="218.115234" xlink:href="#DejaVuSans-6c"/>
      <use x="245.898438" xlink:href="#DejaVuSans-65"/>
      <use x="307.421875" xlink:href="#DejaVuSans-20"/>
      <use x="339.208984" xlink:href="#DejaVuSans-4c"/>
      <use x="394.921875" xlink:href="#DejaVuSans-69"/>
      <use x="422.705078" xlink:href="#DejaVuSans-6e"/>
      <use x="486.083984" xlink:href="#DejaVuSans-65"/>
      <use x="547.607422" xlink:href="#DejaVuSans-61"/>
      <use x="608.886719" xlink:href="#DejaVuSans-67"/>
      <use x="672.363281" xlink:href="#DejaVuSans-65"/>
     </g>
    </g>
    <g id="line2d_34">
     <path d="M 77.854687 241.113281 
L 107.854687 241.113281 
" style="fill:none;stroke:#ff7f0e;stroke-linecap:square;stroke-width:3;"/>
    </g>
    <g id="line2d_35"/>
    <g id="text_18">
     <!-- Population Snapshots (PBE) -->
     <defs>
      <path d="M 19.671875 64.796875 
L 19.671875 37.40625 
L 32.078125 37.40625 
Q 38.96875 37.40625 42.71875 40.96875 
Q 46.484375 44.53125 46.484375 51.125 
Q 46.484375 57.671875 42.71875 61.234375 
Q 38.96875 64.796875 32.078125 64.796875 
z
M 9.8125 72.90625 
L 32.078125 72.90625 
Q 44.34375 72.90625 50.609375 67.359375 
Q 56.890625 61.8125 56.890625 51.125 
Q 56.890625 40.328125 50.609375 34.8125 
Q 44.34375 29.296875 32.078125 29.296875 
L 19.671875 29.296875 
L 19.671875 0 
L 9.8125 0 
z
" id="DejaVuSans-50"/>
      <path d="M 30.609375 48.390625 
Q 23.390625 48.390625 19.1875 42.75 
Q 14.984375 37.109375 14.984375 27.296875 
Q 14.984375 17.484375 19.15625 11.84375 
Q 23.34375 6.203125 30.609375 6.203125 
Q 37.796875 6.203125 41.984375 11.859375 
Q 46.1875 17.53125 46.1875 27.296875 
Q 46.1875 37.015625 41.984375 42.703125 
Q 37.796875 48.390625 30.609375 48.390625 
z
M 30.609375 56 
Q 42.328125 56 49.015625 48.375 
Q 55.71875 40.765625 55.71875 27.296875 
Q 55.71875 13.875 49.015625 6.21875 
Q 42.328125 -1.421875 30.609375 -1.421875 
Q 18.84375 -1.421875 12.171875 6.21875 
Q 5.515625 13.875 5.515625 27.296875 
Q 5.515625 40.765625 12.171875 48.375 
Q 18.84375 56 30.609375 56 
z
" id="DejaVuSans-6f"/>
      <path d="M 18.109375 8.203125 
L 18.109375 -20.796875 
L 9.078125 -20.796875 
L 9.078125 54.6875 
L 18.109375 54.6875 
L 18.109375 46.390625 
Q 20.953125 51.265625 25.265625 53.625 
Q 29.59375 56 35.59375 56 
Q 45.5625 56 51.78125 48.09375 
Q 58.015625 40.1875 58.015625 27.296875 
Q 58.015625 14.40625 51.78125 6.484375 
Q 45.5625 -1.421875 35.59375 -1.421875 
Q 29.59375 -1.421875 25.265625 0.953125 
Q 20.953125 3.328125 18.109375 8.203125 
z
M 48.6875 27.296875 
Q 48.6875 37.203125 44.609375 42.84375 
Q 40.53125 48.484375 33.40625 48.484375 
Q 26.265625 48.484375 22.1875 42.84375 
Q 18.109375 37.203125 18.109375 27.296875 
Q 18.109375 17.390625 22.1875 11.75 
Q 26.265625 6.109375 33.40625 6.109375 
Q 40.53125 6.109375 44.609375 11.75 
Q 48.6875 17.390625 48.6875 27.296875 
z
" id="DejaVuSans-70"/>
      <path d="M 8.5 21.578125 
L 8.5 54.6875 
L 17.484375 54.6875 
L 17.484375 21.921875 
Q 17.484375 14.15625 20.5 10.265625 
Q 23.53125 6.390625 29.59375 6.390625 
Q 36.859375 6.390625 41.078125 11.03125 
Q 45.3125 15.671875 45.3125 23.6875 
L 45.3125 54.6875 
L 54.296875 54.6875 
L 54.296875 0 
L 45.3125 0 
L 45.3125 8.40625 
Q 42.046875 3.421875 37.71875 1 
Q 33.40625 -1.421875 27.6875 -1.421875 
Q 18.265625 -1.421875 13.375 4.4375 
Q 8.5 10.296875 8.5 21.578125 
z
M 31.109375 56 
z
" id="DejaVuSans-75"/>
      <path d="M 18.3125 70.21875 
L 18.3125 54.6875 
L 36.8125 54.6875 
L 36.8125 47.703125 
L 18.3125 47.703125 
L 18.3125 18.015625 
Q 18.3125 11.328125 20.140625 9.421875 
Q 21.96875 7.515625 27.59375 7.515625 
L 36.8125 7.515625 
L 36.8125 0 
L 27.59375 0 
Q 17.1875 0 13.234375 3.875 
Q 9.28125 7.765625 9.28125 18.015625 
L 9.28125 47.703125 
L 2.6875 47.703125 
L 2.6875 54.6875 
L 9.28125 54.6875 
L 9.28125 70.21875 
z
" id="DejaVuSans-74"/>
      <path d="M 44.28125 53.078125 
L 44.28125 44.578125 
Q 40.484375 46.53125 36.375 47.5 
Q 32.28125 48.484375 27.875 48.484375 
Q 21.1875 48.484375 17.84375 46.4375 
Q 14.5 44.390625 14.5 40.28125 
Q 14.5 37.15625 16.890625 35.375 
Q 19.28125 33.59375 26.515625 31.984375 
L 29.59375 31.296875 
Q 39.15625 29.25 43.1875 25.515625 
Q 47.21875 21.78125 47.21875 15.09375 
Q 47.21875 7.46875 41.1875 3.015625 
Q 35.15625 -1.421875 24.609375 -1.421875 
Q 20.21875 -1.421875 15.453125 -0.5625 
Q 10.6875 0.296875 5.421875 2 
L 5.421875 11.28125 
Q 10.40625 8.6875 15.234375 7.390625 
Q 20.0625 6.109375 24.8125 6.109375 
Q 31.15625 6.109375 34.5625 8.28125 
Q 37.984375 10.453125 37.984375 14.40625 
Q 37.984375 18.0625 35.515625 20.015625 
Q 33.0625 21.96875 24.703125 23.78125 
L 21.578125 24.515625 
Q 13.234375 26.265625 9.515625 29.90625 
Q 5.8125 33.546875 5.8125 39.890625 
Q 5.8125 47.609375 11.28125 51.796875 
Q 16.75 56 26.8125 56 
Q 31.78125 56 36.171875 55.265625 
Q 40.578125 54.546875 44.28125 53.078125 
z
" id="DejaVuSans-73"/>
      <path d="M 54.890625 33.015625 
L 54.890625 0 
L 45.90625 0 
L 45.90625 32.71875 
Q 45.90625 40.484375 42.875 44.328125 
Q 39.84375 48.1875 33.796875 48.1875 
Q 26.515625 48.1875 22.3125 43.546875 
Q 18.109375 38.921875 18.109375 30.90625 
L 18.109375 0 
L 9.078125 0 
L 9.078125 75.984375 
L 18.109375 75.984375 
L 18.109375 46.1875 
Q 21.34375 51.125 25.703125 53.5625 
Q 30.078125 56 35.796875 56 
Q 45.21875 56 50.046875 50.171875 
Q 54.890625 44.34375 54.890625 33.015625 
z
" id="DejaVuSans-68"/>
      <path d="M 31 75.875 
Q 24.46875 64.65625 21.28125 53.65625 
Q 18.109375 42.671875 18.109375 31.390625 
Q 18.109375 20.125 21.3125 9.0625 
Q 24.515625 -2 31 -13.1875 
L 23.1875 -13.1875 
Q 15.875 -1.703125 12.234375 9.375 
Q 8.59375 20.453125 8.59375 31.390625 
Q 8.59375 42.28125 12.203125 53.3125 
Q 15.828125 64.359375 23.1875 75.875 
z
" id="DejaVuSans-28"/>
      <path d="M 19.671875 34.8125 
L 19.671875 8.109375 
L 35.5 8.109375 
Q 43.453125 8.109375 47.28125 11.40625 
Q 51.125 14.703125 51.125 21.484375 
Q 51.125 28.328125 47.28125 31.5625 
Q 43.453125 34.8125 35.5 34.8125 
z
M 19.671875 64.796875 
L 19.671875 42.828125 
L 34.28125 42.828125 
Q 41.5 42.828125 45.03125 45.53125 
Q 48.578125 48.25 48.578125 53.8125 
Q 48.578125 59.328125 45.03125 62.0625 
Q 41.5 64.796875 34.28125 64.796875 
z
M 9.8125 72.90625 
L 35.015625 72.90625 
Q 46.296875 72.90625 52.390625 68.21875 
Q 58.5 63.53125 58.5 54.890625 
Q 58.5 48.1875 55.375 44.234375 
Q 52.25 40.28125 46.1875 39.3125 
Q 53.46875 37.75 57.5 32.78125 
Q 61.53125 27.828125 61.53125 20.40625 
Q 61.53125 10.640625 54.890625 5.3125 
Q 48.25 0 35.984375 0 
L 9.8125 0 
z
" id="DejaVuSans-42"/>
      <path d="M 9.8125 72.90625 
L 55.90625 72.90625 
L 55.90625 64.59375 
L 19.671875 64.59375 
L 19.671875 43.015625 
L 54.390625 43.015625 
L 54.390625 34.71875 
L 19.671875 34.71875 
L 19.671875 8.296875 
L 56.78125 8.296875 
L 56.78125 0 
L 9.8125 0 
z
" id="DejaVuSans-45"/>
      <path d="M 8.015625 75.875 
L 15.828125 75.875 
Q 23.140625 64.359375 26.78125 53.3125 
Q 30.421875 42.28125 30.421875 31.390625 
Q 30.421875 20.453125 26.78125 9.375 
Q 23.140625 -1.703125 15.828125 -13.1875 
L 8.015625 -13.1875 
Q 14.5 -2 17.703125 9.0625 
Q 20.90625 20.125 20.90625 31.390625 
Q 20.90625 42.671875 17.703125 53.65625 
Q 14.5 64.65625 8.015625 75.875 
z
" id="DejaVuSans-29"/>
     </defs>
     <g transform="translate(119.854687 246.363281)scale(0.15 -0.15)">
      <use xlink:href="#DejaVuSans-50"/>
      <use x="60.255859" xlink:href="#DejaVuSans-6f"/>
      <use x="121.4375" xlink:href="#DejaVuSans-70"/>
      <use x="184.914062" xlink:href="#DejaVuSans-75"/>
      <use x="248.292969" xlink:href="#DejaVuSans-6c"/>
      <use x="276.076172" xlink:href="#DejaVuSans-61"/>
      <use x="337.355469" xlink:href="#DejaVuSans-74"/>
      <use x="376.564453" xlink:href="#DejaVuSans-69"/>
      <use x="404.347656" xlink:href="#DejaVuSans-6f"/>
      <use x="465.529297" xlink:href="#DejaVuSans-6e"/>
      <use x="528.908203" xlink:href="#DejaVuSans-20"/>
      <use x="560.695312" xlink:href="#DejaVuSans-53"/>
      <use x="624.171875" xlink:href="#DejaVuSans-6e"/>
      <use x="687.550781" xlink:href="#DejaVuSans-61"/>
      <use x="748.830078" xlink:href="#DejaVuSans-70"/>
      <use x="812.306641" xlink:href="#DejaVuSans-73"/>
      <use x="864.40625" xlink:href="#DejaVuSans-68"/>
      <use x="927.785156" xlink:href="#DejaVuSans-6f"/>
      <use x="988.966797" xlink:href="#DejaVuSans-74"/>
      <use x="1028.175781" xlink:href="#DejaVuSans-73"/>
      <use x="1080.275391" xlink:href="#DejaVuSans-20"/>
      <use x="1112.0625" xlink:href="#DejaVuSans-28"/>
      <use x="1151.076172" xlink:href="#DejaVuSans-50"/>
      <use x="1211.378906" xlink:href="#DejaVuSans-42"/>
      <use x="1279.982422" xlink:href="#DejaVuSans-45"/>
      <use x="1343.166016" xlink:href="#DejaVuSans-29"/>
     </g>
    </g>
    <g id="line2d_36">
     <path d="M 77.854687 263.130469 
L 107.854687 263.130469 
" style="fill:none;stroke:#2ca02c;stroke-linecap:square;stroke-width:3;"/>
    </g>
    <g id="line2d_37"/>
    <g id="text_19">
     <!-- Lineage Tracking -->
     <defs>
      <path d="M -0.296875 72.90625 
L 61.375 72.90625 
L 61.375 64.59375 
L 35.5 64.59375 
L 35.5 0 
L 25.59375 0 
L 25.59375 64.59375 
L -0.296875 64.59375 
z
" id="DejaVuSans-54"/>
      <path d="M 41.109375 46.296875 
Q 39.59375 47.171875 37.8125 47.578125 
Q 36.03125 48 33.890625 48 
Q 26.265625 48 22.1875 43.046875 
Q 18.109375 38.09375 18.109375 28.8125 
L 18.109375 0 
L 9.078125 0 
L 9.078125 54.6875 
L 18.109375 54.6875 
L 18.109375 46.1875 
Q 20.953125 51.171875 25.484375 53.578125 
Q 30.03125 56 36.53125 56 
Q 37.453125 56 38.578125 55.875 
Q 39.703125 55.765625 41.0625 55.515625 
z
" id="DejaVuSans-72"/>
      <path d="M 48.78125 52.59375 
L 48.78125 44.1875 
Q 44.96875 46.296875 41.140625 47.34375 
Q 37.3125 48.390625 33.40625 48.390625 
Q 24.65625 48.390625 19.8125 42.84375 
Q 14.984375 37.3125 14.984375 27.296875 
Q 14.984375 17.28125 19.8125 11.734375 
Q 24.65625 6.203125 33.40625 6.203125 
Q 37.3125 6.203125 41.140625 7.25 
Q 44.96875 8.296875 48.78125 10.40625 
L 48.78125 2.09375 
Q 45.015625 0.34375 40.984375 -0.53125 
Q 36.96875 -1.421875 32.421875 -1.421875 
Q 20.0625 -1.421875 12.78125 6.34375 
Q 5.515625 14.109375 5.515625 27.296875 
Q 5.515625 40.671875 12.859375 48.328125 
Q 20.21875 56 33.015625 56 
Q 37.15625 56 41.109375 55.140625 
Q 45.0625 54.296875 48.78125 52.59375 
z
" id="DejaVuSans-63"/>
      <path d="M 9.078125 75.984375 
L 18.109375 75.984375 
L 18.109375 31.109375 
L 44.921875 54.6875 
L 56.390625 54.6875 
L 27.390625 29.109375 
L 57.625 0 
L 45.90625 0 
L 18.109375 26.703125 
L 18.109375 0 
L 9.078125 0 
z
" id="DejaVuSans-6b"/>
     </defs>
     <g transform="translate(119.854687 268.380469)scale(0.15 -0.15)">
      <use xlink:href="#DejaVuSans-4c"/>
      <use x="55.712891" xlink:href="#DejaVuSans-69"/>
      <use x="83.496094" xlink:href="#DejaVuSans-6e"/>
      <use x="146.875" xlink:href="#DejaVuSans-65"/>
      <use x="208.398438" xlink:href="#DejaVuSans-61"/>
      <use x="269.677734" xlink:href="#DejaVuSans-67"/>
      <use x="333.154297" xlink:href="#DejaVuSans-65"/>
      <use x="394.677734" xlink:href="#DejaVuSans-20"/>
      <use x="426.464844" xlink:href="#DejaVuSans-54"/>
      <use x="487.330078" xlink:href="#DejaVuSans-72"/>
      <use x="528.443359" xlink:href="#DejaVuSans-61"/>
      <use x="589.722656" xlink:href="#DejaVuSans-63"/>
      <use x="644.703125" xlink:href="#DejaVuSans-6b"/>
      <use x="702.613281" xlink:href="#DejaVuSans-69"/>
      <use x="730.396484" xlink:href="#DejaVuSans-6e"/>
      <use x="793.775391" xlink:href="#DejaVuSans-67"/>
     </g>
    </g>
   </g>
  </g>
  <g id="axes_2">
   <g id="patch_8">
    <path d="M 537.441644 285 
L 901.354688 285 
L 901.354688 13.2 
L 537.441644 13.2 
z
" style="fill:#ffffff;"/>
   </g>
   <g id="PolyCollection_4">
    <defs>
     <path d="M 537.441644 -68.208835 
L 537.441644 -68.208835 
L 542.640402 -68.208835 
L 547.83916 -68.081511 
L 553.037917 -68.083951 
L 558.236675 -68.59325 
L 563.435433 -70.292618 
L 568.634191 -83.300972 
L 573.832948 -109.343959 
L 579.031706 -159.924907 
L 584.230464 -230.234798 
L 589.429222 -290.971665 
L 594.627979 -307.519951 
L 599.826737 -261.930052 
L 605.025495 -189.040097 
L 610.224253 -124.559887 
L 615.42301 -98.392958 
L 620.621768 -100.722278 
L 625.820526 -133.681376 
L 631.019284 -176.553639 
L 636.218042 -233.867499 
L 641.416799 -290.005365 
L 646.615557 -310.671155 
L 651.814315 -275.136199 
L 657.013073 -209.321552 
L 662.21183 -151.604105 
L 667.410588 -116.548196 
L 672.609346 -115.997538 
L 677.808104 -143.133116 
L 683.006861 -187.355022 
L 688.205619 -240.972371 
L 693.404377 -290.364768 
L 698.603135 -311.518402 
L 703.801892 -277.666639 
L 709.00065 -211.915389 
L 714.199408 -153.899873 
L 719.398166 -118.655762 
L 724.596924 -116.719805 
L 729.795681 -141.109733 
L 734.994439 -183.849688 
L 740.193197 -241.149472 
L 745.391955 -293.699479 
L 750.590712 -311.481316 
L 755.78947 -280.457387 
L 760.988228 -216.863961 
L 766.186986 -156.016895 
L 771.385743 -114.960933 
L 776.584501 -109.492585 
L 781.783259 -134.982841 
L 786.982017 -182.003254 
L 792.180774 -237.254855 
L 797.379532 -287.397777 
L 802.57829 -311.595165 
L 807.777048 -282.126712 
L 812.975806 -217.024095 
L 818.174563 -149.916784 
L 823.373321 -112.533904 
L 828.572079 -111.315377 
L 833.770837 -138.007782 
L 838.969594 -181.791023 
L 844.168352 -239.562108 
L 849.36711 -289.000682 
L 854.565868 -311.723488 
L 859.764625 -284.488959 
L 864.963383 -225.962245 
L 870.162141 -156.971574 
L 875.360899 -113.399349 
L 880.559656 -116.143156 
L 885.758414 -140.604345 
L 890.957172 -183.538212 
L 896.15593 -239.068806 
L 901.354687 -291.407583 
L 901.354687 -300.082685 
L 901.354687 -300.082685 
L 896.15593 -253.846927 
L 890.957172 -197.644219 
L 885.758414 -156.536829 
L 880.559656 -133.246175 
L 875.360899 -131.99309 
L 870.162141 -180.328917 
L 864.963383 -247.603501 
L 859.764625 -297.052676 
L 854.565868 -313.766052 
L 849.36711 -298.227479 
L 844.168352 -253.198195 
L 838.969594 -196.478643 
L 833.770837 -153.062826 
L 828.572079 -128.423406 
L 823.373321 -132.171616 
L 818.174563 -173.93935 
L 812.975806 -239.439558 
L 807.777048 -294.420711 
L 802.57829 -313.171611 
L 797.379532 -296.898801 
L 792.180774 -250.827642 
L 786.982017 -200.283616 
L 781.783259 -149.315466 
L 776.584501 -125.585984 
L 771.385743 -134.446689 
L 766.186986 -179.756095 
L 760.988228 -239.708731 
L 755.78947 -293.524924 
L 750.590712 -313.634346 
L 745.391955 -305.537795 
L 740.193197 -255.781263 
L 734.994439 -199.99833 
L 729.795681 -156.985267 
L 724.596924 -133.569342 
L 719.398166 -138.615054 
L 714.199408 -178.256425 
L 709.00065 -235.862472 
L 703.801892 -291.080056 
L 698.603135 -312.309869 
L 693.404377 -299.250639 
L 688.205619 -256.393552 
L 683.006861 -203.148053 
L 677.808104 -158.679688 
L 672.609346 -131.785838 
L 667.410588 -137.967003 
L 662.21183 -174.419897 
L 657.013073 -231.696754 
L 651.814315 -288.971884 
L 646.615557 -312.335531 
L 641.416799 -299.362655 
L 636.218042 -248.014919 
L 631.019284 -190.961767 
L 625.820526 -146.452479 
L 620.621768 -110.813012 
L 615.42301 -115.228815 
L 610.224253 -145.326554 
L 605.025495 -212.493676 
L 599.826737 -279.026848 
L 594.627979 -311.508847 
L 589.429222 -299.93155 
L 584.230464 -244.194612 
L 579.031706 -173.941735 
L 573.832948 -119.748741 
L 568.634191 -89.879196 
L 563.435433 -73.463366 
L 558.236675 -70.788469 
L 553.037917 -69.303526 
L 547.83916 -68.813257 
L 542.640402 -68.208835 
L 537.441644 -68.208835 
z
" id="m8ee588d03c"/>
    </defs>
    <g clip-path="url(#p1d34497220)">
     <use style="fill:#4db8ff;" x="0" xlink:href="#m8ee588d03c" y="339.573438"/>
    </g>
   </g>
   <g id="PolyCollection_5">
    <defs>
     <path d="M 537.441644 -68.208835 
L 537.441644 -68.208835 
L 542.640402 -68.208835 
L 547.83916 -68.208835 
L 553.037917 -68.208835 
L 558.236675 -68.208835 
L 563.435433 -66.927983 
L 568.634191 -84.896318 
L 573.832948 -138.287147 
L 579.031706 -198.508474 
L 584.230464 -280.637053 
L 589.429222 -305.090128 
L 594.627979 -254.375283 
L 599.826737 -172.703243 
L 605.025495 -107.338092 
L 610.224253 -87.934455 
L 615.42301 -92.19148 
L 620.621768 -117.395207 
L 625.820526 -171.555065 
L 631.019284 -231.406058 
L 636.218042 -287.0181 
L 641.416799 -306.474254 
L 646.615557 -259.960198 
L 651.814315 -204.309759 
L 657.013073 -138.060843 
L 662.21183 -113.738936 
L 667.410588 -118.451349 
L 672.609346 -140.457895 
L 677.808104 -196.203419 
L 683.006861 -251.483846 
L 688.205619 -297.537346 
L 693.404377 -308.424273 
L 698.603135 -260.180997 
L 703.801892 -207.810946 
L 709.00065 -151.59708 
L 714.199408 -116.977543 
L 719.398166 -110.362899 
L 724.596924 -144.090398 
L 729.795681 -184.328775 
L 734.994439 -246.023359 
L 740.193197 -294.235066 
L 745.391955 -310.370828 
L 750.590712 -277.872863 
L 755.78947 -216.396857 
L 760.988228 -156.248859 
L 766.186986 -116.987784 
L 771.385743 -117.482666 
L 776.584501 -138.018964 
L 781.783259 -190.898303 
L 786.982017 -250.560151 
L 792.180774 -297.475617 
L 797.379532 -310.565457 
L 802.57829 -278.093536 
L 807.777048 -218.432042 
L 812.975806 -160.141786 
L 818.174563 -122.002836 
L 823.373321 -119.482368 
L 828.572079 -143.766464 
L 833.770837 -191.408347 
L 838.969594 -248.767643 
L 844.168352 -298.096536 
L 849.36711 -310.205603 
L 854.565868 -276.321147 
L 859.764625 -219.74189 
L 864.963383 -166.339559 
L 870.162141 -125.996445 
L 875.360899 -121.294266 
L 880.559656 -146.116768 
L 885.758414 -193.109437 
L 890.957172 -251.15089 
L 896.15593 -298.603949 
L 901.354687 -310.429098 
L 901.354687 -311.458569 
L 901.354687 -311.458569 
L 896.15593 -301.263112 
L 890.957172 -256.20519 
L 885.758414 -199.170924 
L 880.559656 -152.17014 
L 875.360899 -128.037663 
L 870.162141 -134.579325 
L 864.963383 -175.895342 
L 859.764625 -229.497221 
L 854.565868 -282.651279 
L 849.36711 -311.666911 
L 844.168352 -302.236966 
L 838.969594 -255.452807 
L 833.770837 -199.401398 
L 828.572079 -152.030082 
L 823.373321 -128.946992 
L 818.174563 -133.416349 
L 812.975806 -174.267191 
L 807.777048 -231.870746 
L 802.57829 -286.914727 
L 797.379532 -311.989065 
L 792.180774 -302.558873 
L 786.982017 -260.006378 
L 781.783259 -202.915975 
L 776.584501 -150.320043 
L 771.385743 -131.596326 
L 766.186986 -133.890412 
L 760.988228 -175.597501 
L 755.78947 -233.8417 
L 750.590712 -289.929397 
L 745.391955 -313.062929 
L 740.193197 -302.518008 
L 734.994439 -260.163448 
L 729.795681 -200.885862 
L 724.596924 -162.667698 
L 719.398166 -127.61593 
L 714.199408 -140.84457 
L 709.00065 -179.376373 
L 703.801892 -234.301601 
L 698.603135 -281.167068 
L 693.404377 -312.419783 
L 688.205619 -306.530435 
L 683.006861 -270.235879 
L 677.808104 -216.895842 
L 672.609346 -161.447553 
L 667.410588 -146.731718 
L 662.21183 -143.712481 
L 657.013073 -176.930512 
L 651.814315 -240.811835 
L 646.615557 -288.221254 
L 641.416799 -312.724815 
L 636.218042 -303.436889 
L 631.019284 -259.041393 
L 625.820526 -207.785074 
L 620.621768 -150.548289 
L 615.42301 -127.745798 
L 610.224253 -128.759099 
L 605.025495 -156.162158 
L 599.826737 -224.255201 
L 594.627979 -293.411101 
L 589.429222 -314.018892 
L 584.230464 -304.621096 
L 579.031706 -239.705656 
L 573.832948 -182.900684 
L 568.634191 -108.507816 
L 563.435433 -79.061156 
L 558.236675 -68.208835 
L 553.037917 -68.208835 
L 547.83916 -68.208835 
L 542.640402 -68.208835 
L 537.441644 -68.208835 
z
" id="m73cfd5b4c8"/>
    </defs>
    <g clip-path="url(#p1d34497220)">
     <use style="fill:#ffa035;" x="0" xlink:href="#m73cfd5b4c8" y="339.573438"/>
    </g>
   </g>
   <g id="PolyCollection_6">
    <defs>
     <path d="M 537.441644 -68.208835 
L 537.441644 -68.208835 
L 542.640402 -68.208835 
L 547.83916 -68.208835 
L 553.037917 -68.208835 
L 558.236675 -68.208835 
L 563.435433 -68.208835 
L 568.634191 -68.208835 
L 573.832948 -68.208835 
L 579.031706 -68.208835 
L 584.230464 -68.208835 
L 589.429222 -68.208835 
L 594.627979 -68.208835 
L 599.826737 -68.208835 
L 605.025495 -68.208835 
L 610.224253 -67.619779 
L 615.42301 -73.229835 
L 620.621768 -88.322105 
L 625.820526 -112.74658 
L 631.019284 -140.929796 
L 636.218042 -159.913736 
L 641.416799 -154.104889 
L 646.615557 -141.715508 
L 651.814315 -124.545078 
L 657.013073 -104.427234 
L 662.21183 -94.168758 
L 667.410588 -100.320612 
L 672.609346 -118.020034 
L 677.808104 -155.560453 
L 683.006861 -195.090313 
L 688.205619 -226.412717 
L 693.404377 -224.533653 
L 698.603135 -193.086471 
L 703.801892 -161.816888 
L 709.00065 -124.960649 
L 714.199408 -104.103131 
L 719.398166 -100.84221 
L 724.596924 -130.143167 
L 729.795681 -163.85922 
L 734.994439 -214.058496 
L 740.193197 -257.646246 
L 745.391955 -262.518839 
L 750.590712 -237.566136 
L 755.78947 -188.697689 
L 760.988228 -140.098158 
L 766.186986 -109.635553 
L 771.385743 -112.345702 
L 776.584501 -131.66278 
L 781.783259 -179.146127 
L 786.982017 -233.973947 
L 792.180774 -274.578801 
L 797.379532 -287.81779 
L 802.57829 -257.496013 
L 807.777048 -205.411154 
L 812.975806 -153.59312 
L 818.174563 -118.010663 
L 823.373321 -115.922508 
L 828.572079 -139.406867 
L 833.770837 -184.539065 
L 838.969594 -239.66182 
L 844.168352 -286.914586 
L 849.36711 -297.767967 
L 854.565868 -265.398078 
L 859.764625 -212.623046 
L 864.963383 -162.184251 
L 870.162141 -124.548192 
L 875.360899 -119.931724 
L 880.559656 -143.378787 
L 885.758414 -189.155862 
L 890.957172 -246.621671 
L 896.15593 -293.025287 
L 901.354687 -304.177095 
L 901.354687 -306.23537 
L 901.354687 -306.23537 
L 896.15593 -297.033159 
L 890.957172 -253.492036 
L 885.758414 -197.052565 
L 880.559656 -151.578599 
L 875.360899 -127.323625 
L 870.162141 -132.878358 
L 864.963383 -172.629026 
L 859.764625 -223.738708 
L 854.565868 -274.065117 
L 849.36711 -301.692589 
L 844.168352 -293.567 
L 838.969594 -249.483051 
L 833.770837 -196.062165 
L 828.572079 -149.932868 
L 823.373321 -126.902516 
L 818.174563 -129.497795 
L 812.975806 -166.795284 
L 807.777048 -220.164944 
L 802.57829 -268.606553 
L 797.379532 -293.687959 
L 792.180774 -283.726585 
L 786.982017 -247.523642 
L 781.783259 -194.095477 
L 776.584501 -145.235342 
L 771.385743 -126.490894 
L 766.186986 -124.42674 
L 760.988228 -158.33751 
L 755.78947 -209.018897 
L 750.590712 -253.965641 
L 745.391955 -274.399238 
L 740.193197 -270.608067 
L 734.994439 -233.118204 
L 729.795681 -184.138505 
L 724.596924 -148.745534 
L 719.398166 -116.780562 
L 714.199408 -122.64833 
L 709.00065 -147.762935 
L 703.801892 -187.050706 
L 698.603135 -217.184558 
L 693.404377 -244.351786 
L 688.205619 -245.925955 
L 683.006861 -217.042707 
L 677.808104 -177.207951 
L 672.609346 -138.447956 
L 667.410588 -118.614273 
L 662.21183 -116.44129 
L 657.013073 -127.904099 
L 651.814315 -149.256765 
L 646.615557 -169.156 
L 641.416799 -182.155169 
L 636.218042 -186.744438 
L 631.019284 -168.980076 
L 625.820526 -138.357705 
L 620.621768 -106.615766 
L 615.42301 -85.425609 
L 610.224253 -71.278511 
L 605.025495 -68.208835 
L 599.826737 -68.208835 
L 594.627979 -68.208835 
L 589.429222 -68.208835 
L 584.230464 -68.208835 
L 579.031706 -68.208835 
L 573.832948 -68.208835 
L 568.634191 -68.208835 
L 563.435433 -68.208835 
L 558.236675 -68.208835 
L 553.037917 -68.208835 
L 547.83916 -68.208835 
L 542.640402 -68.208835 
L 537.441644 -68.208835 
z
" id="mc18588aeef"/>
    </defs>
    <g clip-path="url(#p1d34497220)">
     <use style="fill:#47d200;" x="0" xlink:href="#mc18588aeef" y="339.573438"/>
    </g>
   </g>
   <g id="matplotlib.axis_3">
    <g id="xtick_9">
     <g id="line2d_38">
      <path clip-path="url(#p1d34497220)" d="M 537.441644 285 
L 537.441644 13.2 
" style="fill:none;stroke:#b0b0b0;stroke-linecap:square;stroke-width:0.8;"/>
     </g>
     <g id="line2d_39">
      <g>
       <use x="537.441644" xlink:href="#m6492b62e4d" y="285"/>
      </g>
     </g>
     <g id="text_20">
      <!-- 0 -->
      <g transform="translate(532.669769 305.897656)scale(0.15 -0.15)">
       <use xlink:href="#DejaVuSans-30"/>
      </g>
     </g>
    </g>
    <g id="xtick_10">
     <g id="line2d_40">
      <path clip-path="url(#p1d34497220)" d="M 589.429222 285 
L 589.429222 13.2 
" style="fill:none;stroke:#b0b0b0;stroke-linecap:square;stroke-width:0.8;"/>
     </g>
     <g id="line2d_41">
      <g>
       <use x="589.429222" xlink:href="#m6492b62e4d" y="285"/>
      </g>
     </g>
     <g id="text_21">
      <!-- 1 -->
      <g transform="translate(584.657347 305.897656)scale(0.15 -0.15)">
       <use xlink:href="#DejaVuSans-31"/>
      </g>
     </g>
    </g>
    <g id="xtick_11">
     <g id="line2d_42">
      <path clip-path="url(#p1d34497220)" d="M 641.416799 285 
L 641.416799 13.2 
" style="fill:none;stroke:#b0b0b0;stroke-linecap:square;stroke-width:0.8;"/>
     </g>
     <g id="line2d_43">
      <g>
       <use x="641.416799" xlink:href="#m6492b62e4d" y="285"/>
      </g>
     </g>
     <g id="text_22">
      <!-- 2 -->
      <g transform="translate(636.644924 305.897656)scale(0.15 -0.15)">
       <use xlink:href="#DejaVuSans-32"/>
      </g>
     </g>
    </g>
    <g id="xtick_12">
     <g id="line2d_44">
      <path clip-path="url(#p1d34497220)" d="M 693.404377 285 
L 693.404377 13.2 
" style="fill:none;stroke:#b0b0b0;stroke-linecap:square;stroke-width:0.8;"/>
     </g>
     <g id="line2d_45">
      <g>
       <use x="693.404377" xlink:href="#m6492b62e4d" y="285"/>
      </g>
     </g>
     <g id="text_23">
      <!-- 3 -->
      <g transform="translate(688.632502 305.897656)scale(0.15 -0.15)">
       <use xlink:href="#DejaVuSans-33"/>
      </g>
     </g>
    </g>
    <g id="xtick_13">
     <g id="line2d_46">
      <path clip-path="url(#p1d34497220)" d="M 745.391955 285 
L 745.391955 13.2 
" style="fill:none;stroke:#b0b0b0;stroke-linecap:square;stroke-width:0.8;"/>
     </g>
     <g id="line2d_47">
      <g>
       <use x="745.391955" xlink:href="#m6492b62e4d" y="285"/>
      </g>
     </g>
     <g id="text_24">
      <!-- 4 -->
      <g transform="translate(740.62008 305.897656)scale(0.15 -0.15)">
       <use xlink:href="#DejaVuSans-34"/>
      </g>
     </g>
    </g>
    <g id="xtick_14">
     <g id="line2d_48">
      <path clip-path="url(#p1d34497220)" d="M 797.379532 285 
L 797.379532 13.2 
" style="fill:none;stroke:#b0b0b0;stroke-linecap:square;stroke-width:0.8;"/>
     </g>
     <g id="line2d_49">
      <g>
       <use x="797.379532" xlink:href="#m6492b62e4d" y="285"/>
      </g>
     </g>
     <g id="text_25">
      <!-- 5 -->
      <g transform="translate(792.607657 305.897656)scale(0.15 -0.15)">
       <use xlink:href="#DejaVuSans-35"/>
      </g>
     </g>
    </g>
    <g id="xtick_15">
     <g id="line2d_50">
      <path clip-path="url(#p1d34497220)" d="M 849.36711 285 
L 849.36711 13.2 
" style="fill:none;stroke:#b0b0b0;stroke-linecap:square;stroke-width:0.8;"/>
     </g>
     <g id="line2d_51">
      <g>
       <use x="849.36711" xlink:href="#m6492b62e4d" y="285"/>
      </g>
     </g>
     <g id="text_26">
      <!-- 6 -->
      <g transform="translate(844.595235 305.897656)scale(0.15 -0.15)">
       <use xlink:href="#DejaVuSans-36"/>
      </g>
     </g>
    </g>
    <g id="xtick_16">
     <g id="line2d_52">
      <path clip-path="url(#p1d34497220)" d="M 901.354688 285 
L 901.354688 13.2 
" style="fill:none;stroke:#b0b0b0;stroke-linecap:square;stroke-width:0.8;"/>
     </g>
     <g id="line2d_53">
      <g>
       <use x="901.354688" xlink:href="#m6492b62e4d" y="285"/>
      </g>
     </g>
     <g id="text_27">
      <!-- 7 -->
      <g transform="translate(896.582813 305.897656)scale(0.15 -0.15)">
       <use xlink:href="#DejaVuSans-37"/>
      </g>
     </g>
    </g>
    <g id="text_28">
     <!-- $t/\tau$ -->
     <g transform="translate(705.998166 328.214063)scale(0.2 -0.2)">
      <use transform="translate(0 0.09375)" xlink:href="#DejaVuSans-Oblique-74"/>
      <use transform="translate(39.208984 0.09375)" xlink:href="#DejaVuSans-2f"/>
      <use transform="translate(72.900391 0.09375)" xlink:href="#DejaVuSans-Oblique-3c4"/>
     </g>
    </g>
   </g>
   <g id="matplotlib.axis_4">
    <g id="ytick_7">
     <g id="line2d_54">
      <path clip-path="url(#p1d34497220)" d="M 537.441644 271.364603 
L 901.354688 271.364603 
" style="fill:none;stroke:#b0b0b0;stroke-linecap:square;stroke-width:0.8;"/>
     </g>
     <g id="line2d_55">
      <g>
       <use x="537.441644" xlink:href="#m4e97b28a26" y="271.364603"/>
      </g>
     </g>
     <g id="text_29">
      <!-- 0.00 -->
      <g transform="translate(494.543207 277.063431)scale(0.15 -0.15)">
       <use xlink:href="#DejaVuSans-30"/>
       <use x="63.623047" xlink:href="#DejaVuSans-2e"/>
       <use x="95.410156" xlink:href="#DejaVuSans-30"/>
       <use x="159.033203" xlink:href="#DejaVuSans-30"/>
      </g>
     </g>
    </g>
    <g id="ytick_8">
     <g id="line2d_56">
      <path clip-path="url(#p1d34497220)" d="M 537.441644 232.338127 
L 901.354688 232.338127 
" style="fill:none;stroke:#b0b0b0;stroke-linecap:square;stroke-width:0.8;"/>
     </g>
     <g id="line2d_57">
      <g>
       <use x="537.441644" xlink:href="#m4e97b28a26" y="232.338127"/>
      </g>
     </g>
     <g id="text_30">
      <!-- 0.02 -->
      <g transform="translate(494.543207 238.036955)scale(0.15 -0.15)">
       <use xlink:href="#DejaVuSans-30"/>
       <use x="63.623047" xlink:href="#DejaVuSans-2e"/>
       <use x="95.410156" xlink:href="#DejaVuSans-30"/>
       <use x="159.033203" xlink:href="#DejaVuSans-32"/>
      </g>
     </g>
    </g>
    <g id="ytick_9">
     <g id="line2d_58">
      <path clip-path="url(#p1d34497220)" d="M 537.441644 193.311651 
L 901.354688 193.311651 
" style="fill:none;stroke:#b0b0b0;stroke-linecap:square;stroke-width:0.8;"/>
     </g>
     <g id="line2d_59">
      <g>
       <use x="537.441644" xlink:href="#m4e97b28a26" y="193.311651"/>
      </g>
     </g>
     <g id="text_31">
      <!-- 0.04 -->
      <g transform="translate(494.543207 199.010479)scale(0.15 -0.15)">
       <use xlink:href="#DejaVuSans-30"/>
       <use x="63.623047" xlink:href="#DejaVuSans-2e"/>
       <use x="95.410156" xlink:href="#DejaVuSans-30"/>
       <use x="159.033203" xlink:href="#DejaVuSans-34"/>
      </g>
     </g>
    </g>
    <g id="ytick_10">
     <g id="line2d_60">
      <path clip-path="url(#p1d34497220)" d="M 537.441644 154.285174 
L 901.354688 154.285174 
" style="fill:none;stroke:#b0b0b0;stroke-linecap:square;stroke-width:0.8;"/>
     </g>
     <g id="line2d_61">
      <g>
       <use x="537.441644" xlink:href="#m4e97b28a26" y="154.285174"/>
      </g>
     </g>
     <g id="text_32">
      <!-- 0.06 -->
      <g transform="translate(494.543207 159.984003)scale(0.15 -0.15)">
       <use xlink:href="#DejaVuSans-30"/>
       <use x="63.623047" xlink:href="#DejaVuSans-2e"/>
       <use x="95.410156" xlink:href="#DejaVuSans-30"/>
       <use x="159.033203" xlink:href="#DejaVuSans-36"/>
      </g>
     </g>
    </g>
    <g id="ytick_11">
     <g id="line2d_62">
      <path clip-path="url(#p1d34497220)" d="M 537.441644 115.258698 
L 901.354688 115.258698 
" style="fill:none;stroke:#b0b0b0;stroke-linecap:square;stroke-width:0.8;"/>
     </g>
     <g id="line2d_63">
      <g>
       <use x="537.441644" xlink:href="#m4e97b28a26" y="115.258698"/>
      </g>
     </g>
     <g id="text_33">
      <!-- 0.08 -->
      <g transform="translate(494.543207 120.957526)scale(0.15 -0.15)">
       <use xlink:href="#DejaVuSans-30"/>
       <use x="63.623047" xlink:href="#DejaVuSans-2e"/>
       <use x="95.410156" xlink:href="#DejaVuSans-30"/>
       <use x="159.033203" xlink:href="#DejaVuSans-38"/>
      </g>
     </g>
    </g>
    <g id="ytick_12">
     <g id="line2d_64">
      <path clip-path="url(#p1d34497220)" d="M 537.441644 76.232222 
L 901.354688 76.232222 
" style="fill:none;stroke:#b0b0b0;stroke-linecap:square;stroke-width:0.8;"/>
     </g>
     <g id="line2d_65">
      <g>
       <use x="537.441644" xlink:href="#m4e97b28a26" y="76.232222"/>
      </g>
     </g>
     <g id="text_34">
      <!-- 0.10 -->
      <g transform="translate(494.543207 81.93105)scale(0.15 -0.15)">
       <use xlink:href="#DejaVuSans-30"/>
       <use x="63.623047" xlink:href="#DejaVuSans-2e"/>
       <use x="95.410156" xlink:href="#DejaVuSans-31"/>
       <use x="159.033203" xlink:href="#DejaVuSans-30"/>
      </g>
     </g>
    </g>
    <g id="ytick_13">
     <g id="line2d_66">
      <path clip-path="url(#p1d34497220)" d="M 537.441644 37.205746 
L 901.354688 37.205746 
" style="fill:none;stroke:#b0b0b0;stroke-linecap:square;stroke-width:0.8;"/>
     </g>
     <g id="line2d_67">
      <g>
       <use x="537.441644" xlink:href="#m4e97b28a26" y="37.205746"/>
      </g>
     </g>
     <g id="text_35">
      <!-- 0.12 -->
      <g transform="translate(494.543207 42.904574)scale(0.15 -0.15)">
       <use xlink:href="#DejaVuSans-30"/>
       <use x="63.623047" xlink:href="#DejaVuSans-2e"/>
       <use x="95.410156" xlink:href="#DejaVuSans-31"/>
       <use x="159.033203" xlink:href="#DejaVuSans-32"/>
      </g>
     </g>
    </g>
    <g id="text_36">
     <!-- $C_V^2(s)$ -->
     <defs>
      <path d="M 69.484375 67.28125 
L 67.484375 56.890625 
Q 62.796875 61.625 57.546875 63.921875 
Q 52.296875 66.21875 46.1875 66.21875 
Q 37.84375 66.21875 31.515625 62.203125 
Q 25.203125 58.203125 20.609375 50 
Q 17.671875 44.734375 16.125 38.84375 
Q 14.59375 32.953125 14.59375 27 
Q 14.59375 17.046875 19.75 11.8125 
Q 24.90625 6.59375 34.71875 6.59375 
Q 41.5 6.59375 47.75 8.765625 
Q 54 10.9375 59.90625 15.28125 
L 57.625 3.609375 
Q 51.8125 1.125 45.875 -0.140625 
Q 39.9375 -1.421875 33.984375 -1.421875 
Q 19.96875 -1.421875 12.078125 6.1875 
Q 4.203125 13.8125 4.203125 27.390625 
Q 4.203125 36.078125 7.203125 44.46875 
Q 10.203125 52.875 15.828125 59.8125 
Q 21.78125 67.1875 29.421875 70.703125 
Q 37.0625 74.21875 47.21875 74.21875 
Q 53.46875 74.21875 59.0625 72.484375 
Q 64.65625 70.75 69.484375 67.28125 
z
" id="DejaVuSans-Oblique-43"/>
      <path d="M 20.609375 0 
L 7.8125 72.90625 
L 17.484375 72.90625 
L 28.078125 10.203125 
L 63.484375 72.90625 
L 74.21875 72.90625 
L 32.078125 0 
z
" id="DejaVuSans-Oblique-56"/>
     </defs>
     <g transform="translate(484.943207 174.6)rotate(-90)scale(0.2 -0.2)">
      <use transform="translate(0 0.765625)" xlink:href="#DejaVuSans-Oblique-43"/>
      <use transform="translate(77.02474 39.046875)scale(0.7)" xlink:href="#DejaVuSans-32"/>
      <use transform="translate(69.824219 -26.578125)scale(0.7)" xlink:href="#DejaVuSans-Oblique-56"/>
      <use transform="translate(124.295247 0.765625)" xlink:href="#DejaVuSans-28"/>
      <use transform="translate(163.308919 0.765625)" xlink:href="#DejaVuSans-Oblique-73"/>
      <use transform="translate(215.408529 0.765625)" xlink:href="#DejaVuSans-29"/>
     </g>
    </g>
   </g>
   <g id="line2d_68">
    <path clip-path="url(#p1d34497220)" d="M 537.441644 271.364603 
L 542.640402 271.364603 
L 547.83916 271.126054 
L 553.037917 270.879699 
L 558.236675 269.882578 
L 563.435433 267.695445 
L 568.634191 252.983353 
L 573.832948 225.027088 
L 579.031706 172.640116 
L 584.230464 102.358732 
L 589.429222 44.12183 
L 594.627979 30.059039 
L 599.826737 69.094987 
L 605.025495 138.806551 
L 610.224253 204.630217 
L 615.42301 232.762551 
L 620.621768 233.805793 
L 625.820526 199.50651 
L 631.019284 155.815735 
L 636.218042 98.632229 
L 641.416799 44.889428 
L 646.615557 28.070095 
L 651.814315 57.519396 
L 657.013073 119.064284 
L 662.21183 176.561437 
L 667.410588 212.315838 
L 672.609346 215.681749 
L 677.808104 188.667035 
L 683.006861 144.3219 
L 688.205619 90.890476 
L 693.404377 44.765734 
L 698.603135 27.659302 
L 703.801892 55.20009 
L 709.00065 115.684507 
L 714.199408 173.495289 
L 719.398166 210.938029 
L 724.596924 214.428864 
L 729.795681 190.525938 
L 734.994439 147.649429 
L 740.193197 91.10807 
L 745.391955 39.9548 
L 750.590712 27.015607 
L 755.78947 52.582282 
L 760.988228 111.287091 
L 766.186986 171.686942 
L 771.385743 214.869626 
L 776.584501 222.034153 
L 781.783259 197.424284 
L 786.982017 148.430003 
L 792.180774 95.532189 
L 797.379532 47.425149 
L 802.57829 27.19005 
L 807.777048 51.299726 
L 812.975806 111.341611 
L 818.174563 177.64537 
L 823.373321 217.220678 
L 828.572079 219.704046 
L 833.770837 194.038134 
L 838.969594 150.438605 
L 844.168352 93.193286 
L 849.36711 45.959357 
L 854.565868 26.828668 
L 859.764625 48.80262 
L 864.963383 102.790565 
L 870.162141 170.923192 
L 875.360899 216.877218 
L 880.559656 214.878772 
L 885.758414 191.00285 
L 890.957172 148.982222 
L 896.15593 93.115571 
L 901.354687 43.828303 
" style="fill:none;stroke:#1f77b4;stroke-linecap:square;stroke-width:3;"/>
   </g>
   <g id="line2d_69">
    <path clip-path="url(#p1d34497220)" d="M 537.441644 271.364603 
L 542.640402 271.364603 
L 547.83916 271.364603 
L 553.037917 271.364603 
L 558.236675 271.364603 
L 563.435433 266.578868 
L 568.634191 242.871371 
L 573.832948 178.979522 
L 579.031706 120.466372 
L 584.230464 46.944363 
L 589.429222 30.018927 
L 594.627979 65.680246 
L 599.826737 141.094215 
L 605.025495 207.823313 
L 610.224253 231.22666 
L 615.42301 229.604798 
L 620.621768 205.60169 
L 625.820526 149.903368 
L 631.019284 94.349712 
L 636.218042 44.345943 
L 641.416799 29.973903 
L 646.615557 65.482712 
L 651.814315 117.01264 
L 657.013073 182.07776 
L 662.21183 210.847729 
L 667.410588 206.981904 
L 672.609346 188.620714 
L 677.808104 133.023807 
L 683.006861 78.713575 
L 688.205619 37.539547 
L 693.404377 29.151409 
L 698.603135 68.899405 
L 703.801892 118.517164 
L 709.00065 174.086711 
L 714.199408 210.662381 
L 719.398166 220.584023 
L 724.596924 186.19439 
L 729.795681 146.966119 
L 734.994439 86.480034 
L 740.193197 41.196901 
L 745.391955 27.856559 
L 750.590712 55.672307 
L 755.78947 114.454159 
L 760.988228 173.650257 
L 766.186986 214.134339 
L 771.385743 215.033942 
L 776.584501 195.403934 
L 781.783259 142.666298 
L 786.982017 84.290173 
L 792.180774 39.556192 
L 797.379532 28.296176 
L 802.57829 57.069306 
L 807.777048 114.422044 
L 812.975806 172.368949 
L 818.174563 211.863845 
L 823.373321 215.358757 
L 828.572079 191.675165 
L 833.770837 144.168565 
L 838.969594 87.463212 
L 844.168352 39.406686 
L 849.36711 28.637181 
L 854.565868 60.087224 
L 859.764625 114.953882 
L 864.963383 168.455987 
L 870.162141 209.285552 
L 875.360899 214.907473 
L 880.559656 190.429984 
L 885.758414 143.433257 
L 890.957172 85.895397 
L 896.15593 39.639907 
L 901.354687 28.629604 
" style="fill:none;stroke:#ff7f0e;stroke-linecap:square;stroke-width:3;"/>
   </g>
   <g id="line2d_70">
    <path clip-path="url(#p1d34497220)" d="M 537.441644 271.364603 
L 542.640402 271.364603 
L 547.83916 271.364603 
L 553.037917 271.364603 
L 558.236675 271.364603 
L 563.435433 271.364603 
L 568.634191 271.364603 
L 573.832948 271.364603 
L 579.031706 271.364603 
L 584.230464 271.364603 
L 589.429222 271.364603 
L 594.627979 271.364603 
L 599.826737 271.364603 
L 605.025495 271.364603 
L 610.224253 270.124293 
L 615.42301 260.245716 
L 620.621768 242.104502 
L 625.820526 214.021295 
L 631.019284 184.618502 
L 636.218042 166.24435 
L 641.416799 171.443409 
L 646.615557 184.137683 
L 651.814315 202.672516 
L 657.013073 223.407771 
L 662.21183 234.268413 
L 667.410588 230.105995 
L 672.609346 211.339442 
L 677.808104 173.189235 
L 683.006861 133.506928 
L 688.205619 103.404101 
L 693.404377 105.130718 
L 698.603135 134.437923 
L 703.801892 165.13964 
L 709.00065 203.211645 
L 714.199408 226.197707 
L 719.398166 230.762052 
L 724.596924 200.129087 
L 729.795681 165.574575 
L 734.994439 115.985088 
L 740.193197 75.446281 
L 745.391955 71.114399 
L 750.590712 93.807549 
L 755.78947 140.715145 
L 760.988228 190.355604 
L 766.186986 222.542291 
L 771.385743 220.155139 
L 776.584501 201.124377 
L 781.783259 152.952635 
L 786.982017 98.824643 
L 792.180774 60.420745 
L 797.379532 48.820563 
L 802.57829 76.522155 
L 807.777048 126.785389 
L 812.975806 179.379236 
L 818.174563 215.819209 
L 823.373321 218.160926 
L 828.572079 194.90357 
L 833.770837 149.272823 
L 838.969594 95.001002 
L 844.168352 49.332645 
L 849.36711 39.84316 
L 854.565868 69.84184 
L 859.764625 121.39256 
L 864.963383 172.166799 
L 870.162141 210.860163 
L 875.360899 215.945763 
L 880.559656 192.094745 
L 885.758414 146.469224 
L 890.957172 89.516584 
L 896.15593 44.544215 
L 901.354687 34.367205 
" style="fill:none;stroke:#2ca02c;stroke-linecap:square;stroke-width:3;"/>
   </g>
   <g id="patch_9">
    <path d="M 537.441644 285 
L 537.441644 13.2 
" style="fill:none;stroke:#000000;stroke-linecap:square;stroke-linejoin:miter;stroke-width:2;"/>
   </g>
   <g id="patch_10">
    <path d="M 901.354688 285 
L 901.354688 13.2 
" style="fill:none;"/>
   </g>
   <g id="patch_11">
    <path d="M 537.441644 285 
L 901.354688 285 
" style="fill:none;stroke:#000000;stroke-linecap:square;stroke-linejoin:miter;stroke-width:2;"/>
   </g>
   <g id="patch_12">
    <path d="M 537.441644 13.2 
L 901.354688 13.2 
" style="fill:none;"/>
   </g>
  </g>
 </g>
 <defs>
  <clipPath id="p309610ae3f">
   <rect height="271.8" width="363.913043" x="64.354687" y="13.2"/>
  </clipPath>
  <clipPath id="p1d34497220">
   <rect height="271.8" width="363.913043" x="537.441644" y="13.2"/>
  </clipPath>
 </defs>
</svg>
