<?xml version="1.0" encoding="utf-8" standalone="no"?>
<!DOCTYPE svg PUBLIC "-//W3C//DTD SVG 1.1//EN"
  "http://www.w3.org/Graphics/SVG/1.1/DTD/svg11.dtd">
<!-- Created with matplotlib (http://matplotlib.org/) -->
<svg height="339.573438pt" version="1.1" viewBox="0 0 914.554688 339.573438" width="914.554688pt" xmlns="http://www.w3.org/2000/svg" xmlns:xlink="http://www.w3.org/1999/xlink">
 <defs>
  <style type="text/css">
*{stroke-linecap:butt;stroke-linejoin:round;}
  </style>
 </defs>
 <g id="figure_1">
  <g id="patch_1">
   <path d="M 0 339.573438 
L 914.554688 339.573438 
L 914.554688 0 
L 0 0 
z
" style="fill:#ffffff;"/>
  </g>
  <g id="axes_1">
   <g id="patch_2">
    <path d="M 64.354687 285 
L 428.267731 285 
L 428.267731 13.2 
L 64.354687 13.2 
z
" style="fill:#ffffff;"/>
   </g>
   <g id="PolyCollection_1">
    <defs>
     <path d="M 64.354687 -108.933437 
L 64.354687 -108.933437 
L 69.553445 -128.441464 
L 74.752203 -149.284266 
L 79.950961 -171.605537 
L 85.149719 -195.14648 
L 90.348476 -219.319068 
L 95.547234 -240.286946 
L 100.745992 -254.393606 
L 105.94475 -257.997936 
L 111.143507 -248.386216 
L 116.342265 -230.592726 
L 121.541023 -210.160236 
L 126.739781 -199.36333 
L 131.938538 -197.071953 
L 137.137296 -204.929134 
L 142.336054 -220.098117 
L 147.534812 -234.93708 
L 152.733569 -245.986824 
L 157.932327 -249.780117 
L 163.131085 -244.173398 
L 168.329843 -231.665611 
L 173.528601 -215.68232 
L 178.727358 -205.779035 
L 183.926116 -202.98132 
L 189.124874 -209.595488 
L 194.323632 -221.267154 
L 199.522389 -235.153571 
L 204.721147 -245.228516 
L 209.919905 -249.113097 
L 215.118663 -244.522899 
L 220.31742 -233.048167 
L 225.516178 -218.494243 
L 230.714936 -205.052118 
L 235.913694 -201.766826 
L 241.112451 -209.546653 
L 246.311209 -220.436758 
L 251.509967 -234.674826 
L 256.708725 -245.049434 
L 261.907483 -247.798737 
L 267.10624 -241.051158 
L 272.304998 -229.741743 
L 277.503756 -218.079056 
L 282.702514 -208.786406 
L 287.901271 -206.148295 
L 293.100029 -211.466794 
L 298.298787 -221.831301 
L 303.497545 -235.34095 
L 308.696302 -245.180866 
L 313.89506 -247.641506 
L 319.093818 -243.230942 
L 324.292576 -231.774353 
L 329.491333 -218.444405 
L 334.690091 -206.049232 
L 339.888849 -204.00742 
L 345.087607 -209.116342 
L 350.286365 -220.1297 
L 355.485122 -235.278708 
L 360.68388 -245.055101 
L 365.882638 -249.100557 
L 371.081396 -243.650182 
L 376.280153 -233.09238 
L 381.478911 -221.5606 
L 386.677669 -210.339942 
L 391.876427 -206.873679 
L 397.075184 -209.858672 
L 402.273942 -220.485223 
L 407.4727 -234.601289 
L 412.671458 -245.530787 
L 417.870215 -249.471452 
L 423.068973 -243.945328 
L 428.267731 -233.025404 
L 428.267731 -238.666386 
L 428.267731 -238.666386 
L 423.068973 -249.442073 
L 417.870215 -253.732505 
L 412.671458 -249.13854 
L 407.4727 -237.519422 
L 402.273942 -223.304033 
L 397.075184 -213.474981 
L 391.876427 -211.587709 
L 386.677669 -215.674936 
L 381.478911 -227.435312 
L 376.280153 -238.870395 
L 371.081396 -249.060281 
L 365.882638 -253.440482 
L 360.68388 -248.587424 
L 355.485122 -237.990855 
L 350.286365 -222.852415 
L 345.087607 -212.314236 
L 339.888849 -208.386825 
L 334.690091 -211.332191 
L 329.491333 -223.954982 
L 324.292576 -237.436853 
L 319.093818 -248.643154 
L 313.89506 -252.018895 
L 308.696302 -248.749984 
L 303.497545 -238.054814 
L 298.298787 -224.650111 
L 293.100029 -215.115979 
L 287.901271 -210.612751 
L 282.702514 -214.068063 
L 277.503756 -223.615123 
L 272.304998 -235.472193 
L 267.10624 -246.440124 
L 261.907483 -252.138662 
L 256.708725 -248.655347 
L 251.509967 -237.661621 
L 246.311209 -223.064979 
L 241.112451 -213.076291 
L 235.913694 -205.978919 
L 230.714936 -210.465166 
L 225.516178 -223.742643 
L 220.31742 -238.757099 
L 215.118663 -249.808311 
L 209.919905 -253.571331 
L 204.721147 -248.613659 
L 199.522389 -237.936097 
L 194.323632 -224.021901 
L 189.124874 -213.093745 
L 183.926116 -207.275675 
L 178.727358 -210.463579 
L 173.528601 -221.315489 
L 168.329843 -237.715426 
L 163.131085 -249.456697 
L 157.932327 -254.039199 
L 152.733569 -249.267102 
L 147.534812 -237.443242 
L 142.336054 -222.406018 
L 137.137296 -207.829653 
L 131.938538 -201.062357 
L 126.739781 -204.283337 
L 121.541023 -215.720578 
L 116.342265 -236.144241 
L 111.143507 -253.923114 
L 105.94475 -262.06181 
L 100.745992 -257.226824 
L 95.547234 -242.003495 
L 90.348476 -220.119866 
L 85.149719 -195.505122 
L 79.950961 -171.744964 
L 74.752203 -149.36232 
L 69.553445 -128.441464 
L 64.354687 -108.933437 
z
" id="me26773ed05"/>
    </defs>
    <g clip-path="url(#pc1bfc35651)">
     <use style="fill:#4db8ff;" x="0" xlink:href="#me26773ed05" y="339.573438"/>
    </g>
   </g>
   <g id="PolyCollection_2">
    <defs>
     <path d="M 64.354687 -108.933437 
L 64.354687 -108.933437 
L 69.553445 -128.441464 
L 74.752203 -149.349649 
L 79.950961 -171.758488 
L 85.149719 -195.775687 
L 90.348476 -215.984672 
L 95.547234 -228.326293 
L 100.745992 -230.328491 
L 105.94475 -217.53295 
L 111.143507 -197.295429 
L 116.342265 -180.390007 
L 121.541023 -172.728526 
L 126.739781 -169.137823 
L 131.938538 -176.785002 
L 137.137296 -194.4963 
L 142.336054 -207.524294 
L 147.534812 -219.390693 
L 152.733569 -219.259764 
L 157.932327 -210.546206 
L 163.131085 -195.968608 
L 168.329843 -181.404765 
L 173.528601 -175.884118 
L 178.727358 -177.116225 
L 183.926116 -185.015687 
L 189.124874 -193.852638 
L 194.323632 -205.096827 
L 199.522389 -215.537437 
L 204.721147 -215.134572 
L 209.919905 -208.558754 
L 215.118663 -197.109243 
L 220.31742 -185.069052 
L 225.516178 -175.949263 
L 230.714936 -175.80454 
L 235.913694 -184.496059 
L 241.112451 -195.652716 
L 246.311209 -208.272729 
L 251.509967 -216.84004 
L 256.708725 -219.435077 
L 261.907483 -211.931221 
L 267.10624 -198.072538 
L 272.304998 -186.26409 
L 277.503756 -180.740366 
L 282.702514 -179.864982 
L 287.901271 -185.498094 
L 293.100029 -196.379404 
L 298.298787 -208.908583 
L 303.497545 -218.069451 
L 308.696302 -217.78928 
L 313.89506 -209.979079 
L 319.093818 -199.756993 
L 324.292576 -188.688536 
L 329.491333 -180.289823 
L 334.690091 -179.611253 
L 339.888849 -186.20348 
L 345.087607 -196.805245 
L 350.286365 -208.623298 
L 355.485122 -217.823787 
L 360.68388 -219.452768 
L 365.882638 -213.233772 
L 371.081396 -200.64204 
L 376.280153 -188.923665 
L 381.478911 -181.606493 
L 386.677669 -180.519854 
L 391.876427 -187.251822 
L 397.075184 -197.995082 
L 402.273942 -209.896879 
L 407.4727 -218.649299 
L 412.671458 -220.293752 
L 417.870215 -213.816353 
L 423.068973 -201.662583 
L 428.267731 -189.443556 
L 428.267731 -191.120063 
L 428.267731 -191.120063 
L 423.068973 -203.433404 
L 417.870215 -215.548041 
L 412.671458 -221.849507 
L 407.4727 -219.893484 
L 402.273942 -210.903451 
L 397.075184 -199.063753 
L 391.876427 -188.58622 
L 386.677669 -182.201229 
L 381.478911 -183.812677 
L 376.280153 -191.213554 
L 371.081396 -203.169379 
L 365.882638 -215.621296 
L 360.68388 -221.730777 
L 355.485122 -219.612959 
L 350.286365 -210.106392 
L 345.087607 -198.335726 
L 339.888849 -188.145964 
L 334.690091 -182.002279 
L 329.491333 -183.280636 
L 324.292576 -191.927842 
L 319.093818 -203.324792 
L 313.89506 -213.54909 
L 308.696302 -220.936599 
L 303.497545 -220.457462 
L 298.298787 -210.869325 
L 293.100029 -198.425759 
L 287.901271 -188.104214 
L 282.702514 -183.113946 
L 277.503756 -184.845833 
L 272.304998 -191.190259 
L 267.10624 -203.09112 
L 261.907483 -217.042693 
L 256.708725 -223.561005 
L 251.509967 -220.336714 
L 246.311209 -210.990884 
L 241.112451 -198.468316 
L 235.913694 -187.988858 
L 230.714936 -180.278976 
L 225.516178 -181.714215 
L 220.31742 -191.512776 
L 215.118663 -203.772727 
L 209.919905 -215.667378 
L 204.721147 -221.406002 
L 199.522389 -220.536324 
L 194.323632 -209.336915 
L 189.124874 -197.963794 
L 183.926116 -190.273872 
L 178.727358 -183.62371 
L 173.528601 -183.955778 
L 168.329843 -190.997706 
L 163.131085 -205.669921 
L 157.932327 -220.799551 
L 152.733569 -228.116337 
L 147.534812 -226.139061 
L 142.336054 -212.496106 
L 137.137296 -199.444124 
L 131.938538 -182.638085 
L 126.739781 -177.405667 
L 121.541023 -183.812441 
L 116.342265 -193.513398 
L 111.143507 -211.367232 
L 105.94475 -231.429681 
L 100.745992 -241.649613 
L 95.547234 -235.894464 
L 90.348476 -219.473299 
L 85.149719 -195.775687 
L 79.950961 -171.758488 
L 74.752203 -149.349649 
L 69.553445 -128.441464 
L 64.354687 -108.933437 
z
" id="m124781e649"/>
    </defs>
    <g clip-path="url(#pc1bfc35651)">
     <use style="fill:#ffa035;" x="0" xlink:href="#m124781e649" y="339.573438"/>
    </g>
   </g>
   <g id="PolyCollection_3">
    <defs>
     <path d="M 64.354687 -108.933437 
L 64.354687 -108.933437 
L 69.553445 -128.441464 
L 74.752203 -149.349649 
L 79.950961 -171.758488 
L 85.149719 -195.775687 
L 90.348476 -218.118735 
L 95.547234 -237.49309 
L 100.745992 -250.709982 
L 105.94475 -251.279432 
L 111.143507 -239.522615 
L 116.342265 -221.648898 
L 121.541023 -204.500048 
L 126.739781 -187.026514 
L 131.938538 -185.153622 
L 137.137296 -198.814882 
L 142.336054 -212.585005 
L 147.534812 -228.0523 
L 152.733569 -234.507902 
L 157.932327 -231.537143 
L 163.131085 -219.18783 
L 168.329843 -202.384468 
L 173.528601 -191.227083 
L 178.727358 -186.59177 
L 183.926116 -190.672946 
L 189.124874 -197.306771 
L 194.323632 -209.042574 
L 199.522389 -221.332147 
L 204.721147 -224.289158 
L 209.919905 -220.091845 
L 215.118663 -209.399211 
L 220.31742 -196.126368 
L 225.516178 -183.390218 
L 230.714936 -180.409698 
L 235.913694 -187.162554 
L 241.112451 -197.317631 
L 246.311209 -209.95041 
L 251.509967 -219.840639 
L 256.708725 -224.113842 
L 261.907483 -218.015743 
L 267.10624 -204.466563 
L 272.304998 -191.788434 
L 277.503756 -184.720621 
L 282.702514 -182.04184 
L 287.901271 -186.743366 
L 293.100029 -197.186479 
L 298.298787 -209.685153 
L 303.497545 -219.226336 
L 308.696302 -220.191046 
L 313.89506 -212.926148 
L 319.093818 -202.754051 
L 324.292576 -191.375304 
L 329.491333 -182.130435 
L 334.690091 -180.711194 
L 339.888849 -186.890094 
L 345.087607 -197.119576 
L 350.286365 -208.927954 
L 355.485122 -218.464985 
L 360.68388 -220.5986 
L 365.882638 -214.525409 
L 371.081396 -201.976349 
L 376.280153 -190.058609 
L 381.478911 -182.477196 
L 386.677669 -181.04114 
L 391.876427 -187.531836 
L 397.075184 -198.153099 
L 402.273942 -209.995835 
L 407.4727 -218.894316 
L 412.671458 -220.680389 
L 417.870215 -214.359637 
L 423.068973 -202.241185 
L 428.267731 -189.929243 
L 428.267731 -192.331183 
L 428.267731 -192.331183 
L 423.068973 -204.660115 
L 417.870215 -216.903504 
L 412.671458 -223.003565 
L 407.4727 -220.720261 
L 402.273942 -211.443593 
L 397.075184 -199.448733 
L 391.876427 -189.157066 
L 386.677669 -183.075392 
L 381.478911 -185.170766 
L 376.280153 -193.170102 
L 371.081396 -205.630007 
L 365.882638 -217.954305 
L 360.68388 -223.816723 
L 355.485122 -220.997505 
L 350.286365 -211.039698 
L 345.087607 -199.16112 
L 339.888849 -188.882452 
L 334.690091 -183.742328 
L 329.491333 -186.008756 
L 324.292576 -195.899372 
L 319.093818 -207.972813 
L 313.89506 -218.021112 
L 308.696302 -224.69276 
L 303.497545 -222.912363 
L 298.298787 -212.28423 
L 293.100029 -199.829312 
L 287.901271 -189.969773 
L 282.702514 -186.425876 
L 277.503756 -190.163505 
L 272.304998 -198.390561 
L 267.10624 -210.988016 
L 261.907483 -225.076268 
L 256.708725 -230.08856 
L 251.509967 -224.537934 
L 246.311209 -213.862891 
L 241.112451 -200.863721 
L 235.913694 -192.090041 
L 230.714936 -186.690034 
L 225.516178 -191.357261 
L 220.31742 -205.520078 
L 215.118663 -219.28673 
L 209.919905 -229.128309 
L 204.721147 -232.528617 
L 199.522389 -227.396306 
L 194.323632 -214.297032 
L 189.124874 -202.527008 
L 183.926116 -197.739112 
L 178.727358 -196.206295 
L 173.528601 -203.597964 
L 168.329843 -215.680019 
L 163.131085 -232.713076 
L 157.932327 -243.243044 
L 152.733569 -243.958094 
L 147.534812 -235.490679 
L 142.336054 -218.457526 
L 137.137296 -207.282824 
L 131.938538 -195.564179 
L 126.739781 -202.645998 
L 121.541023 -222.027081 
L 116.342265 -238.862897 
L 111.143507 -256.006509 
L 105.94475 -264.293292 
L 100.745992 -259.90874 
L 95.547234 -242.986047 
L 90.348476 -221.00161 
L 85.149719 -195.775687 
L 79.950961 -171.758488 
L 74.752203 -149.349649 
L 69.553445 -128.441464 
L 64.354687 -108.933437 
z
" id="me49f4abe6b"/>
    </defs>
    <g clip-path="url(#pc1bfc35651)">
     <use style="fill:#47d200;" x="0" xlink:href="#me49f4abe6b" y="339.573438"/>
    </g>
   </g>
   <g id="matplotlib.axis_1">
    <g id="xtick_1">
     <g id="line2d_1">
      <path clip-path="url(#pc1bfc35651)" d="M 64.354687 285 
L 64.354687 13.2 
" style="fill:none;stroke:#b0b0b0;stroke-linecap:square;stroke-width:0.8;"/>
     </g>
     <g id="line2d_2">
      <defs>
       <path d="M 0 0 
L 0 6 
" id="m5af5f7d367"/>
      </defs>
      <g>
       <use x="64.354687" xlink:href="#m5af5f7d367" y="285"/>
      </g>
     </g>
     <g id="text_1">
      <!-- 0 -->
      <defs>
       <path d="M 31.78125 66.40625 
Q 24.171875 66.40625 20.328125 58.90625 
Q 16.5 51.421875 16.5 36.375 
Q 16.5 21.390625 20.328125 13.890625 
Q 24.171875 6.390625 31.78125 6.390625 
Q 39.453125 6.390625 43.28125 13.890625 
Q 47.125 21.390625 47.125 36.375 
Q 47.125 51.421875 43.28125 58.90625 
Q 39.453125 66.40625 31.78125 66.40625 
z
M 31.78125 74.21875 
Q 44.046875 74.21875 50.515625 64.515625 
Q 56.984375 54.828125 56.984375 36.375 
Q 56.984375 17.96875 50.515625 8.265625 
Q 44.046875 -1.421875 31.78125 -1.421875 
Q 19.53125 -1.421875 13.0625 8.265625 
Q 6.59375 17.96875 6.59375 36.375 
Q 6.59375 54.828125 13.0625 64.515625 
Q 19.53125 74.21875 31.78125 74.21875 
z
" id="DejaVuSans-30"/>
      </defs>
      <g transform="translate(59.582812 305.897656)scale(0.15 -0.15)">
       <use xlink:href="#DejaVuSans-30"/>
      </g>
     </g>
    </g>
    <g id="xtick_2">
     <g id="line2d_3">
      <path clip-path="url(#pc1bfc35651)" d="M 116.342265 285 
L 116.342265 13.2 
" style="fill:none;stroke:#b0b0b0;stroke-linecap:square;stroke-width:0.8;"/>
     </g>
     <g id="line2d_4">
      <g>
       <use x="116.342265" xlink:href="#m5af5f7d367" y="285"/>
      </g>
     </g>
     <g id="text_2">
      <!-- 1 -->
      <defs>
       <path d="M 12.40625 8.296875 
L 28.515625 8.296875 
L 28.515625 63.921875 
L 10.984375 60.40625 
L 10.984375 69.390625 
L 28.421875 72.90625 
L 38.28125 72.90625 
L 38.28125 8.296875 
L 54.390625 8.296875 
L 54.390625 0 
L 12.40625 0 
z
" id="DejaVuSans-31"/>
      </defs>
      <g transform="translate(111.57039 305.897656)scale(0.15 -0.15)">
       <use xlink:href="#DejaVuSans-31"/>
      </g>
     </g>
    </g>
    <g id="xtick_3">
     <g id="line2d_5">
      <path clip-path="url(#pc1bfc35651)" d="M 168.329843 285 
L 168.329843 13.2 
" style="fill:none;stroke:#b0b0b0;stroke-linecap:square;stroke-width:0.8;"/>
     </g>
     <g id="line2d_6">
      <g>
       <use x="168.329843" xlink:href="#m5af5f7d367" y="285"/>
      </g>
     </g>
     <g id="text_3">
      <!-- 2 -->
      <defs>
       <path d="M 19.1875 8.296875 
L 53.609375 8.296875 
L 53.609375 0 
L 7.328125 0 
L 7.328125 8.296875 
Q 12.9375 14.109375 22.625 23.890625 
Q 32.328125 33.6875 34.8125 36.53125 
Q 39.546875 41.84375 41.421875 45.53125 
Q 43.3125 49.21875 43.3125 52.78125 
Q 43.3125 58.59375 39.234375 62.25 
Q 35.15625 65.921875 28.609375 65.921875 
Q 23.96875 65.921875 18.8125 64.3125 
Q 13.671875 62.703125 7.8125 59.421875 
L 7.8125 69.390625 
Q 13.765625 71.78125 18.9375 73 
Q 24.125 74.21875 28.421875 74.21875 
Q 39.75 74.21875 46.484375 68.546875 
Q 53.21875 62.890625 53.21875 53.421875 
Q 53.21875 48.921875 51.53125 44.890625 
Q 49.859375 40.875 45.40625 35.40625 
Q 44.1875 33.984375 37.640625 27.21875 
Q 31.109375 20.453125 19.1875 8.296875 
z
" id="DejaVuSans-32"/>
      </defs>
      <g transform="translate(163.557968 305.897656)scale(0.15 -0.15)">
       <use xlink:href="#DejaVuSans-32"/>
      </g>
     </g>
    </g>
    <g id="xtick_4">
     <g id="line2d_7">
      <path clip-path="url(#pc1bfc35651)" d="M 220.31742 285 
L 220.31742 13.2 
" style="fill:none;stroke:#b0b0b0;stroke-linecap:square;stroke-width:0.8;"/>
     </g>
     <g id="line2d_8">
      <g>
       <use x="220.31742" xlink:href="#m5af5f7d367" y="285"/>
      </g>
     </g>
     <g id="text_4">
      <!-- 3 -->
      <defs>
       <path d="M 40.578125 39.3125 
Q 47.65625 37.796875 51.625 33 
Q 55.609375 28.21875 55.609375 21.1875 
Q 55.609375 10.40625 48.1875 4.484375 
Q 40.765625 -1.421875 27.09375 -1.421875 
Q 22.515625 -1.421875 17.65625 -0.515625 
Q 12.796875 0.390625 7.625 2.203125 
L 7.625 11.71875 
Q 11.71875 9.328125 16.59375 8.109375 
Q 21.484375 6.890625 26.8125 6.890625 
Q 36.078125 6.890625 40.9375 10.546875 
Q 45.796875 14.203125 45.796875 21.1875 
Q 45.796875 27.640625 41.28125 31.265625 
Q 36.765625 34.90625 28.71875 34.90625 
L 20.21875 34.90625 
L 20.21875 43.015625 
L 29.109375 43.015625 
Q 36.375 43.015625 40.234375 45.921875 
Q 44.09375 48.828125 44.09375 54.296875 
Q 44.09375 59.90625 40.109375 62.90625 
Q 36.140625 65.921875 28.71875 65.921875 
Q 24.65625 65.921875 20.015625 65.03125 
Q 15.375 64.15625 9.8125 62.3125 
L 9.8125 71.09375 
Q 15.4375 72.65625 20.34375 73.4375 
Q 25.25 74.21875 29.59375 74.21875 
Q 40.828125 74.21875 47.359375 69.109375 
Q 53.90625 64.015625 53.90625 55.328125 
Q 53.90625 49.265625 50.4375 45.09375 
Q 46.96875 40.921875 40.578125 39.3125 
z
" id="DejaVuSans-33"/>
      </defs>
      <g transform="translate(215.545545 305.897656)scale(0.15 -0.15)">
       <use xlink:href="#DejaVuSans-33"/>
      </g>
     </g>
    </g>
    <g id="xtick_5">
     <g id="line2d_9">
      <path clip-path="url(#pc1bfc35651)" d="M 272.304998 285 
L 272.304998 13.2 
" style="fill:none;stroke:#b0b0b0;stroke-linecap:square;stroke-width:0.8;"/>
     </g>
     <g id="line2d_10">
      <g>
       <use x="272.304998" xlink:href="#m5af5f7d367" y="285"/>
      </g>
     </g>
     <g id="text_5">
      <!-- 4 -->
      <defs>
       <path d="M 37.796875 64.3125 
L 12.890625 25.390625 
L 37.796875 25.390625 
z
M 35.203125 72.90625 
L 47.609375 72.90625 
L 47.609375 25.390625 
L 58.015625 25.390625 
L 58.015625 17.1875 
L 47.609375 17.1875 
L 47.609375 0 
L 37.796875 0 
L 37.796875 17.1875 
L 4.890625 17.1875 
L 4.890625 26.703125 
z
" id="DejaVuSans-34"/>
      </defs>
      <g transform="translate(267.533123 305.897656)scale(0.15 -0.15)">
       <use xlink:href="#DejaVuSans-34"/>
      </g>
     </g>
    </g>
    <g id="xtick_6">
     <g id="line2d_11">
      <path clip-path="url(#pc1bfc35651)" d="M 324.292576 285 
L 324.292576 13.2 
" style="fill:none;stroke:#b0b0b0;stroke-linecap:square;stroke-width:0.8;"/>
     </g>
     <g id="line2d_12">
      <g>
       <use x="324.292576" xlink:href="#m5af5f7d367" y="285"/>
      </g>
     </g>
     <g id="text_6">
      <!-- 5 -->
      <defs>
       <path d="M 10.796875 72.90625 
L 49.515625 72.90625 
L 49.515625 64.59375 
L 19.828125 64.59375 
L 19.828125 46.734375 
Q 21.96875 47.46875 24.109375 47.828125 
Q 26.265625 48.1875 28.421875 48.1875 
Q 40.625 48.1875 47.75 41.5 
Q 54.890625 34.8125 54.890625 23.390625 
Q 54.890625 11.625 47.5625 5.09375 
Q 40.234375 -1.421875 26.90625 -1.421875 
Q 22.3125 -1.421875 17.546875 -0.640625 
Q 12.796875 0.140625 7.71875 1.703125 
L 7.71875 11.625 
Q 12.109375 9.234375 16.796875 8.0625 
Q 21.484375 6.890625 26.703125 6.890625 
Q 35.15625 6.890625 40.078125 11.328125 
Q 45.015625 15.765625 45.015625 23.390625 
Q 45.015625 31 40.078125 35.4375 
Q 35.15625 39.890625 26.703125 39.890625 
Q 22.75 39.890625 18.8125 39.015625 
Q 14.890625 38.140625 10.796875 36.28125 
z
" id="DejaVuSans-35"/>
      </defs>
      <g transform="translate(319.520701 305.897656)scale(0.15 -0.15)">
       <use xlink:href="#DejaVuSans-35"/>
      </g>
     </g>
    </g>
    <g id="xtick_7">
     <g id="line2d_13">
      <path clip-path="url(#pc1bfc35651)" d="M 376.280153 285 
L 376.280153 13.2 
" style="fill:none;stroke:#b0b0b0;stroke-linecap:square;stroke-width:0.8;"/>
     </g>
     <g id="line2d_14">
      <g>
       <use x="376.280153" xlink:href="#m5af5f7d367" y="285"/>
      </g>
     </g>
     <g id="text_7">
      <!-- 6 -->
      <defs>
       <path d="M 33.015625 40.375 
Q 26.375 40.375 22.484375 35.828125 
Q 18.609375 31.296875 18.609375 23.390625 
Q 18.609375 15.53125 22.484375 10.953125 
Q 26.375 6.390625 33.015625 6.390625 
Q 39.65625 6.390625 43.53125 10.953125 
Q 47.40625 15.53125 47.40625 23.390625 
Q 47.40625 31.296875 43.53125 35.828125 
Q 39.65625 40.375 33.015625 40.375 
z
M 52.59375 71.296875 
L 52.59375 62.3125 
Q 48.875 64.0625 45.09375 64.984375 
Q 41.3125 65.921875 37.59375 65.921875 
Q 27.828125 65.921875 22.671875 59.328125 
Q 17.53125 52.734375 16.796875 39.40625 
Q 19.671875 43.65625 24.015625 45.921875 
Q 28.375 48.1875 33.59375 48.1875 
Q 44.578125 48.1875 50.953125 41.515625 
Q 57.328125 34.859375 57.328125 23.390625 
Q 57.328125 12.15625 50.6875 5.359375 
Q 44.046875 -1.421875 33.015625 -1.421875 
Q 20.359375 -1.421875 13.671875 8.265625 
Q 6.984375 17.96875 6.984375 36.375 
Q 6.984375 53.65625 15.1875 63.9375 
Q 23.390625 74.21875 37.203125 74.21875 
Q 40.921875 74.21875 44.703125 73.484375 
Q 48.484375 72.75 52.59375 71.296875 
z
" id="DejaVuSans-36"/>
      </defs>
      <g transform="translate(371.508278 305.897656)scale(0.15 -0.15)">
       <use xlink:href="#DejaVuSans-36"/>
      </g>
     </g>
    </g>
    <g id="xtick_8">
     <g id="line2d_15">
      <path clip-path="url(#pc1bfc35651)" d="M 428.267731 285 
L 428.267731 13.2 
" style="fill:none;stroke:#b0b0b0;stroke-linecap:square;stroke-width:0.8;"/>
     </g>
     <g id="line2d_16">
      <g>
       <use x="428.267731" xlink:href="#m5af5f7d367" y="285"/>
      </g>
     </g>
     <g id="text_8">
      <!-- 7 -->
      <defs>
       <path d="M 8.203125 72.90625 
L 55.078125 72.90625 
L 55.078125 68.703125 
L 28.609375 0 
L 18.3125 0 
L 43.21875 64.59375 
L 8.203125 64.59375 
z
" id="DejaVuSans-37"/>
      </defs>
      <g transform="translate(423.495856 305.897656)scale(0.15 -0.15)">
       <use xlink:href="#DejaVuSans-37"/>
      </g>
     </g>
    </g>
    <g id="text_9">
     <!-- $t/\tau$ -->
     <defs>
      <path d="M 42.28125 54.6875 
L 40.921875 47.703125 
L 23 47.703125 
L 17.1875 18.015625 
Q 16.890625 16.359375 16.75 15.234375 
Q 16.609375 14.109375 16.609375 13.484375 
Q 16.609375 10.359375 18.484375 8.9375 
Q 20.359375 7.515625 24.515625 7.515625 
L 33.59375 7.515625 
L 32.078125 0 
L 23.484375 0 
Q 15.484375 0 11.546875 3.125 
Q 7.625 6.25 7.625 12.59375 
Q 7.625 13.71875 7.765625 15.0625 
Q 7.90625 16.40625 8.203125 18.015625 
L 14.015625 47.703125 
L 6.390625 47.703125 
L 7.8125 54.6875 
L 15.28125 54.6875 
L 18.3125 70.21875 
L 27.296875 70.21875 
L 24.3125 54.6875 
z
" id="DejaVuSans-Oblique-74"/>
      <path d="M 25.390625 72.90625 
L 33.6875 72.90625 
L 8.296875 -9.28125 
L 0 -9.28125 
z
" id="DejaVuSans-2f"/>
      <path d="M 32.859375 9.96875 
Q 34.1875 7.625 39.453125 7.625 
L 43.75 7.625 
L 42.28125 0 
L 36.921875 0 
Q 28.125 0 25 4.6875 
Q 21.921875 9.46875 23.96875 19.828125 
L 29 45.703125 
L 8.453125 45.703125 
L 10.203125 54.6875 
L 60.640625 54.6875 
L 58.890625 45.703125 
L 38.1875 45.703125 
L 33.015625 19.28125 
Q 31.640625 12.203125 32.859375 9.96875 
z
" id="DejaVuSans-Oblique-3c4"/>
     </defs>
     <g transform="translate(232.911209 328.214063)scale(0.2 -0.2)">
      <use transform="translate(0 0.09375)" xlink:href="#DejaVuSans-Oblique-74"/>
      <use transform="translate(39.208984 0.09375)" xlink:href="#DejaVuSans-2f"/>
      <use transform="translate(72.900391 0.09375)" xlink:href="#DejaVuSans-Oblique-3c4"/>
     </g>
    </g>
   </g>
   <g id="matplotlib.axis_2">
    <g id="ytick_1">
     <g id="line2d_17">
      <path clip-path="url(#pc1bfc35651)" d="M 64.354687 285 
L 428.267731 285 
" style="fill:none;stroke:#b0b0b0;stroke-linecap:square;stroke-width:0.8;"/>
     </g>
     <g id="line2d_18">
      <defs>
       <path d="M 0 0 
L -6 0 
" id="m6bc9f51e6a"/>
      </defs>
      <g>
       <use x="64.354687" xlink:href="#m6bc9f51e6a" y="285"/>
      </g>
     </g>
     <g id="text_10">
      <!-- 0.8 -->
      <defs>
       <path d="M 10.6875 12.40625 
L 21 12.40625 
L 21 0 
L 10.6875 0 
z
" id="DejaVuSans-2e"/>
       <path d="M 31.78125 34.625 
Q 24.75 34.625 20.71875 30.859375 
Q 16.703125 27.09375 16.703125 20.515625 
Q 16.703125 13.921875 20.71875 10.15625 
Q 24.75 6.390625 31.78125 6.390625 
Q 38.8125 6.390625 42.859375 10.171875 
Q 46.921875 13.96875 46.921875 20.515625 
Q 46.921875 27.09375 42.890625 30.859375 
Q 38.875 34.625 31.78125 34.625 
z
M 21.921875 38.8125 
Q 15.578125 40.375 12.03125 44.71875 
Q 8.5 49.078125 8.5 55.328125 
Q 8.5 64.0625 14.71875 69.140625 
Q 20.953125 74.21875 31.78125 74.21875 
Q 42.671875 74.21875 48.875 69.140625 
Q 55.078125 64.0625 55.078125 55.328125 
Q 55.078125 49.078125 51.53125 44.71875 
Q 48 40.375 41.703125 38.8125 
Q 48.828125 37.15625 52.796875 32.3125 
Q 56.78125 27.484375 56.78125 20.515625 
Q 56.78125 9.90625 50.3125 4.234375 
Q 43.84375 -1.421875 31.78125 -1.421875 
Q 19.734375 -1.421875 13.25 4.234375 
Q 6.78125 9.90625 6.78125 20.515625 
Q 6.78125 27.484375 10.78125 32.3125 
Q 14.796875 37.15625 21.921875 38.8125 
z
M 18.3125 54.390625 
Q 18.3125 48.734375 21.84375 45.5625 
Q 25.390625 42.390625 31.78125 42.390625 
Q 38.140625 42.390625 41.71875 45.5625 
Q 45.3125 48.734375 45.3125 54.390625 
Q 45.3125 60.0625 41.71875 63.234375 
Q 38.140625 66.40625 31.78125 66.40625 
Q 25.390625 66.40625 21.84375 63.234375 
Q 18.3125 60.0625 18.3125 54.390625 
z
" id="DejaVuSans-38"/>
      </defs>
      <g transform="translate(31 290.698828)scale(0.15 -0.15)">
       <use xlink:href="#DejaVuSans-30"/>
       <use x="63.623047" xlink:href="#DejaVuSans-2e"/>
       <use x="95.410156" xlink:href="#DejaVuSans-38"/>
      </g>
     </g>
    </g>
    <g id="ytick_2">
     <g id="line2d_19">
      <path clip-path="url(#pc1bfc35651)" d="M 64.354687 230.64 
L 428.267731 230.64 
" style="fill:none;stroke:#b0b0b0;stroke-linecap:square;stroke-width:0.8;"/>
     </g>
     <g id="line2d_20">
      <g>
       <use x="64.354687" xlink:href="#m6bc9f51e6a" y="230.64"/>
      </g>
     </g>
     <g id="text_11">
      <!-- 1.0 -->
      <g transform="translate(31 236.338828)scale(0.15 -0.15)">
       <use xlink:href="#DejaVuSans-31"/>
       <use x="63.623047" xlink:href="#DejaVuSans-2e"/>
       <use x="95.410156" xlink:href="#DejaVuSans-30"/>
      </g>
     </g>
    </g>
    <g id="ytick_3">
     <g id="line2d_21">
      <path clip-path="url(#pc1bfc35651)" d="M 64.354687 176.28 
L 428.267731 176.28 
" style="fill:none;stroke:#b0b0b0;stroke-linecap:square;stroke-width:0.8;"/>
     </g>
     <g id="line2d_22">
      <g>
       <use x="64.354687" xlink:href="#m6bc9f51e6a" y="176.28"/>
      </g>
     </g>
     <g id="text_12">
      <!-- 1.2 -->
      <g transform="translate(31 181.978828)scale(0.15 -0.15)">
       <use xlink:href="#DejaVuSans-31"/>
       <use x="63.623047" xlink:href="#DejaVuSans-2e"/>
       <use x="95.410156" xlink:href="#DejaVuSans-32"/>
      </g>
     </g>
    </g>
    <g id="ytick_4">
     <g id="line2d_23">
      <path clip-path="url(#pc1bfc35651)" d="M 64.354687 121.92 
L 428.267731 121.92 
" style="fill:none;stroke:#b0b0b0;stroke-linecap:square;stroke-width:0.8;"/>
     </g>
     <g id="line2d_24">
      <g>
       <use x="64.354687" xlink:href="#m6bc9f51e6a" y="121.92"/>
      </g>
     </g>
     <g id="text_13">
      <!-- 1.4 -->
      <g transform="translate(31 127.618828)scale(0.15 -0.15)">
       <use xlink:href="#DejaVuSans-31"/>
       <use x="63.623047" xlink:href="#DejaVuSans-2e"/>
       <use x="95.410156" xlink:href="#DejaVuSans-34"/>
      </g>
     </g>
    </g>
    <g id="ytick_5">
     <g id="line2d_25">
      <path clip-path="url(#pc1bfc35651)" d="M 64.354687 67.56 
L 428.267731 67.56 
" style="fill:none;stroke:#b0b0b0;stroke-linecap:square;stroke-width:0.8;"/>
     </g>
     <g id="line2d_26">
      <g>
       <use x="64.354687" xlink:href="#m6bc9f51e6a" y="67.56"/>
      </g>
     </g>
     <g id="text_14">
      <!-- 1.6 -->
      <g transform="translate(31 73.258828)scale(0.15 -0.15)">
       <use xlink:href="#DejaVuSans-31"/>
       <use x="63.623047" xlink:href="#DejaVuSans-2e"/>
       <use x="95.410156" xlink:href="#DejaVuSans-36"/>
      </g>
     </g>
    </g>
    <g id="ytick_6">
     <g id="line2d_27">
      <path clip-path="url(#pc1bfc35651)" d="M 64.354687 13.2 
L 428.267731 13.2 
" style="fill:none;stroke:#b0b0b0;stroke-linecap:square;stroke-width:0.8;"/>
     </g>
     <g id="line2d_28">
      <g>
       <use x="64.354687" xlink:href="#m6bc9f51e6a" y="13.2"/>
      </g>
     </g>
     <g id="text_15">
      <!-- 1.8 -->
      <g transform="translate(31 18.898828)scale(0.15 -0.15)">
       <use xlink:href="#DejaVuSans-31"/>
       <use x="63.623047" xlink:href="#DejaVuSans-2e"/>
       <use x="95.410156" xlink:href="#DejaVuSans-38"/>
      </g>
     </g>
    </g>
    <g id="text_16">
     <!-- $s/\overline{s_b}$ -->
     <defs>
      <path d="M 50 53.078125 
L 48.296875 44.578125 
Q 44.734375 46.53125 40.765625 47.5 
Q 36.8125 48.484375 32.625 48.484375 
Q 25.53125 48.484375 21.453125 46.0625 
Q 17.390625 43.65625 17.390625 39.5 
Q 17.390625 34.671875 26.859375 32.078125 
Q 27.59375 31.890625 27.9375 31.78125 
L 30.8125 30.90625 
Q 39.796875 28.421875 42.796875 25.6875 
Q 45.796875 22.953125 45.796875 18.21875 
Q 45.796875 9.515625 38.890625 4.046875 
Q 31.984375 -1.421875 20.796875 -1.421875 
Q 16.453125 -1.421875 11.671875 -0.578125 
Q 6.890625 0.25 1.125 2 
L 2.875 11.28125 
Q 7.8125 8.734375 12.59375 7.421875 
Q 17.390625 6.109375 21.78125 6.109375 
Q 28.375 6.109375 32.5 8.9375 
Q 36.625 11.765625 36.625 16.109375 
Q 36.625 20.796875 25.78125 23.6875 
L 24.859375 23.921875 
L 21.78125 24.703125 
Q 14.9375 26.515625 11.765625 29.46875 
Q 8.59375 32.421875 8.59375 37.015625 
Q 8.59375 45.75 15.15625 50.875 
Q 21.734375 56 33.015625 56 
Q 37.453125 56 41.671875 55.265625 
Q 45.90625 54.546875 50 53.078125 
z
" id="DejaVuSans-Oblique-73"/>
      <path d="M 49.515625 33.40625 
Q 49.515625 40.484375 46.265625 44.484375 
Q 43.015625 48.484375 37.3125 48.484375 
Q 33.15625 48.484375 29.515625 46.453125 
Q 25.875 44.4375 23.1875 40.578125 
Q 20.359375 36.53125 18.71875 31.171875 
Q 17.09375 25.828125 17.09375 20.515625 
Q 17.09375 13.765625 20.28125 9.9375 
Q 23.484375 6.109375 29.109375 6.109375 
Q 33.34375 6.109375 36.953125 8.078125 
Q 40.578125 10.0625 43.3125 13.921875 
Q 46.09375 17.921875 47.796875 23.234375 
Q 49.515625 28.5625 49.515625 33.40625 
z
M 21.578125 46.390625 
Q 24.90625 50.875 29.90625 53.4375 
Q 34.90625 56 40.375 56 
Q 48.78125 56 53.734375 50.328125 
Q 58.6875 44.671875 58.6875 35.015625 
Q 58.6875 27.09375 55.78125 19.671875 
Q 52.875 12.25 47.515625 6.5 
Q 44 2.6875 39.40625 0.625 
Q 34.8125 -1.421875 29.78125 -1.421875 
Q 24.46875 -1.421875 20.5625 1.015625 
Q 16.65625 3.46875 14.203125 8.296875 
L 12.59375 0 
L 3.609375 0 
L 18.40625 75.984375 
L 27.390625 75.984375 
z
" id="DejaVuSans-Oblique-62"/>
     </defs>
     <g transform="translate(22.840625 167.7)rotate(-90)scale(0.2 -0.2)">
      <use transform="translate(0 0.25)" xlink:href="#DejaVuSans-Oblique-73"/>
      <use transform="translate(52.099609 0.25)" xlink:href="#DejaVuSans-2f"/>
      <use transform="translate(85.791016 0.75)" xlink:href="#DejaVuSans-Oblique-73"/>
      <use transform="translate(137.890625 -15.65625)scale(0.7)" xlink:href="#DejaVuSans-Oblique-62"/>
      <path d="M 85.791016 68.5 
L 85.791016 74.75 
L 185.058594 74.75 
L 185.058594 68.5 
L 85.791016 68.5 
z
"/>
     </g>
    </g>
   </g>
   <g id="line2d_29">
    <path clip-path="url(#pc1bfc35651)" d="M 64.354687 230.64 
L 69.553445 211.131974 
L 74.752203 190.250145 
L 79.950961 167.898187 
L 85.149719 144.247637 
L 90.348476 119.85397 
L 95.547234 98.428217 
L 100.745992 83.763222 
L 105.94475 79.543565 
L 111.143507 88.418772 
L 116.342265 106.204954 
L 121.541023 126.63303 
L 126.739781 137.750104 
L 131.938538 140.506282 
L 137.137296 133.194044 
L 142.336054 118.32137 
L 147.534812 103.383277 
L 152.733569 91.946474 
L 157.932327 87.66378 
L 163.131085 92.75839 
L 168.329843 104.882919 
L 173.528601 121.074533 
L 178.727358 131.45213 
L 183.926116 134.44494 
L 189.124874 128.228821 
L 194.323632 116.92891 
L 199.522389 103.028603 
L 204.721147 92.65235 
L 209.919905 88.231224 
L 215.118663 92.407832 
L 220.31742 103.670804 
L 225.516178 118.454994 
L 230.714936 131.814795 
L 235.913694 135.700565 
L 241.112451 128.261966 
L 246.311209 117.822569 
L 251.509967 103.405214 
L 256.708725 92.721047 
L 261.907483 89.604738 
L 267.10624 95.827797 
L 272.304998 106.96647 
L 277.503756 118.726348 
L 282.702514 128.146203 
L 287.901271 131.192914 
L 293.100029 126.282051 
L 298.298787 116.332731 
L 303.497545 102.875556 
L 308.696302 92.608012 
L 313.89506 89.743237 
L 319.093818 93.63639 
L 324.292576 104.967834 
L 329.491333 118.373744 
L 334.690091 130.882726 
L 339.888849 133.376315 
L 345.087607 128.858148 
L 350.286365 118.08238 
L 355.485122 102.938656 
L 360.68388 92.752175 
L 365.882638 88.302918 
L 371.081396 93.218206 
L 376.280153 103.59205 
L 381.478911 115.075481 
L 386.677669 126.565999 
L 391.876427 130.342744 
L 397.075184 127.906611 
L 402.273942 117.67881 
L 407.4727 103.513082 
L 412.671458 92.238774 
L 417.870215 87.971459 
L 423.068973 92.879737 
L 428.267731 103.727543 
" style="fill:none;stroke:#1f77b4;stroke-linecap:square;stroke-width:3;"/>
   </g>
   <g id="line2d_30">
    <path clip-path="url(#pc1bfc35651)" d="M 64.354687 230.64 
L 69.553445 211.131974 
L 74.752203 190.223788 
L 79.950961 167.814949 
L 85.149719 143.79775 
L 90.348476 121.844452 
L 95.547234 107.463059 
L 100.745992 103.584386 
L 105.94475 115.092122 
L 111.143507 135.242107 
L 116.342265 152.621735 
L 121.541023 161.302954 
L 126.739781 166.301692 
L 131.938538 159.861894 
L 137.137296 142.603225 
L 142.336054 129.563237 
L 147.534812 116.808561 
L 152.733569 115.885387 
L 157.932327 123.900559 
L 163.131085 138.754173 
L 168.329843 153.372202 
L 173.528601 159.653489 
L 178.727358 159.20347 
L 183.926116 151.928658 
L 189.124874 143.665221 
L 194.323632 132.356567 
L 199.522389 121.536557 
L 204.721147 121.30315 
L 209.919905 127.460371 
L 215.118663 139.132452 
L 220.31742 151.282523 
L 225.516178 160.741699 
L 230.714936 161.531679 
L 235.913694 153.330979 
L 241.112451 142.512921 
L 246.311209 129.941631 
L 251.509967 120.985061 
L 256.708725 118.075396 
L 261.907483 125.086481 
L 267.10624 138.991609 
L 272.304998 150.846263 
L 277.503756 156.780338 
L 282.702514 158.083974 
L 287.901271 152.772284 
L 293.100029 142.170856 
L 298.298787 129.684483 
L 303.497545 120.309981 
L 308.696302 120.210498 
L 313.89506 127.809353 
L 319.093818 138.032545 
L 324.292576 149.265249 
L 329.491333 157.788208 
L 334.690091 158.766671 
L 339.888849 152.398716 
L 345.087607 142.002952 
L 350.286365 130.208592 
L 355.485122 120.855064 
L 360.68388 118.981665 
L 365.882638 125.145904 
L 371.081396 137.667728 
L 376.280153 149.504828 
L 381.478911 156.863853 
L 386.677669 158.212896 
L 391.876427 151.654416 
L 397.075184 141.04402 
L 402.273942 129.173273 
L 407.4727 120.302046 
L 412.671458 118.501808 
L 417.870215 124.89124 
L 423.068973 137.025444 
L 428.267731 149.291628 
" style="fill:none;stroke:#ff7f0e;stroke-linecap:square;stroke-width:3;"/>
   </g>
   <g id="line2d_31">
    <path clip-path="url(#pc1bfc35651)" d="M 64.354687 230.64 
L 69.553445 211.131974 
L 74.752203 190.223788 
L 79.950961 167.814949 
L 85.149719 143.79775 
L 90.348476 120.013265 
L 95.547234 99.333869 
L 100.745992 84.264076 
L 105.94475 81.787075 
L 111.143507 91.808875 
L 116.342265 109.31754 
L 121.541023 126.309873 
L 126.739781 144.737182 
L 131.938538 149.214537 
L 137.137296 136.524585 
L 142.336054 124.052172 
L 147.534812 107.801948 
L 152.733569 100.34044 
L 157.932327 102.183344 
L 163.131085 113.622984 
L 168.329843 130.541194 
L 173.528601 142.160914 
L 178.727358 148.174405 
L 183.926116 145.367408 
L 189.124874 139.656548 
L 194.323632 127.903634 
L 199.522389 115.209211 
L 204.721147 111.16455 
L 209.919905 114.963361 
L 215.118663 125.230467 
L 220.31742 138.750214 
L 225.516178 152.199698 
L 230.714936 156.023571 
L 235.913694 149.94714 
L 241.112451 140.482761 
L 246.311209 127.666787 
L 251.509967 117.384151 
L 256.708725 112.472236 
L 261.907483 118.027432 
L 267.10624 131.846148 
L 272.304998 144.48394 
L 277.503756 152.131375 
L 282.702514 155.33958 
L 287.901271 151.216868 
L 293.100029 141.065542 
L 298.298787 128.588746 
L 303.497545 118.504088 
L 308.696302 117.131534 
L 313.89506 124.099807 
L 319.093818 134.210006 
L 324.292576 145.936099 
L 329.491333 155.503842 
L 334.690091 157.346677 
L 339.888849 151.687164 
L 345.087607 141.43309 
L 350.286365 129.589612 
L 355.485122 119.842192 
L 360.68388 117.365776 
L 365.882638 123.33358 
L 371.081396 135.770259 
L 376.280153 147.959082 
L 381.478911 155.749456 
L 386.677669 157.515171 
L 391.876427 151.228986 
L 397.075184 140.772522 
L 402.273942 128.853723 
L 407.4727 119.766149 
L 412.671458 117.73146 
L 417.870215 123.941867 
L 423.068973 136.122787 
L 428.267731 148.443225 
" style="fill:none;stroke:#2ca02c;stroke-linecap:square;stroke-width:3;"/>
   </g>
   <g id="patch_3">
    <path d="M 64.354687 285 
L 64.354687 13.2 
" style="fill:none;stroke:#000000;stroke-linecap:square;stroke-linejoin:miter;stroke-width:2;"/>
   </g>
   <g id="patch_4">
    <path d="M 428.267731 285 
L 428.267731 13.2 
" style="fill:none;"/>
   </g>
   <g id="patch_5">
    <path d="M 64.354687 285 
L 428.267731 285 
" style="fill:none;stroke:#000000;stroke-linecap:square;stroke-linejoin:miter;stroke-width:2;"/>
   </g>
   <g id="patch_6">
    <path d="M 64.354687 13.2 
L 428.267731 13.2 
" style="fill:none;"/>
   </g>
   <g id="legend_1">
    <g id="patch_7">
     <path d="M 74.854687 277.5 
L 330.180469 277.5 
Q 333.180469 277.5 333.180469 274.5 
L 333.180469 209.948438 
Q 333.180469 206.948438 330.180469 206.948438 
L 74.854687 206.948438 
Q 71.854687 206.948438 71.854687 209.948438 
L 71.854687 274.5 
Q 71.854687 277.5 74.854687 277.5 
z
" style="fill:#ffffff;opacity:0.8;stroke:#cccccc;stroke-linejoin:miter;"/>
    </g>
    <g id="line2d_32">
     <path d="M 77.854687 219.096094 
L 107.854687 219.096094 
" style="fill:none;stroke:#1f77b4;stroke-linecap:square;stroke-width:3;"/>
    </g>
    <g id="line2d_33"/>
    <g id="text_17">
     <!-- Single Lineage -->
     <defs>
      <path d="M 53.515625 70.515625 
L 53.515625 60.890625 
Q 47.90625 63.578125 42.921875 64.890625 
Q 37.9375 66.21875 33.296875 66.21875 
Q 25.25 66.21875 20.875 63.09375 
Q 16.5 59.96875 16.5 54.203125 
Q 16.5 49.359375 19.40625 46.890625 
Q 22.3125 44.4375 30.421875 42.921875 
L 36.375 41.703125 
Q 47.40625 39.59375 52.65625 34.296875 
Q 57.90625 29 57.90625 20.125 
Q 57.90625 9.515625 50.796875 4.046875 
Q 43.703125 -1.421875 29.984375 -1.421875 
Q 24.8125 -1.421875 18.96875 -0.25 
Q 13.140625 0.921875 6.890625 3.21875 
L 6.890625 13.375 
Q 12.890625 10.015625 18.65625 8.296875 
Q 24.421875 6.59375 29.984375 6.59375 
Q 38.421875 6.59375 43.015625 9.90625 
Q 47.609375 13.234375 47.609375 19.390625 
Q 47.609375 24.75 44.3125 27.78125 
Q 41.015625 30.8125 33.5 32.328125 
L 27.484375 33.5 
Q 16.453125 35.6875 11.515625 40.375 
Q 6.59375 45.0625 6.59375 53.421875 
Q 6.59375 63.09375 13.40625 68.65625 
Q 20.21875 74.21875 32.171875 74.21875 
Q 37.3125 74.21875 42.625 73.28125 
Q 47.953125 72.359375 53.515625 70.515625 
z
" id="DejaVuSans-53"/>
      <path d="M 9.421875 54.6875 
L 18.40625 54.6875 
L 18.40625 0 
L 9.421875 0 
z
M 9.421875 75.984375 
L 18.40625 75.984375 
L 18.40625 64.59375 
L 9.421875 64.59375 
z
" id="DejaVuSans-69"/>
      <path d="M 54.890625 33.015625 
L 54.890625 0 
L 45.90625 0 
L 45.90625 32.71875 
Q 45.90625 40.484375 42.875 44.328125 
Q 39.84375 48.1875 33.796875 48.1875 
Q 26.515625 48.1875 22.3125 43.546875 
Q 18.109375 38.921875 18.109375 30.90625 
L 18.109375 0 
L 9.078125 0 
L 9.078125 54.6875 
L 18.109375 54.6875 
L 18.109375 46.1875 
Q 21.34375 51.125 25.703125 53.5625 
Q 30.078125 56 35.796875 56 
Q 45.21875 56 50.046875 50.171875 
Q 54.890625 44.34375 54.890625 33.015625 
z
" id="DejaVuSans-6e"/>
      <path d="M 45.40625 27.984375 
Q 45.40625 37.75 41.375 43.109375 
Q 37.359375 48.484375 30.078125 48.484375 
Q 22.859375 48.484375 18.828125 43.109375 
Q 14.796875 37.75 14.796875 27.984375 
Q 14.796875 18.265625 18.828125 12.890625 
Q 22.859375 7.515625 30.078125 7.515625 
Q 37.359375 7.515625 41.375 12.890625 
Q 45.40625 18.265625 45.40625 27.984375 
z
M 54.390625 6.78125 
Q 54.390625 -7.171875 48.1875 -13.984375 
Q 42 -20.796875 29.203125 -20.796875 
Q 24.46875 -20.796875 20.265625 -20.09375 
Q 16.0625 -19.390625 12.109375 -17.921875 
L 12.109375 -9.1875 
Q 16.0625 -11.328125 19.921875 -12.34375 
Q 23.78125 -13.375 27.78125 -13.375 
Q 36.625 -13.375 41.015625 -8.765625 
Q 45.40625 -4.15625 45.40625 5.171875 
L 45.40625 9.625 
Q 42.625 4.78125 38.28125 2.390625 
Q 33.9375 0 27.875 0 
Q 17.828125 0 11.671875 7.65625 
Q 5.515625 15.328125 5.515625 27.984375 
Q 5.515625 40.671875 11.671875 48.328125 
Q 17.828125 56 27.875 56 
Q 33.9375 56 38.28125 53.609375 
Q 42.625 51.21875 45.40625 46.390625 
L 45.40625 54.6875 
L 54.390625 54.6875 
z
" id="DejaVuSans-67"/>
      <path d="M 9.421875 75.984375 
L 18.40625 75.984375 
L 18.40625 0 
L 9.421875 0 
z
" id="DejaVuSans-6c"/>
      <path d="M 56.203125 29.59375 
L 56.203125 25.203125 
L 14.890625 25.203125 
Q 15.484375 15.921875 20.484375 11.0625 
Q 25.484375 6.203125 34.421875 6.203125 
Q 39.59375 6.203125 44.453125 7.46875 
Q 49.3125 8.734375 54.109375 11.28125 
L 54.109375 2.78125 
Q 49.265625 0.734375 44.1875 -0.34375 
Q 39.109375 -1.421875 33.890625 -1.421875 
Q 20.796875 -1.421875 13.15625 6.1875 
Q 5.515625 13.8125 5.515625 26.8125 
Q 5.515625 40.234375 12.765625 48.109375 
Q 20.015625 56 32.328125 56 
Q 43.359375 56 49.78125 48.890625 
Q 56.203125 41.796875 56.203125 29.59375 
z
M 47.21875 32.234375 
Q 47.125 39.59375 43.09375 43.984375 
Q 39.0625 48.390625 32.421875 48.390625 
Q 24.90625 48.390625 20.390625 44.140625 
Q 15.875 39.890625 15.1875 32.171875 
z
" id="DejaVuSans-65"/>
      <path id="DejaVuSans-20"/>
      <path d="M 9.8125 72.90625 
L 19.671875 72.90625 
L 19.671875 8.296875 
L 55.171875 8.296875 
L 55.171875 0 
L 9.8125 0 
z
" id="DejaVuSans-4c"/>
      <path d="M 34.28125 27.484375 
Q 23.390625 27.484375 19.1875 25 
Q 14.984375 22.515625 14.984375 16.5 
Q 14.984375 11.71875 18.140625 8.90625 
Q 21.296875 6.109375 26.703125 6.109375 
Q 34.1875 6.109375 38.703125 11.40625 
Q 43.21875 16.703125 43.21875 25.484375 
L 43.21875 27.484375 
z
M 52.203125 31.203125 
L 52.203125 0 
L 43.21875 0 
L 43.21875 8.296875 
Q 40.140625 3.328125 35.546875 0.953125 
Q 30.953125 -1.421875 24.3125 -1.421875 
Q 15.921875 -1.421875 10.953125 3.296875 
Q 6 8.015625 6 15.921875 
Q 6 25.140625 12.171875 29.828125 
Q 18.359375 34.515625 30.609375 34.515625 
L 43.21875 34.515625 
L 43.21875 35.40625 
Q 43.21875 41.609375 39.140625 45 
Q 35.0625 48.390625 27.6875 48.390625 
Q 23 48.390625 18.546875 47.265625 
Q 14.109375 46.140625 10.015625 43.890625 
L 10.015625 52.203125 
Q 14.9375 54.109375 19.578125 55.046875 
Q 24.21875 56 28.609375 56 
Q 40.484375 56 46.34375 49.84375 
Q 52.203125 43.703125 52.203125 31.203125 
z
" id="DejaVuSans-61"/>
     </defs>
     <g transform="translate(119.854687 224.346094)scale(0.15 -0.15)">
      <use xlink:href="#DejaVuSans-53"/>
      <use x="63.476562" xlink:href="#DejaVuSans-69"/>
      <use x="91.259766" xlink:href="#DejaVuSans-6e"/>
      <use x="154.638672" xlink:href="#DejaVuSans-67"/>
      <use x="218.115234" xlink:href="#DejaVuSans-6c"/>
      <use x="245.898438" xlink:href="#DejaVuSans-65"/>
      <use x="307.421875" xlink:href="#DejaVuSans-20"/>
      <use x="339.208984" xlink:href="#DejaVuSans-4c"/>
      <use x="394.921875" xlink:href="#DejaVuSans-69"/>
      <use x="422.705078" xlink:href="#DejaVuSans-6e"/>
      <use x="486.083984" xlink:href="#DejaVuSans-65"/>
      <use x="547.607422" xlink:href="#DejaVuSans-61"/>
      <use x="608.886719" xlink:href="#DejaVuSans-67"/>
      <use x="672.363281" xlink:href="#DejaVuSans-65"/>
     </g>
    </g>
    <g id="line2d_34">
     <path d="M 77.854687 241.113281 
L 107.854687 241.113281 
" style="fill:none;stroke:#ff7f0e;stroke-linecap:square;stroke-width:3;"/>
    </g>
    <g id="line2d_35"/>
    <g id="text_18">
     <!-- Population Snapshots (PBE) -->
     <defs>
      <path d="M 19.671875 64.796875 
L 19.671875 37.40625 
L 32.078125 37.40625 
Q 38.96875 37.40625 42.71875 40.96875 
Q 46.484375 44.53125 46.484375 51.125 
Q 46.484375 57.671875 42.71875 61.234375 
Q 38.96875 64.796875 32.078125 64.796875 
z
M 9.8125 72.90625 
L 32.078125 72.90625 
Q 44.34375 72.90625 50.609375 67.359375 
Q 56.890625 61.8125 56.890625 51.125 
Q 56.890625 40.328125 50.609375 34.8125 
Q 44.34375 29.296875 32.078125 29.296875 
L 19.671875 29.296875 
L 19.671875 0 
L 9.8125 0 
z
" id="DejaVuSans-50"/>
      <path d="M 30.609375 48.390625 
Q 23.390625 48.390625 19.1875 42.75 
Q 14.984375 37.109375 14.984375 27.296875 
Q 14.984375 17.484375 19.15625 11.84375 
Q 23.34375 6.203125 30.609375 6.203125 
Q 37.796875 6.203125 41.984375 11.859375 
Q 46.1875 17.53125 46.1875 27.296875 
Q 46.1875 37.015625 41.984375 42.703125 
Q 37.796875 48.390625 30.609375 48.390625 
z
M 30.609375 56 
Q 42.328125 56 49.015625 48.375 
Q 55.71875 40.765625 55.71875 27.296875 
Q 55.71875 13.875 49.015625 6.21875 
Q 42.328125 -1.421875 30.609375 -1.421875 
Q 18.84375 -1.421875 12.171875 6.21875 
Q 5.515625 13.875 5.515625 27.296875 
Q 5.515625 40.765625 12.171875 48.375 
Q 18.84375 56 30.609375 56 
z
" id="DejaVuSans-6f"/>
      <path d="M 18.109375 8.203125 
L 18.109375 -20.796875 
L 9.078125 -20.796875 
L 9.078125 54.6875 
L 18.109375 54.6875 
L 18.109375 46.390625 
Q 20.953125 51.265625 25.265625 53.625 
Q 29.59375 56 35.59375 56 
Q 45.5625 56 51.78125 48.09375 
Q 58.015625 40.1875 58.015625 27.296875 
Q 58.015625 14.40625 51.78125 6.484375 
Q 45.5625 -1.421875 35.59375 -1.421875 
Q 29.59375 -1.421875 25.265625 0.953125 
Q 20.953125 3.328125 18.109375 8.203125 
z
M 48.6875 27.296875 
Q 48.6875 37.203125 44.609375 42.84375 
Q 40.53125 48.484375 33.40625 48.484375 
Q 26.265625 48.484375 22.1875 42.84375 
Q 18.109375 37.203125 18.109375 27.296875 
Q 18.109375 17.390625 22.1875 11.75 
Q 26.265625 6.109375 33.40625 6.109375 
Q 40.53125 6.109375 44.609375 11.75 
Q 48.6875 17.390625 48.6875 27.296875 
z
" id="DejaVuSans-70"/>
      <path d="M 8.5 21.578125 
L 8.5 54.6875 
L 17.484375 54.6875 
L 17.484375 21.921875 
Q 17.484375 14.15625 20.5 10.265625 
Q 23.53125 6.390625 29.59375 6.390625 
Q 36.859375 6.390625 41.078125 11.03125 
Q 45.3125 15.671875 45.3125 23.6875 
L 45.3125 54.6875 
L 54.296875 54.6875 
L 54.296875 0 
L 45.3125 0 
L 45.3125 8.40625 
Q 42.046875 3.421875 37.71875 1 
Q 33.40625 -1.421875 27.6875 -1.421875 
Q 18.265625 -1.421875 13.375 4.4375 
Q 8.5 10.296875 8.5 21.578125 
z
M 31.109375 56 
z
" id="DejaVuSans-75"/>
      <path d="M 18.3125 70.21875 
L 18.3125 54.6875 
L 36.8125 54.6875 
L 36.8125 47.703125 
L 18.3125 47.703125 
L 18.3125 18.015625 
Q 18.3125 11.328125 20.140625 9.421875 
Q 21.96875 7.515625 27.59375 7.515625 
L 36.8125 7.515625 
L 36.8125 0 
L 27.59375 0 
Q 17.1875 0 13.234375 3.875 
Q 9.28125 7.765625 9.28125 18.015625 
L 9.28125 47.703125 
L 2.6875 47.703125 
L 2.6875 54.6875 
L 9.28125 54.6875 
L 9.28125 70.21875 
z
" id="DejaVuSans-74"/>
      <path d="M 44.28125 53.078125 
L 44.28125 44.578125 
Q 40.484375 46.53125 36.375 47.5 
Q 32.28125 48.484375 27.875 48.484375 
Q 21.1875 48.484375 17.84375 46.4375 
Q 14.5 44.390625 14.5 40.28125 
Q 14.5 37.15625 16.890625 35.375 
Q 19.28125 33.59375 26.515625 31.984375 
L 29.59375 31.296875 
Q 39.15625 29.25 43.1875 25.515625 
Q 47.21875 21.78125 47.21875 15.09375 
Q 47.21875 7.46875 41.1875 3.015625 
Q 35.15625 -1.421875 24.609375 -1.421875 
Q 20.21875 -1.421875 15.453125 -0.5625 
Q 10.6875 0.296875 5.421875 2 
L 5.421875 11.28125 
Q 10.40625 8.6875 15.234375 7.390625 
Q 20.0625 6.109375 24.8125 6.109375 
Q 31.15625 6.109375 34.5625 8.28125 
Q 37.984375 10.453125 37.984375 14.40625 
Q 37.984375 18.0625 35.515625 20.015625 
Q 33.0625 21.96875 24.703125 23.78125 
L 21.578125 24.515625 
Q 13.234375 26.265625 9.515625 29.90625 
Q 5.8125 33.546875 5.8125 39.890625 
Q 5.8125 47.609375 11.28125 51.796875 
Q 16.75 56 26.8125 56 
Q 31.78125 56 36.171875 55.265625 
Q 40.578125 54.546875 44.28125 53.078125 
z
" id="DejaVuSans-73"/>
      <path d="M 54.890625 33.015625 
L 54.890625 0 
L 45.90625 0 
L 45.90625 32.71875 
Q 45.90625 40.484375 42.875 44.328125 
Q 39.84375 48.1875 33.796875 48.1875 
Q 26.515625 48.1875 22.3125 43.546875 
Q 18.109375 38.921875 18.109375 30.90625 
L 18.109375 0 
L 9.078125 0 
L 9.078125 75.984375 
L 18.109375 75.984375 
L 18.109375 46.1875 
Q 21.34375 51.125 25.703125 53.5625 
Q 30.078125 56 35.796875 56 
Q 45.21875 56 50.046875 50.171875 
Q 54.890625 44.34375 54.890625 33.015625 
z
" id="DejaVuSans-68"/>
      <path d="M 31 75.875 
Q 24.46875 64.65625 21.28125 53.65625 
Q 18.109375 42.671875 18.109375 31.390625 
Q 18.109375 20.125 21.3125 9.0625 
Q 24.515625 -2 31 -13.1875 
L 23.1875 -13.1875 
Q 15.875 -1.703125 12.234375 9.375 
Q 8.59375 20.453125 8.59375 31.390625 
Q 8.59375 42.28125 12.203125 53.3125 
Q 15.828125 64.359375 23.1875 75.875 
z
" id="DejaVuSans-28"/>
      <path d="M 19.671875 34.8125 
L 19.671875 8.109375 
L 35.5 8.109375 
Q 43.453125 8.109375 47.28125 11.40625 
Q 51.125 14.703125 51.125 21.484375 
Q 51.125 28.328125 47.28125 31.5625 
Q 43.453125 34.8125 35.5 34.8125 
z
M 19.671875 64.796875 
L 19.671875 42.828125 
L 34.28125 42.828125 
Q 41.5 42.828125 45.03125 45.53125 
Q 48.578125 48.25 48.578125 53.8125 
Q 48.578125 59.328125 45.03125 62.0625 
Q 41.5 64.796875 34.28125 64.796875 
z
M 9.8125 72.90625 
L 35.015625 72.90625 
Q 46.296875 72.90625 52.390625 68.21875 
Q 58.5 63.53125 58.5 54.890625 
Q 58.5 48.1875 55.375 44.234375 
Q 52.25 40.28125 46.1875 39.3125 
Q 53.46875 37.75 57.5 32.78125 
Q 61.53125 27.828125 61.53125 20.40625 
Q 61.53125 10.640625 54.890625 5.3125 
Q 48.25 0 35.984375 0 
L 9.8125 0 
z
" id="DejaVuSans-42"/>
      <path d="M 9.8125 72.90625 
L 55.90625 72.90625 
L 55.90625 64.59375 
L 19.671875 64.59375 
L 19.671875 43.015625 
L 54.390625 43.015625 
L 54.390625 34.71875 
L 19.671875 34.71875 
L 19.671875 8.296875 
L 56.78125 8.296875 
L 56.78125 0 
L 9.8125 0 
z
" id="DejaVuSans-45"/>
      <path d="M 8.015625 75.875 
L 15.828125 75.875 
Q 23.140625 64.359375 26.78125 53.3125 
Q 30.421875 42.28125 30.421875 31.390625 
Q 30.421875 20.453125 26.78125 9.375 
Q 23.140625 -1.703125 15.828125 -13.1875 
L 8.015625 -13.1875 
Q 14.5 -2 17.703125 9.0625 
Q 20.90625 20.125 20.90625 31.390625 
Q 20.90625 42.671875 17.703125 53.65625 
Q 14.5 64.65625 8.015625 75.875 
z
" id="DejaVuSans-29"/>
     </defs>
     <g transform="translate(119.854687 246.363281)scale(0.15 -0.15)">
      <use xlink:href="#DejaVuSans-50"/>
      <use x="60.255859" xlink:href="#DejaVuSans-6f"/>
      <use x="121.4375" xlink:href="#DejaVuSans-70"/>
      <use x="184.914062" xlink:href="#DejaVuSans-75"/>
      <use x="248.292969" xlink:href="#DejaVuSans-6c"/>
      <use x="276.076172" xlink:href="#DejaVuSans-61"/>
      <use x="337.355469" xlink:href="#DejaVuSans-74"/>
      <use x="376.564453" xlink:href="#DejaVuSans-69"/>
      <use x="404.347656" xlink:href="#DejaVuSans-6f"/>
      <use x="465.529297" xlink:href="#DejaVuSans-6e"/>
      <use x="528.908203" xlink:href="#DejaVuSans-20"/>
      <use x="560.695312" xlink:href="#DejaVuSans-53"/>
      <use x="624.171875" xlink:href="#DejaVuSans-6e"/>
      <use x="687.550781" xlink:href="#DejaVuSans-61"/>
      <use x="748.830078" xlink:href="#DejaVuSans-70"/>
      <use x="812.306641" xlink:href="#DejaVuSans-73"/>
      <use x="864.40625" xlink:href="#DejaVuSans-68"/>
      <use x="927.785156" xlink:href="#DejaVuSans-6f"/>
      <use x="988.966797" xlink:href="#DejaVuSans-74"/>
      <use x="1028.175781" xlink:href="#DejaVuSans-73"/>
      <use x="1080.275391" xlink:href="#DejaVuSans-20"/>
      <use x="1112.0625" xlink:href="#DejaVuSans-28"/>
      <use x="1151.076172" xlink:href="#DejaVuSans-50"/>
      <use x="1211.378906" xlink:href="#DejaVuSans-42"/>
      <use x="1279.982422" xlink:href="#DejaVuSans-45"/>
      <use x="1343.166016" xlink:href="#DejaVuSans-29"/>
     </g>
    </g>
    <g id="line2d_36">
     <path d="M 77.854687 263.130469 
L 107.854687 263.130469 
" style="fill:none;stroke:#2ca02c;stroke-linecap:square;stroke-width:3;"/>
    </g>
    <g id="line2d_37"/>
    <g id="text_19">
     <!-- Lineage Tracking -->
     <defs>
      <path d="M -0.296875 72.90625 
L 61.375 72.90625 
L 61.375 64.59375 
L 35.5 64.59375 
L 35.5 0 
L 25.59375 0 
L 25.59375 64.59375 
L -0.296875 64.59375 
z
" id="DejaVuSans-54"/>
      <path d="M 41.109375 46.296875 
Q 39.59375 47.171875 37.8125 47.578125 
Q 36.03125 48 33.890625 48 
Q 26.265625 48 22.1875 43.046875 
Q 18.109375 38.09375 18.109375 28.8125 
L 18.109375 0 
L 9.078125 0 
L 9.078125 54.6875 
L 18.109375 54.6875 
L 18.109375 46.1875 
Q 20.953125 51.171875 25.484375 53.578125 
Q 30.03125 56 36.53125 56 
Q 37.453125 56 38.578125 55.875 
Q 39.703125 55.765625 41.0625 55.515625 
z
" id="DejaVuSans-72"/>
      <path d="M 48.78125 52.59375 
L 48.78125 44.1875 
Q 44.96875 46.296875 41.140625 47.34375 
Q 37.3125 48.390625 33.40625 48.390625 
Q 24.65625 48.390625 19.8125 42.84375 
Q 14.984375 37.3125 14.984375 27.296875 
Q 14.984375 17.28125 19.8125 11.734375 
Q 24.65625 6.203125 33.40625 6.203125 
Q 37.3125 6.203125 41.140625 7.25 
Q 44.96875 8.296875 48.78125 10.40625 
L 48.78125 2.09375 
Q 45.015625 0.34375 40.984375 -0.53125 
Q 36.96875 -1.421875 32.421875 -1.421875 
Q 20.0625 -1.421875 12.78125 6.34375 
Q 5.515625 14.109375 5.515625 27.296875 
Q 5.515625 40.671875 12.859375 48.328125 
Q 20.21875 56 33.015625 56 
Q 37.15625 56 41.109375 55.140625 
Q 45.0625 54.296875 48.78125 52.59375 
z
" id="DejaVuSans-63"/>
      <path d="M 9.078125 75.984375 
L 18.109375 75.984375 
L 18.109375 31.109375 
L 44.921875 54.6875 
L 56.390625 54.6875 
L 27.390625 29.109375 
L 57.625 0 
L 45.90625 0 
L 18.109375 26.703125 
L 18.109375 0 
L 9.078125 0 
z
" id="DejaVuSans-6b"/>
     </defs>
     <g transform="translate(119.854687 268.380469)scale(0.15 -0.15)">
      <use xlink:href="#DejaVuSans-4c"/>
      <use x="55.712891" xlink:href="#DejaVuSans-69"/>
      <use x="83.496094" xlink:href="#DejaVuSans-6e"/>
      <use x="146.875" xlink:href="#DejaVuSans-65"/>
      <use x="208.398438" xlink:href="#DejaVuSans-61"/>
      <use x="269.677734" xlink:href="#DejaVuSans-67"/>
      <use x="333.154297" xlink:href="#DejaVuSans-65"/>
      <use x="394.677734" xlink:href="#DejaVuSans-20"/>
      <use x="426.464844" xlink:href="#DejaVuSans-54"/>
      <use x="487.330078" xlink:href="#DejaVuSans-72"/>
      <use x="528.443359" xlink:href="#DejaVuSans-61"/>
      <use x="589.722656" xlink:href="#DejaVuSans-63"/>
      <use x="644.703125" xlink:href="#DejaVuSans-6b"/>
      <use x="702.613281" xlink:href="#DejaVuSans-69"/>
      <use x="730.396484" xlink:href="#DejaVuSans-6e"/>
      <use x="793.775391" xlink:href="#DejaVuSans-67"/>
     </g>
    </g>
   </g>
  </g>
  <g id="axes_2">
   <g id="patch_8">
    <path d="M 537.441644 285 
L 901.354688 285 
L 901.354688 13.2 
L 537.441644 13.2 
z
" style="fill:#ffffff;"/>
   </g>
   <g id="PolyCollection_4">
    <defs>
     <path d="M 537.441644 -67.142567 
L 537.441644 -67.142567 
L 542.640402 -67.142567 
L 547.83916 -67.102434 
L 553.037917 -67.145024 
L 558.236675 -67.81482 
L 563.435433 -70.704861 
L 568.634191 -84.131873 
L 573.832948 -114.885448 
L 579.031706 -166.305161 
L 584.230464 -234.343457 
L 589.429222 -294.219861 
L 594.627979 -309.224263 
L 599.826737 -264.940373 
L 605.025495 -191.737046 
L 610.224253 -129.822985 
L 615.42301 -102.599102 
L 620.621768 -106.255459 
L 625.820526 -135.097968 
L 631.019284 -182.631045 
L 636.218042 -241.257955 
L 641.416799 -292.943205 
L 646.615557 -311.575432 
L 651.814315 -276.670476 
L 657.013073 -212.11304 
L 662.21183 -154.303324 
L 667.410588 -118.011921 
L 672.609346 -115.78372 
L 677.808104 -139.420375 
L 683.006861 -185.195114 
L 688.205619 -242.135818 
L 693.404377 -291.9549 
L 698.603135 -312.421941 
L 703.801892 -278.200342 
L 709.00065 -211.664328 
L 714.199408 -158.3776 
L 719.398166 -119.502679 
L 724.596924 -119.699931 
L 729.795681 -141.486587 
L 734.994439 -188.803978 
L 740.193197 -247.360866 
L 745.391955 -295.315119 
L 750.590712 -312.203872 
L 755.78947 -282.335935 
L 760.988228 -222.491347 
L 766.186986 -164.026603 
L 771.385743 -121.948315 
L 776.584501 -117.891138 
L 781.783259 -144.155104 
L 786.982017 -190.650406 
L 792.180774 -242.99017 
L 797.379532 -293.035723 
L 802.57829 -312.477536 
L 807.777048 -278.296523 
L 812.975806 -215.702976 
L 818.174563 -151.653148 
L 823.373321 -116.117695 
L 828.572079 -115.096528 
L 833.770837 -143.352538 
L 838.969594 -184.731166 
L 844.168352 -242.194427 
L 849.36711 -291.892879 
L 854.565868 -312.957189 
L 859.764625 -285.508531 
L 864.963383 -226.520101 
L 870.162141 -160.46201 
L 875.360899 -122.683474 
L 880.559656 -119.464923 
L 885.758414 -142.022465 
L 890.957172 -185.321813 
L 896.15593 -241.858693 
L 901.354688 -292.063936 
L 901.354688 -297.456926 
L 901.354688 -297.456926 
L 896.15593 -249.674901 
L 890.957172 -194.098248 
L 885.758414 -151.507936 
L 880.559656 -129.436285 
L 875.360899 -134.688094 
L 870.162141 -174.901787 
L 864.963383 -239.346559 
L 859.764625 -292.941574 
L 854.565868 -314.018892 
L 849.36711 -297.398857 
L 844.168352 -249.937289 
L 838.969594 -193.527333 
L 833.770837 -152.543359 
L 828.572079 -124.371097 
L 823.373321 -127.278937 
L 818.174563 -165.83269 
L 812.975806 -228.642795 
L 807.777048 -286.726289 
L 802.57829 -313.679206 
L 797.379532 -298.282795 
L 792.180774 -252.022158 
L 786.982017 -200.018838 
L 781.783259 -153.325231 
L 776.584501 -127.960523 
L 771.385743 -134.13619 
L 766.186986 -178.076168 
L 760.988228 -235.134788 
L 755.78947 -290.185681 
L 750.590712 -313.269626 
L 745.391955 -301.371819 
L 740.193197 -256.047227 
L 734.994439 -198.216618 
L 729.795681 -150.576374 
L 724.596924 -129.577144 
L 719.398166 -131.367068 
L 714.199408 -172.494643 
L 709.00065 -225.378368 
L 703.801892 -286.494642 
L 698.603135 -313.4322 
L 693.404377 -297.260189 
L 688.205619 -250.638016 
L 683.006861 -194.329407 
L 677.808104 -147.818383 
L 672.609346 -125.463942 
L 667.410588 -130.405415 
L 662.21183 -168.217088 
L 657.013073 -225.189629 
L 651.814315 -285.123679 
L 646.615557 -312.798104 
L 641.416799 -298.048742 
L 636.218042 -249.233442 
L 631.019284 -190.836548 
L 625.820526 -142.692869 
L 620.621768 -113.73526 
L 615.42301 -112.631356 
L 610.224253 -142.583918 
L 605.025495 -204.534197 
L 599.826737 -274.114695 
L 594.627979 -311.601092 
L 589.429222 -299.137947 
L 584.230464 -242.863012 
L 579.031706 -174.439918 
L 573.832948 -120.898109 
L 568.634191 -88.140379 
L 563.435433 -72.752279 
L 558.236675 -68.879542 
L 553.037917 -67.636436 
L 547.83916 -67.348141 
L 542.640402 -67.142567 
L 537.441644 -67.142567 
z
" id="mda35e4aa66"/>
    </defs>
    <g clip-path="url(#p241615bd9d)">
     <use style="fill:#4db8ff;" x="0" xlink:href="#mda35e4aa66" y="339.573438"/>
    </g>
   </g>
   <g id="PolyCollection_5">
    <defs>
     <path d="M 537.441644 -67.142567 
L 537.441644 -67.142567 
L 542.640402 -67.142567 
L 547.83916 -67.142567 
L 553.037917 -67.142567 
L 558.236675 -67.142567 
L 563.435433 -72.327911 
L 568.634191 -98.864778 
L 573.832948 -149.390994 
L 579.031706 -224.622228 
L 584.230464 -292.935714 
L 589.429222 -306.439156 
L 594.627979 -257.645449 
L 599.826737 -176.007437 
L 605.025495 -116.200002 
L 610.224253 -91.527957 
L 615.42301 -98.159329 
L 620.621768 -126.225534 
L 625.820526 -180.341714 
L 631.019284 -243.443581 
L 636.218042 -297.8394 
L 641.416799 -306.911329 
L 646.615557 -267.426705 
L 651.814315 -207.271344 
L 657.013073 -152.367169 
L 662.21183 -118.728735 
L 667.410588 -116.713376 
L 672.609346 -139.886229 
L 677.808104 -194.702411 
L 683.006861 -254.183809 
L 688.205619 -300.326809 
L 693.404377 -309.285241 
L 698.603135 -267.464977 
L 703.801892 -204.392844 
L 709.00065 -152.590277 
L 714.199408 -116.281286 
L 719.398166 -113.787607 
L 724.596924 -143.189055 
L 729.795681 -190.160974 
L 734.994439 -250.441873 
L 740.193197 -300.207111 
L 745.391955 -310.434938 
L 750.590712 -276.494689 
L 755.78947 -215.839098 
L 760.988228 -156.75683 
L 766.186986 -120.213291 
L 771.385743 -115.610935 
L 776.584501 -143.564994 
L 781.783259 -197.565518 
L 786.982017 -255.403951 
L 792.180774 -299.97139 
L 797.379532 -310.814976 
L 802.57829 -276.415947 
L 807.777048 -216.501939 
L 812.975806 -159.569293 
L 818.174563 -124.418396 
L 823.373321 -122.03427 
L 828.572079 -146.389012 
L 833.770837 -193.41924 
L 838.969594 -252.232798 
L 844.168352 -300.315056 
L 849.36711 -311.117313 
L 854.565868 -278.548589 
L 859.764625 -217.747721 
L 864.963383 -164.685215 
L 870.162141 -127.985336 
L 875.360899 -122.978958 
L 880.559656 -147.209614 
L 885.758414 -194.473538 
L 890.957172 -252.968689 
L 896.15593 -300.304898 
L 901.354688 -311.423844 
L 901.354688 -312.016406 
L 901.354688 -312.016406 
L 896.15593 -301.921116 
L 890.957172 -255.924139 
L 885.758414 -197.970218 
L 880.559656 -150.729163 
L 875.360899 -126.98573 
L 870.162141 -132.899177 
L 864.963383 -170.273571 
L 859.764625 -223.561685 
L 854.565868 -282.221303 
L 849.36711 -311.954559 
L 844.168352 -302.553006 
L 838.969594 -256.225552 
L 833.770837 -198.192723 
L 828.572079 -151.314399 
L 823.373321 -127.654079 
L 818.174563 -130.741319 
L 812.975806 -167.192291 
L 807.777048 -224.489508 
L 802.57829 -281.753923 
L 797.379532 -312.060991 
L 792.180774 -302.820876 
L 786.982017 -261.124075 
L 781.783259 -204.497778 
L 776.584501 -150.531627 
L 771.385743 -123.086361 
L 766.186986 -129.25615 
L 760.988228 -167.753997 
L 755.78947 -227.091692 
L 750.590712 -283.723583 
L 745.391955 -312.398197 
L 740.193197 -304.327502 
L 734.994439 -258.236589 
L 729.795681 -200.020649 
L 724.596924 -153.108743 
L 719.398166 -124.084831 
L 714.199408 -129.74364 
L 709.00065 -168.446094 
L 703.801892 -220.552139 
L 698.603135 -278.498913 
L 693.404377 -311.862309 
L 688.205619 -307.560108 
L 683.006861 -266.704754 
L 677.808104 -207.74121 
L 672.609346 -152.161399 
L 667.410588 -131.618268 
L 662.21183 -137.551509 
L 657.013073 -174.128179 
L 651.814315 -229.401711 
L 646.615557 -283.720649 
L 641.416799 -311.756833 
L 636.218042 -305.695144 
L 631.019284 -259.321355 
L 625.820526 -199.774516 
L 620.621768 -143.704086 
L 615.42301 -114.652372 
L 610.224253 -114.270381 
L 605.025495 -144.397677 
L 599.826737 -207.46424 
L 594.627979 -281.544847 
L 589.429222 -312.808129 
L 584.230464 -305.087653 
L 579.031706 -247.99128 
L 573.832948 -172.18473 
L 568.634191 -116.849855 
L 563.435433 -81.244819 
L 558.236675 -67.142567 
L 553.037917 -67.142567 
L 547.83916 -67.142567 
L 542.640402 -67.142567 
L 537.441644 -67.142567 
z
" id="m703c787158"/>
    </defs>
    <g clip-path="url(#p241615bd9d)">
     <use style="fill:#ffa035;" x="0" xlink:href="#m703c787158" y="339.573438"/>
    </g>
   </g>
   <g id="PolyCollection_6">
    <defs>
     <path d="M 537.441644 -67.142567 
L 537.441644 -67.142567 
L 542.640402 -67.142567 
L 547.83916 -67.142567 
L 553.037917 -67.142567 
L 558.236675 -67.142567 
L 563.435433 -67.142567 
L 568.634191 -67.142567 
L 573.832948 -67.142567 
L 579.031706 -67.142567 
L 584.230464 -67.142567 
L 589.429222 -67.142567 
L 594.627979 -67.142567 
L 599.826737 -66.927983 
L 605.025495 -67.962816 
L 610.224253 -68.97226 
L 615.42301 -78.240305 
L 620.621768 -91.402796 
L 625.820526 -117.765451 
L 631.019284 -144.906589 
L 636.218042 -165.867799 
L 641.416799 -166.357164 
L 646.615557 -154.602163 
L 651.814315 -131.48068 
L 657.013073 -109.949839 
L 662.21183 -96.732269 
L 667.410588 -98.862339 
L 672.609346 -115.350671 
L 677.808104 -153.349979 
L 683.006861 -197.236008 
L 688.205619 -224.687551 
L 693.404377 -227.465774 
L 698.603135 -203.790354 
L 703.801892 -162.001687 
L 709.00065 -127.100657 
L 714.199408 -104.14308 
L 719.398166 -103.628121 
L 724.596924 -129.23477 
L 729.795681 -168.729304 
L 734.994439 -219.132484 
L 740.193197 -261.542305 
L 745.391955 -267.983786 
L 750.590712 -242.13533 
L 755.78947 -192.486344 
L 760.988228 -143.476245 
L 766.186986 -112.713165 
L 771.385743 -110.721274 
L 776.584501 -136.003335 
L 781.783259 -184.92758 
L 786.982017 -238.605592 
L 792.180774 -278.879443 
L 797.379532 -288.925414 
L 802.57829 -257.970141 
L 807.777048 -203.438508 
L 812.975806 -153.03433 
L 818.174563 -120.090099 
L 823.373321 -118.786287 
L 828.572079 -142.278486 
L 833.770837 -187.131061 
L 838.969594 -243.755086 
L 844.168352 -289.688502 
L 849.36711 -299.775922 
L 854.565868 -269.122112 
L 859.764625 -210.933807 
L 864.963383 -160.256212 
L 870.162141 -125.963797 
L 875.360899 -121.387508 
L 880.559656 -145.039245 
L 885.758414 -190.827793 
L 890.957172 -248.554558 
L 896.15593 -295.432465 
L 901.354688 -305.502507 
L 901.354688 -306.752554 
L 901.354688 -306.752554 
L 896.15593 -297.648331 
L 890.957172 -252.637087 
L 885.758414 -195.771034 
L 880.559656 -149.605809 
L 875.360899 -125.856433 
L 870.162141 -131.000238 
L 864.963383 -166.704385 
L 859.764625 -217.410454 
L 854.565868 -273.693914 
L 849.36711 -301.976141 
L 844.168352 -293.192957 
L 838.969594 -249.362822 
L 833.770837 -193.721063 
L 828.572079 -148.686447 
L 823.373321 -125.206326 
L 818.174563 -127.119525 
L 812.975806 -160.932287 
L 807.777048 -212.280018 
L 802.57829 -264.408176 
L 797.379532 -292.832562 
L 792.180774 -283.993847 
L 786.982017 -246.49571 
L 781.783259 -193.887225 
L 776.584501 -144.395744 
L 771.385743 -118.174687 
L 766.186986 -120.853789 
L 760.988228 -154.227499 
L 755.78947 -203.975037 
L 750.590712 -251.280215 
L 745.391955 -274.733673 
L 740.193197 -269.117292 
L 734.994439 -229.456952 
L 729.795681 -180.555203 
L 724.596924 -139.96139 
L 719.398166 -113.635537 
L 714.199408 -114.766042 
L 709.00065 -140.156368 
L 703.801892 -175.163615 
L 698.603135 -217.255576 
L 693.404377 -238.732435 
L 688.205619 -236.261346 
L 683.006861 -211.261748 
L 677.808104 -167.887606 
L 672.609346 -127.743486 
L 667.410588 -109.417475 
L 662.21183 -108.510818 
L 657.013073 -122.956921 
L 651.814315 -146.535315 
L 646.615557 -170.777833 
L 641.416799 -182.73759 
L 636.218042 -181.838714 
L 631.019284 -159.648972 
L 625.820526 -132.528309 
L 620.621768 -101.661037 
L 615.42301 -86.430517 
L 610.224253 -73.476877 
L 605.025495 -71.238901 
L 599.826737 -68.975536 
L 594.627979 -67.142567 
L 589.429222 -67.142567 
L 584.230464 -67.142567 
L 579.031706 -67.142567 
L 573.832948 -67.142567 
L 568.634191 -67.142567 
L 563.435433 -67.142567 
L 558.236675 -67.142567 
L 553.037917 -67.142567 
L 547.83916 -67.142567 
L 542.640402 -67.142567 
L 537.441644 -67.142567 
z
" id="m587aca82af"/>
    </defs>
    <g clip-path="url(#p241615bd9d)">
     <use style="fill:#47d200;" x="0" xlink:href="#m587aca82af" y="339.573438"/>
    </g>
   </g>
   <g id="matplotlib.axis_3">
    <g id="xtick_9">
     <g id="line2d_38">
      <path clip-path="url(#p241615bd9d)" d="M 537.441644 285 
L 537.441644 13.2 
" style="fill:none;stroke:#b0b0b0;stroke-linecap:square;stroke-width:0.8;"/>
     </g>
     <g id="line2d_39">
      <g>
       <use x="537.441644" xlink:href="#m5af5f7d367" y="285"/>
      </g>
     </g>
     <g id="text_20">
      <!-- 0 -->
      <g transform="translate(532.669769 305.897656)scale(0.15 -0.15)">
       <use xlink:href="#DejaVuSans-30"/>
      </g>
     </g>
    </g>
    <g id="xtick_10">
     <g id="line2d_40">
      <path clip-path="url(#p241615bd9d)" d="M 589.429222 285 
L 589.429222 13.2 
" style="fill:none;stroke:#b0b0b0;stroke-linecap:square;stroke-width:0.8;"/>
     </g>
     <g id="line2d_41">
      <g>
       <use x="589.429222" xlink:href="#m5af5f7d367" y="285"/>
      </g>
     </g>
     <g id="text_21">
      <!-- 1 -->
      <g transform="translate(584.657347 305.897656)scale(0.15 -0.15)">
       <use xlink:href="#DejaVuSans-31"/>
      </g>
     </g>
    </g>
    <g id="xtick_11">
     <g id="line2d_42">
      <path clip-path="url(#p241615bd9d)" d="M 641.416799 285 
L 641.416799 13.2 
" style="fill:none;stroke:#b0b0b0;stroke-linecap:square;stroke-width:0.8;"/>
     </g>
     <g id="line2d_43">
      <g>
       <use x="641.416799" xlink:href="#m5af5f7d367" y="285"/>
      </g>
     </g>
     <g id="text_22">
      <!-- 2 -->
      <g transform="translate(636.644924 305.897656)scale(0.15 -0.15)">
       <use xlink:href="#DejaVuSans-32"/>
      </g>
     </g>
    </g>
    <g id="xtick_12">
     <g id="line2d_44">
      <path clip-path="url(#p241615bd9d)" d="M 693.404377 285 
L 693.404377 13.2 
" style="fill:none;stroke:#b0b0b0;stroke-linecap:square;stroke-width:0.8;"/>
     </g>
     <g id="line2d_45">
      <g>
       <use x="693.404377" xlink:href="#m5af5f7d367" y="285"/>
      </g>
     </g>
     <g id="text_23">
      <!-- 3 -->
      <g transform="translate(688.632502 305.897656)scale(0.15 -0.15)">
       <use xlink:href="#DejaVuSans-33"/>
      </g>
     </g>
    </g>
    <g id="xtick_13">
     <g id="line2d_46">
      <path clip-path="url(#p241615bd9d)" d="M 745.391955 285 
L 745.391955 13.2 
" style="fill:none;stroke:#b0b0b0;stroke-linecap:square;stroke-width:0.8;"/>
     </g>
     <g id="line2d_47">
      <g>
       <use x="745.391955" xlink:href="#m5af5f7d367" y="285"/>
      </g>
     </g>
     <g id="text_24">
      <!-- 4 -->
      <g transform="translate(740.62008 305.897656)scale(0.15 -0.15)">
       <use xlink:href="#DejaVuSans-34"/>
      </g>
     </g>
    </g>
    <g id="xtick_14">
     <g id="line2d_48">
      <path clip-path="url(#p241615bd9d)" d="M 797.379532 285 
L 797.379532 13.2 
" style="fill:none;stroke:#b0b0b0;stroke-linecap:square;stroke-width:0.8;"/>
     </g>
     <g id="line2d_49">
      <g>
       <use x="797.379532" xlink:href="#m5af5f7d367" y="285"/>
      </g>
     </g>
     <g id="text_25">
      <!-- 5 -->
      <g transform="translate(792.607657 305.897656)scale(0.15 -0.15)">
       <use xlink:href="#DejaVuSans-35"/>
      </g>
     </g>
    </g>
    <g id="xtick_15">
     <g id="line2d_50">
      <path clip-path="url(#p241615bd9d)" d="M 849.36711 285 
L 849.36711 13.2 
" style="fill:none;stroke:#b0b0b0;stroke-linecap:square;stroke-width:0.8;"/>
     </g>
     <g id="line2d_51">
      <g>
       <use x="849.36711" xlink:href="#m5af5f7d367" y="285"/>
      </g>
     </g>
     <g id="text_26">
      <!-- 6 -->
      <g transform="translate(844.595235 305.897656)scale(0.15 -0.15)">
       <use xlink:href="#DejaVuSans-36"/>
      </g>
     </g>
    </g>
    <g id="xtick_16">
     <g id="line2d_52">
      <path clip-path="url(#p241615bd9d)" d="M 901.354688 285 
L 901.354688 13.2 
" style="fill:none;stroke:#b0b0b0;stroke-linecap:square;stroke-width:0.8;"/>
     </g>
     <g id="line2d_53">
      <g>
       <use x="901.354688" xlink:href="#m5af5f7d367" y="285"/>
      </g>
     </g>
     <g id="text_27">
      <!-- 7 -->
      <g transform="translate(896.582813 305.897656)scale(0.15 -0.15)">
       <use xlink:href="#DejaVuSans-37"/>
      </g>
     </g>
    </g>
    <g id="text_28">
     <!-- $t/\tau$ -->
     <g transform="translate(705.998166 328.214063)scale(0.2 -0.2)">
      <use transform="translate(0 0.09375)" xlink:href="#DejaVuSans-Oblique-74"/>
      <use transform="translate(39.208984 0.09375)" xlink:href="#DejaVuSans-2f"/>
      <use transform="translate(72.900391 0.09375)" xlink:href="#DejaVuSans-Oblique-3c4"/>
     </g>
    </g>
   </g>
   <g id="matplotlib.axis_4">
    <g id="ytick_7">
     <g id="line2d_54">
      <path clip-path="url(#p241615bd9d)" d="M 537.441644 272.430871 
L 901.354688 272.430871 
" style="fill:none;stroke:#b0b0b0;stroke-linecap:square;stroke-width:0.8;"/>
     </g>
     <g id="line2d_55">
      <g>
       <use x="537.441644" xlink:href="#m6bc9f51e6a" y="272.430871"/>
      </g>
     </g>
     <g id="text_29">
      <!-- 0.00 -->
      <g transform="translate(494.543207 278.129699)scale(0.15 -0.15)">
       <use xlink:href="#DejaVuSans-30"/>
       <use x="63.623047" xlink:href="#DejaVuSans-2e"/>
       <use x="95.410156" xlink:href="#DejaVuSans-30"/>
       <use x="159.033203" xlink:href="#DejaVuSans-30"/>
      </g>
     </g>
    </g>
    <g id="ytick_8">
     <g id="line2d_56">
      <path clip-path="url(#p241615bd9d)" d="M 537.441644 233.11785 
L 901.354688 233.11785 
" style="fill:none;stroke:#b0b0b0;stroke-linecap:square;stroke-width:0.8;"/>
     </g>
     <g id="line2d_57">
      <g>
       <use x="537.441644" xlink:href="#m6bc9f51e6a" y="233.11785"/>
      </g>
     </g>
     <g id="text_30">
      <!-- 0.02 -->
      <g transform="translate(494.543207 238.816678)scale(0.15 -0.15)">
       <use xlink:href="#DejaVuSans-30"/>
       <use x="63.623047" xlink:href="#DejaVuSans-2e"/>
       <use x="95.410156" xlink:href="#DejaVuSans-30"/>
       <use x="159.033203" xlink:href="#DejaVuSans-32"/>
      </g>
     </g>
    </g>
    <g id="ytick_9">
     <g id="line2d_58">
      <path clip-path="url(#p241615bd9d)" d="M 537.441644 193.80483 
L 901.354688 193.80483 
" style="fill:none;stroke:#b0b0b0;stroke-linecap:square;stroke-width:0.8;"/>
     </g>
     <g id="line2d_59">
      <g>
       <use x="537.441644" xlink:href="#m6bc9f51e6a" y="193.80483"/>
      </g>
     </g>
     <g id="text_31">
      <!-- 0.04 -->
      <g transform="translate(494.543207 199.503658)scale(0.15 -0.15)">
       <use xlink:href="#DejaVuSans-30"/>
       <use x="63.623047" xlink:href="#DejaVuSans-2e"/>
       <use x="95.410156" xlink:href="#DejaVuSans-30"/>
       <use x="159.033203" xlink:href="#DejaVuSans-34"/>
      </g>
     </g>
    </g>
    <g id="ytick_10">
     <g id="line2d_60">
      <path clip-path="url(#p241615bd9d)" d="M 537.441644 154.491809 
L 901.354688 154.491809 
" style="fill:none;stroke:#b0b0b0;stroke-linecap:square;stroke-width:0.8;"/>
     </g>
     <g id="line2d_61">
      <g>
       <use x="537.441644" xlink:href="#m6bc9f51e6a" y="154.491809"/>
      </g>
     </g>
     <g id="text_32">
      <!-- 0.06 -->
      <g transform="translate(494.543207 160.190637)scale(0.15 -0.15)">
       <use xlink:href="#DejaVuSans-30"/>
       <use x="63.623047" xlink:href="#DejaVuSans-2e"/>
       <use x="95.410156" xlink:href="#DejaVuSans-30"/>
       <use x="159.033203" xlink:href="#DejaVuSans-36"/>
      </g>
     </g>
    </g>
    <g id="ytick_11">
     <g id="line2d_62">
      <path clip-path="url(#p241615bd9d)" d="M 537.441644 115.178788 
L 901.354688 115.178788 
" style="fill:none;stroke:#b0b0b0;stroke-linecap:square;stroke-width:0.8;"/>
     </g>
     <g id="line2d_63">
      <g>
       <use x="537.441644" xlink:href="#m6bc9f51e6a" y="115.178788"/>
      </g>
     </g>
     <g id="text_33">
      <!-- 0.08 -->
      <g transform="translate(494.543207 120.877617)scale(0.15 -0.15)">
       <use xlink:href="#DejaVuSans-30"/>
       <use x="63.623047" xlink:href="#DejaVuSans-2e"/>
       <use x="95.410156" xlink:href="#DejaVuSans-30"/>
       <use x="159.033203" xlink:href="#DejaVuSans-38"/>
      </g>
     </g>
    </g>
    <g id="ytick_12">
     <g id="line2d_64">
      <path clip-path="url(#p241615bd9d)" d="M 537.441644 75.865768 
L 901.354688 75.865768 
" style="fill:none;stroke:#b0b0b0;stroke-linecap:square;stroke-width:0.8;"/>
     </g>
     <g id="line2d_65">
      <g>
       <use x="537.441644" xlink:href="#m6bc9f51e6a" y="75.865768"/>
      </g>
     </g>
     <g id="text_34">
      <!-- 0.10 -->
      <g transform="translate(494.543207 81.564596)scale(0.15 -0.15)">
       <use xlink:href="#DejaVuSans-30"/>
       <use x="63.623047" xlink:href="#DejaVuSans-2e"/>
       <use x="95.410156" xlink:href="#DejaVuSans-31"/>
       <use x="159.033203" xlink:href="#DejaVuSans-30"/>
      </g>
     </g>
    </g>
    <g id="ytick_13">
     <g id="line2d_66">
      <path clip-path="url(#p241615bd9d)" d="M 537.441644 36.552747 
L 901.354688 36.552747 
" style="fill:none;stroke:#b0b0b0;stroke-linecap:square;stroke-width:0.8;"/>
     </g>
     <g id="line2d_67">
      <g>
       <use x="537.441644" xlink:href="#m6bc9f51e6a" y="36.552747"/>
      </g>
     </g>
     <g id="text_35">
      <!-- 0.12 -->
      <g transform="translate(494.543207 42.251575)scale(0.15 -0.15)">
       <use xlink:href="#DejaVuSans-30"/>
       <use x="63.623047" xlink:href="#DejaVuSans-2e"/>
       <use x="95.410156" xlink:href="#DejaVuSans-31"/>
       <use x="159.033203" xlink:href="#DejaVuSans-32"/>
      </g>
     </g>
    </g>
    <g id="text_36">
     <!-- $C_V^2(s)$ -->
     <defs>
      <path d="M 69.484375 67.28125 
L 67.484375 56.890625 
Q 62.796875 61.625 57.546875 63.921875 
Q 52.296875 66.21875 46.1875 66.21875 
Q 37.84375 66.21875 31.515625 62.203125 
Q 25.203125 58.203125 20.609375 50 
Q 17.671875 44.734375 16.125 38.84375 
Q 14.59375 32.953125 14.59375 27 
Q 14.59375 17.046875 19.75 11.8125 
Q 24.90625 6.59375 34.71875 6.59375 
Q 41.5 6.59375 47.75 8.765625 
Q 54 10.9375 59.90625 15.28125 
L 57.625 3.609375 
Q 51.8125 1.125 45.875 -0.140625 
Q 39.9375 -1.421875 33.984375 -1.421875 
Q 19.96875 -1.421875 12.078125 6.1875 
Q 4.203125 13.8125 4.203125 27.390625 
Q 4.203125 36.078125 7.203125 44.46875 
Q 10.203125 52.875 15.828125 59.8125 
Q 21.78125 67.1875 29.421875 70.703125 
Q 37.0625 74.21875 47.21875 74.21875 
Q 53.46875 74.21875 59.0625 72.484375 
Q 64.65625 70.75 69.484375 67.28125 
z
" id="DejaVuSans-Oblique-43"/>
      <path d="M 20.609375 0 
L 7.8125 72.90625 
L 17.484375 72.90625 
L 28.078125 10.203125 
L 63.484375 72.90625 
L 74.21875 72.90625 
L 32.078125 0 
z
" id="DejaVuSans-Oblique-56"/>
     </defs>
     <g transform="translate(484.943207 174.6)rotate(-90)scale(0.2 -0.2)">
      <use transform="translate(0 0.765625)" xlink:href="#DejaVuSans-Oblique-43"/>
      <use transform="translate(77.02474 39.046875)scale(0.7)" xlink:href="#DejaVuSans-32"/>
      <use transform="translate(69.824219 -26.578125)scale(0.7)" xlink:href="#DejaVuSans-Oblique-56"/>
      <use transform="translate(124.295247 0.765625)" xlink:href="#DejaVuSans-28"/>
      <use transform="translate(163.308919 0.765625)" xlink:href="#DejaVuSans-Oblique-73"/>
      <use transform="translate(215.408529 0.765625)" xlink:href="#DejaVuSans-29"/>
     </g>
    </g>
   </g>
   <g id="line2d_68">
    <path clip-path="url(#p241615bd9d)" d="M 537.441644 272.430871 
L 542.640402 272.430871 
L 547.83916 272.34815 
L 553.037917 272.182708 
L 558.236675 271.226257 
L 563.435433 267.844868 
L 568.634191 253.437311 
L 573.832948 221.681659 
L 579.031706 169.200898 
L 584.230464 100.970203 
L 589.429222 42.894534 
L 594.627979 29.16076 
L 599.826737 70.045904 
L 605.025495 141.437816 
L 610.224253 203.369986 
L 615.42301 231.958208 
L 620.621768 229.578078 
L 625.820526 200.678019 
L 631.019284 152.839641 
L 636.218042 94.327739 
L 641.416799 44.077464 
L 646.615557 27.386669 
L 651.814315 58.67636 
L 657.013073 120.922103 
L 662.21183 178.313232 
L 667.410588 215.364769 
L 672.609346 218.949606 
L 677.808104 195.954059 
L 683.006861 149.811177 
L 688.205619 93.18652 
L 693.404377 44.965893 
L 698.603135 26.646367 
L 703.801892 57.225946 
L 709.00065 121.052089 
L 714.199408 174.137316 
L 719.398166 214.138564 
L 724.596924 214.9349 
L 729.795681 193.541957 
L 734.994439 146.063139 
L 740.193197 87.869391 
L 745.391955 41.229969 
L 750.590712 26.836689 
L 755.78947 53.312629 
L 760.988228 110.76037 
L 766.186986 168.522052 
L 771.385743 211.531185 
L 776.584501 216.647607 
L 781.783259 190.83327 
L 786.982017 144.238816 
L 792.180774 92.067273 
L 797.379532 43.914178 
L 802.57829 26.495066 
L 807.777048 57.062032 
L 812.975806 117.400552 
L 818.174563 180.830518 
L 823.373321 217.875122 
L 828.572079 219.839625 
L 833.770837 191.625489 
L 838.969594 150.444188 
L 844.168352 93.50758 
L 849.36711 44.92757 
L 854.565868 26.085397 
L 859.764625 50.348385 
L 864.963383 106.640108 
L 870.162141 171.891539 
L 875.360899 210.887653 
L 880.559656 215.122834 
L 885.758414 192.808237 
L 890.957172 149.863407 
L 896.15593 93.806641 
L 901.354688 44.813007 
" style="fill:none;stroke:#1f77b4;stroke-linecap:square;stroke-width:3;"/>
   </g>
   <g id="line2d_69">
    <path clip-path="url(#p241615bd9d)" d="M 537.441644 272.430871 
L 542.640402 272.430871 
L 547.83916 272.430871 
L 553.037917 272.430871 
L 558.236675 272.430871 
L 563.435433 262.787072 
L 568.634191 231.716121 
L 573.832948 178.785575 
L 579.031706 103.266684 
L 584.230464 40.561754 
L 589.429222 29.949795 
L 594.627979 69.97829 
L 599.826737 147.837599 
L 605.025495 209.274598 
L 610.224253 236.674269 
L 615.42301 233.167587 
L 620.621768 204.608628 
L 625.820526 149.515323 
L 631.019284 88.190969 
L 636.218042 37.806166 
L 641.416799 30.239356 
L 646.615557 63.99976 
L 651.814315 121.23691 
L 657.013073 176.325763 
L 662.21183 211.433315 
L 667.410588 215.407615 
L 672.609346 193.549624 
L 677.808104 138.351627 
L 683.006861 79.129156 
L 688.205619 35.629979 
L 693.404377 28.999662 
L 698.603135 66.591493 
L 703.801892 127.100946 
L 709.00065 179.055252 
L 714.199408 216.560974 
L 719.398166 220.637218 
L 724.596924 191.424539 
L 729.795681 144.482626 
L 734.994439 85.234207 
L 740.193197 37.306131 
L 745.391955 28.15687 
L 750.590712 59.464302 
L 755.78947 118.108042 
L 760.988228 177.318024 
L 766.186986 214.838717 
L 771.385743 220.22479 
L 776.584501 192.525127 
L 781.783259 138.541789 
L 786.982017 81.309424 
L 792.180774 38.177304 
L 797.379532 28.135454 
L 802.57829 60.488502 
L 807.777048 119.077714 
L 812.975806 176.192646 
L 818.174563 211.99358 
L 823.373321 214.729263 
L 828.572079 190.721732 
L 833.770837 143.767456 
L 838.969594 85.344262 
L 844.168352 38.139406 
L 849.36711 28.037501 
L 854.565868 59.188492 
L 859.764625 118.918734 
L 864.963383 172.094045 
L 870.162141 209.131181 
L 875.360899 214.591093 
L 880.559656 190.604049 
L 885.758414 143.35156 
L 890.957172 85.127024 
L 896.15593 38.46043 
L 901.354688 27.853313 
" style="fill:none;stroke:#ff7f0e;stroke-linecap:square;stroke-width:3;"/>
   </g>
   <g id="line2d_70">
    <path clip-path="url(#p241615bd9d)" d="M 537.441644 272.430871 
L 542.640402 272.430871 
L 547.83916 272.430871 
L 553.037917 272.430871 
L 558.236675 272.430871 
L 563.435433 272.430871 
L 568.634191 272.430871 
L 573.832948 272.430871 
L 579.031706 272.430871 
L 584.230464 272.430871 
L 589.429222 272.430871 
L 594.627979 272.430871 
L 599.826737 271.621678 
L 605.025495 269.972579 
L 610.224253 268.348869 
L 615.42301 257.238027 
L 620.621768 243.041521 
L 625.820526 214.426558 
L 631.019284 187.295657 
L 636.218042 165.720181 
L 641.416799 165.026061 
L 646.615557 176.88344 
L 651.814315 200.56544 
L 657.013073 223.120057 
L 662.21183 236.951894 
L 667.410588 235.433531 
L 672.609346 218.026359 
L 677.808104 178.954645 
L 683.006861 135.324559 
L 688.205619 109.098989 
L 693.404377 106.474333 
L 698.603135 129.050473 
L 703.801892 170.990786 
L 709.00065 205.944925 
L 714.199408 230.118876 
L 719.398166 230.941608 
L 724.596924 204.975357 
L 729.795681 164.931184 
L 734.994439 115.278719 
L 740.193197 74.243639 
L 745.391955 68.214708 
L 750.590712 92.865665 
L 755.78947 141.342747 
L 760.988228 190.721566 
L 766.186986 222.78996 
L 771.385743 225.125457 
L 776.584501 199.373898 
L 781.783259 150.166035 
L 786.982017 97.022787 
L 792.180774 58.136792 
L 797.379532 48.69445 
L 802.57829 78.384279 
L 807.777048 131.714175 
L 812.975806 182.590129 
L 818.174563 215.968625 
L 823.373321 217.577131 
L 828.572079 194.090971 
L 833.770837 149.147376 
L 838.969594 93.014484 
L 844.168352 48.132708 
L 849.36711 38.697406 
L 854.565868 68.165424 
L 859.764625 125.401307 
L 864.963383 176.093139 
L 870.162141 211.09142 
L 875.360899 215.951467 
L 880.559656 192.250911 
L 885.758414 146.274024 
L 890.957172 88.977615 
L 896.15593 43.033039 
L 901.354688 33.445907 
" style="fill:none;stroke:#2ca02c;stroke-linecap:square;stroke-width:3;"/>
   </g>
   <g id="patch_9">
    <path d="M 537.441644 285 
L 537.441644 13.2 
" style="fill:none;stroke:#000000;stroke-linecap:square;stroke-linejoin:miter;stroke-width:2;"/>
   </g>
   <g id="patch_10">
    <path d="M 901.354688 285 
L 901.354688 13.2 
" style="fill:none;"/>
   </g>
   <g id="patch_11">
    <path d="M 537.441644 285 
L 901.354688 285 
" style="fill:none;stroke:#000000;stroke-linecap:square;stroke-linejoin:miter;stroke-width:2;"/>
   </g>
   <g id="patch_12">
    <path d="M 537.441644 13.2 
L 901.354688 13.2 
" style="fill:none;"/>
   </g>
  </g>
 </g>
 <defs>
  <clipPath id="pc1bfc35651">
   <rect height="271.8" width="363.913043" x="64.354687" y="13.2"/>
  </clipPath>
  <clipPath id="p241615bd9d">
   <rect height="271.8" width="363.913043" x="537.441644" y="13.2"/>
  </clipPath>
 </defs>
</svg>
