<?xml version="1.0" encoding="utf-8" standalone="no"?>
<!DOCTYPE svg PUBLIC "-//W3C//DTD SVG 1.1//EN"
  "http://www.w3.org/Graphics/SVG/1.1/DTD/svg11.dtd">
<!-- Created with matplotlib (http://matplotlib.org/) -->
<svg height="280.374375pt" version="1.1" viewBox="0 0 419.974219 280.374375" width="419.974219pt" xmlns="http://www.w3.org/2000/svg" xmlns:xlink="http://www.w3.org/1999/xlink">
 <defs>
  <style type="text/css">
*{stroke-linecap:butt;stroke-linejoin:round;}
  </style>
 </defs>
 <g id="figure_1">
  <g id="patch_1">
   <path d="M 0 280.374375 
L 419.974219 280.374375 
L 419.974219 0 
L 0 0 
z
" style="fill:#ffffff;"/>
  </g>
  <g id="axes_1">
   <g id="patch_2">
    <path d="M 71.974219 230.64 
L 406.774219 230.64 
L 406.774219 13.2 
L 71.974219 13.2 
z
" style="fill:#ffffff;"/>
   </g>
   <g id="matplotlib.axis_1">
    <g id="xtick_1">
     <g id="line2d_1">
      <path clip-path="url(#p715df48b3a)" d="M 87.192401 230.64 
L 87.192401 13.2 
" style="fill:none;stroke:#b0b0b0;stroke-linecap:square;stroke-width:0.8;"/>
     </g>
     <g id="line2d_2">
      <defs>
       <path d="M 0 0 
L 0 6 
" id="mde33d56418"/>
      </defs>
      <g>
       <use x="87.192401" xlink:href="#mde33d56418" y="230.64"/>
      </g>
     </g>
     <g id="text_1">
      <!-- 0 -->
      <defs>
       <path d="M 31.78125 66.40625 
Q 24.171875 66.40625 20.328125 58.90625 
Q 16.5 51.421875 16.5 36.375 
Q 16.5 21.390625 20.328125 13.890625 
Q 24.171875 6.390625 31.78125 6.390625 
Q 39.453125 6.390625 43.28125 13.890625 
Q 47.125 21.390625 47.125 36.375 
Q 47.125 51.421875 43.28125 58.90625 
Q 39.453125 66.40625 31.78125 66.40625 
z
M 31.78125 74.21875 
Q 44.046875 74.21875 50.515625 64.515625 
Q 56.984375 54.828125 56.984375 36.375 
Q 56.984375 17.96875 50.515625 8.265625 
Q 44.046875 -1.421875 31.78125 -1.421875 
Q 19.53125 -1.421875 13.0625 8.265625 
Q 6.59375 17.96875 6.59375 36.375 
Q 6.59375 54.828125 13.0625 64.515625 
Q 19.53125 74.21875 31.78125 74.21875 
z
" id="DejaVuSans-30"/>
      </defs>
      <g transform="translate(82.420526 251.537656)scale(0.15 -0.15)">
       <use xlink:href="#DejaVuSans-30"/>
      </g>
     </g>
    </g>
    <g id="xtick_2">
     <g id="line2d_3">
      <path clip-path="url(#p715df48b3a)" d="M 149.307428 230.64 
L 149.307428 13.2 
" style="fill:none;stroke:#b0b0b0;stroke-linecap:square;stroke-width:0.8;"/>
     </g>
     <g id="line2d_4">
      <g>
       <use x="149.307428" xlink:href="#mde33d56418" y="230.64"/>
      </g>
     </g>
     <g id="text_2">
      <!-- 1 -->
      <defs>
       <path d="M 12.40625 8.296875 
L 28.515625 8.296875 
L 28.515625 63.921875 
L 10.984375 60.40625 
L 10.984375 69.390625 
L 28.421875 72.90625 
L 38.28125 72.90625 
L 38.28125 8.296875 
L 54.390625 8.296875 
L 54.390625 0 
L 12.40625 0 
z
" id="DejaVuSans-31"/>
      </defs>
      <g transform="translate(144.535553 251.537656)scale(0.15 -0.15)">
       <use xlink:href="#DejaVuSans-31"/>
      </g>
     </g>
    </g>
    <g id="xtick_3">
     <g id="line2d_5">
      <path clip-path="url(#p715df48b3a)" d="M 211.422456 230.64 
L 211.422456 13.2 
" style="fill:none;stroke:#b0b0b0;stroke-linecap:square;stroke-width:0.8;"/>
     </g>
     <g id="line2d_6">
      <g>
       <use x="211.422456" xlink:href="#mde33d56418" y="230.64"/>
      </g>
     </g>
     <g id="text_3">
      <!-- 2 -->
      <defs>
       <path d="M 19.1875 8.296875 
L 53.609375 8.296875 
L 53.609375 0 
L 7.328125 0 
L 7.328125 8.296875 
Q 12.9375 14.109375 22.625 23.890625 
Q 32.328125 33.6875 34.8125 36.53125 
Q 39.546875 41.84375 41.421875 45.53125 
Q 43.3125 49.21875 43.3125 52.78125 
Q 43.3125 58.59375 39.234375 62.25 
Q 35.15625 65.921875 28.609375 65.921875 
Q 23.96875 65.921875 18.8125 64.3125 
Q 13.671875 62.703125 7.8125 59.421875 
L 7.8125 69.390625 
Q 13.765625 71.78125 18.9375 73 
Q 24.125 74.21875 28.421875 74.21875 
Q 39.75 74.21875 46.484375 68.546875 
Q 53.21875 62.890625 53.21875 53.421875 
Q 53.21875 48.921875 51.53125 44.890625 
Q 49.859375 40.875 45.40625 35.40625 
Q 44.1875 33.984375 37.640625 27.21875 
Q 31.109375 20.453125 19.1875 8.296875 
z
" id="DejaVuSans-32"/>
      </defs>
      <g transform="translate(206.650581 251.537656)scale(0.15 -0.15)">
       <use xlink:href="#DejaVuSans-32"/>
      </g>
     </g>
    </g>
    <g id="xtick_4">
     <g id="line2d_7">
      <path clip-path="url(#p715df48b3a)" d="M 273.537484 230.64 
L 273.537484 13.2 
" style="fill:none;stroke:#b0b0b0;stroke-linecap:square;stroke-width:0.8;"/>
     </g>
     <g id="line2d_8">
      <g>
       <use x="273.537484" xlink:href="#mde33d56418" y="230.64"/>
      </g>
     </g>
     <g id="text_4">
      <!-- 3 -->
      <defs>
       <path d="M 40.578125 39.3125 
Q 47.65625 37.796875 51.625 33 
Q 55.609375 28.21875 55.609375 21.1875 
Q 55.609375 10.40625 48.1875 4.484375 
Q 40.765625 -1.421875 27.09375 -1.421875 
Q 22.515625 -1.421875 17.65625 -0.515625 
Q 12.796875 0.390625 7.625 2.203125 
L 7.625 11.71875 
Q 11.71875 9.328125 16.59375 8.109375 
Q 21.484375 6.890625 26.8125 6.890625 
Q 36.078125 6.890625 40.9375 10.546875 
Q 45.796875 14.203125 45.796875 21.1875 
Q 45.796875 27.640625 41.28125 31.265625 
Q 36.765625 34.90625 28.71875 34.90625 
L 20.21875 34.90625 
L 20.21875 43.015625 
L 29.109375 43.015625 
Q 36.375 43.015625 40.234375 45.921875 
Q 44.09375 48.828125 44.09375 54.296875 
Q 44.09375 59.90625 40.109375 62.90625 
Q 36.140625 65.921875 28.71875 65.921875 
Q 24.65625 65.921875 20.015625 65.03125 
Q 15.375 64.15625 9.8125 62.3125 
L 9.8125 71.09375 
Q 15.4375 72.65625 20.34375 73.4375 
Q 25.25 74.21875 29.59375 74.21875 
Q 40.828125 74.21875 47.359375 69.109375 
Q 53.90625 64.015625 53.90625 55.328125 
Q 53.90625 49.265625 50.4375 45.09375 
Q 46.96875 40.921875 40.578125 39.3125 
z
" id="DejaVuSans-33"/>
      </defs>
      <g transform="translate(268.765609 251.537656)scale(0.15 -0.15)">
       <use xlink:href="#DejaVuSans-33"/>
      </g>
     </g>
    </g>
    <g id="xtick_5">
     <g id="line2d_9">
      <path clip-path="url(#p715df48b3a)" d="M 335.652512 230.64 
L 335.652512 13.2 
" style="fill:none;stroke:#b0b0b0;stroke-linecap:square;stroke-width:0.8;"/>
     </g>
     <g id="line2d_10">
      <g>
       <use x="335.652512" xlink:href="#mde33d56418" y="230.64"/>
      </g>
     </g>
     <g id="text_5">
      <!-- 4 -->
      <defs>
       <path d="M 37.796875 64.3125 
L 12.890625 25.390625 
L 37.796875 25.390625 
z
M 35.203125 72.90625 
L 47.609375 72.90625 
L 47.609375 25.390625 
L 58.015625 25.390625 
L 58.015625 17.1875 
L 47.609375 17.1875 
L 47.609375 0 
L 37.796875 0 
L 37.796875 17.1875 
L 4.890625 17.1875 
L 4.890625 26.703125 
z
" id="DejaVuSans-34"/>
      </defs>
      <g transform="translate(330.880637 251.537656)scale(0.15 -0.15)">
       <use xlink:href="#DejaVuSans-34"/>
      </g>
     </g>
    </g>
    <g id="xtick_6">
     <g id="line2d_11">
      <path clip-path="url(#p715df48b3a)" d="M 397.76754 230.64 
L 397.76754 13.2 
" style="fill:none;stroke:#b0b0b0;stroke-linecap:square;stroke-width:0.8;"/>
     </g>
     <g id="line2d_12">
      <g>
       <use x="397.76754" xlink:href="#mde33d56418" y="230.64"/>
      </g>
     </g>
     <g id="text_6">
      <!-- 5 -->
      <defs>
       <path d="M 10.796875 72.90625 
L 49.515625 72.90625 
L 49.515625 64.59375 
L 19.828125 64.59375 
L 19.828125 46.734375 
Q 21.96875 47.46875 24.109375 47.828125 
Q 26.265625 48.1875 28.421875 48.1875 
Q 40.625 48.1875 47.75 41.5 
Q 54.890625 34.8125 54.890625 23.390625 
Q 54.890625 11.625 47.5625 5.09375 
Q 40.234375 -1.421875 26.90625 -1.421875 
Q 22.3125 -1.421875 17.546875 -0.640625 
Q 12.796875 0.140625 7.71875 1.703125 
L 7.71875 11.625 
Q 12.109375 9.234375 16.796875 8.0625 
Q 21.484375 6.890625 26.703125 6.890625 
Q 35.15625 6.890625 40.078125 11.328125 
Q 45.015625 15.765625 45.015625 23.390625 
Q 45.015625 31 40.078125 35.4375 
Q 35.15625 39.890625 26.703125 39.890625 
Q 22.75 39.890625 18.8125 39.015625 
Q 14.890625 38.140625 10.796875 36.28125 
z
" id="DejaVuSans-35"/>
      </defs>
      <g transform="translate(392.995665 251.537656)scale(0.15 -0.15)">
       <use xlink:href="#DejaVuSans-35"/>
      </g>
     </g>
    </g>
    <g id="text_7">
     <!-- $t'/\tau$ -->
     <defs>
      <path d="M 42.28125 54.6875 
L 40.921875 47.703125 
L 23 47.703125 
L 17.1875 18.015625 
Q 16.890625 16.359375 16.75 15.234375 
Q 16.609375 14.109375 16.609375 13.484375 
Q 16.609375 10.359375 18.484375 8.9375 
Q 20.359375 7.515625 24.515625 7.515625 
L 33.59375 7.515625 
L 32.078125 0 
L 23.484375 0 
Q 15.484375 0 11.546875 3.125 
Q 7.625 6.25 7.625 12.59375 
Q 7.625 13.71875 7.765625 15.0625 
Q 7.90625 16.40625 8.203125 18.015625 
L 14.015625 47.703125 
L 6.390625 47.703125 
L 7.8125 54.6875 
L 15.28125 54.6875 
L 18.3125 70.21875 
L 27.296875 70.21875 
L 24.3125 54.6875 
z
" id="DejaVuSans-Oblique-74"/>
      <path d="M 3.515625 5.421875 
Q 2.875 5.609375 2.875 6.390625 
L 15.09375 51.8125 
Q 15.671875 53.65625 17.078125 54.78125 
Q 18.5 55.90625 20.3125 55.90625 
Q 22.65625 55.90625 24.4375 54.359375 
Q 26.21875 52.828125 26.21875 50.484375 
Q 26.21875 49.46875 25.6875 48.1875 
L 7.625 4.984375 
Q 7.28125 4.296875 6.6875 4.296875 
Q 6.15625 4.296875 5 4.78125 
Q 3.859375 5.28125 3.515625 5.421875 
z
" id="Cmsy10-30"/>
      <path d="M 25.390625 72.90625 
L 33.6875 72.90625 
L 8.296875 -9.28125 
L 0 -9.28125 
z
" id="DejaVuSans-2f"/>
      <path d="M 32.859375 9.96875 
Q 34.1875 7.625 39.453125 7.625 
L 43.75 7.625 
L 42.28125 0 
L 36.921875 0 
Q 28.125 0 25 4.6875 
Q 21.921875 9.46875 23.96875 19.828125 
L 29 45.703125 
L 8.453125 45.703125 
L 10.203125 54.6875 
L 60.640625 54.6875 
L 58.890625 45.703125 
L 38.1875 45.703125 
L 33.015625 19.28125 
Q 31.640625 12.203125 32.859375 9.96875 
z
" id="DejaVuSans-Oblique-3c4"/>
     </defs>
     <g transform="translate(227.224219 270.054844)scale(0.15 -0.15)">
      <use transform="translate(0 0.584375)" xlink:href="#DejaVuSans-Oblique-74"/>
      <use transform="translate(45.849505 38.865625)scale(0.7)" xlink:href="#Cmsy10-30"/>
      <use transform="translate(67.827044 0.584375)" xlink:href="#DejaVuSans-2f"/>
      <use transform="translate(101.518451 0.584375)" xlink:href="#DejaVuSans-Oblique-3c4"/>
     </g>
    </g>
   </g>
   <g id="matplotlib.axis_2">
    <g id="ytick_1">
     <g id="line2d_13">
      <path clip-path="url(#p715df48b3a)" d="M 71.974219 211.657106 
L 406.774219 211.657106 
" style="fill:none;stroke:#b0b0b0;stroke-linecap:square;stroke-width:0.8;"/>
     </g>
     <g id="line2d_14">
      <defs>
       <path d="M 0 0 
L -6 0 
" id="m9ef05fa161"/>
      </defs>
      <g>
       <use x="71.974219" xlink:href="#m9ef05fa161" y="211.657106"/>
      </g>
     </g>
     <g id="text_8">
      <!-- −0.2 -->
      <defs>
       <path d="M 10.59375 35.5 
L 73.1875 35.5 
L 73.1875 27.203125 
L 10.59375 27.203125 
z
" id="DejaVuSans-2212"/>
       <path d="M 10.6875 12.40625 
L 21 12.40625 
L 21 0 
L 10.6875 0 
z
" id="DejaVuSans-2e"/>
      </defs>
      <g transform="translate(26.05 217.355934)scale(0.15 -0.15)">
       <use xlink:href="#DejaVuSans-2212"/>
       <use x="83.789062" xlink:href="#DejaVuSans-30"/>
       <use x="147.412109" xlink:href="#DejaVuSans-2e"/>
       <use x="179.199219" xlink:href="#DejaVuSans-32"/>
      </g>
     </g>
    </g>
    <g id="ytick_2">
     <g id="line2d_15">
      <path clip-path="url(#p715df48b3a)" d="M 71.974219 180.228194 
L 406.774219 180.228194 
" style="fill:none;stroke:#b0b0b0;stroke-linecap:square;stroke-width:0.8;"/>
     </g>
     <g id="line2d_16">
      <g>
       <use x="71.974219" xlink:href="#m9ef05fa161" y="180.228194"/>
      </g>
     </g>
     <g id="text_9">
      <!-- 0.0 -->
      <g transform="translate(38.619531 185.927022)scale(0.15 -0.15)">
       <use xlink:href="#DejaVuSans-30"/>
       <use x="63.623047" xlink:href="#DejaVuSans-2e"/>
       <use x="95.410156" xlink:href="#DejaVuSans-30"/>
      </g>
     </g>
    </g>
    <g id="ytick_3">
     <g id="line2d_17">
      <path clip-path="url(#p715df48b3a)" d="M 71.974219 148.799283 
L 406.774219 148.799283 
" style="fill:none;stroke:#b0b0b0;stroke-linecap:square;stroke-width:0.8;"/>
     </g>
     <g id="line2d_18">
      <g>
       <use x="71.974219" xlink:href="#m9ef05fa161" y="148.799283"/>
      </g>
     </g>
     <g id="text_10">
      <!-- 0.2 -->
      <g transform="translate(38.619531 154.498111)scale(0.15 -0.15)">
       <use xlink:href="#DejaVuSans-30"/>
       <use x="63.623047" xlink:href="#DejaVuSans-2e"/>
       <use x="95.410156" xlink:href="#DejaVuSans-32"/>
      </g>
     </g>
    </g>
    <g id="ytick_4">
     <g id="line2d_19">
      <path clip-path="url(#p715df48b3a)" d="M 71.974219 117.370371 
L 406.774219 117.370371 
" style="fill:none;stroke:#b0b0b0;stroke-linecap:square;stroke-width:0.8;"/>
     </g>
     <g id="line2d_20">
      <g>
       <use x="71.974219" xlink:href="#m9ef05fa161" y="117.370371"/>
      </g>
     </g>
     <g id="text_11">
      <!-- 0.4 -->
      <g transform="translate(38.619531 123.069199)scale(0.15 -0.15)">
       <use xlink:href="#DejaVuSans-30"/>
       <use x="63.623047" xlink:href="#DejaVuSans-2e"/>
       <use x="95.410156" xlink:href="#DejaVuSans-34"/>
      </g>
     </g>
    </g>
    <g id="ytick_5">
     <g id="line2d_21">
      <path clip-path="url(#p715df48b3a)" d="M 71.974219 85.941459 
L 406.774219 85.941459 
" style="fill:none;stroke:#b0b0b0;stroke-linecap:square;stroke-width:0.8;"/>
     </g>
     <g id="line2d_22">
      <g>
       <use x="71.974219" xlink:href="#m9ef05fa161" y="85.941459"/>
      </g>
     </g>
     <g id="text_12">
      <!-- 0.6 -->
      <defs>
       <path d="M 33.015625 40.375 
Q 26.375 40.375 22.484375 35.828125 
Q 18.609375 31.296875 18.609375 23.390625 
Q 18.609375 15.53125 22.484375 10.953125 
Q 26.375 6.390625 33.015625 6.390625 
Q 39.65625 6.390625 43.53125 10.953125 
Q 47.40625 15.53125 47.40625 23.390625 
Q 47.40625 31.296875 43.53125 35.828125 
Q 39.65625 40.375 33.015625 40.375 
z
M 52.59375 71.296875 
L 52.59375 62.3125 
Q 48.875 64.0625 45.09375 64.984375 
Q 41.3125 65.921875 37.59375 65.921875 
Q 27.828125 65.921875 22.671875 59.328125 
Q 17.53125 52.734375 16.796875 39.40625 
Q 19.671875 43.65625 24.015625 45.921875 
Q 28.375 48.1875 33.59375 48.1875 
Q 44.578125 48.1875 50.953125 41.515625 
Q 57.328125 34.859375 57.328125 23.390625 
Q 57.328125 12.15625 50.6875 5.359375 
Q 44.046875 -1.421875 33.015625 -1.421875 
Q 20.359375 -1.421875 13.671875 8.265625 
Q 6.984375 17.96875 6.984375 36.375 
Q 6.984375 53.65625 15.1875 63.9375 
Q 23.390625 74.21875 37.203125 74.21875 
Q 40.921875 74.21875 44.703125 73.484375 
Q 48.484375 72.75 52.59375 71.296875 
z
" id="DejaVuSans-36"/>
      </defs>
      <g transform="translate(38.619531 91.640288)scale(0.15 -0.15)">
       <use xlink:href="#DejaVuSans-30"/>
       <use x="63.623047" xlink:href="#DejaVuSans-2e"/>
       <use x="95.410156" xlink:href="#DejaVuSans-36"/>
      </g>
     </g>
    </g>
    <g id="ytick_6">
     <g id="line2d_23">
      <path clip-path="url(#p715df48b3a)" d="M 71.974219 54.512548 
L 406.774219 54.512548 
" style="fill:none;stroke:#b0b0b0;stroke-linecap:square;stroke-width:0.8;"/>
     </g>
     <g id="line2d_24">
      <g>
       <use x="71.974219" xlink:href="#m9ef05fa161" y="54.512548"/>
      </g>
     </g>
     <g id="text_13">
      <!-- 0.8 -->
      <defs>
       <path d="M 31.78125 34.625 
Q 24.75 34.625 20.71875 30.859375 
Q 16.703125 27.09375 16.703125 20.515625 
Q 16.703125 13.921875 20.71875 10.15625 
Q 24.75 6.390625 31.78125 6.390625 
Q 38.8125 6.390625 42.859375 10.171875 
Q 46.921875 13.96875 46.921875 20.515625 
Q 46.921875 27.09375 42.890625 30.859375 
Q 38.875 34.625 31.78125 34.625 
z
M 21.921875 38.8125 
Q 15.578125 40.375 12.03125 44.71875 
Q 8.5 49.078125 8.5 55.328125 
Q 8.5 64.0625 14.71875 69.140625 
Q 20.953125 74.21875 31.78125 74.21875 
Q 42.671875 74.21875 48.875 69.140625 
Q 55.078125 64.0625 55.078125 55.328125 
Q 55.078125 49.078125 51.53125 44.71875 
Q 48 40.375 41.703125 38.8125 
Q 48.828125 37.15625 52.796875 32.3125 
Q 56.78125 27.484375 56.78125 20.515625 
Q 56.78125 9.90625 50.3125 4.234375 
Q 43.84375 -1.421875 31.78125 -1.421875 
Q 19.734375 -1.421875 13.25 4.234375 
Q 6.78125 9.90625 6.78125 20.515625 
Q 6.78125 27.484375 10.78125 32.3125 
Q 14.796875 37.15625 21.921875 38.8125 
z
M 18.3125 54.390625 
Q 18.3125 48.734375 21.84375 45.5625 
Q 25.390625 42.390625 31.78125 42.390625 
Q 38.140625 42.390625 41.71875 45.5625 
Q 45.3125 48.734375 45.3125 54.390625 
Q 45.3125 60.0625 41.71875 63.234375 
Q 38.140625 66.40625 31.78125 66.40625 
Q 25.390625 66.40625 21.84375 63.234375 
Q 18.3125 60.0625 18.3125 54.390625 
z
" id="DejaVuSans-38"/>
      </defs>
      <g transform="translate(38.619531 60.211376)scale(0.15 -0.15)">
       <use xlink:href="#DejaVuSans-30"/>
       <use x="63.623047" xlink:href="#DejaVuSans-2e"/>
       <use x="95.410156" xlink:href="#DejaVuSans-38"/>
      </g>
     </g>
    </g>
    <g id="ytick_7">
     <g id="line2d_25">
      <path clip-path="url(#p715df48b3a)" d="M 71.974219 23.083636 
L 406.774219 23.083636 
" style="fill:none;stroke:#b0b0b0;stroke-linecap:square;stroke-width:0.8;"/>
     </g>
     <g id="line2d_26">
      <g>
       <use x="71.974219" xlink:href="#m9ef05fa161" y="23.083636"/>
      </g>
     </g>
     <g id="text_14">
      <!-- 1.0 -->
      <g transform="translate(38.619531 28.782464)scale(0.15 -0.15)">
       <use xlink:href="#DejaVuSans-31"/>
       <use x="63.623047" xlink:href="#DejaVuSans-2e"/>
       <use x="95.410156" xlink:href="#DejaVuSans-30"/>
      </g>
     </g>
    </g>
    <g id="text_15">
     <!-- $\rho(t')$ -->
     <defs>
      <path d="M 18.796875 44.921875 
Q 22.703125 49.90625 30.953125 54.296875 
Q 34.1875 56 43.0625 56 
Q 53.03125 56 57.71875 48.09375 
Q 62.40625 40.1875 59.90625 27.296875 
Q 57.375 14.40625 49.609375 6.484375 
Q 41.84375 -1.421875 31.890625 -1.421875 
Q 25.875 -1.421875 22.015625 0.984375 
Q 18.171875 3.328125 16.3125 8.203125 
L 10.640625 -20.796875 
L 1.609375 -20.796875 
L 10.890625 26.8125 
Q 13.09375 38.09375 18.796875 44.921875 
z
M 50.59375 27.296875 
Q 52.484375 37.203125 49.515625 42.875 
Q 46.53125 48.484375 39.40625 48.484375 
Q 32.28125 48.484375 27.09375 42.875 
Q 21.921875 37.203125 20.015625 27.296875 
Q 18.0625 17.390625 21.046875 11.71875 
Q 24.03125 6.109375 31.15625 6.109375 
Q 38.28125 6.109375 43.453125 11.71875 
Q 48.640625 17.390625 50.59375 27.296875 
z
" id="DejaVuSans-Oblique-3c1"/>
      <path d="M 31 75.875 
Q 24.46875 64.65625 21.28125 53.65625 
Q 18.109375 42.671875 18.109375 31.390625 
Q 18.109375 20.125 21.3125 9.0625 
Q 24.515625 -2 31 -13.1875 
L 23.1875 -13.1875 
Q 15.875 -1.703125 12.234375 9.375 
Q 8.59375 20.453125 8.59375 31.390625 
Q 8.59375 42.28125 12.203125 53.3125 
Q 15.828125 64.359375 23.1875 75.875 
z
" id="DejaVuSans-28"/>
      <path d="M 8.015625 75.875 
L 15.828125 75.875 
Q 23.140625 64.359375 26.78125 53.3125 
Q 30.421875 42.28125 30.421875 31.390625 
Q 30.421875 20.453125 26.78125 9.375 
Q 23.140625 -1.703125 15.828125 -13.1875 
L 8.015625 -13.1875 
Q 14.5 -2 17.703125 9.0625 
Q 20.90625 20.125 20.90625 31.390625 
Q 20.90625 42.671875 17.703125 53.65625 
Q 14.5 64.65625 8.015625 75.875 
z
" id="DejaVuSans-29"/>
     </defs>
     <g transform="translate(18.9 137.67)rotate(-90)scale(0.15 -0.15)">
      <use transform="translate(0 0.584375)" xlink:href="#DejaVuSans-Oblique-3c1"/>
      <use transform="translate(63.476562 0.584375)" xlink:href="#DejaVuSans-28"/>
      <use transform="translate(102.490234 0.584375)" xlink:href="#DejaVuSans-Oblique-74"/>
      <use transform="translate(148.33974 38.865625)scale(0.7)" xlink:href="#Cmsy10-30"/>
      <use transform="translate(170.317279 0.584375)" xlink:href="#DejaVuSans-29"/>
     </g>
    </g>
   </g>
   <g id="line2d_27">
    <path clip-path="url(#p715df48b3a)" d="M 87.192401 23.083636 
L 93.403903 35.590922 
L 99.615406 47.0341 
L 105.826909 57.576923 
L 112.038412 67.244979 
L 118.249914 76.168426 
L 124.461417 84.306411 
L 130.67292 91.750555 
L 136.884423 98.59261 
L 143.095926 104.879885 
L 149.307428 110.607242 
L 155.518931 115.807506 
L 161.730434 120.587109 
L 167.941937 125.030417 
L 174.15344 129.107358 
L 180.364942 132.809698 
L 186.576445 136.287364 
L 192.787948 139.443872 
L 198.999451 142.355986 
L 205.210953 145.163323 
L 211.422456 147.782463 
L 217.633959 150.194909 
L 223.845462 152.459186 
L 230.056965 154.566877 
L 236.268467 156.499585 
L 242.47997 158.234454 
L 248.691473 159.86009 
L 254.902976 161.365707 
L 261.114478 162.76386 
L 267.325981 164.061379 
L 273.537484 165.217415 
L 279.748987 166.352295 
L 285.96049 167.419119 
L 292.171992 168.433837 
L 298.383495 169.357454 
L 304.594998 170.127066 
L 310.806501 170.83909 
L 317.018004 171.460521 
L 323.229506 172.00408 
L 329.441009 172.530196 
L 335.652512 173.074481 
L 341.864015 173.605658 
L 348.075517 174.03726 
L 354.28702 174.491952 
L 360.498523 174.863756 
L 366.710026 175.214774 
L 372.921529 175.459106 
L 379.133031 175.684019 
L 385.344534 175.829773 
L 391.556037 175.977752 
" style="fill:none;stroke:#1f77b4;stroke-dasharray:11.1,4.8;stroke-dashoffset:0;stroke-width:3;"/>
   </g>
   <g id="line2d_28">
    <path clip-path="url(#p715df48b3a)" d="M 87.192401 23.083636 
L 93.403903 68.695615 
L 99.615406 104.760438 
L 105.826909 131.018182 
L 112.038412 147.399716 
L 118.249914 154.267513 
L 124.461417 153.151611 
L 130.67292 146.904171 
L 136.884423 139.3657 
L 143.095926 133.712123 
L 149.307428 132.665404 
L 155.518931 136.562266 
L 161.730434 144.075407 
L 167.941937 152.897469 
L 174.15344 160.243574 
L 180.364942 164.475968 
L 186.576445 165.279162 
L 192.787948 163.289788 
L 198.999451 160.173369 
L 205.210953 157.439653 
L 211.422456 156.72138 
L 217.633959 158.341265 
L 223.845462 162.207979 
L 230.056965 166.895432 
L 236.268467 171.026866 
L 242.47997 173.647964 
L 248.691473 173.789303 
L 254.902976 172.15221 
L 261.114478 169.689439 
L 267.325981 167.388689 
L 273.537484 166.537133 
L 279.748987 167.465784 
L 285.96049 170.31646 
L 292.171992 173.563382 
L 298.383495 176.520911 
L 304.594998 178.228086 
L 310.806501 178.319783 
L 317.018004 176.845091 
L 323.229506 174.536397 
L 329.441009 172.40713 
L 335.652512 171.539504 
L 341.864015 172.106473 
L 348.075517 174.24911 
L 354.28702 176.968013 
L 360.498523 179.529226 
L 366.710026 180.996779 
L 372.921529 180.734565 
L 379.133031 179.105274 
L 385.344534 177.291688 
L 391.556037 175.649186 
" style="fill:none;stroke:#ff7f0e;stroke-dasharray:3,4.95;stroke-dashoffset:0;stroke-width:3;"/>
   </g>
   <g id="line2d_29">
    <path clip-path="url(#p715df48b3a)" d="M 87.192401 23.083636 
L 93.403903 91.815495 
L 99.615406 146.373979 
L 105.826909 186.246278 
L 112.038412 211.017928 
L 118.249914 220.413924 
L 124.461417 214.278185 
L 130.67292 192.638409 
L 136.884423 157.395889 
L 143.095926 119.293381 
L 149.307428 101.231678 
L 155.518931 116.610348 
L 161.730434 152.053267 
L 167.941937 187.388939 
L 174.15344 211.418506 
L 180.364942 220.756364 
L 186.576445 214.807158 
L 192.787948 194.367782 
L 198.999451 163.530289 
L 205.210953 133.450781 
L 211.422456 119.597438 
L 217.633959 130.214635 
L 223.845462 158.230561 
L 230.056965 189.084744 
L 236.268467 211.65676 
L 242.47997 220.734026 
L 248.691473 215.070907 
L 254.902976 195.859064 
L 261.114478 167.827882 
L 267.325981 141.325756 
L 273.537484 128.951079 
L 279.748987 137.334771 
L 285.96049 161.510926 
L 292.171992 190.040846 
L 298.383495 211.555677 
L 304.594998 220.456527 
L 310.806501 215.075238 
L 317.018004 196.693088 
L 323.229506 170.028996 
L 329.441009 145.325567 
L 335.652512 133.763113 
L 341.864015 140.712089 
L 348.075517 163.133229 
L 354.28702 190.249687 
L 360.498523 211.09023 
L 366.710026 219.917041 
L 372.921529 214.794756 
L 379.133031 196.899136 
L 385.344534 171.001195 
L 391.556037 146.908314 
" style="fill:none;stroke:#2ca02c;stroke-dasharray:19.2,4.8,3,4.8;stroke-dashoffset:0;stroke-width:3;"/>
   </g>
   <g id="line2d_30">
    <path clip-path="url(#p715df48b3a)" d="M 87.192401 23.083636 
L 93.403903 86.59952 
L 99.615406 137.084894 
L 105.826909 173.998072 
L 112.038412 196.985606 
L 118.249914 205.79197 
L 124.461417 200.425779 
L 130.67292 182.364743 
L 136.884423 157.293938 
L 143.095926 135.302549 
L 149.307428 125.83566 
L 155.518931 131.727296 
L 161.730434 148.313341 
L 167.941937 168.102058 
L 174.15344 184.252788 
L 180.364942 192.651825 
L 186.576445 191.860239 
L 192.787948 183.16171 
L 198.999451 170.683179 
L 205.210953 159.510295 
L 211.422456 153.76704 
L 217.633959 154.798761 
L 223.845462 161.889506 
L 230.056965 171.544082 
L 236.268467 180.738586 
L 242.47997 186.252827 
L 248.691473 186.640473 
L 254.902976 182.970764 
L 261.114478 176.899802 
L 267.325981 170.936603 
L 273.537484 167.190563 
L 279.748987 167.139689 
L 285.96049 170.271153 
L 292.171992 175.206012 
L 298.383495 180.120357 
L 304.594998 183.150987 
L 310.806501 183.785015 
L 317.018004 181.968173 
L 323.229506 178.729052 
L 329.441009 175.610083 
L 335.652512 173.463662 
L 341.864015 173.06406 
L 348.075517 174.198752 
L 354.28702 176.654981 
L 360.498523 179.49854 
L 366.710026 181.736763 
L 372.921529 182.479077 
L 379.133031 181.738921 
L 385.344534 180.200904 
L 391.556037 178.174615 
" style="fill:none;stroke:#d62728;stroke-linecap:square;stroke-width:3;"/>
   </g>
   <g id="patch_3">
    <path d="M 71.974219 230.64 
L 71.974219 13.2 
" style="fill:none;stroke:#000000;stroke-linecap:square;stroke-linejoin:miter;stroke-width:2;"/>
   </g>
   <g id="patch_4">
    <path d="M 406.774219 230.64 
L 406.774219 13.2 
" style="fill:none;"/>
   </g>
   <g id="patch_5">
    <path d="M 71.974219 230.64 
L 406.774219 230.64 
" style="fill:none;stroke:#000000;stroke-linecap:square;stroke-linejoin:miter;stroke-width:2;"/>
   </g>
   <g id="patch_6">
    <path d="M 71.974219 13.2 
L 406.774219 13.2 
" style="fill:none;"/>
   </g>
   <g id="legend_1">
    <g id="patch_7">
     <path d="M 220.44375 113.26875 
L 396.274219 113.26875 
Q 399.274219 113.26875 399.274219 110.26875 
L 399.274219 23.7 
Q 399.274219 20.7 396.274219 20.7 
L 220.44375 20.7 
Q 217.44375 20.7 217.44375 23.7 
L 217.44375 110.26875 
Q 217.44375 113.26875 220.44375 113.26875 
z
" style="fill:#ffffff;opacity:0.8;stroke:#cccccc;stroke-linejoin:miter;"/>
    </g>
    <g id="line2d_31">
     <path d="M 223.44375 32.847656 
L 253.44375 32.847656 
" style="fill:none;stroke:#1f77b4;stroke-dasharray:11.1,4.8;stroke-dashoffset:0;stroke-width:3;"/>
    </g>
    <g id="line2d_32"/>
    <g id="text_16">
     <!-- 1 steps -->
     <defs>
      <path id="DejaVuSans-20"/>
      <path d="M 44.28125 53.078125 
L 44.28125 44.578125 
Q 40.484375 46.53125 36.375 47.5 
Q 32.28125 48.484375 27.875 48.484375 
Q 21.1875 48.484375 17.84375 46.4375 
Q 14.5 44.390625 14.5 40.28125 
Q 14.5 37.15625 16.890625 35.375 
Q 19.28125 33.59375 26.515625 31.984375 
L 29.59375 31.296875 
Q 39.15625 29.25 43.1875 25.515625 
Q 47.21875 21.78125 47.21875 15.09375 
Q 47.21875 7.46875 41.1875 3.015625 
Q 35.15625 -1.421875 24.609375 -1.421875 
Q 20.21875 -1.421875 15.453125 -0.5625 
Q 10.6875 0.296875 5.421875 2 
L 5.421875 11.28125 
Q 10.40625 8.6875 15.234375 7.390625 
Q 20.0625 6.109375 24.8125 6.109375 
Q 31.15625 6.109375 34.5625 8.28125 
Q 37.984375 10.453125 37.984375 14.40625 
Q 37.984375 18.0625 35.515625 20.015625 
Q 33.0625 21.96875 24.703125 23.78125 
L 21.578125 24.515625 
Q 13.234375 26.265625 9.515625 29.90625 
Q 5.8125 33.546875 5.8125 39.890625 
Q 5.8125 47.609375 11.28125 51.796875 
Q 16.75 56 26.8125 56 
Q 31.78125 56 36.171875 55.265625 
Q 40.578125 54.546875 44.28125 53.078125 
z
" id="DejaVuSans-73"/>
      <path d="M 18.3125 70.21875 
L 18.3125 54.6875 
L 36.8125 54.6875 
L 36.8125 47.703125 
L 18.3125 47.703125 
L 18.3125 18.015625 
Q 18.3125 11.328125 20.140625 9.421875 
Q 21.96875 7.515625 27.59375 7.515625 
L 36.8125 7.515625 
L 36.8125 0 
L 27.59375 0 
Q 17.1875 0 13.234375 3.875 
Q 9.28125 7.765625 9.28125 18.015625 
L 9.28125 47.703125 
L 2.6875 47.703125 
L 2.6875 54.6875 
L 9.28125 54.6875 
L 9.28125 70.21875 
z
" id="DejaVuSans-74"/>
      <path d="M 56.203125 29.59375 
L 56.203125 25.203125 
L 14.890625 25.203125 
Q 15.484375 15.921875 20.484375 11.0625 
Q 25.484375 6.203125 34.421875 6.203125 
Q 39.59375 6.203125 44.453125 7.46875 
Q 49.3125 8.734375 54.109375 11.28125 
L 54.109375 2.78125 
Q 49.265625 0.734375 44.1875 -0.34375 
Q 39.109375 -1.421875 33.890625 -1.421875 
Q 20.796875 -1.421875 13.15625 6.1875 
Q 5.515625 13.8125 5.515625 26.8125 
Q 5.515625 40.234375 12.765625 48.109375 
Q 20.015625 56 32.328125 56 
Q 43.359375 56 49.78125 48.890625 
Q 56.203125 41.796875 56.203125 29.59375 
z
M 47.21875 32.234375 
Q 47.125 39.59375 43.09375 43.984375 
Q 39.0625 48.390625 32.421875 48.390625 
Q 24.90625 48.390625 20.390625 44.140625 
Q 15.875 39.890625 15.1875 32.171875 
z
" id="DejaVuSans-65"/>
      <path d="M 18.109375 8.203125 
L 18.109375 -20.796875 
L 9.078125 -20.796875 
L 9.078125 54.6875 
L 18.109375 54.6875 
L 18.109375 46.390625 
Q 20.953125 51.265625 25.265625 53.625 
Q 29.59375 56 35.59375 56 
Q 45.5625 56 51.78125 48.09375 
Q 58.015625 40.1875 58.015625 27.296875 
Q 58.015625 14.40625 51.78125 6.484375 
Q 45.5625 -1.421875 35.59375 -1.421875 
Q 29.59375 -1.421875 25.265625 0.953125 
Q 20.953125 3.328125 18.109375 8.203125 
z
M 48.6875 27.296875 
Q 48.6875 37.203125 44.609375 42.84375 
Q 40.53125 48.484375 33.40625 48.484375 
Q 26.265625 48.484375 22.1875 42.84375 
Q 18.109375 37.203125 18.109375 27.296875 
Q 18.109375 17.390625 22.1875 11.75 
Q 26.265625 6.109375 33.40625 6.109375 
Q 40.53125 6.109375 44.609375 11.75 
Q 48.6875 17.390625 48.6875 27.296875 
z
" id="DejaVuSans-70"/>
     </defs>
     <g transform="translate(265.44375 38.097656)scale(0.15 -0.15)">
      <use xlink:href="#DejaVuSans-31"/>
      <use x="63.623047" xlink:href="#DejaVuSans-20"/>
      <use x="95.410156" xlink:href="#DejaVuSans-73"/>
      <use x="147.509766" xlink:href="#DejaVuSans-74"/>
      <use x="186.71875" xlink:href="#DejaVuSans-65"/>
      <use x="248.242188" xlink:href="#DejaVuSans-70"/>
      <use x="311.71875" xlink:href="#DejaVuSans-73"/>
     </g>
    </g>
    <g id="line2d_33">
     <path d="M 223.44375 54.864844 
L 253.44375 54.864844 
" style="fill:none;stroke:#ff7f0e;stroke-dasharray:3,4.95;stroke-dashoffset:0;stroke-width:3;"/>
    </g>
    <g id="line2d_34"/>
    <g id="text_17">
     <!-- 10 steps -->
     <g transform="translate(265.44375 60.114844)scale(0.15 -0.15)">
      <use xlink:href="#DejaVuSans-31"/>
      <use x="63.623047" xlink:href="#DejaVuSans-30"/>
      <use x="127.246094" xlink:href="#DejaVuSans-20"/>
      <use x="159.033203" xlink:href="#DejaVuSans-73"/>
      <use x="211.132812" xlink:href="#DejaVuSans-74"/>
      <use x="250.341797" xlink:href="#DejaVuSans-65"/>
      <use x="311.865234" xlink:href="#DejaVuSans-70"/>
      <use x="375.341797" xlink:href="#DejaVuSans-73"/>
     </g>
    </g>
    <g id="line2d_35">
     <path d="M 223.44375 76.882031 
L 253.44375 76.882031 
" style="fill:none;stroke:#2ca02c;stroke-dasharray:19.2,4.8,3,4.8;stroke-dashoffset:0;stroke-width:3;"/>
    </g>
    <g id="line2d_36"/>
    <g id="text_18">
     <!-- 50 steps -->
     <g transform="translate(265.44375 82.132031)scale(0.15 -0.15)">
      <use xlink:href="#DejaVuSans-35"/>
      <use x="63.623047" xlink:href="#DejaVuSans-30"/>
      <use x="127.246094" xlink:href="#DejaVuSans-20"/>
      <use x="159.033203" xlink:href="#DejaVuSans-73"/>
      <use x="211.132812" xlink:href="#DejaVuSans-74"/>
      <use x="250.341797" xlink:href="#DejaVuSans-65"/>
      <use x="311.865234" xlink:href="#DejaVuSans-70"/>
      <use x="375.341797" xlink:href="#DejaVuSans-73"/>
     </g>
    </g>
    <g id="line2d_37">
     <path d="M 223.44375 98.899219 
L 253.44375 98.899219 
" style="fill:none;stroke:#d62728;stroke-linecap:square;stroke-width:3;"/>
    </g>
    <g id="line2d_38"/>
    <g id="text_19">
     <!-- 50 steps + Noise -->
     <defs>
      <path d="M 46 62.703125 
L 46 35.5 
L 73.1875 35.5 
L 73.1875 27.203125 
L 46 27.203125 
L 46 0 
L 37.796875 0 
L 37.796875 27.203125 
L 10.59375 27.203125 
L 10.59375 35.5 
L 37.796875 35.5 
L 37.796875 62.703125 
z
" id="DejaVuSans-2b"/>
      <path d="M 9.8125 72.90625 
L 23.09375 72.90625 
L 55.421875 11.921875 
L 55.421875 72.90625 
L 64.984375 72.90625 
L 64.984375 0 
L 51.703125 0 
L 19.390625 60.984375 
L 19.390625 0 
L 9.8125 0 
z
" id="DejaVuSans-4e"/>
      <path d="M 30.609375 48.390625 
Q 23.390625 48.390625 19.1875 42.75 
Q 14.984375 37.109375 14.984375 27.296875 
Q 14.984375 17.484375 19.15625 11.84375 
Q 23.34375 6.203125 30.609375 6.203125 
Q 37.796875 6.203125 41.984375 11.859375 
Q 46.1875 17.53125 46.1875 27.296875 
Q 46.1875 37.015625 41.984375 42.703125 
Q 37.796875 48.390625 30.609375 48.390625 
z
M 30.609375 56 
Q 42.328125 56 49.015625 48.375 
Q 55.71875 40.765625 55.71875 27.296875 
Q 55.71875 13.875 49.015625 6.21875 
Q 42.328125 -1.421875 30.609375 -1.421875 
Q 18.84375 -1.421875 12.171875 6.21875 
Q 5.515625 13.875 5.515625 27.296875 
Q 5.515625 40.765625 12.171875 48.375 
Q 18.84375 56 30.609375 56 
z
" id="DejaVuSans-6f"/>
      <path d="M 9.421875 54.6875 
L 18.40625 54.6875 
L 18.40625 0 
L 9.421875 0 
z
M 9.421875 75.984375 
L 18.40625 75.984375 
L 18.40625 64.59375 
L 9.421875 64.59375 
z
" id="DejaVuSans-69"/>
     </defs>
     <g transform="translate(265.44375 104.149219)scale(0.15 -0.15)">
      <use xlink:href="#DejaVuSans-35"/>
      <use x="63.623047" xlink:href="#DejaVuSans-30"/>
      <use x="127.246094" xlink:href="#DejaVuSans-20"/>
      <use x="159.033203" xlink:href="#DejaVuSans-73"/>
      <use x="211.132812" xlink:href="#DejaVuSans-74"/>
      <use x="250.341797" xlink:href="#DejaVuSans-65"/>
      <use x="311.865234" xlink:href="#DejaVuSans-70"/>
      <use x="375.341797" xlink:href="#DejaVuSans-73"/>
      <use x="427.441406" xlink:href="#DejaVuSans-20"/>
      <use x="459.228516" xlink:href="#DejaVuSans-2b"/>
      <use x="543.017578" xlink:href="#DejaVuSans-20"/>
      <use x="574.804688" xlink:href="#DejaVuSans-4e"/>
      <use x="649.609375" xlink:href="#DejaVuSans-6f"/>
      <use x="710.791016" xlink:href="#DejaVuSans-69"/>
      <use x="738.574219" xlink:href="#DejaVuSans-73"/>
      <use x="790.673828" xlink:href="#DejaVuSans-65"/>
     </g>
    </g>
   </g>
  </g>
 </g>
 <defs>
  <clipPath id="p715df48b3a">
   <rect height="217.44" width="334.8" x="71.974219" y="13.2"/>
  </clipPath>
 </defs>
</svg>
