<?xml version="1.0" encoding="utf-8" standalone="no"?>
<!DOCTYPE svg PUBLIC "-//W3C//DTD SVG 1.1//EN"
  "http://www.w3.org/Graphics/SVG/1.1/DTD/svg11.dtd">
<!-- Created with matplotlib (http://matplotlib.org/) -->
<svg height="285.657187pt" version="1.1" viewBox="0 0 742.204687 285.657187" width="742.204687pt" xmlns="http://www.w3.org/2000/svg" xmlns:xlink="http://www.w3.org/1999/xlink">
 <defs>
  <style type="text/css">
*{stroke-linecap:butt;stroke-linejoin:round;}
  </style>
 </defs>
 <g id="figure_1">
  <g id="patch_1">
   <path d="M 0 285.657187 
L 742.204687 285.657187 
L 742.204687 0 
L 0 0 
z
" style="fill:#ffffff;"/>
  </g>
  <g id="axes_1">
   <g id="patch_2">
    <path d="M 59.404688 230.64 
L 363.768324 230.64 
L 363.768324 13.2 
L 59.404688 13.2 
z
" style="fill:#ffffff;"/>
   </g>
   <g id="matplotlib.axis_1">
    <g id="xtick_1">
     <g id="line2d_1">
      <path clip-path="url(#p41152cf2c2)" d="M 100.90882 230.64 
L 100.90882 13.2 
" style="fill:none;stroke:#b0b0b0;stroke-linecap:square;stroke-width:0.8;"/>
     </g>
     <g id="line2d_2">
      <defs>
       <path d="M 0 0 
L 0 6 
" id="m5a034b865b"/>
      </defs>
      <g>
       <use x="100.90882" xlink:href="#m5a034b865b" y="230.64"/>
      </g>
     </g>
     <g id="text_1">
      <!-- 0.6 -->
      <defs>
       <path d="M 31.78125 66.40625 
Q 24.171875 66.40625 20.328125 58.90625 
Q 16.5 51.421875 16.5 36.375 
Q 16.5 21.390625 20.328125 13.890625 
Q 24.171875 6.390625 31.78125 6.390625 
Q 39.453125 6.390625 43.28125 13.890625 
Q 47.125 21.390625 47.125 36.375 
Q 47.125 51.421875 43.28125 58.90625 
Q 39.453125 66.40625 31.78125 66.40625 
z
M 31.78125 74.21875 
Q 44.046875 74.21875 50.515625 64.515625 
Q 56.984375 54.828125 56.984375 36.375 
Q 56.984375 17.96875 50.515625 8.265625 
Q 44.046875 -1.421875 31.78125 -1.421875 
Q 19.53125 -1.421875 13.0625 8.265625 
Q 6.59375 17.96875 6.59375 36.375 
Q 6.59375 54.828125 13.0625 64.515625 
Q 19.53125 74.21875 31.78125 74.21875 
z
" id="DejaVuSans-30"/>
       <path d="M 10.6875 12.40625 
L 21 12.40625 
L 21 0 
L 10.6875 0 
z
" id="DejaVuSans-2e"/>
       <path d="M 33.015625 40.375 
Q 26.375 40.375 22.484375 35.828125 
Q 18.609375 31.296875 18.609375 23.390625 
Q 18.609375 15.53125 22.484375 10.953125 
Q 26.375 6.390625 33.015625 6.390625 
Q 39.65625 6.390625 43.53125 10.953125 
Q 47.40625 15.53125 47.40625 23.390625 
Q 47.40625 31.296875 43.53125 35.828125 
Q 39.65625 40.375 33.015625 40.375 
z
M 52.59375 71.296875 
L 52.59375 62.3125 
Q 48.875 64.0625 45.09375 64.984375 
Q 41.3125 65.921875 37.59375 65.921875 
Q 27.828125 65.921875 22.671875 59.328125 
Q 17.53125 52.734375 16.796875 39.40625 
Q 19.671875 43.65625 24.015625 45.921875 
Q 28.375 48.1875 33.59375 48.1875 
Q 44.578125 48.1875 50.953125 41.515625 
Q 57.328125 34.859375 57.328125 23.390625 
Q 57.328125 12.15625 50.6875 5.359375 
Q 44.046875 -1.421875 33.015625 -1.421875 
Q 20.359375 -1.421875 13.671875 8.265625 
Q 6.984375 17.96875 6.984375 36.375 
Q 6.984375 53.65625 15.1875 63.9375 
Q 23.390625 74.21875 37.203125 74.21875 
Q 40.921875 74.21875 44.703125 73.484375 
Q 48.484375 72.75 52.59375 71.296875 
z
" id="DejaVuSans-36"/>
      </defs>
      <g transform="translate(88.981476 251.537656)scale(0.15 -0.15)">
       <use xlink:href="#DejaVuSans-30"/>
       <use x="63.623047" xlink:href="#DejaVuSans-2e"/>
       <use x="95.410156" xlink:href="#DejaVuSans-36"/>
      </g>
     </g>
    </g>
    <g id="xtick_2">
     <g id="line2d_3">
      <path clip-path="url(#p41152cf2c2)" d="M 156.247663 230.64 
L 156.247663 13.2 
" style="fill:none;stroke:#b0b0b0;stroke-linecap:square;stroke-width:0.8;"/>
     </g>
     <g id="line2d_4">
      <g>
       <use x="156.247663" xlink:href="#m5a034b865b" y="230.64"/>
      </g>
     </g>
     <g id="text_2">
      <!-- 0.8 -->
      <defs>
       <path d="M 31.78125 34.625 
Q 24.75 34.625 20.71875 30.859375 
Q 16.703125 27.09375 16.703125 20.515625 
Q 16.703125 13.921875 20.71875 10.15625 
Q 24.75 6.390625 31.78125 6.390625 
Q 38.8125 6.390625 42.859375 10.171875 
Q 46.921875 13.96875 46.921875 20.515625 
Q 46.921875 27.09375 42.890625 30.859375 
Q 38.875 34.625 31.78125 34.625 
z
M 21.921875 38.8125 
Q 15.578125 40.375 12.03125 44.71875 
Q 8.5 49.078125 8.5 55.328125 
Q 8.5 64.0625 14.71875 69.140625 
Q 20.953125 74.21875 31.78125 74.21875 
Q 42.671875 74.21875 48.875 69.140625 
Q 55.078125 64.0625 55.078125 55.328125 
Q 55.078125 49.078125 51.53125 44.71875 
Q 48 40.375 41.703125 38.8125 
Q 48.828125 37.15625 52.796875 32.3125 
Q 56.78125 27.484375 56.78125 20.515625 
Q 56.78125 9.90625 50.3125 4.234375 
Q 43.84375 -1.421875 31.78125 -1.421875 
Q 19.734375 -1.421875 13.25 4.234375 
Q 6.78125 9.90625 6.78125 20.515625 
Q 6.78125 27.484375 10.78125 32.3125 
Q 14.796875 37.15625 21.921875 38.8125 
z
M 18.3125 54.390625 
Q 18.3125 48.734375 21.84375 45.5625 
Q 25.390625 42.390625 31.78125 42.390625 
Q 38.140625 42.390625 41.71875 45.5625 
Q 45.3125 48.734375 45.3125 54.390625 
Q 45.3125 60.0625 41.71875 63.234375 
Q 38.140625 66.40625 31.78125 66.40625 
Q 25.390625 66.40625 21.84375 63.234375 
Q 18.3125 60.0625 18.3125 54.390625 
z
" id="DejaVuSans-38"/>
      </defs>
      <g transform="translate(144.320319 251.537656)scale(0.15 -0.15)">
       <use xlink:href="#DejaVuSans-30"/>
       <use x="63.623047" xlink:href="#DejaVuSans-2e"/>
       <use x="95.410156" xlink:href="#DejaVuSans-38"/>
      </g>
     </g>
    </g>
    <g id="xtick_3">
     <g id="line2d_5">
      <path clip-path="url(#p41152cf2c2)" d="M 211.586506 230.64 
L 211.586506 13.2 
" style="fill:none;stroke:#b0b0b0;stroke-linecap:square;stroke-width:0.8;"/>
     </g>
     <g id="line2d_6">
      <g>
       <use x="211.586506" xlink:href="#m5a034b865b" y="230.64"/>
      </g>
     </g>
     <g id="text_3">
      <!-- 1.0 -->
      <defs>
       <path d="M 12.40625 8.296875 
L 28.515625 8.296875 
L 28.515625 63.921875 
L 10.984375 60.40625 
L 10.984375 69.390625 
L 28.421875 72.90625 
L 38.28125 72.90625 
L 38.28125 8.296875 
L 54.390625 8.296875 
L 54.390625 0 
L 12.40625 0 
z
" id="DejaVuSans-31"/>
      </defs>
      <g transform="translate(199.659162 251.537656)scale(0.15 -0.15)">
       <use xlink:href="#DejaVuSans-31"/>
       <use x="63.623047" xlink:href="#DejaVuSans-2e"/>
       <use x="95.410156" xlink:href="#DejaVuSans-30"/>
      </g>
     </g>
    </g>
    <g id="xtick_4">
     <g id="line2d_7">
      <path clip-path="url(#p41152cf2c2)" d="M 266.925349 230.64 
L 266.925349 13.2 
" style="fill:none;stroke:#b0b0b0;stroke-linecap:square;stroke-width:0.8;"/>
     </g>
     <g id="line2d_8">
      <g>
       <use x="266.925349" xlink:href="#m5a034b865b" y="230.64"/>
      </g>
     </g>
     <g id="text_4">
      <!-- 1.2 -->
      <defs>
       <path d="M 19.1875 8.296875 
L 53.609375 8.296875 
L 53.609375 0 
L 7.328125 0 
L 7.328125 8.296875 
Q 12.9375 14.109375 22.625 23.890625 
Q 32.328125 33.6875 34.8125 36.53125 
Q 39.546875 41.84375 41.421875 45.53125 
Q 43.3125 49.21875 43.3125 52.78125 
Q 43.3125 58.59375 39.234375 62.25 
Q 35.15625 65.921875 28.609375 65.921875 
Q 23.96875 65.921875 18.8125 64.3125 
Q 13.671875 62.703125 7.8125 59.421875 
L 7.8125 69.390625 
Q 13.765625 71.78125 18.9375 73 
Q 24.125 74.21875 28.421875 74.21875 
Q 39.75 74.21875 46.484375 68.546875 
Q 53.21875 62.890625 53.21875 53.421875 
Q 53.21875 48.921875 51.53125 44.890625 
Q 49.859375 40.875 45.40625 35.40625 
Q 44.1875 33.984375 37.640625 27.21875 
Q 31.109375 20.453125 19.1875 8.296875 
z
" id="DejaVuSans-32"/>
      </defs>
      <g transform="translate(254.998005 251.537656)scale(0.15 -0.15)">
       <use xlink:href="#DejaVuSans-31"/>
       <use x="63.623047" xlink:href="#DejaVuSans-2e"/>
       <use x="95.410156" xlink:href="#DejaVuSans-32"/>
      </g>
     </g>
    </g>
    <g id="xtick_5">
     <g id="line2d_9">
      <path clip-path="url(#p41152cf2c2)" d="M 322.264192 230.64 
L 322.264192 13.2 
" style="fill:none;stroke:#b0b0b0;stroke-linecap:square;stroke-width:0.8;"/>
     </g>
     <g id="line2d_10">
      <g>
       <use x="322.264192" xlink:href="#m5a034b865b" y="230.64"/>
      </g>
     </g>
     <g id="text_5">
      <!-- 1.4 -->
      <defs>
       <path d="M 37.796875 64.3125 
L 12.890625 25.390625 
L 37.796875 25.390625 
z
M 35.203125 72.90625 
L 47.609375 72.90625 
L 47.609375 25.390625 
L 58.015625 25.390625 
L 58.015625 17.1875 
L 47.609375 17.1875 
L 47.609375 0 
L 37.796875 0 
L 37.796875 17.1875 
L 4.890625 17.1875 
L 4.890625 26.703125 
z
" id="DejaVuSans-34"/>
      </defs>
      <g transform="translate(310.336848 251.537656)scale(0.15 -0.15)">
       <use xlink:href="#DejaVuSans-31"/>
       <use x="63.623047" xlink:href="#DejaVuSans-2e"/>
       <use x="95.410156" xlink:href="#DejaVuSans-34"/>
      </g>
     </g>
    </g>
    <g id="text_6">
     <!-- $s_b/\overline{s_b}$ -->
     <defs>
      <path d="M 50 53.078125 
L 48.296875 44.578125 
Q 44.734375 46.53125 40.765625 47.5 
Q 36.8125 48.484375 32.625 48.484375 
Q 25.53125 48.484375 21.453125 46.0625 
Q 17.390625 43.65625 17.390625 39.5 
Q 17.390625 34.671875 26.859375 32.078125 
Q 27.59375 31.890625 27.9375 31.78125 
L 30.8125 30.90625 
Q 39.796875 28.421875 42.796875 25.6875 
Q 45.796875 22.953125 45.796875 18.21875 
Q 45.796875 9.515625 38.890625 4.046875 
Q 31.984375 -1.421875 20.796875 -1.421875 
Q 16.453125 -1.421875 11.671875 -0.578125 
Q 6.890625 0.25 1.125 2 
L 2.875 11.28125 
Q 7.8125 8.734375 12.59375 7.421875 
Q 17.390625 6.109375 21.78125 6.109375 
Q 28.375 6.109375 32.5 8.9375 
Q 36.625 11.765625 36.625 16.109375 
Q 36.625 20.796875 25.78125 23.6875 
L 24.859375 23.921875 
L 21.78125 24.703125 
Q 14.9375 26.515625 11.765625 29.46875 
Q 8.59375 32.421875 8.59375 37.015625 
Q 8.59375 45.75 15.15625 50.875 
Q 21.734375 56 33.015625 56 
Q 37.453125 56 41.671875 55.265625 
Q 45.90625 54.546875 50 53.078125 
z
" id="DejaVuSans-Oblique-73"/>
      <path d="M 49.515625 33.40625 
Q 49.515625 40.484375 46.265625 44.484375 
Q 43.015625 48.484375 37.3125 48.484375 
Q 33.15625 48.484375 29.515625 46.453125 
Q 25.875 44.4375 23.1875 40.578125 
Q 20.359375 36.53125 18.71875 31.171875 
Q 17.09375 25.828125 17.09375 20.515625 
Q 17.09375 13.765625 20.28125 9.9375 
Q 23.484375 6.109375 29.109375 6.109375 
Q 33.34375 6.109375 36.953125 8.078125 
Q 40.578125 10.0625 43.3125 13.921875 
Q 46.09375 17.921875 47.796875 23.234375 
Q 49.515625 28.5625 49.515625 33.40625 
z
M 21.578125 46.390625 
Q 24.90625 50.875 29.90625 53.4375 
Q 34.90625 56 40.375 56 
Q 48.78125 56 53.734375 50.328125 
Q 58.6875 44.671875 58.6875 35.015625 
Q 58.6875 27.09375 55.78125 19.671875 
Q 52.875 12.25 47.515625 6.5 
Q 44 2.6875 39.40625 0.625 
Q 34.8125 -1.421875 29.78125 -1.421875 
Q 24.46875 -1.421875 20.5625 1.015625 
Q 16.65625 3.46875 14.203125 8.296875 
L 12.59375 0 
L 3.609375 0 
L 18.40625 75.984375 
L 27.390625 75.984375 
z
" id="DejaVuSans-Oblique-62"/>
      <path d="M 25.390625 72.90625 
L 33.6875 72.90625 
L 8.296875 -9.28125 
L 0 -9.28125 
z
" id="DejaVuSans-2f"/>
     </defs>
     <g transform="translate(188.286506 274.297812)scale(0.2 -0.2)">
      <use transform="translate(0 0.25)" xlink:href="#DejaVuSans-Oblique-73"/>
      <use transform="translate(52.099609 -16.15625)scale(0.7)" xlink:href="#DejaVuSans-Oblique-62"/>
      <use transform="translate(99.267578 0.25)" xlink:href="#DejaVuSans-2f"/>
      <use transform="translate(132.958984 0.75)" xlink:href="#DejaVuSans-Oblique-73"/>
      <use transform="translate(185.058594 -15.65625)scale(0.7)" xlink:href="#DejaVuSans-Oblique-62"/>
      <path d="M 132.958984 68.5 
L 132.958984 74.75 
L 232.226562 74.75 
L 232.226562 68.5 
L 132.958984 68.5 
z
"/>
     </g>
    </g>
   </g>
   <g id="matplotlib.axis_2">
    <g id="ytick_1">
     <g id="line2d_11">
      <path clip-path="url(#p41152cf2c2)" d="M 59.404688 212.52 
L 363.768324 212.52 
" style="fill:none;stroke:#b0b0b0;stroke-linecap:square;stroke-width:0.8;"/>
     </g>
     <g id="line2d_12">
      <defs>
       <path d="M 0 0 
L -6 0 
" id="ma6a58ef1ec"/>
      </defs>
      <g>
       <use x="59.404688" xlink:href="#ma6a58ef1ec" y="212.52"/>
      </g>
     </g>
     <g id="text_7">
      <!-- 0.8 -->
      <g transform="translate(26.05 218.218828)scale(0.15 -0.15)">
       <use xlink:href="#DejaVuSans-30"/>
       <use x="63.623047" xlink:href="#DejaVuSans-2e"/>
       <use x="95.410156" xlink:href="#DejaVuSans-38"/>
      </g>
     </g>
    </g>
    <g id="ytick_2">
     <g id="line2d_13">
      <path clip-path="url(#p41152cf2c2)" d="M 59.404688 176.28 
L 363.768324 176.28 
" style="fill:none;stroke:#b0b0b0;stroke-linecap:square;stroke-width:0.8;"/>
     </g>
     <g id="line2d_14">
      <g>
       <use x="59.404688" xlink:href="#ma6a58ef1ec" y="176.28"/>
      </g>
     </g>
     <g id="text_8">
      <!-- 0.9 -->
      <defs>
       <path d="M 10.984375 1.515625 
L 10.984375 10.5 
Q 14.703125 8.734375 18.5 7.8125 
Q 22.3125 6.890625 25.984375 6.890625 
Q 35.75 6.890625 40.890625 13.453125 
Q 46.046875 20.015625 46.78125 33.40625 
Q 43.953125 29.203125 39.59375 26.953125 
Q 35.25 24.703125 29.984375 24.703125 
Q 19.046875 24.703125 12.671875 31.3125 
Q 6.296875 37.9375 6.296875 49.421875 
Q 6.296875 60.640625 12.9375 67.421875 
Q 19.578125 74.21875 30.609375 74.21875 
Q 43.265625 74.21875 49.921875 64.515625 
Q 56.59375 54.828125 56.59375 36.375 
Q 56.59375 19.140625 48.40625 8.859375 
Q 40.234375 -1.421875 26.421875 -1.421875 
Q 22.703125 -1.421875 18.890625 -0.6875 
Q 15.09375 0.046875 10.984375 1.515625 
z
M 30.609375 32.421875 
Q 37.25 32.421875 41.125 36.953125 
Q 45.015625 41.5 45.015625 49.421875 
Q 45.015625 57.28125 41.125 61.84375 
Q 37.25 66.40625 30.609375 66.40625 
Q 23.96875 66.40625 20.09375 61.84375 
Q 16.21875 57.28125 16.21875 49.421875 
Q 16.21875 41.5 20.09375 36.953125 
Q 23.96875 32.421875 30.609375 32.421875 
z
" id="DejaVuSans-39"/>
      </defs>
      <g transform="translate(26.05 181.978828)scale(0.15 -0.15)">
       <use xlink:href="#DejaVuSans-30"/>
       <use x="63.623047" xlink:href="#DejaVuSans-2e"/>
       <use x="95.410156" xlink:href="#DejaVuSans-39"/>
      </g>
     </g>
    </g>
    <g id="ytick_3">
     <g id="line2d_15">
      <path clip-path="url(#p41152cf2c2)" d="M 59.404688 140.04 
L 363.768324 140.04 
" style="fill:none;stroke:#b0b0b0;stroke-linecap:square;stroke-width:0.8;"/>
     </g>
     <g id="line2d_16">
      <g>
       <use x="59.404688" xlink:href="#ma6a58ef1ec" y="140.04"/>
      </g>
     </g>
     <g id="text_9">
      <!-- 1.0 -->
      <g transform="translate(26.05 145.738828)scale(0.15 -0.15)">
       <use xlink:href="#DejaVuSans-31"/>
       <use x="63.623047" xlink:href="#DejaVuSans-2e"/>
       <use x="95.410156" xlink:href="#DejaVuSans-30"/>
      </g>
     </g>
    </g>
    <g id="ytick_4">
     <g id="line2d_17">
      <path clip-path="url(#p41152cf2c2)" d="M 59.404688 103.8 
L 363.768324 103.8 
" style="fill:none;stroke:#b0b0b0;stroke-linecap:square;stroke-width:0.8;"/>
     </g>
     <g id="line2d_18">
      <g>
       <use x="59.404688" xlink:href="#ma6a58ef1ec" y="103.8"/>
      </g>
     </g>
     <g id="text_10">
      <!-- 1.1 -->
      <g transform="translate(26.05 109.498828)scale(0.15 -0.15)">
       <use xlink:href="#DejaVuSans-31"/>
       <use x="63.623047" xlink:href="#DejaVuSans-2e"/>
       <use x="95.410156" xlink:href="#DejaVuSans-31"/>
      </g>
     </g>
    </g>
    <g id="ytick_5">
     <g id="line2d_19">
      <path clip-path="url(#p41152cf2c2)" d="M 59.404688 67.56 
L 363.768324 67.56 
" style="fill:none;stroke:#b0b0b0;stroke-linecap:square;stroke-width:0.8;"/>
     </g>
     <g id="line2d_20">
      <g>
       <use x="59.404688" xlink:href="#ma6a58ef1ec" y="67.56"/>
      </g>
     </g>
     <g id="text_11">
      <!-- 1.2 -->
      <g transform="translate(26.05 73.258828)scale(0.15 -0.15)">
       <use xlink:href="#DejaVuSans-31"/>
       <use x="63.623047" xlink:href="#DejaVuSans-2e"/>
       <use x="95.410156" xlink:href="#DejaVuSans-32"/>
      </g>
     </g>
    </g>
    <g id="ytick_6">
     <g id="line2d_21">
      <path clip-path="url(#p41152cf2c2)" d="M 59.404688 31.32 
L 363.768324 31.32 
" style="fill:none;stroke:#b0b0b0;stroke-linecap:square;stroke-width:0.8;"/>
     </g>
     <g id="line2d_22">
      <g>
       <use x="59.404688" xlink:href="#ma6a58ef1ec" y="31.32"/>
      </g>
     </g>
     <g id="text_12">
      <!-- 1.3 -->
      <defs>
       <path d="M 40.578125 39.3125 
Q 47.65625 37.796875 51.625 33 
Q 55.609375 28.21875 55.609375 21.1875 
Q 55.609375 10.40625 48.1875 4.484375 
Q 40.765625 -1.421875 27.09375 -1.421875 
Q 22.515625 -1.421875 17.65625 -0.515625 
Q 12.796875 0.390625 7.625 2.203125 
L 7.625 11.71875 
Q 11.71875 9.328125 16.59375 8.109375 
Q 21.484375 6.890625 26.8125 6.890625 
Q 36.078125 6.890625 40.9375 10.546875 
Q 45.796875 14.203125 45.796875 21.1875 
Q 45.796875 27.640625 41.28125 31.265625 
Q 36.765625 34.90625 28.71875 34.90625 
L 20.21875 34.90625 
L 20.21875 43.015625 
L 29.109375 43.015625 
Q 36.375 43.015625 40.234375 45.921875 
Q 44.09375 48.828125 44.09375 54.296875 
Q 44.09375 59.90625 40.109375 62.90625 
Q 36.140625 65.921875 28.71875 65.921875 
Q 24.65625 65.921875 20.015625 65.03125 
Q 15.375 64.15625 9.8125 62.3125 
L 9.8125 71.09375 
Q 15.4375 72.65625 20.34375 73.4375 
Q 25.25 74.21875 29.59375 74.21875 
Q 40.828125 74.21875 47.359375 69.109375 
Q 53.90625 64.015625 53.90625 55.328125 
Q 53.90625 49.265625 50.4375 45.09375 
Q 46.96875 40.921875 40.578125 39.3125 
z
" id="DejaVuSans-33"/>
      </defs>
      <g transform="translate(26.05 37.018828)scale(0.15 -0.15)">
       <use xlink:href="#DejaVuSans-31"/>
       <use x="63.623047" xlink:href="#DejaVuSans-2e"/>
       <use x="95.410156" xlink:href="#DejaVuSans-33"/>
      </g>
     </g>
    </g>
    <g id="text_13">
     <!-- $\Delta/\overline{s_b}$ -->
     <defs>
      <path d="M 34.1875 63.1875 
L 14.15625 8.203125 
L 54.25 8.203125 
z
M 0.78125 0 
L 28.609375 72.90625 
L 39.796875 72.90625 
L 67.578125 0 
z
" id="DejaVuSans-394"/>
     </defs>
     <g transform="translate(18.930469 137.07)rotate(-90)scale(0.15 -0.15)">
      <use transform="translate(0 0.25)" xlink:href="#DejaVuSans-394"/>
      <use transform="translate(68.408203 0.25)" xlink:href="#DejaVuSans-2f"/>
      <use transform="translate(102.099609 0.75)" xlink:href="#DejaVuSans-Oblique-73"/>
      <use transform="translate(154.199219 -15.65625)scale(0.7)" xlink:href="#DejaVuSans-Oblique-62"/>
      <path d="M 102.099609 68.5 
L 102.099609 74.75 
L 201.367188 74.75 
L 201.367188 68.5 
L 102.099609 68.5 
z
"/>
     </g>
    </g>
   </g>
   <g id="LineCollection_1">
    <path clip-path="url(#p41152cf2c2)" d="M 145.55546 143.76631 
L 146.448547 143.76631 
" style="fill:none;stroke:#000000;stroke-width:3;"/>
    <path clip-path="url(#p41152cf2c2)" d="M 182.075393 141.64621 
L 182.464557 141.64621 
" style="fill:none;stroke:#000000;stroke-width:3;"/>
    <path clip-path="url(#p41152cf2c2)" d="M 207.143371 141.844089 
L 207.504532 141.844089 
" style="fill:none;stroke:#000000;stroke-width:3;"/>
    <path clip-path="url(#p41152cf2c2)" d="M 234.862912 138.505611 
L 235.326301 138.505611 
" style="fill:none;stroke:#000000;stroke-width:3;"/>
    <path clip-path="url(#p41152cf2c2)" d="M 286.468531 134.625975 
L 288.017935 134.625975 
" style="fill:none;stroke:#000000;stroke-width:3;"/>
   </g>
   <g id="LineCollection_2">
    <path clip-path="url(#p41152cf2c2)" d="M 146.002003 146.674086 
L 146.002003 140.858534 
" style="fill:none;stroke:#000000;stroke-width:3;"/>
    <path clip-path="url(#p41152cf2c2)" d="M 182.269975 144.654279 
L 182.269975 138.638141 
" style="fill:none;stroke:#000000;stroke-width:3;"/>
    <path clip-path="url(#p41152cf2c2)" d="M 207.323952 144.879912 
L 207.323952 138.808265 
" style="fill:none;stroke:#000000;stroke-width:3;"/>
    <path clip-path="url(#p41152cf2c2)" d="M 235.094607 141.556627 
L 235.094607 135.454595 
" style="fill:none;stroke:#000000;stroke-width:3;"/>
    <path clip-path="url(#p41152cf2c2)" d="M 287.243233 137.738722 
L 287.243233 131.513229 
" style="fill:none;stroke:#000000;stroke-width:3;"/>
   </g>
   <g id="LineCollection_3">
    <path clip-path="url(#p41152cf2c2)" d="M 165.621164 103.775269 
L 166.472481 103.775269 
" style="fill:none;stroke:#ff0000;stroke-width:3;"/>
    <path clip-path="url(#p41152cf2c2)" d="M 192.677695 125.446271 
L 193.017075 125.446271 
" style="fill:none;stroke:#ff0000;stroke-width:3;"/>
    <path clip-path="url(#p41152cf2c2)" d="M 210.276806 140.186905 
L 210.576395 140.186905 
" style="fill:none;stroke:#ff0000;stroke-width:3;"/>
    <path clip-path="url(#p41152cf2c2)" d="M 228.58091 154.910812 
L 228.955793 154.910812 
" style="fill:none;stroke:#ff0000;stroke-width:3;"/>
    <path clip-path="url(#p41152cf2c2)" d="M 259.286098 175.841082 
L 260.357863 175.841082 
" style="fill:none;stroke:#ff0000;stroke-width:3;"/>
   </g>
   <g id="LineCollection_4">
    <path clip-path="url(#p41152cf2c2)" d="M 166.046823 106.493221 
L 166.046823 101.057318 
" style="fill:none;stroke:#ff0000;stroke-width:3;"/>
    <path clip-path="url(#p41152cf2c2)" d="M 192.847385 128.084403 
L 192.847385 122.80814 
" style="fill:none;stroke:#ff0000;stroke-width:3;"/>
    <path clip-path="url(#p41152cf2c2)" d="M 210.426601 142.746724 
L 210.426601 137.627087 
" style="fill:none;stroke:#ff0000;stroke-width:3;"/>
    <path clip-path="url(#p41152cf2c2)" d="M 228.768351 157.378786 
L 228.768351 152.442838 
" style="fill:none;stroke:#ff0000;stroke-width:3;"/>
    <path clip-path="url(#p41152cf2c2)" d="M 259.821981 178.263463 
L 259.821981 173.418701 
" style="fill:none;stroke:#ff0000;stroke-width:3;"/>
   </g>
   <g id="LineCollection_5">
    <path clip-path="url(#p41152cf2c2)" d="M 120.345284 195.44582 
L 121.712622 195.44582 
" style="fill:none;stroke:#008000;stroke-width:3;"/>
    <path clip-path="url(#p41152cf2c2)" d="M 168.816072 159.993882 
L 169.474789 159.993882 
" style="fill:none;stroke:#008000;stroke-width:3;"/>
    <path clip-path="url(#p41152cf2c2)" d="M 203.386856 135.861552 
L 203.995342 135.861552 
" style="fill:none;stroke:#008000;stroke-width:3;"/>
    <path clip-path="url(#p41152cf2c2)" d="M 242.714536 117.757708 
L 243.548509 117.757708 
" style="fill:none;stroke:#008000;stroke-width:3;"/>
    <path clip-path="url(#p41152cf2c2)" d="M 319.31649 91.182739 
L 322.37768 91.182739 
" style="fill:none;stroke:#008000;stroke-width:3;"/>
   </g>
   <g id="LineCollection_6">
    <path clip-path="url(#p41152cf2c2)" d="M 121.028953 199.325005 
L 121.028953 191.566635 
" style="fill:none;stroke:#008000;stroke-width:3;"/>
    <path clip-path="url(#p41152cf2c2)" d="M 169.145431 164.075924 
L 169.145431 155.91184 
" style="fill:none;stroke:#008000;stroke-width:3;"/>
    <path clip-path="url(#p41152cf2c2)" d="M 203.691099 139.955286 
L 203.691099 131.767819 
" style="fill:none;stroke:#008000;stroke-width:3;"/>
    <path clip-path="url(#p41152cf2c2)" d="M 243.131523 121.995504 
L 243.131523 113.519912 
" style="fill:none;stroke:#008000;stroke-width:3;"/>
    <path clip-path="url(#p41152cf2c2)" d="M 320.847085 96.103264 
L 320.847085 86.262214 
" style="fill:none;stroke:#008000;stroke-width:3;"/>
   </g>
   <g id="line2d_23">
    <defs>
     <path d="M 0 5 
L 0 -5 
" id="m9ca160d921" style="stroke:#000000;"/>
    </defs>
    <g clip-path="url(#p41152cf2c2)">
     <use style="stroke:#000000;" x="145.55546" xlink:href="#m9ca160d921" y="143.76631"/>
     <use style="stroke:#000000;" x="182.075393" xlink:href="#m9ca160d921" y="141.64621"/>
     <use style="stroke:#000000;" x="207.143371" xlink:href="#m9ca160d921" y="141.844089"/>
     <use style="stroke:#000000;" x="234.862912" xlink:href="#m9ca160d921" y="138.505611"/>
     <use style="stroke:#000000;" x="286.468531" xlink:href="#m9ca160d921" y="134.625975"/>
    </g>
   </g>
   <g id="line2d_24">
    <g clip-path="url(#p41152cf2c2)">
     <use style="stroke:#000000;" x="146.448547" xlink:href="#m9ca160d921" y="143.76631"/>
     <use style="stroke:#000000;" x="182.464557" xlink:href="#m9ca160d921" y="141.64621"/>
     <use style="stroke:#000000;" x="207.504532" xlink:href="#m9ca160d921" y="141.844089"/>
     <use style="stroke:#000000;" x="235.326301" xlink:href="#m9ca160d921" y="138.505611"/>
     <use style="stroke:#000000;" x="288.017935" xlink:href="#m9ca160d921" y="134.625975"/>
    </g>
   </g>
   <g id="line2d_25">
    <defs>
     <path d="M 5 0 
L -5 -0 
" id="ma4f90d0689" style="stroke:#000000;"/>
    </defs>
    <g clip-path="url(#p41152cf2c2)">
     <use style="stroke:#000000;" x="146.002003" xlink:href="#ma4f90d0689" y="146.674086"/>
     <use style="stroke:#000000;" x="182.269975" xlink:href="#ma4f90d0689" y="144.654279"/>
     <use style="stroke:#000000;" x="207.323952" xlink:href="#ma4f90d0689" y="144.879912"/>
     <use style="stroke:#000000;" x="235.094607" xlink:href="#ma4f90d0689" y="141.556627"/>
     <use style="stroke:#000000;" x="287.243233" xlink:href="#ma4f90d0689" y="137.738722"/>
    </g>
   </g>
   <g id="line2d_26">
    <g clip-path="url(#p41152cf2c2)">
     <use style="stroke:#000000;" x="146.002003" xlink:href="#ma4f90d0689" y="140.858534"/>
     <use style="stroke:#000000;" x="182.269975" xlink:href="#ma4f90d0689" y="138.638141"/>
     <use style="stroke:#000000;" x="207.323952" xlink:href="#ma4f90d0689" y="138.808265"/>
     <use style="stroke:#000000;" x="235.094607" xlink:href="#ma4f90d0689" y="135.454595"/>
     <use style="stroke:#000000;" x="287.243233" xlink:href="#ma4f90d0689" y="131.513229"/>
    </g>
   </g>
   <g id="line2d_27">
    <defs>
     <path d="M 0 5 
L 0 -5 
" id="mcd6ece9798" style="stroke:#ff0000;"/>
    </defs>
    <g clip-path="url(#p41152cf2c2)">
     <use style="fill:#ff0000;stroke:#ff0000;" x="165.621164" xlink:href="#mcd6ece9798" y="103.775269"/>
     <use style="fill:#ff0000;stroke:#ff0000;" x="192.677695" xlink:href="#mcd6ece9798" y="125.446271"/>
     <use style="fill:#ff0000;stroke:#ff0000;" x="210.276806" xlink:href="#mcd6ece9798" y="140.186905"/>
     <use style="fill:#ff0000;stroke:#ff0000;" x="228.58091" xlink:href="#mcd6ece9798" y="154.910812"/>
     <use style="fill:#ff0000;stroke:#ff0000;" x="259.286098" xlink:href="#mcd6ece9798" y="175.841082"/>
    </g>
   </g>
   <g id="line2d_28">
    <g clip-path="url(#p41152cf2c2)">
     <use style="fill:#ff0000;stroke:#ff0000;" x="166.472481" xlink:href="#mcd6ece9798" y="103.775269"/>
     <use style="fill:#ff0000;stroke:#ff0000;" x="193.017075" xlink:href="#mcd6ece9798" y="125.446271"/>
     <use style="fill:#ff0000;stroke:#ff0000;" x="210.576395" xlink:href="#mcd6ece9798" y="140.186905"/>
     <use style="fill:#ff0000;stroke:#ff0000;" x="228.955793" xlink:href="#mcd6ece9798" y="154.910812"/>
     <use style="fill:#ff0000;stroke:#ff0000;" x="260.357863" xlink:href="#mcd6ece9798" y="175.841082"/>
    </g>
   </g>
   <g id="line2d_29">
    <defs>
     <path d="M 5 0 
L -5 -0 
" id="m00e0a201dd" style="stroke:#ff0000;"/>
    </defs>
    <g clip-path="url(#p41152cf2c2)">
     <use style="fill:#ff0000;stroke:#ff0000;" x="166.046823" xlink:href="#m00e0a201dd" y="106.493221"/>
     <use style="fill:#ff0000;stroke:#ff0000;" x="192.847385" xlink:href="#m00e0a201dd" y="128.084403"/>
     <use style="fill:#ff0000;stroke:#ff0000;" x="210.426601" xlink:href="#m00e0a201dd" y="142.746724"/>
     <use style="fill:#ff0000;stroke:#ff0000;" x="228.768351" xlink:href="#m00e0a201dd" y="157.378786"/>
     <use style="fill:#ff0000;stroke:#ff0000;" x="259.821981" xlink:href="#m00e0a201dd" y="178.263463"/>
    </g>
   </g>
   <g id="line2d_30">
    <g clip-path="url(#p41152cf2c2)">
     <use style="fill:#ff0000;stroke:#ff0000;" x="166.046823" xlink:href="#m00e0a201dd" y="101.057318"/>
     <use style="fill:#ff0000;stroke:#ff0000;" x="192.847385" xlink:href="#m00e0a201dd" y="122.80814"/>
     <use style="fill:#ff0000;stroke:#ff0000;" x="210.426601" xlink:href="#m00e0a201dd" y="137.627087"/>
     <use style="fill:#ff0000;stroke:#ff0000;" x="228.768351" xlink:href="#m00e0a201dd" y="152.442838"/>
     <use style="fill:#ff0000;stroke:#ff0000;" x="259.821981" xlink:href="#m00e0a201dd" y="173.418701"/>
    </g>
   </g>
   <g id="line2d_31">
    <defs>
     <path d="M 0 5 
L 0 -5 
" id="m71ced9f833" style="stroke:#008000;"/>
    </defs>
    <g clip-path="url(#p41152cf2c2)">
     <use style="fill:#008000;stroke:#008000;" x="120.345284" xlink:href="#m71ced9f833" y="195.44582"/>
     <use style="fill:#008000;stroke:#008000;" x="168.816072" xlink:href="#m71ced9f833" y="159.993882"/>
     <use style="fill:#008000;stroke:#008000;" x="203.386856" xlink:href="#m71ced9f833" y="135.861552"/>
     <use style="fill:#008000;stroke:#008000;" x="242.714536" xlink:href="#m71ced9f833" y="117.757708"/>
     <use style="fill:#008000;stroke:#008000;" x="319.31649" xlink:href="#m71ced9f833" y="91.182739"/>
    </g>
   </g>
   <g id="line2d_32">
    <g clip-path="url(#p41152cf2c2)">
     <use style="fill:#008000;stroke:#008000;" x="121.712622" xlink:href="#m71ced9f833" y="195.44582"/>
     <use style="fill:#008000;stroke:#008000;" x="169.474789" xlink:href="#m71ced9f833" y="159.993882"/>
     <use style="fill:#008000;stroke:#008000;" x="203.995342" xlink:href="#m71ced9f833" y="135.861552"/>
     <use style="fill:#008000;stroke:#008000;" x="243.548509" xlink:href="#m71ced9f833" y="117.757708"/>
     <use style="fill:#008000;stroke:#008000;" x="322.37768" xlink:href="#m71ced9f833" y="91.182739"/>
    </g>
   </g>
   <g id="line2d_33">
    <defs>
     <path d="M 5 0 
L -5 -0 
" id="mdc26974b8a" style="stroke:#008000;"/>
    </defs>
    <g clip-path="url(#p41152cf2c2)">
     <use style="fill:#008000;stroke:#008000;" x="121.028953" xlink:href="#mdc26974b8a" y="199.325005"/>
     <use style="fill:#008000;stroke:#008000;" x="169.145431" xlink:href="#mdc26974b8a" y="164.075924"/>
     <use style="fill:#008000;stroke:#008000;" x="203.691099" xlink:href="#mdc26974b8a" y="139.955286"/>
     <use style="fill:#008000;stroke:#008000;" x="243.131523" xlink:href="#mdc26974b8a" y="121.995504"/>
     <use style="fill:#008000;stroke:#008000;" x="320.847085" xlink:href="#mdc26974b8a" y="96.103264"/>
    </g>
   </g>
   <g id="line2d_34">
    <g clip-path="url(#p41152cf2c2)">
     <use style="fill:#008000;stroke:#008000;" x="121.028953" xlink:href="#mdc26974b8a" y="191.566635"/>
     <use style="fill:#008000;stroke:#008000;" x="169.145431" xlink:href="#mdc26974b8a" y="155.91184"/>
     <use style="fill:#008000;stroke:#008000;" x="203.691099" xlink:href="#mdc26974b8a" y="131.767819"/>
     <use style="fill:#008000;stroke:#008000;" x="243.131523" xlink:href="#mdc26974b8a" y="113.519912"/>
     <use style="fill:#008000;stroke:#008000;" x="320.847085" xlink:href="#mdc26974b8a" y="86.262214"/>
    </g>
   </g>
   <g id="line2d_35">
    <path clip-path="url(#p41152cf2c2)" d="M 73.239398 226.911854 
L 76.034289 224.811308 
L 78.82918 222.731476 
L 81.624071 220.671756 
L 84.418962 218.631577 
L 87.213854 216.610393 
L 90.008745 214.607684 
L 92.803636 212.622953 
L 95.598527 210.655724 
L 98.393418 208.705543 
L 101.188309 206.771974 
L 103.9832 204.854601 
L 106.778091 202.953023 
L 109.572982 201.066857 
L 112.367873 199.195734 
L 115.162764 197.339301 
L 117.957655 195.497216 
L 120.752546 193.669153 
L 123.547437 191.854797 
L 126.342328 190.053843 
L 129.137219 188.266001 
L 131.93211 186.490986 
L 134.727002 184.728529 
L 137.521893 182.978365 
L 140.316784 181.240242 
L 143.111675 179.513915 
L 145.906566 177.799147 
L 148.701457 176.095708 
L 151.496348 174.403378 
L 154.291239 172.721943 
L 157.08613 171.051194 
L 159.881021 169.390931 
L 162.675912 167.740959 
L 165.470803 166.10109 
L 168.265694 164.471139 
L 171.060585 162.850929 
L 173.855476 161.240288 
L 176.650367 159.639049 
L 179.445258 158.047049 
L 182.24015 156.46413 
L 185.035041 154.890138 
L 187.829932 153.324925 
L 190.624823 151.768345 
L 193.419714 150.220257 
L 196.214605 148.680523 
L 199.009496 147.149011 
L 201.804387 145.625589 
L 204.599278 144.110132 
L 207.394169 142.602515 
L 210.18906 141.102619 
L 212.983951 139.610326 
L 215.778842 138.125521 
L 218.573733 136.648094 
L 221.368624 135.177935 
L 224.163515 133.714938 
L 226.958407 132.259 
L 229.753298 130.81002 
L 232.548189 129.367899 
L 235.34308 127.932541 
L 238.137971 126.503851 
L 240.932862 125.081738 
L 243.727753 123.666111 
L 246.522644 122.256883 
L 249.317535 120.853967 
L 252.112426 119.457281 
L 254.907317 118.066742 
L 257.702208 116.682269 
L 260.497099 115.303783 
L 263.29199 113.931209 
L 266.086881 112.56447 
L 268.881772 111.203492 
L 271.676663 109.848205 
L 274.471555 108.498536 
L 277.266446 107.154418 
L 280.061337 105.815781 
L 282.856228 104.482559 
L 285.651119 103.154688 
L 288.44601 101.832104 
L 291.240901 100.514743 
L 294.035792 99.202546 
L 296.830683 97.89545 
L 299.625574 96.593398 
L 302.420465 95.296332 
L 305.215356 94.004195 
L 308.010247 92.716931 
L 310.805138 91.434485 
L 313.600029 90.156804 
L 316.39492 88.883836 
L 319.189811 87.615528 
L 321.984703 86.351829 
L 324.779594 85.092691 
L 327.574485 83.838064 
L 330.369376 82.5879 
L 333.164267 81.342151 
L 335.959158 80.100772 
L 338.754049 78.863716 
L 341.54894 77.630939 
L 344.343831 76.402398 
L 347.138722 75.178047 
L 349.933613 73.957846 
" style="fill:none;stroke:#008000;stroke-linecap:square;stroke-width:2;"/>
   </g>
   <g id="line2d_36">
    <path clip-path="url(#p41152cf2c2)" d="M 73.239398 140.107938 
L 76.034289 140.109616 
L 78.82918 140.111293 
L 81.624071 140.112971 
L 84.418962 140.114648 
L 87.213854 140.116326 
L 90.008745 140.118004 
L 92.803636 140.119681 
L 95.598527 140.121359 
L 98.393418 140.123036 
L 101.188309 140.124714 
L 103.9832 140.126391 
L 106.778091 140.128069 
L 109.572982 140.129746 
L 112.367873 140.131424 
L 115.162764 140.133101 
L 117.957655 140.134779 
L 120.752546 140.136457 
L 123.547437 140.138134 
L 126.342328 140.139812 
L 129.137219 140.141489 
L 131.93211 140.143167 
L 134.727002 140.144844 
L 137.521893 140.146522 
L 140.316784 140.148199 
L 143.111675 140.149877 
L 145.906566 140.151554 
L 148.701457 140.153232 
L 151.496348 140.15491 
L 154.291239 140.156587 
L 157.08613 140.158265 
L 159.881021 140.159942 
L 162.675912 140.16162 
L 165.470803 140.163297 
L 168.265694 140.164975 
L 171.060585 140.166652 
L 173.855476 140.16833 
L 176.650367 140.170008 
L 179.445258 140.171685 
L 182.24015 140.173363 
L 185.035041 140.17504 
L 187.829932 140.176718 
L 190.624823 140.178395 
L 193.419714 140.180073 
L 196.214605 140.18175 
L 199.009496 140.183428 
L 201.804387 140.185105 
L 204.599278 140.186783 
L 207.394169 140.188461 
L 210.18906 140.190138 
L 212.983951 140.191816 
L 215.778842 140.193493 
L 218.573733 140.195171 
L 221.368624 140.196848 
L 224.163515 140.198526 
L 226.958407 140.200203 
L 229.753298 140.201881 
L 232.548189 140.203558 
L 235.34308 140.205236 
L 238.137971 140.206914 
L 240.932862 140.208591 
L 243.727753 140.210269 
L 246.522644 140.211946 
L 249.317535 140.213624 
L 252.112426 140.215301 
L 254.907317 140.216979 
L 257.702208 140.218656 
L 260.497099 140.220334 
L 263.29199 140.222011 
L 266.086881 140.223689 
L 268.881772 140.225367 
L 271.676663 140.227044 
L 274.471555 140.228722 
L 277.266446 140.230399 
L 280.061337 140.232077 
L 282.856228 140.233754 
L 285.651119 140.235432 
L 288.44601 140.237109 
L 291.240901 140.238787 
L 294.035792 140.240464 
L 296.830683 140.242142 
L 299.625574 140.24382 
L 302.420465 140.245497 
L 305.215356 140.247175 
L 308.010247 140.248852 
L 310.805138 140.25053 
L 313.600029 140.252207 
L 316.39492 140.253885 
L 319.189811 140.255562 
L 321.984703 140.25724 
L 324.779594 140.258917 
L 327.574485 140.260595 
L 330.369376 140.262273 
L 333.164267 140.26395 
L 335.959158 140.265628 
L 338.754049 140.267305 
L 341.54894 140.268983 
L 344.343831 140.27066 
L 347.138722 140.272338 
L 349.933613 140.274015 
" style="fill:none;stroke:#000000;stroke-linecap:square;stroke-width:2;"/>
   </g>
   <g id="line2d_37">
    <path clip-path="url(#p41152cf2c2)" d="M 73.239398 31.565377 
L 76.034289 34.177361 
L 78.82918 36.770268 
L 81.624071 39.344199 
L 84.418962 41.899258 
L 87.213854 44.435547 
L 90.008745 46.953169 
L 92.803636 49.45223 
L 95.598527 51.932835 
L 98.393418 54.39509 
L 101.188309 56.839102 
L 103.9832 59.264979 
L 106.778091 61.672829 
L 109.572982 64.062761 
L 112.367873 66.434884 
L 115.162764 68.78931 
L 117.957655 71.126147 
L 120.752546 73.445507 
L 123.547437 75.747502 
L 126.342328 78.032242 
L 129.137219 80.299841 
L 131.93211 82.550411 
L 134.727002 84.784064 
L 137.521893 87.000914 
L 140.316784 89.201073 
L 143.111675 91.384655 
L 145.906566 93.551774 
L 148.701457 95.702542 
L 151.496348 97.837074 
L 154.291239 99.955484 
L 157.08613 102.057884 
L 159.881021 104.14439 
L 162.675912 106.215115 
L 165.470803 108.270172 
L 168.265694 110.309675 
L 171.060585 112.333738 
L 173.855476 114.342474 
L 176.650367 116.335996 
L 179.445258 118.314418 
L 182.24015 120.277852 
L 185.035041 122.226412 
L 187.829932 124.160208 
L 190.624823 126.079355 
L 193.419714 127.983962 
L 196.214605 129.874143 
L 199.009496 131.750008 
L 201.804387 133.611669 
L 204.599278 135.459235 
L 207.394169 137.292818 
L 210.18906 139.112526 
L 212.983951 140.91847 
L 215.778842 142.710758 
L 218.573733 144.489499 
L 221.368624 146.254802 
L 224.163515 148.006772 
L 226.958407 149.745519 
L 229.753298 151.471148 
L 232.548189 153.183766 
L 235.34308 154.883479 
L 238.137971 156.570391 
L 240.932862 158.244608 
L 243.727753 159.906233 
L 246.522644 161.55537 
L 249.317535 163.192122 
L 252.112426 164.816591 
L 254.907317 166.428879 
L 257.702208 168.029088 
L 260.497099 169.617318 
L 263.29199 171.19367 
L 266.086881 172.758242 
L 268.881772 174.311134 
L 271.676663 175.852443 
L 274.471555 177.382268 
L 277.266446 178.900706 
L 280.061337 180.407852 
L 282.856228 181.903803 
L 285.651119 183.388653 
L 288.44601 184.862498 
L 291.240901 186.32543 
L 294.035792 187.777543 
L 296.830683 189.21893 
L 299.625574 190.649683 
L 302.420465 192.069891 
L 305.215356 193.479647 
L 308.010247 194.87904 
L 310.805138 196.268159 
L 313.600029 197.647093 
L 316.39492 199.015929 
L 319.189811 200.374755 
L 321.984703 201.723658 
L 324.779594 203.062722 
L 327.574485 204.392034 
L 330.369376 205.711678 
L 333.164267 207.021738 
L 335.959158 208.322297 
L 338.754049 209.613437 
L 341.54894 210.895241 
L 344.343831 212.16779 
L 347.138722 213.431164 
L 349.933613 214.685443 
" style="fill:none;stroke:#ff0000;stroke-linecap:square;stroke-width:2;"/>
   </g>
   <g id="line2d_38">
    <defs>
     <path d="M 0 4 
C 1.060812 4 2.078319 3.578535 2.828427 2.828427 
C 3.578535 2.078319 4 1.060812 4 0 
C 4 -1.060812 3.578535 -2.078319 2.828427 -2.828427 
C 2.078319 -3.578535 1.060812 -4 0 -4 
C -1.060812 -4 -2.078319 -3.578535 -2.828427 -2.828427 
C -3.578535 -2.078319 -4 -1.060812 -4 0 
C -4 1.060812 -3.578535 2.078319 -2.828427 2.828427 
C -2.078319 3.578535 -1.060812 4 0 4 
z
" id="m27a3903e1c" style="stroke:#000000;"/>
    </defs>
    <g clip-path="url(#p41152cf2c2)">
     <use style="stroke:#000000;" x="146.002003" xlink:href="#m27a3903e1c" y="143.76631"/>
     <use style="stroke:#000000;" x="182.269975" xlink:href="#m27a3903e1c" y="141.64621"/>
     <use style="stroke:#000000;" x="207.323952" xlink:href="#m27a3903e1c" y="141.844089"/>
     <use style="stroke:#000000;" x="235.094607" xlink:href="#m27a3903e1c" y="138.505611"/>
     <use style="stroke:#000000;" x="287.243233" xlink:href="#m27a3903e1c" y="134.625975"/>
    </g>
   </g>
   <g id="line2d_39">
    <defs>
     <path d="M 0 4 
C 1.060812 4 2.078319 3.578535 2.828427 2.828427 
C 3.578535 2.078319 4 1.060812 4 0 
C 4 -1.060812 3.578535 -2.078319 2.828427 -2.828427 
C 2.078319 -3.578535 1.060812 -4 0 -4 
C -1.060812 -4 -2.078319 -3.578535 -2.828427 -2.828427 
C -3.578535 -2.078319 -4 -1.060812 -4 0 
C -4 1.060812 -3.578535 2.078319 -2.828427 2.828427 
C -2.078319 3.578535 -1.060812 4 0 4 
z
" id="m9d893bfbbf" style="stroke:#000000;"/>
    </defs>
    <g clip-path="url(#p41152cf2c2)">
     <use style="fill:#ff0000;stroke:#000000;" x="166.046823" xlink:href="#m9d893bfbbf" y="103.775269"/>
     <use style="fill:#ff0000;stroke:#000000;" x="192.847385" xlink:href="#m9d893bfbbf" y="125.446271"/>
     <use style="fill:#ff0000;stroke:#000000;" x="210.426601" xlink:href="#m9d893bfbbf" y="140.186905"/>
     <use style="fill:#ff0000;stroke:#000000;" x="228.768351" xlink:href="#m9d893bfbbf" y="154.910812"/>
     <use style="fill:#ff0000;stroke:#000000;" x="259.821981" xlink:href="#m9d893bfbbf" y="175.841082"/>
    </g>
   </g>
   <g id="line2d_40">
    <defs>
     <path d="M 0 4 
C 1.060812 4 2.078319 3.578535 2.828427 2.828427 
C 3.578535 2.078319 4 1.060812 4 0 
C 4 -1.060812 3.578535 -2.078319 2.828427 -2.828427 
C 2.078319 -3.578535 1.060812 -4 0 -4 
C -1.060812 -4 -2.078319 -3.578535 -2.828427 -2.828427 
C -3.578535 -2.078319 -4 -1.060812 -4 0 
C -4 1.060812 -3.578535 2.078319 -2.828427 2.828427 
C -2.078319 3.578535 -1.060812 4 0 4 
z
" id="m0859d331b3" style="stroke:#000000;"/>
    </defs>
    <g clip-path="url(#p41152cf2c2)">
     <use style="fill:#008000;stroke:#000000;" x="121.028953" xlink:href="#m0859d331b3" y="195.44582"/>
     <use style="fill:#008000;stroke:#000000;" x="169.145431" xlink:href="#m0859d331b3" y="159.993882"/>
     <use style="fill:#008000;stroke:#000000;" x="203.691099" xlink:href="#m0859d331b3" y="135.861552"/>
     <use style="fill:#008000;stroke:#000000;" x="243.131523" xlink:href="#m0859d331b3" y="117.757708"/>
     <use style="fill:#008000;stroke:#000000;" x="320.847085" xlink:href="#m0859d331b3" y="91.182739"/>
    </g>
   </g>
   <g id="patch_3">
    <path d="M 59.404688 230.64 
L 59.404688 13.2 
" style="fill:none;stroke:#000000;stroke-linecap:square;stroke-linejoin:miter;stroke-width:2;"/>
   </g>
   <g id="patch_4">
    <path d="M 363.768324 230.64 
L 363.768324 13.2 
" style="fill:none;"/>
   </g>
   <g id="patch_5">
    <path d="M 59.404688 230.64 
L 363.768324 230.64 
" style="fill:none;stroke:#000000;stroke-linecap:square;stroke-linejoin:miter;stroke-width:2;"/>
   </g>
   <g id="patch_6">
    <path d="M 59.404688 13.2 
L 363.768324 13.2 
" style="fill:none;"/>
   </g>
   <g id="text_14">
    <!-- $\lambda = 2$ -->
    <defs>
     <path d="M 36.71875 67.4375 
L 48.828125 0 
L 39.3125 0 
L 31.84375 40.4375 
L 5.125 0 
L -4.390625 0 
L 29.734375 52.4375 
L 28.03125 62.109375 
Q 26.953125 68.265625 21.734375 68.265625 
L 17.046875 68.265625 
L 18.5 75.984375 
L 24.21875 75.875 
Q 35.203125 75.734375 36.71875 67.4375 
z
" id="DejaVuSans-Oblique-3bb"/>
     <path d="M 10.59375 45.40625 
L 73.1875 45.40625 
L 73.1875 37.203125 
L 10.59375 37.203125 
z
M 10.59375 25.484375 
L 73.1875 25.484375 
L 73.1875 17.1875 
L 10.59375 17.1875 
z
" id="DejaVuSans-3d"/>
    </defs>
    <g transform="translate(88.266969 40.817838)rotate(-325)scale(0.1 -0.1)">
     <use transform="translate(0 0.015625)" xlink:href="#DejaVuSans-Oblique-3bb"/>
     <use transform="translate(78.662109 0.015625)" xlink:href="#DejaVuSans-3d"/>
     <use transform="translate(181.933594 0.015625)" xlink:href="#DejaVuSans-32"/>
    </g>
   </g>
   <g id="text_15">
    <!-- $\lambda = 1$ -->
    <g transform="translate(87.074109 136.416)scale(0.1 -0.1)">
     <use transform="translate(0 0.015625)" xlink:href="#DejaVuSans-Oblique-3bb"/>
     <use transform="translate(78.662109 0.015625)" xlink:href="#DejaVuSans-3d"/>
     <use transform="translate(181.933594 0.015625)" xlink:href="#DejaVuSans-31"/>
    </g>
   </g>
   <g id="text_16">
    <!-- $\lambda = 0.5$ -->
    <defs>
     <path d="M 10.796875 72.90625 
L 49.515625 72.90625 
L 49.515625 64.59375 
L 19.828125 64.59375 
L 19.828125 46.734375 
Q 21.96875 47.46875 24.109375 47.828125 
Q 26.265625 48.1875 28.421875 48.1875 
Q 40.625 48.1875 47.75 41.5 
Q 54.890625 34.8125 54.890625 23.390625 
Q 54.890625 11.625 47.5625 5.09375 
Q 40.234375 -1.421875 26.90625 -1.421875 
Q 22.3125 -1.421875 17.546875 -0.640625 
Q 12.796875 0.140625 7.71875 1.703125 
L 7.71875 11.625 
Q 12.109375 9.234375 16.796875 8.0625 
Q 21.484375 6.890625 26.703125 6.890625 
Q 35.15625 6.890625 40.078125 11.328125 
Q 45.015625 15.765625 45.015625 23.390625 
Q 45.015625 31 40.078125 35.4375 
Q 35.15625 39.890625 26.703125 39.890625 
Q 22.75 39.890625 18.8125 39.015625 
Q 14.890625 38.140625 10.796875 36.28125 
z
" id="DejaVuSans-35"/>
    </defs>
    <g transform="translate(91.432394 205.336795)rotate(-35)scale(0.1 -0.1)">
     <use transform="translate(0 0.015625)" xlink:href="#DejaVuSans-Oblique-3bb"/>
     <use transform="translate(78.662109 0.015625)" xlink:href="#DejaVuSans-3d"/>
     <use transform="translate(181.933594 0.015625)" xlink:href="#DejaVuSans-30"/>
     <use transform="translate(245.556641 0.015625)" xlink:href="#DejaVuSans-2e"/>
     <use transform="translate(277.34375 0.015625)" xlink:href="#DejaVuSans-35"/>
    </g>
   </g>
  </g>
  <g id="axes_2">
   <g id="patch_7">
    <path d="M 424.641051 230.64 
L 729.004687 230.64 
L 729.004687 13.2 
L 424.641051 13.2 
z
" style="fill:#ffffff;"/>
   </g>
   <g id="matplotlib.axis_3">
    <g id="xtick_6">
     <g id="line2d_41">
      <path clip-path="url(#pd8bff7663c)" d="M 466.145183 230.64 
L 466.145183 13.2 
" style="fill:none;stroke:#b0b0b0;stroke-linecap:square;stroke-width:0.8;"/>
     </g>
     <g id="line2d_42">
      <g>
       <use x="466.145183" xlink:href="#m5a034b865b" y="230.64"/>
      </g>
     </g>
     <g id="text_17">
      <!-- 0.6 -->
      <g transform="translate(454.21784 251.537656)scale(0.15 -0.15)">
       <use xlink:href="#DejaVuSans-30"/>
       <use x="63.623047" xlink:href="#DejaVuSans-2e"/>
       <use x="95.410156" xlink:href="#DejaVuSans-36"/>
      </g>
     </g>
    </g>
    <g id="xtick_7">
     <g id="line2d_43">
      <path clip-path="url(#pd8bff7663c)" d="M 521.484026 230.64 
L 521.484026 13.2 
" style="fill:none;stroke:#b0b0b0;stroke-linecap:square;stroke-width:0.8;"/>
     </g>
     <g id="line2d_44">
      <g>
       <use x="521.484026" xlink:href="#m5a034b865b" y="230.64"/>
      </g>
     </g>
     <g id="text_18">
      <!-- 0.8 -->
      <g transform="translate(509.556683 251.537656)scale(0.15 -0.15)">
       <use xlink:href="#DejaVuSans-30"/>
       <use x="63.623047" xlink:href="#DejaVuSans-2e"/>
       <use x="95.410156" xlink:href="#DejaVuSans-38"/>
      </g>
     </g>
    </g>
    <g id="xtick_8">
     <g id="line2d_45">
      <path clip-path="url(#pd8bff7663c)" d="M 576.822869 230.64 
L 576.822869 13.2 
" style="fill:none;stroke:#b0b0b0;stroke-linecap:square;stroke-width:0.8;"/>
     </g>
     <g id="line2d_46">
      <g>
       <use x="576.822869" xlink:href="#m5a034b865b" y="230.64"/>
      </g>
     </g>
     <g id="text_19">
      <!-- 1.0 -->
      <g transform="translate(564.895526 251.537656)scale(0.15 -0.15)">
       <use xlink:href="#DejaVuSans-31"/>
       <use x="63.623047" xlink:href="#DejaVuSans-2e"/>
       <use x="95.410156" xlink:href="#DejaVuSans-30"/>
      </g>
     </g>
    </g>
    <g id="xtick_9">
     <g id="line2d_47">
      <path clip-path="url(#pd8bff7663c)" d="M 632.161712 230.64 
L 632.161712 13.2 
" style="fill:none;stroke:#b0b0b0;stroke-linecap:square;stroke-width:0.8;"/>
     </g>
     <g id="line2d_48">
      <g>
       <use x="632.161712" xlink:href="#m5a034b865b" y="230.64"/>
      </g>
     </g>
     <g id="text_20">
      <!-- 1.2 -->
      <g transform="translate(620.234369 251.537656)scale(0.15 -0.15)">
       <use xlink:href="#DejaVuSans-31"/>
       <use x="63.623047" xlink:href="#DejaVuSans-2e"/>
       <use x="95.410156" xlink:href="#DejaVuSans-32"/>
      </g>
     </g>
    </g>
    <g id="xtick_10">
     <g id="line2d_49">
      <path clip-path="url(#pd8bff7663c)" d="M 687.500555 230.64 
L 687.500555 13.2 
" style="fill:none;stroke:#b0b0b0;stroke-linecap:square;stroke-width:0.8;"/>
     </g>
     <g id="line2d_50">
      <g>
       <use x="687.500555" xlink:href="#m5a034b865b" y="230.64"/>
      </g>
     </g>
     <g id="text_21">
      <!-- 1.4 -->
      <g transform="translate(675.573212 251.537656)scale(0.15 -0.15)">
       <use xlink:href="#DejaVuSans-31"/>
       <use x="63.623047" xlink:href="#DejaVuSans-2e"/>
       <use x="95.410156" xlink:href="#DejaVuSans-34"/>
      </g>
     </g>
    </g>
    <g id="text_22">
     <!-- $s_b/\overline{s_b}$ -->
     <g transform="translate(553.522869 274.297812)scale(0.2 -0.2)">
      <use transform="translate(0 0.25)" xlink:href="#DejaVuSans-Oblique-73"/>
      <use transform="translate(52.099609 -16.15625)scale(0.7)" xlink:href="#DejaVuSans-Oblique-62"/>
      <use transform="translate(99.267578 0.25)" xlink:href="#DejaVuSans-2f"/>
      <use transform="translate(132.958984 0.75)" xlink:href="#DejaVuSans-Oblique-73"/>
      <use transform="translate(185.058594 -15.65625)scale(0.7)" xlink:href="#DejaVuSans-Oblique-62"/>
      <path d="M 132.958984 68.5 
L 132.958984 74.75 
L 232.226562 74.75 
L 232.226562 68.5 
L 132.958984 68.5 
z
"/>
     </g>
    </g>
   </g>
   <g id="matplotlib.axis_4">
    <g id="ytick_7">
     <g id="line2d_51">
      <path clip-path="url(#pd8bff7663c)" d="M 424.641051 215.108571 
L 729.004687 215.108571 
" style="fill:none;stroke:#b0b0b0;stroke-linecap:square;stroke-width:0.8;"/>
     </g>
     <g id="line2d_52">
      <g>
       <use x="424.641051" xlink:href="#ma6a58ef1ec" y="215.108571"/>
      </g>
     </g>
     <g id="text_23">
      <!-- 0.04 -->
      <g transform="translate(381.742614 220.8074)scale(0.15 -0.15)">
       <use xlink:href="#DejaVuSans-30"/>
       <use x="63.623047" xlink:href="#DejaVuSans-2e"/>
       <use x="95.410156" xlink:href="#DejaVuSans-30"/>
       <use x="159.033203" xlink:href="#DejaVuSans-34"/>
      </g>
     </g>
    </g>
    <g id="ytick_8">
     <g id="line2d_53">
      <path clip-path="url(#pd8bff7663c)" d="M 424.641051 184.045714 
L 729.004687 184.045714 
" style="fill:none;stroke:#b0b0b0;stroke-linecap:square;stroke-width:0.8;"/>
     </g>
     <g id="line2d_54">
      <g>
       <use x="424.641051" xlink:href="#ma6a58ef1ec" y="184.045714"/>
      </g>
     </g>
     <g id="text_24">
      <!-- 0.06 -->
      <g transform="translate(381.742614 189.744542)scale(0.15 -0.15)">
       <use xlink:href="#DejaVuSans-30"/>
       <use x="63.623047" xlink:href="#DejaVuSans-2e"/>
       <use x="95.410156" xlink:href="#DejaVuSans-30"/>
       <use x="159.033203" xlink:href="#DejaVuSans-36"/>
      </g>
     </g>
    </g>
    <g id="ytick_9">
     <g id="line2d_55">
      <path clip-path="url(#pd8bff7663c)" d="M 424.641051 152.982857 
L 729.004687 152.982857 
" style="fill:none;stroke:#b0b0b0;stroke-linecap:square;stroke-width:0.8;"/>
     </g>
     <g id="line2d_56">
      <g>
       <use x="424.641051" xlink:href="#ma6a58ef1ec" y="152.982857"/>
      </g>
     </g>
     <g id="text_25">
      <!-- 0.08 -->
      <g transform="translate(381.742614 158.681685)scale(0.15 -0.15)">
       <use xlink:href="#DejaVuSans-30"/>
       <use x="63.623047" xlink:href="#DejaVuSans-2e"/>
       <use x="95.410156" xlink:href="#DejaVuSans-30"/>
       <use x="159.033203" xlink:href="#DejaVuSans-38"/>
      </g>
     </g>
    </g>
    <g id="ytick_10">
     <g id="line2d_57">
      <path clip-path="url(#pd8bff7663c)" d="M 424.641051 121.92 
L 729.004687 121.92 
" style="fill:none;stroke:#b0b0b0;stroke-linecap:square;stroke-width:0.8;"/>
     </g>
     <g id="line2d_58">
      <g>
       <use x="424.641051" xlink:href="#ma6a58ef1ec" y="121.92"/>
      </g>
     </g>
     <g id="text_26">
      <!-- 0.10 -->
      <g transform="translate(381.742614 127.618828)scale(0.15 -0.15)">
       <use xlink:href="#DejaVuSans-30"/>
       <use x="63.623047" xlink:href="#DejaVuSans-2e"/>
       <use x="95.410156" xlink:href="#DejaVuSans-31"/>
       <use x="159.033203" xlink:href="#DejaVuSans-30"/>
      </g>
     </g>
    </g>
    <g id="ytick_11">
     <g id="line2d_59">
      <path clip-path="url(#pd8bff7663c)" d="M 424.641051 90.857143 
L 729.004687 90.857143 
" style="fill:none;stroke:#b0b0b0;stroke-linecap:square;stroke-width:0.8;"/>
     </g>
     <g id="line2d_60">
      <g>
       <use x="424.641051" xlink:href="#ma6a58ef1ec" y="90.857143"/>
      </g>
     </g>
     <g id="text_27">
      <!-- 0.12 -->
      <g transform="translate(381.742614 96.555971)scale(0.15 -0.15)">
       <use xlink:href="#DejaVuSans-30"/>
       <use x="63.623047" xlink:href="#DejaVuSans-2e"/>
       <use x="95.410156" xlink:href="#DejaVuSans-31"/>
       <use x="159.033203" xlink:href="#DejaVuSans-32"/>
      </g>
     </g>
    </g>
    <g id="ytick_12">
     <g id="line2d_61">
      <path clip-path="url(#pd8bff7663c)" d="M 424.641051 59.794286 
L 729.004687 59.794286 
" style="fill:none;stroke:#b0b0b0;stroke-linecap:square;stroke-width:0.8;"/>
     </g>
     <g id="line2d_62">
      <g>
       <use x="424.641051" xlink:href="#ma6a58ef1ec" y="59.794286"/>
      </g>
     </g>
     <g id="text_28">
      <!-- 0.14 -->
      <g transform="translate(381.742614 65.493114)scale(0.15 -0.15)">
       <use xlink:href="#DejaVuSans-30"/>
       <use x="63.623047" xlink:href="#DejaVuSans-2e"/>
       <use x="95.410156" xlink:href="#DejaVuSans-31"/>
       <use x="159.033203" xlink:href="#DejaVuSans-34"/>
      </g>
     </g>
    </g>
    <g id="ytick_13">
     <g id="line2d_63">
      <path clip-path="url(#pd8bff7663c)" d="M 424.641051 28.731429 
L 729.004687 28.731429 
" style="fill:none;stroke:#b0b0b0;stroke-linecap:square;stroke-width:0.8;"/>
     </g>
     <g id="line2d_64">
      <g>
       <use x="424.641051" xlink:href="#ma6a58ef1ec" y="28.731429"/>
      </g>
     </g>
     <g id="text_29">
      <!-- 0.16 -->
      <g transform="translate(381.742614 34.430257)scale(0.15 -0.15)">
       <use xlink:href="#DejaVuSans-30"/>
       <use x="63.623047" xlink:href="#DejaVuSans-2e"/>
       <use x="95.410156" xlink:href="#DejaVuSans-31"/>
       <use x="159.033203" xlink:href="#DejaVuSans-36"/>
      </g>
     </g>
    </g>
    <g id="text_30">
     <!-- $C_V^2(\Delta)$ -->
     <defs>
      <path d="M 69.484375 67.28125 
L 67.484375 56.890625 
Q 62.796875 61.625 57.546875 63.921875 
Q 52.296875 66.21875 46.1875 66.21875 
Q 37.84375 66.21875 31.515625 62.203125 
Q 25.203125 58.203125 20.609375 50 
Q 17.671875 44.734375 16.125 38.84375 
Q 14.59375 32.953125 14.59375 27 
Q 14.59375 17.046875 19.75 11.8125 
Q 24.90625 6.59375 34.71875 6.59375 
Q 41.5 6.59375 47.75 8.765625 
Q 54 10.9375 59.90625 15.28125 
L 57.625 3.609375 
Q 51.8125 1.125 45.875 -0.140625 
Q 39.9375 -1.421875 33.984375 -1.421875 
Q 19.96875 -1.421875 12.078125 6.1875 
Q 4.203125 13.8125 4.203125 27.390625 
Q 4.203125 36.078125 7.203125 44.46875 
Q 10.203125 52.875 15.828125 59.8125 
Q 21.78125 67.1875 29.421875 70.703125 
Q 37.0625 74.21875 47.21875 74.21875 
Q 53.46875 74.21875 59.0625 72.484375 
Q 64.65625 70.75 69.484375 67.28125 
z
" id="DejaVuSans-Oblique-43"/>
      <path d="M 20.609375 0 
L 7.8125 72.90625 
L 17.484375 72.90625 
L 28.078125 10.203125 
L 63.484375 72.90625 
L 74.21875 72.90625 
L 32.078125 0 
z
" id="DejaVuSans-Oblique-56"/>
      <path d="M 31 75.875 
Q 24.46875 64.65625 21.28125 53.65625 
Q 18.109375 42.671875 18.109375 31.390625 
Q 18.109375 20.125 21.3125 9.0625 
Q 24.515625 -2 31 -13.1875 
L 23.1875 -13.1875 
Q 15.875 -1.703125 12.234375 9.375 
Q 8.59375 20.453125 8.59375 31.390625 
Q 8.59375 42.28125 12.203125 53.3125 
Q 15.828125 64.359375 23.1875 75.875 
z
" id="DejaVuSans-28"/>
      <path d="M 8.015625 75.875 
L 15.828125 75.875 
Q 23.140625 64.359375 26.78125 53.3125 
Q 30.421875 42.28125 30.421875 31.390625 
Q 30.421875 20.453125 26.78125 9.375 
Q 23.140625 -1.703125 15.828125 -13.1875 
L 8.015625 -13.1875 
Q 14.5 -2 17.703125 9.0625 
Q 20.90625 20.125 20.90625 31.390625 
Q 20.90625 42.671875 17.703125 53.65625 
Q 14.5 64.65625 8.015625 75.875 
z
" id="DejaVuSans-29"/>
     </defs>
     <g transform="translate(373.542614 142.245)rotate(-90)scale(0.15 -0.15)">
      <use transform="translate(0 0.765625)" xlink:href="#DejaVuSans-Oblique-43"/>
      <use transform="translate(77.02474 39.046875)scale(0.7)" xlink:href="#DejaVuSans-32"/>
      <use transform="translate(69.824219 -26.578125)scale(0.7)" xlink:href="#DejaVuSans-Oblique-56"/>
      <use transform="translate(124.295247 0.765625)" xlink:href="#DejaVuSans-28"/>
      <use transform="translate(163.308919 0.765625)" xlink:href="#DejaVuSans-394"/>
      <use transform="translate(231.717122 0.765625)" xlink:href="#DejaVuSans-29"/>
     </g>
    </g>
   </g>
   <g id="LineCollection_7">
    <path clip-path="url(#pd8bff7663c)" d="M 510.791824 117.850339 
L 511.684911 117.850339 
" style="fill:none;stroke:#000000;stroke-width:3;"/>
    <path clip-path="url(#pd8bff7663c)" d="M 547.311757 108.805231 
L 547.700921 108.805231 
" style="fill:none;stroke:#000000;stroke-width:3;"/>
    <path clip-path="url(#pd8bff7663c)" d="M 572.379735 105.379871 
L 572.740896 105.379871 
" style="fill:none;stroke:#000000;stroke-width:3;"/>
    <path clip-path="url(#pd8bff7663c)" d="M 600.099276 107.081246 
L 600.562664 107.081246 
" style="fill:none;stroke:#000000;stroke-width:3;"/>
    <path clip-path="url(#pd8bff7663c)" d="M 651.704895 103.553173 
L 653.254299 103.553173 
" style="fill:none;stroke:#000000;stroke-width:3;"/>
   </g>
   <g id="LineCollection_8">
    <path clip-path="url(#pd8bff7663c)" d="M 511.238367 126.138925 
L 511.238367 109.561753 
" style="fill:none;stroke:#000000;stroke-width:3;"/>
    <path clip-path="url(#pd8bff7663c)" d="M 547.506339 117.644304 
L 547.506339 99.966158 
" style="fill:none;stroke:#000000;stroke-width:3;"/>
    <path clip-path="url(#pd8bff7663c)" d="M 572.560315 114.42468 
L 572.560315 96.335062 
" style="fill:none;stroke:#000000;stroke-width:3;"/>
    <path clip-path="url(#pd8bff7663c)" d="M 600.33097 116.02901 
L 600.33097 98.133482 
" style="fill:none;stroke:#000000;stroke-width:3;"/>
    <path clip-path="url(#pd8bff7663c)" d="M 652.479597 112.70886 
L 652.479597 94.397486 
" style="fill:none;stroke:#000000;stroke-width:3;"/>
   </g>
   <g id="LineCollection_9">
    <path clip-path="url(#pd8bff7663c)" d="M 530.857528 202.083367 
L 531.708844 202.083367 
" style="fill:none;stroke:#ff0000;stroke-width:3;"/>
    <path clip-path="url(#pd8bff7663c)" d="M 557.914059 198.058715 
L 558.253439 198.058715 
" style="fill:none;stroke:#ff0000;stroke-width:3;"/>
    <path clip-path="url(#pd8bff7663c)" d="M 575.51317 196.580267 
L 575.812759 196.580267 
" style="fill:none;stroke:#ff0000;stroke-width:3;"/>
    <path clip-path="url(#pd8bff7663c)" d="M 593.817274 195.715714 
L 594.192156 195.715714 
" style="fill:none;stroke:#ff0000;stroke-width:3;"/>
    <path clip-path="url(#pd8bff7663c)" d="M 624.522462 188.289166 
L 625.594227 188.289166 
" style="fill:none;stroke:#ff0000;stroke-width:3;"/>
   </g>
   <g id="LineCollection_10">
    <path clip-path="url(#pd8bff7663c)" d="M 531.283186 206.402056 
L 531.283186 197.764678 
" style="fill:none;stroke:#ff0000;stroke-width:3;"/>
    <path clip-path="url(#pd8bff7663c)" d="M 558.083749 202.637219 
L 558.083749 193.480211 
" style="fill:none;stroke:#ff0000;stroke-width:3;"/>
    <path clip-path="url(#pd8bff7663c)" d="M 575.662964 201.257095 
L 575.662964 191.903438 
" style="fill:none;stroke:#ff0000;stroke-width:3;"/>
    <path clip-path="url(#pd8bff7663c)" d="M 594.004715 200.447057 
L 594.004715 190.984371 
" style="fill:none;stroke:#ff0000;stroke-width:3;"/>
    <path clip-path="url(#pd8bff7663c)" d="M 625.058344 193.507184 
L 625.058344 183.071148 
" style="fill:none;stroke:#ff0000;stroke-width:3;"/>
   </g>
   <g id="LineCollection_11">
    <path clip-path="url(#pd8bff7663c)" d="M 485.581647 19.075208 
L 486.948986 19.075208 
" style="fill:none;stroke:#008000;stroke-width:3;"/>
    <path clip-path="url(#pd8bff7663c)" d="M 534.052436 47.608983 
L 534.711153 47.608983 
" style="fill:none;stroke:#008000;stroke-width:3;"/>
    <path clip-path="url(#pd8bff7663c)" d="M 568.623219 75.394818 
L 569.231706 75.394818 
" style="fill:none;stroke:#008000;stroke-width:3;"/>
    <path clip-path="url(#pd8bff7663c)" d="M 607.9509 80.965654 
L 608.784872 80.965654 
" style="fill:none;stroke:#008000;stroke-width:3;"/>
    <path clip-path="url(#pd8bff7663c)" d="M 684.552854 45.781507 
L 687.614043 45.781507 
" style="fill:none;stroke:#008000;stroke-width:3;"/>
   </g>
   <g id="LineCollection_12">
    <path clip-path="url(#pd8bff7663c)" d="M 486.265317 36.914943 
L 486.265317 1.235473 
" style="fill:none;stroke:#008000;stroke-width:3;"/>
    <path clip-path="url(#pd8bff7663c)" d="M 534.381794 63.150727 
L 534.381794 32.06724 
" style="fill:none;stroke:#008000;stroke-width:3;"/>
    <path clip-path="url(#pd8bff7663c)" d="M 568.927463 88.745395 
L 568.927463 62.044241 
" style="fill:none;stroke:#008000;stroke-width:3;"/>
    <path clip-path="url(#pd8bff7663c)" d="M 608.367886 93.891677 
L 608.367886 68.039631 
" style="fill:none;stroke:#008000;stroke-width:3;"/>
    <path clip-path="url(#pd8bff7663c)" d="M 686.083449 61.46493 
L 686.083449 30.098084 
" style="fill:none;stroke:#008000;stroke-width:3;"/>
   </g>
   <g id="line2d_65">
    <g clip-path="url(#pd8bff7663c)">
     <use style="stroke:#000000;" x="510.791824" xlink:href="#m9ca160d921" y="117.850339"/>
     <use style="stroke:#000000;" x="547.311757" xlink:href="#m9ca160d921" y="108.805231"/>
     <use style="stroke:#000000;" x="572.379735" xlink:href="#m9ca160d921" y="105.379871"/>
     <use style="stroke:#000000;" x="600.099276" xlink:href="#m9ca160d921" y="107.081246"/>
     <use style="stroke:#000000;" x="651.704895" xlink:href="#m9ca160d921" y="103.553173"/>
    </g>
   </g>
   <g id="line2d_66">
    <g clip-path="url(#pd8bff7663c)">
     <use style="stroke:#000000;" x="511.684911" xlink:href="#m9ca160d921" y="117.850339"/>
     <use style="stroke:#000000;" x="547.700921" xlink:href="#m9ca160d921" y="108.805231"/>
     <use style="stroke:#000000;" x="572.740896" xlink:href="#m9ca160d921" y="105.379871"/>
     <use style="stroke:#000000;" x="600.562664" xlink:href="#m9ca160d921" y="107.081246"/>
     <use style="stroke:#000000;" x="653.254299" xlink:href="#m9ca160d921" y="103.553173"/>
    </g>
   </g>
   <g id="line2d_67">
    <g clip-path="url(#pd8bff7663c)">
     <use style="stroke:#000000;" x="511.238367" xlink:href="#ma4f90d0689" y="126.138925"/>
     <use style="stroke:#000000;" x="547.506339" xlink:href="#ma4f90d0689" y="117.644304"/>
     <use style="stroke:#000000;" x="572.560315" xlink:href="#ma4f90d0689" y="114.42468"/>
     <use style="stroke:#000000;" x="600.33097" xlink:href="#ma4f90d0689" y="116.02901"/>
     <use style="stroke:#000000;" x="652.479597" xlink:href="#ma4f90d0689" y="112.70886"/>
    </g>
   </g>
   <g id="line2d_68">
    <g clip-path="url(#pd8bff7663c)">
     <use style="stroke:#000000;" x="511.238367" xlink:href="#ma4f90d0689" y="109.561753"/>
     <use style="stroke:#000000;" x="547.506339" xlink:href="#ma4f90d0689" y="99.966158"/>
     <use style="stroke:#000000;" x="572.560315" xlink:href="#ma4f90d0689" y="96.335062"/>
     <use style="stroke:#000000;" x="600.33097" xlink:href="#ma4f90d0689" y="98.133482"/>
     <use style="stroke:#000000;" x="652.479597" xlink:href="#ma4f90d0689" y="94.397486"/>
    </g>
   </g>
   <g id="line2d_69">
    <g clip-path="url(#pd8bff7663c)">
     <use style="fill:#ff0000;stroke:#ff0000;" x="530.857528" xlink:href="#mcd6ece9798" y="202.083367"/>
     <use style="fill:#ff0000;stroke:#ff0000;" x="557.914059" xlink:href="#mcd6ece9798" y="198.058715"/>
     <use style="fill:#ff0000;stroke:#ff0000;" x="575.51317" xlink:href="#mcd6ece9798" y="196.580267"/>
     <use style="fill:#ff0000;stroke:#ff0000;" x="593.817274" xlink:href="#mcd6ece9798" y="195.715714"/>
     <use style="fill:#ff0000;stroke:#ff0000;" x="624.522462" xlink:href="#mcd6ece9798" y="188.289166"/>
    </g>
   </g>
   <g id="line2d_70">
    <g clip-path="url(#pd8bff7663c)">
     <use style="fill:#ff0000;stroke:#ff0000;" x="531.708844" xlink:href="#mcd6ece9798" y="202.083367"/>
     <use style="fill:#ff0000;stroke:#ff0000;" x="558.253439" xlink:href="#mcd6ece9798" y="198.058715"/>
     <use style="fill:#ff0000;stroke:#ff0000;" x="575.812759" xlink:href="#mcd6ece9798" y="196.580267"/>
     <use style="fill:#ff0000;stroke:#ff0000;" x="594.192156" xlink:href="#mcd6ece9798" y="195.715714"/>
     <use style="fill:#ff0000;stroke:#ff0000;" x="625.594227" xlink:href="#mcd6ece9798" y="188.289166"/>
    </g>
   </g>
   <g id="line2d_71">
    <g clip-path="url(#pd8bff7663c)">
     <use style="fill:#ff0000;stroke:#ff0000;" x="531.283186" xlink:href="#m00e0a201dd" y="206.402056"/>
     <use style="fill:#ff0000;stroke:#ff0000;" x="558.083749" xlink:href="#m00e0a201dd" y="202.637219"/>
     <use style="fill:#ff0000;stroke:#ff0000;" x="575.662964" xlink:href="#m00e0a201dd" y="201.257095"/>
     <use style="fill:#ff0000;stroke:#ff0000;" x="594.004715" xlink:href="#m00e0a201dd" y="200.447057"/>
     <use style="fill:#ff0000;stroke:#ff0000;" x="625.058344" xlink:href="#m00e0a201dd" y="193.507184"/>
    </g>
   </g>
   <g id="line2d_72">
    <g clip-path="url(#pd8bff7663c)">
     <use style="fill:#ff0000;stroke:#ff0000;" x="531.283186" xlink:href="#m00e0a201dd" y="197.764678"/>
     <use style="fill:#ff0000;stroke:#ff0000;" x="558.083749" xlink:href="#m00e0a201dd" y="193.480211"/>
     <use style="fill:#ff0000;stroke:#ff0000;" x="575.662964" xlink:href="#m00e0a201dd" y="191.903438"/>
     <use style="fill:#ff0000;stroke:#ff0000;" x="594.004715" xlink:href="#m00e0a201dd" y="190.984371"/>
     <use style="fill:#ff0000;stroke:#ff0000;" x="625.058344" xlink:href="#m00e0a201dd" y="183.071148"/>
    </g>
   </g>
   <g id="line2d_73">
    <g clip-path="url(#pd8bff7663c)">
     <use style="fill:#008000;stroke:#008000;" x="485.581647" xlink:href="#m71ced9f833" y="19.075208"/>
     <use style="fill:#008000;stroke:#008000;" x="534.052436" xlink:href="#m71ced9f833" y="47.608983"/>
     <use style="fill:#008000;stroke:#008000;" x="568.623219" xlink:href="#m71ced9f833" y="75.394818"/>
     <use style="fill:#008000;stroke:#008000;" x="607.9509" xlink:href="#m71ced9f833" y="80.965654"/>
     <use style="fill:#008000;stroke:#008000;" x="684.552854" xlink:href="#m71ced9f833" y="45.781507"/>
    </g>
   </g>
   <g id="line2d_74">
    <g clip-path="url(#pd8bff7663c)">
     <use style="fill:#008000;stroke:#008000;" x="486.948986" xlink:href="#m71ced9f833" y="19.075208"/>
     <use style="fill:#008000;stroke:#008000;" x="534.711153" xlink:href="#m71ced9f833" y="47.608983"/>
     <use style="fill:#008000;stroke:#008000;" x="569.231706" xlink:href="#m71ced9f833" y="75.394818"/>
     <use style="fill:#008000;stroke:#008000;" x="608.784872" xlink:href="#m71ced9f833" y="80.965654"/>
     <use style="fill:#008000;stroke:#008000;" x="687.614043" xlink:href="#m71ced9f833" y="45.781507"/>
    </g>
   </g>
   <g id="line2d_75">
    <g clip-path="url(#pd8bff7663c)">
     <use style="fill:#008000;stroke:#008000;" x="486.265317" xlink:href="#mdc26974b8a" y="36.914943"/>
     <use style="fill:#008000;stroke:#008000;" x="534.381794" xlink:href="#mdc26974b8a" y="63.150727"/>
     <use style="fill:#008000;stroke:#008000;" x="568.927463" xlink:href="#mdc26974b8a" y="88.745395"/>
     <use style="fill:#008000;stroke:#008000;" x="608.367886" xlink:href="#mdc26974b8a" y="93.891677"/>
     <use style="fill:#008000;stroke:#008000;" x="686.083449" xlink:href="#mdc26974b8a" y="61.46493"/>
    </g>
   </g>
   <g id="line2d_76">
    <g clip-path="url(#pd8bff7663c)">
     <use style="fill:#008000;stroke:#008000;" x="486.265317" xlink:href="#mdc26974b8a" y="1.235473"/>
     <use style="fill:#008000;stroke:#008000;" x="534.381794" xlink:href="#mdc26974b8a" y="32.06724"/>
     <use style="fill:#008000;stroke:#008000;" x="568.927463" xlink:href="#mdc26974b8a" y="62.044241"/>
     <use style="fill:#008000;stroke:#008000;" x="608.367886" xlink:href="#mdc26974b8a" y="68.039631"/>
     <use style="fill:#008000;stroke:#008000;" x="686.083449" xlink:href="#mdc26974b8a" y="30.098084"/>
    </g>
   </g>
   <g id="line2d_77">
    <path clip-path="url(#pd8bff7663c)" d="M 438.475762 39.109221 
L 441.270653 39.848363 
L 444.065544 40.568299 
L 446.860435 41.269871 
L 449.655326 41.953868 
L 452.450217 42.621033 
L 455.245108 43.272064 
L 458.039999 43.907621 
L 460.83489 44.528324 
L 463.629781 45.134759 
L 466.424672 45.72748 
L 469.219564 46.30701 
L 472.014455 46.873847 
L 474.809346 47.42846 
L 477.604237 47.971294 
L 480.399128 48.502772 
L 483.194019 49.023296 
L 485.98891 49.533248 
L 488.783801 50.032992 
L 491.578692 50.522872 
L 494.373583 51.003219 
L 497.168474 51.474346 
L 499.963365 51.936554 
L 502.758256 52.390128 
L 505.553147 52.835342 
L 508.348038 53.272455 
L 511.142929 53.701719 
L 513.93782 54.123373 
L 516.732712 54.537644 
L 519.527603 54.944752 
L 522.322494 55.344907 
L 525.117385 55.738311 
L 527.912276 56.125157 
L 530.707167 56.50563 
L 533.502058 56.879908 
L 536.296949 57.248163 
L 539.09184 57.610559 
L 541.886731 57.967255 
L 544.681622 58.318403 
L 547.476513 58.664149 
L 550.271404 59.004635 
L 553.066295 59.339996 
L 555.861186 59.670365 
L 558.656077 59.995866 
L 561.450968 60.316622 
L 564.24586 60.632751 
L 567.040751 60.944366 
L 569.835642 61.251577 
L 572.630533 61.55449 
L 575.425424 61.853207 
L 578.220315 62.147827 
L 581.015206 62.438445 
L 583.810097 62.725155 
L 586.604988 63.008046 
L 589.399879 63.287204 
L 592.19477 63.562713 
L 594.989661 63.834655 
L 597.784552 64.103108 
L 600.579443 64.368148 
L 603.374334 64.62985 
L 606.169225 64.888286 
L 608.964117 65.143524 
L 611.759008 65.395632 
L 614.553899 65.644676 
L 617.34879 65.89072 
L 620.143681 66.133824 
L 622.938572 66.374049 
L 625.733463 66.611453 
L 628.528354 66.846093 
L 631.323245 67.078023 
L 634.118136 67.307298 
L 636.913027 67.533968 
L 639.707918 67.758085 
L 642.502809 67.979698 
L 645.2977 68.198854 
L 648.092591 68.4156 
L 650.887482 68.629981 
L 653.682373 68.842042 
L 656.477265 69.051825 
L 659.272156 69.259373 
L 662.067047 69.464725 
L 664.861938 69.667922 
L 667.656829 69.869003 
L 670.45172 70.068005 
L 673.246611 70.264965 
L 676.041502 70.459918 
L 678.836393 70.652901 
L 681.631284 70.843946 
L 684.426175 71.033088 
L 687.221066 71.220358 
L 690.015957 71.405789 
L 692.810848 71.589411 
L 695.605739 71.771255 
L 698.40063 71.951351 
L 701.195521 72.129726 
L 703.990413 72.306409 
L 706.785304 72.481429 
L 709.580195 72.65481 
L 712.375086 72.826581 
L 715.169977 72.996766 
" style="fill:none;stroke:#008000;stroke-linecap:square;stroke-width:2;"/>
   </g>
   <g id="line2d_78">
    <path clip-path="url(#pd8bff7663c)" d="M 438.475762 123.540263 
L 441.270653 123.55531 
L 444.065544 123.570363 
L 446.860435 123.585421 
L 449.655326 123.600485 
L 452.450217 123.615555 
L 455.245108 123.630631 
L 458.039999 123.645711 
L 460.83489 123.660798 
L 463.629781 123.67589 
L 466.424672 123.690988 
L 469.219564 123.706091 
L 472.014455 123.7212 
L 474.809346 123.736314 
L 477.604237 123.751434 
L 480.399128 123.76656 
L 483.194019 123.781691 
L 485.98891 123.796828 
L 488.783801 123.81197 
L 491.578692 123.827118 
L 494.373583 123.842272 
L 497.168474 123.857431 
L 499.963365 123.872596 
L 502.758256 123.887766 
L 505.553147 123.902942 
L 508.348038 123.918124 
L 511.142929 123.933311 
L 513.93782 123.948504 
L 516.732712 123.963702 
L 519.527603 123.978906 
L 522.322494 123.994116 
L 525.117385 124.009331 
L 527.912276 124.024552 
L 530.707167 124.039778 
L 533.502058 124.05501 
L 536.296949 124.070247 
L 539.09184 124.085491 
L 541.886731 124.100739 
L 544.681622 124.115994 
L 547.476513 124.131254 
L 550.271404 124.146519 
L 553.066295 124.16179 
L 555.861186 124.177067 
L 558.656077 124.192349 
L 561.450968 124.207637 
L 564.24586 124.222931 
L 567.040751 124.23823 
L 569.835642 124.253534 
L 572.630533 124.268845 
L 575.425424 124.284161 
L 578.220315 124.299482 
L 581.015206 124.314809 
L 583.810097 124.330142 
L 586.604988 124.34548 
L 589.399879 124.360824 
L 592.19477 124.376174 
L 594.989661 124.391529 
L 597.784552 124.406889 
L 600.579443 124.422256 
L 603.374334 124.437628 
L 606.169225 124.453005 
L 608.964117 124.468388 
L 611.759008 124.483777 
L 614.553899 124.499171 
L 617.34879 124.514571 
L 620.143681 124.529976 
L 622.938572 124.545388 
L 625.733463 124.560804 
L 628.528354 124.576226 
L 631.323245 124.591654 
L 634.118136 124.607088 
L 636.913027 124.622527 
L 639.707918 124.637972 
L 642.502809 124.653422 
L 645.2977 124.668878 
L 648.092591 124.684339 
L 650.887482 124.699806 
L 653.682373 124.715279 
L 656.477265 124.730758 
L 659.272156 124.746241 
L 662.067047 124.761731 
L 664.861938 124.777226 
L 667.656829 124.792727 
L 670.45172 124.808233 
L 673.246611 124.823745 
L 676.041502 124.839263 
L 678.836393 124.854786 
L 681.631284 124.870314 
L 684.426175 124.885849 
L 687.221066 124.901389 
L 690.015957 124.916934 
L 692.810848 124.932486 
L 695.605739 124.948042 
L 698.40063 124.963605 
L 701.195521 124.979173 
L 703.990413 124.994746 
L 706.785304 125.010325 
L 709.580195 125.02591 
L 712.375086 125.041501 
L 715.169977 125.057097 
" style="fill:none;stroke:#000000;stroke-linecap:square;stroke-width:2;"/>
   </g>
   <g id="line2d_79">
    <path clip-path="url(#pd8bff7663c)" d="M 438.475762 214.215496 
L 441.270653 213.722333 
L 444.065544 213.230024 
L 446.860435 212.738624 
L 449.655326 212.248185 
L 452.450217 211.75876 
L 455.245108 211.270399 
L 458.039999 210.783154 
L 460.83489 210.297073 
L 463.629781 209.812205 
L 466.424672 209.328597 
L 469.219564 208.846297 
L 472.014455 208.365349 
L 474.809346 207.885799 
L 477.604237 207.40769 
L 480.399128 206.931065 
L 483.194019 206.455965 
L 485.98891 205.982432 
L 488.783801 205.510505 
L 491.578692 205.040223 
L 494.373583 204.571625 
L 497.168474 204.104746 
L 499.963365 203.639623 
L 502.758256 203.176291 
L 505.553147 202.714785 
L 508.348038 202.255136 
L 511.142929 201.797377 
L 513.93782 201.341541 
L 516.732712 200.887655 
L 519.527603 200.435751 
L 522.322494 199.985857 
L 525.117385 199.538 
L 527.912276 199.092207 
L 530.707167 198.648503 
L 533.502058 198.206913 
L 536.296949 197.767462 
L 539.09184 197.330173 
L 541.886731 196.895067 
L 544.681622 196.462166 
L 547.476513 196.031492 
L 550.271404 195.603062 
L 553.066295 195.176898 
L 555.861186 194.753016 
L 558.656077 194.331434 
L 561.450968 193.912169 
L 564.24586 193.495236 
L 567.040751 193.080651 
L 569.835642 192.668427 
L 572.630533 192.25858 
L 575.425424 191.85112 
L 578.220315 191.446061 
L 581.015206 191.043414 
L 583.810097 190.64319 
L 586.604988 190.245399 
L 589.399879 189.85005 
L 592.19477 189.457153 
L 594.989661 189.066716 
L 597.784552 188.678745 
L 600.579443 188.293249 
L 603.374334 187.910233 
L 606.169225 187.529703 
L 608.964117 187.151666 
L 611.759008 186.776124 
L 614.553899 186.403083 
L 617.34879 186.032547 
L 620.143681 185.664517 
L 622.938572 185.298998 
L 625.733463 184.93599 
L 628.528354 184.575497 
L 631.323245 184.217518 
L 634.118136 183.862054 
L 636.913027 183.509107 
L 639.707918 183.158675 
L 642.502809 182.810758 
L 645.2977 182.465355 
L 648.092591 182.122465 
L 650.887482 181.782085 
L 653.682373 181.444214 
L 656.477265 181.108849 
L 659.272156 180.775988 
L 662.067047 180.445626 
L 664.861938 180.117761 
L 667.656829 179.792388 
L 670.45172 179.469503 
L 673.246611 179.149102 
L 676.041502 178.831179 
L 678.836393 178.51573 
L 681.631284 178.202749 
L 684.426175 177.892231 
L 687.221066 177.584169 
L 690.015957 177.278558 
L 692.810848 176.97539 
L 695.605739 176.674659 
L 698.40063 176.376359 
L 701.195521 176.080482 
L 703.990413 175.78702 
L 706.785304 175.495966 
L 709.580195 175.207313 
L 712.375086 174.921053 
L 715.169977 174.637176 
" style="fill:none;stroke:#ff0000;stroke-linecap:square;stroke-width:2;"/>
   </g>
   <g id="line2d_80">
    <g clip-path="url(#pd8bff7663c)">
     <use style="stroke:#000000;" x="511.238367" xlink:href="#m27a3903e1c" y="117.850339"/>
     <use style="stroke:#000000;" x="547.506339" xlink:href="#m27a3903e1c" y="108.805231"/>
     <use style="stroke:#000000;" x="572.560315" xlink:href="#m27a3903e1c" y="105.379871"/>
     <use style="stroke:#000000;" x="600.33097" xlink:href="#m27a3903e1c" y="107.081246"/>
     <use style="stroke:#000000;" x="652.479597" xlink:href="#m27a3903e1c" y="103.553173"/>
    </g>
   </g>
   <g id="line2d_81">
    <g clip-path="url(#pd8bff7663c)">
     <use style="fill:#ff0000;stroke:#000000;" x="531.283186" xlink:href="#m9d893bfbbf" y="202.083367"/>
     <use style="fill:#ff0000;stroke:#000000;" x="558.083749" xlink:href="#m9d893bfbbf" y="198.058715"/>
     <use style="fill:#ff0000;stroke:#000000;" x="575.662964" xlink:href="#m9d893bfbbf" y="196.580267"/>
     <use style="fill:#ff0000;stroke:#000000;" x="594.004715" xlink:href="#m9d893bfbbf" y="195.715714"/>
     <use style="fill:#ff0000;stroke:#000000;" x="625.058344" xlink:href="#m9d893bfbbf" y="188.289166"/>
    </g>
   </g>
   <g id="line2d_82">
    <g clip-path="url(#pd8bff7663c)">
     <use style="fill:#008000;stroke:#000000;" x="486.265317" xlink:href="#m0859d331b3" y="19.075208"/>
     <use style="fill:#008000;stroke:#000000;" x="534.381794" xlink:href="#m0859d331b3" y="47.608983"/>
     <use style="fill:#008000;stroke:#000000;" x="568.927463" xlink:href="#m0859d331b3" y="75.394818"/>
     <use style="fill:#008000;stroke:#000000;" x="608.367886" xlink:href="#m0859d331b3" y="80.965654"/>
     <use style="fill:#008000;stroke:#000000;" x="686.083449" xlink:href="#m0859d331b3" y="45.781507"/>
    </g>
   </g>
   <g id="patch_8">
    <path d="M 424.641051 230.64 
L 424.641051 13.2 
" style="fill:none;stroke:#000000;stroke-linecap:square;stroke-linejoin:miter;stroke-width:2;"/>
   </g>
   <g id="patch_9">
    <path d="M 729.004687 230.64 
L 729.004687 13.2 
" style="fill:none;"/>
   </g>
   <g id="patch_10">
    <path d="M 424.641051 230.64 
L 729.004687 230.64 
" style="fill:none;stroke:#000000;stroke-linecap:square;stroke-linejoin:miter;stroke-width:2;"/>
   </g>
   <g id="patch_11">
    <path d="M 424.641051 13.2 
L 729.004687 13.2 
" style="fill:none;"/>
   </g>
   <g id="text_31">
    <!-- $\lambda = 2$ -->
    <g transform="translate(440.442382 205.685181)rotate(-15)scale(0.1 -0.1)">
     <use transform="translate(0 0.015625)" xlink:href="#DejaVuSans-Oblique-3bb"/>
     <use transform="translate(78.662109 0.015625)" xlink:href="#DejaVuSans-3d"/>
     <use transform="translate(181.933594 0.015625)" xlink:href="#DejaVuSans-32"/>
    </g>
   </g>
   <g id="text_32">
    <!-- $\lambda = 1$ -->
    <g transform="translate(438.475762 106.388571)scale(0.1 -0.1)">
     <use transform="translate(0 0.015625)" xlink:href="#DejaVuSans-Oblique-3bb"/>
     <use transform="translate(78.662109 0.015625)" xlink:href="#DejaVuSans-3d"/>
     <use transform="translate(181.933594 0.015625)" xlink:href="#DejaVuSans-31"/>
    </g>
   </g>
   <g id="text_33">
    <!-- $\lambda = 0.5$ -->
    <g transform="translate(438.836896 36.381706)rotate(-350)scale(0.1 -0.1)">
     <use transform="translate(0 0.015625)" xlink:href="#DejaVuSans-Oblique-3bb"/>
     <use transform="translate(78.662109 0.015625)" xlink:href="#DejaVuSans-3d"/>
     <use transform="translate(181.933594 0.015625)" xlink:href="#DejaVuSans-30"/>
     <use transform="translate(245.556641 0.015625)" xlink:href="#DejaVuSans-2e"/>
     <use transform="translate(277.34375 0.015625)" xlink:href="#DejaVuSans-35"/>
    </g>
   </g>
  </g>
 </g>
 <defs>
  <clipPath id="p41152cf2c2">
   <rect height="217.44" width="304.363636" x="59.404688" y="13.2"/>
  </clipPath>
  <clipPath id="pd8bff7663c">
   <rect height="217.44" width="304.363636" x="424.641051" y="13.2"/>
  </clipPath>
 </defs>
</svg>
