<?xml version="1.0" encoding="utf-8" standalone="no"?>
<!DOCTYPE svg PUBLIC "-//W3C//DTD SVG 1.1//EN"
  "http://www.w3.org/Graphics/SVG/1.1/DTD/svg11.dtd">
<!-- Created with matplotlib (https://matplotlib.org/) -->
<svg height="283.977187pt" version="1.1" viewBox="0 0 736.204687 283.977187" width="736.204687pt" xmlns="http://www.w3.org/2000/svg" xmlns:xlink="http://www.w3.org/1999/xlink">
 <defs>
  <style type="text/css">
*{stroke-linecap:butt;stroke-linejoin:round;}
  </style>
 </defs>
 <g id="figure_1">
  <g id="patch_1">
   <path d="M 0 283.977187 
L 736.204687 283.977187 
L 736.204687 0 
L 0 0 
z
" style="fill:#ffffff;"/>
  </g>
  <g id="axes_1">
   <g id="patch_2">
    <path d="M 59.404688 228.96 
L 363.768324 228.96 
L 363.768324 7.2 
L 59.404688 7.2 
z
" style="fill:#ffffff;"/>
   </g>
   <g id="matplotlib.axis_1">
    <g id="xtick_1">
     <g id="line2d_1">
      <path clip-path="url(#pef7a411f6f)" d="M 100.90882 228.96 
L 100.90882 7.2 
" style="fill:none;stroke:#b0b0b0;stroke-linecap:square;stroke-width:0.8;"/>
     </g>
     <g id="line2d_2">
      <defs>
       <path d="M 0 0 
L 0 6 
" id="m0b924d189b"/>
      </defs>
      <g>
       <use x="100.90882" xlink:href="#m0b924d189b" y="228.96"/>
      </g>
     </g>
     <g id="text_1">
      <!-- 0.6 -->
      <defs>
       <path d="M 31.78125 66.40625 
Q 24.171875 66.40625 20.328125 58.90625 
Q 16.5 51.421875 16.5 36.375 
Q 16.5 21.390625 20.328125 13.890625 
Q 24.171875 6.390625 31.78125 6.390625 
Q 39.453125 6.390625 43.28125 13.890625 
Q 47.125 21.390625 47.125 36.375 
Q 47.125 51.421875 43.28125 58.90625 
Q 39.453125 66.40625 31.78125 66.40625 
z
M 31.78125 74.21875 
Q 44.046875 74.21875 50.515625 64.515625 
Q 56.984375 54.828125 56.984375 36.375 
Q 56.984375 17.96875 50.515625 8.265625 
Q 44.046875 -1.421875 31.78125 -1.421875 
Q 19.53125 -1.421875 13.0625 8.265625 
Q 6.59375 17.96875 6.59375 36.375 
Q 6.59375 54.828125 13.0625 64.515625 
Q 19.53125 74.21875 31.78125 74.21875 
z
" id="DejaVuSans-48"/>
       <path d="M 10.6875 12.40625 
L 21 12.40625 
L 21 0 
L 10.6875 0 
z
" id="DejaVuSans-46"/>
       <path d="M 33.015625 40.375 
Q 26.375 40.375 22.484375 35.828125 
Q 18.609375 31.296875 18.609375 23.390625 
Q 18.609375 15.53125 22.484375 10.953125 
Q 26.375 6.390625 33.015625 6.390625 
Q 39.65625 6.390625 43.53125 10.953125 
Q 47.40625 15.53125 47.40625 23.390625 
Q 47.40625 31.296875 43.53125 35.828125 
Q 39.65625 40.375 33.015625 40.375 
z
M 52.59375 71.296875 
L 52.59375 62.3125 
Q 48.875 64.0625 45.09375 64.984375 
Q 41.3125 65.921875 37.59375 65.921875 
Q 27.828125 65.921875 22.671875 59.328125 
Q 17.53125 52.734375 16.796875 39.40625 
Q 19.671875 43.65625 24.015625 45.921875 
Q 28.375 48.1875 33.59375 48.1875 
Q 44.578125 48.1875 50.953125 41.515625 
Q 57.328125 34.859375 57.328125 23.390625 
Q 57.328125 12.15625 50.6875 5.359375 
Q 44.046875 -1.421875 33.015625 -1.421875 
Q 20.359375 -1.421875 13.671875 8.265625 
Q 6.984375 17.96875 6.984375 36.375 
Q 6.984375 53.65625 15.1875 63.9375 
Q 23.390625 74.21875 37.203125 74.21875 
Q 40.921875 74.21875 44.703125 73.484375 
Q 48.484375 72.75 52.59375 71.296875 
z
" id="DejaVuSans-54"/>
      </defs>
      <g transform="translate(88.981476 249.857656)scale(0.15 -0.15)">
       <use xlink:href="#DejaVuSans-48"/>
       <use x="63.623047" xlink:href="#DejaVuSans-46"/>
       <use x="95.410156" xlink:href="#DejaVuSans-54"/>
      </g>
     </g>
    </g>
    <g id="xtick_2">
     <g id="line2d_3">
      <path clip-path="url(#pef7a411f6f)" d="M 156.247663 228.96 
L 156.247663 7.2 
" style="fill:none;stroke:#b0b0b0;stroke-linecap:square;stroke-width:0.8;"/>
     </g>
     <g id="line2d_4">
      <g>
       <use x="156.247663" xlink:href="#m0b924d189b" y="228.96"/>
      </g>
     </g>
     <g id="text_2">
      <!-- 0.8 -->
      <defs>
       <path d="M 31.78125 34.625 
Q 24.75 34.625 20.71875 30.859375 
Q 16.703125 27.09375 16.703125 20.515625 
Q 16.703125 13.921875 20.71875 10.15625 
Q 24.75 6.390625 31.78125 6.390625 
Q 38.8125 6.390625 42.859375 10.171875 
Q 46.921875 13.96875 46.921875 20.515625 
Q 46.921875 27.09375 42.890625 30.859375 
Q 38.875 34.625 31.78125 34.625 
z
M 21.921875 38.8125 
Q 15.578125 40.375 12.03125 44.71875 
Q 8.5 49.078125 8.5 55.328125 
Q 8.5 64.0625 14.71875 69.140625 
Q 20.953125 74.21875 31.78125 74.21875 
Q 42.671875 74.21875 48.875 69.140625 
Q 55.078125 64.0625 55.078125 55.328125 
Q 55.078125 49.078125 51.53125 44.71875 
Q 48 40.375 41.703125 38.8125 
Q 48.828125 37.15625 52.796875 32.3125 
Q 56.78125 27.484375 56.78125 20.515625 
Q 56.78125 9.90625 50.3125 4.234375 
Q 43.84375 -1.421875 31.78125 -1.421875 
Q 19.734375 -1.421875 13.25 4.234375 
Q 6.78125 9.90625 6.78125 20.515625 
Q 6.78125 27.484375 10.78125 32.3125 
Q 14.796875 37.15625 21.921875 38.8125 
z
M 18.3125 54.390625 
Q 18.3125 48.734375 21.84375 45.5625 
Q 25.390625 42.390625 31.78125 42.390625 
Q 38.140625 42.390625 41.71875 45.5625 
Q 45.3125 48.734375 45.3125 54.390625 
Q 45.3125 60.0625 41.71875 63.234375 
Q 38.140625 66.40625 31.78125 66.40625 
Q 25.390625 66.40625 21.84375 63.234375 
Q 18.3125 60.0625 18.3125 54.390625 
z
" id="DejaVuSans-56"/>
      </defs>
      <g transform="translate(144.320319 249.857656)scale(0.15 -0.15)">
       <use xlink:href="#DejaVuSans-48"/>
       <use x="63.623047" xlink:href="#DejaVuSans-46"/>
       <use x="95.410156" xlink:href="#DejaVuSans-56"/>
      </g>
     </g>
    </g>
    <g id="xtick_3">
     <g id="line2d_5">
      <path clip-path="url(#pef7a411f6f)" d="M 211.586506 228.96 
L 211.586506 7.2 
" style="fill:none;stroke:#b0b0b0;stroke-linecap:square;stroke-width:0.8;"/>
     </g>
     <g id="line2d_6">
      <g>
       <use x="211.586506" xlink:href="#m0b924d189b" y="228.96"/>
      </g>
     </g>
     <g id="text_3">
      <!-- 1.0 -->
      <defs>
       <path d="M 12.40625 8.296875 
L 28.515625 8.296875 
L 28.515625 63.921875 
L 10.984375 60.40625 
L 10.984375 69.390625 
L 28.421875 72.90625 
L 38.28125 72.90625 
L 38.28125 8.296875 
L 54.390625 8.296875 
L 54.390625 0 
L 12.40625 0 
z
" id="DejaVuSans-49"/>
      </defs>
      <g transform="translate(199.659162 249.857656)scale(0.15 -0.15)">
       <use xlink:href="#DejaVuSans-49"/>
       <use x="63.623047" xlink:href="#DejaVuSans-46"/>
       <use x="95.410156" xlink:href="#DejaVuSans-48"/>
      </g>
     </g>
    </g>
    <g id="xtick_4">
     <g id="line2d_7">
      <path clip-path="url(#pef7a411f6f)" d="M 266.925349 228.96 
L 266.925349 7.2 
" style="fill:none;stroke:#b0b0b0;stroke-linecap:square;stroke-width:0.8;"/>
     </g>
     <g id="line2d_8">
      <g>
       <use x="266.925349" xlink:href="#m0b924d189b" y="228.96"/>
      </g>
     </g>
     <g id="text_4">
      <!-- 1.2 -->
      <defs>
       <path d="M 19.1875 8.296875 
L 53.609375 8.296875 
L 53.609375 0 
L 7.328125 0 
L 7.328125 8.296875 
Q 12.9375 14.109375 22.625 23.890625 
Q 32.328125 33.6875 34.8125 36.53125 
Q 39.546875 41.84375 41.421875 45.53125 
Q 43.3125 49.21875 43.3125 52.78125 
Q 43.3125 58.59375 39.234375 62.25 
Q 35.15625 65.921875 28.609375 65.921875 
Q 23.96875 65.921875 18.8125 64.3125 
Q 13.671875 62.703125 7.8125 59.421875 
L 7.8125 69.390625 
Q 13.765625 71.78125 18.9375 73 
Q 24.125 74.21875 28.421875 74.21875 
Q 39.75 74.21875 46.484375 68.546875 
Q 53.21875 62.890625 53.21875 53.421875 
Q 53.21875 48.921875 51.53125 44.890625 
Q 49.859375 40.875 45.40625 35.40625 
Q 44.1875 33.984375 37.640625 27.21875 
Q 31.109375 20.453125 19.1875 8.296875 
z
" id="DejaVuSans-50"/>
      </defs>
      <g transform="translate(254.998005 249.857656)scale(0.15 -0.15)">
       <use xlink:href="#DejaVuSans-49"/>
       <use x="63.623047" xlink:href="#DejaVuSans-46"/>
       <use x="95.410156" xlink:href="#DejaVuSans-50"/>
      </g>
     </g>
    </g>
    <g id="xtick_5">
     <g id="line2d_9">
      <path clip-path="url(#pef7a411f6f)" d="M 322.264192 228.96 
L 322.264192 7.2 
" style="fill:none;stroke:#b0b0b0;stroke-linecap:square;stroke-width:0.8;"/>
     </g>
     <g id="line2d_10">
      <g>
       <use x="322.264192" xlink:href="#m0b924d189b" y="228.96"/>
      </g>
     </g>
     <g id="text_5">
      <!-- 1.4 -->
      <defs>
       <path d="M 37.796875 64.3125 
L 12.890625 25.390625 
L 37.796875 25.390625 
z
M 35.203125 72.90625 
L 47.609375 72.90625 
L 47.609375 25.390625 
L 58.015625 25.390625 
L 58.015625 17.1875 
L 47.609375 17.1875 
L 47.609375 0 
L 37.796875 0 
L 37.796875 17.1875 
L 4.890625 17.1875 
L 4.890625 26.703125 
z
" id="DejaVuSans-52"/>
      </defs>
      <g transform="translate(310.336848 249.857656)scale(0.15 -0.15)">
       <use xlink:href="#DejaVuSans-49"/>
       <use x="63.623047" xlink:href="#DejaVuSans-46"/>
       <use x="95.410156" xlink:href="#DejaVuSans-52"/>
      </g>
     </g>
    </g>
    <g id="text_6">
     <!-- $s_b/\overline{s_b}$ -->
     <defs>
      <path d="M 50 53.078125 
L 48.296875 44.578125 
Q 44.734375 46.53125 40.765625 47.5 
Q 36.8125 48.484375 32.625 48.484375 
Q 25.53125 48.484375 21.453125 46.0625 
Q 17.390625 43.65625 17.390625 39.5 
Q 17.390625 34.671875 26.859375 32.078125 
Q 27.59375 31.890625 27.9375 31.78125 
L 30.8125 30.90625 
Q 39.796875 28.421875 42.796875 25.6875 
Q 45.796875 22.953125 45.796875 18.21875 
Q 45.796875 9.515625 38.890625 4.046875 
Q 31.984375 -1.421875 20.796875 -1.421875 
Q 16.453125 -1.421875 11.671875 -0.578125 
Q 6.890625 0.25 1.125 2 
L 2.875 11.28125 
Q 7.8125 8.734375 12.59375 7.421875 
Q 17.390625 6.109375 21.78125 6.109375 
Q 28.375 6.109375 32.5 8.9375 
Q 36.625 11.765625 36.625 16.109375 
Q 36.625 20.796875 25.78125 23.6875 
L 24.859375 23.921875 
L 21.78125 24.703125 
Q 14.9375 26.515625 11.765625 29.46875 
Q 8.59375 32.421875 8.59375 37.015625 
Q 8.59375 45.75 15.15625 50.875 
Q 21.734375 56 33.015625 56 
Q 37.453125 56 41.671875 55.265625 
Q 45.90625 54.546875 50 53.078125 
z
" id="DejaVuSans-Oblique-115"/>
      <path d="M 49.515625 33.40625 
Q 49.515625 40.484375 46.265625 44.484375 
Q 43.015625 48.484375 37.3125 48.484375 
Q 33.15625 48.484375 29.515625 46.453125 
Q 25.875 44.4375 23.1875 40.578125 
Q 20.359375 36.53125 18.71875 31.171875 
Q 17.09375 25.828125 17.09375 20.515625 
Q 17.09375 13.765625 20.28125 9.9375 
Q 23.484375 6.109375 29.109375 6.109375 
Q 33.34375 6.109375 36.953125 8.078125 
Q 40.578125 10.0625 43.3125 13.921875 
Q 46.09375 17.921875 47.796875 23.234375 
Q 49.515625 28.5625 49.515625 33.40625 
z
M 21.578125 46.390625 
Q 24.90625 50.875 29.90625 53.4375 
Q 34.90625 56 40.375 56 
Q 48.78125 56 53.734375 50.328125 
Q 58.6875 44.671875 58.6875 35.015625 
Q 58.6875 27.09375 55.78125 19.671875 
Q 52.875 12.25 47.515625 6.5 
Q 44 2.6875 39.40625 0.625 
Q 34.8125 -1.421875 29.78125 -1.421875 
Q 24.46875 -1.421875 20.5625 1.015625 
Q 16.65625 3.46875 14.203125 8.296875 
L 12.59375 0 
L 3.609375 0 
L 18.40625 75.984375 
L 27.390625 75.984375 
z
" id="DejaVuSans-Oblique-98"/>
      <path d="M 25.390625 72.90625 
L 33.6875 72.90625 
L 8.296875 -9.28125 
L 0 -9.28125 
z
" id="DejaVuSans-47"/>
     </defs>
     <g transform="translate(188.286506 272.617812)scale(0.2 -0.2)">
      <use transform="translate(0 0.25)" xlink:href="#DejaVuSans-Oblique-115"/>
      <use transform="translate(52.099609 -16.15625)scale(0.7)" xlink:href="#DejaVuSans-Oblique-98"/>
      <use transform="translate(99.267578 0.25)" xlink:href="#DejaVuSans-47"/>
      <use transform="translate(132.958984 0.75)" xlink:href="#DejaVuSans-Oblique-115"/>
      <use transform="translate(185.058594 -15.65625)scale(0.7)" xlink:href="#DejaVuSans-Oblique-98"/>
      <path d="M 132.958984 68.5 
L 132.958984 74.75 
L 232.226562 74.75 
L 232.226562 68.5 
L 132.958984 68.5 
z
"/>
     </g>
    </g>
   </g>
   <g id="matplotlib.axis_2">
    <g id="ytick_1">
     <g id="line2d_11">
      <path clip-path="url(#pef7a411f6f)" d="M 59.404688 210.48 
L 363.768324 210.48 
" style="fill:none;stroke:#b0b0b0;stroke-linecap:square;stroke-width:0.8;"/>
     </g>
     <g id="line2d_12">
      <defs>
       <path d="M 0 0 
L -6 0 
" id="m285df85356"/>
      </defs>
      <g>
       <use x="59.404688" xlink:href="#m285df85356" y="210.48"/>
      </g>
     </g>
     <g id="text_7">
      <!-- 0.8 -->
      <g transform="translate(26.05 216.178828)scale(0.15 -0.15)">
       <use xlink:href="#DejaVuSans-48"/>
       <use x="63.623047" xlink:href="#DejaVuSans-46"/>
       <use x="95.410156" xlink:href="#DejaVuSans-56"/>
      </g>
     </g>
    </g>
    <g id="ytick_2">
     <g id="line2d_13">
      <path clip-path="url(#pef7a411f6f)" d="M 59.404688 173.52 
L 363.768324 173.52 
" style="fill:none;stroke:#b0b0b0;stroke-linecap:square;stroke-width:0.8;"/>
     </g>
     <g id="line2d_14">
      <g>
       <use x="59.404688" xlink:href="#m285df85356" y="173.52"/>
      </g>
     </g>
     <g id="text_8">
      <!-- 0.9 -->
      <defs>
       <path d="M 10.984375 1.515625 
L 10.984375 10.5 
Q 14.703125 8.734375 18.5 7.8125 
Q 22.3125 6.890625 25.984375 6.890625 
Q 35.75 6.890625 40.890625 13.453125 
Q 46.046875 20.015625 46.78125 33.40625 
Q 43.953125 29.203125 39.59375 26.953125 
Q 35.25 24.703125 29.984375 24.703125 
Q 19.046875 24.703125 12.671875 31.3125 
Q 6.296875 37.9375 6.296875 49.421875 
Q 6.296875 60.640625 12.9375 67.421875 
Q 19.578125 74.21875 30.609375 74.21875 
Q 43.265625 74.21875 49.921875 64.515625 
Q 56.59375 54.828125 56.59375 36.375 
Q 56.59375 19.140625 48.40625 8.859375 
Q 40.234375 -1.421875 26.421875 -1.421875 
Q 22.703125 -1.421875 18.890625 -0.6875 
Q 15.09375 0.046875 10.984375 1.515625 
z
M 30.609375 32.421875 
Q 37.25 32.421875 41.125 36.953125 
Q 45.015625 41.5 45.015625 49.421875 
Q 45.015625 57.28125 41.125 61.84375 
Q 37.25 66.40625 30.609375 66.40625 
Q 23.96875 66.40625 20.09375 61.84375 
Q 16.21875 57.28125 16.21875 49.421875 
Q 16.21875 41.5 20.09375 36.953125 
Q 23.96875 32.421875 30.609375 32.421875 
z
" id="DejaVuSans-57"/>
      </defs>
      <g transform="translate(26.05 179.218828)scale(0.15 -0.15)">
       <use xlink:href="#DejaVuSans-48"/>
       <use x="63.623047" xlink:href="#DejaVuSans-46"/>
       <use x="95.410156" xlink:href="#DejaVuSans-57"/>
      </g>
     </g>
    </g>
    <g id="ytick_3">
     <g id="line2d_15">
      <path clip-path="url(#pef7a411f6f)" d="M 59.404688 136.56 
L 363.768324 136.56 
" style="fill:none;stroke:#b0b0b0;stroke-linecap:square;stroke-width:0.8;"/>
     </g>
     <g id="line2d_16">
      <g>
       <use x="59.404688" xlink:href="#m285df85356" y="136.56"/>
      </g>
     </g>
     <g id="text_9">
      <!-- 1.0 -->
      <g transform="translate(26.05 142.258828)scale(0.15 -0.15)">
       <use xlink:href="#DejaVuSans-49"/>
       <use x="63.623047" xlink:href="#DejaVuSans-46"/>
       <use x="95.410156" xlink:href="#DejaVuSans-48"/>
      </g>
     </g>
    </g>
    <g id="ytick_4">
     <g id="line2d_17">
      <path clip-path="url(#pef7a411f6f)" d="M 59.404688 99.6 
L 363.768324 99.6 
" style="fill:none;stroke:#b0b0b0;stroke-linecap:square;stroke-width:0.8;"/>
     </g>
     <g id="line2d_18">
      <g>
       <use x="59.404688" xlink:href="#m285df85356" y="99.6"/>
      </g>
     </g>
     <g id="text_10">
      <!-- 1.1 -->
      <g transform="translate(26.05 105.298828)scale(0.15 -0.15)">
       <use xlink:href="#DejaVuSans-49"/>
       <use x="63.623047" xlink:href="#DejaVuSans-46"/>
       <use x="95.410156" xlink:href="#DejaVuSans-49"/>
      </g>
     </g>
    </g>
    <g id="ytick_5">
     <g id="line2d_19">
      <path clip-path="url(#pef7a411f6f)" d="M 59.404688 62.64 
L 363.768324 62.64 
" style="fill:none;stroke:#b0b0b0;stroke-linecap:square;stroke-width:0.8;"/>
     </g>
     <g id="line2d_20">
      <g>
       <use x="59.404688" xlink:href="#m285df85356" y="62.64"/>
      </g>
     </g>
     <g id="text_11">
      <!-- 1.2 -->
      <g transform="translate(26.05 68.338828)scale(0.15 -0.15)">
       <use xlink:href="#DejaVuSans-49"/>
       <use x="63.623047" xlink:href="#DejaVuSans-46"/>
       <use x="95.410156" xlink:href="#DejaVuSans-50"/>
      </g>
     </g>
    </g>
    <g id="ytick_6">
     <g id="line2d_21">
      <path clip-path="url(#pef7a411f6f)" d="M 59.404688 25.68 
L 363.768324 25.68 
" style="fill:none;stroke:#b0b0b0;stroke-linecap:square;stroke-width:0.8;"/>
     </g>
     <g id="line2d_22">
      <g>
       <use x="59.404688" xlink:href="#m285df85356" y="25.68"/>
      </g>
     </g>
     <g id="text_12">
      <!-- 1.3 -->
      <defs>
       <path d="M 40.578125 39.3125 
Q 47.65625 37.796875 51.625 33 
Q 55.609375 28.21875 55.609375 21.1875 
Q 55.609375 10.40625 48.1875 4.484375 
Q 40.765625 -1.421875 27.09375 -1.421875 
Q 22.515625 -1.421875 17.65625 -0.515625 
Q 12.796875 0.390625 7.625 2.203125 
L 7.625 11.71875 
Q 11.71875 9.328125 16.59375 8.109375 
Q 21.484375 6.890625 26.8125 6.890625 
Q 36.078125 6.890625 40.9375 10.546875 
Q 45.796875 14.203125 45.796875 21.1875 
Q 45.796875 27.640625 41.28125 31.265625 
Q 36.765625 34.90625 28.71875 34.90625 
L 20.21875 34.90625 
L 20.21875 43.015625 
L 29.109375 43.015625 
Q 36.375 43.015625 40.234375 45.921875 
Q 44.09375 48.828125 44.09375 54.296875 
Q 44.09375 59.90625 40.109375 62.90625 
Q 36.140625 65.921875 28.71875 65.921875 
Q 24.65625 65.921875 20.015625 65.03125 
Q 15.375 64.15625 9.8125 62.3125 
L 9.8125 71.09375 
Q 15.4375 72.65625 20.34375 73.4375 
Q 25.25 74.21875 29.59375 74.21875 
Q 40.828125 74.21875 47.359375 69.109375 
Q 53.90625 64.015625 53.90625 55.328125 
Q 53.90625 49.265625 50.4375 45.09375 
Q 46.96875 40.921875 40.578125 39.3125 
z
" id="DejaVuSans-51"/>
      </defs>
      <g transform="translate(26.05 31.378828)scale(0.15 -0.15)">
       <use xlink:href="#DejaVuSans-49"/>
       <use x="63.623047" xlink:href="#DejaVuSans-46"/>
       <use x="95.410156" xlink:href="#DejaVuSans-51"/>
      </g>
     </g>
    </g>
    <g id="text_13">
     <!-- $\Delta/\overline{s_b}$ -->
     <defs>
      <path d="M 34.1875 63.1875 
L 14.15625 8.203125 
L 54.25 8.203125 
z
M 0.78125 0 
L 28.609375 72.90625 
L 39.796875 72.90625 
L 67.578125 0 
z
" id="DejaVuSans-916"/>
     </defs>
     <g transform="translate(18.930469 133.23)rotate(-90)scale(0.15 -0.15)">
      <use transform="translate(0 0.25)" xlink:href="#DejaVuSans-916"/>
      <use transform="translate(68.408203 0.25)" xlink:href="#DejaVuSans-47"/>
      <use transform="translate(102.099609 0.75)" xlink:href="#DejaVuSans-Oblique-115"/>
      <use transform="translate(154.199219 -15.65625)scale(0.7)" xlink:href="#DejaVuSans-Oblique-98"/>
      <path d="M 102.099609 68.5 
L 102.099609 74.75 
L 201.367188 74.75 
L 201.367188 68.5 
L 102.099609 68.5 
z
"/>
     </g>
    </g>
   </g>
   <g id="LineCollection_1">
    <path clip-path="url(#pef7a411f6f)" d="M 146.334241 131.292084 
L 147.328901 131.292084 
" style="fill:none;stroke:#000000;stroke-width:3;"/>
    <path clip-path="url(#pef7a411f6f)" d="M 182.514629 135.681712 
L 182.940204 135.681712 
" style="fill:none;stroke:#000000;stroke-width:3;"/>
    <path clip-path="url(#pef7a411f6f)" d="M 208.001454 138.947418 
L 208.404241 138.947418 
" style="fill:none;stroke:#000000;stroke-width:3;"/>
    <path clip-path="url(#pef7a411f6f)" d="M 235.160602 137.73292 
L 235.642297 137.73292 
" style="fill:none;stroke:#000000;stroke-width:3;"/>
    <path clip-path="url(#pef7a411f6f)" d="M 283.964602 139.170493 
L 285.561571 139.170493 
" style="fill:none;stroke:#000000;stroke-width:3;"/>
   </g>
   <g id="LineCollection_2">
    <path clip-path="url(#pef7a411f6f)" d="M 146.831571 134.494428 
L 146.831571 128.08974 
" style="fill:none;stroke:#000000;stroke-width:3;"/>
    <path clip-path="url(#pef7a411f6f)" d="M 182.727416 138.835659 
L 182.727416 132.527766 
" style="fill:none;stroke:#000000;stroke-width:3;"/>
    <path clip-path="url(#pef7a411f6f)" d="M 208.202847 142.105576 
L 208.202847 135.78926 
" style="fill:none;stroke:#000000;stroke-width:3;"/>
    <path clip-path="url(#pef7a411f6f)" d="M 235.40145 140.957099 
L 235.40145 134.508741 
" style="fill:none;stroke:#000000;stroke-width:3;"/>
    <path clip-path="url(#pef7a411f6f)" d="M 284.763086 142.483281 
L 284.763086 135.857706 
" style="fill:none;stroke:#000000;stroke-width:3;"/>
   </g>
   <g id="LineCollection_3">
    <path clip-path="url(#pef7a411f6f)" d="M 165.186828 107.585798 
L 166.053885 107.585798 
" style="fill:none;stroke:#ff0000;stroke-width:3;"/>
    <path clip-path="url(#pef7a411f6f)" d="M 192.713134 127.005843 
L 193.052818 127.005843 
" style="fill:none;stroke:#ff0000;stroke-width:3;"/>
    <path clip-path="url(#pef7a411f6f)" d="M 210.404891 136.772543 
L 210.703939 136.772543 
" style="fill:none;stroke:#ff0000;stroke-width:3;"/>
    <path clip-path="url(#pef7a411f6f)" d="M 228.454172 148.837134 
L 228.81816 148.837134 
" style="fill:none;stroke:#ff0000;stroke-width:3;"/>
    <path clip-path="url(#pef7a411f6f)" d="M 259.709397 162.797843 
L 260.797529 162.797843 
" style="fill:none;stroke:#ff0000;stroke-width:3;"/>
   </g>
   <g id="LineCollection_4">
    <path clip-path="url(#pef7a411f6f)" d="M 165.620356 110.547983 
L 165.620356 104.623614 
" style="fill:none;stroke:#ff0000;stroke-width:3;"/>
    <path clip-path="url(#pef7a411f6f)" d="M 192.882976 129.880887 
L 192.882976 124.130798 
" style="fill:none;stroke:#ff0000;stroke-width:3;"/>
    <path clip-path="url(#pef7a411f6f)" d="M 210.554415 139.641028 
L 210.554415 133.904058 
" style="fill:none;stroke:#ff0000;stroke-width:3;"/>
    <path clip-path="url(#pef7a411f6f)" d="M 228.636166 151.706184 
L 228.636166 145.968084 
" style="fill:none;stroke:#ff0000;stroke-width:3;"/>
    <path clip-path="url(#pef7a411f6f)" d="M 260.253463 165.544901 
L 260.253463 160.050785 
" style="fill:none;stroke:#ff0000;stroke-width:3;"/>
   </g>
   <g id="LineCollection_5">
    <path clip-path="url(#pef7a411f6f)" d="M 121.838816 189.513279 
L 123.02037 189.513279 
" style="fill:none;stroke:#008000;stroke-width:3;"/>
    <path clip-path="url(#pef7a411f6f)" d="M 169.063314 157.20466 
L 169.642284 157.20466 
" style="fill:none;stroke:#008000;stroke-width:3;"/>
    <path clip-path="url(#pef7a411f6f)" d="M 203.336415 133.44139 
L 203.87673 133.44139 
" style="fill:none;stroke:#008000;stroke-width:3;"/>
    <path clip-path="url(#pef7a411f6f)" d="M 241.923348 116.756227 
L 242.655232 116.756227 
" style="fill:none;stroke:#008000;stroke-width:3;"/>
    <path clip-path="url(#pef7a411f6f)" d="M 318.797313 85.755224 
L 321.538818 85.755224 
" style="fill:none;stroke:#008000;stroke-width:3;"/>
   </g>
   <g id="LineCollection_6">
    <path clip-path="url(#pef7a411f6f)" d="M 122.429593 193.021748 
L 122.429593 186.00481 
" style="fill:none;stroke:#008000;stroke-width:3;"/>
    <path clip-path="url(#pef7a411f6f)" d="M 169.352799 160.976318 
L 169.352799 153.433003 
" style="fill:none;stroke:#008000;stroke-width:3;"/>
    <path clip-path="url(#pef7a411f6f)" d="M 203.606572 137.317594 
L 203.606572 129.565187 
" style="fill:none;stroke:#008000;stroke-width:3;"/>
    <path clip-path="url(#pef7a411f6f)" d="M 242.28929 120.650478 
L 242.28929 112.861976 
" style="fill:none;stroke:#008000;stroke-width:3;"/>
    <path clip-path="url(#pef7a411f6f)" d="M 320.168065 90.014996 
L 320.168065 81.495452 
" style="fill:none;stroke:#008000;stroke-width:3;"/>
   </g>
   <g id="line2d_23">
    <defs>
     <path d="M 0 5 
L 0 -5 
" id="m97e08334e1" style="stroke:#000000;"/>
    </defs>
    <g clip-path="url(#pef7a411f6f)">
     <use style="stroke:#000000;" x="146.334241" xlink:href="#m97e08334e1" y="131.292084"/>
     <use style="stroke:#000000;" x="182.514629" xlink:href="#m97e08334e1" y="135.681712"/>
     <use style="stroke:#000000;" x="208.001454" xlink:href="#m97e08334e1" y="138.947418"/>
     <use style="stroke:#000000;" x="235.160602" xlink:href="#m97e08334e1" y="137.73292"/>
     <use style="stroke:#000000;" x="283.964602" xlink:href="#m97e08334e1" y="139.170493"/>
    </g>
   </g>
   <g id="line2d_24">
    <g clip-path="url(#pef7a411f6f)">
     <use style="stroke:#000000;" x="147.328901" xlink:href="#m97e08334e1" y="131.292084"/>
     <use style="stroke:#000000;" x="182.940204" xlink:href="#m97e08334e1" y="135.681712"/>
     <use style="stroke:#000000;" x="208.404241" xlink:href="#m97e08334e1" y="138.947418"/>
     <use style="stroke:#000000;" x="235.642297" xlink:href="#m97e08334e1" y="137.73292"/>
     <use style="stroke:#000000;" x="285.561571" xlink:href="#m97e08334e1" y="139.170493"/>
    </g>
   </g>
   <g id="line2d_25">
    <defs>
     <path d="M 5 0 
L -5 -0 
" id="mc904717115" style="stroke:#000000;"/>
    </defs>
    <g clip-path="url(#pef7a411f6f)">
     <use style="stroke:#000000;" x="146.831571" xlink:href="#mc904717115" y="134.494428"/>
     <use style="stroke:#000000;" x="182.727416" xlink:href="#mc904717115" y="138.835659"/>
     <use style="stroke:#000000;" x="208.202847" xlink:href="#mc904717115" y="142.105576"/>
     <use style="stroke:#000000;" x="235.40145" xlink:href="#mc904717115" y="140.957099"/>
     <use style="stroke:#000000;" x="284.763086" xlink:href="#mc904717115" y="142.483281"/>
    </g>
   </g>
   <g id="line2d_26">
    <g clip-path="url(#pef7a411f6f)">
     <use style="stroke:#000000;" x="146.831571" xlink:href="#mc904717115" y="128.08974"/>
     <use style="stroke:#000000;" x="182.727416" xlink:href="#mc904717115" y="132.527766"/>
     <use style="stroke:#000000;" x="208.202847" xlink:href="#mc904717115" y="135.78926"/>
     <use style="stroke:#000000;" x="235.40145" xlink:href="#mc904717115" y="134.508741"/>
     <use style="stroke:#000000;" x="284.763086" xlink:href="#mc904717115" y="135.857706"/>
    </g>
   </g>
   <g id="line2d_27">
    <defs>
     <path d="M 0 5 
L 0 -5 
" id="m25b4de7129" style="stroke:#ff0000;"/>
    </defs>
    <g clip-path="url(#pef7a411f6f)">
     <use style="fill:#ff0000;stroke:#ff0000;" x="165.186828" xlink:href="#m25b4de7129" y="107.585798"/>
     <use style="fill:#ff0000;stroke:#ff0000;" x="192.713134" xlink:href="#m25b4de7129" y="127.005843"/>
     <use style="fill:#ff0000;stroke:#ff0000;" x="210.404891" xlink:href="#m25b4de7129" y="136.772543"/>
     <use style="fill:#ff0000;stroke:#ff0000;" x="228.454172" xlink:href="#m25b4de7129" y="148.837134"/>
     <use style="fill:#ff0000;stroke:#ff0000;" x="259.709397" xlink:href="#m25b4de7129" y="162.797843"/>
    </g>
   </g>
   <g id="line2d_28">
    <g clip-path="url(#pef7a411f6f)">
     <use style="fill:#ff0000;stroke:#ff0000;" x="166.053885" xlink:href="#m25b4de7129" y="107.585798"/>
     <use style="fill:#ff0000;stroke:#ff0000;" x="193.052818" xlink:href="#m25b4de7129" y="127.005843"/>
     <use style="fill:#ff0000;stroke:#ff0000;" x="210.703939" xlink:href="#m25b4de7129" y="136.772543"/>
     <use style="fill:#ff0000;stroke:#ff0000;" x="228.81816" xlink:href="#m25b4de7129" y="148.837134"/>
     <use style="fill:#ff0000;stroke:#ff0000;" x="260.797529" xlink:href="#m25b4de7129" y="162.797843"/>
    </g>
   </g>
   <g id="line2d_29">
    <defs>
     <path d="M 5 0 
L -5 -0 
" id="mf521633fa9" style="stroke:#ff0000;"/>
    </defs>
    <g clip-path="url(#pef7a411f6f)">
     <use style="fill:#ff0000;stroke:#ff0000;" x="165.620356" xlink:href="#mf521633fa9" y="110.547983"/>
     <use style="fill:#ff0000;stroke:#ff0000;" x="192.882976" xlink:href="#mf521633fa9" y="129.880887"/>
     <use style="fill:#ff0000;stroke:#ff0000;" x="210.554415" xlink:href="#mf521633fa9" y="139.641028"/>
     <use style="fill:#ff0000;stroke:#ff0000;" x="228.636166" xlink:href="#mf521633fa9" y="151.706184"/>
     <use style="fill:#ff0000;stroke:#ff0000;" x="260.253463" xlink:href="#mf521633fa9" y="165.544901"/>
    </g>
   </g>
   <g id="line2d_30">
    <g clip-path="url(#pef7a411f6f)">
     <use style="fill:#ff0000;stroke:#ff0000;" x="165.620356" xlink:href="#mf521633fa9" y="104.623614"/>
     <use style="fill:#ff0000;stroke:#ff0000;" x="192.882976" xlink:href="#mf521633fa9" y="124.130798"/>
     <use style="fill:#ff0000;stroke:#ff0000;" x="210.554415" xlink:href="#mf521633fa9" y="133.904058"/>
     <use style="fill:#ff0000;stroke:#ff0000;" x="228.636166" xlink:href="#mf521633fa9" y="145.968084"/>
     <use style="fill:#ff0000;stroke:#ff0000;" x="260.253463" xlink:href="#mf521633fa9" y="160.050785"/>
    </g>
   </g>
   <g id="line2d_31">
    <defs>
     <path d="M 0 5 
L 0 -5 
" id="m1076df3518" style="stroke:#008000;"/>
    </defs>
    <g clip-path="url(#pef7a411f6f)">
     <use style="fill:#008000;stroke:#008000;" x="121.838816" xlink:href="#m1076df3518" y="189.513279"/>
     <use style="fill:#008000;stroke:#008000;" x="169.063314" xlink:href="#m1076df3518" y="157.20466"/>
     <use style="fill:#008000;stroke:#008000;" x="203.336415" xlink:href="#m1076df3518" y="133.44139"/>
     <use style="fill:#008000;stroke:#008000;" x="241.923348" xlink:href="#m1076df3518" y="116.756227"/>
     <use style="fill:#008000;stroke:#008000;" x="318.797313" xlink:href="#m1076df3518" y="85.755224"/>
    </g>
   </g>
   <g id="line2d_32">
    <g clip-path="url(#pef7a411f6f)">
     <use style="fill:#008000;stroke:#008000;" x="123.02037" xlink:href="#m1076df3518" y="189.513279"/>
     <use style="fill:#008000;stroke:#008000;" x="169.642284" xlink:href="#m1076df3518" y="157.20466"/>
     <use style="fill:#008000;stroke:#008000;" x="203.87673" xlink:href="#m1076df3518" y="133.44139"/>
     <use style="fill:#008000;stroke:#008000;" x="242.655232" xlink:href="#m1076df3518" y="116.756227"/>
     <use style="fill:#008000;stroke:#008000;" x="321.538818" xlink:href="#m1076df3518" y="85.755224"/>
    </g>
   </g>
   <g id="line2d_33">
    <defs>
     <path d="M 5 0 
L -5 -0 
" id="mcd914a4e8d" style="stroke:#008000;"/>
    </defs>
    <g clip-path="url(#pef7a411f6f)">
     <use style="fill:#008000;stroke:#008000;" x="122.429593" xlink:href="#mcd914a4e8d" y="193.021748"/>
     <use style="fill:#008000;stroke:#008000;" x="169.352799" xlink:href="#mcd914a4e8d" y="160.976318"/>
     <use style="fill:#008000;stroke:#008000;" x="203.606572" xlink:href="#mcd914a4e8d" y="137.317594"/>
     <use style="fill:#008000;stroke:#008000;" x="242.28929" xlink:href="#mcd914a4e8d" y="120.650478"/>
     <use style="fill:#008000;stroke:#008000;" x="320.168065" xlink:href="#mcd914a4e8d" y="90.014996"/>
    </g>
   </g>
   <g id="line2d_34">
    <g clip-path="url(#pef7a411f6f)">
     <use style="fill:#008000;stroke:#008000;" x="122.429593" xlink:href="#mcd914a4e8d" y="186.00481"/>
     <use style="fill:#008000;stroke:#008000;" x="169.352799" xlink:href="#mcd914a4e8d" y="153.433003"/>
     <use style="fill:#008000;stroke:#008000;" x="203.606572" xlink:href="#mcd914a4e8d" y="129.565187"/>
     <use style="fill:#008000;stroke:#008000;" x="242.28929" xlink:href="#mcd914a4e8d" y="112.861976"/>
     <use style="fill:#008000;stroke:#008000;" x="320.168065" xlink:href="#mcd914a4e8d" y="81.495452"/>
    </g>
   </g>
   <g id="line2d_35">
    <path clip-path="url(#pef7a411f6f)" d="M 73.239398 225.157785 
L 76.034289 223.015506 
L 78.82918 220.894353 
L 81.624071 218.793712 
L 84.418962 216.712999 
L 87.213854 214.65166 
L 90.008745 212.609162 
L 92.803636 210.584998 
L 95.598527 208.578686 
L 98.393418 206.589759 
L 101.188309 204.617775 
L 103.9832 202.662308 
L 106.778091 200.722951 
L 109.572982 198.799311 
L 112.367873 196.891014 
L 115.162764 194.997697 
L 117.957655 193.119015 
L 120.752546 191.254633 
L 123.547437 189.40423 
L 126.342328 187.567496 
L 129.137219 185.744133 
L 131.93211 183.933854 
L 134.727002 182.13638 
L 137.521893 180.351445 
L 140.316784 178.57879 
L 143.111675 176.818165 
L 145.906566 175.069328 
L 148.701457 173.332047 
L 151.496348 171.606095 
L 154.291239 169.891253 
L 157.08613 168.187311 
L 159.881021 166.494063 
L 162.675912 164.81131 
L 165.470803 163.13886 
L 168.265694 161.476526 
L 171.060585 159.824126 
L 173.855476 158.181486 
L 176.650367 156.548434 
L 179.445258 154.924805 
L 182.24015 153.310437 
L 185.035041 151.705174 
L 187.829932 150.108864 
L 190.624823 148.521358 
L 193.419714 146.942513 
L 196.214605 145.372189 
L 199.009496 143.810249 
L 201.804387 142.256561 
L 204.599278 140.710996 
L 207.394169 139.173426 
L 210.18906 137.643731 
L 212.983951 136.121789 
L 215.778842 134.607485 
L 218.573733 133.100705 
L 221.368624 131.601337 
L 224.163515 130.109275 
L 226.958407 128.624411 
L 229.753298 127.146643 
L 232.548189 125.675871 
L 235.34308 124.211995 
L 238.137971 122.754921 
L 240.932862 121.304553 
L 243.727753 119.860802 
L 246.522644 118.423576 
L 249.317535 116.992788 
L 252.112426 115.568353 
L 254.907317 114.150187 
L 257.702208 112.738208 
L 260.497099 111.332335 
L 263.29199 109.932491 
L 266.086881 108.538598 
L 268.881772 107.150582 
L 271.676663 105.768368 
L 274.471555 104.391885 
L 277.266446 103.021062 
L 280.061337 101.655829 
L 282.856228 100.29612 
L 285.651119 98.941868 
L 288.44601 97.593007 
L 291.240901 96.249473 
L 294.035792 94.911205 
L 296.830683 93.578141 
L 299.625574 92.250221 
L 302.420465 90.927385 
L 305.215356 89.609576 
L 308.010247 88.296737 
L 310.805138 86.988812 
L 313.600029 85.685747 
L 316.39492 84.387488 
L 319.189811 83.093982 
L 321.984703 81.805177 
L 324.779594 80.521023 
L 327.574485 79.241469 
L 330.369376 77.966467 
L 333.164267 76.695968 
L 335.959158 75.429926 
L 338.754049 74.168293 
L 341.54894 72.911024 
L 344.343831 71.658074 
L 347.138722 70.409399 
L 349.933613 69.164956 
" style="fill:none;stroke:#008000;stroke-linecap:square;stroke-width:2;"/>
   </g>
   <g id="line2d_36">
    <path clip-path="url(#pef7a411f6f)" d="M 73.239398 136.629288 
L 76.034289 136.630999 
L 78.82918 136.63271 
L 81.624071 136.634421 
L 84.418962 136.636132 
L 87.213854 136.637842 
L 90.008745 136.639553 
L 92.803636 136.641264 
L 95.598527 136.642975 
L 98.393418 136.644686 
L 101.188309 136.646397 
L 103.9832 136.648108 
L 106.778091 136.649819 
L 109.572982 136.651529 
L 112.367873 136.65324 
L 115.162764 136.654951 
L 117.957655 136.656662 
L 120.752546 136.658373 
L 123.547437 136.660084 
L 126.342328 136.661795 
L 129.137219 136.663506 
L 131.93211 136.665216 
L 134.727002 136.666927 
L 137.521893 136.668638 
L 140.316784 136.670349 
L 143.111675 136.67206 
L 145.906566 136.673771 
L 148.701457 136.675482 
L 151.496348 136.677193 
L 154.291239 136.678903 
L 157.08613 136.680614 
L 159.881021 136.682325 
L 162.675912 136.684036 
L 165.470803 136.685747 
L 168.265694 136.687458 
L 171.060585 136.689169 
L 173.855476 136.69088 
L 176.650367 136.69259 
L 179.445258 136.694301 
L 182.24015 136.696012 
L 185.035041 136.697723 
L 187.829932 136.699434 
L 190.624823 136.701145 
L 193.419714 136.702856 
L 196.214605 136.704567 
L 199.009496 136.706277 
L 201.804387 136.707988 
L 204.599278 136.709699 
L 207.394169 136.71141 
L 210.18906 136.713121 
L 212.983951 136.714832 
L 215.778842 136.716543 
L 218.573733 136.718254 
L 221.368624 136.719964 
L 224.163515 136.721675 
L 226.958407 136.723386 
L 229.753298 136.725097 
L 232.548189 136.726808 
L 235.34308 136.728519 
L 238.137971 136.73023 
L 240.932862 136.731941 
L 243.727753 136.733651 
L 246.522644 136.735362 
L 249.317535 136.737073 
L 252.112426 136.738784 
L 254.907317 136.740495 
L 257.702208 136.742206 
L 260.497099 136.743917 
L 263.29199 136.745628 
L 266.086881 136.747338 
L 268.881772 136.749049 
L 271.676663 136.75076 
L 274.471555 136.752471 
L 277.266446 136.754182 
L 280.061337 136.755893 
L 282.856228 136.757604 
L 285.651119 136.759315 
L 288.44601 136.761025 
L 291.240901 136.762736 
L 294.035792 136.764447 
L 296.830683 136.766158 
L 299.625574 136.767869 
L 302.420465 136.76958 
L 305.215356 136.771291 
L 308.010247 136.773002 
L 310.805138 136.774712 
L 313.600029 136.776423 
L 316.39492 136.778134 
L 319.189811 136.779845 
L 321.984703 136.781556 
L 324.779594 136.783267 
L 327.574485 136.784978 
L 330.369376 136.786689 
L 333.164267 136.788399 
L 335.959158 136.79011 
L 338.754049 136.791821 
L 341.54894 136.793532 
L 344.343831 136.795243 
L 347.138722 136.796954 
L 349.933613 136.798665 
" style="fill:none;stroke:#000000;stroke-linecap:square;stroke-width:2;"/>
   </g>
   <g id="line2d_37">
    <path clip-path="url(#pef7a411f6f)" d="M 73.239398 25.930252 
L 76.034289 28.594129 
L 78.82918 31.238551 
L 81.624071 33.863621 
L 84.418962 36.469442 
L 87.213854 39.056121 
L 90.008745 41.623762 
L 92.803636 44.172473 
L 95.598527 46.702362 
L 98.393418 49.213535 
L 101.188309 51.706104 
L 103.9832 54.180177 
L 106.778091 56.635865 
L 109.572982 59.073279 
L 112.367873 61.492531 
L 115.162764 63.893733 
L 117.957655 66.276997 
L 120.752546 68.642437 
L 123.547437 70.990167 
L 126.342328 73.3203 
L 129.137219 75.632951 
L 131.93211 77.928234 
L 134.727002 80.206264 
L 137.521893 82.467157 
L 140.316784 84.711028 
L 143.111675 86.937993 
L 145.906566 89.148166 
L 148.701457 91.341665 
L 151.496348 93.518605 
L 154.291239 95.679102 
L 157.08613 97.823273 
L 159.881021 99.951232 
L 162.675912 102.063097 
L 165.470803 104.158983 
L 168.265694 106.239006 
L 171.060585 108.303282 
L 173.855476 110.351927 
L 176.650367 112.385056 
L 179.445258 114.402784 
L 182.24015 116.405227 
L 185.035041 118.392499 
L 187.829932 120.364716 
L 190.624823 122.321991 
L 193.419714 124.264438 
L 196.214605 126.192172 
L 199.009496 128.105307 
L 201.804387 130.003954 
L 204.599278 131.888227 
L 207.394169 133.758238 
L 210.18906 135.6141 
L 212.983951 137.455923 
L 215.778842 139.28382 
L 218.573733 141.0979 
L 221.368624 142.898274 
L 224.163515 144.685053 
L 226.958407 146.458344 
L 229.753298 148.218257 
L 232.548189 149.964901 
L 235.34308 151.698383 
L 238.137971 153.41881 
L 240.932862 155.126289 
L 243.727753 156.820926 
L 246.522644 158.502827 
L 249.317535 160.172097 
L 252.112426 161.828841 
L 254.907317 163.473162 
L 257.702208 165.105163 
L 260.497099 166.724947 
L 263.29199 168.332617 
L 266.086881 169.928273 
L 268.881772 171.512017 
L 271.676663 173.083949 
L 274.471555 174.644168 
L 277.266446 176.192773 
L 280.061337 177.729862 
L 282.856228 179.255534 
L 285.651119 180.769885 
L 288.44601 182.273011 
L 291.240901 183.765008 
L 294.035792 185.245971 
L 296.830683 186.715995 
L 299.625574 188.175173 
L 302.420465 189.623598 
L 305.215356 191.061362 
L 308.010247 192.488558 
L 310.805138 193.905275 
L 313.600029 195.311605 
L 316.39492 196.707636 
L 319.189811 198.093459 
L 321.984703 199.469161 
L 324.779594 200.834829 
L 327.574485 202.190551 
L 330.369376 203.536413 
L 333.164267 204.872501 
L 335.959158 206.198899 
L 338.754049 207.515691 
L 341.54894 208.822961 
L 344.343831 210.120792 
L 347.138722 211.409267 
L 349.933613 212.688465 
" style="fill:none;stroke:#ff0000;stroke-linecap:square;stroke-width:2;"/>
   </g>
   <g id="line2d_38">
    <defs>
     <path d="M 0 4 
C 1.060812 4 2.078319 3.578535 2.828427 2.828427 
C 3.578535 2.078319 4 1.060812 4 0 
C 4 -1.060812 3.578535 -2.078319 2.828427 -2.828427 
C 2.078319 -3.578535 1.060812 -4 0 -4 
C -1.060812 -4 -2.078319 -3.578535 -2.828427 -2.828427 
C -3.578535 -2.078319 -4 -1.060812 -4 0 
C -4 1.060812 -3.578535 2.078319 -2.828427 2.828427 
C -2.078319 3.578535 -1.060812 4 0 4 
z
" id="md22e7490b3" style="stroke:#000000;"/>
    </defs>
    <g clip-path="url(#pef7a411f6f)">
     <use style="stroke:#000000;" x="146.831571" xlink:href="#md22e7490b3" y="131.292084"/>
     <use style="stroke:#000000;" x="182.727416" xlink:href="#md22e7490b3" y="135.681712"/>
     <use style="stroke:#000000;" x="208.202847" xlink:href="#md22e7490b3" y="138.947418"/>
     <use style="stroke:#000000;" x="235.40145" xlink:href="#md22e7490b3" y="137.73292"/>
     <use style="stroke:#000000;" x="284.763086" xlink:href="#md22e7490b3" y="139.170493"/>
    </g>
   </g>
   <g id="line2d_39">
    <defs>
     <path d="M 0 4 
C 1.060812 4 2.078319 3.578535 2.828427 2.828427 
C 3.578535 2.078319 4 1.060812 4 0 
C 4 -1.060812 3.578535 -2.078319 2.828427 -2.828427 
C 2.078319 -3.578535 1.060812 -4 0 -4 
C -1.060812 -4 -2.078319 -3.578535 -2.828427 -2.828427 
C -3.578535 -2.078319 -4 -1.060812 -4 0 
C -4 1.060812 -3.578535 2.078319 -2.828427 2.828427 
C -2.078319 3.578535 -1.060812 4 0 4 
z
" id="m560f3eafe1" style="stroke:#000000;"/>
    </defs>
    <g clip-path="url(#pef7a411f6f)">
     <use style="fill:#ff0000;stroke:#000000;" x="165.620356" xlink:href="#m560f3eafe1" y="107.585798"/>
     <use style="fill:#ff0000;stroke:#000000;" x="192.882976" xlink:href="#m560f3eafe1" y="127.005843"/>
     <use style="fill:#ff0000;stroke:#000000;" x="210.554415" xlink:href="#m560f3eafe1" y="136.772543"/>
     <use style="fill:#ff0000;stroke:#000000;" x="228.636166" xlink:href="#m560f3eafe1" y="148.837134"/>
     <use style="fill:#ff0000;stroke:#000000;" x="260.253463" xlink:href="#m560f3eafe1" y="162.797843"/>
    </g>
   </g>
   <g id="line2d_40">
    <defs>
     <path d="M 0 4 
C 1.060812 4 2.078319 3.578535 2.828427 2.828427 
C 3.578535 2.078319 4 1.060812 4 0 
C 4 -1.060812 3.578535 -2.078319 2.828427 -2.828427 
C 2.078319 -3.578535 1.060812 -4 0 -4 
C -1.060812 -4 -2.078319 -3.578535 -2.828427 -2.828427 
C -3.578535 -2.078319 -4 -1.060812 -4 0 
C -4 1.060812 -3.578535 2.078319 -2.828427 2.828427 
C -2.078319 3.578535 -1.060812 4 0 4 
z
" id="m3760e6ae1e" style="stroke:#000000;"/>
    </defs>
    <g clip-path="url(#pef7a411f6f)">
     <use style="fill:#008000;stroke:#000000;" x="122.429593" xlink:href="#m3760e6ae1e" y="189.513279"/>
     <use style="fill:#008000;stroke:#000000;" x="169.352799" xlink:href="#m3760e6ae1e" y="157.20466"/>
     <use style="fill:#008000;stroke:#000000;" x="203.606572" xlink:href="#m3760e6ae1e" y="133.44139"/>
     <use style="fill:#008000;stroke:#000000;" x="242.28929" xlink:href="#m3760e6ae1e" y="116.756227"/>
     <use style="fill:#008000;stroke:#000000;" x="320.168065" xlink:href="#m3760e6ae1e" y="85.755224"/>
    </g>
   </g>
   <g id="patch_3">
    <path d="M 59.404688 228.96 
L 59.404688 7.2 
" style="fill:none;stroke:#000000;stroke-linecap:square;stroke-linejoin:miter;stroke-width:2;"/>
   </g>
   <g id="patch_4">
    <path d="M 363.768324 228.96 
L 363.768324 7.2 
" style="fill:none;"/>
   </g>
   <g id="patch_5">
    <path d="M 59.404688 228.96 
L 363.768324 228.96 
" style="fill:none;stroke:#000000;stroke-linecap:square;stroke-linejoin:miter;stroke-width:2;"/>
   </g>
   <g id="patch_6">
    <path d="M 59.404688 7.2 
L 363.768324 7.2 
" style="fill:none;"/>
   </g>
   <g id="text_14">
    <!-- $\lambda = 2$ -->
    <defs>
     <path d="M 36.71875 67.4375 
L 48.828125 0 
L 39.3125 0 
L 31.84375 40.4375 
L 5.125 0 
L -4.390625 0 
L 29.734375 52.4375 
L 28.03125 62.109375 
Q 26.953125 68.265625 21.734375 68.265625 
L 17.046875 68.265625 
L 18.5 75.984375 
L 24.21875 75.875 
Q 35.203125 75.734375 36.71875 67.4375 
z
" id="DejaVuSans-Oblique-955"/>
     <path d="M 10.59375 45.40625 
L 73.1875 45.40625 
L 73.1875 37.203125 
L 10.59375 37.203125 
z
M 10.59375 25.484375 
L 73.1875 25.484375 
L 73.1875 17.1875 
L 10.59375 17.1875 
z
" id="DejaVuSans-61"/>
    </defs>
    <g transform="translate(88.266969 23.034127)rotate(-325)scale(0.1 -0.1)">
     <use transform="translate(0 0.015625)" xlink:href="#DejaVuSans-Oblique-955"/>
     <use transform="translate(78.662109 0.015625)" xlink:href="#DejaVuSans-61"/>
     <use transform="translate(181.933594 0.015625)" xlink:href="#DejaVuSans-50"/>
    </g>
   </g>
   <g id="text_15">
    <!-- $\lambda = 1$ -->
    <g transform="translate(87.074109 132.864)scale(0.1 -0.1)">
     <use transform="translate(0 0.015625)" xlink:href="#DejaVuSans-Oblique-955"/>
     <use transform="translate(78.662109 0.015625)" xlink:href="#DejaVuSans-61"/>
     <use transform="translate(181.933594 0.015625)" xlink:href="#DejaVuSans-49"/>
    </g>
   </g>
   <g id="text_16">
    <!-- $\lambda = 0.5$ -->
    <defs>
     <path d="M 10.796875 72.90625 
L 49.515625 72.90625 
L 49.515625 64.59375 
L 19.828125 64.59375 
L 19.828125 46.734375 
Q 21.96875 47.46875 24.109375 47.828125 
Q 26.265625 48.1875 28.421875 48.1875 
Q 40.625 48.1875 47.75 41.5 
Q 54.890625 34.8125 54.890625 23.390625 
Q 54.890625 11.625 47.5625 5.09375 
Q 40.234375 -1.421875 26.90625 -1.421875 
Q 22.3125 -1.421875 17.546875 -0.640625 
Q 12.796875 0.140625 7.71875 1.703125 
L 7.71875 11.625 
Q 12.109375 9.234375 16.796875 8.0625 
Q 21.484375 6.890625 26.703125 6.890625 
Q 35.15625 6.890625 40.078125 11.328125 
Q 45.015625 15.765625 45.015625 23.390625 
Q 45.015625 31 40.078125 35.4375 
Q 35.15625 39.890625 26.703125 39.890625 
Q 22.75 39.890625 18.8125 39.015625 
Q 14.890625 38.140625 10.796875 36.28125 
z
" id="DejaVuSans-53"/>
    </defs>
    <g transform="translate(91.432394 184.984107)rotate(-35)scale(0.1 -0.1)">
     <use transform="translate(0 0.015625)" xlink:href="#DejaVuSans-Oblique-955"/>
     <use transform="translate(78.662109 0.015625)" xlink:href="#DejaVuSans-61"/>
     <use transform="translate(181.933594 0.015625)" xlink:href="#DejaVuSans-48"/>
     <use transform="translate(245.556641 0.015625)" xlink:href="#DejaVuSans-46"/>
     <use transform="translate(277.34375 0.015625)" xlink:href="#DejaVuSans-53"/>
    </g>
   </g>
  </g>
  <g id="axes_2">
   <g id="patch_7">
    <path d="M 424.641051 228.96 
L 729.004687 228.96 
L 729.004687 7.2 
L 424.641051 7.2 
z
" style="fill:#ffffff;"/>
   </g>
   <g id="matplotlib.axis_3">
    <g id="xtick_6">
     <g id="line2d_41">
      <path clip-path="url(#p6aa46489c4)" d="M 466.145183 228.96 
L 466.145183 7.2 
" style="fill:none;stroke:#b0b0b0;stroke-linecap:square;stroke-width:0.8;"/>
     </g>
     <g id="line2d_42">
      <g>
       <use x="466.145183" xlink:href="#m0b924d189b" y="228.96"/>
      </g>
     </g>
     <g id="text_17">
      <!-- 0.6 -->
      <g transform="translate(454.21784 249.857656)scale(0.15 -0.15)">
       <use xlink:href="#DejaVuSans-48"/>
       <use x="63.623047" xlink:href="#DejaVuSans-46"/>
       <use x="95.410156" xlink:href="#DejaVuSans-54"/>
      </g>
     </g>
    </g>
    <g id="xtick_7">
     <g id="line2d_43">
      <path clip-path="url(#p6aa46489c4)" d="M 521.484026 228.96 
L 521.484026 7.2 
" style="fill:none;stroke:#b0b0b0;stroke-linecap:square;stroke-width:0.8;"/>
     </g>
     <g id="line2d_44">
      <g>
       <use x="521.484026" xlink:href="#m0b924d189b" y="228.96"/>
      </g>
     </g>
     <g id="text_18">
      <!-- 0.8 -->
      <g transform="translate(509.556683 249.857656)scale(0.15 -0.15)">
       <use xlink:href="#DejaVuSans-48"/>
       <use x="63.623047" xlink:href="#DejaVuSans-46"/>
       <use x="95.410156" xlink:href="#DejaVuSans-56"/>
      </g>
     </g>
    </g>
    <g id="xtick_8">
     <g id="line2d_45">
      <path clip-path="url(#p6aa46489c4)" d="M 576.822869 228.96 
L 576.822869 7.2 
" style="fill:none;stroke:#b0b0b0;stroke-linecap:square;stroke-width:0.8;"/>
     </g>
     <g id="line2d_46">
      <g>
       <use x="576.822869" xlink:href="#m0b924d189b" y="228.96"/>
      </g>
     </g>
     <g id="text_19">
      <!-- 1.0 -->
      <g transform="translate(564.895526 249.857656)scale(0.15 -0.15)">
       <use xlink:href="#DejaVuSans-49"/>
       <use x="63.623047" xlink:href="#DejaVuSans-46"/>
       <use x="95.410156" xlink:href="#DejaVuSans-48"/>
      </g>
     </g>
    </g>
    <g id="xtick_9">
     <g id="line2d_47">
      <path clip-path="url(#p6aa46489c4)" d="M 632.161712 228.96 
L 632.161712 7.2 
" style="fill:none;stroke:#b0b0b0;stroke-linecap:square;stroke-width:0.8;"/>
     </g>
     <g id="line2d_48">
      <g>
       <use x="632.161712" xlink:href="#m0b924d189b" y="228.96"/>
      </g>
     </g>
     <g id="text_20">
      <!-- 1.2 -->
      <g transform="translate(620.234369 249.857656)scale(0.15 -0.15)">
       <use xlink:href="#DejaVuSans-49"/>
       <use x="63.623047" xlink:href="#DejaVuSans-46"/>
       <use x="95.410156" xlink:href="#DejaVuSans-50"/>
      </g>
     </g>
    </g>
    <g id="xtick_10">
     <g id="line2d_49">
      <path clip-path="url(#p6aa46489c4)" d="M 687.500555 228.96 
L 687.500555 7.2 
" style="fill:none;stroke:#b0b0b0;stroke-linecap:square;stroke-width:0.8;"/>
     </g>
     <g id="line2d_50">
      <g>
       <use x="687.500555" xlink:href="#m0b924d189b" y="228.96"/>
      </g>
     </g>
     <g id="text_21">
      <!-- 1.4 -->
      <g transform="translate(675.573212 249.857656)scale(0.15 -0.15)">
       <use xlink:href="#DejaVuSans-49"/>
       <use x="63.623047" xlink:href="#DejaVuSans-46"/>
       <use x="95.410156" xlink:href="#DejaVuSans-52"/>
      </g>
     </g>
    </g>
    <g id="text_22">
     <!-- $s_b/\overline{s_b}$ -->
     <g transform="translate(553.522869 272.617812)scale(0.2 -0.2)">
      <use transform="translate(0 0.25)" xlink:href="#DejaVuSans-Oblique-115"/>
      <use transform="translate(52.099609 -16.15625)scale(0.7)" xlink:href="#DejaVuSans-Oblique-98"/>
      <use transform="translate(99.267578 0.25)" xlink:href="#DejaVuSans-47"/>
      <use transform="translate(132.958984 0.75)" xlink:href="#DejaVuSans-Oblique-115"/>
      <use transform="translate(185.058594 -15.65625)scale(0.7)" xlink:href="#DejaVuSans-Oblique-98"/>
      <path d="M 132.958984 68.5 
L 132.958984 74.75 
L 232.226562 74.75 
L 232.226562 68.5 
L 132.958984 68.5 
z
"/>
     </g>
    </g>
   </g>
   <g id="matplotlib.axis_4">
    <g id="ytick_7">
     <g id="line2d_51">
      <path clip-path="url(#p6aa46489c4)" d="M 424.641051 213.12 
L 729.004687 213.12 
" style="fill:none;stroke:#b0b0b0;stroke-linecap:square;stroke-width:0.8;"/>
     </g>
     <g id="line2d_52">
      <g>
       <use x="424.641051" xlink:href="#m285df85356" y="213.12"/>
      </g>
     </g>
     <g id="text_23">
      <!-- 0.04 -->
      <g transform="translate(381.742614 218.818828)scale(0.15 -0.15)">
       <use xlink:href="#DejaVuSans-48"/>
       <use x="63.623047" xlink:href="#DejaVuSans-46"/>
       <use x="95.410156" xlink:href="#DejaVuSans-48"/>
       <use x="159.033203" xlink:href="#DejaVuSans-52"/>
      </g>
     </g>
    </g>
    <g id="ytick_8">
     <g id="line2d_53">
      <path clip-path="url(#p6aa46489c4)" d="M 424.641051 181.44 
L 729.004687 181.44 
" style="fill:none;stroke:#b0b0b0;stroke-linecap:square;stroke-width:0.8;"/>
     </g>
     <g id="line2d_54">
      <g>
       <use x="424.641051" xlink:href="#m285df85356" y="181.44"/>
      </g>
     </g>
     <g id="text_24">
      <!-- 0.06 -->
      <g transform="translate(381.742614 187.138828)scale(0.15 -0.15)">
       <use xlink:href="#DejaVuSans-48"/>
       <use x="63.623047" xlink:href="#DejaVuSans-46"/>
       <use x="95.410156" xlink:href="#DejaVuSans-48"/>
       <use x="159.033203" xlink:href="#DejaVuSans-54"/>
      </g>
     </g>
    </g>
    <g id="ytick_9">
     <g id="line2d_55">
      <path clip-path="url(#p6aa46489c4)" d="M 424.641051 149.76 
L 729.004687 149.76 
" style="fill:none;stroke:#b0b0b0;stroke-linecap:square;stroke-width:0.8;"/>
     </g>
     <g id="line2d_56">
      <g>
       <use x="424.641051" xlink:href="#m285df85356" y="149.76"/>
      </g>
     </g>
     <g id="text_25">
      <!-- 0.08 -->
      <g transform="translate(381.742614 155.458828)scale(0.15 -0.15)">
       <use xlink:href="#DejaVuSans-48"/>
       <use x="63.623047" xlink:href="#DejaVuSans-46"/>
       <use x="95.410156" xlink:href="#DejaVuSans-48"/>
       <use x="159.033203" xlink:href="#DejaVuSans-56"/>
      </g>
     </g>
    </g>
    <g id="ytick_10">
     <g id="line2d_57">
      <path clip-path="url(#p6aa46489c4)" d="M 424.641051 118.08 
L 729.004687 118.08 
" style="fill:none;stroke:#b0b0b0;stroke-linecap:square;stroke-width:0.8;"/>
     </g>
     <g id="line2d_58">
      <g>
       <use x="424.641051" xlink:href="#m285df85356" y="118.08"/>
      </g>
     </g>
     <g id="text_26">
      <!-- 0.10 -->
      <g transform="translate(381.742614 123.778828)scale(0.15 -0.15)">
       <use xlink:href="#DejaVuSans-48"/>
       <use x="63.623047" xlink:href="#DejaVuSans-46"/>
       <use x="95.410156" xlink:href="#DejaVuSans-49"/>
       <use x="159.033203" xlink:href="#DejaVuSans-48"/>
      </g>
     </g>
    </g>
    <g id="ytick_11">
     <g id="line2d_59">
      <path clip-path="url(#p6aa46489c4)" d="M 424.641051 86.4 
L 729.004687 86.4 
" style="fill:none;stroke:#b0b0b0;stroke-linecap:square;stroke-width:0.8;"/>
     </g>
     <g id="line2d_60">
      <g>
       <use x="424.641051" xlink:href="#m285df85356" y="86.4"/>
      </g>
     </g>
     <g id="text_27">
      <!-- 0.12 -->
      <g transform="translate(381.742614 92.098828)scale(0.15 -0.15)">
       <use xlink:href="#DejaVuSans-48"/>
       <use x="63.623047" xlink:href="#DejaVuSans-46"/>
       <use x="95.410156" xlink:href="#DejaVuSans-49"/>
       <use x="159.033203" xlink:href="#DejaVuSans-50"/>
      </g>
     </g>
    </g>
    <g id="ytick_12">
     <g id="line2d_61">
      <path clip-path="url(#p6aa46489c4)" d="M 424.641051 54.72 
L 729.004687 54.72 
" style="fill:none;stroke:#b0b0b0;stroke-linecap:square;stroke-width:0.8;"/>
     </g>
     <g id="line2d_62">
      <g>
       <use x="424.641051" xlink:href="#m285df85356" y="54.72"/>
      </g>
     </g>
     <g id="text_28">
      <!-- 0.14 -->
      <g transform="translate(381.742614 60.418828)scale(0.15 -0.15)">
       <use xlink:href="#DejaVuSans-48"/>
       <use x="63.623047" xlink:href="#DejaVuSans-46"/>
       <use x="95.410156" xlink:href="#DejaVuSans-49"/>
       <use x="159.033203" xlink:href="#DejaVuSans-52"/>
      </g>
     </g>
    </g>
    <g id="ytick_13">
     <g id="line2d_63">
      <path clip-path="url(#p6aa46489c4)" d="M 424.641051 23.04 
L 729.004687 23.04 
" style="fill:none;stroke:#b0b0b0;stroke-linecap:square;stroke-width:0.8;"/>
     </g>
     <g id="line2d_64">
      <g>
       <use x="424.641051" xlink:href="#m285df85356" y="23.04"/>
      </g>
     </g>
     <g id="text_29">
      <!-- 0.16 -->
      <g transform="translate(381.742614 28.738828)scale(0.15 -0.15)">
       <use xlink:href="#DejaVuSans-48"/>
       <use x="63.623047" xlink:href="#DejaVuSans-46"/>
       <use x="95.410156" xlink:href="#DejaVuSans-49"/>
       <use x="159.033203" xlink:href="#DejaVuSans-54"/>
      </g>
     </g>
    </g>
    <g id="text_30">
     <!-- $C_V^2(\Delta)$ -->
     <defs>
      <path d="M 69.484375 67.28125 
L 67.484375 56.890625 
Q 62.796875 61.625 57.546875 63.921875 
Q 52.296875 66.21875 46.1875 66.21875 
Q 37.84375 66.21875 31.515625 62.203125 
Q 25.203125 58.203125 20.609375 50 
Q 17.671875 44.734375 16.125 38.84375 
Q 14.59375 32.953125 14.59375 27 
Q 14.59375 17.046875 19.75 11.8125 
Q 24.90625 6.59375 34.71875 6.59375 
Q 41.5 6.59375 47.75 8.765625 
Q 54 10.9375 59.90625 15.28125 
L 57.625 3.609375 
Q 51.8125 1.125 45.875 -0.140625 
Q 39.9375 -1.421875 33.984375 -1.421875 
Q 19.96875 -1.421875 12.078125 6.1875 
Q 4.203125 13.8125 4.203125 27.390625 
Q 4.203125 36.078125 7.203125 44.46875 
Q 10.203125 52.875 15.828125 59.8125 
Q 21.78125 67.1875 29.421875 70.703125 
Q 37.0625 74.21875 47.21875 74.21875 
Q 53.46875 74.21875 59.0625 72.484375 
Q 64.65625 70.75 69.484375 67.28125 
z
" id="DejaVuSans-Oblique-67"/>
      <path d="M 20.609375 0 
L 7.8125 72.90625 
L 17.484375 72.90625 
L 28.078125 10.203125 
L 63.484375 72.90625 
L 74.21875 72.90625 
L 32.078125 0 
z
" id="DejaVuSans-Oblique-86"/>
      <path d="M 31 75.875 
Q 24.46875 64.65625 21.28125 53.65625 
Q 18.109375 42.671875 18.109375 31.390625 
Q 18.109375 20.125 21.3125 9.0625 
Q 24.515625 -2 31 -13.1875 
L 23.1875 -13.1875 
Q 15.875 -1.703125 12.234375 9.375 
Q 8.59375 20.453125 8.59375 31.390625 
Q 8.59375 42.28125 12.203125 53.3125 
Q 15.828125 64.359375 23.1875 75.875 
z
" id="DejaVuSans-40"/>
      <path d="M 8.015625 75.875 
L 15.828125 75.875 
Q 23.140625 64.359375 26.78125 53.3125 
Q 30.421875 42.28125 30.421875 31.390625 
Q 30.421875 20.453125 26.78125 9.375 
Q 23.140625 -1.703125 15.828125 -13.1875 
L 8.015625 -13.1875 
Q 14.5 -2 17.703125 9.0625 
Q 20.90625 20.125 20.90625 31.390625 
Q 20.90625 42.671875 17.703125 53.65625 
Q 14.5 64.65625 8.015625 75.875 
z
" id="DejaVuSans-41"/>
     </defs>
     <g transform="translate(373.542614 138.405)rotate(-90)scale(0.15 -0.15)">
      <use transform="translate(0 0.765625)" xlink:href="#DejaVuSans-Oblique-67"/>
      <use transform="translate(77.02474 39.046875)scale(0.7)" xlink:href="#DejaVuSans-50"/>
      <use transform="translate(69.824219 -26.578125)scale(0.7)" xlink:href="#DejaVuSans-Oblique-86"/>
      <use transform="translate(124.295247 0.765625)" xlink:href="#DejaVuSans-40"/>
      <use transform="translate(163.308919 0.765625)" xlink:href="#DejaVuSans-916"/>
      <use transform="translate(231.717122 0.765625)" xlink:href="#DejaVuSans-41"/>
     </g>
    </g>
   </g>
   <g id="LineCollection_7">
    <path clip-path="url(#p6aa46489c4)" d="M 511.570605 126.08458 
L 512.565264 126.08458 
" style="fill:none;stroke:#000000;stroke-width:3;"/>
    <path clip-path="url(#p6aa46489c4)" d="M 547.750992 127.447324 
L 548.176567 127.447324 
" style="fill:none;stroke:#000000;stroke-width:3;"/>
    <path clip-path="url(#p6aa46489c4)" d="M 573.237818 124.165865 
L 573.640604 124.165865 
" style="fill:none;stroke:#000000;stroke-width:3;"/>
    <path clip-path="url(#p6aa46489c4)" d="M 600.396966 118.933889 
L 600.878661 118.933889 
" style="fill:none;stroke:#000000;stroke-width:3;"/>
    <path clip-path="url(#p6aa46489c4)" d="M 649.200966 108.614553 
L 650.797935 108.614553 
" style="fill:none;stroke:#000000;stroke-width:3;"/>
   </g>
   <g id="LineCollection_8">
    <path clip-path="url(#p6aa46489c4)" d="M 512.067935 134.550685 
L 512.067935 117.618475 
" style="fill:none;stroke:#000000;stroke-width:3;"/>
    <path clip-path="url(#p6aa46489c4)" d="M 547.96378 135.83439 
L 547.96378 119.060259 
" style="fill:none;stroke:#000000;stroke-width:3;"/>
    <path clip-path="url(#p6aa46489c4)" d="M 573.439211 132.759966 
L 573.439211 115.571764 
" style="fill:none;stroke:#000000;stroke-width:3;"/>
    <path clip-path="url(#p6aa46489c4)" d="M 600.637813 127.873823 
L 600.637813 109.993956 
" style="fill:none;stroke:#000000;stroke-width:3;"/>
    <path clip-path="url(#p6aa46489c4)" d="M 649.99945 118.22801 
L 649.99945 99.001097 
" style="fill:none;stroke:#000000;stroke-width:3;"/>
   </g>
   <g id="LineCollection_9">
    <path clip-path="url(#p6aa46489c4)" d="M 530.423191 185.44698 
L 531.290249 185.44698 
" style="fill:none;stroke:#ff0000;stroke-width:3;"/>
    <path clip-path="url(#p6aa46489c4)" d="M 557.949497 181.856672 
L 558.289181 181.856672 
" style="fill:none;stroke:#ff0000;stroke-width:3;"/>
    <path clip-path="url(#p6aa46489c4)" d="M 575.641255 177.539565 
L 575.940302 177.539565 
" style="fill:none;stroke:#ff0000;stroke-width:3;"/>
    <path clip-path="url(#p6aa46489c4)" d="M 593.690536 170.198834 
L 594.054524 170.198834 
" style="fill:none;stroke:#ff0000;stroke-width:3;"/>
    <path clip-path="url(#p6aa46489c4)" d="M 624.94576 170.934134 
L 626.033893 170.934134 
" style="fill:none;stroke:#ff0000;stroke-width:3;"/>
   </g>
   <g id="LineCollection_10">
    <path clip-path="url(#p6aa46489c4)" d="M 530.85672 190.791208 
L 530.85672 180.102752 
" style="fill:none;stroke:#ff0000;stroke-width:3;"/>
    <path clip-path="url(#p6aa46489c4)" d="M 558.119339 187.443336 
L 558.119339 176.270008 
" style="fill:none;stroke:#ff0000;stroke-width:3;"/>
    <path clip-path="url(#p6aa46489c4)" d="M 575.790779 183.423816 
L 575.790779 171.655314 
" style="fill:none;stroke:#ff0000;stroke-width:3;"/>
    <path clip-path="url(#p6aa46489c4)" d="M 593.87253 176.564616 
L 593.87253 163.833052 
" style="fill:none;stroke:#ff0000;stroke-width:3;"/>
    <path clip-path="url(#p6aa46489c4)" d="M 625.489827 177.249212 
L 625.489827 164.619056 
" style="fill:none;stroke:#ff0000;stroke-width:3;"/>
   </g>
   <g id="LineCollection_11">
    <path clip-path="url(#p6aa46489c4)" d="M 487.07518 23.620167 
L 488.256734 23.620167 
" style="fill:none;stroke:#008000;stroke-width:3;"/>
    <path clip-path="url(#p6aa46489c4)" d="M 534.299678 36.252221 
L 534.878648 36.252221 
" style="fill:none;stroke:#008000;stroke-width:3;"/>
    <path clip-path="url(#p6aa46489c4)" d="M 568.572778 53.581932 
L 569.113094 53.581932 
" style="fill:none;stroke:#008000;stroke-width:3;"/>
    <path clip-path="url(#p6aa46489c4)" d="M 607.159712 70.368201 
L 607.891596 70.368201 
" style="fill:none;stroke:#008000;stroke-width:3;"/>
    <path clip-path="url(#p6aa46489c4)" d="M 684.033677 64.933507 
L 686.775181 64.933507 
" style="fill:none;stroke:#008000;stroke-width:3;"/>
   </g>
   <g id="LineCollection_12">
    <path clip-path="url(#p6aa46489c4)" d="M 487.665957 39.140462 
L 487.665957 8.099873 
" style="fill:none;stroke:#008000;stroke-width:3;"/>
    <path clip-path="url(#p6aa46489c4)" d="M 534.589163 50.874211 
L 534.589163 21.630232 
" style="fill:none;stroke:#008000;stroke-width:3;"/>
    <path clip-path="url(#p6aa46489c4)" d="M 568.842936 66.95732 
L 568.842936 40.206544 
" style="fill:none;stroke:#008000;stroke-width:3;"/>
    <path clip-path="url(#p6aa46489c4)" d="M 607.525654 82.571713 
L 607.525654 58.164689 
" style="fill:none;stroke:#008000;stroke-width:3;"/>
    <path clip-path="url(#p6aa46489c4)" d="M 685.404429 77.515477 
L 685.404429 52.351537 
" style="fill:none;stroke:#008000;stroke-width:3;"/>
   </g>
   <g id="line2d_65">
    <g clip-path="url(#p6aa46489c4)">
     <use style="stroke:#000000;" x="511.570605" xlink:href="#m97e08334e1" y="126.08458"/>
     <use style="stroke:#000000;" x="547.750992" xlink:href="#m97e08334e1" y="127.447324"/>
     <use style="stroke:#000000;" x="573.237818" xlink:href="#m97e08334e1" y="124.165865"/>
     <use style="stroke:#000000;" x="600.396966" xlink:href="#m97e08334e1" y="118.933889"/>
     <use style="stroke:#000000;" x="649.200966" xlink:href="#m97e08334e1" y="108.614553"/>
    </g>
   </g>
   <g id="line2d_66">
    <g clip-path="url(#p6aa46489c4)">
     <use style="stroke:#000000;" x="512.565264" xlink:href="#m97e08334e1" y="126.08458"/>
     <use style="stroke:#000000;" x="548.176567" xlink:href="#m97e08334e1" y="127.447324"/>
     <use style="stroke:#000000;" x="573.640604" xlink:href="#m97e08334e1" y="124.165865"/>
     <use style="stroke:#000000;" x="600.878661" xlink:href="#m97e08334e1" y="118.933889"/>
     <use style="stroke:#000000;" x="650.797935" xlink:href="#m97e08334e1" y="108.614553"/>
    </g>
   </g>
   <g id="line2d_67">
    <g clip-path="url(#p6aa46489c4)">
     <use style="stroke:#000000;" x="512.067935" xlink:href="#mc904717115" y="134.550685"/>
     <use style="stroke:#000000;" x="547.96378" xlink:href="#mc904717115" y="135.83439"/>
     <use style="stroke:#000000;" x="573.439211" xlink:href="#mc904717115" y="132.759966"/>
     <use style="stroke:#000000;" x="600.637813" xlink:href="#mc904717115" y="127.873823"/>
     <use style="stroke:#000000;" x="649.99945" xlink:href="#mc904717115" y="118.22801"/>
    </g>
   </g>
   <g id="line2d_68">
    <g clip-path="url(#p6aa46489c4)">
     <use style="stroke:#000000;" x="512.067935" xlink:href="#mc904717115" y="117.618475"/>
     <use style="stroke:#000000;" x="547.96378" xlink:href="#mc904717115" y="119.060259"/>
     <use style="stroke:#000000;" x="573.439211" xlink:href="#mc904717115" y="115.571764"/>
     <use style="stroke:#000000;" x="600.637813" xlink:href="#mc904717115" y="109.993956"/>
     <use style="stroke:#000000;" x="649.99945" xlink:href="#mc904717115" y="99.001097"/>
    </g>
   </g>
   <g id="line2d_69">
    <g clip-path="url(#p6aa46489c4)">
     <use style="fill:#ff0000;stroke:#ff0000;" x="530.423191" xlink:href="#m25b4de7129" y="185.44698"/>
     <use style="fill:#ff0000;stroke:#ff0000;" x="557.949497" xlink:href="#m25b4de7129" y="181.856672"/>
     <use style="fill:#ff0000;stroke:#ff0000;" x="575.641255" xlink:href="#m25b4de7129" y="177.539565"/>
     <use style="fill:#ff0000;stroke:#ff0000;" x="593.690536" xlink:href="#m25b4de7129" y="170.198834"/>
     <use style="fill:#ff0000;stroke:#ff0000;" x="624.94576" xlink:href="#m25b4de7129" y="170.934134"/>
    </g>
   </g>
   <g id="line2d_70">
    <g clip-path="url(#p6aa46489c4)">
     <use style="fill:#ff0000;stroke:#ff0000;" x="531.290249" xlink:href="#m25b4de7129" y="185.44698"/>
     <use style="fill:#ff0000;stroke:#ff0000;" x="558.289181" xlink:href="#m25b4de7129" y="181.856672"/>
     <use style="fill:#ff0000;stroke:#ff0000;" x="575.940302" xlink:href="#m25b4de7129" y="177.539565"/>
     <use style="fill:#ff0000;stroke:#ff0000;" x="594.054524" xlink:href="#m25b4de7129" y="170.198834"/>
     <use style="fill:#ff0000;stroke:#ff0000;" x="626.033893" xlink:href="#m25b4de7129" y="170.934134"/>
    </g>
   </g>
   <g id="line2d_71">
    <g clip-path="url(#p6aa46489c4)">
     <use style="fill:#ff0000;stroke:#ff0000;" x="530.85672" xlink:href="#mf521633fa9" y="190.791208"/>
     <use style="fill:#ff0000;stroke:#ff0000;" x="558.119339" xlink:href="#mf521633fa9" y="187.443336"/>
     <use style="fill:#ff0000;stroke:#ff0000;" x="575.790779" xlink:href="#mf521633fa9" y="183.423816"/>
     <use style="fill:#ff0000;stroke:#ff0000;" x="593.87253" xlink:href="#mf521633fa9" y="176.564616"/>
     <use style="fill:#ff0000;stroke:#ff0000;" x="625.489827" xlink:href="#mf521633fa9" y="177.249212"/>
    </g>
   </g>
   <g id="line2d_72">
    <g clip-path="url(#p6aa46489c4)">
     <use style="fill:#ff0000;stroke:#ff0000;" x="530.85672" xlink:href="#mf521633fa9" y="180.102752"/>
     <use style="fill:#ff0000;stroke:#ff0000;" x="558.119339" xlink:href="#mf521633fa9" y="176.270008"/>
     <use style="fill:#ff0000;stroke:#ff0000;" x="575.790779" xlink:href="#mf521633fa9" y="171.655314"/>
     <use style="fill:#ff0000;stroke:#ff0000;" x="593.87253" xlink:href="#mf521633fa9" y="163.833052"/>
     <use style="fill:#ff0000;stroke:#ff0000;" x="625.489827" xlink:href="#mf521633fa9" y="164.619056"/>
    </g>
   </g>
   <g id="line2d_73">
    <g clip-path="url(#p6aa46489c4)">
     <use style="fill:#008000;stroke:#008000;" x="487.07518" xlink:href="#m1076df3518" y="23.620167"/>
     <use style="fill:#008000;stroke:#008000;" x="534.299678" xlink:href="#m1076df3518" y="36.252221"/>
     <use style="fill:#008000;stroke:#008000;" x="568.572778" xlink:href="#m1076df3518" y="53.581932"/>
     <use style="fill:#008000;stroke:#008000;" x="607.159712" xlink:href="#m1076df3518" y="70.368201"/>
     <use style="fill:#008000;stroke:#008000;" x="684.033677" xlink:href="#m1076df3518" y="64.933507"/>
    </g>
   </g>
   <g id="line2d_74">
    <g clip-path="url(#p6aa46489c4)">
     <use style="fill:#008000;stroke:#008000;" x="488.256734" xlink:href="#m1076df3518" y="23.620167"/>
     <use style="fill:#008000;stroke:#008000;" x="534.878648" xlink:href="#m1076df3518" y="36.252221"/>
     <use style="fill:#008000;stroke:#008000;" x="569.113094" xlink:href="#m1076df3518" y="53.581932"/>
     <use style="fill:#008000;stroke:#008000;" x="607.891596" xlink:href="#m1076df3518" y="70.368201"/>
     <use style="fill:#008000;stroke:#008000;" x="686.775181" xlink:href="#m1076df3518" y="64.933507"/>
    </g>
   </g>
   <g id="line2d_75">
    <g clip-path="url(#p6aa46489c4)">
     <use style="fill:#008000;stroke:#008000;" x="487.665957" xlink:href="#mcd914a4e8d" y="39.140462"/>
     <use style="fill:#008000;stroke:#008000;" x="534.589163" xlink:href="#mcd914a4e8d" y="50.874211"/>
     <use style="fill:#008000;stroke:#008000;" x="568.842936" xlink:href="#mcd914a4e8d" y="66.95732"/>
     <use style="fill:#008000;stroke:#008000;" x="607.525654" xlink:href="#mcd914a4e8d" y="82.571713"/>
     <use style="fill:#008000;stroke:#008000;" x="685.404429" xlink:href="#mcd914a4e8d" y="77.515477"/>
    </g>
   </g>
   <g id="line2d_76">
    <g clip-path="url(#p6aa46489c4)">
     <use style="fill:#008000;stroke:#008000;" x="487.665957" xlink:href="#mcd914a4e8d" y="8.099873"/>
     <use style="fill:#008000;stroke:#008000;" x="534.589163" xlink:href="#mcd914a4e8d" y="21.630232"/>
     <use style="fill:#008000;stroke:#008000;" x="568.842936" xlink:href="#mcd914a4e8d" y="40.206544"/>
     <use style="fill:#008000;stroke:#008000;" x="607.525654" xlink:href="#mcd914a4e8d" y="58.164689"/>
     <use style="fill:#008000;stroke:#008000;" x="685.404429" xlink:href="#mcd914a4e8d" y="52.351537"/>
    </g>
   </g>
   <g id="line2d_77">
    <path clip-path="url(#p6aa46489c4)" d="M 438.475762 33.623974 
L 441.270653 34.377801 
L 444.065544 35.11204 
L 446.860435 35.827551 
L 449.655326 36.525137 
L 452.450217 37.205556 
L 455.245108 37.869522 
L 458.039999 38.517706 
L 460.83489 39.150741 
L 463.629781 39.769224 
L 466.424672 40.373721 
L 469.219564 40.964766 
L 472.014455 41.542864 
L 474.809346 42.108495 
L 477.604237 42.662114 
L 480.399128 43.204151 
L 483.194019 43.735017 
L 485.98891 44.255101 
L 488.783801 44.764773 
L 491.578692 45.264386 
L 494.373583 45.754276 
L 497.168474 46.234764 
L 499.963365 46.706155 
L 502.758256 47.16874 
L 505.553147 47.622799 
L 508.348038 48.068597 
L 511.142929 48.506389 
L 513.93782 48.93642 
L 516.732712 49.358922 
L 519.527603 49.774118 
L 522.322494 50.182223 
L 525.117385 50.583443 
L 527.912276 50.977974 
L 530.707167 51.366006 
L 533.502058 51.747721 
L 536.296949 52.123292 
L 539.09184 52.492888 
L 541.886731 52.856671 
L 544.681622 53.214795 
L 547.476513 53.56741 
L 550.271404 53.914661 
L 553.066295 54.256685 
L 555.861186 54.593617 
L 558.656077 54.925585 
L 561.450968 55.252714 
L 564.24586 55.575124 
L 567.040751 55.89293 
L 569.835642 56.206244 
L 572.630533 56.515175 
L 575.425424 56.819827 
L 578.220315 57.1203 
L 581.015206 57.416693 
L 583.810097 57.709099 
L 586.604988 57.997609 
L 589.399879 58.282314 
L 592.19477 58.563296 
L 594.989661 58.840641 
L 597.784552 59.114428 
L 600.579443 59.384734 
L 603.374334 59.651636 
L 606.169225 59.915205 
L 608.964117 60.175515 
L 611.759008 60.432632 
L 614.553899 60.686624 
L 617.34879 60.937555 
L 620.143681 61.185489 
L 622.938572 61.430487 
L 625.733463 61.672608 
L 628.528354 61.911909 
L 631.323245 62.148448 
L 634.118136 62.382277 
L 636.913027 62.613451 
L 639.707918 62.842021 
L 642.502809 63.068036 
L 645.2977 63.291546 
L 648.092591 63.512598 
L 650.887482 63.731239 
L 653.682373 63.947513 
L 656.477265 64.161464 
L 659.272156 64.373135 
L 662.067047 64.582567 
L 664.861938 64.789802 
L 667.656829 64.994877 
L 670.45172 65.197833 
L 673.246611 65.398706 
L 676.041502 65.597533 
L 678.836393 65.794349 
L 681.631284 65.98919 
L 684.426175 66.18209 
L 687.221066 66.373081 
L 690.015957 66.562195 
L 692.810848 66.749466 
L 695.605739 66.934923 
L 698.40063 67.118596 
L 701.195521 67.300515 
L 703.990413 67.480709 
L 706.785304 67.659205 
L 709.580195 67.836032 
L 712.375086 68.011215 
L 715.169977 68.184782 
" style="fill:none;stroke:#008000;stroke-linecap:square;stroke-width:2;"/>
   </g>
   <g id="line2d_78">
    <path clip-path="url(#p6aa46489c4)" d="M 438.475762 119.732453 
L 441.270653 119.747799 
L 444.065544 119.763151 
L 446.860435 119.778509 
L 449.655326 119.793873 
L 452.450217 119.809242 
L 455.245108 119.824617 
L 458.039999 119.839997 
L 460.83489 119.855383 
L 463.629781 119.870775 
L 466.424672 119.886173 
L 469.219564 119.901576 
L 472.014455 119.916985 
L 474.809346 119.9324 
L 477.604237 119.94782 
L 480.399128 119.963247 
L 483.194019 119.978678 
L 485.98891 119.994116 
L 488.783801 120.009559 
L 491.578692 120.025008 
L 494.373583 120.040463 
L 497.168474 120.055923 
L 499.963365 120.071389 
L 502.758256 120.086861 
L 505.553147 120.102339 
L 508.348038 120.117822 
L 511.142929 120.133311 
L 513.93782 120.148805 
L 516.732712 120.164306 
L 519.527603 120.179812 
L 522.322494 120.195323 
L 525.117385 120.210841 
L 527.912276 120.226364 
L 530.707167 120.241893 
L 533.502058 120.257427 
L 536.296949 120.272968 
L 539.09184 120.288514 
L 541.886731 120.304065 
L 544.681622 120.319623 
L 547.476513 120.335186 
L 550.271404 120.350755 
L 553.066295 120.366329 
L 555.861186 120.381909 
L 558.656077 120.397495 
L 561.450968 120.413087 
L 564.24586 120.428684 
L 567.040751 120.444287 
L 569.835642 120.459896 
L 572.630533 120.475511 
L 575.425424 120.491131 
L 578.220315 120.506757 
L 581.015206 120.522388 
L 583.810097 120.538026 
L 586.604988 120.553669 
L 589.399879 120.569317 
L 592.19477 120.584972 
L 594.989661 120.600632 
L 597.784552 120.616298 
L 600.579443 120.631969 
L 603.374334 120.647647 
L 606.169225 120.66333 
L 608.964117 120.679018 
L 611.759008 120.694713 
L 614.553899 120.710413 
L 617.34879 120.726119 
L 620.143681 120.74183 
L 622.938572 120.757548 
L 625.733463 120.773271 
L 628.528354 120.788999 
L 631.323245 120.804734 
L 634.118136 120.820474 
L 636.913027 120.83622 
L 639.707918 120.851971 
L 642.502809 120.867728 
L 645.2977 120.883491 
L 648.092591 120.89926 
L 650.887482 120.915034 
L 653.682373 120.930815 
L 656.477265 120.9466 
L 659.272156 120.962392 
L 662.067047 120.978189 
L 664.861938 120.993992 
L 667.656829 121.009801 
L 670.45172 121.025615 
L 673.246611 121.041435 
L 676.041502 121.057261 
L 678.836393 121.073093 
L 681.631284 121.08893 
L 684.426175 121.104773 
L 687.221066 121.120622 
L 690.015957 121.136476 
L 692.810848 121.152336 
L 695.605739 121.168202 
L 698.40063 121.184074 
L 701.195521 121.199951 
L 703.990413 121.215834 
L 706.785304 121.231723 
L 709.580195 121.247617 
L 712.375086 121.263517 
L 715.169977 121.279423 
" style="fill:none;stroke:#000000;stroke-linecap:square;stroke-width:2;"/>
   </g>
   <g id="line2d_79">
    <path clip-path="url(#p6aa46489c4)" d="M 438.475762 212.209181 
L 441.270653 211.70622 
L 444.065544 211.204131 
L 446.860435 210.702968 
L 449.655326 210.202785 
L 452.450217 209.703636 
L 455.245108 209.205573 
L 458.039999 208.708647 
L 460.83489 208.212908 
L 463.629781 207.718407 
L 466.424672 207.225192 
L 469.219564 206.733309 
L 472.014455 206.242806 
L 474.809346 205.753729 
L 477.604237 205.266121 
L 480.399128 204.780026 
L 483.194019 204.295488 
L 485.98891 203.812546 
L 488.783801 203.331244 
L 491.578692 202.851619 
L 494.373583 202.37371 
L 497.168474 201.897556 
L 499.963365 201.423192 
L 502.758256 200.950655 
L 505.553147 200.479979 
L 508.348038 200.011198 
L 511.142929 199.544345 
L 513.93782 199.079452 
L 516.732712 198.616549 
L 519.527603 198.155667 
L 522.322494 197.696834 
L 525.117385 197.240079 
L 527.912276 196.785429 
L 530.707167 196.33291 
L 533.502058 195.882547 
L 536.296949 195.434365 
L 539.09184 194.988388 
L 541.886731 194.544638 
L 544.681622 194.103137 
L 547.476513 193.663905 
L 550.271404 193.226964 
L 553.066295 192.792333 
L 555.861186 192.360029 
L 558.656077 191.930072 
L 561.450968 191.502477 
L 564.24586 191.077261 
L 567.040751 190.654439 
L 569.835642 190.234025 
L 572.630533 189.816035 
L 575.425424 189.40048 
L 578.220315 188.987374 
L 581.015206 188.576727 
L 583.810097 188.168551 
L 586.604988 187.762857 
L 589.399879 187.359654 
L 592.19477 186.958951 
L 594.989661 186.560756 
L 597.784552 186.165078 
L 600.579443 185.771922 
L 603.374334 185.381297 
L 606.169225 184.993207 
L 608.964117 184.607659 
L 611.759008 184.224657 
L 614.553899 183.844204 
L 617.34879 183.466306 
L 620.143681 183.090965 
L 622.938572 182.718183 
L 625.733463 182.347964 
L 628.528354 181.980308 
L 631.323245 181.615217 
L 634.118136 181.252691 
L 636.913027 180.892731 
L 639.707918 180.535337 
L 642.502809 180.180508 
L 645.2977 179.828243 
L 648.092591 179.47854 
L 650.887482 179.131398 
L 653.682373 178.786815 
L 656.477265 178.444787 
L 659.272156 178.105312 
L 662.067047 177.768387 
L 664.861938 177.434008 
L 667.656829 177.10217 
L 670.45172 176.772871 
L 673.246611 176.446104 
L 676.041502 176.121865 
L 678.836393 175.800149 
L 681.631284 175.48095 
L 684.426175 175.164262 
L 687.221066 174.85008 
L 690.015957 174.538397 
L 692.810848 174.229206 
L 695.605739 173.9225 
L 698.40063 173.618273 
L 701.195521 173.316518 
L 703.990413 173.017226 
L 706.785304 172.72039 
L 709.580195 172.426002 
L 712.375086 172.134054 
L 715.169977 171.844537 
" style="fill:none;stroke:#ff0000;stroke-linecap:square;stroke-width:2;"/>
   </g>
   <g id="line2d_80">
    <g clip-path="url(#p6aa46489c4)">
     <use style="stroke:#000000;" x="512.067935" xlink:href="#md22e7490b3" y="126.08458"/>
     <use style="stroke:#000000;" x="547.96378" xlink:href="#md22e7490b3" y="127.447324"/>
     <use style="stroke:#000000;" x="573.439211" xlink:href="#md22e7490b3" y="124.165865"/>
     <use style="stroke:#000000;" x="600.637813" xlink:href="#md22e7490b3" y="118.933889"/>
     <use style="stroke:#000000;" x="649.99945" xlink:href="#md22e7490b3" y="108.614553"/>
    </g>
   </g>
   <g id="line2d_81">
    <g clip-path="url(#p6aa46489c4)">
     <use style="fill:#ff0000;stroke:#000000;" x="530.85672" xlink:href="#m560f3eafe1" y="185.44698"/>
     <use style="fill:#ff0000;stroke:#000000;" x="558.119339" xlink:href="#m560f3eafe1" y="181.856672"/>
     <use style="fill:#ff0000;stroke:#000000;" x="575.790779" xlink:href="#m560f3eafe1" y="177.539565"/>
     <use style="fill:#ff0000;stroke:#000000;" x="593.87253" xlink:href="#m560f3eafe1" y="170.198834"/>
     <use style="fill:#ff0000;stroke:#000000;" x="625.489827" xlink:href="#m560f3eafe1" y="170.934134"/>
    </g>
   </g>
   <g id="line2d_82">
    <g clip-path="url(#p6aa46489c4)">
     <use style="fill:#008000;stroke:#000000;" x="487.665957" xlink:href="#m3760e6ae1e" y="23.620167"/>
     <use style="fill:#008000;stroke:#000000;" x="534.589163" xlink:href="#m3760e6ae1e" y="36.252221"/>
     <use style="fill:#008000;stroke:#000000;" x="568.842936" xlink:href="#m3760e6ae1e" y="53.581932"/>
     <use style="fill:#008000;stroke:#000000;" x="607.525654" xlink:href="#m3760e6ae1e" y="70.368201"/>
     <use style="fill:#008000;stroke:#000000;" x="685.404429" xlink:href="#m3760e6ae1e" y="64.933507"/>
    </g>
   </g>
   <g id="patch_8">
    <path d="M 424.641051 228.96 
L 424.641051 7.2 
" style="fill:none;stroke:#000000;stroke-linecap:square;stroke-linejoin:miter;stroke-width:2;"/>
   </g>
   <g id="patch_9">
    <path d="M 729.004687 228.96 
L 729.004687 7.2 
" style="fill:none;"/>
   </g>
   <g id="patch_10">
    <path d="M 424.641051 228.96 
L 729.004687 228.96 
" style="fill:none;stroke:#000000;stroke-linecap:square;stroke-linejoin:miter;stroke-width:2;"/>
   </g>
   <g id="patch_11">
    <path d="M 424.641051 7.2 
L 729.004687 7.2 
" style="fill:none;"/>
   </g>
   <g id="text_31">
    <!-- $\lambda = 2$ -->
    <g transform="translate(440.442382 197.350864)rotate(-15)scale(0.1 -0.1)">
     <use transform="translate(0 0.015625)" xlink:href="#DejaVuSans-Oblique-955"/>
     <use transform="translate(78.662109 0.015625)" xlink:href="#DejaVuSans-61"/>
     <use transform="translate(181.933594 0.015625)" xlink:href="#DejaVuSans-50"/>
    </g>
   </g>
   <g id="text_32">
    <!-- $\lambda = 1$ -->
    <g transform="translate(438.475762 102.24)scale(0.1 -0.1)">
     <use transform="translate(0 0.015625)" xlink:href="#DejaVuSans-Oblique-955"/>
     <use transform="translate(78.662109 0.015625)" xlink:href="#DejaVuSans-61"/>
     <use transform="translate(181.933594 0.015625)" xlink:href="#DejaVuSans-49"/>
    </g>
   </g>
   <g id="text_33">
    <!-- $\lambda = 0.5$ -->
    <g transform="translate(438.836896 25.070192)rotate(-350)scale(0.1 -0.1)">
     <use transform="translate(0 0.015625)" xlink:href="#DejaVuSans-Oblique-955"/>
     <use transform="translate(78.662109 0.015625)" xlink:href="#DejaVuSans-61"/>
     <use transform="translate(181.933594 0.015625)" xlink:href="#DejaVuSans-48"/>
     <use transform="translate(245.556641 0.015625)" xlink:href="#DejaVuSans-46"/>
     <use transform="translate(277.34375 0.015625)" xlink:href="#DejaVuSans-53"/>
    </g>
   </g>
  </g>
 </g>
 <defs>
  <clipPath id="pef7a411f6f">
   <rect height="221.76" width="304.363636" x="59.404688" y="7.2"/>
  </clipPath>
  <clipPath id="p6aa46489c4">
   <rect height="221.76" width="304.363636" x="424.641051" y="7.2"/>
  </clipPath>
 </defs>
</svg>
