<?xml version="1.0" encoding="utf-8" standalone="no"?>
<!DOCTYPE svg PUBLIC "-//W3C//DTD SVG 1.1//EN"
  "http://www.w3.org/Graphics/SVG/1.1/DTD/svg11.dtd">
<!-- Created with matplotlib (http://matplotlib.org/) -->
<svg height="285.213437pt" version="1.1" viewBox="0 0 745.4875 285.213437" width="745.4875pt" xmlns="http://www.w3.org/2000/svg" xmlns:xlink="http://www.w3.org/1999/xlink">
 <defs>
  <style type="text/css">
*{stroke-linecap:butt;stroke-linejoin:round;}
  </style>
 </defs>
 <g id="figure_1">
  <g id="patch_1">
   <path d="M 0 285.213437 
L 745.4875 285.213437 
L 745.4875 0 
L 0 0 
z
" style="fill:#ffffff;"/>
  </g>
  <g id="axes_1">
   <g id="patch_2">
    <path d="M 59.14375 230.64 
L 350.274185 230.64 
L 350.274185 13.2 
L 59.14375 13.2 
z
" style="fill:#ffffff;"/>
   </g>
   <g id="PolyCollection_1">
    <defs>
     <path d="M 59.207395 -91.116104 
L 59.207395 -90.487716 
L 62.577809 -105.22082 
L 65.687081 -119.063611 
L 69.061851 -129.750891 
L 72.412843 -139.301252 
L 75.34925 -148.870293 
L 78.574818 -156.047557 
L 82.00163 -158.970825 
L 85.069333 -158.710987 
L 88.327129 -153.007395 
L 91.616757 -147.227068 
L 94.781959 -145.220326 
L 98.416307 -144.056394 
L 101.328915 -148.68478 
L 104.628962 -152.646336 
L 107.909184 -158.089139 
L 110.944958 -161.065443 
L 114.151122 -159.574337 
L 117.486914 -156.183952 
L 120.760854 -148.821973 
L 123.839877 -144.976981 
L 127.194979 -145.843636 
L 130.327867 -149.828545 
L 133.576705 -153.798991 
L 136.908716 -157.013166 
L 140.051643 -159.64156 
L 143.248529 -159.242731 
L 147.790996 -154.569922 
L 149.845406 -151.336187 
L 153.416539 -146.65416 
L 156.296553 -146.301484 
L 159.663154 -148.507953 
L 162.71855 -151.945128 
L 166.050713 -155.047643 
L 169.194593 -155.951345 
L 172.587525 -155.82294 
L 175.751937 -153.918426 
L 179.014594 -148.734958 
L 182.403219 -145.596653 
L 185.366592 -145.096388 
L 188.62605 -147.852465 
L 191.966327 -152.760589 
L 195.164327 -156.659514 
L 198.276011 -157.768795 
L 201.54686 -158.392908 
L 205.222078 -154.14583 
L 208.119531 -150.005942 
L 211.220855 -146.707773 
L 214.424679 -147.237549 
L 217.700056 -149.506912 
L 221.038645 -153.137815 
L 224.130307 -155.696436 
L 227.463045 -156.210445 
L 230.770191 -156.024994 
L 233.824942 -153.79154 
L 237.091805 -149.608316 
L 240.312488 -146.212317 
L 244.075596 -146.238655 
L 247.213838 -148.920309 
L 250.001465 -152.270085 
L 253.563847 -156.326922 
L 256.595791 -157.096559 
L 259.843616 -155.606747 
L 262.992265 -151.251798 
L 266.316199 -148.909463 
L 269.553232 -145.507382 
L 272.6449 -145.696138 
L 276.133039 -149.563762 
L 279.137119 -153.585053 
L 282.379941 -157.382676 
L 285.580874 -159.060943 
L 288.932853 -158.426934 
L 292.074014 -153.377557 
L 295.836791 -148.80469 
L 298.570276 -147.336452 
L 301.855881 -147.745584 
L 305.322678 -150.820326 
L 308.491037 -152.892489 
L 311.563701 -156.697172 
L 314.696769 -156.433038 
L 318.073164 -155.418734 
L 321.232571 -150.935963 
L 324.460081 -148.184588 
L 327.958427 -145.793755 
L 330.899868 -145.490319 
L 334.111558 -147.770616 
L 337.411555 -150.662805 
L 340.657128 -154.255905 
L 343.913645 -157.031083 
L 347.140615 -155.544715 
L 347.140615 -160.69512 
L 347.140615 -160.69512 
L 343.913645 -161.64335 
L 340.657128 -158.415031 
L 337.411555 -154.510678 
L 334.111558 -151.717528 
L 330.899868 -149.875608 
L 327.958427 -150.651141 
L 324.460081 -153.323165 
L 321.232571 -156.104966 
L 318.073164 -160.240117 
L 314.696769 -160.788935 
L 311.563701 -160.746129 
L 308.491037 -156.735201 
L 305.322678 -154.878808 
L 301.855881 -152.185214 
L 298.570276 -152.207023 
L 295.836791 -154.114023 
L 292.074014 -158.781561 
L 288.932853 -163.553571 
L 285.580874 -163.804871 
L 282.379941 -161.651413 
L 279.137119 -157.439763 
L 276.133039 -153.686941 
L 272.6449 -150.015612 
L 269.553232 -150.356531 
L 266.316199 -154.092248 
L 262.992265 -156.314783 
L 259.843616 -160.646921 
L 256.595791 -161.619373 
L 253.563847 -160.327901 
L 250.001465 -155.946644 
L 247.213838 -152.836437 
L 244.075596 -150.482901 
L 240.312488 -150.951893 
L 237.091805 -154.928851 
L 233.824942 -159.017726 
L 230.770191 -161.086317 
L 227.463045 -160.804035 
L 224.130307 -159.685757 
L 221.038645 -157.001693 
L 217.700056 -153.550131 
L 214.424679 -151.904771 
L 211.220855 -151.770566 
L 208.119531 -155.444199 
L 205.222078 -159.521078 
L 201.54686 -163.476934 
L 198.276011 -162.219767 
L 195.164327 -160.756121 
L 191.966327 -156.369114 
L 188.62605 -151.677177 
L 185.366592 -149.398064 
L 182.403219 -150.613083 
L 179.014594 -154.211421 
L 175.751937 -159.278162 
L 172.587525 -160.804218 
L 169.194593 -160.495984 
L 166.050713 -158.92359 
L 162.71855 -155.593787 
L 159.663154 -152.183657 
L 156.296553 -150.586066 
L 153.416539 -151.561353 
L 149.845406 -156.811378 
L 147.790996 -160.10679 
L 143.248529 -164.453059 
L 140.051643 -164.040398 
L 136.908716 -161.052617 
L 133.576705 -157.516317 
L 130.327867 -153.629653 
L 127.194979 -149.937279 
L 123.839877 -149.6558 
L 120.760854 -154.09674 
L 117.486914 -161.68817 
L 114.151122 -164.730103 
L 110.944958 -165.521432 
L 107.909184 -162.051586 
L 104.628962 -156.289707 
L 101.328915 -152.47715 
L 98.416307 -148.10029 
L 94.781959 -149.95194 
L 91.616757 -152.399404 
L 88.327129 -158.39091 
L 85.069333 -163.69834 
L 82.00163 -163.258674 
L 78.574818 -159.763457 
L 75.34925 -152.056477 
L 72.412843 -142.287066 
L 69.061851 -132.471309 
L 65.687081 -121.440872 
L 62.577809 -107.147461 
L 59.207395 -91.116104 
z
" id="m7c4edd60c6"/>
    </defs>
    <g clip-path="url(#p7838a5e6d0)">
     <use style="fill:#ff3333;" x="0" xlink:href="#m7c4edd60c6" y="285.213437"/>
    </g>
   </g>
   <g id="matplotlib.axis_1">
    <g id="xtick_1">
     <g id="line2d_1">
      <path clip-path="url(#p7838a5e6d0)" d="M 59.14375 230.64 
L 59.14375 13.2 
" style="fill:none;stroke:#b0b0b0;stroke-linecap:square;stroke-width:0.8;"/>
     </g>
     <g id="line2d_2">
      <defs>
       <path d="M 0 0 
L 0 6 
" id="mc4aeba9308"/>
      </defs>
      <g>
       <use x="59.14375" xlink:href="#mc4aeba9308" y="230.64"/>
      </g>
     </g>
     <g id="text_1">
      <!-- 0 -->
      <defs>
       <path d="M 31.78125 66.40625 
Q 24.171875 66.40625 20.328125 58.90625 
Q 16.5 51.421875 16.5 36.375 
Q 16.5 21.390625 20.328125 13.890625 
Q 24.171875 6.390625 31.78125 6.390625 
Q 39.453125 6.390625 43.28125 13.890625 
Q 47.125 21.390625 47.125 36.375 
Q 47.125 51.421875 43.28125 58.90625 
Q 39.453125 66.40625 31.78125 66.40625 
z
M 31.78125 74.21875 
Q 44.046875 74.21875 50.515625 64.515625 
Q 56.984375 54.828125 56.984375 36.375 
Q 56.984375 17.96875 50.515625 8.265625 
Q 44.046875 -1.421875 31.78125 -1.421875 
Q 19.53125 -1.421875 13.0625 8.265625 
Q 6.59375 17.96875 6.59375 36.375 
Q 6.59375 54.828125 13.0625 64.515625 
Q 19.53125 74.21875 31.78125 74.21875 
z
" id="DejaVuSans-30"/>
      </defs>
      <g transform="translate(54.371875 251.537656)scale(0.15 -0.15)">
       <use xlink:href="#DejaVuSans-30"/>
      </g>
     </g>
    </g>
    <g id="xtick_2">
     <g id="line2d_3">
      <path clip-path="url(#p7838a5e6d0)" d="M 88.256793 230.64 
L 88.256793 13.2 
" style="fill:none;stroke:#b0b0b0;stroke-linecap:square;stroke-width:0.8;"/>
     </g>
     <g id="line2d_4">
      <g>
       <use x="88.256793" xlink:href="#mc4aeba9308" y="230.64"/>
      </g>
     </g>
     <g id="text_2">
      <!-- 1 -->
      <defs>
       <path d="M 12.40625 8.296875 
L 28.515625 8.296875 
L 28.515625 63.921875 
L 10.984375 60.40625 
L 10.984375 69.390625 
L 28.421875 72.90625 
L 38.28125 72.90625 
L 38.28125 8.296875 
L 54.390625 8.296875 
L 54.390625 0 
L 12.40625 0 
z
" id="DejaVuSans-31"/>
      </defs>
      <g transform="translate(83.484918 251.537656)scale(0.15 -0.15)">
       <use xlink:href="#DejaVuSans-31"/>
      </g>
     </g>
    </g>
    <g id="xtick_3">
     <g id="line2d_5">
      <path clip-path="url(#p7838a5e6d0)" d="M 117.369837 230.64 
L 117.369837 13.2 
" style="fill:none;stroke:#b0b0b0;stroke-linecap:square;stroke-width:0.8;"/>
     </g>
     <g id="line2d_6">
      <g>
       <use x="117.369837" xlink:href="#mc4aeba9308" y="230.64"/>
      </g>
     </g>
     <g id="text_3">
      <!-- 2 -->
      <defs>
       <path d="M 19.1875 8.296875 
L 53.609375 8.296875 
L 53.609375 0 
L 7.328125 0 
L 7.328125 8.296875 
Q 12.9375 14.109375 22.625 23.890625 
Q 32.328125 33.6875 34.8125 36.53125 
Q 39.546875 41.84375 41.421875 45.53125 
Q 43.3125 49.21875 43.3125 52.78125 
Q 43.3125 58.59375 39.234375 62.25 
Q 35.15625 65.921875 28.609375 65.921875 
Q 23.96875 65.921875 18.8125 64.3125 
Q 13.671875 62.703125 7.8125 59.421875 
L 7.8125 69.390625 
Q 13.765625 71.78125 18.9375 73 
Q 24.125 74.21875 28.421875 74.21875 
Q 39.75 74.21875 46.484375 68.546875 
Q 53.21875 62.890625 53.21875 53.421875 
Q 53.21875 48.921875 51.53125 44.890625 
Q 49.859375 40.875 45.40625 35.40625 
Q 44.1875 33.984375 37.640625 27.21875 
Q 31.109375 20.453125 19.1875 8.296875 
z
" id="DejaVuSans-32"/>
      </defs>
      <g transform="translate(112.597962 251.537656)scale(0.15 -0.15)">
       <use xlink:href="#DejaVuSans-32"/>
      </g>
     </g>
    </g>
    <g id="xtick_4">
     <g id="line2d_7">
      <path clip-path="url(#p7838a5e6d0)" d="M 146.48288 230.64 
L 146.48288 13.2 
" style="fill:none;stroke:#b0b0b0;stroke-linecap:square;stroke-width:0.8;"/>
     </g>
     <g id="line2d_8">
      <g>
       <use x="146.48288" xlink:href="#mc4aeba9308" y="230.64"/>
      </g>
     </g>
     <g id="text_4">
      <!-- 3 -->
      <defs>
       <path d="M 40.578125 39.3125 
Q 47.65625 37.796875 51.625 33 
Q 55.609375 28.21875 55.609375 21.1875 
Q 55.609375 10.40625 48.1875 4.484375 
Q 40.765625 -1.421875 27.09375 -1.421875 
Q 22.515625 -1.421875 17.65625 -0.515625 
Q 12.796875 0.390625 7.625 2.203125 
L 7.625 11.71875 
Q 11.71875 9.328125 16.59375 8.109375 
Q 21.484375 6.890625 26.8125 6.890625 
Q 36.078125 6.890625 40.9375 10.546875 
Q 45.796875 14.203125 45.796875 21.1875 
Q 45.796875 27.640625 41.28125 31.265625 
Q 36.765625 34.90625 28.71875 34.90625 
L 20.21875 34.90625 
L 20.21875 43.015625 
L 29.109375 43.015625 
Q 36.375 43.015625 40.234375 45.921875 
Q 44.09375 48.828125 44.09375 54.296875 
Q 44.09375 59.90625 40.109375 62.90625 
Q 36.140625 65.921875 28.71875 65.921875 
Q 24.65625 65.921875 20.015625 65.03125 
Q 15.375 64.15625 9.8125 62.3125 
L 9.8125 71.09375 
Q 15.4375 72.65625 20.34375 73.4375 
Q 25.25 74.21875 29.59375 74.21875 
Q 40.828125 74.21875 47.359375 69.109375 
Q 53.90625 64.015625 53.90625 55.328125 
Q 53.90625 49.265625 50.4375 45.09375 
Q 46.96875 40.921875 40.578125 39.3125 
z
" id="DejaVuSans-33"/>
      </defs>
      <g transform="translate(141.711005 251.537656)scale(0.15 -0.15)">
       <use xlink:href="#DejaVuSans-33"/>
      </g>
     </g>
    </g>
    <g id="xtick_5">
     <g id="line2d_9">
      <path clip-path="url(#p7838a5e6d0)" d="M 175.595924 230.64 
L 175.595924 13.2 
" style="fill:none;stroke:#b0b0b0;stroke-linecap:square;stroke-width:0.8;"/>
     </g>
     <g id="line2d_10">
      <g>
       <use x="175.595924" xlink:href="#mc4aeba9308" y="230.64"/>
      </g>
     </g>
     <g id="text_5">
      <!-- 4 -->
      <defs>
       <path d="M 37.796875 64.3125 
L 12.890625 25.390625 
L 37.796875 25.390625 
z
M 35.203125 72.90625 
L 47.609375 72.90625 
L 47.609375 25.390625 
L 58.015625 25.390625 
L 58.015625 17.1875 
L 47.609375 17.1875 
L 47.609375 0 
L 37.796875 0 
L 37.796875 17.1875 
L 4.890625 17.1875 
L 4.890625 26.703125 
z
" id="DejaVuSans-34"/>
      </defs>
      <g transform="translate(170.824049 251.537656)scale(0.15 -0.15)">
       <use xlink:href="#DejaVuSans-34"/>
      </g>
     </g>
    </g>
    <g id="xtick_6">
     <g id="line2d_11">
      <path clip-path="url(#p7838a5e6d0)" d="M 204.708967 230.64 
L 204.708967 13.2 
" style="fill:none;stroke:#b0b0b0;stroke-linecap:square;stroke-width:0.8;"/>
     </g>
     <g id="line2d_12">
      <g>
       <use x="204.708967" xlink:href="#mc4aeba9308" y="230.64"/>
      </g>
     </g>
     <g id="text_6">
      <!-- 5 -->
      <defs>
       <path d="M 10.796875 72.90625 
L 49.515625 72.90625 
L 49.515625 64.59375 
L 19.828125 64.59375 
L 19.828125 46.734375 
Q 21.96875 47.46875 24.109375 47.828125 
Q 26.265625 48.1875 28.421875 48.1875 
Q 40.625 48.1875 47.75 41.5 
Q 54.890625 34.8125 54.890625 23.390625 
Q 54.890625 11.625 47.5625 5.09375 
Q 40.234375 -1.421875 26.90625 -1.421875 
Q 22.3125 -1.421875 17.546875 -0.640625 
Q 12.796875 0.140625 7.71875 1.703125 
L 7.71875 11.625 
Q 12.109375 9.234375 16.796875 8.0625 
Q 21.484375 6.890625 26.703125 6.890625 
Q 35.15625 6.890625 40.078125 11.328125 
Q 45.015625 15.765625 45.015625 23.390625 
Q 45.015625 31 40.078125 35.4375 
Q 35.15625 39.890625 26.703125 39.890625 
Q 22.75 39.890625 18.8125 39.015625 
Q 14.890625 38.140625 10.796875 36.28125 
z
" id="DejaVuSans-35"/>
      </defs>
      <g transform="translate(199.937092 251.537656)scale(0.15 -0.15)">
       <use xlink:href="#DejaVuSans-35"/>
      </g>
     </g>
    </g>
    <g id="xtick_7">
     <g id="line2d_13">
      <path clip-path="url(#p7838a5e6d0)" d="M 233.822011 230.64 
L 233.822011 13.2 
" style="fill:none;stroke:#b0b0b0;stroke-linecap:square;stroke-width:0.8;"/>
     </g>
     <g id="line2d_14">
      <g>
       <use x="233.822011" xlink:href="#mc4aeba9308" y="230.64"/>
      </g>
     </g>
     <g id="text_7">
      <!-- 6 -->
      <defs>
       <path d="M 33.015625 40.375 
Q 26.375 40.375 22.484375 35.828125 
Q 18.609375 31.296875 18.609375 23.390625 
Q 18.609375 15.53125 22.484375 10.953125 
Q 26.375 6.390625 33.015625 6.390625 
Q 39.65625 6.390625 43.53125 10.953125 
Q 47.40625 15.53125 47.40625 23.390625 
Q 47.40625 31.296875 43.53125 35.828125 
Q 39.65625 40.375 33.015625 40.375 
z
M 52.59375 71.296875 
L 52.59375 62.3125 
Q 48.875 64.0625 45.09375 64.984375 
Q 41.3125 65.921875 37.59375 65.921875 
Q 27.828125 65.921875 22.671875 59.328125 
Q 17.53125 52.734375 16.796875 39.40625 
Q 19.671875 43.65625 24.015625 45.921875 
Q 28.375 48.1875 33.59375 48.1875 
Q 44.578125 48.1875 50.953125 41.515625 
Q 57.328125 34.859375 57.328125 23.390625 
Q 57.328125 12.15625 50.6875 5.359375 
Q 44.046875 -1.421875 33.015625 -1.421875 
Q 20.359375 -1.421875 13.671875 8.265625 
Q 6.984375 17.96875 6.984375 36.375 
Q 6.984375 53.65625 15.1875 63.9375 
Q 23.390625 74.21875 37.203125 74.21875 
Q 40.921875 74.21875 44.703125 73.484375 
Q 48.484375 72.75 52.59375 71.296875 
z
" id="DejaVuSans-36"/>
      </defs>
      <g transform="translate(229.050136 251.537656)scale(0.15 -0.15)">
       <use xlink:href="#DejaVuSans-36"/>
      </g>
     </g>
    </g>
    <g id="xtick_8">
     <g id="line2d_15">
      <path clip-path="url(#p7838a5e6d0)" d="M 262.935054 230.64 
L 262.935054 13.2 
" style="fill:none;stroke:#b0b0b0;stroke-linecap:square;stroke-width:0.8;"/>
     </g>
     <g id="line2d_16">
      <g>
       <use x="262.935054" xlink:href="#mc4aeba9308" y="230.64"/>
      </g>
     </g>
     <g id="text_8">
      <!-- 7 -->
      <defs>
       <path d="M 8.203125 72.90625 
L 55.078125 72.90625 
L 55.078125 68.703125 
L 28.609375 0 
L 18.3125 0 
L 43.21875 64.59375 
L 8.203125 64.59375 
z
" id="DejaVuSans-37"/>
      </defs>
      <g transform="translate(258.163179 251.537656)scale(0.15 -0.15)">
       <use xlink:href="#DejaVuSans-37"/>
      </g>
     </g>
    </g>
    <g id="xtick_9">
     <g id="line2d_17">
      <path clip-path="url(#p7838a5e6d0)" d="M 292.048098 230.64 
L 292.048098 13.2 
" style="fill:none;stroke:#b0b0b0;stroke-linecap:square;stroke-width:0.8;"/>
     </g>
     <g id="line2d_18">
      <g>
       <use x="292.048098" xlink:href="#mc4aeba9308" y="230.64"/>
      </g>
     </g>
     <g id="text_9">
      <!-- 8 -->
      <defs>
       <path d="M 31.78125 34.625 
Q 24.75 34.625 20.71875 30.859375 
Q 16.703125 27.09375 16.703125 20.515625 
Q 16.703125 13.921875 20.71875 10.15625 
Q 24.75 6.390625 31.78125 6.390625 
Q 38.8125 6.390625 42.859375 10.171875 
Q 46.921875 13.96875 46.921875 20.515625 
Q 46.921875 27.09375 42.890625 30.859375 
Q 38.875 34.625 31.78125 34.625 
z
M 21.921875 38.8125 
Q 15.578125 40.375 12.03125 44.71875 
Q 8.5 49.078125 8.5 55.328125 
Q 8.5 64.0625 14.71875 69.140625 
Q 20.953125 74.21875 31.78125 74.21875 
Q 42.671875 74.21875 48.875 69.140625 
Q 55.078125 64.0625 55.078125 55.328125 
Q 55.078125 49.078125 51.53125 44.71875 
Q 48 40.375 41.703125 38.8125 
Q 48.828125 37.15625 52.796875 32.3125 
Q 56.78125 27.484375 56.78125 20.515625 
Q 56.78125 9.90625 50.3125 4.234375 
Q 43.84375 -1.421875 31.78125 -1.421875 
Q 19.734375 -1.421875 13.25 4.234375 
Q 6.78125 9.90625 6.78125 20.515625 
Q 6.78125 27.484375 10.78125 32.3125 
Q 14.796875 37.15625 21.921875 38.8125 
z
M 18.3125 54.390625 
Q 18.3125 48.734375 21.84375 45.5625 
Q 25.390625 42.390625 31.78125 42.390625 
Q 38.140625 42.390625 41.71875 45.5625 
Q 45.3125 48.734375 45.3125 54.390625 
Q 45.3125 60.0625 41.71875 63.234375 
Q 38.140625 66.40625 31.78125 66.40625 
Q 25.390625 66.40625 21.84375 63.234375 
Q 18.3125 60.0625 18.3125 54.390625 
z
" id="DejaVuSans-38"/>
      </defs>
      <g transform="translate(287.276223 251.537656)scale(0.15 -0.15)">
       <use xlink:href="#DejaVuSans-38"/>
      </g>
     </g>
    </g>
    <g id="xtick_10">
     <g id="line2d_19">
      <path clip-path="url(#p7838a5e6d0)" d="M 321.161141 230.64 
L 321.161141 13.2 
" style="fill:none;stroke:#b0b0b0;stroke-linecap:square;stroke-width:0.8;"/>
     </g>
     <g id="line2d_20">
      <g>
       <use x="321.161141" xlink:href="#mc4aeba9308" y="230.64"/>
      </g>
     </g>
     <g id="text_10">
      <!-- 9 -->
      <defs>
       <path d="M 10.984375 1.515625 
L 10.984375 10.5 
Q 14.703125 8.734375 18.5 7.8125 
Q 22.3125 6.890625 25.984375 6.890625 
Q 35.75 6.890625 40.890625 13.453125 
Q 46.046875 20.015625 46.78125 33.40625 
Q 43.953125 29.203125 39.59375 26.953125 
Q 35.25 24.703125 29.984375 24.703125 
Q 19.046875 24.703125 12.671875 31.3125 
Q 6.296875 37.9375 6.296875 49.421875 
Q 6.296875 60.640625 12.9375 67.421875 
Q 19.578125 74.21875 30.609375 74.21875 
Q 43.265625 74.21875 49.921875 64.515625 
Q 56.59375 54.828125 56.59375 36.375 
Q 56.59375 19.140625 48.40625 8.859375 
Q 40.234375 -1.421875 26.421875 -1.421875 
Q 22.703125 -1.421875 18.890625 -0.6875 
Q 15.09375 0.046875 10.984375 1.515625 
z
M 30.609375 32.421875 
Q 37.25 32.421875 41.125 36.953125 
Q 45.015625 41.5 45.015625 49.421875 
Q 45.015625 57.28125 41.125 61.84375 
Q 37.25 66.40625 30.609375 66.40625 
Q 23.96875 66.40625 20.09375 61.84375 
Q 16.21875 57.28125 16.21875 49.421875 
Q 16.21875 41.5 20.09375 36.953125 
Q 23.96875 32.421875 30.609375 32.421875 
z
" id="DejaVuSans-39"/>
      </defs>
      <g transform="translate(316.389266 251.537656)scale(0.15 -0.15)">
       <use xlink:href="#DejaVuSans-39"/>
      </g>
     </g>
    </g>
    <g id="xtick_11">
     <g id="line2d_21">
      <path clip-path="url(#p7838a5e6d0)" d="M 350.274185 230.64 
L 350.274185 13.2 
" style="fill:none;stroke:#b0b0b0;stroke-linecap:square;stroke-width:0.8;"/>
     </g>
     <g id="line2d_22">
      <g>
       <use x="350.274185" xlink:href="#mc4aeba9308" y="230.64"/>
      </g>
     </g>
     <g id="text_11">
      <!-- 10 -->
      <g transform="translate(340.730435 251.537656)scale(0.15 -0.15)">
       <use xlink:href="#DejaVuSans-31"/>
       <use x="63.623047" xlink:href="#DejaVuSans-30"/>
      </g>
     </g>
    </g>
    <g id="text_12">
     <!-- $t/\tau$ -->
     <defs>
      <path d="M 42.28125 54.6875 
L 40.921875 47.703125 
L 23 47.703125 
L 17.1875 18.015625 
Q 16.890625 16.359375 16.75 15.234375 
Q 16.609375 14.109375 16.609375 13.484375 
Q 16.609375 10.359375 18.484375 8.9375 
Q 20.359375 7.515625 24.515625 7.515625 
L 33.59375 7.515625 
L 32.078125 0 
L 23.484375 0 
Q 15.484375 0 11.546875 3.125 
Q 7.625 6.25 7.625 12.59375 
Q 7.625 13.71875 7.765625 15.0625 
Q 7.90625 16.40625 8.203125 18.015625 
L 14.015625 47.703125 
L 6.390625 47.703125 
L 7.8125 54.6875 
L 15.28125 54.6875 
L 18.3125 70.21875 
L 27.296875 70.21875 
L 24.3125 54.6875 
z
" id="DejaVuSans-Oblique-74"/>
      <path d="M 25.390625 72.90625 
L 33.6875 72.90625 
L 8.296875 -9.28125 
L 0 -9.28125 
z
" id="DejaVuSans-2f"/>
      <path d="M 32.859375 9.96875 
Q 34.1875 7.625 39.453125 7.625 
L 43.75 7.625 
L 42.28125 0 
L 36.921875 0 
Q 28.125 0 25 4.6875 
Q 21.921875 9.46875 23.96875 19.828125 
L 29 45.703125 
L 8.453125 45.703125 
L 10.203125 54.6875 
L 60.640625 54.6875 
L 58.890625 45.703125 
L 38.1875 45.703125 
L 33.015625 19.28125 
Q 31.640625 12.203125 32.859375 9.96875 
z
" id="DejaVuSans-Oblique-3c4"/>
     </defs>
     <g transform="translate(191.308967 273.854062)scale(0.2 -0.2)">
      <use transform="translate(0 0.09375)" xlink:href="#DejaVuSans-Oblique-74"/>
      <use transform="translate(39.208984 0.09375)" xlink:href="#DejaVuSans-2f"/>
      <use transform="translate(72.900391 0.09375)" xlink:href="#DejaVuSans-Oblique-3c4"/>
     </g>
    </g>
   </g>
   <g id="matplotlib.axis_2">
    <g id="ytick_1">
     <g id="line2d_23">
      <path clip-path="url(#p7838a5e6d0)" d="M 59.14375 230.64 
L 350.274185 230.64 
" style="fill:none;stroke:#b0b0b0;stroke-linecap:square;stroke-width:0.8;"/>
     </g>
     <g id="line2d_24">
      <defs>
       <path d="M 0 0 
L -6 0 
" id="mb107641933"/>
      </defs>
      <g>
       <use x="59.14375" xlink:href="#mb107641933" y="230.64"/>
      </g>
     </g>
     <g id="text_13">
      <!-- 0 -->
      <g transform="translate(40.1 236.338828)scale(0.15 -0.15)">
       <use xlink:href="#DejaVuSans-30"/>
      </g>
     </g>
    </g>
    <g id="ytick_2">
     <g id="line2d_25">
      <path clip-path="url(#p7838a5e6d0)" d="M 59.14375 196.057647 
L 350.274185 196.057647 
" style="fill:none;stroke:#b0b0b0;stroke-linecap:square;stroke-width:0.8;"/>
     </g>
     <g id="line2d_26">
      <g>
       <use x="59.14375" xlink:href="#mb107641933" y="196.057647"/>
      </g>
     </g>
     <g id="text_14">
      <!-- 5 -->
      <g transform="translate(40.1 201.756476)scale(0.15 -0.15)">
       <use xlink:href="#DejaVuSans-35"/>
      </g>
     </g>
    </g>
    <g id="ytick_3">
     <g id="line2d_27">
      <path clip-path="url(#p7838a5e6d0)" d="M 59.14375 161.475295 
L 350.274185 161.475295 
" style="fill:none;stroke:#b0b0b0;stroke-linecap:square;stroke-width:0.8;"/>
     </g>
     <g id="line2d_28">
      <g>
       <use x="59.14375" xlink:href="#mb107641933" y="161.475295"/>
      </g>
     </g>
     <g id="text_15">
      <!-- 10 -->
      <g transform="translate(30.55625 167.174123)scale(0.15 -0.15)">
       <use xlink:href="#DejaVuSans-31"/>
       <use x="63.623047" xlink:href="#DejaVuSans-30"/>
      </g>
     </g>
    </g>
    <g id="ytick_4">
     <g id="line2d_29">
      <path clip-path="url(#p7838a5e6d0)" d="M 59.14375 126.892942 
L 350.274185 126.892942 
" style="fill:none;stroke:#b0b0b0;stroke-linecap:square;stroke-width:0.8;"/>
     </g>
     <g id="line2d_30">
      <g>
       <use x="59.14375" xlink:href="#mb107641933" y="126.892942"/>
      </g>
     </g>
     <g id="text_16">
      <!-- 15 -->
      <g transform="translate(30.55625 132.59177)scale(0.15 -0.15)">
       <use xlink:href="#DejaVuSans-31"/>
       <use x="63.623047" xlink:href="#DejaVuSans-35"/>
      </g>
     </g>
    </g>
    <g id="ytick_5">
     <g id="line2d_31">
      <path clip-path="url(#p7838a5e6d0)" d="M 59.14375 92.31059 
L 350.274185 92.31059 
" style="fill:none;stroke:#b0b0b0;stroke-linecap:square;stroke-width:0.8;"/>
     </g>
     <g id="line2d_32">
      <g>
       <use x="59.14375" xlink:href="#mb107641933" y="92.31059"/>
      </g>
     </g>
     <g id="text_17">
      <!-- 20 -->
      <g transform="translate(30.55625 98.009418)scale(0.15 -0.15)">
       <use xlink:href="#DejaVuSans-32"/>
       <use x="63.623047" xlink:href="#DejaVuSans-30"/>
      </g>
     </g>
    </g>
    <g id="ytick_6">
     <g id="line2d_33">
      <path clip-path="url(#p7838a5e6d0)" d="M 59.14375 57.728237 
L 350.274185 57.728237 
" style="fill:none;stroke:#b0b0b0;stroke-linecap:square;stroke-width:0.8;"/>
     </g>
     <g id="line2d_34">
      <g>
       <use x="59.14375" xlink:href="#mb107641933" y="57.728237"/>
      </g>
     </g>
     <g id="text_18">
      <!-- 25 -->
      <g transform="translate(30.55625 63.427065)scale(0.15 -0.15)">
       <use xlink:href="#DejaVuSans-32"/>
       <use x="63.623047" xlink:href="#DejaVuSans-35"/>
      </g>
     </g>
    </g>
    <g id="ytick_7">
     <g id="line2d_35">
      <path clip-path="url(#p7838a5e6d0)" d="M 59.14375 23.145885 
L 350.274185 23.145885 
" style="fill:none;stroke:#b0b0b0;stroke-linecap:square;stroke-width:0.8;"/>
     </g>
     <g id="line2d_36">
      <g>
       <use x="59.14375" xlink:href="#mb107641933" y="23.145885"/>
      </g>
     </g>
     <g id="text_19">
      <!-- 30 -->
      <g transform="translate(30.55625 28.844713)scale(0.15 -0.15)">
       <use xlink:href="#DejaVuSans-33"/>
       <use x="63.623047" xlink:href="#DejaVuSans-30"/>
      </g>
     </g>
    </g>
    <g id="text_20">
     <!-- RNA number -->
     <defs>
      <path d="M 44.390625 34.1875 
Q 47.5625 33.109375 50.5625 29.59375 
Q 53.5625 26.078125 56.59375 19.921875 
L 66.609375 0 
L 56 0 
L 46.6875 18.703125 
Q 43.0625 26.03125 39.671875 28.421875 
Q 36.28125 30.8125 30.421875 30.8125 
L 19.671875 30.8125 
L 19.671875 0 
L 9.8125 0 
L 9.8125 72.90625 
L 32.078125 72.90625 
Q 44.578125 72.90625 50.734375 67.671875 
Q 56.890625 62.453125 56.890625 51.90625 
Q 56.890625 45.015625 53.6875 40.46875 
Q 50.484375 35.9375 44.390625 34.1875 
z
M 19.671875 64.796875 
L 19.671875 38.921875 
L 32.078125 38.921875 
Q 39.203125 38.921875 42.84375 42.21875 
Q 46.484375 45.515625 46.484375 51.90625 
Q 46.484375 58.296875 42.84375 61.546875 
Q 39.203125 64.796875 32.078125 64.796875 
z
" id="DejaVuSans-52"/>
      <path d="M 9.8125 72.90625 
L 23.09375 72.90625 
L 55.421875 11.921875 
L 55.421875 72.90625 
L 64.984375 72.90625 
L 64.984375 0 
L 51.703125 0 
L 19.390625 60.984375 
L 19.390625 0 
L 9.8125 0 
z
" id="DejaVuSans-4e"/>
      <path d="M 34.1875 63.1875 
L 20.796875 26.90625 
L 47.609375 26.90625 
z
M 28.609375 72.90625 
L 39.796875 72.90625 
L 67.578125 0 
L 57.328125 0 
L 50.6875 18.703125 
L 17.828125 18.703125 
L 11.1875 0 
L 0.78125 0 
z
" id="DejaVuSans-41"/>
      <path id="DejaVuSans-20"/>
      <path d="M 54.890625 33.015625 
L 54.890625 0 
L 45.90625 0 
L 45.90625 32.71875 
Q 45.90625 40.484375 42.875 44.328125 
Q 39.84375 48.1875 33.796875 48.1875 
Q 26.515625 48.1875 22.3125 43.546875 
Q 18.109375 38.921875 18.109375 30.90625 
L 18.109375 0 
L 9.078125 0 
L 9.078125 54.6875 
L 18.109375 54.6875 
L 18.109375 46.1875 
Q 21.34375 51.125 25.703125 53.5625 
Q 30.078125 56 35.796875 56 
Q 45.21875 56 50.046875 50.171875 
Q 54.890625 44.34375 54.890625 33.015625 
z
" id="DejaVuSans-6e"/>
      <path d="M 8.5 21.578125 
L 8.5 54.6875 
L 17.484375 54.6875 
L 17.484375 21.921875 
Q 17.484375 14.15625 20.5 10.265625 
Q 23.53125 6.390625 29.59375 6.390625 
Q 36.859375 6.390625 41.078125 11.03125 
Q 45.3125 15.671875 45.3125 23.6875 
L 45.3125 54.6875 
L 54.296875 54.6875 
L 54.296875 0 
L 45.3125 0 
L 45.3125 8.40625 
Q 42.046875 3.421875 37.71875 1 
Q 33.40625 -1.421875 27.6875 -1.421875 
Q 18.265625 -1.421875 13.375 4.4375 
Q 8.5 10.296875 8.5 21.578125 
z
M 31.109375 56 
z
" id="DejaVuSans-75"/>
      <path d="M 52 44.1875 
Q 55.375 50.25 60.0625 53.125 
Q 64.75 56 71.09375 56 
Q 79.640625 56 84.28125 50.015625 
Q 88.921875 44.046875 88.921875 33.015625 
L 88.921875 0 
L 79.890625 0 
L 79.890625 32.71875 
Q 79.890625 40.578125 77.09375 44.375 
Q 74.3125 48.1875 68.609375 48.1875 
Q 61.625 48.1875 57.5625 43.546875 
Q 53.515625 38.921875 53.515625 30.90625 
L 53.515625 0 
L 44.484375 0 
L 44.484375 32.71875 
Q 44.484375 40.625 41.703125 44.40625 
Q 38.921875 48.1875 33.109375 48.1875 
Q 26.21875 48.1875 22.15625 43.53125 
Q 18.109375 38.875 18.109375 30.90625 
L 18.109375 0 
L 9.078125 0 
L 9.078125 54.6875 
L 18.109375 54.6875 
L 18.109375 46.1875 
Q 21.1875 51.21875 25.484375 53.609375 
Q 29.78125 56 35.6875 56 
Q 41.65625 56 45.828125 52.96875 
Q 50 49.953125 52 44.1875 
z
" id="DejaVuSans-6d"/>
      <path d="M 48.6875 27.296875 
Q 48.6875 37.203125 44.609375 42.84375 
Q 40.53125 48.484375 33.40625 48.484375 
Q 26.265625 48.484375 22.1875 42.84375 
Q 18.109375 37.203125 18.109375 27.296875 
Q 18.109375 17.390625 22.1875 11.75 
Q 26.265625 6.109375 33.40625 6.109375 
Q 40.53125 6.109375 44.609375 11.75 
Q 48.6875 17.390625 48.6875 27.296875 
z
M 18.109375 46.390625 
Q 20.953125 51.265625 25.265625 53.625 
Q 29.59375 56 35.59375 56 
Q 45.5625 56 51.78125 48.09375 
Q 58.015625 40.1875 58.015625 27.296875 
Q 58.015625 14.40625 51.78125 6.484375 
Q 45.5625 -1.421875 35.59375 -1.421875 
Q 29.59375 -1.421875 25.265625 0.953125 
Q 20.953125 3.328125 18.109375 8.203125 
L 18.109375 0 
L 9.078125 0 
L 9.078125 75.984375 
L 18.109375 75.984375 
z
" id="DejaVuSans-62"/>
      <path d="M 56.203125 29.59375 
L 56.203125 25.203125 
L 14.890625 25.203125 
Q 15.484375 15.921875 20.484375 11.0625 
Q 25.484375 6.203125 34.421875 6.203125 
Q 39.59375 6.203125 44.453125 7.46875 
Q 49.3125 8.734375 54.109375 11.28125 
L 54.109375 2.78125 
Q 49.265625 0.734375 44.1875 -0.34375 
Q 39.109375 -1.421875 33.890625 -1.421875 
Q 20.796875 -1.421875 13.15625 6.1875 
Q 5.515625 13.8125 5.515625 26.8125 
Q 5.515625 40.234375 12.765625 48.109375 
Q 20.015625 56 32.328125 56 
Q 43.359375 56 49.78125 48.890625 
Q 56.203125 41.796875 56.203125 29.59375 
z
M 47.21875 32.234375 
Q 47.125 39.59375 43.09375 43.984375 
Q 39.0625 48.390625 32.421875 48.390625 
Q 24.90625 48.390625 20.390625 44.140625 
Q 15.875 39.890625 15.1875 32.171875 
z
" id="DejaVuSans-65"/>
      <path d="M 41.109375 46.296875 
Q 39.59375 47.171875 37.8125 47.578125 
Q 36.03125 48 33.890625 48 
Q 26.265625 48 22.1875 43.046875 
Q 18.109375 38.09375 18.109375 28.8125 
L 18.109375 0 
L 9.078125 0 
L 9.078125 54.6875 
L 18.109375 54.6875 
L 18.109375 46.1875 
Q 20.953125 51.171875 25.484375 53.578125 
Q 30.03125 56 36.53125 56 
Q 37.453125 56 38.578125 55.875 
Q 39.703125 55.765625 41.0625 55.515625 
z
" id="DejaVuSans-72"/>
     </defs>
     <g transform="translate(22.396875 185.396563)rotate(-90)scale(0.2 -0.2)">
      <use xlink:href="#DejaVuSans-52"/>
      <use x="69.482422" xlink:href="#DejaVuSans-4e"/>
      <use x="144.287109" xlink:href="#DejaVuSans-41"/>
      <use x="212.695312" xlink:href="#DejaVuSans-20"/>
      <use x="244.482422" xlink:href="#DejaVuSans-6e"/>
      <use x="307.861328" xlink:href="#DejaVuSans-75"/>
      <use x="371.240234" xlink:href="#DejaVuSans-6d"/>
      <use x="468.652344" xlink:href="#DejaVuSans-62"/>
      <use x="532.128906" xlink:href="#DejaVuSans-65"/>
      <use x="593.652344" xlink:href="#DejaVuSans-72"/>
     </g>
    </g>
   </g>
   <g id="line2d_37">
    <path clip-path="url(#p7838a5e6d0)" d="M 59.207395 189.141177 
L 62.577809 196.057647 
L 65.687081 175.308236 
L 69.061851 154.558824 
L 72.412843 99.22706 
L 75.34925 106.143531 
L 78.574818 168.391765 
L 82.00163 147.642354 
L 85.069333 140.725883 
L 88.327129 161.475295 
L 91.616757 154.558824 
L 94.781959 175.308236 
L 98.416307 154.558824 
L 101.328915 196.057647 
L 104.628962 196.057647 
L 107.909184 196.057647 
L 110.944958 216.807059 
L 114.151122 209.890588 
L 117.486914 189.141177 
L 120.760854 140.725883 
L 123.839877 140.725883 
L 127.194979 147.642354 
L 130.327867 106.143531 
L 133.576705 133.809413 
L 136.908716 140.725883 
L 140.051643 189.141177 
L 143.248529 189.141177 
L 147.790996 182.224706 
L 149.845406 196.057647 
L 153.416539 168.391765 
L 156.296553 154.558824 
L 159.663154 147.642354 
L 162.71855 133.809413 
L 166.050713 126.892942 
L 169.194593 189.141177 
L 172.587525 161.475295 
L 175.751937 140.725883 
L 179.014594 147.642354 
L 182.403219 140.725883 
L 185.366592 119.976472 
L 188.62605 99.22706 
L 191.966327 92.31059 
L 195.164327 99.22706 
L 198.276011 78.477649 
L 201.54686 57.728237 
L 205.222078 36.978826 
L 208.119531 50.811767 
L 211.220855 154.558824 
L 214.424679 147.642354 
L 217.700056 119.976472 
L 221.038645 133.809413 
L 224.130307 133.809413 
L 227.463045 99.22706 
L 230.770191 78.477649 
L 233.824942 64.644708 
L 237.091805 154.558824 
L 240.312488 168.391765 
L 244.075596 154.558824 
L 247.213838 147.642354 
L 250.001465 126.892942 
L 253.563847 92.31059 
L 256.595791 133.809413 
L 259.843616 113.060001 
L 262.992265 85.394119 
L 266.316199 106.143531 
L 269.553232 43.895296 
L 272.6449 140.725883 
L 276.133039 119.976472 
L 279.137119 106.143531 
L 282.379941 78.477649 
L 285.580874 78.477649 
L 288.932853 99.22706 
L 292.074014 106.143531 
L 295.836791 57.728237 
L 298.570276 113.060001 
L 301.855881 119.976472 
L 305.322678 140.725883 
L 308.491037 154.558824 
L 311.563701 133.809413 
L 314.696769 99.22706 
L 318.073164 126.892942 
L 321.232571 113.060001 
L 324.460081 78.477649 
L 327.958427 182.224706 
L 330.899868 182.224706 
L 334.111558 168.391765 
L 337.411555 154.558824 
L 340.657128 119.976472 
L 343.913645 140.725883 
L 347.140615 133.809413 
" style="fill:none;stroke:#ff7b7b;stroke-linecap:square;stroke-width:1.5;"/>
   </g>
   <g id="line2d_38">
    <path clip-path="url(#p7838a5e6d0)" d="M 59.207395 196.057647 
L 62.577809 175.308236 
L 65.687081 161.475295 
L 69.061851 161.475295 
L 72.412843 154.558824 
L 75.34925 126.892942 
L 78.574818 133.809413 
L 82.00163 140.725883 
L 85.069333 140.725883 
L 88.327129 119.976472 
L 91.616757 147.642354 
L 94.781959 147.642354 
L 98.416307 126.892942 
L 101.328915 140.725883 
L 104.628962 133.809413 
L 107.909184 126.892942 
L 110.944958 154.558824 
L 114.151122 119.976472 
L 117.486914 85.394119 
L 120.760854 78.477649 
L 123.839877 147.642354 
L 127.194979 168.391765 
L 130.327867 147.642354 
L 133.576705 147.642354 
L 136.908716 113.060001 
L 140.051643 30.062355 
L 143.248529 9.312944 
L 147.790996 50.811767 
L 149.845406 71.561178 
L 153.416539 133.809413 
L 156.296553 175.308236 
L 159.663154 154.558824 
L 162.71855 133.809413 
L 166.050713 126.892942 
L 169.194593 133.809413 
L 172.587525 119.976472 
L 175.751937 71.561178 
L 179.014594 71.561178 
L 182.403219 50.811767 
L 185.366592 126.892942 
L 188.62605 113.060001 
L 191.966327 113.060001 
L 195.164327 133.809413 
L 198.276011 99.22706 
L 201.54686 92.31059 
L 205.222078 50.811767 
L 208.119531 154.558824 
L 211.220855 140.725883 
L 214.424679 133.809413 
L 217.700056 147.642354 
L 221.038645 147.642354 
L 224.130307 140.725883 
L 227.463045 106.143531 
L 230.770191 140.725883 
L 233.824942 113.060001 
L 237.091805 147.642354 
L 240.312488 133.809413 
L 244.075596 140.725883 
L 247.213838 106.143531 
L 250.001465 71.561178 
L 253.563847 85.394119 
L 256.595791 92.31059 
L 259.843616 92.31059 
L 262.992265 154.558824 
L 266.316199 154.558824 
L 269.553232 133.809413 
L 272.6449 140.725883 
L 276.133039 147.642354 
L 279.137119 113.060001 
L 282.379941 119.976472 
L 285.580874 92.31059 
L 288.932853 64.644708 
L 292.074014 154.558824 
L 295.836791 161.475295 
L 298.570276 168.391765 
L 301.855881 147.642354 
L 305.322678 133.809413 
L 308.491037 57.728237 
L 311.563701 147.642354 
L 314.696769 119.976472 
L 318.073164 126.892942 
L 321.232571 154.558824 
L 324.460081 154.558824 
L 327.958427 133.809413 
L 330.899868 126.892942 
L 334.111558 113.060001 
L 337.411555 126.892942 
L 340.657128 126.892942 
L 343.913645 85.394119 
L 347.140615 154.558824 
" style="fill:none;stroke:#ff7b7b;stroke-linecap:square;stroke-width:1.5;"/>
   </g>
   <g id="line2d_39">
    <path clip-path="url(#p7838a5e6d0)" d="M 59.207395 189.141177 
L 62.577809 196.057647 
L 65.687081 189.141177 
L 69.061851 175.308236 
L 72.412843 133.809413 
L 75.34925 154.558824 
L 78.574818 133.809413 
L 82.00163 154.558824 
L 85.069333 182.224706 
L 88.327129 175.308236 
L 91.616757 175.308236 
L 94.781959 140.725883 
L 98.416307 147.642354 
L 101.328915 147.642354 
L 104.628962 161.475295 
L 107.909184 140.725883 
L 110.944958 154.558824 
L 114.151122 133.809413 
L 117.486914 147.642354 
L 120.760854 154.558824 
L 123.839877 154.558824 
L 127.194979 140.725883 
L 130.327867 147.642354 
L 133.576705 113.060001 
L 136.908716 119.976472 
L 140.051643 133.809413 
L 143.248529 85.394119 
L 147.790996 78.477649 
L 149.845406 140.725883 
L 153.416539 106.143531 
L 156.296553 126.892942 
L 159.663154 99.22706 
L 162.71855 133.809413 
L 166.050713 119.976472 
L 169.194593 147.642354 
L 172.587525 175.308236 
L 175.751937 154.558824 
L 179.014594 154.558824 
L 182.403219 175.308236 
L 185.366592 147.642354 
L 188.62605 113.060001 
L 191.966327 119.976472 
L 195.164327 99.22706 
L 198.276011 119.976472 
L 201.54686 92.31059 
L 205.222078 106.143531 
L 208.119531 182.224706 
L 211.220855 168.391765 
L 214.424679 126.892942 
L 217.700056 140.725883 
L 221.038645 133.809413 
L 224.130307 140.725883 
L 227.463045 119.976472 
L 230.770191 92.31059 
L 233.824942 161.475295 
L 237.091805 154.558824 
L 240.312488 154.558824 
L 244.075596 175.308236 
L 247.213838 168.391765 
L 250.001465 147.642354 
L 253.563847 119.976472 
L 256.595791 168.391765 
L 259.843616 175.308236 
L 262.992265 168.391765 
L 266.316199 161.475295 
L 269.553232 147.642354 
L 272.6449 161.475295 
L 276.133039 175.308236 
L 279.137119 189.141177 
L 282.379941 182.224706 
L 285.580874 154.558824 
L 288.932853 140.725883 
L 292.074014 147.642354 
L 295.836791 140.725883 
L 298.570276 140.725883 
L 301.855881 154.558824 
L 305.322678 161.475295 
L 308.491037 154.558824 
L 311.563701 126.892942 
L 314.696769 113.060001 
L 318.073164 119.976472 
L 321.232571 175.308236 
L 324.460081 161.475295 
L 327.958427 168.391765 
L 330.899868 154.558824 
L 334.111558 147.642354 
L 337.411555 126.892942 
L 340.657128 99.22706 
L 343.913645 85.394119 
L 347.140615 113.060001 
" style="fill:none;stroke:#ff7b7b;stroke-linecap:square;stroke-width:1.5;"/>
   </g>
   <g id="line2d_40">
    <path clip-path="url(#p7838a5e6d0)" d="M 59.207395 196.057647 
L 62.577809 189.141177 
L 65.687081 161.475295 
L 69.061851 147.642354 
L 72.412843 119.976472 
L 75.34925 99.22706 
L 78.574818 99.22706 
L 82.00163 113.060001 
L 85.069333 161.475295 
L 88.327129 147.642354 
L 91.616757 161.475295 
L 94.781959 140.725883 
L 98.416307 133.809413 
L 101.328915 92.31059 
L 104.628962 99.22706 
L 107.909184 43.895296 
L 110.944958 154.558824 
L 114.151122 154.558824 
L 117.486914 113.060001 
L 120.760854 106.143531 
L 123.839877 133.809413 
L 127.194979 182.224706 
L 130.327867 202.974118 
L 133.576705 202.974118 
L 136.908716 196.057647 
L 140.051643 168.391765 
L 143.248529 113.060001 
L 147.790996 126.892942 
L 149.845406 140.725883 
L 153.416539 168.391765 
L 156.296553 202.974118 
L 159.663154 154.558824 
L 162.71855 133.809413 
L 166.050713 106.143531 
L 169.194593 182.224706 
L 172.587525 189.141177 
L 175.751937 196.057647 
L 179.014594 161.475295 
L 182.403219 168.391765 
L 185.366592 161.475295 
L 188.62605 140.725883 
L 191.966327 154.558824 
L 195.164327 92.31059 
L 198.276011 119.976472 
L 201.54686 119.976472 
L 205.222078 113.060001 
L 208.119531 168.391765 
L 211.220855 133.809413 
L 214.424679 126.892942 
L 217.700056 147.642354 
L 221.038645 140.725883 
L 224.130307 119.976472 
L 227.463045 133.809413 
L 230.770191 147.642354 
L 233.824942 133.809413 
L 237.091805 119.976472 
L 240.312488 113.060001 
L 244.075596 119.976472 
L 247.213838 106.143531 
L 250.001465 99.22706 
L 253.563847 119.976472 
L 256.595791 106.143531 
L 259.843616 106.143531 
L 262.992265 182.224706 
L 266.316199 175.308236 
L 269.553232 147.642354 
L 272.6449 147.642354 
L 276.133039 161.475295 
L 279.137119 182.224706 
L 282.379941 189.141177 
L 285.580874 202.974118 
L 288.932853 189.141177 
L 292.074014 168.391765 
L 295.836791 161.475295 
L 298.570276 133.809413 
L 301.855881 119.976472 
L 305.322678 126.892942 
L 308.491037 92.31059 
L 311.563701 99.22706 
L 314.696769 92.31059 
L 318.073164 154.558824 
L 321.232571 99.22706 
L 324.460081 92.31059 
L 327.958427 147.642354 
L 330.899868 147.642354 
L 334.111558 119.976472 
L 337.411555 133.809413 
L 340.657128 126.892942 
L 343.913645 113.060001 
L 347.140615 133.809413 
" style="fill:none;stroke:#ff7b7b;stroke-linecap:square;stroke-width:1.5;"/>
   </g>
   <g id="line2d_41">
    <path clip-path="url(#p7838a5e6d0)" d="M 59.207395 196.057647 
L 62.577809 161.475295 
L 65.687081 140.725883 
L 69.061851 119.976472 
L 72.412843 113.060001 
L 75.34925 78.477649 
L 78.574818 64.644708 
L 82.00163 50.811767 
L 85.069333 85.394119 
L 88.327129 154.558824 
L 91.616757 161.475295 
L 94.781959 140.725883 
L 98.416307 119.976472 
L 101.328915 154.558824 
L 104.628962 140.725883 
L 107.909184 168.391765 
L 110.944958 168.391765 
L 114.151122 168.391765 
L 117.486914 140.725883 
L 120.760854 189.141177 
L 123.839877 196.057647 
L 127.194979 182.224706 
L 130.327867 168.391765 
L 133.576705 147.642354 
L 136.908716 154.558824 
L 140.051643 175.308236 
L 143.248529 196.057647 
L 147.790996 196.057647 
L 149.845406 209.890588 
L 153.416539 161.475295 
L 156.296553 154.558824 
L 159.663154 147.642354 
L 162.71855 140.725883 
L 166.050713 119.976472 
L 169.194593 147.642354 
L 172.587525 147.642354 
L 175.751937 175.308236 
L 179.014594 154.558824 
L 182.403219 119.976472 
L 185.366592 140.725883 
L 188.62605 154.558824 
L 191.966327 126.892942 
L 195.164327 92.31059 
L 198.276011 113.060001 
L 201.54686 133.809413 
L 205.222078 92.31059 
L 208.119531 147.642354 
L 211.220855 147.642354 
L 214.424679 140.725883 
L 217.700056 133.809413 
L 221.038645 133.809413 
L 224.130307 182.224706 
L 227.463045 168.391765 
L 230.770191 154.558824 
L 233.824942 140.725883 
L 237.091805 147.642354 
L 240.312488 154.558824 
L 244.075596 133.809413 
L 247.213838 147.642354 
L 250.001465 140.725883 
L 253.563847 133.809413 
L 256.595791 147.642354 
L 259.843616 85.394119 
L 262.992265 168.391765 
L 266.316199 126.892942 
L 269.553232 113.060001 
L 272.6449 119.976472 
L 276.133039 113.060001 
L 279.137119 113.060001 
L 282.379941 92.31059 
L 285.580874 99.22706 
L 288.932853 154.558824 
L 292.074014 133.809413 
L 295.836791 154.558824 
L 298.570276 147.642354 
L 301.855881 140.725883 
L 305.322678 140.725883 
L 308.491037 119.976472 
L 311.563701 140.725883 
L 314.696769 126.892942 
L 318.073164 182.224706 
L 321.232571 168.391765 
L 324.460081 154.558824 
L 327.958427 168.391765 
L 330.899868 196.057647 
L 334.111558 161.475295 
L 337.411555 154.558824 
L 340.657128 119.976472 
L 343.913645 126.892942 
L 347.140615 126.892942 
" style="fill:none;stroke:#ff7b7b;stroke-linecap:square;stroke-width:1.5;"/>
   </g>
   <g id="line2d_42">
    <path clip-path="url(#p7838a5e6d0)" d="M 59.207395 194.411527 
L 62.577809 179.029297 
L 65.687081 164.961196 
L 69.061851 154.102337 
L 72.412843 144.419279 
L 75.34925 134.750053 
L 78.574818 127.307931 
L 82.00163 124.098688 
L 85.069333 124.008774 
L 88.327129 129.514285 
L 91.616757 135.400201 
L 94.781959 137.627305 
L 98.416307 139.135095 
L 101.328915 134.632473 
L 104.628962 130.745416 
L 107.909184 125.143075 
L 110.944958 121.92 
L 114.151122 123.061218 
L 117.486914 126.277376 
L 120.760854 133.754081 
L 123.839877 137.897047 
L 127.194979 137.32298 
L 130.327867 133.484339 
L 133.576705 129.555783 
L 136.908716 126.180546 
L 140.051643 123.372459 
L 143.248529 123.365542 
L 147.790996 127.875081 
L 149.845406 131.139655 
L 153.416539 136.105681 
L 156.296553 136.769662 
L 159.663154 134.867633 
L 162.71855 131.44398 
L 166.050713 128.227821 
L 169.194593 126.989773 
L 172.587525 126.899859 
L 175.751937 128.615143 
L 179.014594 133.740248 
L 182.403219 137.108569 
L 185.366592 137.966212 
L 188.62605 135.448616 
L 191.966327 130.648586 
L 195.164327 126.50562 
L 198.276011 125.219156 
L 201.54686 124.278516 
L 205.222078 128.379983 
L 208.119531 132.488367 
L 211.220855 135.974268 
L 214.424679 135.642277 
L 217.700056 133.684916 
L 221.038645 130.143683 
L 224.130307 127.522341 
L 227.463045 126.706198 
L 230.770191 126.657782 
L 233.824942 128.808805 
L 237.091805 132.944854 
L 240.312488 136.631333 
L 244.075596 136.85266 
L 247.213838 134.335065 
L 250.001465 131.105073 
L 253.563847 126.886026 
L 256.595791 125.855472 
L 259.843616 127.086603 
L 262.992265 131.430147 
L 266.316199 133.712582 
L 269.553232 137.281481 
L 272.6449 137.357562 
L 276.133039 133.588086 
L 279.137119 129.701029 
L 282.379941 125.696393 
L 285.580874 123.780531 
L 288.932853 124.223185 
L 292.074014 129.133879 
L 295.836791 133.754081 
L 298.570276 135.4417 
L 301.855881 135.248039 
L 305.322678 132.36387 
L 308.491037 130.399593 
L 311.563701 126.491787 
L 314.696769 126.602451 
L 318.073164 127.384012 
L 321.232571 131.692973 
L 324.460081 134.459561 
L 327.958427 136.990989 
L 330.899868 137.530474 
L 334.111558 135.469366 
L 337.411555 132.626696 
L 340.657128 128.877969 
L 343.913645 125.876221 
L 347.140615 127.09352 
" style="fill:none;stroke:#bd0025;stroke-linecap:square;stroke-width:3;"/>
   </g>
   <g id="patch_3">
    <path d="M 59.14375 230.64 
L 59.14375 13.2 
" style="fill:none;stroke:#000000;stroke-linecap:square;stroke-linejoin:miter;stroke-width:2;"/>
   </g>
   <g id="patch_4">
    <path d="M 350.274185 230.64 
L 350.274185 13.2 
" style="fill:none;"/>
   </g>
   <g id="patch_5">
    <path d="M 59.14375 230.64 
L 350.274185 230.64 
" style="fill:none;stroke:#000000;stroke-linecap:square;stroke-linejoin:miter;stroke-width:2;"/>
   </g>
   <g id="patch_6">
    <path d="M 59.14375 13.2 
L 350.274185 13.2 
" style="fill:none;"/>
   </g>
  </g>
  <g id="axes_2">
   <g id="patch_7">
    <path d="M 437.613315 230.64 
L 728.74375 230.64 
L 728.74375 13.2 
L 437.613315 13.2 
z
" style="fill:#ffffff;"/>
   </g>
   <g id="PolyCollection_2">
    <defs>
     <path d="M 437.676961 -69.715183 
L 437.676961 -66.738973 
L 441.047374 -109.659999 
L 444.156646 -106.428708 
L 447.531416 -104.615459 
L 450.882408 -102.125628 
L 453.818815 -98.422497 
L 457.044383 -105.772706 
L 460.471195 -118.386647 
L 463.538898 -140.112022 
L 466.796694 -164.557224 
L 470.086322 -168.890585 
L 473.251524 -155.279059 
L 476.885872 -131.168302 
L 479.79848 -116.098379 
L 483.098527 -107.208417 
L 486.378749 -110.324967 
L 489.414523 -120.698612 
L 492.620687 -144.262997 
L 495.95648 -162.585505 
L 499.230419 -169.439525 
L 502.309442 -153.666577 
L 505.664544 -130.073947 
L 508.797432 -114.956171 
L 512.04627 -108.066242 
L 515.378281 -113.594173 
L 518.521208 -120.768478 
L 521.718094 -146.622785 
L 526.260561 -167.145816 
L 528.314972 -171.835844 
L 531.886104 -159.305735 
L 534.766118 -136.141304 
L 538.13272 -112.730303 
L 541.188115 -108.0884 
L 544.520278 -111.160735 
L 547.664158 -129.999452 
L 551.057091 -144.595815 
L 554.221502 -161.762691 
L 557.48416 -178.055978 
L 560.872784 -166.154975 
L 563.836158 -138.854628 
L 567.095615 -118.180189 
L 570.435893 -106.129148 
L 573.633892 -115.608776 
L 576.745576 -124.643921 
L 580.016425 -143.805089 
L 583.691643 -161.884915 
L 586.589096 -173.407359 
L 589.690421 -165.539568 
L 592.894244 -148.695397 
L 596.169621 -122.972788 
L 599.508211 -112.933099 
L 602.599872 -113.645055 
L 605.932611 -131.181963 
L 609.239756 -147.00923 
L 612.294508 -157.02034 
L 615.56137 -169.511058 
L 618.782053 -153.540979 
L 622.545161 -134.790667 
L 625.683404 -119.687551 
L 628.47103 -108.530951 
L 632.033413 -113.272638 
L 635.065356 -127.725901 
L 638.313181 -146.999426 
L 641.461831 -155.90413 
L 644.785764 -165.499569 
L 648.022797 -159.431092 
L 651.114465 -138.459067 
L 654.602604 -125.498967 
L 657.606685 -112.165351 
L 660.849506 -119.727136 
L 664.05044 -131.848209 
L 667.402418 -145.173256 
L 670.543579 -164.566614 
L 674.306356 -170.90126 
L 677.039841 -156.402862 
L 680.325446 -139.291701 
L 683.792244 -121.681188 
L 686.960602 -112.598113 
L 690.033266 -114.213055 
L 693.166334 -123.506909 
L 696.542729 -139.832946 
L 699.702137 -160.604577 
L 702.929646 -165.32129 
L 706.427993 -159.144859 
L 709.369433 -141.276444 
L 712.581123 -122.238241 
L 715.88112 -115.36351 
L 719.126694 -120.337338 
L 722.38321 -130.602455 
L 725.61018 -150.979377 
L 725.61018 -182.728877 
L 725.61018 -182.728877 
L 722.38321 -154.470299 
L 719.126694 -140.429323 
L 715.88112 -133.675883 
L 712.581123 -143.019111 
L 709.369433 -169.210965 
L 706.427993 -194.188695 
L 702.929646 -202.906375 
L 699.702137 -196.245207 
L 696.542729 -167.209407 
L 693.166334 -144.750192 
L 690.033266 -132.1186 
L 686.960602 -129.93567 
L 683.792244 -142.259688 
L 680.325446 -166.45956 
L 677.039841 -190.332068 
L 674.306356 -210.81793 
L 670.543579 -201.838946 
L 667.402418 -174.626672 
L 664.05044 -156.183438 
L 660.849506 -139.599002 
L 657.606685 -129.351321 
L 654.602604 -147.472563 
L 651.114465 -165.306708 
L 648.022797 -194.591765 
L 644.785764 -203.158626 
L 641.461831 -189.631505 
L 638.313181 -177.170796 
L 635.065356 -150.521981 
L 632.033413 -130.84699 
L 628.47103 -124.454324 
L 625.683404 -139.545155 
L 622.545161 -160.237525 
L 618.782053 -186.31583 
L 615.56137 -208.843695 
L 612.294508 -191.199818 
L 609.239756 -177.184465 
L 605.932611 -155.266987 
L 602.599872 -131.350416 
L 599.508211 -130.388175 
L 596.169621 -144.021134 
L 592.894244 -179.537015 
L 589.690421 -203.215227 
L 586.589096 -214.382074 
L 583.691643 -198.050945 
L 580.016425 -172.723176 
L 576.745576 -146.303415 
L 573.633892 -134.008117 
L 570.435893 -121.228553 
L 567.095615 -137.496254 
L 563.836158 -165.854291 
L 560.872784 -204.086274 
L 557.48416 -221.010897 
L 554.221502 -197.878486 
L 551.057091 -173.823025 
L 547.664158 -153.641759 
L 544.520278 -127.995824 
L 541.188115 -123.85932 
L 538.13272 -130.114215 
L 534.766118 -162.101994 
L 531.886104 -194.415227 
L 528.314972 -212.146302 
L 526.260561 -205.489576 
L 521.718094 -176.645761 
L 518.521208 -141.016289 
L 515.378281 -131.281623 
L 512.04627 -123.829537 
L 508.797432 -133.124291 
L 505.664544 -153.744093 
L 502.309442 -186.491895 
L 499.230419 -208.742166 
L 495.95648 -199.039793 
L 492.620687 -173.360007 
L 489.414523 -140.921154 
L 486.378749 -126.869235 
L 483.098527 -122.677039 
L 479.79848 -134.671572 
L 476.885872 -155.248201 
L 473.251524 -188.753871 
L 470.086322 -207.963227 
L 466.796694 -201.82567 
L 463.538898 -167.59618 
L 460.471195 -137.776704 
L 457.044383 -120.750548 
L 453.818815 -110.936139 
L 450.882408 -115.8705 
L 447.531416 -119.199917 
L 444.156646 -121.63042 
L 441.047374 -125.973589 
L 437.676961 -69.715183 
z
" id="m0c541c997e"/>
    </defs>
    <g clip-path="url(#p1a8de90f1b)">
     <use style="fill:#ff3333;" x="0" xlink:href="#m0c541c997e" y="285.213437"/>
    </g>
   </g>
   <g id="matplotlib.axis_3">
    <g id="xtick_12">
     <g id="line2d_43">
      <path clip-path="url(#p1a8de90f1b)" d="M 437.613315 230.64 
L 437.613315 13.2 
" style="fill:none;stroke:#b0b0b0;stroke-linecap:square;stroke-width:0.8;"/>
     </g>
     <g id="line2d_44">
      <g>
       <use x="437.613315" xlink:href="#mc4aeba9308" y="230.64"/>
      </g>
     </g>
     <g id="text_21">
      <!-- 0 -->
      <g transform="translate(432.84144 251.537656)scale(0.15 -0.15)">
       <use xlink:href="#DejaVuSans-30"/>
      </g>
     </g>
    </g>
    <g id="xtick_13">
     <g id="line2d_45">
      <path clip-path="url(#p1a8de90f1b)" d="M 466.726359 230.64 
L 466.726359 13.2 
" style="fill:none;stroke:#b0b0b0;stroke-linecap:square;stroke-width:0.8;"/>
     </g>
     <g id="line2d_46">
      <g>
       <use x="466.726359" xlink:href="#mc4aeba9308" y="230.64"/>
      </g>
     </g>
     <g id="text_22">
      <!-- 1 -->
      <g transform="translate(461.954484 251.537656)scale(0.15 -0.15)">
       <use xlink:href="#DejaVuSans-31"/>
      </g>
     </g>
    </g>
    <g id="xtick_14">
     <g id="line2d_47">
      <path clip-path="url(#p1a8de90f1b)" d="M 495.839402 230.64 
L 495.839402 13.2 
" style="fill:none;stroke:#b0b0b0;stroke-linecap:square;stroke-width:0.8;"/>
     </g>
     <g id="line2d_48">
      <g>
       <use x="495.839402" xlink:href="#mc4aeba9308" y="230.64"/>
      </g>
     </g>
     <g id="text_23">
      <!-- 2 -->
      <g transform="translate(491.067527 251.537656)scale(0.15 -0.15)">
       <use xlink:href="#DejaVuSans-32"/>
      </g>
     </g>
    </g>
    <g id="xtick_15">
     <g id="line2d_49">
      <path clip-path="url(#p1a8de90f1b)" d="M 524.952446 230.64 
L 524.952446 13.2 
" style="fill:none;stroke:#b0b0b0;stroke-linecap:square;stroke-width:0.8;"/>
     </g>
     <g id="line2d_50">
      <g>
       <use x="524.952446" xlink:href="#mc4aeba9308" y="230.64"/>
      </g>
     </g>
     <g id="text_24">
      <!-- 3 -->
      <g transform="translate(520.180571 251.537656)scale(0.15 -0.15)">
       <use xlink:href="#DejaVuSans-33"/>
      </g>
     </g>
    </g>
    <g id="xtick_16">
     <g id="line2d_51">
      <path clip-path="url(#p1a8de90f1b)" d="M 554.065489 230.64 
L 554.065489 13.2 
" style="fill:none;stroke:#b0b0b0;stroke-linecap:square;stroke-width:0.8;"/>
     </g>
     <g id="line2d_52">
      <g>
       <use x="554.065489" xlink:href="#mc4aeba9308" y="230.64"/>
      </g>
     </g>
     <g id="text_25">
      <!-- 4 -->
      <g transform="translate(549.293614 251.537656)scale(0.15 -0.15)">
       <use xlink:href="#DejaVuSans-34"/>
      </g>
     </g>
    </g>
    <g id="xtick_17">
     <g id="line2d_53">
      <path clip-path="url(#p1a8de90f1b)" d="M 583.178533 230.64 
L 583.178533 13.2 
" style="fill:none;stroke:#b0b0b0;stroke-linecap:square;stroke-width:0.8;"/>
     </g>
     <g id="line2d_54">
      <g>
       <use x="583.178533" xlink:href="#mc4aeba9308" y="230.64"/>
      </g>
     </g>
     <g id="text_26">
      <!-- 5 -->
      <g transform="translate(578.406658 251.537656)scale(0.15 -0.15)">
       <use xlink:href="#DejaVuSans-35"/>
      </g>
     </g>
    </g>
    <g id="xtick_18">
     <g id="line2d_55">
      <path clip-path="url(#p1a8de90f1b)" d="M 612.291576 230.64 
L 612.291576 13.2 
" style="fill:none;stroke:#b0b0b0;stroke-linecap:square;stroke-width:0.8;"/>
     </g>
     <g id="line2d_56">
      <g>
       <use x="612.291576" xlink:href="#mc4aeba9308" y="230.64"/>
      </g>
     </g>
     <g id="text_27">
      <!-- 6 -->
      <g transform="translate(607.519701 251.537656)scale(0.15 -0.15)">
       <use xlink:href="#DejaVuSans-36"/>
      </g>
     </g>
    </g>
    <g id="xtick_19">
     <g id="line2d_57">
      <path clip-path="url(#p1a8de90f1b)" d="M 641.40462 230.64 
L 641.40462 13.2 
" style="fill:none;stroke:#b0b0b0;stroke-linecap:square;stroke-width:0.8;"/>
     </g>
     <g id="line2d_58">
      <g>
       <use x="641.40462" xlink:href="#mc4aeba9308" y="230.64"/>
      </g>
     </g>
     <g id="text_28">
      <!-- 7 -->
      <g transform="translate(636.632745 251.537656)scale(0.15 -0.15)">
       <use xlink:href="#DejaVuSans-37"/>
      </g>
     </g>
    </g>
    <g id="xtick_20">
     <g id="line2d_59">
      <path clip-path="url(#p1a8de90f1b)" d="M 670.517663 230.64 
L 670.517663 13.2 
" style="fill:none;stroke:#b0b0b0;stroke-linecap:square;stroke-width:0.8;"/>
     </g>
     <g id="line2d_60">
      <g>
       <use x="670.517663" xlink:href="#mc4aeba9308" y="230.64"/>
      </g>
     </g>
     <g id="text_29">
      <!-- 8 -->
      <g transform="translate(665.745788 251.537656)scale(0.15 -0.15)">
       <use xlink:href="#DejaVuSans-38"/>
      </g>
     </g>
    </g>
    <g id="xtick_21">
     <g id="line2d_61">
      <path clip-path="url(#p1a8de90f1b)" d="M 699.630707 230.64 
L 699.630707 13.2 
" style="fill:none;stroke:#b0b0b0;stroke-linecap:square;stroke-width:0.8;"/>
     </g>
     <g id="line2d_62">
      <g>
       <use x="699.630707" xlink:href="#mc4aeba9308" y="230.64"/>
      </g>
     </g>
     <g id="text_30">
      <!-- 9 -->
      <g transform="translate(694.858832 251.537656)scale(0.15 -0.15)">
       <use xlink:href="#DejaVuSans-39"/>
      </g>
     </g>
    </g>
    <g id="xtick_22">
     <g id="line2d_63">
      <path clip-path="url(#p1a8de90f1b)" d="M 728.74375 230.64 
L 728.74375 13.2 
" style="fill:none;stroke:#b0b0b0;stroke-linecap:square;stroke-width:0.8;"/>
     </g>
     <g id="line2d_64">
      <g>
       <use x="728.74375" xlink:href="#mc4aeba9308" y="230.64"/>
      </g>
     </g>
     <g id="text_31">
      <!-- 10 -->
      <g transform="translate(719.2 251.537656)scale(0.15 -0.15)">
       <use xlink:href="#DejaVuSans-31"/>
       <use x="63.623047" xlink:href="#DejaVuSans-30"/>
      </g>
     </g>
    </g>
    <g id="text_32">
     <!-- $t/\tau$ -->
     <g transform="translate(569.778533 273.854062)scale(0.2 -0.2)">
      <use transform="translate(0 0.09375)" xlink:href="#DejaVuSans-Oblique-74"/>
      <use transform="translate(39.208984 0.09375)" xlink:href="#DejaVuSans-2f"/>
      <use transform="translate(72.900391 0.09375)" xlink:href="#DejaVuSans-Oblique-3c4"/>
     </g>
    </g>
   </g>
   <g id="matplotlib.axis_4">
    <g id="ytick_8">
     <g id="line2d_65">
      <path clip-path="url(#p1a8de90f1b)" d="M 437.613315 230.64 
L 728.74375 230.64 
" style="fill:none;stroke:#b0b0b0;stroke-linecap:square;stroke-width:0.8;"/>
     </g>
     <g id="line2d_66">
      <g>
       <use x="437.613315" xlink:href="#mb107641933" y="230.64"/>
      </g>
     </g>
     <g id="text_33">
      <!-- 0.00 -->
      <defs>
       <path d="M 10.6875 12.40625 
L 21 12.40625 
L 21 0 
L 10.6875 0 
z
" id="DejaVuSans-2e"/>
      </defs>
      <g transform="translate(394.714878 236.338828)scale(0.15 -0.15)">
       <use xlink:href="#DejaVuSans-30"/>
       <use x="63.623047" xlink:href="#DejaVuSans-2e"/>
       <use x="95.410156" xlink:href="#DejaVuSans-30"/>
       <use x="159.033203" xlink:href="#DejaVuSans-30"/>
      </g>
     </g>
    </g>
    <g id="ytick_9">
     <g id="line2d_67">
      <path clip-path="url(#p1a8de90f1b)" d="M 437.613315 202.734364 
L 728.74375 202.734364 
" style="fill:none;stroke:#b0b0b0;stroke-linecap:square;stroke-width:0.8;"/>
     </g>
     <g id="line2d_68">
      <g>
       <use x="437.613315" xlink:href="#mb107641933" y="202.734364"/>
      </g>
     </g>
     <g id="text_34">
      <!-- 0.04 -->
      <g transform="translate(394.714878 208.433192)scale(0.15 -0.15)">
       <use xlink:href="#DejaVuSans-30"/>
       <use x="63.623047" xlink:href="#DejaVuSans-2e"/>
       <use x="95.410156" xlink:href="#DejaVuSans-30"/>
       <use x="159.033203" xlink:href="#DejaVuSans-34"/>
      </g>
     </g>
    </g>
    <g id="ytick_10">
     <g id="line2d_69">
      <path clip-path="url(#p1a8de90f1b)" d="M 437.613315 174.828727 
L 728.74375 174.828727 
" style="fill:none;stroke:#b0b0b0;stroke-linecap:square;stroke-width:0.8;"/>
     </g>
     <g id="line2d_70">
      <g>
       <use x="437.613315" xlink:href="#mb107641933" y="174.828727"/>
      </g>
     </g>
     <g id="text_35">
      <!-- 0.08 -->
      <g transform="translate(394.714878 180.527555)scale(0.15 -0.15)">
       <use xlink:href="#DejaVuSans-30"/>
       <use x="63.623047" xlink:href="#DejaVuSans-2e"/>
       <use x="95.410156" xlink:href="#DejaVuSans-30"/>
       <use x="159.033203" xlink:href="#DejaVuSans-38"/>
      </g>
     </g>
    </g>
    <g id="ytick_11">
     <g id="line2d_71">
      <path clip-path="url(#p1a8de90f1b)" d="M 437.613315 146.923091 
L 728.74375 146.923091 
" style="fill:none;stroke:#b0b0b0;stroke-linecap:square;stroke-width:0.8;"/>
     </g>
     <g id="line2d_72">
      <g>
       <use x="437.613315" xlink:href="#mb107641933" y="146.923091"/>
      </g>
     </g>
     <g id="text_36">
      <!-- 0.12 -->
      <g transform="translate(394.714878 152.621919)scale(0.15 -0.15)">
       <use xlink:href="#DejaVuSans-30"/>
       <use x="63.623047" xlink:href="#DejaVuSans-2e"/>
       <use x="95.410156" xlink:href="#DejaVuSans-31"/>
       <use x="159.033203" xlink:href="#DejaVuSans-32"/>
      </g>
     </g>
    </g>
    <g id="ytick_12">
     <g id="line2d_73">
      <path clip-path="url(#p1a8de90f1b)" d="M 437.613315 119.017454 
L 728.74375 119.017454 
" style="fill:none;stroke:#b0b0b0;stroke-linecap:square;stroke-width:0.8;"/>
     </g>
     <g id="line2d_74">
      <g>
       <use x="437.613315" xlink:href="#mb107641933" y="119.017454"/>
      </g>
     </g>
     <g id="text_37">
      <!-- 0.16 -->
      <g transform="translate(394.714878 124.716282)scale(0.15 -0.15)">
       <use xlink:href="#DejaVuSans-30"/>
       <use x="63.623047" xlink:href="#DejaVuSans-2e"/>
       <use x="95.410156" xlink:href="#DejaVuSans-31"/>
       <use x="159.033203" xlink:href="#DejaVuSans-36"/>
      </g>
     </g>
    </g>
    <g id="ytick_13">
     <g id="line2d_75">
      <path clip-path="url(#p1a8de90f1b)" d="M 437.613315 91.111818 
L 728.74375 91.111818 
" style="fill:none;stroke:#b0b0b0;stroke-linecap:square;stroke-width:0.8;"/>
     </g>
     <g id="line2d_76">
      <g>
       <use x="437.613315" xlink:href="#mb107641933" y="91.111818"/>
      </g>
     </g>
     <g id="text_38">
      <!-- 0.20 -->
      <g transform="translate(394.714878 96.810646)scale(0.15 -0.15)">
       <use xlink:href="#DejaVuSans-30"/>
       <use x="63.623047" xlink:href="#DejaVuSans-2e"/>
       <use x="95.410156" xlink:href="#DejaVuSans-32"/>
       <use x="159.033203" xlink:href="#DejaVuSans-30"/>
      </g>
     </g>
    </g>
    <g id="ytick_14">
     <g id="line2d_77">
      <path clip-path="url(#p1a8de90f1b)" d="M 437.613315 63.206181 
L 728.74375 63.206181 
" style="fill:none;stroke:#b0b0b0;stroke-linecap:square;stroke-width:0.8;"/>
     </g>
     <g id="line2d_78">
      <g>
       <use x="437.613315" xlink:href="#mb107641933" y="63.206181"/>
      </g>
     </g>
     <g id="text_39">
      <!-- 0.24 -->
      <g transform="translate(394.714878 68.905009)scale(0.15 -0.15)">
       <use xlink:href="#DejaVuSans-30"/>
       <use x="63.623047" xlink:href="#DejaVuSans-2e"/>
       <use x="95.410156" xlink:href="#DejaVuSans-32"/>
       <use x="159.033203" xlink:href="#DejaVuSans-34"/>
      </g>
     </g>
    </g>
    <g id="ytick_15">
     <g id="line2d_79">
      <path clip-path="url(#p1a8de90f1b)" d="M 437.613315 35.300545 
L 728.74375 35.300545 
" style="fill:none;stroke:#b0b0b0;stroke-linecap:square;stroke-width:0.8;"/>
     </g>
     <g id="line2d_80">
      <g>
       <use x="437.613315" xlink:href="#mb107641933" y="35.300545"/>
      </g>
     </g>
     <g id="text_40">
      <!-- 0.28 -->
      <g transform="translate(394.714878 40.999373)scale(0.15 -0.15)">
       <use xlink:href="#DejaVuSans-30"/>
       <use x="63.623047" xlink:href="#DejaVuSans-2e"/>
       <use x="95.410156" xlink:href="#DejaVuSans-32"/>
       <use x="159.033203" xlink:href="#DejaVuSans-38"/>
      </g>
     </g>
    </g>
    <g id="text_41">
     <!-- $C_V^2(n_r)$ -->
     <defs>
      <path d="M 69.484375 67.28125 
L 67.484375 56.890625 
Q 62.796875 61.625 57.546875 63.921875 
Q 52.296875 66.21875 46.1875 66.21875 
Q 37.84375 66.21875 31.515625 62.203125 
Q 25.203125 58.203125 20.609375 50 
Q 17.671875 44.734375 16.125 38.84375 
Q 14.59375 32.953125 14.59375 27 
Q 14.59375 17.046875 19.75 11.8125 
Q 24.90625 6.59375 34.71875 6.59375 
Q 41.5 6.59375 47.75 8.765625 
Q 54 10.9375 59.90625 15.28125 
L 57.625 3.609375 
Q 51.8125 1.125 45.875 -0.140625 
Q 39.9375 -1.421875 33.984375 -1.421875 
Q 19.96875 -1.421875 12.078125 6.1875 
Q 4.203125 13.8125 4.203125 27.390625 
Q 4.203125 36.078125 7.203125 44.46875 
Q 10.203125 52.875 15.828125 59.8125 
Q 21.78125 67.1875 29.421875 70.703125 
Q 37.0625 74.21875 47.21875 74.21875 
Q 53.46875 74.21875 59.0625 72.484375 
Q 64.65625 70.75 69.484375 67.28125 
z
" id="DejaVuSans-Oblique-43"/>
      <path d="M 20.609375 0 
L 7.8125 72.90625 
L 17.484375 72.90625 
L 28.078125 10.203125 
L 63.484375 72.90625 
L 74.21875 72.90625 
L 32.078125 0 
z
" id="DejaVuSans-Oblique-56"/>
      <path d="M 31 75.875 
Q 24.46875 64.65625 21.28125 53.65625 
Q 18.109375 42.671875 18.109375 31.390625 
Q 18.109375 20.125 21.3125 9.0625 
Q 24.515625 -2 31 -13.1875 
L 23.1875 -13.1875 
Q 15.875 -1.703125 12.234375 9.375 
Q 8.59375 20.453125 8.59375 31.390625 
Q 8.59375 42.28125 12.203125 53.3125 
Q 15.828125 64.359375 23.1875 75.875 
z
" id="DejaVuSans-28"/>
      <path d="M 55.71875 33.015625 
L 49.3125 0 
L 40.28125 0 
L 46.6875 32.671875 
Q 47.125 34.96875 47.359375 36.71875 
Q 47.609375 38.484375 47.609375 39.5 
Q 47.609375 43.609375 45.015625 45.890625 
Q 42.4375 48.1875 37.796875 48.1875 
Q 30.5625 48.1875 25.34375 43.375 
Q 20.125 38.578125 18.5 30.328125 
L 12.5 0 
L 3.515625 0 
L 14.109375 54.6875 
L 23.09375 54.6875 
L 21.296875 46.09375 
Q 25.046875 50.828125 30.3125 53.40625 
Q 35.59375 56 41.40625 56 
Q 48.640625 56 52.609375 52.09375 
Q 56.59375 48.1875 56.59375 41.109375 
Q 56.59375 39.359375 56.375 37.359375 
Q 56.15625 35.359375 55.71875 33.015625 
z
" id="DejaVuSans-Oblique-6e"/>
      <path d="M 44.578125 46.390625 
Q 43.21875 47.125 41.453125 47.515625 
Q 39.703125 47.90625 37.703125 47.90625 
Q 30.515625 47.90625 25.140625 42.453125 
Q 19.78125 37.015625 18.015625 27.875 
L 12.5 0 
L 3.515625 0 
L 14.203125 54.6875 
L 23.1875 54.6875 
L 21.484375 46.1875 
Q 25.046875 50.921875 30 53.453125 
Q 34.96875 56 40.578125 56 
Q 42.046875 56 43.453125 55.828125 
Q 44.875 55.671875 46.296875 55.28125 
z
" id="DejaVuSans-Oblique-72"/>
      <path d="M 8.015625 75.875 
L 15.828125 75.875 
Q 23.140625 64.359375 26.78125 53.3125 
Q 30.421875 42.28125 30.421875 31.390625 
Q 30.421875 20.453125 26.78125 9.375 
Q 23.140625 -1.703125 15.828125 -13.1875 
L 8.015625 -13.1875 
Q 14.5 -2 17.703125 9.0625 
Q 20.90625 20.125 20.90625 31.390625 
Q 20.90625 42.671875 17.703125 53.65625 
Q 14.5 64.65625 8.015625 75.875 
z
" id="DejaVuSans-29"/>
     </defs>
     <g transform="translate(385.114878 151.72)rotate(-90)scale(0.2 -0.2)">
      <use transform="translate(0 0.765625)" xlink:href="#DejaVuSans-Oblique-43"/>
      <use transform="translate(77.02474 39.046875)scale(0.7)" xlink:href="#DejaVuSans-32"/>
      <use transform="translate(69.824219 -26.578125)scale(0.7)" xlink:href="#DejaVuSans-Oblique-56"/>
      <use transform="translate(124.295247 0.765625)" xlink:href="#DejaVuSans-28"/>
      <use transform="translate(163.308919 0.765625)" xlink:href="#DejaVuSans-Oblique-6e"/>
      <use transform="translate(226.687826 -15.640625)scale(0.7)" xlink:href="#DejaVuSans-Oblique-72"/>
      <use transform="translate(258.201497 0.765625)" xlink:href="#DejaVuSans-29"/>
     </g>
    </g>
   </g>
   <g id="line2d_81">
    <path clip-path="url(#p1a8de90f1b)" d="M 437.676961 216.986359 
L 441.047374 167.396644 
L 444.156646 171.183874 
L 447.531416 173.30575 
L 450.882408 176.215374 
L 453.818815 180.53412 
L 457.044383 171.95181 
L 460.471195 157.131762 
L 463.538898 131.359337 
L 466.796694 102.02199 
L 470.086322 96.786532 
L 473.251524 113.196972 
L 476.885872 142.005186 
L 479.79848 159.828462 
L 483.098527 170.27071 
L 486.378749 166.616337 
L 489.414523 154.403554 
L 492.620687 126.401936 
L 495.95648 104.400788 
L 499.230419 96.122592 
L 502.309442 115.134202 
L 505.664544 143.304417 
L 508.797432 161.173207 
L 512.04627 169.265548 
L 515.378281 162.775539 
L 518.521208 154.321054 
L 521.718094 123.579164 
L 526.260561 98.895742 
L 528.314972 93.222365 
L 531.886104 108.352957 
L 534.766118 136.091788 
L 538.13272 163.791178 
L 541.188115 169.239578 
L 544.520278 165.635158 
L 547.664158 143.392832 
L 551.057091 126.004017 
L 554.221502 105.392849 
L 557.48416 85.68 
L 560.872784 100.092813 
L 563.836158 132.858978 
L 567.095615 157.375216 
L 570.435893 171.534587 
L 573.633892 160.404991 
L 576.745576 149.73977 
L 580.016425 126.949305 
L 583.691643 105.245507 
L 586.589096 91.318721 
L 589.690421 100.83604 
L 592.894244 121.097232 
L 596.169621 151.716477 
L 599.508211 163.5528 
L 602.599872 162.715702 
L 605.932611 141.988963 
L 609.239756 123.11659 
L 612.294508 111.103359 
L 615.56137 96.036061 
L 618.782053 115.285033 
L 622.545161 137.699342 
L 625.683404 155.597084 
L 628.47103 168.7208 
L 632.033413 163.153623 
L 635.065356 146.089496 
L 638.313181 123.128326 
L 641.461831 112.44562 
L 644.785764 100.88434 
L 648.022797 108.202009 
L 651.114465 133.33055 
L 654.602604 148.727672 
L 657.606685 164.455102 
L 660.849506 155.550368 
L 664.05044 141.197614 
L 667.402418 125.313473 
L 670.543579 102.010657 
L 674.306356 94.353843 
L 677.039841 111.845972 
L 680.325446 132.337807 
L 683.792244 153.243 
L 686.960602 163.946546 
L 690.033266 162.04761 
L 693.166334 151.084887 
L 696.542729 131.692261 
L 699.702137 106.788546 
L 702.929646 101.099605 
L 706.427993 108.546661 
L 709.369433 129.969733 
L 712.581123 152.584762 
L 715.88112 160.693741 
L 719.126694 154.830107 
L 722.38321 142.67706 
L 725.61018 118.35931 
" style="fill:none;stroke:#bd0025;stroke-linecap:square;stroke-width:3;"/>
   </g>
   <g id="patch_8">
    <path d="M 437.613315 230.64 
L 437.613315 13.2 
" style="fill:none;stroke:#000000;stroke-linecap:square;stroke-linejoin:miter;stroke-width:2;"/>
   </g>
   <g id="patch_9">
    <path d="M 728.74375 230.64 
L 728.74375 13.2 
" style="fill:none;"/>
   </g>
   <g id="patch_10">
    <path d="M 437.613315 230.64 
L 728.74375 230.64 
" style="fill:none;stroke:#000000;stroke-linecap:square;stroke-linejoin:miter;stroke-width:2;"/>
   </g>
   <g id="patch_11">
    <path d="M 437.613315 13.2 
L 728.74375 13.2 
" style="fill:none;"/>
   </g>
  </g>
 </g>
 <defs>
  <clipPath id="p7838a5e6d0">
   <rect height="217.44" width="291.130435" x="59.14375" y="13.2"/>
  </clipPath>
  <clipPath id="p1a8de90f1b">
   <rect height="217.44" width="291.130435" x="437.613315" y="13.2"/>
  </clipPath>
 </defs>
</svg>
