<?xml version="1.0" encoding="utf-8" standalone="no"?>
<!DOCTYPE svg PUBLIC "-//W3C//DTD SVG 1.1//EN"
  "http://www.w3.org/Graphics/SVG/1.1/DTD/svg11.dtd">
<!-- Created with matplotlib (http://matplotlib.org/) -->
<svg height="285.213437pt" version="1.1" viewBox="0 0 756.475 285.213437" width="756.475pt" xmlns="http://www.w3.org/2000/svg" xmlns:xlink="http://www.w3.org/1999/xlink">
 <defs>
  <style type="text/css">
*{stroke-linecap:butt;stroke-linejoin:round;}
  </style>
 </defs>
 <g id="figure_1">
  <g id="patch_1">
   <path d="M 0 285.213437 
L 756.475 285.213437 
L 756.475 0 
L 0 0 
z
" style="fill:#ffffff;"/>
  </g>
  <g id="axes_1">
   <g id="patch_2">
    <path d="M 70.13125 230.64 
L 361.261685 230.64 
L 361.261685 13.2 
L 70.13125 13.2 
z
" style="fill:#ffffff;"/>
   </g>
   <g id="PolyCollection_1">
    <defs>
     <path d="M 70.194895 -126.835611 
L 70.194895 -126.728767 
L 73.565309 -127.638468 
L 76.674581 -130.011548 
L 80.049351 -133.196532 
L 83.400343 -136.672607 
L 86.33675 -140.566254 
L 89.562318 -144.377138 
L 92.98913 -147.857125 
L 96.056833 -151.21999 
L 99.314629 -154.446366 
L 102.604257 -157.697898 
L 105.769459 -160.422855 
L 109.403807 -163.211172 
L 112.316415 -165.682789 
L 115.616462 -168.162909 
L 118.896684 -170.434307 
L 121.932458 -172.226951 
L 125.138622 -174.327911 
L 128.474414 -175.886545 
L 131.748354 -177.428119 
L 134.827377 -179.048031 
L 138.182479 -180.396382 
L 141.315367 -181.773838 
L 144.564205 -183.002126 
L 147.896216 -184.149194 
L 151.039143 -185.01894 
L 154.236029 -186.126781 
L 158.778496 -187.071926 
L 160.832906 -187.807823 
L 164.404039 -188.652395 
L 167.284053 -189.434332 
L 170.650654 -190.331427 
L 173.70605 -190.647603 
L 177.038213 -191.103557 
L 180.182093 -191.233337 
L 183.575025 -191.264379 
L 186.739437 -191.621946 
L 190.002094 -192.214734 
L 193.390719 -192.165317 
L 196.354092 -192.319212 
L 199.61355 -192.491022 
L 202.953827 -192.815987 
L 206.151827 -193.147778 
L 209.263511 -193.605003 
L 212.53436 -193.831444 
L 216.209578 -194.324725 
L 219.107031 -194.581966 
L 222.208355 -194.986054 
L 225.412179 -195.305279 
L 228.687556 -195.386346 
L 232.026145 -195.394082 
L 235.117807 -195.69445 
L 238.450545 -195.644949 
L 241.757691 -195.775934 
L 244.812442 -195.927911 
L 248.079305 -195.77001 
L 251.299988 -195.994246 
L 255.063096 -195.896389 
L 258.201338 -195.957009 
L 260.988965 -195.954102 
L 264.551347 -195.974951 
L 267.583291 -196.006836 
L 270.831116 -196.163388 
L 273.979765 -196.530108 
L 277.303699 -196.720411 
L 280.540732 -197.166928 
L 283.6324 -197.341378 
L 287.120539 -197.601096 
L 290.124619 -197.735858 
L 293.367441 -197.899745 
L 296.568374 -198.140565 
L 299.920353 -198.054198 
L 303.061514 -198.042793 
L 306.824291 -198.288908 
L 309.557776 -198.148787 
L 312.843381 -198.331394 
L 316.310178 -198.293005 
L 319.478537 -197.892039 
L 322.551201 -198.210432 
L 325.684269 -198.054895 
L 329.060664 -197.846225 
L 332.220071 -197.691718 
L 335.447581 -197.786646 
L 338.945927 -197.805909 
L 341.887368 -197.535835 
L 345.099058 -197.236128 
L 348.399055 -197.055226 
L 351.644628 -196.912925 
L 354.901145 -196.893734 
L 358.128115 -196.667141 
L 358.128115 -199.069905 
L 358.128115 -199.069905 
L 354.901145 -199.289633 
L 351.644628 -199.299527 
L 348.399055 -199.433809 
L 345.099058 -199.588253 
L 341.887368 -199.91152 
L 338.945927 -200.193926 
L 335.447581 -200.200393 
L 332.220071 -200.136321 
L 329.060664 -200.233776 
L 325.684269 -200.447845 
L 322.551201 -200.611354 
L 319.478537 -200.286147 
L 316.310178 -200.680748 
L 312.843381 -200.735481 
L 309.557776 -200.550652 
L 306.824291 -200.685509 
L 303.061514 -200.435882 
L 299.920353 -200.47308 
L 296.568374 -200.536976 
L 293.367441 -200.305028 
L 290.124619 -200.1149 
L 287.120539 -200.016596 
L 283.6324 -199.760802 
L 280.540732 -199.633478 
L 277.303699 -199.188087 
L 273.979765 -199.001672 
L 270.831116 -198.553833 
L 267.583291 -198.349026 
L 264.551347 -198.310262 
L 260.988965 -198.320318 
L 258.201338 -198.346943 
L 255.063096 -198.308888 
L 251.299988 -198.395509 
L 248.079305 -198.152221 
L 244.812442 -198.289409 
L 241.757691 -198.10602 
L 238.450545 -197.972656 
L 235.117807 -197.980117 
L 232.026145 -197.709141 
L 228.687556 -197.725192 
L 225.412179 -197.673932 
L 222.208355 -197.378457 
L 219.107031 -196.937721 
L 216.209578 -196.702296 
L 212.53436 -196.165973 
L 209.263511 -195.959326 
L 206.151827 -195.517917 
L 202.953827 -195.2112 
L 199.61355 -194.887858 
L 196.354092 -194.737 
L 193.390719 -194.573548 
L 190.002094 -194.625534 
L 186.739437 -193.991717 
L 183.575025 -193.628158 
L 180.182093 -193.593047 
L 177.038213 -193.446503 
L 173.70605 -193.035118 
L 170.650654 -192.747944 
L 167.284053 -191.83575 
L 164.404039 -191.050851 
L 160.832906 -190.201018 
L 158.778496 -189.439182 
L 154.236029 -188.451783 
L 151.039143 -187.315656 
L 147.896216 -186.431934 
L 144.564205 -185.254568 
L 141.315367 -184.040345 
L 138.182479 -182.669457 
L 134.827377 -181.327185 
L 131.748354 -179.682472 
L 128.474414 -178.079827 
L 125.138622 -176.464655 
L 121.932458 -174.320226 
L 118.896684 -172.488126 
L 115.616462 -170.178896 
L 112.316415 -167.648832 
L 109.403807 -165.138096 
L 105.769459 -162.26671 
L 102.604257 -159.49183 
L 99.314629 -156.139508 
L 96.056833 -152.802017 
L 92.98913 -149.302161 
L 89.562318 -145.680227 
L 86.33675 -141.735075 
L 83.400343 -137.697994 
L 80.049351 -134.056965 
L 76.674581 -130.671775 
L 73.565309 -128.056346 
L 70.194895 -126.835611 
z
" id="mda16721cf7"/>
    </defs>
    <g clip-path="url(#p302544886e)">
     <use style="fill:#4be000;" x="0" xlink:href="#mda16721cf7" y="285.213437"/>
    </g>
   </g>
   <g id="matplotlib.axis_1">
    <g id="xtick_1">
     <g id="line2d_1">
      <path clip-path="url(#p302544886e)" d="M 70.13125 230.64 
L 70.13125 13.2 
" style="fill:none;stroke:#b0b0b0;stroke-linecap:square;stroke-width:0.8;"/>
     </g>
     <g id="line2d_2">
      <defs>
       <path d="M 0 0 
L 0 6 
" id="m3499cd5579"/>
      </defs>
      <g>
       <use x="70.13125" xlink:href="#m3499cd5579" y="230.64"/>
      </g>
     </g>
     <g id="text_1">
      <!-- 0 -->
      <defs>
       <path d="M 31.78125 66.40625 
Q 24.171875 66.40625 20.328125 58.90625 
Q 16.5 51.421875 16.5 36.375 
Q 16.5 21.390625 20.328125 13.890625 
Q 24.171875 6.390625 31.78125 6.390625 
Q 39.453125 6.390625 43.28125 13.890625 
Q 47.125 21.390625 47.125 36.375 
Q 47.125 51.421875 43.28125 58.90625 
Q 39.453125 66.40625 31.78125 66.40625 
z
M 31.78125 74.21875 
Q 44.046875 74.21875 50.515625 64.515625 
Q 56.984375 54.828125 56.984375 36.375 
Q 56.984375 17.96875 50.515625 8.265625 
Q 44.046875 -1.421875 31.78125 -1.421875 
Q 19.53125 -1.421875 13.0625 8.265625 
Q 6.59375 17.96875 6.59375 36.375 
Q 6.59375 54.828125 13.0625 64.515625 
Q 19.53125 74.21875 31.78125 74.21875 
z
" id="DejaVuSans-30"/>
      </defs>
      <g transform="translate(65.359375 251.537656)scale(0.15 -0.15)">
       <use xlink:href="#DejaVuSans-30"/>
      </g>
     </g>
    </g>
    <g id="xtick_2">
     <g id="line2d_3">
      <path clip-path="url(#p302544886e)" d="M 99.244293 230.64 
L 99.244293 13.2 
" style="fill:none;stroke:#b0b0b0;stroke-linecap:square;stroke-width:0.8;"/>
     </g>
     <g id="line2d_4">
      <g>
       <use x="99.244293" xlink:href="#m3499cd5579" y="230.64"/>
      </g>
     </g>
     <g id="text_2">
      <!-- 1 -->
      <defs>
       <path d="M 12.40625 8.296875 
L 28.515625 8.296875 
L 28.515625 63.921875 
L 10.984375 60.40625 
L 10.984375 69.390625 
L 28.421875 72.90625 
L 38.28125 72.90625 
L 38.28125 8.296875 
L 54.390625 8.296875 
L 54.390625 0 
L 12.40625 0 
z
" id="DejaVuSans-31"/>
      </defs>
      <g transform="translate(94.472418 251.537656)scale(0.15 -0.15)">
       <use xlink:href="#DejaVuSans-31"/>
      </g>
     </g>
    </g>
    <g id="xtick_3">
     <g id="line2d_5">
      <path clip-path="url(#p302544886e)" d="M 128.357337 230.64 
L 128.357337 13.2 
" style="fill:none;stroke:#b0b0b0;stroke-linecap:square;stroke-width:0.8;"/>
     </g>
     <g id="line2d_6">
      <g>
       <use x="128.357337" xlink:href="#m3499cd5579" y="230.64"/>
      </g>
     </g>
     <g id="text_3">
      <!-- 2 -->
      <defs>
       <path d="M 19.1875 8.296875 
L 53.609375 8.296875 
L 53.609375 0 
L 7.328125 0 
L 7.328125 8.296875 
Q 12.9375 14.109375 22.625 23.890625 
Q 32.328125 33.6875 34.8125 36.53125 
Q 39.546875 41.84375 41.421875 45.53125 
Q 43.3125 49.21875 43.3125 52.78125 
Q 43.3125 58.59375 39.234375 62.25 
Q 35.15625 65.921875 28.609375 65.921875 
Q 23.96875 65.921875 18.8125 64.3125 
Q 13.671875 62.703125 7.8125 59.421875 
L 7.8125 69.390625 
Q 13.765625 71.78125 18.9375 73 
Q 24.125 74.21875 28.421875 74.21875 
Q 39.75 74.21875 46.484375 68.546875 
Q 53.21875 62.890625 53.21875 53.421875 
Q 53.21875 48.921875 51.53125 44.890625 
Q 49.859375 40.875 45.40625 35.40625 
Q 44.1875 33.984375 37.640625 27.21875 
Q 31.109375 20.453125 19.1875 8.296875 
z
" id="DejaVuSans-32"/>
      </defs>
      <g transform="translate(123.585462 251.537656)scale(0.15 -0.15)">
       <use xlink:href="#DejaVuSans-32"/>
      </g>
     </g>
    </g>
    <g id="xtick_4">
     <g id="line2d_7">
      <path clip-path="url(#p302544886e)" d="M 157.47038 230.64 
L 157.47038 13.2 
" style="fill:none;stroke:#b0b0b0;stroke-linecap:square;stroke-width:0.8;"/>
     </g>
     <g id="line2d_8">
      <g>
       <use x="157.47038" xlink:href="#m3499cd5579" y="230.64"/>
      </g>
     </g>
     <g id="text_4">
      <!-- 3 -->
      <defs>
       <path d="M 40.578125 39.3125 
Q 47.65625 37.796875 51.625 33 
Q 55.609375 28.21875 55.609375 21.1875 
Q 55.609375 10.40625 48.1875 4.484375 
Q 40.765625 -1.421875 27.09375 -1.421875 
Q 22.515625 -1.421875 17.65625 -0.515625 
Q 12.796875 0.390625 7.625 2.203125 
L 7.625 11.71875 
Q 11.71875 9.328125 16.59375 8.109375 
Q 21.484375 6.890625 26.8125 6.890625 
Q 36.078125 6.890625 40.9375 10.546875 
Q 45.796875 14.203125 45.796875 21.1875 
Q 45.796875 27.640625 41.28125 31.265625 
Q 36.765625 34.90625 28.71875 34.90625 
L 20.21875 34.90625 
L 20.21875 43.015625 
L 29.109375 43.015625 
Q 36.375 43.015625 40.234375 45.921875 
Q 44.09375 48.828125 44.09375 54.296875 
Q 44.09375 59.90625 40.109375 62.90625 
Q 36.140625 65.921875 28.71875 65.921875 
Q 24.65625 65.921875 20.015625 65.03125 
Q 15.375 64.15625 9.8125 62.3125 
L 9.8125 71.09375 
Q 15.4375 72.65625 20.34375 73.4375 
Q 25.25 74.21875 29.59375 74.21875 
Q 40.828125 74.21875 47.359375 69.109375 
Q 53.90625 64.015625 53.90625 55.328125 
Q 53.90625 49.265625 50.4375 45.09375 
Q 46.96875 40.921875 40.578125 39.3125 
z
" id="DejaVuSans-33"/>
      </defs>
      <g transform="translate(152.698505 251.537656)scale(0.15 -0.15)">
       <use xlink:href="#DejaVuSans-33"/>
      </g>
     </g>
    </g>
    <g id="xtick_5">
     <g id="line2d_9">
      <path clip-path="url(#p302544886e)" d="M 186.583424 230.64 
L 186.583424 13.2 
" style="fill:none;stroke:#b0b0b0;stroke-linecap:square;stroke-width:0.8;"/>
     </g>
     <g id="line2d_10">
      <g>
       <use x="186.583424" xlink:href="#m3499cd5579" y="230.64"/>
      </g>
     </g>
     <g id="text_5">
      <!-- 4 -->
      <defs>
       <path d="M 37.796875 64.3125 
L 12.890625 25.390625 
L 37.796875 25.390625 
z
M 35.203125 72.90625 
L 47.609375 72.90625 
L 47.609375 25.390625 
L 58.015625 25.390625 
L 58.015625 17.1875 
L 47.609375 17.1875 
L 47.609375 0 
L 37.796875 0 
L 37.796875 17.1875 
L 4.890625 17.1875 
L 4.890625 26.703125 
z
" id="DejaVuSans-34"/>
      </defs>
      <g transform="translate(181.811549 251.537656)scale(0.15 -0.15)">
       <use xlink:href="#DejaVuSans-34"/>
      </g>
     </g>
    </g>
    <g id="xtick_6">
     <g id="line2d_11">
      <path clip-path="url(#p302544886e)" d="M 215.696467 230.64 
L 215.696467 13.2 
" style="fill:none;stroke:#b0b0b0;stroke-linecap:square;stroke-width:0.8;"/>
     </g>
     <g id="line2d_12">
      <g>
       <use x="215.696467" xlink:href="#m3499cd5579" y="230.64"/>
      </g>
     </g>
     <g id="text_6">
      <!-- 5 -->
      <defs>
       <path d="M 10.796875 72.90625 
L 49.515625 72.90625 
L 49.515625 64.59375 
L 19.828125 64.59375 
L 19.828125 46.734375 
Q 21.96875 47.46875 24.109375 47.828125 
Q 26.265625 48.1875 28.421875 48.1875 
Q 40.625 48.1875 47.75 41.5 
Q 54.890625 34.8125 54.890625 23.390625 
Q 54.890625 11.625 47.5625 5.09375 
Q 40.234375 -1.421875 26.90625 -1.421875 
Q 22.3125 -1.421875 17.546875 -0.640625 
Q 12.796875 0.140625 7.71875 1.703125 
L 7.71875 11.625 
Q 12.109375 9.234375 16.796875 8.0625 
Q 21.484375 6.890625 26.703125 6.890625 
Q 35.15625 6.890625 40.078125 11.328125 
Q 45.015625 15.765625 45.015625 23.390625 
Q 45.015625 31 40.078125 35.4375 
Q 35.15625 39.890625 26.703125 39.890625 
Q 22.75 39.890625 18.8125 39.015625 
Q 14.890625 38.140625 10.796875 36.28125 
z
" id="DejaVuSans-35"/>
      </defs>
      <g transform="translate(210.924592 251.537656)scale(0.15 -0.15)">
       <use xlink:href="#DejaVuSans-35"/>
      </g>
     </g>
    </g>
    <g id="xtick_7">
     <g id="line2d_13">
      <path clip-path="url(#p302544886e)" d="M 244.809511 230.64 
L 244.809511 13.2 
" style="fill:none;stroke:#b0b0b0;stroke-linecap:square;stroke-width:0.8;"/>
     </g>
     <g id="line2d_14">
      <g>
       <use x="244.809511" xlink:href="#m3499cd5579" y="230.64"/>
      </g>
     </g>
     <g id="text_7">
      <!-- 6 -->
      <defs>
       <path d="M 33.015625 40.375 
Q 26.375 40.375 22.484375 35.828125 
Q 18.609375 31.296875 18.609375 23.390625 
Q 18.609375 15.53125 22.484375 10.953125 
Q 26.375 6.390625 33.015625 6.390625 
Q 39.65625 6.390625 43.53125 10.953125 
Q 47.40625 15.53125 47.40625 23.390625 
Q 47.40625 31.296875 43.53125 35.828125 
Q 39.65625 40.375 33.015625 40.375 
z
M 52.59375 71.296875 
L 52.59375 62.3125 
Q 48.875 64.0625 45.09375 64.984375 
Q 41.3125 65.921875 37.59375 65.921875 
Q 27.828125 65.921875 22.671875 59.328125 
Q 17.53125 52.734375 16.796875 39.40625 
Q 19.671875 43.65625 24.015625 45.921875 
Q 28.375 48.1875 33.59375 48.1875 
Q 44.578125 48.1875 50.953125 41.515625 
Q 57.328125 34.859375 57.328125 23.390625 
Q 57.328125 12.15625 50.6875 5.359375 
Q 44.046875 -1.421875 33.015625 -1.421875 
Q 20.359375 -1.421875 13.671875 8.265625 
Q 6.984375 17.96875 6.984375 36.375 
Q 6.984375 53.65625 15.1875 63.9375 
Q 23.390625 74.21875 37.203125 74.21875 
Q 40.921875 74.21875 44.703125 73.484375 
Q 48.484375 72.75 52.59375 71.296875 
z
" id="DejaVuSans-36"/>
      </defs>
      <g transform="translate(240.037636 251.537656)scale(0.15 -0.15)">
       <use xlink:href="#DejaVuSans-36"/>
      </g>
     </g>
    </g>
    <g id="xtick_8">
     <g id="line2d_15">
      <path clip-path="url(#p302544886e)" d="M 273.922554 230.64 
L 273.922554 13.2 
" style="fill:none;stroke:#b0b0b0;stroke-linecap:square;stroke-width:0.8;"/>
     </g>
     <g id="line2d_16">
      <g>
       <use x="273.922554" xlink:href="#m3499cd5579" y="230.64"/>
      </g>
     </g>
     <g id="text_8">
      <!-- 7 -->
      <defs>
       <path d="M 8.203125 72.90625 
L 55.078125 72.90625 
L 55.078125 68.703125 
L 28.609375 0 
L 18.3125 0 
L 43.21875 64.59375 
L 8.203125 64.59375 
z
" id="DejaVuSans-37"/>
      </defs>
      <g transform="translate(269.150679 251.537656)scale(0.15 -0.15)">
       <use xlink:href="#DejaVuSans-37"/>
      </g>
     </g>
    </g>
    <g id="xtick_9">
     <g id="line2d_17">
      <path clip-path="url(#p302544886e)" d="M 303.035598 230.64 
L 303.035598 13.2 
" style="fill:none;stroke:#b0b0b0;stroke-linecap:square;stroke-width:0.8;"/>
     </g>
     <g id="line2d_18">
      <g>
       <use x="303.035598" xlink:href="#m3499cd5579" y="230.64"/>
      </g>
     </g>
     <g id="text_9">
      <!-- 8 -->
      <defs>
       <path d="M 31.78125 34.625 
Q 24.75 34.625 20.71875 30.859375 
Q 16.703125 27.09375 16.703125 20.515625 
Q 16.703125 13.921875 20.71875 10.15625 
Q 24.75 6.390625 31.78125 6.390625 
Q 38.8125 6.390625 42.859375 10.171875 
Q 46.921875 13.96875 46.921875 20.515625 
Q 46.921875 27.09375 42.890625 30.859375 
Q 38.875 34.625 31.78125 34.625 
z
M 21.921875 38.8125 
Q 15.578125 40.375 12.03125 44.71875 
Q 8.5 49.078125 8.5 55.328125 
Q 8.5 64.0625 14.71875 69.140625 
Q 20.953125 74.21875 31.78125 74.21875 
Q 42.671875 74.21875 48.875 69.140625 
Q 55.078125 64.0625 55.078125 55.328125 
Q 55.078125 49.078125 51.53125 44.71875 
Q 48 40.375 41.703125 38.8125 
Q 48.828125 37.15625 52.796875 32.3125 
Q 56.78125 27.484375 56.78125 20.515625 
Q 56.78125 9.90625 50.3125 4.234375 
Q 43.84375 -1.421875 31.78125 -1.421875 
Q 19.734375 -1.421875 13.25 4.234375 
Q 6.78125 9.90625 6.78125 20.515625 
Q 6.78125 27.484375 10.78125 32.3125 
Q 14.796875 37.15625 21.921875 38.8125 
z
M 18.3125 54.390625 
Q 18.3125 48.734375 21.84375 45.5625 
Q 25.390625 42.390625 31.78125 42.390625 
Q 38.140625 42.390625 41.71875 45.5625 
Q 45.3125 48.734375 45.3125 54.390625 
Q 45.3125 60.0625 41.71875 63.234375 
Q 38.140625 66.40625 31.78125 66.40625 
Q 25.390625 66.40625 21.84375 63.234375 
Q 18.3125 60.0625 18.3125 54.390625 
z
" id="DejaVuSans-38"/>
      </defs>
      <g transform="translate(298.263723 251.537656)scale(0.15 -0.15)">
       <use xlink:href="#DejaVuSans-38"/>
      </g>
     </g>
    </g>
    <g id="xtick_10">
     <g id="line2d_19">
      <path clip-path="url(#p302544886e)" d="M 332.148641 230.64 
L 332.148641 13.2 
" style="fill:none;stroke:#b0b0b0;stroke-linecap:square;stroke-width:0.8;"/>
     </g>
     <g id="line2d_20">
      <g>
       <use x="332.148641" xlink:href="#m3499cd5579" y="230.64"/>
      </g>
     </g>
     <g id="text_10">
      <!-- 9 -->
      <defs>
       <path d="M 10.984375 1.515625 
L 10.984375 10.5 
Q 14.703125 8.734375 18.5 7.8125 
Q 22.3125 6.890625 25.984375 6.890625 
Q 35.75 6.890625 40.890625 13.453125 
Q 46.046875 20.015625 46.78125 33.40625 
Q 43.953125 29.203125 39.59375 26.953125 
Q 35.25 24.703125 29.984375 24.703125 
Q 19.046875 24.703125 12.671875 31.3125 
Q 6.296875 37.9375 6.296875 49.421875 
Q 6.296875 60.640625 12.9375 67.421875 
Q 19.578125 74.21875 30.609375 74.21875 
Q 43.265625 74.21875 49.921875 64.515625 
Q 56.59375 54.828125 56.59375 36.375 
Q 56.59375 19.140625 48.40625 8.859375 
Q 40.234375 -1.421875 26.421875 -1.421875 
Q 22.703125 -1.421875 18.890625 -0.6875 
Q 15.09375 0.046875 10.984375 1.515625 
z
M 30.609375 32.421875 
Q 37.25 32.421875 41.125 36.953125 
Q 45.015625 41.5 45.015625 49.421875 
Q 45.015625 57.28125 41.125 61.84375 
Q 37.25 66.40625 30.609375 66.40625 
Q 23.96875 66.40625 20.09375 61.84375 
Q 16.21875 57.28125 16.21875 49.421875 
Q 16.21875 41.5 20.09375 36.953125 
Q 23.96875 32.421875 30.609375 32.421875 
z
" id="DejaVuSans-39"/>
      </defs>
      <g transform="translate(327.376766 251.537656)scale(0.15 -0.15)">
       <use xlink:href="#DejaVuSans-39"/>
      </g>
     </g>
    </g>
    <g id="xtick_11">
     <g id="line2d_21">
      <path clip-path="url(#p302544886e)" d="M 361.261685 230.64 
L 361.261685 13.2 
" style="fill:none;stroke:#b0b0b0;stroke-linecap:square;stroke-width:0.8;"/>
     </g>
     <g id="line2d_22">
      <g>
       <use x="361.261685" xlink:href="#m3499cd5579" y="230.64"/>
      </g>
     </g>
     <g id="text_11">
      <!-- 10 -->
      <g transform="translate(351.717935 251.537656)scale(0.15 -0.15)">
       <use xlink:href="#DejaVuSans-31"/>
       <use x="63.623047" xlink:href="#DejaVuSans-30"/>
      </g>
     </g>
    </g>
    <g id="text_12">
     <!-- $t/\tau$ -->
     <defs>
      <path d="M 42.28125 54.6875 
L 40.921875 47.703125 
L 23 47.703125 
L 17.1875 18.015625 
Q 16.890625 16.359375 16.75 15.234375 
Q 16.609375 14.109375 16.609375 13.484375 
Q 16.609375 10.359375 18.484375 8.9375 
Q 20.359375 7.515625 24.515625 7.515625 
L 33.59375 7.515625 
L 32.078125 0 
L 23.484375 0 
Q 15.484375 0 11.546875 3.125 
Q 7.625 6.25 7.625 12.59375 
Q 7.625 13.71875 7.765625 15.0625 
Q 7.90625 16.40625 8.203125 18.015625 
L 14.015625 47.703125 
L 6.390625 47.703125 
L 7.8125 54.6875 
L 15.28125 54.6875 
L 18.3125 70.21875 
L 27.296875 70.21875 
L 24.3125 54.6875 
z
" id="DejaVuSans-Oblique-74"/>
      <path d="M 25.390625 72.90625 
L 33.6875 72.90625 
L 8.296875 -9.28125 
L 0 -9.28125 
z
" id="DejaVuSans-2f"/>
      <path d="M 32.859375 9.96875 
Q 34.1875 7.625 39.453125 7.625 
L 43.75 7.625 
L 42.28125 0 
L 36.921875 0 
Q 28.125 0 25 4.6875 
Q 21.921875 9.46875 23.96875 19.828125 
L 29 45.703125 
L 8.453125 45.703125 
L 10.203125 54.6875 
L 60.640625 54.6875 
L 58.890625 45.703125 
L 38.1875 45.703125 
L 33.015625 19.28125 
Q 31.640625 12.203125 32.859375 9.96875 
z
" id="DejaVuSans-Oblique-3c4"/>
     </defs>
     <g transform="translate(202.296467 273.854062)scale(0.2 -0.2)">
      <use transform="translate(0 0.09375)" xlink:href="#DejaVuSans-Oblique-74"/>
      <use transform="translate(39.208984 0.09375)" xlink:href="#DejaVuSans-2f"/>
      <use transform="translate(72.900391 0.09375)" xlink:href="#DejaVuSans-Oblique-3c4"/>
     </g>
    </g>
   </g>
   <g id="matplotlib.axis_2">
    <g id="ytick_1">
     <g id="line2d_23">
      <path clip-path="url(#p302544886e)" d="M 70.13125 230.64 
L 361.261685 230.64 
" style="fill:none;stroke:#b0b0b0;stroke-linecap:square;stroke-width:0.8;"/>
     </g>
     <g id="line2d_24">
      <defs>
       <path d="M 0 0 
L -6 0 
" id="mc4a79b6a3d"/>
      </defs>
      <g>
       <use x="70.13125" xlink:href="#mc4a79b6a3d" y="230.64"/>
      </g>
     </g>
     <g id="text_13">
      <!-- 0 -->
      <g transform="translate(51.0875 236.338828)scale(0.15 -0.15)">
       <use xlink:href="#DejaVuSans-30"/>
      </g>
     </g>
    </g>
    <g id="ytick_2">
     <g id="line2d_25">
      <path clip-path="url(#p302544886e)" d="M 70.13125 194.53162 
L 361.261685 194.53162 
" style="fill:none;stroke:#b0b0b0;stroke-linecap:square;stroke-width:0.8;"/>
     </g>
     <g id="line2d_26">
      <g>
       <use x="70.13125" xlink:href="#mc4a79b6a3d" y="194.53162"/>
      </g>
     </g>
     <g id="text_14">
      <!-- 25 -->
      <g transform="translate(41.54375 200.230448)scale(0.15 -0.15)">
       <use xlink:href="#DejaVuSans-32"/>
       <use x="63.623047" xlink:href="#DejaVuSans-35"/>
      </g>
     </g>
    </g>
    <g id="ytick_3">
     <g id="line2d_27">
      <path clip-path="url(#p302544886e)" d="M 70.13125 158.423239 
L 361.261685 158.423239 
" style="fill:none;stroke:#b0b0b0;stroke-linecap:square;stroke-width:0.8;"/>
     </g>
     <g id="line2d_28">
      <g>
       <use x="70.13125" xlink:href="#mc4a79b6a3d" y="158.423239"/>
      </g>
     </g>
     <g id="text_15">
      <!-- 50 -->
      <g transform="translate(41.54375 164.122067)scale(0.15 -0.15)">
       <use xlink:href="#DejaVuSans-35"/>
       <use x="63.623047" xlink:href="#DejaVuSans-30"/>
      </g>
     </g>
    </g>
    <g id="ytick_4">
     <g id="line2d_29">
      <path clip-path="url(#p302544886e)" d="M 70.13125 122.314859 
L 361.261685 122.314859 
" style="fill:none;stroke:#b0b0b0;stroke-linecap:square;stroke-width:0.8;"/>
     </g>
     <g id="line2d_30">
      <g>
       <use x="70.13125" xlink:href="#mc4a79b6a3d" y="122.314859"/>
      </g>
     </g>
     <g id="text_16">
      <!-- 75 -->
      <g transform="translate(41.54375 128.013687)scale(0.15 -0.15)">
       <use xlink:href="#DejaVuSans-37"/>
       <use x="63.623047" xlink:href="#DejaVuSans-35"/>
      </g>
     </g>
    </g>
    <g id="ytick_5">
     <g id="line2d_31">
      <path clip-path="url(#p302544886e)" d="M 70.13125 86.206479 
L 361.261685 86.206479 
" style="fill:none;stroke:#b0b0b0;stroke-linecap:square;stroke-width:0.8;"/>
     </g>
     <g id="line2d_32">
      <g>
       <use x="70.13125" xlink:href="#mc4a79b6a3d" y="86.206479"/>
      </g>
     </g>
     <g id="text_17">
      <!-- 100 -->
      <g transform="translate(32 91.905307)scale(0.15 -0.15)">
       <use xlink:href="#DejaVuSans-31"/>
       <use x="63.623047" xlink:href="#DejaVuSans-30"/>
       <use x="127.246094" xlink:href="#DejaVuSans-30"/>
      </g>
     </g>
    </g>
    <g id="ytick_6">
     <g id="line2d_33">
      <path clip-path="url(#p302544886e)" d="M 70.13125 50.098098 
L 361.261685 50.098098 
" style="fill:none;stroke:#b0b0b0;stroke-linecap:square;stroke-width:0.8;"/>
     </g>
     <g id="line2d_34">
      <g>
       <use x="70.13125" xlink:href="#mc4a79b6a3d" y="50.098098"/>
      </g>
     </g>
     <g id="text_18">
      <!-- 125 -->
      <g transform="translate(32 55.796926)scale(0.15 -0.15)">
       <use xlink:href="#DejaVuSans-31"/>
       <use x="63.623047" xlink:href="#DejaVuSans-32"/>
       <use x="127.246094" xlink:href="#DejaVuSans-35"/>
      </g>
     </g>
    </g>
    <g id="ytick_7">
     <g id="line2d_35">
      <path clip-path="url(#p302544886e)" d="M 70.13125 13.989718 
L 361.261685 13.989718 
" style="fill:none;stroke:#b0b0b0;stroke-linecap:square;stroke-width:0.8;"/>
     </g>
     <g id="line2d_36">
      <g>
       <use x="70.13125" xlink:href="#mc4a79b6a3d" y="13.989718"/>
      </g>
     </g>
     <g id="text_19">
      <!-- 150 -->
      <g transform="translate(32 19.688546)scale(0.15 -0.15)">
       <use xlink:href="#DejaVuSans-31"/>
       <use x="63.623047" xlink:href="#DejaVuSans-35"/>
       <use x="127.246094" xlink:href="#DejaVuSans-30"/>
      </g>
     </g>
    </g>
    <g id="text_20">
     <!-- Protein Conc ($fl^{-1}$) -->
     <defs>
      <path d="M 19.671875 64.796875 
L 19.671875 37.40625 
L 32.078125 37.40625 
Q 38.96875 37.40625 42.71875 40.96875 
Q 46.484375 44.53125 46.484375 51.125 
Q 46.484375 57.671875 42.71875 61.234375 
Q 38.96875 64.796875 32.078125 64.796875 
z
M 9.8125 72.90625 
L 32.078125 72.90625 
Q 44.34375 72.90625 50.609375 67.359375 
Q 56.890625 61.8125 56.890625 51.125 
Q 56.890625 40.328125 50.609375 34.8125 
Q 44.34375 29.296875 32.078125 29.296875 
L 19.671875 29.296875 
L 19.671875 0 
L 9.8125 0 
z
" id="DejaVuSans-50"/>
      <path d="M 41.109375 46.296875 
Q 39.59375 47.171875 37.8125 47.578125 
Q 36.03125 48 33.890625 48 
Q 26.265625 48 22.1875 43.046875 
Q 18.109375 38.09375 18.109375 28.8125 
L 18.109375 0 
L 9.078125 0 
L 9.078125 54.6875 
L 18.109375 54.6875 
L 18.109375 46.1875 
Q 20.953125 51.171875 25.484375 53.578125 
Q 30.03125 56 36.53125 56 
Q 37.453125 56 38.578125 55.875 
Q 39.703125 55.765625 41.0625 55.515625 
z
" id="DejaVuSans-72"/>
      <path d="M 30.609375 48.390625 
Q 23.390625 48.390625 19.1875 42.75 
Q 14.984375 37.109375 14.984375 27.296875 
Q 14.984375 17.484375 19.15625 11.84375 
Q 23.34375 6.203125 30.609375 6.203125 
Q 37.796875 6.203125 41.984375 11.859375 
Q 46.1875 17.53125 46.1875 27.296875 
Q 46.1875 37.015625 41.984375 42.703125 
Q 37.796875 48.390625 30.609375 48.390625 
z
M 30.609375 56 
Q 42.328125 56 49.015625 48.375 
Q 55.71875 40.765625 55.71875 27.296875 
Q 55.71875 13.875 49.015625 6.21875 
Q 42.328125 -1.421875 30.609375 -1.421875 
Q 18.84375 -1.421875 12.171875 6.21875 
Q 5.515625 13.875 5.515625 27.296875 
Q 5.515625 40.765625 12.171875 48.375 
Q 18.84375 56 30.609375 56 
z
" id="DejaVuSans-6f"/>
      <path d="M 18.3125 70.21875 
L 18.3125 54.6875 
L 36.8125 54.6875 
L 36.8125 47.703125 
L 18.3125 47.703125 
L 18.3125 18.015625 
Q 18.3125 11.328125 20.140625 9.421875 
Q 21.96875 7.515625 27.59375 7.515625 
L 36.8125 7.515625 
L 36.8125 0 
L 27.59375 0 
Q 17.1875 0 13.234375 3.875 
Q 9.28125 7.765625 9.28125 18.015625 
L 9.28125 47.703125 
L 2.6875 47.703125 
L 2.6875 54.6875 
L 9.28125 54.6875 
L 9.28125 70.21875 
z
" id="DejaVuSans-74"/>
      <path d="M 56.203125 29.59375 
L 56.203125 25.203125 
L 14.890625 25.203125 
Q 15.484375 15.921875 20.484375 11.0625 
Q 25.484375 6.203125 34.421875 6.203125 
Q 39.59375 6.203125 44.453125 7.46875 
Q 49.3125 8.734375 54.109375 11.28125 
L 54.109375 2.78125 
Q 49.265625 0.734375 44.1875 -0.34375 
Q 39.109375 -1.421875 33.890625 -1.421875 
Q 20.796875 -1.421875 13.15625 6.1875 
Q 5.515625 13.8125 5.515625 26.8125 
Q 5.515625 40.234375 12.765625 48.109375 
Q 20.015625 56 32.328125 56 
Q 43.359375 56 49.78125 48.890625 
Q 56.203125 41.796875 56.203125 29.59375 
z
M 47.21875 32.234375 
Q 47.125 39.59375 43.09375 43.984375 
Q 39.0625 48.390625 32.421875 48.390625 
Q 24.90625 48.390625 20.390625 44.140625 
Q 15.875 39.890625 15.1875 32.171875 
z
" id="DejaVuSans-65"/>
      <path d="M 9.421875 54.6875 
L 18.40625 54.6875 
L 18.40625 0 
L 9.421875 0 
z
M 9.421875 75.984375 
L 18.40625 75.984375 
L 18.40625 64.59375 
L 9.421875 64.59375 
z
" id="DejaVuSans-69"/>
      <path d="M 54.890625 33.015625 
L 54.890625 0 
L 45.90625 0 
L 45.90625 32.71875 
Q 45.90625 40.484375 42.875 44.328125 
Q 39.84375 48.1875 33.796875 48.1875 
Q 26.515625 48.1875 22.3125 43.546875 
Q 18.109375 38.921875 18.109375 30.90625 
L 18.109375 0 
L 9.078125 0 
L 9.078125 54.6875 
L 18.109375 54.6875 
L 18.109375 46.1875 
Q 21.34375 51.125 25.703125 53.5625 
Q 30.078125 56 35.796875 56 
Q 45.21875 56 50.046875 50.171875 
Q 54.890625 44.34375 54.890625 33.015625 
z
" id="DejaVuSans-6e"/>
      <path id="DejaVuSans-20"/>
      <path d="M 64.40625 67.28125 
L 64.40625 56.890625 
Q 59.421875 61.53125 53.78125 63.8125 
Q 48.140625 66.109375 41.796875 66.109375 
Q 29.296875 66.109375 22.65625 58.46875 
Q 16.015625 50.828125 16.015625 36.375 
Q 16.015625 21.96875 22.65625 14.328125 
Q 29.296875 6.6875 41.796875 6.6875 
Q 48.140625 6.6875 53.78125 8.984375 
Q 59.421875 11.28125 64.40625 15.921875 
L 64.40625 5.609375 
Q 59.234375 2.09375 53.4375 0.328125 
Q 47.65625 -1.421875 41.21875 -1.421875 
Q 24.65625 -1.421875 15.125 8.703125 
Q 5.609375 18.84375 5.609375 36.375 
Q 5.609375 53.953125 15.125 64.078125 
Q 24.65625 74.21875 41.21875 74.21875 
Q 47.75 74.21875 53.53125 72.484375 
Q 59.328125 70.75 64.40625 67.28125 
z
" id="DejaVuSans-43"/>
      <path d="M 48.78125 52.59375 
L 48.78125 44.1875 
Q 44.96875 46.296875 41.140625 47.34375 
Q 37.3125 48.390625 33.40625 48.390625 
Q 24.65625 48.390625 19.8125 42.84375 
Q 14.984375 37.3125 14.984375 27.296875 
Q 14.984375 17.28125 19.8125 11.734375 
Q 24.65625 6.203125 33.40625 6.203125 
Q 37.3125 6.203125 41.140625 7.25 
Q 44.96875 8.296875 48.78125 10.40625 
L 48.78125 2.09375 
Q 45.015625 0.34375 40.984375 -0.53125 
Q 36.96875 -1.421875 32.421875 -1.421875 
Q 20.0625 -1.421875 12.78125 6.34375 
Q 5.515625 14.109375 5.515625 27.296875 
Q 5.515625 40.671875 12.859375 48.328125 
Q 20.21875 56 33.015625 56 
Q 37.15625 56 41.109375 55.140625 
Q 45.0625 54.296875 48.78125 52.59375 
z
" id="DejaVuSans-63"/>
      <path d="M 31 75.875 
Q 24.46875 64.65625 21.28125 53.65625 
Q 18.109375 42.671875 18.109375 31.390625 
Q 18.109375 20.125 21.3125 9.0625 
Q 24.515625 -2 31 -13.1875 
L 23.1875 -13.1875 
Q 15.875 -1.703125 12.234375 9.375 
Q 8.59375 20.453125 8.59375 31.390625 
Q 8.59375 42.28125 12.203125 53.3125 
Q 15.828125 64.359375 23.1875 75.875 
z
" id="DejaVuSans-28"/>
      <path d="M 47.796875 75.984375 
L 46.390625 68.5 
L 37.796875 68.5 
Q 32.90625 68.5 30.6875 66.578125 
Q 28.46875 64.65625 27.390625 59.515625 
L 26.421875 54.6875 
L 41.21875 54.6875 
L 39.890625 47.703125 
L 25.09375 47.703125 
L 15.828125 0 
L 6.78125 0 
L 16.109375 47.703125 
L 7.515625 47.703125 
L 8.796875 54.6875 
L 17.390625 54.6875 
L 18.109375 58.5 
Q 19.96875 68.171875 24.625 72.078125 
Q 29.296875 75.984375 39.3125 75.984375 
z
" id="DejaVuSans-Oblique-66"/>
      <path d="M 18.3125 75.984375 
L 27.296875 75.984375 
L 12.5 0 
L 3.515625 0 
z
" id="DejaVuSans-Oblique-6c"/>
      <path d="M 10.59375 35.5 
L 73.1875 35.5 
L 73.1875 27.203125 
L 10.59375 27.203125 
z
" id="DejaVuSans-2212"/>
      <path d="M 8.015625 75.875 
L 15.828125 75.875 
Q 23.140625 64.359375 26.78125 53.3125 
Q 30.421875 42.28125 30.421875 31.390625 
Q 30.421875 20.453125 26.78125 9.375 
Q 23.140625 -1.703125 15.828125 -13.1875 
L 8.015625 -13.1875 
Q 14.5 -2 17.703125 9.0625 
Q 20.90625 20.125 20.90625 31.390625 
Q 20.90625 42.671875 17.703125 53.65625 
Q 14.5 64.65625 8.015625 75.875 
z
" id="DejaVuSans-29"/>
     </defs>
     <g transform="translate(23.840625 214.12)rotate(-90)scale(0.2 -0.2)">
      <use transform="translate(0 0.684375)" xlink:href="#DejaVuSans-50"/>
      <use transform="translate(60.302734 0.684375)" xlink:href="#DejaVuSans-72"/>
      <use transform="translate(101.416016 0.684375)" xlink:href="#DejaVuSans-6f"/>
      <use transform="translate(162.597656 0.684375)" xlink:href="#DejaVuSans-74"/>
      <use transform="translate(201.806641 0.684375)" xlink:href="#DejaVuSans-65"/>
      <use transform="translate(263.330078 0.684375)" xlink:href="#DejaVuSans-69"/>
      <use transform="translate(291.113281 0.684375)" xlink:href="#DejaVuSans-6e"/>
      <use transform="translate(354.492188 0.684375)" xlink:href="#DejaVuSans-20"/>
      <use transform="translate(386.279297 0.684375)" xlink:href="#DejaVuSans-43"/>
      <use transform="translate(456.103516 0.684375)" xlink:href="#DejaVuSans-6f"/>
      <use transform="translate(517.285156 0.684375)" xlink:href="#DejaVuSans-6e"/>
      <use transform="translate(580.664062 0.684375)" xlink:href="#DejaVuSans-63"/>
      <use transform="translate(635.644531 0.684375)" xlink:href="#DejaVuSans-20"/>
      <use transform="translate(667.431641 0.684375)" xlink:href="#DejaVuSans-28"/>
      <use transform="translate(706.445312 0.684375)" xlink:href="#DejaVuSans-Oblique-66"/>
      <use transform="translate(741.650391 0.684375)" xlink:href="#DejaVuSans-Oblique-6c"/>
      <use transform="translate(776.881302 38.965625)scale(0.7)" xlink:href="#DejaVuSans-2212"/>
      <use transform="translate(835.533646 38.965625)scale(0.7)" xlink:href="#DejaVuSans-31"/>
      <use transform="translate(882.804154 0.684375)" xlink:href="#DejaVuSans-29"/>
     </g>
    </g>
   </g>
   <g id="line2d_37">
    <path clip-path="url(#p302544886e)" d="M 70.194895 160.042657 
L 73.565309 160.204333 
L 76.674581 159.425374 
L 80.049351 152.792378 
L 83.400343 151.771241 
L 86.33675 147.237142 
L 89.562318 128.89193 
L 92.98913 118.380557 
L 96.056833 105.8065 
L 99.314629 102.390135 
L 102.604257 97.928475 
L 105.769459 97.297735 
L 109.403807 99.30599 
L 112.316415 113.949305 
L 115.616462 120.186259 
L 118.896684 121.617218 
L 121.932458 128.657662 
L 125.138622 134.46597 
L 128.474414 134.130764 
L 131.748354 130.97647 
L 134.827377 129.508562 
L 138.182479 132.405169 
L 141.315367 125.598917 
L 144.564205 119.917905 
L 147.896216 124.231226 
L 151.039143 123.331722 
L 154.236029 118.763159 
L 158.778496 124.247821 
L 160.832906 128.515467 
L 164.404039 131.05899 
L 167.284053 130.966202 
L 170.650654 124.851667 
L 173.70605 126.53738 
L 177.038213 126.383314 
L 180.182093 124.644996 
L 183.575025 119.897678 
L 186.739437 119.49087 
L 190.002094 109.704786 
L 193.390719 106.520891 
L 196.354092 105.8276 
L 199.61355 93.028351 
L 202.953827 83.466476 
L 206.151827 82.723101 
L 209.263511 83.368641 
L 212.53436 75.944853 
L 216.209578 75.497531 
L 219.107031 77.579606 
L 222.208355 89.34754 
L 225.412179 87.729016 
L 228.687556 83.461583 
L 232.026145 78.939803 
L 235.117807 81.836824 
L 238.450545 81.520084 
L 241.757691 81.875344 
L 244.812442 79.764088 
L 248.079305 68.951681 
L 251.299988 70.47555 
L 255.063096 75.430249 
L 258.201338 74.759207 
L 260.988965 76.659447 
L 264.551347 76.356151 
L 267.583291 77.446813 
L 270.831116 81.795635 
L 273.979765 79.047212 
L 277.303699 79.533636 
L 280.540732 75.582973 
L 283.6324 62.598224 
L 287.120539 62.98744 
L 290.124619 61.627027 
L 293.367441 60.411716 
L 296.568374 53.844718 
L 299.920353 59.39183 
L 303.061514 63.955652 
L 306.824291 66.906464 
L 309.557776 50.08289 
L 312.843381 55.924135 
L 316.310178 54.992816 
L 319.478537 55.761938 
L 322.551201 59.707666 
L 325.684269 58.830278 
L 329.060664 55.585357 
L 332.220071 58.291753 
L 335.447581 58.914919 
L 338.945927 54.330887 
L 341.887368 59.948759 
L 345.099058 63.61706 
L 348.399055 66.631948 
L 351.644628 73.611492 
L 354.901145 74.023055 
L 358.128115 81.769356 
" style="fill:none;stroke:#4be000;stroke-linecap:square;stroke-width:1.5;"/>
   </g>
   <g id="line2d_38">
    <path clip-path="url(#p302544886e)" d="M 70.194895 157.244272 
L 73.565309 158.632327 
L 76.674581 153.378902 
L 80.049351 154.990468 
L 83.400343 150.171755 
L 86.33675 144.765344 
L 89.562318 146.463224 
L 92.98913 141.57097 
L 96.056833 140.264756 
L 99.314629 141.207356 
L 102.604257 135.190322 
L 105.769459 135.366138 
L 109.403807 132.162719 
L 112.316415 127.913921 
L 115.616462 122.702476 
L 118.896684 120.071157 
L 121.932458 124.637448 
L 125.138622 121.615315 
L 128.474414 122.592929 
L 131.748354 118.407037 
L 134.827377 122.640636 
L 138.182479 119.569694 
L 141.315367 118.199894 
L 144.564205 122.056036 
L 147.896216 122.540455 
L 151.039143 126.865914 
L 154.236029 112.920579 
L 158.778496 98.528517 
L 160.832906 93.250856 
L 164.404039 98.183623 
L 167.284053 97.066395 
L 170.650654 98.046531 
L 173.70605 95.230769 
L 177.038213 102.850665 
L 180.182093 103.515906 
L 183.575025 102.869987 
L 186.739437 100.213468 
L 190.002094 94.413506 
L 193.390719 95.195188 
L 196.354092 74.970374 
L 199.61355 74.677469 
L 202.953827 79.403822 
L 206.151827 84.68041 
L 209.263511 80.370253 
L 212.53436 80.309104 
L 216.209578 73.26755 
L 219.107031 64.309592 
L 222.208355 72.450835 
L 225.412179 69.06449 
L 228.687556 64.164582 
L 232.026145 71.227564 
L 235.117807 75.057788 
L 238.450545 79.908816 
L 241.757691 62.763868 
L 244.812442 57.499012 
L 248.079305 46.231595 
L 251.299988 44.942984 
L 255.063096 44.106656 
L 258.201338 46.400485 
L 260.988965 48.632803 
L 264.551347 50.857827 
L 267.583291 47.26836 
L 270.831116 46.624541 
L 273.979765 15.795655 
L 277.303699 20.766468 
L 280.540732 25.339553 
L 283.6324 24.415535 
L 287.120539 22.933082 
L 290.124619 28.46889 
L 293.367441 31.596189 
L 296.568374 41.250663 
L 299.920353 42.883567 
L 303.061514 46.256436 
L 306.824291 47.300967 
L 309.557776 51.366866 
L 312.843381 56.27483 
L 316.310178 62.997921 
L 319.478537 60.721702 
L 322.551201 37.8896 
L 325.684269 33.529928 
L 329.060664 18.539939 
L 332.220071 25.650644 
L 335.447581 29.309574 
L 338.945927 37.068423 
L 341.887368 38.42881 
L 345.099058 41.487421 
L 348.399055 44.132598 
L 351.644628 44.286572 
L 354.901145 53.132269 
L 358.128115 36.899268 
" style="fill:none;stroke:#4be000;stroke-linecap:square;stroke-width:1.5;"/>
   </g>
   <g id="line2d_39">
    <path clip-path="url(#p302544886e)" d="M 70.194895 161.006148 
L 73.565309 162.490497 
L 76.674581 163.794509 
L 80.049351 161.225372 
L 83.400343 157.42662 
L 86.33675 155.074926 
L 89.562318 149.759077 
L 92.98913 145.654744 
L 96.056833 161.101243 
L 99.314629 155.801607 
L 102.604257 155.457318 
L 105.769459 156.608084 
L 109.403807 149.599314 
L 112.316415 145.777688 
L 115.616462 147.387506 
L 118.896684 149.783436 
L 121.932458 148.095988 
L 125.138622 146.58167 
L 128.474414 147.657102 
L 131.748354 144.478585 
L 134.827377 141.873274 
L 138.182479 135.499575 
L 141.315367 134.228573 
L 144.564205 129.67999 
L 147.896216 125.170734 
L 151.039143 123.781613 
L 154.236029 121.768071 
L 158.778496 110.336958 
L 160.832906 113.478156 
L 164.404039 104.394428 
L 167.284053 98.881966 
L 170.650654 95.855736 
L 173.70605 91.783059 
L 177.038213 93.645087 
L 180.182093 75.843765 
L 183.575025 76.774208 
L 186.739437 82.584014 
L 190.002094 79.931592 
L 193.390719 81.0694 
L 196.354092 85.150691 
L 199.61355 89.760593 
L 202.953827 90.852902 
L 206.151827 85.253203 
L 209.263511 79.148754 
L 212.53436 82.485597 
L 216.209578 86.406049 
L 219.107031 98.835829 
L 222.208355 97.01078 
L 225.412179 95.227246 
L 228.687556 91.081835 
L 232.026145 84.945115 
L 235.117807 88.43936 
L 238.450545 85.057135 
L 241.757691 85.328181 
L 244.812442 76.795068 
L 248.079305 70.408719 
L 251.299988 79.593995 
L 255.063096 83.174127 
L 258.201338 88.658998 
L 260.988965 91.469225 
L 264.551347 93.890841 
L 267.583291 92.53232 
L 270.831116 90.031344 
L 273.979765 96.457123 
L 277.303699 92.141991 
L 280.540732 94.463748 
L 283.6324 90.411744 
L 287.120539 93.795583 
L 290.124619 91.148643 
L 293.367441 84.412418 
L 296.568374 84.964655 
L 299.920353 68.98489 
L 303.061514 67.606397 
L 306.824291 73.037132 
L 309.557776 69.936444 
L 312.843381 74.470467 
L 316.310178 74.58242 
L 319.478537 77.91016 
L 322.551201 79.959667 
L 325.684269 77.405725 
L 329.060664 73.901657 
L 332.220071 78.95171 
L 335.447581 84.046196 
L 338.945927 86.349085 
L 341.887368 87.766926 
L 345.099058 90.726396 
L 348.399055 95.300689 
L 351.644628 98.224198 
L 354.901145 92.992729 
L 358.128115 99.785833 
" style="fill:none;stroke:#4be000;stroke-linecap:square;stroke-width:1.5;"/>
   </g>
   <g id="line2d_40">
    <path clip-path="url(#p302544886e)" d="M 70.194895 156.997177 
L 73.565309 160.054033 
L 76.674581 162.653724 
L 80.049351 162.026221 
L 83.400343 160.730928 
L 86.33675 153.997052 
L 89.562318 148.980002 
L 92.98913 137.409704 
L 96.056833 139.477513 
L 99.314629 137.303423 
L 102.604257 134.563621 
L 105.769459 125.93479 
L 109.403807 120.664226 
L 112.316415 119.371346 
L 115.616462 106.825859 
L 118.896684 97.051387 
L 121.932458 94.711035 
L 125.138622 92.20047 
L 128.474414 80.476427 
L 131.748354 80.051326 
L 134.827377 73.462882 
L 138.182479 75.243057 
L 141.315367 78.449589 
L 144.564205 83.501632 
L 147.896216 89.725695 
L 151.039143 91.046343 
L 154.236029 80.024109 
L 158.778496 73.625093 
L 160.832906 70.914021 
L 164.404039 64.930627 
L 167.284053 69.132803 
L 170.650654 70.813033 
L 173.70605 72.431633 
L 177.038213 74.529286 
L 180.182093 88.9876 
L 183.575025 95.527655 
L 186.739437 100.886841 
L 190.002094 103.411869 
L 193.390719 94.693349 
L 196.354092 94.393357 
L 199.61355 98.351021 
L 202.953827 96.212171 
L 206.151827 94.865529 
L 209.263511 90.890725 
L 212.53436 91.047415 
L 216.209578 87.679227 
L 219.107031 96.18959 
L 222.208355 98.342377 
L 225.412179 98.917454 
L 228.687556 99.475193 
L 232.026145 102.448754 
L 235.117807 103.306095 
L 238.450545 107.33855 
L 241.757691 95.327057 
L 244.812442 88.175114 
L 248.079305 86.774661 
L 251.299988 88.277294 
L 255.063096 85.276867 
L 258.201338 76.419084 
L 260.988965 76.948291 
L 264.551347 77.886606 
L 267.583291 78.329057 
L 270.831116 78.737798 
L 273.979765 83.407295 
L 277.303699 85.671681 
L 280.540732 87.971513 
L 283.6324 86.520602 
L 287.120539 85.349704 
L 290.124619 90.734944 
L 293.367441 83.325653 
L 296.568374 87.661346 
L 299.920353 94.98645 
L 303.061514 102.662143 
L 306.824291 106.683295 
L 309.557776 100.642146 
L 312.843381 97.142386 
L 316.310178 85.453545 
L 319.478537 89.192896 
L 322.551201 82.41892 
L 325.684269 72.878969 
L 329.060664 71.917564 
L 332.220071 78.657753 
L 335.447581 77.768021 
L 338.945927 82.370796 
L 341.887368 79.921775 
L 345.099058 82.169468 
L 348.399055 83.233158 
L 351.644628 85.344815 
L 354.901145 84.817675 
L 358.128115 85.035057 
" style="fill:none;stroke:#4be000;stroke-linecap:square;stroke-width:1.5;"/>
   </g>
   <g id="line2d_41">
    <path clip-path="url(#p302544886e)" d="M 70.194895 157.299606 
L 73.565309 158.72374 
L 76.674581 156.601269 
L 80.049351 148.452071 
L 83.400343 136.33514 
L 86.33675 130.41269 
L 89.562318 128.106353 
L 92.98913 120.421927 
L 96.056833 116.432315 
L 99.314629 126.66215 
L 102.604257 123.803721 
L 105.769459 119.252305 
L 109.403807 122.901829 
L 112.316415 121.085798 
L 115.616462 122.820393 
L 118.896684 122.117428 
L 121.932458 123.172523 
L 125.138622 127.901368 
L 128.474414 129.268139 
L 131.748354 129.972424 
L 134.827377 132.142562 
L 138.182479 135.991961 
L 141.315367 131.935494 
L 144.564205 128.906671 
L 147.896216 123.603007 
L 151.039143 133.163461 
L 154.236029 130.860369 
L 158.778496 130.995277 
L 160.832906 137.781413 
L 164.404039 140.277384 
L 167.284053 138.965967 
L 170.650654 137.097145 
L 173.70605 132.401046 
L 177.038213 131.760099 
L 180.182093 134.658261 
L 183.575025 127.868364 
L 186.739437 124.334105 
L 190.002094 127.510873 
L 193.390719 128.107993 
L 196.354092 127.844194 
L 199.61355 128.953546 
L 202.953827 123.224432 
L 206.151827 118.82966 
L 209.263511 111.858558 
L 212.53436 111.428312 
L 216.209578 110.793454 
L 219.107031 99.848331 
L 222.208355 97.242195 
L 225.412179 96.76295 
L 228.687556 100.438546 
L 232.026145 103.194961 
L 235.117807 88.881129 
L 238.450545 97.153039 
L 241.757691 92.041231 
L 244.812442 95.510304 
L 248.079305 89.15237 
L 251.299988 88.413966 
L 255.063096 89.756678 
L 258.201338 86.343605 
L 260.988965 91.752487 
L 264.551347 91.636511 
L 267.583291 90.882658 
L 270.831116 93.545886 
L 273.979765 102.497687 
L 277.303699 106.627848 
L 280.540732 99.870404 
L 283.6324 95.862066 
L 287.120539 95.043246 
L 290.124619 96.216116 
L 293.367441 87.679537 
L 296.568374 80.741948 
L 299.920353 71.831062 
L 303.061514 71.130301 
L 306.824291 67.721201 
L 309.557776 72.606897 
L 312.843381 79.579198 
L 316.310178 82.603773 
L 319.478537 75.754932 
L 322.551201 75.237292 
L 325.684269 74.934765 
L 329.060664 80.800301 
L 332.220071 84.390337 
L 335.447581 79.829946 
L 338.945927 80.994547 
L 341.887368 85.707511 
L 345.099058 90.607514 
L 348.399055 97.062938 
L 351.644628 96.10616 
L 354.901145 91.760694 
L 358.128115 91.155952 
" style="fill:none;stroke:#4be000;stroke-linecap:square;stroke-width:1.5;"/>
   </g>
   <g id="line2d_42">
    <path clip-path="url(#p302544886e)" d="M 70.194895 158.836584 
L 73.565309 160.463178 
L 76.674581 162.710318 
L 80.049351 168.429816 
L 83.400343 161.723847 
L 86.33675 155.426229 
L 89.562318 163.355977 
L 92.98913 156.704639 
L 96.056833 138.730407 
L 99.314629 134.23454 
L 102.604257 130.40758 
L 105.769459 121.53916 
L 109.403807 114.014651 
L 112.316415 112.357302 
L 115.616462 111.926787 
L 118.896684 116.390517 
L 121.932458 120.956796 
L 125.138622 118.5358 
L 128.474414 115.249175 
L 131.748354 112.884341 
L 134.827377 114.950449 
L 138.182479 104.920579 
L 141.315367 95.890618 
L 144.564205 96.813171 
L 147.896216 102.235654 
L 151.039143 104.7758 
L 154.236029 101.700043 
L 158.778496 97.010548 
L 160.832906 92.902534 
L 164.404039 98.870004 
L 167.284053 105.026013 
L 170.650654 111.376905 
L 173.70605 107.010635 
L 177.038213 110.879761 
L 180.182093 105.526852 
L 183.575025 109.982675 
L 186.739437 105.237768 
L 190.002094 99.274811 
L 193.390719 89.545932 
L 196.354092 80.590881 
L 199.61355 77.921065 
L 202.953827 75.839851 
L 206.151827 78.079546 
L 209.263511 83.887389 
L 212.53436 83.051183 
L 216.209578 84.429121 
L 219.107031 87.756624 
L 222.208355 105.602177 
L 225.412179 101.196328 
L 228.687556 97.361317 
L 232.026145 97.811508 
L 235.117807 92.333606 
L 238.450545 91.71467 
L 241.757691 88.808886 
L 244.812442 89.320509 
L 248.079305 90.366766 
L 251.299988 93.502905 
L 255.063096 85.380728 
L 258.201338 87.044074 
L 260.988965 76.069216 
L 264.551347 79.621757 
L 267.583291 86.222323 
L 270.831116 92.11717 
L 273.979765 93.818309 
L 277.303699 101.234381 
L 280.540732 101.906895 
L 283.6324 108.1962 
L 287.120539 106.254183 
L 290.124619 108.0567 
L 293.367441 106.96498 
L 296.568374 112.051776 
L 299.920353 113.053732 
L 303.061514 106.635024 
L 306.824291 103.834623 
L 309.557776 95.843279 
L 312.843381 87.359666 
L 316.310178 86.550224 
L 319.478537 87.405883 
L 322.551201 83.652032 
L 325.684269 79.974913 
L 329.060664 82.704032 
L 332.220071 85.271712 
L 335.447581 87.253793 
L 338.945927 92.010028 
L 341.887368 86.346592 
L 345.099058 101.583133 
L 348.399055 102.947104 
L 351.644628 108.67227 
L 354.901145 103.33023 
L 358.128115 98.377531 
" style="fill:none;stroke:#4be000;stroke-linecap:square;stroke-width:1.5;"/>
   </g>
   <g id="line2d_43">
    <path clip-path="url(#p302544886e)" d="M 70.194895 157.573238 
L 73.565309 147.685024 
L 76.674581 140.507575 
L 80.049351 140.25667 
L 83.400343 142.393679 
L 86.33675 138.936344 
L 89.562318 135.161584 
L 92.98913 130.557531 
L 96.056833 129.579994 
L 99.314629 129.895276 
L 102.604257 126.366463 
L 105.769459 135.293358 
L 109.403807 135.520979 
L 112.316415 136.257573 
L 115.616462 137.671335 
L 118.896684 132.770341 
L 121.932458 129.889633 
L 125.138622 123.191076 
L 128.474414 117.298859 
L 131.748354 111.057145 
L 134.827377 98.328779 
L 138.182479 91.428924 
L 141.315367 86.441939 
L 144.564205 88.523595 
L 147.896216 85.5738 
L 151.039143 86.799772 
L 154.236029 87.412786 
L 158.778496 81.273729 
L 160.832906 84.374666 
L 164.404039 83.444974 
L 167.284053 80.89865 
L 170.650654 86.497735 
L 173.70605 90.334697 
L 177.038213 90.704657 
L 180.182093 94.370542 
L 183.575025 95.723655 
L 186.739437 100.078241 
L 190.002094 97.134769 
L 193.390719 92.042706 
L 196.354092 89.922529 
L 199.61355 97.252762 
L 202.953827 97.202367 
L 206.151827 99.26442 
L 209.263511 99.824944 
L 212.53436 101.617013 
L 216.209578 100.1014 
L 219.107031 96.301947 
L 222.208355 93.298504 
L 225.412179 66.125201 
L 228.687556 70.387952 
L 232.026145 71.556104 
L 235.117807 74.585267 
L 238.450545 72.565911 
L 241.757691 63.755867 
L 244.812442 62.398712 
L 248.079305 55.716356 
L 251.299988 52.563239 
L 255.063096 46.232339 
L 258.201338 49.18166 
L 260.988965 56.906879 
L 264.551347 52.817567 
L 267.583291 49.722145 
L 270.831116 50.727187 
L 273.979765 29.087155 
L 277.303699 25.081081 
L 280.540732 21.954948 
L 283.6324 31.216699 
L 287.120539 31.499289 
L 290.124619 31.358253 
L 293.367441 29.785813 
L 296.568374 31.912636 
L 299.920353 30.340767 
L 303.061514 32.938899 
L 306.824291 35.326469 
L 309.557776 46.842173 
L 312.843381 48.381581 
L 316.310178 50.66737 
L 319.478537 55.761887 
L 322.551201 56.164982 
L 325.684269 68.178316 
L 329.060664 70.797126 
L 332.220071 73.684501 
L 335.447581 74.895362 
L 338.945927 77.156782 
L 341.887368 75.088544 
L 345.099058 72.608265 
L 348.399055 68.877079 
L 351.644628 68.757503 
L 354.901145 72.298537 
L 358.128115 75.963435 
" style="fill:none;stroke:#4be000;stroke-linecap:square;stroke-width:1.5;"/>
   </g>
   <g id="line2d_44">
    <path clip-path="url(#p302544886e)" d="M 70.194895 158.860836 
L 73.565309 161.155195 
L 76.674581 157.644717 
L 80.049351 151.633677 
L 83.400343 142.732046 
L 86.33675 137.252038 
L 89.562318 138.84212 
L 92.98913 139.806493 
L 96.056833 134.939818 
L 99.314629 133.921806 
L 102.604257 125.069005 
L 105.769459 127.995596 
L 109.403807 119.764714 
L 112.316415 116.732279 
L 115.616462 112.87854 
L 118.896684 110.612632 
L 121.932458 109.710456 
L 125.138622 110.669985 
L 128.474414 104.322 
L 131.748354 105.222797 
L 134.827377 109.500751 
L 138.182479 110.695987 
L 141.315367 105.582815 
L 144.564205 102.026993 
L 147.896216 96.127435 
L 151.039143 92.72298 
L 154.236029 96.795437 
L 158.778496 95.830104 
L 160.832906 97.114221 
L 164.404039 112.24534 
L 167.284053 115.421836 
L 170.650654 115.176575 
L 173.70605 109.593355 
L 177.038213 108.913232 
L 180.182093 112.326029 
L 183.575025 103.763648 
L 186.739437 106.556927 
L 190.002094 98.294682 
L 193.390719 87.134489 
L 196.354092 78.26404 
L 199.61355 73.768568 
L 202.953827 82.415031 
L 206.151827 77.783871 
L 209.263511 77.699112 
L 212.53436 78.709178 
L 216.209578 66.146759 
L 219.107031 56.817589 
L 222.208355 45.082018 
L 225.412179 38.098944 
L 228.687556 36.495193 
L 232.026145 36.782496 
L 235.117807 41.071412 
L 238.450545 45.333117 
L 241.757691 50.060412 
L 244.812442 54.448005 
L 248.079305 59.823885 
L 251.299988 73.652326 
L 255.063096 71.901823 
L 258.201338 76.953682 
L 260.988965 83.177489 
L 264.551347 89.999519 
L 267.583291 96.574783 
L 270.831116 102.112154 
L 273.979765 103.560055 
L 277.303699 108.502311 
L 280.540732 111.805918 
L 283.6324 110.883717 
L 287.120539 106.632801 
L 290.124619 98.031653 
L 293.367441 97.140313 
L 296.568374 94.301488 
L 299.920353 78.81321 
L 303.061514 72.492735 
L 306.824291 67.400713 
L 309.557776 65.686782 
L 312.843381 63.555779 
L 316.310178 62.984355 
L 319.478537 57.813863 
L 322.551201 50.275182 
L 325.684269 46.3177 
L 329.060664 40.357293 
L 332.220071 38.2521 
L 335.447581 43.759519 
L 338.945927 46.252318 
L 341.887368 49.206393 
L 345.099058 48.417738 
L 348.399055 50.908077 
L 351.644628 54.266188 
L 354.901145 54.57999 
L 358.128115 49.933769 
" style="fill:none;stroke:#4be000;stroke-linecap:square;stroke-width:1.5;"/>
   </g>
   <g id="line2d_45">
    <path clip-path="url(#p302544886e)" d="M 70.194895 158.545872 
L 73.565309 154.870835 
L 76.674581 147.859528 
L 80.049351 140.214753 
L 83.400343 133.497879 
L 86.33675 128.152718 
L 89.562318 122.522228 
L 92.98913 123.376843 
L 96.056833 109.826892 
L 99.314629 105.12248 
L 102.604257 103.696536 
L 105.769459 99.507073 
L 109.403807 97.885342 
L 112.316415 93.727702 
L 115.616462 107.649459 
L 118.896684 101.167513 
L 121.932458 100.913356 
L 125.138622 101.262171 
L 128.474414 103.240094 
L 131.748354 107.556043 
L 134.827377 106.146501 
L 138.182479 112.48074 
L 141.315367 116.014264 
L 144.564205 109.835005 
L 147.896216 111.498287 
L 151.039143 106.131523 
L 154.236029 84.552787 
L 158.778496 85.554784 
L 160.832906 82.487599 
L 164.404039 85.825244 
L 167.284053 85.790393 
L 170.650654 81.067308 
L 173.70605 79.697137 
L 177.038213 77.989135 
L 180.182093 76.837659 
L 183.575025 74.793544 
L 186.739437 71.769345 
L 190.002094 47.90111 
L 193.390719 46.557359 
L 196.354092 49.875153 
L 199.61355 47.453192 
L 202.953827 44.359897 
L 206.151827 45.62369 
L 209.263511 46.687667 
L 212.53436 58.157263 
L 216.209578 41.537448 
L 219.107031 40.822199 
L 222.208355 31.480326 
L 225.412179 30.559392 
L 228.687556 32.815354 
L 232.026145 51.311243 
L 235.117807 51.331025 
L 238.450545 59.150938 
L 241.757691 69.893017 
L 244.812442 68.948307 
L 248.079305 67.369727 
L 251.299988 71.163515 
L 255.063096 76.167686 
L 258.201338 77.925612 
L 260.988965 76.52627 
L 264.551347 73.370912 
L 267.583291 69.881555 
L 270.831116 71.641828 
L 273.979765 66.007628 
L 277.303699 73.26735 
L 280.540732 72.435089 
L 283.6324 77.061173 
L 287.120539 76.935632 
L 290.124619 75.624856 
L 293.367441 77.963208 
L 296.568374 83.559711 
L 299.920353 81.83021 
L 303.061514 83.458686 
L 306.824291 81.666074 
L 309.557776 70.74072 
L 312.843381 73.849703 
L 316.310178 74.013137 
L 319.478537 75.609604 
L 322.551201 73.776081 
L 325.684269 78.439333 
L 329.060664 82.499756 
L 332.220071 83.074386 
L 335.447581 91.86838 
L 338.945927 89.918896 
L 341.887368 93.1473 
L 345.099058 91.18849 
L 348.399055 84.37731 
L 351.644628 82.347454 
L 354.901145 87.650734 
L 358.128115 87.96811 
" style="fill:none;stroke:#4be000;stroke-linecap:square;stroke-width:1.5;"/>
   </g>
   <g id="line2d_46">
    <path clip-path="url(#p302544886e)" d="M 70.194895 157.494216 
L 73.565309 151.745876 
L 76.674581 145.226652 
L 80.049351 140.12754 
L 83.400343 135.367889 
L 86.33675 135.96368 
L 89.562318 130.875345 
L 92.98913 128.356031 
L 96.056833 137.567588 
L 99.314629 131.072108 
L 102.604257 127.782739 
L 105.769459 119.348485 
L 109.403807 119.482635 
L 112.316415 114.14862 
L 115.616462 111.338783 
L 118.896684 101.555667 
L 121.932458 95.937354 
L 125.138622 99.911345 
L 128.474414 103.381574 
L 131.748354 113.283093 
L 134.827377 114.231264 
L 138.182479 115.180786 
L 141.315367 107.627525 
L 144.564205 104.247644 
L 147.896216 106.115273 
L 151.039143 115.347489 
L 154.236029 120.420621 
L 158.778496 127.224622 
L 160.832906 129.177913 
L 164.404039 136.583035 
L 167.284053 143.394649 
L 170.650654 138.854859 
L 173.70605 133.780572 
L 177.038213 135.480049 
L 180.182093 139.061681 
L 183.575025 139.549431 
L 186.739437 143.06255 
L 190.002094 142.400947 
L 193.390719 144.432276 
L 196.354092 147.438101 
L 199.61355 148.965839 
L 202.953827 148.823977 
L 206.151827 149.981409 
L 209.263511 144.791647 
L 212.53436 148.215606 
L 216.209578 143.924098 
L 219.107031 141.128638 
L 222.208355 141.718224 
L 225.412179 136.743568 
L 228.687556 129.481522 
L 232.026145 124.558528 
L 235.117807 123.971564 
L 238.450545 117.647167 
L 241.757691 114.51266 
L 244.812442 107.987965 
L 248.079305 103.767919 
L 251.299988 108.674868 
L 255.063096 111.415851 
L 258.201338 114.706025 
L 260.988965 112.033148 
L 264.551347 112.523286 
L 267.583291 113.430035 
L 270.831116 110.627221 
L 273.979765 109.593115 
L 277.303699 105.169814 
L 280.540732 113.253393 
L 283.6324 117.84366 
L 287.120539 122.45682 
L 290.124619 121.035247 
L 293.367441 118.265295 
L 296.568374 114.415348 
L 299.920353 110.58103 
L 303.061514 108.776505 
L 306.824291 105.031006 
L 309.557776 100.729198 
L 312.843381 97.158628 
L 316.310178 95.520563 
L 319.478537 101.034414 
L 322.551201 100.851473 
L 325.684269 100.92981 
L 329.060664 102.747324 
L 332.220071 106.762024 
L 335.447581 110.494504 
L 338.945927 111.213298 
L 341.887368 111.274944 
L 345.099058 108.576424 
L 348.399055 107.758883 
L 351.644628 109.663197 
L 354.901145 111.789223 
L 358.128115 113.158692 
" style="fill:none;stroke:#4be000;stroke-linecap:square;stroke-width:1.5;"/>
   </g>
   <g id="line2d_47">
    <path clip-path="url(#p302544886e)" d="M 70.194895 158.431248 
L 73.565309 157.36603 
L 76.674581 154.871776 
L 80.049351 151.586689 
L 83.400343 148.028137 
L 86.33675 144.062773 
L 89.562318 140.184755 
L 92.98913 136.633794 
L 96.056833 133.202434 
L 99.314629 129.920501 
L 102.604257 126.618574 
L 105.769459 123.868655 
L 109.403807 121.038803 
L 112.316415 118.547627 
L 115.616462 116.042535 
L 118.896684 113.752221 
L 121.932458 111.939849 
L 125.138622 109.817155 
L 128.474414 108.230251 
L 131.748354 106.658142 
L 134.827377 105.02583 
L 138.182479 103.680518 
L 141.315367 102.306346 
L 144.564205 101.08509 
L 147.896216 99.922873 
L 151.039143 99.04614 
L 154.236029 97.924156 
L 158.778496 96.957883 
L 160.832906 96.209017 
L 164.404039 95.361814 
L 167.284053 94.578397 
L 170.650654 93.673752 
L 173.70605 93.372077 
L 177.038213 92.938408 
L 180.182093 92.800246 
L 183.575025 92.767169 
L 186.739437 92.406606 
L 190.002094 91.793303 
L 193.390719 91.844005 
L 196.354092 91.685332 
L 199.61355 91.523997 
L 202.953827 91.199844 
L 206.151827 90.88059 
L 209.263511 90.431273 
L 212.53436 90.214729 
L 216.209578 89.699927 
L 219.107031 89.453594 
L 222.208355 89.031182 
L 225.412179 88.723832 
L 228.687556 88.657668 
L 232.026145 88.661826 
L 235.117807 88.376154 
L 238.450545 88.404635 
L 241.757691 88.27246 
L 244.812442 88.104778 
L 248.079305 88.252322 
L 251.299988 88.01856 
L 255.063096 88.110799 
L 258.201338 88.061462 
L 260.988965 88.076228 
L 264.551347 88.070831 
L 267.583291 88.035506 
L 270.831116 87.854827 
L 273.979765 87.447548 
L 277.303699 87.259188 
L 280.540732 86.813235 
L 283.6324 86.662347 
L 287.120539 86.404592 
L 290.124619 86.288059 
L 293.367441 86.111051 
L 296.568374 85.874667 
L 299.920353 85.949798 
L 303.061514 85.9741 
L 306.824291 85.726229 
L 309.557776 85.863718 
L 312.843381 85.68 
L 316.310178 85.726561 
L 319.478537 86.124345 
L 322.551201 85.802545 
L 325.684269 85.962068 
L 329.060664 86.173437 
L 332.220071 86.299418 
L 335.447581 86.219918 
L 338.945927 86.21352 
L 341.887368 86.48976 
L 345.099058 86.801247 
L 348.399055 86.96892 
L 351.644628 87.107212 
L 354.901145 87.121754 
L 358.128115 87.344914 
" style="fill:none;stroke:#3bb000;stroke-linecap:square;stroke-width:3;"/>
   </g>
   <g id="patch_3">
    <path d="M 70.13125 230.64 
L 70.13125 13.2 
" style="fill:none;stroke:#000000;stroke-linecap:square;stroke-linejoin:miter;stroke-width:2;"/>
   </g>
   <g id="patch_4">
    <path d="M 361.261685 230.64 
L 361.261685 13.2 
" style="fill:none;"/>
   </g>
   <g id="patch_5">
    <path d="M 70.13125 230.64 
L 361.261685 230.64 
" style="fill:none;stroke:#000000;stroke-linecap:square;stroke-linejoin:miter;stroke-width:2;"/>
   </g>
   <g id="patch_6">
    <path d="M 70.13125 13.2 
L 361.261685 13.2 
" style="fill:none;"/>
   </g>
  </g>
  <g id="axes_2">
   <g id="patch_7">
    <path d="M 448.600815 230.64 
L 739.73125 230.64 
L 739.73125 13.2 
L 448.600815 13.2 
z
" style="fill:#ffffff;"/>
   </g>
   <g id="PolyCollection_2">
    <defs>
     <path d="M 448.664461 -55.88509 
L 448.664461 -55.661609 
L 452.034874 -70.66317 
L 455.144146 -92.011424 
L 458.518916 -112.843485 
L 461.869908 -130.222122 
L 464.806315 -143.959962 
L 468.031883 -156.250911 
L 471.458695 -170.216128 
L 474.526398 -183.466093 
L 477.784194 -192.654409 
L 481.073822 -199.827568 
L 484.239024 -200.218113 
L 487.873372 -205.476083 
L 490.78598 -204.767569 
L 494.086027 -205.657443 
L 497.366249 -205.299779 
L 500.402023 -206.391066 
L 503.608187 -207.243726 
L 506.94398 -211.245395 
L 510.217919 -215.87271 
L 513.296942 -215.191361 
L 516.652044 -211.009979 
L 519.784932 -206.835678 
L 523.03377 -202.175599 
L 526.365781 -203.476548 
L 529.508708 -203.30534 
L 532.705594 -204.414172 
L 537.248061 -207.640047 
L 539.302472 -209.258229 
L 542.873604 -208.01171 
L 545.753618 -206.63853 
L 549.12022 -206.530422 
L 552.175615 -202.295083 
L 555.507778 -195.996813 
L 558.651658 -197.723532 
L 562.044591 -198.144619 
L 565.209002 -198.12192 
L 568.47166 -201.789823 
L 571.860284 -201.585439 
L 574.823658 -202.4083 
L 578.083115 -199.548207 
L 581.423393 -198.68798 
L 584.621392 -195.077027 
L 587.733076 -192.346797 
L 591.003925 -189.647635 
L 594.679143 -193.614614 
L 597.576596 -190.62675 
L 600.677921 -194.024311 
L 603.881744 -190.70897 
L 607.157121 -187.212915 
L 610.495711 -184.560734 
L 613.587372 -180.806434 
L 616.920111 -185.501276 
L 620.227256 -185.525445 
L 623.282008 -188.733407 
L 626.54887 -191.355225 
L 629.769553 -193.080169 
L 633.532661 -194.546326 
L 636.670904 -191.870384 
L 639.45853 -189.211536 
L 643.020913 -185.739641 
L 646.052856 -186.441471 
L 649.300681 -191.535116 
L 652.449331 -200.071842 
L 655.773264 -199.241734 
L 659.010297 -198.224553 
L 662.101965 -192.551772 
L 665.590104 -191.622314 
L 668.594185 -187.341496 
L 671.837006 -189.929799 
L 675.03794 -188.50795 
L 678.389918 -191.148185 
L 681.531079 -188.322242 
L 685.293856 -188.25722 
L 688.027341 -189.092446 
L 691.312946 -189.000912 
L 694.779744 -187.280469 
L 697.948102 -188.711035 
L 701.020766 -188.875393 
L 704.153834 -188.284817 
L 707.530229 -188.073826 
L 710.689637 -194.710339 
L 713.917146 -191.078666 
L 717.415493 -188.19904 
L 720.356933 -187.337854 
L 723.568623 -185.300636 
L 726.86862 -188.539916 
L 730.114194 -189.693794 
L 733.37071 -190.765993 
L 736.59768 -191.963115 
L 736.59768 -225.374861 
L 736.59768 -225.374861 
L 733.37071 -223.861289 
L 730.114194 -222.505953 
L 726.86862 -221.047676 
L 723.568623 -216.955564 
L 720.356933 -219.528842 
L 717.415493 -220.616935 
L 713.917146 -224.256582 
L 710.689637 -228.849571 
L 707.530229 -220.458718 
L 704.153834 -220.725322 
L 701.020766 -221.47162 
L 697.948102 -221.263917 
L 694.779744 -219.456343 
L 691.312946 -221.630246 
L 688.027341 -221.745926 
L 685.293856 -220.690451 
L 681.531079 -220.772613 
L 678.389918 -224.344474 
L 675.03794 -221.007281 
L 671.837006 -222.804257 
L 668.594185 -219.533443 
L 665.590104 -224.943936 
L 662.101965 -226.119249 
L 659.010297 -233.296958 
L 655.773264 -234.58478 
L 652.449331 -235.635932 
L 649.300681 -224.833684 
L 646.052856 -218.396467 
L 643.020913 -217.510001 
L 639.45853 -221.896433 
L 636.670904 -225.257604 
L 633.532661 -228.642076 
L 629.769553 -226.787505 
L 626.54887 -224.606237 
L 623.282008 -221.292188 
L 620.227256 -217.239478 
L 616.920111 -217.208955 
L 613.587372 -211.282356 
L 610.495711 -216.021218 
L 607.157121 -219.370999 
L 603.881744 -223.789201 
L 600.677921 -227.981711 
L 597.576596 -223.685261 
L 594.679143 -227.463477 
L 591.003925 -222.44761 
L 587.733076 -225.860037 
L 584.621392 -229.313495 
L 581.423393 -233.883659 
L 578.083115 -234.972843 
L 574.823658 -238.595402 
L 571.860284 -237.552984 
L 568.47166 -237.811887 
L 565.209002 -233.16703 
L 562.044591 -233.195766 
L 558.651658 -232.662719 
L 555.507778 -230.477324 
L 552.175615 -238.451967 
L 549.12022 -243.819723 
L 545.753618 -243.95679 
L 542.873604 -245.698028 
L 539.302472 -247.279024 
L 537.248061 -245.226705 
L 532.705594 -241.137133 
L 529.508708 -239.731969 
L 526.365781 -239.948913 
L 523.03377 -238.300595 
L 519.784932 -244.206754 
L 516.652044 -249.501409 
L 513.296942 -254.808944 
L 510.217919 -255.674165 
L 506.94398 -249.800126 
L 503.608187 -244.724146 
L 500.402023 -243.643042 
L 497.366249 -242.259619 
L 494.086027 -242.712999 
L 490.78598 -241.585034 
L 487.873372 -242.483101 
L 484.239024 -235.821169 
L 481.073822 -235.326595 
L 477.784194 -226.249047 
L 474.526398 -214.639152 
L 471.458695 -197.933629 
L 468.031883 -180.37517 
L 464.806315 -164.965662 
L 461.869908 -147.794087 
L 458.518916 -126.157231 
L 455.144146 -100.364107 
L 452.034874 -74.133595 
L 448.664461 -55.88509 
z
" id="me6361e306d"/>
    </defs>
    <g clip-path="url(#pdbe1bbc8ed)">
     <use style="fill:#4be000;" x="0" xlink:href="#me6361e306d" y="285.213437"/>
    </g>
   </g>
   <g id="matplotlib.axis_3">
    <g id="xtick_12">
     <g id="line2d_48">
      <path clip-path="url(#pdbe1bbc8ed)" d="M 448.600815 230.64 
L 448.600815 13.2 
" style="fill:none;stroke:#b0b0b0;stroke-linecap:square;stroke-width:0.8;"/>
     </g>
     <g id="line2d_49">
      <g>
       <use x="448.600815" xlink:href="#m3499cd5579" y="230.64"/>
      </g>
     </g>
     <g id="text_21">
      <!-- 0 -->
      <g transform="translate(443.82894 251.537656)scale(0.15 -0.15)">
       <use xlink:href="#DejaVuSans-30"/>
      </g>
     </g>
    </g>
    <g id="xtick_13">
     <g id="line2d_50">
      <path clip-path="url(#pdbe1bbc8ed)" d="M 477.713859 230.64 
L 477.713859 13.2 
" style="fill:none;stroke:#b0b0b0;stroke-linecap:square;stroke-width:0.8;"/>
     </g>
     <g id="line2d_51">
      <g>
       <use x="477.713859" xlink:href="#m3499cd5579" y="230.64"/>
      </g>
     </g>
     <g id="text_22">
      <!-- 1 -->
      <g transform="translate(472.941984 251.537656)scale(0.15 -0.15)">
       <use xlink:href="#DejaVuSans-31"/>
      </g>
     </g>
    </g>
    <g id="xtick_14">
     <g id="line2d_52">
      <path clip-path="url(#pdbe1bbc8ed)" d="M 506.826902 230.64 
L 506.826902 13.2 
" style="fill:none;stroke:#b0b0b0;stroke-linecap:square;stroke-width:0.8;"/>
     </g>
     <g id="line2d_53">
      <g>
       <use x="506.826902" xlink:href="#m3499cd5579" y="230.64"/>
      </g>
     </g>
     <g id="text_23">
      <!-- 2 -->
      <g transform="translate(502.055027 251.537656)scale(0.15 -0.15)">
       <use xlink:href="#DejaVuSans-32"/>
      </g>
     </g>
    </g>
    <g id="xtick_15">
     <g id="line2d_54">
      <path clip-path="url(#pdbe1bbc8ed)" d="M 535.939946 230.64 
L 535.939946 13.2 
" style="fill:none;stroke:#b0b0b0;stroke-linecap:square;stroke-width:0.8;"/>
     </g>
     <g id="line2d_55">
      <g>
       <use x="535.939946" xlink:href="#m3499cd5579" y="230.64"/>
      </g>
     </g>
     <g id="text_24">
      <!-- 3 -->
      <g transform="translate(531.168071 251.537656)scale(0.15 -0.15)">
       <use xlink:href="#DejaVuSans-33"/>
      </g>
     </g>
    </g>
    <g id="xtick_16">
     <g id="line2d_56">
      <path clip-path="url(#pdbe1bbc8ed)" d="M 565.052989 230.64 
L 565.052989 13.2 
" style="fill:none;stroke:#b0b0b0;stroke-linecap:square;stroke-width:0.8;"/>
     </g>
     <g id="line2d_57">
      <g>
       <use x="565.052989" xlink:href="#m3499cd5579" y="230.64"/>
      </g>
     </g>
     <g id="text_25">
      <!-- 4 -->
      <g transform="translate(560.281114 251.537656)scale(0.15 -0.15)">
       <use xlink:href="#DejaVuSans-34"/>
      </g>
     </g>
    </g>
    <g id="xtick_17">
     <g id="line2d_58">
      <path clip-path="url(#pdbe1bbc8ed)" d="M 594.166033 230.64 
L 594.166033 13.2 
" style="fill:none;stroke:#b0b0b0;stroke-linecap:square;stroke-width:0.8;"/>
     </g>
     <g id="line2d_59">
      <g>
       <use x="594.166033" xlink:href="#m3499cd5579" y="230.64"/>
      </g>
     </g>
     <g id="text_26">
      <!-- 5 -->
      <g transform="translate(589.394158 251.537656)scale(0.15 -0.15)">
       <use xlink:href="#DejaVuSans-35"/>
      </g>
     </g>
    </g>
    <g id="xtick_18">
     <g id="line2d_60">
      <path clip-path="url(#pdbe1bbc8ed)" d="M 623.279076 230.64 
L 623.279076 13.2 
" style="fill:none;stroke:#b0b0b0;stroke-linecap:square;stroke-width:0.8;"/>
     </g>
     <g id="line2d_61">
      <g>
       <use x="623.279076" xlink:href="#m3499cd5579" y="230.64"/>
      </g>
     </g>
     <g id="text_27">
      <!-- 6 -->
      <g transform="translate(618.507201 251.537656)scale(0.15 -0.15)">
       <use xlink:href="#DejaVuSans-36"/>
      </g>
     </g>
    </g>
    <g id="xtick_19">
     <g id="line2d_62">
      <path clip-path="url(#pdbe1bbc8ed)" d="M 652.39212 230.64 
L 652.39212 13.2 
" style="fill:none;stroke:#b0b0b0;stroke-linecap:square;stroke-width:0.8;"/>
     </g>
     <g id="line2d_63">
      <g>
       <use x="652.39212" xlink:href="#m3499cd5579" y="230.64"/>
      </g>
     </g>
     <g id="text_28">
      <!-- 7 -->
      <g transform="translate(647.620245 251.537656)scale(0.15 -0.15)">
       <use xlink:href="#DejaVuSans-37"/>
      </g>
     </g>
    </g>
    <g id="xtick_20">
     <g id="line2d_64">
      <path clip-path="url(#pdbe1bbc8ed)" d="M 681.505163 230.64 
L 681.505163 13.2 
" style="fill:none;stroke:#b0b0b0;stroke-linecap:square;stroke-width:0.8;"/>
     </g>
     <g id="line2d_65">
      <g>
       <use x="681.505163" xlink:href="#m3499cd5579" y="230.64"/>
      </g>
     </g>
     <g id="text_29">
      <!-- 8 -->
      <g transform="translate(676.733288 251.537656)scale(0.15 -0.15)">
       <use xlink:href="#DejaVuSans-38"/>
      </g>
     </g>
    </g>
    <g id="xtick_21">
     <g id="line2d_66">
      <path clip-path="url(#pdbe1bbc8ed)" d="M 710.618207 230.64 
L 710.618207 13.2 
" style="fill:none;stroke:#b0b0b0;stroke-linecap:square;stroke-width:0.8;"/>
     </g>
     <g id="line2d_67">
      <g>
       <use x="710.618207" xlink:href="#m3499cd5579" y="230.64"/>
      </g>
     </g>
     <g id="text_30">
      <!-- 9 -->
      <g transform="translate(705.846332 251.537656)scale(0.15 -0.15)">
       <use xlink:href="#DejaVuSans-39"/>
      </g>
     </g>
    </g>
    <g id="xtick_22">
     <g id="line2d_68">
      <path clip-path="url(#pdbe1bbc8ed)" d="M 739.73125 230.64 
L 739.73125 13.2 
" style="fill:none;stroke:#b0b0b0;stroke-linecap:square;stroke-width:0.8;"/>
     </g>
     <g id="line2d_69">
      <g>
       <use x="739.73125" xlink:href="#m3499cd5579" y="230.64"/>
      </g>
     </g>
     <g id="text_31">
      <!-- 10 -->
      <g transform="translate(730.1875 251.537656)scale(0.15 -0.15)">
       <use xlink:href="#DejaVuSans-31"/>
       <use x="63.623047" xlink:href="#DejaVuSans-30"/>
      </g>
     </g>
    </g>
    <g id="text_32">
     <!-- $t/\tau$ -->
     <g transform="translate(580.766033 273.854062)scale(0.2 -0.2)">
      <use transform="translate(0 0.09375)" xlink:href="#DejaVuSans-Oblique-74"/>
      <use transform="translate(39.208984 0.09375)" xlink:href="#DejaVuSans-2f"/>
      <use transform="translate(72.900391 0.09375)" xlink:href="#DejaVuSans-Oblique-3c4"/>
     </g>
    </g>
   </g>
   <g id="matplotlib.axis_4">
    <g id="ytick_8">
     <g id="line2d_70">
      <path clip-path="url(#pdbe1bbc8ed)" d="M 448.600815 230.64 
L 739.73125 230.64 
" style="fill:none;stroke:#b0b0b0;stroke-linecap:square;stroke-width:0.8;"/>
     </g>
     <g id="line2d_71">
      <g>
       <use x="448.600815" xlink:href="#mc4a79b6a3d" y="230.64"/>
      </g>
     </g>
     <g id="text_33">
      <!-- 0.000 -->
      <defs>
       <path d="M 10.6875 12.40625 
L 21 12.40625 
L 21 0 
L 10.6875 0 
z
" id="DejaVuSans-2e"/>
      </defs>
      <g transform="translate(396.158628 236.338828)scale(0.15 -0.15)">
       <use xlink:href="#DejaVuSans-30"/>
       <use x="63.623047" xlink:href="#DejaVuSans-2e"/>
       <use x="95.410156" xlink:href="#DejaVuSans-30"/>
       <use x="159.033203" xlink:href="#DejaVuSans-30"/>
       <use x="222.65625" xlink:href="#DejaVuSans-30"/>
      </g>
     </g>
    </g>
    <g id="ytick_9">
     <g id="line2d_72">
      <path clip-path="url(#pdbe1bbc8ed)" d="M 448.600815 196.940034 
L 739.73125 196.940034 
" style="fill:none;stroke:#b0b0b0;stroke-linecap:square;stroke-width:0.8;"/>
     </g>
     <g id="line2d_73">
      <g>
       <use x="448.600815" xlink:href="#mc4a79b6a3d" y="196.940034"/>
      </g>
     </g>
     <g id="text_34">
      <!-- 0.004 -->
      <g transform="translate(396.158628 202.638862)scale(0.15 -0.15)">
       <use xlink:href="#DejaVuSans-30"/>
       <use x="63.623047" xlink:href="#DejaVuSans-2e"/>
       <use x="95.410156" xlink:href="#DejaVuSans-30"/>
       <use x="159.033203" xlink:href="#DejaVuSans-30"/>
       <use x="222.65625" xlink:href="#DejaVuSans-34"/>
      </g>
     </g>
    </g>
    <g id="ytick_10">
     <g id="line2d_74">
      <path clip-path="url(#pdbe1bbc8ed)" d="M 448.600815 163.240067 
L 739.73125 163.240067 
" style="fill:none;stroke:#b0b0b0;stroke-linecap:square;stroke-width:0.8;"/>
     </g>
     <g id="line2d_75">
      <g>
       <use x="448.600815" xlink:href="#mc4a79b6a3d" y="163.240067"/>
      </g>
     </g>
     <g id="text_35">
      <!-- 0.008 -->
      <g transform="translate(396.158628 168.938895)scale(0.15 -0.15)">
       <use xlink:href="#DejaVuSans-30"/>
       <use x="63.623047" xlink:href="#DejaVuSans-2e"/>
       <use x="95.410156" xlink:href="#DejaVuSans-30"/>
       <use x="159.033203" xlink:href="#DejaVuSans-30"/>
       <use x="222.65625" xlink:href="#DejaVuSans-38"/>
      </g>
     </g>
    </g>
    <g id="ytick_11">
     <g id="line2d_76">
      <path clip-path="url(#pdbe1bbc8ed)" d="M 448.600815 129.540101 
L 739.73125 129.540101 
" style="fill:none;stroke:#b0b0b0;stroke-linecap:square;stroke-width:0.8;"/>
     </g>
     <g id="line2d_77">
      <g>
       <use x="448.600815" xlink:href="#mc4a79b6a3d" y="129.540101"/>
      </g>
     </g>
     <g id="text_36">
      <!-- 0.012 -->
      <g transform="translate(396.158628 135.238929)scale(0.15 -0.15)">
       <use xlink:href="#DejaVuSans-30"/>
       <use x="63.623047" xlink:href="#DejaVuSans-2e"/>
       <use x="95.410156" xlink:href="#DejaVuSans-30"/>
       <use x="159.033203" xlink:href="#DejaVuSans-31"/>
       <use x="222.65625" xlink:href="#DejaVuSans-32"/>
      </g>
     </g>
    </g>
    <g id="ytick_12">
     <g id="line2d_78">
      <path clip-path="url(#pdbe1bbc8ed)" d="M 448.600815 95.840134 
L 739.73125 95.840134 
" style="fill:none;stroke:#b0b0b0;stroke-linecap:square;stroke-width:0.8;"/>
     </g>
     <g id="line2d_79">
      <g>
       <use x="448.600815" xlink:href="#mc4a79b6a3d" y="95.840134"/>
      </g>
     </g>
     <g id="text_37">
      <!-- 0.016 -->
      <g transform="translate(396.158628 101.538962)scale(0.15 -0.15)">
       <use xlink:href="#DejaVuSans-30"/>
       <use x="63.623047" xlink:href="#DejaVuSans-2e"/>
       <use x="95.410156" xlink:href="#DejaVuSans-30"/>
       <use x="159.033203" xlink:href="#DejaVuSans-31"/>
       <use x="222.65625" xlink:href="#DejaVuSans-36"/>
      </g>
     </g>
    </g>
    <g id="ytick_13">
     <g id="line2d_80">
      <path clip-path="url(#pdbe1bbc8ed)" d="M 448.600815 62.140168 
L 739.73125 62.140168 
" style="fill:none;stroke:#b0b0b0;stroke-linecap:square;stroke-width:0.8;"/>
     </g>
     <g id="line2d_81">
      <g>
       <use x="448.600815" xlink:href="#mc4a79b6a3d" y="62.140168"/>
      </g>
     </g>
     <g id="text_38">
      <!-- 0.020 -->
      <g transform="translate(396.158628 67.838996)scale(0.15 -0.15)">
       <use xlink:href="#DejaVuSans-30"/>
       <use x="63.623047" xlink:href="#DejaVuSans-2e"/>
       <use x="95.410156" xlink:href="#DejaVuSans-30"/>
       <use x="159.033203" xlink:href="#DejaVuSans-32"/>
       <use x="222.65625" xlink:href="#DejaVuSans-30"/>
      </g>
     </g>
    </g>
    <g id="ytick_14">
     <g id="line2d_82">
      <path clip-path="url(#pdbe1bbc8ed)" d="M 448.600815 28.440201 
L 739.73125 28.440201 
" style="fill:none;stroke:#b0b0b0;stroke-linecap:square;stroke-width:0.8;"/>
     </g>
     <g id="line2d_83">
      <g>
       <use x="448.600815" xlink:href="#mc4a79b6a3d" y="28.440201"/>
      </g>
     </g>
     <g id="text_39">
      <!-- 0.024 -->
      <g transform="translate(396.158628 34.139029)scale(0.15 -0.15)">
       <use xlink:href="#DejaVuSans-30"/>
       <use x="63.623047" xlink:href="#DejaVuSans-2e"/>
       <use x="95.410156" xlink:href="#DejaVuSans-30"/>
       <use x="159.033203" xlink:href="#DejaVuSans-32"/>
       <use x="222.65625" xlink:href="#DejaVuSans-34"/>
      </g>
     </g>
    </g>
    <g id="text_40">
     <!-- $C_V^2(p)$ -->
     <defs>
      <path d="M 69.484375 67.28125 
L 67.484375 56.890625 
Q 62.796875 61.625 57.546875 63.921875 
Q 52.296875 66.21875 46.1875 66.21875 
Q 37.84375 66.21875 31.515625 62.203125 
Q 25.203125 58.203125 20.609375 50 
Q 17.671875 44.734375 16.125 38.84375 
Q 14.59375 32.953125 14.59375 27 
Q 14.59375 17.046875 19.75 11.8125 
Q 24.90625 6.59375 34.71875 6.59375 
Q 41.5 6.59375 47.75 8.765625 
Q 54 10.9375 59.90625 15.28125 
L 57.625 3.609375 
Q 51.8125 1.125 45.875 -0.140625 
Q 39.9375 -1.421875 33.984375 -1.421875 
Q 19.96875 -1.421875 12.078125 6.1875 
Q 4.203125 13.8125 4.203125 27.390625 
Q 4.203125 36.078125 7.203125 44.46875 
Q 10.203125 52.875 15.828125 59.8125 
Q 21.78125 67.1875 29.421875 70.703125 
Q 37.0625 74.21875 47.21875 74.21875 
Q 53.46875 74.21875 59.0625 72.484375 
Q 64.65625 70.75 69.484375 67.28125 
z
" id="DejaVuSans-Oblique-43"/>
      <path d="M 20.609375 0 
L 7.8125 72.90625 
L 17.484375 72.90625 
L 28.078125 10.203125 
L 63.484375 72.90625 
L 74.21875 72.90625 
L 32.078125 0 
z
" id="DejaVuSans-Oblique-56"/>
      <path d="M 49.609375 33.6875 
Q 49.609375 40.875 46.484375 44.671875 
Q 43.359375 48.484375 37.5 48.484375 
Q 33.5 48.484375 29.859375 46.4375 
Q 26.21875 44.390625 23.390625 40.484375 
Q 20.609375 36.625 18.9375 31.15625 
Q 17.28125 25.6875 17.28125 20.3125 
Q 17.28125 13.484375 20.40625 9.796875 
Q 23.53125 6.109375 29.296875 6.109375 
Q 33.546875 6.109375 37.1875 8.109375 
Q 40.828125 10.109375 43.40625 13.921875 
Q 46.1875 17.921875 47.890625 23.34375 
Q 49.609375 28.765625 49.609375 33.6875 
z
M 21.78125 46.390625 
Q 25.390625 51.125 30.296875 53.5625 
Q 35.203125 56 41.21875 56 
Q 49.609375 56 54.25 50.5 
Q 58.890625 45.015625 58.890625 35.109375 
Q 58.890625 27 56 19.65625 
Q 53.125 12.3125 47.703125 6.5 
Q 44.09375 2.640625 39.546875 0.609375 
Q 35.015625 -1.421875 29.984375 -1.421875 
Q 24.171875 -1.421875 20.21875 1 
Q 16.265625 3.421875 14.3125 8.203125 
L 8.6875 -20.796875 
L -0.296875 -20.796875 
L 14.40625 54.6875 
L 23.390625 54.6875 
z
" id="DejaVuSans-Oblique-70"/>
     </defs>
     <g transform="translate(386.558628 148.52)rotate(-90)scale(0.2 -0.2)">
      <use transform="translate(0 0.765625)" xlink:href="#DejaVuSans-Oblique-43"/>
      <use transform="translate(77.02474 39.046875)scale(0.7)" xlink:href="#DejaVuSans-32"/>
      <use transform="translate(69.824219 -26.578125)scale(0.7)" xlink:href="#DejaVuSans-Oblique-56"/>
      <use transform="translate(124.295247 0.765625)" xlink:href="#DejaVuSans-28"/>
      <use transform="translate(163.308919 0.765625)" xlink:href="#DejaVuSans-Oblique-70"/>
      <use transform="translate(226.785482 0.765625)" xlink:href="#DejaVuSans-29"/>
     </g>
    </g>
   </g>
   <g id="line2d_84">
    <path clip-path="url(#pdbe1bbc8ed)" d="M 448.664461 229.440088 
L 452.034874 212.815055 
L 455.144146 189.025672 
L 458.518916 165.71308 
L 461.869908 146.205333 
L 464.806315 130.750626 
L 468.031883 116.900397 
L 471.458695 101.138559 
L 474.526398 86.160815 
L 477.784194 75.761709 
L 481.073822 67.636356 
L 484.239024 67.193796 
L 487.873372 61.233846 
L 490.78598 62.037136 
L 494.086027 61.028217 
L 497.366249 61.433739 
L 500.402023 60.196383 
L 503.608187 59.229502 
L 506.94398 54.690677 
L 510.217919 49.44 
L 513.296942 50.213285 
L 516.652044 54.957743 
L 519.784932 59.692221 
L 523.03377 64.975341 
L 526.365781 63.500707 
L 529.508708 63.694783 
L 532.705594 62.437785 
L 537.248061 58.780062 
L 539.302472 56.944811 
L 542.873604 58.358569 
L 545.753618 59.915777 
L 549.12022 60.038365 
L 552.175615 64.839913 
L 555.507778 71.976369 
L 558.651658 70.020312 
L 562.044591 69.543245 
L 565.209002 69.568962 
L 568.47166 65.412583 
L 571.860284 65.644226 
L 574.823658 64.711586 
L 578.083115 67.952913 
L 581.423393 68.927618 
L 584.621392 73.018176 
L 587.733076 76.110021 
L 591.003925 79.165815 
L 594.679143 74.674392 
L 597.576596 78.057432 
L 600.677921 74.210427 
L 603.881744 77.964352 
L 607.157121 81.921481 
L 610.495711 84.922461 
L 613.587372 89.169042 
L 616.920111 83.858322 
L 620.227256 83.830976 
L 623.282008 80.20064 
L 626.54887 77.232706 
L 629.769553 75.279601 
L 633.532661 73.619237 
L 636.670904 76.649444 
L 639.45853 79.659453 
L 643.020913 83.588616 
L 646.052856 82.794468 
L 649.300681 77.029038 
L 652.449331 67.35955 
L 655.773264 68.300181 
L 659.010297 69.452682 
L 662.101965 75.877927 
L 665.590104 76.930313 
L 668.594185 81.775968 
L 671.837006 78.84641 
L 675.03794 80.455822 
L 678.389918 77.467108 
L 681.531079 80.66601 
L 685.293856 80.739602 
L 688.027341 79.794251 
L 691.312946 79.897859 
L 694.779744 81.845032 
L 697.948102 80.225962 
L 701.020766 80.039931 
L 704.153834 80.708368 
L 707.530229 80.947166 
L 710.689637 73.433483 
L 713.917146 77.545813 
L 717.415493 80.80545 
L 720.356933 81.78009 
L 723.568623 84.085337 
L 726.86862 80.419641 
L 730.114194 79.113564 
L 733.37071 77.899797 
L 736.59768 76.544449 
" style="fill:none;stroke:#3bb000;stroke-linecap:square;stroke-width:3;"/>
   </g>
   <g id="patch_8">
    <path d="M 448.600815 230.64 
L 448.600815 13.2 
" style="fill:none;stroke:#000000;stroke-linecap:square;stroke-linejoin:miter;stroke-width:2;"/>
   </g>
   <g id="patch_9">
    <path d="M 739.73125 230.64 
L 739.73125 13.2 
" style="fill:none;"/>
   </g>
   <g id="patch_10">
    <path d="M 448.600815 230.64 
L 739.73125 230.64 
" style="fill:none;stroke:#000000;stroke-linecap:square;stroke-linejoin:miter;stroke-width:2;"/>
   </g>
   <g id="patch_11">
    <path d="M 448.600815 13.2 
L 739.73125 13.2 
" style="fill:none;"/>
   </g>
  </g>
 </g>
 <defs>
  <clipPath id="p302544886e">
   <rect height="217.44" width="291.130435" x="70.13125" y="13.2"/>
  </clipPath>
  <clipPath id="pdbe1bbc8ed">
   <rect height="217.44" width="291.130435" x="448.600815" y="13.2"/>
  </clipPath>
 </defs>
</svg>
