<?xml version="1.0" encoding="utf-8" standalone="no"?>
<!DOCTYPE svg PUBLIC "-//W3C//DTD SVG 1.1//EN"
  "http://www.w3.org/Graphics/SVG/1.1/DTD/svg11.dtd">
<!-- Created with matplotlib (http://matplotlib.org/) -->
<svg height="339.573438pt" version="1.1" viewBox="0 0 918.8875 339.573438" width="918.8875pt" xmlns="http://www.w3.org/2000/svg" xmlns:xlink="http://www.w3.org/1999/xlink">
 <defs>
  <style type="text/css">
*{stroke-linecap:butt;stroke-linejoin:round;}
  </style>
 </defs>
 <g id="figure_1">
  <g id="patch_1">
   <path d="M 0 339.573438 
L 918.8875 339.573438 
L 918.8875 0 
L 0 0 
z
" style="fill:#ffffff;"/>
  </g>
  <g id="axes_1">
   <g id="patch_2">
    <path d="M 68.6875 285 
L 432.600543 285 
L 432.600543 13.2 
L 68.6875 13.2 
z
" style="fill:#ffffff;"/>
   </g>
   <g id="PolyCollection_1">
    <defs>
     <path d="M 68.6875 -66.927983 
L 68.6875 -66.927983 
L 74.752717 -69.564759 
L 80.817935 -76.496383 
L 86.883152 -86.34634 
L 92.94837 -97.354875 
L 99.013587 -109.067069 
L 105.078804 -121.193255 
L 111.144022 -133.409488 
L 117.209239 -145.074166 
L 123.274457 -155.964633 
L 129.339674 -166.003603 
L 135.404891 -176.113334 
L 141.470109 -185.223537 
L 147.535326 -193.445756 
L 153.600543 -200.675585 
L 159.665761 -208.151794 
L 165.730978 -214.99192 
L 171.796196 -221.298908 
L 177.861413 -227.672352 
L 183.92663 -233.80163 
L 189.991848 -239.988024 
L 196.057065 -245.530537 
L 202.122283 -250.784213 
L 208.1875 -255.345555 
L 214.252717 -259.199872 
L 220.317935 -262.992389 
L 226.383152 -266.372094 
L 232.44837 -269.308325 
L 238.513587 -273.21229 
L 244.578804 -275.72588 
L 250.644022 -277.924764 
L 256.709239 -280.514448 
L 262.774457 -282.752282 
L 268.839674 -284.928631 
L 274.904891 -286.570648 
L 280.970109 -287.769093 
L 287.035326 -289.755135 
L 293.100543 -291.12695 
L 299.165761 -293.723973 
L 305.230978 -296.014732 
L 311.296196 -297.620273 
L 317.361413 -299.241427 
L 323.42663 -300.531326 
L 329.491848 -301.135049 
L 335.557065 -302.177607 
L 341.622283 -303.550268 
L 347.6875 -303.971534 
L 353.752717 -304.645287 
L 359.817935 -304.87219 
L 365.883152 -305.258751 
L 371.94837 -305.266364 
L 378.013587 -306.35078 
L 384.078804 -306.133379 
L 390.144022 -305.980741 
L 396.209239 -306.012886 
L 402.274457 -306.535775 
L 408.339674 -307.088385 
L 414.404891 -307.267215 
L 420.470109 -307.576014 
L 426.535326 -308.959657 
L 426.535326 -314.018892 
L 426.535326 -314.018892 
L 420.470109 -312.354466 
L 414.404891 -312.10207 
L 408.339674 -312.274077 
L 402.274457 -311.441835 
L 396.209239 -310.845804 
L 390.144022 -311.181837 
L 384.078804 -311.065368 
L 378.013587 -311.477209 
L 371.94837 -310.364484 
L 365.883152 -310.242142 
L 359.817935 -309.821769 
L 353.752717 -309.510436 
L 347.6875 -309.116004 
L 341.622283 -308.383912 
L 335.557065 -307.284247 
L 329.491848 -306.272188 
L 323.42663 -305.36158 
L 317.361413 -304.100204 
L 311.296196 -302.706247 
L 305.230978 -300.805372 
L 299.165761 -298.670046 
L 293.100543 -296.048315 
L 287.035326 -294.428615 
L 280.970109 -292.668765 
L 274.904891 -291.507994 
L 268.839674 -289.688915 
L 262.774457 -287.685139 
L 256.709239 -285.171019 
L 250.644022 -282.638408 
L 244.578804 -280.453161 
L 238.513587 -277.824801 
L 232.44837 -274.127612 
L 226.383152 -271.054657 
L 220.317935 -267.728994 
L 214.252717 -263.792445 
L 208.1875 -259.80488 
L 202.122283 -255.56002 
L 196.057065 -250.361881 
L 189.991848 -244.571785 
L 183.92663 -238.325879 
L 177.861413 -232.58787 
L 171.796196 -225.854065 
L 165.730978 -219.525707 
L 159.665761 -212.42761 
L 153.600543 -204.83411 
L 147.535326 -197.577053 
L 141.470109 -188.943 
L 135.404891 -179.860526 
L 129.339674 -169.70653 
L 123.274457 -159.401818 
L 117.209239 -148.186956 
L 111.144022 -136.224644 
L 105.078804 -123.853482 
L 99.013587 -111.372558 
L 92.94837 -99.26829 
L 86.883152 -87.925713 
L 80.817935 -77.729027 
L 74.752717 -70.273849 
L 68.6875 -66.927983 
z
" id="m44fc4a88a7"/>
    </defs>
    <g clip-path="url(#p00b063ba02)">
     <use style="fill:#4db8ff;" x="0" xlink:href="#m44fc4a88a7" y="339.573438"/>
    </g>
   </g>
   <g id="PolyCollection_2">
    <defs>
     <path d="M 68.6875 -66.927983 
L 68.6875 -66.927983 
L 74.752717 -69.698788 
L 80.817935 -76.06557 
L 86.883152 -83.947831 
L 92.94837 -94.939648 
L 99.013587 -106.782334 
L 105.078804 -119.683102 
L 111.144022 -128.993407 
L 117.209239 -140.959854 
L 123.274457 -150.220021 
L 129.339674 -160.831764 
L 135.404891 -170.59133 
L 141.470109 -180.339695 
L 147.535326 -189.796091 
L 153.600543 -198.28577 
L 159.665761 -206.826691 
L 165.730978 -213.746485 
L 171.796196 -222.262237 
L 177.861413 -228.187985 
L 183.92663 -235.066058 
L 189.991848 -241.177953 
L 196.057065 -246.420446 
L 202.122283 -251.202367 
L 208.1875 -255.528267 
L 214.252717 -260.651151 
L 220.317935 -264.516712 
L 226.383152 -267.067854 
L 232.44837 -270.271528 
L 238.513587 -274.268487 
L 244.578804 -275.761692 
L 250.644022 -279.186787 
L 256.709239 -280.660576 
L 262.774457 -282.747041 
L 268.839674 -285.053784 
L 274.904891 -286.904708 
L 280.970109 -288.238684 
L 287.035326 -289.527025 
L 293.100543 -290.598522 
L 299.165761 -291.476229 
L 305.230978 -293.168935 
L 311.296196 -294.969906 
L 317.361413 -296.581968 
L 323.42663 -297.854658 
L 329.491848 -299.210249 
L 335.557065 -300.008523 
L 341.622283 -301.171925 
L 347.6875 -301.990551 
L 353.752717 -302.62795 
L 359.817935 -302.849774 
L 365.883152 -303.097382 
L 371.94837 -304.131398 
L 378.013587 -304.776502 
L 384.078804 -305.924984 
L 390.144022 -306.191842 
L 396.209239 -306.858826 
L 402.274457 -307.277238 
L 408.339674 -307.358695 
L 414.404891 -308.048159 
L 420.470109 -308.611441 
L 426.535326 -309.075327 
L 426.535326 -311.41791 
L 426.535326 -311.41791 
L 420.470109 -311.120239 
L 414.404891 -310.699024 
L 408.339674 -310.024696 
L 402.274457 -309.983155 
L 396.209239 -309.696707 
L 390.144022 -309.173754 
L 384.078804 -308.919555 
L 378.013587 -307.962103 
L 371.94837 -307.308883 
L 365.883152 -306.626931 
L 359.817935 -306.674477 
L 353.752717 -306.40203 
L 347.6875 -305.864455 
L 341.622283 -304.969293 
L 335.557065 -304.106521 
L 329.491848 -303.442884 
L 323.42663 -302.169478 
L 317.361413 -301.155906 
L 311.296196 -299.647445 
L 305.230978 -297.976545 
L 299.165761 -296.586125 
L 293.100543 -296.294202 
L 287.035326 -295.151449 
L 280.970109 -293.696693 
L 274.904891 -292.384916 
L 268.839674 -290.943328 
L 262.774457 -289.017188 
L 256.709239 -287.113071 
L 250.644022 -285.297946 
L 244.578804 -282.979285 
L 238.513587 -281.586042 
L 232.44837 -277.960824 
L 226.383152 -274.677792 
L 220.317935 -272.234959 
L 214.252717 -268.53192 
L 208.1875 -263.392184 
L 202.122283 -259.499386 
L 196.057065 -255.019195 
L 189.991848 -249.922134 
L 183.92663 -244.192979 
L 177.861413 -237.16597 
L 171.796196 -231.584593 
L 165.730978 -223.056408 
L 159.665761 -216.236409 
L 153.600543 -207.932914 
L 147.535326 -198.578329 
L 141.470109 -189.568216 
L 135.404891 -179.999649 
L 129.339674 -170.40034 
L 123.274457 -159.413706 
L 117.209239 -149.868225 
L 111.144022 -137.419136 
L 105.078804 -126.885172 
L 99.013587 -113.627707 
L 92.94837 -100.814441 
L 86.883152 -88.94795 
L 80.817935 -79.732593 
L 74.752717 -72.186415 
L 68.6875 -66.927983 
z
" id="mac90062fd9"/>
    </defs>
    <g clip-path="url(#p00b063ba02)">
     <use style="fill:#ffa035;" x="0" xlink:href="#mac90062fd9" y="339.573438"/>
    </g>
   </g>
   <g id="PolyCollection_3">
    <defs>
     <path d="M 68.6875 -66.927983 
L 68.6875 -66.927983 
L 74.752717 -69.824169 
L 80.817935 -76.027153 
L 86.883152 -84.067769 
L 92.94837 -94.994374 
L 99.013587 -107.187297 
L 105.078804 -119.926762 
L 111.144022 -130.408269 
L 117.209239 -141.724818 
L 123.274457 -150.421899 
L 129.339674 -160.264635 
L 135.404891 -169.44236 
L 141.470109 -179.011493 
L 147.535326 -188.005993 
L 153.600543 -197.511886 
L 159.665761 -206.033481 
L 165.730978 -213.646257 
L 171.796196 -222.53609 
L 177.861413 -228.494567 
L 183.92663 -234.529374 
L 189.991848 -240.546649 
L 196.057065 -245.137111 
L 202.122283 -250.348615 
L 208.1875 -254.531969 
L 214.252717 -259.104753 
L 220.317935 -263.363054 
L 226.383152 -265.915085 
L 232.44837 -269.676224 
L 238.513587 -273.358109 
L 244.578804 -274.994818 
L 250.644022 -277.793042 
L 256.709239 -279.831256 
L 262.774457 -281.636073 
L 268.839674 -284.104419 
L 274.904891 -285.834609 
L 280.970109 -287.437789 
L 287.035326 -288.703414 
L 293.100543 -290.024252 
L 299.165761 -290.83187 
L 305.230978 -292.47277 
L 311.296196 -294.256607 
L 317.361413 -295.471638 
L 323.42663 -296.930345 
L 329.491848 -298.441894 
L 335.557065 -299.126171 
L 341.622283 -300.324444 
L 347.6875 -301.350962 
L 353.752717 -301.96112 
L 359.817935 -302.254356 
L 365.883152 -302.680529 
L 371.94837 -303.420037 
L 378.013587 -304.200237 
L 384.078804 -305.336949 
L 390.144022 -305.54897 
L 396.209239 -306.20144 
L 402.274457 -306.793371 
L 408.339674 -306.860432 
L 414.404891 -307.663729 
L 420.470109 -308.384153 
L 426.535326 -308.631067 
L 426.535326 -312.060202 
L 426.535326 -312.060202 
L 420.470109 -311.72298 
L 414.404891 -311.23271 
L 408.339674 -310.522011 
L 402.274457 -310.558954 
L 396.209239 -310.29817 
L 390.144022 -309.936696 
L 384.078804 -309.753635 
L 378.013587 -309.020424 
L 371.94837 -308.341186 
L 365.883152 -307.583119 
L 359.817935 -307.699331 
L 353.752717 -307.457113 
L 347.6875 -306.885217 
L 341.622283 -306.06688 
L 335.557065 -304.923536 
L 329.491848 -304.199882 
L 323.42663 -303.229275 
L 317.361413 -302.070092 
L 311.296196 -300.812235 
L 305.230978 -299.24491 
L 299.165761 -297.772471 
L 293.100543 -297.228253 
L 287.035326 -295.775408 
L 280.970109 -294.316579 
L 274.904891 -293.355294 
L 268.839674 -291.633065 
L 262.774457 -289.653378 
L 256.709239 -287.778312 
L 250.644022 -286.391873 
L 244.578804 -283.925914 
L 238.513587 -281.933516 
L 232.44837 -278.522689 
L 226.383152 -275.621097 
L 220.317935 -272.741679 
L 214.252717 -269.157411 
L 208.1875 -264.857807 
L 202.122283 -260.40003 
L 196.057065 -255.470859 
L 189.991848 -250.944411 
L 183.92663 -245.051506 
L 177.861413 -238.701659 
L 171.796196 -232.739531 
L 165.730978 -223.977885 
L 159.665761 -216.208354 
L 153.600543 -207.801428 
L 147.535326 -197.834703 
L 141.470109 -189.225868 
L 135.404891 -179.643956 
L 129.339674 -170.09521 
L 123.274457 -159.586703 
L 117.209239 -150.025398 
L 111.144022 -138.51161 
L 105.078804 -127.408342 
L 99.013587 -113.883525 
L 92.94837 -100.774746 
L 86.883152 -88.663102 
L 80.817935 -79.823244 
L 74.752717 -72.056059 
L 68.6875 -66.927983 
z
" id="mec0db7fe81"/>
    </defs>
    <g clip-path="url(#p00b063ba02)">
     <use style="fill:#47d200;" x="0" xlink:href="#mec0db7fe81" y="339.573438"/>
    </g>
   </g>
   <g id="matplotlib.axis_1">
    <g id="xtick_1">
     <g id="line2d_1">
      <path clip-path="url(#p00b063ba02)" d="M 68.6875 285 
L 68.6875 13.2 
" style="fill:none;stroke:#b0b0b0;stroke-linecap:square;stroke-width:0.8;"/>
     </g>
     <g id="line2d_2">
      <defs>
       <path d="M 0 0 
L 0 6 
" id="me06b95b24d"/>
      </defs>
      <g>
       <use x="68.6875" xlink:href="#me06b95b24d" y="285"/>
      </g>
     </g>
     <g id="text_1">
      <!-- 0 -->
      <defs>
       <path d="M 31.78125 66.40625 
Q 24.171875 66.40625 20.328125 58.90625 
Q 16.5 51.421875 16.5 36.375 
Q 16.5 21.390625 20.328125 13.890625 
Q 24.171875 6.390625 31.78125 6.390625 
Q 39.453125 6.390625 43.28125 13.890625 
Q 47.125 21.390625 47.125 36.375 
Q 47.125 51.421875 43.28125 58.90625 
Q 39.453125 66.40625 31.78125 66.40625 
z
M 31.78125 74.21875 
Q 44.046875 74.21875 50.515625 64.515625 
Q 56.984375 54.828125 56.984375 36.375 
Q 56.984375 17.96875 50.515625 8.265625 
Q 44.046875 -1.421875 31.78125 -1.421875 
Q 19.53125 -1.421875 13.0625 8.265625 
Q 6.59375 17.96875 6.59375 36.375 
Q 6.59375 54.828125 13.0625 64.515625 
Q 19.53125 74.21875 31.78125 74.21875 
z
" id="DejaVuSans-30"/>
      </defs>
      <g transform="translate(63.915625 305.897656)scale(0.15 -0.15)">
       <use xlink:href="#DejaVuSans-30"/>
      </g>
     </g>
    </g>
    <g id="xtick_2">
     <g id="line2d_3">
      <path clip-path="url(#p00b063ba02)" d="M 129.339674 285 
L 129.339674 13.2 
" style="fill:none;stroke:#b0b0b0;stroke-linecap:square;stroke-width:0.8;"/>
     </g>
     <g id="line2d_4">
      <g>
       <use x="129.339674" xlink:href="#me06b95b24d" y="285"/>
      </g>
     </g>
     <g id="text_2">
      <!-- 1 -->
      <defs>
       <path d="M 12.40625 8.296875 
L 28.515625 8.296875 
L 28.515625 63.921875 
L 10.984375 60.40625 
L 10.984375 69.390625 
L 28.421875 72.90625 
L 38.28125 72.90625 
L 38.28125 8.296875 
L 54.390625 8.296875 
L 54.390625 0 
L 12.40625 0 
z
" id="DejaVuSans-31"/>
      </defs>
      <g transform="translate(124.567799 305.897656)scale(0.15 -0.15)">
       <use xlink:href="#DejaVuSans-31"/>
      </g>
     </g>
    </g>
    <g id="xtick_3">
     <g id="line2d_5">
      <path clip-path="url(#p00b063ba02)" d="M 189.991848 285 
L 189.991848 13.2 
" style="fill:none;stroke:#b0b0b0;stroke-linecap:square;stroke-width:0.8;"/>
     </g>
     <g id="line2d_6">
      <g>
       <use x="189.991848" xlink:href="#me06b95b24d" y="285"/>
      </g>
     </g>
     <g id="text_3">
      <!-- 2 -->
      <defs>
       <path d="M 19.1875 8.296875 
L 53.609375 8.296875 
L 53.609375 0 
L 7.328125 0 
L 7.328125 8.296875 
Q 12.9375 14.109375 22.625 23.890625 
Q 32.328125 33.6875 34.8125 36.53125 
Q 39.546875 41.84375 41.421875 45.53125 
Q 43.3125 49.21875 43.3125 52.78125 
Q 43.3125 58.59375 39.234375 62.25 
Q 35.15625 65.921875 28.609375 65.921875 
Q 23.96875 65.921875 18.8125 64.3125 
Q 13.671875 62.703125 7.8125 59.421875 
L 7.8125 69.390625 
Q 13.765625 71.78125 18.9375 73 
Q 24.125 74.21875 28.421875 74.21875 
Q 39.75 74.21875 46.484375 68.546875 
Q 53.21875 62.890625 53.21875 53.421875 
Q 53.21875 48.921875 51.53125 44.890625 
Q 49.859375 40.875 45.40625 35.40625 
Q 44.1875 33.984375 37.640625 27.21875 
Q 31.109375 20.453125 19.1875 8.296875 
z
" id="DejaVuSans-32"/>
      </defs>
      <g transform="translate(185.219973 305.897656)scale(0.15 -0.15)">
       <use xlink:href="#DejaVuSans-32"/>
      </g>
     </g>
    </g>
    <g id="xtick_4">
     <g id="line2d_7">
      <path clip-path="url(#p00b063ba02)" d="M 250.644022 285 
L 250.644022 13.2 
" style="fill:none;stroke:#b0b0b0;stroke-linecap:square;stroke-width:0.8;"/>
     </g>
     <g id="line2d_8">
      <g>
       <use x="250.644022" xlink:href="#me06b95b24d" y="285"/>
      </g>
     </g>
     <g id="text_4">
      <!-- 3 -->
      <defs>
       <path d="M 40.578125 39.3125 
Q 47.65625 37.796875 51.625 33 
Q 55.609375 28.21875 55.609375 21.1875 
Q 55.609375 10.40625 48.1875 4.484375 
Q 40.765625 -1.421875 27.09375 -1.421875 
Q 22.515625 -1.421875 17.65625 -0.515625 
Q 12.796875 0.390625 7.625 2.203125 
L 7.625 11.71875 
Q 11.71875 9.328125 16.59375 8.109375 
Q 21.484375 6.890625 26.8125 6.890625 
Q 36.078125 6.890625 40.9375 10.546875 
Q 45.796875 14.203125 45.796875 21.1875 
Q 45.796875 27.640625 41.28125 31.265625 
Q 36.765625 34.90625 28.71875 34.90625 
L 20.21875 34.90625 
L 20.21875 43.015625 
L 29.109375 43.015625 
Q 36.375 43.015625 40.234375 45.921875 
Q 44.09375 48.828125 44.09375 54.296875 
Q 44.09375 59.90625 40.109375 62.90625 
Q 36.140625 65.921875 28.71875 65.921875 
Q 24.65625 65.921875 20.015625 65.03125 
Q 15.375 64.15625 9.8125 62.3125 
L 9.8125 71.09375 
Q 15.4375 72.65625 20.34375 73.4375 
Q 25.25 74.21875 29.59375 74.21875 
Q 40.828125 74.21875 47.359375 69.109375 
Q 53.90625 64.015625 53.90625 55.328125 
Q 53.90625 49.265625 50.4375 45.09375 
Q 46.96875 40.921875 40.578125 39.3125 
z
" id="DejaVuSans-33"/>
      </defs>
      <g transform="translate(245.872147 305.897656)scale(0.15 -0.15)">
       <use xlink:href="#DejaVuSans-33"/>
      </g>
     </g>
    </g>
    <g id="xtick_5">
     <g id="line2d_9">
      <path clip-path="url(#p00b063ba02)" d="M 311.296196 285 
L 311.296196 13.2 
" style="fill:none;stroke:#b0b0b0;stroke-linecap:square;stroke-width:0.8;"/>
     </g>
     <g id="line2d_10">
      <g>
       <use x="311.296196" xlink:href="#me06b95b24d" y="285"/>
      </g>
     </g>
     <g id="text_5">
      <!-- 4 -->
      <defs>
       <path d="M 37.796875 64.3125 
L 12.890625 25.390625 
L 37.796875 25.390625 
z
M 35.203125 72.90625 
L 47.609375 72.90625 
L 47.609375 25.390625 
L 58.015625 25.390625 
L 58.015625 17.1875 
L 47.609375 17.1875 
L 47.609375 0 
L 37.796875 0 
L 37.796875 17.1875 
L 4.890625 17.1875 
L 4.890625 26.703125 
z
" id="DejaVuSans-34"/>
      </defs>
      <g transform="translate(306.524321 305.897656)scale(0.15 -0.15)">
       <use xlink:href="#DejaVuSans-34"/>
      </g>
     </g>
    </g>
    <g id="xtick_6">
     <g id="line2d_11">
      <path clip-path="url(#p00b063ba02)" d="M 371.94837 285 
L 371.94837 13.2 
" style="fill:none;stroke:#b0b0b0;stroke-linecap:square;stroke-width:0.8;"/>
     </g>
     <g id="line2d_12">
      <g>
       <use x="371.94837" xlink:href="#me06b95b24d" y="285"/>
      </g>
     </g>
     <g id="text_6">
      <!-- 5 -->
      <defs>
       <path d="M 10.796875 72.90625 
L 49.515625 72.90625 
L 49.515625 64.59375 
L 19.828125 64.59375 
L 19.828125 46.734375 
Q 21.96875 47.46875 24.109375 47.828125 
Q 26.265625 48.1875 28.421875 48.1875 
Q 40.625 48.1875 47.75 41.5 
Q 54.890625 34.8125 54.890625 23.390625 
Q 54.890625 11.625 47.5625 5.09375 
Q 40.234375 -1.421875 26.90625 -1.421875 
Q 22.3125 -1.421875 17.546875 -0.640625 
Q 12.796875 0.140625 7.71875 1.703125 
L 7.71875 11.625 
Q 12.109375 9.234375 16.796875 8.0625 
Q 21.484375 6.890625 26.703125 6.890625 
Q 35.15625 6.890625 40.078125 11.328125 
Q 45.015625 15.765625 45.015625 23.390625 
Q 45.015625 31 40.078125 35.4375 
Q 35.15625 39.890625 26.703125 39.890625 
Q 22.75 39.890625 18.8125 39.015625 
Q 14.890625 38.140625 10.796875 36.28125 
z
" id="DejaVuSans-35"/>
      </defs>
      <g transform="translate(367.176495 305.897656)scale(0.15 -0.15)">
       <use xlink:href="#DejaVuSans-35"/>
      </g>
     </g>
    </g>
    <g id="xtick_7">
     <g id="line2d_13">
      <path clip-path="url(#p00b063ba02)" d="M 432.600543 285 
L 432.600543 13.2 
" style="fill:none;stroke:#b0b0b0;stroke-linecap:square;stroke-width:0.8;"/>
     </g>
     <g id="line2d_14">
      <g>
       <use x="432.600543" xlink:href="#me06b95b24d" y="285"/>
      </g>
     </g>
     <g id="text_7">
      <!-- 6 -->
      <defs>
       <path d="M 33.015625 40.375 
Q 26.375 40.375 22.484375 35.828125 
Q 18.609375 31.296875 18.609375 23.390625 
Q 18.609375 15.53125 22.484375 10.953125 
Q 26.375 6.390625 33.015625 6.390625 
Q 39.65625 6.390625 43.53125 10.953125 
Q 47.40625 15.53125 47.40625 23.390625 
Q 47.40625 31.296875 43.53125 35.828125 
Q 39.65625 40.375 33.015625 40.375 
z
M 52.59375 71.296875 
L 52.59375 62.3125 
Q 48.875 64.0625 45.09375 64.984375 
Q 41.3125 65.921875 37.59375 65.921875 
Q 27.828125 65.921875 22.671875 59.328125 
Q 17.53125 52.734375 16.796875 39.40625 
Q 19.671875 43.65625 24.015625 45.921875 
Q 28.375 48.1875 33.59375 48.1875 
Q 44.578125 48.1875 50.953125 41.515625 
Q 57.328125 34.859375 57.328125 23.390625 
Q 57.328125 12.15625 50.6875 5.359375 
Q 44.046875 -1.421875 33.015625 -1.421875 
Q 20.359375 -1.421875 13.671875 8.265625 
Q 6.984375 17.96875 6.984375 36.375 
Q 6.984375 53.65625 15.1875 63.9375 
Q 23.390625 74.21875 37.203125 74.21875 
Q 40.921875 74.21875 44.703125 73.484375 
Q 48.484375 72.75 52.59375 71.296875 
z
" id="DejaVuSans-36"/>
      </defs>
      <g transform="translate(427.828668 305.897656)scale(0.15 -0.15)">
       <use xlink:href="#DejaVuSans-36"/>
      </g>
     </g>
    </g>
    <g id="text_8">
     <!-- $t/\tau$ -->
     <defs>
      <path d="M 42.28125 54.6875 
L 40.921875 47.703125 
L 23 47.703125 
L 17.1875 18.015625 
Q 16.890625 16.359375 16.75 15.234375 
Q 16.609375 14.109375 16.609375 13.484375 
Q 16.609375 10.359375 18.484375 8.9375 
Q 20.359375 7.515625 24.515625 7.515625 
L 33.59375 7.515625 
L 32.078125 0 
L 23.484375 0 
Q 15.484375 0 11.546875 3.125 
Q 7.625 6.25 7.625 12.59375 
Q 7.625 13.71875 7.765625 15.0625 
Q 7.90625 16.40625 8.203125 18.015625 
L 14.015625 47.703125 
L 6.390625 47.703125 
L 7.8125 54.6875 
L 15.28125 54.6875 
L 18.3125 70.21875 
L 27.296875 70.21875 
L 24.3125 54.6875 
z
" id="DejaVuSans-Oblique-74"/>
      <path d="M 25.390625 72.90625 
L 33.6875 72.90625 
L 8.296875 -9.28125 
L 0 -9.28125 
z
" id="DejaVuSans-2f"/>
      <path d="M 32.859375 9.96875 
Q 34.1875 7.625 39.453125 7.625 
L 43.75 7.625 
L 42.28125 0 
L 36.921875 0 
Q 28.125 0 25 4.6875 
Q 21.921875 9.46875 23.96875 19.828125 
L 29 45.703125 
L 8.453125 45.703125 
L 10.203125 54.6875 
L 60.640625 54.6875 
L 58.890625 45.703125 
L 38.1875 45.703125 
L 33.015625 19.28125 
Q 31.640625 12.203125 32.859375 9.96875 
z
" id="DejaVuSans-Oblique-3c4"/>
     </defs>
     <g transform="translate(237.244022 328.214063)scale(0.2 -0.2)">
      <use transform="translate(0 0.09375)" xlink:href="#DejaVuSans-Oblique-74"/>
      <use transform="translate(39.208984 0.09375)" xlink:href="#DejaVuSans-2f"/>
      <use transform="translate(72.900391 0.09375)" xlink:href="#DejaVuSans-Oblique-3c4"/>
     </g>
    </g>
   </g>
   <g id="matplotlib.axis_2">
    <g id="ytick_1">
     <g id="line2d_15">
      <path clip-path="url(#p00b063ba02)" d="M 68.6875 272.645455 
L 432.600543 272.645455 
" style="fill:none;stroke:#b0b0b0;stroke-linecap:square;stroke-width:0.8;"/>
     </g>
     <g id="line2d_16">
      <defs>
       <path d="M 0 0 
L -6 0 
" id="m14c0c532dd"/>
      </defs>
      <g>
       <use x="68.6875" xlink:href="#m14c0c532dd" y="272.645455"/>
      </g>
     </g>
     <g id="text_9">
      <!-- 50 -->
      <g transform="translate(40.1 278.344283)scale(0.15 -0.15)">
       <use xlink:href="#DejaVuSans-35"/>
       <use x="63.623047" xlink:href="#DejaVuSans-30"/>
      </g>
     </g>
    </g>
    <g id="ytick_2">
     <g id="line2d_17">
      <path clip-path="url(#p00b063ba02)" d="M 68.6875 222.810451 
L 432.600543 222.810451 
" style="fill:none;stroke:#b0b0b0;stroke-linecap:square;stroke-width:0.8;"/>
     </g>
     <g id="line2d_18">
      <g>
       <use x="68.6875" xlink:href="#m14c0c532dd" y="222.810451"/>
      </g>
     </g>
     <g id="text_10">
      <!-- 60 -->
      <g transform="translate(40.1 228.509279)scale(0.15 -0.15)">
       <use xlink:href="#DejaVuSans-36"/>
       <use x="63.623047" xlink:href="#DejaVuSans-30"/>
      </g>
     </g>
    </g>
    <g id="ytick_3">
     <g id="line2d_19">
      <path clip-path="url(#p00b063ba02)" d="M 68.6875 172.975447 
L 432.600543 172.975447 
" style="fill:none;stroke:#b0b0b0;stroke-linecap:square;stroke-width:0.8;"/>
     </g>
     <g id="line2d_20">
      <g>
       <use x="68.6875" xlink:href="#m14c0c532dd" y="172.975447"/>
      </g>
     </g>
     <g id="text_11">
      <!-- 70 -->
      <defs>
       <path d="M 8.203125 72.90625 
L 55.078125 72.90625 
L 55.078125 68.703125 
L 28.609375 0 
L 18.3125 0 
L 43.21875 64.59375 
L 8.203125 64.59375 
z
" id="DejaVuSans-37"/>
      </defs>
      <g transform="translate(40.1 178.674275)scale(0.15 -0.15)">
       <use xlink:href="#DejaVuSans-37"/>
       <use x="63.623047" xlink:href="#DejaVuSans-30"/>
      </g>
     </g>
    </g>
    <g id="ytick_4">
     <g id="line2d_21">
      <path clip-path="url(#p00b063ba02)" d="M 68.6875 123.140443 
L 432.600543 123.140443 
" style="fill:none;stroke:#b0b0b0;stroke-linecap:square;stroke-width:0.8;"/>
     </g>
     <g id="line2d_22">
      <g>
       <use x="68.6875" xlink:href="#m14c0c532dd" y="123.140443"/>
      </g>
     </g>
     <g id="text_12">
      <!-- 80 -->
      <defs>
       <path d="M 31.78125 34.625 
Q 24.75 34.625 20.71875 30.859375 
Q 16.703125 27.09375 16.703125 20.515625 
Q 16.703125 13.921875 20.71875 10.15625 
Q 24.75 6.390625 31.78125 6.390625 
Q 38.8125 6.390625 42.859375 10.171875 
Q 46.921875 13.96875 46.921875 20.515625 
Q 46.921875 27.09375 42.890625 30.859375 
Q 38.875 34.625 31.78125 34.625 
z
M 21.921875 38.8125 
Q 15.578125 40.375 12.03125 44.71875 
Q 8.5 49.078125 8.5 55.328125 
Q 8.5 64.0625 14.71875 69.140625 
Q 20.953125 74.21875 31.78125 74.21875 
Q 42.671875 74.21875 48.875 69.140625 
Q 55.078125 64.0625 55.078125 55.328125 
Q 55.078125 49.078125 51.53125 44.71875 
Q 48 40.375 41.703125 38.8125 
Q 48.828125 37.15625 52.796875 32.3125 
Q 56.78125 27.484375 56.78125 20.515625 
Q 56.78125 9.90625 50.3125 4.234375 
Q 43.84375 -1.421875 31.78125 -1.421875 
Q 19.734375 -1.421875 13.25 4.234375 
Q 6.78125 9.90625 6.78125 20.515625 
Q 6.78125 27.484375 10.78125 32.3125 
Q 14.796875 37.15625 21.921875 38.8125 
z
M 18.3125 54.390625 
Q 18.3125 48.734375 21.84375 45.5625 
Q 25.390625 42.390625 31.78125 42.390625 
Q 38.140625 42.390625 41.71875 45.5625 
Q 45.3125 48.734375 45.3125 54.390625 
Q 45.3125 60.0625 41.71875 63.234375 
Q 38.140625 66.40625 31.78125 66.40625 
Q 25.390625 66.40625 21.84375 63.234375 
Q 18.3125 60.0625 18.3125 54.390625 
z
" id="DejaVuSans-38"/>
      </defs>
      <g transform="translate(40.1 128.839272)scale(0.15 -0.15)">
       <use xlink:href="#DejaVuSans-38"/>
       <use x="63.623047" xlink:href="#DejaVuSans-30"/>
      </g>
     </g>
    </g>
    <g id="ytick_5">
     <g id="line2d_23">
      <path clip-path="url(#p00b063ba02)" d="M 68.6875 73.30544 
L 432.600543 73.30544 
" style="fill:none;stroke:#b0b0b0;stroke-linecap:square;stroke-width:0.8;"/>
     </g>
     <g id="line2d_24">
      <g>
       <use x="68.6875" xlink:href="#m14c0c532dd" y="73.30544"/>
      </g>
     </g>
     <g id="text_13">
      <!-- 90 -->
      <defs>
       <path d="M 10.984375 1.515625 
L 10.984375 10.5 
Q 14.703125 8.734375 18.5 7.8125 
Q 22.3125 6.890625 25.984375 6.890625 
Q 35.75 6.890625 40.890625 13.453125 
Q 46.046875 20.015625 46.78125 33.40625 
Q 43.953125 29.203125 39.59375 26.953125 
Q 35.25 24.703125 29.984375 24.703125 
Q 19.046875 24.703125 12.671875 31.3125 
Q 6.296875 37.9375 6.296875 49.421875 
Q 6.296875 60.640625 12.9375 67.421875 
Q 19.578125 74.21875 30.609375 74.21875 
Q 43.265625 74.21875 49.921875 64.515625 
Q 56.59375 54.828125 56.59375 36.375 
Q 56.59375 19.140625 48.40625 8.859375 
Q 40.234375 -1.421875 26.421875 -1.421875 
Q 22.703125 -1.421875 18.890625 -0.6875 
Q 15.09375 0.046875 10.984375 1.515625 
z
M 30.609375 32.421875 
Q 37.25 32.421875 41.125 36.953125 
Q 45.015625 41.5 45.015625 49.421875 
Q 45.015625 57.28125 41.125 61.84375 
Q 37.25 66.40625 30.609375 66.40625 
Q 23.96875 66.40625 20.09375 61.84375 
Q 16.21875 57.28125 16.21875 49.421875 
Q 16.21875 41.5 20.09375 36.953125 
Q 23.96875 32.421875 30.609375 32.421875 
z
" id="DejaVuSans-39"/>
      </defs>
      <g transform="translate(40.1 79.004268)scale(0.15 -0.15)">
       <use xlink:href="#DejaVuSans-39"/>
       <use x="63.623047" xlink:href="#DejaVuSans-30"/>
      </g>
     </g>
    </g>
    <g id="ytick_6">
     <g id="line2d_25">
      <path clip-path="url(#p00b063ba02)" d="M 68.6875 23.470436 
L 432.600543 23.470436 
" style="fill:none;stroke:#b0b0b0;stroke-linecap:square;stroke-width:0.8;"/>
     </g>
     <g id="line2d_26">
      <g>
       <use x="68.6875" xlink:href="#m14c0c532dd" y="23.470436"/>
      </g>
     </g>
     <g id="text_14">
      <!-- 100 -->
      <g transform="translate(30.55625 29.169264)scale(0.15 -0.15)">
       <use xlink:href="#DejaVuSans-31"/>
       <use x="63.623047" xlink:href="#DejaVuSans-30"/>
       <use x="127.246094" xlink:href="#DejaVuSans-30"/>
      </g>
     </g>
    </g>
    <g id="text_15">
     <!-- $p$ -->
     <defs>
      <path d="M 49.609375 33.6875 
Q 49.609375 40.875 46.484375 44.671875 
Q 43.359375 48.484375 37.5 48.484375 
Q 33.5 48.484375 29.859375 46.4375 
Q 26.21875 44.390625 23.390625 40.484375 
Q 20.609375 36.625 18.9375 31.15625 
Q 17.28125 25.6875 17.28125 20.3125 
Q 17.28125 13.484375 20.40625 9.796875 
Q 23.53125 6.109375 29.296875 6.109375 
Q 33.546875 6.109375 37.1875 8.109375 
Q 40.828125 10.109375 43.40625 13.921875 
Q 46.1875 17.921875 47.890625 23.34375 
Q 49.609375 28.765625 49.609375 33.6875 
z
M 21.78125 46.390625 
Q 25.390625 51.125 30.296875 53.5625 
Q 35.203125 56 41.21875 56 
Q 49.609375 56 54.25 50.5 
Q 58.890625 45.015625 58.890625 35.109375 
Q 58.890625 27 56 19.65625 
Q 53.125 12.3125 47.703125 6.5 
Q 44.09375 2.640625 39.546875 0.609375 
Q 35.015625 -1.421875 29.984375 -1.421875 
Q 24.171875 -1.421875 20.21875 1 
Q 16.265625 3.421875 14.3125 8.203125 
L 8.6875 -20.796875 
L -0.296875 -20.796875 
L 14.40625 54.6875 
L 23.390625 54.6875 
z
" id="DejaVuSans-Oblique-70"/>
     </defs>
     <g transform="translate(22.35625 155.5)rotate(-90)scale(0.2 -0.2)">
      <use xlink:href="#DejaVuSans-Oblique-70"/>
     </g>
    </g>
   </g>
   <g id="line2d_27">
    <path clip-path="url(#p00b063ba02)" d="M 68.6875 272.645455 
L 74.752717 269.654134 
L 80.817935 262.460732 
L 86.883152 252.437411 
L 92.94837 241.261855 
L 99.013587 229.353624 
L 105.078804 217.050069 
L 111.144022 204.756371 
L 117.209239 192.942877 
L 123.274457 181.890212 
L 129.339674 171.718371 
L 135.404891 161.586508 
L 141.470109 152.490169 
L 147.535326 144.062033 
L 153.600543 136.81859 
L 159.665761 129.283736 
L 165.730978 122.314624 
L 171.796196 115.996951 
L 177.861413 109.443326 
L 183.92663 103.509683 
L 189.991848 97.293533 
L 196.057065 91.627229 
L 202.122283 86.401321 
L 208.1875 81.99822 
L 214.252717 78.077279 
L 220.317935 74.212746 
L 226.383152 70.860062 
L 232.44837 67.855469 
L 238.513587 64.054892 
L 244.578804 61.483917 
L 250.644022 59.291851 
L 256.709239 56.730704 
L 262.774457 54.354727 
L 268.839674 52.264664 
L 274.904891 50.534116 
L 280.970109 49.354508 
L 287.035326 47.481562 
L 293.100543 45.985805 
L 299.165761 43.376428 
L 305.230978 41.163385 
L 311.296196 39.410177 
L 317.361413 37.902622 
L 323.42663 36.626985 
L 329.491848 35.869819 
L 335.557065 34.842511 
L 341.622283 33.606348 
L 347.6875 33.029669 
L 353.752717 32.495576 
L 359.817935 32.226458 
L 365.883152 31.822991 
L 371.94837 31.758013 
L 378.013587 30.659443 
L 384.078804 30.974064 
L 390.144022 30.992148 
L 396.209239 31.144092 
L 402.274457 30.584632 
L 408.339674 29.892206 
L 414.404891 29.888795 
L 420.470109 29.608198 
L 426.535326 28.084163 
" style="fill:none;stroke:#1f77b4;stroke-linecap:square;stroke-width:3;"/>
   </g>
   <g id="line2d_28">
    <path clip-path="url(#p00b063ba02)" d="M 68.6875 272.645455 
L 74.752717 268.630836 
L 80.817935 261.674356 
L 86.883152 253.125547 
L 92.94837 241.696393 
L 99.013587 229.368417 
L 105.078804 216.2893 
L 111.144022 206.367166 
L 117.209239 194.159398 
L 123.274457 184.756574 
L 129.339674 173.957385 
L 135.404891 164.277948 
L 141.470109 154.619482 
L 147.535326 145.386228 
L 153.600543 136.464095 
L 159.665761 128.041887 
L 165.730978 121.171991 
L 171.796196 112.650023 
L 177.861413 106.89646 
L 183.92663 99.943919 
L 189.991848 94.023394 
L 196.057065 88.853617 
L 202.122283 84.222561 
L 208.1875 80.113212 
L 214.252717 74.981902 
L 220.317935 71.197602 
L 226.383152 68.700614 
L 232.44837 65.457261 
L 238.513587 61.646173 
L 244.578804 60.202949 
L 250.644022 57.331071 
L 256.709239 55.686614 
L 262.774457 53.691323 
L 268.839674 51.574882 
L 274.904891 49.928626 
L 280.970109 48.605749 
L 287.035326 47.234201 
L 293.100543 46.127075 
L 299.165761 45.54226 
L 305.230978 44.000698 
L 311.296196 42.264762 
L 317.361413 40.704501 
L 323.42663 39.561369 
L 329.491848 38.246871 
L 335.557065 37.515916 
L 341.622283 36.502828 
L 347.6875 35.645935 
L 353.752717 35.058447 
L 359.817935 34.811312 
L 365.883152 34.711281 
L 371.94837 33.853297 
L 378.013587 33.204135 
L 384.078804 32.151168 
L 390.144022 31.89064 
L 396.209239 31.295671 
L 402.274457 30.943241 
L 408.339674 30.881742 
L 414.404891 30.199846 
L 420.470109 29.707597 
L 426.535326 29.326819 
" style="fill:none;stroke:#ff7f0e;stroke-linecap:square;stroke-width:3;"/>
   </g>
   <g id="line2d_29">
    <path clip-path="url(#p00b063ba02)" d="M 68.6875 272.645455 
L 74.752717 268.633323 
L 80.817935 261.648239 
L 86.883152 253.208002 
L 92.94837 241.688877 
L 99.013587 229.038026 
L 105.078804 215.905885 
L 111.144022 205.113498 
L 117.209239 193.69833 
L 123.274457 184.569136 
L 129.339674 174.393515 
L 135.404891 165.03028 
L 141.470109 155.454757 
L 147.535326 146.653089 
L 153.600543 136.91678 
L 159.665761 128.45252 
L 165.730978 120.761366 
L 171.796196 111.935627 
L 177.861413 105.975324 
L 183.92663 99.782998 
L 189.991848 93.827908 
L 196.057065 89.269452 
L 202.122283 84.199115 
L 208.1875 79.878549 
L 214.252717 75.442355 
L 220.317935 71.521071 
L 226.383152 68.805346 
L 232.44837 65.473981 
L 238.513587 61.927625 
L 244.578804 60.113072 
L 250.644022 57.48098 
L 256.709239 55.768653 
L 262.774457 53.928712 
L 268.839674 51.704696 
L 274.904891 49.978486 
L 280.970109 48.696253 
L 287.035326 47.334027 
L 293.100543 45.947185 
L 299.165761 45.271267 
L 305.230978 43.714597 
L 311.296196 42.039017 
L 317.361413 40.802572 
L 323.42663 39.493628 
L 329.491848 38.25255 
L 335.557065 37.548584 
L 341.622283 36.377776 
L 347.6875 35.455348 
L 353.752717 34.864321 
L 359.817935 34.596594 
L 365.883152 34.441613 
L 371.94837 33.692826 
L 378.013587 32.963107 
L 384.078804 32.028146 
L 390.144022 31.830604 
L 396.209239 31.323633 
L 402.274457 30.897275 
L 408.339674 30.882216 
L 414.404891 30.125218 
L 420.470109 29.519871 
L 426.535326 29.227803 
" style="fill:none;stroke:#2ca02c;stroke-linecap:square;stroke-width:3;"/>
   </g>
   <g id="patch_3">
    <path d="M 68.6875 285 
L 68.6875 13.2 
" style="fill:none;stroke:#000000;stroke-linecap:square;stroke-linejoin:miter;stroke-width:2;"/>
   </g>
   <g id="patch_4">
    <path d="M 432.600543 285 
L 432.600543 13.2 
" style="fill:none;"/>
   </g>
   <g id="patch_5">
    <path d="M 68.6875 285 
L 432.600543 285 
" style="fill:none;stroke:#000000;stroke-linecap:square;stroke-linejoin:miter;stroke-width:2;"/>
   </g>
   <g id="patch_6">
    <path d="M 68.6875 13.2 
L 432.600543 13.2 
" style="fill:none;"/>
   </g>
   <g id="legend_1">
    <g id="patch_7">
     <path d="M 212.0607 277.5 
L 422.100543 277.5 
Q 425.100543 277.5 425.100543 274.5 
L 425.100543 209.948438 
Q 425.100543 206.948438 422.100543 206.948438 
L 212.0607 206.948438 
Q 209.0607 206.948438 209.0607 209.948438 
L 209.0607 274.5 
Q 209.0607 277.5 212.0607 277.5 
z
" style="fill:#ffffff;opacity:0.8;stroke:#cccccc;stroke-linejoin:miter;"/>
    </g>
    <g id="line2d_30">
     <path d="M 215.0607 219.096094 
L 245.0607 219.096094 
" style="fill:none;stroke:#1f77b4;stroke-linecap:square;stroke-width:3;"/>
    </g>
    <g id="line2d_31"/>
    <g id="text_16">
     <!-- Single Lineage -->
     <defs>
      <path d="M 53.515625 70.515625 
L 53.515625 60.890625 
Q 47.90625 63.578125 42.921875 64.890625 
Q 37.9375 66.21875 33.296875 66.21875 
Q 25.25 66.21875 20.875 63.09375 
Q 16.5 59.96875 16.5 54.203125 
Q 16.5 49.359375 19.40625 46.890625 
Q 22.3125 44.4375 30.421875 42.921875 
L 36.375 41.703125 
Q 47.40625 39.59375 52.65625 34.296875 
Q 57.90625 29 57.90625 20.125 
Q 57.90625 9.515625 50.796875 4.046875 
Q 43.703125 -1.421875 29.984375 -1.421875 
Q 24.8125 -1.421875 18.96875 -0.25 
Q 13.140625 0.921875 6.890625 3.21875 
L 6.890625 13.375 
Q 12.890625 10.015625 18.65625 8.296875 
Q 24.421875 6.59375 29.984375 6.59375 
Q 38.421875 6.59375 43.015625 9.90625 
Q 47.609375 13.234375 47.609375 19.390625 
Q 47.609375 24.75 44.3125 27.78125 
Q 41.015625 30.8125 33.5 32.328125 
L 27.484375 33.5 
Q 16.453125 35.6875 11.515625 40.375 
Q 6.59375 45.0625 6.59375 53.421875 
Q 6.59375 63.09375 13.40625 68.65625 
Q 20.21875 74.21875 32.171875 74.21875 
Q 37.3125 74.21875 42.625 73.28125 
Q 47.953125 72.359375 53.515625 70.515625 
z
" id="DejaVuSans-53"/>
      <path d="M 9.421875 54.6875 
L 18.40625 54.6875 
L 18.40625 0 
L 9.421875 0 
z
M 9.421875 75.984375 
L 18.40625 75.984375 
L 18.40625 64.59375 
L 9.421875 64.59375 
z
" id="DejaVuSans-69"/>
      <path d="M 54.890625 33.015625 
L 54.890625 0 
L 45.90625 0 
L 45.90625 32.71875 
Q 45.90625 40.484375 42.875 44.328125 
Q 39.84375 48.1875 33.796875 48.1875 
Q 26.515625 48.1875 22.3125 43.546875 
Q 18.109375 38.921875 18.109375 30.90625 
L 18.109375 0 
L 9.078125 0 
L 9.078125 54.6875 
L 18.109375 54.6875 
L 18.109375 46.1875 
Q 21.34375 51.125 25.703125 53.5625 
Q 30.078125 56 35.796875 56 
Q 45.21875 56 50.046875 50.171875 
Q 54.890625 44.34375 54.890625 33.015625 
z
" id="DejaVuSans-6e"/>
      <path d="M 45.40625 27.984375 
Q 45.40625 37.75 41.375 43.109375 
Q 37.359375 48.484375 30.078125 48.484375 
Q 22.859375 48.484375 18.828125 43.109375 
Q 14.796875 37.75 14.796875 27.984375 
Q 14.796875 18.265625 18.828125 12.890625 
Q 22.859375 7.515625 30.078125 7.515625 
Q 37.359375 7.515625 41.375 12.890625 
Q 45.40625 18.265625 45.40625 27.984375 
z
M 54.390625 6.78125 
Q 54.390625 -7.171875 48.1875 -13.984375 
Q 42 -20.796875 29.203125 -20.796875 
Q 24.46875 -20.796875 20.265625 -20.09375 
Q 16.0625 -19.390625 12.109375 -17.921875 
L 12.109375 -9.1875 
Q 16.0625 -11.328125 19.921875 -12.34375 
Q 23.78125 -13.375 27.78125 -13.375 
Q 36.625 -13.375 41.015625 -8.765625 
Q 45.40625 -4.15625 45.40625 5.171875 
L 45.40625 9.625 
Q 42.625 4.78125 38.28125 2.390625 
Q 33.9375 0 27.875 0 
Q 17.828125 0 11.671875 7.65625 
Q 5.515625 15.328125 5.515625 27.984375 
Q 5.515625 40.671875 11.671875 48.328125 
Q 17.828125 56 27.875 56 
Q 33.9375 56 38.28125 53.609375 
Q 42.625 51.21875 45.40625 46.390625 
L 45.40625 54.6875 
L 54.390625 54.6875 
z
" id="DejaVuSans-67"/>
      <path d="M 9.421875 75.984375 
L 18.40625 75.984375 
L 18.40625 0 
L 9.421875 0 
z
" id="DejaVuSans-6c"/>
      <path d="M 56.203125 29.59375 
L 56.203125 25.203125 
L 14.890625 25.203125 
Q 15.484375 15.921875 20.484375 11.0625 
Q 25.484375 6.203125 34.421875 6.203125 
Q 39.59375 6.203125 44.453125 7.46875 
Q 49.3125 8.734375 54.109375 11.28125 
L 54.109375 2.78125 
Q 49.265625 0.734375 44.1875 -0.34375 
Q 39.109375 -1.421875 33.890625 -1.421875 
Q 20.796875 -1.421875 13.15625 6.1875 
Q 5.515625 13.8125 5.515625 26.8125 
Q 5.515625 40.234375 12.765625 48.109375 
Q 20.015625 56 32.328125 56 
Q 43.359375 56 49.78125 48.890625 
Q 56.203125 41.796875 56.203125 29.59375 
z
M 47.21875 32.234375 
Q 47.125 39.59375 43.09375 43.984375 
Q 39.0625 48.390625 32.421875 48.390625 
Q 24.90625 48.390625 20.390625 44.140625 
Q 15.875 39.890625 15.1875 32.171875 
z
" id="DejaVuSans-65"/>
      <path id="DejaVuSans-20"/>
      <path d="M 9.8125 72.90625 
L 19.671875 72.90625 
L 19.671875 8.296875 
L 55.171875 8.296875 
L 55.171875 0 
L 9.8125 0 
z
" id="DejaVuSans-4c"/>
      <path d="M 34.28125 27.484375 
Q 23.390625 27.484375 19.1875 25 
Q 14.984375 22.515625 14.984375 16.5 
Q 14.984375 11.71875 18.140625 8.90625 
Q 21.296875 6.109375 26.703125 6.109375 
Q 34.1875 6.109375 38.703125 11.40625 
Q 43.21875 16.703125 43.21875 25.484375 
L 43.21875 27.484375 
z
M 52.203125 31.203125 
L 52.203125 0 
L 43.21875 0 
L 43.21875 8.296875 
Q 40.140625 3.328125 35.546875 0.953125 
Q 30.953125 -1.421875 24.3125 -1.421875 
Q 15.921875 -1.421875 10.953125 3.296875 
Q 6 8.015625 6 15.921875 
Q 6 25.140625 12.171875 29.828125 
Q 18.359375 34.515625 30.609375 34.515625 
L 43.21875 34.515625 
L 43.21875 35.40625 
Q 43.21875 41.609375 39.140625 45 
Q 35.0625 48.390625 27.6875 48.390625 
Q 23 48.390625 18.546875 47.265625 
Q 14.109375 46.140625 10.015625 43.890625 
L 10.015625 52.203125 
Q 14.9375 54.109375 19.578125 55.046875 
Q 24.21875 56 28.609375 56 
Q 40.484375 56 46.34375 49.84375 
Q 52.203125 43.703125 52.203125 31.203125 
z
" id="DejaVuSans-61"/>
     </defs>
     <g transform="translate(257.0607 224.346094)scale(0.15 -0.15)">
      <use xlink:href="#DejaVuSans-53"/>
      <use x="63.476562" xlink:href="#DejaVuSans-69"/>
      <use x="91.259766" xlink:href="#DejaVuSans-6e"/>
      <use x="154.638672" xlink:href="#DejaVuSans-67"/>
      <use x="218.115234" xlink:href="#DejaVuSans-6c"/>
      <use x="245.898438" xlink:href="#DejaVuSans-65"/>
      <use x="307.421875" xlink:href="#DejaVuSans-20"/>
      <use x="339.208984" xlink:href="#DejaVuSans-4c"/>
      <use x="394.921875" xlink:href="#DejaVuSans-69"/>
      <use x="422.705078" xlink:href="#DejaVuSans-6e"/>
      <use x="486.083984" xlink:href="#DejaVuSans-65"/>
      <use x="547.607422" xlink:href="#DejaVuSans-61"/>
      <use x="608.886719" xlink:href="#DejaVuSans-67"/>
      <use x="672.363281" xlink:href="#DejaVuSans-65"/>
     </g>
    </g>
    <g id="line2d_32">
     <path d="M 215.0607 241.113281 
L 245.0607 241.113281 
" style="fill:none;stroke:#ff7f0e;stroke-linecap:square;stroke-width:3;"/>
    </g>
    <g id="line2d_33"/>
    <g id="text_17">
     <!-- Population Snapshots -->
     <defs>
      <path d="M 19.671875 64.796875 
L 19.671875 37.40625 
L 32.078125 37.40625 
Q 38.96875 37.40625 42.71875 40.96875 
Q 46.484375 44.53125 46.484375 51.125 
Q 46.484375 57.671875 42.71875 61.234375 
Q 38.96875 64.796875 32.078125 64.796875 
z
M 9.8125 72.90625 
L 32.078125 72.90625 
Q 44.34375 72.90625 50.609375 67.359375 
Q 56.890625 61.8125 56.890625 51.125 
Q 56.890625 40.328125 50.609375 34.8125 
Q 44.34375 29.296875 32.078125 29.296875 
L 19.671875 29.296875 
L 19.671875 0 
L 9.8125 0 
z
" id="DejaVuSans-50"/>
      <path d="M 30.609375 48.390625 
Q 23.390625 48.390625 19.1875 42.75 
Q 14.984375 37.109375 14.984375 27.296875 
Q 14.984375 17.484375 19.15625 11.84375 
Q 23.34375 6.203125 30.609375 6.203125 
Q 37.796875 6.203125 41.984375 11.859375 
Q 46.1875 17.53125 46.1875 27.296875 
Q 46.1875 37.015625 41.984375 42.703125 
Q 37.796875 48.390625 30.609375 48.390625 
z
M 30.609375 56 
Q 42.328125 56 49.015625 48.375 
Q 55.71875 40.765625 55.71875 27.296875 
Q 55.71875 13.875 49.015625 6.21875 
Q 42.328125 -1.421875 30.609375 -1.421875 
Q 18.84375 -1.421875 12.171875 6.21875 
Q 5.515625 13.875 5.515625 27.296875 
Q 5.515625 40.765625 12.171875 48.375 
Q 18.84375 56 30.609375 56 
z
" id="DejaVuSans-6f"/>
      <path d="M 18.109375 8.203125 
L 18.109375 -20.796875 
L 9.078125 -20.796875 
L 9.078125 54.6875 
L 18.109375 54.6875 
L 18.109375 46.390625 
Q 20.953125 51.265625 25.265625 53.625 
Q 29.59375 56 35.59375 56 
Q 45.5625 56 51.78125 48.09375 
Q 58.015625 40.1875 58.015625 27.296875 
Q 58.015625 14.40625 51.78125 6.484375 
Q 45.5625 -1.421875 35.59375 -1.421875 
Q 29.59375 -1.421875 25.265625 0.953125 
Q 20.953125 3.328125 18.109375 8.203125 
z
M 48.6875 27.296875 
Q 48.6875 37.203125 44.609375 42.84375 
Q 40.53125 48.484375 33.40625 48.484375 
Q 26.265625 48.484375 22.1875 42.84375 
Q 18.109375 37.203125 18.109375 27.296875 
Q 18.109375 17.390625 22.1875 11.75 
Q 26.265625 6.109375 33.40625 6.109375 
Q 40.53125 6.109375 44.609375 11.75 
Q 48.6875 17.390625 48.6875 27.296875 
z
" id="DejaVuSans-70"/>
      <path d="M 8.5 21.578125 
L 8.5 54.6875 
L 17.484375 54.6875 
L 17.484375 21.921875 
Q 17.484375 14.15625 20.5 10.265625 
Q 23.53125 6.390625 29.59375 6.390625 
Q 36.859375 6.390625 41.078125 11.03125 
Q 45.3125 15.671875 45.3125 23.6875 
L 45.3125 54.6875 
L 54.296875 54.6875 
L 54.296875 0 
L 45.3125 0 
L 45.3125 8.40625 
Q 42.046875 3.421875 37.71875 1 
Q 33.40625 -1.421875 27.6875 -1.421875 
Q 18.265625 -1.421875 13.375 4.4375 
Q 8.5 10.296875 8.5 21.578125 
z
M 31.109375 56 
z
" id="DejaVuSans-75"/>
      <path d="M 18.3125 70.21875 
L 18.3125 54.6875 
L 36.8125 54.6875 
L 36.8125 47.703125 
L 18.3125 47.703125 
L 18.3125 18.015625 
Q 18.3125 11.328125 20.140625 9.421875 
Q 21.96875 7.515625 27.59375 7.515625 
L 36.8125 7.515625 
L 36.8125 0 
L 27.59375 0 
Q 17.1875 0 13.234375 3.875 
Q 9.28125 7.765625 9.28125 18.015625 
L 9.28125 47.703125 
L 2.6875 47.703125 
L 2.6875 54.6875 
L 9.28125 54.6875 
L 9.28125 70.21875 
z
" id="DejaVuSans-74"/>
      <path d="M 44.28125 53.078125 
L 44.28125 44.578125 
Q 40.484375 46.53125 36.375 47.5 
Q 32.28125 48.484375 27.875 48.484375 
Q 21.1875 48.484375 17.84375 46.4375 
Q 14.5 44.390625 14.5 40.28125 
Q 14.5 37.15625 16.890625 35.375 
Q 19.28125 33.59375 26.515625 31.984375 
L 29.59375 31.296875 
Q 39.15625 29.25 43.1875 25.515625 
Q 47.21875 21.78125 47.21875 15.09375 
Q 47.21875 7.46875 41.1875 3.015625 
Q 35.15625 -1.421875 24.609375 -1.421875 
Q 20.21875 -1.421875 15.453125 -0.5625 
Q 10.6875 0.296875 5.421875 2 
L 5.421875 11.28125 
Q 10.40625 8.6875 15.234375 7.390625 
Q 20.0625 6.109375 24.8125 6.109375 
Q 31.15625 6.109375 34.5625 8.28125 
Q 37.984375 10.453125 37.984375 14.40625 
Q 37.984375 18.0625 35.515625 20.015625 
Q 33.0625 21.96875 24.703125 23.78125 
L 21.578125 24.515625 
Q 13.234375 26.265625 9.515625 29.90625 
Q 5.8125 33.546875 5.8125 39.890625 
Q 5.8125 47.609375 11.28125 51.796875 
Q 16.75 56 26.8125 56 
Q 31.78125 56 36.171875 55.265625 
Q 40.578125 54.546875 44.28125 53.078125 
z
" id="DejaVuSans-73"/>
      <path d="M 54.890625 33.015625 
L 54.890625 0 
L 45.90625 0 
L 45.90625 32.71875 
Q 45.90625 40.484375 42.875 44.328125 
Q 39.84375 48.1875 33.796875 48.1875 
Q 26.515625 48.1875 22.3125 43.546875 
Q 18.109375 38.921875 18.109375 30.90625 
L 18.109375 0 
L 9.078125 0 
L 9.078125 75.984375 
L 18.109375 75.984375 
L 18.109375 46.1875 
Q 21.34375 51.125 25.703125 53.5625 
Q 30.078125 56 35.796875 56 
Q 45.21875 56 50.046875 50.171875 
Q 54.890625 44.34375 54.890625 33.015625 
z
" id="DejaVuSans-68"/>
     </defs>
     <g transform="translate(257.0607 246.363281)scale(0.15 -0.15)">
      <use xlink:href="#DejaVuSans-50"/>
      <use x="60.255859" xlink:href="#DejaVuSans-6f"/>
      <use x="121.4375" xlink:href="#DejaVuSans-70"/>
      <use x="184.914062" xlink:href="#DejaVuSans-75"/>
      <use x="248.292969" xlink:href="#DejaVuSans-6c"/>
      <use x="276.076172" xlink:href="#DejaVuSans-61"/>
      <use x="337.355469" xlink:href="#DejaVuSans-74"/>
      <use x="376.564453" xlink:href="#DejaVuSans-69"/>
      <use x="404.347656" xlink:href="#DejaVuSans-6f"/>
      <use x="465.529297" xlink:href="#DejaVuSans-6e"/>
      <use x="528.908203" xlink:href="#DejaVuSans-20"/>
      <use x="560.695312" xlink:href="#DejaVuSans-53"/>
      <use x="624.171875" xlink:href="#DejaVuSans-6e"/>
      <use x="687.550781" xlink:href="#DejaVuSans-61"/>
      <use x="748.830078" xlink:href="#DejaVuSans-70"/>
      <use x="812.306641" xlink:href="#DejaVuSans-73"/>
      <use x="864.40625" xlink:href="#DejaVuSans-68"/>
      <use x="927.785156" xlink:href="#DejaVuSans-6f"/>
      <use x="988.966797" xlink:href="#DejaVuSans-74"/>
      <use x="1028.175781" xlink:href="#DejaVuSans-73"/>
     </g>
    </g>
    <g id="line2d_34">
     <path d="M 215.0607 263.130469 
L 245.0607 263.130469 
" style="fill:none;stroke:#2ca02c;stroke-linecap:square;stroke-width:3;"/>
    </g>
    <g id="line2d_35"/>
    <g id="text_18">
     <!-- Lineage Tracking -->
     <defs>
      <path d="M -0.296875 72.90625 
L 61.375 72.90625 
L 61.375 64.59375 
L 35.5 64.59375 
L 35.5 0 
L 25.59375 0 
L 25.59375 64.59375 
L -0.296875 64.59375 
z
" id="DejaVuSans-54"/>
      <path d="M 41.109375 46.296875 
Q 39.59375 47.171875 37.8125 47.578125 
Q 36.03125 48 33.890625 48 
Q 26.265625 48 22.1875 43.046875 
Q 18.109375 38.09375 18.109375 28.8125 
L 18.109375 0 
L 9.078125 0 
L 9.078125 54.6875 
L 18.109375 54.6875 
L 18.109375 46.1875 
Q 20.953125 51.171875 25.484375 53.578125 
Q 30.03125 56 36.53125 56 
Q 37.453125 56 38.578125 55.875 
Q 39.703125 55.765625 41.0625 55.515625 
z
" id="DejaVuSans-72"/>
      <path d="M 48.78125 52.59375 
L 48.78125 44.1875 
Q 44.96875 46.296875 41.140625 47.34375 
Q 37.3125 48.390625 33.40625 48.390625 
Q 24.65625 48.390625 19.8125 42.84375 
Q 14.984375 37.3125 14.984375 27.296875 
Q 14.984375 17.28125 19.8125 11.734375 
Q 24.65625 6.203125 33.40625 6.203125 
Q 37.3125 6.203125 41.140625 7.25 
Q 44.96875 8.296875 48.78125 10.40625 
L 48.78125 2.09375 
Q 45.015625 0.34375 40.984375 -0.53125 
Q 36.96875 -1.421875 32.421875 -1.421875 
Q 20.0625 -1.421875 12.78125 6.34375 
Q 5.515625 14.109375 5.515625 27.296875 
Q 5.515625 40.671875 12.859375 48.328125 
Q 20.21875 56 33.015625 56 
Q 37.15625 56 41.109375 55.140625 
Q 45.0625 54.296875 48.78125 52.59375 
z
" id="DejaVuSans-63"/>
      <path d="M 9.078125 75.984375 
L 18.109375 75.984375 
L 18.109375 31.109375 
L 44.921875 54.6875 
L 56.390625 54.6875 
L 27.390625 29.109375 
L 57.625 0 
L 45.90625 0 
L 18.109375 26.703125 
L 18.109375 0 
L 9.078125 0 
z
" id="DejaVuSans-6b"/>
     </defs>
     <g transform="translate(257.0607 268.380469)scale(0.15 -0.15)">
      <use xlink:href="#DejaVuSans-4c"/>
      <use x="55.712891" xlink:href="#DejaVuSans-69"/>
      <use x="83.496094" xlink:href="#DejaVuSans-6e"/>
      <use x="146.875" xlink:href="#DejaVuSans-65"/>
      <use x="208.398438" xlink:href="#DejaVuSans-61"/>
      <use x="269.677734" xlink:href="#DejaVuSans-67"/>
      <use x="333.154297" xlink:href="#DejaVuSans-65"/>
      <use x="394.677734" xlink:href="#DejaVuSans-20"/>
      <use x="426.464844" xlink:href="#DejaVuSans-54"/>
      <use x="487.330078" xlink:href="#DejaVuSans-72"/>
      <use x="528.443359" xlink:href="#DejaVuSans-61"/>
      <use x="589.722656" xlink:href="#DejaVuSans-63"/>
      <use x="644.703125" xlink:href="#DejaVuSans-6b"/>
      <use x="702.613281" xlink:href="#DejaVuSans-69"/>
      <use x="730.396484" xlink:href="#DejaVuSans-6e"/>
      <use x="793.775391" xlink:href="#DejaVuSans-67"/>
     </g>
    </g>
   </g>
  </g>
  <g id="axes_2">
   <g id="patch_8">
    <path d="M 541.774457 285 
L 905.6875 285 
L 905.6875 13.2 
L 541.774457 13.2 
z
" style="fill:#ffffff;"/>
   </g>
   <g id="PolyCollection_4">
    <defs>
     <path d="M 541.774457 -67.300392 
L 541.774457 -67.300392 
L 547.839674 -80.938674 
L 553.904891 -98.401223 
L 559.970109 -112.736365 
L 566.035326 -132.76314 
L 572.100543 -146.221914 
L 578.165761 -161.294886 
L 584.230978 -183.182544 
L 590.296196 -206.434632 
L 596.361413 -223.942152 
L 602.42663 -232.610409 
L 608.491848 -233.72817 
L 614.557065 -241.63066 
L 620.622283 -244.639191 
L 626.6875 -246.821368 
L 632.752717 -252.156163 
L 638.817935 -255.012669 
L 644.883152 -254.380542 
L 650.94837 -258.691132 
L 657.013587 -269.059702 
L 663.078804 -271.946403 
L 669.144022 -275.166337 
L 675.209239 -272.397561 
L 681.274457 -273.40786 
L 687.339674 -272.403438 
L 693.404891 -265.527513 
L 699.470109 -262.671282 
L 705.535326 -265.640541 
L 711.600543 -269.77424 
L 717.665761 -274.758593 
L 723.730978 -276.415763 
L 729.796196 -274.300881 
L 735.861413 -270.942358 
L 741.92663 -262.221226 
L 747.991848 -256.641834 
L 754.057065 -255.348074 
L 760.122283 -260.015012 
L 766.1875 -264.405236 
L 772.252717 -265.856876 
L 778.317935 -264.752809 
L 784.383152 -267.193156 
L 790.44837 -263.509227 
L 796.513587 -263.514726 
L 802.578804 -258.315352 
L 808.644022 -255.418793 
L 814.709239 -256.35736 
L 820.774457 -255.036961 
L 826.839674 -257.649219 
L 832.904891 -259.536859 
L 838.970109 -261.29558 
L 845.035326 -262.757212 
L 851.100543 -262.204663 
L 857.165761 -257.220555 
L 863.230978 -253.432108 
L 869.296196 -248.881225 
L 875.361413 -245.454202 
L 881.42663 -245.953109 
L 887.491848 -247.035206 
L 893.557065 -248.473419 
L 899.622283 -250.374495 
L 899.622283 -259.91781 
L 899.622283 -259.91781 
L 893.557065 -258.754068 
L 887.491848 -257.890688 
L 881.42663 -256.682969 
L 875.361413 -256.55912 
L 869.296196 -259.756279 
L 863.230978 -264.90235 
L 857.165761 -269.468888 
L 851.100543 -274.841957 
L 845.035326 -276.461434 
L 838.970109 -275.331055 
L 832.904891 -274.800569 
L 826.839674 -273.323918 
L 820.774457 -271.566062 
L 814.709239 -271.842434 
L 808.644022 -272.587756 
L 802.578804 -275.220901 
L 796.513587 -281.100995 
L 790.44837 -282.207525 
L 784.383152 -287.646551 
L 778.317935 -286.656223 
L 772.252717 -287.736454 
L 766.1875 -286.828249 
L 760.122283 -283.73449 
L 754.057065 -278.047772 
L 747.991848 -278.915206 
L 741.92663 -286.053833 
L 735.861413 -296.637156 
L 729.796196 -300.979547 
L 723.730978 -304.642714 
L 717.665761 -306.260199 
L 711.600543 -300.814162 
L 705.535326 -296.916912 
L 699.470109 -293.908733 
L 693.404891 -298.49766 
L 687.339674 -306.275695 
L 681.274457 -306.543601 
L 675.209239 -309.552142 
L 669.144022 -311.453455 
L 663.078804 -313.309182 
L 657.013587 -314.018892 
L 650.94837 -304.822269 
L 644.883152 -302.517492 
L 638.817935 -303.226819 
L 632.752717 -304.888467 
L 626.6875 -293.62704 
L 620.622283 -292.97421 
L 614.557065 -291.382887 
L 608.491848 -282.408023 
L 602.42663 -285.682378 
L 596.361413 -274.14087 
L 590.296196 -256.001784 
L 584.230978 -224.833735 
L 578.165761 -194.945603 
L 572.100543 -178.308863 
L 566.035326 -157.672831 
L 559.970109 -130.014701 
L 553.904891 -110.161937 
L 547.839674 -86.008904 
L 541.774457 -67.300392 
z
" id="m1b16649614"/>
    </defs>
    <g clip-path="url(#p85b0277014)">
     <use style="fill:#ffa035;" x="0" xlink:href="#m1b16649614" y="339.573438"/>
    </g>
   </g>
   <g id="PolyCollection_5">
    <defs>
     <path d="M 541.774457 -67.300392 
L 541.774457 -67.300392 
L 547.839674 -81.852303 
L 553.904891 -103.214108 
L 559.970109 -128.045536 
L 566.035326 -152.956601 
L 572.100543 -175.800894 
L 578.165761 -193.216187 
L 584.230978 -209.86283 
L 590.296196 -221.590532 
L 596.361413 -236.205025 
L 602.42663 -247.003974 
L 608.491848 -258.659273 
L 614.557065 -259.48125 
L 620.622283 -265.561109 
L 626.6875 -266.640674 
L 632.752717 -268.395992 
L 638.817935 -272.034031 
L 644.883152 -269.600157 
L 650.94837 -268.840887 
L 657.013587 -266.427277 
L 663.078804 -270.77338 
L 669.144022 -270.246148 
L 675.209239 -266.247182 
L 681.274457 -260.084041 
L 687.339674 -255.792467 
L 693.404891 -249.936772 
L 699.470109 -247.594531 
L 705.535326 -246.100052 
L 711.600543 -240.278622 
L 717.665761 -238.689473 
L 723.730978 -241.552849 
L 729.796196 -242.703647 
L 735.861413 -245.194735 
L 741.92663 -247.622018 
L 747.991848 -246.600541 
L 754.057065 -246.560395 
L 760.122283 -243.103428 
L 766.1875 -239.270451 
L 772.252717 -240.481443 
L 778.317935 -240.449245 
L 784.383152 -239.562111 
L 790.44837 -238.06354 
L 796.513587 -241.184622 
L 802.578804 -239.264097 
L 808.644022 -239.764092 
L 814.709239 -238.716189 
L 820.774457 -235.677402 
L 826.839674 -233.366652 
L 832.904891 -234.792832 
L 838.970109 -237.774834 
L 845.035326 -237.625128 
L 851.100543 -239.207519 
L 857.165761 -239.018342 
L 863.230978 -234.548948 
L 869.296196 -232.153552 
L 875.361413 -230.330418 
L 881.42663 -228.870971 
L 887.491848 -230.26458 
L 893.557065 -232.754537 
L 899.622283 -236.392091 
L 899.622283 -255.934321 
L 899.622283 -255.934321 
L 893.557065 -252.013429 
L 887.491848 -248.309148 
L 881.42663 -246.634889 
L 875.361413 -248.98947 
L 869.296196 -251.345294 
L 863.230978 -253.680396 
L 857.165761 -258.401409 
L 851.100543 -257.646807 
L 845.035326 -256.258256 
L 838.970109 -257.439044 
L 832.904891 -253.866303 
L 826.839674 -252.921596 
L 820.774457 -253.818065 
L 814.709239 -257.878024 
L 808.644022 -259.128684 
L 802.578804 -258.640778 
L 796.513587 -259.806978 
L 790.44837 -258.346817 
L 784.383152 -259.363988 
L 778.317935 -259.157359 
L 772.252717 -259.039736 
L 766.1875 -258.307607 
L 760.122283 -262.952499 
L 754.057065 -266.350116 
L 747.991848 -265.685951 
L 741.92663 -267.341378 
L 735.861413 -265.835693 
L 729.796196 -262.929302 
L 723.730978 -260.71229 
L 717.665761 -258.6602 
L 711.600543 -259.962983 
L 705.535326 -265.540026 
L 699.470109 -267.006621 
L 693.404891 -268.571864 
L 687.339674 -275.758033 
L 681.274457 -281.548649 
L 675.209239 -288.517974 
L 669.144022 -292.218285 
L 663.078804 -292.689865 
L 657.013587 -289.812339 
L 650.94837 -294.522557 
L 644.883152 -293.17992 
L 638.817935 -295.73476 
L 632.752717 -289.550487 
L 626.6875 -287.801524 
L 620.622283 -287.13674 
L 614.557065 -281.5062 
L 608.491848 -281.075689 
L 602.42663 -268.555372 
L 596.361413 -256.854131 
L 590.296196 -240.878996 
L 584.230978 -228.402012 
L 578.165761 -208.122008 
L 572.100543 -188.882616 
L 566.035326 -163.458049 
L 559.970109 -134.555474 
L 553.904891 -107.305861 
L 547.839674 -83.646291 
L 541.774457 -67.300392 
z
" id="m1288f7a97d"/>
    </defs>
    <g clip-path="url(#p85b0277014)">
     <use style="fill:#4db8ff;" x="0" xlink:href="#m1288f7a97d" y="339.573438"/>
    </g>
   </g>
   <g id="PolyCollection_6">
    <defs>
     <path d="M 541.774457 -67.300392 
L 541.774457 -67.300392 
L 547.839674 -67.300392 
L 553.904891 -67.300392 
L 559.970109 -67.300392 
L 566.035326 -67.300392 
L 572.100543 -67.032103 
L 578.165761 -66.927983 
L 584.230978 -70.256616 
L 590.296196 -81.124196 
L 596.361413 -87.900645 
L 602.42663 -94.72821 
L 608.491848 -102.579081 
L 614.557065 -111.136577 
L 620.622283 -118.735621 
L 626.6875 -128.979623 
L 632.752717 -133.853673 
L 638.817935 -136.930687 
L 644.883152 -143.177839 
L 650.94837 -145.954011 
L 657.013587 -156.873217 
L 663.078804 -166.382514 
L 669.144022 -172.762049 
L 675.209239 -180.411216 
L 681.274457 -185.405794 
L 687.339674 -189.876609 
L 693.404891 -190.056279 
L 699.470109 -188.741958 
L 705.535326 -195.021911 
L 711.600543 -202.547398 
L 717.665761 -209.785694 
L 723.730978 -215.634354 
L 729.796196 -222.481321 
L 735.861413 -222.352135 
L 741.92663 -217.942793 
L 747.991848 -215.612374 
L 754.057065 -215.571174 
L 760.122283 -220.652907 
L 766.1875 -223.930305 
L 772.252717 -226.439249 
L 778.317935 -229.990723 
L 784.383152 -231.793268 
L 790.44837 -230.828805 
L 796.513587 -233.13141 
L 802.578804 -231.80184 
L 808.644022 -230.709081 
L 814.709239 -231.667743 
L 820.774457 -232.144127 
L 826.839674 -234.598217 
L 832.904891 -237.908675 
L 838.970109 -241.948199 
L 845.035326 -244.309552 
L 851.100543 -244.797446 
L 857.165761 -242.247858 
L 863.230978 -239.913145 
L 869.296196 -236.61502 
L 875.361413 -234.225469 
L 881.42663 -235.443621 
L 887.491848 -236.445764 
L 893.557065 -238.539254 
L 899.622283 -241.859077 
L 899.622283 -252.29047 
L 899.622283 -252.29047 
L 893.557065 -250.110908 
L 887.491848 -249.083901 
L 881.42663 -247.160694 
L 875.361413 -246.121681 
L 869.296196 -248.859013 
L 863.230978 -252.511734 
L 857.165761 -256.401406 
L 851.100543 -258.944365 
L 845.035326 -258.778639 
L 838.970109 -256.83425 
L 832.904891 -253.416939 
L 826.839674 -251.78195 
L 820.774457 -248.369919 
L 814.709239 -247.259277 
L 808.644022 -247.46913 
L 802.578804 -249.931818 
L 796.513587 -250.922299 
L 790.44837 -249.635632 
L 784.383152 -252.410462 
L 778.317935 -249.275125 
L 772.252717 -247.415689 
L 766.1875 -246.600781 
L 760.122283 -244.057227 
L 754.057065 -237.871884 
L 747.991848 -239.11109 
L 741.92663 -241.918123 
L 735.861413 -247.82154 
L 729.796196 -248.00196 
L 723.730978 -241.897133 
L 717.665761 -235.763297 
L 711.600543 -227.568883 
L 705.535326 -219.868459 
L 699.470109 -214.100138 
L 693.404891 -215.740351 
L 687.339674 -214.32178 
L 681.274457 -209.817934 
L 675.209239 -204.475372 
L 669.144022 -196.968258 
L 663.078804 -192.861988 
L 657.013587 -184.332348 
L 650.94837 -173.034104 
L 644.883152 -169.031026 
L 638.817935 -164.618538 
L 632.752717 -159.424964 
L 626.6875 -152.36289 
L 620.622283 -142.445128 
L 614.557065 -134.446834 
L 608.491848 -125.001425 
L 602.42663 -116.049375 
L 596.361413 -107.326432 
L 590.296196 -98.894054 
L 584.230978 -80.666805 
L 578.165761 -73.845635 
L 572.100543 -70.071957 
L 566.035326 -67.300392 
L 559.970109 -67.300392 
L 553.904891 -67.300392 
L 547.839674 -67.300392 
L 541.774457 -67.300392 
z
" id="m1b2c3a5b7d"/>
    </defs>
    <g clip-path="url(#p85b0277014)">
     <use style="fill:#47d200;" x="0" xlink:href="#m1b2c3a5b7d" y="339.573438"/>
    </g>
   </g>
   <g id="matplotlib.axis_3">
    <g id="xtick_8">
     <g id="line2d_36">
      <path clip-path="url(#p85b0277014)" d="M 541.774457 285 
L 541.774457 13.2 
" style="fill:none;stroke:#b0b0b0;stroke-linecap:square;stroke-width:0.8;"/>
     </g>
     <g id="line2d_37">
      <g>
       <use x="541.774457" xlink:href="#me06b95b24d" y="285"/>
      </g>
     </g>
     <g id="text_19">
      <!-- 0 -->
      <g transform="translate(537.002582 305.897656)scale(0.15 -0.15)">
       <use xlink:href="#DejaVuSans-30"/>
      </g>
     </g>
    </g>
    <g id="xtick_9">
     <g id="line2d_38">
      <path clip-path="url(#p85b0277014)" d="M 602.42663 285 
L 602.42663 13.2 
" style="fill:none;stroke:#b0b0b0;stroke-linecap:square;stroke-width:0.8;"/>
     </g>
     <g id="line2d_39">
      <g>
       <use x="602.42663" xlink:href="#me06b95b24d" y="285"/>
      </g>
     </g>
     <g id="text_20">
      <!-- 1 -->
      <g transform="translate(597.654755 305.897656)scale(0.15 -0.15)">
       <use xlink:href="#DejaVuSans-31"/>
      </g>
     </g>
    </g>
    <g id="xtick_10">
     <g id="line2d_40">
      <path clip-path="url(#p85b0277014)" d="M 663.078804 285 
L 663.078804 13.2 
" style="fill:none;stroke:#b0b0b0;stroke-linecap:square;stroke-width:0.8;"/>
     </g>
     <g id="line2d_41">
      <g>
       <use x="663.078804" xlink:href="#me06b95b24d" y="285"/>
      </g>
     </g>
     <g id="text_21">
      <!-- 2 -->
      <g transform="translate(658.306929 305.897656)scale(0.15 -0.15)">
       <use xlink:href="#DejaVuSans-32"/>
      </g>
     </g>
    </g>
    <g id="xtick_11">
     <g id="line2d_42">
      <path clip-path="url(#p85b0277014)" d="M 723.730978 285 
L 723.730978 13.2 
" style="fill:none;stroke:#b0b0b0;stroke-linecap:square;stroke-width:0.8;"/>
     </g>
     <g id="line2d_43">
      <g>
       <use x="723.730978" xlink:href="#me06b95b24d" y="285"/>
      </g>
     </g>
     <g id="text_22">
      <!-- 3 -->
      <g transform="translate(718.959103 305.897656)scale(0.15 -0.15)">
       <use xlink:href="#DejaVuSans-33"/>
      </g>
     </g>
    </g>
    <g id="xtick_12">
     <g id="line2d_44">
      <path clip-path="url(#p85b0277014)" d="M 784.383152 285 
L 784.383152 13.2 
" style="fill:none;stroke:#b0b0b0;stroke-linecap:square;stroke-width:0.8;"/>
     </g>
     <g id="line2d_45">
      <g>
       <use x="784.383152" xlink:href="#me06b95b24d" y="285"/>
      </g>
     </g>
     <g id="text_23">
      <!-- 4 -->
      <g transform="translate(779.611277 305.897656)scale(0.15 -0.15)">
       <use xlink:href="#DejaVuSans-34"/>
      </g>
     </g>
    </g>
    <g id="xtick_13">
     <g id="line2d_46">
      <path clip-path="url(#p85b0277014)" d="M 845.035326 285 
L 845.035326 13.2 
" style="fill:none;stroke:#b0b0b0;stroke-linecap:square;stroke-width:0.8;"/>
     </g>
     <g id="line2d_47">
      <g>
       <use x="845.035326" xlink:href="#me06b95b24d" y="285"/>
      </g>
     </g>
     <g id="text_24">
      <!-- 5 -->
      <g transform="translate(840.263451 305.897656)scale(0.15 -0.15)">
       <use xlink:href="#DejaVuSans-35"/>
      </g>
     </g>
    </g>
    <g id="xtick_14">
     <g id="line2d_48">
      <path clip-path="url(#p85b0277014)" d="M 905.6875 285 
L 905.6875 13.2 
" style="fill:none;stroke:#b0b0b0;stroke-linecap:square;stroke-width:0.8;"/>
     </g>
     <g id="line2d_49">
      <g>
       <use x="905.6875" xlink:href="#me06b95b24d" y="285"/>
      </g>
     </g>
     <g id="text_25">
      <!-- 6 -->
      <g transform="translate(900.915625 305.897656)scale(0.15 -0.15)">
       <use xlink:href="#DejaVuSans-36"/>
      </g>
     </g>
    </g>
    <g id="text_26">
     <!-- $t/\tau$ -->
     <g transform="translate(710.330978 328.214063)scale(0.2 -0.2)">
      <use transform="translate(0 0.09375)" xlink:href="#DejaVuSans-Oblique-74"/>
      <use transform="translate(39.208984 0.09375)" xlink:href="#DejaVuSans-2f"/>
      <use transform="translate(72.900391 0.09375)" xlink:href="#DejaVuSans-Oblique-3c4"/>
     </g>
    </g>
   </g>
   <g id="matplotlib.axis_4">
    <g id="ytick_7">
     <g id="line2d_50">
      <path clip-path="url(#p85b0277014)" d="M 541.774457 272.273046 
L 905.6875 272.273046 
" style="fill:none;stroke:#b0b0b0;stroke-linecap:square;stroke-width:0.8;"/>
     </g>
     <g id="line2d_51">
      <g>
       <use x="541.774457" xlink:href="#m14c0c532dd" y="272.273046"/>
      </g>
     </g>
     <g id="text_27">
      <!-- 0.000 -->
      <defs>
       <path d="M 10.6875 12.40625 
L 21 12.40625 
L 21 0 
L 10.6875 0 
z
" id="DejaVuSans-2e"/>
      </defs>
      <g transform="translate(489.332269 277.971874)scale(0.15 -0.15)">
       <use xlink:href="#DejaVuSans-30"/>
       <use x="63.623047" xlink:href="#DejaVuSans-2e"/>
       <use x="95.410156" xlink:href="#DejaVuSans-30"/>
       <use x="159.033203" xlink:href="#DejaVuSans-30"/>
       <use x="222.65625" xlink:href="#DejaVuSans-30"/>
      </g>
     </g>
    </g>
    <g id="ytick_8">
     <g id="line2d_52">
      <path clip-path="url(#p85b0277014)" d="M 541.774457 224.613519 
L 905.6875 224.613519 
" style="fill:none;stroke:#b0b0b0;stroke-linecap:square;stroke-width:0.8;"/>
     </g>
     <g id="line2d_53">
      <g>
       <use x="541.774457" xlink:href="#m14c0c532dd" y="224.613519"/>
      </g>
     </g>
     <g id="text_28">
      <!-- 0.005 -->
      <g transform="translate(489.332269 230.312347)scale(0.15 -0.15)">
       <use xlink:href="#DejaVuSans-30"/>
       <use x="63.623047" xlink:href="#DejaVuSans-2e"/>
       <use x="95.410156" xlink:href="#DejaVuSans-30"/>
       <use x="159.033203" xlink:href="#DejaVuSans-30"/>
       <use x="222.65625" xlink:href="#DejaVuSans-35"/>
      </g>
     </g>
    </g>
    <g id="ytick_9">
     <g id="line2d_54">
      <path clip-path="url(#p85b0277014)" d="M 541.774457 176.953993 
L 905.6875 176.953993 
" style="fill:none;stroke:#b0b0b0;stroke-linecap:square;stroke-width:0.8;"/>
     </g>
     <g id="line2d_55">
      <g>
       <use x="541.774457" xlink:href="#m14c0c532dd" y="176.953993"/>
      </g>
     </g>
     <g id="text_29">
      <!-- 0.010 -->
      <g transform="translate(489.332269 182.652821)scale(0.15 -0.15)">
       <use xlink:href="#DejaVuSans-30"/>
       <use x="63.623047" xlink:href="#DejaVuSans-2e"/>
       <use x="95.410156" xlink:href="#DejaVuSans-30"/>
       <use x="159.033203" xlink:href="#DejaVuSans-31"/>
       <use x="222.65625" xlink:href="#DejaVuSans-30"/>
      </g>
     </g>
    </g>
    <g id="ytick_10">
     <g id="line2d_56">
      <path clip-path="url(#p85b0277014)" d="M 541.774457 129.294467 
L 905.6875 129.294467 
" style="fill:none;stroke:#b0b0b0;stroke-linecap:square;stroke-width:0.8;"/>
     </g>
     <g id="line2d_57">
      <g>
       <use x="541.774457" xlink:href="#m14c0c532dd" y="129.294467"/>
      </g>
     </g>
     <g id="text_30">
      <!-- 0.015 -->
      <g transform="translate(489.332269 134.993295)scale(0.15 -0.15)">
       <use xlink:href="#DejaVuSans-30"/>
       <use x="63.623047" xlink:href="#DejaVuSans-2e"/>
       <use x="95.410156" xlink:href="#DejaVuSans-30"/>
       <use x="159.033203" xlink:href="#DejaVuSans-31"/>
       <use x="222.65625" xlink:href="#DejaVuSans-35"/>
      </g>
     </g>
    </g>
    <g id="ytick_11">
     <g id="line2d_58">
      <path clip-path="url(#p85b0277014)" d="M 541.774457 81.63494 
L 905.6875 81.63494 
" style="fill:none;stroke:#b0b0b0;stroke-linecap:square;stroke-width:0.8;"/>
     </g>
     <g id="line2d_59">
      <g>
       <use x="541.774457" xlink:href="#m14c0c532dd" y="81.63494"/>
      </g>
     </g>
     <g id="text_31">
      <!-- 0.020 -->
      <g transform="translate(489.332269 87.333768)scale(0.15 -0.15)">
       <use xlink:href="#DejaVuSans-30"/>
       <use x="63.623047" xlink:href="#DejaVuSans-2e"/>
       <use x="95.410156" xlink:href="#DejaVuSans-30"/>
       <use x="159.033203" xlink:href="#DejaVuSans-32"/>
       <use x="222.65625" xlink:href="#DejaVuSans-30"/>
      </g>
     </g>
    </g>
    <g id="ytick_12">
     <g id="line2d_60">
      <path clip-path="url(#p85b0277014)" d="M 541.774457 33.975414 
L 905.6875 33.975414 
" style="fill:none;stroke:#b0b0b0;stroke-linecap:square;stroke-width:0.8;"/>
     </g>
     <g id="line2d_61">
      <g>
       <use x="541.774457" xlink:href="#m14c0c532dd" y="33.975414"/>
      </g>
     </g>
     <g id="text_32">
      <!-- 0.025 -->
      <g transform="translate(489.332269 39.674242)scale(0.15 -0.15)">
       <use xlink:href="#DejaVuSans-30"/>
       <use x="63.623047" xlink:href="#DejaVuSans-2e"/>
       <use x="95.410156" xlink:href="#DejaVuSans-30"/>
       <use x="159.033203" xlink:href="#DejaVuSans-32"/>
       <use x="222.65625" xlink:href="#DejaVuSans-35"/>
      </g>
     </g>
    </g>
    <g id="text_33">
     <!-- $C_V^2(p)$ -->
     <defs>
      <path d="M 69.484375 67.28125 
L 67.484375 56.890625 
Q 62.796875 61.625 57.546875 63.921875 
Q 52.296875 66.21875 46.1875 66.21875 
Q 37.84375 66.21875 31.515625 62.203125 
Q 25.203125 58.203125 20.609375 50 
Q 17.671875 44.734375 16.125 38.84375 
Q 14.59375 32.953125 14.59375 27 
Q 14.59375 17.046875 19.75 11.8125 
Q 24.90625 6.59375 34.71875 6.59375 
Q 41.5 6.59375 47.75 8.765625 
Q 54 10.9375 59.90625 15.28125 
L 57.625 3.609375 
Q 51.8125 1.125 45.875 -0.140625 
Q 39.9375 -1.421875 33.984375 -1.421875 
Q 19.96875 -1.421875 12.078125 6.1875 
Q 4.203125 13.8125 4.203125 27.390625 
Q 4.203125 36.078125 7.203125 44.46875 
Q 10.203125 52.875 15.828125 59.8125 
Q 21.78125 67.1875 29.421875 70.703125 
Q 37.0625 74.21875 47.21875 74.21875 
Q 53.46875 74.21875 59.0625 72.484375 
Q 64.65625 70.75 69.484375 67.28125 
z
" id="DejaVuSans-Oblique-43"/>
      <path d="M 20.609375 0 
L 7.8125 72.90625 
L 17.484375 72.90625 
L 28.078125 10.203125 
L 63.484375 72.90625 
L 74.21875 72.90625 
L 32.078125 0 
z
" id="DejaVuSans-Oblique-56"/>
      <path d="M 31 75.875 
Q 24.46875 64.65625 21.28125 53.65625 
Q 18.109375 42.671875 18.109375 31.390625 
Q 18.109375 20.125 21.3125 9.0625 
Q 24.515625 -2 31 -13.1875 
L 23.1875 -13.1875 
Q 15.875 -1.703125 12.234375 9.375 
Q 8.59375 20.453125 8.59375 31.390625 
Q 8.59375 42.28125 12.203125 53.3125 
Q 15.828125 64.359375 23.1875 75.875 
z
" id="DejaVuSans-28"/>
      <path d="M 8.015625 75.875 
L 15.828125 75.875 
Q 23.140625 64.359375 26.78125 53.3125 
Q 30.421875 42.28125 30.421875 31.390625 
Q 30.421875 20.453125 26.78125 9.375 
Q 23.140625 -1.703125 15.828125 -13.1875 
L 8.015625 -13.1875 
Q 14.5 -2 17.703125 9.0625 
Q 20.90625 20.125 20.90625 31.390625 
Q 20.90625 42.671875 17.703125 53.65625 
Q 14.5 64.65625 8.015625 75.875 
z
" id="DejaVuSans-29"/>
     </defs>
     <g transform="translate(479.732269 175.7)rotate(-90)scale(0.2 -0.2)">
      <use transform="translate(0 0.765625)" xlink:href="#DejaVuSans-Oblique-43"/>
      <use transform="translate(77.02474 39.046875)scale(0.7)" xlink:href="#DejaVuSans-32"/>
      <use transform="translate(69.824219 -26.578125)scale(0.7)" xlink:href="#DejaVuSans-Oblique-56"/>
      <use transform="translate(124.295247 0.765625)" xlink:href="#DejaVuSans-28"/>
      <use transform="translate(163.308919 0.765625)" xlink:href="#DejaVuSans-Oblique-70"/>
      <use transform="translate(226.785482 0.765625)" xlink:href="#DejaVuSans-29"/>
     </g>
    </g>
   </g>
   <g id="line2d_62">
    <path clip-path="url(#p85b0277014)" d="M 541.774457 272.273046 
L 547.839674 256.82414 
L 553.904891 234.313453 
L 559.970109 208.272932 
L 566.035326 181.366112 
L 572.100543 157.231682 
L 578.165761 138.90434 
L 584.230978 120.441017 
L 590.296196 108.338673 
L 596.361413 93.043859 
L 602.42663 81.793765 
L 608.491848 69.705957 
L 614.557065 69.079713 
L 620.622283 63.224513 
L 626.6875 62.352339 
L 632.752717 60.600198 
L 638.817935 55.689042 
L 644.883152 58.183399 
L 650.94837 57.891715 
L 657.013587 61.45363 
L 663.078804 57.841815 
L 669.144022 58.341221 
L 675.209239 62.19086 
L 681.274457 68.757092 
L 687.339674 73.798187 
L 693.404891 80.319119 
L 699.470109 82.272861 
L 705.535326 83.753399 
L 711.600543 89.452635 
L 717.665761 90.898601 
L 723.730978 88.440868 
L 729.796196 86.756963 
L 735.861413 84.058224 
L 741.92663 82.091739 
L 747.991848 83.430191 
L 754.057065 83.118182 
L 760.122283 86.545474 
L 766.1875 90.784408 
L 772.252717 89.812848 
L 778.317935 89.770135 
L 784.383152 90.110388 
L 790.44837 91.368259 
L 796.513587 89.077637 
L 802.578804 90.621 
L 808.644022 90.127049 
L 814.709239 91.276331 
L 820.774457 94.825704 
L 826.839674 96.429313 
L 832.904891 95.24387 
L 838.970109 91.966499 
L 845.035326 92.631745 
L 851.100543 91.146274 
L 857.165761 90.863562 
L 863.230978 95.458765 
L 869.296196 97.824014 
L 875.361413 99.913493 
L 881.42663 101.820507 
L 887.491848 100.286573 
L 893.557065 97.189454 
L 899.622283 93.410231 
" style="fill:none;stroke:#1f77b4;stroke-linecap:square;stroke-width:3;"/>
   </g>
   <g id="line2d_63">
    <path clip-path="url(#p85b0277014)" d="M 541.774457 272.273046 
L 547.839674 272.273046 
L 553.904891 272.273046 
L 559.970109 272.273046 
L 566.035326 272.273046 
L 572.100543 271.021407 
L 578.165761 269.186629 
L 584.230978 264.111727 
L 590.296196 249.564313 
L 596.361413 241.959899 
L 602.42663 234.184645 
L 608.491848 225.783184 
L 614.557065 216.781732 
L 620.622283 208.983063 
L 626.6875 198.902181 
L 632.752717 192.934119 
L 638.817935 188.798825 
L 644.883152 183.469005 
L 650.94837 180.07938 
L 657.013587 168.970655 
L 663.078804 159.951187 
L 669.144022 154.708284 
L 675.209239 147.130144 
L 681.274457 141.961573 
L 687.339674 137.474243 
L 693.404891 136.675123 
L 699.470109 138.15239 
L 705.535326 132.128252 
L 711.600543 124.515297 
L 717.665761 116.798942 
L 723.730978 110.807694 
L 729.796196 104.331797 
L 735.861413 104.4866 
L 741.92663 109.64298 
L 747.991848 112.211706 
L 754.057065 112.851909 
L 760.122283 107.218371 
L 766.1875 104.307895 
L 772.252717 102.645968 
L 778.317935 99.940513 
L 784.383152 97.471573 
L 790.44837 99.341219 
L 796.513587 97.546583 
L 802.578804 98.706608 
L 808.644022 100.484332 
L 814.709239 100.109928 
L 820.774457 99.316414 
L 826.839674 96.383354 
L 832.904891 93.91063 
L 838.970109 90.182213 
L 845.035326 88.029342 
L 851.100543 87.702532 
L 857.165761 90.248805 
L 863.230978 93.360998 
L 869.296196 96.836421 
L 875.361413 99.399863 
L 881.42663 98.27128 
L 887.491848 96.808605 
L 893.557065 95.248357 
L 899.622283 92.498664 
" style="fill:none;stroke:#319000;stroke-linecap:square;stroke-width:3;"/>
   </g>
   <g id="patch_9">
    <path d="M 541.774457 285 
L 541.774457 13.2 
" style="fill:none;stroke:#000000;stroke-linecap:square;stroke-linejoin:miter;stroke-width:2;"/>
   </g>
   <g id="patch_10">
    <path d="M 905.6875 285 
L 905.6875 13.2 
" style="fill:none;"/>
   </g>
   <g id="patch_11">
    <path d="M 541.774457 285 
L 905.6875 285 
" style="fill:none;stroke:#000000;stroke-linecap:square;stroke-linejoin:miter;stroke-width:2;"/>
   </g>
   <g id="patch_12">
    <path d="M 541.774457 13.2 
L 905.6875 13.2 
" style="fill:none;"/>
   </g>
  </g>
 </g>
 <defs>
  <clipPath id="p00b063ba02">
   <rect height="271.8" width="363.913043" x="68.6875" y="13.2"/>
  </clipPath>
  <clipPath id="p85b0277014">
   <rect height="271.8" width="363.913043" x="541.774457" y="13.2"/>
  </clipPath>
 </defs>
</svg>
