<?xml version="1.0" encoding="utf-8" standalone="no"?>
<!DOCTYPE svg PUBLIC "-//W3C//DTD SVG 1.1//EN"
  "http://www.w3.org/Graphics/SVG/1.1/DTD/svg11.dtd">
<!-- Created with matplotlib (http://matplotlib.org/) -->
<svg height="339.679296pt" version="1.1" viewBox="0 0 914.154688 339.679296" width="914.154688pt" xmlns="http://www.w3.org/2000/svg" xmlns:xlink="http://www.w3.org/1999/xlink">
 <defs>
  <style type="text/css">
*{stroke-linecap:butt;stroke-linejoin:round;}
  </style>
 </defs>
 <g id="figure_1">
  <g id="patch_1">
   <path d="M 0 339.679296 
L 914.154688 339.679296 
L 914.154688 0 
L 0 0 
z
" style="fill:#ffffff;"/>
  </g>
  <g id="axes_1">
   <g id="patch_2">
    <path d="M 63.954688 285.105859 
L 427.867731 285.105859 
L 427.867731 13.305859 
L 63.954688 13.305859 
z
" style="fill:#ffffff;"/>
   </g>
   <g id="PolyCollection_1">
    <defs>
     <path d="M 63.954688 -103.525767 
L 63.954688 -103.525767 
L 70.019905 -114.648558 
L 76.085122 -128.189775 
L 82.15034 -140.308966 
L 88.215557 -153.76596 
L 94.280774 -164.175753 
L 100.345992 -177.22888 
L 106.411209 -187.995615 
L 112.476427 -198.974542 
L 118.541644 -207.987567 
L 124.606861 -218.723662 
L 130.672079 -223.676968 
L 136.737296 -232.441238 
L 142.802514 -236.087801 
L 148.867731 -245.100497 
L 154.932948 -252.533551 
L 160.998166 -256.504971 
L 167.063383 -256.667214 
L 173.128601 -259.725134 
L 179.193818 -267.615665 
L 185.259035 -270.85245 
L 191.324253 -275.478393 
L 197.38947 -279.044909 
L 203.454688 -276.912921 
L 209.519905 -281.208033 
L 215.585122 -282.535976 
L 221.65034 -284.460122 
L 227.715557 -283.52435 
L 233.780774 -277.044503 
L 239.845992 -280.835667 
L 245.911209 -277.058953 
L 251.976427 -274.239594 
L 258.041644 -275.56982 
L 264.106861 -275.023804 
L 270.172079 -271.463021 
L 276.237296 -273.225635 
L 282.302514 -277.490075 
L 288.367731 -276.982295 
L 294.432948 -271.419081 
L 300.498166 -272.059598 
L 306.563383 -273.583132 
L 312.628601 -277.046851 
L 318.693818 -279.696503 
L 324.759035 -282.696814 
L 330.824253 -281.266612 
L 336.88947 -278.405023 
L 342.954687 -278.122689 
L 349.019905 -276.408937 
L 355.085122 -273.702758 
L 361.15034 -277.819106 
L 367.215557 -276.339652 
L 373.280774 -277.909865 
L 379.345992 -278.893298 
L 385.411209 -283.762575 
L 391.476427 -281.698539 
L 397.541644 -279.743202 
L 403.606861 -279.226772 
L 409.672079 -278.328665 
L 415.737296 -274.07095 
L 421.802514 -276.76989 
L 427.867731 -277.991591 
L 427.867731 -305.897132 
L 427.867731 -305.897132 
L 421.802514 -304.566088 
L 415.737296 -301.323532 
L 409.672079 -305.730942 
L 403.606861 -307.404919 
L 397.541644 -307.878009 
L 391.476427 -310.284168 
L 385.411209 -312.140129 
L 379.345992 -307.646005 
L 373.280774 -305.552494 
L 367.215557 -303.93461 
L 361.15034 -306.556495 
L 355.085122 -303.845438 
L 349.019905 -304.646468 
L 342.954687 -307.204769 
L 336.88947 -307.021507 
L 330.824253 -308.137207 
L 324.759035 -310.052564 
L 318.693818 -306.457012 
L 312.628601 -303.211123 
L 306.563383 -299.308063 
L 300.498166 -300.02017 
L 294.432948 -297.693528 
L 288.367731 -303.191048 
L 282.302514 -304.728688 
L 276.237296 -300.395239 
L 270.172079 -296.640966 
L 264.106861 -301.033216 
L 258.041644 -303.376646 
L 251.976427 -301.103183 
L 245.911209 -303.168852 
L 239.845992 -308.847377 
L 233.780774 -305.158206 
L 227.715557 -310.654215 
L 221.65034 -314.018892 
L 215.585122 -309.965798 
L 209.519905 -309.123834 
L 203.454688 -303.200276 
L 197.38947 -304.980957 
L 191.324253 -300.666417 
L 185.259035 -297.793616 
L 179.193818 -293.296921 
L 173.128601 -283.722947 
L 167.063383 -279.479832 
L 160.998166 -281.98319 
L 154.932948 -275.462172 
L 148.867731 -267.841922 
L 142.802514 -257.886287 
L 136.737296 -251.874537 
L 130.672079 -241.924963 
L 124.606861 -236.583521 
L 118.541644 -225.286983 
L 112.476427 -213.300068 
L 106.411209 -201.949026 
L 100.345992 -189.300425 
L 94.280774 -175.213751 
L 88.215557 -163.203815 
L 82.15034 -148.602287 
L 76.085122 -134.551617 
L 70.019905 -119.071043 
L 63.954688 -103.525767 
z
" id="m11b245cf37"/>
    </defs>
    <g clip-path="url(#pd4f9e7a462)">
     <use style="fill:#4db8ff;" x="0" xlink:href="#m11b245cf37" y="339.679296"/>
    </g>
   </g>
   <g id="PolyCollection_2">
    <defs>
     <path d="M 63.954688 -103.525767 
L 63.954688 -103.525767 
L 70.019905 -87.379217 
L 76.085122 -88.636941 
L 82.15034 -85.970803 
L 88.215557 -75.729989 
L 94.280774 -69.686987 
L 100.345992 -66.927983 
L 106.411209 -71.942723 
L 112.476427 -67.419931 
L 118.541644 -70.978535 
L 124.606861 -69.738512 
L 130.672079 -68.94825 
L 136.737296 -74.577203 
L 142.802514 -75.863281 
L 148.867731 -75.572296 
L 154.932948 -70.124356 
L 160.998166 -72.738404 
L 167.063383 -78.172084 
L 173.128601 -82.514759 
L 179.193818 -83.40248 
L 185.259035 -84.355537 
L 191.324253 -87.989913 
L 197.38947 -89.222031 
L 203.454688 -92.797444 
L 209.519905 -90.32885 
L 215.585122 -96.64587 
L 221.65034 -99.412817 
L 227.715557 -97.609943 
L 233.780774 -98.002135 
L 239.845992 -94.639824 
L 245.911209 -93.1089 
L 251.976427 -94.527659 
L 258.041644 -95.176822 
L 264.106861 -92.8735 
L 270.172079 -94.623685 
L 276.237296 -95.44357 
L 282.302514 -95.348568 
L 288.367731 -97.595458 
L 294.432948 -99.380268 
L 300.498166 -98.529653 
L 306.563383 -99.101243 
L 312.628601 -97.595916 
L 318.693818 -97.401228 
L 324.759035 -98.417515 
L 330.824253 -97.311802 
L 336.88947 -99.741838 
L 342.954687 -100.924878 
L 349.019905 -100.579263 
L 355.085122 -101.110084 
L 361.15034 -101.282027 
L 367.215557 -103.102245 
L 373.280774 -105.116015 
L 379.345992 -104.50264 
L 385.411209 -103.076351 
L 391.476427 -100.545797 
L 397.541644 -101.984414 
L 403.606861 -101.917873 
L 409.672079 -101.513237 
L 415.737296 -101.115654 
L 421.802514 -101.904136 
L 427.867731 -101.204058 
L 427.867731 -109.743855 
L 427.867731 -109.743855 
L 421.802514 -110.241583 
L 415.737296 -109.995802 
L 409.672079 -110.578723 
L 403.606861 -111.185508 
L 397.541644 -111.762248 
L 391.476427 -110.77058 
L 385.411209 -113.768867 
L 379.345992 -115.815801 
L 373.280774 -116.382281 
L 367.215557 -114.689017 
L 361.15034 -112.893614 
L 355.085122 -114.019966 
L 349.019905 -113.156666 
L 342.954687 -113.981037 
L 336.88947 -113.157311 
L 330.824253 -111.134975 
L 324.759035 -112.701181 
L 318.693818 -112.805688 
L 312.628601 -112.550303 
L 306.563383 -114.469005 
L 300.498166 -113.967289 
L 294.432948 -115.75595 
L 288.367731 -116.175531 
L 282.302514 -114.420148 
L 276.237296 -114.412407 
L 270.172079 -114.764856 
L 264.106861 -112.255423 
L 258.041644 -115.560221 
L 251.976427 -114.739615 
L 245.911209 -114.884565 
L 239.845992 -117.975733 
L 233.780774 -122.726453 
L 227.715557 -121.572984 
L 221.65034 -124.527031 
L 215.585122 -122.406878 
L 209.519905 -117.650885 
L 203.454688 -120.496258 
L 197.38947 -117.734408 
L 191.324253 -115.978846 
L 185.259035 -113.91019 
L 179.193818 -113.490948 
L 173.128601 -112.289741 
L 167.063383 -107.332328 
L 160.998166 -102.260377 
L 154.932948 -101.232604 
L 148.867731 -109.535069 
L 142.802514 -108.636858 
L 136.737296 -107.663401 
L 130.672079 -103.397859 
L 124.606861 -104.11953 
L 118.541644 -106.216073 
L 112.476427 -101.283408 
L 106.411209 -104.679045 
L 100.345992 -99.195542 
L 94.280774 -103.218973 
L 88.215557 -106.648619 
L 82.15034 -112.295981 
L 76.085122 -113.555719 
L 70.019905 -105.856602 
L 63.954688 -103.525767 
z
" id="m60ad7a1e7d"/>
    </defs>
    <g clip-path="url(#pd4f9e7a462)">
     <use style="fill:#ffa035;" x="0" xlink:href="#m60ad7a1e7d" y="339.679296"/>
    </g>
   </g>
   <g id="PolyCollection_3">
    <defs>
     <path d="M 63.954688 -103.525767 
L 63.954688 -103.525767 
L 70.019905 -106.54548 
L 76.085122 -120.684281 
L 82.15034 -128.490828 
L 88.215557 -133.674355 
L 94.280774 -132.105519 
L 100.345992 -139.163102 
L 106.411209 -149.364044 
L 112.476427 -148.911208 
L 118.541644 -160.656974 
L 124.606861 -165.618537 
L 130.672079 -170.717705 
L 136.737296 -171.351486 
L 142.802514 -175.694062 
L 148.867731 -179.636642 
L 154.932948 -167.946344 
L 160.998166 -167.850179 
L 167.063383 -166.097033 
L 173.128601 -166.029323 
L 179.193818 -169.243634 
L 185.259035 -171.418682 
L 191.324253 -160.087256 
L 197.38947 -155.176671 
L 203.454688 -156.128125 
L 209.519905 -149.954847 
L 215.585122 -153.59024 
L 221.65034 -147.165336 
L 227.715557 -144.870724 
L 233.780774 -143.053405 
L 239.845992 -135.911038 
L 245.911209 -128.969869 
L 251.976427 -127.407686 
L 258.041644 -126.26505 
L 264.106861 -121.859693 
L 270.172079 -122.362106 
L 276.237296 -121.638575 
L 282.302514 -119.768568 
L 288.367731 -120.702 
L 294.432948 -120.139884 
L 300.498166 -118.135111 
L 306.563383 -117.092178 
L 312.628601 -114.369199 
L 318.693818 -114.09874 
L 324.759035 -113.231464 
L 330.824253 -111.581987 
L 336.88947 -114.024125 
L 342.954687 -113.860328 
L 349.019905 -111.780159 
L 355.085122 -111.601704 
L 361.15034 -111.913992 
L 367.215557 -112.512855 
L 373.280774 -113.759915 
L 379.345992 -112.926146 
L 385.411209 -110.591556 
L 391.476427 -107.335843 
L 397.541644 -108.450787 
L 403.606861 -107.632145 
L 409.672079 -107.361256 
L 415.737296 -106.542616 
L 421.802514 -106.52492 
L 427.867731 -106.248804 
L 427.867731 -118.432197 
L 427.867731 -118.432197 
L 421.802514 -119.603242 
L 415.737296 -119.986532 
L 409.672079 -120.786791 
L 403.606861 -121.522501 
L 397.541644 -122.885595 
L 391.476427 -123.100192 
L 385.411209 -127.112758 
L 379.345992 -129.851232 
L 373.280774 -130.451862 
L 367.215557 -129.665446 
L 361.15034 -131.197512 
L 355.085122 -132.922213 
L 349.019905 -132.422339 
L 342.954687 -135.392224 
L 336.88947 -135.762806 
L 330.824253 -132.448467 
L 324.759035 -138.138965 
L 318.693818 -139.131883 
L 312.628601 -138.416725 
L 306.563383 -141.235302 
L 300.498166 -145.859968 
L 294.432948 -147.24932 
L 288.367731 -148.960662 
L 282.302514 -149.834619 
L 276.237296 -153.539624 
L 270.172079 -155.255938 
L 264.106861 -156.360451 
L 258.041644 -162.603942 
L 251.976427 -162.588346 
L 245.911209 -170.299974 
L 239.845992 -179.691547 
L 233.780774 -189.322982 
L 227.715557 -194.457181 
L 221.65034 -192.461296 
L 215.585122 -208.456918 
L 209.519905 -209.17237 
L 203.454688 -214.479185 
L 197.38947 -215.654477 
L 191.324253 -224.818409 
L 185.259035 -242.99334 
L 179.193818 -245.947176 
L 173.128601 -236.639816 
L 167.063383 -232.394863 
L 160.998166 -237.784384 
L 154.932948 -235.152451 
L 148.867731 -249.206886 
L 142.802514 -242.833228 
L 136.737296 -234.698083 
L 130.672079 -228.699533 
L 124.606861 -220.39608 
L 118.541644 -214.045544 
L 112.476427 -197.988349 
L 106.411209 -193.755478 
L 100.345992 -180.318046 
L 94.280774 -169.753932 
L 88.215557 -164.680432 
L 82.15034 -152.932723 
L 76.085122 -140.671217 
L 70.019905 -121.091287 
L 63.954688 -103.525767 
z
" id="mf158241de5"/>
    </defs>
    <g clip-path="url(#pd4f9e7a462)">
     <use style="fill:#47d200;" x="0" xlink:href="#mf158241de5" y="339.679296"/>
    </g>
   </g>
   <g id="matplotlib.axis_1">
    <g id="xtick_1">
     <g id="line2d_1">
      <path clip-path="url(#pd4f9e7a462)" d="M 63.954688 285.105859 
L 63.954688 13.305859 
" style="fill:none;stroke:#b0b0b0;stroke-linecap:square;stroke-width:0.8;"/>
     </g>
     <g id="line2d_2">
      <defs>
       <path d="M 0 0 
L 0 6 
" id="me83353d1c9"/>
      </defs>
      <g>
       <use x="63.954688" xlink:href="#me83353d1c9" y="285.105859"/>
      </g>
     </g>
     <g id="text_1">
      <!-- 0 -->
      <defs>
       <path d="M 31.78125 66.40625 
Q 24.171875 66.40625 20.328125 58.90625 
Q 16.5 51.421875 16.5 36.375 
Q 16.5 21.390625 20.328125 13.890625 
Q 24.171875 6.390625 31.78125 6.390625 
Q 39.453125 6.390625 43.28125 13.890625 
Q 47.125 21.390625 47.125 36.375 
Q 47.125 51.421875 43.28125 58.90625 
Q 39.453125 66.40625 31.78125 66.40625 
z
M 31.78125 74.21875 
Q 44.046875 74.21875 50.515625 64.515625 
Q 56.984375 54.828125 56.984375 36.375 
Q 56.984375 17.96875 50.515625 8.265625 
Q 44.046875 -1.421875 31.78125 -1.421875 
Q 19.53125 -1.421875 13.0625 8.265625 
Q 6.59375 17.96875 6.59375 36.375 
Q 6.59375 54.828125 13.0625 64.515625 
Q 19.53125 74.21875 31.78125 74.21875 
z
" id="DejaVuSans-30"/>
      </defs>
      <g transform="translate(59.182813 306.003515)scale(0.15 -0.15)">
       <use xlink:href="#DejaVuSans-30"/>
      </g>
     </g>
    </g>
    <g id="xtick_2">
     <g id="line2d_3">
      <path clip-path="url(#pd4f9e7a462)" d="M 124.606861 285.105859 
L 124.606861 13.305859 
" style="fill:none;stroke:#b0b0b0;stroke-linecap:square;stroke-width:0.8;"/>
     </g>
     <g id="line2d_4">
      <g>
       <use x="124.606861" xlink:href="#me83353d1c9" y="285.105859"/>
      </g>
     </g>
     <g id="text_2">
      <!-- 1 -->
      <defs>
       <path d="M 12.40625 8.296875 
L 28.515625 8.296875 
L 28.515625 63.921875 
L 10.984375 60.40625 
L 10.984375 69.390625 
L 28.421875 72.90625 
L 38.28125 72.90625 
L 38.28125 8.296875 
L 54.390625 8.296875 
L 54.390625 0 
L 12.40625 0 
z
" id="DejaVuSans-31"/>
      </defs>
      <g transform="translate(119.834986 306.003515)scale(0.15 -0.15)">
       <use xlink:href="#DejaVuSans-31"/>
      </g>
     </g>
    </g>
    <g id="xtick_3">
     <g id="line2d_5">
      <path clip-path="url(#pd4f9e7a462)" d="M 185.259035 285.105859 
L 185.259035 13.305859 
" style="fill:none;stroke:#b0b0b0;stroke-linecap:square;stroke-width:0.8;"/>
     </g>
     <g id="line2d_6">
      <g>
       <use x="185.259035" xlink:href="#me83353d1c9" y="285.105859"/>
      </g>
     </g>
     <g id="text_3">
      <!-- 2 -->
      <defs>
       <path d="M 19.1875 8.296875 
L 53.609375 8.296875 
L 53.609375 0 
L 7.328125 0 
L 7.328125 8.296875 
Q 12.9375 14.109375 22.625 23.890625 
Q 32.328125 33.6875 34.8125 36.53125 
Q 39.546875 41.84375 41.421875 45.53125 
Q 43.3125 49.21875 43.3125 52.78125 
Q 43.3125 58.59375 39.234375 62.25 
Q 35.15625 65.921875 28.609375 65.921875 
Q 23.96875 65.921875 18.8125 64.3125 
Q 13.671875 62.703125 7.8125 59.421875 
L 7.8125 69.390625 
Q 13.765625 71.78125 18.9375 73 
Q 24.125 74.21875 28.421875 74.21875 
Q 39.75 74.21875 46.484375 68.546875 
Q 53.21875 62.890625 53.21875 53.421875 
Q 53.21875 48.921875 51.53125 44.890625 
Q 49.859375 40.875 45.40625 35.40625 
Q 44.1875 33.984375 37.640625 27.21875 
Q 31.109375 20.453125 19.1875 8.296875 
z
" id="DejaVuSans-32"/>
      </defs>
      <g transform="translate(180.48716 306.003515)scale(0.15 -0.15)">
       <use xlink:href="#DejaVuSans-32"/>
      </g>
     </g>
    </g>
    <g id="xtick_4">
     <g id="line2d_7">
      <path clip-path="url(#pd4f9e7a462)" d="M 245.911209 285.105859 
L 245.911209 13.305859 
" style="fill:none;stroke:#b0b0b0;stroke-linecap:square;stroke-width:0.8;"/>
     </g>
     <g id="line2d_8">
      <g>
       <use x="245.911209" xlink:href="#me83353d1c9" y="285.105859"/>
      </g>
     </g>
     <g id="text_4">
      <!-- 3 -->
      <defs>
       <path d="M 40.578125 39.3125 
Q 47.65625 37.796875 51.625 33 
Q 55.609375 28.21875 55.609375 21.1875 
Q 55.609375 10.40625 48.1875 4.484375 
Q 40.765625 -1.421875 27.09375 -1.421875 
Q 22.515625 -1.421875 17.65625 -0.515625 
Q 12.796875 0.390625 7.625 2.203125 
L 7.625 11.71875 
Q 11.71875 9.328125 16.59375 8.109375 
Q 21.484375 6.890625 26.8125 6.890625 
Q 36.078125 6.890625 40.9375 10.546875 
Q 45.796875 14.203125 45.796875 21.1875 
Q 45.796875 27.640625 41.28125 31.265625 
Q 36.765625 34.90625 28.71875 34.90625 
L 20.21875 34.90625 
L 20.21875 43.015625 
L 29.109375 43.015625 
Q 36.375 43.015625 40.234375 45.921875 
Q 44.09375 48.828125 44.09375 54.296875 
Q 44.09375 59.90625 40.109375 62.90625 
Q 36.140625 65.921875 28.71875 65.921875 
Q 24.65625 65.921875 20.015625 65.03125 
Q 15.375 64.15625 9.8125 62.3125 
L 9.8125 71.09375 
Q 15.4375 72.65625 20.34375 73.4375 
Q 25.25 74.21875 29.59375 74.21875 
Q 40.828125 74.21875 47.359375 69.109375 
Q 53.90625 64.015625 53.90625 55.328125 
Q 53.90625 49.265625 50.4375 45.09375 
Q 46.96875 40.921875 40.578125 39.3125 
z
" id="DejaVuSans-33"/>
      </defs>
      <g transform="translate(241.139334 306.003515)scale(0.15 -0.15)">
       <use xlink:href="#DejaVuSans-33"/>
      </g>
     </g>
    </g>
    <g id="xtick_5">
     <g id="line2d_9">
      <path clip-path="url(#pd4f9e7a462)" d="M 306.563383 285.105859 
L 306.563383 13.305859 
" style="fill:none;stroke:#b0b0b0;stroke-linecap:square;stroke-width:0.8;"/>
     </g>
     <g id="line2d_10">
      <g>
       <use x="306.563383" xlink:href="#me83353d1c9" y="285.105859"/>
      </g>
     </g>
     <g id="text_5">
      <!-- 4 -->
      <defs>
       <path d="M 37.796875 64.3125 
L 12.890625 25.390625 
L 37.796875 25.390625 
z
M 35.203125 72.90625 
L 47.609375 72.90625 
L 47.609375 25.390625 
L 58.015625 25.390625 
L 58.015625 17.1875 
L 47.609375 17.1875 
L 47.609375 0 
L 37.796875 0 
L 37.796875 17.1875 
L 4.890625 17.1875 
L 4.890625 26.703125 
z
" id="DejaVuSans-34"/>
      </defs>
      <g transform="translate(301.791508 306.003515)scale(0.15 -0.15)">
       <use xlink:href="#DejaVuSans-34"/>
      </g>
     </g>
    </g>
    <g id="xtick_6">
     <g id="line2d_11">
      <path clip-path="url(#pd4f9e7a462)" d="M 367.215557 285.105859 
L 367.215557 13.305859 
" style="fill:none;stroke:#b0b0b0;stroke-linecap:square;stroke-width:0.8;"/>
     </g>
     <g id="line2d_12">
      <g>
       <use x="367.215557" xlink:href="#me83353d1c9" y="285.105859"/>
      </g>
     </g>
     <g id="text_6">
      <!-- 5 -->
      <defs>
       <path d="M 10.796875 72.90625 
L 49.515625 72.90625 
L 49.515625 64.59375 
L 19.828125 64.59375 
L 19.828125 46.734375 
Q 21.96875 47.46875 24.109375 47.828125 
Q 26.265625 48.1875 28.421875 48.1875 
Q 40.625 48.1875 47.75 41.5 
Q 54.890625 34.8125 54.890625 23.390625 
Q 54.890625 11.625 47.5625 5.09375 
Q 40.234375 -1.421875 26.90625 -1.421875 
Q 22.3125 -1.421875 17.546875 -0.640625 
Q 12.796875 0.140625 7.71875 1.703125 
L 7.71875 11.625 
Q 12.109375 9.234375 16.796875 8.0625 
Q 21.484375 6.890625 26.703125 6.890625 
Q 35.15625 6.890625 40.078125 11.328125 
Q 45.015625 15.765625 45.015625 23.390625 
Q 45.015625 31 40.078125 35.4375 
Q 35.15625 39.890625 26.703125 39.890625 
Q 22.75 39.890625 18.8125 39.015625 
Q 14.890625 38.140625 10.796875 36.28125 
z
" id="DejaVuSans-35"/>
      </defs>
      <g transform="translate(362.443682 306.003515)scale(0.15 -0.15)">
       <use xlink:href="#DejaVuSans-35"/>
      </g>
     </g>
    </g>
    <g id="xtick_7">
     <g id="line2d_13">
      <path clip-path="url(#pd4f9e7a462)" d="M 427.867731 285.105859 
L 427.867731 13.305859 
" style="fill:none;stroke:#b0b0b0;stroke-linecap:square;stroke-width:0.8;"/>
     </g>
     <g id="line2d_14">
      <g>
       <use x="427.867731" xlink:href="#me83353d1c9" y="285.105859"/>
      </g>
     </g>
     <g id="text_7">
      <!-- 6 -->
      <defs>
       <path d="M 33.015625 40.375 
Q 26.375 40.375 22.484375 35.828125 
Q 18.609375 31.296875 18.609375 23.390625 
Q 18.609375 15.53125 22.484375 10.953125 
Q 26.375 6.390625 33.015625 6.390625 
Q 39.65625 6.390625 43.53125 10.953125 
Q 47.40625 15.53125 47.40625 23.390625 
Q 47.40625 31.296875 43.53125 35.828125 
Q 39.65625 40.375 33.015625 40.375 
z
M 52.59375 71.296875 
L 52.59375 62.3125 
Q 48.875 64.0625 45.09375 64.984375 
Q 41.3125 65.921875 37.59375 65.921875 
Q 27.828125 65.921875 22.671875 59.328125 
Q 17.53125 52.734375 16.796875 39.40625 
Q 19.671875 43.65625 24.015625 45.921875 
Q 28.375 48.1875 33.59375 48.1875 
Q 44.578125 48.1875 50.953125 41.515625 
Q 57.328125 34.859375 57.328125 23.390625 
Q 57.328125 12.15625 50.6875 5.359375 
Q 44.046875 -1.421875 33.015625 -1.421875 
Q 20.359375 -1.421875 13.671875 8.265625 
Q 6.984375 17.96875 6.984375 36.375 
Q 6.984375 53.65625 15.1875 63.9375 
Q 23.390625 74.21875 37.203125 74.21875 
Q 40.921875 74.21875 44.703125 73.484375 
Q 48.484375 72.75 52.59375 71.296875 
z
" id="DejaVuSans-36"/>
      </defs>
      <g transform="translate(423.095856 306.003515)scale(0.15 -0.15)">
       <use xlink:href="#DejaVuSans-36"/>
      </g>
     </g>
    </g>
    <g id="text_8">
     <!-- $t/\tau$ -->
     <defs>
      <path d="M 42.28125 54.6875 
L 40.921875 47.703125 
L 23 47.703125 
L 17.1875 18.015625 
Q 16.890625 16.359375 16.75 15.234375 
Q 16.609375 14.109375 16.609375 13.484375 
Q 16.609375 10.359375 18.484375 8.9375 
Q 20.359375 7.515625 24.515625 7.515625 
L 33.59375 7.515625 
L 32.078125 0 
L 23.484375 0 
Q 15.484375 0 11.546875 3.125 
Q 7.625 6.25 7.625 12.59375 
Q 7.625 13.71875 7.765625 15.0625 
Q 7.90625 16.40625 8.203125 18.015625 
L 14.015625 47.703125 
L 6.390625 47.703125 
L 7.8125 54.6875 
L 15.28125 54.6875 
L 18.3125 70.21875 
L 27.296875 70.21875 
L 24.3125 54.6875 
z
" id="DejaVuSans-Oblique-74"/>
      <path d="M 25.390625 72.90625 
L 33.6875 72.90625 
L 8.296875 -9.28125 
L 0 -9.28125 
z
" id="DejaVuSans-2f"/>
      <path d="M 32.859375 9.96875 
Q 34.1875 7.625 39.453125 7.625 
L 43.75 7.625 
L 42.28125 0 
L 36.921875 0 
Q 28.125 0 25 4.6875 
Q 21.921875 9.46875 23.96875 19.828125 
L 29 45.703125 
L 8.453125 45.703125 
L 10.203125 54.6875 
L 60.640625 54.6875 
L 58.890625 45.703125 
L 38.1875 45.703125 
L 33.015625 19.28125 
Q 31.640625 12.203125 32.859375 9.96875 
z
" id="DejaVuSans-Oblique-3c4"/>
     </defs>
     <g transform="translate(232.511209 328.319921)scale(0.2 -0.2)">
      <use transform="translate(0 0.09375)" xlink:href="#DejaVuSans-Oblique-74"/>
      <use transform="translate(39.208984 0.09375)" xlink:href="#DejaVuSans-2f"/>
      <use transform="translate(72.900391 0.09375)" xlink:href="#DejaVuSans-Oblique-3c4"/>
     </g>
    </g>
   </g>
   <g id="matplotlib.axis_2">
    <g id="ytick_1">
     <g id="line2d_15">
      <path clip-path="url(#pd4f9e7a462)" d="M 63.954688 277.912663 
L 427.867731 277.912663 
" style="fill:none;stroke:#b0b0b0;stroke-linecap:square;stroke-width:0.8;"/>
     </g>
     <g id="line2d_16">
      <defs>
       <path d="M 0 0 
L -6 0 
" id="m5efe1d2f3a"/>
      </defs>
      <g>
       <use x="63.954688" xlink:href="#m5efe1d2f3a" y="277.912663"/>
      </g>
     </g>
     <g id="text_9">
      <!-- 0.9 -->
      <defs>
       <path d="M 10.6875 12.40625 
L 21 12.40625 
L 21 0 
L 10.6875 0 
z
" id="DejaVuSans-2e"/>
       <path d="M 10.984375 1.515625 
L 10.984375 10.5 
Q 14.703125 8.734375 18.5 7.8125 
Q 22.3125 6.890625 25.984375 6.890625 
Q 35.75 6.890625 40.890625 13.453125 
Q 46.046875 20.015625 46.78125 33.40625 
Q 43.953125 29.203125 39.59375 26.953125 
Q 35.25 24.703125 29.984375 24.703125 
Q 19.046875 24.703125 12.671875 31.3125 
Q 6.296875 37.9375 6.296875 49.421875 
Q 6.296875 60.640625 12.9375 67.421875 
Q 19.578125 74.21875 30.609375 74.21875 
Q 43.265625 74.21875 49.921875 64.515625 
Q 56.59375 54.828125 56.59375 36.375 
Q 56.59375 19.140625 48.40625 8.859375 
Q 40.234375 -1.421875 26.421875 -1.421875 
Q 22.703125 -1.421875 18.890625 -0.6875 
Q 15.09375 0.046875 10.984375 1.515625 
z
M 30.609375 32.421875 
Q 37.25 32.421875 41.125 36.953125 
Q 45.015625 41.5 45.015625 49.421875 
Q 45.015625 57.28125 41.125 61.84375 
Q 37.25 66.40625 30.609375 66.40625 
Q 23.96875 66.40625 20.09375 61.84375 
Q 16.21875 57.28125 16.21875 49.421875 
Q 16.21875 41.5 20.09375 36.953125 
Q 23.96875 32.421875 30.609375 32.421875 
z
" id="DejaVuSans-39"/>
      </defs>
      <g transform="translate(30.6 283.611491)scale(0.15 -0.15)">
       <use xlink:href="#DejaVuSans-30"/>
       <use x="63.623047" xlink:href="#DejaVuSans-2e"/>
       <use x="95.410156" xlink:href="#DejaVuSans-39"/>
      </g>
     </g>
    </g>
    <g id="ytick_2">
     <g id="line2d_17">
      <path clip-path="url(#pd4f9e7a462)" d="M 63.954688 236.153529 
L 427.867731 236.153529 
" style="fill:none;stroke:#b0b0b0;stroke-linecap:square;stroke-width:0.8;"/>
     </g>
     <g id="line2d_18">
      <g>
       <use x="63.954688" xlink:href="#m5efe1d2f3a" y="236.153529"/>
      </g>
     </g>
     <g id="text_10">
      <!-- 1.0 -->
      <g transform="translate(30.6 241.852357)scale(0.15 -0.15)">
       <use xlink:href="#DejaVuSans-31"/>
       <use x="63.623047" xlink:href="#DejaVuSans-2e"/>
       <use x="95.410156" xlink:href="#DejaVuSans-30"/>
      </g>
     </g>
    </g>
    <g id="ytick_3">
     <g id="line2d_19">
      <path clip-path="url(#pd4f9e7a462)" d="M 63.954688 194.394395 
L 427.867731 194.394395 
" style="fill:none;stroke:#b0b0b0;stroke-linecap:square;stroke-width:0.8;"/>
     </g>
     <g id="line2d_20">
      <g>
       <use x="63.954688" xlink:href="#m5efe1d2f3a" y="194.394395"/>
      </g>
     </g>
     <g id="text_11">
      <!-- 1.1 -->
      <g transform="translate(30.6 200.093224)scale(0.15 -0.15)">
       <use xlink:href="#DejaVuSans-31"/>
       <use x="63.623047" xlink:href="#DejaVuSans-2e"/>
       <use x="95.410156" xlink:href="#DejaVuSans-31"/>
      </g>
     </g>
    </g>
    <g id="ytick_4">
     <g id="line2d_21">
      <path clip-path="url(#pd4f9e7a462)" d="M 63.954688 152.635262 
L 427.867731 152.635262 
" style="fill:none;stroke:#b0b0b0;stroke-linecap:square;stroke-width:0.8;"/>
     </g>
     <g id="line2d_22">
      <g>
       <use x="63.954688" xlink:href="#m5efe1d2f3a" y="152.635262"/>
      </g>
     </g>
     <g id="text_12">
      <!-- 1.2 -->
      <g transform="translate(30.6 158.33409)scale(0.15 -0.15)">
       <use xlink:href="#DejaVuSans-31"/>
       <use x="63.623047" xlink:href="#DejaVuSans-2e"/>
       <use x="95.410156" xlink:href="#DejaVuSans-32"/>
      </g>
     </g>
    </g>
    <g id="ytick_5">
     <g id="line2d_23">
      <path clip-path="url(#pd4f9e7a462)" d="M 63.954688 110.876128 
L 427.867731 110.876128 
" style="fill:none;stroke:#b0b0b0;stroke-linecap:square;stroke-width:0.8;"/>
     </g>
     <g id="line2d_24">
      <g>
       <use x="63.954688" xlink:href="#m5efe1d2f3a" y="110.876128"/>
      </g>
     </g>
     <g id="text_13">
      <!-- 1.3 -->
      <g transform="translate(30.6 116.574956)scale(0.15 -0.15)">
       <use xlink:href="#DejaVuSans-31"/>
       <use x="63.623047" xlink:href="#DejaVuSans-2e"/>
       <use x="95.410156" xlink:href="#DejaVuSans-33"/>
      </g>
     </g>
    </g>
    <g id="ytick_6">
     <g id="line2d_25">
      <path clip-path="url(#pd4f9e7a462)" d="M 63.954688 69.116994 
L 427.867731 69.116994 
" style="fill:none;stroke:#b0b0b0;stroke-linecap:square;stroke-width:0.8;"/>
     </g>
     <g id="line2d_26">
      <g>
       <use x="63.954688" xlink:href="#m5efe1d2f3a" y="69.116994"/>
      </g>
     </g>
     <g id="text_14">
      <!-- 1.4 -->
      <g transform="translate(30.6 74.815822)scale(0.15 -0.15)">
       <use xlink:href="#DejaVuSans-31"/>
       <use x="63.623047" xlink:href="#DejaVuSans-2e"/>
       <use x="95.410156" xlink:href="#DejaVuSans-34"/>
      </g>
     </g>
    </g>
    <g id="ytick_7">
     <g id="line2d_27">
      <path clip-path="url(#pd4f9e7a462)" d="M 63.954688 27.357861 
L 427.867731 27.357861 
" style="fill:none;stroke:#b0b0b0;stroke-linecap:square;stroke-width:0.8;"/>
     </g>
     <g id="line2d_28">
      <g>
       <use x="63.954688" xlink:href="#m5efe1d2f3a" y="27.357861"/>
      </g>
     </g>
     <g id="text_15">
      <!-- 1.5 -->
      <g transform="translate(30.6 33.056689)scale(0.15 -0.15)">
       <use xlink:href="#DejaVuSans-31"/>
       <use x="63.623047" xlink:href="#DejaVuSans-2e"/>
       <use x="95.410156" xlink:href="#DejaVuSans-35"/>
      </g>
     </g>
    </g>
    <g id="text_16">
     <!-- $s$ $(\mu m)$ -->
     <defs>
      <path d="M 50 53.078125 
L 48.296875 44.578125 
Q 44.734375 46.53125 40.765625 47.5 
Q 36.8125 48.484375 32.625 48.484375 
Q 25.53125 48.484375 21.453125 46.0625 
Q 17.390625 43.65625 17.390625 39.5 
Q 17.390625 34.671875 26.859375 32.078125 
Q 27.59375 31.890625 27.9375 31.78125 
L 30.8125 30.90625 
Q 39.796875 28.421875 42.796875 25.6875 
Q 45.796875 22.953125 45.796875 18.21875 
Q 45.796875 9.515625 38.890625 4.046875 
Q 31.984375 -1.421875 20.796875 -1.421875 
Q 16.453125 -1.421875 11.671875 -0.578125 
Q 6.890625 0.25 1.125 2 
L 2.875 11.28125 
Q 7.8125 8.734375 12.59375 7.421875 
Q 17.390625 6.109375 21.78125 6.109375 
Q 28.375 6.109375 32.5 8.9375 
Q 36.625 11.765625 36.625 16.109375 
Q 36.625 20.796875 25.78125 23.6875 
L 24.859375 23.921875 
L 21.78125 24.703125 
Q 14.9375 26.515625 11.765625 29.46875 
Q 8.59375 32.421875 8.59375 37.015625 
Q 8.59375 45.75 15.15625 50.875 
Q 21.734375 56 33.015625 56 
Q 37.453125 56 41.671875 55.265625 
Q 45.90625 54.546875 50 53.078125 
z
" id="DejaVuSans-Oblique-73"/>
      <path id="DejaVuSans-20"/>
      <path d="M 31 75.875 
Q 24.46875 64.65625 21.28125 53.65625 
Q 18.109375 42.671875 18.109375 31.390625 
Q 18.109375 20.125 21.3125 9.0625 
Q 24.515625 -2 31 -13.1875 
L 23.1875 -13.1875 
Q 15.875 -1.703125 12.234375 9.375 
Q 8.59375 20.453125 8.59375 31.390625 
Q 8.59375 42.28125 12.203125 53.3125 
Q 15.828125 64.359375 23.1875 75.875 
z
" id="DejaVuSans-28"/>
      <path d="M -1.3125 -20.796875 
L 13.375 54.6875 
L 22.40625 54.6875 
L 15.765625 20.65625 
Q 15.578125 19.625 15.421875 18.359375 
Q 15.28125 17.09375 15.28125 15.828125 
Q 15.28125 11.28125 18.140625 8.828125 
Q 21 6.390625 26.3125 6.390625 
Q 33.546875 6.390625 37.984375 10.484375 
Q 42.4375 14.59375 44 22.796875 
L 50.203125 54.6875 
L 59.1875 54.6875 
L 51.03125 12.640625 
Q 50.828125 11.71875 50.75 11.03125 
Q 50.6875 10.359375 50.6875 9.8125 
Q 50.6875 8.296875 51.296875 7.59375 
Q 51.90625 6.890625 53.21875 6.890625 
Q 53.71875 6.890625 54.5625 7.125 
Q 55.421875 7.375 56.984375 8.015625 
L 55.609375 0.78125 
Q 53.46875 -0.296875 51.515625 -0.859375 
Q 49.5625 -1.421875 47.703125 -1.421875 
Q 44.484375 -1.421875 42.65625 0.625 
Q 40.828125 2.6875 40.828125 6.296875 
Q 38.09375 2.390625 34.296875 0.484375 
Q 30.515625 -1.421875 25.390625 -1.421875 
Q 20.84375 -1.421875 17.453125 0.671875 
Q 14.0625 2.78125 12.984375 6.203125 
L 7.71875 -20.796875 
z
" id="DejaVuSans-Oblique-3bc"/>
      <path d="M 89.796875 33.015625 
L 83.40625 0 
L 74.421875 0 
L 80.71875 32.71875 
Q 81.109375 34.8125 81.296875 36.328125 
Q 81.5 37.84375 81.5 38.921875 
Q 81.5 43.3125 79.046875 45.75 
Q 76.609375 48.1875 72.21875 48.1875 
Q 65.671875 48.1875 60.546875 43.28125 
Q 55.421875 38.375 53.90625 30.515625 
L 47.90625 0 
L 38.921875 0 
L 45.3125 32.71875 
Q 45.703125 34.515625 45.890625 36.046875 
Q 46.09375 37.59375 46.09375 38.8125 
Q 46.09375 43.265625 43.65625 45.71875 
Q 41.21875 48.1875 36.921875 48.1875 
Q 30.28125 48.1875 25.140625 43.28125 
Q 20.015625 38.375 18.5 30.515625 
L 12.5 0 
L 3.515625 0 
L 14.203125 54.6875 
L 23.1875 54.6875 
L 21.484375 46.1875 
Q 25.140625 50.984375 30.046875 53.484375 
Q 34.96875 56 40.578125 56 
Q 46.53125 56 50.359375 52.875 
Q 54.203125 49.75 54.984375 44.1875 
Q 59.078125 49.953125 64.46875 52.96875 
Q 69.875 56 75.875 56 
Q 82.90625 56 86.734375 51.953125 
Q 90.578125 47.90625 90.578125 40.484375 
Q 90.578125 38.875 90.375 36.9375 
Q 90.1875 35.015625 89.796875 33.015625 
z
" id="DejaVuSans-Oblique-6d"/>
      <path d="M 8.015625 75.875 
L 15.828125 75.875 
Q 23.140625 64.359375 26.78125 53.3125 
Q 30.421875 42.28125 30.421875 31.390625 
Q 30.421875 20.453125 26.78125 9.375 
Q 23.140625 -1.703125 15.828125 -13.1875 
L 8.015625 -13.1875 
Q 14.5 -2 17.703125 9.0625 
Q 20.90625 20.125 20.90625 31.390625 
Q 20.90625 42.671875 17.703125 53.65625 
Q 14.5 64.65625 8.015625 75.875 
z
" id="DejaVuSans-29"/>
     </defs>
     <g transform="translate(22.4 181.505859)rotate(-90)scale(0.2 -0.2)">
      <use transform="translate(0 0.125)" xlink:href="#DejaVuSans-Oblique-73"/>
      <use transform="translate(52.099609 0.125)" xlink:href="#DejaVuSans-20"/>
      <use transform="translate(83.886719 0.125)" xlink:href="#DejaVuSans-28"/>
      <use transform="translate(122.900391 0.125)" xlink:href="#DejaVuSans-Oblique-3bc"/>
      <use transform="translate(186.523438 0.125)" xlink:href="#DejaVuSans-Oblique-6d"/>
      <use transform="translate(283.935547 0.125)" xlink:href="#DejaVuSans-29"/>
     </g>
    </g>
   </g>
   <g id="line2d_29">
    <path clip-path="url(#pd4f9e7a462)" d="M 63.954688 236.153529 
L 70.019905 222.819496 
L 76.085122 208.3086 
L 82.15034 195.22367 
L 88.215557 181.194408 
L 94.280774 169.984544 
L 100.345992 156.414644 
L 106.411209 144.706976 
L 112.476427 133.541991 
L 118.541644 123.042022 
L 124.606861 112.025705 
L 130.672079 106.878331 
L 136.737296 97.521409 
L 142.802514 92.692253 
L 148.867731 83.208087 
L 154.932948 75.681435 
L 160.998166 70.435216 
L 167.063383 71.605773 
L 173.128601 67.955256 
L 179.193818 59.223004 
L 185.259035 55.356264 
L 191.324253 51.606891 
L 197.38947 47.666363 
L 203.454688 49.622698 
L 209.519905 44.513363 
L 215.585122 43.428409 
L 221.65034 40.439789 
L 227.715557 42.590014 
L 233.780774 48.577942 
L 239.845992 44.837774 
L 245.911209 49.565394 
L 251.976427 52.007908 
L 258.041644 50.206064 
L 264.106861 51.650786 
L 270.172079 55.627303 
L 276.237296 52.868859 
L 282.302514 48.569915 
L 288.367731 49.592625 
L 294.432948 55.122992 
L 300.498166 53.639412 
L 306.563383 53.233699 
L 312.628601 49.55031 
L 318.693818 46.602539 
L 324.759035 43.304607 
L 330.824253 44.977387 
L 336.88947 46.966031 
L 342.954687 47.015567 
L 349.019905 49.151594 
L 355.085122 50.905198 
L 361.15034 47.491496 
L 367.215557 49.542165 
L 373.280774 47.948117 
L 379.345992 46.409645 
L 385.411209 41.727944 
L 391.476427 43.687943 
L 397.541644 45.868691 
L 403.606861 46.363451 
L 409.672079 47.649493 
L 415.737296 51.982055 
L 421.802514 49.011307 
L 427.867731 47.734935 
" style="fill:none;stroke:#1f77b4;stroke-linecap:square;stroke-width:3;"/>
   </g>
   <g id="line2d_30">
    <path clip-path="url(#pd4f9e7a462)" d="M 63.954688 236.153529 
L 70.019905 243.061387 
L 76.085122 238.582966 
L 82.15034 240.545904 
L 88.215557 248.489992 
L 94.280774 253.226316 
L 100.345992 256.617534 
L 106.411209 251.368412 
L 112.476427 255.327627 
L 118.541644 251.081993 
L 124.606861 252.750275 
L 130.672079 253.506242 
L 136.737296 248.558994 
L 142.802514 247.429227 
L 148.867731 247.125614 
L 154.932948 254.000816 
L 160.998166 252.179906 
L 167.063383 246.92709 
L 173.128601 242.277046 
L 179.193818 241.232582 
L 185.259035 240.546433 
L 191.324253 237.694917 
L 197.38947 236.201077 
L 203.454688 233.032445 
L 209.519905 235.689429 
L 215.585122 230.152922 
L 221.65034 227.709372 
L 227.715557 230.087832 
L 233.780774 229.315003 
L 239.845992 233.371518 
L 245.911209 235.682564 
L 251.976427 235.045659 
L 258.041644 234.310775 
L 264.106861 237.114835 
L 270.172079 234.985026 
L 276.237296 234.751308 
L 282.302514 234.794938 
L 288.367731 232.793802 
L 294.432948 232.111188 
L 300.498166 233.430826 
L 306.563383 232.894172 
L 312.628601 234.606187 
L 318.693818 234.575838 
L 324.759035 234.119948 
L 330.824253 235.455908 
L 336.88947 233.229722 
L 342.954687 232.226339 
L 349.019905 232.811331 
L 355.085122 232.114271 
L 361.15034 232.591476 
L 367.215557 230.783666 
L 373.280774 228.930149 
L 379.345992 229.520076 
L 385.411209 231.256687 
L 391.476427 234.021108 
L 397.541644 232.805965 
L 403.606861 233.127606 
L 409.672079 233.633317 
L 415.737296 234.123568 
L 421.802514 233.606437 
L 427.867731 234.20534 
" style="fill:none;stroke:#ff7f0e;stroke-linecap:square;stroke-width:3;"/>
   </g>
   <g id="line2d_31">
    <path clip-path="url(#pd4f9e7a462)" d="M 63.954688 236.153529 
L 70.019905 225.860913 
L 76.085122 209.001547 
L 82.15034 198.967521 
L 88.215557 190.501902 
L 94.280774 188.749571 
L 100.345992 179.938723 
L 106.411209 168.119535 
L 112.476427 166.229518 
L 118.541644 152.328037 
L 124.606861 146.671988 
L 130.672079 139.970677 
L 136.737296 136.654512 
L 142.802514 130.415651 
L 148.867731 125.257533 
L 154.932948 138.129899 
L 160.998166 136.862015 
L 167.063383 140.433348 
L 173.128601 138.344727 
L 179.193818 132.083891 
L 185.259035 132.473286 
L 191.324253 147.226464 
L 197.38947 154.263722 
L 203.454688 154.375641 
L 209.519905 160.115688 
L 215.585122 158.655718 
L 221.65034 169.86598 
L 227.715557 170.015343 
L 233.780774 173.491103 
L 239.845992 181.878004 
L 245.911209 190.044375 
L 251.976427 194.68128 
L 258.041644 195.2448 
L 264.106861 200.569224 
L 270.172079 200.870274 
L 276.237296 202.090196 
L 282.302514 204.877703 
L 288.367731 204.847965 
L 294.432948 205.984694 
L 300.498166 207.681757 
L 306.563383 210.515556 
L 312.628601 213.286334 
L 318.693818 213.063985 
L 324.759035 213.994082 
L 330.824253 217.66407 
L 336.88947 214.785831 
L 342.954687 215.05302 
L 349.019905 217.578047 
L 355.085122 217.417338 
L 361.15034 218.123545 
L 367.215557 218.590146 
L 373.280774 217.573408 
L 379.345992 218.290607 
L 385.411209 220.827139 
L 391.476427 224.461279 
L 397.541644 224.011105 
L 403.606861 225.101973 
L 409.672079 225.605273 
L 415.737296 226.414722 
L 421.802514 226.615215 
L 427.867731 227.338796 
" style="fill:none;stroke:#2ca02c;stroke-linecap:square;stroke-width:3;"/>
   </g>
   <g id="patch_3">
    <path d="M 63.954688 285.105859 
L 63.954688 13.305859 
" style="fill:none;stroke:#000000;stroke-linecap:square;stroke-linejoin:miter;stroke-width:2;"/>
   </g>
   <g id="patch_4">
    <path d="M 427.867731 285.105859 
L 427.867731 13.305859 
" style="fill:none;"/>
   </g>
   <g id="patch_5">
    <path d="M 63.954688 285.105859 
L 427.867731 285.105859 
" style="fill:none;stroke:#000000;stroke-linecap:square;stroke-linejoin:miter;stroke-width:2;"/>
   </g>
   <g id="patch_6">
    <path d="M 63.954688 13.305859 
L 427.867731 13.305859 
" style="fill:none;"/>
   </g>
   <g id="legend_1">
    <g id="patch_7">
     <path d="M 162.04195 184.48164 
L 417.367731 184.48164 
Q 420.367731 184.48164 420.367731 181.48164 
L 420.367731 116.930078 
Q 420.367731 113.930078 417.367731 113.930078 
L 162.04195 113.930078 
Q 159.04195 113.930078 159.04195 116.930078 
L 159.04195 181.48164 
Q 159.04195 184.48164 162.04195 184.48164 
z
" style="fill:#ffffff;opacity:0.8;stroke:#cccccc;stroke-linejoin:miter;"/>
    </g>
    <g id="line2d_32">
     <path d="M 165.04195 126.077734 
L 195.04195 126.077734 
" style="fill:none;stroke:#1f77b4;stroke-linecap:square;stroke-width:3;"/>
    </g>
    <g id="line2d_33"/>
    <g id="text_17">
     <!-- Single Lineage -->
     <defs>
      <path d="M 53.515625 70.515625 
L 53.515625 60.890625 
Q 47.90625 63.578125 42.921875 64.890625 
Q 37.9375 66.21875 33.296875 66.21875 
Q 25.25 66.21875 20.875 63.09375 
Q 16.5 59.96875 16.5 54.203125 
Q 16.5 49.359375 19.40625 46.890625 
Q 22.3125 44.4375 30.421875 42.921875 
L 36.375 41.703125 
Q 47.40625 39.59375 52.65625 34.296875 
Q 57.90625 29 57.90625 20.125 
Q 57.90625 9.515625 50.796875 4.046875 
Q 43.703125 -1.421875 29.984375 -1.421875 
Q 24.8125 -1.421875 18.96875 -0.25 
Q 13.140625 0.921875 6.890625 3.21875 
L 6.890625 13.375 
Q 12.890625 10.015625 18.65625 8.296875 
Q 24.421875 6.59375 29.984375 6.59375 
Q 38.421875 6.59375 43.015625 9.90625 
Q 47.609375 13.234375 47.609375 19.390625 
Q 47.609375 24.75 44.3125 27.78125 
Q 41.015625 30.8125 33.5 32.328125 
L 27.484375 33.5 
Q 16.453125 35.6875 11.515625 40.375 
Q 6.59375 45.0625 6.59375 53.421875 
Q 6.59375 63.09375 13.40625 68.65625 
Q 20.21875 74.21875 32.171875 74.21875 
Q 37.3125 74.21875 42.625 73.28125 
Q 47.953125 72.359375 53.515625 70.515625 
z
" id="DejaVuSans-53"/>
      <path d="M 9.421875 54.6875 
L 18.40625 54.6875 
L 18.40625 0 
L 9.421875 0 
z
M 9.421875 75.984375 
L 18.40625 75.984375 
L 18.40625 64.59375 
L 9.421875 64.59375 
z
" id="DejaVuSans-69"/>
      <path d="M 54.890625 33.015625 
L 54.890625 0 
L 45.90625 0 
L 45.90625 32.71875 
Q 45.90625 40.484375 42.875 44.328125 
Q 39.84375 48.1875 33.796875 48.1875 
Q 26.515625 48.1875 22.3125 43.546875 
Q 18.109375 38.921875 18.109375 30.90625 
L 18.109375 0 
L 9.078125 0 
L 9.078125 54.6875 
L 18.109375 54.6875 
L 18.109375 46.1875 
Q 21.34375 51.125 25.703125 53.5625 
Q 30.078125 56 35.796875 56 
Q 45.21875 56 50.046875 50.171875 
Q 54.890625 44.34375 54.890625 33.015625 
z
" id="DejaVuSans-6e"/>
      <path d="M 45.40625 27.984375 
Q 45.40625 37.75 41.375 43.109375 
Q 37.359375 48.484375 30.078125 48.484375 
Q 22.859375 48.484375 18.828125 43.109375 
Q 14.796875 37.75 14.796875 27.984375 
Q 14.796875 18.265625 18.828125 12.890625 
Q 22.859375 7.515625 30.078125 7.515625 
Q 37.359375 7.515625 41.375 12.890625 
Q 45.40625 18.265625 45.40625 27.984375 
z
M 54.390625 6.78125 
Q 54.390625 -7.171875 48.1875 -13.984375 
Q 42 -20.796875 29.203125 -20.796875 
Q 24.46875 -20.796875 20.265625 -20.09375 
Q 16.0625 -19.390625 12.109375 -17.921875 
L 12.109375 -9.1875 
Q 16.0625 -11.328125 19.921875 -12.34375 
Q 23.78125 -13.375 27.78125 -13.375 
Q 36.625 -13.375 41.015625 -8.765625 
Q 45.40625 -4.15625 45.40625 5.171875 
L 45.40625 9.625 
Q 42.625 4.78125 38.28125 2.390625 
Q 33.9375 0 27.875 0 
Q 17.828125 0 11.671875 7.65625 
Q 5.515625 15.328125 5.515625 27.984375 
Q 5.515625 40.671875 11.671875 48.328125 
Q 17.828125 56 27.875 56 
Q 33.9375 56 38.28125 53.609375 
Q 42.625 51.21875 45.40625 46.390625 
L 45.40625 54.6875 
L 54.390625 54.6875 
z
" id="DejaVuSans-67"/>
      <path d="M 9.421875 75.984375 
L 18.40625 75.984375 
L 18.40625 0 
L 9.421875 0 
z
" id="DejaVuSans-6c"/>
      <path d="M 56.203125 29.59375 
L 56.203125 25.203125 
L 14.890625 25.203125 
Q 15.484375 15.921875 20.484375 11.0625 
Q 25.484375 6.203125 34.421875 6.203125 
Q 39.59375 6.203125 44.453125 7.46875 
Q 49.3125 8.734375 54.109375 11.28125 
L 54.109375 2.78125 
Q 49.265625 0.734375 44.1875 -0.34375 
Q 39.109375 -1.421875 33.890625 -1.421875 
Q 20.796875 -1.421875 13.15625 6.1875 
Q 5.515625 13.8125 5.515625 26.8125 
Q 5.515625 40.234375 12.765625 48.109375 
Q 20.015625 56 32.328125 56 
Q 43.359375 56 49.78125 48.890625 
Q 56.203125 41.796875 56.203125 29.59375 
z
M 47.21875 32.234375 
Q 47.125 39.59375 43.09375 43.984375 
Q 39.0625 48.390625 32.421875 48.390625 
Q 24.90625 48.390625 20.390625 44.140625 
Q 15.875 39.890625 15.1875 32.171875 
z
" id="DejaVuSans-65"/>
      <path d="M 9.8125 72.90625 
L 19.671875 72.90625 
L 19.671875 8.296875 
L 55.171875 8.296875 
L 55.171875 0 
L 9.8125 0 
z
" id="DejaVuSans-4c"/>
      <path d="M 34.28125 27.484375 
Q 23.390625 27.484375 19.1875 25 
Q 14.984375 22.515625 14.984375 16.5 
Q 14.984375 11.71875 18.140625 8.90625 
Q 21.296875 6.109375 26.703125 6.109375 
Q 34.1875 6.109375 38.703125 11.40625 
Q 43.21875 16.703125 43.21875 25.484375 
L 43.21875 27.484375 
z
M 52.203125 31.203125 
L 52.203125 0 
L 43.21875 0 
L 43.21875 8.296875 
Q 40.140625 3.328125 35.546875 0.953125 
Q 30.953125 -1.421875 24.3125 -1.421875 
Q 15.921875 -1.421875 10.953125 3.296875 
Q 6 8.015625 6 15.921875 
Q 6 25.140625 12.171875 29.828125 
Q 18.359375 34.515625 30.609375 34.515625 
L 43.21875 34.515625 
L 43.21875 35.40625 
Q 43.21875 41.609375 39.140625 45 
Q 35.0625 48.390625 27.6875 48.390625 
Q 23 48.390625 18.546875 47.265625 
Q 14.109375 46.140625 10.015625 43.890625 
L 10.015625 52.203125 
Q 14.9375 54.109375 19.578125 55.046875 
Q 24.21875 56 28.609375 56 
Q 40.484375 56 46.34375 49.84375 
Q 52.203125 43.703125 52.203125 31.203125 
z
" id="DejaVuSans-61"/>
     </defs>
     <g transform="translate(207.04195 131.327734)scale(0.15 -0.15)">
      <use xlink:href="#DejaVuSans-53"/>
      <use x="63.476562" xlink:href="#DejaVuSans-69"/>
      <use x="91.259766" xlink:href="#DejaVuSans-6e"/>
      <use x="154.638672" xlink:href="#DejaVuSans-67"/>
      <use x="218.115234" xlink:href="#DejaVuSans-6c"/>
      <use x="245.898438" xlink:href="#DejaVuSans-65"/>
      <use x="307.421875" xlink:href="#DejaVuSans-20"/>
      <use x="339.208984" xlink:href="#DejaVuSans-4c"/>
      <use x="394.921875" xlink:href="#DejaVuSans-69"/>
      <use x="422.705078" xlink:href="#DejaVuSans-6e"/>
      <use x="486.083984" xlink:href="#DejaVuSans-65"/>
      <use x="547.607422" xlink:href="#DejaVuSans-61"/>
      <use x="608.886719" xlink:href="#DejaVuSans-67"/>
      <use x="672.363281" xlink:href="#DejaVuSans-65"/>
     </g>
    </g>
    <g id="line2d_34">
     <path d="M 165.04195 148.094921 
L 195.04195 148.094921 
" style="fill:none;stroke:#ff7f0e;stroke-linecap:square;stroke-width:3;"/>
    </g>
    <g id="line2d_35"/>
    <g id="text_18">
     <!-- Population Snapshots (PBE) -->
     <defs>
      <path d="M 19.671875 64.796875 
L 19.671875 37.40625 
L 32.078125 37.40625 
Q 38.96875 37.40625 42.71875 40.96875 
Q 46.484375 44.53125 46.484375 51.125 
Q 46.484375 57.671875 42.71875 61.234375 
Q 38.96875 64.796875 32.078125 64.796875 
z
M 9.8125 72.90625 
L 32.078125 72.90625 
Q 44.34375 72.90625 50.609375 67.359375 
Q 56.890625 61.8125 56.890625 51.125 
Q 56.890625 40.328125 50.609375 34.8125 
Q 44.34375 29.296875 32.078125 29.296875 
L 19.671875 29.296875 
L 19.671875 0 
L 9.8125 0 
z
" id="DejaVuSans-50"/>
      <path d="M 30.609375 48.390625 
Q 23.390625 48.390625 19.1875 42.75 
Q 14.984375 37.109375 14.984375 27.296875 
Q 14.984375 17.484375 19.15625 11.84375 
Q 23.34375 6.203125 30.609375 6.203125 
Q 37.796875 6.203125 41.984375 11.859375 
Q 46.1875 17.53125 46.1875 27.296875 
Q 46.1875 37.015625 41.984375 42.703125 
Q 37.796875 48.390625 30.609375 48.390625 
z
M 30.609375 56 
Q 42.328125 56 49.015625 48.375 
Q 55.71875 40.765625 55.71875 27.296875 
Q 55.71875 13.875 49.015625 6.21875 
Q 42.328125 -1.421875 30.609375 -1.421875 
Q 18.84375 -1.421875 12.171875 6.21875 
Q 5.515625 13.875 5.515625 27.296875 
Q 5.515625 40.765625 12.171875 48.375 
Q 18.84375 56 30.609375 56 
z
" id="DejaVuSans-6f"/>
      <path d="M 18.109375 8.203125 
L 18.109375 -20.796875 
L 9.078125 -20.796875 
L 9.078125 54.6875 
L 18.109375 54.6875 
L 18.109375 46.390625 
Q 20.953125 51.265625 25.265625 53.625 
Q 29.59375 56 35.59375 56 
Q 45.5625 56 51.78125 48.09375 
Q 58.015625 40.1875 58.015625 27.296875 
Q 58.015625 14.40625 51.78125 6.484375 
Q 45.5625 -1.421875 35.59375 -1.421875 
Q 29.59375 -1.421875 25.265625 0.953125 
Q 20.953125 3.328125 18.109375 8.203125 
z
M 48.6875 27.296875 
Q 48.6875 37.203125 44.609375 42.84375 
Q 40.53125 48.484375 33.40625 48.484375 
Q 26.265625 48.484375 22.1875 42.84375 
Q 18.109375 37.203125 18.109375 27.296875 
Q 18.109375 17.390625 22.1875 11.75 
Q 26.265625 6.109375 33.40625 6.109375 
Q 40.53125 6.109375 44.609375 11.75 
Q 48.6875 17.390625 48.6875 27.296875 
z
" id="DejaVuSans-70"/>
      <path d="M 8.5 21.578125 
L 8.5 54.6875 
L 17.484375 54.6875 
L 17.484375 21.921875 
Q 17.484375 14.15625 20.5 10.265625 
Q 23.53125 6.390625 29.59375 6.390625 
Q 36.859375 6.390625 41.078125 11.03125 
Q 45.3125 15.671875 45.3125 23.6875 
L 45.3125 54.6875 
L 54.296875 54.6875 
L 54.296875 0 
L 45.3125 0 
L 45.3125 8.40625 
Q 42.046875 3.421875 37.71875 1 
Q 33.40625 -1.421875 27.6875 -1.421875 
Q 18.265625 -1.421875 13.375 4.4375 
Q 8.5 10.296875 8.5 21.578125 
z
M 31.109375 56 
z
" id="DejaVuSans-75"/>
      <path d="M 18.3125 70.21875 
L 18.3125 54.6875 
L 36.8125 54.6875 
L 36.8125 47.703125 
L 18.3125 47.703125 
L 18.3125 18.015625 
Q 18.3125 11.328125 20.140625 9.421875 
Q 21.96875 7.515625 27.59375 7.515625 
L 36.8125 7.515625 
L 36.8125 0 
L 27.59375 0 
Q 17.1875 0 13.234375 3.875 
Q 9.28125 7.765625 9.28125 18.015625 
L 9.28125 47.703125 
L 2.6875 47.703125 
L 2.6875 54.6875 
L 9.28125 54.6875 
L 9.28125 70.21875 
z
" id="DejaVuSans-74"/>
      <path d="M 44.28125 53.078125 
L 44.28125 44.578125 
Q 40.484375 46.53125 36.375 47.5 
Q 32.28125 48.484375 27.875 48.484375 
Q 21.1875 48.484375 17.84375 46.4375 
Q 14.5 44.390625 14.5 40.28125 
Q 14.5 37.15625 16.890625 35.375 
Q 19.28125 33.59375 26.515625 31.984375 
L 29.59375 31.296875 
Q 39.15625 29.25 43.1875 25.515625 
Q 47.21875 21.78125 47.21875 15.09375 
Q 47.21875 7.46875 41.1875 3.015625 
Q 35.15625 -1.421875 24.609375 -1.421875 
Q 20.21875 -1.421875 15.453125 -0.5625 
Q 10.6875 0.296875 5.421875 2 
L 5.421875 11.28125 
Q 10.40625 8.6875 15.234375 7.390625 
Q 20.0625 6.109375 24.8125 6.109375 
Q 31.15625 6.109375 34.5625 8.28125 
Q 37.984375 10.453125 37.984375 14.40625 
Q 37.984375 18.0625 35.515625 20.015625 
Q 33.0625 21.96875 24.703125 23.78125 
L 21.578125 24.515625 
Q 13.234375 26.265625 9.515625 29.90625 
Q 5.8125 33.546875 5.8125 39.890625 
Q 5.8125 47.609375 11.28125 51.796875 
Q 16.75 56 26.8125 56 
Q 31.78125 56 36.171875 55.265625 
Q 40.578125 54.546875 44.28125 53.078125 
z
" id="DejaVuSans-73"/>
      <path d="M 54.890625 33.015625 
L 54.890625 0 
L 45.90625 0 
L 45.90625 32.71875 
Q 45.90625 40.484375 42.875 44.328125 
Q 39.84375 48.1875 33.796875 48.1875 
Q 26.515625 48.1875 22.3125 43.546875 
Q 18.109375 38.921875 18.109375 30.90625 
L 18.109375 0 
L 9.078125 0 
L 9.078125 75.984375 
L 18.109375 75.984375 
L 18.109375 46.1875 
Q 21.34375 51.125 25.703125 53.5625 
Q 30.078125 56 35.796875 56 
Q 45.21875 56 50.046875 50.171875 
Q 54.890625 44.34375 54.890625 33.015625 
z
" id="DejaVuSans-68"/>
      <path d="M 19.671875 34.8125 
L 19.671875 8.109375 
L 35.5 8.109375 
Q 43.453125 8.109375 47.28125 11.40625 
Q 51.125 14.703125 51.125 21.484375 
Q 51.125 28.328125 47.28125 31.5625 
Q 43.453125 34.8125 35.5 34.8125 
z
M 19.671875 64.796875 
L 19.671875 42.828125 
L 34.28125 42.828125 
Q 41.5 42.828125 45.03125 45.53125 
Q 48.578125 48.25 48.578125 53.8125 
Q 48.578125 59.328125 45.03125 62.0625 
Q 41.5 64.796875 34.28125 64.796875 
z
M 9.8125 72.90625 
L 35.015625 72.90625 
Q 46.296875 72.90625 52.390625 68.21875 
Q 58.5 63.53125 58.5 54.890625 
Q 58.5 48.1875 55.375 44.234375 
Q 52.25 40.28125 46.1875 39.3125 
Q 53.46875 37.75 57.5 32.78125 
Q 61.53125 27.828125 61.53125 20.40625 
Q 61.53125 10.640625 54.890625 5.3125 
Q 48.25 0 35.984375 0 
L 9.8125 0 
z
" id="DejaVuSans-42"/>
      <path d="M 9.8125 72.90625 
L 55.90625 72.90625 
L 55.90625 64.59375 
L 19.671875 64.59375 
L 19.671875 43.015625 
L 54.390625 43.015625 
L 54.390625 34.71875 
L 19.671875 34.71875 
L 19.671875 8.296875 
L 56.78125 8.296875 
L 56.78125 0 
L 9.8125 0 
z
" id="DejaVuSans-45"/>
     </defs>
     <g transform="translate(207.04195 153.344921)scale(0.15 -0.15)">
      <use xlink:href="#DejaVuSans-50"/>
      <use x="60.255859" xlink:href="#DejaVuSans-6f"/>
      <use x="121.4375" xlink:href="#DejaVuSans-70"/>
      <use x="184.914062" xlink:href="#DejaVuSans-75"/>
      <use x="248.292969" xlink:href="#DejaVuSans-6c"/>
      <use x="276.076172" xlink:href="#DejaVuSans-61"/>
      <use x="337.355469" xlink:href="#DejaVuSans-74"/>
      <use x="376.564453" xlink:href="#DejaVuSans-69"/>
      <use x="404.347656" xlink:href="#DejaVuSans-6f"/>
      <use x="465.529297" xlink:href="#DejaVuSans-6e"/>
      <use x="528.908203" xlink:href="#DejaVuSans-20"/>
      <use x="560.695312" xlink:href="#DejaVuSans-53"/>
      <use x="624.171875" xlink:href="#DejaVuSans-6e"/>
      <use x="687.550781" xlink:href="#DejaVuSans-61"/>
      <use x="748.830078" xlink:href="#DejaVuSans-70"/>
      <use x="812.306641" xlink:href="#DejaVuSans-73"/>
      <use x="864.40625" xlink:href="#DejaVuSans-68"/>
      <use x="927.785156" xlink:href="#DejaVuSans-6f"/>
      <use x="988.966797" xlink:href="#DejaVuSans-74"/>
      <use x="1028.175781" xlink:href="#DejaVuSans-73"/>
      <use x="1080.275391" xlink:href="#DejaVuSans-20"/>
      <use x="1112.0625" xlink:href="#DejaVuSans-28"/>
      <use x="1151.076172" xlink:href="#DejaVuSans-50"/>
      <use x="1211.378906" xlink:href="#DejaVuSans-42"/>
      <use x="1279.982422" xlink:href="#DejaVuSans-45"/>
      <use x="1343.166016" xlink:href="#DejaVuSans-29"/>
     </g>
    </g>
    <g id="line2d_36">
     <path d="M 165.04195 170.112109 
L 195.04195 170.112109 
" style="fill:none;stroke:#2ca02c;stroke-linecap:square;stroke-width:3;"/>
    </g>
    <g id="line2d_37"/>
    <g id="text_19">
     <!-- Lineage Tracking -->
     <defs>
      <path d="M -0.296875 72.90625 
L 61.375 72.90625 
L 61.375 64.59375 
L 35.5 64.59375 
L 35.5 0 
L 25.59375 0 
L 25.59375 64.59375 
L -0.296875 64.59375 
z
" id="DejaVuSans-54"/>
      <path d="M 41.109375 46.296875 
Q 39.59375 47.171875 37.8125 47.578125 
Q 36.03125 48 33.890625 48 
Q 26.265625 48 22.1875 43.046875 
Q 18.109375 38.09375 18.109375 28.8125 
L 18.109375 0 
L 9.078125 0 
L 9.078125 54.6875 
L 18.109375 54.6875 
L 18.109375 46.1875 
Q 20.953125 51.171875 25.484375 53.578125 
Q 30.03125 56 36.53125 56 
Q 37.453125 56 38.578125 55.875 
Q 39.703125 55.765625 41.0625 55.515625 
z
" id="DejaVuSans-72"/>
      <path d="M 48.78125 52.59375 
L 48.78125 44.1875 
Q 44.96875 46.296875 41.140625 47.34375 
Q 37.3125 48.390625 33.40625 48.390625 
Q 24.65625 48.390625 19.8125 42.84375 
Q 14.984375 37.3125 14.984375 27.296875 
Q 14.984375 17.28125 19.8125 11.734375 
Q 24.65625 6.203125 33.40625 6.203125 
Q 37.3125 6.203125 41.140625 7.25 
Q 44.96875 8.296875 48.78125 10.40625 
L 48.78125 2.09375 
Q 45.015625 0.34375 40.984375 -0.53125 
Q 36.96875 -1.421875 32.421875 -1.421875 
Q 20.0625 -1.421875 12.78125 6.34375 
Q 5.515625 14.109375 5.515625 27.296875 
Q 5.515625 40.671875 12.859375 48.328125 
Q 20.21875 56 33.015625 56 
Q 37.15625 56 41.109375 55.140625 
Q 45.0625 54.296875 48.78125 52.59375 
z
" id="DejaVuSans-63"/>
      <path d="M 9.078125 75.984375 
L 18.109375 75.984375 
L 18.109375 31.109375 
L 44.921875 54.6875 
L 56.390625 54.6875 
L 27.390625 29.109375 
L 57.625 0 
L 45.90625 0 
L 18.109375 26.703125 
L 18.109375 0 
L 9.078125 0 
z
" id="DejaVuSans-6b"/>
     </defs>
     <g transform="translate(207.04195 175.362109)scale(0.15 -0.15)">
      <use xlink:href="#DejaVuSans-4c"/>
      <use x="55.712891" xlink:href="#DejaVuSans-69"/>
      <use x="83.496094" xlink:href="#DejaVuSans-6e"/>
      <use x="146.875" xlink:href="#DejaVuSans-65"/>
      <use x="208.398438" xlink:href="#DejaVuSans-61"/>
      <use x="269.677734" xlink:href="#DejaVuSans-67"/>
      <use x="333.154297" xlink:href="#DejaVuSans-65"/>
      <use x="394.677734" xlink:href="#DejaVuSans-20"/>
      <use x="426.464844" xlink:href="#DejaVuSans-54"/>
      <use x="487.330078" xlink:href="#DejaVuSans-72"/>
      <use x="528.443359" xlink:href="#DejaVuSans-61"/>
      <use x="589.722656" xlink:href="#DejaVuSans-63"/>
      <use x="644.703125" xlink:href="#DejaVuSans-6b"/>
      <use x="702.613281" xlink:href="#DejaVuSans-69"/>
      <use x="730.396484" xlink:href="#DejaVuSans-6e"/>
      <use x="793.775391" xlink:href="#DejaVuSans-67"/>
     </g>
    </g>
   </g>
  </g>
  <g id="axes_2">
   <g id="patch_8">
    <path d="M 537.041644 285.105859 
L 900.954688 285.105859 
L 900.954688 13.305859 
L 537.041644 13.305859 
z
" style="fill:#ffffff;"/>
   </g>
   <g id="PolyCollection_4">
    <defs>
     <path d="M 537.041644 -67.109428 
L 537.041644 -67.109428 
L 543.106861 -75.697802 
L 549.172079 -84.353905 
L 555.237296 -94.366435 
L 561.302514 -103.97049 
L 567.367731 -114.522736 
L 573.432948 -124.163842 
L 579.498166 -134.651785 
L 585.563383 -144.984366 
L 591.628601 -155.255359 
L 597.693818 -165.477034 
L 603.759035 -176.470666 
L 609.824253 -185.171524 
L 615.88947 -195.229662 
L 621.954688 -204.026854 
L 628.019905 -211.727353 
L 634.085122 -219.971414 
L 640.15034 -223.784663 
L 646.215557 -231.263598 
L 652.280774 -235.989401 
L 658.345992 -241.028032 
L 664.411209 -237.521303 
L 670.476427 -240.53032 
L 676.541644 -241.349874 
L 682.606861 -247.029896 
L 688.672079 -253.145005 
L 694.737296 -254.958292 
L 700.802514 -256.092448 
L 706.867731 -250.838255 
L 712.932948 -255.383684 
L 718.998166 -253.402644 
L 725.063383 -243.202253 
L 731.128601 -244.838319 
L 737.193818 -236.057229 
L 743.259035 -232.565499 
L 749.324253 -241.286419 
L 755.38947 -238.923144 
L 761.454687 -237.961107 
L 767.519905 -234.351028 
L 773.585122 -239.701827 
L 779.65034 -240.713227 
L 785.715557 -244.814097 
L 791.780774 -246.537083 
L 797.845992 -248.486789 
L 803.911209 -246.256854 
L 809.976427 -254.122493 
L 816.041644 -258.267792 
L 822.106861 -260.320734 
L 828.172079 -267.481831 
L 834.237296 -265.921148 
L 840.302514 -261.809463 
L 846.367731 -266.79153 
L 852.432948 -268.315779 
L 858.498166 -268.617066 
L 864.563383 -264.585738 
L 870.628601 -261.104477 
L 876.693818 -260.545389 
L 882.759035 -253.682913 
L 888.824253 -256.134048 
L 894.88947 -258.829897 
L 900.954687 -259.235083 
L 900.954687 -287.121016 
L 900.954687 -287.121016 
L 894.88947 -287.655298 
L 888.824253 -283.915096 
L 882.759035 -283.048341 
L 876.693818 -291.616253 
L 870.628601 -291.01115 
L 864.563383 -293.353435 
L 858.498166 -295.114738 
L 852.432948 -294.043954 
L 846.367731 -293.214451 
L 840.302514 -286.780724 
L 834.237296 -294.967526 
L 828.172079 -297.729598 
L 822.106861 -290.310148 
L 816.041644 -286.680716 
L 809.976427 -283.105432 
L 803.911209 -273.02714 
L 797.845992 -273.588484 
L 791.780774 -268.935465 
L 785.715557 -266.065206 
L 779.65034 -265.97143 
L 773.585122 -261.257949 
L 767.519905 -256.488661 
L 761.454687 -261.699007 
L 755.38947 -265.239785 
L 749.324253 -284.055371 
L 743.259035 -269.120247 
L 737.193818 -270.106639 
L 731.128601 -275.182184 
L 725.063383 -270.462858 
L 718.998166 -290.642779 
L 712.932948 -286.640412 
L 706.867731 -277.84665 
L 700.802514 -285.884143 
L 694.737296 -284.135979 
L 688.672079 -281.552496 
L 682.606861 -272.750393 
L 676.541644 -265.199738 
L 670.476427 -264.439265 
L 664.411209 -259.134503 
L 658.345992 -261.472223 
L 652.280774 -253.779388 
L 646.215557 -248.242338 
L 640.15034 -238.409735 
L 634.085122 -233.364827 
L 628.019905 -224.393605 
L 621.954688 -214.820814 
L 615.88947 -205.284686 
L 609.824253 -194.129035 
L 603.759035 -184.851141 
L 597.693818 -173.319 
L 591.628601 -162.386915 
L 585.563383 -151.347714 
L 579.498166 -140.941572 
L 573.432948 -130.536026 
L 567.367731 -120.146594 
L 561.302514 -109.070004 
L 555.237296 -98.427627 
L 549.172079 -87.936249 
L 543.106861 -78.21768 
L 537.041644 -67.109428 
z
" id="m07dc88e60f"/>
    </defs>
    <g clip-path="url(#p322609d952)">
     <use style="fill:#4db8ff;" x="0" xlink:href="#m07dc88e60f" y="339.679296"/>
    </g>
   </g>
   <g id="PolyCollection_5">
    <defs>
     <path d="M 537.041644 -67.109428 
L 537.041644 -67.109428 
L 543.106861 -83.317252 
L 549.172079 -97.388648 
L 555.237296 -112.287673 
L 561.302514 -133.477239 
L 567.367731 -145.271008 
L 573.432948 -163.382908 
L 579.498166 -170.356403 
L 585.563383 -180.587711 
L 591.628601 -191.474085 
L 597.693818 -202.925383 
L 603.759035 -217.979613 
L 609.824253 -214.080267 
L 615.88947 -220.638228 
L 621.954688 -231.899238 
L 628.019905 -231.439814 
L 634.085122 -235.709277 
L 640.15034 -230.594225 
L 646.215557 -233.204201 
L 652.280774 -245.073382 
L 658.345992 -251.858777 
L 664.411209 -239.228301 
L 670.476427 -239.712201 
L 676.541644 -248.882285 
L 682.606861 -252.39683 
L 688.672079 -250.856068 
L 694.737296 -247.809703 
L 700.802514 -256.155317 
L 706.867731 -258.339489 
L 712.932948 -262.049084 
L 718.998166 -258.762764 
L 725.063383 -258.91024 
L 731.128601 -265.002168 
L 737.193818 -266.499611 
L 743.259035 -266.059937 
L 749.324253 -269.304222 
L 755.38947 -271.555475 
L 761.454687 -273.984688 
L 767.519905 -269.1754 
L 773.585122 -265.499171 
L 779.65034 -266.289844 
L 785.715557 -270.138975 
L 791.780774 -270.655619 
L 797.845992 -274.421493 
L 803.911209 -279.111429 
L 809.976427 -283.894258 
L 816.041644 -282.812159 
L 822.106861 -287.675727 
L 828.172079 -281.521881 
L 834.237296 -284.723844 
L 840.302514 -284.295977 
L 846.367731 -286.496401 
L 852.432948 -286.122153 
L 858.498166 -290.444318 
L 864.563383 -294.287643 
L 870.628601 -295.988746 
L 876.693818 -294.662516 
L 882.759035 -294.831265 
L 888.824253 -294.846662 
L 894.88947 -296.309384 
L 900.954687 -295.619922 
L 900.954687 -311.713804 
L 900.954687 -311.713804 
L 894.88947 -312.706002 
L 888.824253 -310.774728 
L 882.759035 -310.731608 
L 876.693818 -312.831646 
L 870.628601 -314.018892 
L 864.563383 -311.469004 
L 858.498166 -307.382823 
L 852.432948 -303.763362 
L 846.367731 -304.869276 
L 840.302514 -304.866172 
L 834.237296 -305.07295 
L 828.172079 -303.535721 
L 822.106861 -309.667865 
L 816.041644 -305.007237 
L 809.976427 -307.562816 
L 803.911209 -301.56692 
L 797.845992 -297.83404 
L 791.780774 -293.981283 
L 785.715557 -295.279664 
L 779.65034 -290.150665 
L 773.585122 -288.556386 
L 767.519905 -297.991933 
L 761.454687 -306.753239 
L 755.38947 -300.649596 
L 749.324253 -299.682054 
L 743.259035 -297.736072 
L 737.193818 -298.83986 
L 731.128601 -298.364929 
L 725.063383 -292.325561 
L 718.998166 -290.697087 
L 712.932948 -294.088924 
L 706.867731 -291.053009 
L 700.802514 -286.623028 
L 694.737296 -277.076098 
L 688.672079 -289.387649 
L 682.606861 -293.01363 
L 676.541644 -290.699205 
L 670.476427 -277.947432 
L 664.411209 -281.296045 
L 658.345992 -299.437978 
L 652.280774 -290.879159 
L 646.215557 -277.576859 
L 640.15034 -272.517002 
L 634.085122 -280.203458 
L 628.019905 -271.742393 
L 621.954688 -270.395904 
L 615.88947 -253.931687 
L 609.824253 -244.307618 
L 603.759035 -245.96899 
L 597.693818 -227.582964 
L 591.628601 -214.06793 
L 585.563383 -200.459231 
L 579.498166 -188.295742 
L 573.432948 -180.870742 
L 567.367731 -161.050267 
L 561.302514 -152.115881 
L 555.237296 -127.564844 
L 549.172079 -111.630082 
L 543.106861 -95.395478 
L 537.041644 -67.109428 
z
" id="m4342453b0a"/>
    </defs>
    <g clip-path="url(#p322609d952)">
     <use style="fill:#ffa035;" x="0" xlink:href="#m4342453b0a" y="339.679296"/>
    </g>
   </g>
   <g id="PolyCollection_6">
    <defs>
     <path d="M 537.041644 -67.109428 
L 537.041644 -67.109428 
L 543.106861 -66.927983 
L 549.172079 -67.243808 
L 555.237296 -67.253221 
L 561.302514 -68.728477 
L 567.367731 -69.530861 
L 573.432948 -71.742933 
L 579.498166 -73.054921 
L 585.563383 -77.108061 
L 591.628601 -78.718346 
L 597.693818 -82.623799 
L 603.759035 -88.186115 
L 609.824253 -89.910614 
L 615.88947 -91.337344 
L 621.954688 -98.364834 
L 628.019905 -103.750148 
L 634.085122 -111.924841 
L 640.15034 -118.206435 
L 646.215557 -121.863167 
L 652.280774 -130.734629 
L 658.345992 -136.849153 
L 664.411209 -141.818181 
L 670.476427 -150.307811 
L 676.541644 -162.03596 
L 682.606861 -167.280487 
L 688.672079 -170.21574 
L 694.737296 -177.369283 
L 700.802514 -182.302407 
L 706.867731 -188.885541 
L 712.932948 -195.734573 
L 718.998166 -199.383723 
L 725.063383 -205.042681 
L 731.128601 -211.912773 
L 737.193818 -214.451916 
L 743.259035 -216.714046 
L 749.324253 -222.465874 
L 755.38947 -227.926808 
L 761.454687 -233.838838 
L 767.519905 -230.209942 
L 773.585122 -227.940872 
L 779.65034 -232.918943 
L 785.715557 -237.969803 
L 791.780774 -238.4966 
L 797.845992 -244.139679 
L 803.911209 -252.746292 
L 809.976427 -257.216717 
L 816.041644 -257.734995 
L 822.106861 -262.786095 
L 828.172079 -259.362129 
L 834.237296 -261.555265 
L 840.302514 -263.937732 
L 846.367731 -267.097726 
L 852.432948 -267.585353 
L 858.498166 -272.519639 
L 864.563383 -276.906903 
L 870.628601 -280.69649 
L 876.693818 -280.807241 
L 882.759035 -281.728415 
L 888.824253 -282.486125 
L 894.88947 -284.657652 
L 900.954687 -284.500396 
L 900.954687 -300.405587 
L 900.954687 -300.405587 
L 894.88947 -301.01598 
L 888.824253 -299.448452 
L 882.759035 -298.847096 
L 876.693818 -299.985685 
L 870.628601 -299.814109 
L 864.563383 -295.386721 
L 858.498166 -289.451585 
L 852.432948 -285.397742 
L 846.367731 -286.778612 
L 840.302514 -285.82333 
L 834.237296 -284.715286 
L 828.172079 -280.572791 
L 822.106861 -287.28012 
L 816.041644 -281.552661 
L 809.976427 -281.603653 
L 803.911209 -275.349178 
L 797.845992 -267.771701 
L 791.780774 -262.376426 
L 785.715557 -261.403863 
L 779.65034 -255.121673 
L 773.585122 -252.125345 
L 767.519905 -256.101621 
L 761.454687 -259.380822 
L 755.38947 -251.753148 
L 749.324253 -244.863215 
L 743.259035 -240.986869 
L 737.193818 -240.324512 
L 731.128601 -239.21963 
L 725.063383 -234.223658 
L 718.998166 -225.342522 
L 712.932948 -223.005041 
L 706.867731 -216.795867 
L 700.802514 -206.807847 
L 694.737296 -198.881659 
L 688.672079 -191.378676 
L 682.606861 -191.491008 
L 676.541644 -186.352226 
L 670.476427 -173.766705 
L 664.411209 -163.764949 
L 658.345992 -157.697643 
L 652.280774 -150.079361 
L 646.215557 -141.983869 
L 640.15034 -137.899592 
L 634.085122 -130.976175 
L 628.019905 -120.968569 
L 621.954688 -114.869667 
L 615.88947 -105.260175 
L 609.824253 -103.852717 
L 603.759035 -100.378481 
L 597.693818 -93.322043 
L 591.628601 -85.863357 
L 585.563383 -84.573604 
L 579.498166 -79.546697 
L 573.432948 -76.952583 
L 567.367731 -73.101337 
L 561.302514 -71.974365 
L 555.237296 -69.525343 
L 549.172079 -68.866752 
L 543.106861 -67.901749 
L 537.041644 -67.109428 
z
" id="med9a8d27b5"/>
    </defs>
    <g clip-path="url(#p322609d952)">
     <use style="fill:#47d200;" x="0" xlink:href="#med9a8d27b5" y="339.679296"/>
    </g>
   </g>
   <g id="matplotlib.axis_3">
    <g id="xtick_8">
     <g id="line2d_38">
      <path clip-path="url(#p322609d952)" d="M 537.041644 285.105859 
L 537.041644 13.305859 
" style="fill:none;stroke:#b0b0b0;stroke-linecap:square;stroke-width:0.8;"/>
     </g>
     <g id="line2d_39">
      <g>
       <use x="537.041644" xlink:href="#me83353d1c9" y="285.105859"/>
      </g>
     </g>
     <g id="text_20">
      <!-- 0 -->
      <g transform="translate(532.269769 306.003515)scale(0.15 -0.15)">
       <use xlink:href="#DejaVuSans-30"/>
      </g>
     </g>
    </g>
    <g id="xtick_9">
     <g id="line2d_40">
      <path clip-path="url(#p322609d952)" d="M 597.693818 285.105859 
L 597.693818 13.305859 
" style="fill:none;stroke:#b0b0b0;stroke-linecap:square;stroke-width:0.8;"/>
     </g>
     <g id="line2d_41">
      <g>
       <use x="597.693818" xlink:href="#me83353d1c9" y="285.105859"/>
      </g>
     </g>
     <g id="text_21">
      <!-- 1 -->
      <g transform="translate(592.921943 306.003515)scale(0.15 -0.15)">
       <use xlink:href="#DejaVuSans-31"/>
      </g>
     </g>
    </g>
    <g id="xtick_10">
     <g id="line2d_42">
      <path clip-path="url(#p322609d952)" d="M 658.345992 285.105859 
L 658.345992 13.305859 
" style="fill:none;stroke:#b0b0b0;stroke-linecap:square;stroke-width:0.8;"/>
     </g>
     <g id="line2d_43">
      <g>
       <use x="658.345992" xlink:href="#me83353d1c9" y="285.105859"/>
      </g>
     </g>
     <g id="text_22">
      <!-- 2 -->
      <g transform="translate(653.574117 306.003515)scale(0.15 -0.15)">
       <use xlink:href="#DejaVuSans-32"/>
      </g>
     </g>
    </g>
    <g id="xtick_11">
     <g id="line2d_44">
      <path clip-path="url(#p322609d952)" d="M 718.998166 285.105859 
L 718.998166 13.305859 
" style="fill:none;stroke:#b0b0b0;stroke-linecap:square;stroke-width:0.8;"/>
     </g>
     <g id="line2d_45">
      <g>
       <use x="718.998166" xlink:href="#me83353d1c9" y="285.105859"/>
      </g>
     </g>
     <g id="text_23">
      <!-- 3 -->
      <g transform="translate(714.226291 306.003515)scale(0.15 -0.15)">
       <use xlink:href="#DejaVuSans-33"/>
      </g>
     </g>
    </g>
    <g id="xtick_12">
     <g id="line2d_46">
      <path clip-path="url(#p322609d952)" d="M 779.65034 285.105859 
L 779.65034 13.305859 
" style="fill:none;stroke:#b0b0b0;stroke-linecap:square;stroke-width:0.8;"/>
     </g>
     <g id="line2d_47">
      <g>
       <use x="779.65034" xlink:href="#me83353d1c9" y="285.105859"/>
      </g>
     </g>
     <g id="text_24">
      <!-- 4 -->
      <g transform="translate(774.878465 306.003515)scale(0.15 -0.15)">
       <use xlink:href="#DejaVuSans-34"/>
      </g>
     </g>
    </g>
    <g id="xtick_13">
     <g id="line2d_48">
      <path clip-path="url(#p322609d952)" d="M 840.302514 285.105859 
L 840.302514 13.305859 
" style="fill:none;stroke:#b0b0b0;stroke-linecap:square;stroke-width:0.8;"/>
     </g>
     <g id="line2d_49">
      <g>
       <use x="840.302514" xlink:href="#me83353d1c9" y="285.105859"/>
      </g>
     </g>
     <g id="text_25">
      <!-- 5 -->
      <g transform="translate(835.530639 306.003515)scale(0.15 -0.15)">
       <use xlink:href="#DejaVuSans-35"/>
      </g>
     </g>
    </g>
    <g id="xtick_14">
     <g id="line2d_50">
      <path clip-path="url(#p322609d952)" d="M 900.954688 285.105859 
L 900.954688 13.305859 
" style="fill:none;stroke:#b0b0b0;stroke-linecap:square;stroke-width:0.8;"/>
     </g>
     <g id="line2d_51">
      <g>
       <use x="900.954688" xlink:href="#me83353d1c9" y="285.105859"/>
      </g>
     </g>
     <g id="text_26">
      <!-- 6 -->
      <g transform="translate(896.182813 306.003515)scale(0.15 -0.15)">
       <use xlink:href="#DejaVuSans-36"/>
      </g>
     </g>
    </g>
    <g id="text_27">
     <!-- $t/\tau$ -->
     <g transform="translate(705.598166 328.319921)scale(0.2 -0.2)">
      <use transform="translate(0 0.09375)" xlink:href="#DejaVuSans-Oblique-74"/>
      <use transform="translate(39.208984 0.09375)" xlink:href="#DejaVuSans-2f"/>
      <use transform="translate(72.900391 0.09375)" xlink:href="#DejaVuSans-Oblique-3c4"/>
     </g>
    </g>
   </g>
   <g id="matplotlib.axis_4">
    <g id="ytick_8">
     <g id="line2d_52">
      <path clip-path="url(#p322609d952)" d="M 537.041644 272.569868 
L 900.954688 272.569868 
" style="fill:none;stroke:#b0b0b0;stroke-linecap:square;stroke-width:0.8;"/>
     </g>
     <g id="line2d_53">
      <g>
       <use x="537.041644" xlink:href="#m5efe1d2f3a" y="272.569868"/>
      </g>
     </g>
     <g id="text_28">
      <!-- 0.0 -->
      <g transform="translate(503.686957 278.268696)scale(0.15 -0.15)">
       <use xlink:href="#DejaVuSans-30"/>
       <use x="63.623047" xlink:href="#DejaVuSans-2e"/>
       <use x="95.410156" xlink:href="#DejaVuSans-30"/>
      </g>
     </g>
    </g>
    <g id="ytick_9">
     <g id="line2d_54">
      <path clip-path="url(#p322609d952)" d="M 537.041644 220.63566 
L 900.954688 220.63566 
" style="fill:none;stroke:#b0b0b0;stroke-linecap:square;stroke-width:0.8;"/>
     </g>
     <g id="line2d_55">
      <g>
       <use x="537.041644" xlink:href="#m5efe1d2f3a" y="220.63566"/>
      </g>
     </g>
     <g id="text_29">
      <!-- 0.1 -->
      <g transform="translate(503.686957 226.334488)scale(0.15 -0.15)">
       <use xlink:href="#DejaVuSans-30"/>
       <use x="63.623047" xlink:href="#DejaVuSans-2e"/>
       <use x="95.410156" xlink:href="#DejaVuSans-31"/>
      </g>
     </g>
    </g>
    <g id="ytick_10">
     <g id="line2d_56">
      <path clip-path="url(#p322609d952)" d="M 537.041644 168.701452 
L 900.954688 168.701452 
" style="fill:none;stroke:#b0b0b0;stroke-linecap:square;stroke-width:0.8;"/>
     </g>
     <g id="line2d_57">
      <g>
       <use x="537.041644" xlink:href="#m5efe1d2f3a" y="168.701452"/>
      </g>
     </g>
     <g id="text_30">
      <!-- 0.2 -->
      <g transform="translate(503.686957 174.40028)scale(0.15 -0.15)">
       <use xlink:href="#DejaVuSans-30"/>
       <use x="63.623047" xlink:href="#DejaVuSans-2e"/>
       <use x="95.410156" xlink:href="#DejaVuSans-32"/>
      </g>
     </g>
    </g>
    <g id="ytick_11">
     <g id="line2d_58">
      <path clip-path="url(#p322609d952)" d="M 537.041644 116.767244 
L 900.954688 116.767244 
" style="fill:none;stroke:#b0b0b0;stroke-linecap:square;stroke-width:0.8;"/>
     </g>
     <g id="line2d_59">
      <g>
       <use x="537.041644" xlink:href="#m5efe1d2f3a" y="116.767244"/>
      </g>
     </g>
     <g id="text_31">
      <!-- 0.3 -->
      <g transform="translate(503.686957 122.466072)scale(0.15 -0.15)">
       <use xlink:href="#DejaVuSans-30"/>
       <use x="63.623047" xlink:href="#DejaVuSans-2e"/>
       <use x="95.410156" xlink:href="#DejaVuSans-33"/>
      </g>
     </g>
    </g>
    <g id="ytick_12">
     <g id="line2d_60">
      <path clip-path="url(#p322609d952)" d="M 537.041644 64.833036 
L 900.954688 64.833036 
" style="fill:none;stroke:#b0b0b0;stroke-linecap:square;stroke-width:0.8;"/>
     </g>
     <g id="line2d_61">
      <g>
       <use x="537.041644" xlink:href="#m5efe1d2f3a" y="64.833036"/>
      </g>
     </g>
     <g id="text_32">
      <!-- 0.4 -->
      <g transform="translate(503.686957 70.531864)scale(0.15 -0.15)">
       <use xlink:href="#DejaVuSans-30"/>
       <use x="63.623047" xlink:href="#DejaVuSans-2e"/>
       <use x="95.410156" xlink:href="#DejaVuSans-34"/>
      </g>
     </g>
    </g>
    <g id="ytick_13">
     <g id="line2d_62">
      <path clip-path="url(#p322609d952)" d="M 537.041644 12.898828 
L 900.954688 12.898828 
" style="fill:none;stroke:#b0b0b0;stroke-linecap:square;stroke-width:0.8;"/>
     </g>
     <g id="line2d_63">
      <g>
       <use x="537.041644" xlink:href="#m5efe1d2f3a" y="12.898828"/>
      </g>
     </g>
     <g id="text_33">
      <!-- 0.5 -->
      <g transform="translate(503.686957 18.597656)scale(0.15 -0.15)">
       <use xlink:href="#DejaVuSans-30"/>
       <use x="63.623047" xlink:href="#DejaVuSans-2e"/>
       <use x="95.410156" xlink:href="#DejaVuSans-35"/>
      </g>
     </g>
    </g>
    <g id="text_34">
     <!-- $C_V^2(s)$ -->
     <defs>
      <path d="M 69.484375 67.28125 
L 67.484375 56.890625 
Q 62.796875 61.625 57.546875 63.921875 
Q 52.296875 66.21875 46.1875 66.21875 
Q 37.84375 66.21875 31.515625 62.203125 
Q 25.203125 58.203125 20.609375 50 
Q 17.671875 44.734375 16.125 38.84375 
Q 14.59375 32.953125 14.59375 27 
Q 14.59375 17.046875 19.75 11.8125 
Q 24.90625 6.59375 34.71875 6.59375 
Q 41.5 6.59375 47.75 8.765625 
Q 54 10.9375 59.90625 15.28125 
L 57.625 3.609375 
Q 51.8125 1.125 45.875 -0.140625 
Q 39.9375 -1.421875 33.984375 -1.421875 
Q 19.96875 -1.421875 12.078125 6.1875 
Q 4.203125 13.8125 4.203125 27.390625 
Q 4.203125 36.078125 7.203125 44.46875 
Q 10.203125 52.875 15.828125 59.8125 
Q 21.78125 67.1875 29.421875 70.703125 
Q 37.0625 74.21875 47.21875 74.21875 
Q 53.46875 74.21875 59.0625 72.484375 
Q 64.65625 70.75 69.484375 67.28125 
z
" id="DejaVuSans-Oblique-43"/>
      <path d="M 20.609375 0 
L 7.8125 72.90625 
L 17.484375 72.90625 
L 28.078125 10.203125 
L 63.484375 72.90625 
L 74.21875 72.90625 
L 32.078125 0 
z
" id="DejaVuSans-Oblique-56"/>
     </defs>
     <g transform="translate(494.086957 174.705859)rotate(-90)scale(0.2 -0.2)">
      <use transform="translate(0 0.765625)" xlink:href="#DejaVuSans-Oblique-43"/>
      <use transform="translate(77.02474 39.046875)scale(0.7)" xlink:href="#DejaVuSans-32"/>
      <use transform="translate(69.824219 -26.578125)scale(0.7)" xlink:href="#DejaVuSans-Oblique-56"/>
      <use transform="translate(124.295247 0.765625)" xlink:href="#DejaVuSans-28"/>
      <use transform="translate(163.308919 0.765625)" xlink:href="#DejaVuSans-Oblique-73"/>
      <use transform="translate(215.408529 0.765625)" xlink:href="#DejaVuSans-29"/>
     </g>
    </g>
   </g>
   <g id="line2d_64">
    <path clip-path="url(#p322609d952)" d="M 537.041644 272.569868 
L 543.106861 262.721556 
L 549.172079 253.53422 
L 555.237296 243.282265 
L 561.302514 233.15905 
L 567.367731 222.344631 
L 573.432948 212.329362 
L 579.498166 201.882618 
L 585.563383 191.513257 
L 591.628601 180.858159 
L 597.693818 170.28128 
L 603.759035 159.018393 
L 609.824253 150.029017 
L 615.88947 139.422122 
L 621.954688 130.255462 
L 628.019905 121.618817 
L 634.085122 113.011176 
L 640.15034 108.582097 
L 646.215557 99.926328 
L 652.280774 94.794902 
L 658.345992 88.429169 
L 664.411209 91.351393 
L 670.476427 87.194504 
L 676.541644 86.40449 
L 682.606861 79.789152 
L 688.672079 72.330546 
L 694.737296 70.132161 
L 700.802514 68.691001 
L 706.867731 75.336844 
L 712.932948 68.667249 
L 718.998166 67.656585 
L 725.063383 82.846741 
L 731.128601 79.669045 
L 737.193818 86.597363 
L 743.259035 88.836423 
L 749.324253 77.008401 
L 755.38947 87.597832 
L 761.454687 89.849239 
L 767.519905 94.259452 
L 773.585122 89.199408 
L 779.65034 86.336968 
L 785.715557 84.239644 
L 791.780774 81.943022 
L 797.845992 78.64166 
L 803.911209 80.037299 
L 809.976427 71.065334 
L 816.041644 67.205042 
L 822.106861 64.363855 
L 828.172079 57.073582 
L 834.237296 59.234959 
L 840.302514 65.384203 
L 846.367731 59.676306 
L 852.432948 58.49943 
L 858.498166 57.813395 
L 864.563383 60.70971 
L 870.628601 63.621483 
L 876.693818 63.598476 
L 882.759035 71.313669 
L 888.824253 69.654724 
L 894.88947 66.436699 
L 900.954687 66.501247 
" style="fill:none;stroke:#1f77b4;stroke-linecap:square;stroke-width:3;"/>
   </g>
   <g id="line2d_65">
    <path clip-path="url(#p322609d952)" d="M 537.041644 272.569868 
L 543.106861 250.322932 
L 549.172079 235.169931 
L 555.237296 219.753038 
L 561.302514 196.882737 
L 567.367731 186.518659 
L 573.432948 167.552471 
L 579.498166 160.353224 
L 585.563383 149.155825 
L 591.628601 136.908289 
L 597.693818 124.425123 
L 603.759035 107.704995 
L 609.824253 110.485354 
L 615.88947 102.394339 
L 621.954688 88.531725 
L 628.019905 88.088193 
L 634.085122 81.722929 
L 640.15034 88.123683 
L 646.215557 84.288766 
L 652.280774 71.703026 
L 658.345992 64.030919 
L 664.411209 79.417124 
L 670.476427 80.84948 
L 676.541644 69.888551 
L 682.606861 66.974066 
L 688.672079 69.557438 
L 694.737296 77.236396 
L 700.802514 68.290124 
L 706.867731 64.983047 
L 712.932948 61.610293 
L 718.998166 64.949371 
L 725.063383 64.061396 
L 731.128601 57.995748 
L 737.193818 57.009561 
L 743.259035 57.781292 
L 749.324253 55.186159 
L 755.38947 53.576761 
L 761.454687 49.310333 
L 767.519905 56.09563 
L 773.585122 62.651518 
L 779.65034 61.459042 
L 785.715557 56.969977 
L 791.780774 57.360845 
L 797.845992 53.55153 
L 803.911209 49.340122 
L 809.976427 43.950759 
L 816.041644 45.769599 
L 822.106861 41.0075 
L 828.172079 47.150496 
L 834.237296 44.7809 
L 840.302514 45.098222 
L 846.367731 43.996458 
L 852.432948 44.736539 
L 858.498166 40.765726 
L 864.563383 36.800973 
L 870.628601 34.675478 
L 876.693818 35.932216 
L 882.759035 36.89786 
L 888.824253 36.868601 
L 894.88947 35.171603 
L 900.954687 36.012433 
" style="fill:none;stroke:#ff7f0e;stroke-linecap:square;stroke-width:3;"/>
   </g>
   <g id="line2d_66">
    <path clip-path="url(#p322609d952)" d="M 537.041644 272.569868 
L 543.106861 272.26443 
L 549.172079 271.624017 
L 555.237296 271.290015 
L 561.302514 269.327875 
L 567.367731 268.363197 
L 573.432948 265.331538 
L 579.498166 263.378487 
L 585.563383 258.838464 
L 591.628601 257.388445 
L 597.693818 251.706375 
L 603.759035 245.396998 
L 609.824253 242.797631 
L 615.88947 241.380536 
L 621.954688 233.062046 
L 628.019905 227.319938 
L 634.085122 218.228788 
L 640.15034 211.626283 
L 646.215557 207.755778 
L 652.280774 199.272302 
L 658.345992 192.405898 
L 664.411209 186.887731 
L 670.476427 177.642038 
L 676.541644 165.485203 
L 682.606861 160.293549 
L 688.672079 158.882088 
L 694.737296 151.553826 
L 700.802514 145.12417 
L 706.867731 136.838592 
L 712.932948 130.309489 
L 718.998166 127.316174 
L 725.063383 120.046127 
L 731.128601 114.113095 
L 737.193818 112.291082 
L 743.259035 110.828839 
L 749.324253 106.014752 
L 755.38947 99.839318 
L 761.454687 93.069467 
L 767.519905 96.523515 
L 773.585122 99.646188 
L 779.65034 95.658989 
L 785.715557 89.992463 
L 791.780774 89.242783 
L 797.845992 83.723607 
L 803.911209 75.631561 
L 809.976427 70.269111 
L 816.041644 70.035468 
L 822.106861 64.646189 
L 828.172079 69.711836 
L 834.237296 66.544021 
L 840.302514 64.798766 
L 846.367731 62.741127 
L 852.432948 63.187748 
L 858.498166 58.693684 
L 864.563383 53.532484 
L 870.628601 49.423997 
L 876.693818 49.282834 
L 882.759035 49.391541 
L 888.824253 48.712008 
L 894.88947 46.84248 
L 900.954687 47.226305 
" style="fill:none;stroke:#2ca02c;stroke-linecap:square;stroke-width:3;"/>
   </g>
   <g id="patch_9">
    <path d="M 537.041644 285.105859 
L 537.041644 13.305859 
" style="fill:none;stroke:#000000;stroke-linecap:square;stroke-linejoin:miter;stroke-width:2;"/>
   </g>
   <g id="patch_10">
    <path d="M 900.954688 285.105859 
L 900.954688 13.305859 
" style="fill:none;"/>
   </g>
   <g id="patch_11">
    <path d="M 537.041644 285.105859 
L 900.954688 285.105859 
" style="fill:none;stroke:#000000;stroke-linecap:square;stroke-linejoin:miter;stroke-width:2;"/>
   </g>
   <g id="patch_12">
    <path d="M 537.041644 13.305859 
L 900.954688 13.305859 
" style="fill:none;"/>
   </g>
  </g>
 </g>
 <defs>
  <clipPath id="pd4f9e7a462">
   <rect height="271.8" width="363.913043" x="63.954688" y="13.305859"/>
  </clipPath>
  <clipPath id="p322609d952">
   <rect height="271.8" width="363.913043" x="537.041644" y="13.305859"/>
  </clipPath>
 </defs>
</svg>
