<?xml version="1.0" encoding="utf-8" standalone="no"?>
<!DOCTYPE svg PUBLIC "-//W3C//DTD SVG 1.1//EN"
  "http://www.w3.org/Graphics/SVG/1.1/DTD/svg11.dtd">
<!-- Created with matplotlib (http://matplotlib.org/) -->
<svg height="285.213437pt" version="1.1" viewBox="0 0 761.242188 285.213437" width="761.242188pt" xmlns="http://www.w3.org/2000/svg" xmlns:xlink="http://www.w3.org/1999/xlink">
 <defs>
  <style type="text/css">
*{stroke-linecap:butt;stroke-linejoin:round;}
  </style>
 </defs>
 <g id="figure_1">
  <g id="patch_1">
   <path d="M 0 285.213437 
L 761.242188 285.213437 
L 761.242188 0 
L 0 0 
z
" style="fill:#ffffff;"/>
  </g>
  <g id="axes_1">
   <g id="patch_2">
    <path d="M 74.898438 230.64 
L 366.028872 230.64 
L 366.028872 13.2 
L 74.898438 13.2 
z
" style="fill:#ffffff;"/>
   </g>
   <g id="PolyCollection_1">
    <defs>
     <path d="M 75.071105 -128.816063 
L 75.071105 -127.539592 
L 78.147135 -152.892573 
L 81.457618 -166.606894 
L 84.873383 -176.304013 
L 87.955814 -181.891057 
L 91.363474 -185.744825 
L 94.406084 -189.147101 
L 97.84413 -191.877375 
L 100.962268 -194.837437 
L 104.127292 -194.231105 
L 107.569486 -193.265975 
L 110.566914 -193.737842 
L 113.972235 -195.140764 
L 116.990283 -193.690337 
L 120.221174 -194.572788 
L 123.437035 -194.796907 
L 126.769107 -194.89406 
L 129.985293 -193.996348 
L 133.183455 -193.458475 
L 136.465839 -193.358252 
L 139.863016 -193.455304 
L 142.884032 -194.582873 
L 146.330116 -194.346203 
L 149.605906 -194.196838 
L 153.101862 -193.557661 
L 155.778038 -193.477507 
L 159.205872 -191.465959 
L 162.513925 -192.029689 
L 165.755313 -191.350319 
L 168.722321 -192.308738 
L 172.067304 -192.341692 
L 175.627589 -193.161137 
L 178.563205 -193.872209 
L 181.735424 -193.956685 
L 184.886951 -193.873369 
L 188.126769 -193.5475 
L 191.357993 -191.685304 
L 194.631041 -192.087533 
L 197.933905 -192.392726 
L 201.460033 -193.279647 
L 204.812745 -193.725944 
L 207.57907 -193.715995 
L 210.822534 -194.855638 
L 213.996123 -195.815688 
L 217.28959 -195.519416 
L 220.530271 -197.044817 
L 223.795044 -196.547067 
L 227.134891 -195.013618 
L 230.311804 -195.686701 
L 233.433221 -196.333427 
L 236.650315 -195.051129 
L 240.061783 -196.618173 
L 243.16838 -195.986265 
L 246.400277 -196.765666 
L 249.684548 -195.359834 
L 252.820012 -194.184547 
L 256.222115 -192.50611 
L 259.585692 -194.700136 
L 262.522498 -195.315518 
L 265.826908 -194.107476 
L 269.014329 -196.028488 
L 272.443883 -194.468299 
L 275.534783 -195.043635 
L 278.700192 -194.707817 
L 281.935482 -195.720249 
L 285.196537 -195.879652 
L 288.469535 -194.846343 
L 291.685642 -194.435314 
L 295.376744 -193.875953 
L 298.17896 -194.89003 
L 301.783255 -192.5907 
L 304.770844 -193.397433 
L 308.05649 -191.368262 
L 311.045529 -191.83184 
L 314.282517 -192.965974 
L 317.901477 -192.729752 
L 320.964165 -192.531396 
L 324.15805 -194.66508 
L 327.446986 -195.080437 
L 330.805053 -193.781917 
L 334.058947 -195.09061 
L 337.381087 -195.360904 
L 340.674267 -195.340037 
L 343.677712 -194.025448 
L 347.750363 -192.797295 
L 349.920567 -193.199264 
L 353.726513 -194.328414 
L 356.421944 -193.888106 
L 359.753851 -193.905034 
L 363.009701 -195.454537 
L 363.009701 -200.236258 
L 363.009701 -200.236258 
L 359.753851 -198.595473 
L 356.421944 -198.643267 
L 353.726513 -199.04124 
L 349.920567 -197.962767 
L 347.750363 -197.526451 
L 343.677712 -199.036204 
L 340.674267 -200.272518 
L 337.381087 -200.193333 
L 334.058947 -199.977303 
L 330.805053 -198.73124 
L 327.446986 -199.788884 
L 324.15805 -199.556501 
L 320.964165 -197.273189 
L 317.901477 -197.748117 
L 314.282517 -197.903412 
L 311.045529 -197.005146 
L 308.05649 -196.527043 
L 304.770844 -198.449671 
L 301.783255 -197.409096 
L 298.17896 -199.542454 
L 295.376744 -198.677382 
L 291.685642 -199.044413 
L 288.469535 -199.684576 
L 285.196537 -200.982556 
L 281.935482 -200.779859 
L 278.700192 -199.715249 
L 275.534783 -199.857926 
L 272.443883 -199.346547 
L 269.014329 -200.74115 
L 265.826908 -198.621374 
L 262.522498 -200.060802 
L 259.585692 -199.373442 
L 256.222115 -197.192165 
L 252.820012 -199.093804 
L 249.684548 -200.072811 
L 246.400277 -201.578939 
L 243.16838 -200.658028 
L 240.061783 -201.304127 
L 236.650315 -199.777499 
L 233.433221 -201.09782 
L 230.311804 -200.744971 
L 227.134891 -200.165226 
L 223.795044 -201.598649 
L 220.530271 -202.022058 
L 217.28959 -200.336229 
L 213.996123 -200.476311 
L 210.822534 -199.499118 
L 207.57907 -198.232959 
L 204.812745 -198.468906 
L 201.460033 -197.993088 
L 197.933905 -197.154876 
L 194.631041 -196.949901 
L 191.357993 -196.592641 
L 188.126769 -198.135506 
L 184.886951 -198.596457 
L 181.735424 -198.510194 
L 178.563205 -198.592324 
L 175.627589 -198.049279 
L 172.067304 -197.337407 
L 168.722321 -197.45599 
L 165.755313 -196.415907 
L 162.513925 -196.883616 
L 159.205872 -196.20821 
L 155.778038 -198.296839 
L 153.101862 -198.161524 
L 149.605906 -198.955273 
L 146.330116 -199.237029 
L 142.884032 -199.354346 
L 139.863016 -198.268324 
L 136.465839 -198.408456 
L 133.183455 -198.491045 
L 129.985293 -198.834479 
L 126.769107 -199.591563 
L 123.437035 -199.387817 
L 120.221174 -199.205103 
L 116.990283 -198.410695 
L 113.972235 -200.136862 
L 110.566914 -198.62884 
L 107.569486 -198.080504 
L 104.127292 -199.047698 
L 100.962268 -199.459083 
L 97.84413 -196.385158 
L 94.406084 -193.621676 
L 91.363474 -190.269011 
L 87.955814 -186.321177 
L 84.873383 -180.670596 
L 81.457618 -170.832094 
L 78.147135 -156.601939 
L 75.071105 -128.816063 
z
" id="m1390e09ed6"/>
    </defs>
    <g clip-path="url(#pf74c1e3d59)">
     <use style="fill:#ff3333;" x="0" xlink:href="#m1390e09ed6" y="285.213437"/>
    </g>
   </g>
   <g id="matplotlib.axis_1">
    <g id="xtick_1">
     <g id="line2d_1">
      <path clip-path="url(#pf74c1e3d59)" d="M 74.898438 230.64 
L 74.898438 13.2 
" style="fill:none;stroke:#b0b0b0;stroke-linecap:square;stroke-width:0.8;"/>
     </g>
     <g id="line2d_2">
      <defs>
       <path d="M 0 0 
L 0 6 
" id="mb1fd27f771"/>
      </defs>
      <g>
       <use x="74.898438" xlink:href="#mb1fd27f771" y="230.64"/>
      </g>
     </g>
     <g id="text_1">
      <!-- 0 -->
      <defs>
       <path d="M 31.78125 66.40625 
Q 24.171875 66.40625 20.328125 58.90625 
Q 16.5 51.421875 16.5 36.375 
Q 16.5 21.390625 20.328125 13.890625 
Q 24.171875 6.390625 31.78125 6.390625 
Q 39.453125 6.390625 43.28125 13.890625 
Q 47.125 21.390625 47.125 36.375 
Q 47.125 51.421875 43.28125 58.90625 
Q 39.453125 66.40625 31.78125 66.40625 
z
M 31.78125 74.21875 
Q 44.046875 74.21875 50.515625 64.515625 
Q 56.984375 54.828125 56.984375 36.375 
Q 56.984375 17.96875 50.515625 8.265625 
Q 44.046875 -1.421875 31.78125 -1.421875 
Q 19.53125 -1.421875 13.0625 8.265625 
Q 6.59375 17.96875 6.59375 36.375 
Q 6.59375 54.828125 13.0625 64.515625 
Q 19.53125 74.21875 31.78125 74.21875 
z
" id="DejaVuSans-30"/>
      </defs>
      <g transform="translate(70.126563 251.537656)scale(0.15 -0.15)">
       <use xlink:href="#DejaVuSans-30"/>
      </g>
     </g>
    </g>
    <g id="xtick_2">
     <g id="line2d_3">
      <path clip-path="url(#pf74c1e3d59)" d="M 104.011481 230.64 
L 104.011481 13.2 
" style="fill:none;stroke:#b0b0b0;stroke-linecap:square;stroke-width:0.8;"/>
     </g>
     <g id="line2d_4">
      <g>
       <use x="104.011481" xlink:href="#mb1fd27f771" y="230.64"/>
      </g>
     </g>
     <g id="text_2">
      <!-- 1 -->
      <defs>
       <path d="M 12.40625 8.296875 
L 28.515625 8.296875 
L 28.515625 63.921875 
L 10.984375 60.40625 
L 10.984375 69.390625 
L 28.421875 72.90625 
L 38.28125 72.90625 
L 38.28125 8.296875 
L 54.390625 8.296875 
L 54.390625 0 
L 12.40625 0 
z
" id="DejaVuSans-31"/>
      </defs>
      <g transform="translate(99.239606 251.537656)scale(0.15 -0.15)">
       <use xlink:href="#DejaVuSans-31"/>
      </g>
     </g>
    </g>
    <g id="xtick_3">
     <g id="line2d_5">
      <path clip-path="url(#pf74c1e3d59)" d="M 133.124524 230.64 
L 133.124524 13.2 
" style="fill:none;stroke:#b0b0b0;stroke-linecap:square;stroke-width:0.8;"/>
     </g>
     <g id="line2d_6">
      <g>
       <use x="133.124524" xlink:href="#mb1fd27f771" y="230.64"/>
      </g>
     </g>
     <g id="text_3">
      <!-- 2 -->
      <defs>
       <path d="M 19.1875 8.296875 
L 53.609375 8.296875 
L 53.609375 0 
L 7.328125 0 
L 7.328125 8.296875 
Q 12.9375 14.109375 22.625 23.890625 
Q 32.328125 33.6875 34.8125 36.53125 
Q 39.546875 41.84375 41.421875 45.53125 
Q 43.3125 49.21875 43.3125 52.78125 
Q 43.3125 58.59375 39.234375 62.25 
Q 35.15625 65.921875 28.609375 65.921875 
Q 23.96875 65.921875 18.8125 64.3125 
Q 13.671875 62.703125 7.8125 59.421875 
L 7.8125 69.390625 
Q 13.765625 71.78125 18.9375 73 
Q 24.125 74.21875 28.421875 74.21875 
Q 39.75 74.21875 46.484375 68.546875 
Q 53.21875 62.890625 53.21875 53.421875 
Q 53.21875 48.921875 51.53125 44.890625 
Q 49.859375 40.875 45.40625 35.40625 
Q 44.1875 33.984375 37.640625 27.21875 
Q 31.109375 20.453125 19.1875 8.296875 
z
" id="DejaVuSans-32"/>
      </defs>
      <g transform="translate(128.352649 251.537656)scale(0.15 -0.15)">
       <use xlink:href="#DejaVuSans-32"/>
      </g>
     </g>
    </g>
    <g id="xtick_4">
     <g id="line2d_7">
      <path clip-path="url(#pf74c1e3d59)" d="M 162.237568 230.64 
L 162.237568 13.2 
" style="fill:none;stroke:#b0b0b0;stroke-linecap:square;stroke-width:0.8;"/>
     </g>
     <g id="line2d_8">
      <g>
       <use x="162.237568" xlink:href="#mb1fd27f771" y="230.64"/>
      </g>
     </g>
     <g id="text_4">
      <!-- 3 -->
      <defs>
       <path d="M 40.578125 39.3125 
Q 47.65625 37.796875 51.625 33 
Q 55.609375 28.21875 55.609375 21.1875 
Q 55.609375 10.40625 48.1875 4.484375 
Q 40.765625 -1.421875 27.09375 -1.421875 
Q 22.515625 -1.421875 17.65625 -0.515625 
Q 12.796875 0.390625 7.625 2.203125 
L 7.625 11.71875 
Q 11.71875 9.328125 16.59375 8.109375 
Q 21.484375 6.890625 26.8125 6.890625 
Q 36.078125 6.890625 40.9375 10.546875 
Q 45.796875 14.203125 45.796875 21.1875 
Q 45.796875 27.640625 41.28125 31.265625 
Q 36.765625 34.90625 28.71875 34.90625 
L 20.21875 34.90625 
L 20.21875 43.015625 
L 29.109375 43.015625 
Q 36.375 43.015625 40.234375 45.921875 
Q 44.09375 48.828125 44.09375 54.296875 
Q 44.09375 59.90625 40.109375 62.90625 
Q 36.140625 65.921875 28.71875 65.921875 
Q 24.65625 65.921875 20.015625 65.03125 
Q 15.375 64.15625 9.8125 62.3125 
L 9.8125 71.09375 
Q 15.4375 72.65625 20.34375 73.4375 
Q 25.25 74.21875 29.59375 74.21875 
Q 40.828125 74.21875 47.359375 69.109375 
Q 53.90625 64.015625 53.90625 55.328125 
Q 53.90625 49.265625 50.4375 45.09375 
Q 46.96875 40.921875 40.578125 39.3125 
z
" id="DejaVuSans-33"/>
      </defs>
      <g transform="translate(157.465693 251.537656)scale(0.15 -0.15)">
       <use xlink:href="#DejaVuSans-33"/>
      </g>
     </g>
    </g>
    <g id="xtick_5">
     <g id="line2d_9">
      <path clip-path="url(#pf74c1e3d59)" d="M 191.350611 230.64 
L 191.350611 13.2 
" style="fill:none;stroke:#b0b0b0;stroke-linecap:square;stroke-width:0.8;"/>
     </g>
     <g id="line2d_10">
      <g>
       <use x="191.350611" xlink:href="#mb1fd27f771" y="230.64"/>
      </g>
     </g>
     <g id="text_5">
      <!-- 4 -->
      <defs>
       <path d="M 37.796875 64.3125 
L 12.890625 25.390625 
L 37.796875 25.390625 
z
M 35.203125 72.90625 
L 47.609375 72.90625 
L 47.609375 25.390625 
L 58.015625 25.390625 
L 58.015625 17.1875 
L 47.609375 17.1875 
L 47.609375 0 
L 37.796875 0 
L 37.796875 17.1875 
L 4.890625 17.1875 
L 4.890625 26.703125 
z
" id="DejaVuSans-34"/>
      </defs>
      <g transform="translate(186.578736 251.537656)scale(0.15 -0.15)">
       <use xlink:href="#DejaVuSans-34"/>
      </g>
     </g>
    </g>
    <g id="xtick_6">
     <g id="line2d_11">
      <path clip-path="url(#pf74c1e3d59)" d="M 220.463655 230.64 
L 220.463655 13.2 
" style="fill:none;stroke:#b0b0b0;stroke-linecap:square;stroke-width:0.8;"/>
     </g>
     <g id="line2d_12">
      <g>
       <use x="220.463655" xlink:href="#mb1fd27f771" y="230.64"/>
      </g>
     </g>
     <g id="text_6">
      <!-- 5 -->
      <defs>
       <path d="M 10.796875 72.90625 
L 49.515625 72.90625 
L 49.515625 64.59375 
L 19.828125 64.59375 
L 19.828125 46.734375 
Q 21.96875 47.46875 24.109375 47.828125 
Q 26.265625 48.1875 28.421875 48.1875 
Q 40.625 48.1875 47.75 41.5 
Q 54.890625 34.8125 54.890625 23.390625 
Q 54.890625 11.625 47.5625 5.09375 
Q 40.234375 -1.421875 26.90625 -1.421875 
Q 22.3125 -1.421875 17.546875 -0.640625 
Q 12.796875 0.140625 7.71875 1.703125 
L 7.71875 11.625 
Q 12.109375 9.234375 16.796875 8.0625 
Q 21.484375 6.890625 26.703125 6.890625 
Q 35.15625 6.890625 40.078125 11.328125 
Q 45.015625 15.765625 45.015625 23.390625 
Q 45.015625 31 40.078125 35.4375 
Q 35.15625 39.890625 26.703125 39.890625 
Q 22.75 39.890625 18.8125 39.015625 
Q 14.890625 38.140625 10.796875 36.28125 
z
" id="DejaVuSans-35"/>
      </defs>
      <g transform="translate(215.69178 251.537656)scale(0.15 -0.15)">
       <use xlink:href="#DejaVuSans-35"/>
      </g>
     </g>
    </g>
    <g id="xtick_7">
     <g id="line2d_13">
      <path clip-path="url(#pf74c1e3d59)" d="M 249.576698 230.64 
L 249.576698 13.2 
" style="fill:none;stroke:#b0b0b0;stroke-linecap:square;stroke-width:0.8;"/>
     </g>
     <g id="line2d_14">
      <g>
       <use x="249.576698" xlink:href="#mb1fd27f771" y="230.64"/>
      </g>
     </g>
     <g id="text_7">
      <!-- 6 -->
      <defs>
       <path d="M 33.015625 40.375 
Q 26.375 40.375 22.484375 35.828125 
Q 18.609375 31.296875 18.609375 23.390625 
Q 18.609375 15.53125 22.484375 10.953125 
Q 26.375 6.390625 33.015625 6.390625 
Q 39.65625 6.390625 43.53125 10.953125 
Q 47.40625 15.53125 47.40625 23.390625 
Q 47.40625 31.296875 43.53125 35.828125 
Q 39.65625 40.375 33.015625 40.375 
z
M 52.59375 71.296875 
L 52.59375 62.3125 
Q 48.875 64.0625 45.09375 64.984375 
Q 41.3125 65.921875 37.59375 65.921875 
Q 27.828125 65.921875 22.671875 59.328125 
Q 17.53125 52.734375 16.796875 39.40625 
Q 19.671875 43.65625 24.015625 45.921875 
Q 28.375 48.1875 33.59375 48.1875 
Q 44.578125 48.1875 50.953125 41.515625 
Q 57.328125 34.859375 57.328125 23.390625 
Q 57.328125 12.15625 50.6875 5.359375 
Q 44.046875 -1.421875 33.015625 -1.421875 
Q 20.359375 -1.421875 13.671875 8.265625 
Q 6.984375 17.96875 6.984375 36.375 
Q 6.984375 53.65625 15.1875 63.9375 
Q 23.390625 74.21875 37.203125 74.21875 
Q 40.921875 74.21875 44.703125 73.484375 
Q 48.484375 72.75 52.59375 71.296875 
z
" id="DejaVuSans-36"/>
      </defs>
      <g transform="translate(244.804823 251.537656)scale(0.15 -0.15)">
       <use xlink:href="#DejaVuSans-36"/>
      </g>
     </g>
    </g>
    <g id="xtick_8">
     <g id="line2d_15">
      <path clip-path="url(#pf74c1e3d59)" d="M 278.689742 230.64 
L 278.689742 13.2 
" style="fill:none;stroke:#b0b0b0;stroke-linecap:square;stroke-width:0.8;"/>
     </g>
     <g id="line2d_16">
      <g>
       <use x="278.689742" xlink:href="#mb1fd27f771" y="230.64"/>
      </g>
     </g>
     <g id="text_8">
      <!-- 7 -->
      <defs>
       <path d="M 8.203125 72.90625 
L 55.078125 72.90625 
L 55.078125 68.703125 
L 28.609375 0 
L 18.3125 0 
L 43.21875 64.59375 
L 8.203125 64.59375 
z
" id="DejaVuSans-37"/>
      </defs>
      <g transform="translate(273.917867 251.537656)scale(0.15 -0.15)">
       <use xlink:href="#DejaVuSans-37"/>
      </g>
     </g>
    </g>
    <g id="xtick_9">
     <g id="line2d_17">
      <path clip-path="url(#pf74c1e3d59)" d="M 307.802785 230.64 
L 307.802785 13.2 
" style="fill:none;stroke:#b0b0b0;stroke-linecap:square;stroke-width:0.8;"/>
     </g>
     <g id="line2d_18">
      <g>
       <use x="307.802785" xlink:href="#mb1fd27f771" y="230.64"/>
      </g>
     </g>
     <g id="text_9">
      <!-- 8 -->
      <defs>
       <path d="M 31.78125 34.625 
Q 24.75 34.625 20.71875 30.859375 
Q 16.703125 27.09375 16.703125 20.515625 
Q 16.703125 13.921875 20.71875 10.15625 
Q 24.75 6.390625 31.78125 6.390625 
Q 38.8125 6.390625 42.859375 10.171875 
Q 46.921875 13.96875 46.921875 20.515625 
Q 46.921875 27.09375 42.890625 30.859375 
Q 38.875 34.625 31.78125 34.625 
z
M 21.921875 38.8125 
Q 15.578125 40.375 12.03125 44.71875 
Q 8.5 49.078125 8.5 55.328125 
Q 8.5 64.0625 14.71875 69.140625 
Q 20.953125 74.21875 31.78125 74.21875 
Q 42.671875 74.21875 48.875 69.140625 
Q 55.078125 64.0625 55.078125 55.328125 
Q 55.078125 49.078125 51.53125 44.71875 
Q 48 40.375 41.703125 38.8125 
Q 48.828125 37.15625 52.796875 32.3125 
Q 56.78125 27.484375 56.78125 20.515625 
Q 56.78125 9.90625 50.3125 4.234375 
Q 43.84375 -1.421875 31.78125 -1.421875 
Q 19.734375 -1.421875 13.25 4.234375 
Q 6.78125 9.90625 6.78125 20.515625 
Q 6.78125 27.484375 10.78125 32.3125 
Q 14.796875 37.15625 21.921875 38.8125 
z
M 18.3125 54.390625 
Q 18.3125 48.734375 21.84375 45.5625 
Q 25.390625 42.390625 31.78125 42.390625 
Q 38.140625 42.390625 41.71875 45.5625 
Q 45.3125 48.734375 45.3125 54.390625 
Q 45.3125 60.0625 41.71875 63.234375 
Q 38.140625 66.40625 31.78125 66.40625 
Q 25.390625 66.40625 21.84375 63.234375 
Q 18.3125 60.0625 18.3125 54.390625 
z
" id="DejaVuSans-38"/>
      </defs>
      <g transform="translate(303.03091 251.537656)scale(0.15 -0.15)">
       <use xlink:href="#DejaVuSans-38"/>
      </g>
     </g>
    </g>
    <g id="xtick_10">
     <g id="line2d_19">
      <path clip-path="url(#pf74c1e3d59)" d="M 336.915829 230.64 
L 336.915829 13.2 
" style="fill:none;stroke:#b0b0b0;stroke-linecap:square;stroke-width:0.8;"/>
     </g>
     <g id="line2d_20">
      <g>
       <use x="336.915829" xlink:href="#mb1fd27f771" y="230.64"/>
      </g>
     </g>
     <g id="text_10">
      <!-- 9 -->
      <defs>
       <path d="M 10.984375 1.515625 
L 10.984375 10.5 
Q 14.703125 8.734375 18.5 7.8125 
Q 22.3125 6.890625 25.984375 6.890625 
Q 35.75 6.890625 40.890625 13.453125 
Q 46.046875 20.015625 46.78125 33.40625 
Q 43.953125 29.203125 39.59375 26.953125 
Q 35.25 24.703125 29.984375 24.703125 
Q 19.046875 24.703125 12.671875 31.3125 
Q 6.296875 37.9375 6.296875 49.421875 
Q 6.296875 60.640625 12.9375 67.421875 
Q 19.578125 74.21875 30.609375 74.21875 
Q 43.265625 74.21875 49.921875 64.515625 
Q 56.59375 54.828125 56.59375 36.375 
Q 56.59375 19.140625 48.40625 8.859375 
Q 40.234375 -1.421875 26.421875 -1.421875 
Q 22.703125 -1.421875 18.890625 -0.6875 
Q 15.09375 0.046875 10.984375 1.515625 
z
M 30.609375 32.421875 
Q 37.25 32.421875 41.125 36.953125 
Q 45.015625 41.5 45.015625 49.421875 
Q 45.015625 57.28125 41.125 61.84375 
Q 37.25 66.40625 30.609375 66.40625 
Q 23.96875 66.40625 20.09375 61.84375 
Q 16.21875 57.28125 16.21875 49.421875 
Q 16.21875 41.5 20.09375 36.953125 
Q 23.96875 32.421875 30.609375 32.421875 
z
" id="DejaVuSans-39"/>
      </defs>
      <g transform="translate(332.143954 251.537656)scale(0.15 -0.15)">
       <use xlink:href="#DejaVuSans-39"/>
      </g>
     </g>
    </g>
    <g id="xtick_11">
     <g id="line2d_21">
      <path clip-path="url(#pf74c1e3d59)" d="M 366.028872 230.64 
L 366.028872 13.2 
" style="fill:none;stroke:#b0b0b0;stroke-linecap:square;stroke-width:0.8;"/>
     </g>
     <g id="line2d_22">
      <g>
       <use x="366.028872" xlink:href="#mb1fd27f771" y="230.64"/>
      </g>
     </g>
     <g id="text_11">
      <!-- 10 -->
      <g transform="translate(356.485122 251.537656)scale(0.15 -0.15)">
       <use xlink:href="#DejaVuSans-31"/>
       <use x="63.623047" xlink:href="#DejaVuSans-30"/>
      </g>
     </g>
    </g>
    <g id="text_12">
     <!-- $t/\tau$ -->
     <defs>
      <path d="M 42.28125 54.6875 
L 40.921875 47.703125 
L 23 47.703125 
L 17.1875 18.015625 
Q 16.890625 16.359375 16.75 15.234375 
Q 16.609375 14.109375 16.609375 13.484375 
Q 16.609375 10.359375 18.484375 8.9375 
Q 20.359375 7.515625 24.515625 7.515625 
L 33.59375 7.515625 
L 32.078125 0 
L 23.484375 0 
Q 15.484375 0 11.546875 3.125 
Q 7.625 6.25 7.625 12.59375 
Q 7.625 13.71875 7.765625 15.0625 
Q 7.90625 16.40625 8.203125 18.015625 
L 14.015625 47.703125 
L 6.390625 47.703125 
L 7.8125 54.6875 
L 15.28125 54.6875 
L 18.3125 70.21875 
L 27.296875 70.21875 
L 24.3125 54.6875 
z
" id="DejaVuSans-Oblique-74"/>
      <path d="M 25.390625 72.90625 
L 33.6875 72.90625 
L 8.296875 -9.28125 
L 0 -9.28125 
z
" id="DejaVuSans-2f"/>
      <path d="M 32.859375 9.96875 
Q 34.1875 7.625 39.453125 7.625 
L 43.75 7.625 
L 42.28125 0 
L 36.921875 0 
Q 28.125 0 25 4.6875 
Q 21.921875 9.46875 23.96875 19.828125 
L 29 45.703125 
L 8.453125 45.703125 
L 10.203125 54.6875 
L 60.640625 54.6875 
L 58.890625 45.703125 
L 38.1875 45.703125 
L 33.015625 19.28125 
Q 31.640625 12.203125 32.859375 9.96875 
z
" id="DejaVuSans-Oblique-3c4"/>
     </defs>
     <g transform="translate(207.063655 273.854062)scale(0.2 -0.2)">
      <use transform="translate(0 0.09375)" xlink:href="#DejaVuSans-Oblique-74"/>
      <use transform="translate(39.208984 0.09375)" xlink:href="#DejaVuSans-2f"/>
      <use transform="translate(72.900391 0.09375)" xlink:href="#DejaVuSans-Oblique-3c4"/>
     </g>
    </g>
   </g>
   <g id="matplotlib.axis_2">
    <g id="ytick_1">
     <g id="line2d_23">
      <path clip-path="url(#pf74c1e3d59)" d="M 74.898438 230.64 
L 366.028872 230.64 
" style="fill:none;stroke:#b0b0b0;stroke-linecap:square;stroke-width:0.8;"/>
     </g>
     <g id="line2d_24">
      <defs>
       <path d="M 0 0 
L -6 0 
" id="m84b0ce9732"/>
      </defs>
      <g>
       <use x="74.898438" xlink:href="#m84b0ce9732" y="230.64"/>
      </g>
     </g>
     <g id="text_13">
      <!-- 0.0 -->
      <defs>
       <path d="M 10.6875 12.40625 
L 21 12.40625 
L 21 0 
L 10.6875 0 
z
" id="DejaVuSans-2e"/>
      </defs>
      <g transform="translate(41.54375 236.338828)scale(0.15 -0.15)">
       <use xlink:href="#DejaVuSans-30"/>
       <use x="63.623047" xlink:href="#DejaVuSans-2e"/>
       <use x="95.410156" xlink:href="#DejaVuSans-30"/>
      </g>
     </g>
    </g>
    <g id="ytick_2">
     <g id="line2d_25">
      <path clip-path="url(#pf74c1e3d59)" d="M 74.898438 195.166436 
L 366.028872 195.166436 
" style="fill:none;stroke:#b0b0b0;stroke-linecap:square;stroke-width:0.8;"/>
     </g>
     <g id="line2d_26">
      <g>
       <use x="74.898438" xlink:href="#m84b0ce9732" y="195.166436"/>
      </g>
     </g>
     <g id="text_14">
      <!-- 2.5 -->
      <g transform="translate(41.54375 200.865264)scale(0.15 -0.15)">
       <use xlink:href="#DejaVuSans-32"/>
       <use x="63.623047" xlink:href="#DejaVuSans-2e"/>
       <use x="95.410156" xlink:href="#DejaVuSans-35"/>
      </g>
     </g>
    </g>
    <g id="ytick_3">
     <g id="line2d_27">
      <path clip-path="url(#pf74c1e3d59)" d="M 74.898438 159.692872 
L 366.028872 159.692872 
" style="fill:none;stroke:#b0b0b0;stroke-linecap:square;stroke-width:0.8;"/>
     </g>
     <g id="line2d_28">
      <g>
       <use x="74.898438" xlink:href="#m84b0ce9732" y="159.692872"/>
      </g>
     </g>
     <g id="text_15">
      <!-- 5.0 -->
      <g transform="translate(41.54375 165.3917)scale(0.15 -0.15)">
       <use xlink:href="#DejaVuSans-35"/>
       <use x="63.623047" xlink:href="#DejaVuSans-2e"/>
       <use x="95.410156" xlink:href="#DejaVuSans-30"/>
      </g>
     </g>
    </g>
    <g id="ytick_4">
     <g id="line2d_29">
      <path clip-path="url(#pf74c1e3d59)" d="M 74.898438 124.219308 
L 366.028872 124.219308 
" style="fill:none;stroke:#b0b0b0;stroke-linecap:square;stroke-width:0.8;"/>
     </g>
     <g id="line2d_30">
      <g>
       <use x="74.898438" xlink:href="#m84b0ce9732" y="124.219308"/>
      </g>
     </g>
     <g id="text_16">
      <!-- 7.5 -->
      <g transform="translate(41.54375 129.918136)scale(0.15 -0.15)">
       <use xlink:href="#DejaVuSans-37"/>
       <use x="63.623047" xlink:href="#DejaVuSans-2e"/>
       <use x="95.410156" xlink:href="#DejaVuSans-35"/>
      </g>
     </g>
    </g>
    <g id="ytick_5">
     <g id="line2d_31">
      <path clip-path="url(#pf74c1e3d59)" d="M 74.898438 88.745744 
L 366.028872 88.745744 
" style="fill:none;stroke:#b0b0b0;stroke-linecap:square;stroke-width:0.8;"/>
     </g>
     <g id="line2d_32">
      <g>
       <use x="74.898438" xlink:href="#m84b0ce9732" y="88.745744"/>
      </g>
     </g>
     <g id="text_17">
      <!-- 10.0 -->
      <g transform="translate(32 94.444572)scale(0.15 -0.15)">
       <use xlink:href="#DejaVuSans-31"/>
       <use x="63.623047" xlink:href="#DejaVuSans-30"/>
       <use x="127.246094" xlink:href="#DejaVuSans-2e"/>
       <use x="159.033203" xlink:href="#DejaVuSans-30"/>
      </g>
     </g>
    </g>
    <g id="ytick_6">
     <g id="line2d_33">
      <path clip-path="url(#pf74c1e3d59)" d="M 74.898438 53.272179 
L 366.028872 53.272179 
" style="fill:none;stroke:#b0b0b0;stroke-linecap:square;stroke-width:0.8;"/>
     </g>
     <g id="line2d_34">
      <g>
       <use x="74.898438" xlink:href="#m84b0ce9732" y="53.272179"/>
      </g>
     </g>
     <g id="text_18">
      <!-- 12.5 -->
      <g transform="translate(32 58.971008)scale(0.15 -0.15)">
       <use xlink:href="#DejaVuSans-31"/>
       <use x="63.623047" xlink:href="#DejaVuSans-32"/>
       <use x="127.246094" xlink:href="#DejaVuSans-2e"/>
       <use x="159.033203" xlink:href="#DejaVuSans-35"/>
      </g>
     </g>
    </g>
    <g id="ytick_7">
     <g id="line2d_35">
      <path clip-path="url(#pf74c1e3d59)" d="M 74.898438 17.798615 
L 366.028872 17.798615 
" style="fill:none;stroke:#b0b0b0;stroke-linecap:square;stroke-width:0.8;"/>
     </g>
     <g id="line2d_36">
      <g>
       <use x="74.898438" xlink:href="#m84b0ce9732" y="17.798615"/>
      </g>
     </g>
     <g id="text_19">
      <!-- 15.0 -->
      <g transform="translate(32 23.497443)scale(0.15 -0.15)">
       <use xlink:href="#DejaVuSans-31"/>
       <use x="63.623047" xlink:href="#DejaVuSans-35"/>
       <use x="127.246094" xlink:href="#DejaVuSans-2e"/>
       <use x="159.033203" xlink:href="#DejaVuSans-30"/>
      </g>
     </g>
    </g>
    <g id="text_20">
     <!-- RNA ($fl^{-1}$) -->
     <defs>
      <path d="M 44.390625 34.1875 
Q 47.5625 33.109375 50.5625 29.59375 
Q 53.5625 26.078125 56.59375 19.921875 
L 66.609375 0 
L 56 0 
L 46.6875 18.703125 
Q 43.0625 26.03125 39.671875 28.421875 
Q 36.28125 30.8125 30.421875 30.8125 
L 19.671875 30.8125 
L 19.671875 0 
L 9.8125 0 
L 9.8125 72.90625 
L 32.078125 72.90625 
Q 44.578125 72.90625 50.734375 67.671875 
Q 56.890625 62.453125 56.890625 51.90625 
Q 56.890625 45.015625 53.6875 40.46875 
Q 50.484375 35.9375 44.390625 34.1875 
z
M 19.671875 64.796875 
L 19.671875 38.921875 
L 32.078125 38.921875 
Q 39.203125 38.921875 42.84375 42.21875 
Q 46.484375 45.515625 46.484375 51.90625 
Q 46.484375 58.296875 42.84375 61.546875 
Q 39.203125 64.796875 32.078125 64.796875 
z
" id="DejaVuSans-52"/>
      <path d="M 9.8125 72.90625 
L 23.09375 72.90625 
L 55.421875 11.921875 
L 55.421875 72.90625 
L 64.984375 72.90625 
L 64.984375 0 
L 51.703125 0 
L 19.390625 60.984375 
L 19.390625 0 
L 9.8125 0 
z
" id="DejaVuSans-4e"/>
      <path d="M 34.1875 63.1875 
L 20.796875 26.90625 
L 47.609375 26.90625 
z
M 28.609375 72.90625 
L 39.796875 72.90625 
L 67.578125 0 
L 57.328125 0 
L 50.6875 18.703125 
L 17.828125 18.703125 
L 11.1875 0 
L 0.78125 0 
z
" id="DejaVuSans-41"/>
      <path id="DejaVuSans-20"/>
      <path d="M 31 75.875 
Q 24.46875 64.65625 21.28125 53.65625 
Q 18.109375 42.671875 18.109375 31.390625 
Q 18.109375 20.125 21.3125 9.0625 
Q 24.515625 -2 31 -13.1875 
L 23.1875 -13.1875 
Q 15.875 -1.703125 12.234375 9.375 
Q 8.59375 20.453125 8.59375 31.390625 
Q 8.59375 42.28125 12.203125 53.3125 
Q 15.828125 64.359375 23.1875 75.875 
z
" id="DejaVuSans-28"/>
      <path d="M 47.796875 75.984375 
L 46.390625 68.5 
L 37.796875 68.5 
Q 32.90625 68.5 30.6875 66.578125 
Q 28.46875 64.65625 27.390625 59.515625 
L 26.421875 54.6875 
L 41.21875 54.6875 
L 39.890625 47.703125 
L 25.09375 47.703125 
L 15.828125 0 
L 6.78125 0 
L 16.109375 47.703125 
L 7.515625 47.703125 
L 8.796875 54.6875 
L 17.390625 54.6875 
L 18.109375 58.5 
Q 19.96875 68.171875 24.625 72.078125 
Q 29.296875 75.984375 39.3125 75.984375 
z
" id="DejaVuSans-Oblique-66"/>
      <path d="M 18.3125 75.984375 
L 27.296875 75.984375 
L 12.5 0 
L 3.515625 0 
z
" id="DejaVuSans-Oblique-6c"/>
      <path d="M 10.59375 35.5 
L 73.1875 35.5 
L 73.1875 27.203125 
L 10.59375 27.203125 
z
" id="DejaVuSans-2212"/>
      <path d="M 8.015625 75.875 
L 15.828125 75.875 
Q 23.140625 64.359375 26.78125 53.3125 
Q 30.421875 42.28125 30.421875 31.390625 
Q 30.421875 20.453125 26.78125 9.375 
Q 23.140625 -1.703125 15.828125 -13.1875 
L 8.015625 -13.1875 
Q 14.5 -2 17.703125 9.0625 
Q 20.90625 20.125 20.90625 31.390625 
Q 20.90625 42.671875 17.703125 53.65625 
Q 14.5 64.65625 8.015625 75.875 
z
" id="DejaVuSans-29"/>
     </defs>
     <g transform="translate(23.840625 171.82)rotate(-90)scale(0.2 -0.2)">
      <use transform="translate(0 0.684375)" xlink:href="#DejaVuSans-52"/>
      <use transform="translate(69.482422 0.684375)" xlink:href="#DejaVuSans-4e"/>
      <use transform="translate(144.287109 0.684375)" xlink:href="#DejaVuSans-41"/>
      <use transform="translate(212.695312 0.684375)" xlink:href="#DejaVuSans-20"/>
      <use transform="translate(244.482422 0.684375)" xlink:href="#DejaVuSans-28"/>
      <use transform="translate(283.496094 0.684375)" xlink:href="#DejaVuSans-Oblique-66"/>
      <use transform="translate(318.701172 0.684375)" xlink:href="#DejaVuSans-Oblique-6c"/>
      <use transform="translate(353.932083 38.965625)scale(0.7)" xlink:href="#DejaVuSans-2212"/>
      <use transform="translate(412.584427 38.965625)scale(0.7)" xlink:href="#DejaVuSans-31"/>
      <use transform="translate(459.854935 0.684375)" xlink:href="#DejaVuSans-29"/>
     </g>
    </g>
   </g>
   <g id="line2d_37">
    <path clip-path="url(#pf74c1e3d59)" d="M 75.071105 146.37298 
L 78.147135 112.505821 
L 81.457618 109.025969 
L 84.873383 95.809052 
L 87.955814 106.191163 
L 91.363474 124.891248 
L 94.406084 114.629475 
L 97.84413 139.775117 
L 100.962268 93.156878 
L 104.127292 89.281917 
L 107.569486 112.452435 
L 110.566914 121.257428 
L 113.972235 118.450787 
L 116.990283 147.379094 
L 120.221174 105.784095 
L 123.437035 105.509169 
L 126.769107 73.811434 
L 129.985293 92.935446 
L 133.183455 110.869191 
L 136.465839 119.139571 
L 139.863016 85.131814 
L 142.884032 73.39108 
L 146.330116 105.903217 
L 149.605906 105.352959 
L 153.101862 25.071795 
L 155.778038 7.244321 
L 159.205872 55.004781 
L 162.513925 74.88806 
L 165.755313 21.23817 
L 168.722321 72.725336 
L 172.067304 140.596703 
L 175.627589 137.159433 
L 178.563205 153.791202 
L 181.735424 87.784923 
L 184.886951 107.104009 
L 188.126769 46.78294 
L 191.357993 60.537806 
L 194.631041 73.296196 
L 197.933905 72.718399 
L 201.460033 95.833409 
L 204.812745 95.128069 
L 207.57907 105.355883 
L 210.822534 96.986786 
L 213.996123 48.901299 
L 217.28959 16.092227 
L 220.530271 34.426256 
L 223.795044 126.794287 
L 227.134891 169.86416 
L 230.311804 151.903882 
L 233.433221 148.583687 
L 236.650315 143.824867 
L 240.061783 123.437729 
L 243.16838 131.684174 
L 246.400277 125.135312 
L 249.684548 75.439192 
L 252.820012 126.008105 
L 256.222115 72.539194 
L 259.585692 50.692251 
L 262.522498 95.108927 
L 265.826908 28.163521 
L 269.014329 25.545699 
L 272.443883 24.537735 
L 275.534783 62.861688 
L 278.700192 46.199756 
L 281.935482 60.157991 
L 285.196537 60.768991 
L 288.469535 61.805032 
L 291.685642 74.744538 
L 295.376744 37.630899 
L 298.17896 60.845843 
L 301.783255 82.897424 
L 304.770844 108.305035 
L 308.05649 131.432562 
L 311.045529 59.974771 
L 314.282517 37.9345 
L 317.901477 28.022677 
L 320.964165 32.871708 
L 324.15805 27.91315 
L 327.446986 62.86395 
L 330.805053 107.138467 
L 334.058947 85.322726 
L 337.381087 82.148232 
L 340.674267 112.555448 
L 343.677712 97.227309 
L 347.750363 119.176611 
L 349.920567 95.362607 
L 353.726513 115.133803 
L 356.421944 114.539054 
L 359.753851 98.472706 
L 363.009701 85.190014 
" style="fill:none;stroke:#ff7b7b;stroke-linecap:square;stroke-width:1.5;"/>
   </g>
   <g id="line2d_38">
    <path clip-path="url(#pf74c1e3d59)" d="M 75.071105 174.037704 
L 78.147135 140.201315 
L 81.457618 133.382716 
L 84.873383 50.653131 
L 87.604068 -1 
M 92.957617 -1 
L 94.406084 16.60003 
L 97.84413 15.945128 
L 100.962268 69.94859 
L 104.127292 88.810501 
L 107.569486 86.544502 
L 110.566914 61.489205 
L 113.972235 106.893817 
L 116.990283 116.485746 
L 120.221174 134.289695 
L 123.437035 96.996427 
L 126.769107 56.950909 
L 129.985293 46.755194 
L 133.183455 74.714989 
L 136.465839 79.626781 
L 139.863016 60.907425 
L 142.884032 96.379586 
L 146.330116 95.254454 
L 149.605906 115.21287 
L 153.101862 105.739521 
L 155.778038 147.941221 
L 159.205872 116.165499 
L 162.513925 131.638278 
L 165.755313 126.321165 
L 168.722321 121.324194 
L 172.067304 129.38491 
L 175.627589 147.962875 
L 178.563205 76.355969 
L 181.735424 114.772272 
L 184.886951 123.550783 
L 188.126769 92.820153 
L 191.357993 74.558453 
L 194.631041 99.81897 
L 197.933905 72.514741 
L 201.460033 106.969815 
L 204.812745 64.310713 
L 207.57907 115.146409 
L 210.822534 124.270411 
L 213.996123 65.988014 
L 217.28959 63.809013 
L 220.530271 131.390826 
L 223.795044 100.571326 
L 227.134891 133.545711 
L 230.311804 96.139154 
L 233.433221 95.277463 
L 236.650315 76.303108 
L 240.061783 114.546084 
L 243.16838 90.843441 
L 246.400277 139.743665 
L 249.684548 118.651194 
L 252.820012 86.426789 
L 256.222115 145.56847 
L 259.585692 107.466375 
L 262.522498 95.246907 
L 265.826908 76.235777 
L 269.014329 69.891031 
L 272.443883 98.251444 
L 275.534783 46.789841 
L 278.700192 17.976938 
L 281.935482 99.382201 
L 285.196537 24.40311 
L 288.469535 51.063949 
L 291.685642 33.569408 
L 295.376744 105.202427 
L 298.17896 124.072256 
L 301.783255 98.350764 
L 304.770844 32.214774 
L 308.05649 32.039448 
L 311.045529 47.089462 
L 314.282517 48.740088 
L 317.901477 28.134202 
L 320.964165 64.656626 
L 324.15805 77.120206 
L 327.446986 36.146756 
L 330.805053 32.389993 
L 334.058947 47.589474 
L 337.381087 46.419954 
L 340.674267 60.162272 
L 343.677712 60.607596 
L 347.750363 74.461692 
L 349.920567 53.549134 
L 353.726513 76.774211 
L 356.421944 141.286146 
L 359.753851 114.81863 
L 363.009701 116.964442 
" style="fill:none;stroke:#ff7b7b;stroke-linecap:square;stroke-width:1.5;"/>
   </g>
   <g id="line2d_39">
    <path clip-path="url(#pf74c1e3d59)" d="M 75.071105 145.540564 
L 78.147135 86.257077 
L 81.457618 60.425404 
L 84.873383 62.030349 
L 87.955814 65.016604 
L 91.363474 28.29809 
L 94.406084 78.706292 
L 97.84413 82.039809 
L 100.962268 108.485346 
L 104.127292 89.927402 
L 107.569486 126.441891 
L 110.566914 121.851769 
L 113.972235 129.593126 
L 116.990283 95.382624 
L 120.221174 47.396535 
L 123.437035 78.984136 
L 126.769107 106.961009 
L 129.985293 108.191608 
L 133.183455 103.54525 
L 136.465839 60.210745 
L 139.863016 61.48679 
L 142.884032 73.436857 
L 146.330116 84.778112 
L 149.605906 66.896752 
L 153.101862 88.144426 
L 155.778038 90.190402 
L 159.205872 100.436773 
L 162.513925 82.17594 
L 165.755313 53.386804 
L 168.722321 73.011765 
L 172.067304 51.345767 
L 175.627589 63.859545 
L 178.563205 114.886871 
L 181.735424 97.055048 
L 184.886951 81.818484 
L 188.126769 93.210155 
L 191.357993 132.226981 
L 194.631041 151.883842 
L 197.933905 121.732797 
L 201.460033 85.063046 
L 204.812745 85.035115 
L 207.57907 57.385867 
L 210.822534 114.555053 
L 213.996123 140.441708 
L 217.28959 131.171479 
L 220.530271 96.329059 
L 223.795044 79.701555 
L 227.134891 85.025385 
L 230.311804 51.363188 
L 233.433221 75.105145 
L 236.650315 95.851474 
L 240.061783 105.6674 
L 243.16838 115.048079 
L 246.400277 108.122079 
L 249.684548 110.058934 
L 252.820012 132.196053 
L 256.222115 115.091353 
L 259.585692 119.360363 
L 262.522498 105.786631 
L 265.826908 106.156778 
L 269.014329 105.703931 
L 272.443883 56.89453 
L 275.534783 55.230926 
L 278.700192 82.256542 
L 281.935482 53.454859 
L 285.196537 66.620416 
L 288.469535 84.275121 
L 291.685642 105.708549 
L 295.376744 115.099154 
L 298.17896 123.871088 
L 301.783255 131.469212 
L 304.770844 115.772244 
L 308.05649 60.424784 
L 311.045529 59.911237 
L 314.282517 61.975852 
L 317.901477 62.557615 
L 320.964165 95.441128 
L 324.15805 124.554582 
L 327.446986 132.358504 
L 330.805053 98.538058 
L 334.058947 100.639733 
L 337.381087 174.193165 
L 340.674267 139.274418 
L 343.677712 85.762898 
L 347.750363 73.006318 
L 349.920567 84.751323 
L 353.726513 134.370965 
L 356.421944 141.861091 
L 359.753851 148.067075 
L 363.009701 47.525064 
" style="fill:none;stroke:#ff7b7b;stroke-linecap:square;stroke-width:1.5;"/>
   </g>
   <g id="line2d_40">
    <path clip-path="url(#pf74c1e3d59)" d="M 75.071105 173.915073 
L 78.147135 138.747761 
L 81.457618 145.702267 
L 84.873383 152.585674 
L 87.955814 127.376611 
L 91.363474 114.804533 
L 94.406084 106.148812 
L 97.84413 114.810084 
L 100.962268 85.142666 
L 104.127292 96.944799 
L 107.569486 92.9734 
L 110.566914 115.225724 
L 113.972235 84.499786 
L 116.990283 111.035512 
L 120.221174 117.135782 
L 123.437035 78.899042 
L 126.769107 90.373522 
L 129.985293 93.147415 
L 133.183455 102.949655 
L 136.465839 106.169893 
L 139.863016 90.868027 
L 142.884032 17.201651 
L 146.330116 43.044327 
L 149.605906 105.366363 
L 153.101862 132.396272 
L 155.778038 82.082982 
L 159.205872 85.890231 
L 162.513925 117.324464 
L 165.755313 158.413081 
L 168.722321 127.681866 
L 172.067304 152.022921 
L 175.627589 137.183091 
L 178.563205 143.918543 
L 181.735424 105.764103 
L 184.886951 90.07177 
L 188.126769 85.108645 
L 191.357993 74.831665 
L 194.631041 66.702299 
L 197.933905 158.135046 
L 201.460033 129.374217 
L 204.812745 105.88836 
L 207.57907 96.519844 
L 210.822534 61.501147 
L 213.996123 99.090548 
L 217.28959 123.629946 
L 220.530271 131.72472 
L 223.795044 125.910034 
L 227.134891 97.130406 
L 230.311804 96.153004 
L 233.433221 105.607647 
L 236.650315 105.920051 
L 240.061783 123.379736 
L 243.16838 164.454967 
L 246.400277 47.085982 
L 249.684548 104.74752 
L 252.820012 139.166365 
L 256.222115 121.881515 
L 259.585692 118.439758 
L 262.522498 53.458131 
L 265.826908 67.296424 
L 269.014329 43.568684 
L 272.443883 98.317528 
L 275.534783 85.133841 
L 278.700192 95.868521 
L 281.935482 79.636781 
L 285.196537 84.917728 
L 288.469535 84.554602 
L 291.685642 116.044098 
L 295.376744 95.654775 
L 298.17896 87.646107 
L 301.783255 65.419054 
L 304.770844 77.872212 
L 308.05649 89.536548 
L 311.045529 112.536773 
L 314.282517 121.376206 
L 317.901477 119.815977 
L 320.964165 74.839736 
L 324.15805 47.869816 
L 327.446986 69.76591 
L 330.805053 66.844637 
L 334.058947 39.092089 
L 337.381087 18.203533 
L 340.674267 46.739355 
L 343.677712 121.298553 
L 347.750363 84.326646 
L 349.920567 117.247572 
L 353.726513 95.535055 
L 356.421944 150.311718 
L 359.753851 114.80832 
L 363.009701 146.612595 
" style="fill:none;stroke:#ff7b7b;stroke-linecap:square;stroke-width:1.5;"/>
   </g>
   <g id="line2d_41">
    <path clip-path="url(#pf74c1e3d59)" d="M 75.071105 160.438706 
L 78.147135 125.993538 
L 81.457618 97.051066 
L 84.873383 72.988069 
L 87.955814 84.775374 
L 91.363474 95.607675 
L 94.406084 96.666734 
L 97.84413 81.73595 
L 100.962268 41.329514 
L 104.127292 60.381295 
L 107.569486 59.986751 
L 110.566914 61.170441 
L 113.972235 84.358692 
L 116.990283 95.085471 
L 120.221174 105.902493 
L 123.437035 81.402405 
L 126.769107 73.461176 
L 129.985293 109.050071 
L 133.183455 117.498751 
L 136.465839 86.336417 
L 139.863016 97.075842 
L 142.884032 73.136714 
L 146.330116 147.388594 
L 149.605906 124.495289 
L 153.101862 70.35531 
L 155.778038 57.320118 
L 159.205872 85.074917 
L 162.513925 18.982066 
L 165.755313 60.072945 
L 168.722321 96.909259 
L 172.067304 118.411669 
L 175.627589 95.126609 
L 178.563205 96.45706 
L 181.735424 87.963562 
L 184.886951 132.56185 
L 188.126769 169.551503 
L 191.357993 146.768787 
L 194.631041 112.797355 
L 197.933905 96.883253 
L 201.460033 73.084385 
L 204.812745 95.185059 
L 207.57907 95.709437 
L 210.822534 105.619875 
L 213.996123 32.242494 
L 217.28959 139.026424 
L 220.530271 104.48638 
L 223.795044 86.49743 
L 227.134891 109.480807 
L 230.311804 73.408533 
L 233.433221 63.859205 
L 236.650315 95.67555 
L 240.061783 141.716972 
L 243.16838 164.652046 
L 246.400277 92.957726 
L 249.684548 65.014396 
L 252.820012 99.690335 
L 256.222115 50.267127 
L 259.585692 107.481867 
L 262.522498 95.526378 
L 265.826908 134.32271 
L 269.014329 123.757605 
L 272.443883 83.210227 
L 275.534783 138.977436 
L 278.700192 188.401863 
L 281.935482 191.564707 
L 285.196537 157.79768 
L 288.469535 118.02866 
L 291.685642 106.424872 
L 295.376744 76.488451 
L 298.17896 69.995635 
L 301.783255 65.440435 
L 304.770844 62.862826 
L 308.05649 47.159553 
L 311.045529 59.945802 
L 314.282517 12.035522 
L 317.901477 95.578976 
L 320.964165 64.435086 
L 324.15805 18.870083 
L 327.446986 61.164723 
L 330.805053 33.118617 
L 334.058947 31.649292 
L 337.381087 103.827119 
L 340.674267 72.988477 
L 343.677712 96.934658 
L 347.750363 129.372768 
L 349.920567 106.046741 
L 353.726513 114.903536 
L 356.421944 141.254712 
L 359.753851 132.178609 
L 363.009701 47.163752 
" style="fill:none;stroke:#ff7b7b;stroke-linecap:square;stroke-width:1.5;"/>
   </g>
   <g id="line2d_42">
    <path clip-path="url(#pf74c1e3d59)" d="M 75.071105 159.87597 
L 78.147135 165.011003 
L 81.457618 121.235895 
L 84.873383 118.571873 
L 87.955814 116.089703 
L 91.363474 77.858086 
L 94.406084 62.568373 
L 97.84413 48.980856 
L 100.962268 69.856613 
L 104.127292 3.857414 
L 107.569486 46.747763 
L 110.566914 109.290837 
L 113.972235 107.570315 
L 116.990283 85.167937 
L 120.221174 37.971926 
L 123.379015 -1 
M 123.493536 -1 
L 126.769107 40.512459 
L 129.985293 54.9381 
L 133.183455 88.952907 
L 136.465839 112.530078 
L 139.863016 116.299852 
L 142.884032 106.796681 
L 146.330116 105.718574 
L 149.605906 105.445382 
L 153.101862 97.258565 
L 155.778038 73.800487 
L 159.205872 69.990856 
L 162.513925 81.76159 
L 165.755313 99.278314 
L 168.722321 97.596535 
L 172.067304 107.150758 
L 175.627589 84.772347 
L 178.563205 95.648595 
L 181.735424 115.942213 
L 184.886951 107.016981 
L 188.126769 70.729576 
L 191.357993 53.395192 
L 194.631041 27.201018 
L 196.432144 -1 
M 200.636796 -1 
L 201.460033 6.161824 
L 204.812745 44.053829 
L 207.57907 77.104417 
L 210.822534 89.176389 
L 213.996123 123.436004 
L 217.28959 115.763546 
L 220.530271 110.131144 
L 223.795044 93.757619 
L 227.134891 61.213555 
L 230.311804 50.84996 
L 233.433221 95.15878 
L 236.650315 67.248451 
L 240.061783 96.988068 
L 243.16838 65.277409 
L 246.400277 100.556286 
L 249.684548 145.878138 
L 252.820012 139.01116 
L 256.222115 133.358051 
L 259.585692 95.992373 
L 262.522498 43.926189 
L 265.826908 37.580666 
L 269.014329 34.093934 
L 272.443883 65.412963 
L 275.534783 100.653233 
L 278.700192 39.363355 
L 281.935482 40.557995 
L 285.196537 109.661344 
L 288.469535 74.082619 
L 291.685642 64.168453 
L 295.376744 37.726329 
L 298.17896 123.754943 
L 301.783255 131.669574 
L 304.770844 138.970294 
L 308.05649 132.284439 
L 311.045529 125.584055 
L 314.282517 133.558271 
L 317.901477 106.771604 
L 320.964165 105.60017 
L 324.15805 95.583181 
L 327.446986 34.276735 
L 330.805053 116.219857 
L 334.058947 50.000524 
L 337.381087 61.828437 
L 340.674267 73.130958 
L 343.677712 72.834508 
L 347.750363 50.835282 
L 349.920567 74.838785 
L 353.726513 86.234948 
L 356.421944 105.556506 
L 359.753851 65.205344 
L 363.009701 46.938562 
" style="fill:none;stroke:#ff7b7b;stroke-linecap:square;stroke-width:1.5;"/>
   </g>
   <g id="line2d_43">
    <path clip-path="url(#pf74c1e3d59)" d="M 75.071105 160.203148 
L 78.147135 112.744303 
L 81.457618 109.821135 
L 84.873383 73.182989 
L 87.955814 74.857229 
L 91.363474 66.627777 
L 94.406084 70.941183 
L 97.84413 90.041576 
L 100.962268 47.03764 
L 103.607657 -1 
M 108.339504 -1 
L 110.566914 48.725462 
L 113.972235 73.110897 
L 116.990283 85.302626 
L 120.221174 77.29263 
L 123.437035 88.294355 
L 126.769107 48.709791 
L 129.985293 69.978871 
L 133.183455 67.724948 
L 136.465839 99.845174 
L 139.863016 122.382899 
L 142.884032 129.995599 
L 146.330116 63.980177 
L 149.605906 105.542496 
L 153.101862 114.445378 
L 155.778038 131.660476 
L 159.205872 169.637779 
L 162.513925 160.146305 
L 165.755313 138.701163 
L 168.722321 48.886135 
L 172.067304 39.311018 
L 175.627589 96.496025 
L 178.563205 134.372267 
L 181.735424 123.728143 
L 184.886951 65.358533 
L 188.126769 62.970336 
L 191.357993 67.759549 
L 194.631041 113.690169 
L 197.933905 85.198078 
L 201.460033 51.587226 
L 204.812745 1.447256 
L 207.57907 66.578621 
L 210.822534 34.016134 
L 213.996123 56.991649 
L 217.28959 85.10024 
L 220.530271 96.086253 
L 223.795044 106.57053 
L 227.134891 54.767942 
L 230.311804 73.59473 
L 233.433221 48.468474 
L 236.650315 48.615017 
L 240.061783 53.461318 
L 243.16838 82.327742 
L 246.400277 115.954161 
L 249.684548 117.36199 
L 252.820012 138.892107 
L 256.222115 134.236164 
L 259.585692 106.846094 
L 262.522498 22.229447 
L 265.826908 8.985445 
L 269.014329 17.091547 
L 272.443883 32.913183 
L 275.534783 16.34879 
L 278.700192 88.97129 
L 281.935482 86.834541 
L 285.196537 146.179091 
L 288.469535 129.509206 
L 291.685642 106.59864 
L 295.376744 56.924584 
L 298.17896 25.445785 
L 301.783255 40.763971 
L 304.770844 47.129628 
L 308.05649 95.894501 
L 311.045529 79.941174 
L 314.282517 85.126949 
L 317.901477 107.028025 
L 320.964165 95.273318 
L 324.15805 114.952754 
L 327.446986 105.773839 
L 330.805053 131.536778 
L 334.058947 79.177479 
L 337.381087 102.945073 
L 340.674267 125.884134 
L 343.677712 109.327112 
L 347.750363 85.673577 
L 349.920567 74.458655 
L 353.726513 47.290951 
L 356.421944 7.298775 
L 359.753851 23.940104 
L 363.009701 39.325876 
" style="fill:none;stroke:#ff7b7b;stroke-linecap:square;stroke-width:1.5;"/>
   </g>
   <g id="line2d_44">
    <path clip-path="url(#pf74c1e3d59)" d="M 75.071105 161.645676 
L 78.147135 138.996896 
L 81.457618 109.729238 
L 84.873383 95.675166 
L 87.955814 116.894881 
L 91.363474 97.645182 
L 94.406084 96.937329 
L 97.84413 123.255578 
L 100.962268 131.131369 
L 104.127292 111.040294 
L 107.569486 145.495165 
L 110.566914 133.381172 
L 113.972235 141.410482 
L 116.990283 126.429919 
L 120.221174 144.039681 
L 123.437035 96.869803 
L 126.769107 65.420478 
L 129.985293 78.247691 
L 133.183455 145.544136 
L 136.465839 138.957545 
L 139.863016 157.943634 
L 142.884032 118.347258 
L 146.330116 137.051967 
L 149.605906 85.907674 
L 153.101862 69.813884 
L 155.778038 82.904285 
L 159.205872 85.536107 
L 162.513925 24.908362 
L 165.755313 61.953479 
L 168.722321 109.119161 
L 172.067304 73.473078 
L 175.627589 116.02408 
L 178.563205 114.843953 
L 181.735424 123.861141 
L 184.886951 123.439397 
L 188.126769 108.110339 
L 191.357993 74.933439 
L 194.631041 100.108918 
L 197.933905 134.059568 
L 201.460033 118.12658 
L 204.812745 95.615725 
L 207.57907 105.276936 
L 210.822534 96.92063 
L 213.996123 48.787222 
L 217.28959 62.881518 
L 220.530271 74.897776 
L 223.795044 73.193902 
L 227.134891 85.053351 
L 230.311804 73.834182 
L 233.433221 74.396112 
L 236.650315 66.692334 
L 240.061783 87.705397 
L 243.16838 90.309632 
L 246.400277 116.40049 
L 249.684548 110.769919 
L 252.820012 86.523447 
L 256.222115 133.80611 
L 259.585692 107.102819 
L 262.522498 116.280847 
L 265.826908 66.794922 
L 269.014329 53.039911 
L 272.443883 65.213279 
L 275.534783 47.439038 
L 278.700192 60.523337 
L 280.380531 -1 
M 285.474318 -1 
L 288.469535 106.770445 
L 291.685642 116.310435 
L 295.376744 105.134514 
L 298.17896 69.834914 
L 301.783255 115.721909 
L 304.770844 92.851099 
L 308.05649 118.561307 
L 311.045529 60.639093 
L 314.282517 61.026313 
L 317.901477 73.617251 
L 320.964165 55.137742 
L 324.15805 105.468464 
L 327.446986 87.694469 
L 330.805053 57.293715 
L 334.058947 47.403599 
L 337.381087 39.284838 
L 340.674267 60.039945 
L 343.677712 60.393227 
L 347.750363 27.959963 
L 349.920567 75.578967 
L 353.726513 27.938975 
L 356.421944 51.98334 
L 359.753851 81.675912 
L 363.009701 63.140125 
" style="fill:none;stroke:#ff7b7b;stroke-linecap:square;stroke-width:1.5;"/>
   </g>
   <g id="line2d_45">
    <path clip-path="url(#pf74c1e3d59)" d="M 75.071105 160.183109 
L 78.147135 152.516403 
L 81.457618 121.209609 
L 84.873383 119.66604 
L 87.955814 147.25633 
L 91.363474 38.470908 
L 94.406084 43.657619 
L 97.84413 82.008119 
L 100.962268 124.468382 
L 104.127292 124.614815 
L 107.569486 132.375975 
L 110.566914 91.136065 
L 113.972235 16.74125 
L 116.990283 32.976234 
L 120.221174 57.43078 
L 123.437035 106.25424 
L 126.769107 90.180839 
L 129.985293 93.071124 
L 133.183455 88.766649 
L 136.465839 73.178245 
L 139.863016 84.892796 
L 142.884032 73.03105 
L 146.330116 43.112853 
L 149.605906 19.834966 
L 153.101862 60.940318 
L 155.778038 65.169616 
L 159.205872 108.308367 
L 162.513925 74.657507 
L 165.755313 60.498492 
L 168.722321 90.874749 
L 172.067304 118.520498 
L 175.627589 105.608456 
L 178.563205 96.029015 
L 181.735424 35.037145 
L 184.886951 24.008432 
L 188.126769 85.327135 
L 191.357993 60.371829 
L 194.631041 87.169398 
L 197.933905 109.9477 
L 201.460033 118.28212 
L 204.812745 147.262623 
L 207.57907 66.756429 
L 210.822534 88.304238 
L 213.996123 82.04421 
L 217.28959 138.920466 
L 220.530271 53.496248 
L 223.795044 40.15137 
L 227.134891 72.591275 
L 230.311804 78.884984 
L 233.433221 53.725574 
L 236.650315 48.491625 
L 240.061783 105.722538 
L 243.16838 90.141209 
L 246.400277 108.538779 
L 249.684548 46.822148 
L 252.820012 47.763945 
L 256.222115 97.977334 
L 259.585692 106.949731 
L 262.522498 85.221166 
L 265.826908 95.560583 
L 269.014329 78.751709 
L 272.443883 81.773938 
L 275.534783 85.094555 
L 278.700192 33.57796 
L 281.935482 33.667056 
L 285.196537 12.741844 
L 288.469535 5.992165 
L 291.685642 32.703908 
L 295.376744 66.700849 
L 298.17896 70.444465 
L 301.783255 81.676288 
L 304.770844 131.439181 
L 308.05649 174.407978 
L 311.045529 125.882519 
L 314.282517 36.971595 
L 317.901477 107.407027 
L 320.964165 126.403055 
L 324.15805 87.236146 
L 327.446986 79.470044 
L 330.805053 115.605166 
L 334.058947 92.842052 
L 337.381087 46.553832 
L 340.674267 100.726762 
L 343.677712 84.79497 
L 347.750363 39.18698 
L 349.920567 84.767093 
L 353.726513 76.257353 
L 356.421944 52.080099 
L 359.753851 48.742413 
L 363.009701 62.081943 
" style="fill:none;stroke:#ff7b7b;stroke-linecap:square;stroke-width:1.5;"/>
   </g>
   <g id="line2d_46">
    <path clip-path="url(#pf74c1e3d59)" d="M 75.071105 145.711181 
L 78.147135 113.84605 
L 81.457618 133.741898 
L 84.873383 129.871035 
L 87.955814 95.961472 
L 91.363474 57.200943 
L 94.406084 25.18664 
L 97.84413 57.439314 
L 100.962268 31.731934 
L 104.127292 32.630537 
L 107.569486 86.269188 
L 110.566914 98.260246 
L 113.972235 95.898941 
L 116.990283 95.540672 
L 120.221174 124.623153 
L 123.437035 123.614493 
L 126.769107 139.933475 
L 129.985293 139.146187 
L 133.183455 132.171721 
L 136.465839 139.165422 
L 139.863016 97.924274 
L 142.884032 106.954232 
L 146.330116 74.610217 
L 149.605906 86.35047 
L 153.101862 78.793716 
L 155.778038 98.913561 
L 159.205872 77.416233 
L 162.513925 74.893718 
L 165.755313 86.328069 
L 168.722321 63.018877 
L 172.067304 95.587317 
L 175.627589 126.714488 
L 178.563205 105.27249 
L 181.735424 96.645097 
L 184.886951 98.469892 
L 188.126769 123.501063 
L 191.357993 173.899108 
L 194.631041 152.771474 
L 197.933905 133.988366 
L 201.460033 130.346598 
L 204.812745 64.123136 
L 207.57907 28.970796 
L 210.822534 34.322384 
L 213.996123 40.904625 
L 217.28959 77.761585 
L 220.530271 39.330659 
L 223.795044 34.356441 
L 227.134891 30.517924 
L 230.311804 73.23786 
L 233.433221 53.9787 
L 236.650315 57.15766 
L 240.061783 79.42109 
L 243.16838 65.354139 
L 246.400277 78.301524 
L 249.684548 61.960167 
L 252.820012 33.668813 
L 256.222115 11.727859 
L 259.585692 61.715637 
L 262.522498 54.154926 
L 265.826908 47.273837 
L 269.014329 78.792494 
L 272.443883 73.725578 
L 275.534783 62.774246 
L 278.700192 103.0825 
L 281.935482 112.710742 
L 285.196537 23.940808 
L 288.469535 28.622034 
L 291.685642 74.967816 
L 295.376744 68.232789 
L 298.17896 87.839675 
L 301.783255 89.949286 
L 304.387432 -1 
M 305.352038 -1 
L 308.05649 61.309413 
L 311.045529 60.228228 
L 314.282517 60.426705 
L 317.901477 118.362666 
L 320.964165 126.547149 
L 324.15805 144.390864 
L 327.446986 123.667404 
L 330.805053 65.231192 
L 334.058947 62.526777 
L 337.381087 74.719179 
L 340.674267 34.598091 
L 343.677712 72.55284 
L 347.750363 73.198763 
L 349.719614 -1 
M 351.573049 -1 
L 353.726513 8.86713 
L 356.421944 43.500173 
L 359.753851 73.562632 
L 363.009701 85.344446 
" style="fill:none;stroke:#ff7b7b;stroke-linecap:square;stroke-width:1.5;"/>
   </g>
   <g id="line2d_47">
    <path clip-path="url(#pf74c1e3d59)" d="M 75.071105 157.03561 
L 78.147135 130.466182 
L 81.457618 116.493943 
L 84.873383 106.726133 
L 87.955814 101.107321 
L 91.363474 97.206519 
L 94.406084 93.829049 
L 97.84413 91.082171 
L 100.962268 88.065178 
L 104.127292 88.574036 
L 107.569486 89.540198 
L 110.566914 89.030097 
L 113.972235 87.574625 
L 116.990283 89.162921 
L 120.221174 88.324492 
L 123.437035 88.121075 
L 126.769107 87.970626 
L 129.985293 88.798024 
L 133.183455 89.238678 
L 136.465839 89.330084 
L 139.863016 89.351623 
L 142.884032 88.244828 
L 146.330116 88.421821 
L 149.605906 88.637382 
L 153.101862 89.353845 
L 155.778038 89.326264 
L 159.205872 91.376353 
L 162.513925 90.756785 
L 165.755313 91.330325 
L 168.722321 90.331074 
L 172.067304 90.373888 
L 175.627589 89.608229 
L 178.563205 88.981171 
L 181.735424 88.979998 
L 184.886951 88.978524 
L 188.126769 89.371934 
L 191.357993 91.074465 
L 194.631041 90.694721 
L 197.933905 90.439637 
L 201.460033 89.57707 
L 204.812745 89.116012 
L 207.57907 89.238961 
L 210.822534 88.03606 
L 213.996123 87.067438 
L 217.28959 87.285615 
L 220.530271 85.68 
L 223.795044 86.14058 
L 227.134891 87.624015 
L 230.311804 86.997601 
L 233.433221 86.497814 
L 236.650315 87.799123 
L 240.061783 86.252287 
L 243.16838 86.891291 
L 246.400277 86.041135 
L 249.684548 87.497115 
L 252.820012 88.574262 
L 256.222115 90.3643 
L 259.585692 88.176649 
L 262.522498 87.525278 
L 265.826908 88.849012 
L 269.014329 86.828618 
L 272.443883 88.306015 
L 275.534783 87.762657 
L 278.700192 88.001904 
L 281.935482 86.963383 
L 285.196537 86.782334 
L 288.469535 87.947978 
L 291.685642 88.473574 
L 295.376744 88.93677 
L 298.17896 87.997196 
L 301.783255 90.21354 
L 304.770844 89.289885 
L 308.05649 91.265785 
L 311.045529 90.794944 
L 314.282517 89.778744 
L 317.901477 89.974503 
L 320.964165 90.311145 
L 324.15805 88.102647 
L 327.446986 87.778777 
L 330.805053 88.956859 
L 334.058947 87.679481 
L 337.381087 87.436319 
L 340.674267 87.40716 
L 343.677712 88.682611 
L 347.750363 90.051564 
L 349.920567 89.632422 
L 353.726513 88.52861 
L 356.421944 88.947751 
L 359.753851 88.963184 
L 363.009701 87.36804 
" style="fill:none;stroke:#bd0025;stroke-linecap:square;stroke-width:3;"/>
   </g>
   <g id="patch_3">
    <path d="M 74.898438 230.64 
L 74.898438 13.2 
" style="fill:none;stroke:#000000;stroke-linecap:square;stroke-linejoin:miter;stroke-width:2;"/>
   </g>
   <g id="patch_4">
    <path d="M 366.028872 230.64 
L 366.028872 13.2 
" style="fill:none;"/>
   </g>
   <g id="patch_5">
    <path d="M 74.898438 230.64 
L 366.028872 230.64 
" style="fill:none;stroke:#000000;stroke-linecap:square;stroke-linejoin:miter;stroke-width:2;"/>
   </g>
   <g id="patch_6">
    <path d="M 74.898438 13.2 
L 366.028872 13.2 
" style="fill:none;"/>
   </g>
  </g>
  <g id="axes_2">
   <g id="patch_7">
    <path d="M 453.368003 230.64 
L 744.498438 230.64 
L 744.498438 13.2 
L 453.368003 13.2 
z
" style="fill:#ffffff;"/>
   </g>
   <g id="PolyCollection_2">
    <defs>
     <path d="M 453.540671 -89.83471 
L 453.540671 -82.904035 
L 456.616701 -180.880886 
L 459.927183 -180.790362 
L 463.342949 -169.196792 
L 466.42538 -162.671439 
L 469.833039 -160.851438 
L 472.875649 -153.599428 
L 476.313695 -151.202133 
L 479.431833 -151.879364 
L 482.596857 -160.839065 
L 486.039052 -162.180261 
L 489.036479 -164.774449 
L 492.4418 -167.184226 
L 495.459848 -157.550012 
L 498.690739 -152.670659 
L 501.906601 -150.687011 
L 505.238672 -154.908129 
L 508.454859 -162.105167 
L 511.65302 -171.449974 
L 514.935405 -172.402786 
L 518.332582 -161.832844 
L 521.353597 -158.42276 
L 524.799682 -163.844704 
L 528.075471 -158.427703 
L 531.571427 -152.882358 
L 534.247604 -162.071005 
L 537.675438 -161.753235 
L 540.983491 -165.785732 
L 544.224878 -176.463319 
L 547.191886 -178.592866 
L 550.536869 -171.612734 
L 554.097154 -165.534629 
L 557.03277 -157.280558 
L 560.204989 -150.284924 
L 563.356516 -157.40375 
L 566.596334 -152.243408 
L 569.827558 -168.704358 
L 573.100607 -166.068132 
L 576.403471 -161.225579 
L 579.929598 -157.846413 
L 583.28231 -158.452031 
L 586.048635 -149.12161 
L 589.292099 -152.744375 
L 592.465688 -152.151819 
L 595.759156 -158.983211 
L 598.999836 -163.506495 
L 602.264609 -167.420777 
L 605.604456 -174.235513 
L 608.781369 -169.040494 
L 611.902786 -155.67277 
L 615.119881 -155.882485 
L 618.531348 -152.10566 
L 621.637946 -152.374521 
L 624.869842 -157.07973 
L 628.154114 -154.903273 
L 631.289577 -164.885178 
L 634.69168 -157.799668 
L 638.055257 -154.178481 
L 640.992063 -156.296507 
L 644.296473 -148.486432 
L 647.483894 -153.977001 
L 650.913448 -163.120977 
L 654.004349 -159.560193 
L 657.169757 -168.350488 
L 660.405048 -169.046432 
L 663.666102 -170.686844 
L 666.9391 -160.856883 
L 670.155208 -151.907994 
L 673.846309 -160.714783 
L 676.648525 -153.063221 
L 680.25282 -163.365482 
L 683.24041 -172.430078 
L 686.526055 -180.778007 
L 689.515094 -180.639492 
L 692.752082 -168.007319 
L 696.371042 -171.99865 
L 699.43373 -160.143438 
L 702.627615 -163.391422 
L 705.916552 -155.101941 
L 709.274618 -167.250913 
L 712.528512 -162.555771 
L 715.850652 -159.865215 
L 719.143832 -164.138957 
L 722.147277 -169.571574 
L 726.219928 -159.212316 
L 728.390132 -160.090227 
L 732.196078 -156.330838 
L 734.891509 -158.73371 
L 738.223417 -155.992212 
L 741.479266 -157.612419 
L 741.479266 -187.05741 
L 741.479266 -187.05741 
L 738.223417 -184.903083 
L 734.891509 -188.54938 
L 732.196078 -185.353195 
L 728.390132 -190.355464 
L 726.219928 -189.186462 
L 722.147277 -203.012894 
L 719.143832 -195.753252 
L 715.850652 -190.055795 
L 712.528512 -193.641252 
L 709.274618 -199.909438 
L 705.916552 -183.720079 
L 702.627615 -194.755821 
L 699.43373 -190.426334 
L 696.371042 -206.262359 
L 692.752082 -200.92061 
L 689.515094 -217.861288 
L 686.526055 -218.047602 
L 683.24041 -206.840366 
L 680.25282 -194.721216 
L 676.648525 -181.013035 
L 673.846309 -191.187418 
L 670.155208 -179.480368 
L 666.9391 -191.376741 
L 663.666102 -204.505594 
L 660.405048 -202.31031 
L 657.169757 -201.379484 
L 654.004349 -189.649624 
L 650.913448 -194.395059 
L 647.483894 -182.226016 
L 644.296473 -174.946315 
L 640.992063 -185.307556 
L 638.055257 -182.493544 
L 634.69168 -187.306501 
L 631.289577 -196.749295 
L 628.154114 -183.45616 
L 624.869842 -186.348918 
L 621.637946 -180.099211 
L 618.531348 -179.742551 
L 615.119881 -184.757247 
L 611.902786 -184.478542 
L 608.781369 -202.302365 
L 605.604456 -209.260481 
L 602.264609 -200.136482 
L 598.999836 -194.909339 
L 595.759156 -188.881477 
L 592.465688 -179.80378 
L 589.292099 -180.589923 
L 586.048635 -175.7874 
L 583.28231 -188.174503 
L 579.929598 -187.368688 
L 576.403471 -191.868027 
L 573.100607 -198.329027 
L 569.827558 -201.852746 
L 566.596334 -179.925276 
L 563.356516 -186.779851 
L 560.204989 -177.328559 
L 557.03277 -186.616002 
L 554.097154 -197.616467 
L 550.536869 -205.745428 
L 547.191886 -215.109803 
L 544.224878 -212.249607 
L 540.983491 -197.951824 
L 537.675438 -192.571284 
L 534.247604 -192.994895 
L 531.571427 -180.773019 
L 528.075471 -188.142128 
L 524.799682 -195.360588 
L 521.353597 -188.135551 
L 518.332582 -192.677403 
L 514.935405 -206.803798 
L 511.65302 -205.527441 
L 508.454859 -193.04044 
L 505.238672 -183.46261 
L 501.906601 -177.861462 
L 498.690739 -180.492111 
L 495.459848 -186.974396 
L 492.4418 -199.820308 
L 489.036479 -196.601473 
L 486.039052 -193.140556 
L 482.596857 -191.353002 
L 479.431833 -179.442396 
L 476.313695 -178.544339 
L 472.875649 -181.724744 
L 469.833039 -191.369487 
L 466.42538 -193.7955 
L 463.342949 -202.511457 
L 459.927183 -218.064221 
L 456.616701 -218.185989 
L 453.540671 -89.83471 
z
" id="m59431db691"/>
    </defs>
    <g clip-path="url(#p3109e1102c)">
     <use style="fill:#ff3333;" x="0" xlink:href="#m59431db691" y="285.213437"/>
    </g>
   </g>
   <g id="matplotlib.axis_3">
    <g id="xtick_12">
     <g id="line2d_48">
      <path clip-path="url(#p3109e1102c)" d="M 453.368003 230.64 
L 453.368003 13.2 
" style="fill:none;stroke:#b0b0b0;stroke-linecap:square;stroke-width:0.8;"/>
     </g>
     <g id="line2d_49">
      <g>
       <use x="453.368003" xlink:href="#mb1fd27f771" y="230.64"/>
      </g>
     </g>
     <g id="text_21">
      <!-- 0 -->
      <g transform="translate(448.596128 251.537656)scale(0.15 -0.15)">
       <use xlink:href="#DejaVuSans-30"/>
      </g>
     </g>
    </g>
    <g id="xtick_13">
     <g id="line2d_50">
      <path clip-path="url(#p3109e1102c)" d="M 482.481046 230.64 
L 482.481046 13.2 
" style="fill:none;stroke:#b0b0b0;stroke-linecap:square;stroke-width:0.8;"/>
     </g>
     <g id="line2d_51">
      <g>
       <use x="482.481046" xlink:href="#mb1fd27f771" y="230.64"/>
      </g>
     </g>
     <g id="text_22">
      <!-- 1 -->
      <g transform="translate(477.709171 251.537656)scale(0.15 -0.15)">
       <use xlink:href="#DejaVuSans-31"/>
      </g>
     </g>
    </g>
    <g id="xtick_14">
     <g id="line2d_52">
      <path clip-path="url(#p3109e1102c)" d="M 511.59409 230.64 
L 511.59409 13.2 
" style="fill:none;stroke:#b0b0b0;stroke-linecap:square;stroke-width:0.8;"/>
     </g>
     <g id="line2d_53">
      <g>
       <use x="511.59409" xlink:href="#mb1fd27f771" y="230.64"/>
      </g>
     </g>
     <g id="text_23">
      <!-- 2 -->
      <g transform="translate(506.822215 251.537656)scale(0.15 -0.15)">
       <use xlink:href="#DejaVuSans-32"/>
      </g>
     </g>
    </g>
    <g id="xtick_15">
     <g id="line2d_54">
      <path clip-path="url(#p3109e1102c)" d="M 540.707133 230.64 
L 540.707133 13.2 
" style="fill:none;stroke:#b0b0b0;stroke-linecap:square;stroke-width:0.8;"/>
     </g>
     <g id="line2d_55">
      <g>
       <use x="540.707133" xlink:href="#mb1fd27f771" y="230.64"/>
      </g>
     </g>
     <g id="text_24">
      <!-- 3 -->
      <g transform="translate(535.935258 251.537656)scale(0.15 -0.15)">
       <use xlink:href="#DejaVuSans-33"/>
      </g>
     </g>
    </g>
    <g id="xtick_16">
     <g id="line2d_56">
      <path clip-path="url(#p3109e1102c)" d="M 569.820177 230.64 
L 569.820177 13.2 
" style="fill:none;stroke:#b0b0b0;stroke-linecap:square;stroke-width:0.8;"/>
     </g>
     <g id="line2d_57">
      <g>
       <use x="569.820177" xlink:href="#mb1fd27f771" y="230.64"/>
      </g>
     </g>
     <g id="text_25">
      <!-- 4 -->
      <g transform="translate(565.048302 251.537656)scale(0.15 -0.15)">
       <use xlink:href="#DejaVuSans-34"/>
      </g>
     </g>
    </g>
    <g id="xtick_17">
     <g id="line2d_58">
      <path clip-path="url(#p3109e1102c)" d="M 598.93322 230.64 
L 598.93322 13.2 
" style="fill:none;stroke:#b0b0b0;stroke-linecap:square;stroke-width:0.8;"/>
     </g>
     <g id="line2d_59">
      <g>
       <use x="598.93322" xlink:href="#mb1fd27f771" y="230.64"/>
      </g>
     </g>
     <g id="text_26">
      <!-- 5 -->
      <g transform="translate(594.161345 251.537656)scale(0.15 -0.15)">
       <use xlink:href="#DejaVuSans-35"/>
      </g>
     </g>
    </g>
    <g id="xtick_18">
     <g id="line2d_60">
      <path clip-path="url(#p3109e1102c)" d="M 628.046264 230.64 
L 628.046264 13.2 
" style="fill:none;stroke:#b0b0b0;stroke-linecap:square;stroke-width:0.8;"/>
     </g>
     <g id="line2d_61">
      <g>
       <use x="628.046264" xlink:href="#mb1fd27f771" y="230.64"/>
      </g>
     </g>
     <g id="text_27">
      <!-- 6 -->
      <g transform="translate(623.274389 251.537656)scale(0.15 -0.15)">
       <use xlink:href="#DejaVuSans-36"/>
      </g>
     </g>
    </g>
    <g id="xtick_19">
     <g id="line2d_62">
      <path clip-path="url(#p3109e1102c)" d="M 657.159307 230.64 
L 657.159307 13.2 
" style="fill:none;stroke:#b0b0b0;stroke-linecap:square;stroke-width:0.8;"/>
     </g>
     <g id="line2d_63">
      <g>
       <use x="657.159307" xlink:href="#mb1fd27f771" y="230.64"/>
      </g>
     </g>
     <g id="text_28">
      <!-- 7 -->
      <g transform="translate(652.387432 251.537656)scale(0.15 -0.15)">
       <use xlink:href="#DejaVuSans-37"/>
      </g>
     </g>
    </g>
    <g id="xtick_20">
     <g id="line2d_64">
      <path clip-path="url(#p3109e1102c)" d="M 686.272351 230.64 
L 686.272351 13.2 
" style="fill:none;stroke:#b0b0b0;stroke-linecap:square;stroke-width:0.8;"/>
     </g>
     <g id="line2d_65">
      <g>
       <use x="686.272351" xlink:href="#mb1fd27f771" y="230.64"/>
      </g>
     </g>
     <g id="text_29">
      <!-- 8 -->
      <g transform="translate(681.500476 251.537656)scale(0.15 -0.15)">
       <use xlink:href="#DejaVuSans-38"/>
      </g>
     </g>
    </g>
    <g id="xtick_21">
     <g id="line2d_66">
      <path clip-path="url(#p3109e1102c)" d="M 715.385394 230.64 
L 715.385394 13.2 
" style="fill:none;stroke:#b0b0b0;stroke-linecap:square;stroke-width:0.8;"/>
     </g>
     <g id="line2d_67">
      <g>
       <use x="715.385394" xlink:href="#mb1fd27f771" y="230.64"/>
      </g>
     </g>
     <g id="text_30">
      <!-- 9 -->
      <g transform="translate(710.613519 251.537656)scale(0.15 -0.15)">
       <use xlink:href="#DejaVuSans-39"/>
      </g>
     </g>
    </g>
    <g id="xtick_22">
     <g id="line2d_68">
      <path clip-path="url(#p3109e1102c)" d="M 744.498438 230.64 
L 744.498438 13.2 
" style="fill:none;stroke:#b0b0b0;stroke-linecap:square;stroke-width:0.8;"/>
     </g>
     <g id="line2d_69">
      <g>
       <use x="744.498438" xlink:href="#mb1fd27f771" y="230.64"/>
      </g>
     </g>
     <g id="text_31">
      <!-- 10 -->
      <g transform="translate(734.954688 251.537656)scale(0.15 -0.15)">
       <use xlink:href="#DejaVuSans-31"/>
       <use x="63.623047" xlink:href="#DejaVuSans-30"/>
      </g>
     </g>
    </g>
    <g id="text_32">
     <!-- $t/\tau$ -->
     <g transform="translate(585.53322 273.854062)scale(0.2 -0.2)">
      <use transform="translate(0 0.09375)" xlink:href="#DejaVuSans-Oblique-74"/>
      <use transform="translate(39.208984 0.09375)" xlink:href="#DejaVuSans-2f"/>
      <use transform="translate(72.900391 0.09375)" xlink:href="#DejaVuSans-Oblique-3c4"/>
     </g>
    </g>
   </g>
   <g id="matplotlib.axis_4">
    <g id="ytick_8">
     <g id="line2d_70">
      <path clip-path="url(#p3109e1102c)" d="M 453.368003 230.64 
L 744.498438 230.64 
" style="fill:none;stroke:#b0b0b0;stroke-linecap:square;stroke-width:0.8;"/>
     </g>
     <g id="line2d_71">
      <g>
       <use x="453.368003" xlink:href="#m84b0ce9732" y="230.64"/>
      </g>
     </g>
     <g id="text_33">
      <!-- 0.00 -->
      <g transform="translate(410.469565 236.338828)scale(0.15 -0.15)">
       <use xlink:href="#DejaVuSans-30"/>
       <use x="63.623047" xlink:href="#DejaVuSans-2e"/>
       <use x="95.410156" xlink:href="#DejaVuSans-30"/>
       <use x="159.033203" xlink:href="#DejaVuSans-30"/>
      </g>
     </g>
    </g>
    <g id="ytick_9">
     <g id="line2d_72">
      <path clip-path="url(#p3109e1102c)" d="M 453.368003 198.136805 
L 744.498438 198.136805 
" style="fill:none;stroke:#b0b0b0;stroke-linecap:square;stroke-width:0.8;"/>
     </g>
     <g id="line2d_73">
      <g>
       <use x="453.368003" xlink:href="#m84b0ce9732" y="198.136805"/>
      </g>
     </g>
     <g id="text_34">
      <!-- 0.02 -->
      <g transform="translate(410.469565 203.835633)scale(0.15 -0.15)">
       <use xlink:href="#DejaVuSans-30"/>
       <use x="63.623047" xlink:href="#DejaVuSans-2e"/>
       <use x="95.410156" xlink:href="#DejaVuSans-30"/>
       <use x="159.033203" xlink:href="#DejaVuSans-32"/>
      </g>
     </g>
    </g>
    <g id="ytick_10">
     <g id="line2d_74">
      <path clip-path="url(#p3109e1102c)" d="M 453.368003 165.633609 
L 744.498438 165.633609 
" style="fill:none;stroke:#b0b0b0;stroke-linecap:square;stroke-width:0.8;"/>
     </g>
     <g id="line2d_75">
      <g>
       <use x="453.368003" xlink:href="#m84b0ce9732" y="165.633609"/>
      </g>
     </g>
     <g id="text_35">
      <!-- 0.04 -->
      <g transform="translate(410.469565 171.332437)scale(0.15 -0.15)">
       <use xlink:href="#DejaVuSans-30"/>
       <use x="63.623047" xlink:href="#DejaVuSans-2e"/>
       <use x="95.410156" xlink:href="#DejaVuSans-30"/>
       <use x="159.033203" xlink:href="#DejaVuSans-34"/>
      </g>
     </g>
    </g>
    <g id="ytick_11">
     <g id="line2d_76">
      <path clip-path="url(#p3109e1102c)" d="M 453.368003 133.130414 
L 744.498438 133.130414 
" style="fill:none;stroke:#b0b0b0;stroke-linecap:square;stroke-width:0.8;"/>
     </g>
     <g id="line2d_77">
      <g>
       <use x="453.368003" xlink:href="#m84b0ce9732" y="133.130414"/>
      </g>
     </g>
     <g id="text_36">
      <!-- 0.06 -->
      <g transform="translate(410.469565 138.829242)scale(0.15 -0.15)">
       <use xlink:href="#DejaVuSans-30"/>
       <use x="63.623047" xlink:href="#DejaVuSans-2e"/>
       <use x="95.410156" xlink:href="#DejaVuSans-30"/>
       <use x="159.033203" xlink:href="#DejaVuSans-36"/>
      </g>
     </g>
    </g>
    <g id="ytick_12">
     <g id="line2d_78">
      <path clip-path="url(#p3109e1102c)" d="M 453.368003 100.627219 
L 744.498438 100.627219 
" style="fill:none;stroke:#b0b0b0;stroke-linecap:square;stroke-width:0.8;"/>
     </g>
     <g id="line2d_79">
      <g>
       <use x="453.368003" xlink:href="#m84b0ce9732" y="100.627219"/>
      </g>
     </g>
     <g id="text_37">
      <!-- 0.08 -->
      <g transform="translate(410.469565 106.326047)scale(0.15 -0.15)">
       <use xlink:href="#DejaVuSans-30"/>
       <use x="63.623047" xlink:href="#DejaVuSans-2e"/>
       <use x="95.410156" xlink:href="#DejaVuSans-30"/>
       <use x="159.033203" xlink:href="#DejaVuSans-38"/>
      </g>
     </g>
    </g>
    <g id="ytick_13">
     <g id="line2d_80">
      <path clip-path="url(#p3109e1102c)" d="M 453.368003 68.124023 
L 744.498438 68.124023 
" style="fill:none;stroke:#b0b0b0;stroke-linecap:square;stroke-width:0.8;"/>
     </g>
     <g id="line2d_81">
      <g>
       <use x="453.368003" xlink:href="#m84b0ce9732" y="68.124023"/>
      </g>
     </g>
     <g id="text_38">
      <!-- 0.10 -->
      <g transform="translate(410.469565 73.822852)scale(0.15 -0.15)">
       <use xlink:href="#DejaVuSans-30"/>
       <use x="63.623047" xlink:href="#DejaVuSans-2e"/>
       <use x="95.410156" xlink:href="#DejaVuSans-31"/>
       <use x="159.033203" xlink:href="#DejaVuSans-30"/>
      </g>
     </g>
    </g>
    <g id="ytick_14">
     <g id="line2d_82">
      <path clip-path="url(#p3109e1102c)" d="M 453.368003 35.620828 
L 744.498438 35.620828 
" style="fill:none;stroke:#b0b0b0;stroke-linecap:square;stroke-width:0.8;"/>
     </g>
     <g id="line2d_83">
      <g>
       <use x="453.368003" xlink:href="#m84b0ce9732" y="35.620828"/>
      </g>
     </g>
     <g id="text_39">
      <!-- 0.12 -->
      <g transform="translate(410.469565 41.319656)scale(0.15 -0.15)">
       <use xlink:href="#DejaVuSans-30"/>
       <use x="63.623047" xlink:href="#DejaVuSans-2e"/>
       <use x="95.410156" xlink:href="#DejaVuSans-31"/>
       <use x="159.033203" xlink:href="#DejaVuSans-32"/>
      </g>
     </g>
    </g>
    <g id="text_40">
     <!-- $C_V^2(r)$ -->
     <defs>
      <path d="M 69.484375 67.28125 
L 67.484375 56.890625 
Q 62.796875 61.625 57.546875 63.921875 
Q 52.296875 66.21875 46.1875 66.21875 
Q 37.84375 66.21875 31.515625 62.203125 
Q 25.203125 58.203125 20.609375 50 
Q 17.671875 44.734375 16.125 38.84375 
Q 14.59375 32.953125 14.59375 27 
Q 14.59375 17.046875 19.75 11.8125 
Q 24.90625 6.59375 34.71875 6.59375 
Q 41.5 6.59375 47.75 8.765625 
Q 54 10.9375 59.90625 15.28125 
L 57.625 3.609375 
Q 51.8125 1.125 45.875 -0.140625 
Q 39.9375 -1.421875 33.984375 -1.421875 
Q 19.96875 -1.421875 12.078125 6.1875 
Q 4.203125 13.8125 4.203125 27.390625 
Q 4.203125 36.078125 7.203125 44.46875 
Q 10.203125 52.875 15.828125 59.8125 
Q 21.78125 67.1875 29.421875 70.703125 
Q 37.0625 74.21875 47.21875 74.21875 
Q 53.46875 74.21875 59.0625 72.484375 
Q 64.65625 70.75 69.484375 67.28125 
z
" id="DejaVuSans-Oblique-43"/>
      <path d="M 20.609375 0 
L 7.8125 72.90625 
L 17.484375 72.90625 
L 28.078125 10.203125 
L 63.484375 72.90625 
L 74.21875 72.90625 
L 32.078125 0 
z
" id="DejaVuSans-Oblique-56"/>
      <path d="M 44.578125 46.390625 
Q 43.21875 47.125 41.453125 47.515625 
Q 39.703125 47.90625 37.703125 47.90625 
Q 30.515625 47.90625 25.140625 42.453125 
Q 19.78125 37.015625 18.015625 27.875 
L 12.5 0 
L 3.515625 0 
L 14.203125 54.6875 
L 23.1875 54.6875 
L 21.484375 46.1875 
Q 25.046875 50.921875 30 53.453125 
Q 34.96875 56 40.578125 56 
Q 42.046875 56 43.453125 55.828125 
Q 44.875 55.671875 46.296875 55.28125 
z
" id="DejaVuSans-Oblique-72"/>
     </defs>
     <g transform="translate(400.869565 146.32)rotate(-90)scale(0.2 -0.2)">
      <use transform="translate(0 0.765625)" xlink:href="#DejaVuSans-Oblique-43"/>
      <use transform="translate(77.02474 39.046875)scale(0.7)" xlink:href="#DejaVuSans-32"/>
      <use transform="translate(69.824219 -26.578125)scale(0.7)" xlink:href="#DejaVuSans-Oblique-56"/>
      <use transform="translate(124.295247 0.765625)" xlink:href="#DejaVuSans-28"/>
      <use transform="translate(163.308919 0.765625)" xlink:href="#DejaVuSans-Oblique-72"/>
      <use transform="translate(204.422201 0.765625)" xlink:href="#DejaVuSans-29"/>
     </g>
    </g>
   </g>
   <g id="line2d_84">
    <path clip-path="url(#p3109e1102c)" d="M 453.540671 198.844065 
L 456.616701 85.68 
L 459.927183 85.786146 
L 463.342949 99.359313 
L 466.42538 106.979968 
L 469.833039 109.102975 
L 472.875649 117.551351 
L 476.313695 120.340202 
L 479.431833 119.552557 
L 482.596857 109.117404 
L 486.039052 107.553029 
L 489.036479 104.525477 
L 492.4418 101.71117 
L 495.459848 112.951234 
L 498.690739 118.632052 
L 501.906601 120.939201 
L 505.238672 116.028068 
L 508.454859 107.640634 
L 511.65302 96.72473 
L 514.935405 95.610146 
L 518.332582 107.958314 
L 521.353597 111.934282 
L 524.799682 105.610792 
L 528.075471 111.928522 
L 531.571427 118.385749 
L 534.247604 107.680488 
L 537.675438 108.051178 
L 540.983491 103.344659 
L 544.224878 90.856974 
L 547.191886 88.362103 
L 550.536869 96.534356 
L 554.097154 103.637889 
L 557.03277 113.265157 
L 560.204989 121.406696 
L 563.356516 113.121637 
L 566.596334 119.129096 
L 569.827558 99.934886 
L 573.100607 103.014858 
L 576.403471 108.666635 
L 579.929598 112.605887 
L 583.28231 111.900171 
L 586.048635 122.758933 
L 589.292099 118.546288 
L 592.465688 119.235638 
L 595.759156 111.281094 
L 598.999836 106.005521 
L 602.264609 101.434808 
L 605.604456 93.46544 
L 608.781369 99.542008 
L 611.902786 115.137781 
L 615.119881 114.893572 
L 618.531348 119.289332 
L 621.637946 118.976572 
L 624.869842 113.499114 
L 628.154114 116.033721 
L 631.289577 104.396201 
L 634.69168 112.660353 
L 638.055257 116.877425 
L 640.992063 114.411406 
L 644.296473 123.497064 
L 647.483894 117.111929 
L 650.913448 106.45542 
L 654.004349 110.608529 
L 657.169757 100.348451 
L 660.405048 99.535066 
L 663.666102 97.617218 
L 666.9391 109.096625 
L 670.155208 119.519257 
L 673.846309 109.262337 
L 676.648525 118.175309 
L 680.25282 106.170088 
L 683.24041 95.578216 
L 686.526055 85.800633 
L 689.515094 85.963047 
L 692.752082 100.749473 
L 696.371042 96.082933 
L 699.43373 109.928551 
L 702.627615 106.139816 
L 705.916552 115.802427 
L 709.274618 101.633262 
L 712.528512 107.114926 
L 715.850652 110.252932 
L 719.143832 105.267333 
L 722.147277 98.921203 
L 726.219928 111.014049 
L 728.390132 109.990592 
L 732.196078 114.371421 
L 734.891509 111.571893 
L 738.223417 114.76579 
L 741.479266 112.878523 
" style="fill:none;stroke:#bd0025;stroke-linecap:square;stroke-width:3;"/>
   </g>
   <g id="patch_8">
    <path d="M 453.368003 230.64 
L 453.368003 13.2 
" style="fill:none;stroke:#000000;stroke-linecap:square;stroke-linejoin:miter;stroke-width:2;"/>
   </g>
   <g id="patch_9">
    <path d="M 744.498438 230.64 
L 744.498438 13.2 
" style="fill:none;"/>
   </g>
   <g id="patch_10">
    <path d="M 453.368003 230.64 
L 744.498438 230.64 
" style="fill:none;stroke:#000000;stroke-linecap:square;stroke-linejoin:miter;stroke-width:2;"/>
   </g>
   <g id="patch_11">
    <path d="M 453.368003 13.2 
L 744.498438 13.2 
" style="fill:none;"/>
   </g>
  </g>
 </g>
 <defs>
  <clipPath id="pf74c1e3d59">
   <rect height="217.44" width="291.130435" x="74.898438" y="13.2"/>
  </clipPath>
  <clipPath id="p3109e1102c">
   <rect height="217.44" width="291.130435" x="453.368003" y="13.2"/>
  </clipPath>
 </defs>
</svg>
