<?xml version="1.0" encoding="utf-8" standalone="no"?>
<!DOCTYPE svg PUBLIC "-//W3C//DTD SVG 1.1//EN"
  "http://www.w3.org/Graphics/SVG/1.1/DTD/svg11.dtd">
<!-- Created with matplotlib (http://matplotlib.org/) -->
<svg height="285.213437pt" version="1.1" viewBox="0 0 755.03125 285.213437" width="755.03125pt" xmlns="http://www.w3.org/2000/svg" xmlns:xlink="http://www.w3.org/1999/xlink">
 <defs>
  <style type="text/css">
*{stroke-linecap:butt;stroke-linejoin:round;}
  </style>
 </defs>
 <g id="figure_1">
  <g id="patch_1">
   <path d="M 0 285.213437 
L 755.03125 285.213437 
L 755.03125 0 
L 0 0 
z
" style="fill:#ffffff;"/>
  </g>
  <g id="axes_1">
   <g id="patch_2">
    <path d="M 68.6875 230.64 
L 359.817935 230.64 
L 359.817935 13.2 
L 68.6875 13.2 
z
" style="fill:#ffffff;"/>
   </g>
   <g id="PolyCollection_1">
    <defs>
     <path d="M 68.860168 -90.292265 
L 68.860168 -90.250301 
L 71.936198 -93.684226 
L 75.24668 -98.285616 
L 78.662446 -103.84941 
L 81.744877 -110.000949 
L 85.152536 -116.200964 
L 88.195146 -122.141518 
L 91.633192 -126.23139 
L 94.75133 -127.155882 
L 97.916354 -126.059855 
L 101.358549 -124.770868 
L 104.355977 -123.588398 
L 107.761298 -125.851898 
L 110.779345 -130.088784 
L 114.010236 -135.337098 
L 117.226098 -140.091055 
L 120.558169 -143.630384 
L 123.774356 -143.210162 
L 126.972517 -141.093567 
L 130.254902 -138.268343 
L 133.652079 -136.336484 
L 136.673094 -137.191528 
L 140.119179 -140.518434 
L 143.394968 -145.286117 
L 146.890925 -149.887948 
L 149.567101 -151.650531 
L 152.994935 -150.722918 
L 156.302988 -148.613859 
L 159.544376 -145.142433 
L 162.511384 -143.083752 
L 165.856366 -143.405948 
L 169.416652 -145.715106 
L 172.352267 -150.260426 
L 175.524487 -154.891658 
L 178.676014 -156.124023 
L 181.915832 -155.683776 
L 185.147056 -152.822358 
L 188.420104 -148.014305 
L 191.722968 -144.976829 
L 195.249096 -146.018684 
L 198.601807 -150.05782 
L 201.368132 -154.253254 
L 204.611596 -156.797626 
L 207.785185 -158.641226 
L 211.078653 -157.945783 
L 214.319333 -153.980596 
L 217.584107 -150.871076 
L 220.923954 -148.581489 
L 224.100866 -147.92584 
L 227.222284 -150.841414 
L 230.439378 -155.254873 
L 233.850845 -158.601567 
L 236.957443 -160.301536 
L 240.18934 -160.636946 
L 243.473611 -157.110907 
L 246.609075 -153.309972 
L 250.011177 -148.600874 
L 253.374754 -148.192521 
L 256.31156 -150.921843 
L 259.615971 -155.764704 
L 262.803391 -159.804521 
L 266.232945 -161.476688 
L 269.323846 -159.23707 
L 272.489254 -155.872917 
L 275.724545 -151.739362 
L 278.985599 -149.375761 
L 282.258598 -150.008409 
L 285.474705 -152.314127 
L 289.165806 -156.248625 
L 291.968023 -159.780106 
L 295.572317 -161.003361 
L 298.559907 -159.544351 
L 301.845552 -155.365085 
L 304.834592 -151.526546 
L 308.07158 -149.400037 
L 311.690539 -148.71471 
L 314.753228 -151.136753 
L 317.947112 -155.125409 
L 321.236049 -158.87114 
L 324.594115 -160.009542 
L 327.84801 -159.530383 
L 331.170149 -155.627091 
L 334.463329 -152.692921 
L 337.466774 -148.831472 
L 341.539426 -148.532689 
L 343.70963 -151.127012 
L 347.515576 -155.389664 
L 350.211006 -158.880029 
L 353.542914 -161.409924 
L 356.798763 -159.014495 
L 356.798763 -163.329676 
L 356.798763 -163.329676 
L 353.542914 -165.016715 
L 350.211006 -161.917086 
L 347.515576 -158.073473 
L 343.70963 -153.938633 
L 341.539426 -152.066206 
L 337.466774 -153.181184 
L 334.463329 -157.449222 
L 331.170149 -160.435269 
L 327.84801 -163.897152 
L 324.594115 -163.697343 
L 321.236049 -161.869254 
L 317.947112 -157.944937 
L 314.753228 -153.889188 
L 311.690539 -152.196149 
L 308.07158 -153.622247 
L 304.834592 -156.200715 
L 301.845552 -160.097454 
L 298.559907 -163.888856 
L 295.572317 -164.663222 
L 291.968023 -162.840578 
L 289.165806 -158.797017 
L 285.474705 -155.101171 
L 282.258598 -153.606606 
L 278.985599 -153.482034 
L 275.724545 -156.349494 
L 272.489254 -160.498571 
L 269.323846 -163.499892 
L 266.232945 -165.110187 
L 262.803391 -162.899826 
L 259.615971 -158.475506 
L 256.31156 -153.698546 
L 253.374754 -151.600941 
L 250.011177 -152.748151 
L 246.609075 -158.070099 
L 243.473611 -161.786067 
L 240.18934 -164.7985 
L 236.957443 -163.778287 
L 233.850845 -161.444 
L 230.439378 -157.970037 
L 227.222284 -153.691057 
L 224.100866 -151.442217 
L 220.923954 -152.810077 
L 217.584107 -155.455185 
L 214.319333 -158.525379 
L 211.078653 -162.09553 
L 207.785185 -162.104841 
L 204.611596 -159.63909 
L 201.368132 -156.950983 
L 198.601807 -153.002751 
L 195.249096 -149.366166 
L 191.722968 -148.977242 
L 188.420104 -152.567574 
L 185.147056 -157.448824 
L 181.915832 -159.82414 
L 178.676014 -159.649061 
L 175.524487 -157.716415 
L 172.352267 -152.576098 
L 169.416652 -148.363751 
L 165.856366 -146.770529 
L 162.511384 -147.121085 
L 159.544376 -149.516393 
L 156.302988 -152.991827 
L 152.994935 -154.72701 
L 149.567101 -155.04016 
L 146.890925 -152.608252 
L 143.394968 -147.594516 
L 140.119179 -142.888434 
L 136.673094 -140.124961 
L 133.652079 -139.995902 
L 130.254902 -142.284058 
L 126.972517 -145.136571 
L 123.774356 -146.893996 
L 120.558169 -146.643935 
L 117.226098 -142.487691 
L 114.010236 -137.223366 
L 110.779345 -132.124416 
L 107.761298 -128.291372 
L 104.355977 -126.601444 
L 101.358549 -128.235154 
L 97.916354 -129.484416 
L 94.75133 -130.108442 
L 91.633192 -128.447891 
L 88.195146 -123.665237 
L 85.152536 -117.257707 
L 81.744877 -110.739535 
L 78.662446 -104.399771 
L 75.24668 -98.661977 
L 71.936198 -93.910133 
L 68.860168 -90.292265 
z
" id="m1edd00325c"/>
    </defs>
    <g clip-path="url(#p82831ae314)">
     <use style="fill:#4be000;" x="0" xlink:href="#m1edd00325c" y="285.213437"/>
    </g>
   </g>
   <g id="matplotlib.axis_1">
    <g id="xtick_1">
     <g id="line2d_1">
      <path clip-path="url(#p82831ae314)" d="M 68.6875 230.64 
L 68.6875 13.2 
" style="fill:none;stroke:#b0b0b0;stroke-linecap:square;stroke-width:0.8;"/>
     </g>
     <g id="line2d_2">
      <defs>
       <path d="M 0 0 
L 0 6 
" id="m5b982111b6"/>
      </defs>
      <g>
       <use x="68.6875" xlink:href="#m5b982111b6" y="230.64"/>
      </g>
     </g>
     <g id="text_1">
      <!-- 0 -->
      <defs>
       <path d="M 31.78125 66.40625 
Q 24.171875 66.40625 20.328125 58.90625 
Q 16.5 51.421875 16.5 36.375 
Q 16.5 21.390625 20.328125 13.890625 
Q 24.171875 6.390625 31.78125 6.390625 
Q 39.453125 6.390625 43.28125 13.890625 
Q 47.125 21.390625 47.125 36.375 
Q 47.125 51.421875 43.28125 58.90625 
Q 39.453125 66.40625 31.78125 66.40625 
z
M 31.78125 74.21875 
Q 44.046875 74.21875 50.515625 64.515625 
Q 56.984375 54.828125 56.984375 36.375 
Q 56.984375 17.96875 50.515625 8.265625 
Q 44.046875 -1.421875 31.78125 -1.421875 
Q 19.53125 -1.421875 13.0625 8.265625 
Q 6.59375 17.96875 6.59375 36.375 
Q 6.59375 54.828125 13.0625 64.515625 
Q 19.53125 74.21875 31.78125 74.21875 
z
" id="DejaVuSans-30"/>
      </defs>
      <g transform="translate(63.915625 251.537656)scale(0.15 -0.15)">
       <use xlink:href="#DejaVuSans-30"/>
      </g>
     </g>
    </g>
    <g id="xtick_2">
     <g id="line2d_3">
      <path clip-path="url(#p82831ae314)" d="M 97.800543 230.64 
L 97.800543 13.2 
" style="fill:none;stroke:#b0b0b0;stroke-linecap:square;stroke-width:0.8;"/>
     </g>
     <g id="line2d_4">
      <g>
       <use x="97.800543" xlink:href="#m5b982111b6" y="230.64"/>
      </g>
     </g>
     <g id="text_2">
      <!-- 1 -->
      <defs>
       <path d="M 12.40625 8.296875 
L 28.515625 8.296875 
L 28.515625 63.921875 
L 10.984375 60.40625 
L 10.984375 69.390625 
L 28.421875 72.90625 
L 38.28125 72.90625 
L 38.28125 8.296875 
L 54.390625 8.296875 
L 54.390625 0 
L 12.40625 0 
z
" id="DejaVuSans-31"/>
      </defs>
      <g transform="translate(93.028668 251.537656)scale(0.15 -0.15)">
       <use xlink:href="#DejaVuSans-31"/>
      </g>
     </g>
    </g>
    <g id="xtick_3">
     <g id="line2d_5">
      <path clip-path="url(#p82831ae314)" d="M 126.913587 230.64 
L 126.913587 13.2 
" style="fill:none;stroke:#b0b0b0;stroke-linecap:square;stroke-width:0.8;"/>
     </g>
     <g id="line2d_6">
      <g>
       <use x="126.913587" xlink:href="#m5b982111b6" y="230.64"/>
      </g>
     </g>
     <g id="text_3">
      <!-- 2 -->
      <defs>
       <path d="M 19.1875 8.296875 
L 53.609375 8.296875 
L 53.609375 0 
L 7.328125 0 
L 7.328125 8.296875 
Q 12.9375 14.109375 22.625 23.890625 
Q 32.328125 33.6875 34.8125 36.53125 
Q 39.546875 41.84375 41.421875 45.53125 
Q 43.3125 49.21875 43.3125 52.78125 
Q 43.3125 58.59375 39.234375 62.25 
Q 35.15625 65.921875 28.609375 65.921875 
Q 23.96875 65.921875 18.8125 64.3125 
Q 13.671875 62.703125 7.8125 59.421875 
L 7.8125 69.390625 
Q 13.765625 71.78125 18.9375 73 
Q 24.125 74.21875 28.421875 74.21875 
Q 39.75 74.21875 46.484375 68.546875 
Q 53.21875 62.890625 53.21875 53.421875 
Q 53.21875 48.921875 51.53125 44.890625 
Q 49.859375 40.875 45.40625 35.40625 
Q 44.1875 33.984375 37.640625 27.21875 
Q 31.109375 20.453125 19.1875 8.296875 
z
" id="DejaVuSans-32"/>
      </defs>
      <g transform="translate(122.141712 251.537656)scale(0.15 -0.15)">
       <use xlink:href="#DejaVuSans-32"/>
      </g>
     </g>
    </g>
    <g id="xtick_4">
     <g id="line2d_7">
      <path clip-path="url(#p82831ae314)" d="M 156.02663 230.64 
L 156.02663 13.2 
" style="fill:none;stroke:#b0b0b0;stroke-linecap:square;stroke-width:0.8;"/>
     </g>
     <g id="line2d_8">
      <g>
       <use x="156.02663" xlink:href="#m5b982111b6" y="230.64"/>
      </g>
     </g>
     <g id="text_4">
      <!-- 3 -->
      <defs>
       <path d="M 40.578125 39.3125 
Q 47.65625 37.796875 51.625 33 
Q 55.609375 28.21875 55.609375 21.1875 
Q 55.609375 10.40625 48.1875 4.484375 
Q 40.765625 -1.421875 27.09375 -1.421875 
Q 22.515625 -1.421875 17.65625 -0.515625 
Q 12.796875 0.390625 7.625 2.203125 
L 7.625 11.71875 
Q 11.71875 9.328125 16.59375 8.109375 
Q 21.484375 6.890625 26.8125 6.890625 
Q 36.078125 6.890625 40.9375 10.546875 
Q 45.796875 14.203125 45.796875 21.1875 
Q 45.796875 27.640625 41.28125 31.265625 
Q 36.765625 34.90625 28.71875 34.90625 
L 20.21875 34.90625 
L 20.21875 43.015625 
L 29.109375 43.015625 
Q 36.375 43.015625 40.234375 45.921875 
Q 44.09375 48.828125 44.09375 54.296875 
Q 44.09375 59.90625 40.109375 62.90625 
Q 36.140625 65.921875 28.71875 65.921875 
Q 24.65625 65.921875 20.015625 65.03125 
Q 15.375 64.15625 9.8125 62.3125 
L 9.8125 71.09375 
Q 15.4375 72.65625 20.34375 73.4375 
Q 25.25 74.21875 29.59375 74.21875 
Q 40.828125 74.21875 47.359375 69.109375 
Q 53.90625 64.015625 53.90625 55.328125 
Q 53.90625 49.265625 50.4375 45.09375 
Q 46.96875 40.921875 40.578125 39.3125 
z
" id="DejaVuSans-33"/>
      </defs>
      <g transform="translate(151.254755 251.537656)scale(0.15 -0.15)">
       <use xlink:href="#DejaVuSans-33"/>
      </g>
     </g>
    </g>
    <g id="xtick_5">
     <g id="line2d_9">
      <path clip-path="url(#p82831ae314)" d="M 185.139674 230.64 
L 185.139674 13.2 
" style="fill:none;stroke:#b0b0b0;stroke-linecap:square;stroke-width:0.8;"/>
     </g>
     <g id="line2d_10">
      <g>
       <use x="185.139674" xlink:href="#m5b982111b6" y="230.64"/>
      </g>
     </g>
     <g id="text_5">
      <!-- 4 -->
      <defs>
       <path d="M 37.796875 64.3125 
L 12.890625 25.390625 
L 37.796875 25.390625 
z
M 35.203125 72.90625 
L 47.609375 72.90625 
L 47.609375 25.390625 
L 58.015625 25.390625 
L 58.015625 17.1875 
L 47.609375 17.1875 
L 47.609375 0 
L 37.796875 0 
L 37.796875 17.1875 
L 4.890625 17.1875 
L 4.890625 26.703125 
z
" id="DejaVuSans-34"/>
      </defs>
      <g transform="translate(180.367799 251.537656)scale(0.15 -0.15)">
       <use xlink:href="#DejaVuSans-34"/>
      </g>
     </g>
    </g>
    <g id="xtick_6">
     <g id="line2d_11">
      <path clip-path="url(#p82831ae314)" d="M 214.252717 230.64 
L 214.252717 13.2 
" style="fill:none;stroke:#b0b0b0;stroke-linecap:square;stroke-width:0.8;"/>
     </g>
     <g id="line2d_12">
      <g>
       <use x="214.252717" xlink:href="#m5b982111b6" y="230.64"/>
      </g>
     </g>
     <g id="text_6">
      <!-- 5 -->
      <defs>
       <path d="M 10.796875 72.90625 
L 49.515625 72.90625 
L 49.515625 64.59375 
L 19.828125 64.59375 
L 19.828125 46.734375 
Q 21.96875 47.46875 24.109375 47.828125 
Q 26.265625 48.1875 28.421875 48.1875 
Q 40.625 48.1875 47.75 41.5 
Q 54.890625 34.8125 54.890625 23.390625 
Q 54.890625 11.625 47.5625 5.09375 
Q 40.234375 -1.421875 26.90625 -1.421875 
Q 22.3125 -1.421875 17.546875 -0.640625 
Q 12.796875 0.140625 7.71875 1.703125 
L 7.71875 11.625 
Q 12.109375 9.234375 16.796875 8.0625 
Q 21.484375 6.890625 26.703125 6.890625 
Q 35.15625 6.890625 40.078125 11.328125 
Q 45.015625 15.765625 45.015625 23.390625 
Q 45.015625 31 40.078125 35.4375 
Q 35.15625 39.890625 26.703125 39.890625 
Q 22.75 39.890625 18.8125 39.015625 
Q 14.890625 38.140625 10.796875 36.28125 
z
" id="DejaVuSans-35"/>
      </defs>
      <g transform="translate(209.480842 251.537656)scale(0.15 -0.15)">
       <use xlink:href="#DejaVuSans-35"/>
      </g>
     </g>
    </g>
    <g id="xtick_7">
     <g id="line2d_13">
      <path clip-path="url(#p82831ae314)" d="M 243.365761 230.64 
L 243.365761 13.2 
" style="fill:none;stroke:#b0b0b0;stroke-linecap:square;stroke-width:0.8;"/>
     </g>
     <g id="line2d_14">
      <g>
       <use x="243.365761" xlink:href="#m5b982111b6" y="230.64"/>
      </g>
     </g>
     <g id="text_7">
      <!-- 6 -->
      <defs>
       <path d="M 33.015625 40.375 
Q 26.375 40.375 22.484375 35.828125 
Q 18.609375 31.296875 18.609375 23.390625 
Q 18.609375 15.53125 22.484375 10.953125 
Q 26.375 6.390625 33.015625 6.390625 
Q 39.65625 6.390625 43.53125 10.953125 
Q 47.40625 15.53125 47.40625 23.390625 
Q 47.40625 31.296875 43.53125 35.828125 
Q 39.65625 40.375 33.015625 40.375 
z
M 52.59375 71.296875 
L 52.59375 62.3125 
Q 48.875 64.0625 45.09375 64.984375 
Q 41.3125 65.921875 37.59375 65.921875 
Q 27.828125 65.921875 22.671875 59.328125 
Q 17.53125 52.734375 16.796875 39.40625 
Q 19.671875 43.65625 24.015625 45.921875 
Q 28.375 48.1875 33.59375 48.1875 
Q 44.578125 48.1875 50.953125 41.515625 
Q 57.328125 34.859375 57.328125 23.390625 
Q 57.328125 12.15625 50.6875 5.359375 
Q 44.046875 -1.421875 33.015625 -1.421875 
Q 20.359375 -1.421875 13.671875 8.265625 
Q 6.984375 17.96875 6.984375 36.375 
Q 6.984375 53.65625 15.1875 63.9375 
Q 23.390625 74.21875 37.203125 74.21875 
Q 40.921875 74.21875 44.703125 73.484375 
Q 48.484375 72.75 52.59375 71.296875 
z
" id="DejaVuSans-36"/>
      </defs>
      <g transform="translate(238.593886 251.537656)scale(0.15 -0.15)">
       <use xlink:href="#DejaVuSans-36"/>
      </g>
     </g>
    </g>
    <g id="xtick_8">
     <g id="line2d_15">
      <path clip-path="url(#p82831ae314)" d="M 272.478804 230.64 
L 272.478804 13.2 
" style="fill:none;stroke:#b0b0b0;stroke-linecap:square;stroke-width:0.8;"/>
     </g>
     <g id="line2d_16">
      <g>
       <use x="272.478804" xlink:href="#m5b982111b6" y="230.64"/>
      </g>
     </g>
     <g id="text_8">
      <!-- 7 -->
      <defs>
       <path d="M 8.203125 72.90625 
L 55.078125 72.90625 
L 55.078125 68.703125 
L 28.609375 0 
L 18.3125 0 
L 43.21875 64.59375 
L 8.203125 64.59375 
z
" id="DejaVuSans-37"/>
      </defs>
      <g transform="translate(267.706929 251.537656)scale(0.15 -0.15)">
       <use xlink:href="#DejaVuSans-37"/>
      </g>
     </g>
    </g>
    <g id="xtick_9">
     <g id="line2d_17">
      <path clip-path="url(#p82831ae314)" d="M 301.591848 230.64 
L 301.591848 13.2 
" style="fill:none;stroke:#b0b0b0;stroke-linecap:square;stroke-width:0.8;"/>
     </g>
     <g id="line2d_18">
      <g>
       <use x="301.591848" xlink:href="#m5b982111b6" y="230.64"/>
      </g>
     </g>
     <g id="text_9">
      <!-- 8 -->
      <defs>
       <path d="M 31.78125 34.625 
Q 24.75 34.625 20.71875 30.859375 
Q 16.703125 27.09375 16.703125 20.515625 
Q 16.703125 13.921875 20.71875 10.15625 
Q 24.75 6.390625 31.78125 6.390625 
Q 38.8125 6.390625 42.859375 10.171875 
Q 46.921875 13.96875 46.921875 20.515625 
Q 46.921875 27.09375 42.890625 30.859375 
Q 38.875 34.625 31.78125 34.625 
z
M 21.921875 38.8125 
Q 15.578125 40.375 12.03125 44.71875 
Q 8.5 49.078125 8.5 55.328125 
Q 8.5 64.0625 14.71875 69.140625 
Q 20.953125 74.21875 31.78125 74.21875 
Q 42.671875 74.21875 48.875 69.140625 
Q 55.078125 64.0625 55.078125 55.328125 
Q 55.078125 49.078125 51.53125 44.71875 
Q 48 40.375 41.703125 38.8125 
Q 48.828125 37.15625 52.796875 32.3125 
Q 56.78125 27.484375 56.78125 20.515625 
Q 56.78125 9.90625 50.3125 4.234375 
Q 43.84375 -1.421875 31.78125 -1.421875 
Q 19.734375 -1.421875 13.25 4.234375 
Q 6.78125 9.90625 6.78125 20.515625 
Q 6.78125 27.484375 10.78125 32.3125 
Q 14.796875 37.15625 21.921875 38.8125 
z
M 18.3125 54.390625 
Q 18.3125 48.734375 21.84375 45.5625 
Q 25.390625 42.390625 31.78125 42.390625 
Q 38.140625 42.390625 41.71875 45.5625 
Q 45.3125 48.734375 45.3125 54.390625 
Q 45.3125 60.0625 41.71875 63.234375 
Q 38.140625 66.40625 31.78125 66.40625 
Q 25.390625 66.40625 21.84375 63.234375 
Q 18.3125 60.0625 18.3125 54.390625 
z
" id="DejaVuSans-38"/>
      </defs>
      <g transform="translate(296.819973 251.537656)scale(0.15 -0.15)">
       <use xlink:href="#DejaVuSans-38"/>
      </g>
     </g>
    </g>
    <g id="xtick_10">
     <g id="line2d_19">
      <path clip-path="url(#p82831ae314)" d="M 330.704891 230.64 
L 330.704891 13.2 
" style="fill:none;stroke:#b0b0b0;stroke-linecap:square;stroke-width:0.8;"/>
     </g>
     <g id="line2d_20">
      <g>
       <use x="330.704891" xlink:href="#m5b982111b6" y="230.64"/>
      </g>
     </g>
     <g id="text_10">
      <!-- 9 -->
      <defs>
       <path d="M 10.984375 1.515625 
L 10.984375 10.5 
Q 14.703125 8.734375 18.5 7.8125 
Q 22.3125 6.890625 25.984375 6.890625 
Q 35.75 6.890625 40.890625 13.453125 
Q 46.046875 20.015625 46.78125 33.40625 
Q 43.953125 29.203125 39.59375 26.953125 
Q 35.25 24.703125 29.984375 24.703125 
Q 19.046875 24.703125 12.671875 31.3125 
Q 6.296875 37.9375 6.296875 49.421875 
Q 6.296875 60.640625 12.9375 67.421875 
Q 19.578125 74.21875 30.609375 74.21875 
Q 43.265625 74.21875 49.921875 64.515625 
Q 56.59375 54.828125 56.59375 36.375 
Q 56.59375 19.140625 48.40625 8.859375 
Q 40.234375 -1.421875 26.421875 -1.421875 
Q 22.703125 -1.421875 18.890625 -0.6875 
Q 15.09375 0.046875 10.984375 1.515625 
z
M 30.609375 32.421875 
Q 37.25 32.421875 41.125 36.953125 
Q 45.015625 41.5 45.015625 49.421875 
Q 45.015625 57.28125 41.125 61.84375 
Q 37.25 66.40625 30.609375 66.40625 
Q 23.96875 66.40625 20.09375 61.84375 
Q 16.21875 57.28125 16.21875 49.421875 
Q 16.21875 41.5 20.09375 36.953125 
Q 23.96875 32.421875 30.609375 32.421875 
z
" id="DejaVuSans-39"/>
      </defs>
      <g transform="translate(325.933016 251.537656)scale(0.15 -0.15)">
       <use xlink:href="#DejaVuSans-39"/>
      </g>
     </g>
    </g>
    <g id="xtick_11">
     <g id="line2d_21">
      <path clip-path="url(#p82831ae314)" d="M 359.817935 230.64 
L 359.817935 13.2 
" style="fill:none;stroke:#b0b0b0;stroke-linecap:square;stroke-width:0.8;"/>
     </g>
     <g id="line2d_22">
      <g>
       <use x="359.817935" xlink:href="#m5b982111b6" y="230.64"/>
      </g>
     </g>
     <g id="text_11">
      <!-- 10 -->
      <g transform="translate(350.274185 251.537656)scale(0.15 -0.15)">
       <use xlink:href="#DejaVuSans-31"/>
       <use x="63.623047" xlink:href="#DejaVuSans-30"/>
      </g>
     </g>
    </g>
    <g id="text_12">
     <!-- $t/\tau$ -->
     <defs>
      <path d="M 42.28125 54.6875 
L 40.921875 47.703125 
L 23 47.703125 
L 17.1875 18.015625 
Q 16.890625 16.359375 16.75 15.234375 
Q 16.609375 14.109375 16.609375 13.484375 
Q 16.609375 10.359375 18.484375 8.9375 
Q 20.359375 7.515625 24.515625 7.515625 
L 33.59375 7.515625 
L 32.078125 0 
L 23.484375 0 
Q 15.484375 0 11.546875 3.125 
Q 7.625 6.25 7.625 12.59375 
Q 7.625 13.71875 7.765625 15.0625 
Q 7.90625 16.40625 8.203125 18.015625 
L 14.015625 47.703125 
L 6.390625 47.703125 
L 7.8125 54.6875 
L 15.28125 54.6875 
L 18.3125 70.21875 
L 27.296875 70.21875 
L 24.3125 54.6875 
z
" id="DejaVuSans-Oblique-74"/>
      <path d="M 25.390625 72.90625 
L 33.6875 72.90625 
L 8.296875 -9.28125 
L 0 -9.28125 
z
" id="DejaVuSans-2f"/>
      <path d="M 32.859375 9.96875 
Q 34.1875 7.625 39.453125 7.625 
L 43.75 7.625 
L 42.28125 0 
L 36.921875 0 
Q 28.125 0 25 4.6875 
Q 21.921875 9.46875 23.96875 19.828125 
L 29 45.703125 
L 8.453125 45.703125 
L 10.203125 54.6875 
L 60.640625 54.6875 
L 58.890625 45.703125 
L 38.1875 45.703125 
L 33.015625 19.28125 
Q 31.640625 12.203125 32.859375 9.96875 
z
" id="DejaVuSans-Oblique-3c4"/>
     </defs>
     <g transform="translate(200.852717 273.854062)scale(0.2 -0.2)">
      <use transform="translate(0 0.09375)" xlink:href="#DejaVuSans-Oblique-74"/>
      <use transform="translate(39.208984 0.09375)" xlink:href="#DejaVuSans-2f"/>
      <use transform="translate(72.900391 0.09375)" xlink:href="#DejaVuSans-Oblique-3c4"/>
     </g>
    </g>
   </g>
   <g id="matplotlib.axis_2">
    <g id="ytick_1">
     <g id="line2d_23">
      <path clip-path="url(#p82831ae314)" d="M 68.6875 230.64 
L 359.817935 230.64 
" style="fill:none;stroke:#b0b0b0;stroke-linecap:square;stroke-width:0.8;"/>
     </g>
     <g id="line2d_24">
      <defs>
       <path d="M 0 0 
L -6 0 
" id="m16b39c0635"/>
      </defs>
      <g>
       <use x="68.6875" xlink:href="#m16b39c0635" y="230.64"/>
      </g>
     </g>
     <g id="text_13">
      <!-- 0 -->
      <g transform="translate(49.64375 236.338828)scale(0.15 -0.15)">
       <use xlink:href="#DejaVuSans-30"/>
      </g>
     </g>
    </g>
    <g id="ytick_2">
     <g id="line2d_25">
      <path clip-path="url(#p82831ae314)" d="M 68.6875 195.189599 
L 359.817935 195.189599 
" style="fill:none;stroke:#b0b0b0;stroke-linecap:square;stroke-width:0.8;"/>
     </g>
     <g id="line2d_26">
      <g>
       <use x="68.6875" xlink:href="#m16b39c0635" y="195.189599"/>
      </g>
     </g>
     <g id="text_14">
      <!-- 50 -->
      <g transform="translate(40.1 200.888427)scale(0.15 -0.15)">
       <use xlink:href="#DejaVuSans-35"/>
       <use x="63.623047" xlink:href="#DejaVuSans-30"/>
      </g>
     </g>
    </g>
    <g id="ytick_3">
     <g id="line2d_27">
      <path clip-path="url(#p82831ae314)" d="M 68.6875 159.739197 
L 359.817935 159.739197 
" style="fill:none;stroke:#b0b0b0;stroke-linecap:square;stroke-width:0.8;"/>
     </g>
     <g id="line2d_28">
      <g>
       <use x="68.6875" xlink:href="#m16b39c0635" y="159.739197"/>
      </g>
     </g>
     <g id="text_15">
      <!-- 100 -->
      <g transform="translate(30.55625 165.438025)scale(0.15 -0.15)">
       <use xlink:href="#DejaVuSans-31"/>
       <use x="63.623047" xlink:href="#DejaVuSans-30"/>
       <use x="127.246094" xlink:href="#DejaVuSans-30"/>
      </g>
     </g>
    </g>
    <g id="ytick_4">
     <g id="line2d_29">
      <path clip-path="url(#p82831ae314)" d="M 68.6875 124.288796 
L 359.817935 124.288796 
" style="fill:none;stroke:#b0b0b0;stroke-linecap:square;stroke-width:0.8;"/>
     </g>
     <g id="line2d_30">
      <g>
       <use x="68.6875" xlink:href="#m16b39c0635" y="124.288796"/>
      </g>
     </g>
     <g id="text_16">
      <!-- 150 -->
      <g transform="translate(30.55625 129.987624)scale(0.15 -0.15)">
       <use xlink:href="#DejaVuSans-31"/>
       <use x="63.623047" xlink:href="#DejaVuSans-35"/>
       <use x="127.246094" xlink:href="#DejaVuSans-30"/>
      </g>
     </g>
    </g>
    <g id="ytick_5">
     <g id="line2d_31">
      <path clip-path="url(#p82831ae314)" d="M 68.6875 88.838394 
L 359.817935 88.838394 
" style="fill:none;stroke:#b0b0b0;stroke-linecap:square;stroke-width:0.8;"/>
     </g>
     <g id="line2d_32">
      <g>
       <use x="68.6875" xlink:href="#m16b39c0635" y="88.838394"/>
      </g>
     </g>
     <g id="text_17">
      <!-- 200 -->
      <g transform="translate(30.55625 94.537223)scale(0.15 -0.15)">
       <use xlink:href="#DejaVuSans-32"/>
       <use x="63.623047" xlink:href="#DejaVuSans-30"/>
       <use x="127.246094" xlink:href="#DejaVuSans-30"/>
      </g>
     </g>
    </g>
    <g id="ytick_6">
     <g id="line2d_33">
      <path clip-path="url(#p82831ae314)" d="M 68.6875 53.387993 
L 359.817935 53.387993 
" style="fill:none;stroke:#b0b0b0;stroke-linecap:square;stroke-width:0.8;"/>
     </g>
     <g id="line2d_34">
      <g>
       <use x="68.6875" xlink:href="#m16b39c0635" y="53.387993"/>
      </g>
     </g>
     <g id="text_18">
      <!-- 250 -->
      <g transform="translate(30.55625 59.086821)scale(0.15 -0.15)">
       <use xlink:href="#DejaVuSans-32"/>
       <use x="63.623047" xlink:href="#DejaVuSans-35"/>
       <use x="127.246094" xlink:href="#DejaVuSans-30"/>
      </g>
     </g>
    </g>
    <g id="ytick_7">
     <g id="line2d_35">
      <path clip-path="url(#p82831ae314)" d="M 68.6875 17.937592 
L 359.817935 17.937592 
" style="fill:none;stroke:#b0b0b0;stroke-linecap:square;stroke-width:0.8;"/>
     </g>
     <g id="line2d_36">
      <g>
       <use x="68.6875" xlink:href="#m16b39c0635" y="17.937592"/>
      </g>
     </g>
     <g id="text_19">
      <!-- 300 -->
      <g transform="translate(30.55625 23.63642)scale(0.15 -0.15)">
       <use xlink:href="#DejaVuSans-33"/>
       <use x="63.623047" xlink:href="#DejaVuSans-30"/>
       <use x="127.246094" xlink:href="#DejaVuSans-30"/>
      </g>
     </g>
    </g>
    <g id="text_20">
     <!-- Protein number -->
     <defs>
      <path d="M 19.671875 64.796875 
L 19.671875 37.40625 
L 32.078125 37.40625 
Q 38.96875 37.40625 42.71875 40.96875 
Q 46.484375 44.53125 46.484375 51.125 
Q 46.484375 57.671875 42.71875 61.234375 
Q 38.96875 64.796875 32.078125 64.796875 
z
M 9.8125 72.90625 
L 32.078125 72.90625 
Q 44.34375 72.90625 50.609375 67.359375 
Q 56.890625 61.8125 56.890625 51.125 
Q 56.890625 40.328125 50.609375 34.8125 
Q 44.34375 29.296875 32.078125 29.296875 
L 19.671875 29.296875 
L 19.671875 0 
L 9.8125 0 
z
" id="DejaVuSans-50"/>
      <path d="M 41.109375 46.296875 
Q 39.59375 47.171875 37.8125 47.578125 
Q 36.03125 48 33.890625 48 
Q 26.265625 48 22.1875 43.046875 
Q 18.109375 38.09375 18.109375 28.8125 
L 18.109375 0 
L 9.078125 0 
L 9.078125 54.6875 
L 18.109375 54.6875 
L 18.109375 46.1875 
Q 20.953125 51.171875 25.484375 53.578125 
Q 30.03125 56 36.53125 56 
Q 37.453125 56 38.578125 55.875 
Q 39.703125 55.765625 41.0625 55.515625 
z
" id="DejaVuSans-72"/>
      <path d="M 30.609375 48.390625 
Q 23.390625 48.390625 19.1875 42.75 
Q 14.984375 37.109375 14.984375 27.296875 
Q 14.984375 17.484375 19.15625 11.84375 
Q 23.34375 6.203125 30.609375 6.203125 
Q 37.796875 6.203125 41.984375 11.859375 
Q 46.1875 17.53125 46.1875 27.296875 
Q 46.1875 37.015625 41.984375 42.703125 
Q 37.796875 48.390625 30.609375 48.390625 
z
M 30.609375 56 
Q 42.328125 56 49.015625 48.375 
Q 55.71875 40.765625 55.71875 27.296875 
Q 55.71875 13.875 49.015625 6.21875 
Q 42.328125 -1.421875 30.609375 -1.421875 
Q 18.84375 -1.421875 12.171875 6.21875 
Q 5.515625 13.875 5.515625 27.296875 
Q 5.515625 40.765625 12.171875 48.375 
Q 18.84375 56 30.609375 56 
z
" id="DejaVuSans-6f"/>
      <path d="M 18.3125 70.21875 
L 18.3125 54.6875 
L 36.8125 54.6875 
L 36.8125 47.703125 
L 18.3125 47.703125 
L 18.3125 18.015625 
Q 18.3125 11.328125 20.140625 9.421875 
Q 21.96875 7.515625 27.59375 7.515625 
L 36.8125 7.515625 
L 36.8125 0 
L 27.59375 0 
Q 17.1875 0 13.234375 3.875 
Q 9.28125 7.765625 9.28125 18.015625 
L 9.28125 47.703125 
L 2.6875 47.703125 
L 2.6875 54.6875 
L 9.28125 54.6875 
L 9.28125 70.21875 
z
" id="DejaVuSans-74"/>
      <path d="M 56.203125 29.59375 
L 56.203125 25.203125 
L 14.890625 25.203125 
Q 15.484375 15.921875 20.484375 11.0625 
Q 25.484375 6.203125 34.421875 6.203125 
Q 39.59375 6.203125 44.453125 7.46875 
Q 49.3125 8.734375 54.109375 11.28125 
L 54.109375 2.78125 
Q 49.265625 0.734375 44.1875 -0.34375 
Q 39.109375 -1.421875 33.890625 -1.421875 
Q 20.796875 -1.421875 13.15625 6.1875 
Q 5.515625 13.8125 5.515625 26.8125 
Q 5.515625 40.234375 12.765625 48.109375 
Q 20.015625 56 32.328125 56 
Q 43.359375 56 49.78125 48.890625 
Q 56.203125 41.796875 56.203125 29.59375 
z
M 47.21875 32.234375 
Q 47.125 39.59375 43.09375 43.984375 
Q 39.0625 48.390625 32.421875 48.390625 
Q 24.90625 48.390625 20.390625 44.140625 
Q 15.875 39.890625 15.1875 32.171875 
z
" id="DejaVuSans-65"/>
      <path d="M 9.421875 54.6875 
L 18.40625 54.6875 
L 18.40625 0 
L 9.421875 0 
z
M 9.421875 75.984375 
L 18.40625 75.984375 
L 18.40625 64.59375 
L 9.421875 64.59375 
z
" id="DejaVuSans-69"/>
      <path d="M 54.890625 33.015625 
L 54.890625 0 
L 45.90625 0 
L 45.90625 32.71875 
Q 45.90625 40.484375 42.875 44.328125 
Q 39.84375 48.1875 33.796875 48.1875 
Q 26.515625 48.1875 22.3125 43.546875 
Q 18.109375 38.921875 18.109375 30.90625 
L 18.109375 0 
L 9.078125 0 
L 9.078125 54.6875 
L 18.109375 54.6875 
L 18.109375 46.1875 
Q 21.34375 51.125 25.703125 53.5625 
Q 30.078125 56 35.796875 56 
Q 45.21875 56 50.046875 50.171875 
Q 54.890625 44.34375 54.890625 33.015625 
z
" id="DejaVuSans-6e"/>
      <path id="DejaVuSans-20"/>
      <path d="M 8.5 21.578125 
L 8.5 54.6875 
L 17.484375 54.6875 
L 17.484375 21.921875 
Q 17.484375 14.15625 20.5 10.265625 
Q 23.53125 6.390625 29.59375 6.390625 
Q 36.859375 6.390625 41.078125 11.03125 
Q 45.3125 15.671875 45.3125 23.6875 
L 45.3125 54.6875 
L 54.296875 54.6875 
L 54.296875 0 
L 45.3125 0 
L 45.3125 8.40625 
Q 42.046875 3.421875 37.71875 1 
Q 33.40625 -1.421875 27.6875 -1.421875 
Q 18.265625 -1.421875 13.375 4.4375 
Q 8.5 10.296875 8.5 21.578125 
z
M 31.109375 56 
z
" id="DejaVuSans-75"/>
      <path d="M 52 44.1875 
Q 55.375 50.25 60.0625 53.125 
Q 64.75 56 71.09375 56 
Q 79.640625 56 84.28125 50.015625 
Q 88.921875 44.046875 88.921875 33.015625 
L 88.921875 0 
L 79.890625 0 
L 79.890625 32.71875 
Q 79.890625 40.578125 77.09375 44.375 
Q 74.3125 48.1875 68.609375 48.1875 
Q 61.625 48.1875 57.5625 43.546875 
Q 53.515625 38.921875 53.515625 30.90625 
L 53.515625 0 
L 44.484375 0 
L 44.484375 32.71875 
Q 44.484375 40.625 41.703125 44.40625 
Q 38.921875 48.1875 33.109375 48.1875 
Q 26.21875 48.1875 22.15625 43.53125 
Q 18.109375 38.875 18.109375 30.90625 
L 18.109375 0 
L 9.078125 0 
L 9.078125 54.6875 
L 18.109375 54.6875 
L 18.109375 46.1875 
Q 21.1875 51.21875 25.484375 53.609375 
Q 29.78125 56 35.6875 56 
Q 41.65625 56 45.828125 52.96875 
Q 50 49.953125 52 44.1875 
z
" id="DejaVuSans-6d"/>
      <path d="M 48.6875 27.296875 
Q 48.6875 37.203125 44.609375 42.84375 
Q 40.53125 48.484375 33.40625 48.484375 
Q 26.265625 48.484375 22.1875 42.84375 
Q 18.109375 37.203125 18.109375 27.296875 
Q 18.109375 17.390625 22.1875 11.75 
Q 26.265625 6.109375 33.40625 6.109375 
Q 40.53125 6.109375 44.609375 11.75 
Q 48.6875 17.390625 48.6875 27.296875 
z
M 18.109375 46.390625 
Q 20.953125 51.265625 25.265625 53.625 
Q 29.59375 56 35.59375 56 
Q 45.5625 56 51.78125 48.09375 
Q 58.015625 40.1875 58.015625 27.296875 
Q 58.015625 14.40625 51.78125 6.484375 
Q 45.5625 -1.421875 35.59375 -1.421875 
Q 29.59375 -1.421875 25.265625 0.953125 
Q 20.953125 3.328125 18.109375 8.203125 
L 18.109375 0 
L 9.078125 0 
L 9.078125 75.984375 
L 18.109375 75.984375 
z
" id="DejaVuSans-62"/>
     </defs>
     <g transform="translate(22.396875 199.57)rotate(-90)scale(0.2 -0.2)">
      <use xlink:href="#DejaVuSans-50"/>
      <use x="60.287109" xlink:href="#DejaVuSans-72"/>
      <use x="101.369141" xlink:href="#DejaVuSans-6f"/>
      <use x="162.550781" xlink:href="#DejaVuSans-74"/>
      <use x="201.759766" xlink:href="#DejaVuSans-65"/>
      <use x="263.283203" xlink:href="#DejaVuSans-69"/>
      <use x="291.066406" xlink:href="#DejaVuSans-6e"/>
      <use x="354.445312" xlink:href="#DejaVuSans-20"/>
      <use x="386.232422" xlink:href="#DejaVuSans-6e"/>
      <use x="449.611328" xlink:href="#DejaVuSans-75"/>
      <use x="512.990234" xlink:href="#DejaVuSans-6d"/>
      <use x="610.402344" xlink:href="#DejaVuSans-62"/>
      <use x="673.878906" xlink:href="#DejaVuSans-65"/>
      <use x="735.402344" xlink:href="#DejaVuSans-72"/>
     </g>
    </g>
   </g>
   <g id="line2d_37">
    <path clip-path="url(#p82831ae314)" d="M 68.860168 195.189599 
L 71.936198 191.644558 
L 75.24668 185.263486 
L 78.662446 181.009438 
L 81.744877 175.337374 
L 85.152536 168.247294 
L 88.195146 161.157213 
L 91.633192 155.485149 
L 94.75133 146.268045 
L 97.916354 183.84547 
L 101.358549 180.30043 
L 104.355977 175.337374 
L 107.761298 171.792334 
L 110.779345 167.538286 
L 114.010236 162.575229 
L 117.226098 155.485149 
L 120.558169 146.268045 
L 123.774356 139.177964 
L 126.972517 131.378876 
L 130.254902 124.997804 
L 133.652079 115.780699 
L 136.673094 171.792334 
L 140.119179 168.247294 
L 143.394968 160.448205 
L 146.890925 155.485149 
L 149.567101 147.686061 
L 152.994935 136.341932 
L 156.302988 128.542844 
L 159.544376 171.792334 
L 162.511384 162.575229 
L 165.856366 155.485149 
L 169.416652 151.940109 
L 172.352267 146.977053 
L 175.524487 139.177964 
L 178.676014 127.124828 
L 181.915832 117.907724 
L 185.147056 101.600539 
L 188.420104 87.420378 
L 191.722968 154.067133 
L 195.249096 150.522093 
L 198.601807 146.268045 
L 201.368132 142.013997 
L 204.611596 136.341932 
L 207.785185 125.706812 
L 211.078653 167.538286 
L 214.319333 161.157213 
L 217.584107 157.612173 
L 220.923954 156.194157 
L 224.100866 154.776141 
L 227.222284 149.813085 
L 230.439378 146.977053 
L 233.850845 139.886972 
L 236.957443 183.136462 
L 240.18934 178.173406 
L 243.473611 175.337374 
L 246.609075 171.083326 
L 250.011177 165.411261 
L 253.374754 153.358125 
L 256.31156 145.559037 
L 259.615971 139.177964 
L 262.803391 134.214908 
L 266.232945 123.579788 
L 269.323846 171.792334 
L 272.489254 163.993245 
L 275.724545 159.739197 
L 278.985599 153.358125 
L 282.258598 147.686061 
L 285.474705 139.177964 
L 289.165806 128.542844 
L 291.968023 117.907724 
L 295.572317 108.690619 
L 298.559907 98.764507 
L 301.845552 93.092443 
L 304.834592 169.66531 
L 308.07158 154.776141 
L 311.690539 142.723005 
L 314.753228 137.05094 
L 317.947112 130.669868 
L 321.236049 113.653675 
L 324.594115 103.727563 
L 327.84801 98.764507 
L 331.170149 86.71137 
L 334.463329 81.748314 
L 337.466774 149.104077 
L 341.539426 145.559037 
L 343.70963 143.432013 
L 347.515576 136.341932 
L 350.211006 132.087884 
L 353.542914 127.833836 
L 356.798763 121.452764 
" style="fill:none;stroke:#4be000;stroke-linecap:square;stroke-width:1.5;"/>
   </g>
   <g id="line2d_38">
    <path clip-path="url(#p82831ae314)" d="M 68.860168 195.189599 
L 71.936198 190.93555 
L 75.24668 189.517534 
L 78.662446 181.009438 
L 81.744877 166.829277 
L 85.152536 153.358125 
L 88.195146 134.923916 
L 91.633192 119.32574 
L 94.75133 103.727563 
L 97.916354 91.674427 
L 101.358549 156.903165 
L 104.355977 152.649117 
L 107.761298 145.559037 
L 110.779345 134.214908 
L 114.010236 131.378876 
L 117.226098 122.87078 
L 120.558169 115.071691 
L 123.774356 100.891531 
L 126.972517 84.584346 
L 130.254902 73.949226 
L 133.652079 149.813085 
L 136.673094 145.559037 
L 140.119179 139.886972 
L 143.394968 129.96086 
L 146.890925 123.579788 
L 149.567101 117.198716 
L 152.994935 109.399627 
L 156.302988 99.473515 
L 159.544376 165.411261 
L 162.511384 160.448205 
L 165.856366 154.776141 
L 169.416652 149.813085 
L 172.352267 147.686061 
L 175.524487 135.632924 
L 178.676014 131.378876 
L 181.915832 122.87078 
L 185.147056 179.591422 
L 188.420104 176.75539 
L 191.722968 171.083326 
L 195.249096 160.448205 
L 198.601807 146.977053 
L 201.368132 142.013997 
L 204.611596 188.099518 
L 207.785185 184.554478 
L 211.078653 179.591422 
L 214.319333 173.919358 
L 217.584107 169.66531 
L 220.923954 163.993245 
L 224.100866 158.321181 
L 227.222284 154.067133 
L 230.439378 150.522093 
L 233.850845 146.268045 
L 236.957443 140.59598 
L 240.18934 182.427454 
L 243.473611 176.75539 
L 246.609075 166.829277 
L 250.011177 161.157213 
L 253.374754 161.157213 
L 256.31156 153.358125 
L 259.615971 146.977053 
L 262.803391 137.759948 
L 266.232945 180.30043 
L 269.323846 173.919358 
L 272.489254 164.702253 
L 275.724545 156.903165 
L 278.985599 149.104077 
L 282.258598 136.341932 
L 285.474705 129.96086 
L 289.165806 117.198716 
L 291.968023 112.235659 
L 295.572317 103.018555 
L 298.559907 163.284237 
L 301.845552 156.194157 
L 304.834592 147.686061 
L 308.07158 145.559037 
L 311.690539 134.923916 
L 314.753228 124.288796 
L 317.947112 117.907724 
L 321.236049 170.374318 
L 324.594115 165.411261 
L 327.84801 157.612173 
L 331.170149 150.522093 
L 334.463329 141.304988 
L 337.466774 135.632924 
L 341.539426 129.251852 
L 343.70963 124.997804 
L 347.515576 115.071691 
L 350.211006 112.235659 
L 353.542914 102.309547 
L 356.798763 95.928475 
" style="fill:none;stroke:#4be000;stroke-linecap:square;stroke-width:1.5;"/>
   </g>
   <g id="line2d_39">
    <path clip-path="url(#p82831ae314)" d="M 68.860168 195.189599 
L 71.936198 188.099518 
L 75.24668 177.464398 
L 78.662446 169.66531 
L 81.744877 160.448205 
L 85.152536 154.067133 
L 88.195146 143.432013 
L 91.633192 136.341932 
L 94.75133 180.30043 
L 97.916354 178.173406 
L 101.358549 173.919358 
L 104.355977 168.247294 
L 107.761298 161.866221 
L 110.779345 156.194157 
L 114.010236 144.141021 
L 117.226098 134.923916 
L 120.558169 127.833836 
L 123.774356 115.780699 
L 126.972517 109.399627 
L 130.254902 165.411261 
L 133.652079 157.612173 
L 136.673094 154.067133 
L 140.119179 148.395069 
L 143.394968 137.759948 
L 146.890925 128.542844 
L 149.567101 115.780699 
L 152.994935 105.854587 
L 156.302988 92.383435 
L 159.544376 78.912282 
L 162.511384 158.321181 
L 165.856366 151.231101 
L 169.416652 143.432013 
L 172.352267 134.923916 
L 175.524487 128.542844 
L 178.676014 123.579788 
L 181.915832 173.919358 
L 185.147056 164.702253 
L 188.420104 161.866221 
L 191.722968 158.321181 
L 195.249096 156.903165 
L 198.601807 150.522093 
L 201.368132 144.141021 
L 204.611596 133.5059 
L 207.785185 127.124828 
L 211.078653 117.907724 
L 214.319333 107.981611 
L 217.584107 93.092443 
L 220.923954 154.067133 
L 224.100866 146.977053 
L 227.222284 139.177964 
L 230.439378 130.669868 
L 233.850845 121.452764 
L 236.957443 114.362683 
L 240.18934 100.182523 
L 243.473611 88.129386 
L 246.609075 74.658234 
L 250.011177 64.732121 
L 253.374754 146.977053 
L 256.31156 140.59598 
L 259.615971 133.5059 
L 262.803391 128.542844 
L 266.232945 122.87078 
L 269.323846 112.235659 
L 272.489254 95.219467 
L 275.724545 85.293354 
L 278.985599 73.949226 
L 282.258598 141.304988 
L 285.474705 137.05094 
L 289.165806 130.669868 
L 291.968023 125.706812 
L 295.572317 119.32574 
L 298.559907 112.235659 
L 301.845552 170.374318 
L 304.834592 161.157213 
L 308.07158 154.067133 
L 311.690539 145.559037 
L 314.753228 137.05094 
L 317.947112 129.96086 
L 321.236049 120.034748 
L 324.594115 111.526651 
L 327.84801 101.600539 
L 331.170149 163.284237 
L 334.463329 160.448205 
L 337.466774 153.358125 
L 341.539426 145.559037 
L 343.70963 139.886972 
L 347.515576 183.136462 
L 350.211006 181.009438 
L 353.542914 178.173406 
L 356.798763 176.046382 
" style="fill:none;stroke:#4be000;stroke-linecap:square;stroke-width:1.5;"/>
   </g>
   <g id="line2d_40">
    <path clip-path="url(#p82831ae314)" d="M 68.860168 195.189599 
L 71.936198 190.93555 
L 75.24668 186.681502 
L 78.662446 183.84547 
L 81.744877 178.882414 
L 85.152536 174.628366 
L 88.195146 168.247294 
L 91.633192 160.448205 
L 94.75133 152.649117 
L 97.916354 142.723005 
L 101.358549 137.759948 
L 104.355977 127.124828 
L 107.761298 112.944667 
L 110.779345 99.473515 
L 114.010236 155.485149 
L 117.226098 144.850029 
L 120.558169 137.05094 
L 123.774356 124.288796 
L 126.972517 115.071691 
L 130.254902 101.600539 
L 133.652079 87.420378 
L 136.673094 151.231101 
L 140.119179 144.141021 
L 143.394968 135.632924 
L 146.890925 127.124828 
L 149.567101 121.452764 
L 152.994935 111.526651 
L 156.302988 97.346491 
L 159.544376 86.71137 
L 162.511384 83.16633 
L 165.856366 150.522093 
L 169.416652 145.559037 
L 172.352267 139.177964 
L 175.524487 132.087884 
L 178.676014 126.41582 
L 181.915832 116.489708 
L 185.147056 107.981611 
L 188.420104 95.928475 
L 191.722968 161.157213 
L 195.249096 158.321181 
L 198.601807 151.231101 
L 201.368132 146.977053 
L 204.611596 137.05094 
L 207.785185 127.833836 
L 211.078653 118.616732 
L 214.319333 109.399627 
L 217.584107 103.018555 
L 220.923954 155.485149 
L 224.100866 148.395069 
L 227.222284 142.013997 
L 230.439378 131.378876 
L 233.850845 123.579788 
L 236.957443 119.32574 
L 240.18934 171.083326 
L 243.473611 162.575229 
L 246.609075 156.194157 
L 250.011177 154.067133 
L 253.374754 149.104077 
L 256.31156 144.141021 
L 259.615971 136.341932 
L 262.803391 129.251852 
L 266.232945 122.87078 
L 269.323846 114.362683 
L 272.489254 103.727563 
L 275.724545 94.510459 
L 278.985599 148.395069 
L 282.258598 144.850029 
L 285.474705 135.632924 
L 289.165806 127.124828 
L 291.968023 117.907724 
L 295.572317 109.399627 
L 298.559907 98.055499 
L 301.845552 86.71137 
L 304.834592 75.367242 
L 308.07158 143.432013 
L 311.690539 137.759948 
L 314.753228 131.378876 
L 317.947112 122.161772 
L 321.236049 110.108635 
L 324.594115 100.182523 
L 327.84801 90.965419 
L 331.170149 143.432013 
L 334.463329 137.759948 
L 337.466774 129.251852 
L 341.539426 121.452764 
L 343.70963 114.362683 
L 347.515576 106.563595 
L 350.211006 99.473515 
L 353.542914 93.801451 
L 356.798763 85.293354 
" style="fill:none;stroke:#4be000;stroke-linecap:square;stroke-width:1.5;"/>
   </g>
   <g id="line2d_41">
    <path clip-path="url(#p82831ae314)" d="M 68.860168 194.480591 
L 71.936198 191.644558 
L 75.24668 185.972494 
L 78.662446 178.173406 
L 81.744877 171.083326 
L 85.152536 167.538286 
L 88.195146 163.284237 
L 91.633192 153.358125 
L 94.75133 144.850029 
L 97.916354 134.214908 
L 101.358549 173.21035 
L 104.355977 168.247294 
L 107.761298 161.157213 
L 110.779345 151.231101 
L 114.010236 143.432013 
L 117.226098 139.177964 
L 120.558169 129.96086 
L 123.774356 164.702253 
L 126.972517 162.575229 
L 130.254902 160.448205 
L 133.652079 154.776141 
L 136.673094 144.850029 
L 140.119179 132.796892 
L 143.394968 129.96086 
L 146.890925 117.907724 
L 149.567101 108.690619 
L 152.994935 100.891531 
L 156.302988 149.813085 
L 159.544376 142.013997 
L 162.511384 134.923916 
L 165.856366 131.378876 
L 169.416652 124.997804 
L 172.352267 120.034748 
L 175.524487 110.108635 
L 178.676014 174.628366 
L 181.915832 171.083326 
L 185.147056 167.538286 
L 188.420104 166.120269 
L 191.722968 155.485149 
L 195.249096 144.850029 
L 198.601807 137.759948 
L 201.368132 180.30043 
L 204.611596 175.337374 
L 207.785185 171.083326 
L 211.078653 167.538286 
L 214.319333 165.411261 
L 217.584107 159.739197 
L 220.923954 152.649117 
L 224.100866 147.686061 
L 227.222284 139.886972 
L 230.439378 173.919358 
L 233.850845 167.538286 
L 236.957443 164.702253 
L 240.18934 163.284237 
L 243.473611 159.739197 
L 246.609075 151.940109 
L 250.011177 143.432013 
L 253.374754 138.468956 
L 256.31156 130.669868 
L 259.615971 124.288796 
L 262.803391 117.907724 
L 266.232945 112.944667 
L 269.323846 171.083326 
L 272.489254 164.702253 
L 275.724545 162.575229 
L 278.985599 157.612173 
L 282.258598 153.358125 
L 285.474705 146.268045 
L 289.165806 142.013997 
L 291.968023 136.341932 
L 295.572317 126.41582 
L 298.559907 116.489708 
L 301.845552 104.436571 
L 304.834592 158.321181 
L 308.07158 149.104077 
L 311.690539 142.013997 
L 314.753228 134.214908 
L 317.947112 121.452764 
L 321.236049 110.108635 
L 324.594115 162.575229 
L 327.84801 153.358125 
L 331.170149 147.686061 
L 334.463329 142.723005 
L 337.466774 136.341932 
L 341.539426 129.96086 
L 343.70963 123.579788 
L 347.515576 119.32574 
L 350.211006 114.362683 
L 353.542914 112.235659 
L 356.798763 156.903165 
" style="fill:none;stroke:#4be000;stroke-linecap:square;stroke-width:1.5;"/>
   </g>
   <g id="line2d_42">
    <path clip-path="url(#p82831ae314)" d="M 68.860168 194.942155 
L 71.936198 191.416258 
L 75.24668 186.739641 
L 78.662446 181.088847 
L 81.744877 174.843195 
L 85.152536 168.484102 
L 88.195146 162.31006 
L 91.633192 157.873797 
L 94.75133 156.581275 
L 97.916354 157.441302 
L 101.358549 158.710427 
L 104.355977 160.118517 
L 107.761298 158.141802 
L 110.779345 154.106837 
L 114.010236 148.933206 
L 117.226098 143.924064 
L 120.558169 140.076278 
L 123.774356 140.161359 
L 126.972517 142.098368 
L 130.254902 144.937237 
L 133.652079 147.047245 
L 136.673094 146.555193 
L 140.119179 143.510003 
L 143.394968 138.773121 
L 146.890925 133.965337 
L 149.567101 131.868092 
L 152.994935 132.488474 
L 156.302988 134.410594 
L 159.544376 137.884025 
L 162.511384 140.111019 
L 165.856366 140.125199 
L 169.416652 138.174009 
L 172.352267 133.795175 
L 175.524487 128.909401 
L 178.676014 127.326895 
L 181.915832 127.45948 
L 185.147056 130.077846 
L 188.420104 134.922498 
L 191.722968 138.236402 
L 195.249096 137.521013 
L 198.601807 133.683152 
L 201.368132 129.611319 
L 204.611596 126.995079 
L 207.785185 124.840404 
L 211.078653 125.192781 
L 214.319333 128.96045 
L 217.584107 132.050307 
L 220.923954 134.517655 
L 224.100866 135.529409 
L 227.222284 132.947202 
L 230.439378 128.600983 
L 233.850845 125.190654 
L 236.957443 123.173526 
L 240.18934 122.495715 
L 243.473611 125.764951 
L 246.609075 129.523402 
L 250.011177 134.538925 
L 253.374754 135.316707 
L 256.31156 132.903243 
L 259.615971 128.093333 
L 262.803391 123.861264 
L 266.232945 121.92 
L 269.323846 123.844957 
L 272.489254 127.027694 
L 275.724545 131.16901 
L 278.985599 133.78454 
L 282.258598 133.40593 
L 285.474705 131.505789 
L 289.165806 127.690616 
L 291.968023 123.903095 
L 295.572317 122.380146 
L 298.559907 123.496834 
L 301.845552 127.482168 
L 304.834592 131.349807 
L 308.07158 133.702295 
L 311.690539 134.758008 
L 314.753228 132.700467 
L 317.947112 128.678265 
L 321.236049 124.84324 
L 324.594115 123.359995 
L 327.84801 123.49967 
L 331.170149 127.182258 
L 334.463329 130.142366 
L 337.466774 134.207109 
L 341.539426 134.91399 
L 343.70963 132.680615 
L 347.515576 128.481869 
L 350.211006 124.81488 
L 353.542914 122.000118 
L 356.798763 124.041352 
" style="fill:none;stroke:#3bb000;stroke-linecap:square;stroke-width:3;"/>
   </g>
   <g id="patch_3">
    <path d="M 68.6875 230.64 
L 68.6875 13.2 
" style="fill:none;stroke:#000000;stroke-linecap:square;stroke-linejoin:miter;stroke-width:2;"/>
   </g>
   <g id="patch_4">
    <path d="M 359.817935 230.64 
L 359.817935 13.2 
" style="fill:none;"/>
   </g>
   <g id="patch_5">
    <path d="M 68.6875 230.64 
L 359.817935 230.64 
" style="fill:none;stroke:#000000;stroke-linecap:square;stroke-linejoin:miter;stroke-width:2;"/>
   </g>
   <g id="patch_6">
    <path d="M 68.6875 13.2 
L 359.817935 13.2 
" style="fill:none;"/>
   </g>
  </g>
  <g id="axes_2">
   <g id="patch_7">
    <path d="M 447.157065 230.64 
L 738.2875 230.64 
L 738.2875 13.2 
L 447.157065 13.2 
z
" style="fill:#ffffff;"/>
   </g>
   <g id="PolyCollection_2">
    <defs>
     <path d="M 447.329733 -54.691405 
L 447.329733 -54.671366 
L 450.405763 -56.912263 
L 453.716245 -59.73947 
L 457.132011 -63.220041 
L 460.214442 -66.82553 
L 463.622102 -74.700033 
L 466.664711 -88.992151 
L 470.102757 -118.203847 
L 473.220895 -162.407095 
L 476.38592 -201.886095 
L 479.828114 -210.440468 
L 482.825542 -178.010855 
L 486.230863 -131.938746 
L 489.24891 -103.30317 
L 492.479802 -91.429753 
L 495.695663 -107.125405 
L 499.027735 -130.264077 
L 502.243921 -166.928773 
L 505.442083 -195.086123 
L 508.724467 -202.326614 
L 512.121644 -184.004128 
L 515.142659 -137.617863 
L 518.588744 -105.501788 
L 521.864534 -98.136907 
L 525.36049 -109.016795 
L 528.036666 -134.984065 
L 531.4645 -167.360594 
L 534.772553 -194.086822 
L 538.013941 -204.167942 
L 540.980949 -188.773225 
L 544.325931 -148.60607 
L 547.886217 -110.959214 
L 550.821832 -94.075281 
L 553.994052 -107.610285 
L 557.145579 -134.07783 
L 560.385397 -163.783182 
L 563.616621 -197.153514 
L 566.889669 -206.734955 
L 570.192533 -181.229325 
L 573.718661 -142.642852 
L 577.071372 -117.847345 
L 579.837697 -103.681279 
L 583.081161 -106.296049 
L 586.25475 -127.881513 
L 589.548218 -159.706565 
L 592.788898 -189.360075 
L 596.053672 -200.128948 
L 599.393519 -185.245983 
L 602.570431 -147.617439 
L 605.691849 -113.009696 
L 608.908943 -103.343007 
L 612.320411 -104.60125 
L 615.427008 -126.19649 
L 618.658905 -155.198471 
L 621.943176 -188.663405 
L 625.07864 -203.674992 
L 628.480742 -180.446247 
L 631.84432 -141.7237 
L 634.781126 -110.054476 
L 638.085536 -102.715847 
L 641.272956 -112.297085 
L 644.70251 -130.91353 
L 647.793411 -162.661474 
L 650.95882 -189.047419 
L 654.19411 -199.214477 
L 657.455164 -176.161474 
L 660.728163 -147.785344 
L 663.94427 -108.922044 
L 667.635371 -96.86828 
L 670.437588 -111.069657 
L 674.041883 -132.650672 
L 677.029472 -166.033804 
L 680.315118 -196.364197 
L 683.304157 -203.676377 
L 686.541145 -182.734284 
L 690.160104 -144.384245 
L 693.222793 -108.882327 
L 696.416677 -107.18167 
L 699.705614 -109.779719 
L 703.063681 -135.249507 
L 706.317575 -167.157973 
L 709.639714 -199.994774 
L 712.932894 -205.230746 
L 715.936339 -191.773012 
L 720.008991 -147.328846 
L 722.179195 -111.181568 
L 725.985141 -102.130302 
L 728.680572 -111.169648 
L 732.012479 -129.925422 
L 735.268328 -165.669218 
L 735.268328 -199.495623 
L 735.268328 -199.495623 
L 732.012479 -151.423858 
L 728.680572 -126.65518 
L 725.985141 -114.844951 
L 722.179195 -126.670811 
L 720.008991 -174.695846 
L 715.936339 -235.241615 
L 712.932894 -253.863647 
L 709.639714 -246.603294 
L 706.317575 -201.520458 
L 703.063681 -158.515016 
L 699.705614 -124.833542 
L 696.416677 -121.433971 
L 693.222793 -123.658492 
L 690.160104 -170.73988 
L 686.541145 -222.806913 
L 683.304157 -251.706325 
L 680.315118 -241.580288 
L 677.029472 -199.991332 
L 674.041883 -155.050435 
L 670.437588 -126.524065 
L 667.635371 -108.011421 
L 663.94427 -123.710481 
L 660.728163 -175.309788 
L 657.455164 -213.802271 
L 654.19411 -245.522949 
L 650.95882 -231.485744 
L 647.793411 -195.410109 
L 644.70251 -152.737986 
L 641.272956 -128.134262 
L 638.085536 -115.607305 
L 634.781126 -125.193478 
L 631.84432 -167.171865 
L 628.480742 -219.668698 
L 625.07864 -251.704403 
L 621.943176 -230.957003 
L 618.658905 -185.303822 
L 615.427008 -146.472672 
L 612.320411 -118.06459 
L 608.908943 -116.424262 
L 605.691849 -129.069807 
L 602.570431 -175.083953 
L 599.393519 -226.256329 
L 596.053672 -246.789105 
L 592.788898 -231.916314 
L 589.548218 -191.4033 
L 586.25475 -148.708415 
L 583.081161 -120.276764 
L 579.837697 -116.865084 
L 577.071372 -135.434411 
L 573.718661 -168.403841 
L 570.192533 -220.742313 
L 566.889669 -255.952942 
L 563.616621 -242.671539 
L 560.385397 -196.932931 
L 557.145579 -156.952271 
L 553.994052 -121.994326 
L 550.821832 -104.39738 
L 547.886217 -126.379256 
L 544.325931 -176.414017 
L 540.980949 -231.108202 
L 538.013941 -252.388392 
L 534.772553 -238.434227 
L 531.4645 -201.796174 
L 528.036666 -158.160871 
L 525.36049 -123.834512 
L 521.864534 -109.656018 
L 518.588744 -119.23965 
L 515.142659 -161.677565 
L 512.121644 -224.550261 
L 508.724467 -249.834336 
L 505.442083 -239.81425 
L 502.243921 -201.208615 
L 499.027735 -151.874151 
L 495.695663 -121.360426 
L 492.479802 -100.982856 
L 489.24891 -116.372357 
L 486.230863 -154.102403 
L 482.825542 -216.332641 
L 479.828114 -261.106407 
L 476.38592 -249.223654 
L 473.220895 -195.064903 
L 470.102757 -135.904361 
L 466.664711 -97.84442 
L 463.622102 -79.606442 
L 460.214442 -69.696699 
L 457.132011 -65.20043 
L 453.716245 -60.890253 
L 450.405763 -57.417053 
L 447.329733 -54.691405 
z
" id="mb90ffcaf75"/>
    </defs>
    <g clip-path="url(#p3de7d17289)">
     <use style="fill:#4be000;" x="0" xlink:href="#mb90ffcaf75" y="285.213437"/>
    </g>
   </g>
   <g id="matplotlib.axis_3">
    <g id="xtick_12">
     <g id="line2d_43">
      <path clip-path="url(#p3de7d17289)" d="M 447.157065 230.64 
L 447.157065 13.2 
" style="fill:none;stroke:#b0b0b0;stroke-linecap:square;stroke-width:0.8;"/>
     </g>
     <g id="line2d_44">
      <g>
       <use x="447.157065" xlink:href="#m5b982111b6" y="230.64"/>
      </g>
     </g>
     <g id="text_21">
      <!-- 0 -->
      <g transform="translate(442.38519 251.537656)scale(0.15 -0.15)">
       <use xlink:href="#DejaVuSans-30"/>
      </g>
     </g>
    </g>
    <g id="xtick_13">
     <g id="line2d_45">
      <path clip-path="url(#p3de7d17289)" d="M 476.270109 230.64 
L 476.270109 13.2 
" style="fill:none;stroke:#b0b0b0;stroke-linecap:square;stroke-width:0.8;"/>
     </g>
     <g id="line2d_46">
      <g>
       <use x="476.270109" xlink:href="#m5b982111b6" y="230.64"/>
      </g>
     </g>
     <g id="text_22">
      <!-- 1 -->
      <g transform="translate(471.498234 251.537656)scale(0.15 -0.15)">
       <use xlink:href="#DejaVuSans-31"/>
      </g>
     </g>
    </g>
    <g id="xtick_14">
     <g id="line2d_47">
      <path clip-path="url(#p3de7d17289)" d="M 505.383152 230.64 
L 505.383152 13.2 
" style="fill:none;stroke:#b0b0b0;stroke-linecap:square;stroke-width:0.8;"/>
     </g>
     <g id="line2d_48">
      <g>
       <use x="505.383152" xlink:href="#m5b982111b6" y="230.64"/>
      </g>
     </g>
     <g id="text_23">
      <!-- 2 -->
      <g transform="translate(500.611277 251.537656)scale(0.15 -0.15)">
       <use xlink:href="#DejaVuSans-32"/>
      </g>
     </g>
    </g>
    <g id="xtick_15">
     <g id="line2d_49">
      <path clip-path="url(#p3de7d17289)" d="M 534.496196 230.64 
L 534.496196 13.2 
" style="fill:none;stroke:#b0b0b0;stroke-linecap:square;stroke-width:0.8;"/>
     </g>
     <g id="line2d_50">
      <g>
       <use x="534.496196" xlink:href="#m5b982111b6" y="230.64"/>
      </g>
     </g>
     <g id="text_24">
      <!-- 3 -->
      <g transform="translate(529.724321 251.537656)scale(0.15 -0.15)">
       <use xlink:href="#DejaVuSans-33"/>
      </g>
     </g>
    </g>
    <g id="xtick_16">
     <g id="line2d_51">
      <path clip-path="url(#p3de7d17289)" d="M 563.609239 230.64 
L 563.609239 13.2 
" style="fill:none;stroke:#b0b0b0;stroke-linecap:square;stroke-width:0.8;"/>
     </g>
     <g id="line2d_52">
      <g>
       <use x="563.609239" xlink:href="#m5b982111b6" y="230.64"/>
      </g>
     </g>
     <g id="text_25">
      <!-- 4 -->
      <g transform="translate(558.837364 251.537656)scale(0.15 -0.15)">
       <use xlink:href="#DejaVuSans-34"/>
      </g>
     </g>
    </g>
    <g id="xtick_17">
     <g id="line2d_53">
      <path clip-path="url(#p3de7d17289)" d="M 592.722283 230.64 
L 592.722283 13.2 
" style="fill:none;stroke:#b0b0b0;stroke-linecap:square;stroke-width:0.8;"/>
     </g>
     <g id="line2d_54">
      <g>
       <use x="592.722283" xlink:href="#m5b982111b6" y="230.64"/>
      </g>
     </g>
     <g id="text_26">
      <!-- 5 -->
      <g transform="translate(587.950408 251.537656)scale(0.15 -0.15)">
       <use xlink:href="#DejaVuSans-35"/>
      </g>
     </g>
    </g>
    <g id="xtick_18">
     <g id="line2d_55">
      <path clip-path="url(#p3de7d17289)" d="M 621.835326 230.64 
L 621.835326 13.2 
" style="fill:none;stroke:#b0b0b0;stroke-linecap:square;stroke-width:0.8;"/>
     </g>
     <g id="line2d_56">
      <g>
       <use x="621.835326" xlink:href="#m5b982111b6" y="230.64"/>
      </g>
     </g>
     <g id="text_27">
      <!-- 6 -->
      <g transform="translate(617.063451 251.537656)scale(0.15 -0.15)">
       <use xlink:href="#DejaVuSans-36"/>
      </g>
     </g>
    </g>
    <g id="xtick_19">
     <g id="line2d_57">
      <path clip-path="url(#p3de7d17289)" d="M 650.94837 230.64 
L 650.94837 13.2 
" style="fill:none;stroke:#b0b0b0;stroke-linecap:square;stroke-width:0.8;"/>
     </g>
     <g id="line2d_58">
      <g>
       <use x="650.94837" xlink:href="#m5b982111b6" y="230.64"/>
      </g>
     </g>
     <g id="text_28">
      <!-- 7 -->
      <g transform="translate(646.176495 251.537656)scale(0.15 -0.15)">
       <use xlink:href="#DejaVuSans-37"/>
      </g>
     </g>
    </g>
    <g id="xtick_20">
     <g id="line2d_59">
      <path clip-path="url(#p3de7d17289)" d="M 680.061413 230.64 
L 680.061413 13.2 
" style="fill:none;stroke:#b0b0b0;stroke-linecap:square;stroke-width:0.8;"/>
     </g>
     <g id="line2d_60">
      <g>
       <use x="680.061413" xlink:href="#m5b982111b6" y="230.64"/>
      </g>
     </g>
     <g id="text_29">
      <!-- 8 -->
      <g transform="translate(675.289538 251.537656)scale(0.15 -0.15)">
       <use xlink:href="#DejaVuSans-38"/>
      </g>
     </g>
    </g>
    <g id="xtick_21">
     <g id="line2d_61">
      <path clip-path="url(#p3de7d17289)" d="M 709.174457 230.64 
L 709.174457 13.2 
" style="fill:none;stroke:#b0b0b0;stroke-linecap:square;stroke-width:0.8;"/>
     </g>
     <g id="line2d_62">
      <g>
       <use x="709.174457" xlink:href="#m5b982111b6" y="230.64"/>
      </g>
     </g>
     <g id="text_30">
      <!-- 9 -->
      <g transform="translate(704.402582 251.537656)scale(0.15 -0.15)">
       <use xlink:href="#DejaVuSans-39"/>
      </g>
     </g>
    </g>
    <g id="xtick_22">
     <g id="line2d_63">
      <path clip-path="url(#p3de7d17289)" d="M 738.2875 230.64 
L 738.2875 13.2 
" style="fill:none;stroke:#b0b0b0;stroke-linecap:square;stroke-width:0.8;"/>
     </g>
     <g id="line2d_64">
      <g>
       <use x="738.2875" xlink:href="#m5b982111b6" y="230.64"/>
      </g>
     </g>
     <g id="text_31">
      <!-- 10 -->
      <g transform="translate(728.74375 251.537656)scale(0.15 -0.15)">
       <use xlink:href="#DejaVuSans-31"/>
       <use x="63.623047" xlink:href="#DejaVuSans-30"/>
      </g>
     </g>
    </g>
    <g id="text_32">
     <!-- $t/\tau$ -->
     <g transform="translate(579.322283 273.854062)scale(0.2 -0.2)">
      <use transform="translate(0 0.09375)" xlink:href="#DejaVuSans-Oblique-74"/>
      <use transform="translate(39.208984 0.09375)" xlink:href="#DejaVuSans-2f"/>
      <use transform="translate(72.900391 0.09375)" xlink:href="#DejaVuSans-Oblique-3c4"/>
     </g>
    </g>
   </g>
   <g id="matplotlib.axis_4">
    <g id="ytick_8">
     <g id="line2d_65">
      <path clip-path="url(#p3de7d17289)" d="M 447.157065 230.64 
L 738.2875 230.64 
" style="fill:none;stroke:#b0b0b0;stroke-linecap:square;stroke-width:0.8;"/>
     </g>
     <g id="line2d_66">
      <g>
       <use x="447.157065" xlink:href="#m16b39c0635" y="230.64"/>
      </g>
     </g>
     <g id="text_33">
      <!-- 0.00 -->
      <defs>
       <path d="M 10.6875 12.40625 
L 21 12.40625 
L 21 0 
L 10.6875 0 
z
" id="DejaVuSans-2e"/>
      </defs>
      <g transform="translate(404.258628 236.338828)scale(0.15 -0.15)">
       <use xlink:href="#DejaVuSans-30"/>
       <use x="63.623047" xlink:href="#DejaVuSans-2e"/>
       <use x="95.410156" xlink:href="#DejaVuSans-30"/>
       <use x="159.033203" xlink:href="#DejaVuSans-30"/>
      </g>
     </g>
    </g>
    <g id="ytick_9">
     <g id="line2d_67">
      <path clip-path="url(#p3de7d17289)" d="M 447.157065 194.614841 
L 738.2875 194.614841 
" style="fill:none;stroke:#b0b0b0;stroke-linecap:square;stroke-width:0.8;"/>
     </g>
     <g id="line2d_68">
      <g>
       <use x="447.157065" xlink:href="#m16b39c0635" y="194.614841"/>
      </g>
     </g>
     <g id="text_34">
      <!-- 0.03 -->
      <g transform="translate(404.258628 200.313669)scale(0.15 -0.15)">
       <use xlink:href="#DejaVuSans-30"/>
       <use x="63.623047" xlink:href="#DejaVuSans-2e"/>
       <use x="95.410156" xlink:href="#DejaVuSans-30"/>
       <use x="159.033203" xlink:href="#DejaVuSans-33"/>
      </g>
     </g>
    </g>
    <g id="ytick_10">
     <g id="line2d_69">
      <path clip-path="url(#p3de7d17289)" d="M 447.157065 158.589682 
L 738.2875 158.589682 
" style="fill:none;stroke:#b0b0b0;stroke-linecap:square;stroke-width:0.8;"/>
     </g>
     <g id="line2d_70">
      <g>
       <use x="447.157065" xlink:href="#m16b39c0635" y="158.589682"/>
      </g>
     </g>
     <g id="text_35">
      <!-- 0.06 -->
      <g transform="translate(404.258628 164.288511)scale(0.15 -0.15)">
       <use xlink:href="#DejaVuSans-30"/>
       <use x="63.623047" xlink:href="#DejaVuSans-2e"/>
       <use x="95.410156" xlink:href="#DejaVuSans-30"/>
       <use x="159.033203" xlink:href="#DejaVuSans-36"/>
      </g>
     </g>
    </g>
    <g id="ytick_11">
     <g id="line2d_71">
      <path clip-path="url(#p3de7d17289)" d="M 447.157065 122.564524 
L 738.2875 122.564524 
" style="fill:none;stroke:#b0b0b0;stroke-linecap:square;stroke-width:0.8;"/>
     </g>
     <g id="line2d_72">
      <g>
       <use x="447.157065" xlink:href="#m16b39c0635" y="122.564524"/>
      </g>
     </g>
     <g id="text_36">
      <!-- 0.09 -->
      <g transform="translate(404.258628 128.263352)scale(0.15 -0.15)">
       <use xlink:href="#DejaVuSans-30"/>
       <use x="63.623047" xlink:href="#DejaVuSans-2e"/>
       <use x="95.410156" xlink:href="#DejaVuSans-30"/>
       <use x="159.033203" xlink:href="#DejaVuSans-39"/>
      </g>
     </g>
    </g>
    <g id="ytick_12">
     <g id="line2d_73">
      <path clip-path="url(#p3de7d17289)" d="M 447.157065 86.539365 
L 738.2875 86.539365 
" style="fill:none;stroke:#b0b0b0;stroke-linecap:square;stroke-width:0.8;"/>
     </g>
     <g id="line2d_74">
      <g>
       <use x="447.157065" xlink:href="#m16b39c0635" y="86.539365"/>
      </g>
     </g>
     <g id="text_37">
      <!-- 0.12 -->
      <g transform="translate(404.258628 92.238193)scale(0.15 -0.15)">
       <use xlink:href="#DejaVuSans-30"/>
       <use x="63.623047" xlink:href="#DejaVuSans-2e"/>
       <use x="95.410156" xlink:href="#DejaVuSans-31"/>
       <use x="159.033203" xlink:href="#DejaVuSans-32"/>
      </g>
     </g>
    </g>
    <g id="ytick_13">
     <g id="line2d_75">
      <path clip-path="url(#p3de7d17289)" d="M 447.157065 50.514206 
L 738.2875 50.514206 
" style="fill:none;stroke:#b0b0b0;stroke-linecap:square;stroke-width:0.8;"/>
     </g>
     <g id="line2d_76">
      <g>
       <use x="447.157065" xlink:href="#m16b39c0635" y="50.514206"/>
      </g>
     </g>
     <g id="text_38">
      <!-- 0.15 -->
      <g transform="translate(404.258628 56.213034)scale(0.15 -0.15)">
       <use xlink:href="#DejaVuSans-30"/>
       <use x="63.623047" xlink:href="#DejaVuSans-2e"/>
       <use x="95.410156" xlink:href="#DejaVuSans-31"/>
       <use x="159.033203" xlink:href="#DejaVuSans-35"/>
      </g>
     </g>
    </g>
    <g id="ytick_14">
     <g id="line2d_77">
      <path clip-path="url(#p3de7d17289)" d="M 447.157065 14.489047 
L 738.2875 14.489047 
" style="fill:none;stroke:#b0b0b0;stroke-linecap:square;stroke-width:0.8;"/>
     </g>
     <g id="line2d_78">
      <g>
       <use x="447.157065" xlink:href="#m16b39c0635" y="14.489047"/>
      </g>
     </g>
     <g id="text_39">
      <!-- 0.18 -->
      <g transform="translate(404.258628 20.187876)scale(0.15 -0.15)">
       <use xlink:href="#DejaVuSans-30"/>
       <use x="63.623047" xlink:href="#DejaVuSans-2e"/>
       <use x="95.410156" xlink:href="#DejaVuSans-31"/>
       <use x="159.033203" xlink:href="#DejaVuSans-38"/>
      </g>
     </g>
    </g>
    <g id="text_40">
     <!-- $C_V^2(n_p)$ -->
     <defs>
      <path d="M 69.484375 67.28125 
L 67.484375 56.890625 
Q 62.796875 61.625 57.546875 63.921875 
Q 52.296875 66.21875 46.1875 66.21875 
Q 37.84375 66.21875 31.515625 62.203125 
Q 25.203125 58.203125 20.609375 50 
Q 17.671875 44.734375 16.125 38.84375 
Q 14.59375 32.953125 14.59375 27 
Q 14.59375 17.046875 19.75 11.8125 
Q 24.90625 6.59375 34.71875 6.59375 
Q 41.5 6.59375 47.75 8.765625 
Q 54 10.9375 59.90625 15.28125 
L 57.625 3.609375 
Q 51.8125 1.125 45.875 -0.140625 
Q 39.9375 -1.421875 33.984375 -1.421875 
Q 19.96875 -1.421875 12.078125 6.1875 
Q 4.203125 13.8125 4.203125 27.390625 
Q 4.203125 36.078125 7.203125 44.46875 
Q 10.203125 52.875 15.828125 59.8125 
Q 21.78125 67.1875 29.421875 70.703125 
Q 37.0625 74.21875 47.21875 74.21875 
Q 53.46875 74.21875 59.0625 72.484375 
Q 64.65625 70.75 69.484375 67.28125 
z
" id="DejaVuSans-Oblique-43"/>
      <path d="M 20.609375 0 
L 7.8125 72.90625 
L 17.484375 72.90625 
L 28.078125 10.203125 
L 63.484375 72.90625 
L 74.21875 72.90625 
L 32.078125 0 
z
" id="DejaVuSans-Oblique-56"/>
      <path d="M 31 75.875 
Q 24.46875 64.65625 21.28125 53.65625 
Q 18.109375 42.671875 18.109375 31.390625 
Q 18.109375 20.125 21.3125 9.0625 
Q 24.515625 -2 31 -13.1875 
L 23.1875 -13.1875 
Q 15.875 -1.703125 12.234375 9.375 
Q 8.59375 20.453125 8.59375 31.390625 
Q 8.59375 42.28125 12.203125 53.3125 
Q 15.828125 64.359375 23.1875 75.875 
z
" id="DejaVuSans-28"/>
      <path d="M 55.71875 33.015625 
L 49.3125 0 
L 40.28125 0 
L 46.6875 32.671875 
Q 47.125 34.96875 47.359375 36.71875 
Q 47.609375 38.484375 47.609375 39.5 
Q 47.609375 43.609375 45.015625 45.890625 
Q 42.4375 48.1875 37.796875 48.1875 
Q 30.5625 48.1875 25.34375 43.375 
Q 20.125 38.578125 18.5 30.328125 
L 12.5 0 
L 3.515625 0 
L 14.109375 54.6875 
L 23.09375 54.6875 
L 21.296875 46.09375 
Q 25.046875 50.828125 30.3125 53.40625 
Q 35.59375 56 41.40625 56 
Q 48.640625 56 52.609375 52.09375 
Q 56.59375 48.1875 56.59375 41.109375 
Q 56.59375 39.359375 56.375 37.359375 
Q 56.15625 35.359375 55.71875 33.015625 
z
" id="DejaVuSans-Oblique-6e"/>
      <path d="M 49.609375 33.6875 
Q 49.609375 40.875 46.484375 44.671875 
Q 43.359375 48.484375 37.5 48.484375 
Q 33.5 48.484375 29.859375 46.4375 
Q 26.21875 44.390625 23.390625 40.484375 
Q 20.609375 36.625 18.9375 31.15625 
Q 17.28125 25.6875 17.28125 20.3125 
Q 17.28125 13.484375 20.40625 9.796875 
Q 23.53125 6.109375 29.296875 6.109375 
Q 33.546875 6.109375 37.1875 8.109375 
Q 40.828125 10.109375 43.40625 13.921875 
Q 46.1875 17.921875 47.890625 23.34375 
Q 49.609375 28.765625 49.609375 33.6875 
z
M 21.78125 46.390625 
Q 25.390625 51.125 30.296875 53.5625 
Q 35.203125 56 41.21875 56 
Q 49.609375 56 54.25 50.5 
Q 58.890625 45.015625 58.890625 35.109375 
Q 58.890625 27 56 19.65625 
Q 53.125 12.3125 47.703125 6.5 
Q 44.09375 2.640625 39.546875 0.609375 
Q 35.015625 -1.421875 29.984375 -1.421875 
Q 24.171875 -1.421875 20.21875 1 
Q 16.265625 3.421875 14.3125 8.203125 
L 8.6875 -20.796875 
L -0.296875 -20.796875 
L 14.40625 54.6875 
L 23.390625 54.6875 
z
" id="DejaVuSans-Oblique-70"/>
      <path d="M 8.015625 75.875 
L 15.828125 75.875 
Q 23.140625 64.359375 26.78125 53.3125 
Q 30.421875 42.28125 30.421875 31.390625 
Q 30.421875 20.453125 26.78125 9.375 
Q 23.140625 -1.703125 15.828125 -13.1875 
L 8.015625 -13.1875 
Q 14.5 -2 17.703125 9.0625 
Q 20.90625 20.125 20.90625 31.390625 
Q 20.90625 42.671875 17.703125 53.65625 
Q 14.5 64.65625 8.015625 75.875 
z
" id="DejaVuSans-29"/>
     </defs>
     <g transform="translate(394.058628 153.22)rotate(-90)scale(0.2 -0.2)">
      <use transform="translate(0 0.765625)" xlink:href="#DejaVuSans-Oblique-43"/>
      <use transform="translate(77.02474 39.046875)scale(0.7)" xlink:href="#DejaVuSans-32"/>
      <use transform="translate(69.824219 -26.578125)scale(0.7)" xlink:href="#DejaVuSans-Oblique-56"/>
      <use transform="translate(124.295247 0.765625)" xlink:href="#DejaVuSans-28"/>
      <use transform="translate(163.308919 0.765625)" xlink:href="#DejaVuSans-Oblique-6e"/>
      <use transform="translate(226.687826 -15.640625)scale(0.7)" xlink:href="#DejaVuSans-Oblique-70"/>
      <use transform="translate(273.855794 0.765625)" xlink:href="#DejaVuSans-29"/>
     </g>
    </g>
   </g>
   <g id="line2d_79">
    <path clip-path="url(#p3de7d17289)" d="M 447.329733 230.532052 
L 450.405763 228.048779 
L 453.716245 224.898576 
L 457.132011 221.003202 
L 460.214442 216.952323 
L 463.622102 208.0602 
L 466.664711 191.795152 
L 470.102757 158.159333 
L 473.220895 106.477439 
L 476.38592 59.658563 
L 479.828114 49.44 
L 482.825542 88.041689 
L 486.230863 142.192863 
L 489.24891 175.375674 
L 492.479802 189.007133 
L 495.695663 170.970522 
L 499.027735 144.144324 
L 502.243921 101.144743 
L 505.442083 67.763251 
L 508.724467 59.132963 
L 512.121644 80.936243 
L 515.142659 135.565723 
L 518.588744 172.842718 
L 521.864534 181.316975 
L 525.36049 168.787784 
L 528.036666 138.640969 
L 531.4645 100.635053 
L 534.772553 68.952913 
L 538.013941 56.935271 
L 540.980949 75.272724 
L 544.325931 122.703394 
L 547.886217 166.544203 
L 550.821832 185.977107 
L 553.994052 170.411132 
L 557.145579 139.698387 
L 560.385397 104.855381 
L 563.616621 65.300911 
L 566.889669 53.869489 
L 570.192533 84.227618 
L 573.718661 129.690091 
L 577.071372 158.57256 
L 579.837697 174.940256 
L 583.081161 171.927031 
L 586.25475 146.918474 
L 589.548218 109.658505 
L 592.788898 74.575243 
L 596.053672 61.754411 
L 599.393519 79.462282 
L 602.570431 123.862742 
L 605.691849 164.173686 
L 608.908943 175.329803 
L 612.320411 173.880518 
L 615.427008 148.878856 
L 618.658905 114.962291 
L 621.943176 75.403234 
L 625.07864 57.52374 
L 628.480742 85.155965 
L 631.84432 130.765655 
L 634.781126 167.589461 
L 638.085536 176.051862 
L 641.272956 164.997764 
L 644.70251 143.387679 
L 647.793411 106.177646 
L 650.95882 74.946856 
L 654.19411 62.844725 
L 657.455164 90.231565 
L 660.728163 123.665871 
L 663.94427 168.897175 
L 667.635371 182.773587 
L 670.437588 166.416576 
L 674.041883 141.362884 
L 677.029472 102.20087 
L 680.315118 66.241195 
L 683.304157 57.522086 
L 686.541145 82.442839 
L 690.160104 127.651375 
L 693.222793 168.943028 
L 696.416677 170.905617 
L 699.705614 167.906807 
L 703.063681 138.331176 
L 706.317575 100.874222 
L 709.639714 61.914404 
L 712.932894 55.666241 
L 715.936339 71.706124 
L 720.008991 124.201092 
L 722.179195 166.287248 
L 725.985141 176.725811 
L 728.680572 166.301023 
L 732.012479 144.538797 
L 735.268328 102.631017 
" style="fill:none;stroke:#3bb000;stroke-linecap:square;stroke-width:3;"/>
   </g>
   <g id="patch_8">
    <path d="M 447.157065 230.64 
L 447.157065 13.2 
" style="fill:none;stroke:#000000;stroke-linecap:square;stroke-linejoin:miter;stroke-width:2;"/>
   </g>
   <g id="patch_9">
    <path d="M 738.2875 230.64 
L 738.2875 13.2 
" style="fill:none;"/>
   </g>
   <g id="patch_10">
    <path d="M 447.157065 230.64 
L 738.2875 230.64 
" style="fill:none;stroke:#000000;stroke-linecap:square;stroke-linejoin:miter;stroke-width:2;"/>
   </g>
   <g id="patch_11">
    <path d="M 447.157065 13.2 
L 738.2875 13.2 
" style="fill:none;"/>
   </g>
  </g>
 </g>
 <defs>
  <clipPath id="p82831ae314">
   <rect height="217.44" width="291.130435" x="68.6875" y="13.2"/>
  </clipPath>
  <clipPath id="p3de7d17289">
   <rect height="217.44" width="291.130435" x="447.157065" y="13.2"/>
  </clipPath>
 </defs>
</svg>
