<?xml version="1.0" encoding="utf-8" standalone="no"?>
<!DOCTYPE svg PUBLIC "-//W3C//DTD SVG 1.1//EN"
  "http://www.w3.org/Graphics/SVG/1.1/DTD/svg11.dtd">
<!-- Created with matplotlib (http://matplotlib.org/) -->
<svg height="285.213437pt" version="1.1" viewBox="0 0 755.03125 285.213437" width="755.03125pt" xmlns="http://www.w3.org/2000/svg" xmlns:xlink="http://www.w3.org/1999/xlink">
 <defs>
  <style type="text/css">
*{stroke-linecap:butt;stroke-linejoin:round;}
  </style>
 </defs>
 <g id="figure_1">
  <g id="patch_1">
   <path d="M 0 285.213437 
L 755.03125 285.213437 
L 755.03125 0 
L 0 0 
z
" style="fill:#ffffff;"/>
  </g>
  <g id="axes_1">
   <g id="patch_2">
    <path d="M 68.6875 230.64 
L 359.817935 230.64 
L 359.817935 13.2 
L 68.6875 13.2 
z
" style="fill:#ffffff;"/>
   </g>
   <g id="PolyCollection_1">
    <defs>
     <path d="M 68.751145 -90.372854 
L 68.751145 -90.330742 
L 72.121559 -93.612705 
L 75.230831 -98.063613 
L 78.605601 -103.521272 
L 81.956593 -109.670812 
L 84.893 -116.036647 
L 88.118568 -122.210735 
L 91.54538 -126.398223 
L 94.613083 -127.927225 
L 97.870879 -126.087113 
L 101.160507 -124.065917 
L 104.325709 -123.936485 
L 107.960057 -126.040994 
L 110.872665 -130.317185 
L 114.172712 -135.167956 
L 117.452934 -140.689469 
L 120.488708 -144.270066 
L 123.694872 -144.382993 
L 127.030664 -143.006228 
L 130.304604 -138.782069 
L 133.383627 -135.473707 
L 136.738729 -137.034308 
L 139.871617 -141.029213 
L 143.120455 -146.529074 
L 146.452466 -150.447692 
L 149.595393 -153.494797 
L 152.792279 -152.161517 
L 157.334746 -149.376395 
L 159.389156 -147.062807 
L 162.960289 -143.593105 
L 165.840303 -143.259522 
L 169.206904 -146.415897 
L 172.2623 -150.551647 
L 175.594463 -154.607944 
L 178.738343 -156.170893 
L 182.131275 -156.593625 
L 185.295687 -153.448895 
L 188.558344 -148.498216 
L 191.946969 -146.147716 
L 194.910342 -146.127382 
L 198.1698 -148.585983 
L 201.510077 -152.56009 
L 204.708077 -156.641344 
L 207.819761 -159.140323 
L 211.09061 -159.298887 
L 214.765828 -154.952083 
L 217.663281 -151.297132 
L 220.764605 -148.613806 
L 223.968429 -148.865273 
L 227.243806 -150.441255 
L 230.582395 -154.482695 
L 233.674057 -157.978908 
L 237.006795 -159.017647 
L 240.313941 -158.348126 
L 243.368692 -156.260563 
L 246.635555 -150.79017 
L 249.856238 -149.083646 
L 253.619346 -148.500005 
L 256.757588 -151.629664 
L 259.545215 -154.669957 
L 263.107597 -158.136226 
L 266.139541 -159.549523 
L 269.387366 -157.868877 
L 272.536015 -154.383286 
L 275.859949 -151.172936 
L 279.096982 -148.78265 
L 282.18865 -148.535216 
L 285.676789 -152.017633 
L 288.680869 -156.239982 
L 291.923691 -159.275174 
L 295.124624 -161.292914 
L 298.476603 -160.280583 
L 301.617764 -156.752269 
L 305.380541 -152.794543 
L 308.114026 -149.818319 
L 311.399631 -149.949775 
L 314.866428 -152.702988 
L 318.034787 -156.07826 
L 321.107451 -159.40923 
L 324.240519 -161.445707 
L 327.616914 -159.664634 
L 330.776321 -154.616623 
L 334.003831 -150.688874 
L 337.502177 -148.748671 
L 340.443618 -148.994712 
L 343.655308 -151.611624 
L 346.955305 -154.673683 
L 350.200878 -157.897826 
L 353.457395 -159.344786 
L 356.684365 -157.925329 
L 356.684365 -162.263493 
L 356.684365 -162.263493 
L 353.457395 -163.11931 
L 350.200878 -160.9949 
L 346.955305 -157.361956 
L 343.655308 -154.473627 
L 340.443618 -152.387928 
L 337.502177 -152.861354 
L 334.003831 -155.272736 
L 330.776321 -159.299208 
L 327.616914 -163.959127 
L 324.240519 -165.141168 
L 321.107451 -162.40966 
L 318.034787 -158.883543 
L 314.866428 -155.703014 
L 311.399631 -153.51344 
L 308.114026 -154.035715 
L 305.380541 -157.471755 
L 301.617764 -161.48104 
L 298.476603 -164.662012 
L 295.124624 -164.989833 
L 291.923691 -162.329121 
L 288.680869 -158.99042 
L 285.676789 -154.957263 
L 282.18865 -151.962042 
L 279.096982 -152.915487 
L 275.859949 -155.770695 
L 272.536015 -159.015243 
L 269.387366 -162.172145 
L 266.139541 -163.161855 
L 263.107597 -161.022257 
L 259.545215 -157.205091 
L 256.757588 -154.735555 
L 253.619346 -151.94467 
L 249.856238 -153.272487 
L 246.635555 -155.397404 
L 243.368692 -161.016307 
L 240.313941 -162.680601 
L 237.006795 -162.664812 
L 233.674057 -160.882553 
L 230.582395 -157.108122 
L 227.243806 -153.273505 
L 223.968429 -152.41078 
L 220.764605 -152.765992 
L 217.663281 -155.949206 
L 214.765828 -159.533633 
L 211.09061 -163.439493 
L 207.819761 -162.593297 
L 204.708077 -159.527022 
L 201.510077 -154.986112 
L 198.1698 -151.399659 
L 194.910342 -149.601892 
L 191.946969 -150.282189 
L 188.558344 -153.000959 
L 185.295687 -158.082234 
L 182.131275 -160.757145 
L 178.738343 -159.734559 
L 175.594463 -157.404957 
L 172.2623 -152.857563 
L 169.206904 -148.916874 
L 165.840303 -146.49094 
L 162.960289 -147.616887 
L 159.389156 -151.594052 
L 157.334746 -153.832432 
L 152.792279 -156.162058 
L 149.595393 -156.716076 
L 146.452466 -153.056736 
L 143.120455 -148.832119 
L 139.871617 -143.399013 
L 136.738729 -139.925733 
L 133.383627 -139.019204 
L 130.304604 -142.91327 
L 127.030664 -147.086734 
L 123.694872 -147.941187 
L 120.488708 -147.158784 
L 117.452934 -142.923012 
L 114.172712 -136.988572 
L 110.872665 -132.481018 
L 107.960057 -128.520177 
L 104.325709 -126.90978 
L 101.160507 -127.381498 
L 97.870879 -129.419129 
L 94.613083 -130.807887 
L 91.54538 -128.565136 
L 88.118568 -123.715482 
L 84.893 -117.069304 
L 81.956593 -110.374698 
L 78.605601 -104.053577 
L 75.230831 -98.441837 
L 72.121559 -93.832864 
L 68.751145 -90.372854 
z
" id="m80bfa91235"/>
    </defs>
    <g clip-path="url(#pfe2dd79eab)">
     <use style="fill:#4be000;" x="0" xlink:href="#m80bfa91235" y="285.213437"/>
    </g>
   </g>
   <g id="matplotlib.axis_1">
    <g id="xtick_1">
     <g id="line2d_1">
      <path clip-path="url(#pfe2dd79eab)" d="M 68.6875 230.64 
L 68.6875 13.2 
" style="fill:none;stroke:#b0b0b0;stroke-linecap:square;stroke-width:0.8;"/>
     </g>
     <g id="line2d_2">
      <defs>
       <path d="M 0 0 
L 0 6 
" id="mf35797989d"/>
      </defs>
      <g>
       <use x="68.6875" xlink:href="#mf35797989d" y="230.64"/>
      </g>
     </g>
     <g id="text_1">
      <!-- 0 -->
      <defs>
       <path d="M 31.78125 66.40625 
Q 24.171875 66.40625 20.328125 58.90625 
Q 16.5 51.421875 16.5 36.375 
Q 16.5 21.390625 20.328125 13.890625 
Q 24.171875 6.390625 31.78125 6.390625 
Q 39.453125 6.390625 43.28125 13.890625 
Q 47.125 21.390625 47.125 36.375 
Q 47.125 51.421875 43.28125 58.90625 
Q 39.453125 66.40625 31.78125 66.40625 
z
M 31.78125 74.21875 
Q 44.046875 74.21875 50.515625 64.515625 
Q 56.984375 54.828125 56.984375 36.375 
Q 56.984375 17.96875 50.515625 8.265625 
Q 44.046875 -1.421875 31.78125 -1.421875 
Q 19.53125 -1.421875 13.0625 8.265625 
Q 6.59375 17.96875 6.59375 36.375 
Q 6.59375 54.828125 13.0625 64.515625 
Q 19.53125 74.21875 31.78125 74.21875 
z
" id="DejaVuSans-30"/>
      </defs>
      <g transform="translate(63.915625 251.537656)scale(0.15 -0.15)">
       <use xlink:href="#DejaVuSans-30"/>
      </g>
     </g>
    </g>
    <g id="xtick_2">
     <g id="line2d_3">
      <path clip-path="url(#pfe2dd79eab)" d="M 97.800543 230.64 
L 97.800543 13.2 
" style="fill:none;stroke:#b0b0b0;stroke-linecap:square;stroke-width:0.8;"/>
     </g>
     <g id="line2d_4">
      <g>
       <use x="97.800543" xlink:href="#mf35797989d" y="230.64"/>
      </g>
     </g>
     <g id="text_2">
      <!-- 1 -->
      <defs>
       <path d="M 12.40625 8.296875 
L 28.515625 8.296875 
L 28.515625 63.921875 
L 10.984375 60.40625 
L 10.984375 69.390625 
L 28.421875 72.90625 
L 38.28125 72.90625 
L 38.28125 8.296875 
L 54.390625 8.296875 
L 54.390625 0 
L 12.40625 0 
z
" id="DejaVuSans-31"/>
      </defs>
      <g transform="translate(93.028668 251.537656)scale(0.15 -0.15)">
       <use xlink:href="#DejaVuSans-31"/>
      </g>
     </g>
    </g>
    <g id="xtick_3">
     <g id="line2d_5">
      <path clip-path="url(#pfe2dd79eab)" d="M 126.913587 230.64 
L 126.913587 13.2 
" style="fill:none;stroke:#b0b0b0;stroke-linecap:square;stroke-width:0.8;"/>
     </g>
     <g id="line2d_6">
      <g>
       <use x="126.913587" xlink:href="#mf35797989d" y="230.64"/>
      </g>
     </g>
     <g id="text_3">
      <!-- 2 -->
      <defs>
       <path d="M 19.1875 8.296875 
L 53.609375 8.296875 
L 53.609375 0 
L 7.328125 0 
L 7.328125 8.296875 
Q 12.9375 14.109375 22.625 23.890625 
Q 32.328125 33.6875 34.8125 36.53125 
Q 39.546875 41.84375 41.421875 45.53125 
Q 43.3125 49.21875 43.3125 52.78125 
Q 43.3125 58.59375 39.234375 62.25 
Q 35.15625 65.921875 28.609375 65.921875 
Q 23.96875 65.921875 18.8125 64.3125 
Q 13.671875 62.703125 7.8125 59.421875 
L 7.8125 69.390625 
Q 13.765625 71.78125 18.9375 73 
Q 24.125 74.21875 28.421875 74.21875 
Q 39.75 74.21875 46.484375 68.546875 
Q 53.21875 62.890625 53.21875 53.421875 
Q 53.21875 48.921875 51.53125 44.890625 
Q 49.859375 40.875 45.40625 35.40625 
Q 44.1875 33.984375 37.640625 27.21875 
Q 31.109375 20.453125 19.1875 8.296875 
z
" id="DejaVuSans-32"/>
      </defs>
      <g transform="translate(122.141712 251.537656)scale(0.15 -0.15)">
       <use xlink:href="#DejaVuSans-32"/>
      </g>
     </g>
    </g>
    <g id="xtick_4">
     <g id="line2d_7">
      <path clip-path="url(#pfe2dd79eab)" d="M 156.02663 230.64 
L 156.02663 13.2 
" style="fill:none;stroke:#b0b0b0;stroke-linecap:square;stroke-width:0.8;"/>
     </g>
     <g id="line2d_8">
      <g>
       <use x="156.02663" xlink:href="#mf35797989d" y="230.64"/>
      </g>
     </g>
     <g id="text_4">
      <!-- 3 -->
      <defs>
       <path d="M 40.578125 39.3125 
Q 47.65625 37.796875 51.625 33 
Q 55.609375 28.21875 55.609375 21.1875 
Q 55.609375 10.40625 48.1875 4.484375 
Q 40.765625 -1.421875 27.09375 -1.421875 
Q 22.515625 -1.421875 17.65625 -0.515625 
Q 12.796875 0.390625 7.625 2.203125 
L 7.625 11.71875 
Q 11.71875 9.328125 16.59375 8.109375 
Q 21.484375 6.890625 26.8125 6.890625 
Q 36.078125 6.890625 40.9375 10.546875 
Q 45.796875 14.203125 45.796875 21.1875 
Q 45.796875 27.640625 41.28125 31.265625 
Q 36.765625 34.90625 28.71875 34.90625 
L 20.21875 34.90625 
L 20.21875 43.015625 
L 29.109375 43.015625 
Q 36.375 43.015625 40.234375 45.921875 
Q 44.09375 48.828125 44.09375 54.296875 
Q 44.09375 59.90625 40.109375 62.90625 
Q 36.140625 65.921875 28.71875 65.921875 
Q 24.65625 65.921875 20.015625 65.03125 
Q 15.375 64.15625 9.8125 62.3125 
L 9.8125 71.09375 
Q 15.4375 72.65625 20.34375 73.4375 
Q 25.25 74.21875 29.59375 74.21875 
Q 40.828125 74.21875 47.359375 69.109375 
Q 53.90625 64.015625 53.90625 55.328125 
Q 53.90625 49.265625 50.4375 45.09375 
Q 46.96875 40.921875 40.578125 39.3125 
z
" id="DejaVuSans-33"/>
      </defs>
      <g transform="translate(151.254755 251.537656)scale(0.15 -0.15)">
       <use xlink:href="#DejaVuSans-33"/>
      </g>
     </g>
    </g>
    <g id="xtick_5">
     <g id="line2d_9">
      <path clip-path="url(#pfe2dd79eab)" d="M 185.139674 230.64 
L 185.139674 13.2 
" style="fill:none;stroke:#b0b0b0;stroke-linecap:square;stroke-width:0.8;"/>
     </g>
     <g id="line2d_10">
      <g>
       <use x="185.139674" xlink:href="#mf35797989d" y="230.64"/>
      </g>
     </g>
     <g id="text_5">
      <!-- 4 -->
      <defs>
       <path d="M 37.796875 64.3125 
L 12.890625 25.390625 
L 37.796875 25.390625 
z
M 35.203125 72.90625 
L 47.609375 72.90625 
L 47.609375 25.390625 
L 58.015625 25.390625 
L 58.015625 17.1875 
L 47.609375 17.1875 
L 47.609375 0 
L 37.796875 0 
L 37.796875 17.1875 
L 4.890625 17.1875 
L 4.890625 26.703125 
z
" id="DejaVuSans-34"/>
      </defs>
      <g transform="translate(180.367799 251.537656)scale(0.15 -0.15)">
       <use xlink:href="#DejaVuSans-34"/>
      </g>
     </g>
    </g>
    <g id="xtick_6">
     <g id="line2d_11">
      <path clip-path="url(#pfe2dd79eab)" d="M 214.252717 230.64 
L 214.252717 13.2 
" style="fill:none;stroke:#b0b0b0;stroke-linecap:square;stroke-width:0.8;"/>
     </g>
     <g id="line2d_12">
      <g>
       <use x="214.252717" xlink:href="#mf35797989d" y="230.64"/>
      </g>
     </g>
     <g id="text_6">
      <!-- 5 -->
      <defs>
       <path d="M 10.796875 72.90625 
L 49.515625 72.90625 
L 49.515625 64.59375 
L 19.828125 64.59375 
L 19.828125 46.734375 
Q 21.96875 47.46875 24.109375 47.828125 
Q 26.265625 48.1875 28.421875 48.1875 
Q 40.625 48.1875 47.75 41.5 
Q 54.890625 34.8125 54.890625 23.390625 
Q 54.890625 11.625 47.5625 5.09375 
Q 40.234375 -1.421875 26.90625 -1.421875 
Q 22.3125 -1.421875 17.546875 -0.640625 
Q 12.796875 0.140625 7.71875 1.703125 
L 7.71875 11.625 
Q 12.109375 9.234375 16.796875 8.0625 
Q 21.484375 6.890625 26.703125 6.890625 
Q 35.15625 6.890625 40.078125 11.328125 
Q 45.015625 15.765625 45.015625 23.390625 
Q 45.015625 31 40.078125 35.4375 
Q 35.15625 39.890625 26.703125 39.890625 
Q 22.75 39.890625 18.8125 39.015625 
Q 14.890625 38.140625 10.796875 36.28125 
z
" id="DejaVuSans-35"/>
      </defs>
      <g transform="translate(209.480842 251.537656)scale(0.15 -0.15)">
       <use xlink:href="#DejaVuSans-35"/>
      </g>
     </g>
    </g>
    <g id="xtick_7">
     <g id="line2d_13">
      <path clip-path="url(#pfe2dd79eab)" d="M 243.365761 230.64 
L 243.365761 13.2 
" style="fill:none;stroke:#b0b0b0;stroke-linecap:square;stroke-width:0.8;"/>
     </g>
     <g id="line2d_14">
      <g>
       <use x="243.365761" xlink:href="#mf35797989d" y="230.64"/>
      </g>
     </g>
     <g id="text_7">
      <!-- 6 -->
      <defs>
       <path d="M 33.015625 40.375 
Q 26.375 40.375 22.484375 35.828125 
Q 18.609375 31.296875 18.609375 23.390625 
Q 18.609375 15.53125 22.484375 10.953125 
Q 26.375 6.390625 33.015625 6.390625 
Q 39.65625 6.390625 43.53125 10.953125 
Q 47.40625 15.53125 47.40625 23.390625 
Q 47.40625 31.296875 43.53125 35.828125 
Q 39.65625 40.375 33.015625 40.375 
z
M 52.59375 71.296875 
L 52.59375 62.3125 
Q 48.875 64.0625 45.09375 64.984375 
Q 41.3125 65.921875 37.59375 65.921875 
Q 27.828125 65.921875 22.671875 59.328125 
Q 17.53125 52.734375 16.796875 39.40625 
Q 19.671875 43.65625 24.015625 45.921875 
Q 28.375 48.1875 33.59375 48.1875 
Q 44.578125 48.1875 50.953125 41.515625 
Q 57.328125 34.859375 57.328125 23.390625 
Q 57.328125 12.15625 50.6875 5.359375 
Q 44.046875 -1.421875 33.015625 -1.421875 
Q 20.359375 -1.421875 13.671875 8.265625 
Q 6.984375 17.96875 6.984375 36.375 
Q 6.984375 53.65625 15.1875 63.9375 
Q 23.390625 74.21875 37.203125 74.21875 
Q 40.921875 74.21875 44.703125 73.484375 
Q 48.484375 72.75 52.59375 71.296875 
z
" id="DejaVuSans-36"/>
      </defs>
      <g transform="translate(238.593886 251.537656)scale(0.15 -0.15)">
       <use xlink:href="#DejaVuSans-36"/>
      </g>
     </g>
    </g>
    <g id="xtick_8">
     <g id="line2d_15">
      <path clip-path="url(#pfe2dd79eab)" d="M 272.478804 230.64 
L 272.478804 13.2 
" style="fill:none;stroke:#b0b0b0;stroke-linecap:square;stroke-width:0.8;"/>
     </g>
     <g id="line2d_16">
      <g>
       <use x="272.478804" xlink:href="#mf35797989d" y="230.64"/>
      </g>
     </g>
     <g id="text_8">
      <!-- 7 -->
      <defs>
       <path d="M 8.203125 72.90625 
L 55.078125 72.90625 
L 55.078125 68.703125 
L 28.609375 0 
L 18.3125 0 
L 43.21875 64.59375 
L 8.203125 64.59375 
z
" id="DejaVuSans-37"/>
      </defs>
      <g transform="translate(267.706929 251.537656)scale(0.15 -0.15)">
       <use xlink:href="#DejaVuSans-37"/>
      </g>
     </g>
    </g>
    <g id="xtick_9">
     <g id="line2d_17">
      <path clip-path="url(#pfe2dd79eab)" d="M 301.591848 230.64 
L 301.591848 13.2 
" style="fill:none;stroke:#b0b0b0;stroke-linecap:square;stroke-width:0.8;"/>
     </g>
     <g id="line2d_18">
      <g>
       <use x="301.591848" xlink:href="#mf35797989d" y="230.64"/>
      </g>
     </g>
     <g id="text_9">
      <!-- 8 -->
      <defs>
       <path d="M 31.78125 34.625 
Q 24.75 34.625 20.71875 30.859375 
Q 16.703125 27.09375 16.703125 20.515625 
Q 16.703125 13.921875 20.71875 10.15625 
Q 24.75 6.390625 31.78125 6.390625 
Q 38.8125 6.390625 42.859375 10.171875 
Q 46.921875 13.96875 46.921875 20.515625 
Q 46.921875 27.09375 42.890625 30.859375 
Q 38.875 34.625 31.78125 34.625 
z
M 21.921875 38.8125 
Q 15.578125 40.375 12.03125 44.71875 
Q 8.5 49.078125 8.5 55.328125 
Q 8.5 64.0625 14.71875 69.140625 
Q 20.953125 74.21875 31.78125 74.21875 
Q 42.671875 74.21875 48.875 69.140625 
Q 55.078125 64.0625 55.078125 55.328125 
Q 55.078125 49.078125 51.53125 44.71875 
Q 48 40.375 41.703125 38.8125 
Q 48.828125 37.15625 52.796875 32.3125 
Q 56.78125 27.484375 56.78125 20.515625 
Q 56.78125 9.90625 50.3125 4.234375 
Q 43.84375 -1.421875 31.78125 -1.421875 
Q 19.734375 -1.421875 13.25 4.234375 
Q 6.78125 9.90625 6.78125 20.515625 
Q 6.78125 27.484375 10.78125 32.3125 
Q 14.796875 37.15625 21.921875 38.8125 
z
M 18.3125 54.390625 
Q 18.3125 48.734375 21.84375 45.5625 
Q 25.390625 42.390625 31.78125 42.390625 
Q 38.140625 42.390625 41.71875 45.5625 
Q 45.3125 48.734375 45.3125 54.390625 
Q 45.3125 60.0625 41.71875 63.234375 
Q 38.140625 66.40625 31.78125 66.40625 
Q 25.390625 66.40625 21.84375 63.234375 
Q 18.3125 60.0625 18.3125 54.390625 
z
" id="DejaVuSans-38"/>
      </defs>
      <g transform="translate(296.819973 251.537656)scale(0.15 -0.15)">
       <use xlink:href="#DejaVuSans-38"/>
      </g>
     </g>
    </g>
    <g id="xtick_10">
     <g id="line2d_19">
      <path clip-path="url(#pfe2dd79eab)" d="M 330.704891 230.64 
L 330.704891 13.2 
" style="fill:none;stroke:#b0b0b0;stroke-linecap:square;stroke-width:0.8;"/>
     </g>
     <g id="line2d_20">
      <g>
       <use x="330.704891" xlink:href="#mf35797989d" y="230.64"/>
      </g>
     </g>
     <g id="text_10">
      <!-- 9 -->
      <defs>
       <path d="M 10.984375 1.515625 
L 10.984375 10.5 
Q 14.703125 8.734375 18.5 7.8125 
Q 22.3125 6.890625 25.984375 6.890625 
Q 35.75 6.890625 40.890625 13.453125 
Q 46.046875 20.015625 46.78125 33.40625 
Q 43.953125 29.203125 39.59375 26.953125 
Q 35.25 24.703125 29.984375 24.703125 
Q 19.046875 24.703125 12.671875 31.3125 
Q 6.296875 37.9375 6.296875 49.421875 
Q 6.296875 60.640625 12.9375 67.421875 
Q 19.578125 74.21875 30.609375 74.21875 
Q 43.265625 74.21875 49.921875 64.515625 
Q 56.59375 54.828125 56.59375 36.375 
Q 56.59375 19.140625 48.40625 8.859375 
Q 40.234375 -1.421875 26.421875 -1.421875 
Q 22.703125 -1.421875 18.890625 -0.6875 
Q 15.09375 0.046875 10.984375 1.515625 
z
M 30.609375 32.421875 
Q 37.25 32.421875 41.125 36.953125 
Q 45.015625 41.5 45.015625 49.421875 
Q 45.015625 57.28125 41.125 61.84375 
Q 37.25 66.40625 30.609375 66.40625 
Q 23.96875 66.40625 20.09375 61.84375 
Q 16.21875 57.28125 16.21875 49.421875 
Q 16.21875 41.5 20.09375 36.953125 
Q 23.96875 32.421875 30.609375 32.421875 
z
" id="DejaVuSans-39"/>
      </defs>
      <g transform="translate(325.933016 251.537656)scale(0.15 -0.15)">
       <use xlink:href="#DejaVuSans-39"/>
      </g>
     </g>
    </g>
    <g id="xtick_11">
     <g id="line2d_21">
      <path clip-path="url(#pfe2dd79eab)" d="M 359.817935 230.64 
L 359.817935 13.2 
" style="fill:none;stroke:#b0b0b0;stroke-linecap:square;stroke-width:0.8;"/>
     </g>
     <g id="line2d_22">
      <g>
       <use x="359.817935" xlink:href="#mf35797989d" y="230.64"/>
      </g>
     </g>
     <g id="text_11">
      <!-- 10 -->
      <g transform="translate(350.274185 251.537656)scale(0.15 -0.15)">
       <use xlink:href="#DejaVuSans-31"/>
       <use x="63.623047" xlink:href="#DejaVuSans-30"/>
      </g>
     </g>
    </g>
    <g id="text_12">
     <!-- $t/\tau$ -->
     <defs>
      <path d="M 42.28125 54.6875 
L 40.921875 47.703125 
L 23 47.703125 
L 17.1875 18.015625 
Q 16.890625 16.359375 16.75 15.234375 
Q 16.609375 14.109375 16.609375 13.484375 
Q 16.609375 10.359375 18.484375 8.9375 
Q 20.359375 7.515625 24.515625 7.515625 
L 33.59375 7.515625 
L 32.078125 0 
L 23.484375 0 
Q 15.484375 0 11.546875 3.125 
Q 7.625 6.25 7.625 12.59375 
Q 7.625 13.71875 7.765625 15.0625 
Q 7.90625 16.40625 8.203125 18.015625 
L 14.015625 47.703125 
L 6.390625 47.703125 
L 7.8125 54.6875 
L 15.28125 54.6875 
L 18.3125 70.21875 
L 27.296875 70.21875 
L 24.3125 54.6875 
z
" id="DejaVuSans-Oblique-74"/>
      <path d="M 25.390625 72.90625 
L 33.6875 72.90625 
L 8.296875 -9.28125 
L 0 -9.28125 
z
" id="DejaVuSans-2f"/>
      <path d="M 32.859375 9.96875 
Q 34.1875 7.625 39.453125 7.625 
L 43.75 7.625 
L 42.28125 0 
L 36.921875 0 
Q 28.125 0 25 4.6875 
Q 21.921875 9.46875 23.96875 19.828125 
L 29 45.703125 
L 8.453125 45.703125 
L 10.203125 54.6875 
L 60.640625 54.6875 
L 58.890625 45.703125 
L 38.1875 45.703125 
L 33.015625 19.28125 
Q 31.640625 12.203125 32.859375 9.96875 
z
" id="DejaVuSans-Oblique-3c4"/>
     </defs>
     <g transform="translate(200.852717 273.854062)scale(0.2 -0.2)">
      <use transform="translate(0 0.09375)" xlink:href="#DejaVuSans-Oblique-74"/>
      <use transform="translate(39.208984 0.09375)" xlink:href="#DejaVuSans-2f"/>
      <use transform="translate(72.900391 0.09375)" xlink:href="#DejaVuSans-Oblique-3c4"/>
     </g>
    </g>
   </g>
   <g id="matplotlib.axis_2">
    <g id="ytick_1">
     <g id="line2d_23">
      <path clip-path="url(#pfe2dd79eab)" d="M 68.6875 230.64 
L 359.817935 230.64 
" style="fill:none;stroke:#b0b0b0;stroke-linecap:square;stroke-width:0.8;"/>
     </g>
     <g id="line2d_24">
      <defs>
       <path d="M 0 0 
L -6 0 
" id="m0074951038"/>
      </defs>
      <g>
       <use x="68.6875" xlink:href="#m0074951038" y="230.64"/>
      </g>
     </g>
     <g id="text_13">
      <!-- 0 -->
      <g transform="translate(49.64375 236.338828)scale(0.15 -0.15)">
       <use xlink:href="#DejaVuSans-30"/>
      </g>
     </g>
    </g>
    <g id="ytick_2">
     <g id="line2d_25">
      <path clip-path="url(#pfe2dd79eab)" d="M 68.6875 195.111053 
L 359.817935 195.111053 
" style="fill:none;stroke:#b0b0b0;stroke-linecap:square;stroke-width:0.8;"/>
     </g>
     <g id="line2d_26">
      <g>
       <use x="68.6875" xlink:href="#m0074951038" y="195.111053"/>
      </g>
     </g>
     <g id="text_14">
      <!-- 50 -->
      <g transform="translate(40.1 200.809881)scale(0.15 -0.15)">
       <use xlink:href="#DejaVuSans-35"/>
       <use x="63.623047" xlink:href="#DejaVuSans-30"/>
      </g>
     </g>
    </g>
    <g id="ytick_3">
     <g id="line2d_27">
      <path clip-path="url(#pfe2dd79eab)" d="M 68.6875 159.582105 
L 359.817935 159.582105 
" style="fill:none;stroke:#b0b0b0;stroke-linecap:square;stroke-width:0.8;"/>
     </g>
     <g id="line2d_28">
      <g>
       <use x="68.6875" xlink:href="#m0074951038" y="159.582105"/>
      </g>
     </g>
     <g id="text_15">
      <!-- 100 -->
      <g transform="translate(30.55625 165.280933)scale(0.15 -0.15)">
       <use xlink:href="#DejaVuSans-31"/>
       <use x="63.623047" xlink:href="#DejaVuSans-30"/>
       <use x="127.246094" xlink:href="#DejaVuSans-30"/>
      </g>
     </g>
    </g>
    <g id="ytick_4">
     <g id="line2d_29">
      <path clip-path="url(#pfe2dd79eab)" d="M 68.6875 124.053158 
L 359.817935 124.053158 
" style="fill:none;stroke:#b0b0b0;stroke-linecap:square;stroke-width:0.8;"/>
     </g>
     <g id="line2d_30">
      <g>
       <use x="68.6875" xlink:href="#m0074951038" y="124.053158"/>
      </g>
     </g>
     <g id="text_16">
      <!-- 150 -->
      <g transform="translate(30.55625 129.751986)scale(0.15 -0.15)">
       <use xlink:href="#DejaVuSans-31"/>
       <use x="63.623047" xlink:href="#DejaVuSans-35"/>
       <use x="127.246094" xlink:href="#DejaVuSans-30"/>
      </g>
     </g>
    </g>
    <g id="ytick_5">
     <g id="line2d_31">
      <path clip-path="url(#pfe2dd79eab)" d="M 68.6875 88.524211 
L 359.817935 88.524211 
" style="fill:none;stroke:#b0b0b0;stroke-linecap:square;stroke-width:0.8;"/>
     </g>
     <g id="line2d_32">
      <g>
       <use x="68.6875" xlink:href="#m0074951038" y="88.524211"/>
      </g>
     </g>
     <g id="text_17">
      <!-- 200 -->
      <g transform="translate(30.55625 94.223039)scale(0.15 -0.15)">
       <use xlink:href="#DejaVuSans-32"/>
       <use x="63.623047" xlink:href="#DejaVuSans-30"/>
       <use x="127.246094" xlink:href="#DejaVuSans-30"/>
      </g>
     </g>
    </g>
    <g id="ytick_6">
     <g id="line2d_33">
      <path clip-path="url(#pfe2dd79eab)" d="M 68.6875 52.995263 
L 359.817935 52.995263 
" style="fill:none;stroke:#b0b0b0;stroke-linecap:square;stroke-width:0.8;"/>
     </g>
     <g id="line2d_34">
      <g>
       <use x="68.6875" xlink:href="#m0074951038" y="52.995263"/>
      </g>
     </g>
     <g id="text_18">
      <!-- 250 -->
      <g transform="translate(30.55625 58.694091)scale(0.15 -0.15)">
       <use xlink:href="#DejaVuSans-32"/>
       <use x="63.623047" xlink:href="#DejaVuSans-35"/>
       <use x="127.246094" xlink:href="#DejaVuSans-30"/>
      </g>
     </g>
    </g>
    <g id="ytick_7">
     <g id="line2d_35">
      <path clip-path="url(#pfe2dd79eab)" d="M 68.6875 17.466316 
L 359.817935 17.466316 
" style="fill:none;stroke:#b0b0b0;stroke-linecap:square;stroke-width:0.8;"/>
     </g>
     <g id="line2d_36">
      <g>
       <use x="68.6875" xlink:href="#m0074951038" y="17.466316"/>
      </g>
     </g>
     <g id="text_19">
      <!-- 300 -->
      <g transform="translate(30.55625 23.165144)scale(0.15 -0.15)">
       <use xlink:href="#DejaVuSans-33"/>
       <use x="63.623047" xlink:href="#DejaVuSans-30"/>
       <use x="127.246094" xlink:href="#DejaVuSans-30"/>
      </g>
     </g>
    </g>
    <g id="text_20">
     <!-- Protein number -->
     <defs>
      <path d="M 19.671875 64.796875 
L 19.671875 37.40625 
L 32.078125 37.40625 
Q 38.96875 37.40625 42.71875 40.96875 
Q 46.484375 44.53125 46.484375 51.125 
Q 46.484375 57.671875 42.71875 61.234375 
Q 38.96875 64.796875 32.078125 64.796875 
z
M 9.8125 72.90625 
L 32.078125 72.90625 
Q 44.34375 72.90625 50.609375 67.359375 
Q 56.890625 61.8125 56.890625 51.125 
Q 56.890625 40.328125 50.609375 34.8125 
Q 44.34375 29.296875 32.078125 29.296875 
L 19.671875 29.296875 
L 19.671875 0 
L 9.8125 0 
z
" id="DejaVuSans-50"/>
      <path d="M 41.109375 46.296875 
Q 39.59375 47.171875 37.8125 47.578125 
Q 36.03125 48 33.890625 48 
Q 26.265625 48 22.1875 43.046875 
Q 18.109375 38.09375 18.109375 28.8125 
L 18.109375 0 
L 9.078125 0 
L 9.078125 54.6875 
L 18.109375 54.6875 
L 18.109375 46.1875 
Q 20.953125 51.171875 25.484375 53.578125 
Q 30.03125 56 36.53125 56 
Q 37.453125 56 38.578125 55.875 
Q 39.703125 55.765625 41.0625 55.515625 
z
" id="DejaVuSans-72"/>
      <path d="M 30.609375 48.390625 
Q 23.390625 48.390625 19.1875 42.75 
Q 14.984375 37.109375 14.984375 27.296875 
Q 14.984375 17.484375 19.15625 11.84375 
Q 23.34375 6.203125 30.609375 6.203125 
Q 37.796875 6.203125 41.984375 11.859375 
Q 46.1875 17.53125 46.1875 27.296875 
Q 46.1875 37.015625 41.984375 42.703125 
Q 37.796875 48.390625 30.609375 48.390625 
z
M 30.609375 56 
Q 42.328125 56 49.015625 48.375 
Q 55.71875 40.765625 55.71875 27.296875 
Q 55.71875 13.875 49.015625 6.21875 
Q 42.328125 -1.421875 30.609375 -1.421875 
Q 18.84375 -1.421875 12.171875 6.21875 
Q 5.515625 13.875 5.515625 27.296875 
Q 5.515625 40.765625 12.171875 48.375 
Q 18.84375 56 30.609375 56 
z
" id="DejaVuSans-6f"/>
      <path d="M 18.3125 70.21875 
L 18.3125 54.6875 
L 36.8125 54.6875 
L 36.8125 47.703125 
L 18.3125 47.703125 
L 18.3125 18.015625 
Q 18.3125 11.328125 20.140625 9.421875 
Q 21.96875 7.515625 27.59375 7.515625 
L 36.8125 7.515625 
L 36.8125 0 
L 27.59375 0 
Q 17.1875 0 13.234375 3.875 
Q 9.28125 7.765625 9.28125 18.015625 
L 9.28125 47.703125 
L 2.6875 47.703125 
L 2.6875 54.6875 
L 9.28125 54.6875 
L 9.28125 70.21875 
z
" id="DejaVuSans-74"/>
      <path d="M 56.203125 29.59375 
L 56.203125 25.203125 
L 14.890625 25.203125 
Q 15.484375 15.921875 20.484375 11.0625 
Q 25.484375 6.203125 34.421875 6.203125 
Q 39.59375 6.203125 44.453125 7.46875 
Q 49.3125 8.734375 54.109375 11.28125 
L 54.109375 2.78125 
Q 49.265625 0.734375 44.1875 -0.34375 
Q 39.109375 -1.421875 33.890625 -1.421875 
Q 20.796875 -1.421875 13.15625 6.1875 
Q 5.515625 13.8125 5.515625 26.8125 
Q 5.515625 40.234375 12.765625 48.109375 
Q 20.015625 56 32.328125 56 
Q 43.359375 56 49.78125 48.890625 
Q 56.203125 41.796875 56.203125 29.59375 
z
M 47.21875 32.234375 
Q 47.125 39.59375 43.09375 43.984375 
Q 39.0625 48.390625 32.421875 48.390625 
Q 24.90625 48.390625 20.390625 44.140625 
Q 15.875 39.890625 15.1875 32.171875 
z
" id="DejaVuSans-65"/>
      <path d="M 9.421875 54.6875 
L 18.40625 54.6875 
L 18.40625 0 
L 9.421875 0 
z
M 9.421875 75.984375 
L 18.40625 75.984375 
L 18.40625 64.59375 
L 9.421875 64.59375 
z
" id="DejaVuSans-69"/>
      <path d="M 54.890625 33.015625 
L 54.890625 0 
L 45.90625 0 
L 45.90625 32.71875 
Q 45.90625 40.484375 42.875 44.328125 
Q 39.84375 48.1875 33.796875 48.1875 
Q 26.515625 48.1875 22.3125 43.546875 
Q 18.109375 38.921875 18.109375 30.90625 
L 18.109375 0 
L 9.078125 0 
L 9.078125 54.6875 
L 18.109375 54.6875 
L 18.109375 46.1875 
Q 21.34375 51.125 25.703125 53.5625 
Q 30.078125 56 35.796875 56 
Q 45.21875 56 50.046875 50.171875 
Q 54.890625 44.34375 54.890625 33.015625 
z
" id="DejaVuSans-6e"/>
      <path id="DejaVuSans-20"/>
      <path d="M 8.5 21.578125 
L 8.5 54.6875 
L 17.484375 54.6875 
L 17.484375 21.921875 
Q 17.484375 14.15625 20.5 10.265625 
Q 23.53125 6.390625 29.59375 6.390625 
Q 36.859375 6.390625 41.078125 11.03125 
Q 45.3125 15.671875 45.3125 23.6875 
L 45.3125 54.6875 
L 54.296875 54.6875 
L 54.296875 0 
L 45.3125 0 
L 45.3125 8.40625 
Q 42.046875 3.421875 37.71875 1 
Q 33.40625 -1.421875 27.6875 -1.421875 
Q 18.265625 -1.421875 13.375 4.4375 
Q 8.5 10.296875 8.5 21.578125 
z
M 31.109375 56 
z
" id="DejaVuSans-75"/>
      <path d="M 52 44.1875 
Q 55.375 50.25 60.0625 53.125 
Q 64.75 56 71.09375 56 
Q 79.640625 56 84.28125 50.015625 
Q 88.921875 44.046875 88.921875 33.015625 
L 88.921875 0 
L 79.890625 0 
L 79.890625 32.71875 
Q 79.890625 40.578125 77.09375 44.375 
Q 74.3125 48.1875 68.609375 48.1875 
Q 61.625 48.1875 57.5625 43.546875 
Q 53.515625 38.921875 53.515625 30.90625 
L 53.515625 0 
L 44.484375 0 
L 44.484375 32.71875 
Q 44.484375 40.625 41.703125 44.40625 
Q 38.921875 48.1875 33.109375 48.1875 
Q 26.21875 48.1875 22.15625 43.53125 
Q 18.109375 38.875 18.109375 30.90625 
L 18.109375 0 
L 9.078125 0 
L 9.078125 54.6875 
L 18.109375 54.6875 
L 18.109375 46.1875 
Q 21.1875 51.21875 25.484375 53.609375 
Q 29.78125 56 35.6875 56 
Q 41.65625 56 45.828125 52.96875 
Q 50 49.953125 52 44.1875 
z
" id="DejaVuSans-6d"/>
      <path d="M 48.6875 27.296875 
Q 48.6875 37.203125 44.609375 42.84375 
Q 40.53125 48.484375 33.40625 48.484375 
Q 26.265625 48.484375 22.1875 42.84375 
Q 18.109375 37.203125 18.109375 27.296875 
Q 18.109375 17.390625 22.1875 11.75 
Q 26.265625 6.109375 33.40625 6.109375 
Q 40.53125 6.109375 44.609375 11.75 
Q 48.6875 17.390625 48.6875 27.296875 
z
M 18.109375 46.390625 
Q 20.953125 51.265625 25.265625 53.625 
Q 29.59375 56 35.59375 56 
Q 45.5625 56 51.78125 48.09375 
Q 58.015625 40.1875 58.015625 27.296875 
Q 58.015625 14.40625 51.78125 6.484375 
Q 45.5625 -1.421875 35.59375 -1.421875 
Q 29.59375 -1.421875 25.265625 0.953125 
Q 20.953125 3.328125 18.109375 8.203125 
L 18.109375 0 
L 9.078125 0 
L 9.078125 75.984375 
L 18.109375 75.984375 
z
" id="DejaVuSans-62"/>
     </defs>
     <g transform="translate(22.396875 199.57)rotate(-90)scale(0.2 -0.2)">
      <use xlink:href="#DejaVuSans-50"/>
      <use x="60.287109" xlink:href="#DejaVuSans-72"/>
      <use x="101.369141" xlink:href="#DejaVuSans-6f"/>
      <use x="162.550781" xlink:href="#DejaVuSans-74"/>
      <use x="201.759766" xlink:href="#DejaVuSans-65"/>
      <use x="263.283203" xlink:href="#DejaVuSans-69"/>
      <use x="291.066406" xlink:href="#DejaVuSans-6e"/>
      <use x="354.445312" xlink:href="#DejaVuSans-20"/>
      <use x="386.232422" xlink:href="#DejaVuSans-6e"/>
      <use x="449.611328" xlink:href="#DejaVuSans-75"/>
      <use x="512.990234" xlink:href="#DejaVuSans-6d"/>
      <use x="610.402344" xlink:href="#DejaVuSans-62"/>
      <use x="673.878906" xlink:href="#DejaVuSans-65"/>
      <use x="735.402344" xlink:href="#DejaVuSans-72"/>
     </g>
    </g>
   </g>
   <g id="line2d_37">
    <path clip-path="url(#pfe2dd79eab)" d="M 68.751145 195.111053 
L 72.121559 192.979316 
L 75.230831 189.426421 
L 78.605601 182.320632 
L 81.956593 177.346579 
L 84.893 170.24079 
L 88.118568 190.847579 
L 91.54538 183.031211 
L 94.613083 173.083105 
L 97.870879 167.398474 
L 101.160507 159.582105 
L 104.325709 153.897474 
L 107.960057 148.923421 
L 110.872665 191.558158 
L 114.172712 190.137 
L 117.452934 188.005263 
L 120.488708 187.294684 
L 123.694872 186.584105 
L 127.030664 183.031211 
L 130.304604 177.346579 
L 133.383627 172.372526 
L 136.738729 168.819632 
L 139.871617 160.292684 
L 143.120455 149.634 
L 146.452466 147.502263 
L 149.595393 185.162947 
L 152.792279 179.478316 
L 157.334746 178.057158 
L 159.389156 175.925421 
L 162.960289 173.083105 
L 165.840303 168.819632 
L 169.206904 159.582105 
L 172.2623 155.318632 
L 175.594463 148.923421 
L 178.738343 185.873526 
L 182.131275 180.188895 
L 185.295687 175.925421 
L 188.558344 165.977316 
L 191.946969 158.871526 
L 194.910342 153.186895 
L 198.1698 138.264737 
L 201.510077 124.053158 
L 204.708077 114.815632 
L 207.819761 106.288684 
L 211.09061 89.23479 
L 214.765828 77.865526 
L 217.663281 67.917421 
L 220.764605 148.212842 
L 223.968429 141.817632 
L 227.243806 131.869526 
L 230.582395 120.500263 
L 233.674057 114.105053 
L 237.006795 104.156947 
L 240.313941 94.919421 
L 243.368692 82.129 
L 246.635555 144.659947 
L 249.856238 138.264737 
L 253.619346 134.001263 
L 256.757588 126.184895 
L 259.545215 119.079105 
L 263.107597 109.841579 
L 266.139541 100.604053 
L 269.387366 94.919421 
L 272.536015 81.418421 
L 275.859949 70.049158 
L 279.096982 52.284684 
L 282.18865 126.184895 
L 285.676789 118.368526 
L 288.680869 108.420421 
L 291.923691 97.051158 
L 295.124624 81.418421 
L 298.476603 74.312632 
L 301.617764 66.496263 
L 305.380541 56.548158 
L 308.114026 126.895474 
L 311.399631 121.921421 
L 314.866428 112.683895 
L 318.034787 104.156947 
L 321.107451 97.051158 
L 324.240519 85.681895 
L 327.616914 70.759737 
L 330.776321 60.811632 
L 334.003831 48.021211 
L 337.502177 129.027211 
L 340.443618 123.342579 
L 343.655308 117.657947 
L 346.955305 111.973316 
L 350.200878 106.999263 
L 353.457395 98.472316 
L 356.684365 94.208842 
" style="fill:none;stroke:#4be000;stroke-linecap:square;stroke-width:1.5;"/>
   </g>
   <g id="line2d_38">
    <path clip-path="url(#pfe2dd79eab)" d="M 68.751145 194.400474 
L 72.121559 192.268737 
L 75.230831 185.873526 
L 78.605601 183.031211 
L 81.956593 176.636 
L 84.893 168.109053 
L 88.118568 164.556158 
L 91.54538 155.318632 
L 94.613083 148.212842 
L 97.870879 142.528211 
L 101.160507 179.478316 
L 104.325709 175.925421 
L 107.960057 169.530211 
L 110.872665 161.713842 
L 114.172712 152.476316 
L 117.452934 143.949369 
L 120.488708 141.107053 
L 123.694872 131.158947 
L 127.030664 124.053158 
L 130.304604 110.552158 
L 133.383627 168.109053 
L 136.738729 161.713842 
L 139.871617 155.318632 
L 143.120455 151.765737 
L 146.452466 146.081105 
L 149.595393 142.528211 
L 152.792279 123.342579 
L 157.334746 100.604053 
L 159.389156 84.260737 
L 162.960289 154.608053 
L 165.840303 147.502263 
L 169.206904 141.817632 
L 172.2623 132.580105 
L 175.594463 129.73779 
L 178.738343 123.342579 
L 182.131275 114.105053 
L 185.295687 102.025211 
L 188.558344 85.681895 
L 191.946969 75.023211 
L 194.910342 134.001263 
L 198.1698 126.184895 
L 201.510077 121.210842 
L 204.708077 116.23679 
L 207.819761 103.446369 
L 211.09061 93.498263 
L 214.765828 75.73379 
L 217.663281 141.817632 
L 220.764605 138.975316 
L 223.968429 130.448369 
L 227.243806 119.079105 
L 230.582395 114.105053 
L 233.674057 109.131 
L 237.006795 103.446369 
L 240.313941 153.897474 
L 243.368692 145.370526 
L 246.635555 132.580105 
L 249.856238 124.053158 
L 253.619346 114.815632 
L 256.757588 106.999263 
L 259.545215 98.472316 
L 263.107597 89.945369 
L 266.139541 75.73379 
L 269.387366 62.23279 
L 272.536015 124.763737 
L 275.859949 119.079105 
L 279.096982 112.683895 
L 282.18865 102.73579 
L 285.676789 91.366526 
L 288.680869 83.550158 
L 291.923691 75.023211 
L 295.124624 69.338579 
L 298.476603 59.390474 
L 301.617764 139.685895 
L 305.380541 132.580105 
L 308.114026 126.895474 
L 311.399631 121.921421 
L 314.866428 117.657947 
L 318.034787 107.709842 
L 321.107451 155.318632 
L 324.240519 146.791684 
L 327.616914 134.001263 
L 330.776321 129.73779 
L 334.003831 123.342579 
L 337.502177 119.079105 
L 340.443618 111.262737 
L 343.655308 103.446369 
L 346.955305 95.63 
L 350.200878 84.971316 
L 353.457395 80.707842 
L 356.684365 141.817632 
" style="fill:none;stroke:#4be000;stroke-linecap:square;stroke-width:1.5;"/>
   </g>
   <g id="line2d_39">
    <path clip-path="url(#pfe2dd79eab)" d="M 68.751145 195.111053 
L 72.121559 194.400474 
L 75.230831 192.268737 
L 78.605601 187.294684 
L 81.956593 181.610053 
L 84.893 175.925421 
L 88.118568 167.398474 
L 91.54538 158.871526 
L 94.613083 198.663947 
L 97.870879 193.689895 
L 101.160507 190.137 
L 104.325709 188.005263 
L 107.960057 180.188895 
L 110.872665 173.793684 
L 114.172712 170.24079 
L 117.452934 167.398474 
L 120.488708 161.003263 
L 123.694872 153.897474 
L 127.030664 148.923421 
L 130.304604 184.452368 
L 133.383627 179.478316 
L 136.738729 171.661947 
L 139.871617 165.977316 
L 143.120455 157.450368 
L 146.452466 148.212842 
L 149.595393 140.396474 
L 152.792279 131.158947 
L 157.334746 111.973316 
L 159.389156 168.109053 
L 162.960289 158.160947 
L 165.840303 148.923421 
L 169.206904 140.396474 
L 172.2623 129.73779 
L 175.594463 123.342579 
L 178.738343 165.266737 
L 182.131275 160.292684 
L 185.295687 156.73979 
L 188.558344 150.344579 
L 191.946969 143.949369 
L 194.910342 140.396474 
L 198.1698 136.133 
L 201.510077 129.027211 
L 204.708077 116.947369 
L 207.819761 102.73579 
L 211.09061 95.63 
L 214.765828 87.813632 
L 217.663281 159.582105 
L 220.764605 153.897474 
L 223.968429 146.081105 
L 227.243806 136.843579 
L 230.582395 124.763737 
L 233.674057 119.079105 
L 237.006795 106.999263 
L 240.313941 97.761737 
L 243.368692 154.608053 
L 246.635555 145.370526 
L 249.856238 143.949369 
L 253.619346 138.975316 
L 256.757588 134.711842 
L 259.545215 129.73779 
L 263.107597 123.342579 
L 266.139541 172.372526 
L 269.387366 165.977316 
L 272.536015 164.556158 
L 275.859949 156.73979 
L 279.096982 152.476316 
L 282.18865 143.23879 
L 285.676789 138.975316 
L 288.680869 180.188895 
L 291.923691 173.083105 
L 295.124624 168.109053 
L 298.476603 156.73979 
L 301.617764 150.344579 
L 305.380541 146.791684 
L 308.114026 138.264737 
L 311.399631 133.290684 
L 314.866428 125.474316 
L 318.034787 119.079105 
L 321.107451 112.683895 
L 324.240519 101.314632 
L 327.616914 87.813632 
L 330.776321 155.318632 
L 334.003831 152.476316 
L 337.502177 147.502263 
L 340.443618 141.817632 
L 343.655308 136.843579 
L 346.955305 132.580105 
L 350.200878 126.895474 
L 353.457395 114.105053 
L 356.684365 170.951368 
" style="fill:none;stroke:#4be000;stroke-linecap:square;stroke-width:1.5;"/>
   </g>
   <g id="line2d_40">
    <path clip-path="url(#pfe2dd79eab)" d="M 68.751145 194.400474 
L 72.121559 192.979316 
L 75.230831 191.558158 
L 78.605601 188.005263 
L 81.956593 183.74179 
L 84.893 175.214842 
L 88.118568 166.687895 
L 91.54538 151.765737 
L 94.613083 188.715842 
L 97.870879 184.452368 
L 101.160507 179.478316 
L 104.325709 170.24079 
L 107.960057 162.424421 
L 110.872665 156.029211 
L 114.172712 141.107053 
L 117.452934 126.184895 
L 120.488708 173.083105 
L 123.694872 167.398474 
L 127.030664 156.73979 
L 130.304604 150.344579 
L 133.383627 140.396474 
L 136.738729 182.320632 
L 139.871617 179.478316 
L 143.120455 177.346579 
L 146.452466 173.793684 
L 149.595393 171.661947 
L 152.792279 161.713842 
L 157.334746 153.186895 
L 159.389156 145.370526 
L 162.960289 135.422421 
L 165.840303 130.448369 
L 169.206904 122.632 
L 172.2623 116.23679 
L 175.594463 107.709842 
L 178.738343 169.530211 
L 182.131275 168.819632 
L 185.295687 166.687895 
L 188.558344 161.713842 
L 191.946969 152.476316 
L 194.910342 146.081105 
L 198.1698 141.107053 
L 201.510077 133.290684 
L 204.708077 124.053158 
L 207.819761 112.683895 
L 211.09061 103.446369 
L 214.765828 89.945369 
L 217.663281 158.871526 
L 220.764605 154.608053 
L 223.968429 148.923421 
L 227.243806 142.528211 
L 230.582395 137.554158 
L 233.674057 131.158947 
L 237.006795 126.184895 
L 240.313941 168.819632 
L 243.368692 160.292684 
L 246.635555 153.897474 
L 249.856238 148.923421 
L 253.619346 140.396474 
L 256.757588 126.895474 
L 259.545215 119.079105 
L 263.107597 111.262737 
L 266.139541 102.025211 
L 269.387366 92.077105 
L 272.536015 158.160947 
L 275.859949 153.186895 
L 279.096982 148.212842 
L 282.18865 140.396474 
L 285.676789 133.290684 
L 288.680869 129.027211 
L 291.923691 173.083105 
L 295.124624 169.530211 
L 298.476603 168.109053 
L 301.617764 167.398474 
L 305.380541 164.556158 
L 308.114026 156.029211 
L 311.399631 147.502263 
L 314.866428 132.580105 
L 318.034787 128.316632 
L 321.107451 114.815632 
L 324.240519 97.051158 
L 327.616914 84.971316 
L 330.776321 80.707842 
L 334.003831 67.917421 
L 337.502177 145.370526 
L 340.443618 136.843579 
L 343.655308 131.158947 
L 346.955305 124.053158 
L 350.200878 116.947369 
L 353.457395 106.999263 
L 356.684365 97.761737 
" style="fill:none;stroke:#4be000;stroke-linecap:square;stroke-width:1.5;"/>
   </g>
   <g id="line2d_41">
    <path clip-path="url(#pfe2dd79eab)" d="M 68.751145 194.400474 
L 72.121559 192.268737 
L 75.230831 188.005263 
L 78.605601 179.478316 
L 81.956593 167.398474 
L 84.893 158.160947 
L 88.118568 150.344579 
L 91.54538 137.554158 
L 94.613083 126.184895 
L 97.870879 179.478316 
L 101.160507 173.793684 
L 104.325709 166.687895 
L 107.960057 163.135 
L 110.872665 156.73979 
L 114.172712 152.476316 
L 117.452934 145.370526 
L 120.488708 139.685895 
L 123.694872 136.843579 
L 127.030664 130.448369 
L 130.304604 176.636 
L 133.383627 173.793684 
L 136.738729 171.661947 
L 139.871617 164.556158 
L 143.120455 156.73979 
L 146.452466 146.791684 
L 149.595393 189.426421 
L 152.792279 184.452368 
L 157.334746 180.899474 
L 159.389156 180.188895 
L 162.960289 178.767737 
L 165.840303 173.793684 
L 169.206904 167.398474 
L 172.2623 159.582105 
L 175.594463 153.186895 
L 178.738343 190.137 
L 182.131275 183.74179 
L 185.295687 178.057158 
L 188.558344 175.214842 
L 191.946969 171.661947 
L 194.910342 166.687895 
L 198.1698 162.424421 
L 201.510077 152.476316 
L 204.708077 143.23879 
L 207.819761 130.448369 
L 211.09061 121.921421 
L 214.765828 112.683895 
L 217.663281 161.003263 
L 220.764605 153.897474 
L 223.968429 147.502263 
L 227.243806 143.23879 
L 230.582395 138.264737 
L 233.674057 175.214842 
L 237.006795 173.793684 
L 240.313941 167.398474 
L 243.368692 163.845579 
L 246.635555 155.318632 
L 249.856238 148.923421 
L 253.619346 142.528211 
L 256.757588 134.001263 
L 259.545215 129.73779 
L 263.107597 121.921421 
L 266.139541 112.683895 
L 269.387366 105.578105 
L 272.536015 167.398474 
L 275.859949 164.556158 
L 279.096982 155.318632 
L 282.18865 146.791684 
L 285.676789 139.685895 
L 288.680869 133.290684 
L 291.923691 118.368526 
L 295.124624 104.156947 
L 298.476603 157.450368 
L 301.617764 151.765737 
L 305.380541 143.949369 
L 308.114026 139.685895 
L 311.399631 136.843579 
L 314.866428 131.158947 
L 318.034787 118.368526 
L 321.107451 109.131 
L 324.240519 99.182895 
L 327.616914 161.713842 
L 330.776321 158.160947 
L 334.003831 150.344579 
L 337.502177 143.949369 
L 340.443618 140.396474 
L 343.655308 136.843579 
L 346.955305 134.001263 
L 350.200878 125.474316 
L 353.457395 112.683895 
L 356.684365 103.446369 
" style="fill:none;stroke:#4be000;stroke-linecap:square;stroke-width:1.5;"/>
   </g>
   <g id="line2d_42">
    <path clip-path="url(#pfe2dd79eab)" d="M 68.751145 194.861639 
L 72.121559 191.490653 
L 75.230831 186.960712 
L 78.605601 181.426013 
L 81.956593 175.190682 
L 84.893 168.660462 
L 88.118568 162.250329 
L 91.54538 157.731758 
L 94.613083 155.845881 
L 97.870879 157.460317 
L 101.160507 159.48973 
L 104.325709 159.790305 
L 107.960057 157.932852 
L 110.872665 153.814336 
L 114.172712 149.135174 
L 117.452934 143.407197 
L 120.488708 139.499013 
L 123.694872 139.051348 
L 127.030664 140.166957 
L 130.304604 144.365768 
L 133.383627 147.966982 
L 136.738729 146.733417 
L 139.871617 142.999324 
L 143.120455 137.532841 
L 146.452466 133.461223 
L 149.595393 130.108001 
L 152.792279 131.05165 
L 157.334746 133.609024 
L 159.389156 135.885008 
L 162.960289 139.608442 
L 165.840303 140.338206 
L 169.206904 137.547052 
L 172.2623 133.508832 
L 175.594463 129.206987 
L 178.738343 127.260711 
L 182.131275 126.538053 
L 185.295687 129.447873 
L 188.558344 134.46385 
L 191.946969 136.998485 
L 194.910342 137.348801 
L 198.1698 135.220617 
L 201.510077 131.440337 
L 204.708077 127.129254 
L 207.819761 124.346627 
L 211.09061 123.844248 
L 214.765828 127.97058 
L 217.663281 131.590269 
L 220.764605 134.523539 
L 223.968429 134.575411 
L 227.243806 133.356058 
L 230.582395 129.418029 
L 233.674057 125.782707 
L 237.006795 124.372208 
L 240.313941 124.699074 
L 243.368692 126.575003 
L 246.635555 132.11965 
L 249.856238 134.035371 
L 253.619346 134.9911 
L 256.757588 132.030828 
L 259.545215 129.275913 
L 263.107597 125.634196 
L 266.139541 123.857749 
L 269.387366 125.192927 
L 272.536015 128.514173 
L 275.859949 131.741622 
L 279.096982 134.364369 
L 282.18865 134.964808 
L 285.676789 131.725989 
L 288.680869 127.598236 
L 291.923691 124.41129 
L 295.124624 122.072064 
L 298.476603 122.74214 
L 301.617764 126.096783 
L 305.380541 130.080289 
L 308.114026 133.286421 
L 311.399631 133.48183 
L 314.866428 131.010436 
L 318.034787 127.732536 
L 321.107451 124.303992 
L 324.240519 121.92 
L 327.616914 123.401557 
L 330.776321 128.255522 
L 334.003831 132.232632 
L 337.502177 134.408425 
L 340.443618 134.522118 
L 343.655308 132.170812 
L 346.955305 129.195618 
L 350.200878 125.767074 
L 353.457395 123.98139 
L 356.684365 125.119026 
" style="fill:none;stroke:#3bb000;stroke-linecap:square;stroke-width:3;"/>
   </g>
   <g id="patch_3">
    <path d="M 68.6875 230.64 
L 68.6875 13.2 
" style="fill:none;stroke:#000000;stroke-linecap:square;stroke-linejoin:miter;stroke-width:2;"/>
   </g>
   <g id="patch_4">
    <path d="M 359.817935 230.64 
L 359.817935 13.2 
" style="fill:none;"/>
   </g>
   <g id="patch_5">
    <path d="M 68.6875 230.64 
L 359.817935 230.64 
" style="fill:none;stroke:#000000;stroke-linecap:square;stroke-linejoin:miter;stroke-width:2;"/>
   </g>
   <g id="patch_6">
    <path d="M 68.6875 13.2 
L 359.817935 13.2 
" style="fill:none;"/>
   </g>
  </g>
  <g id="axes_2">
   <g id="patch_7">
    <path d="M 447.157065 230.64 
L 738.2875 230.64 
L 738.2875 13.2 
L 447.157065 13.2 
z
" style="fill:#ffffff;"/>
   </g>
   <g id="PolyCollection_2">
    <defs>
     <path d="M 447.220711 -54.693083 
L 447.220711 -54.672758 
L 450.591124 -56.829511 
L 453.700396 -59.904463 
L 457.075166 -62.871281 
L 460.426158 -65.979178 
L 463.362565 -74.134812 
L 466.588133 -88.48286 
L 470.014945 -115.908069 
L 473.082648 -156.539895 
L 476.340444 -195.9322 
L 479.630072 -202.45645 
L 482.795274 -175.154946 
L 486.429622 -134.902002 
L 489.34223 -109.753064 
L 492.642277 -89.509998 
L 495.922499 -100.307009 
L 498.958273 -124.169097 
L 502.164437 -158.282382 
L 505.50023 -193.343538 
L 508.774169 -210.49078 
L 511.853192 -180.363532 
L 515.208294 -136.581966 
L 518.341182 -105.496143 
L 521.59002 -97.297458 
L 524.922031 -104.786166 
L 528.064958 -125.674347 
L 531.261844 -165.286864 
L 535.804311 -198.310684 
L 537.858722 -210.08657 
L 541.429854 -188.000391 
L 544.309868 -142.873705 
L 547.67647 -104.850659 
L 550.731865 -93.973054 
L 554.064028 -107.499049 
L 557.207908 -136.636652 
L 560.600841 -164.34044 
L 563.765252 -197.48122 
L 567.02791 -203.805316 
L 570.416534 -187.706877 
L 573.379908 -150.061124 
L 576.639365 -114.963612 
L 579.979643 -96.350701 
L 583.177642 -108.650227 
L 586.289326 -127.616971 
L 589.560175 -157.873191 
L 593.235393 -190.495241 
L 596.132846 -204.733167 
L 599.234171 -182.164503 
L 602.437994 -148.381321 
L 605.713371 -113.465543 
L 609.051961 -101.486355 
L 612.143622 -107.939831 
L 615.476361 -135.932126 
L 618.783506 -169.220269 
L 621.838258 -196.948138 
L 625.10512 -203.474477 
L 628.325803 -183.094215 
L 632.088911 -143.983931 
L 635.227154 -123.317488 
L 638.01478 -98.238299 
L 641.577163 -107.15766 
L 644.609106 -133.66279 
L 647.856931 -168.752913 
L 651.005581 -194.866616 
L 654.329514 -201.778111 
L 657.566547 -180.60021 
L 660.658215 -143.031548 
L 664.146354 -115.899761 
L 667.150435 -104.215235 
L 670.393256 -112.024161 
L 673.59419 -134.68715 
L 676.946168 -167.64869 
L 680.087329 -194.128343 
L 683.850106 -201.913987 
L 686.583591 -182.861565 
L 689.869196 -147.247525 
L 693.335994 -117.503239 
L 696.504352 -106.316293 
L 699.577016 -109.949897 
L 702.710084 -134.405744 
L 706.086479 -164.617128 
L 709.245887 -197.163938 
L 712.473396 -202.337778 
L 715.971743 -179.515773 
L 718.913183 -140.558474 
L 722.124873 -113.273668 
L 725.42487 -103.512544 
L 728.670444 -115.141819 
L 731.92696 -140.970304 
L 735.15393 -170.409339 
L 735.15393 -205.873308 
L 735.15393 -205.873308 
L 731.92696 -166.115092 
L 728.670444 -131.844699 
L 725.42487 -116.62554 
L 722.124873 -129.390463 
L 718.913183 -165.563956 
L 715.971743 -218.308818 
L 712.473396 -249.739294 
L 709.245887 -242.5815 
L 706.086479 -197.996318 
L 702.710084 -157.347517 
L 699.577016 -125.032688 
L 696.504352 -120.281799 
L 693.335994 -134.951924 
L 689.869196 -174.53348 
L 686.583591 -222.893218 
L 683.850106 -249.152297 
L 680.087329 -238.390596 
L 676.946168 -202.115809 
L 673.59419 -157.722586 
L 670.393256 -127.750919 
L 667.150435 -117.541093 
L 664.146354 -132.84142 
L 660.658215 -168.875752 
L 657.566547 -219.793812 
L 654.329514 -248.96412 
L 651.005581 -239.409249 
L 647.856931 -203.61806 
L 644.609106 -156.357615 
L 641.577163 -121.380638 
L 638.01478 -109.771071 
L 635.227154 -142.625604 
L 632.088911 -170.152515 
L 628.325803 -223.212299 
L 625.10512 -251.314357 
L 621.838258 -242.283355 
L 618.783506 -204.25416 
L 615.476361 -159.382781 
L 612.143622 -122.402838 
L 609.051961 -113.988603 
L 605.713371 -129.642372 
L 602.437994 -176.057542 
L 599.234171 -221.937428 
L 596.132846 -253.059497 
L 593.235393 -233.383348 
L 589.560175 -188.857916 
L 586.289326 -148.320677 
L 583.177642 -123.331796 
L 579.979643 -107.325611 
L 576.639365 -131.610433 
L 573.379908 -178.317508 
L 570.416534 -229.54673 
L 567.02791 -251.772951 
L 563.765252 -243.01991 
L 560.600841 -197.62069 
L 557.207908 -160.322881 
L 554.064028 -121.826711 
L 550.731865 -104.251225 
L 547.67647 -118.369464 
L 544.309868 -168.664221 
L 541.429854 -229.950325 
L 537.858722 -260.493961 
L 535.804311 -244.166367 
L 531.261844 -198.905789 
L 528.064958 -145.745356 
L 524.922031 -118.285368 
L 521.59002 -108.551656 
L 518.341182 -119.211397 
L 515.208294 -160.249894 
L 511.853192 -219.469639 
L 508.774169 -261.056095 
L 505.50023 -237.308162 
L 502.164437 -189.411369 
L 498.958273 -143.752269 
L 495.922499 -112.45587 
L 492.642277 -98.498843 
L 489.34223 -124.774978 
L 486.429622 -158.008997 
L 482.795274 -212.346037 
L 479.630072 -249.903689 
L 476.340444 -240.880196 
L 473.082648 -187.055488 
L 470.014945 -132.852349 
L 466.588133 -97.178505 
L 463.362565 -78.886686 
L 460.426158 -68.636566 
L 457.075166 -64.765799 
L 453.700396 -61.093133 
L 450.591124 -57.315689 
L 447.220711 -54.693083 
z
" id="m5957a6ac09"/>
    </defs>
    <g clip-path="url(#pfdb75e8bb4)">
     <use style="fill:#4be000;" x="0" xlink:href="#m5957a6ac09" y="285.213437"/>
    </g>
   </g>
   <g id="matplotlib.axis_3">
    <g id="xtick_12">
     <g id="line2d_43">
      <path clip-path="url(#pfdb75e8bb4)" d="M 447.157065 230.64 
L 447.157065 13.2 
" style="fill:none;stroke:#b0b0b0;stroke-linecap:square;stroke-width:0.8;"/>
     </g>
     <g id="line2d_44">
      <g>
       <use x="447.157065" xlink:href="#mf35797989d" y="230.64"/>
      </g>
     </g>
     <g id="text_21">
      <!-- 0 -->
      <g transform="translate(442.38519 251.537656)scale(0.15 -0.15)">
       <use xlink:href="#DejaVuSans-30"/>
      </g>
     </g>
    </g>
    <g id="xtick_13">
     <g id="line2d_45">
      <path clip-path="url(#pfdb75e8bb4)" d="M 476.270109 230.64 
L 476.270109 13.2 
" style="fill:none;stroke:#b0b0b0;stroke-linecap:square;stroke-width:0.8;"/>
     </g>
     <g id="line2d_46">
      <g>
       <use x="476.270109" xlink:href="#mf35797989d" y="230.64"/>
      </g>
     </g>
     <g id="text_22">
      <!-- 1 -->
      <g transform="translate(471.498234 251.537656)scale(0.15 -0.15)">
       <use xlink:href="#DejaVuSans-31"/>
      </g>
     </g>
    </g>
    <g id="xtick_14">
     <g id="line2d_47">
      <path clip-path="url(#pfdb75e8bb4)" d="M 505.383152 230.64 
L 505.383152 13.2 
" style="fill:none;stroke:#b0b0b0;stroke-linecap:square;stroke-width:0.8;"/>
     </g>
     <g id="line2d_48">
      <g>
       <use x="505.383152" xlink:href="#mf35797989d" y="230.64"/>
      </g>
     </g>
     <g id="text_23">
      <!-- 2 -->
      <g transform="translate(500.611277 251.537656)scale(0.15 -0.15)">
       <use xlink:href="#DejaVuSans-32"/>
      </g>
     </g>
    </g>
    <g id="xtick_15">
     <g id="line2d_49">
      <path clip-path="url(#pfdb75e8bb4)" d="M 534.496196 230.64 
L 534.496196 13.2 
" style="fill:none;stroke:#b0b0b0;stroke-linecap:square;stroke-width:0.8;"/>
     </g>
     <g id="line2d_50">
      <g>
       <use x="534.496196" xlink:href="#mf35797989d" y="230.64"/>
      </g>
     </g>
     <g id="text_24">
      <!-- 3 -->
      <g transform="translate(529.724321 251.537656)scale(0.15 -0.15)">
       <use xlink:href="#DejaVuSans-33"/>
      </g>
     </g>
    </g>
    <g id="xtick_16">
     <g id="line2d_51">
      <path clip-path="url(#pfdb75e8bb4)" d="M 563.609239 230.64 
L 563.609239 13.2 
" style="fill:none;stroke:#b0b0b0;stroke-linecap:square;stroke-width:0.8;"/>
     </g>
     <g id="line2d_52">
      <g>
       <use x="563.609239" xlink:href="#mf35797989d" y="230.64"/>
      </g>
     </g>
     <g id="text_25">
      <!-- 4 -->
      <g transform="translate(558.837364 251.537656)scale(0.15 -0.15)">
       <use xlink:href="#DejaVuSans-34"/>
      </g>
     </g>
    </g>
    <g id="xtick_17">
     <g id="line2d_53">
      <path clip-path="url(#pfdb75e8bb4)" d="M 592.722283 230.64 
L 592.722283 13.2 
" style="fill:none;stroke:#b0b0b0;stroke-linecap:square;stroke-width:0.8;"/>
     </g>
     <g id="line2d_54">
      <g>
       <use x="592.722283" xlink:href="#mf35797989d" y="230.64"/>
      </g>
     </g>
     <g id="text_26">
      <!-- 5 -->
      <g transform="translate(587.950408 251.537656)scale(0.15 -0.15)">
       <use xlink:href="#DejaVuSans-35"/>
      </g>
     </g>
    </g>
    <g id="xtick_18">
     <g id="line2d_55">
      <path clip-path="url(#pfdb75e8bb4)" d="M 621.835326 230.64 
L 621.835326 13.2 
" style="fill:none;stroke:#b0b0b0;stroke-linecap:square;stroke-width:0.8;"/>
     </g>
     <g id="line2d_56">
      <g>
       <use x="621.835326" xlink:href="#mf35797989d" y="230.64"/>
      </g>
     </g>
     <g id="text_27">
      <!-- 6 -->
      <g transform="translate(617.063451 251.537656)scale(0.15 -0.15)">
       <use xlink:href="#DejaVuSans-36"/>
      </g>
     </g>
    </g>
    <g id="xtick_19">
     <g id="line2d_57">
      <path clip-path="url(#pfdb75e8bb4)" d="M 650.94837 230.64 
L 650.94837 13.2 
" style="fill:none;stroke:#b0b0b0;stroke-linecap:square;stroke-width:0.8;"/>
     </g>
     <g id="line2d_58">
      <g>
       <use x="650.94837" xlink:href="#mf35797989d" y="230.64"/>
      </g>
     </g>
     <g id="text_28">
      <!-- 7 -->
      <g transform="translate(646.176495 251.537656)scale(0.15 -0.15)">
       <use xlink:href="#DejaVuSans-37"/>
      </g>
     </g>
    </g>
    <g id="xtick_20">
     <g id="line2d_59">
      <path clip-path="url(#pfdb75e8bb4)" d="M 680.061413 230.64 
L 680.061413 13.2 
" style="fill:none;stroke:#b0b0b0;stroke-linecap:square;stroke-width:0.8;"/>
     </g>
     <g id="line2d_60">
      <g>
       <use x="680.061413" xlink:href="#mf35797989d" y="230.64"/>
      </g>
     </g>
     <g id="text_29">
      <!-- 8 -->
      <g transform="translate(675.289538 251.537656)scale(0.15 -0.15)">
       <use xlink:href="#DejaVuSans-38"/>
      </g>
     </g>
    </g>
    <g id="xtick_21">
     <g id="line2d_61">
      <path clip-path="url(#pfdb75e8bb4)" d="M 709.174457 230.64 
L 709.174457 13.2 
" style="fill:none;stroke:#b0b0b0;stroke-linecap:square;stroke-width:0.8;"/>
     </g>
     <g id="line2d_62">
      <g>
       <use x="709.174457" xlink:href="#mf35797989d" y="230.64"/>
      </g>
     </g>
     <g id="text_30">
      <!-- 9 -->
      <g transform="translate(704.402582 251.537656)scale(0.15 -0.15)">
       <use xlink:href="#DejaVuSans-39"/>
      </g>
     </g>
    </g>
    <g id="xtick_22">
     <g id="line2d_63">
      <path clip-path="url(#pfdb75e8bb4)" d="M 738.2875 230.64 
L 738.2875 13.2 
" style="fill:none;stroke:#b0b0b0;stroke-linecap:square;stroke-width:0.8;"/>
     </g>
     <g id="line2d_64">
      <g>
       <use x="738.2875" xlink:href="#mf35797989d" y="230.64"/>
      </g>
     </g>
     <g id="text_31">
      <!-- 10 -->
      <g transform="translate(728.74375 251.537656)scale(0.15 -0.15)">
       <use xlink:href="#DejaVuSans-31"/>
       <use x="63.623047" xlink:href="#DejaVuSans-30"/>
      </g>
     </g>
    </g>
    <g id="text_32">
     <!-- $t/\tau$ -->
     <g transform="translate(579.322283 273.854062)scale(0.2 -0.2)">
      <use transform="translate(0 0.09375)" xlink:href="#DejaVuSans-Oblique-74"/>
      <use transform="translate(39.208984 0.09375)" xlink:href="#DejaVuSans-2f"/>
      <use transform="translate(72.900391 0.09375)" xlink:href="#DejaVuSans-Oblique-3c4"/>
     </g>
    </g>
   </g>
   <g id="matplotlib.axis_4">
    <g id="ytick_8">
     <g id="line2d_65">
      <path clip-path="url(#pfdb75e8bb4)" d="M 447.157065 230.64 
L 738.2875 230.64 
" style="fill:none;stroke:#b0b0b0;stroke-linecap:square;stroke-width:0.8;"/>
     </g>
     <g id="line2d_66">
      <g>
       <use x="447.157065" xlink:href="#m0074951038" y="230.64"/>
      </g>
     </g>
     <g id="text_33">
      <!-- 0.00 -->
      <defs>
       <path d="M 10.6875 12.40625 
L 21 12.40625 
L 21 0 
L 10.6875 0 
z
" id="DejaVuSans-2e"/>
      </defs>
      <g transform="translate(404.258628 236.338828)scale(0.15 -0.15)">
       <use xlink:href="#DejaVuSans-30"/>
       <use x="63.623047" xlink:href="#DejaVuSans-2e"/>
       <use x="95.410156" xlink:href="#DejaVuSans-30"/>
       <use x="159.033203" xlink:href="#DejaVuSans-30"/>
      </g>
     </g>
    </g>
    <g id="ytick_9">
     <g id="line2d_67">
      <path clip-path="url(#pfdb75e8bb4)" d="M 447.157065 194.195845 
L 738.2875 194.195845 
" style="fill:none;stroke:#b0b0b0;stroke-linecap:square;stroke-width:0.8;"/>
     </g>
     <g id="line2d_68">
      <g>
       <use x="447.157065" xlink:href="#m0074951038" y="194.195845"/>
      </g>
     </g>
     <g id="text_34">
      <!-- 0.03 -->
      <g transform="translate(404.258628 199.894673)scale(0.15 -0.15)">
       <use xlink:href="#DejaVuSans-30"/>
       <use x="63.623047" xlink:href="#DejaVuSans-2e"/>
       <use x="95.410156" xlink:href="#DejaVuSans-30"/>
       <use x="159.033203" xlink:href="#DejaVuSans-33"/>
      </g>
     </g>
    </g>
    <g id="ytick_10">
     <g id="line2d_69">
      <path clip-path="url(#pfdb75e8bb4)" d="M 447.157065 157.75169 
L 738.2875 157.75169 
" style="fill:none;stroke:#b0b0b0;stroke-linecap:square;stroke-width:0.8;"/>
     </g>
     <g id="line2d_70">
      <g>
       <use x="447.157065" xlink:href="#m0074951038" y="157.75169"/>
      </g>
     </g>
     <g id="text_35">
      <!-- 0.06 -->
      <g transform="translate(404.258628 163.450518)scale(0.15 -0.15)">
       <use xlink:href="#DejaVuSans-30"/>
       <use x="63.623047" xlink:href="#DejaVuSans-2e"/>
       <use x="95.410156" xlink:href="#DejaVuSans-30"/>
       <use x="159.033203" xlink:href="#DejaVuSans-36"/>
      </g>
     </g>
    </g>
    <g id="ytick_11">
     <g id="line2d_71">
      <path clip-path="url(#pfdb75e8bb4)" d="M 447.157065 121.307535 
L 738.2875 121.307535 
" style="fill:none;stroke:#b0b0b0;stroke-linecap:square;stroke-width:0.8;"/>
     </g>
     <g id="line2d_72">
      <g>
       <use x="447.157065" xlink:href="#m0074951038" y="121.307535"/>
      </g>
     </g>
     <g id="text_36">
      <!-- 0.09 -->
      <g transform="translate(404.258628 127.006363)scale(0.15 -0.15)">
       <use xlink:href="#DejaVuSans-30"/>
       <use x="63.623047" xlink:href="#DejaVuSans-2e"/>
       <use x="95.410156" xlink:href="#DejaVuSans-30"/>
       <use x="159.033203" xlink:href="#DejaVuSans-39"/>
      </g>
     </g>
    </g>
    <g id="ytick_12">
     <g id="line2d_73">
      <path clip-path="url(#pfdb75e8bb4)" d="M 447.157065 84.86338 
L 738.2875 84.86338 
" style="fill:none;stroke:#b0b0b0;stroke-linecap:square;stroke-width:0.8;"/>
     </g>
     <g id="line2d_74">
      <g>
       <use x="447.157065" xlink:href="#m0074951038" y="84.86338"/>
      </g>
     </g>
     <g id="text_37">
      <!-- 0.12 -->
      <g transform="translate(404.258628 90.562208)scale(0.15 -0.15)">
       <use xlink:href="#DejaVuSans-30"/>
       <use x="63.623047" xlink:href="#DejaVuSans-2e"/>
       <use x="95.410156" xlink:href="#DejaVuSans-31"/>
       <use x="159.033203" xlink:href="#DejaVuSans-32"/>
      </g>
     </g>
    </g>
    <g id="ytick_13">
     <g id="line2d_75">
      <path clip-path="url(#pfdb75e8bb4)" d="M 447.157065 48.419225 
L 738.2875 48.419225 
" style="fill:none;stroke:#b0b0b0;stroke-linecap:square;stroke-width:0.8;"/>
     </g>
     <g id="line2d_76">
      <g>
       <use x="447.157065" xlink:href="#m0074951038" y="48.419225"/>
      </g>
     </g>
     <g id="text_38">
      <!-- 0.15 -->
      <g transform="translate(404.258628 54.118053)scale(0.15 -0.15)">
       <use xlink:href="#DejaVuSans-30"/>
       <use x="63.623047" xlink:href="#DejaVuSans-2e"/>
       <use x="95.410156" xlink:href="#DejaVuSans-31"/>
       <use x="159.033203" xlink:href="#DejaVuSans-35"/>
      </g>
     </g>
    </g>
    <g id="text_39">
     <!-- $C_V^2(n_p)$ -->
     <defs>
      <path d="M 69.484375 67.28125 
L 67.484375 56.890625 
Q 62.796875 61.625 57.546875 63.921875 
Q 52.296875 66.21875 46.1875 66.21875 
Q 37.84375 66.21875 31.515625 62.203125 
Q 25.203125 58.203125 20.609375 50 
Q 17.671875 44.734375 16.125 38.84375 
Q 14.59375 32.953125 14.59375 27 
Q 14.59375 17.046875 19.75 11.8125 
Q 24.90625 6.59375 34.71875 6.59375 
Q 41.5 6.59375 47.75 8.765625 
Q 54 10.9375 59.90625 15.28125 
L 57.625 3.609375 
Q 51.8125 1.125 45.875 -0.140625 
Q 39.9375 -1.421875 33.984375 -1.421875 
Q 19.96875 -1.421875 12.078125 6.1875 
Q 4.203125 13.8125 4.203125 27.390625 
Q 4.203125 36.078125 7.203125 44.46875 
Q 10.203125 52.875 15.828125 59.8125 
Q 21.78125 67.1875 29.421875 70.703125 
Q 37.0625 74.21875 47.21875 74.21875 
Q 53.46875 74.21875 59.0625 72.484375 
Q 64.65625 70.75 69.484375 67.28125 
z
" id="DejaVuSans-Oblique-43"/>
      <path d="M 20.609375 0 
L 7.8125 72.90625 
L 17.484375 72.90625 
L 28.078125 10.203125 
L 63.484375 72.90625 
L 74.21875 72.90625 
L 32.078125 0 
z
" id="DejaVuSans-Oblique-56"/>
      <path d="M 31 75.875 
Q 24.46875 64.65625 21.28125 53.65625 
Q 18.109375 42.671875 18.109375 31.390625 
Q 18.109375 20.125 21.3125 9.0625 
Q 24.515625 -2 31 -13.1875 
L 23.1875 -13.1875 
Q 15.875 -1.703125 12.234375 9.375 
Q 8.59375 20.453125 8.59375 31.390625 
Q 8.59375 42.28125 12.203125 53.3125 
Q 15.828125 64.359375 23.1875 75.875 
z
" id="DejaVuSans-28"/>
      <path d="M 55.71875 33.015625 
L 49.3125 0 
L 40.28125 0 
L 46.6875 32.671875 
Q 47.125 34.96875 47.359375 36.71875 
Q 47.609375 38.484375 47.609375 39.5 
Q 47.609375 43.609375 45.015625 45.890625 
Q 42.4375 48.1875 37.796875 48.1875 
Q 30.5625 48.1875 25.34375 43.375 
Q 20.125 38.578125 18.5 30.328125 
L 12.5 0 
L 3.515625 0 
L 14.109375 54.6875 
L 23.09375 54.6875 
L 21.296875 46.09375 
Q 25.046875 50.828125 30.3125 53.40625 
Q 35.59375 56 41.40625 56 
Q 48.640625 56 52.609375 52.09375 
Q 56.59375 48.1875 56.59375 41.109375 
Q 56.59375 39.359375 56.375 37.359375 
Q 56.15625 35.359375 55.71875 33.015625 
z
" id="DejaVuSans-Oblique-6e"/>
      <path d="M 49.609375 33.6875 
Q 49.609375 40.875 46.484375 44.671875 
Q 43.359375 48.484375 37.5 48.484375 
Q 33.5 48.484375 29.859375 46.4375 
Q 26.21875 44.390625 23.390625 40.484375 
Q 20.609375 36.625 18.9375 31.15625 
Q 17.28125 25.6875 17.28125 20.3125 
Q 17.28125 13.484375 20.40625 9.796875 
Q 23.53125 6.109375 29.296875 6.109375 
Q 33.546875 6.109375 37.1875 8.109375 
Q 40.828125 10.109375 43.40625 13.921875 
Q 46.1875 17.921875 47.890625 23.34375 
Q 49.609375 28.765625 49.609375 33.6875 
z
M 21.78125 46.390625 
Q 25.390625 51.125 30.296875 53.5625 
Q 35.203125 56 41.21875 56 
Q 49.609375 56 54.25 50.5 
Q 58.890625 45.015625 58.890625 35.109375 
Q 58.890625 27 56 19.65625 
Q 53.125 12.3125 47.703125 6.5 
Q 44.09375 2.640625 39.546875 0.609375 
Q 35.015625 -1.421875 29.984375 -1.421875 
Q 24.171875 -1.421875 20.21875 1 
Q 16.265625 3.421875 14.3125 8.203125 
L 8.6875 -20.796875 
L -0.296875 -20.796875 
L 14.40625 54.6875 
L 23.390625 54.6875 
z
" id="DejaVuSans-Oblique-70"/>
      <path d="M 8.015625 75.875 
L 15.828125 75.875 
Q 23.140625 64.359375 26.78125 53.3125 
Q 30.421875 42.28125 30.421875 31.390625 
Q 30.421875 20.453125 26.78125 9.375 
Q 23.140625 -1.703125 15.828125 -13.1875 
L 8.015625 -13.1875 
Q 14.5 -2 17.703125 9.0625 
Q 20.90625 20.125 20.90625 31.390625 
Q 20.90625 42.671875 17.703125 53.65625 
Q 14.5 64.65625 8.015625 75.875 
z
" id="DejaVuSans-29"/>
     </defs>
     <g transform="translate(394.058628 153.22)rotate(-90)scale(0.2 -0.2)">
      <use transform="translate(0 0.765625)" xlink:href="#DejaVuSans-Oblique-43"/>
      <use transform="translate(77.02474 39.046875)scale(0.7)" xlink:href="#DejaVuSans-32"/>
      <use transform="translate(69.824219 -26.578125)scale(0.7)" xlink:href="#DejaVuSans-Oblique-56"/>
      <use transform="translate(124.295247 0.765625)" xlink:href="#DejaVuSans-28"/>
      <use transform="translate(163.308919 0.765625)" xlink:href="#DejaVuSans-Oblique-6e"/>
      <use transform="translate(226.687826 -15.640625)scale(0.7)" xlink:href="#DejaVuSans-Oblique-70"/>
      <use transform="translate(273.855794 0.765625)" xlink:href="#DejaVuSans-29"/>
     </g>
    </g>
   </g>
   <g id="line2d_77">
    <path clip-path="url(#pfdb75e8bb4)" d="M 447.220711 230.530517 
L 450.591124 228.140838 
L 453.700396 224.71464 
L 457.075166 221.394898 
L 460.426158 217.905565 
L 463.362565 208.702689 
L 466.588133 192.382755 
L 470.014945 160.833229 
L 473.082648 113.415746 
L 476.340444 66.80724 
L 479.630072 59.033368 
L 482.795274 91.462946 
L 486.429622 138.757938 
L 489.34223 167.949416 
L 492.642277 191.209017 
L 495.922499 178.831998 
L 498.958273 151.252755 
L 502.164437 111.366562 
L 505.50023 69.887588 
L 508.774169 49.44 
L 511.853192 85.296852 
L 515.208294 136.797508 
L 518.341182 172.859667 
L 521.59002 182.288881 
L 524.922031 173.67767 
L 528.064958 149.503586 
L 531.261844 103.117111 
L 535.804311 63.974912 
L 537.858722 49.923172 
L 541.429854 76.238079 
L 544.309868 129.444475 
L 547.67647 173.603376 
L 550.731865 186.101298 
L 554.064028 170.550558 
L 557.207908 136.733671 
L 560.600841 104.232873 
L 563.765252 64.962873 
L 567.02791 57.424304 
L 570.416534 76.586634 
L 573.379908 121.024121 
L 576.639365 161.926415 
L 579.979643 183.375282 
L 583.177642 169.222426 
L 586.289326 147.244614 
L 589.560175 111.847884 
L 593.235393 73.274143 
L 596.132846 56.317106 
L 599.234171 83.162472 
L 602.437994 122.994006 
L 605.713371 163.65948 
L 609.051961 177.475958 
L 612.143622 170.042103 
L 615.476361 137.555984 
L 618.783506 98.476223 
L 621.838258 65.597691 
L 625.10512 57.819021 
L 628.325803 82.060181 
L 632.088911 128.145215 
L 635.227154 152.241891 
L 638.01478 181.208753 
L 641.577163 170.944288 
L 644.609106 140.203235 
L 647.856931 99.027951 
L 651.005581 68.075505 
L 654.329514 59.842322 
L 657.566547 85.016427 
L 660.658215 129.259787 
L 664.146354 160.842847 
L 667.150435 174.335273 
L 670.393256 165.325897 
L 673.59419 139.00857 
L 676.946168 100.331188 
L 680.087329 68.953968 
L 683.850106 59.680295 
L 686.583591 82.336046 
L 689.869196 124.322935 
L 693.335994 158.985856 
L 696.504352 171.914392 
L 699.577016 167.722145 
L 702.710084 139.336807 
L 706.086479 103.906715 
L 709.245887 65.340718 
L 712.473396 59.174901 
L 715.971743 86.301142 
L 718.913183 132.152222 
L 722.124873 163.881372 
L 725.42487 175.144395 
L 728.670444 161.720178 
L 731.92696 131.670739 
L 735.15393 97.072114 
" style="fill:none;stroke:#3bb000;stroke-linecap:square;stroke-width:3;"/>
   </g>
   <g id="patch_8">
    <path d="M 447.157065 230.64 
L 447.157065 13.2 
" style="fill:none;stroke:#000000;stroke-linecap:square;stroke-linejoin:miter;stroke-width:2;"/>
   </g>
   <g id="patch_9">
    <path d="M 738.2875 230.64 
L 738.2875 13.2 
" style="fill:none;"/>
   </g>
   <g id="patch_10">
    <path d="M 447.157065 230.64 
L 738.2875 230.64 
" style="fill:none;stroke:#000000;stroke-linecap:square;stroke-linejoin:miter;stroke-width:2;"/>
   </g>
   <g id="patch_11">
    <path d="M 447.157065 13.2 
L 738.2875 13.2 
" style="fill:none;"/>
   </g>
  </g>
 </g>
 <defs>
  <clipPath id="pfe2dd79eab">
   <rect height="217.44" width="291.130435" x="68.6875" y="13.2"/>
  </clipPath>
  <clipPath id="pfdb75e8bb4">
   <rect height="217.44" width="291.130435" x="447.157065" y="13.2"/>
  </clipPath>
 </defs>
</svg>
