<?xml version="1.0" encoding="utf-8" standalone="no"?>
<!DOCTYPE svg PUBLIC "-//W3C//DTD SVG 1.1//EN"
  "http://www.w3.org/Graphics/SVG/1.1/DTD/svg11.dtd">
<!-- Created with matplotlib (http://matplotlib.org/) -->
<svg height="285.213437pt" version="1.1" viewBox="0 0 745.4875 285.213437" width="745.4875pt" xmlns="http://www.w3.org/2000/svg" xmlns:xlink="http://www.w3.org/1999/xlink">
 <defs>
  <style type="text/css">
*{stroke-linecap:butt;stroke-linejoin:round;}
  </style>
 </defs>
 <g id="figure_1">
  <g id="patch_1">
   <path d="M 0 285.213437 
L 745.4875 285.213437 
L 745.4875 0 
L 0 0 
z
" style="fill:#ffffff;"/>
  </g>
  <g id="axes_1">
   <g id="patch_2">
    <path d="M 59.14375 230.64 
L 350.274185 230.64 
L 350.274185 13.2 
L 59.14375 13.2 
z
" style="fill:#ffffff;"/>
   </g>
   <g id="PolyCollection_1">
    <defs>
     <path d="M 59.316418 -91.215701 
L 59.316418 -90.587377 
L 62.392448 -106.889011 
L 65.70293 -118.918086 
L 69.118696 -129.985305 
L 72.201127 -139.740393 
L 75.608786 -148.296701 
L 78.651396 -155.96406 
L 82.089442 -160.19461 
L 85.20758 -159.83597 
L 88.372604 -154.421 
L 91.814799 -148.748751 
L 94.812227 -145.219235 
L 98.217548 -146.552936 
L 101.235595 -148.701308 
L 104.466486 -153.83605 
L 107.682348 -157.783944 
L 111.014419 -160.244336 
L 114.230606 -157.729229 
L 117.428767 -153.667013 
L 120.711152 -149.191058 
L 124.108329 -145.874371 
L 127.129344 -146.474596 
L 130.575429 -148.975642 
L 133.851218 -153.259186 
L 137.347175 -156.967352 
L 140.023351 -158.048552 
L 143.451185 -155.884584 
L 146.759238 -153.598547 
L 150.000626 -148.994325 
L 152.967634 -146.725285 
L 156.312616 -146.67596 
L 159.872902 -148.94165 
L 162.808517 -153.319513 
L 165.980737 -157.814203 
L 169.132264 -158.661546 
L 172.372082 -157.809034 
L 175.603306 -153.568043 
L 178.876354 -148.916004 
L 182.179218 -145.316754 
L 185.705346 -146.55077 
L 189.058057 -150.603865 
L 191.824382 -154.432334 
L 195.067846 -157.538611 
L 198.241435 -159.816846 
L 201.534903 -158.896374 
L 204.775583 -155.611196 
L 208.040357 -151.70701 
L 211.380204 -148.600571 
L 214.557116 -148.103816 
L 217.678534 -151.021991 
L 220.895628 -154.391534 
L 224.307095 -158.771705 
L 227.413693 -159.968973 
L 230.64559 -160.729839 
L 233.929861 -156.304303 
L 237.065325 -151.740816 
L 240.467427 -145.89024 
L 243.831004 -146.714533 
L 246.76781 -149.654516 
L 250.072221 -153.533627 
L 253.259641 -158.820659 
L 256.689195 -159.233625 
L 259.780096 -157.388358 
L 262.945504 -154.217867 
L 266.180795 -150.662674 
L 269.441849 -148.338897 
L 272.714848 -148.125905 
L 275.930955 -149.997289 
L 279.622056 -153.388311 
L 282.424273 -157.641928 
L 286.028567 -157.447098 
L 289.016157 -156.846479 
L 292.301802 -151.819186 
L 295.290842 -148.01714 
L 298.52783 -146.418328 
L 302.146789 -146.071979 
L 305.209478 -148.117028 
L 308.403362 -153.475822 
L 311.692299 -157.092336 
L 315.050365 -157.129266 
L 318.30426 -157.382942 
L 321.626399 -154.246228 
L 324.919579 -151.519053 
L 327.923024 -146.7579 
L 331.995676 -145.663281 
L 334.16588 -148.197055 
L 337.971826 -153.220985 
L 340.667256 -156.473802 
L 343.999164 -158.348698 
L 347.255013 -157.648325 
L 347.255013 -162.734325 
L 347.255013 -162.734325 
L 343.999164 -162.743404 
L 340.667256 -160.625895 
L 337.971826 -157.159787 
L 334.16588 -152.070552 
L 331.995676 -150.013755 
L 327.923024 -151.86823 
L 324.919579 -157.01158 
L 321.626399 -159.626159 
L 318.30426 -162.373721 
L 315.050365 -161.806659 
L 311.692299 -161.217602 
L 308.403362 -157.489204 
L 305.209478 -151.99756 
L 302.146789 -150.690102 
L 298.52783 -151.220134 
L 295.290842 -153.405065 
L 292.301802 -157.462632 
L 289.016157 -162.159 
L 286.028567 -162.100903 
L 282.424273 -161.808697 
L 279.622056 -157.187212 
L 275.930955 -153.887131 
L 272.714848 -152.642491 
L 269.441849 -153.389346 
L 266.180795 -156.129106 
L 262.945504 -159.682341 
L 259.780096 -162.521324 
L 256.689195 -163.819903 
L 253.259641 -163.120002 
L 250.072221 -157.389667 
L 246.76781 -153.492631 
L 243.831004 -150.840464 
L 240.467427 -150.704911 
L 237.065325 -157.304518 
L 233.929861 -161.783062 
L 230.64559 -165.857036 
L 227.413693 -164.503458 
L 224.307095 -162.737721 
L 220.895628 -158.381898 
L 217.678534 -155.08816 
L 214.557116 -152.692402 
L 211.380204 -153.78148 
L 208.040357 -157.004463 
L 204.775583 -161.015533 
L 201.534903 -163.920669 
L 198.241435 -164.210439 
L 195.067846 -161.536422 
L 191.824382 -158.229812 
L 189.058057 -154.671637 
L 185.705346 -150.753833 
L 182.179218 -150.13771 
L 178.876354 -154.398072 
L 175.603306 -159.177568 
L 172.372082 -162.893565 
L 169.132264 -163.320848 
L 165.980737 -161.831174 
L 162.808517 -156.991705 
L 159.872902 -153.009166 
L 156.312616 -151.212897 
L 152.967634 -151.859113 
L 150.000626 -154.556235 
L 146.759238 -159.216618 
L 143.451185 -161.076004 
L 140.023351 -162.640136 
L 137.347175 -161.050459 
L 133.851218 -157.093764 
L 130.575429 -152.947352 
L 127.129344 -150.676988 
L 124.108329 -150.651226 
L 120.711152 -154.526432 
L 117.428767 -159.134241 
L 114.230606 -162.834261 
L 111.014419 -164.728884 
L 107.682348 -161.777967 
L 104.466486 -157.407193 
L 101.235595 -152.414859 
L 98.217548 -150.807309 
L 94.812227 -150.08221 
L 91.814799 -154.036714 
L 88.372604 -159.979999 
L 85.20758 -164.956409 
L 82.089442 -164.597769 
L 78.651396 -159.716734 
L 75.608786 -151.664868 
L 72.201127 -142.707455 
L 69.118696 -132.68136 
L 65.70293 -121.338251 
L 62.392448 -108.856464 
L 59.316418 -91.215701 
z
" id="ma6a28f6b09"/>
    </defs>
    <g clip-path="url(#p8ba3ab86af)">
     <use style="fill:#ff3333;" x="0" xlink:href="#ma6a28f6b09" y="285.213437"/>
    </g>
   </g>
   <g id="matplotlib.axis_1">
    <g id="xtick_1">
     <g id="line2d_1">
      <path clip-path="url(#p8ba3ab86af)" d="M 59.14375 230.64 
L 59.14375 13.2 
" style="fill:none;stroke:#b0b0b0;stroke-linecap:square;stroke-width:0.8;"/>
     </g>
     <g id="line2d_2">
      <defs>
       <path d="M 0 0 
L 0 6 
" id="m3fb93d03ce"/>
      </defs>
      <g>
       <use x="59.14375" xlink:href="#m3fb93d03ce" y="230.64"/>
      </g>
     </g>
     <g id="text_1">
      <!-- 0 -->
      <defs>
       <path d="M 31.78125 66.40625 
Q 24.171875 66.40625 20.328125 58.90625 
Q 16.5 51.421875 16.5 36.375 
Q 16.5 21.390625 20.328125 13.890625 
Q 24.171875 6.390625 31.78125 6.390625 
Q 39.453125 6.390625 43.28125 13.890625 
Q 47.125 21.390625 47.125 36.375 
Q 47.125 51.421875 43.28125 58.90625 
Q 39.453125 66.40625 31.78125 66.40625 
z
M 31.78125 74.21875 
Q 44.046875 74.21875 50.515625 64.515625 
Q 56.984375 54.828125 56.984375 36.375 
Q 56.984375 17.96875 50.515625 8.265625 
Q 44.046875 -1.421875 31.78125 -1.421875 
Q 19.53125 -1.421875 13.0625 8.265625 
Q 6.59375 17.96875 6.59375 36.375 
Q 6.59375 54.828125 13.0625 64.515625 
Q 19.53125 74.21875 31.78125 74.21875 
z
" id="DejaVuSans-30"/>
      </defs>
      <g transform="translate(54.371875 251.537656)scale(0.15 -0.15)">
       <use xlink:href="#DejaVuSans-30"/>
      </g>
     </g>
    </g>
    <g id="xtick_2">
     <g id="line2d_3">
      <path clip-path="url(#p8ba3ab86af)" d="M 88.256793 230.64 
L 88.256793 13.2 
" style="fill:none;stroke:#b0b0b0;stroke-linecap:square;stroke-width:0.8;"/>
     </g>
     <g id="line2d_4">
      <g>
       <use x="88.256793" xlink:href="#m3fb93d03ce" y="230.64"/>
      </g>
     </g>
     <g id="text_2">
      <!-- 1 -->
      <defs>
       <path d="M 12.40625 8.296875 
L 28.515625 8.296875 
L 28.515625 63.921875 
L 10.984375 60.40625 
L 10.984375 69.390625 
L 28.421875 72.90625 
L 38.28125 72.90625 
L 38.28125 8.296875 
L 54.390625 8.296875 
L 54.390625 0 
L 12.40625 0 
z
" id="DejaVuSans-31"/>
      </defs>
      <g transform="translate(83.484918 251.537656)scale(0.15 -0.15)">
       <use xlink:href="#DejaVuSans-31"/>
      </g>
     </g>
    </g>
    <g id="xtick_3">
     <g id="line2d_5">
      <path clip-path="url(#p8ba3ab86af)" d="M 117.369837 230.64 
L 117.369837 13.2 
" style="fill:none;stroke:#b0b0b0;stroke-linecap:square;stroke-width:0.8;"/>
     </g>
     <g id="line2d_6">
      <g>
       <use x="117.369837" xlink:href="#m3fb93d03ce" y="230.64"/>
      </g>
     </g>
     <g id="text_3">
      <!-- 2 -->
      <defs>
       <path d="M 19.1875 8.296875 
L 53.609375 8.296875 
L 53.609375 0 
L 7.328125 0 
L 7.328125 8.296875 
Q 12.9375 14.109375 22.625 23.890625 
Q 32.328125 33.6875 34.8125 36.53125 
Q 39.546875 41.84375 41.421875 45.53125 
Q 43.3125 49.21875 43.3125 52.78125 
Q 43.3125 58.59375 39.234375 62.25 
Q 35.15625 65.921875 28.609375 65.921875 
Q 23.96875 65.921875 18.8125 64.3125 
Q 13.671875 62.703125 7.8125 59.421875 
L 7.8125 69.390625 
Q 13.765625 71.78125 18.9375 73 
Q 24.125 74.21875 28.421875 74.21875 
Q 39.75 74.21875 46.484375 68.546875 
Q 53.21875 62.890625 53.21875 53.421875 
Q 53.21875 48.921875 51.53125 44.890625 
Q 49.859375 40.875 45.40625 35.40625 
Q 44.1875 33.984375 37.640625 27.21875 
Q 31.109375 20.453125 19.1875 8.296875 
z
" id="DejaVuSans-32"/>
      </defs>
      <g transform="translate(112.597962 251.537656)scale(0.15 -0.15)">
       <use xlink:href="#DejaVuSans-32"/>
      </g>
     </g>
    </g>
    <g id="xtick_4">
     <g id="line2d_7">
      <path clip-path="url(#p8ba3ab86af)" d="M 146.48288 230.64 
L 146.48288 13.2 
" style="fill:none;stroke:#b0b0b0;stroke-linecap:square;stroke-width:0.8;"/>
     </g>
     <g id="line2d_8">
      <g>
       <use x="146.48288" xlink:href="#m3fb93d03ce" y="230.64"/>
      </g>
     </g>
     <g id="text_4">
      <!-- 3 -->
      <defs>
       <path d="M 40.578125 39.3125 
Q 47.65625 37.796875 51.625 33 
Q 55.609375 28.21875 55.609375 21.1875 
Q 55.609375 10.40625 48.1875 4.484375 
Q 40.765625 -1.421875 27.09375 -1.421875 
Q 22.515625 -1.421875 17.65625 -0.515625 
Q 12.796875 0.390625 7.625 2.203125 
L 7.625 11.71875 
Q 11.71875 9.328125 16.59375 8.109375 
Q 21.484375 6.890625 26.8125 6.890625 
Q 36.078125 6.890625 40.9375 10.546875 
Q 45.796875 14.203125 45.796875 21.1875 
Q 45.796875 27.640625 41.28125 31.265625 
Q 36.765625 34.90625 28.71875 34.90625 
L 20.21875 34.90625 
L 20.21875 43.015625 
L 29.109375 43.015625 
Q 36.375 43.015625 40.234375 45.921875 
Q 44.09375 48.828125 44.09375 54.296875 
Q 44.09375 59.90625 40.109375 62.90625 
Q 36.140625 65.921875 28.71875 65.921875 
Q 24.65625 65.921875 20.015625 65.03125 
Q 15.375 64.15625 9.8125 62.3125 
L 9.8125 71.09375 
Q 15.4375 72.65625 20.34375 73.4375 
Q 25.25 74.21875 29.59375 74.21875 
Q 40.828125 74.21875 47.359375 69.109375 
Q 53.90625 64.015625 53.90625 55.328125 
Q 53.90625 49.265625 50.4375 45.09375 
Q 46.96875 40.921875 40.578125 39.3125 
z
" id="DejaVuSans-33"/>
      </defs>
      <g transform="translate(141.711005 251.537656)scale(0.15 -0.15)">
       <use xlink:href="#DejaVuSans-33"/>
      </g>
     </g>
    </g>
    <g id="xtick_5">
     <g id="line2d_9">
      <path clip-path="url(#p8ba3ab86af)" d="M 175.595924 230.64 
L 175.595924 13.2 
" style="fill:none;stroke:#b0b0b0;stroke-linecap:square;stroke-width:0.8;"/>
     </g>
     <g id="line2d_10">
      <g>
       <use x="175.595924" xlink:href="#m3fb93d03ce" y="230.64"/>
      </g>
     </g>
     <g id="text_5">
      <!-- 4 -->
      <defs>
       <path d="M 37.796875 64.3125 
L 12.890625 25.390625 
L 37.796875 25.390625 
z
M 35.203125 72.90625 
L 47.609375 72.90625 
L 47.609375 25.390625 
L 58.015625 25.390625 
L 58.015625 17.1875 
L 47.609375 17.1875 
L 47.609375 0 
L 37.796875 0 
L 37.796875 17.1875 
L 4.890625 17.1875 
L 4.890625 26.703125 
z
" id="DejaVuSans-34"/>
      </defs>
      <g transform="translate(170.824049 251.537656)scale(0.15 -0.15)">
       <use xlink:href="#DejaVuSans-34"/>
      </g>
     </g>
    </g>
    <g id="xtick_6">
     <g id="line2d_11">
      <path clip-path="url(#p8ba3ab86af)" d="M 204.708967 230.64 
L 204.708967 13.2 
" style="fill:none;stroke:#b0b0b0;stroke-linecap:square;stroke-width:0.8;"/>
     </g>
     <g id="line2d_12">
      <g>
       <use x="204.708967" xlink:href="#m3fb93d03ce" y="230.64"/>
      </g>
     </g>
     <g id="text_6">
      <!-- 5 -->
      <defs>
       <path d="M 10.796875 72.90625 
L 49.515625 72.90625 
L 49.515625 64.59375 
L 19.828125 64.59375 
L 19.828125 46.734375 
Q 21.96875 47.46875 24.109375 47.828125 
Q 26.265625 48.1875 28.421875 48.1875 
Q 40.625 48.1875 47.75 41.5 
Q 54.890625 34.8125 54.890625 23.390625 
Q 54.890625 11.625 47.5625 5.09375 
Q 40.234375 -1.421875 26.90625 -1.421875 
Q 22.3125 -1.421875 17.546875 -0.640625 
Q 12.796875 0.140625 7.71875 1.703125 
L 7.71875 11.625 
Q 12.109375 9.234375 16.796875 8.0625 
Q 21.484375 6.890625 26.703125 6.890625 
Q 35.15625 6.890625 40.078125 11.328125 
Q 45.015625 15.765625 45.015625 23.390625 
Q 45.015625 31 40.078125 35.4375 
Q 35.15625 39.890625 26.703125 39.890625 
Q 22.75 39.890625 18.8125 39.015625 
Q 14.890625 38.140625 10.796875 36.28125 
z
" id="DejaVuSans-35"/>
      </defs>
      <g transform="translate(199.937092 251.537656)scale(0.15 -0.15)">
       <use xlink:href="#DejaVuSans-35"/>
      </g>
     </g>
    </g>
    <g id="xtick_7">
     <g id="line2d_13">
      <path clip-path="url(#p8ba3ab86af)" d="M 233.822011 230.64 
L 233.822011 13.2 
" style="fill:none;stroke:#b0b0b0;stroke-linecap:square;stroke-width:0.8;"/>
     </g>
     <g id="line2d_14">
      <g>
       <use x="233.822011" xlink:href="#m3fb93d03ce" y="230.64"/>
      </g>
     </g>
     <g id="text_7">
      <!-- 6 -->
      <defs>
       <path d="M 33.015625 40.375 
Q 26.375 40.375 22.484375 35.828125 
Q 18.609375 31.296875 18.609375 23.390625 
Q 18.609375 15.53125 22.484375 10.953125 
Q 26.375 6.390625 33.015625 6.390625 
Q 39.65625 6.390625 43.53125 10.953125 
Q 47.40625 15.53125 47.40625 23.390625 
Q 47.40625 31.296875 43.53125 35.828125 
Q 39.65625 40.375 33.015625 40.375 
z
M 52.59375 71.296875 
L 52.59375 62.3125 
Q 48.875 64.0625 45.09375 64.984375 
Q 41.3125 65.921875 37.59375 65.921875 
Q 27.828125 65.921875 22.671875 59.328125 
Q 17.53125 52.734375 16.796875 39.40625 
Q 19.671875 43.65625 24.015625 45.921875 
Q 28.375 48.1875 33.59375 48.1875 
Q 44.578125 48.1875 50.953125 41.515625 
Q 57.328125 34.859375 57.328125 23.390625 
Q 57.328125 12.15625 50.6875 5.359375 
Q 44.046875 -1.421875 33.015625 -1.421875 
Q 20.359375 -1.421875 13.671875 8.265625 
Q 6.984375 17.96875 6.984375 36.375 
Q 6.984375 53.65625 15.1875 63.9375 
Q 23.390625 74.21875 37.203125 74.21875 
Q 40.921875 74.21875 44.703125 73.484375 
Q 48.484375 72.75 52.59375 71.296875 
z
" id="DejaVuSans-36"/>
      </defs>
      <g transform="translate(229.050136 251.537656)scale(0.15 -0.15)">
       <use xlink:href="#DejaVuSans-36"/>
      </g>
     </g>
    </g>
    <g id="xtick_8">
     <g id="line2d_15">
      <path clip-path="url(#p8ba3ab86af)" d="M 262.935054 230.64 
L 262.935054 13.2 
" style="fill:none;stroke:#b0b0b0;stroke-linecap:square;stroke-width:0.8;"/>
     </g>
     <g id="line2d_16">
      <g>
       <use x="262.935054" xlink:href="#m3fb93d03ce" y="230.64"/>
      </g>
     </g>
     <g id="text_8">
      <!-- 7 -->
      <defs>
       <path d="M 8.203125 72.90625 
L 55.078125 72.90625 
L 55.078125 68.703125 
L 28.609375 0 
L 18.3125 0 
L 43.21875 64.59375 
L 8.203125 64.59375 
z
" id="DejaVuSans-37"/>
      </defs>
      <g transform="translate(258.163179 251.537656)scale(0.15 -0.15)">
       <use xlink:href="#DejaVuSans-37"/>
      </g>
     </g>
    </g>
    <g id="xtick_9">
     <g id="line2d_17">
      <path clip-path="url(#p8ba3ab86af)" d="M 292.048098 230.64 
L 292.048098 13.2 
" style="fill:none;stroke:#b0b0b0;stroke-linecap:square;stroke-width:0.8;"/>
     </g>
     <g id="line2d_18">
      <g>
       <use x="292.048098" xlink:href="#m3fb93d03ce" y="230.64"/>
      </g>
     </g>
     <g id="text_9">
      <!-- 8 -->
      <defs>
       <path d="M 31.78125 34.625 
Q 24.75 34.625 20.71875 30.859375 
Q 16.703125 27.09375 16.703125 20.515625 
Q 16.703125 13.921875 20.71875 10.15625 
Q 24.75 6.390625 31.78125 6.390625 
Q 38.8125 6.390625 42.859375 10.171875 
Q 46.921875 13.96875 46.921875 20.515625 
Q 46.921875 27.09375 42.890625 30.859375 
Q 38.875 34.625 31.78125 34.625 
z
M 21.921875 38.8125 
Q 15.578125 40.375 12.03125 44.71875 
Q 8.5 49.078125 8.5 55.328125 
Q 8.5 64.0625 14.71875 69.140625 
Q 20.953125 74.21875 31.78125 74.21875 
Q 42.671875 74.21875 48.875 69.140625 
Q 55.078125 64.0625 55.078125 55.328125 
Q 55.078125 49.078125 51.53125 44.71875 
Q 48 40.375 41.703125 38.8125 
Q 48.828125 37.15625 52.796875 32.3125 
Q 56.78125 27.484375 56.78125 20.515625 
Q 56.78125 9.90625 50.3125 4.234375 
Q 43.84375 -1.421875 31.78125 -1.421875 
Q 19.734375 -1.421875 13.25 4.234375 
Q 6.78125 9.90625 6.78125 20.515625 
Q 6.78125 27.484375 10.78125 32.3125 
Q 14.796875 37.15625 21.921875 38.8125 
z
M 18.3125 54.390625 
Q 18.3125 48.734375 21.84375 45.5625 
Q 25.390625 42.390625 31.78125 42.390625 
Q 38.140625 42.390625 41.71875 45.5625 
Q 45.3125 48.734375 45.3125 54.390625 
Q 45.3125 60.0625 41.71875 63.234375 
Q 38.140625 66.40625 31.78125 66.40625 
Q 25.390625 66.40625 21.84375 63.234375 
Q 18.3125 60.0625 18.3125 54.390625 
z
" id="DejaVuSans-38"/>
      </defs>
      <g transform="translate(287.276223 251.537656)scale(0.15 -0.15)">
       <use xlink:href="#DejaVuSans-38"/>
      </g>
     </g>
    </g>
    <g id="xtick_10">
     <g id="line2d_19">
      <path clip-path="url(#p8ba3ab86af)" d="M 321.161141 230.64 
L 321.161141 13.2 
" style="fill:none;stroke:#b0b0b0;stroke-linecap:square;stroke-width:0.8;"/>
     </g>
     <g id="line2d_20">
      <g>
       <use x="321.161141" xlink:href="#m3fb93d03ce" y="230.64"/>
      </g>
     </g>
     <g id="text_10">
      <!-- 9 -->
      <defs>
       <path d="M 10.984375 1.515625 
L 10.984375 10.5 
Q 14.703125 8.734375 18.5 7.8125 
Q 22.3125 6.890625 25.984375 6.890625 
Q 35.75 6.890625 40.890625 13.453125 
Q 46.046875 20.015625 46.78125 33.40625 
Q 43.953125 29.203125 39.59375 26.953125 
Q 35.25 24.703125 29.984375 24.703125 
Q 19.046875 24.703125 12.671875 31.3125 
Q 6.296875 37.9375 6.296875 49.421875 
Q 6.296875 60.640625 12.9375 67.421875 
Q 19.578125 74.21875 30.609375 74.21875 
Q 43.265625 74.21875 49.921875 64.515625 
Q 56.59375 54.828125 56.59375 36.375 
Q 56.59375 19.140625 48.40625 8.859375 
Q 40.234375 -1.421875 26.421875 -1.421875 
Q 22.703125 -1.421875 18.890625 -0.6875 
Q 15.09375 0.046875 10.984375 1.515625 
z
M 30.609375 32.421875 
Q 37.25 32.421875 41.125 36.953125 
Q 45.015625 41.5 45.015625 49.421875 
Q 45.015625 57.28125 41.125 61.84375 
Q 37.25 66.40625 30.609375 66.40625 
Q 23.96875 66.40625 20.09375 61.84375 
Q 16.21875 57.28125 16.21875 49.421875 
Q 16.21875 41.5 20.09375 36.953125 
Q 23.96875 32.421875 30.609375 32.421875 
z
" id="DejaVuSans-39"/>
      </defs>
      <g transform="translate(316.389266 251.537656)scale(0.15 -0.15)">
       <use xlink:href="#DejaVuSans-39"/>
      </g>
     </g>
    </g>
    <g id="xtick_11">
     <g id="line2d_21">
      <path clip-path="url(#p8ba3ab86af)" d="M 350.274185 230.64 
L 350.274185 13.2 
" style="fill:none;stroke:#b0b0b0;stroke-linecap:square;stroke-width:0.8;"/>
     </g>
     <g id="line2d_22">
      <g>
       <use x="350.274185" xlink:href="#m3fb93d03ce" y="230.64"/>
      </g>
     </g>
     <g id="text_11">
      <!-- 10 -->
      <g transform="translate(340.730435 251.537656)scale(0.15 -0.15)">
       <use xlink:href="#DejaVuSans-31"/>
       <use x="63.623047" xlink:href="#DejaVuSans-30"/>
      </g>
     </g>
    </g>
    <g id="text_12">
     <!-- $t/\tau$ -->
     <defs>
      <path d="M 42.28125 54.6875 
L 40.921875 47.703125 
L 23 47.703125 
L 17.1875 18.015625 
Q 16.890625 16.359375 16.75 15.234375 
Q 16.609375 14.109375 16.609375 13.484375 
Q 16.609375 10.359375 18.484375 8.9375 
Q 20.359375 7.515625 24.515625 7.515625 
L 33.59375 7.515625 
L 32.078125 0 
L 23.484375 0 
Q 15.484375 0 11.546875 3.125 
Q 7.625 6.25 7.625 12.59375 
Q 7.625 13.71875 7.765625 15.0625 
Q 7.90625 16.40625 8.203125 18.015625 
L 14.015625 47.703125 
L 6.390625 47.703125 
L 7.8125 54.6875 
L 15.28125 54.6875 
L 18.3125 70.21875 
L 27.296875 70.21875 
L 24.3125 54.6875 
z
" id="DejaVuSans-Oblique-74"/>
      <path d="M 25.390625 72.90625 
L 33.6875 72.90625 
L 8.296875 -9.28125 
L 0 -9.28125 
z
" id="DejaVuSans-2f"/>
      <path d="M 32.859375 9.96875 
Q 34.1875 7.625 39.453125 7.625 
L 43.75 7.625 
L 42.28125 0 
L 36.921875 0 
Q 28.125 0 25 4.6875 
Q 21.921875 9.46875 23.96875 19.828125 
L 29 45.703125 
L 8.453125 45.703125 
L 10.203125 54.6875 
L 60.640625 54.6875 
L 58.890625 45.703125 
L 38.1875 45.703125 
L 33.015625 19.28125 
Q 31.640625 12.203125 32.859375 9.96875 
z
" id="DejaVuSans-Oblique-3c4"/>
     </defs>
     <g transform="translate(191.308967 273.854062)scale(0.2 -0.2)">
      <use transform="translate(0 0.09375)" xlink:href="#DejaVuSans-Oblique-74"/>
      <use transform="translate(39.208984 0.09375)" xlink:href="#DejaVuSans-2f"/>
      <use transform="translate(72.900391 0.09375)" xlink:href="#DejaVuSans-Oblique-3c4"/>
     </g>
    </g>
   </g>
   <g id="matplotlib.axis_2">
    <g id="ytick_1">
     <g id="line2d_23">
      <path clip-path="url(#p8ba3ab86af)" d="M 59.14375 230.64 
L 350.274185 230.64 
" style="fill:none;stroke:#b0b0b0;stroke-linecap:square;stroke-width:0.8;"/>
     </g>
     <g id="line2d_24">
      <defs>
       <path d="M 0 0 
L -6 0 
" id="m04708fe3a9"/>
      </defs>
      <g>
       <use x="59.14375" xlink:href="#m04708fe3a9" y="230.64"/>
      </g>
     </g>
     <g id="text_13">
      <!-- 0 -->
      <g transform="translate(40.1 236.338828)scale(0.15 -0.15)">
       <use xlink:href="#DejaVuSans-30"/>
      </g>
     </g>
    </g>
    <g id="ytick_2">
     <g id="line2d_25">
      <path clip-path="url(#p8ba3ab86af)" d="M 59.14375 195.862954 
L 350.274185 195.862954 
" style="fill:none;stroke:#b0b0b0;stroke-linecap:square;stroke-width:0.8;"/>
     </g>
     <g id="line2d_26">
      <g>
       <use x="59.14375" xlink:href="#m04708fe3a9" y="195.862954"/>
      </g>
     </g>
     <g id="text_14">
      <!-- 5 -->
      <g transform="translate(40.1 201.561783)scale(0.15 -0.15)">
       <use xlink:href="#DejaVuSans-35"/>
      </g>
     </g>
    </g>
    <g id="ytick_3">
     <g id="line2d_27">
      <path clip-path="url(#p8ba3ab86af)" d="M 59.14375 161.085909 
L 350.274185 161.085909 
" style="fill:none;stroke:#b0b0b0;stroke-linecap:square;stroke-width:0.8;"/>
     </g>
     <g id="line2d_28">
      <g>
       <use x="59.14375" xlink:href="#m04708fe3a9" y="161.085909"/>
      </g>
     </g>
     <g id="text_15">
      <!-- 10 -->
      <g transform="translate(30.55625 166.784737)scale(0.15 -0.15)">
       <use xlink:href="#DejaVuSans-31"/>
       <use x="63.623047" xlink:href="#DejaVuSans-30"/>
      </g>
     </g>
    </g>
    <g id="ytick_4">
     <g id="line2d_29">
      <path clip-path="url(#p8ba3ab86af)" d="M 59.14375 126.308863 
L 350.274185 126.308863 
" style="fill:none;stroke:#b0b0b0;stroke-linecap:square;stroke-width:0.8;"/>
     </g>
     <g id="line2d_30">
      <g>
       <use x="59.14375" xlink:href="#m04708fe3a9" y="126.308863"/>
      </g>
     </g>
     <g id="text_16">
      <!-- 15 -->
      <g transform="translate(30.55625 132.007691)scale(0.15 -0.15)">
       <use xlink:href="#DejaVuSans-31"/>
       <use x="63.623047" xlink:href="#DejaVuSans-35"/>
      </g>
     </g>
    </g>
    <g id="ytick_5">
     <g id="line2d_31">
      <path clip-path="url(#p8ba3ab86af)" d="M 59.14375 91.531818 
L 350.274185 91.531818 
" style="fill:none;stroke:#b0b0b0;stroke-linecap:square;stroke-width:0.8;"/>
     </g>
     <g id="line2d_32">
      <g>
       <use x="59.14375" xlink:href="#m04708fe3a9" y="91.531818"/>
      </g>
     </g>
     <g id="text_17">
      <!-- 20 -->
      <g transform="translate(30.55625 97.230646)scale(0.15 -0.15)">
       <use xlink:href="#DejaVuSans-32"/>
       <use x="63.623047" xlink:href="#DejaVuSans-30"/>
      </g>
     </g>
    </g>
    <g id="ytick_6">
     <g id="line2d_33">
      <path clip-path="url(#p8ba3ab86af)" d="M 59.14375 56.754772 
L 350.274185 56.754772 
" style="fill:none;stroke:#b0b0b0;stroke-linecap:square;stroke-width:0.8;"/>
     </g>
     <g id="line2d_34">
      <g>
       <use x="59.14375" xlink:href="#m04708fe3a9" y="56.754772"/>
      </g>
     </g>
     <g id="text_18">
      <!-- 25 -->
      <g transform="translate(30.55625 62.4536)scale(0.15 -0.15)">
       <use xlink:href="#DejaVuSans-32"/>
       <use x="63.623047" xlink:href="#DejaVuSans-35"/>
      </g>
     </g>
    </g>
    <g id="ytick_7">
     <g id="line2d_35">
      <path clip-path="url(#p8ba3ab86af)" d="M 59.14375 21.977726 
L 350.274185 21.977726 
" style="fill:none;stroke:#b0b0b0;stroke-linecap:square;stroke-width:0.8;"/>
     </g>
     <g id="line2d_36">
      <g>
       <use x="59.14375" xlink:href="#m04708fe3a9" y="21.977726"/>
      </g>
     </g>
     <g id="text_19">
      <!-- 30 -->
      <g transform="translate(30.55625 27.676554)scale(0.15 -0.15)">
       <use xlink:href="#DejaVuSans-33"/>
       <use x="63.623047" xlink:href="#DejaVuSans-30"/>
      </g>
     </g>
    </g>
    <g id="text_20">
     <!-- RNA number -->
     <defs>
      <path d="M 44.390625 34.1875 
Q 47.5625 33.109375 50.5625 29.59375 
Q 53.5625 26.078125 56.59375 19.921875 
L 66.609375 0 
L 56 0 
L 46.6875 18.703125 
Q 43.0625 26.03125 39.671875 28.421875 
Q 36.28125 30.8125 30.421875 30.8125 
L 19.671875 30.8125 
L 19.671875 0 
L 9.8125 0 
L 9.8125 72.90625 
L 32.078125 72.90625 
Q 44.578125 72.90625 50.734375 67.671875 
Q 56.890625 62.453125 56.890625 51.90625 
Q 56.890625 45.015625 53.6875 40.46875 
Q 50.484375 35.9375 44.390625 34.1875 
z
M 19.671875 64.796875 
L 19.671875 38.921875 
L 32.078125 38.921875 
Q 39.203125 38.921875 42.84375 42.21875 
Q 46.484375 45.515625 46.484375 51.90625 
Q 46.484375 58.296875 42.84375 61.546875 
Q 39.203125 64.796875 32.078125 64.796875 
z
" id="DejaVuSans-52"/>
      <path d="M 9.8125 72.90625 
L 23.09375 72.90625 
L 55.421875 11.921875 
L 55.421875 72.90625 
L 64.984375 72.90625 
L 64.984375 0 
L 51.703125 0 
L 19.390625 60.984375 
L 19.390625 0 
L 9.8125 0 
z
" id="DejaVuSans-4e"/>
      <path d="M 34.1875 63.1875 
L 20.796875 26.90625 
L 47.609375 26.90625 
z
M 28.609375 72.90625 
L 39.796875 72.90625 
L 67.578125 0 
L 57.328125 0 
L 50.6875 18.703125 
L 17.828125 18.703125 
L 11.1875 0 
L 0.78125 0 
z
" id="DejaVuSans-41"/>
      <path id="DejaVuSans-20"/>
      <path d="M 54.890625 33.015625 
L 54.890625 0 
L 45.90625 0 
L 45.90625 32.71875 
Q 45.90625 40.484375 42.875 44.328125 
Q 39.84375 48.1875 33.796875 48.1875 
Q 26.515625 48.1875 22.3125 43.546875 
Q 18.109375 38.921875 18.109375 30.90625 
L 18.109375 0 
L 9.078125 0 
L 9.078125 54.6875 
L 18.109375 54.6875 
L 18.109375 46.1875 
Q 21.34375 51.125 25.703125 53.5625 
Q 30.078125 56 35.796875 56 
Q 45.21875 56 50.046875 50.171875 
Q 54.890625 44.34375 54.890625 33.015625 
z
" id="DejaVuSans-6e"/>
      <path d="M 8.5 21.578125 
L 8.5 54.6875 
L 17.484375 54.6875 
L 17.484375 21.921875 
Q 17.484375 14.15625 20.5 10.265625 
Q 23.53125 6.390625 29.59375 6.390625 
Q 36.859375 6.390625 41.078125 11.03125 
Q 45.3125 15.671875 45.3125 23.6875 
L 45.3125 54.6875 
L 54.296875 54.6875 
L 54.296875 0 
L 45.3125 0 
L 45.3125 8.40625 
Q 42.046875 3.421875 37.71875 1 
Q 33.40625 -1.421875 27.6875 -1.421875 
Q 18.265625 -1.421875 13.375 4.4375 
Q 8.5 10.296875 8.5 21.578125 
z
M 31.109375 56 
z
" id="DejaVuSans-75"/>
      <path d="M 52 44.1875 
Q 55.375 50.25 60.0625 53.125 
Q 64.75 56 71.09375 56 
Q 79.640625 56 84.28125 50.015625 
Q 88.921875 44.046875 88.921875 33.015625 
L 88.921875 0 
L 79.890625 0 
L 79.890625 32.71875 
Q 79.890625 40.578125 77.09375 44.375 
Q 74.3125 48.1875 68.609375 48.1875 
Q 61.625 48.1875 57.5625 43.546875 
Q 53.515625 38.921875 53.515625 30.90625 
L 53.515625 0 
L 44.484375 0 
L 44.484375 32.71875 
Q 44.484375 40.625 41.703125 44.40625 
Q 38.921875 48.1875 33.109375 48.1875 
Q 26.21875 48.1875 22.15625 43.53125 
Q 18.109375 38.875 18.109375 30.90625 
L 18.109375 0 
L 9.078125 0 
L 9.078125 54.6875 
L 18.109375 54.6875 
L 18.109375 46.1875 
Q 21.1875 51.21875 25.484375 53.609375 
Q 29.78125 56 35.6875 56 
Q 41.65625 56 45.828125 52.96875 
Q 50 49.953125 52 44.1875 
z
" id="DejaVuSans-6d"/>
      <path d="M 48.6875 27.296875 
Q 48.6875 37.203125 44.609375 42.84375 
Q 40.53125 48.484375 33.40625 48.484375 
Q 26.265625 48.484375 22.1875 42.84375 
Q 18.109375 37.203125 18.109375 27.296875 
Q 18.109375 17.390625 22.1875 11.75 
Q 26.265625 6.109375 33.40625 6.109375 
Q 40.53125 6.109375 44.609375 11.75 
Q 48.6875 17.390625 48.6875 27.296875 
z
M 18.109375 46.390625 
Q 20.953125 51.265625 25.265625 53.625 
Q 29.59375 56 35.59375 56 
Q 45.5625 56 51.78125 48.09375 
Q 58.015625 40.1875 58.015625 27.296875 
Q 58.015625 14.40625 51.78125 6.484375 
Q 45.5625 -1.421875 35.59375 -1.421875 
Q 29.59375 -1.421875 25.265625 0.953125 
Q 20.953125 3.328125 18.109375 8.203125 
L 18.109375 0 
L 9.078125 0 
L 9.078125 75.984375 
L 18.109375 75.984375 
z
" id="DejaVuSans-62"/>
      <path d="M 56.203125 29.59375 
L 56.203125 25.203125 
L 14.890625 25.203125 
Q 15.484375 15.921875 20.484375 11.0625 
Q 25.484375 6.203125 34.421875 6.203125 
Q 39.59375 6.203125 44.453125 7.46875 
Q 49.3125 8.734375 54.109375 11.28125 
L 54.109375 2.78125 
Q 49.265625 0.734375 44.1875 -0.34375 
Q 39.109375 -1.421875 33.890625 -1.421875 
Q 20.796875 -1.421875 13.15625 6.1875 
Q 5.515625 13.8125 5.515625 26.8125 
Q 5.515625 40.234375 12.765625 48.109375 
Q 20.015625 56 32.328125 56 
Q 43.359375 56 49.78125 48.890625 
Q 56.203125 41.796875 56.203125 29.59375 
z
M 47.21875 32.234375 
Q 47.125 39.59375 43.09375 43.984375 
Q 39.0625 48.390625 32.421875 48.390625 
Q 24.90625 48.390625 20.390625 44.140625 
Q 15.875 39.890625 15.1875 32.171875 
z
" id="DejaVuSans-65"/>
      <path d="M 41.109375 46.296875 
Q 39.59375 47.171875 37.8125 47.578125 
Q 36.03125 48 33.890625 48 
Q 26.265625 48 22.1875 43.046875 
Q 18.109375 38.09375 18.109375 28.8125 
L 18.109375 0 
L 9.078125 0 
L 9.078125 54.6875 
L 18.109375 54.6875 
L 18.109375 46.1875 
Q 20.953125 51.171875 25.484375 53.578125 
Q 30.03125 56 36.53125 56 
Q 37.453125 56 38.578125 55.875 
Q 39.703125 55.765625 41.0625 55.515625 
z
" id="DejaVuSans-72"/>
     </defs>
     <g transform="translate(22.396875 185.396563)rotate(-90)scale(0.2 -0.2)">
      <use xlink:href="#DejaVuSans-52"/>
      <use x="69.482422" xlink:href="#DejaVuSans-4e"/>
      <use x="144.287109" xlink:href="#DejaVuSans-41"/>
      <use x="212.695312" xlink:href="#DejaVuSans-20"/>
      <use x="244.482422" xlink:href="#DejaVuSans-6e"/>
      <use x="307.861328" xlink:href="#DejaVuSans-75"/>
      <use x="371.240234" xlink:href="#DejaVuSans-6d"/>
      <use x="468.652344" xlink:href="#DejaVuSans-62"/>
      <use x="532.128906" xlink:href="#DejaVuSans-65"/>
      <use x="593.652344" xlink:href="#DejaVuSans-72"/>
     </g>
    </g>
   </g>
   <g id="line2d_37">
    <path clip-path="url(#p8ba3ab86af)" d="M 59.316418 188.907545 
L 62.392448 168.041318 
L 65.70293 161.085909 
L 69.118696 147.175091 
L 72.201127 147.175091 
L 75.608786 154.1305 
L 78.651396 140.219681 
L 82.089442 154.1305 
L 85.20758 105.442636 
L 88.372604 161.085909 
L 91.814799 168.041318 
L 94.812227 168.041318 
L 98.217548 161.085909 
L 101.235595 174.996727 
L 104.466486 140.219681 
L 107.682348 133.264272 
L 111.014419 98.487227 
L 114.230606 105.442636 
L 117.428767 112.398045 
L 120.711152 112.398045 
L 124.108329 63.710181 
L 127.129344 133.264272 
L 130.575429 147.175091 
L 133.851218 140.219681 
L 137.347175 70.66559 
L 140.023351 42.843954 
L 143.451185 70.66559 
L 146.759238 77.620999 
L 150.000626 119.353454 
L 152.967634 140.219681 
L 156.312616 174.996727 
L 159.872902 168.041318 
L 162.808517 174.996727 
L 165.980737 119.353454 
L 169.132264 126.308863 
L 172.372082 63.710181 
L 175.603306 63.710181 
L 178.876354 63.710181 
L 182.179218 140.219681 
L 185.705346 147.175091 
L 189.058057 140.219681 
L 191.824382 140.219681 
L 195.067846 126.308863 
L 198.241435 77.620999 
L 201.534903 133.264272 
L 204.775583 133.264272 
L 208.040357 174.996727 
L 211.380204 195.862954 
L 214.557116 181.952136 
L 217.678534 174.996727 
L 220.895628 168.041318 
L 224.307095 147.175091 
L 227.413693 188.907545 
L 230.64559 181.952136 
L 233.929861 154.1305 
L 237.065325 174.996727 
L 240.467427 140.219681 
L 243.831004 119.353454 
L 246.76781 140.219681 
L 250.072221 84.576408 
L 253.259641 70.66559 
L 256.689195 56.754772 
L 259.780096 154.1305 
L 262.945504 140.219681 
L 266.180795 140.219681 
L 269.441849 133.264272 
L 272.714848 126.308863 
L 275.930955 126.308863 
L 279.622056 91.531818 
L 282.424273 98.487227 
L 286.028567 105.442636 
L 289.016157 119.353454 
L 292.301802 133.264272 
L 295.290842 140.219681 
L 298.52783 119.353454 
L 302.146789 105.442636 
L 305.209478 98.487227 
L 308.403362 84.576408 
L 311.692299 98.487227 
L 315.050365 126.308863 
L 318.30426 98.487227 
L 321.626399 84.576408 
L 324.919579 105.442636 
L 327.923024 154.1305 
L 331.995676 161.085909 
L 334.16588 140.219681 
L 337.971826 147.175091 
L 340.667256 140.219681 
L 343.999164 119.353454 
L 347.255013 98.487227 
" style="fill:none;stroke:#ff7b7b;stroke-linecap:square;stroke-width:1.5;"/>
   </g>
   <g id="line2d_38">
    <path clip-path="url(#p8ba3ab86af)" d="M 59.316418 202.818364 
L 62.392448 181.952136 
L 65.70293 174.996727 
L 69.118696 119.353454 
L 72.201127 70.66559 
L 75.608786 49.799363 
L 78.651396 63.710181 
L 82.089442 49.799363 
L 85.20758 84.576408 
L 88.372604 91.531818 
L 91.814799 154.1305 
L 94.812227 133.264272 
L 98.217548 154.1305 
L 101.235595 154.1305 
L 104.466486 161.085909 
L 107.682348 126.308863 
L 111.014419 84.576408 
L 114.230606 63.710181 
L 117.428767 77.620999 
L 120.711152 70.66559 
L 124.108329 133.264272 
L 127.129344 147.175091 
L 130.575429 140.219681 
L 133.851218 147.175091 
L 137.347175 133.264272 
L 140.023351 161.085909 
L 143.451185 126.308863 
L 146.759238 133.264272 
L 150.000626 174.996727 
L 152.967634 168.041318 
L 156.312616 168.041318 
L 159.872902 174.996727 
L 162.808517 119.353454 
L 165.980737 140.219681 
L 169.132264 140.219681 
L 172.372082 105.442636 
L 175.603306 154.1305 
L 178.876354 161.085909 
L 182.179218 140.219681 
L 185.705346 154.1305 
L 189.058057 119.353454 
L 191.824382 147.175091 
L 195.067846 188.907545 
L 198.241435 161.085909 
L 201.534903 154.1305 
L 204.775583 181.952136 
L 208.040357 161.085909 
L 211.380204 174.996727 
L 214.557116 147.175091 
L 217.678534 140.219681 
L 220.895628 119.353454 
L 224.307095 140.219681 
L 227.413693 112.398045 
L 230.64559 188.907545 
L 233.929861 174.996727 
L 237.065325 154.1305 
L 240.467427 181.952136 
L 243.831004 154.1305 
L 246.76781 140.219681 
L 250.072221 119.353454 
L 253.259641 105.442636 
L 256.689195 174.996727 
L 259.780096 147.175091 
L 262.945504 126.308863 
L 266.180795 161.085909 
L 269.441849 112.398045 
L 272.714848 119.353454 
L 275.930955 98.487227 
L 279.622056 140.219681 
L 282.424273 147.175091 
L 286.028567 119.353454 
L 289.016157 140.219681 
L 292.301802 133.264272 
L 295.290842 133.264272 
L 298.52783 126.308863 
L 302.146789 105.442636 
L 305.209478 119.353454 
L 308.403362 119.353454 
L 311.692299 154.1305 
L 315.050365 147.175091 
L 318.30426 147.175091 
L 321.626399 140.219681 
L 324.919579 140.219681 
L 327.923024 133.264272 
L 331.995676 133.264272 
L 334.16588 112.398045 
L 337.971826 119.353454 
L 340.667256 161.085909 
L 343.999164 133.264272 
L 347.255013 126.308863 
" style="fill:none;stroke:#ff7b7b;stroke-linecap:square;stroke-width:1.5;"/>
   </g>
   <g id="line2d_39">
    <path clip-path="url(#p8ba3ab86af)" d="M 59.316418 188.907545 
L 62.392448 154.1305 
L 65.70293 133.264272 
L 69.118696 126.308863 
L 72.201127 119.353454 
L 75.608786 84.576408 
L 78.651396 112.398045 
L 82.089442 105.442636 
L 85.20758 174.996727 
L 88.372604 161.085909 
L 91.814799 174.996727 
L 94.812227 168.041318 
L 98.217548 168.041318 
L 101.235595 140.219681 
L 104.466486 98.487227 
L 107.682348 112.398045 
L 111.014419 126.308863 
L 114.230606 119.353454 
L 117.428767 105.442636 
L 120.711152 140.219681 
L 124.108329 133.264272 
L 127.129344 133.264272 
L 130.575429 133.264272 
L 133.851218 112.398045 
L 137.347175 119.353454 
L 140.023351 112.398045 
L 143.451185 112.398045 
L 146.759238 84.576408 
L 150.000626 42.843954 
L 152.967634 140.219681 
L 156.312616 119.353454 
L 159.872902 119.353454 
L 162.808517 147.175091 
L 165.980737 126.308863 
L 169.132264 105.442636 
L 172.372082 168.041318 
L 175.603306 181.952136 
L 178.876354 188.907545 
L 182.179218 168.041318 
L 185.705346 140.219681 
L 189.058057 133.264272 
L 191.824382 105.442636 
L 195.067846 140.219681 
L 198.241435 154.1305 
L 201.534903 140.219681 
L 204.775583 98.487227 
L 208.040357 70.66559 
L 211.380204 147.175091 
L 214.557116 119.353454 
L 217.678534 126.308863 
L 220.895628 133.264272 
L 224.307095 133.264272 
L 227.413693 133.264272 
L 230.64559 119.353454 
L 233.929861 112.398045 
L 237.065325 126.308863 
L 240.467427 98.487227 
L 243.831004 161.085909 
L 246.76781 147.175091 
L 250.072221 140.219681 
L 253.259641 133.264272 
L 256.689195 84.576408 
L 259.780096 70.66559 
L 262.945504 84.576408 
L 266.180795 42.843954 
L 269.441849 42.843954 
L 272.714848 140.219681 
L 275.930955 147.175091 
L 279.622056 147.175091 
L 282.424273 147.175091 
L 286.028567 147.175091 
L 289.016157 126.308863 
L 292.301802 147.175091 
L 295.290842 140.219681 
L 298.52783 133.264272 
L 302.146789 126.308863 
L 305.209478 140.219681 
L 308.403362 154.1305 
L 311.692299 154.1305 
L 315.050365 119.353454 
L 318.30426 112.398045 
L 321.626399 202.818364 
L 324.919579 181.952136 
L 327.923024 147.175091 
L 331.995676 133.264272 
L 334.16588 133.264272 
L 337.971826 195.862954 
L 340.667256 195.862954 
L 343.999164 195.862954 
L 347.255013 147.175091 
" style="fill:none;stroke:#ff7b7b;stroke-linecap:square;stroke-width:1.5;"/>
   </g>
   <g id="line2d_40">
    <path clip-path="url(#p8ba3ab86af)" d="M 59.316418 202.818364 
L 62.392448 181.952136 
L 65.70293 181.952136 
L 69.118696 181.952136 
L 72.201127 161.085909 
L 75.608786 147.175091 
L 78.651396 133.264272 
L 82.089442 133.264272 
L 85.20758 98.487227 
L 88.372604 98.487227 
L 91.814799 84.576408 
L 94.812227 98.487227 
L 98.217548 49.799363 
L 101.235595 70.66559 
L 104.466486 147.175091 
L 107.682348 112.398045 
L 111.014419 112.398045 
L 114.230606 105.442636 
L 117.428767 105.442636 
L 120.711152 98.487227 
L 124.108329 70.66559 
L 127.129344 98.487227 
L 130.575429 105.442636 
L 133.851218 140.219681 
L 137.347175 154.1305 
L 140.023351 105.442636 
L 143.451185 98.487227 
L 146.759238 119.353454 
L 150.000626 154.1305 
L 152.967634 112.398045 
L 156.312616 181.952136 
L 159.872902 168.041318 
L 162.808517 168.041318 
L 165.980737 133.264272 
L 169.132264 112.398045 
L 172.372082 98.487227 
L 175.603306 77.620999 
L 178.876354 56.754772 
L 182.179218 188.907545 
L 185.705346 168.041318 
L 189.058057 147.175091 
L 191.824382 133.264272 
L 195.067846 98.487227 
L 198.241435 119.353454 
L 201.534903 133.264272 
L 204.775583 133.264272 
L 208.040357 119.353454 
L 211.380204 154.1305 
L 214.557116 147.175091 
L 217.678534 147.175091 
L 220.895628 140.219681 
L 224.307095 147.175091 
L 227.413693 174.996727 
L 230.64559 147.175091 
L 233.929861 168.041318 
L 237.065325 181.952136 
L 240.467427 168.041318 
L 243.831004 161.085909 
L 246.76781 112.398045 
L 250.072221 112.398045 
L 253.259641 84.576408 
L 256.689195 119.353454 
L 259.780096 98.487227 
L 262.945504 98.487227 
L 266.180795 70.66559 
L 269.441849 147.175091 
L 272.714848 140.219681 
L 275.930955 154.1305 
L 279.622056 133.264272 
L 282.424273 119.353454 
L 286.028567 91.531818 
L 289.016157 91.531818 
L 292.301802 91.531818 
L 295.290842 105.442636 
L 298.52783 168.041318 
L 302.146789 161.085909 
L 305.209478 126.308863 
L 308.403362 98.487227 
L 311.692299 105.442636 
L 315.050365 91.531818 
L 318.30426 56.754772 
L 321.626399 126.308863 
L 324.919579 133.264272 
L 327.923024 168.041318 
L 331.995676 140.219681 
L 334.16588 154.1305 
L 337.971826 133.264272 
L 340.667256 168.041318 
L 343.999164 133.264272 
L 347.255013 154.1305 
" style="fill:none;stroke:#ff7b7b;stroke-linecap:square;stroke-width:1.5;"/>
   </g>
   <g id="line2d_41">
    <path clip-path="url(#p8ba3ab86af)" d="M 59.316418 195.862954 
L 62.392448 174.996727 
L 65.70293 154.1305 
L 69.118696 133.264272 
L 72.201127 133.264272 
L 75.608786 133.264272 
L 78.651396 126.308863 
L 82.089442 105.442636 
L 85.20758 56.754772 
L 88.372604 63.710181 
L 91.814799 140.219681 
L 94.812227 133.264272 
L 98.217548 140.219681 
L 101.235595 140.219681 
L 104.466486 140.219681 
L 107.682348 112.398045 
L 111.014419 98.487227 
L 114.230606 174.996727 
L 117.428767 174.996727 
L 120.711152 154.1305 
L 124.108329 154.1305 
L 127.129344 133.264272 
L 130.575429 174.996727 
L 133.851218 154.1305 
L 137.347175 105.442636 
L 140.023351 84.576408 
L 143.451185 98.487227 
L 146.759238 126.308863 
L 150.000626 140.219681 
L 152.967634 154.1305 
L 156.312616 161.085909 
L 159.872902 140.219681 
L 162.808517 133.264272 
L 165.980737 119.353454 
L 169.132264 188.907545 
L 172.372082 202.818364 
L 175.603306 188.907545 
L 178.876354 168.041318 
L 182.179218 154.1305 
L 185.705346 133.264272 
L 189.058057 140.219681 
L 191.824382 181.952136 
L 195.067846 181.952136 
L 198.241435 147.175091 
L 201.534903 188.907545 
L 204.775583 168.041318 
L 208.040357 154.1305 
L 211.380204 161.085909 
L 214.557116 133.264272 
L 217.678534 119.353454 
L 220.895628 181.952136 
L 224.307095 195.862954 
L 227.413693 202.818364 
L 230.64559 168.041318 
L 233.929861 147.175091 
L 237.065325 161.085909 
L 240.467427 126.308863 
L 243.831004 154.1305 
L 246.76781 140.219681 
L 250.072221 161.085909 
L 253.259641 147.175091 
L 256.689195 105.442636 
L 259.780096 188.907545 
L 262.945504 209.773773 
L 266.180795 209.773773 
L 269.441849 188.907545 
L 272.714848 161.085909 
L 275.930955 147.175091 
L 279.622056 119.353454 
L 282.424273 105.442636 
L 286.028567 91.531818 
L 289.016157 77.620999 
L 292.301802 49.799363 
L 295.290842 140.219681 
L 298.52783 105.442636 
L 302.146789 147.175091 
L 305.209478 119.353454 
L 308.403362 77.620999 
L 311.692299 98.487227 
L 315.050365 147.175091 
L 318.30426 140.219681 
L 321.626399 168.041318 
L 324.919579 147.175091 
L 327.923024 154.1305 
L 331.995676 168.041318 
L 334.16588 147.175091 
L 337.971826 147.175091 
L 340.667256 161.085909 
L 343.999164 147.175091 
L 347.255013 147.175091 
" style="fill:none;stroke:#ff7b7b;stroke-linecap:square;stroke-width:1.5;"/>
   </g>
   <g id="line2d_42">
    <path clip-path="url(#p8ba3ab86af)" d="M 59.316418 194.311898 
L 62.392448 177.3407 
L 65.70293 165.085269 
L 69.118696 153.880105 
L 72.201127 143.989513 
L 75.608786 135.232653 
L 78.651396 127.373041 
L 82.089442 122.817248 
L 85.20758 122.817248 
L 88.372604 128.012938 
L 91.814799 133.820705 
L 94.812227 137.562715 
L 98.217548 136.533315 
L 101.235595 134.655354 
L 104.466486 129.591816 
L 107.682348 125.432482 
L 111.014419 122.726827 
L 114.230606 124.931692 
L 117.428767 128.81281 
L 120.711152 133.354693 
L 124.108329 136.950639 
L 127.129344 136.637646 
L 130.575429 134.25194 
L 133.851218 130.036962 
L 137.347175 126.204532 
L 140.023351 124.869093 
L 143.451185 126.733143 
L 146.759238 128.805855 
L 150.000626 133.438158 
L 152.967634 135.921239 
L 156.312616 136.269009 
L 159.872902 134.23803 
L 162.808517 130.057829 
L 165.980737 125.390749 
L 169.132264 124.22224 
L 172.372082 124.862138 
L 175.603306 128.840632 
L 178.876354 133.556399 
L 182.179218 137.486206 
L 185.705346 136.561136 
L 189.058057 132.575687 
L 191.824382 128.882365 
L 195.067846 125.675921 
L 198.241435 123.199795 
L 201.534903 123.804916 
L 204.775583 126.900073 
L 208.040357 130.857701 
L 211.380204 134.022412 
L 214.557116 134.815329 
L 217.678534 132.158362 
L 220.895628 128.826721 
L 224.307095 124.458724 
L 227.413693 122.977222 
L 230.64559 121.92 
L 233.929861 126.169755 
L 237.065325 130.690771 
L 240.467427 136.915862 
L 243.831004 136.435939 
L 246.76781 133.639864 
L 250.072221 129.751791 
L 253.259641 124.243107 
L 256.689195 123.686674 
L 259.780096 125.258596 
L 262.945504 128.263333 
L 266.180795 131.817547 
L 269.441849 134.349316 
L 272.714848 134.829239 
L 275.930955 133.271228 
L 279.622056 129.925676 
L 282.424273 125.488125 
L 286.028567 125.439437 
L 289.016157 125.710698 
L 292.301802 130.572529 
L 295.290842 134.502335 
L 298.52783 136.394206 
L 302.146789 136.832397 
L 305.209478 135.156144 
L 308.403362 129.730924 
L 311.692299 126.058468 
L 315.050365 125.745475 
L 318.30426 125.335106 
L 321.626399 128.277244 
L 324.919579 130.948121 
L 327.923024 135.900372 
L 331.995676 137.374919 
L 334.16588 135.079634 
L 337.971826 130.023052 
L 340.667256 126.663589 
L 343.999164 124.667387 
L 347.255013 125.022112 
" style="fill:none;stroke:#bd0025;stroke-linecap:square;stroke-width:3;"/>
   </g>
   <g id="patch_3">
    <path d="M 59.14375 230.64 
L 59.14375 13.2 
" style="fill:none;stroke:#000000;stroke-linecap:square;stroke-linejoin:miter;stroke-width:2;"/>
   </g>
   <g id="patch_4">
    <path d="M 350.274185 230.64 
L 350.274185 13.2 
" style="fill:none;"/>
   </g>
   <g id="patch_5">
    <path d="M 59.14375 230.64 
L 350.274185 230.64 
" style="fill:none;stroke:#000000;stroke-linecap:square;stroke-linejoin:miter;stroke-width:2;"/>
   </g>
   <g id="patch_6">
    <path d="M 59.14375 13.2 
L 350.274185 13.2 
" style="fill:none;"/>
   </g>
  </g>
  <g id="axes_2">
   <g id="patch_7">
    <path d="M 437.613315 230.64 
L 728.74375 230.64 
L 728.74375 13.2 
L 437.613315 13.2 
z
" style="fill:#ffffff;"/>
   </g>
   <g id="PolyCollection_2">
    <defs>
     <path d="M 437.785983 -69.260641 
L 437.785983 -66.374952 
L 440.862013 -107.145328 
L 444.172495 -107.1591 
L 447.588261 -102.2679 
L 450.670692 -99.949679 
L 454.078352 -102.747482 
L 457.120961 -105.557274 
L 460.559007 -118.625898 
L 463.677145 -140.52986 
L 466.84217 -165.534958 
L 470.284364 -167.32616 
L 473.281792 -158.038793 
L 476.687113 -132.675847 
L 479.70516 -112.207257 
L 482.936052 -102.849085 
L 486.151913 -110.111637 
L 489.483985 -120.84939 
L 492.700171 -143.382583 
L 495.898333 -163.655077 
L 499.180717 -168.229987 
L 502.577894 -153.251541 
L 505.598909 -130.99272 
L 509.044994 -119.759088 
L 512.320784 -110.549341 
L 515.81674 -113.401399 
L 518.492916 -126.73903 
L 521.92075 -149.441382 
L 525.228803 -169.542449 
L 528.470191 -177.954011 
L 531.437199 -165.668958 
L 534.782181 -142.604788 
L 538.342467 -122.844249 
L 541.278082 -106.024931 
L 544.450302 -110.694023 
L 547.601829 -127.951136 
L 550.841647 -142.577969 
L 554.072871 -169.280075 
L 557.345919 -174.835553 
L 560.648783 -156.150101 
L 564.174911 -130.895385 
L 567.527622 -120.611887 
L 570.293947 -108.281834 
L 573.537411 -110.46749 
L 576.711 -118.798692 
L 580.004468 -138.914622 
L 583.245148 -157.4575 
L 586.509922 -161.301179 
L 589.849769 -163.386024 
L 593.026681 -141.928556 
L 596.148099 -120.016284 
L 599.365193 -113.684176 
L 602.776661 -108.373457 
L 605.883258 -122.605112 
L 609.115155 -139.372725 
L 612.399426 -158.794989 
L 615.53489 -171.552823 
L 618.936992 -154.700812 
L 622.30057 -127.999108 
L 625.237376 -114.79528 
L 628.541786 -110.851325 
L 631.729206 -117.319826 
L 635.15876 -125.032299 
L 638.249661 -144.871456 
L 641.41507 -162.418342 
L 644.65036 -170.135488 
L 647.911414 -158.82116 
L 651.184413 -139.306462 
L 654.40052 -115.935034 
L 658.091621 -109.416219 
L 660.893838 -114.968088 
L 664.498133 -129.442545 
L 667.485722 -151.916593 
L 670.771368 -174.542946 
L 673.760407 -173.096701 
L 676.997395 -153.115299 
L 680.616354 -146.758576 
L 683.679043 -118.025977 
L 686.872927 -115.403894 
L 690.161864 -114.43085 
L 693.519931 -130.614181 
L 696.773825 -140.192945 
L 700.095964 -159.235649 
L 703.389144 -169.244975 
L 706.392589 -164.639292 
L 710.465241 -137.58622 
L 712.635445 -117.702628 
L 716.441391 -113.547277 
L 719.136822 -115.885328 
L 722.468729 -120.579423 
L 725.724578 -142.886897 
L 725.724578 -171.592177 
L 725.724578 -171.592177 
L 722.468729 -140.850539 
L 719.136822 -134.464456 
L 716.441391 -131.295015 
L 712.635445 -136.933221 
L 710.465241 -164.230721 
L 706.392589 -202.147935 
L 703.389144 -208.68626 
L 700.095964 -194.50682 
L 696.773825 -167.846604 
L 693.519931 -154.601 
L 690.161864 -132.491878 
L 686.872927 -133.811204 
L 683.679043 -137.372961 
L 680.616354 -176.990492 
L 676.997395 -185.892099 
L 673.760407 -214.17206 
L 670.771368 -216.236011 
L 667.485722 -184.209892 
L 664.498133 -152.988773 
L 660.893838 -133.220141 
L 658.091621 -125.713927 
L 654.40052 -134.531919 
L 651.184413 -166.615998 
L 647.911414 -193.922057 
L 644.65036 -209.953136 
L 641.41507 -199.00341 
L 638.249661 -174.35703 
L 635.15876 -146.935942 
L 631.729206 -136.412813 
L 628.541786 -127.649991 
L 625.237376 -132.985845 
L 622.30057 -151.004955 
L 618.936992 -188.119681 
L 615.53489 -211.971267 
L 612.399426 -193.885143 
L 609.115155 -166.70795 
L 605.883258 -143.615619 
L 602.776661 -124.30904 
L 599.365193 -131.480382 
L 596.148099 -140.082831 
L 593.026681 -170.258728 
L 589.849769 -200.372824 
L 586.509922 -197.423758 
L 583.245148 -191.999578 
L 580.004468 -166.072355 
L 576.711 -138.424398 
L 573.537411 -127.131878 
L 570.293947 -124.185675 
L 567.527622 -140.89481 
L 564.174911 -154.988211 
L 560.648783 -190.158399 
L 557.345919 -216.653868 
L 554.072871 -208.736178 
L 550.841647 -171.162209 
L 547.601829 -150.93907 
L 544.450302 -127.437634 
L 541.278082 -121.150784 
L 538.342467 -143.942405 
L 534.782181 -171.199532 
L 531.437199 -203.607642 
L 528.470191 -221.112864 
L 525.228803 -209.109362 
L 521.92075 -180.74158 
L 518.492916 -149.275343 
L 515.81674 -131.097519 
L 512.320784 -127.242346 
L 509.044994 -139.732348 
L 505.598909 -155.122263 
L 502.577894 -186.0834 
L 499.180717 -207.24336 
L 495.898333 -200.75376 
L 492.700171 -172.282314 
L 489.483985 -141.218729 
L 486.151913 -126.651726 
L 482.936052 -116.893081 
L 479.70516 -129.481966 
L 476.687113 -157.442198 
L 473.281792 -192.818824 
L 470.284364 -205.959435 
L 466.84217 -203.41761 
L 463.677145 -168.314556 
L 460.559007 -138.189206 
L 457.120961 -120.522864 
L 454.078352 -116.757119 
L 450.670692 -113.019472 
L 447.588261 -116.115574 
L 444.172495 -122.674976 
L 440.862013 -122.656456 
L 437.785983 -69.260641 
z
" id="m0444183970"/>
    </defs>
    <g clip-path="url(#p25d250f694)">
     <use style="fill:#ff3333;" x="0" xlink:href="#m0444183970" y="285.213437"/>
    </g>
   </g>
   <g id="matplotlib.axis_3">
    <g id="xtick_12">
     <g id="line2d_43">
      <path clip-path="url(#p25d250f694)" d="M 437.613315 230.64 
L 437.613315 13.2 
" style="fill:none;stroke:#b0b0b0;stroke-linecap:square;stroke-width:0.8;"/>
     </g>
     <g id="line2d_44">
      <g>
       <use x="437.613315" xlink:href="#m3fb93d03ce" y="230.64"/>
      </g>
     </g>
     <g id="text_21">
      <!-- 0 -->
      <g transform="translate(432.84144 251.537656)scale(0.15 -0.15)">
       <use xlink:href="#DejaVuSans-30"/>
      </g>
     </g>
    </g>
    <g id="xtick_13">
     <g id="line2d_45">
      <path clip-path="url(#p25d250f694)" d="M 466.726359 230.64 
L 466.726359 13.2 
" style="fill:none;stroke:#b0b0b0;stroke-linecap:square;stroke-width:0.8;"/>
     </g>
     <g id="line2d_46">
      <g>
       <use x="466.726359" xlink:href="#m3fb93d03ce" y="230.64"/>
      </g>
     </g>
     <g id="text_22">
      <!-- 1 -->
      <g transform="translate(461.954484 251.537656)scale(0.15 -0.15)">
       <use xlink:href="#DejaVuSans-31"/>
      </g>
     </g>
    </g>
    <g id="xtick_14">
     <g id="line2d_47">
      <path clip-path="url(#p25d250f694)" d="M 495.839402 230.64 
L 495.839402 13.2 
" style="fill:none;stroke:#b0b0b0;stroke-linecap:square;stroke-width:0.8;"/>
     </g>
     <g id="line2d_48">
      <g>
       <use x="495.839402" xlink:href="#m3fb93d03ce" y="230.64"/>
      </g>
     </g>
     <g id="text_23">
      <!-- 2 -->
      <g transform="translate(491.067527 251.537656)scale(0.15 -0.15)">
       <use xlink:href="#DejaVuSans-32"/>
      </g>
     </g>
    </g>
    <g id="xtick_15">
     <g id="line2d_49">
      <path clip-path="url(#p25d250f694)" d="M 524.952446 230.64 
L 524.952446 13.2 
" style="fill:none;stroke:#b0b0b0;stroke-linecap:square;stroke-width:0.8;"/>
     </g>
     <g id="line2d_50">
      <g>
       <use x="524.952446" xlink:href="#m3fb93d03ce" y="230.64"/>
      </g>
     </g>
     <g id="text_24">
      <!-- 3 -->
      <g transform="translate(520.180571 251.537656)scale(0.15 -0.15)">
       <use xlink:href="#DejaVuSans-33"/>
      </g>
     </g>
    </g>
    <g id="xtick_16">
     <g id="line2d_51">
      <path clip-path="url(#p25d250f694)" d="M 554.065489 230.64 
L 554.065489 13.2 
" style="fill:none;stroke:#b0b0b0;stroke-linecap:square;stroke-width:0.8;"/>
     </g>
     <g id="line2d_52">
      <g>
       <use x="554.065489" xlink:href="#m3fb93d03ce" y="230.64"/>
      </g>
     </g>
     <g id="text_25">
      <!-- 4 -->
      <g transform="translate(549.293614 251.537656)scale(0.15 -0.15)">
       <use xlink:href="#DejaVuSans-34"/>
      </g>
     </g>
    </g>
    <g id="xtick_17">
     <g id="line2d_53">
      <path clip-path="url(#p25d250f694)" d="M 583.178533 230.64 
L 583.178533 13.2 
" style="fill:none;stroke:#b0b0b0;stroke-linecap:square;stroke-width:0.8;"/>
     </g>
     <g id="line2d_54">
      <g>
       <use x="583.178533" xlink:href="#m3fb93d03ce" y="230.64"/>
      </g>
     </g>
     <g id="text_26">
      <!-- 5 -->
      <g transform="translate(578.406658 251.537656)scale(0.15 -0.15)">
       <use xlink:href="#DejaVuSans-35"/>
      </g>
     </g>
    </g>
    <g id="xtick_18">
     <g id="line2d_55">
      <path clip-path="url(#p25d250f694)" d="M 612.291576 230.64 
L 612.291576 13.2 
" style="fill:none;stroke:#b0b0b0;stroke-linecap:square;stroke-width:0.8;"/>
     </g>
     <g id="line2d_56">
      <g>
       <use x="612.291576" xlink:href="#m3fb93d03ce" y="230.64"/>
      </g>
     </g>
     <g id="text_27">
      <!-- 6 -->
      <g transform="translate(607.519701 251.537656)scale(0.15 -0.15)">
       <use xlink:href="#DejaVuSans-36"/>
      </g>
     </g>
    </g>
    <g id="xtick_19">
     <g id="line2d_57">
      <path clip-path="url(#p25d250f694)" d="M 641.40462 230.64 
L 641.40462 13.2 
" style="fill:none;stroke:#b0b0b0;stroke-linecap:square;stroke-width:0.8;"/>
     </g>
     <g id="line2d_58">
      <g>
       <use x="641.40462" xlink:href="#m3fb93d03ce" y="230.64"/>
      </g>
     </g>
     <g id="text_28">
      <!-- 7 -->
      <g transform="translate(636.632745 251.537656)scale(0.15 -0.15)">
       <use xlink:href="#DejaVuSans-37"/>
      </g>
     </g>
    </g>
    <g id="xtick_20">
     <g id="line2d_59">
      <path clip-path="url(#p25d250f694)" d="M 670.517663 230.64 
L 670.517663 13.2 
" style="fill:none;stroke:#b0b0b0;stroke-linecap:square;stroke-width:0.8;"/>
     </g>
     <g id="line2d_60">
      <g>
       <use x="670.517663" xlink:href="#m3fb93d03ce" y="230.64"/>
      </g>
     </g>
     <g id="text_29">
      <!-- 8 -->
      <g transform="translate(665.745788 251.537656)scale(0.15 -0.15)">
       <use xlink:href="#DejaVuSans-38"/>
      </g>
     </g>
    </g>
    <g id="xtick_21">
     <g id="line2d_61">
      <path clip-path="url(#p25d250f694)" d="M 699.630707 230.64 
L 699.630707 13.2 
" style="fill:none;stroke:#b0b0b0;stroke-linecap:square;stroke-width:0.8;"/>
     </g>
     <g id="line2d_62">
      <g>
       <use x="699.630707" xlink:href="#m3fb93d03ce" y="230.64"/>
      </g>
     </g>
     <g id="text_30">
      <!-- 9 -->
      <g transform="translate(694.858832 251.537656)scale(0.15 -0.15)">
       <use xlink:href="#DejaVuSans-39"/>
      </g>
     </g>
    </g>
    <g id="xtick_22">
     <g id="line2d_63">
      <path clip-path="url(#p25d250f694)" d="M 728.74375 230.64 
L 728.74375 13.2 
" style="fill:none;stroke:#b0b0b0;stroke-linecap:square;stroke-width:0.8;"/>
     </g>
     <g id="line2d_64">
      <g>
       <use x="728.74375" xlink:href="#m3fb93d03ce" y="230.64"/>
      </g>
     </g>
     <g id="text_31">
      <!-- 10 -->
      <g transform="translate(719.2 251.537656)scale(0.15 -0.15)">
       <use xlink:href="#DejaVuSans-31"/>
       <use x="63.623047" xlink:href="#DejaVuSans-30"/>
      </g>
     </g>
    </g>
    <g id="text_32">
     <!-- $t/\tau$ -->
     <g transform="translate(569.778533 273.854062)scale(0.2 -0.2)">
      <use transform="translate(0 0.09375)" xlink:href="#DejaVuSans-Oblique-74"/>
      <use transform="translate(39.208984 0.09375)" xlink:href="#DejaVuSans-2f"/>
      <use transform="translate(72.900391 0.09375)" xlink:href="#DejaVuSans-Oblique-3c4"/>
     </g>
    </g>
   </g>
   <g id="matplotlib.axis_4">
    <g id="ytick_8">
     <g id="line2d_65">
      <path clip-path="url(#p25d250f694)" d="M 437.613315 230.64 
L 728.74375 230.64 
" style="fill:none;stroke:#b0b0b0;stroke-linecap:square;stroke-width:0.8;"/>
     </g>
     <g id="line2d_66">
      <g>
       <use x="437.613315" xlink:href="#m04708fe3a9" y="230.64"/>
      </g>
     </g>
     <g id="text_33">
      <!-- 0.00 -->
      <defs>
       <path d="M 10.6875 12.40625 
L 21 12.40625 
L 21 0 
L 10.6875 0 
z
" id="DejaVuSans-2e"/>
      </defs>
      <g transform="translate(394.714878 236.338828)scale(0.15 -0.15)">
       <use xlink:href="#DejaVuSans-30"/>
       <use x="63.623047" xlink:href="#DejaVuSans-2e"/>
       <use x="95.410156" xlink:href="#DejaVuSans-30"/>
       <use x="159.033203" xlink:href="#DejaVuSans-30"/>
      </g>
     </g>
    </g>
    <g id="ytick_9">
     <g id="line2d_67">
      <path clip-path="url(#p25d250f694)" d="M 437.613315 203.416243 
L 728.74375 203.416243 
" style="fill:none;stroke:#b0b0b0;stroke-linecap:square;stroke-width:0.8;"/>
     </g>
     <g id="line2d_68">
      <g>
       <use x="437.613315" xlink:href="#m04708fe3a9" y="203.416243"/>
      </g>
     </g>
     <g id="text_34">
      <!-- 0.04 -->
      <g transform="translate(394.714878 209.115071)scale(0.15 -0.15)">
       <use xlink:href="#DejaVuSans-30"/>
       <use x="63.623047" xlink:href="#DejaVuSans-2e"/>
       <use x="95.410156" xlink:href="#DejaVuSans-30"/>
       <use x="159.033203" xlink:href="#DejaVuSans-34"/>
      </g>
     </g>
    </g>
    <g id="ytick_10">
     <g id="line2d_69">
      <path clip-path="url(#p25d250f694)" d="M 437.613315 176.192486 
L 728.74375 176.192486 
" style="fill:none;stroke:#b0b0b0;stroke-linecap:square;stroke-width:0.8;"/>
     </g>
     <g id="line2d_70">
      <g>
       <use x="437.613315" xlink:href="#m04708fe3a9" y="176.192486"/>
      </g>
     </g>
     <g id="text_35">
      <!-- 0.08 -->
      <g transform="translate(394.714878 181.891315)scale(0.15 -0.15)">
       <use xlink:href="#DejaVuSans-30"/>
       <use x="63.623047" xlink:href="#DejaVuSans-2e"/>
       <use x="95.410156" xlink:href="#DejaVuSans-30"/>
       <use x="159.033203" xlink:href="#DejaVuSans-38"/>
      </g>
     </g>
    </g>
    <g id="ytick_11">
     <g id="line2d_71">
      <path clip-path="url(#p25d250f694)" d="M 437.613315 148.96873 
L 728.74375 148.96873 
" style="fill:none;stroke:#b0b0b0;stroke-linecap:square;stroke-width:0.8;"/>
     </g>
     <g id="line2d_72">
      <g>
       <use x="437.613315" xlink:href="#m04708fe3a9" y="148.96873"/>
      </g>
     </g>
     <g id="text_36">
      <!-- 0.12 -->
      <g transform="translate(394.714878 154.667558)scale(0.15 -0.15)">
       <use xlink:href="#DejaVuSans-30"/>
       <use x="63.623047" xlink:href="#DejaVuSans-2e"/>
       <use x="95.410156" xlink:href="#DejaVuSans-31"/>
       <use x="159.033203" xlink:href="#DejaVuSans-32"/>
      </g>
     </g>
    </g>
    <g id="ytick_12">
     <g id="line2d_73">
      <path clip-path="url(#p25d250f694)" d="M 437.613315 121.744973 
L 728.74375 121.744973 
" style="fill:none;stroke:#b0b0b0;stroke-linecap:square;stroke-width:0.8;"/>
     </g>
     <g id="line2d_74">
      <g>
       <use x="437.613315" xlink:href="#m04708fe3a9" y="121.744973"/>
      </g>
     </g>
     <g id="text_37">
      <!-- 0.16 -->
      <g transform="translate(394.714878 127.443801)scale(0.15 -0.15)">
       <use xlink:href="#DejaVuSans-30"/>
       <use x="63.623047" xlink:href="#DejaVuSans-2e"/>
       <use x="95.410156" xlink:href="#DejaVuSans-31"/>
       <use x="159.033203" xlink:href="#DejaVuSans-36"/>
      </g>
     </g>
    </g>
    <g id="ytick_13">
     <g id="line2d_75">
      <path clip-path="url(#p25d250f694)" d="M 437.613315 94.521216 
L 728.74375 94.521216 
" style="fill:none;stroke:#b0b0b0;stroke-linecap:square;stroke-width:0.8;"/>
     </g>
     <g id="line2d_76">
      <g>
       <use x="437.613315" xlink:href="#m04708fe3a9" y="94.521216"/>
      </g>
     </g>
     <g id="text_38">
      <!-- 0.20 -->
      <g transform="translate(394.714878 100.220044)scale(0.15 -0.15)">
       <use xlink:href="#DejaVuSans-30"/>
       <use x="63.623047" xlink:href="#DejaVuSans-2e"/>
       <use x="95.410156" xlink:href="#DejaVuSans-32"/>
       <use x="159.033203" xlink:href="#DejaVuSans-30"/>
      </g>
     </g>
    </g>
    <g id="ytick_14">
     <g id="line2d_77">
      <path clip-path="url(#p25d250f694)" d="M 437.613315 67.297459 
L 728.74375 67.297459 
" style="fill:none;stroke:#b0b0b0;stroke-linecap:square;stroke-width:0.8;"/>
     </g>
     <g id="line2d_78">
      <g>
       <use x="437.613315" xlink:href="#m04708fe3a9" y="67.297459"/>
      </g>
     </g>
     <g id="text_39">
      <!-- 0.24 -->
      <g transform="translate(394.714878 72.996287)scale(0.15 -0.15)">
       <use xlink:href="#DejaVuSans-30"/>
       <use x="63.623047" xlink:href="#DejaVuSans-2e"/>
       <use x="95.410156" xlink:href="#DejaVuSans-32"/>
       <use x="159.033203" xlink:href="#DejaVuSans-34"/>
      </g>
     </g>
    </g>
    <g id="ytick_15">
     <g id="line2d_79">
      <path clip-path="url(#p25d250f694)" d="M 437.613315 40.073702 
L 728.74375 40.073702 
" style="fill:none;stroke:#b0b0b0;stroke-linecap:square;stroke-width:0.8;"/>
     </g>
     <g id="line2d_80">
      <g>
       <use x="437.613315" xlink:href="#m04708fe3a9" y="40.073702"/>
      </g>
     </g>
     <g id="text_40">
      <!-- 0.28 -->
      <g transform="translate(394.714878 45.772531)scale(0.15 -0.15)">
       <use xlink:href="#DejaVuSans-30"/>
       <use x="63.623047" xlink:href="#DejaVuSans-2e"/>
       <use x="95.410156" xlink:href="#DejaVuSans-32"/>
       <use x="159.033203" xlink:href="#DejaVuSans-38"/>
      </g>
     </g>
    </g>
    <g id="text_41">
     <!-- $C_V^2(n_r)$ -->
     <defs>
      <path d="M 69.484375 67.28125 
L 67.484375 56.890625 
Q 62.796875 61.625 57.546875 63.921875 
Q 52.296875 66.21875 46.1875 66.21875 
Q 37.84375 66.21875 31.515625 62.203125 
Q 25.203125 58.203125 20.609375 50 
Q 17.671875 44.734375 16.125 38.84375 
Q 14.59375 32.953125 14.59375 27 
Q 14.59375 17.046875 19.75 11.8125 
Q 24.90625 6.59375 34.71875 6.59375 
Q 41.5 6.59375 47.75 8.765625 
Q 54 10.9375 59.90625 15.28125 
L 57.625 3.609375 
Q 51.8125 1.125 45.875 -0.140625 
Q 39.9375 -1.421875 33.984375 -1.421875 
Q 19.96875 -1.421875 12.078125 6.1875 
Q 4.203125 13.8125 4.203125 27.390625 
Q 4.203125 36.078125 7.203125 44.46875 
Q 10.203125 52.875 15.828125 59.8125 
Q 21.78125 67.1875 29.421875 70.703125 
Q 37.0625 74.21875 47.21875 74.21875 
Q 53.46875 74.21875 59.0625 72.484375 
Q 64.65625 70.75 69.484375 67.28125 
z
" id="DejaVuSans-Oblique-43"/>
      <path d="M 20.609375 0 
L 7.8125 72.90625 
L 17.484375 72.90625 
L 28.078125 10.203125 
L 63.484375 72.90625 
L 74.21875 72.90625 
L 32.078125 0 
z
" id="DejaVuSans-Oblique-56"/>
      <path d="M 31 75.875 
Q 24.46875 64.65625 21.28125 53.65625 
Q 18.109375 42.671875 18.109375 31.390625 
Q 18.109375 20.125 21.3125 9.0625 
Q 24.515625 -2 31 -13.1875 
L 23.1875 -13.1875 
Q 15.875 -1.703125 12.234375 9.375 
Q 8.59375 20.453125 8.59375 31.390625 
Q 8.59375 42.28125 12.203125 53.3125 
Q 15.828125 64.359375 23.1875 75.875 
z
" id="DejaVuSans-28"/>
      <path d="M 55.71875 33.015625 
L 49.3125 0 
L 40.28125 0 
L 46.6875 32.671875 
Q 47.125 34.96875 47.359375 36.71875 
Q 47.609375 38.484375 47.609375 39.5 
Q 47.609375 43.609375 45.015625 45.890625 
Q 42.4375 48.1875 37.796875 48.1875 
Q 30.5625 48.1875 25.34375 43.375 
Q 20.125 38.578125 18.5 30.328125 
L 12.5 0 
L 3.515625 0 
L 14.109375 54.6875 
L 23.09375 54.6875 
L 21.296875 46.09375 
Q 25.046875 50.828125 30.3125 53.40625 
Q 35.59375 56 41.40625 56 
Q 48.640625 56 52.609375 52.09375 
Q 56.59375 48.1875 56.59375 41.109375 
Q 56.59375 39.359375 56.375 37.359375 
Q 56.15625 35.359375 55.71875 33.015625 
z
" id="DejaVuSans-Oblique-6e"/>
      <path d="M 44.578125 46.390625 
Q 43.21875 47.125 41.453125 47.515625 
Q 39.703125 47.90625 37.703125 47.90625 
Q 30.515625 47.90625 25.140625 42.453125 
Q 19.78125 37.015625 18.015625 27.875 
L 12.5 0 
L 3.515625 0 
L 14.203125 54.6875 
L 23.1875 54.6875 
L 21.484375 46.1875 
Q 25.046875 50.921875 30 53.453125 
Q 34.96875 56 40.578125 56 
Q 42.046875 56 43.453125 55.828125 
Q 44.875 55.671875 46.296875 55.28125 
z
" id="DejaVuSans-Oblique-72"/>
      <path d="M 8.015625 75.875 
L 15.828125 75.875 
Q 23.140625 64.359375 26.78125 53.3125 
Q 30.421875 42.28125 30.421875 31.390625 
Q 30.421875 20.453125 26.78125 9.375 
Q 23.140625 -1.703125 15.828125 -13.1875 
L 8.015625 -13.1875 
Q 14.5 -2 17.703125 9.0625 
Q 20.90625 20.125 20.90625 31.390625 
Q 20.90625 42.671875 17.703125 53.65625 
Q 14.5 64.65625 8.015625 75.875 
z
" id="DejaVuSans-29"/>
     </defs>
     <g transform="translate(385.114878 151.72)rotate(-90)scale(0.2 -0.2)">
      <use transform="translate(0 0.765625)" xlink:href="#DejaVuSans-Oblique-43"/>
      <use transform="translate(77.02474 39.046875)scale(0.7)" xlink:href="#DejaVuSans-32"/>
      <use transform="translate(69.824219 -26.578125)scale(0.7)" xlink:href="#DejaVuSans-Oblique-56"/>
      <use transform="translate(124.295247 0.765625)" xlink:href="#DejaVuSans-28"/>
      <use transform="translate(163.308919 0.765625)" xlink:href="#DejaVuSans-Oblique-6e"/>
      <use transform="translate(226.687826 -15.640625)scale(0.7)" xlink:href="#DejaVuSans-Oblique-72"/>
      <use transform="translate(258.201497 0.765625)" xlink:href="#DejaVuSans-29"/>
     </g>
    </g>
   </g>
   <g id="line2d_81">
    <path clip-path="url(#p25d250f694)" d="M 437.785983 217.395641 
L 440.862013 170.312546 
L 444.172495 170.296399 
L 447.588261 176.0217 
L 450.670692 178.728862 
L 454.078352 175.461137 
L 457.120961 172.173369 
L 460.559007 156.805885 
L 463.677145 130.79123 
L 466.84217 100.737154 
L 470.284364 98.57064 
L 473.281792 109.784629 
L 476.687113 140.154415 
L 479.70516 164.368826 
L 482.936052 175.342354 
L 486.151913 166.831756 
L 489.483985 154.179378 
L 492.700171 127.380989 
L 495.898333 103.009019 
L 499.180717 97.476764 
L 502.577894 115.545967 
L 505.598909 142.155946 
L 509.044994 155.467719 
L 512.320784 166.317594 
L 515.81674 162.963978 
L 518.492916 147.206251 
L 521.92075 120.121957 
L 525.228803 95.887532 
L 528.470191 85.68 
L 531.437199 100.575138 
L 534.782181 128.311277 
L 538.342467 151.820111 
L 541.278082 171.62558 
L 544.450302 166.147609 
L 547.601829 145.768334 
L 550.841647 128.343348 
L 554.072871 96.205311 
L 557.345919 89.468727 
L 560.648783 112.059187 
L 564.174911 142.27164 
L 567.527622 154.460089 
L 570.293947 168.979683 
L 573.537411 166.413753 
L 576.711 156.601892 
L 580.004468 132.719949 
L 583.245148 110.484898 
L 586.509922 105.850969 
L 589.849769 103.334013 
L 593.026681 129.119796 
L 596.148099 155.16388 
L 599.365193 162.631159 
L 602.776661 168.872189 
L 605.883258 152.103072 
L 609.115155 132.1731 
L 612.399426 108.873372 
L 615.53489 93.451392 
L 618.936992 113.803191 
L 622.30057 145.711406 
L 625.237376 161.322875 
L 628.541786 165.962779 
L 631.729206 158.347118 
L 635.15876 149.229317 
L 638.249661 125.599195 
L 641.41507 104.502562 
L 644.65036 95.169126 
L 647.911414 108.841829 
L 651.184413 132.252207 
L 654.40052 159.979961 
L 658.091621 167.648365 
L 660.893838 161.119323 
L 664.498133 143.997778 
L 667.485722 117.150195 
L 670.771368 89.823959 
L 673.760407 91.579057 
L 676.997395 115.709738 
L 680.616354 123.338904 
L 683.679043 157.513968 
L 686.872927 160.605889 
L 690.161864 161.752074 
L 693.519931 142.605847 
L 696.773825 131.193663 
L 700.095964 108.342203 
L 703.389144 96.24782 
L 706.392589 101.819824 
L 710.465241 134.304967 
L 712.635445 157.895513 
L 716.441391 162.792292 
L 719.136822 160.038545 
L 722.468729 154.498457 
L 725.724578 127.973901 
" style="fill:none;stroke:#bd0025;stroke-linecap:square;stroke-width:3;"/>
   </g>
   <g id="patch_8">
    <path d="M 437.613315 230.64 
L 437.613315 13.2 
" style="fill:none;stroke:#000000;stroke-linecap:square;stroke-linejoin:miter;stroke-width:2;"/>
   </g>
   <g id="patch_9">
    <path d="M 728.74375 230.64 
L 728.74375 13.2 
" style="fill:none;"/>
   </g>
   <g id="patch_10">
    <path d="M 437.613315 230.64 
L 728.74375 230.64 
" style="fill:none;stroke:#000000;stroke-linecap:square;stroke-linejoin:miter;stroke-width:2;"/>
   </g>
   <g id="patch_11">
    <path d="M 437.613315 13.2 
L 728.74375 13.2 
" style="fill:none;"/>
   </g>
  </g>
 </g>
 <defs>
  <clipPath id="p8ba3ab86af">
   <rect height="217.44" width="291.130435" x="59.14375" y="13.2"/>
  </clipPath>
  <clipPath id="p25d250f694">
   <rect height="217.44" width="291.130435" x="437.613315" y="13.2"/>
  </clipPath>
 </defs>
</svg>
