<?xml version="1.0" encoding="utf-8" standalone="no"?>
<!DOCTYPE svg PUBLIC "-//W3C//DTD SVG 1.1//EN"
  "http://www.w3.org/Graphics/SVG/1.1/DTD/svg11.dtd">
<!-- Created with matplotlib (http://matplotlib.org/) -->
<svg height="285.213437pt" version="1.1" viewBox="0 0 756.475 285.213437" width="756.475pt" xmlns="http://www.w3.org/2000/svg" xmlns:xlink="http://www.w3.org/1999/xlink">
 <defs>
  <style type="text/css">
*{stroke-linecap:butt;stroke-linejoin:round;}
  </style>
 </defs>
 <g id="figure_1">
  <g id="patch_1">
   <path d="M 0 285.213437 
L 756.475 285.213437 
L 756.475 0 
L 0 0 
z
" style="fill:#ffffff;"/>
  </g>
  <g id="axes_1">
   <g id="patch_2">
    <path d="M 70.13125 230.64 
L 361.261685 230.64 
L 361.261685 13.2 
L 70.13125 13.2 
z
" style="fill:#ffffff;"/>
   </g>
   <g id="PolyCollection_1">
    <defs>
     <path d="M 70.303918 -126.994383 
L 70.303918 -126.889545 
L 73.379948 -128.099441 
L 76.69043 -130.710173 
L 80.106196 -134.132278 
L 83.188627 -137.504464 
L 86.596286 -141.026874 
L 89.638896 -144.498532 
L 93.076942 -148.17784 
L 96.19508 -151.807114 
L 99.360104 -155.205775 
L 102.802299 -158.294893 
L 105.799727 -161.14211 
L 109.205048 -163.959685 
L 112.223095 -166.506006 
L 115.453986 -168.772305 
L 118.669848 -170.940527 
L 122.001919 -172.987812 
L 125.218106 -174.79891 
L 128.416267 -176.60687 
L 131.698652 -178.132737 
L 135.095829 -179.34224 
L 138.116844 -180.929455 
L 141.562929 -182.307867 
L 144.838718 -183.3358 
L 148.334675 -184.490133 
L 151.010851 -185.267754 
L 154.438685 -185.702595 
L 157.746738 -186.38243 
L 160.988126 -187.02547 
L 163.955134 -187.662095 
L 167.300116 -188.18317 
L 170.860402 -188.976213 
L 173.796017 -189.749716 
L 176.968237 -190.432366 
L 180.119764 -191.081704 
L 183.359582 -191.378933 
L 186.590806 -191.886357 
L 189.863854 -192.078849 
L 193.166718 -192.453606 
L 196.692846 -192.81844 
L 200.045557 -193.328777 
L 202.811882 -193.730739 
L 206.055346 -193.987409 
L 209.228935 -194.36471 
L 212.522403 -194.660093 
L 215.763083 -195.425788 
L 219.027857 -195.652199 
L 222.367704 -195.835025 
L 225.544616 -195.984359 
L 228.666034 -196.436124 
L 231.883128 -196.659965 
L 235.294595 -196.57172 
L 238.401193 -196.855612 
L 241.63309 -197.242302 
L 244.917361 -197.315716 
L 248.052825 -197.476293 
L 251.454927 -197.29822 
L 254.818504 -197.377477 
L 257.75531 -197.572698 
L 261.059721 -197.656849 
L 264.247141 -197.854077 
L 267.676695 -198.113097 
L 270.767596 -198.331262 
L 273.933004 -198.091123 
L 277.168295 -198.27026 
L 280.429349 -198.272242 
L 283.702348 -198.255889 
L 286.918455 -198.358122 
L 290.609556 -198.238177 
L 293.411773 -198.328056 
L 297.016067 -198.172852 
L 300.003657 -198.238156 
L 303.289302 -197.943773 
L 306.278342 -197.844927 
L 309.51533 -197.70478 
L 313.134289 -197.550068 
L 316.196978 -197.491144 
L 319.390862 -197.523661 
L 322.679799 -197.933965 
L 326.037865 -197.866916 
L 329.29176 -197.706161 
L 332.613899 -197.677006 
L 335.907079 -197.980912 
L 338.910524 -197.854248 
L 342.983176 -197.746399 
L 345.15338 -197.914049 
L 348.959326 -197.881831 
L 351.654756 -197.908235 
L 354.986664 -197.958561 
L 358.242513 -197.953844 
L 358.242513 -200.385755 
L 358.242513 -200.385755 
L 354.986664 -200.3813 
L 351.654756 -200.332561 
L 348.959326 -200.319327 
L 345.15338 -200.371574 
L 342.983176 -200.231533 
L 338.910524 -200.34728 
L 335.907079 -200.490181 
L 332.613899 -200.172775 
L 329.29176 -200.165931 
L 326.037865 -200.295409 
L 322.679799 -200.387981 
L 319.390862 -199.99514 
L 316.196978 -199.995543 
L 313.134289 -200.064691 
L 309.51533 -200.211534 
L 306.278342 -200.345653 
L 303.289302 -200.385824 
L 300.003657 -200.63159 
L 297.016067 -200.522123 
L 293.411773 -200.658781 
L 290.609556 -200.558753 
L 286.918455 -200.708753 
L 283.702348 -200.64648 
L 280.429349 -200.645515 
L 277.168295 -200.640912 
L 273.933004 -200.451857 
L 270.767596 -200.727352 
L 267.676695 -200.471001 
L 264.247141 -200.190189 
L 261.059721 -200.004744 
L 257.75531 -199.933164 
L 254.818504 -199.753435 
L 251.454927 -199.712134 
L 248.052825 -199.849747 
L 244.917361 -199.693437 
L 241.63309 -199.577706 
L 238.401193 -199.182255 
L 235.294595 -198.863665 
L 231.883128 -198.959463 
L 228.666034 -198.732466 
L 225.544616 -198.294815 
L 222.367704 -198.165059 
L 219.027857 -197.980311 
L 215.763083 -197.725785 
L 212.522403 -196.924954 
L 209.228935 -196.645381 
L 206.055346 -196.290184 
L 202.811882 -196.029132 
L 200.045557 -195.655156 
L 196.692846 -195.156798 
L 193.166718 -194.799525 
L 189.863854 -194.43413 
L 186.590806 -194.223405 
L 183.359582 -193.701478 
L 180.119764 -193.414476 
L 176.968237 -192.78631 
L 173.796017 -192.135473 
L 170.860402 -191.354847 
L 167.300116 -190.575674 
L 163.955134 -190.03154 
L 160.988126 -189.386533 
L 157.746738 -188.698332 
L 154.438685 -187.984637 
L 151.010851 -187.552189 
L 148.334675 -186.778402 
L 144.838718 -185.611671 
L 141.562929 -184.559213 
L 138.116844 -183.183646 
L 135.095829 -181.588868 
L 131.698652 -180.33592 
L 128.416267 -178.738375 
L 125.218106 -176.908087 
L 122.001919 -175.07094 
L 118.669848 -172.987975 
L 115.453986 -170.816884 
L 112.223095 -168.498193 
L 109.205048 -165.916359 
L 105.799727 -163.046902 
L 102.802299 -160.147023 
L 99.360104 -157.000483 
L 96.19508 -153.479008 
L 93.076942 -149.703872 
L 89.638896 -145.88525 
L 86.596286 -142.26413 
L 83.188627 -138.582014 
L 80.106196 -135.00558 
L 76.69043 -131.373533 
L 73.379948 -128.528677 
L 70.303918 -126.994383 
z
" id="m5653aee1ab"/>
    </defs>
    <g clip-path="url(#p32e6efa815)">
     <use style="fill:#4be000;" x="0" xlink:href="#m5653aee1ab" y="285.213437"/>
    </g>
   </g>
   <g id="matplotlib.axis_1">
    <g id="xtick_1">
     <g id="line2d_1">
      <path clip-path="url(#p32e6efa815)" d="M 70.13125 230.64 
L 70.13125 13.2 
" style="fill:none;stroke:#b0b0b0;stroke-linecap:square;stroke-width:0.8;"/>
     </g>
     <g id="line2d_2">
      <defs>
       <path d="M 0 0 
L 0 6 
" id="m611e0111cb"/>
      </defs>
      <g>
       <use x="70.13125" xlink:href="#m611e0111cb" y="230.64"/>
      </g>
     </g>
     <g id="text_1">
      <!-- 0 -->
      <defs>
       <path d="M 31.78125 66.40625 
Q 24.171875 66.40625 20.328125 58.90625 
Q 16.5 51.421875 16.5 36.375 
Q 16.5 21.390625 20.328125 13.890625 
Q 24.171875 6.390625 31.78125 6.390625 
Q 39.453125 6.390625 43.28125 13.890625 
Q 47.125 21.390625 47.125 36.375 
Q 47.125 51.421875 43.28125 58.90625 
Q 39.453125 66.40625 31.78125 66.40625 
z
M 31.78125 74.21875 
Q 44.046875 74.21875 50.515625 64.515625 
Q 56.984375 54.828125 56.984375 36.375 
Q 56.984375 17.96875 50.515625 8.265625 
Q 44.046875 -1.421875 31.78125 -1.421875 
Q 19.53125 -1.421875 13.0625 8.265625 
Q 6.59375 17.96875 6.59375 36.375 
Q 6.59375 54.828125 13.0625 64.515625 
Q 19.53125 74.21875 31.78125 74.21875 
z
" id="DejaVuSans-30"/>
      </defs>
      <g transform="translate(65.359375 251.537656)scale(0.15 -0.15)">
       <use xlink:href="#DejaVuSans-30"/>
      </g>
     </g>
    </g>
    <g id="xtick_2">
     <g id="line2d_3">
      <path clip-path="url(#p32e6efa815)" d="M 99.244293 230.64 
L 99.244293 13.2 
" style="fill:none;stroke:#b0b0b0;stroke-linecap:square;stroke-width:0.8;"/>
     </g>
     <g id="line2d_4">
      <g>
       <use x="99.244293" xlink:href="#m611e0111cb" y="230.64"/>
      </g>
     </g>
     <g id="text_2">
      <!-- 1 -->
      <defs>
       <path d="M 12.40625 8.296875 
L 28.515625 8.296875 
L 28.515625 63.921875 
L 10.984375 60.40625 
L 10.984375 69.390625 
L 28.421875 72.90625 
L 38.28125 72.90625 
L 38.28125 8.296875 
L 54.390625 8.296875 
L 54.390625 0 
L 12.40625 0 
z
" id="DejaVuSans-31"/>
      </defs>
      <g transform="translate(94.472418 251.537656)scale(0.15 -0.15)">
       <use xlink:href="#DejaVuSans-31"/>
      </g>
     </g>
    </g>
    <g id="xtick_3">
     <g id="line2d_5">
      <path clip-path="url(#p32e6efa815)" d="M 128.357337 230.64 
L 128.357337 13.2 
" style="fill:none;stroke:#b0b0b0;stroke-linecap:square;stroke-width:0.8;"/>
     </g>
     <g id="line2d_6">
      <g>
       <use x="128.357337" xlink:href="#m611e0111cb" y="230.64"/>
      </g>
     </g>
     <g id="text_3">
      <!-- 2 -->
      <defs>
       <path d="M 19.1875 8.296875 
L 53.609375 8.296875 
L 53.609375 0 
L 7.328125 0 
L 7.328125 8.296875 
Q 12.9375 14.109375 22.625 23.890625 
Q 32.328125 33.6875 34.8125 36.53125 
Q 39.546875 41.84375 41.421875 45.53125 
Q 43.3125 49.21875 43.3125 52.78125 
Q 43.3125 58.59375 39.234375 62.25 
Q 35.15625 65.921875 28.609375 65.921875 
Q 23.96875 65.921875 18.8125 64.3125 
Q 13.671875 62.703125 7.8125 59.421875 
L 7.8125 69.390625 
Q 13.765625 71.78125 18.9375 73 
Q 24.125 74.21875 28.421875 74.21875 
Q 39.75 74.21875 46.484375 68.546875 
Q 53.21875 62.890625 53.21875 53.421875 
Q 53.21875 48.921875 51.53125 44.890625 
Q 49.859375 40.875 45.40625 35.40625 
Q 44.1875 33.984375 37.640625 27.21875 
Q 31.109375 20.453125 19.1875 8.296875 
z
" id="DejaVuSans-32"/>
      </defs>
      <g transform="translate(123.585462 251.537656)scale(0.15 -0.15)">
       <use xlink:href="#DejaVuSans-32"/>
      </g>
     </g>
    </g>
    <g id="xtick_4">
     <g id="line2d_7">
      <path clip-path="url(#p32e6efa815)" d="M 157.47038 230.64 
L 157.47038 13.2 
" style="fill:none;stroke:#b0b0b0;stroke-linecap:square;stroke-width:0.8;"/>
     </g>
     <g id="line2d_8">
      <g>
       <use x="157.47038" xlink:href="#m611e0111cb" y="230.64"/>
      </g>
     </g>
     <g id="text_4">
      <!-- 3 -->
      <defs>
       <path d="M 40.578125 39.3125 
Q 47.65625 37.796875 51.625 33 
Q 55.609375 28.21875 55.609375 21.1875 
Q 55.609375 10.40625 48.1875 4.484375 
Q 40.765625 -1.421875 27.09375 -1.421875 
Q 22.515625 -1.421875 17.65625 -0.515625 
Q 12.796875 0.390625 7.625 2.203125 
L 7.625 11.71875 
Q 11.71875 9.328125 16.59375 8.109375 
Q 21.484375 6.890625 26.8125 6.890625 
Q 36.078125 6.890625 40.9375 10.546875 
Q 45.796875 14.203125 45.796875 21.1875 
Q 45.796875 27.640625 41.28125 31.265625 
Q 36.765625 34.90625 28.71875 34.90625 
L 20.21875 34.90625 
L 20.21875 43.015625 
L 29.109375 43.015625 
Q 36.375 43.015625 40.234375 45.921875 
Q 44.09375 48.828125 44.09375 54.296875 
Q 44.09375 59.90625 40.109375 62.90625 
Q 36.140625 65.921875 28.71875 65.921875 
Q 24.65625 65.921875 20.015625 65.03125 
Q 15.375 64.15625 9.8125 62.3125 
L 9.8125 71.09375 
Q 15.4375 72.65625 20.34375 73.4375 
Q 25.25 74.21875 29.59375 74.21875 
Q 40.828125 74.21875 47.359375 69.109375 
Q 53.90625 64.015625 53.90625 55.328125 
Q 53.90625 49.265625 50.4375 45.09375 
Q 46.96875 40.921875 40.578125 39.3125 
z
" id="DejaVuSans-33"/>
      </defs>
      <g transform="translate(152.698505 251.537656)scale(0.15 -0.15)">
       <use xlink:href="#DejaVuSans-33"/>
      </g>
     </g>
    </g>
    <g id="xtick_5">
     <g id="line2d_9">
      <path clip-path="url(#p32e6efa815)" d="M 186.583424 230.64 
L 186.583424 13.2 
" style="fill:none;stroke:#b0b0b0;stroke-linecap:square;stroke-width:0.8;"/>
     </g>
     <g id="line2d_10">
      <g>
       <use x="186.583424" xlink:href="#m611e0111cb" y="230.64"/>
      </g>
     </g>
     <g id="text_5">
      <!-- 4 -->
      <defs>
       <path d="M 37.796875 64.3125 
L 12.890625 25.390625 
L 37.796875 25.390625 
z
M 35.203125 72.90625 
L 47.609375 72.90625 
L 47.609375 25.390625 
L 58.015625 25.390625 
L 58.015625 17.1875 
L 47.609375 17.1875 
L 47.609375 0 
L 37.796875 0 
L 37.796875 17.1875 
L 4.890625 17.1875 
L 4.890625 26.703125 
z
" id="DejaVuSans-34"/>
      </defs>
      <g transform="translate(181.811549 251.537656)scale(0.15 -0.15)">
       <use xlink:href="#DejaVuSans-34"/>
      </g>
     </g>
    </g>
    <g id="xtick_6">
     <g id="line2d_11">
      <path clip-path="url(#p32e6efa815)" d="M 215.696467 230.64 
L 215.696467 13.2 
" style="fill:none;stroke:#b0b0b0;stroke-linecap:square;stroke-width:0.8;"/>
     </g>
     <g id="line2d_12">
      <g>
       <use x="215.696467" xlink:href="#m611e0111cb" y="230.64"/>
      </g>
     </g>
     <g id="text_6">
      <!-- 5 -->
      <defs>
       <path d="M 10.796875 72.90625 
L 49.515625 72.90625 
L 49.515625 64.59375 
L 19.828125 64.59375 
L 19.828125 46.734375 
Q 21.96875 47.46875 24.109375 47.828125 
Q 26.265625 48.1875 28.421875 48.1875 
Q 40.625 48.1875 47.75 41.5 
Q 54.890625 34.8125 54.890625 23.390625 
Q 54.890625 11.625 47.5625 5.09375 
Q 40.234375 -1.421875 26.90625 -1.421875 
Q 22.3125 -1.421875 17.546875 -0.640625 
Q 12.796875 0.140625 7.71875 1.703125 
L 7.71875 11.625 
Q 12.109375 9.234375 16.796875 8.0625 
Q 21.484375 6.890625 26.703125 6.890625 
Q 35.15625 6.890625 40.078125 11.328125 
Q 45.015625 15.765625 45.015625 23.390625 
Q 45.015625 31 40.078125 35.4375 
Q 35.15625 39.890625 26.703125 39.890625 
Q 22.75 39.890625 18.8125 39.015625 
Q 14.890625 38.140625 10.796875 36.28125 
z
" id="DejaVuSans-35"/>
      </defs>
      <g transform="translate(210.924592 251.537656)scale(0.15 -0.15)">
       <use xlink:href="#DejaVuSans-35"/>
      </g>
     </g>
    </g>
    <g id="xtick_7">
     <g id="line2d_13">
      <path clip-path="url(#p32e6efa815)" d="M 244.809511 230.64 
L 244.809511 13.2 
" style="fill:none;stroke:#b0b0b0;stroke-linecap:square;stroke-width:0.8;"/>
     </g>
     <g id="line2d_14">
      <g>
       <use x="244.809511" xlink:href="#m611e0111cb" y="230.64"/>
      </g>
     </g>
     <g id="text_7">
      <!-- 6 -->
      <defs>
       <path d="M 33.015625 40.375 
Q 26.375 40.375 22.484375 35.828125 
Q 18.609375 31.296875 18.609375 23.390625 
Q 18.609375 15.53125 22.484375 10.953125 
Q 26.375 6.390625 33.015625 6.390625 
Q 39.65625 6.390625 43.53125 10.953125 
Q 47.40625 15.53125 47.40625 23.390625 
Q 47.40625 31.296875 43.53125 35.828125 
Q 39.65625 40.375 33.015625 40.375 
z
M 52.59375 71.296875 
L 52.59375 62.3125 
Q 48.875 64.0625 45.09375 64.984375 
Q 41.3125 65.921875 37.59375 65.921875 
Q 27.828125 65.921875 22.671875 59.328125 
Q 17.53125 52.734375 16.796875 39.40625 
Q 19.671875 43.65625 24.015625 45.921875 
Q 28.375 48.1875 33.59375 48.1875 
Q 44.578125 48.1875 50.953125 41.515625 
Q 57.328125 34.859375 57.328125 23.390625 
Q 57.328125 12.15625 50.6875 5.359375 
Q 44.046875 -1.421875 33.015625 -1.421875 
Q 20.359375 -1.421875 13.671875 8.265625 
Q 6.984375 17.96875 6.984375 36.375 
Q 6.984375 53.65625 15.1875 63.9375 
Q 23.390625 74.21875 37.203125 74.21875 
Q 40.921875 74.21875 44.703125 73.484375 
Q 48.484375 72.75 52.59375 71.296875 
z
" id="DejaVuSans-36"/>
      </defs>
      <g transform="translate(240.037636 251.537656)scale(0.15 -0.15)">
       <use xlink:href="#DejaVuSans-36"/>
      </g>
     </g>
    </g>
    <g id="xtick_8">
     <g id="line2d_15">
      <path clip-path="url(#p32e6efa815)" d="M 273.922554 230.64 
L 273.922554 13.2 
" style="fill:none;stroke:#b0b0b0;stroke-linecap:square;stroke-width:0.8;"/>
     </g>
     <g id="line2d_16">
      <g>
       <use x="273.922554" xlink:href="#m611e0111cb" y="230.64"/>
      </g>
     </g>
     <g id="text_8">
      <!-- 7 -->
      <defs>
       <path d="M 8.203125 72.90625 
L 55.078125 72.90625 
L 55.078125 68.703125 
L 28.609375 0 
L 18.3125 0 
L 43.21875 64.59375 
L 8.203125 64.59375 
z
" id="DejaVuSans-37"/>
      </defs>
      <g transform="translate(269.150679 251.537656)scale(0.15 -0.15)">
       <use xlink:href="#DejaVuSans-37"/>
      </g>
     </g>
    </g>
    <g id="xtick_9">
     <g id="line2d_17">
      <path clip-path="url(#p32e6efa815)" d="M 303.035598 230.64 
L 303.035598 13.2 
" style="fill:none;stroke:#b0b0b0;stroke-linecap:square;stroke-width:0.8;"/>
     </g>
     <g id="line2d_18">
      <g>
       <use x="303.035598" xlink:href="#m611e0111cb" y="230.64"/>
      </g>
     </g>
     <g id="text_9">
      <!-- 8 -->
      <defs>
       <path d="M 31.78125 34.625 
Q 24.75 34.625 20.71875 30.859375 
Q 16.703125 27.09375 16.703125 20.515625 
Q 16.703125 13.921875 20.71875 10.15625 
Q 24.75 6.390625 31.78125 6.390625 
Q 38.8125 6.390625 42.859375 10.171875 
Q 46.921875 13.96875 46.921875 20.515625 
Q 46.921875 27.09375 42.890625 30.859375 
Q 38.875 34.625 31.78125 34.625 
z
M 21.921875 38.8125 
Q 15.578125 40.375 12.03125 44.71875 
Q 8.5 49.078125 8.5 55.328125 
Q 8.5 64.0625 14.71875 69.140625 
Q 20.953125 74.21875 31.78125 74.21875 
Q 42.671875 74.21875 48.875 69.140625 
Q 55.078125 64.0625 55.078125 55.328125 
Q 55.078125 49.078125 51.53125 44.71875 
Q 48 40.375 41.703125 38.8125 
Q 48.828125 37.15625 52.796875 32.3125 
Q 56.78125 27.484375 56.78125 20.515625 
Q 56.78125 9.90625 50.3125 4.234375 
Q 43.84375 -1.421875 31.78125 -1.421875 
Q 19.734375 -1.421875 13.25 4.234375 
Q 6.78125 9.90625 6.78125 20.515625 
Q 6.78125 27.484375 10.78125 32.3125 
Q 14.796875 37.15625 21.921875 38.8125 
z
M 18.3125 54.390625 
Q 18.3125 48.734375 21.84375 45.5625 
Q 25.390625 42.390625 31.78125 42.390625 
Q 38.140625 42.390625 41.71875 45.5625 
Q 45.3125 48.734375 45.3125 54.390625 
Q 45.3125 60.0625 41.71875 63.234375 
Q 38.140625 66.40625 31.78125 66.40625 
Q 25.390625 66.40625 21.84375 63.234375 
Q 18.3125 60.0625 18.3125 54.390625 
z
" id="DejaVuSans-38"/>
      </defs>
      <g transform="translate(298.263723 251.537656)scale(0.15 -0.15)">
       <use xlink:href="#DejaVuSans-38"/>
      </g>
     </g>
    </g>
    <g id="xtick_10">
     <g id="line2d_19">
      <path clip-path="url(#p32e6efa815)" d="M 332.148641 230.64 
L 332.148641 13.2 
" style="fill:none;stroke:#b0b0b0;stroke-linecap:square;stroke-width:0.8;"/>
     </g>
     <g id="line2d_20">
      <g>
       <use x="332.148641" xlink:href="#m611e0111cb" y="230.64"/>
      </g>
     </g>
     <g id="text_10">
      <!-- 9 -->
      <defs>
       <path d="M 10.984375 1.515625 
L 10.984375 10.5 
Q 14.703125 8.734375 18.5 7.8125 
Q 22.3125 6.890625 25.984375 6.890625 
Q 35.75 6.890625 40.890625 13.453125 
Q 46.046875 20.015625 46.78125 33.40625 
Q 43.953125 29.203125 39.59375 26.953125 
Q 35.25 24.703125 29.984375 24.703125 
Q 19.046875 24.703125 12.671875 31.3125 
Q 6.296875 37.9375 6.296875 49.421875 
Q 6.296875 60.640625 12.9375 67.421875 
Q 19.578125 74.21875 30.609375 74.21875 
Q 43.265625 74.21875 49.921875 64.515625 
Q 56.59375 54.828125 56.59375 36.375 
Q 56.59375 19.140625 48.40625 8.859375 
Q 40.234375 -1.421875 26.421875 -1.421875 
Q 22.703125 -1.421875 18.890625 -0.6875 
Q 15.09375 0.046875 10.984375 1.515625 
z
M 30.609375 32.421875 
Q 37.25 32.421875 41.125 36.953125 
Q 45.015625 41.5 45.015625 49.421875 
Q 45.015625 57.28125 41.125 61.84375 
Q 37.25 66.40625 30.609375 66.40625 
Q 23.96875 66.40625 20.09375 61.84375 
Q 16.21875 57.28125 16.21875 49.421875 
Q 16.21875 41.5 20.09375 36.953125 
Q 23.96875 32.421875 30.609375 32.421875 
z
" id="DejaVuSans-39"/>
      </defs>
      <g transform="translate(327.376766 251.537656)scale(0.15 -0.15)">
       <use xlink:href="#DejaVuSans-39"/>
      </g>
     </g>
    </g>
    <g id="xtick_11">
     <g id="line2d_21">
      <path clip-path="url(#p32e6efa815)" d="M 361.261685 230.64 
L 361.261685 13.2 
" style="fill:none;stroke:#b0b0b0;stroke-linecap:square;stroke-width:0.8;"/>
     </g>
     <g id="line2d_22">
      <g>
       <use x="361.261685" xlink:href="#m611e0111cb" y="230.64"/>
      </g>
     </g>
     <g id="text_11">
      <!-- 10 -->
      <g transform="translate(351.717935 251.537656)scale(0.15 -0.15)">
       <use xlink:href="#DejaVuSans-31"/>
       <use x="63.623047" xlink:href="#DejaVuSans-30"/>
      </g>
     </g>
    </g>
    <g id="text_12">
     <!-- $t/\tau$ -->
     <defs>
      <path d="M 42.28125 54.6875 
L 40.921875 47.703125 
L 23 47.703125 
L 17.1875 18.015625 
Q 16.890625 16.359375 16.75 15.234375 
Q 16.609375 14.109375 16.609375 13.484375 
Q 16.609375 10.359375 18.484375 8.9375 
Q 20.359375 7.515625 24.515625 7.515625 
L 33.59375 7.515625 
L 32.078125 0 
L 23.484375 0 
Q 15.484375 0 11.546875 3.125 
Q 7.625 6.25 7.625 12.59375 
Q 7.625 13.71875 7.765625 15.0625 
Q 7.90625 16.40625 8.203125 18.015625 
L 14.015625 47.703125 
L 6.390625 47.703125 
L 7.8125 54.6875 
L 15.28125 54.6875 
L 18.3125 70.21875 
L 27.296875 70.21875 
L 24.3125 54.6875 
z
" id="DejaVuSans-Oblique-74"/>
      <path d="M 25.390625 72.90625 
L 33.6875 72.90625 
L 8.296875 -9.28125 
L 0 -9.28125 
z
" id="DejaVuSans-2f"/>
      <path d="M 32.859375 9.96875 
Q 34.1875 7.625 39.453125 7.625 
L 43.75 7.625 
L 42.28125 0 
L 36.921875 0 
Q 28.125 0 25 4.6875 
Q 21.921875 9.46875 23.96875 19.828125 
L 29 45.703125 
L 8.453125 45.703125 
L 10.203125 54.6875 
L 60.640625 54.6875 
L 58.890625 45.703125 
L 38.1875 45.703125 
L 33.015625 19.28125 
Q 31.640625 12.203125 32.859375 9.96875 
z
" id="DejaVuSans-Oblique-3c4"/>
     </defs>
     <g transform="translate(202.296467 273.854062)scale(0.2 -0.2)">
      <use transform="translate(0 0.09375)" xlink:href="#DejaVuSans-Oblique-74"/>
      <use transform="translate(39.208984 0.09375)" xlink:href="#DejaVuSans-2f"/>
      <use transform="translate(72.900391 0.09375)" xlink:href="#DejaVuSans-Oblique-3c4"/>
     </g>
    </g>
   </g>
   <g id="matplotlib.axis_2">
    <g id="ytick_1">
     <g id="line2d_23">
      <path clip-path="url(#p32e6efa815)" d="M 70.13125 230.64 
L 361.261685 230.64 
" style="fill:none;stroke:#b0b0b0;stroke-linecap:square;stroke-width:0.8;"/>
     </g>
     <g id="line2d_24">
      <defs>
       <path d="M 0 0 
L -6 0 
" id="ma4d41bacbc"/>
      </defs>
      <g>
       <use x="70.13125" xlink:href="#ma4d41bacbc" y="230.64"/>
      </g>
     </g>
     <g id="text_13">
      <!-- 0 -->
      <g transform="translate(51.0875 236.338828)scale(0.15 -0.15)">
       <use xlink:href="#DejaVuSans-30"/>
      </g>
     </g>
    </g>
    <g id="ytick_2">
     <g id="line2d_25">
      <path clip-path="url(#p32e6efa815)" d="M 70.13125 194.457703 
L 361.261685 194.457703 
" style="fill:none;stroke:#b0b0b0;stroke-linecap:square;stroke-width:0.8;"/>
     </g>
     <g id="line2d_26">
      <g>
       <use x="70.13125" xlink:href="#ma4d41bacbc" y="194.457703"/>
      </g>
     </g>
     <g id="text_14">
      <!-- 25 -->
      <g transform="translate(41.54375 200.156531)scale(0.15 -0.15)">
       <use xlink:href="#DejaVuSans-32"/>
       <use x="63.623047" xlink:href="#DejaVuSans-35"/>
      </g>
     </g>
    </g>
    <g id="ytick_3">
     <g id="line2d_27">
      <path clip-path="url(#p32e6efa815)" d="M 70.13125 158.275405 
L 361.261685 158.275405 
" style="fill:none;stroke:#b0b0b0;stroke-linecap:square;stroke-width:0.8;"/>
     </g>
     <g id="line2d_28">
      <g>
       <use x="70.13125" xlink:href="#ma4d41bacbc" y="158.275405"/>
      </g>
     </g>
     <g id="text_15">
      <!-- 50 -->
      <g transform="translate(41.54375 163.974234)scale(0.15 -0.15)">
       <use xlink:href="#DejaVuSans-35"/>
       <use x="63.623047" xlink:href="#DejaVuSans-30"/>
      </g>
     </g>
    </g>
    <g id="ytick_4">
     <g id="line2d_29">
      <path clip-path="url(#p32e6efa815)" d="M 70.13125 122.093108 
L 361.261685 122.093108 
" style="fill:none;stroke:#b0b0b0;stroke-linecap:square;stroke-width:0.8;"/>
     </g>
     <g id="line2d_30">
      <g>
       <use x="70.13125" xlink:href="#ma4d41bacbc" y="122.093108"/>
      </g>
     </g>
     <g id="text_16">
      <!-- 75 -->
      <g transform="translate(41.54375 127.791936)scale(0.15 -0.15)">
       <use xlink:href="#DejaVuSans-37"/>
       <use x="63.623047" xlink:href="#DejaVuSans-35"/>
      </g>
     </g>
    </g>
    <g id="ytick_5">
     <g id="line2d_31">
      <path clip-path="url(#p32e6efa815)" d="M 70.13125 85.910811 
L 361.261685 85.910811 
" style="fill:none;stroke:#b0b0b0;stroke-linecap:square;stroke-width:0.8;"/>
     </g>
     <g id="line2d_32">
      <g>
       <use x="70.13125" xlink:href="#ma4d41bacbc" y="85.910811"/>
      </g>
     </g>
     <g id="text_17">
      <!-- 100 -->
      <g transform="translate(32 91.609639)scale(0.15 -0.15)">
       <use xlink:href="#DejaVuSans-31"/>
       <use x="63.623047" xlink:href="#DejaVuSans-30"/>
       <use x="127.246094" xlink:href="#DejaVuSans-30"/>
      </g>
     </g>
    </g>
    <g id="ytick_6">
     <g id="line2d_33">
      <path clip-path="url(#p32e6efa815)" d="M 70.13125 49.728514 
L 361.261685 49.728514 
" style="fill:none;stroke:#b0b0b0;stroke-linecap:square;stroke-width:0.8;"/>
     </g>
     <g id="line2d_34">
      <g>
       <use x="70.13125" xlink:href="#ma4d41bacbc" y="49.728514"/>
      </g>
     </g>
     <g id="text_18">
      <!-- 125 -->
      <g transform="translate(32 55.427342)scale(0.15 -0.15)">
       <use xlink:href="#DejaVuSans-31"/>
       <use x="63.623047" xlink:href="#DejaVuSans-32"/>
       <use x="127.246094" xlink:href="#DejaVuSans-35"/>
      </g>
     </g>
    </g>
    <g id="ytick_7">
     <g id="line2d_35">
      <path clip-path="url(#p32e6efa815)" d="M 70.13125 13.546216 
L 361.261685 13.546216 
" style="fill:none;stroke:#b0b0b0;stroke-linecap:square;stroke-width:0.8;"/>
     </g>
     <g id="line2d_36">
      <g>
       <use x="70.13125" xlink:href="#ma4d41bacbc" y="13.546216"/>
      </g>
     </g>
     <g id="text_19">
      <!-- 150 -->
      <g transform="translate(32 19.245044)scale(0.15 -0.15)">
       <use xlink:href="#DejaVuSans-31"/>
       <use x="63.623047" xlink:href="#DejaVuSans-35"/>
       <use x="127.246094" xlink:href="#DejaVuSans-30"/>
      </g>
     </g>
    </g>
    <g id="text_20">
     <!-- Protein Conc ($fl^{-1}$) -->
     <defs>
      <path d="M 19.671875 64.796875 
L 19.671875 37.40625 
L 32.078125 37.40625 
Q 38.96875 37.40625 42.71875 40.96875 
Q 46.484375 44.53125 46.484375 51.125 
Q 46.484375 57.671875 42.71875 61.234375 
Q 38.96875 64.796875 32.078125 64.796875 
z
M 9.8125 72.90625 
L 32.078125 72.90625 
Q 44.34375 72.90625 50.609375 67.359375 
Q 56.890625 61.8125 56.890625 51.125 
Q 56.890625 40.328125 50.609375 34.8125 
Q 44.34375 29.296875 32.078125 29.296875 
L 19.671875 29.296875 
L 19.671875 0 
L 9.8125 0 
z
" id="DejaVuSans-50"/>
      <path d="M 41.109375 46.296875 
Q 39.59375 47.171875 37.8125 47.578125 
Q 36.03125 48 33.890625 48 
Q 26.265625 48 22.1875 43.046875 
Q 18.109375 38.09375 18.109375 28.8125 
L 18.109375 0 
L 9.078125 0 
L 9.078125 54.6875 
L 18.109375 54.6875 
L 18.109375 46.1875 
Q 20.953125 51.171875 25.484375 53.578125 
Q 30.03125 56 36.53125 56 
Q 37.453125 56 38.578125 55.875 
Q 39.703125 55.765625 41.0625 55.515625 
z
" id="DejaVuSans-72"/>
      <path d="M 30.609375 48.390625 
Q 23.390625 48.390625 19.1875 42.75 
Q 14.984375 37.109375 14.984375 27.296875 
Q 14.984375 17.484375 19.15625 11.84375 
Q 23.34375 6.203125 30.609375 6.203125 
Q 37.796875 6.203125 41.984375 11.859375 
Q 46.1875 17.53125 46.1875 27.296875 
Q 46.1875 37.015625 41.984375 42.703125 
Q 37.796875 48.390625 30.609375 48.390625 
z
M 30.609375 56 
Q 42.328125 56 49.015625 48.375 
Q 55.71875 40.765625 55.71875 27.296875 
Q 55.71875 13.875 49.015625 6.21875 
Q 42.328125 -1.421875 30.609375 -1.421875 
Q 18.84375 -1.421875 12.171875 6.21875 
Q 5.515625 13.875 5.515625 27.296875 
Q 5.515625 40.765625 12.171875 48.375 
Q 18.84375 56 30.609375 56 
z
" id="DejaVuSans-6f"/>
      <path d="M 18.3125 70.21875 
L 18.3125 54.6875 
L 36.8125 54.6875 
L 36.8125 47.703125 
L 18.3125 47.703125 
L 18.3125 18.015625 
Q 18.3125 11.328125 20.140625 9.421875 
Q 21.96875 7.515625 27.59375 7.515625 
L 36.8125 7.515625 
L 36.8125 0 
L 27.59375 0 
Q 17.1875 0 13.234375 3.875 
Q 9.28125 7.765625 9.28125 18.015625 
L 9.28125 47.703125 
L 2.6875 47.703125 
L 2.6875 54.6875 
L 9.28125 54.6875 
L 9.28125 70.21875 
z
" id="DejaVuSans-74"/>
      <path d="M 56.203125 29.59375 
L 56.203125 25.203125 
L 14.890625 25.203125 
Q 15.484375 15.921875 20.484375 11.0625 
Q 25.484375 6.203125 34.421875 6.203125 
Q 39.59375 6.203125 44.453125 7.46875 
Q 49.3125 8.734375 54.109375 11.28125 
L 54.109375 2.78125 
Q 49.265625 0.734375 44.1875 -0.34375 
Q 39.109375 -1.421875 33.890625 -1.421875 
Q 20.796875 -1.421875 13.15625 6.1875 
Q 5.515625 13.8125 5.515625 26.8125 
Q 5.515625 40.234375 12.765625 48.109375 
Q 20.015625 56 32.328125 56 
Q 43.359375 56 49.78125 48.890625 
Q 56.203125 41.796875 56.203125 29.59375 
z
M 47.21875 32.234375 
Q 47.125 39.59375 43.09375 43.984375 
Q 39.0625 48.390625 32.421875 48.390625 
Q 24.90625 48.390625 20.390625 44.140625 
Q 15.875 39.890625 15.1875 32.171875 
z
" id="DejaVuSans-65"/>
      <path d="M 9.421875 54.6875 
L 18.40625 54.6875 
L 18.40625 0 
L 9.421875 0 
z
M 9.421875 75.984375 
L 18.40625 75.984375 
L 18.40625 64.59375 
L 9.421875 64.59375 
z
" id="DejaVuSans-69"/>
      <path d="M 54.890625 33.015625 
L 54.890625 0 
L 45.90625 0 
L 45.90625 32.71875 
Q 45.90625 40.484375 42.875 44.328125 
Q 39.84375 48.1875 33.796875 48.1875 
Q 26.515625 48.1875 22.3125 43.546875 
Q 18.109375 38.921875 18.109375 30.90625 
L 18.109375 0 
L 9.078125 0 
L 9.078125 54.6875 
L 18.109375 54.6875 
L 18.109375 46.1875 
Q 21.34375 51.125 25.703125 53.5625 
Q 30.078125 56 35.796875 56 
Q 45.21875 56 50.046875 50.171875 
Q 54.890625 44.34375 54.890625 33.015625 
z
" id="DejaVuSans-6e"/>
      <path id="DejaVuSans-20"/>
      <path d="M 64.40625 67.28125 
L 64.40625 56.890625 
Q 59.421875 61.53125 53.78125 63.8125 
Q 48.140625 66.109375 41.796875 66.109375 
Q 29.296875 66.109375 22.65625 58.46875 
Q 16.015625 50.828125 16.015625 36.375 
Q 16.015625 21.96875 22.65625 14.328125 
Q 29.296875 6.6875 41.796875 6.6875 
Q 48.140625 6.6875 53.78125 8.984375 
Q 59.421875 11.28125 64.40625 15.921875 
L 64.40625 5.609375 
Q 59.234375 2.09375 53.4375 0.328125 
Q 47.65625 -1.421875 41.21875 -1.421875 
Q 24.65625 -1.421875 15.125 8.703125 
Q 5.609375 18.84375 5.609375 36.375 
Q 5.609375 53.953125 15.125 64.078125 
Q 24.65625 74.21875 41.21875 74.21875 
Q 47.75 74.21875 53.53125 72.484375 
Q 59.328125 70.75 64.40625 67.28125 
z
" id="DejaVuSans-43"/>
      <path d="M 48.78125 52.59375 
L 48.78125 44.1875 
Q 44.96875 46.296875 41.140625 47.34375 
Q 37.3125 48.390625 33.40625 48.390625 
Q 24.65625 48.390625 19.8125 42.84375 
Q 14.984375 37.3125 14.984375 27.296875 
Q 14.984375 17.28125 19.8125 11.734375 
Q 24.65625 6.203125 33.40625 6.203125 
Q 37.3125 6.203125 41.140625 7.25 
Q 44.96875 8.296875 48.78125 10.40625 
L 48.78125 2.09375 
Q 45.015625 0.34375 40.984375 -0.53125 
Q 36.96875 -1.421875 32.421875 -1.421875 
Q 20.0625 -1.421875 12.78125 6.34375 
Q 5.515625 14.109375 5.515625 27.296875 
Q 5.515625 40.671875 12.859375 48.328125 
Q 20.21875 56 33.015625 56 
Q 37.15625 56 41.109375 55.140625 
Q 45.0625 54.296875 48.78125 52.59375 
z
" id="DejaVuSans-63"/>
      <path d="M 31 75.875 
Q 24.46875 64.65625 21.28125 53.65625 
Q 18.109375 42.671875 18.109375 31.390625 
Q 18.109375 20.125 21.3125 9.0625 
Q 24.515625 -2 31 -13.1875 
L 23.1875 -13.1875 
Q 15.875 -1.703125 12.234375 9.375 
Q 8.59375 20.453125 8.59375 31.390625 
Q 8.59375 42.28125 12.203125 53.3125 
Q 15.828125 64.359375 23.1875 75.875 
z
" id="DejaVuSans-28"/>
      <path d="M 47.796875 75.984375 
L 46.390625 68.5 
L 37.796875 68.5 
Q 32.90625 68.5 30.6875 66.578125 
Q 28.46875 64.65625 27.390625 59.515625 
L 26.421875 54.6875 
L 41.21875 54.6875 
L 39.890625 47.703125 
L 25.09375 47.703125 
L 15.828125 0 
L 6.78125 0 
L 16.109375 47.703125 
L 7.515625 47.703125 
L 8.796875 54.6875 
L 17.390625 54.6875 
L 18.109375 58.5 
Q 19.96875 68.171875 24.625 72.078125 
Q 29.296875 75.984375 39.3125 75.984375 
z
" id="DejaVuSans-Oblique-66"/>
      <path d="M 18.3125 75.984375 
L 27.296875 75.984375 
L 12.5 0 
L 3.515625 0 
z
" id="DejaVuSans-Oblique-6c"/>
      <path d="M 10.59375 35.5 
L 73.1875 35.5 
L 73.1875 27.203125 
L 10.59375 27.203125 
z
" id="DejaVuSans-2212"/>
      <path d="M 8.015625 75.875 
L 15.828125 75.875 
Q 23.140625 64.359375 26.78125 53.3125 
Q 30.421875 42.28125 30.421875 31.390625 
Q 30.421875 20.453125 26.78125 9.375 
Q 23.140625 -1.703125 15.828125 -13.1875 
L 8.015625 -13.1875 
Q 14.5 -2 17.703125 9.0625 
Q 20.90625 20.125 20.90625 31.390625 
Q 20.90625 42.671875 17.703125 53.65625 
Q 14.5 64.65625 8.015625 75.875 
z
" id="DejaVuSans-29"/>
     </defs>
     <g transform="translate(23.840625 214.12)rotate(-90)scale(0.2 -0.2)">
      <use transform="translate(0 0.684375)" xlink:href="#DejaVuSans-50"/>
      <use transform="translate(60.302734 0.684375)" xlink:href="#DejaVuSans-72"/>
      <use transform="translate(101.416016 0.684375)" xlink:href="#DejaVuSans-6f"/>
      <use transform="translate(162.597656 0.684375)" xlink:href="#DejaVuSans-74"/>
      <use transform="translate(201.806641 0.684375)" xlink:href="#DejaVuSans-65"/>
      <use transform="translate(263.330078 0.684375)" xlink:href="#DejaVuSans-69"/>
      <use transform="translate(291.113281 0.684375)" xlink:href="#DejaVuSans-6e"/>
      <use transform="translate(354.492188 0.684375)" xlink:href="#DejaVuSans-20"/>
      <use transform="translate(386.279297 0.684375)" xlink:href="#DejaVuSans-43"/>
      <use transform="translate(456.103516 0.684375)" xlink:href="#DejaVuSans-6f"/>
      <use transform="translate(517.285156 0.684375)" xlink:href="#DejaVuSans-6e"/>
      <use transform="translate(580.664062 0.684375)" xlink:href="#DejaVuSans-63"/>
      <use transform="translate(635.644531 0.684375)" xlink:href="#DejaVuSans-20"/>
      <use transform="translate(667.431641 0.684375)" xlink:href="#DejaVuSans-28"/>
      <use transform="translate(706.445312 0.684375)" xlink:href="#DejaVuSans-Oblique-66"/>
      <use transform="translate(741.650391 0.684375)" xlink:href="#DejaVuSans-Oblique-6c"/>
      <use transform="translate(776.881302 38.965625)scale(0.7)" xlink:href="#DejaVuSans-2212"/>
      <use transform="translate(835.533646 38.965625)scale(0.7)" xlink:href="#DejaVuSans-31"/>
      <use transform="translate(882.804154 0.684375)" xlink:href="#DejaVuSans-29"/>
     </g>
    </g>
   </g>
   <g id="line2d_37">
    <path clip-path="url(#p32e6efa815)" d="M 70.303918 159.014495 
L 73.379948 157.004531 
L 76.69043 151.25198 
L 80.106196 150.417222 
L 83.188627 148.132104 
L 86.596286 144.350778 
L 89.638896 141.43865 
L 93.076942 141.329902 
L 96.19508 137.932439 
L 99.360104 135.47968 
L 102.802299 135.540346 
L 105.799727 133.947778 
L 109.205048 135.66255 
L 112.223095 136.161614 
L 115.453986 136.596609 
L 118.669848 134.005218 
L 122.001919 130.453353 
L 125.218106 129.980024 
L 128.416267 130.034573 
L 131.698652 130.96065 
L 135.095829 130.459657 
L 138.116844 135.551271 
L 141.562929 137.33879 
L 144.838718 133.322867 
L 148.334675 134.00704 
L 151.010851 131.901124 
L 154.438685 127.047879 
L 157.746738 126.656463 
L 160.988126 119.842517 
L 163.955134 111.696243 
L 167.300116 108.948967 
L 170.860402 113.043845 
L 173.796017 115.023342 
L 176.968237 113.161952 
L 180.119764 107.99597 
L 183.359582 106.401126 
L 186.590806 99.068637 
L 189.863854 95.5631 
L 193.166718 96.822395 
L 196.692846 101.160911 
L 200.045557 104.116134 
L 202.811882 107.767699 
L 206.055346 109.766499 
L 209.228935 105.936752 
L 212.522403 91.523932 
L 215.763083 90.546245 
L 219.027857 94.267399 
L 222.367704 100.460806 
L 225.544616 107.881649 
L 228.666034 111.373583 
L 231.883128 114.541597 
L 235.294595 114.006308 
L 238.401193 117.931614 
L 241.63309 116.878122 
L 244.917361 118.389778 
L 248.052825 118.581526 
L 251.454927 116.517869 
L 254.818504 105.601359 
L 257.75531 103.034885 
L 261.059721 103.776611 
L 264.247141 106.943908 
L 267.676695 103.667106 
L 270.767596 101.514344 
L 273.933004 94.611001 
L 277.168295 96.879922 
L 280.429349 95.740903 
L 283.702348 96.31764 
L 286.918455 93.89129 
L 290.609556 88.897008 
L 293.411773 85.710239 
L 297.016067 86.643173 
L 300.003657 85.584274 
L 303.289302 90.420234 
L 306.278342 115.482704 
L 309.51533 99.193442 
L 313.134289 88.270465 
L 316.196978 90.498002 
L 319.390862 91.803901 
L 322.679799 82.028772 
L 326.037865 80.317001 
L 329.29176 85.539838 
L 332.613899 84.230103 
L 335.907079 90.122249 
L 338.910524 88.37646 
L 342.983176 94.211595 
L 345.15338 100.089573 
L 348.959326 100.062908 
L 351.654756 104.021105 
L 354.986664 108.47035 
L 358.242513 110.393591 
" style="fill:none;stroke:#4be000;stroke-linecap:square;stroke-width:1.5;"/>
   </g>
   <g id="line2d_38">
    <path clip-path="url(#p32e6efa815)" d="M 70.303918 158.473545 
L 73.379948 156.843539 
L 76.69043 158.719705 
L 80.106196 150.322498 
L 83.188627 135.531724 
L 86.596286 123.306399 
L 89.638896 107.837072 
L 93.076942 98.407171 
L 96.19508 90.933147 
L 99.360104 88.870125 
L 102.802299 91.682376 
L 105.799727 95.080485 
L 109.205048 92.947056 
L 112.223095 86.684044 
L 115.453986 93.054571 
L 118.669848 92.508821 
L 122.001919 93.13067 
L 125.218106 87.62651 
L 128.416267 81.720478 
L 131.698652 82.636933 
L 135.095829 89.667848 
L 138.116844 93.697171 
L 141.562929 94.674029 
L 144.838718 91.322296 
L 148.334675 93.234433 
L 151.010851 95.678345 
L 154.438685 97.531765 
L 157.746738 97.202544 
L 160.988126 108.276502 
L 163.955134 107.990167 
L 167.300116 107.853832 
L 170.860402 110.47125 
L 173.796017 115.565746 
L 176.968237 108.820939 
L 180.119764 113.009014 
L 183.359582 111.933594 
L 186.590806 126.436409 
L 189.863854 129.229606 
L 193.166718 126.425417 
L 196.692846 117.113086 
L 200.045557 105.521346 
L 202.811882 107.930563 
L 206.055346 122.145232 
L 209.228935 121.47796 
L 212.522403 119.259838 
L 215.763083 114.946181 
L 219.027857 116.546087 
L 222.367704 114.274868 
L 225.544616 114.030146 
L 228.666034 115.938209 
L 231.883128 119.461829 
L 235.294595 122.246215 
L 238.401193 124.117195 
L 241.63309 125.56598 
L 244.917361 122.12506 
L 248.052825 110.289976 
L 251.454927 109.160334 
L 254.818504 118.711051 
L 257.75531 114.850023 
L 261.059721 114.491793 
L 264.247141 111.313116 
L 267.676695 110.797704 
L 270.767596 105.624442 
L 273.933004 96.154623 
L 277.168295 91.404567 
L 280.429349 88.339449 
L 283.702348 78.385061 
L 286.918455 80.41304 
L 290.609556 73.170813 
L 293.411773 79.370173 
L 297.016067 78.841198 
L 300.003657 82.739906 
L 303.289302 78.713677 
L 306.278342 74.179469 
L 309.51533 82.2127 
L 313.134289 75.726225 
L 316.196978 71.921637 
L 319.390862 75.031673 
L 322.679799 77.347088 
L 326.037865 75.611657 
L 329.29176 70.382534 
L 332.613899 67.311005 
L 335.907079 62.106534 
L 338.910524 64.643179 
L 342.983176 67.927834 
L 345.15338 72.323995 
L 348.959326 70.757473 
L 351.654756 78.43775 
L 354.986664 77.90782 
L 358.242513 83.774175 
" style="fill:none;stroke:#4be000;stroke-linecap:square;stroke-width:1.5;"/>
   </g>
   <g id="line2d_39">
    <path clip-path="url(#p32e6efa815)" d="M 70.303918 158.306955 
L 73.379948 150.312231 
L 76.69043 137.631779 
L 80.106196 132.039088 
L 83.188627 126.113067 
L 86.596286 124.499381 
L 89.638896 118.515211 
L 93.076942 118.647274 
L 96.19508 120.061755 
L 99.360104 124.432298 
L 102.802299 124.360097 
L 105.799727 122.144084 
L 109.205048 119.558069 
L 112.223095 119.211004 
L 115.453986 110.627623 
L 118.669848 107.801256 
L 122.001919 108.695002 
L 125.218106 104.184003 
L 128.416267 107.4877 
L 131.698652 107.618807 
L 135.095829 103.705188 
L 138.116844 106.946107 
L 141.562929 107.368382 
L 144.838718 101.940433 
L 148.334675 99.831731 
L 151.010851 94.125776 
L 154.438685 93.148198 
L 157.746738 90.026195 
L 160.988126 87.343562 
L 163.955134 104.491484 
L 167.300116 102.626529 
L 170.860402 99.865944 
L 173.796017 97.815994 
L 176.968237 99.836283 
L 180.119764 103.300988 
L 183.359582 106.039482 
L 186.590806 97.27902 
L 189.863854 100.773745 
L 193.166718 104.745841 
L 196.692846 111.851629 
L 200.045557 110.768023 
L 202.811882 110.866086 
L 206.055346 105.860157 
L 209.228935 108.530403 
L 212.522403 106.551726 
L 215.763083 105.903026 
L 219.027857 100.783086 
L 222.367704 96.96851 
L 225.544616 95.781769 
L 228.666034 94.207608 
L 231.883128 92.176498 
L 235.294595 90.423603 
L 238.401193 92.526985 
L 241.63309 86.929411 
L 244.917361 85.222201 
L 248.052825 83.37086 
L 251.454927 85.489535 
L 254.818504 96.706561 
L 257.75531 95.863537 
L 261.059721 96.832842 
L 264.247141 99.566889 
L 267.676695 102.368818 
L 270.767596 100.733164 
L 273.933004 92.985354 
L 277.168295 93.422751 
L 280.429349 93.704665 
L 283.702348 85.944381 
L 286.918455 90.469771 
L 290.609556 92.167121 
L 293.411773 96.327448 
L 297.016067 98.299283 
L 300.003657 100.198837 
L 303.289302 107.662015 
L 306.278342 99.365392 
L 309.51533 97.928118 
L 313.134289 93.487572 
L 316.196978 90.618425 
L 319.390862 90.957287 
L 322.679799 88.474248 
L 326.037865 89.161706 
L 329.29176 88.682605 
L 332.613899 93.90033 
L 335.907079 98.841311 
L 338.910524 96.414103 
L 342.983176 92.825935 
L 345.15338 94.591163 
L 348.959326 99.062168 
L 351.654756 103.866304 
L 354.986664 105.990456 
L 358.242513 110.793719 
" style="fill:none;stroke:#4be000;stroke-linecap:square;stroke-width:1.5;"/>
   </g>
   <g id="line2d_40">
    <path clip-path="url(#p32e6efa815)" d="M 70.303918 158.317193 
L 73.379948 155.657462 
L 76.69043 153.90639 
L 80.106196 155.57557 
L 83.188627 153.751649 
L 86.596286 152.858071 
L 89.638896 150.824992 
L 93.076942 147.095241 
L 96.19508 144.721748 
L 99.360104 141.643031 
L 102.802299 143.046496 
L 105.799727 140.181351 
L 109.205048 135.470937 
L 112.223095 132.514319 
L 115.453986 128.374785 
L 118.669848 120.478312 
L 122.001919 119.551216 
L 125.218106 113.773687 
L 128.416267 112.699091 
L 131.698652 109.028636 
L 135.095829 105.431175 
L 138.116844 102.310002 
L 141.562929 100.951503 
L 144.838718 98.931912 
L 148.334675 97.638568 
L 151.010851 101.001887 
L 154.438685 100.093608 
L 157.746738 94.8341 
L 160.988126 94.685448 
L 163.955134 102.15087 
L 167.300116 101.194005 
L 170.860402 103.541197 
L 173.796017 103.855816 
L 176.968237 104.178975 
L 180.119764 106.66135 
L 183.359582 104.857518 
L 186.590806 105.6701 
L 189.863854 103.558086 
L 193.166718 109.84921 
L 196.692846 113.579143 
L 200.045557 111.878862 
L 202.811882 115.337338 
L 206.055346 110.785313 
L 209.228935 109.041456 
L 212.522403 107.458653 
L 215.763083 107.408205 
L 219.027857 110.464815 
L 222.367704 99.414883 
L 225.544616 98.038527 
L 228.666034 97.795835 
L 231.883128 93.642727 
L 235.294595 92.97426 
L 238.401193 98.156814 
L 241.63309 99.585104 
L 244.917361 93.671775 
L 248.052825 90.688193 
L 251.454927 97.52233 
L 254.818504 99.031801 
L 257.75531 100.945518 
L 261.059721 100.294485 
L 264.247141 100.70826 
L 267.676695 102.42214 
L 270.767596 102.535928 
L 273.933004 101.134344 
L 277.168295 102.066664 
L 280.429349 86.960771 
L 283.702348 91.9516 
L 286.918455 88.252287 
L 290.609556 87.057217 
L 293.411773 85.700771 
L 297.016067 86.553753 
L 300.003657 84.948332 
L 303.289302 84.558576 
L 306.278342 84.076885 
L 309.51533 78.329378 
L 313.134289 82.559961 
L 316.196978 82.321174 
L 319.390862 80.521405 
L 322.679799 75.667788 
L 326.037865 76.937567 
L 329.29176 76.684592 
L 332.613899 52.961763 
L 335.907079 55.12355 
L 338.910524 53.437576 
L 342.983176 53.852055 
L 345.15338 58.20456 
L 348.959326 58.384709 
L 351.654756 62.221805 
L 354.986664 67.767433 
L 358.242513 70.914801 
" style="fill:none;stroke:#4be000;stroke-linecap:square;stroke-width:1.5;"/>
   </g>
   <g id="line2d_41">
    <path clip-path="url(#p32e6efa815)" d="M 70.303918 157.604063 
L 73.379948 157.258166 
L 76.69043 152.601366 
L 80.106196 145.644822 
L 83.188627 141.37267 
L 86.596286 143.082968 
L 89.638896 144.095036 
L 93.076942 138.668808 
L 96.19508 137.183106 
L 99.360104 132.232476 
L 102.802299 122.185509 
L 105.799727 121.988019 
L 109.205048 118.163221 
L 112.223095 111.521281 
L 115.453986 110.261166 
L 118.669848 115.132457 
L 122.001919 110.822545 
L 125.218106 86.467683 
L 128.416267 92.157936 
L 131.698652 98.172013 
L 135.095829 98.122774 
L 138.116844 91.792436 
L 141.562929 84.162139 
L 144.838718 90.879215 
L 148.334675 86.226441 
L 151.010851 85.846572 
L 154.438685 87.636715 
L 157.746738 66.566117 
L 160.988126 63.356493 
L 163.955134 63.236842 
L 167.300116 70.381213 
L 170.860402 72.217653 
L 173.796017 78.134615 
L 176.968237 76.017564 
L 180.119764 98.923731 
L 183.359582 99.791109 
L 186.590806 103.745443 
L 189.863854 109.107431 
L 193.166718 99.171959 
L 196.692846 91.746304 
L 200.045557 91.416 
L 202.811882 91.047543 
L 206.055346 88.548596 
L 209.228935 88.98707 
L 212.522403 92.031487 
L 215.763083 99.106509 
L 219.027857 96.983252 
L 222.367704 94.702159 
L 225.544616 96.614139 
L 228.666034 94.549648 
L 231.883128 73.313222 
L 235.294595 69.194644 
L 238.401193 74.152758 
L 241.63309 82.405109 
L 244.917361 89.861109 
L 248.052825 82.381813 
L 251.454927 79.779206 
L 254.818504 82.181497 
L 257.75531 81.16581 
L 261.059721 83.277553 
L 264.247141 86.19139 
L 267.676695 91.960556 
L 270.767596 99.748528 
L 273.933004 97.085734 
L 277.168295 103.100847 
L 280.429349 103.0957 
L 283.702348 105.441266 
L 286.918455 104.998961 
L 290.609556 107.80299 
L 293.411773 109.570167 
L 297.016067 106.792413 
L 300.003657 105.40452 
L 303.289302 102.516806 
L 306.278342 94.034907 
L 309.51533 88.185655 
L 313.134289 87.140589 
L 316.196978 86.543279 
L 319.390862 79.439364 
L 322.679799 75.974665 
L 326.037865 69.465839 
L 329.29176 60.460496 
L 332.613899 62.48955 
L 335.907079 64.478685 
L 338.910524 65.748212 
L 342.983176 67.670592 
L 345.15338 70.727814 
L 348.959326 76.192839 
L 351.654756 81.119341 
L 354.986664 90.876907 
L 358.242513 68.450306 
" style="fill:none;stroke:#4be000;stroke-linecap:square;stroke-width:1.5;"/>
   </g>
   <g id="line2d_42">
    <path clip-path="url(#p32e6efa815)" d="M 70.303918 157.018605 
L 73.379948 159.683376 
L 76.69043 159.96639 
L 80.106196 154.054205 
L 83.188627 150.9771 
L 86.596286 149.800919 
L 89.638896 147.632001 
L 93.076942 138.837947 
L 96.19508 135.366302 
L 99.360104 122.211788 
L 102.802299 111.401452 
L 105.799727 113.05506 
L 109.205048 108.534987 
L 112.223095 103.458448 
L 115.453986 97.990737 
L 118.669848 92.99866 
L 122.001919 92.362233 
L 125.218106 91.166094 
L 128.416267 87.567292 
L 131.698652 89.422784 
L 135.095829 91.304327 
L 138.116844 81.355554 
L 141.562929 80.924725 
L 144.838718 79.369466 
L 148.334675 76.454207 
L 151.010851 80.770521 
L 154.438685 82.386814 
L 157.746738 86.018209 
L 160.988126 86.60485 
L 163.955134 90.003832 
L 167.300116 103.538484 
L 170.860402 104.175325 
L 173.796017 100.819486 
L 176.968237 101.05179 
L 180.119764 97.822137 
L 183.359582 97.82568 
L 186.590806 92.519483 
L 189.863854 88.734361 
L 193.166718 84.403272 
L 196.692846 81.814005 
L 200.045557 74.15959 
L 202.811882 73.05813 
L 206.055346 73.724691 
L 209.228935 72.509085 
L 212.522403 71.286634 
L 215.763083 75.186747 
L 219.027857 73.072039 
L 222.367704 68.937859 
L 225.544616 61.011558 
L 228.666034 61.625414 
L 231.883128 62.023361 
L 235.294595 57.965226 
L 238.401193 57.756938 
L 241.63309 65.176891 
L 244.917361 70.697629 
L 248.052825 74.429104 
L 251.454927 78.080695 
L 254.818504 77.279481 
L 257.75531 82.516731 
L 261.059721 77.045127 
L 264.247141 72.084163 
L 267.676695 72.223549 
L 270.767596 77.77868 
L 273.933004 78.174371 
L 277.168295 72.193495 
L 280.429349 57.886003 
L 283.702348 56.126811 
L 286.918455 50.230141 
L 290.609556 49.613504 
L 293.411773 49.847615 
L 297.016067 54.822624 
L 300.003657 59.221147 
L 303.289302 67.260696 
L 306.278342 71.247118 
L 309.51533 75.919151 
L 313.134289 82.473899 
L 316.196978 86.096905 
L 319.390862 86.981063 
L 322.679799 84.977132 
L 326.037865 77.254755 
L 329.29176 81.705791 
L 332.613899 81.413623 
L 335.907079 83.37205 
L 338.910524 80.824949 
L 342.983176 78.191185 
L 345.15338 78.082562 
L 348.959326 75.494378 
L 351.654756 77.540927 
L 354.986664 75.399285 
L 358.242513 72.935532 
" style="fill:none;stroke:#4be000;stroke-linecap:square;stroke-width:1.5;"/>
   </g>
   <g id="line2d_43">
    <path clip-path="url(#p32e6efa815)" d="M 70.303918 157.358994 
L 73.379948 157.153181 
L 76.69043 156.700363 
L 80.106196 157.221543 
L 83.188627 149.073805 
L 86.596286 136.170887 
L 89.638896 130.191493 
L 93.076942 126.036906 
L 96.19508 122.959413 
L 99.360104 125.050844 
L 102.802299 121.104591 
L 105.799727 124.258548 
L 109.205048 121.609581 
L 112.223095 115.223717 
L 115.453986 110.398946 
L 118.669848 107.228844 
L 122.001919 95.683616 
L 125.218106 93.300488 
L 128.416267 96.259073 
L 131.698652 90.561599 
L 135.095829 94.455345 
L 138.116844 90.344567 
L 141.562929 94.648359 
L 144.838718 99.117092 
L 148.334675 94.80232 
L 151.010851 93.506666 
L 154.438685 87.531708 
L 157.746738 91.149922 
L 160.988126 93.995408 
L 163.955134 99.634486 
L 167.300116 88.294141 
L 170.860402 84.343501 
L 173.796017 86.299105 
L 176.968237 87.060305 
L 180.119764 86.500973 
L 183.359582 89.160175 
L 186.590806 88.342042 
L 189.863854 98.099561 
L 193.166718 102.071964 
L 196.692846 95.950299 
L 200.045557 82.938707 
L 202.811882 77.081681 
L 206.055346 74.756204 
L 209.228935 76.294571 
L 212.522403 75.160748 
L 215.763083 76.062143 
L 219.027857 78.116023 
L 222.367704 80.327038 
L 225.544616 78.466238 
L 228.666034 74.027732 
L 231.883128 56.704306 
L 235.294595 51.728616 
L 238.401193 53.311594 
L 241.63309 58.293637 
L 244.917361 61.660976 
L 248.052825 75.563011 
L 251.454927 76.99952 
L 254.818504 80.267234 
L 257.75531 79.712157 
L 261.059721 68.449997 
L 264.247141 62.740954 
L 267.676695 47.449841 
L 270.767596 47.975776 
L 273.933004 44.236113 
L 277.168295 47.9585 
L 280.429349 50.959114 
L 283.702348 57.575032 
L 286.918455 57.729871 
L 290.609556 60.344462 
L 293.411773 56.835124 
L 297.016067 53.811236 
L 300.003657 57.501496 
L 303.289302 54.864536 
L 306.278342 55.544641 
L 309.51533 58.719838 
L 313.134289 57.56429 
L 316.196978 59.64413 
L 319.390862 65.441983 
L 322.679799 63.251407 
L 326.037865 69.749202 
L 329.29176 79.241153 
L 332.613899 81.580496 
L 335.907079 86.394115 
L 338.910524 90.817618 
L 342.983176 88.464293 
L 345.15338 84.082415 
L 348.959326 83.983053 
L 351.654756 83.934609 
L 354.986664 77.999374 
L 358.242513 79.214133 
" style="fill:none;stroke:#4be000;stroke-linecap:square;stroke-width:1.5;"/>
   </g>
   <g id="line2d_44">
    <path clip-path="url(#p32e6efa815)" d="M 70.303918 158.85977 
L 73.379948 157.196096 
L 76.69043 155.410858 
L 80.106196 150.337562 
L 83.188627 144.154112 
L 86.596286 144.40412 
L 89.638896 139.724039 
L 93.076942 136.275799 
L 96.19508 134.608475 
L 99.360104 131.613463 
L 102.802299 130.433123 
L 105.799727 138.878168 
L 109.205048 138.490095 
L 112.223095 133.914176 
L 115.453986 131.513523 
L 118.669848 130.581934 
L 122.001919 128.685113 
L 125.218106 137.377809 
L 128.416267 133.717788 
L 131.698652 133.118053 
L 135.095829 131.774959 
L 138.116844 134.429541 
L 141.562929 132.000226 
L 144.838718 136.160665 
L 148.334675 131.305096 
L 151.010851 128.507459 
L 154.438685 121.585194 
L 157.746738 118.483074 
L 160.988126 123.435415 
L 163.955134 120.325633 
L 167.300116 113.844907 
L 170.860402 109.483024 
L 173.796017 108.593456 
L 176.968237 105.390954 
L 180.119764 105.316806 
L 183.359582 108.786738 
L 186.590806 97.810858 
L 189.863854 98.832402 
L 193.166718 98.882833 
L 196.692846 100.959678 
L 200.045557 99.274447 
L 202.811882 101.788685 
L 206.055346 106.069576 
L 209.228935 124.407081 
L 212.522403 123.307262 
L 215.763083 115.109943 
L 219.027857 114.210986 
L 222.367704 110.606257 
L 225.544616 108.401158 
L 228.666034 102.085151 
L 231.883128 98.828765 
L 235.294595 100.3399 
L 238.401193 100.977385 
L 241.63309 98.58182 
L 244.917361 96.148512 
L 248.052825 95.002887 
L 251.454927 96.067847 
L 254.818504 97.761627 
L 257.75531 95.969251 
L 261.059721 98.911244 
L 264.247141 92.967219 
L 267.676695 93.123572 
L 270.767596 85.044005 
L 273.933004 89.658692 
L 277.168295 87.484747 
L 280.429349 81.53021 
L 283.702348 81.323927 
L 286.918455 83.28259 
L 290.609556 87.856286 
L 293.411773 89.402414 
L 297.016067 69.889287 
L 300.003657 71.35928 
L 303.289302 70.594891 
L 306.278342 73.248525 
L 309.51533 67.523421 
L 313.134289 62.472066 
L 316.196978 63.214261 
L 319.390862 63.683834 
L 322.679799 64.790831 
L 326.037865 67.301604 
L 329.29176 63.989893 
L 332.613899 67.268548 
L 335.907079 63.993391 
L 338.910524 63.193555 
L 342.983176 54.919993 
L 345.15338 55.610676 
L 348.959326 52.440477 
L 351.654756 49.325055 
L 354.986664 53.376352 
L 358.242513 53.581017 
" style="fill:none;stroke:#4be000;stroke-linecap:square;stroke-width:1.5;"/>
   </g>
   <g id="line2d_45">
    <path clip-path="url(#p32e6efa815)" d="M 70.303918 157.338146 
L 73.379948 154.939779 
L 76.69043 150.027923 
L 80.106196 145.746652 
L 83.188627 143.464151 
L 86.596286 139.496059 
L 89.638896 135.280931 
L 93.076942 136.310224 
L 96.19508 132.402923 
L 99.360104 130.42704 
L 102.802299 129.744557 
L 105.799727 127.32428 
L 109.205048 108.922836 
L 112.223095 109.672243 
L 115.453986 106.97114 
L 118.669848 103.769113 
L 122.001919 100.858383 
L 125.218106 98.11802 
L 128.416267 98.955841 
L 131.698652 95.461841 
L 135.095829 94.369144 
L 138.116844 95.144098 
L 141.562929 94.623084 
L 144.838718 86.969718 
L 148.334675 83.968878 
L 151.010851 79.585168 
L 154.438685 78.569591 
L 157.746738 76.60334 
L 160.988126 79.792999 
L 163.955134 73.206771 
L 167.300116 78.541787 
L 170.860402 80.792751 
L 173.796017 75.686687 
L 176.968237 75.565663 
L 180.119764 75.520713 
L 183.359582 76.183223 
L 186.590806 72.889758 
L 189.863854 60.356912 
L 193.166718 68.143202 
L 196.692846 69.050194 
L 200.045557 70.120979 
L 202.811882 71.348419 
L 206.055346 72.757277 
L 209.228935 73.181207 
L 212.522403 74.719973 
L 215.763083 77.420866 
L 219.027857 71.854545 
L 222.367704 67.573515 
L 225.544616 68.973621 
L 228.666034 75.666124 
L 231.883128 77.120812 
L 235.294595 81.384523 
L 238.401193 84.80523 
L 241.63309 86.63981 
L 244.917361 90.022211 
L 248.052825 76.086761 
L 251.454927 74.414807 
L 254.818504 79.246199 
L 257.75531 84.434732 
L 261.059721 86.957026 
L 264.247141 86.652837 
L 267.676695 82.173942 
L 270.767596 85.312007 
L 273.933004 81.326323 
L 277.168295 75.270912 
L 280.429349 68.890235 
L 283.702348 65.661995 
L 286.918455 62.751948 
L 290.609556 63.425477 
L 293.411773 59.981838 
L 297.016067 66.038456 
L 300.003657 70.304224 
L 303.289302 65.742959 
L 306.278342 71.699954 
L 309.51533 71.375195 
L 313.134289 66.093729 
L 316.196978 67.971142 
L 319.390862 68.769032 
L 322.679799 65.565776 
L 326.037865 73.078359 
L 329.29176 76.033857 
L 332.613899 74.651396 
L 335.907079 76.929792 
L 338.910524 78.162132 
L 342.983176 69.822744 
L 345.15338 74.413303 
L 348.959326 77.10959 
L 351.654756 74.921087 
L 354.986664 71.251357 
L 358.242513 75.125379 
" style="fill:none;stroke:#4be000;stroke-linecap:square;stroke-width:1.5;"/>
   </g>
   <g id="line2d_46">
    <path clip-path="url(#p32e6efa815)" d="M 70.303918 158.451976 
L 73.379948 156.516285 
L 76.69043 154.043613 
L 80.106196 150.698252 
L 83.188627 153.501857 
L 86.596286 152.015898 
L 89.638896 148.638984 
L 93.076942 137.261992 
L 96.19508 129.979272 
L 99.360104 123.88679 
L 102.802299 127.561343 
L 105.799727 122.620325 
L 109.205048 117.257712 
L 112.223095 112.981278 
L 115.453986 115.623706 
L 118.669848 116.018021 
L 122.001919 118.776398 
L 125.218106 119.431539 
L 128.416267 141.682758 
L 131.698652 141.336498 
L 135.095829 143.266574 
L 138.116844 145.770806 
L 141.562929 142.578587 
L 144.838718 138.412014 
L 148.334675 137.71197 
L 151.010851 134.909763 
L 154.438685 131.39899 
L 157.746738 130.99273 
L 160.988126 112.883867 
L 163.955134 107.297315 
L 167.300116 105.516242 
L 170.860402 105.557806 
L 173.796017 108.669544 
L 176.968237 108.546335 
L 180.119764 106.782614 
L 183.359582 108.87143 
L 186.590806 113.444078 
L 189.863854 122.09349 
L 193.166718 122.199079 
L 196.692846 124.93291 
L 200.045557 129.795281 
L 202.811882 125.831772 
L 206.055346 125.058971 
L 209.228935 124.621335 
L 212.522403 110.571742 
L 215.763083 107.056687 
L 219.027857 106.512809 
L 222.367704 101.363776 
L 225.544616 102.202474 
L 228.666034 104.506405 
L 231.883128 103.826996 
L 235.294595 96.360347 
L 238.401193 94.083607 
L 241.63309 75.257925 
L 244.917361 81.530069 
L 248.052825 79.290427 
L 251.454927 78.06135 
L 254.818504 74.421936 
L 257.75531 78.160006 
L 261.059721 74.125696 
L 264.247141 71.203371 
L 267.676695 67.221092 
L 270.767596 69.537944 
L 273.933004 74.512805 
L 277.168295 79.615011 
L 280.429349 75.618768 
L 283.702348 70.375683 
L 286.918455 70.799062 
L 290.609556 67.911294 
L 293.411773 70.421304 
L 297.016067 75.32062 
L 300.003657 54.129791 
L 303.289302 49.290641 
L 306.278342 51.475339 
L 309.51533 47.10518 
L 313.134289 49.697539 
L 316.196978 54.393581 
L 319.390862 58.605232 
L 322.679799 67.884515 
L 326.037865 70.362135 
L 329.29176 72.418119 
L 332.613899 73.772679 
L 335.907079 66.673892 
L 338.910524 61.952281 
L 342.983176 52.847487 
L 345.15338 52.420565 
L 348.959326 45.743052 
L 351.654756 44.306002 
L 354.986664 43.440666 
L 358.242513 47.341928 
" style="fill:none;stroke:#4be000;stroke-linecap:square;stroke-width:1.5;"/>
   </g>
   <g id="line2d_47">
    <path clip-path="url(#p32e6efa815)" d="M 70.303918 158.271473 
L 73.379948 156.899379 
L 76.69043 154.171585 
L 80.106196 150.644509 
L 83.188627 147.170199 
L 86.596286 143.567936 
L 89.638896 140.021547 
L 93.076942 136.272581 
L 96.19508 132.570376 
L 99.360104 129.110309 
L 102.802299 125.992479 
L 105.799727 123.118932 
L 109.205048 120.275415 
L 112.223095 117.711338 
L 115.453986 115.418843 
L 118.669848 113.249187 
L 122.001919 111.184062 
L 125.218106 109.359939 
L 128.416267 107.540815 
L 131.698652 105.979109 
L 135.095829 104.747884 
L 138.116844 103.156887 
L 141.562929 101.779898 
L 144.838718 100.739702 
L 148.334675 99.57917 
L 151.010851 98.803466 
L 154.438685 98.369822 
L 157.746738 97.673057 
L 160.988126 97.007436 
L 163.955134 96.36662 
L 167.300116 95.834016 
L 170.860402 95.047907 
L 173.796017 94.270843 
L 176.968237 93.604099 
L 180.119764 92.965348 
L 183.359582 92.673232 
L 186.590806 92.158557 
L 189.863854 91.956948 
L 193.166718 91.586872 
L 196.692846 91.225818 
L 200.045557 90.721471 
L 202.811882 90.333502 
L 206.055346 90.074641 
L 209.228935 89.708392 
L 212.522403 89.420914 
L 215.763083 88.637651 
L 219.027857 88.397182 
L 222.367704 88.213396 
L 225.544616 88.073851 
L 228.666034 87.629142 
L 231.883128 87.403724 
L 235.294595 87.495745 
L 238.401193 87.194504 
L 241.63309 86.803434 
L 244.917361 86.708861 
L 248.052825 86.550418 
L 251.454927 86.708261 
L 254.818504 86.647982 
L 257.75531 86.460506 
L 261.059721 86.382641 
L 264.247141 86.191305 
L 267.676695 85.921388 
L 270.767596 85.684131 
L 273.933004 85.941947 
L 277.168295 85.757852 
L 280.429349 85.754559 
L 283.702348 85.762253 
L 286.918455 85.68 
L 290.609556 85.814973 
L 293.411773 85.720019 
L 297.016067 85.86595 
L 300.003657 85.778564 
L 303.289302 86.048639 
L 306.278342 86.118147 
L 309.51533 86.255281 
L 313.134289 86.406058 
L 316.196978 86.470094 
L 319.390862 86.454037 
L 322.679799 86.052464 
L 326.037865 86.132275 
L 329.29176 86.277391 
L 332.613899 86.288547 
L 335.907079 85.977891 
L 338.910524 86.112673 
L 342.983176 86.224471 
L 345.15338 86.070626 
L 348.959326 86.112859 
L 351.654756 86.09304 
L 354.986664 86.043507 
L 358.242513 86.043638 
" style="fill:none;stroke:#3bb000;stroke-linecap:square;stroke-width:3;"/>
   </g>
   <g id="patch_3">
    <path d="M 70.13125 230.64 
L 70.13125 13.2 
" style="fill:none;stroke:#000000;stroke-linecap:square;stroke-linejoin:miter;stroke-width:2;"/>
   </g>
   <g id="patch_4">
    <path d="M 361.261685 230.64 
L 361.261685 13.2 
" style="fill:none;"/>
   </g>
   <g id="patch_5">
    <path d="M 70.13125 230.64 
L 361.261685 230.64 
" style="fill:none;stroke:#000000;stroke-linecap:square;stroke-linejoin:miter;stroke-width:2;"/>
   </g>
   <g id="patch_6">
    <path d="M 70.13125 13.2 
L 361.261685 13.2 
" style="fill:none;"/>
   </g>
  </g>
  <g id="axes_2">
   <g id="patch_7">
    <path d="M 448.600815 230.64 
L 739.73125 230.64 
L 739.73125 13.2 
L 448.600815 13.2 
z
" style="fill:#ffffff;"/>
   </g>
   <g id="PolyCollection_2">
    <defs>
     <path d="M 448.773483 -55.878659 
L 448.773483 -55.656341 
L 451.849513 -71.972906 
L 455.159995 -93.096146 
L 458.575761 -115.428412 
L 461.658192 -139.481451 
L 465.065852 -157.295333 
L 468.108461 -173.5643 
L 471.546507 -187.322283 
L 474.664645 -201.963741 
L 477.82967 -212.922559 
L 481.271864 -213.314178 
L 484.269292 -213.612325 
L 487.674613 -213.855297 
L 490.69266 -212.292214 
L 493.923552 -214.133567 
L 497.139413 -208.774217 
L 500.471485 -208.724518 
L 503.687671 -207.894142 
L 506.885833 -206.576575 
L 510.168217 -212.864597 
L 513.565394 -215.933823 
L 516.586409 -213.021744 
L 520.032494 -209.298903 
L 523.308284 -210.157654 
L 526.80424 -209.094771 
L 529.480416 -206.79293 
L 532.90825 -205.492526 
L 536.216303 -208.351203 
L 539.457691 -212.774395 
L 542.424699 -212.386219 
L 545.769681 -214.185856 
L 549.329967 -210.552486 
L 552.265582 -209.713128 
L 555.437802 -204.190495 
L 558.589329 -200.189086 
L 561.829147 -198.322256 
L 565.060371 -199.036385 
L 568.333419 -200.855401 
L 571.636283 -198.941642 
L 575.162411 -197.286188 
L 578.515122 -194.834236 
L 581.281447 -190.761355 
L 584.524911 -190.7778 
L 587.6985 -187.511804 
L 590.991968 -185.163165 
L 594.232648 -187.741077 
L 597.497422 -190.529686 
L 600.837269 -190.404332 
L 604.014181 -187.892787 
L 607.135599 -185.47295 
L 610.352693 -185.420786 
L 613.764161 -184.735977 
L 616.870758 -188.112868 
L 620.102655 -188.387384 
L 623.386926 -193.054486 
L 626.52239 -192.261949 
L 629.924492 -197.26096 
L 633.28807 -192.735269 
L 636.224876 -190.604718 
L 639.529286 -189.028801 
L 642.716706 -187.345554 
L 646.14626 -189.311983 
L 649.237161 -193.219569 
L 652.40257 -189.670658 
L 655.63786 -190.454947 
L 658.898914 -190.746649 
L 662.171913 -192.737207 
L 665.38802 -188.047992 
L 669.079121 -184.927336 
L 671.881338 -185.889074 
L 675.485633 -188.234597 
L 678.473222 -193.093891 
L 681.758868 -199.258136 
L 684.747907 -206.369786 
L 687.984895 -207.38238 
L 691.603854 -208.652354 
L 694.666543 -207.548663 
L 697.860427 -203.558677 
L 701.149364 -200.673524 
L 704.507431 -197.835256 
L 707.761325 -201.80626 
L 711.083464 -206.128141 
L 714.376644 -207.105275 
L 717.380089 -205.434861 
L 721.452741 -204.719605 
L 723.622945 -201.124033 
L 727.428891 -198.850966 
L 730.124322 -197.271934 
L 733.456229 -196.990197 
L 736.712078 -198.060655 
L 736.712078 -232.973556 
L 736.712078 -232.973556 
L 733.456229 -231.619902 
L 730.124322 -231.976149 
L 727.428891 -233.973117 
L 723.622945 -236.848808 
L 721.452741 -241.399997 
L 717.380089 -242.305695 
L 714.376644 -244.421313 
L 711.083464 -243.183675 
L 707.761325 -237.712132 
L 704.507431 -232.688505 
L 701.149364 -236.278771 
L 697.860427 -239.930207 
L 694.666543 -244.982977 
L 691.603854 -246.381274 
L 687.984895 -244.772333 
L 684.747907 -243.489723 
L 681.758868 -234.488147 
L 678.473222 -226.69502 
L 675.485633 -220.557858 
L 671.881338 -217.597505 
L 669.079121 -216.384044 
L 665.38802 -220.32229 
L 662.171913 -226.24435 
L 658.898914 -223.729826 
L 655.63786 -223.361419 
L 652.40257 -222.370992 
L 649.237161 -226.85382 
L 646.14626 -221.918092 
L 642.716706 -219.435618 
L 639.529286 -221.56054 
L 636.224876 -223.55057 
L 633.28807 -226.241901 
L 629.924492 -231.962272 
L 626.52239 -225.643908 
L 623.386926 -226.64523 
L 620.102655 -220.75074 
L 616.870758 -220.404188 
L 613.764161 -216.142626 
L 610.352693 -217.006622 
L 607.135599 -217.072439 
L 604.014181 -220.126369 
L 600.837269 -223.297496 
L 597.497422 -223.455809 
L 594.232648 -219.934865 
L 590.991968 -216.681578 
L 587.6985 -219.645461 
L 584.524911 -223.76917 
L 581.281447 -223.7484 
L 578.515122 -228.894362 
L 575.162411 -231.994173 
L 571.636283 -234.08781 
L 568.333419 -236.508898 
L 565.060371 -234.207649 
L 561.829147 -233.304406 
L 558.589329 -235.665852 
L 555.437802 -240.730081 
L 552.265582 -247.725451 
L 549.329967 -248.789232 
L 545.769681 -253.395847 
L 542.424699 -251.113796 
L 539.457691 -251.605967 
L 536.216303 -245.999712 
L 532.90825 -242.37872 
L 529.480416 -244.025674 
L 526.80424 -246.94186 
L 523.308284 -248.288812 
L 520.032494 -247.20053 
L 516.586409 -251.919601 
L 513.565394 -255.613052 
L 510.168217 -251.720339 
L 506.885833 -243.751636 
L 503.687671 -245.420646 
L 500.471485 -246.47271 
L 497.139413 -246.535683 
L 493.923552 -253.329532 
L 490.69266 -250.99461 
L 487.674613 -252.976626 
L 484.269292 -252.668499 
L 481.271864 -252.290417 
L 477.82967 -251.793834 
L 474.664645 -237.911431 
L 471.546507 -219.406246 
L 468.108461 -202.063746 
L 465.065852 -181.61693 
L 461.658192 -159.309487 
L 458.575761 -129.337709 
L 455.159995 -101.687144 
L 451.849513 -75.730868 
L 448.773483 -55.878659 
z
" id="m920c533367"/>
    </defs>
    <g clip-path="url(#p7aec279e42)">
     <use style="fill:#4be000;" x="0" xlink:href="#m920c533367" y="285.213437"/>
    </g>
   </g>
   <g id="matplotlib.axis_3">
    <g id="xtick_12">
     <g id="line2d_48">
      <path clip-path="url(#p7aec279e42)" d="M 448.600815 230.64 
L 448.600815 13.2 
" style="fill:none;stroke:#b0b0b0;stroke-linecap:square;stroke-width:0.8;"/>
     </g>
     <g id="line2d_49">
      <g>
       <use x="448.600815" xlink:href="#m611e0111cb" y="230.64"/>
      </g>
     </g>
     <g id="text_21">
      <!-- 0 -->
      <g transform="translate(443.82894 251.537656)scale(0.15 -0.15)">
       <use xlink:href="#DejaVuSans-30"/>
      </g>
     </g>
    </g>
    <g id="xtick_13">
     <g id="line2d_50">
      <path clip-path="url(#p7aec279e42)" d="M 477.713859 230.64 
L 477.713859 13.2 
" style="fill:none;stroke:#b0b0b0;stroke-linecap:square;stroke-width:0.8;"/>
     </g>
     <g id="line2d_51">
      <g>
       <use x="477.713859" xlink:href="#m611e0111cb" y="230.64"/>
      </g>
     </g>
     <g id="text_22">
      <!-- 1 -->
      <g transform="translate(472.941984 251.537656)scale(0.15 -0.15)">
       <use xlink:href="#DejaVuSans-31"/>
      </g>
     </g>
    </g>
    <g id="xtick_14">
     <g id="line2d_52">
      <path clip-path="url(#p7aec279e42)" d="M 506.826902 230.64 
L 506.826902 13.2 
" style="fill:none;stroke:#b0b0b0;stroke-linecap:square;stroke-width:0.8;"/>
     </g>
     <g id="line2d_53">
      <g>
       <use x="506.826902" xlink:href="#m611e0111cb" y="230.64"/>
      </g>
     </g>
     <g id="text_23">
      <!-- 2 -->
      <g transform="translate(502.055027 251.537656)scale(0.15 -0.15)">
       <use xlink:href="#DejaVuSans-32"/>
      </g>
     </g>
    </g>
    <g id="xtick_15">
     <g id="line2d_54">
      <path clip-path="url(#p7aec279e42)" d="M 535.939946 230.64 
L 535.939946 13.2 
" style="fill:none;stroke:#b0b0b0;stroke-linecap:square;stroke-width:0.8;"/>
     </g>
     <g id="line2d_55">
      <g>
       <use x="535.939946" xlink:href="#m611e0111cb" y="230.64"/>
      </g>
     </g>
     <g id="text_24">
      <!-- 3 -->
      <g transform="translate(531.168071 251.537656)scale(0.15 -0.15)">
       <use xlink:href="#DejaVuSans-33"/>
      </g>
     </g>
    </g>
    <g id="xtick_16">
     <g id="line2d_56">
      <path clip-path="url(#p7aec279e42)" d="M 565.052989 230.64 
L 565.052989 13.2 
" style="fill:none;stroke:#b0b0b0;stroke-linecap:square;stroke-width:0.8;"/>
     </g>
     <g id="line2d_57">
      <g>
       <use x="565.052989" xlink:href="#m611e0111cb" y="230.64"/>
      </g>
     </g>
     <g id="text_25">
      <!-- 4 -->
      <g transform="translate(560.281114 251.537656)scale(0.15 -0.15)">
       <use xlink:href="#DejaVuSans-34"/>
      </g>
     </g>
    </g>
    <g id="xtick_17">
     <g id="line2d_58">
      <path clip-path="url(#p7aec279e42)" d="M 594.166033 230.64 
L 594.166033 13.2 
" style="fill:none;stroke:#b0b0b0;stroke-linecap:square;stroke-width:0.8;"/>
     </g>
     <g id="line2d_59">
      <g>
       <use x="594.166033" xlink:href="#m611e0111cb" y="230.64"/>
      </g>
     </g>
     <g id="text_26">
      <!-- 5 -->
      <g transform="translate(589.394158 251.537656)scale(0.15 -0.15)">
       <use xlink:href="#DejaVuSans-35"/>
      </g>
     </g>
    </g>
    <g id="xtick_18">
     <g id="line2d_60">
      <path clip-path="url(#p7aec279e42)" d="M 623.279076 230.64 
L 623.279076 13.2 
" style="fill:none;stroke:#b0b0b0;stroke-linecap:square;stroke-width:0.8;"/>
     </g>
     <g id="line2d_61">
      <g>
       <use x="623.279076" xlink:href="#m611e0111cb" y="230.64"/>
      </g>
     </g>
     <g id="text_27">
      <!-- 6 -->
      <g transform="translate(618.507201 251.537656)scale(0.15 -0.15)">
       <use xlink:href="#DejaVuSans-36"/>
      </g>
     </g>
    </g>
    <g id="xtick_19">
     <g id="line2d_62">
      <path clip-path="url(#p7aec279e42)" d="M 652.39212 230.64 
L 652.39212 13.2 
" style="fill:none;stroke:#b0b0b0;stroke-linecap:square;stroke-width:0.8;"/>
     </g>
     <g id="line2d_63">
      <g>
       <use x="652.39212" xlink:href="#m611e0111cb" y="230.64"/>
      </g>
     </g>
     <g id="text_28">
      <!-- 7 -->
      <g transform="translate(647.620245 251.537656)scale(0.15 -0.15)">
       <use xlink:href="#DejaVuSans-37"/>
      </g>
     </g>
    </g>
    <g id="xtick_20">
     <g id="line2d_64">
      <path clip-path="url(#p7aec279e42)" d="M 681.505163 230.64 
L 681.505163 13.2 
" style="fill:none;stroke:#b0b0b0;stroke-linecap:square;stroke-width:0.8;"/>
     </g>
     <g id="line2d_65">
      <g>
       <use x="681.505163" xlink:href="#m611e0111cb" y="230.64"/>
      </g>
     </g>
     <g id="text_29">
      <!-- 8 -->
      <g transform="translate(676.733288 251.537656)scale(0.15 -0.15)">
       <use xlink:href="#DejaVuSans-38"/>
      </g>
     </g>
    </g>
    <g id="xtick_21">
     <g id="line2d_66">
      <path clip-path="url(#p7aec279e42)" d="M 710.618207 230.64 
L 710.618207 13.2 
" style="fill:none;stroke:#b0b0b0;stroke-linecap:square;stroke-width:0.8;"/>
     </g>
     <g id="line2d_67">
      <g>
       <use x="710.618207" xlink:href="#m611e0111cb" y="230.64"/>
      </g>
     </g>
     <g id="text_30">
      <!-- 9 -->
      <g transform="translate(705.846332 251.537656)scale(0.15 -0.15)">
       <use xlink:href="#DejaVuSans-39"/>
      </g>
     </g>
    </g>
    <g id="xtick_22">
     <g id="line2d_68">
      <path clip-path="url(#p7aec279e42)" d="M 739.73125 230.64 
L 739.73125 13.2 
" style="fill:none;stroke:#b0b0b0;stroke-linecap:square;stroke-width:0.8;"/>
     </g>
     <g id="line2d_69">
      <g>
       <use x="739.73125" xlink:href="#m611e0111cb" y="230.64"/>
      </g>
     </g>
     <g id="text_31">
      <!-- 10 -->
      <g transform="translate(730.1875 251.537656)scale(0.15 -0.15)">
       <use xlink:href="#DejaVuSans-31"/>
       <use x="63.623047" xlink:href="#DejaVuSans-30"/>
      </g>
     </g>
    </g>
    <g id="text_32">
     <!-- $t/\tau$ -->
     <g transform="translate(580.766033 273.854062)scale(0.2 -0.2)">
      <use transform="translate(0 0.09375)" xlink:href="#DejaVuSans-Oblique-74"/>
      <use transform="translate(39.208984 0.09375)" xlink:href="#DejaVuSans-2f"/>
      <use transform="translate(72.900391 0.09375)" xlink:href="#DejaVuSans-Oblique-3c4"/>
     </g>
    </g>
   </g>
   <g id="matplotlib.axis_4">
    <g id="ytick_8">
     <g id="line2d_70">
      <path clip-path="url(#p7aec279e42)" d="M 448.600815 230.64 
L 739.73125 230.64 
" style="fill:none;stroke:#b0b0b0;stroke-linecap:square;stroke-width:0.8;"/>
     </g>
     <g id="line2d_71">
      <g>
       <use x="448.600815" xlink:href="#ma4d41bacbc" y="230.64"/>
      </g>
     </g>
     <g id="text_33">
      <!-- 0.000 -->
      <defs>
       <path d="M 10.6875 12.40625 
L 21 12.40625 
L 21 0 
L 10.6875 0 
z
" id="DejaVuSans-2e"/>
      </defs>
      <g transform="translate(396.158628 236.338828)scale(0.15 -0.15)">
       <use xlink:href="#DejaVuSans-30"/>
       <use x="63.623047" xlink:href="#DejaVuSans-2e"/>
       <use x="95.410156" xlink:href="#DejaVuSans-30"/>
       <use x="159.033203" xlink:href="#DejaVuSans-30"/>
       <use x="222.65625" xlink:href="#DejaVuSans-30"/>
      </g>
     </g>
    </g>
    <g id="ytick_9">
     <g id="line2d_72">
      <path clip-path="url(#p7aec279e42)" d="M 448.600815 195.654194 
L 739.73125 195.654194 
" style="fill:none;stroke:#b0b0b0;stroke-linecap:square;stroke-width:0.8;"/>
     </g>
     <g id="line2d_73">
      <g>
       <use x="448.600815" xlink:href="#ma4d41bacbc" y="195.654194"/>
      </g>
     </g>
     <g id="text_34">
      <!-- 0.004 -->
      <g transform="translate(396.158628 201.353022)scale(0.15 -0.15)">
       <use xlink:href="#DejaVuSans-30"/>
       <use x="63.623047" xlink:href="#DejaVuSans-2e"/>
       <use x="95.410156" xlink:href="#DejaVuSans-30"/>
       <use x="159.033203" xlink:href="#DejaVuSans-30"/>
       <use x="222.65625" xlink:href="#DejaVuSans-34"/>
      </g>
     </g>
    </g>
    <g id="ytick_10">
     <g id="line2d_74">
      <path clip-path="url(#p7aec279e42)" d="M 448.600815 160.668388 
L 739.73125 160.668388 
" style="fill:none;stroke:#b0b0b0;stroke-linecap:square;stroke-width:0.8;"/>
     </g>
     <g id="line2d_75">
      <g>
       <use x="448.600815" xlink:href="#ma4d41bacbc" y="160.668388"/>
      </g>
     </g>
     <g id="text_35">
      <!-- 0.008 -->
      <g transform="translate(396.158628 166.367216)scale(0.15 -0.15)">
       <use xlink:href="#DejaVuSans-30"/>
       <use x="63.623047" xlink:href="#DejaVuSans-2e"/>
       <use x="95.410156" xlink:href="#DejaVuSans-30"/>
       <use x="159.033203" xlink:href="#DejaVuSans-30"/>
       <use x="222.65625" xlink:href="#DejaVuSans-38"/>
      </g>
     </g>
    </g>
    <g id="ytick_11">
     <g id="line2d_76">
      <path clip-path="url(#p7aec279e42)" d="M 448.600815 125.682582 
L 739.73125 125.682582 
" style="fill:none;stroke:#b0b0b0;stroke-linecap:square;stroke-width:0.8;"/>
     </g>
     <g id="line2d_77">
      <g>
       <use x="448.600815" xlink:href="#ma4d41bacbc" y="125.682582"/>
      </g>
     </g>
     <g id="text_36">
      <!-- 0.012 -->
      <g transform="translate(396.158628 131.38141)scale(0.15 -0.15)">
       <use xlink:href="#DejaVuSans-30"/>
       <use x="63.623047" xlink:href="#DejaVuSans-2e"/>
       <use x="95.410156" xlink:href="#DejaVuSans-30"/>
       <use x="159.033203" xlink:href="#DejaVuSans-31"/>
       <use x="222.65625" xlink:href="#DejaVuSans-32"/>
      </g>
     </g>
    </g>
    <g id="ytick_12">
     <g id="line2d_78">
      <path clip-path="url(#p7aec279e42)" d="M 448.600815 90.696775 
L 739.73125 90.696775 
" style="fill:none;stroke:#b0b0b0;stroke-linecap:square;stroke-width:0.8;"/>
     </g>
     <g id="line2d_79">
      <g>
       <use x="448.600815" xlink:href="#ma4d41bacbc" y="90.696775"/>
      </g>
     </g>
     <g id="text_37">
      <!-- 0.016 -->
      <g transform="translate(396.158628 96.395603)scale(0.15 -0.15)">
       <use xlink:href="#DejaVuSans-30"/>
       <use x="63.623047" xlink:href="#DejaVuSans-2e"/>
       <use x="95.410156" xlink:href="#DejaVuSans-30"/>
       <use x="159.033203" xlink:href="#DejaVuSans-31"/>
       <use x="222.65625" xlink:href="#DejaVuSans-36"/>
      </g>
     </g>
    </g>
    <g id="ytick_13">
     <g id="line2d_80">
      <path clip-path="url(#p7aec279e42)" d="M 448.600815 55.710969 
L 739.73125 55.710969 
" style="fill:none;stroke:#b0b0b0;stroke-linecap:square;stroke-width:0.8;"/>
     </g>
     <g id="line2d_81">
      <g>
       <use x="448.600815" xlink:href="#ma4d41bacbc" y="55.710969"/>
      </g>
     </g>
     <g id="text_38">
      <!-- 0.020 -->
      <g transform="translate(396.158628 61.409797)scale(0.15 -0.15)">
       <use xlink:href="#DejaVuSans-30"/>
       <use x="63.623047" xlink:href="#DejaVuSans-2e"/>
       <use x="95.410156" xlink:href="#DejaVuSans-30"/>
       <use x="159.033203" xlink:href="#DejaVuSans-32"/>
       <use x="222.65625" xlink:href="#DejaVuSans-30"/>
      </g>
     </g>
    </g>
    <g id="ytick_14">
     <g id="line2d_82">
      <path clip-path="url(#p7aec279e42)" d="M 448.600815 20.725163 
L 739.73125 20.725163 
" style="fill:none;stroke:#b0b0b0;stroke-linecap:square;stroke-width:0.8;"/>
     </g>
     <g id="line2d_83">
      <g>
       <use x="448.600815" xlink:href="#ma4d41bacbc" y="20.725163"/>
      </g>
     </g>
     <g id="text_39">
      <!-- 0.024 -->
      <g transform="translate(396.158628 26.423991)scale(0.15 -0.15)">
       <use xlink:href="#DejaVuSans-30"/>
       <use x="63.623047" xlink:href="#DejaVuSans-2e"/>
       <use x="95.410156" xlink:href="#DejaVuSans-30"/>
       <use x="159.033203" xlink:href="#DejaVuSans-32"/>
       <use x="222.65625" xlink:href="#DejaVuSans-34"/>
      </g>
     </g>
    </g>
    <g id="text_40">
     <!-- $C_V^2(p)$ -->
     <defs>
      <path d="M 69.484375 67.28125 
L 67.484375 56.890625 
Q 62.796875 61.625 57.546875 63.921875 
Q 52.296875 66.21875 46.1875 66.21875 
Q 37.84375 66.21875 31.515625 62.203125 
Q 25.203125 58.203125 20.609375 50 
Q 17.671875 44.734375 16.125 38.84375 
Q 14.59375 32.953125 14.59375 27 
Q 14.59375 17.046875 19.75 11.8125 
Q 24.90625 6.59375 34.71875 6.59375 
Q 41.5 6.59375 47.75 8.765625 
Q 54 10.9375 59.90625 15.28125 
L 57.625 3.609375 
Q 51.8125 1.125 45.875 -0.140625 
Q 39.9375 -1.421875 33.984375 -1.421875 
Q 19.96875 -1.421875 12.078125 6.1875 
Q 4.203125 13.8125 4.203125 27.390625 
Q 4.203125 36.078125 7.203125 44.46875 
Q 10.203125 52.875 15.828125 59.8125 
Q 21.78125 67.1875 29.421875 70.703125 
Q 37.0625 74.21875 47.21875 74.21875 
Q 53.46875 74.21875 59.0625 72.484375 
Q 64.65625 70.75 69.484375 67.28125 
z
" id="DejaVuSans-Oblique-43"/>
      <path d="M 20.609375 0 
L 7.8125 72.90625 
L 17.484375 72.90625 
L 28.078125 10.203125 
L 63.484375 72.90625 
L 74.21875 72.90625 
L 32.078125 0 
z
" id="DejaVuSans-Oblique-56"/>
      <path d="M 49.609375 33.6875 
Q 49.609375 40.875 46.484375 44.671875 
Q 43.359375 48.484375 37.5 48.484375 
Q 33.5 48.484375 29.859375 46.4375 
Q 26.21875 44.390625 23.390625 40.484375 
Q 20.609375 36.625 18.9375 31.15625 
Q 17.28125 25.6875 17.28125 20.3125 
Q 17.28125 13.484375 20.40625 9.796875 
Q 23.53125 6.109375 29.296875 6.109375 
Q 33.546875 6.109375 37.1875 8.109375 
Q 40.828125 10.109375 43.40625 13.921875 
Q 46.1875 17.921875 47.890625 23.34375 
Q 49.609375 28.765625 49.609375 33.6875 
z
M 21.78125 46.390625 
Q 25.390625 51.125 30.296875 53.5625 
Q 35.203125 56 41.21875 56 
Q 49.609375 56 54.25 50.5 
Q 58.890625 45.015625 58.890625 35.109375 
Q 58.890625 27 56 19.65625 
Q 53.125 12.3125 47.703125 6.5 
Q 44.09375 2.640625 39.546875 0.609375 
Q 35.015625 -1.421875 29.984375 -1.421875 
Q 24.171875 -1.421875 20.21875 1 
Q 16.265625 3.421875 14.3125 8.203125 
L 8.6875 -20.796875 
L -0.296875 -20.796875 
L 14.40625 54.6875 
L 23.390625 54.6875 
z
" id="DejaVuSans-Oblique-70"/>
     </defs>
     <g transform="translate(386.558628 148.52)rotate(-90)scale(0.2 -0.2)">
      <use transform="translate(0 0.765625)" xlink:href="#DejaVuSans-Oblique-43"/>
      <use transform="translate(77.02474 39.046875)scale(0.7)" xlink:href="#DejaVuSans-32"/>
      <use transform="translate(69.824219 -26.578125)scale(0.7)" xlink:href="#DejaVuSans-Oblique-56"/>
      <use transform="translate(124.295247 0.765625)" xlink:href="#DejaVuSans-28"/>
      <use transform="translate(163.308919 0.765625)" xlink:href="#DejaVuSans-Oblique-70"/>
      <use transform="translate(226.785482 0.765625)" xlink:href="#DejaVuSans-29"/>
     </g>
    </g>
   </g>
   <g id="line2d_84">
    <path clip-path="url(#p7aec279e42)" d="M 448.773483 229.445937 
L 451.849513 211.361551 
L 455.159995 187.821793 
L 458.575761 162.830377 
L 461.658192 135.817969 
L 465.065852 115.757306 
L 468.108461 97.399415 
L 471.546507 81.849173 
L 474.664645 65.275852 
L 477.82967 52.855241 
L 481.271864 52.41114 
L 484.269292 52.073026 
L 487.674613 51.797476 
L 490.69266 53.570026 
L 493.923552 51.481888 
L 497.139413 57.558487 
L 500.471485 57.614824 
L 503.687671 58.556043 
L 506.885833 60.049332 
L 510.168217 52.92097 
L 513.565394 49.44 
L 516.586409 52.742765 
L 520.032494 56.963721 
L 523.308284 55.990205 
L 526.80424 57.195122 
L 529.480416 59.804135 
L 532.90825 61.277814 
L 536.216303 58.03798 
L 539.457691 53.023256 
L 542.424699 53.46343 
L 545.769681 51.422586 
L 549.329967 55.542578 
L 552.265582 56.494148 
L 555.437802 62.753149 
L 558.589329 67.285969 
L 561.829147 69.400107 
L 565.060371 68.59142 
L 568.333419 66.531288 
L 571.636283 68.698712 
L 575.162411 70.573257 
L 578.515122 73.349138 
L 581.281447 77.95856 
L 584.524911 77.939952 
L 587.6985 81.634805 
L 590.991968 84.291066 
L 594.232648 81.375466 
L 597.497422 78.22069 
L 600.837269 78.362524 
L 604.014181 81.203859 
L 607.135599 83.940743 
L 610.352693 83.999734 
L 613.764161 84.774136 
L 616.870758 80.95491 
L 620.102655 80.644375 
L 623.386926 75.36358 
L 626.52239 76.260509 
L 629.924492 70.601822 
L 633.28807 75.724853 
L 636.224876 78.135794 
L 639.529286 79.918767 
L 642.716706 81.822851 
L 646.14626 79.5984 
L 649.237161 75.176743 
L 652.40257 79.192612 
L 655.63786 78.305254 
L 658.898914 77.9752 
L 662.171913 75.722659 
L 665.38802 81.028297 
L 669.079121 84.557748 
L 671.881338 83.470148 
L 675.485633 80.81721 
L 678.473222 75.318982 
L 681.758868 68.340296 
L 684.747907 60.283683 
L 687.984895 59.136081 
L 691.603854 57.696623 
L 694.666543 58.947618 
L 697.860427 63.468995 
L 701.149364 66.73729 
L 704.507431 69.951557 
L 707.761325 65.454242 
L 711.083464 60.55753 
L 714.376644 59.450144 
L 717.380089 61.343159 
L 721.452741 62.153636 
L 723.622945 66.227017 
L 727.428891 68.801396 
L 730.124322 70.589396 
L 733.456229 70.908388 
L 736.712078 69.696332 
" style="fill:none;stroke:#3bb000;stroke-linecap:square;stroke-width:3;"/>
   </g>
   <g id="patch_8">
    <path d="M 448.600815 230.64 
L 448.600815 13.2 
" style="fill:none;stroke:#000000;stroke-linecap:square;stroke-linejoin:miter;stroke-width:2;"/>
   </g>
   <g id="patch_9">
    <path d="M 739.73125 230.64 
L 739.73125 13.2 
" style="fill:none;"/>
   </g>
   <g id="patch_10">
    <path d="M 448.600815 230.64 
L 739.73125 230.64 
" style="fill:none;stroke:#000000;stroke-linecap:square;stroke-linejoin:miter;stroke-width:2;"/>
   </g>
   <g id="patch_11">
    <path d="M 448.600815 13.2 
L 739.73125 13.2 
" style="fill:none;"/>
   </g>
  </g>
 </g>
 <defs>
  <clipPath id="p32e6efa815">
   <rect height="217.44" width="291.130435" x="70.13125" y="13.2"/>
  </clipPath>
  <clipPath id="p7aec279e42">
   <rect height="217.44" width="291.130435" x="448.600815" y="13.2"/>
  </clipPath>
 </defs>
</svg>
