<?xml version="1.0" encoding="utf-8" standalone="no"?>
<!DOCTYPE svg PUBLIC "-//W3C//DTD SVG 1.1//EN"
  "http://www.w3.org/Graphics/SVG/1.1/DTD/svg11.dtd">
<!-- Created with matplotlib (http://matplotlib.org/) -->
<svg height="285.213437pt" version="1.1" viewBox="0 0 750.254688 285.213437" width="750.254688pt" xmlns="http://www.w3.org/2000/svg" xmlns:xlink="http://www.w3.org/1999/xlink">
 <defs>
  <style type="text/css">
*{stroke-linecap:butt;stroke-linejoin:round;}
  </style>
 </defs>
 <g id="figure_1">
  <g id="patch_1">
   <path d="M 0 285.213437 
L 750.254688 285.213437 
L 750.254688 0 
L 0 0 
z
" style="fill:#ffffff;"/>
  </g>
  <g id="axes_1">
   <g id="patch_2">
    <path d="M 63.910937 230.64 
L 355.041372 230.64 
L 355.041372 13.2 
L 63.910937 13.2 
z
" style="fill:#ffffff;"/>
   </g>
   <g id="PolyCollection_1">
    <defs>
     <path d="M 64.083605 -56.384716 
L 64.083605 -56.182664 
L 67.159635 -75.543532 
L 70.470118 -96.687411 
L 73.885883 -119.120425 
L 76.968314 -143.495387 
L 80.375974 -165.019078 
L 83.418584 -183.573124 
L 86.85663 -189.955713 
L 89.974768 -179.866752 
L 93.139792 -161.426287 
L 96.581986 -145.023443 
L 99.579414 -131.025983 
L 102.984735 -133.516964 
L 106.002783 -145.298935 
L 109.233674 -161.558496 
L 112.449535 -174.917232 
L 115.781607 -183.108767 
L 118.997793 -175.720984 
L 122.195955 -161.925134 
L 125.478339 -146.300823 
L 128.875516 -134.778685 
L 131.896532 -134.527009 
L 135.342616 -144.375581 
L 138.618406 -160.154535 
L 142.114362 -174.541608 
L 144.790538 -178.487792 
L 148.218372 -173.718604 
L 151.526425 -163.941676 
L 154.767813 -149.179729 
L 157.734821 -139.754139 
L 161.079804 -140.017963 
L 164.640089 -146.604975 
L 167.575705 -161.87515 
L 170.747924 -176.705552 
L 173.899451 -179.198835 
L 177.139269 -176.699612 
L 180.370493 -164.449721 
L 183.643541 -146.616731 
L 186.946405 -135.045687 
L 190.472533 -138.535452 
L 193.825245 -151.920989 
L 196.59157 -166.192402 
L 199.835034 -174.704714 
L 203.008623 -180.024299 
L 206.30209 -176.57842 
L 209.542771 -160.779295 
L 212.807544 -148.976382 
L 216.147391 -140.190098 
L 219.324304 -137.5386 
L 222.445721 -147.02133 
L 225.662815 -162.190952 
L 229.074283 -174.195714 
L 232.18088 -179.565182 
L 235.412777 -179.648075 
L 238.697048 -166.750212 
L 241.832512 -152.718305 
L 245.234615 -137.027683 
L 248.598192 -135.520109 
L 251.534998 -145.027933 
L 254.839408 -161.720768 
L 258.026829 -175.047549 
L 261.456383 -180.295558 
L 264.547283 -171.93451 
L 267.712692 -160.772078 
L 270.947982 -145.554635 
L 274.209037 -137.625925 
L 277.482035 -139.756053 
L 280.698142 -147.997597 
L 284.389244 -161.902687 
L 287.19146 -173.457412 
L 290.795755 -177.960196 
L 293.783344 -172.489382 
L 297.06899 -158.580439 
L 300.058029 -145.567454 
L 303.295017 -138.743736 
L 306.913977 -136.858798 
L 309.976665 -145.732935 
L 313.17055 -159.571542 
L 316.459486 -171.675726 
L 319.817553 -175.441603 
L 323.071447 -173.835245 
L 326.393587 -159.807885 
L 329.686767 -149.2369 
L 332.690212 -135.447999 
L 336.762863 -135.252354 
L 338.933067 -144.568822 
L 342.739013 -159.643913 
L 345.434444 -171.590864 
L 348.766351 -179.971227 
L 352.022201 -171.79444 
L 352.022201 -185.479463 
L 352.022201 -185.479463 
L 348.766351 -190.734941 
L 345.434444 -180.167606 
L 342.739013 -166.767953 
L 338.933067 -152.080324 
L 336.762863 -145.297273 
L 332.690212 -148.582099 
L 329.686767 -164.447916 
L 326.393587 -174.976604 
L 323.071447 -187.453903 
L 319.817553 -186.554507 
L 316.459486 -180.046641 
L 313.17055 -167.262438 
L 309.976665 -153.511342 
L 306.913977 -147.567228 
L 303.295017 -152.274522 
L 300.058029 -160.541158 
L 297.06899 -173.736771 
L 293.783344 -186.149317 
L 290.795755 -189.077625 
L 287.19146 -182.171122 
L 284.389244 -168.842112 
L 280.698142 -156.309189 
L 277.482035 -150.832914 
L 274.209037 -150.903966 
L 270.947982 -160.52987 
L 267.712692 -175.948756 
L 264.547283 -185.614001 
L 261.456383 -191.392862 
L 258.026829 -183.760304 
L 254.839408 -169.081077 
L 251.534998 -153.06542 
L 248.598192 -145.930661 
L 245.234615 -150.383222 
L 241.832512 -168.133511 
L 238.697048 -181.989679 
L 235.412777 -193.059578 
L 232.18088 -190.365544 
L 229.074283 -182.240659 
L 225.662815 -169.660546 
L 222.445721 -154.90386 
L 219.324304 -148.346738 
L 216.147391 -153.858984 
L 212.807544 -164.225172 
L 209.542771 -175.958483 
L 206.30209 -190.102538 
L 203.008623 -190.785332 
L 199.835034 -182.880627 
L 196.59157 -173.912986 
L 193.825245 -161.001416 
L 190.472533 -149.306417 
L 186.946405 -148.049092 
L 183.643541 -161.647513 
L 180.370493 -179.661423 
L 177.139269 -190.227031 
L 173.899451 -190.208158 
L 170.747924 -184.621338 
L 167.575705 -167.52297 
L 164.640089 -153.915567 
L 161.079804 -150.979353 
L 157.734821 -153.342402 
L 154.767813 -164.359218 
L 151.526425 -179.156083 
L 148.218372 -187.341043 
L 144.790538 -189.372967 
L 142.114362 -182.737463 
L 138.618406 -166.372139 
L 135.342616 -151.423408 
L 131.896532 -144.358715 
L 128.875516 -147.744408 
L 125.478339 -161.317845 
L 122.195955 -177.119603 
L 118.997793 -189.278044 
L 115.781607 -193.616014 
L 112.449535 -182.652595 
L 109.233674 -166.784101 
L 106.002783 -151.834871 
L 102.984735 -142.847272 
L 99.579414 -143.43074 
L 96.581986 -159.968794 
L 93.139792 -176.621208 
L 89.974768 -193.264513 
L 86.85663 -199.806114 
L 83.418584 -189.663389 
L 80.375974 -168.44548 
L 76.968314 -144.432564 
L 73.885883 -119.750509 
L 70.470118 -96.851995 
L 67.159635 -75.723467 
L 64.083605 -56.384716 
z
" id="m7e7bea18f4"/>
    </defs>
    <g clip-path="url(#pcef237545d)">
     <use style="fill:#4db8ff;" x="0" xlink:href="#m7e7bea18f4" y="285.213437"/>
    </g>
   </g>
   <g id="matplotlib.axis_1">
    <g id="xtick_1">
     <g id="line2d_1">
      <path clip-path="url(#pcef237545d)" d="M 63.910937 230.64 
L 63.910937 13.2 
" style="fill:none;stroke:#b0b0b0;stroke-linecap:square;stroke-width:0.8;"/>
     </g>
     <g id="line2d_2">
      <defs>
       <path d="M 0 0 
L 0 6 
" id="m5b63709813"/>
      </defs>
      <g>
       <use x="63.910937" xlink:href="#m5b63709813" y="230.64"/>
      </g>
     </g>
     <g id="text_1">
      <!-- 0 -->
      <defs>
       <path d="M 31.78125 66.40625 
Q 24.171875 66.40625 20.328125 58.90625 
Q 16.5 51.421875 16.5 36.375 
Q 16.5 21.390625 20.328125 13.890625 
Q 24.171875 6.390625 31.78125 6.390625 
Q 39.453125 6.390625 43.28125 13.890625 
Q 47.125 21.390625 47.125 36.375 
Q 47.125 51.421875 43.28125 58.90625 
Q 39.453125 66.40625 31.78125 66.40625 
z
M 31.78125 74.21875 
Q 44.046875 74.21875 50.515625 64.515625 
Q 56.984375 54.828125 56.984375 36.375 
Q 56.984375 17.96875 50.515625 8.265625 
Q 44.046875 -1.421875 31.78125 -1.421875 
Q 19.53125 -1.421875 13.0625 8.265625 
Q 6.59375 17.96875 6.59375 36.375 
Q 6.59375 54.828125 13.0625 64.515625 
Q 19.53125 74.21875 31.78125 74.21875 
z
" id="DejaVuSans-30"/>
      </defs>
      <g transform="translate(59.139062 251.537656)scale(0.15 -0.15)">
       <use xlink:href="#DejaVuSans-30"/>
      </g>
     </g>
    </g>
    <g id="xtick_2">
     <g id="line2d_3">
      <path clip-path="url(#pcef237545d)" d="M 93.023981 230.64 
L 93.023981 13.2 
" style="fill:none;stroke:#b0b0b0;stroke-linecap:square;stroke-width:0.8;"/>
     </g>
     <g id="line2d_4">
      <g>
       <use x="93.023981" xlink:href="#m5b63709813" y="230.64"/>
      </g>
     </g>
     <g id="text_2">
      <!-- 1 -->
      <defs>
       <path d="M 12.40625 8.296875 
L 28.515625 8.296875 
L 28.515625 63.921875 
L 10.984375 60.40625 
L 10.984375 69.390625 
L 28.421875 72.90625 
L 38.28125 72.90625 
L 38.28125 8.296875 
L 54.390625 8.296875 
L 54.390625 0 
L 12.40625 0 
z
" id="DejaVuSans-31"/>
      </defs>
      <g transform="translate(88.252106 251.537656)scale(0.15 -0.15)">
       <use xlink:href="#DejaVuSans-31"/>
      </g>
     </g>
    </g>
    <g id="xtick_3">
     <g id="line2d_5">
      <path clip-path="url(#pcef237545d)" d="M 122.137024 230.64 
L 122.137024 13.2 
" style="fill:none;stroke:#b0b0b0;stroke-linecap:square;stroke-width:0.8;"/>
     </g>
     <g id="line2d_6">
      <g>
       <use x="122.137024" xlink:href="#m5b63709813" y="230.64"/>
      </g>
     </g>
     <g id="text_3">
      <!-- 2 -->
      <defs>
       <path d="M 19.1875 8.296875 
L 53.609375 8.296875 
L 53.609375 0 
L 7.328125 0 
L 7.328125 8.296875 
Q 12.9375 14.109375 22.625 23.890625 
Q 32.328125 33.6875 34.8125 36.53125 
Q 39.546875 41.84375 41.421875 45.53125 
Q 43.3125 49.21875 43.3125 52.78125 
Q 43.3125 58.59375 39.234375 62.25 
Q 35.15625 65.921875 28.609375 65.921875 
Q 23.96875 65.921875 18.8125 64.3125 
Q 13.671875 62.703125 7.8125 59.421875 
L 7.8125 69.390625 
Q 13.765625 71.78125 18.9375 73 
Q 24.125 74.21875 28.421875 74.21875 
Q 39.75 74.21875 46.484375 68.546875 
Q 53.21875 62.890625 53.21875 53.421875 
Q 53.21875 48.921875 51.53125 44.890625 
Q 49.859375 40.875 45.40625 35.40625 
Q 44.1875 33.984375 37.640625 27.21875 
Q 31.109375 20.453125 19.1875 8.296875 
z
" id="DejaVuSans-32"/>
      </defs>
      <g transform="translate(117.365149 251.537656)scale(0.15 -0.15)">
       <use xlink:href="#DejaVuSans-32"/>
      </g>
     </g>
    </g>
    <g id="xtick_4">
     <g id="line2d_7">
      <path clip-path="url(#pcef237545d)" d="M 151.250068 230.64 
L 151.250068 13.2 
" style="fill:none;stroke:#b0b0b0;stroke-linecap:square;stroke-width:0.8;"/>
     </g>
     <g id="line2d_8">
      <g>
       <use x="151.250068" xlink:href="#m5b63709813" y="230.64"/>
      </g>
     </g>
     <g id="text_4">
      <!-- 3 -->
      <defs>
       <path d="M 40.578125 39.3125 
Q 47.65625 37.796875 51.625 33 
Q 55.609375 28.21875 55.609375 21.1875 
Q 55.609375 10.40625 48.1875 4.484375 
Q 40.765625 -1.421875 27.09375 -1.421875 
Q 22.515625 -1.421875 17.65625 -0.515625 
Q 12.796875 0.390625 7.625 2.203125 
L 7.625 11.71875 
Q 11.71875 9.328125 16.59375 8.109375 
Q 21.484375 6.890625 26.8125 6.890625 
Q 36.078125 6.890625 40.9375 10.546875 
Q 45.796875 14.203125 45.796875 21.1875 
Q 45.796875 27.640625 41.28125 31.265625 
Q 36.765625 34.90625 28.71875 34.90625 
L 20.21875 34.90625 
L 20.21875 43.015625 
L 29.109375 43.015625 
Q 36.375 43.015625 40.234375 45.921875 
Q 44.09375 48.828125 44.09375 54.296875 
Q 44.09375 59.90625 40.109375 62.90625 
Q 36.140625 65.921875 28.71875 65.921875 
Q 24.65625 65.921875 20.015625 65.03125 
Q 15.375 64.15625 9.8125 62.3125 
L 9.8125 71.09375 
Q 15.4375 72.65625 20.34375 73.4375 
Q 25.25 74.21875 29.59375 74.21875 
Q 40.828125 74.21875 47.359375 69.109375 
Q 53.90625 64.015625 53.90625 55.328125 
Q 53.90625 49.265625 50.4375 45.09375 
Q 46.96875 40.921875 40.578125 39.3125 
z
" id="DejaVuSans-33"/>
      </defs>
      <g transform="translate(146.478193 251.537656)scale(0.15 -0.15)">
       <use xlink:href="#DejaVuSans-33"/>
      </g>
     </g>
    </g>
    <g id="xtick_5">
     <g id="line2d_9">
      <path clip-path="url(#pcef237545d)" d="M 180.363111 230.64 
L 180.363111 13.2 
" style="fill:none;stroke:#b0b0b0;stroke-linecap:square;stroke-width:0.8;"/>
     </g>
     <g id="line2d_10">
      <g>
       <use x="180.363111" xlink:href="#m5b63709813" y="230.64"/>
      </g>
     </g>
     <g id="text_5">
      <!-- 4 -->
      <defs>
       <path d="M 37.796875 64.3125 
L 12.890625 25.390625 
L 37.796875 25.390625 
z
M 35.203125 72.90625 
L 47.609375 72.90625 
L 47.609375 25.390625 
L 58.015625 25.390625 
L 58.015625 17.1875 
L 47.609375 17.1875 
L 47.609375 0 
L 37.796875 0 
L 37.796875 17.1875 
L 4.890625 17.1875 
L 4.890625 26.703125 
z
" id="DejaVuSans-34"/>
      </defs>
      <g transform="translate(175.591236 251.537656)scale(0.15 -0.15)">
       <use xlink:href="#DejaVuSans-34"/>
      </g>
     </g>
    </g>
    <g id="xtick_6">
     <g id="line2d_11">
      <path clip-path="url(#pcef237545d)" d="M 209.476155 230.64 
L 209.476155 13.2 
" style="fill:none;stroke:#b0b0b0;stroke-linecap:square;stroke-width:0.8;"/>
     </g>
     <g id="line2d_12">
      <g>
       <use x="209.476155" xlink:href="#m5b63709813" y="230.64"/>
      </g>
     </g>
     <g id="text_6">
      <!-- 5 -->
      <defs>
       <path d="M 10.796875 72.90625 
L 49.515625 72.90625 
L 49.515625 64.59375 
L 19.828125 64.59375 
L 19.828125 46.734375 
Q 21.96875 47.46875 24.109375 47.828125 
Q 26.265625 48.1875 28.421875 48.1875 
Q 40.625 48.1875 47.75 41.5 
Q 54.890625 34.8125 54.890625 23.390625 
Q 54.890625 11.625 47.5625 5.09375 
Q 40.234375 -1.421875 26.90625 -1.421875 
Q 22.3125 -1.421875 17.546875 -0.640625 
Q 12.796875 0.140625 7.71875 1.703125 
L 7.71875 11.625 
Q 12.109375 9.234375 16.796875 8.0625 
Q 21.484375 6.890625 26.703125 6.890625 
Q 35.15625 6.890625 40.078125 11.328125 
Q 45.015625 15.765625 45.015625 23.390625 
Q 45.015625 31 40.078125 35.4375 
Q 35.15625 39.890625 26.703125 39.890625 
Q 22.75 39.890625 18.8125 39.015625 
Q 14.890625 38.140625 10.796875 36.28125 
z
" id="DejaVuSans-35"/>
      </defs>
      <g transform="translate(204.70428 251.537656)scale(0.15 -0.15)">
       <use xlink:href="#DejaVuSans-35"/>
      </g>
     </g>
    </g>
    <g id="xtick_7">
     <g id="line2d_13">
      <path clip-path="url(#pcef237545d)" d="M 238.589198 230.64 
L 238.589198 13.2 
" style="fill:none;stroke:#b0b0b0;stroke-linecap:square;stroke-width:0.8;"/>
     </g>
     <g id="line2d_14">
      <g>
       <use x="238.589198" xlink:href="#m5b63709813" y="230.64"/>
      </g>
     </g>
     <g id="text_7">
      <!-- 6 -->
      <defs>
       <path d="M 33.015625 40.375 
Q 26.375 40.375 22.484375 35.828125 
Q 18.609375 31.296875 18.609375 23.390625 
Q 18.609375 15.53125 22.484375 10.953125 
Q 26.375 6.390625 33.015625 6.390625 
Q 39.65625 6.390625 43.53125 10.953125 
Q 47.40625 15.53125 47.40625 23.390625 
Q 47.40625 31.296875 43.53125 35.828125 
Q 39.65625 40.375 33.015625 40.375 
z
M 52.59375 71.296875 
L 52.59375 62.3125 
Q 48.875 64.0625 45.09375 64.984375 
Q 41.3125 65.921875 37.59375 65.921875 
Q 27.828125 65.921875 22.671875 59.328125 
Q 17.53125 52.734375 16.796875 39.40625 
Q 19.671875 43.65625 24.015625 45.921875 
Q 28.375 48.1875 33.59375 48.1875 
Q 44.578125 48.1875 50.953125 41.515625 
Q 57.328125 34.859375 57.328125 23.390625 
Q 57.328125 12.15625 50.6875 5.359375 
Q 44.046875 -1.421875 33.015625 -1.421875 
Q 20.359375 -1.421875 13.671875 8.265625 
Q 6.984375 17.96875 6.984375 36.375 
Q 6.984375 53.65625 15.1875 63.9375 
Q 23.390625 74.21875 37.203125 74.21875 
Q 40.921875 74.21875 44.703125 73.484375 
Q 48.484375 72.75 52.59375 71.296875 
z
" id="DejaVuSans-36"/>
      </defs>
      <g transform="translate(233.817323 251.537656)scale(0.15 -0.15)">
       <use xlink:href="#DejaVuSans-36"/>
      </g>
     </g>
    </g>
    <g id="xtick_8">
     <g id="line2d_15">
      <path clip-path="url(#pcef237545d)" d="M 267.702242 230.64 
L 267.702242 13.2 
" style="fill:none;stroke:#b0b0b0;stroke-linecap:square;stroke-width:0.8;"/>
     </g>
     <g id="line2d_16">
      <g>
       <use x="267.702242" xlink:href="#m5b63709813" y="230.64"/>
      </g>
     </g>
     <g id="text_8">
      <!-- 7 -->
      <defs>
       <path d="M 8.203125 72.90625 
L 55.078125 72.90625 
L 55.078125 68.703125 
L 28.609375 0 
L 18.3125 0 
L 43.21875 64.59375 
L 8.203125 64.59375 
z
" id="DejaVuSans-37"/>
      </defs>
      <g transform="translate(262.930367 251.537656)scale(0.15 -0.15)">
       <use xlink:href="#DejaVuSans-37"/>
      </g>
     </g>
    </g>
    <g id="xtick_9">
     <g id="line2d_17">
      <path clip-path="url(#pcef237545d)" d="M 296.815285 230.64 
L 296.815285 13.2 
" style="fill:none;stroke:#b0b0b0;stroke-linecap:square;stroke-width:0.8;"/>
     </g>
     <g id="line2d_18">
      <g>
       <use x="296.815285" xlink:href="#m5b63709813" y="230.64"/>
      </g>
     </g>
     <g id="text_9">
      <!-- 8 -->
      <defs>
       <path d="M 31.78125 34.625 
Q 24.75 34.625 20.71875 30.859375 
Q 16.703125 27.09375 16.703125 20.515625 
Q 16.703125 13.921875 20.71875 10.15625 
Q 24.75 6.390625 31.78125 6.390625 
Q 38.8125 6.390625 42.859375 10.171875 
Q 46.921875 13.96875 46.921875 20.515625 
Q 46.921875 27.09375 42.890625 30.859375 
Q 38.875 34.625 31.78125 34.625 
z
M 21.921875 38.8125 
Q 15.578125 40.375 12.03125 44.71875 
Q 8.5 49.078125 8.5 55.328125 
Q 8.5 64.0625 14.71875 69.140625 
Q 20.953125 74.21875 31.78125 74.21875 
Q 42.671875 74.21875 48.875 69.140625 
Q 55.078125 64.0625 55.078125 55.328125 
Q 55.078125 49.078125 51.53125 44.71875 
Q 48 40.375 41.703125 38.8125 
Q 48.828125 37.15625 52.796875 32.3125 
Q 56.78125 27.484375 56.78125 20.515625 
Q 56.78125 9.90625 50.3125 4.234375 
Q 43.84375 -1.421875 31.78125 -1.421875 
Q 19.734375 -1.421875 13.25 4.234375 
Q 6.78125 9.90625 6.78125 20.515625 
Q 6.78125 27.484375 10.78125 32.3125 
Q 14.796875 37.15625 21.921875 38.8125 
z
M 18.3125 54.390625 
Q 18.3125 48.734375 21.84375 45.5625 
Q 25.390625 42.390625 31.78125 42.390625 
Q 38.140625 42.390625 41.71875 45.5625 
Q 45.3125 48.734375 45.3125 54.390625 
Q 45.3125 60.0625 41.71875 63.234375 
Q 38.140625 66.40625 31.78125 66.40625 
Q 25.390625 66.40625 21.84375 63.234375 
Q 18.3125 60.0625 18.3125 54.390625 
z
" id="DejaVuSans-38"/>
      </defs>
      <g transform="translate(292.04341 251.537656)scale(0.15 -0.15)">
       <use xlink:href="#DejaVuSans-38"/>
      </g>
     </g>
    </g>
    <g id="xtick_10">
     <g id="line2d_19">
      <path clip-path="url(#pcef237545d)" d="M 325.928329 230.64 
L 325.928329 13.2 
" style="fill:none;stroke:#b0b0b0;stroke-linecap:square;stroke-width:0.8;"/>
     </g>
     <g id="line2d_20">
      <g>
       <use x="325.928329" xlink:href="#m5b63709813" y="230.64"/>
      </g>
     </g>
     <g id="text_10">
      <!-- 9 -->
      <defs>
       <path d="M 10.984375 1.515625 
L 10.984375 10.5 
Q 14.703125 8.734375 18.5 7.8125 
Q 22.3125 6.890625 25.984375 6.890625 
Q 35.75 6.890625 40.890625 13.453125 
Q 46.046875 20.015625 46.78125 33.40625 
Q 43.953125 29.203125 39.59375 26.953125 
Q 35.25 24.703125 29.984375 24.703125 
Q 19.046875 24.703125 12.671875 31.3125 
Q 6.296875 37.9375 6.296875 49.421875 
Q 6.296875 60.640625 12.9375 67.421875 
Q 19.578125 74.21875 30.609375 74.21875 
Q 43.265625 74.21875 49.921875 64.515625 
Q 56.59375 54.828125 56.59375 36.375 
Q 56.59375 19.140625 48.40625 8.859375 
Q 40.234375 -1.421875 26.421875 -1.421875 
Q 22.703125 -1.421875 18.890625 -0.6875 
Q 15.09375 0.046875 10.984375 1.515625 
z
M 30.609375 32.421875 
Q 37.25 32.421875 41.125 36.953125 
Q 45.015625 41.5 45.015625 49.421875 
Q 45.015625 57.28125 41.125 61.84375 
Q 37.25 66.40625 30.609375 66.40625 
Q 23.96875 66.40625 20.09375 61.84375 
Q 16.21875 57.28125 16.21875 49.421875 
Q 16.21875 41.5 20.09375 36.953125 
Q 23.96875 32.421875 30.609375 32.421875 
z
" id="DejaVuSans-39"/>
      </defs>
      <g transform="translate(321.156454 251.537656)scale(0.15 -0.15)">
       <use xlink:href="#DejaVuSans-39"/>
      </g>
     </g>
    </g>
    <g id="xtick_11">
     <g id="line2d_21">
      <path clip-path="url(#pcef237545d)" d="M 355.041372 230.64 
L 355.041372 13.2 
" style="fill:none;stroke:#b0b0b0;stroke-linecap:square;stroke-width:0.8;"/>
     </g>
     <g id="line2d_22">
      <g>
       <use x="355.041372" xlink:href="#m5b63709813" y="230.64"/>
      </g>
     </g>
     <g id="text_11">
      <!-- 10 -->
      <g transform="translate(345.497622 251.537656)scale(0.15 -0.15)">
       <use xlink:href="#DejaVuSans-31"/>
       <use x="63.623047" xlink:href="#DejaVuSans-30"/>
      </g>
     </g>
    </g>
    <g id="text_12">
     <!-- $t/\tau$ -->
     <defs>
      <path d="M 42.28125 54.6875 
L 40.921875 47.703125 
L 23 47.703125 
L 17.1875 18.015625 
Q 16.890625 16.359375 16.75 15.234375 
Q 16.609375 14.109375 16.609375 13.484375 
Q 16.609375 10.359375 18.484375 8.9375 
Q 20.359375 7.515625 24.515625 7.515625 
L 33.59375 7.515625 
L 32.078125 0 
L 23.484375 0 
Q 15.484375 0 11.546875 3.125 
Q 7.625 6.25 7.625 12.59375 
Q 7.625 13.71875 7.765625 15.0625 
Q 7.90625 16.40625 8.203125 18.015625 
L 14.015625 47.703125 
L 6.390625 47.703125 
L 7.8125 54.6875 
L 15.28125 54.6875 
L 18.3125 70.21875 
L 27.296875 70.21875 
L 24.3125 54.6875 
z
" id="DejaVuSans-Oblique-74"/>
      <path d="M 25.390625 72.90625 
L 33.6875 72.90625 
L 8.296875 -9.28125 
L 0 -9.28125 
z
" id="DejaVuSans-2f"/>
      <path d="M 32.859375 9.96875 
Q 34.1875 7.625 39.453125 7.625 
L 43.75 7.625 
L 42.28125 0 
L 36.921875 0 
Q 28.125 0 25 4.6875 
Q 21.921875 9.46875 23.96875 19.828125 
L 29 45.703125 
L 8.453125 45.703125 
L 10.203125 54.6875 
L 60.640625 54.6875 
L 58.890625 45.703125 
L 38.1875 45.703125 
L 33.015625 19.28125 
Q 31.640625 12.203125 32.859375 9.96875 
z
" id="DejaVuSans-Oblique-3c4"/>
     </defs>
     <g transform="translate(196.076155 273.854062)scale(0.2 -0.2)">
      <use transform="translate(0 0.09375)" xlink:href="#DejaVuSans-Oblique-74"/>
      <use transform="translate(39.208984 0.09375)" xlink:href="#DejaVuSans-2f"/>
      <use transform="translate(72.900391 0.09375)" xlink:href="#DejaVuSans-Oblique-3c4"/>
     </g>
    </g>
   </g>
   <g id="matplotlib.axis_2">
    <g id="ytick_1">
     <g id="line2d_23">
      <path clip-path="url(#pcef237545d)" d="M 63.910937 230.64 
L 355.041372 230.64 
" style="fill:none;stroke:#b0b0b0;stroke-linecap:square;stroke-width:0.8;"/>
     </g>
     <g id="line2d_24">
      <defs>
       <path d="M 0 0 
L -6 0 
" id="m9f25945dca"/>
      </defs>
      <g>
       <use x="63.910937" xlink:href="#m9f25945dca" y="230.64"/>
      </g>
     </g>
     <g id="text_13">
      <!-- 1.0 -->
      <defs>
       <path d="M 10.6875 12.40625 
L 21 12.40625 
L 21 0 
L 10.6875 0 
z
" id="DejaVuSans-2e"/>
      </defs>
      <g transform="translate(30.55625 236.338828)scale(0.15 -0.15)">
       <use xlink:href="#DejaVuSans-31"/>
       <use x="63.623047" xlink:href="#DejaVuSans-2e"/>
       <use x="95.410156" xlink:href="#DejaVuSans-30"/>
      </g>
     </g>
    </g>
    <g id="ytick_2">
     <g id="line2d_25">
      <path clip-path="url(#pcef237545d)" d="M 63.910937 181.568971 
L 355.041372 181.568971 
" style="fill:none;stroke:#b0b0b0;stroke-linecap:square;stroke-width:0.8;"/>
     </g>
     <g id="line2d_26">
      <g>
       <use x="63.910937" xlink:href="#m9f25945dca" y="181.568971"/>
      </g>
     </g>
     <g id="text_14">
      <!-- 1.2 -->
      <g transform="translate(30.55625 187.267799)scale(0.15 -0.15)">
       <use xlink:href="#DejaVuSans-31"/>
       <use x="63.623047" xlink:href="#DejaVuSans-2e"/>
       <use x="95.410156" xlink:href="#DejaVuSans-32"/>
      </g>
     </g>
    </g>
    <g id="ytick_3">
     <g id="line2d_27">
      <path clip-path="url(#pcef237545d)" d="M 63.910937 132.497943 
L 355.041372 132.497943 
" style="fill:none;stroke:#b0b0b0;stroke-linecap:square;stroke-width:0.8;"/>
     </g>
     <g id="line2d_28">
      <g>
       <use x="63.910937" xlink:href="#m9f25945dca" y="132.497943"/>
      </g>
     </g>
     <g id="text_15">
      <!-- 1.4 -->
      <g transform="translate(30.55625 138.196771)scale(0.15 -0.15)">
       <use xlink:href="#DejaVuSans-31"/>
       <use x="63.623047" xlink:href="#DejaVuSans-2e"/>
       <use x="95.410156" xlink:href="#DejaVuSans-34"/>
      </g>
     </g>
    </g>
    <g id="ytick_4">
     <g id="line2d_29">
      <path clip-path="url(#pcef237545d)" d="M 63.910937 83.426914 
L 355.041372 83.426914 
" style="fill:none;stroke:#b0b0b0;stroke-linecap:square;stroke-width:0.8;"/>
     </g>
     <g id="line2d_30">
      <g>
       <use x="63.910937" xlink:href="#m9f25945dca" y="83.426914"/>
      </g>
     </g>
     <g id="text_16">
      <!-- 1.6 -->
      <g transform="translate(30.55625 89.125742)scale(0.15 -0.15)">
       <use xlink:href="#DejaVuSans-31"/>
       <use x="63.623047" xlink:href="#DejaVuSans-2e"/>
       <use x="95.410156" xlink:href="#DejaVuSans-36"/>
      </g>
     </g>
    </g>
    <g id="ytick_5">
     <g id="line2d_31">
      <path clip-path="url(#pcef237545d)" d="M 63.910937 34.355885 
L 355.041372 34.355885 
" style="fill:none;stroke:#b0b0b0;stroke-linecap:square;stroke-width:0.8;"/>
     </g>
     <g id="line2d_32">
      <g>
       <use x="63.910937" xlink:href="#m9f25945dca" y="34.355885"/>
      </g>
     </g>
     <g id="text_17">
      <!-- 1.8 -->
      <g transform="translate(30.55625 40.054714)scale(0.15 -0.15)">
       <use xlink:href="#DejaVuSans-31"/>
       <use x="63.623047" xlink:href="#DejaVuSans-2e"/>
       <use x="95.410156" xlink:href="#DejaVuSans-38"/>
      </g>
     </g>
    </g>
    <g id="text_18">
     <!-- Mean Size ($fl$) -->
     <defs>
      <path d="M 9.8125 72.90625 
L 24.515625 72.90625 
L 43.109375 23.296875 
L 61.8125 72.90625 
L 76.515625 72.90625 
L 76.515625 0 
L 66.890625 0 
L 66.890625 64.015625 
L 48.09375 14.015625 
L 38.1875 14.015625 
L 19.390625 64.015625 
L 19.390625 0 
L 9.8125 0 
z
" id="DejaVuSans-4d"/>
      <path d="M 56.203125 29.59375 
L 56.203125 25.203125 
L 14.890625 25.203125 
Q 15.484375 15.921875 20.484375 11.0625 
Q 25.484375 6.203125 34.421875 6.203125 
Q 39.59375 6.203125 44.453125 7.46875 
Q 49.3125 8.734375 54.109375 11.28125 
L 54.109375 2.78125 
Q 49.265625 0.734375 44.1875 -0.34375 
Q 39.109375 -1.421875 33.890625 -1.421875 
Q 20.796875 -1.421875 13.15625 6.1875 
Q 5.515625 13.8125 5.515625 26.8125 
Q 5.515625 40.234375 12.765625 48.109375 
Q 20.015625 56 32.328125 56 
Q 43.359375 56 49.78125 48.890625 
Q 56.203125 41.796875 56.203125 29.59375 
z
M 47.21875 32.234375 
Q 47.125 39.59375 43.09375 43.984375 
Q 39.0625 48.390625 32.421875 48.390625 
Q 24.90625 48.390625 20.390625 44.140625 
Q 15.875 39.890625 15.1875 32.171875 
z
" id="DejaVuSans-65"/>
      <path d="M 34.28125 27.484375 
Q 23.390625 27.484375 19.1875 25 
Q 14.984375 22.515625 14.984375 16.5 
Q 14.984375 11.71875 18.140625 8.90625 
Q 21.296875 6.109375 26.703125 6.109375 
Q 34.1875 6.109375 38.703125 11.40625 
Q 43.21875 16.703125 43.21875 25.484375 
L 43.21875 27.484375 
z
M 52.203125 31.203125 
L 52.203125 0 
L 43.21875 0 
L 43.21875 8.296875 
Q 40.140625 3.328125 35.546875 0.953125 
Q 30.953125 -1.421875 24.3125 -1.421875 
Q 15.921875 -1.421875 10.953125 3.296875 
Q 6 8.015625 6 15.921875 
Q 6 25.140625 12.171875 29.828125 
Q 18.359375 34.515625 30.609375 34.515625 
L 43.21875 34.515625 
L 43.21875 35.40625 
Q 43.21875 41.609375 39.140625 45 
Q 35.0625 48.390625 27.6875 48.390625 
Q 23 48.390625 18.546875 47.265625 
Q 14.109375 46.140625 10.015625 43.890625 
L 10.015625 52.203125 
Q 14.9375 54.109375 19.578125 55.046875 
Q 24.21875 56 28.609375 56 
Q 40.484375 56 46.34375 49.84375 
Q 52.203125 43.703125 52.203125 31.203125 
z
" id="DejaVuSans-61"/>
      <path d="M 54.890625 33.015625 
L 54.890625 0 
L 45.90625 0 
L 45.90625 32.71875 
Q 45.90625 40.484375 42.875 44.328125 
Q 39.84375 48.1875 33.796875 48.1875 
Q 26.515625 48.1875 22.3125 43.546875 
Q 18.109375 38.921875 18.109375 30.90625 
L 18.109375 0 
L 9.078125 0 
L 9.078125 54.6875 
L 18.109375 54.6875 
L 18.109375 46.1875 
Q 21.34375 51.125 25.703125 53.5625 
Q 30.078125 56 35.796875 56 
Q 45.21875 56 50.046875 50.171875 
Q 54.890625 44.34375 54.890625 33.015625 
z
" id="DejaVuSans-6e"/>
      <path id="DejaVuSans-20"/>
      <path d="M 53.515625 70.515625 
L 53.515625 60.890625 
Q 47.90625 63.578125 42.921875 64.890625 
Q 37.9375 66.21875 33.296875 66.21875 
Q 25.25 66.21875 20.875 63.09375 
Q 16.5 59.96875 16.5 54.203125 
Q 16.5 49.359375 19.40625 46.890625 
Q 22.3125 44.4375 30.421875 42.921875 
L 36.375 41.703125 
Q 47.40625 39.59375 52.65625 34.296875 
Q 57.90625 29 57.90625 20.125 
Q 57.90625 9.515625 50.796875 4.046875 
Q 43.703125 -1.421875 29.984375 -1.421875 
Q 24.8125 -1.421875 18.96875 -0.25 
Q 13.140625 0.921875 6.890625 3.21875 
L 6.890625 13.375 
Q 12.890625 10.015625 18.65625 8.296875 
Q 24.421875 6.59375 29.984375 6.59375 
Q 38.421875 6.59375 43.015625 9.90625 
Q 47.609375 13.234375 47.609375 19.390625 
Q 47.609375 24.75 44.3125 27.78125 
Q 41.015625 30.8125 33.5 32.328125 
L 27.484375 33.5 
Q 16.453125 35.6875 11.515625 40.375 
Q 6.59375 45.0625 6.59375 53.421875 
Q 6.59375 63.09375 13.40625 68.65625 
Q 20.21875 74.21875 32.171875 74.21875 
Q 37.3125 74.21875 42.625 73.28125 
Q 47.953125 72.359375 53.515625 70.515625 
z
" id="DejaVuSans-53"/>
      <path d="M 9.421875 54.6875 
L 18.40625 54.6875 
L 18.40625 0 
L 9.421875 0 
z
M 9.421875 75.984375 
L 18.40625 75.984375 
L 18.40625 64.59375 
L 9.421875 64.59375 
z
" id="DejaVuSans-69"/>
      <path d="M 5.515625 54.6875 
L 48.1875 54.6875 
L 48.1875 46.484375 
L 14.40625 7.171875 
L 48.1875 7.171875 
L 48.1875 0 
L 4.296875 0 
L 4.296875 8.203125 
L 38.09375 47.515625 
L 5.515625 47.515625 
z
" id="DejaVuSans-7a"/>
      <path d="M 31 75.875 
Q 24.46875 64.65625 21.28125 53.65625 
Q 18.109375 42.671875 18.109375 31.390625 
Q 18.109375 20.125 21.3125 9.0625 
Q 24.515625 -2 31 -13.1875 
L 23.1875 -13.1875 
Q 15.875 -1.703125 12.234375 9.375 
Q 8.59375 20.453125 8.59375 31.390625 
Q 8.59375 42.28125 12.203125 53.3125 
Q 15.828125 64.359375 23.1875 75.875 
z
" id="DejaVuSans-28"/>
      <path d="M 47.796875 75.984375 
L 46.390625 68.5 
L 37.796875 68.5 
Q 32.90625 68.5 30.6875 66.578125 
Q 28.46875 64.65625 27.390625 59.515625 
L 26.421875 54.6875 
L 41.21875 54.6875 
L 39.890625 47.703125 
L 25.09375 47.703125 
L 15.828125 0 
L 6.78125 0 
L 16.109375 47.703125 
L 7.515625 47.703125 
L 8.796875 54.6875 
L 17.390625 54.6875 
L 18.109375 58.5 
Q 19.96875 68.171875 24.625 72.078125 
Q 29.296875 75.984375 39.3125 75.984375 
z
" id="DejaVuSans-Oblique-66"/>
      <path d="M 18.3125 75.984375 
L 27.296875 75.984375 
L 12.5 0 
L 3.515625 0 
z
" id="DejaVuSans-Oblique-6c"/>
      <path d="M 8.015625 75.875 
L 15.828125 75.875 
Q 23.140625 64.359375 26.78125 53.3125 
Q 30.421875 42.28125 30.421875 31.390625 
Q 30.421875 20.453125 26.78125 9.375 
Q 23.140625 -1.703125 15.828125 -13.1875 
L 8.015625 -13.1875 
Q 14.5 -2 17.703125 9.0625 
Q 20.90625 20.125 20.90625 31.390625 
Q 20.90625 42.671875 17.703125 53.65625 
Q 14.5 64.65625 8.015625 75.875 
z
" id="DejaVuSans-29"/>
     </defs>
     <g transform="translate(22.396875 190.22)rotate(-90)scale(0.2 -0.2)">
      <use transform="translate(0 0.015625)" xlink:href="#DejaVuSans-4d"/>
      <use transform="translate(86.279297 0.015625)" xlink:href="#DejaVuSans-65"/>
      <use transform="translate(147.802734 0.015625)" xlink:href="#DejaVuSans-61"/>
      <use transform="translate(209.082031 0.015625)" xlink:href="#DejaVuSans-6e"/>
      <use transform="translate(272.460938 0.015625)" xlink:href="#DejaVuSans-20"/>
      <use transform="translate(304.248047 0.015625)" xlink:href="#DejaVuSans-53"/>
      <use transform="translate(367.724609 0.015625)" xlink:href="#DejaVuSans-69"/>
      <use transform="translate(395.507812 0.015625)" xlink:href="#DejaVuSans-7a"/>
      <use transform="translate(447.998047 0.015625)" xlink:href="#DejaVuSans-65"/>
      <use transform="translate(509.521484 0.015625)" xlink:href="#DejaVuSans-20"/>
      <use transform="translate(541.308594 0.015625)" xlink:href="#DejaVuSans-28"/>
      <use transform="translate(580.322266 0.015625)" xlink:href="#DejaVuSans-Oblique-66"/>
      <use transform="translate(615.527344 0.015625)" xlink:href="#DejaVuSans-Oblique-6c"/>
      <use transform="translate(643.310547 0.015625)" xlink:href="#DejaVuSans-29"/>
     </g>
    </g>
   </g>
   <g id="line2d_33">
    <path clip-path="url(#pcef237545d)" d="M 63.910937 230.64 
L 66.822242 213.030013 
L 69.733546 194.156644 
L 72.935981 171.857377 
L 77.011807 141.594337 
L 79.923111 120.506388 
L 81.669894 109.517944 
L 82.834416 103.465588 
L 83.707807 99.801995 
L 84.581198 97.012156 
L 85.163459 95.683261 
L 85.74572 94.80366 
L 86.327981 94.387419 
L 86.619111 94.355562 
L 86.910242 94.441622 
L 87.492503 94.965803 
L 88.074764 95.951589 
L 88.657024 97.382543 
L 89.530416 100.308159 
L 90.403807 104.064527 
L 91.568329 110.10491 
L 93.606242 122.283619 
L 95.644155 134.313831 
L 96.808677 140.191041 
L 97.973198 144.890116 
L 98.84659 147.487881 
L 99.428851 148.739326 
L 100.011111 149.5931 
L 100.593372 150.045298 
L 101.175633 150.098392 
L 101.757894 149.760833 
L 102.340155 149.046561 
L 102.922416 147.974484 
L 103.795807 145.747528 
L 104.669198 142.863058 
L 105.83372 138.184979 
L 107.580503 129.979898 
L 111.074068 113.156854 
L 112.23859 108.542738 
L 113.403111 104.873016 
L 114.276503 102.86764 
L 114.858764 101.925225 
L 115.441024 101.315949 
L 116.023285 101.049654 
L 116.605546 101.131219 
L 117.187807 101.560313 
L 117.770068 102.331224 
L 118.352329 103.432784 
L 119.22572 105.66734 
L 120.099111 108.529251 
L 121.263633 113.140789 
L 123.010416 121.13661 
L 125.63059 133.195471 
L 126.795111 137.676251 
L 127.668503 140.41764 
L 128.541894 142.522127 
L 129.124155 143.536644 
L 129.706416 144.224018 
L 130.288677 144.576466 
L 130.870937 144.591738 
L 131.453198 144.272995 
L 132.035459 143.628587 
L 132.61772 142.671757 
L 133.491111 140.690737 
L 134.364503 138.1246 
L 135.529024 133.957843 
L 137.275807 126.650425 
L 140.478242 112.965886 
L 141.642764 108.855514 
L 142.516155 106.332519 
L 143.389546 104.387571 
L 143.971807 103.447275 
L 144.554068 102.810968 
L 145.136329 102.489997 
L 145.71859 102.491051 
L 146.300851 102.815929 
L 146.883111 103.461374 
L 147.465372 104.418985 
L 148.338764 106.409711 
L 149.212155 109.004422 
L 150.376677 113.244286 
L 152.123459 120.708086 
L 155.034764 133.344705 
L 156.199285 137.498287 
L 157.072677 140.008555 
L 157.946068 141.900584 
L 158.528329 142.786124 
L 159.11059 143.35593 
L 159.692851 143.603077 
L 160.275111 143.525984 
L 160.857372 143.128305 
L 161.439633 142.418731 
L 162.021894 141.41072 
L 162.895285 139.379352 
L 163.768677 136.794538 
L 164.933198 132.651476 
L 166.679981 125.480039 
L 169.591285 113.397887 
L 170.755807 109.360967 
L 171.920329 106.163416 
L 172.79372 104.438762 
L 173.375981 103.647039 
L 173.958242 103.158576 
L 174.540503 102.982828 
L 175.122764 103.124543 
L 175.705024 103.583564 
L 176.287285 104.354695 
L 177.160677 106.072731 
L 178.034068 108.412893 
L 179.19859 112.359475 
L 180.654242 118.261549 
L 184.438938 134.389549 
L 185.603459 138.306294 
L 186.476851 140.613902 
L 187.350242 142.289822 
L 187.932503 143.027559 
L 188.514764 143.449215 
L 189.097024 143.550091 
L 189.679285 143.330756 
L 190.261546 142.79691 
L 190.843807 141.959164 
L 191.717198 140.167195 
L 192.59059 137.795561 
L 193.755111 133.884601 
L 195.210764 128.145207 
L 198.995459 112.629007 
L 200.159981 108.798808 
L 201.033372 106.496482 
L 201.906764 104.775782 
L 202.489024 103.984269 
L 203.071285 103.494154 
L 203.653546 103.314982 
L 204.235807 103.451612 
L 204.818068 103.904019 
L 205.400329 104.667159 
L 206.27372 106.371008 
L 207.147111 108.694931 
L 208.311633 112.617918 
L 209.767285 118.48991 
L 213.843111 135.613821 
L 215.007633 139.300088 
L 215.881024 141.402934 
L 216.754416 142.855465 
L 217.336677 143.438093 
L 217.918938 143.702674 
L 218.501198 143.647044 
L 219.083459 143.274242 
L 219.66572 142.592333 
L 220.247981 141.614146 
L 221.121372 139.630239 
L 221.994764 137.094459 
L 223.159285 133.016295 
L 224.906068 125.934629 
L 227.817372 113.964012 
L 228.981894 109.954792 
L 230.146416 106.774478 
L 231.019807 105.055875 
L 231.602068 104.264981 
L 232.184329 103.774867 
L 232.76659 103.595093 
L 233.348851 103.730541 
L 233.931111 104.181213 
L 234.513372 104.942105 
L 235.386764 106.641721 
L 236.260155 108.96054 
L 237.424677 112.87574 
L 238.880329 118.737223 
L 242.956155 135.836074 
L 244.120677 139.51827 
L 244.994068 141.619244 
L 245.867459 143.070937 
L 246.44972 143.653566 
L 247.031981 143.918576 
L 247.614242 143.863782 
L 248.196503 143.492193 
L 248.778764 142.81184 
L 249.361024 141.835517 
L 250.234416 139.854899 
L 251.107807 137.322877 
L 252.272329 133.250219 
L 254.019111 126.177216 
L 256.930416 114.219691 
L 258.094938 110.214502 
L 259.259459 107.037229 
L 260.132851 105.320168 
L 260.715111 104.529926 
L 261.297372 104.040154 
L 261.879633 103.860409 
L 262.461894 103.995574 
L 263.044155 104.445658 
L 263.626416 105.205667 
L 264.499807 106.903437 
L 265.373198 109.21985 
L 266.53772 113.131131 
L 267.993372 118.98695 
L 272.069198 136.07028 
L 273.23372 139.74936 
L 274.107111 141.848625 
L 274.980503 143.2992 
L 275.562764 143.881425 
L 276.145024 144.146306 
L 276.727285 144.091653 
L 277.309546 143.720468 
L 277.891807 143.040771 
L 278.474068 142.065342 
L 279.347459 140.08647 
L 280.220851 137.556616 
L 281.385372 133.487363 
L 283.132155 126.420137 
L 286.043459 114.472147 
L 287.207981 110.47011 
L 288.372503 107.295326 
L 289.245894 105.579607 
L 289.828155 104.789982 
L 290.410416 104.300596 
L 290.992677 104.120995 
L 291.574938 104.256062 
L 292.157198 104.705805 
L 292.739459 105.465235 
L 293.612851 107.161709 
L 294.486242 109.476354 
L 295.650764 113.384653 
L 297.106416 119.236013 
L 301.182242 136.306393 
L 302.346764 139.982688 
L 303.220155 142.08036 
L 304.093546 143.529824 
L 304.675807 144.111595 
L 305.258068 144.376256 
L 305.840329 144.321618 
L 306.42259 143.950681 
L 307.004851 143.271459 
L 307.587111 142.29672 
L 308.460503 140.319261 
L 309.333894 137.79122 
L 310.498416 133.724891 
L 312.245198 126.662751 
L 315.156503 114.72338 
L 316.321024 110.724241 
L 317.485546 107.551768 
L 318.358938 105.837309 
L 318.941198 105.048272 
L 319.523459 104.559258 
L 320.10572 104.379809 
L 320.687981 104.514802 
L 321.270242 104.964247 
L 321.852503 105.723155 
L 322.725894 107.418447 
L 323.599285 109.731466 
L 324.763807 113.637003 
L 326.219459 119.484209 
L 330.295285 136.542383 
L 331.459807 140.216024 
L 332.333198 142.31217 
L 333.20659 143.760566 
L 333.788851 144.341895 
L 334.371111 144.606338 
L 334.953372 144.551709 
L 335.535633 144.181004 
L 336.117894 143.502232 
L 336.700155 142.528153 
L 337.573546 140.552047 
L 338.446938 138.025753 
L 339.611459 133.962246 
L 341.358242 126.905032 
L 344.269546 114.974032 
L 345.434068 110.977712 
L 346.59859 107.807485 
L 347.471981 106.094248 
L 348.054242 105.305779 
L 348.636503 104.817124 
L 349.218764 104.637817 
L 349.801024 104.772733 
L 350.383285 105.221878 
L 350.965546 105.980272 
L 351.838938 107.6744 
L 352.712329 109.985819 
L 353.876851 113.888643 
L 354.750242 117.297287 
L 354.750242 117.297287 
" style="fill:none;stroke:#008000;stroke-dasharray:7.4,3.2;stroke-dashoffset:0;stroke-width:2;"/>
   </g>
   <g id="patch_3">
    <path d="M 63.910937 230.64 
L 63.910937 13.2 
" style="fill:none;stroke:#000000;stroke-linecap:square;stroke-linejoin:miter;stroke-width:2;"/>
   </g>
   <g id="patch_4">
    <path d="M 355.041372 230.64 
L 355.041372 13.2 
" style="fill:none;"/>
   </g>
   <g id="patch_5">
    <path d="M 63.910937 230.64 
L 355.041372 230.64 
" style="fill:none;stroke:#000000;stroke-linecap:square;stroke-linejoin:miter;stroke-width:2;"/>
   </g>
   <g id="patch_6">
    <path d="M 63.910937 13.2 
L 355.041372 13.2 
" style="fill:none;"/>
   </g>
   <g id="legend_1">
    <g id="patch_7">
     <path d="M 220.031997 69.234375 
L 344.541372 69.234375 
Q 347.541372 69.234375 347.541372 66.234375 
L 347.541372 23.7 
Q 347.541372 20.7 344.541372 20.7 
L 220.031997 20.7 
Q 217.031997 20.7 217.031997 23.7 
L 217.031997 66.234375 
Q 217.031997 69.234375 220.031997 69.234375 
z
" style="fill:#ffffff;opacity:0.8;stroke:#cccccc;stroke-linejoin:miter;"/>
    </g>
    <g id="line2d_34">
     <path d="M 223.031997 32.847656 
L 253.031997 32.847656 
" style="fill:none;stroke:#008000;stroke-dasharray:7.4,3.2;stroke-dashoffset:0;stroke-width:2;"/>
    </g>
    <g id="line2d_35"/>
    <g id="text_19">
     <!-- Numerical -->
     <defs>
      <path d="M 9.8125 72.90625 
L 23.09375 72.90625 
L 55.421875 11.921875 
L 55.421875 72.90625 
L 64.984375 72.90625 
L 64.984375 0 
L 51.703125 0 
L 19.390625 60.984375 
L 19.390625 0 
L 9.8125 0 
z
" id="DejaVuSans-4e"/>
      <path d="M 8.5 21.578125 
L 8.5 54.6875 
L 17.484375 54.6875 
L 17.484375 21.921875 
Q 17.484375 14.15625 20.5 10.265625 
Q 23.53125 6.390625 29.59375 6.390625 
Q 36.859375 6.390625 41.078125 11.03125 
Q 45.3125 15.671875 45.3125 23.6875 
L 45.3125 54.6875 
L 54.296875 54.6875 
L 54.296875 0 
L 45.3125 0 
L 45.3125 8.40625 
Q 42.046875 3.421875 37.71875 1 
Q 33.40625 -1.421875 27.6875 -1.421875 
Q 18.265625 -1.421875 13.375 4.4375 
Q 8.5 10.296875 8.5 21.578125 
z
M 31.109375 56 
z
" id="DejaVuSans-75"/>
      <path d="M 52 44.1875 
Q 55.375 50.25 60.0625 53.125 
Q 64.75 56 71.09375 56 
Q 79.640625 56 84.28125 50.015625 
Q 88.921875 44.046875 88.921875 33.015625 
L 88.921875 0 
L 79.890625 0 
L 79.890625 32.71875 
Q 79.890625 40.578125 77.09375 44.375 
Q 74.3125 48.1875 68.609375 48.1875 
Q 61.625 48.1875 57.5625 43.546875 
Q 53.515625 38.921875 53.515625 30.90625 
L 53.515625 0 
L 44.484375 0 
L 44.484375 32.71875 
Q 44.484375 40.625 41.703125 44.40625 
Q 38.921875 48.1875 33.109375 48.1875 
Q 26.21875 48.1875 22.15625 43.53125 
Q 18.109375 38.875 18.109375 30.90625 
L 18.109375 0 
L 9.078125 0 
L 9.078125 54.6875 
L 18.109375 54.6875 
L 18.109375 46.1875 
Q 21.1875 51.21875 25.484375 53.609375 
Q 29.78125 56 35.6875 56 
Q 41.65625 56 45.828125 52.96875 
Q 50 49.953125 52 44.1875 
z
" id="DejaVuSans-6d"/>
      <path d="M 41.109375 46.296875 
Q 39.59375 47.171875 37.8125 47.578125 
Q 36.03125 48 33.890625 48 
Q 26.265625 48 22.1875 43.046875 
Q 18.109375 38.09375 18.109375 28.8125 
L 18.109375 0 
L 9.078125 0 
L 9.078125 54.6875 
L 18.109375 54.6875 
L 18.109375 46.1875 
Q 20.953125 51.171875 25.484375 53.578125 
Q 30.03125 56 36.53125 56 
Q 37.453125 56 38.578125 55.875 
Q 39.703125 55.765625 41.0625 55.515625 
z
" id="DejaVuSans-72"/>
      <path d="M 48.78125 52.59375 
L 48.78125 44.1875 
Q 44.96875 46.296875 41.140625 47.34375 
Q 37.3125 48.390625 33.40625 48.390625 
Q 24.65625 48.390625 19.8125 42.84375 
Q 14.984375 37.3125 14.984375 27.296875 
Q 14.984375 17.28125 19.8125 11.734375 
Q 24.65625 6.203125 33.40625 6.203125 
Q 37.3125 6.203125 41.140625 7.25 
Q 44.96875 8.296875 48.78125 10.40625 
L 48.78125 2.09375 
Q 45.015625 0.34375 40.984375 -0.53125 
Q 36.96875 -1.421875 32.421875 -1.421875 
Q 20.0625 -1.421875 12.78125 6.34375 
Q 5.515625 14.109375 5.515625 27.296875 
Q 5.515625 40.671875 12.859375 48.328125 
Q 20.21875 56 33.015625 56 
Q 37.15625 56 41.109375 55.140625 
Q 45.0625 54.296875 48.78125 52.59375 
z
" id="DejaVuSans-63"/>
      <path d="M 9.421875 75.984375 
L 18.40625 75.984375 
L 18.40625 0 
L 9.421875 0 
z
" id="DejaVuSans-6c"/>
     </defs>
     <g transform="translate(265.031997 38.097656)scale(0.15 -0.15)">
      <use xlink:href="#DejaVuSans-4e"/>
      <use x="74.804688" xlink:href="#DejaVuSans-75"/>
      <use x="138.183594" xlink:href="#DejaVuSans-6d"/>
      <use x="235.595703" xlink:href="#DejaVuSans-65"/>
      <use x="297.119141" xlink:href="#DejaVuSans-72"/>
      <use x="338.232422" xlink:href="#DejaVuSans-69"/>
      <use x="366.015625" xlink:href="#DejaVuSans-63"/>
      <use x="420.996094" xlink:href="#DejaVuSans-61"/>
      <use x="482.275391" xlink:href="#DejaVuSans-6c"/>
     </g>
    </g>
    <g id="patch_8">
     <path d="M 223.031997 60.114844 
L 253.031997 60.114844 
L 253.031997 49.614844 
L 223.031997 49.614844 
z
" style="fill:#4db8ff;"/>
    </g>
    <g id="text_20">
     <!-- SSA -->
     <defs>
      <path d="M 34.1875 63.1875 
L 20.796875 26.90625 
L 47.609375 26.90625 
z
M 28.609375 72.90625 
L 39.796875 72.90625 
L 67.578125 0 
L 57.328125 0 
L 50.6875 18.703125 
L 17.828125 18.703125 
L 11.1875 0 
L 0.78125 0 
z
" id="DejaVuSans-41"/>
     </defs>
     <g transform="translate(265.031997 60.114844)scale(0.15 -0.15)">
      <use xlink:href="#DejaVuSans-53"/>
      <use x="63.476562" xlink:href="#DejaVuSans-53"/>
      <use x="126.96875" xlink:href="#DejaVuSans-41"/>
     </g>
    </g>
   </g>
  </g>
  <g id="axes_2">
   <g id="patch_9">
    <path d="M 442.380503 230.64 
L 733.510938 230.64 
L 733.510938 13.2 
L 442.380503 13.2 
z
" style="fill:#ffffff;"/>
   </g>
   <g id="PolyCollection_2">
    <defs>
     <path d="M 442.553171 -54.642146 
L 442.553171 -54.630516 
L 445.629201 -54.612373 
L 448.939683 -54.601403 
L 452.355449 -54.92504 
L 455.43788 -55.240907 
L 458.845539 -62.33668 
L 461.888149 -76.423006 
L 465.326195 -108.731753 
L 468.444333 -158.045945 
L 471.609357 -199.833101 
L 475.051552 -208.725334 
L 478.048979 -171.656149 
L 481.4543 -121.143368 
L 484.472348 -85.588671 
L 487.703239 -72.786968 
L 490.919101 -91.133811 
L 494.251172 -118.175637 
L 497.467359 -162.740952 
L 500.66552 -199.432692 
L 503.947905 -209.015879 
L 507.345082 -179.220109 
L 510.366097 -127.809471 
L 513.812182 -90.716278 
L 517.087971 -80.408505 
L 520.583927 -95.590543 
L 523.260104 -124.351478 
L 526.687938 -164.901831 
L 529.995991 -198.222979 
L 533.237378 -209.681862 
L 536.204386 -187.031326 
L 539.549369 -142.075107 
L 543.109654 -92.897965 
L 546.04527 -75.758278 
L 549.217489 -92.456704 
L 552.369016 -125.636699 
L 555.608834 -161.735711 
L 558.840058 -197.782059 
L 562.113107 -209.009724 
L 565.415971 -179.718608 
L 568.942098 -139.900127 
L 572.29481 -111.304219 
L 575.061135 -92.758299 
L 578.304599 -95.360273 
L 581.478188 -122.269584 
L 584.771656 -161.753389 
L 588.012336 -200.05598 
L 591.277109 -211.213455 
L 594.616956 -188.202138 
L 597.793869 -140.97426 
L 600.915286 -98.864641 
L 604.132381 -91.166583 
L 607.543848 -94.201413 
L 610.650446 -122.914187 
L 613.882342 -158.368096 
L 617.166614 -196.520173 
L 620.302077 -211.183879 
L 623.70418 -184.770303 
L 627.067757 -135.90158 
L 630.004563 -101.113014 
L 633.308973 -90.219512 
L 636.496394 -100.665873 
L 639.925948 -126.328503 
L 643.016849 -166.845073 
L 646.182257 -200.01573 
L 649.417548 -208.847959 
L 652.678602 -182.878276 
L 655.9516 -143.999848 
L 659.167708 -103.411502 
L 662.858809 -86.30658 
L 665.661025 -101.06903 
L 669.26532 -127.466907 
L 672.25291 -166.208539 
L 675.538555 -201.386542 
L 678.527594 -208.80667 
L 681.764582 -186.733134 
L 685.383542 -139.781785 
L 688.44623 -98.053152 
L 691.640115 -93.884202 
L 694.929052 -97.980764 
L 698.287118 -128.382732 
L 701.541012 -164.77518 
L 704.863152 -200.634223 
L 708.156332 -210.246813 
L 711.159777 -181.838834 
L 715.232428 -130.58734 
L 717.402632 -95.463624 
L 721.208578 -88.403704 
L 723.904009 -100.108318 
L 727.235917 -122.321093 
L 730.491766 -167.015747 
L 730.491766 -200.230339 
L 730.491766 -200.230339 
L 727.235917 -140.843429 
L 723.904009 -111.946423 
L 721.208578 -96.9177 
L 717.402632 -105.964841 
L 715.232428 -151.709269 
L 711.159777 -220.246025 
L 708.156332 -259.005678 
L 704.863152 -245.833391 
L 701.541012 -197.217969 
L 698.287118 -148.805769 
L 694.929052 -109.203687 
L 691.640115 -103.936037 
L 688.44623 -109.296929 
L 685.383542 -163.860833 
L 681.764582 -226.887027 
L 678.527594 -257.028608 
L 675.538555 -246.862243 
L 672.25291 -199.144671 
L 669.26532 -147.600795 
L 665.661025 -113.186451 
L 662.858809 -94.241288 
L 659.167708 -116.213874 
L 655.9516 -169.457754 
L 652.678602 -221.655114 
L 649.417548 -257.085273 
L 646.182257 -244.987821 
L 643.016849 -200.00075 
L 639.925948 -146.103944 
L 636.496394 -112.665966 
L 633.308973 -99.239253 
L 630.004563 -113.243245 
L 627.067757 -158.724456 
L 623.70418 -224.221808 
L 620.302077 -260.292787 
L 617.166614 -240.213395 
L 613.882342 -188.623348 
L 610.650446 -141.621119 
L 607.543848 -104.343284 
L 604.132381 -100.451606 
L 600.915286 -110.342569 
L 597.793869 -165.441727 
L 594.616956 -228.883346 
L 591.277109 -260.33342 
L 588.012336 -245.042841 
L 584.771656 -193.16084 
L 581.478188 -140.775902 
L 578.304599 -105.832002 
L 575.061135 -102.491451 
L 572.29481 -126.453927 
L 568.942098 -164.017673 
L 565.415971 -217.374018 
L 562.113107 -257.30729 
L 558.840058 -241.936062 
L 555.608834 -193.137123 
L 552.369016 -145.194843 
L 549.217489 -102.104728 
L 546.04527 -80.863348 
L 543.109654 -102.670573 
L 539.549369 -166.902125 
L 536.204386 -227.292145 
L 533.237378 -258.229946 
L 529.995991 -242.538223 
L 526.687938 -197.388154 
L 523.260104 -143.507005 
L 520.583927 -106.127989 
L 517.087971 -86.74296 
L 513.812182 -99.87504 
L 510.366097 -148.051434 
L 507.345082 -216.699196 
L 503.947905 -257.315738 
L 500.66552 -244.190943 
L 497.467359 -194.486058 
L 494.251172 -135.41624 
L 490.919101 -100.409637 
L 487.703239 -77.122769 
L 484.472348 -93.326281 
L 481.4543 -139.300043 
L 478.048979 -206.480262 
L 475.051552 -256.916986 
L 471.609357 -244.738187 
L 468.444333 -188.191978 
L 465.326195 -123.109856 
L 461.888149 -81.701958 
L 458.845539 -64.085425 
L 455.43788 -55.380133 
L 452.355449 -54.997722 
L 448.939683 -54.607085 
L 445.629201 -54.620293 
L 442.553171 -54.642146 
z
" id="m1834f2c7ae"/>
    </defs>
    <g clip-path="url(#p1eff0aae28)">
     <use style="fill:#4db8ff;" x="0" xlink:href="#m1834f2c7ae" y="285.213437"/>
    </g>
   </g>
   <g id="matplotlib.axis_3">
    <g id="xtick_12">
     <g id="line2d_36">
      <path clip-path="url(#p1eff0aae28)" d="M 442.380503 230.64 
L 442.380503 13.2 
" style="fill:none;stroke:#b0b0b0;stroke-linecap:square;stroke-width:0.8;"/>
     </g>
     <g id="line2d_37">
      <g>
       <use x="442.380503" xlink:href="#m5b63709813" y="230.64"/>
      </g>
     </g>
     <g id="text_21">
      <!-- 0 -->
      <g transform="translate(437.608628 251.537656)scale(0.15 -0.15)">
       <use xlink:href="#DejaVuSans-30"/>
      </g>
     </g>
    </g>
    <g id="xtick_13">
     <g id="line2d_38">
      <path clip-path="url(#p1eff0aae28)" d="M 471.493546 230.64 
L 471.493546 13.2 
" style="fill:none;stroke:#b0b0b0;stroke-linecap:square;stroke-width:0.8;"/>
     </g>
     <g id="line2d_39">
      <g>
       <use x="471.493546" xlink:href="#m5b63709813" y="230.64"/>
      </g>
     </g>
     <g id="text_22">
      <!-- 1 -->
      <g transform="translate(466.721671 251.537656)scale(0.15 -0.15)">
       <use xlink:href="#DejaVuSans-31"/>
      </g>
     </g>
    </g>
    <g id="xtick_14">
     <g id="line2d_40">
      <path clip-path="url(#p1eff0aae28)" d="M 500.60659 230.64 
L 500.60659 13.2 
" style="fill:none;stroke:#b0b0b0;stroke-linecap:square;stroke-width:0.8;"/>
     </g>
     <g id="line2d_41">
      <g>
       <use x="500.60659" xlink:href="#m5b63709813" y="230.64"/>
      </g>
     </g>
     <g id="text_23">
      <!-- 2 -->
      <g transform="translate(495.834715 251.537656)scale(0.15 -0.15)">
       <use xlink:href="#DejaVuSans-32"/>
      </g>
     </g>
    </g>
    <g id="xtick_15">
     <g id="line2d_42">
      <path clip-path="url(#p1eff0aae28)" d="M 529.719633 230.64 
L 529.719633 13.2 
" style="fill:none;stroke:#b0b0b0;stroke-linecap:square;stroke-width:0.8;"/>
     </g>
     <g id="line2d_43">
      <g>
       <use x="529.719633" xlink:href="#m5b63709813" y="230.64"/>
      </g>
     </g>
     <g id="text_24">
      <!-- 3 -->
      <g transform="translate(524.947758 251.537656)scale(0.15 -0.15)">
       <use xlink:href="#DejaVuSans-33"/>
      </g>
     </g>
    </g>
    <g id="xtick_16">
     <g id="line2d_44">
      <path clip-path="url(#p1eff0aae28)" d="M 558.832677 230.64 
L 558.832677 13.2 
" style="fill:none;stroke:#b0b0b0;stroke-linecap:square;stroke-width:0.8;"/>
     </g>
     <g id="line2d_45">
      <g>
       <use x="558.832677" xlink:href="#m5b63709813" y="230.64"/>
      </g>
     </g>
     <g id="text_25">
      <!-- 4 -->
      <g transform="translate(554.060802 251.537656)scale(0.15 -0.15)">
       <use xlink:href="#DejaVuSans-34"/>
      </g>
     </g>
    </g>
    <g id="xtick_17">
     <g id="line2d_46">
      <path clip-path="url(#p1eff0aae28)" d="M 587.94572 230.64 
L 587.94572 13.2 
" style="fill:none;stroke:#b0b0b0;stroke-linecap:square;stroke-width:0.8;"/>
     </g>
     <g id="line2d_47">
      <g>
       <use x="587.94572" xlink:href="#m5b63709813" y="230.64"/>
      </g>
     </g>
     <g id="text_26">
      <!-- 5 -->
      <g transform="translate(583.173845 251.537656)scale(0.15 -0.15)">
       <use xlink:href="#DejaVuSans-35"/>
      </g>
     </g>
    </g>
    <g id="xtick_18">
     <g id="line2d_48">
      <path clip-path="url(#p1eff0aae28)" d="M 617.058764 230.64 
L 617.058764 13.2 
" style="fill:none;stroke:#b0b0b0;stroke-linecap:square;stroke-width:0.8;"/>
     </g>
     <g id="line2d_49">
      <g>
       <use x="617.058764" xlink:href="#m5b63709813" y="230.64"/>
      </g>
     </g>
     <g id="text_27">
      <!-- 6 -->
      <g transform="translate(612.286889 251.537656)scale(0.15 -0.15)">
       <use xlink:href="#DejaVuSans-36"/>
      </g>
     </g>
    </g>
    <g id="xtick_19">
     <g id="line2d_50">
      <path clip-path="url(#p1eff0aae28)" d="M 646.171807 230.64 
L 646.171807 13.2 
" style="fill:none;stroke:#b0b0b0;stroke-linecap:square;stroke-width:0.8;"/>
     </g>
     <g id="line2d_51">
      <g>
       <use x="646.171807" xlink:href="#m5b63709813" y="230.64"/>
      </g>
     </g>
     <g id="text_28">
      <!-- 7 -->
      <g transform="translate(641.399932 251.537656)scale(0.15 -0.15)">
       <use xlink:href="#DejaVuSans-37"/>
      </g>
     </g>
    </g>
    <g id="xtick_20">
     <g id="line2d_52">
      <path clip-path="url(#p1eff0aae28)" d="M 675.284851 230.64 
L 675.284851 13.2 
" style="fill:none;stroke:#b0b0b0;stroke-linecap:square;stroke-width:0.8;"/>
     </g>
     <g id="line2d_53">
      <g>
       <use x="675.284851" xlink:href="#m5b63709813" y="230.64"/>
      </g>
     </g>
     <g id="text_29">
      <!-- 8 -->
      <g transform="translate(670.512976 251.537656)scale(0.15 -0.15)">
       <use xlink:href="#DejaVuSans-38"/>
      </g>
     </g>
    </g>
    <g id="xtick_21">
     <g id="line2d_54">
      <path clip-path="url(#p1eff0aae28)" d="M 704.397894 230.64 
L 704.397894 13.2 
" style="fill:none;stroke:#b0b0b0;stroke-linecap:square;stroke-width:0.8;"/>
     </g>
     <g id="line2d_55">
      <g>
       <use x="704.397894" xlink:href="#m5b63709813" y="230.64"/>
      </g>
     </g>
     <g id="text_30">
      <!-- 9 -->
      <g transform="translate(699.626019 251.537656)scale(0.15 -0.15)">
       <use xlink:href="#DejaVuSans-39"/>
      </g>
     </g>
    </g>
    <g id="xtick_22">
     <g id="line2d_56">
      <path clip-path="url(#p1eff0aae28)" d="M 733.510938 230.64 
L 733.510938 13.2 
" style="fill:none;stroke:#b0b0b0;stroke-linecap:square;stroke-width:0.8;"/>
     </g>
     <g id="line2d_57">
      <g>
       <use x="733.510938" xlink:href="#m5b63709813" y="230.64"/>
      </g>
     </g>
     <g id="text_31">
      <!-- 10 -->
      <g transform="translate(723.967188 251.537656)scale(0.15 -0.15)">
       <use xlink:href="#DejaVuSans-31"/>
       <use x="63.623047" xlink:href="#DejaVuSans-30"/>
      </g>
     </g>
    </g>
    <g id="text_32">
     <!-- $t/\tau$ -->
     <g transform="translate(574.54572 273.854062)scale(0.2 -0.2)">
      <use transform="translate(0 0.09375)" xlink:href="#DejaVuSans-Oblique-74"/>
      <use transform="translate(39.208984 0.09375)" xlink:href="#DejaVuSans-2f"/>
      <use transform="translate(72.900391 0.09375)" xlink:href="#DejaVuSans-Oblique-3c4"/>
     </g>
    </g>
   </g>
   <g id="matplotlib.axis_4">
    <g id="ytick_6">
     <g id="line2d_58">
      <path clip-path="url(#p1eff0aae28)" d="M 442.380503 230.64 
L 733.510938 230.64 
" style="fill:none;stroke:#b0b0b0;stroke-linecap:square;stroke-width:0.8;"/>
     </g>
     <g id="line2d_59">
      <g>
       <use x="442.380503" xlink:href="#m9f25945dca" y="230.64"/>
      </g>
     </g>
     <g id="text_33">
      <!-- 0.00 -->
      <g transform="translate(399.482065 236.338828)scale(0.15 -0.15)">
       <use xlink:href="#DejaVuSans-30"/>
       <use x="63.623047" xlink:href="#DejaVuSans-2e"/>
       <use x="95.410156" xlink:href="#DejaVuSans-30"/>
       <use x="159.033203" xlink:href="#DejaVuSans-30"/>
      </g>
     </g>
    </g>
    <g id="ytick_7">
     <g id="line2d_60">
      <path clip-path="url(#p1eff0aae28)" d="M 442.380503 201.728405 
L 733.510938 201.728405 
" style="fill:none;stroke:#b0b0b0;stroke-linecap:square;stroke-width:0.8;"/>
     </g>
     <g id="line2d_61">
      <g>
       <use x="442.380503" xlink:href="#m9f25945dca" y="201.728405"/>
      </g>
     </g>
     <g id="text_34">
      <!-- 0.02 -->
      <g transform="translate(399.482065 207.427233)scale(0.15 -0.15)">
       <use xlink:href="#DejaVuSans-30"/>
       <use x="63.623047" xlink:href="#DejaVuSans-2e"/>
       <use x="95.410156" xlink:href="#DejaVuSans-30"/>
       <use x="159.033203" xlink:href="#DejaVuSans-32"/>
      </g>
     </g>
    </g>
    <g id="ytick_8">
     <g id="line2d_62">
      <path clip-path="url(#p1eff0aae28)" d="M 442.380503 172.81681 
L 733.510938 172.81681 
" style="fill:none;stroke:#b0b0b0;stroke-linecap:square;stroke-width:0.8;"/>
     </g>
     <g id="line2d_63">
      <g>
       <use x="442.380503" xlink:href="#m9f25945dca" y="172.81681"/>
      </g>
     </g>
     <g id="text_35">
      <!-- 0.04 -->
      <g transform="translate(399.482065 178.515638)scale(0.15 -0.15)">
       <use xlink:href="#DejaVuSans-30"/>
       <use x="63.623047" xlink:href="#DejaVuSans-2e"/>
       <use x="95.410156" xlink:href="#DejaVuSans-30"/>
       <use x="159.033203" xlink:href="#DejaVuSans-34"/>
      </g>
     </g>
    </g>
    <g id="ytick_9">
     <g id="line2d_64">
      <path clip-path="url(#p1eff0aae28)" d="M 442.380503 143.905215 
L 733.510938 143.905215 
" style="fill:none;stroke:#b0b0b0;stroke-linecap:square;stroke-width:0.8;"/>
     </g>
     <g id="line2d_65">
      <g>
       <use x="442.380503" xlink:href="#m9f25945dca" y="143.905215"/>
      </g>
     </g>
     <g id="text_36">
      <!-- 0.06 -->
      <g transform="translate(399.482065 149.604044)scale(0.15 -0.15)">
       <use xlink:href="#DejaVuSans-30"/>
       <use x="63.623047" xlink:href="#DejaVuSans-2e"/>
       <use x="95.410156" xlink:href="#DejaVuSans-30"/>
       <use x="159.033203" xlink:href="#DejaVuSans-36"/>
      </g>
     </g>
    </g>
    <g id="ytick_10">
     <g id="line2d_66">
      <path clip-path="url(#p1eff0aae28)" d="M 442.380503 114.993621 
L 733.510938 114.993621 
" style="fill:none;stroke:#b0b0b0;stroke-linecap:square;stroke-width:0.8;"/>
     </g>
     <g id="line2d_67">
      <g>
       <use x="442.380503" xlink:href="#m9f25945dca" y="114.993621"/>
      </g>
     </g>
     <g id="text_37">
      <!-- 0.08 -->
      <g transform="translate(399.482065 120.692449)scale(0.15 -0.15)">
       <use xlink:href="#DejaVuSans-30"/>
       <use x="63.623047" xlink:href="#DejaVuSans-2e"/>
       <use x="95.410156" xlink:href="#DejaVuSans-30"/>
       <use x="159.033203" xlink:href="#DejaVuSans-38"/>
      </g>
     </g>
    </g>
    <g id="ytick_11">
     <g id="line2d_68">
      <path clip-path="url(#p1eff0aae28)" d="M 442.380503 86.082026 
L 733.510938 86.082026 
" style="fill:none;stroke:#b0b0b0;stroke-linecap:square;stroke-width:0.8;"/>
     </g>
     <g id="line2d_69">
      <g>
       <use x="442.380503" xlink:href="#m9f25945dca" y="86.082026"/>
      </g>
     </g>
     <g id="text_38">
      <!-- 0.10 -->
      <g transform="translate(399.482065 91.780854)scale(0.15 -0.15)">
       <use xlink:href="#DejaVuSans-30"/>
       <use x="63.623047" xlink:href="#DejaVuSans-2e"/>
       <use x="95.410156" xlink:href="#DejaVuSans-31"/>
       <use x="159.033203" xlink:href="#DejaVuSans-30"/>
      </g>
     </g>
    </g>
    <g id="ytick_12">
     <g id="line2d_70">
      <path clip-path="url(#p1eff0aae28)" d="M 442.380503 57.170431 
L 733.510938 57.170431 
" style="fill:none;stroke:#b0b0b0;stroke-linecap:square;stroke-width:0.8;"/>
     </g>
     <g id="line2d_71">
      <g>
       <use x="442.380503" xlink:href="#m9f25945dca" y="57.170431"/>
      </g>
     </g>
     <g id="text_39">
      <!-- 0.12 -->
      <g transform="translate(399.482065 62.869259)scale(0.15 -0.15)">
       <use xlink:href="#DejaVuSans-30"/>
       <use x="63.623047" xlink:href="#DejaVuSans-2e"/>
       <use x="95.410156" xlink:href="#DejaVuSans-31"/>
       <use x="159.033203" xlink:href="#DejaVuSans-32"/>
      </g>
     </g>
    </g>
    <g id="ytick_13">
     <g id="line2d_72">
      <path clip-path="url(#p1eff0aae28)" d="M 442.380503 28.258836 
L 733.510938 28.258836 
" style="fill:none;stroke:#b0b0b0;stroke-linecap:square;stroke-width:0.8;"/>
     </g>
     <g id="line2d_73">
      <g>
       <use x="442.380503" xlink:href="#m9f25945dca" y="28.258836"/>
      </g>
     </g>
     <g id="text_40">
      <!-- 0.14 -->
      <g transform="translate(399.482065 33.957664)scale(0.15 -0.15)">
       <use xlink:href="#DejaVuSans-30"/>
       <use x="63.623047" xlink:href="#DejaVuSans-2e"/>
       <use x="95.410156" xlink:href="#DejaVuSans-31"/>
       <use x="159.033203" xlink:href="#DejaVuSans-34"/>
      </g>
     </g>
    </g>
    <g id="text_41">
     <!-- $C_V^2(s)$ -->
     <defs>
      <path d="M 69.484375 67.28125 
L 67.484375 56.890625 
Q 62.796875 61.625 57.546875 63.921875 
Q 52.296875 66.21875 46.1875 66.21875 
Q 37.84375 66.21875 31.515625 62.203125 
Q 25.203125 58.203125 20.609375 50 
Q 17.671875 44.734375 16.125 38.84375 
Q 14.59375 32.953125 14.59375 27 
Q 14.59375 17.046875 19.75 11.8125 
Q 24.90625 6.59375 34.71875 6.59375 
Q 41.5 6.59375 47.75 8.765625 
Q 54 10.9375 59.90625 15.28125 
L 57.625 3.609375 
Q 51.8125 1.125 45.875 -0.140625 
Q 39.9375 -1.421875 33.984375 -1.421875 
Q 19.96875 -1.421875 12.078125 6.1875 
Q 4.203125 13.8125 4.203125 27.390625 
Q 4.203125 36.078125 7.203125 44.46875 
Q 10.203125 52.875 15.828125 59.8125 
Q 21.78125 67.1875 29.421875 70.703125 
Q 37.0625 74.21875 47.21875 74.21875 
Q 53.46875 74.21875 59.0625 72.484375 
Q 64.65625 70.75 69.484375 67.28125 
z
" id="DejaVuSans-Oblique-43"/>
      <path d="M 20.609375 0 
L 7.8125 72.90625 
L 17.484375 72.90625 
L 28.078125 10.203125 
L 63.484375 72.90625 
L 74.21875 72.90625 
L 32.078125 0 
z
" id="DejaVuSans-Oblique-56"/>
      <path d="M 50 53.078125 
L 48.296875 44.578125 
Q 44.734375 46.53125 40.765625 47.5 
Q 36.8125 48.484375 32.625 48.484375 
Q 25.53125 48.484375 21.453125 46.0625 
Q 17.390625 43.65625 17.390625 39.5 
Q 17.390625 34.671875 26.859375 32.078125 
Q 27.59375 31.890625 27.9375 31.78125 
L 30.8125 30.90625 
Q 39.796875 28.421875 42.796875 25.6875 
Q 45.796875 22.953125 45.796875 18.21875 
Q 45.796875 9.515625 38.890625 4.046875 
Q 31.984375 -1.421875 20.796875 -1.421875 
Q 16.453125 -1.421875 11.671875 -0.578125 
Q 6.890625 0.25 1.125 2 
L 2.875 11.28125 
Q 7.8125 8.734375 12.59375 7.421875 
Q 17.390625 6.109375 21.78125 6.109375 
Q 28.375 6.109375 32.5 8.9375 
Q 36.625 11.765625 36.625 16.109375 
Q 36.625 20.796875 25.78125 23.6875 
L 24.859375 23.921875 
L 21.78125 24.703125 
Q 14.9375 26.515625 11.765625 29.46875 
Q 8.59375 32.421875 8.59375 37.015625 
Q 8.59375 45.75 15.15625 50.875 
Q 21.734375 56 33.015625 56 
Q 37.453125 56 41.671875 55.265625 
Q 45.90625 54.546875 50 53.078125 
z
" id="DejaVuSans-Oblique-73"/>
     </defs>
     <g transform="translate(389.882065 147.42)rotate(-90)scale(0.2 -0.2)">
      <use transform="translate(0 0.765625)" xlink:href="#DejaVuSans-Oblique-43"/>
      <use transform="translate(77.02474 39.046875)scale(0.7)" xlink:href="#DejaVuSans-32"/>
      <use transform="translate(69.824219 -26.578125)scale(0.7)" xlink:href="#DejaVuSans-Oblique-56"/>
      <use transform="translate(124.295247 0.765625)" xlink:href="#DejaVuSans-28"/>
      <use transform="translate(163.308919 0.765625)" xlink:href="#DejaVuSans-Oblique-73"/>
      <use transform="translate(215.408529 0.765625)" xlink:href="#DejaVuSans-29"/>
     </g>
    </g>
   </g>
   <g id="line2d_74">
    <path clip-path="url(#p1eff0aae28)" d="M 442.380503 230.64 
L 451.696677 230.543322 
L 453.152329 230.306205 
L 454.316851 229.859745 
L 455.190242 229.262069 
L 456.063633 228.326185 
L 456.937024 226.924419 
L 457.810416 224.907114 
L 458.683807 222.107458 
L 459.557198 218.349217 
L 460.43059 213.457269 
L 461.303981 207.270654 
L 462.177372 199.65765 
L 463.341894 187.148293 
L 464.506416 171.935788 
L 465.962068 149.526903 
L 468.291111 109.119983 
L 470.037894 80.239341 
L 471.202416 64.701917 
L 472.075807 56.211538 
L 472.658068 52.405975 
L 473.240329 50.251432 
L 473.531459 49.824855 
L 473.82259 49.842681 
L 474.11372 50.308616 
L 474.404851 51.222782 
L 474.987111 54.377886 
L 475.569372 59.23514 
L 476.442764 69.41283 
L 477.316155 82.462991 
L 478.771807 108.260447 
L 481.391981 155.428341 
L 482.556503 172.512368 
L 483.429894 182.897324 
L 484.303285 191.0456 
L 485.176677 196.952705 
L 485.758938 199.680562 
L 486.341198 201.478389 
L 486.923459 202.383679 
L 487.21459 202.513608 
L 487.50572 202.434669 
L 487.796851 202.151398 
L 488.379111 200.989122 
L 488.961372 199.059284 
L 489.543633 196.391211 
L 490.417024 191.062649 
L 491.290416 184.216551 
L 492.454938 172.878762 
L 493.619459 159.251538 
L 495.075111 139.563878 
L 500.024329 68.879884 
L 500.89772 60.019319 
L 501.771111 53.596185 
L 502.353372 50.896094 
L 502.644503 50.062411 
L 502.935633 49.587256 
L 503.226764 49.478657 
L 503.517894 49.74229 
L 503.809024 50.381323 
L 504.391285 52.785046 
L 504.973546 56.661236 
L 505.555807 61.936838 
L 506.429198 72.208708 
L 507.59372 89.402557 
L 509.922764 129.215023 
L 511.669546 156.90268 
L 512.834068 171.826224 
L 513.707459 180.642618 
L 514.580851 187.28217 
L 515.163111 190.488932 
L 515.745372 192.734495 
L 516.327633 194.04252 
L 516.618764 194.354122 
L 516.909894 194.442858 
L 517.201024 194.312976 
L 517.492155 193.96881 
L 518.074416 192.655127 
L 518.656677 190.536742 
L 519.238938 187.648181 
L 520.112329 181.945934 
L 520.98572 174.704323 
L 522.150242 162.873384 
L 523.605894 145.103895 
L 525.643807 116.465064 
L 528.263981 79.421877 
L 529.428503 65.78296 
L 530.301894 57.767961 
L 530.884155 53.756082 
L 531.466416 50.960301 
L 532.048677 49.485676 
L 532.339807 49.269002 
L 532.630937 49.408794 
L 532.922068 49.90926 
L 533.213198 50.772191 
L 533.795459 53.579931 
L 534.37772 57.794808 
L 535.251111 66.570973 
L 536.124503 77.890946 
L 537.289024 95.879729 
L 541.07372 157.344633 
L 542.238242 171.702968 
L 543.111633 180.093018 
L 543.985024 186.312269 
L 544.567285 189.243455 
L 545.149546 191.217162 
L 545.731807 192.256746 
L 546.022937 192.435298 
L 546.314068 192.391716 
L 546.605198 192.130232 
L 547.187459 190.970968 
L 547.76972 188.992788 
L 548.351981 186.231258 
L 549.225372 180.69824 
L 550.098764 173.605737 
L 551.263285 161.952904 
L 552.718938 144.389043 
L 554.46572 120.230784 
L 557.377024 79.270487 
L 558.541546 65.704568 
L 559.414938 57.709411 
L 559.997198 53.691759 
L 560.579459 50.874319 
L 561.16172 49.362297 
L 561.452851 49.121268 
L 561.743981 49.23316 
L 562.035111 49.702414 
L 562.326242 50.531097 
L 562.908503 53.262562 
L 563.490764 57.393387 
L 564.364155 66.036697 
L 565.237546 77.227187 
L 566.402068 95.069753 
L 570.186764 156.438235 
L 571.351285 170.870604 
L 572.224677 179.331127 
L 573.098068 185.625551 
L 573.680329 188.60651 
L 574.26259 190.628147 
L 574.844851 191.71288 
L 575.135981 191.912762 
L 575.427111 191.889614 
L 575.718242 191.64764 
L 576.009372 191.191163 
L 576.591633 189.652352 
L 577.173894 187.308818 
L 578.047285 182.36324 
L 578.920677 175.810668 
L 580.085198 164.79933 
L 581.24972 151.514312 
L 582.705372 132.400479 
L 587.363459 68.704054 
L 588.236851 60.015029 
L 589.110242 53.575156 
L 589.692503 50.752248 
L 590.274764 49.231645 
L 590.565894 48.985223 
L 590.857024 49.091042 
L 591.148155 49.553596 
L 591.439285 50.375017 
L 592.021546 53.090572 
L 592.603807 57.204222 
L 593.477198 65.82113 
L 594.35059 76.986962 
L 595.515111 94.803879 
L 599.299807 156.178016 
L 600.464329 170.634277 
L 601.33772 179.115118 
L 602.211111 185.42993 
L 602.793372 188.42381 
L 603.375633 190.457465 
L 603.957894 191.553096 
L 604.249024 191.757963 
L 604.540155 191.739477 
L 604.831285 191.501837 
L 605.122416 191.049365 
L 605.704677 189.517589 
L 606.286938 187.179841 
L 607.160329 182.240801 
L 608.03372 175.692553 
L 609.198242 164.684292 
L 610.362764 151.400184 
L 611.818416 132.28565 
L 616.476503 68.580729 
L 617.349894 59.889109 
L 618.223285 53.446289 
L 618.805546 50.621266 
L 619.387807 49.098489 
L 619.678938 48.850981 
L 619.970068 48.955731 
L 620.261198 49.417246 
L 620.552329 50.23767 
L 621.13459 52.951426 
L 621.716851 57.063646 
L 622.590242 65.679393 
L 623.463633 76.845615 
L 624.628155 94.665981 
L 628.412851 156.072324 
L 629.577372 170.541148 
L 630.450764 179.030738 
L 631.324155 185.353196 
L 631.906416 188.35139 
L 632.488677 190.388653 
L 633.070938 191.487148 
L 633.362068 191.693163 
L 633.653198 191.675633 
L 633.944329 191.43876 
L 634.235459 190.986867 
L 634.81772 189.4557 
L 635.399981 187.117854 
L 636.273372 182.17743 
L 637.146764 175.626459 
L 638.311285 164.61279 
L 639.475807 151.321641 
L 640.931459 132.196691 
L 645.589546 68.457073 
L 646.462938 59.760683 
L 647.336329 53.314255 
L 647.91859 50.487587 
L 648.500851 48.963846 
L 648.791981 48.716127 
L 649.083111 48.820855 
L 649.374242 49.282539 
L 649.665372 50.103329 
L 650.247633 52.818412 
L 650.829894 56.932753 
L 651.703285 65.553134 
L 652.576677 76.725598 
L 653.741198 94.556345 
L 657.525894 156.002025 
L 658.690416 170.481045 
L 659.563807 178.976867 
L 660.437198 185.304159 
L 661.019459 188.304757 
L 661.60172 190.343757 
L 662.183981 191.443325 
L 662.475111 191.649631 
L 662.766242 191.632233 
L 663.057372 191.395331 
L 663.348503 190.943255 
L 663.930764 189.411266 
L 664.513024 187.072013 
L 665.386416 182.128443 
L 666.259807 175.573179 
L 667.424329 164.55219 
L 668.588851 151.252171 
L 670.044503 132.114495 
L 674.70259 68.33323 
L 675.575981 59.631304 
L 676.449372 53.18084 
L 677.031633 50.352452 
L 677.613894 48.827848 
L 677.905024 48.580035 
L 678.196155 48.684899 
L 678.487285 49.146953 
L 678.778416 49.968348 
L 679.360677 52.685342 
L 679.942938 56.80251 
L 680.816329 65.428733 
L 681.68972 76.608716 
L 682.854242 94.451431 
L 686.638938 155.938514 
L 687.803459 170.427367 
L 688.676851 178.928974 
L 689.550242 185.260576 
L 690.132503 188.263213 
L 690.714764 190.303591 
L 691.297024 191.403889 
L 691.588155 191.610321 
L 691.879285 191.592894 
L 692.170416 191.355813 
L 692.461546 190.903406 
L 693.043807 189.370321 
L 693.626068 187.02941 
L 694.499459 182.08236 
L 695.372851 175.522499 
L 696.537372 164.493812 
L 697.701894 151.184542 
L 699.157546 132.033616 
L 703.815633 68.208745 
L 704.689024 59.500976 
L 705.562416 53.046232 
L 706.144677 50.216009 
L 706.726938 48.690467 
L 707.018068 48.442537 
L 707.309198 48.547526 
L 707.600329 49.009949 
L 707.891459 49.831958 
L 708.47372 52.550912 
L 709.055981 56.670991 
L 709.929372 65.303241 
L 710.802764 76.490973 
L 711.967285 94.345986 
L 715.751981 155.875149 
L 716.916503 170.373861 
L 717.789894 178.88123 
L 718.663285 185.2171 
L 719.245546 188.221743 
L 719.827807 190.263463 
L 720.410068 191.364455 
L 720.701198 191.570998 
L 720.992329 191.553526 
L 721.283459 191.316248 
L 721.57459 190.863497 
L 722.156851 189.329287 
L 722.739111 186.986695 
L 723.612503 182.03613 
L 724.485894 175.47164 
L 725.650416 164.435209 
L 726.814938 151.116627 
L 728.27059 131.952344 
L 732.928677 68.083252 
L 733.219807 64.958379 
L 733.219807 64.958379 
" style="fill:none;stroke:#008000;stroke-dasharray:7.4,3.2;stroke-dashoffset:0;stroke-width:2;"/>
   </g>
   <g id="patch_10">
    <path d="M 442.380503 230.64 
L 442.380503 13.2 
" style="fill:none;stroke:#000000;stroke-linecap:square;stroke-linejoin:miter;stroke-width:2;"/>
   </g>
   <g id="patch_11">
    <path d="M 733.510938 230.64 
L 733.510938 13.2 
" style="fill:none;"/>
   </g>
   <g id="patch_12">
    <path d="M 442.380503 230.64 
L 733.510938 230.64 
" style="fill:none;stroke:#000000;stroke-linecap:square;stroke-linejoin:miter;stroke-width:2;"/>
   </g>
   <g id="patch_13">
    <path d="M 442.380503 13.2 
L 733.510938 13.2 
" style="fill:none;"/>
   </g>
  </g>
 </g>
 <defs>
  <clipPath id="pcef237545d">
   <rect height="217.44" width="291.130435" x="63.910937" y="13.2"/>
  </clipPath>
  <clipPath id="p1eff0aae28">
   <rect height="217.44" width="291.130435" x="442.380503" y="13.2"/>
  </clipPath>
 </defs>
</svg>
